<?xml version="1.0" encoding="UTF-8" standalone="no"?>
<svg viewBox="0 0 116 113" version="1.1" xmlns="http://www.w3.org/2000/svg" xmlns:xlink="http://www.w3.org/1999/xlink">
    <defs>
        <path d="M41.191964,5.76280994 C50.1226288,-0.733610603 64.5996918,-0.735360372 73.5327619,5.76280994 L103.355265,27.4565505 C112.28593,33.952971 116.761251,47.7377263 113.349121,58.2519867 L101.957939,93.3531962 C98.5467284,103.864625 86.8355656,112.385823 75.7811641,112.385823 L38.9435618,112.385823 C27.8977388,112.385823 16.1789164,103.867457 12.7667872,93.3531962 L1.37560453,58.2519867 C-2.03560586,47.7405575 2.43639054,33.9547208 11.3694607,27.4565505 L41.191964,5.76280994 Z" id="path-1" fill='white'></path>
    </defs>
    <g id="Page-1" stroke="none" stroke-width="1" fill="none" fill-rule="evenodd">
        <g id="AB-mobile" transform="translate(-2557.000000, -569.000000)">
            <g id="screen-3" transform="translate(2046.000000, 143.000000)">
                <g id="Group" transform="translate(-698.000000, 100.000000)">
                    <g id="tech-list" transform="translate(779.000000, 326.000000)">
                        <g id="css-tech" transform="translate(430.728380, 0.000000)">
                            <mask id="mask-2" fill="white">
                                <use xlink:href="#path-1"></use>
                            </mask>
                            <use id="tech-mask" fill="#4F484F" xlink:href="#path-1"></use>
                            <path d="M34.2159559,35.0849609 L81.990477,35.0849609 L77.6671278,84.2036133 L58.1368544,89.5932617 L38.6002333,83.9916992 L37.2472059,68.8515625 L47.5198975,68.8515625 L48.1235554,77.0214844 L58.1749403,79.8374023 L69.1558973,77.0214844 L69.7745497,64.2763672 L48.1235558,64.2763672 L47.2154676,54.7441406 L70.2789952,54.7441406 L71.2823622,44.7236328 L35.5117435,44.7236328 L34.2159559,35.0849609 Z" id="css-tech-icon" fill="#B96BA2" mask="url(#mask-2)"></path>
                        </g>
                    </g>
                </g>
            </g>
        </g>
    </g>
</svg>
