<?xml version="1.0" encoding="UTF-8" standalone="no"?>
<svg viewBox="0 0 115 113" version="1.1" xmlns="http://www.w3.org/2000/svg" xmlns:xlink="http://www.w3.org/1999/xlink">
    <defs>
        <path d="M41.191964,5.76280994 C50.1226288,-0.733610603 64.5996918,-0.735360372 73.5327619,5.76280994 L103.355265,27.4565505 C112.28593,33.952971 116.761251,47.7377263 113.349121,58.2519867 L101.957939,93.3531962 C98.5467284,103.864625 86.8355656,112.385823 75.7811641,112.385823 L38.9435618,112.385823 C27.8977388,112.385823 16.1789164,103.867457 12.7667872,93.3531962 L1.37560453,58.2519867 C-2.03560586,47.7405575 2.43639054,33.9547208 11.3694607,27.4565505 L41.191964,5.76280994 Z" id="path-1"></path>
    </defs>
    <g stroke="none" stroke-width="1" fill="none" fill-rule="evenodd">
        <g id="AB-mobile" transform="translate(-2416.000000, -569.000000)">
            <g id="screen-3" transform="translate(2046.000000, 143.000000)">
                <g id="Group" transform="translate(-698.000000, 100.000000)">
                    <g id="tech-list" transform="translate(779.000000, 326.000000)">
                        <g id="html-tech" transform="translate(289.181486, 0.000000)">
                            <mask id="mask-2" fill="white">
                                <use xlink:href="#path-1"></use>
                            </mask>
                            <use id="tech-mask" fill="#4F484F" xlink:href="#path-1"></use>
                            <path d="M79.6222249,35.4160156 L33.3053278,35.4160156 L35.6446859,63.1147461 L67.7697361,63.1147461 L66.721346,75.1811523 L56.5323812,78.0854492 L46.0704671,75.2734375 L45.5978109,68.0429688 L35.7556388,68.0429688 L37.3634359,82.3461914 L56.4693929,87.9423828 L75.5377523,82.4223633 L77.8390218,54.0883789 L44.2476976,54.0883789 L43.4845296,44.6811523 L78.594698,44.6811523 L79.6222249,35.4160156 Z" id="html-tech-icon" fill="#B96BA2" mask="url(#mask-2)"></path>
                        </g>
                    </g>
                </g>
            </g>
        </g>
    </g>
</svg>
