<svg xmlns="http://www.w3.org/2000/svg" viewBox="0 0 52 45">
  <path fill="#6E408E" fill-rule="evenodd" d="M11.923 1.136h8.418V28.27c0 12.23-5.092 16.498-13.234 16.498-1.994 0-4.54-.382-6.203-1.02l.943-7.833c1.163.445 2.658.764 4.32.764 3.544 0 5.76-1.85 5.76-8.475V1.135zM27.65 34.13c2.215 1.338 5.76 2.676 9.36 2.676 3.877 0 5.926-1.847 5.926-4.713 0-2.612-1.772-4.204-6.26-5.988-6.202-2.548-10.3-6.497-10.3-12.803C26.376 5.977 31.748.435 40.5.435c4.264 0 7.31.956 9.525 2.166l-1.883 7.774c-1.44-.828-4.154-2.04-7.754-2.04-3.655 0-5.427 1.976-5.427 4.142 0 2.74 2.05 3.95 6.926 6.115 6.59 2.803 9.636 6.75 9.636 12.867 0 7.197-4.762 13.312-15.01 13.312-4.262 0-8.472-1.338-10.576-2.676l1.717-7.962z"/>
</svg>
