<?xml version="1.0" encoding="UTF-8" standalone="no"?>
<svg viewBox="0 0 115 113" version="1.1" xmlns="http://www.w3.org/2000/svg" xmlns:xlink="http://www.w3.org/1999/xlink">
    <defs>
        <path d="M41.191964,5.76280994 C50.1226288,-0.733610603 64.5996918,-0.735360372 73.5327619,5.76280994 L103.355265,27.4565505 C112.28593,33.952971 116.761251,47.7377263 113.349121,58.2519867 L101.957939,93.3531962 C98.5467284,103.864625 86.8355656,112.385823 75.7811641,112.385823 L38.9435618,112.385823 C27.8977388,112.385823 16.1789164,103.867457 12.7667872,93.3531962 L1.37560453,58.2519867 C-2.03560586,47.7405575 2.43639054,33.9547208 11.3694607,27.4565505 L41.191964,5.76280994 Z" id="path-1"></path>
    </defs>
    <g stroke="none" stroke-width="1" fill="none" fill-rule="evenodd">
        <g id="AB-mobile" transform="translate(-2276.000000, -569.000000)">
            <g id="screen-3" transform="translate(2046.000000, 143.000000)">
                <g id="Group" transform="translate(-698.000000, 100.000000)">
                    <g id="tech-list" transform="translate(779.000000, 326.000000)">
                        <g id="js-tech" transform="translate(149.412911, 0.000000)">
                            <mask id="mask-2" fill="white">
                                <use xlink:href="#path-1"></use>
                            </mask>
                            <use id="tech-mask" fill="#4F484F" xlink:href="#path-1"></use>
                            <path d="M42.5095966,39.1355539 L50.9278237,39.1355539 L50.9278237,66.2705806 C50.9278237,78.5004794 45.8327231,82.7683835 37.6910983,82.7683835 C35.6974024,82.7683835 33.1498021,82.3862243 31.4880889,81.7492923 L32.4296564,73.9145691 C33.5927456,74.3604215 35.0881176,74.6788875 36.7495308,74.6788875 C40.294079,74.6788875 42.5095966,72.8315548 42.5095966,66.2071174 L42.5095966,39.1355539 L42.5095966,39.1355539 Z M58.2369425,72.1306997 C60.4522601,73.4683718 63.9969083,74.8060439 67.596837,74.8060439 C71.4737678,74.8060439 73.5229441,72.9589412 73.5229441,70.0925174 C73.5229441,67.4809813 71.75067,65.8886514 67.2645543,64.1050119 C61.061445,61.557054 56.9631923,57.6078458 56.9631923,51.3019893 C56.9631923,43.9766968 62.3353951,38.4349287 71.0860048,38.4349287 C75.3506987,38.4349287 78.396623,39.3906716 80.6121406,40.6007273 L78.7289056,48.3717573 C77.2890141,47.5438607 74.5750726,46.33346 70.9754438,46.33346 C67.3200347,46.33346 65.5476606,48.3080641 65.5476606,50.4738628 C65.5476606,53.2129002 67.596837,54.422956 72.4708157,56.5888697 C79.0612883,59.3916003 82.1074125,63.3408085 82.1074125,69.4557004 C82.1074125,76.6534916 77.3443946,82.7684984 67.098413,82.7684984 C62.8337191,82.7684984 58.6244056,81.4307114 56.5201487,80.0931542 L58.2369425,72.1306997 Z" id="js-tech-icon" fill="#B96BA2" mask="url(#mask-2)"></path>
                        </g>
                    </g>
                </g>
            </g>
        </g>
    </g>
</svg>
