<svg xmlns="http://www.w3.org/2000/svg" viewBox="0 0 115 113" xmlns:xlink="http://www.w3.org/1999/xlink">
  <defs>
    <path id="js-path-1" d="M41.192 5.763c8.93-6.497 23.408-6.498 32.34 0l29.823 21.694c8.93 6.496 13.406 20.28 9.994 30.795l-11.4 35.1c-3.41 10.513-15.12 19.034-26.178 19.034h-36.83c-11.047 0-22.766-8.52-26.178-19.033l-11.39-35.1c-3.413-10.512 1.06-24.298 9.992-30.796L41.19 5.763z"/>
  </defs>
  <g fill="none" fill-rule="evenodd" transform="translate(.413)">
    <mask id="js-mask-1" fill="#fff">
      <use xlink:href="#js-path-1"/>
    </mask>
    <use fill="#4F484F" class="tech-mask" xlink:href="#js-path-1"/>
    <path fill="#6e408e" d="M42.51 39.136h8.418V66.27c0 12.23-5.095 16.498-13.237 16.498-1.99 0-4.54-.382-6.2-1.02l.94-7.833c1.17.445 2.66.764 4.32.764 3.55 0 5.76-1.85 5.76-8.48V39.13zM58.237 72.13c2.215 1.338 5.76 2.676 9.36 2.676 3.877 0 5.926-1.847 5.926-4.713 0-2.612-1.772-4.204-6.258-5.988-6.204-2.548-10.302-6.497-10.302-12.803 0-7.325 5.372-12.867 14.123-12.867 4.265 0 7.31.956 9.526 2.166l-1.882 7.78c-1.44-.826-4.16-2.04-7.76-2.04-3.656 0-5.428 1.978-5.428 4.144 0 2.74 2.05 3.95 6.923 6.114 6.59 2.803 9.636 6.75 9.636 12.867 0 7.198-4.76 13.31-15.01 13.31-4.26 0-8.47-1.335-10.573-2.673l1.716-7.96z" mask="url(#js-mask-1)"/>
  </g>
</svg>
