<svg xmlns="http://www.w3.org/2000/svg" viewBox="0 0 62 61">
  <path fill="#6E408E" fill-rule="evenodd" d="M61.39 11.968l-1.34 2.02s-3.353-3.814-9.496-3.142c-6.145.673-16.98 6.955-18.657 20.75-1.676 13.797 4.915 28.827 4.915 28.827H7.096s-.782-4.935 1.117-14.357c1.9-9.422 4.692-15.703 9.496-24.676 4.8-8.973 12.51-16.376 23.68-17.385 11.17-1.01 19.996 7.963 19.996 7.963zM1.175 45.393l-.67 5.61 5.473.67 1.006-5.83-5.81-.45zM11.9 28.68l-5.14-2.018-1.675 4.71 5.25 1.682L11.9 28.68zm8.714-14.244l-3.91-2.58-3.13 3.477 4.023 2.692 3.017-3.59zM31.897 5.24l-2.682-3.03-3.686 1.907 2.68 3.253 3.684-2.13zM43.85 3.556L43.404.64 38.6.416l.67 3.253 4.58-.116zm13.965 3.028l-3.685-2.69-.113 2.02 3.128 1.68.67-1.01zm-4.357 7.626l3.016.338v-1.346l-3.016-.673v1.68zm-9.607-.222l1.455 2.69L47.425 15l-.447-1.796-3.127.786zm-2.343 6.842l-2.234-3.365-2.345 2.13 3.24 3.59 1.34-2.355zm-8.155 8.86l3.798 3.253.894-3.702-3.237-2.463-1.453 2.916zm-.335 11.217l4.692 2.02-.224-3.703-4.246-2.243-.223 3.93zm8.6 14.357l-2.12-4.375H34.58l1.116 4.035 5.92.336z"/>
</svg>
