<svg xmlns="http://www.w3.org/2000/svg" viewBox="0 0 116 113" xmlns:xlink="http://www.w3.org/1999/xlink">
  <defs>
    <path id="ror-path-1" d="M41.836 5.763c8.93-6.497 23.408-6.498 32.34 0L104 27.457c8.93 6.496 13.406 20.28 9.993 30.795l-11.39 35.1c-3.412 10.513-15.123 19.034-26.177 19.034H39.588c-11.046 0-22.765-8.52-26.177-19.033l-11.39-35.1c-3.41-10.513 1.06-24.298 10-30.796L41.84 5.763z"/>
  </defs>
  <g fill="none" fill-rule="evenodd">
    <mask id="ror-mask-1" fill="#fff">
      <use xlink:href="#ror-path-1"/>
    </mask>
    <use fill="#4F484F" class="tech-mask" xlink:href="#ror-path-1"/>
    <path fill="#6e408e" d="M88.39 40.968l-1.34 2.02s-3.353-3.814-9.496-3.142c-6.145.673-16.98 6.955-18.657 20.75-1.676 13.797 4.915 28.827 4.915 28.827H34.096s-.782-4.935 1.117-14.357c1.9-9.422 4.692-15.703 9.496-24.676 4.8-8.973 12.51-16.376 23.68-17.385 11.17-1.01 20 7.963 20 7.963zM28.175 74.393l-.67 5.61 5.473.67 1.006-5.83-5.81-.45zM38.9 57.68l-5.14-2.018-1.675 4.71 5.25 1.682L38.9 57.68zm8.714-14.244l-3.91-2.58-3.13 3.477 4.023 2.692 3.017-3.59zm11.283-9.197l-2.682-3.03-3.686 1.9 2.68 3.253 3.68-2.13zm11.953-1.69l-.442-2.918-4.803-.225.67 3.254 4.58-.112zm13.97 3.027l-3.69-2.69-.11 2.02 3.127 1.68.67-1.007zm-4.36 7.63l3.016.338V42.2l-3.016-.673v1.68zm-9.607-.222l1.452 2.69L74.425 44l-.447-1.796-3.127.786zm-2.346 6.842l-2.234-3.365-2.346 2.13 3.24 3.59 1.34-2.355zm-8.155 8.86l3.8 3.253.895-3.7-3.238-2.46-1.456 2.914zm-.332 11.217l4.692 2.02-.224-3.703-4.246-2.242-.224 3.93zm8.6 14.357l-2.12-4.37h-4.92l1.116 4.033 5.92.336z" mask="url(#ror-mask-1)"/>
  </g>
</svg>
