<svg xmlns="http://www.w3.org/2000/svg" viewBox="0 0 48 50">
  <path fill="#6E408E" fill-rule="evenodd" d="M46.808 32.68c-2.827 3.772-11.84 6.528-22.532 6.528-10.685 0-19.705-2.756-22.53-6.527-.598-.793-.916-.37-.916.03v5.535c0 5.36 10.497 10.92 23.446 10.92 12.95 0 23.446-5.558 23.446-10.92V32.71c0-.396-.32-.824-.914-.025zm.033-14.14c-2.77 3.334-11.83 5.778-22.56 5.778-10.734 0-19.79-2.444-22.564-5.78-.575-.687-.88-.314-.88 0v6.512c0 4.874 10.497 8.822 23.446 8.822 12.95 0 23.446-3.948 23.446-8.822v-6.513c0-.313-.308-.686-.88.002zM24.28.5C11.328.5.83 3.757.83 7.777v3.48c0 4.263 10.497 7.72 23.446 7.72 12.95 0 23.446-3.457 23.446-7.72V7.78C47.722 3.756 37.225.5 24.276.5z"/>
</svg>
