<?xml version="1.0" encoding="UTF-8" standalone="no"?>
<svg viewBox="0 0 115 113" version="1.1" xmlns="http://www.w3.org/2000/svg" xmlns:xlink="http://www.w3.org/1999/xlink">
    <defs>
        <path d="M41.191964,5.76280994 C50.1226288,-0.733610603 64.5996918,-0.735360372 73.5327619,5.76280994 L103.355265,27.4565505 C112.28593,33.952971 116.761251,47.7377263 113.349121,58.2519867 L101.957939,93.3531962 C98.5467284,103.864625 86.8355656,112.385823 75.7811641,112.385823 L38.9435618,112.385823 C27.8977388,112.385823 16.1789164,103.867457 12.7667872,93.3531962 L1.37560453,58.2519867 C-2.03560586,47.7405575 2.43639054,33.9547208 11.3694607,27.4565505 L41.191964,5.76280994 Z" id="sql-path-1"></path>
    </defs>
    <g stroke="none" stroke-width="1" fill="none" fill-rule="evenodd">
        <g transform="translate(-2699.000000, -569.000000)">
            <g transform="translate(2046.000000, 143.000000)">
                <g transform="translate(-698.000000, 100.000000)">
                    <g transform="translate(779.000000, 326.000000)">
                        <g transform="translate(572.275274, 0.000000)">
                            <mask id="skills-mask-sql" fill="white">
                                <use xlink:href="#sql-path-1"></use>
                            </mask>
                            <use class="tech-mask" fill="#4F484F" xlink:href="#sql-path-1"></use>
                            <path d="M80.5324446,67.6805943 C77.7055016,71.4515849 68.6921085,74.2079468 58.0006367,74.2079468 C47.3158638,74.2079468 38.2957718,71.4515849 35.4721782,67.6805943 C34.8726251,66.8816088 34.5544266,67.3101304 34.5544266,67.7054762 L34.5544266,73.2403173 C34.5544266,78.600985 45.0516298,84.1579433 58.0006367,84.1579433 C70.9496436,84.1579433 81.4468468,78.600985 81.4468468,73.2403173 L81.4468468,67.7054762 C81.4468468,67.3101304 81.1252988,66.8816088 80.5324446,67.6805943 L80.5324446,67.6805943 Z M80.5659392,53.5393795 C77.789238,56.8735545 68.7356515,59.3175103 58.0006367,59.3175103 C47.2656219,59.3175103 38.2120353,56.8735545 35.4353342,53.5393795 C34.8592273,52.8509802 34.5544266,53.2242088 34.5544266,53.5366149 L34.5544266,60.0501441 C34.5544266,64.9242324 45.0516298,68.872161 58.0006367,68.872161 C70.9496436,68.872161 81.4468468,64.9242324 81.4468468,60.0501441 L81.4468468,53.5366149 C81.4468468,53.2242088 81.1386966,52.8509802 80.5659392,53.5393795 L80.5659392,53.5393795 Z M58.0006367,35.5 C45.0516298,35.5 34.5544266,38.7567646 34.5544266,42.7765742 L34.5544266,46.257276 C34.5544266,50.5203753 45.0516298,53.9761952 58.0006367,53.9761952 C70.9496436,53.9761952 81.4468468,50.5203753 81.4468468,46.257276 L81.4468468,42.7793389 C81.4468468,38.7567646 70.9496436,35.5 58.0006367,35.5 L58.0006367,35.5 Z" id="db-tech-icon" fill="#B96BA2" mask="url(#skills-mask-sql)"></path>
                        </g>
                    </g>
                </g>
            </g>
        </g>
    </g>
</svg>
