<svg xmlns="http://www.w3.org/2000/svg" viewBox="0 0 115 113" xmlns:xlink="http://www.w3.org/1999/xlink">
  <defs>
    <path id="sql-path-1" d="M41.192 5.763c8.93-6.497 23.408-6.498 32.34 0l29.823 21.694c8.93 6.496 13.406 20.28 9.994 30.795l-11.398 35.1c-3.41 10.513-15.122 19.034-26.177 19.034h-36.83c-11.047 0-22.766-8.52-26.178-19.033l-11.39-35.1c-3.413-10.512 1.06-24.298 9.992-30.796L41.19 5.763z"/>
  </defs>
  <g fill="none" fill-rule="evenodd" transform="translate(.275)">
    <mask id="sql-mask-1" fill="#fff">
      <use xlink:href="#sql-path-1"/>
    </mask>
    <use fill="#4F484F" class="tech-mask" xlink:href="#sql-path-1"/>
    <path fill="#6e408e" d="M80.532 67.68c-2.826 3.772-11.84 6.528-22.53 6.528-10.686 0-19.706-2.756-22.53-6.527-.6-.792-.918-.37-.918.03v5.536c0 5.36 10.498 10.92 23.447 10.92 12.95 0 23.45-5.558 23.45-10.92V67.71c0-.396-.32-.824-.912-.025zm.034-14.14C77.79 56.873 68.736 59.317 58 59.317c-10.734 0-19.788-2.444-22.565-5.78-.576-.687-.88-.314-.88 0v6.512c0 4.87 10.497 8.82 23.446 8.82 12.95 0 23.45-3.95 23.45-8.82v-6.52c0-.313-.31-.686-.88.002zM58 35.5c-12.948 0-23.446 3.257-23.446 7.277v3.48c0 4.263 10.498 7.72 23.447 7.72 12.95 0 23.45-3.457 23.45-7.72V42.78c0-4.023-10.494-7.28-23.443-7.28z" mask="url(#sql-mask-1)"/>
  </g>
</svg>
