<svg xmlns="http://www.w3.org/2000/svg" viewBox="0 0 512 512" style="enable-background:new 0 0 512 512" xml:space="preserve">
  <linearGradient id="a" gradientUnits="userSpaceOnUse" x1="16.067" y1="48.2" x2="495.933" y2="528.067">
    <stop offset="0" style="stop-color:#aa30be"/>
    <stop offset="1" style="stop-color:#5723b5"/>
  </linearGradient>
  <path d="M30 181v31h452v-31c0-16.5 13.5-30 30-30H0c16.5 0 30 13.5 30 30zm15 241h90c-8.3 0-15-6.7-15-15V257c0-8.3 6.7-15 15-15H45c8.3 0 15 6.7 15 15v150c0 8.3-6.7 15-15 15zm437 30H30v30H0v30h512v-30h-30v-30zm-105-30h90c-8.3 0-15-6.7-15-15V257c0-8.3 6.7-15 15-15h-90c8.3 0 15 6.7 15 15v150c0 8.3-6.7 15-15 15zm-121-45c-8.3 0-15-6.7-15-15h-30c0 19.5 12.6 36 30 42.2V422h30v-17.8c17.4-6.2 30-22.7 30-42.2 0-24.8-20.2-45-45-45-8.3 0-15-6.7-15-15s6.7-15 15-15 15 6.7 15 15h30c0-19.5-12.6-36-30-42.2V242h-30v17.8c-17.4 6.2-30 22.7-30 42.2 0 24.8 20.2 45 45 45 8.3 0 15 6.7 15 15s-6.7 15-15 15zM0 64.3V121h512V64.3L256 0 0 64.3zM271 76h-30V46h30v30z" style="fill:url(#a)"/>
</svg>
