<svg xmlns="http://www.w3.org/2000/svg" viewBox="0 0 464 464" style="enable-background:new 0 0 464 464" xml:space="preserve">
  <linearGradient id="a" gradientUnits="userSpaceOnUse" x1="58.056" y1="-16.397" x2="405.941" y2="331.487">
    <stop offset="0" style="stop-color:#aa30be"/>
    <stop offset="1" style="stop-color:#5723b5"/>
  </linearGradient>
  <path d="M155 236.8c5.7-1.2 11.6-3.8 17.2-7.8 16.1-11.7 23.3-30.8 16-42.8-8-13-29.7-12.2-46.4 2.7-16 13.8-19.4 28.2-19.4 43.4 0 10.7 3.4 29.8 24.4 46.4 9.9-7.6 21.7-13.9 35-18.5l.2-.1c-10.3-4.2-23.7-12.6-27-23.3zm-2.6-36.8c0-4.5 3.6-8.1 8-8.1s8 3.6 8 8.1-3.6 8.1-8 8.1-8-3.6-8-8.1zm189.5 32.3c0-15.2-3.4-29.6-19.4-43.4-16.7-14.8-38.5-15.7-46.4-2.7-7.3 12-.2 31.1 16 42.8 5.6 4 11.6 6.6 17.2 7.8-2 6.4-8 12.9-17.1 18.4-12.6 7.5-19.4 8.5-100 35.2-29.8 10.1-47.6 30.3-47.6 53.9 0 16.8 8.6 29.8 20.5 39.3 7.5-7.7 16.9-14.4 27.8-19.8-12.6-6.4-16.5-11.2-16.5-19.5 0-13.7 27.3-21.5 39.9-25.6v34.6l31.9-14.2v-20.3c12.6 4.2 39.8 12 39.8 25.6 0 22.7-64.9 36-92.5 55.1-13.4 9.3-20.6 21.1-20.6 35 0 8 .9 17.9 14.9 27.7 4 3.2 9.5-1.5 6.9-5.9-9.2-18.5.6-27.7 19.6-35.8v26.7c0 8.8 7.1 15.9 15.9 15.9s15.9-7.1 15.9-15.9v-26.7c18.3 7.7 29.8 18.5 19.6 35.7-2.5 4.4 2.9 9.1 6.9 5.9 13.5-10.3 14.6-19.1 14.6-27.5 0-12.9-7.1-25.5-20.5-35.1 27.1-9.8 51.1-26.3 51.1-55.2 0-19.9-12.7-37.4-34.6-48.5 10.2-3.7 15.4-6.2 22.2-10.2 30-17.8 34.5-41.1 34.5-53.3zm-38-24.2c-4.4 0-8-3.6-8-8.1s3.6-8.1 8-8.1 8 3.6 8 8.1c-.1 4.5-3.6 8.1-8 8.1zM455.2 32.8H346c-21.4 0-37.5 9.5-51.3 23.3-15 15-22.8 48.4-46.7 48.4V60.2c9.5-5.5 15.9-15.7 15.9-27.5C263.9 15.1 249.6.8 232 .8s-31.9 14.3-31.9 31.9c0 11.8 6.4 21.9 15.9 27.5v190c9.8-3.1 20.6-6.6 31.9-10.2v-79.8c6.9-3.5 12.5-9.1 15.9-16 5.5 9.5 16.1 16.2 27.8 16.2 11.9 0 22.2-6.6 27.6-16.3 18.7 18.7 53.4 19 72.1.4l-27.1-27.1 12.4 5.1c24.4 10.1 52.4-1.5 62.5-25.9l-38.5-15.9c37.4-.1 54.6-23.5 54.6-47.9zM169.3 56.1c-13.8-13.8-29.9-23.3-51.3-23.3H8.9c0 24.4 17.1 47.8 54.4 47.8l-38.5 16c10.1 24.4 38.1 36 62.5 25.9l12.4-5.1-27.1 27.1c18.7 18.7 53.4 18.3 72.1-.4 5.5 9.7 15.7 16.3 27.6 16.3h.4c15.6-.2 27.5-14.2 27.5-29.8V98.4c-12.6-10.3-19.8-31.2-30.9-42.3z" style="fill:url(#a)"/>
</svg>
