<svg xmlns="http://www.w3.org/2000/svg" viewBox="0 0 512 512" style="enable-background:new 0 0 512 512" xml:space="preserve">
  <linearGradient id="a" gradientUnits="userSpaceOnUse" x1="57.276" y1="-1.784" x2="454.727" y2="395.666">
    <stop offset="0" style="stop-color:#aa30be"/>
    <stop offset="1" style="stop-color:#5723b5"/>
  </linearGradient>
  <path d="M276.7 21.5 256 7l-20.7 14.5C177.5 61.9 99.3 55.8 48.5 7v321.9c0 57.9 35.6 109.8 89.6 130.6L256 505l117.9-45.5c54-20.8 89.6-72.7 89.6-130.6V7c-50.8 48.8-129 54.9-186.8 14.5zm154.8 307.4c-.2 44.6-27.6 84.5-69.1 100.8l-106.4 41-106.4-41c-41.5-16.2-68.9-56.2-69.1-100.8v-263c22.2 9.4 46.1 14.3 70.2 14.2 36.8.1 72.7-11.3 102.9-32.4L256 46l2.4 1.7c30.1 21.2 66 32.5 102.9 32.4 24.1 0 48-4.8 70.2-14.2v263zM277.7 137.3c-65.5-12-128.3 31.4-140.3 96.9s31.4 128.3 96.9 140.3 128.3-31.4 140.3-96.9-31.4-128.3-96.9-140.3zM328.4 272H272v56.4h-32V272h-56.4v-32H240v-56.4h32V240h56.4v32z" style="fill:url(#a)"/>
</svg>
