<svg enable-background="new 0 0 56.693 56.693" id="Layer_1" version="1.1" viewBox="0 0 56.693 56.693" xml:space="preserve" xmlns="http://www.w3.org/2000/svg" xmlns:xlink="http://www.w3.org/1999/xlink">
  <g>
    <path fill="url(#radialGradient-49)" d="M33.886,32.544h-9.385c-0.881,0-1.594,0.707-1.594,1.584c0,0.861,0.713,1.588,1.594,1.588h9.385   c0.877,0,1.586-0.727,1.586-1.588C35.472,33.251,34.763,32.544,33.886,32.544z"/>
    <path fill="url(#radialGradient-49)" d="M24.501,26.19h4.619c0.881,0,1.596-0.725,1.596-1.596c0-0.873-0.715-1.592-1.596-1.592h-4.619   c-0.881,0-1.594,0.719-1.594,1.592C22.907,25.466,23.62,26.19,24.501,26.19z"/>
    <path fill="url(#radialGradient-49)" d="M28.347,5.157c-13.6,0-24.625,11.023-24.625,24.624c0,13.6,11.024,24.625,24.625,24.625   c13.602,0,24.625-11.025,24.625-24.625C52.972,16.18,41.948,5.157,28.347,5.157z M42.296,34.251c-0.025,4.574-3.748,8.32-8.33,8.32   h-9.57c-4.583,0-8.328-3.746-8.328-8.32V24.53c0-4.584,3.745-8.338,8.328-8.338h5.824c2.152,0.256,5.281,2.098,6.436,4.549   c0.316,0.686,0.484,0.793,0.746,2.831c0.143,1.049,0.215,1.824,0.684,2.254c0.658,0.6,3.109,0.197,3.592,0.574l0.373,0.291   l0.221,0.459l0.076,0.367L42.296,34.251z"/>
  </g>
</svg>
