<svg version="1.1" xmlns="http://www.w3.org/2000/svg" xmlns:xlink="http://www.w3.org/1999/xlink" viewBox="0 0 640 640">
<path fill="url(#radialGradient-49)" d="M320.48 318.368c0 0-0.32 0-0.48 0h-0.48c-38.112 0-71.68-9.696-91.552 8.576-11.872 10.944-16.864 24.128-16.864 38.304 0 59.264 47.456 66.56 108.448 66.56h0.928c60.96 0 108.448-7.328 108.448-66.56 0-14.176-4.992-27.392-16.864-38.304-19.904-18.272-53.472-8.576-91.584-8.576zM268.576 399.36c-11.616 0-20.992-13.056-20.992-29.12s9.376-29.056 20.992-29.056c11.616 0 21.024 12.992 21.024 29.056 0.032 16.064-9.376 29.12-21.024 29.12zM371.392 399.36c-11.616 0-21.024-13.056-21.024-29.12s9.408-29.056 21.024-29.056c11.584 0 20.992 12.992 20.992 29.056 0.032 16.064-9.376 29.12-20.992 29.12zM320 12.8c-169.664 0-307.2 137.536-307.2 307.2s137.536 307.2 307.2 307.2 307.2-137.536 307.2-307.2-137.536-307.2-307.2-307.2zM348.032 446.048c-5.504 0-16.448 0-28.032 0.064-11.584-0.064-22.528-0.064-28.032-0.064-24.32 0-120.704-1.888-120.704-118.048 0-26.688 9.152-46.24 24.16-62.56-2.368-5.888-2.496-39.424 10.24-71.552 0 0 29.312 3.2 73.632 33.632 9.248-2.592 24.992-3.904 40.704-3.904s31.424 1.312 40.736 3.872c44.32-30.432 73.632-33.632 73.632-33.632 12.736 32.128 12.64 65.696 10.24 71.552 15.008 16.32 24.16 35.872 24.16 62.56-0.032 116.224-96.416 118.080-120.736 118.080z"></path fill="url(#radialGradient-49)">
</svg>
