<svg version="1.1" xmlns="http://www.w3.org/2000/svg" xmlns:xlink="http://www.w3.org/1999/xlink" viewBox="0 0 640 640">
  <path fill="url(#radialGradient-49)" d="M320 12.8c-169.664 0-307.2 137.536-307.2 307.2s137.536 307.2 307.2 307.2 307.2-137.536 307.2-307.2-137.536-307.2-307.2-307.2zM244.8 447.328h-62.208v-200.192h62.208v200.192zM213.312 222.56c-19.648 0-32.352-13.92-32.352-31.136 0-17.568 13.088-31.072 33.152-31.072s32.352 13.504 32.736 31.072c0 17.216-12.672 31.136-33.536 31.136zM472 447.328h-62.208v-110.944c0-25.824-9.024-43.36-31.52-43.36-17.184 0-27.392 11.872-31.904 23.296-1.664 4.064-2.080 9.824-2.080 15.552v115.424h-62.24v-136.32c0-24.992-0.8-45.888-1.632-63.872h54.048l2.848 27.808h1.248c8.192-13.056 28.256-32.32 61.824-32.32 40.928 0 71.616 27.424 71.616 86.368v118.368z">
</svg>
