<svg version="1.1" xmlns="http://www.w3.org/2000/svg" xmlns:xlink="http://www.w3.org/1999/xlink" viewBox="0 0 640 640" xml:base='/'>
  <path fill="url(#radialGradient-49)" d="M320 12.8c-169.664 0-307.2 137.536-307.2 307.2s137.536 307.2 307.2 307.2 307.2-137.536 307.2-307.2-137.536-307.2-307.2-307.2zM341.024 392.8c-19.712-1.504-27.968-11.264-43.392-20.608-8.48 44.512-18.848 87.2-49.568 109.504-9.504-67.328 13.888-117.824 24.768-171.488-18.528-31.2 2.208-93.952 41.312-78.528 48.096 19.072-41.664 116 18.592 128.128 62.912 12.608 88.608-109.184 49.6-148.736-56.384-57.184-164.064-1.312-150.816 80.544 3.2 20 23.904 26.080 8.256 53.696-36.064-8-46.848-36.448-45.44-74.368 2.208-62.080 55.776-105.568 109.472-111.552 67.936-7.552 131.68 24.928 140.512 88.864 9.888 72.128-30.688 150.176-103.296 144.544z">
</svg>
