<svg version="1.1" xmlns="http://www.w3.org/2000/svg" xmlns:xlink="http://www.w3.org/1999/xlink" viewBox="0 0 640 640">
<path fill="url(#radialGradient-49)" d="M320 12.8c-169.664 0-307.2 137.536-307.2 307.2s137.536 307.2 307.2 307.2 307.2-137.536 307.2-307.2-137.536-307.2-307.2-307.2zM444.96 264.448c0.128 2.624 0.16 5.248 0.16 7.808 0 80-60.832 172.192-172.128 172.192-34.176 0-65.984-9.984-92.736-27.2 4.704 0.576 9.536 0.8 14.432 0.8 28.352 0 54.432-9.632 75.136-25.888-26.464-0.512-48.8-17.984-56.512-41.984 3.68 0.672 7.456 1.056 11.36 1.056 5.504 0 10.88-0.736 15.936-2.112-27.68-5.568-48.544-30.016-48.544-59.328v-0.736c8.16 4.512 17.504 7.264 27.424 7.584-16.256-10.88-26.912-29.376-26.912-50.4 0-11.072 2.976-21.504 8.192-30.432 29.856 36.608 74.4 60.672 124.704 63.264-1.056-4.448-1.568-9.056-1.568-13.824 0-33.376 27.072-60.512 60.512-60.512 17.376 0 33.12 7.36 44.16 19.136 13.792-2.752 26.72-7.744 38.4-14.688-4.512 14.112-14.080 25.984-26.592 33.504 12.256-1.504 23.904-4.736 34.752-9.568-8.096 12.128-18.368 22.816-30.176 31.328z"></path fill="url(#radialGradient-49)">
</svg>
