<svg version="1.1" xmlns="http://www.w3.org/2000/svg" xmlns:xlink="http://www.w3.org/1999/xlink" viewBox="0 0 640 640" xml:base='/'>
  <path fill="url(#radialGradient-49)" d="M371.296 314.656l-71.872-33.536c-6.272-2.912-11.424 0.352-11.424 7.296v63.168c0 6.944 5.152 10.208 11.424 7.296l71.84-33.536c6.304-2.944 6.304-7.744 0.032-10.688zM320 12.8c-169.664 0-307.2 137.536-307.2 307.2s137.536 307.2 307.2 307.2 307.2-137.536 307.2-307.2-137.536-307.2-307.2-307.2zM320 444.8c-157.248 0-160-14.176-160-124.8s2.752-124.8 160-124.8 160 14.176 160 124.8-2.752 124.8-160 124.8z">
</svg>
