<?xml version="1.0" encoding="UTF-8"?>
<svg enable-background="new 0 0 142.7 57.7" version="1.1" viewBox="0 0 142.7 57.7" xml:space="preserve" xmlns="http://www.w3.org/2000/svg">

	<a href="#beatthread">
		<rect x=".3" y=".3" width="142" height="57.1" fill="#fff" stroke="#5F52CA" stroke-miterlimit="10" stroke-width=".5"/>
      <g fill="#5F52CA">
		<path d="m84.6 23.9c-0.4-6.9-6-12.6-13-13.2-2.8-0.2-5.5 0.4-7.9 1.6l-5.4-4.8c-0.4-0.3-0.9-0.4-1.3-0.2s-0.7 0.7-0.7 1.2v16.6 0.1c0.1 3.7 1.6 7.2 4.3 9.8 2.6 2.6 6.2 4.1 10 4.1 3.9 0 7.7-1.6 10.4-4.6 2.5-2.8 3.9-6.7 3.6-10.6zm-4.3 10.2c-2.6 2.7-6.1 4.3-9.8 4.3-3.5 0-6.9-1.4-9.5-3.9-2.4-2.4-3.8-5.6-4-9h3.8c0.7 0 1.2-0.5 1.2-1.1v-1.6c0-0.1 0.2-0.3 0.5-0.3s0.5 0.1 0.5 0.3v6.2c0 0.6 0.6 1.1 1.2 1.1s1.2-0.5 1.2-1.1v-7.8c0-0.1 0.2-0.3 0.5-0.3s0.5 0.1 0.5 0.3v8.6c0 0.6 0.6 1.1 1.2 1.1 0.7 0 1.2-0.5 1.2-1.1v-10.7c0-0.1 0.2-0.3 0.5-0.3s0.5 0.1 0.5 0.3v9.9c0 0.6 0.6 1.1 1.2 1.1s1.2-0.5 1.2-1.1v-8.6c0-0.1 0.2-0.3 0.5-0.3s0.5 0.1 0.5 0.3v8.6c0 0.6 0.6 1.1 1.2 1.1s1.2-0.5 1.2-1.1v-7.8c0-0.1 0.2-0.3 0.5-0.3s0.5 0.1 0.5 0.3v6.2c0 0.6 0.6 1.1 1.2 1.1 0.7 0 1.2-0.5 1.2-1.1v-1.6c0-0.1 0.2-0.3 0.5-0.3h4.5c-0.3 3.2-1.5 6.2-3.7 8.6zm-1.5-8.3v1.6c0 0.1-0.2 0.3-0.5 0.3s-0.5-0.1-0.5-0.3v-6.2c0-0.6-0.6-1.1-1.2-1.1-0.7 0-1.2 0.5-1.2 1.1v7.8c0 0.1-0.2 0.3-0.5 0.3s-0.5-0.1-0.5-0.3v-8.6c0-0.6-0.6-1.1-1.2-1.1s-1.2 0.5-1.2 1.1v8.6c0 0.1-0.2 0.3-0.5 0.3s-0.5-0.1-0.5-0.3v-9.9c0-0.6-0.6-1.1-1.2-1.1-0.7 0-1.2 0.5-1.2 1.1v10.7c0 0.1-0.2 0.3-0.5 0.3s-0.5-0.1-0.5-0.3v-8.6c0-0.6-0.6-1.1-1.2-1.1s-1.2 0.5-1.2 1.1v7.8c0 0.1-0.2 0.3-0.5 0.3s-0.5-0.1-0.5-0.3v-6.2c0-0.6-0.6-1.1-1.2-1.1-0.7 0-1.2 0.5-1.2 1.1v1.6c0 0.1-0.2 0.3-0.5 0.3h-3.9v-16.2c0-0.2 0.1-0.4 0.3-0.4-0.4-0.1-0.2-0.1-0.1 0l5.6 4.9c0.1 0.1 0.3 0.1 0.4 0.1 2.4-1.3 5-1.9 7.7-1.7 6.5 0.5 11.8 5.9 12.3 12.5v0.8h-3.7c-0.5 0-1.1 0.6-1.1 1.1z"/>
        <g enable-background="new    ">
			<path d="m45.6 48.5c0 1.1-1 1.9-2.6 1.9h-2.5c-0.1 0-0.2-0.1-0.2-0.3v-5.6c0-0.1 0.1-0.2 0.2-0.2h2.4c1.5 0 2.4 0.7 2.4 1.7 0 0.5-0.2 0.9-0.7 1.2 0.7 0.1 1 0.6 1 1.3zm-3.8-3.2v1.5h1.3c0.5 0 0.9-0.3 0.9-0.7s-0.4-0.7-1-0.7h-1.2zm2.4 3.2c0-0.5-0.4-0.8-1.1-0.8h-1.3v1.6h1.3c0.7 0.1 1.1-0.3 1.1-0.8z"/>
          <path d="m51.6 49.5-0.1 0.8c0 0.1-0.1 0.2-0.2 0.2h-4.3c-0.2 0-0.2-0.1-0.2-0.2v-5.7c0-0.2 0.1-0.2 0.2-0.2h4.1c0.1 0 0.2 0.1 0.2 0.2v0.8c0 0.1-0.1 0.2-0.2 0.2h-2.8v1.3h2.3c0.1 0 0.2 0.1 0.2 0.2v0.9c0 0.1 0 0.2-0.2 0.2h-2.3v1.4h3.1c0.2-0.3 0.2-0.3 0.2-0.1z"/>
          <path d="m58.2 50.4-0.9 0.1c-0.2 0-0.3-0.1-0.3-0.2l-0.4-1.1h-2.6l-0.4 1c0 0.2-0.2 0.2-0.3 0.2h-0.9c-0.2 0-0.3-0.1-0.2-0.3l2.1-5.7c0.1-0.2 0.2-0.2 0.3-0.2h1.2c0.2 0 0.3 0.1 0.3 0.2l2.2 5.7c0.2 0.2 0.1 0.3-0.1 0.3zm-2-2.3-0.9-2.5-0.9 2.5h1.8z"/>
          <path d="m63.9 44.4v0.9c0 0.1-0.1 0.2-0.2 0.2h-2.1v4.8c0 0.1-0.1 0.2-0.2 0.2h-1.1c-0.1 0-0.2-0.1-0.2-0.2v-4.8h-2c-0.2 0-0.2-0.1-0.2-0.3l0.1-0.8c0-0.1 0.1-0.2 0.2-0.2h5.6c0.1 0 0.1 0.1 0.1 0.2z"/>
		</g>
        <g enable-background="new    ">
			<path d="m70.5 44.2v0.1h-2.8v6h-0.1v-6h-2.7s-0.1 0-0.1-0.1c0 0 0-0.1 0.1-0.1h2.9l2.7 0.1c-0.1 0 0 0 0 0z"/>
          <path d="m76.7 44.2v6.1h-0.1v-2.9h-4.7v2.9h-0.1v-6.1h0.1v3h4.7v-3h0.1z"/>
          <path d="m83.6 50.4h-0.1s-0.1 0-0.1-0.1l-1.4-2.5c-0.3 0.1-0.7 0.1-1 0.1h-1.8v2.5h-0.1v-6.1s0-0.1 0.1-0.1h2.1c1.5 0 2.3 0.5 2.3 1.8 0 0.9-0.5 1.5-1.3 1.7l1.3 2.7zm-2.6-2.7c1.5 0 2.3-0.5 2.3-1.7s-0.8-1.6-2.1-1.7h-2v3.3h1.8z"/>
          <path d="m89.7 50.3c0 0.1 0 0.1-0.1 0.1h-4.2c-0.1 0-0.1 0-0.1-0.1v-6c0-0.1 0-0.1 0.1-0.1h4 0.1v0.1s0 0.1-0.1 0.1h-3.9v2.8h3.2v0.1h-3.2v2.9l4.2 0.1v0z"/>
          <path d="m95.8 50.4h-0.1l-0.8-1.8h-3.8l-0.8 1.8h-0.1-0.1c-0.1 0-0.1 0-0.1-0.1l2.7-6c0-0.1 0-0.1 0.1-0.1h0.2c0.1 0 0.1 0 0.1 0.1l2.7 6.1zm-1-2-1.8-4-1.8 4h3.6z"/>
          <path d="m97.1 50.4c-0.1 0-0.1 0 0 0l-0.1-6.1s0-0.1 0.1-0.1h2c2.1 0 3.3 1.3 3.3 3.2 0 2-1.2 3-3.5 3h-1.8zm1.8-0.2c2.2 0 3.3-1 3.3-2.8s-1.1-3-3.1-3h-1.9v5.8h1.7z"/>
		</g>
	</g>
  </a>

</svg>