<?xml version="1.0" encoding="UTF-8"?>
<svg enable-background="new 0 0 142.7 57.7" version="1.1" viewBox="0 0 142.7 57.7" xml:space="preserve" xmlns="http://www.w3.org/2000/svg">

  <a href="#daisybill">

		<rect x=".3" y=".3" width="142" height="57.1" fill="#fff" stroke="#5F52CA" stroke-miterlimit="10" stroke-width=".5"/>
    <g fill="#5F52CA">
		<path d="m32 16.1c-6.1 0-11.1 5-11.1 11.1s5 11.1 11.1 11.1 11-5.1 11-11.2-4.9-11-11-11zm7.2 13.7c-0.3 0-0.6-0.1-0.8-0.1-0.1 0.2-0.1 0.3-0.2 0.5 0.9 0.4 1.6 1.3 1.6 2.4 0 1.4-1.1 2.6-2.6 2.6-1 0-2-0.6-2.4-1.6-0.1 0-0.2 0.1-0.3 0.1 0.1 0.3 0.2 0.5 0.2 0.8 0 1.4-1.1 2.6-2.6 2.6-1.4 0-2.6-1.1-2.6-2.6 0-0.3 0.1-0.6 0.2-0.8-0.1-0.1-0.3-0.1-0.4-0.2-0.4 0.8-1.2 1.3-2.3 1.3-1.4 0-2.6-1.1-2.6-2.6 0-1 0.6-1.9 1.4-2.3 0-0.1-0.1-0.2-0.1-0.3-0.3 0.1-0.5 0.1-0.8 0.1-1.4 0-2.6-1.1-2.6-2.6s1.1-2.6 2.6-2.6c0.3 0 0.6 0.1 0.8 0.1 0-0.1 0.1-0.3 0.2-0.4-0.8-0.4-1.4-1.3-1.4-2.3 0-1.4 1.1-2.6 2.6-2.6 1 0 2 0.6 2.4 1.4 0.1-0.1 0.3-0.1 0.4-0.2-0.1-0.3-0.2-0.6-0.2-0.9 0-1.4 1.1-2.6 2.6-2.6 1.4 0 2.6 1.1 2.6 2.6 0 0.3-0.1 0.6-0.2 0.9 0.1 0 0.2 0.1 0.4 0.1 0.4-0.8 1.3-1.4 2.4-1.4 1.4 0 2.6 1.1 2.6 2.6 0 1-0.6 1.9-1.4 2.4 0.1 0.1 0.1 0.2 0.2 0.4 0.3-0.1 0.5-0.2 0.8-0.2 1.4 0 2.6 1.1 2.6 2.6s-1.6 2.8-3.1 2.8z"/>
      <circle cx="32" cy="27.1" r="2.6"/>

      <path d="m46.4 32.1h1.8v-9.2h-1.8v-1.1h4.2c4.2 0 7.1 0.9 7.1 5.7s-2.9 5.8-7.1 5.8h-4.2v-1.2zm3.3 0h0.9c3.3 0 5.5-0.9 5.5-4.6s-2.2-4.6-5.5-4.6h-0.9v9.2z"/>
      <path d="m65.1 31.5c-0.4 1.3-1.4 1.8-2.7 1.8-1.6 0-3.1-0.7-3.1-2.5 0-2.4 2.4-2.6 4.3-2.6h1.5v-0.5c0-1.3-0.7-1.7-1.9-1.7-1.1 0-2 0.2-2.1 1.4h-1.5c0.1-1.8 1.7-2.5 3.4-2.5 1.9 0 3.6 0.4 3.6 2.5v4.6h1.4v1.1h-2.8v-1.6zm-2.5 0.7c1.8 0 2.5-1.3 2.5-2.8h-1.2c-1 0-3.1 0-3.1 1.5 0 1 0.9 1.3 1.8 1.3z"/>
      <path d="m68.8 32.1h1.4v-5.8h-1.4v-1.1h2.8v6.9h1.4v1.1h-4.2v-1.1zm2.8-8.8h-1.6v-1.7h1.7v1.7z"/>
      <path d="m74.1 33.2v-2.8h1.1c0 0.8 0.4 1.2 0.8 1.5 0.5 0.3 1.1 0.4 1.8 0.4s1.7-0.4 1.7-1.2c0-1.1-1.2-1.1-2.1-1.2-1.5-0.2-3.3-0.4-3.3-2.3 0-1.7 1.6-2.5 3.1-2.5 1 0 2 0.3 2.4 1.1v-1h1.1v2.6h-1.1c0-0.7-0.2-1.1-0.7-1.4-0.4-0.2-0.9-0.3-1.5-0.3-0.8 0-2 0.2-2 1.2 0 0.9 1.4 0.9 2.4 1.1 1.4 0.2 3 0.5 3 2.3 0 1.9-1.7 2.6-3.3 2.6-0.9 0-2.1-0.4-2.4-1.3v1.1h-1z"/>
      <path d="m91.5 26.3h-0.9l-3.3 7.6c-0.6 1.4-1 2.3-2.6 2.3-0.4 0-0.7-0.1-1.1-0.1v-1.1c0.3 0 0.5 0.1 0.8 0.1 1.2 0 1.3-1 1.8-2l-3.1-6.9h-0.9v-1.1h4v1.1h-1.5l2.3 5.4 2.3-5.4h-1.5v-1.1h3.8v1.2z"/>
      <path d="m92.3 32.1h1.7v-9.2h-1.8v-1.1h5.2c1.9 0 4.5 0.1 4.5 3.1 0 1.2-0.9 2.3-2.3 2.5 1.6 0 2.6 0.9 2.6 2.7 0 2.8-2.3 3.2-4.8 3.2h-5.2v-1.2zm3.3-5.3h1.8c1.5 0 2.8-0.3 2.8-2.1 0-1.9-1.7-1.9-2.8-1.9h-1.9v4zm0 5.3h1.9c1.6 0 3.2-0.3 3.2-2.1 0-1.7-1.5-2-3.2-2h-1.9v4.1z"/>
      <path d="m104 32.1h1.4v-5.8h-1.4v-1.1h2.8v6.9h1.4v1.1h-4.2v-1.1zm2.8-8.8h-1.7v-1.7h1.7v1.7z"/>
      <path d="m108.8 32.1h1.4v-9.2h-1.4v-1.1h2.8v10.4h1.4v1.1h-4.2v-1.2z"/>
      <path d="m113.7 32.1h1.4v-9.2h-1.4v-1.1h2.8v10.4h1.4v1.1h-4.2v-1.2z"/>

	</g>
  </a>

</svg>
