<?xml version="1.0" encoding="UTF-8"?>
<svg enable-background="new 0 0 142.7 57.7" version="1.1" viewBox="0 0 142.7 57.7" xml:space="preserve" xmlns="http://www.w3.org/2000/svg">

	<a href="#everseat">
		<rect x=".3" y=".3" width="142" height="57.1" fill="#fff" stroke="#5F52CA" stroke-miterlimit="10" stroke-width=".5"/>
      <g fill="#5F52CA">
		<path d="m67.4 8c-6.5 0-11.8 5.3-11.8 11.8s5.3 11.8 11.8 11.8 11.8-5.3 11.8-11.8-5.3-11.8-11.8-11.8zm7.1 13.5-0.6 1.4c-0.1 0.2-0.2 0.3-0.3 0.3h-1.8c-0.3 0-0.5 0.3-0.3 0.6l3 4.4c0.1 0.2 0.1 0.4-0.1 0.5l-1.4 0.9c-0.2 0.1-0.4 0.1-0.5-0.1l-4.1-6c-0.1-0.1-0.2-0.2-0.3-0.2h-1.2c-0.1 0-0.3 0.1-0.3 0.2l-4.4 6c-0.1 0.2-0.3 0.2-0.5 0.1l-1.2-1c-0.2-0.1-0.2-0.3-0.1-0.5l3-4.3c0.2-0.3 0-0.6-0.3-0.6h-2.2c-0.2 0-0.3-0.2-0.3-0.3v-11.8c0-0.2 0.1-0.3 0.2-0.3l1.4-0.9c0.3-0.2 0.6 0 0.6 0.3v10.2c0 0.2 0.2 0.3 0.3 0.3h10.9c0.4 0.2 0.7 0.5 0.5 0.8z"/>

        <path d="m35.4 43.9c0 2 1.1 3.3 2.7 3.3 1.8 0 3.1-1 3.1-1l0.6 1s-1.7 1.5-3.9 1.5c-3 0-4.4-1.9-4.4-5 0-3 1.8-5.2 4.5-5.2s3.9 1.6 3.9 4.3c0 0.5-0.1 1-0.1 1h-6.4zm4.5-1.4c0-1.4-0.5-2.5-2-2.5s-2.3 1.1-2.4 2.5h4.4z"/>
        <path d="m47.6 46.8 2.2-6.7-1.3-0.3v-1l4.1-0.1v1.1l-1 0.2-3.1 8.5h-2l-3-8.4-0.9-0.3v-1l4.2-0.1v1.1l-1.4 0.2 2.2 6.8z"/>
        <path d="m55 43.9c0 2 1.1 3.3 2.7 3.3 1.8 0 3.1-1 3.1-1l0.6 1s-1.7 1.5-3.9 1.5c-3 0-4.4-1.9-4.4-5 0-3 1.8-5.2 4.5-5.2s3.9 1.6 3.9 4.3c0 0.5-0.1 1-0.1 1h-6.4zm4.5-1.4c0-1.4-0.5-2.5-2-2.5s-2.3 1.1-2.4 2.5h4.4z"/>
        <path d="m66.2 40c0.5-0.5 1.5-1.5 2.8-1.5 0.9 0 1.7 0.3 1.7 0.3l-0.1 2.7h-1.2l-0.3-1.4c-1.4 0-2.3 0.9-2.7 1.4v5.5l1.8 0.5v1h-5.2v-1l1.6-0.5v-6.8l-1.6-0.4v-1l3-0.1 0.2 1.3z"/>
        <path d="m73.2 47.1s0.6 0.2 1.6 0.2c1.1 0 2.1-0.3 2.1-1.5 0-2-5.2-1.1-5.2-4.4 0-1.9 1.5-2.9 3.4-2.9 1.5 0 3.2 0.6 3.2 0.6l-0.1 2.5h-1.2l-0.3-1.4s-0.6-0.2-1.5-0.2-1.6 0.3-1.6 1.2c0 2 5.2 1.2 5.2 4.4 0 2.1-1.8 3.2-4.1 3.2-1.7 0-2.9-0.4-2.9-0.4v-2.7h1.2l0.2 1.4z"/>
        <path d="m82.2 43.9c0 2 1.1 3.3 2.7 3.3 1.8 0 3.1-1 3.1-1l0.6 1s-1.7 1.5-3.9 1.5c-3 0-4.4-1.9-4.4-5 0-3 1.8-5.2 4.5-5.2s3.9 1.6 3.9 4.3c0 0.5-0.1 1-0.1 1h-6.4zm4.5-1.4c0-1.4-0.5-2.5-2-2.5s-2.3 1.1-2.4 2.5h4.4z"/>
        <path d="m90.9 39.3s2-0.7 3.6-0.7c2.1 0 3.4 0.7 3.4 2.9v5.5l1.5 0.4v1l-2.9 0.1-0.4-1.3c-0.6 0.6-1.7 1.5-3 1.5-1.8 0-2.8-1-2.8-2.8 0-2.1 1.7-2.9 4.2-2.9h1.5v-1.5c0-1.1-0.6-1.7-1.8-1.7-1.1 0-1.9 0.3-1.9 0.3l-0.3 1.4h-1l-0.1-2.2zm3.9 4.9c-1.8 0-2.5 0.5-2.5 1.6 0 0.8 0.5 1.4 1.3 1.4 1.4 0 2.5-1.5 2.5-1.5v-1.5h-1.3z"/>
        <path d="m106.7 40.2h-2.7v5.9c0 0.8 0.4 1.1 0.9 1.1 0.4 0 1-0.2 1.4-0.5l0.5 1c-0.8 0.6-1.7 0.9-2.6 0.9-1.1 0-2.1-0.6-2.1-2.7v-5.8h-1.8v-1.1l1.8-0.2v-2.3l1.8-0.4v2.7h2.7v1.4z"/>

	</g>
  </a>

</svg>
