<?xml version="1.0" encoding="UTF-8"?>
<svg enable-background="new 0 0 142.7 57.7" version="1.1" viewBox="0 0 142.7 57.7" xml:space="preserve" xmlns="http://www.w3.org/2000/svg">


		<rect x=".3" y=".3" width="142" height="57.1" fill="#fff" stroke="#5F52CA" stroke-miterlimit="10" stroke-width=".5"/>
  <a href="foundersuite">
  <g fill="#5F52CA">

			<path d="m84.6 33.7c0 1.7-0.6 3.1-3.4 3.1h-14.5c-0.3-1.4 0.6-4.3 1.9-5.2 1.1-0.9 2.5-0.9 3.7-0.7 3.4 0.3 4-2 4.1-4.5 0.3-2.8-1.5-3.5-3.8-3.4-1.9 0-3.5-0.3-3.5-2.5 0-2.3 1.9-2.8 3.7-2.6 3.5 0.4 5.4-1.1 5.5-4.6 0.3-1.5 1.1-2.3 2.6-2.3h3.7v22.7z"/>
    <path d="m57.4 14.8s-0.3-3.7 3.8-3.8h13.5c0 1.4-0.1 3.1-0.9 4-1.1 1.4-2.6 1.5-4.1 1.4-3.5-0.3-4.1 2.2-4.3 4.6-0.1 2.8 1.9 3.2 4.1 3.1 1.9-0.1 3.2 0.4 3.2 2.5 0 2.2-1.4 2.9-3.4 2.6-3.7-0.4-5.8 0.9-6 4.8-0.1 3.2-5.8 2.6-5.8 2.6l-0.1-21.8z"/>


    <path d="m38.9 41.3c-1.1-0.1-1.6 0.4-1.6 1.4v0.1h1.6v1.5h-1.6v5.5h-1.5v-7.1c0-1 0.3-1.7 0.8-2.2s1.3-0.7 2.3-0.7v1.5z"/>
    <path d="m41.9 49.9c-1 0-1.9-0.4-2.6-1.1s-1.1-1.5-1.1-2.6c0-1 0.4-1.9 1.1-2.6s1.6-1.1 2.6-1.1 1.9 0.4 2.6 1.1 1.1 1.5 1.1 2.6c0 1-0.4 1.9-1.1 2.6s-1.5 1.1-2.6 1.1zm-1.5-2c0.4 0.4 0.9 0.6 1.5 0.6s1.1-0.2 1.5-0.6 0.6-0.9 0.6-1.5-0.2-1.1-0.6-1.5-0.9-0.6-1.5-0.6-1.1 0.2-1.5 0.6-0.6 0.9-0.6 1.5c0 0.5 0.2 1.1 0.6 1.5z"/>
    <path d="m50.9 42.8h1.5v6.9h-1.5v-0.9c-0.4 0.7-1.1 1.1-2.2 1.1-0.8 0-1.4-0.3-1.9-0.7-0.5-0.5-0.7-1.2-0.7-2.1v-4.2h1.5v4.1c0 0.5 0.1 0.9 0.4 1.2s0.7 0.4 1.1 0.4c0.5 0 1-0.2 1.3-0.5s0.5-0.8 0.5-1.5v-3.8z"/>
    <path d="m57.1 42.7c0.8 0 1.4 0.3 1.9 0.7 0.5 0.5 0.7 1.2 0.7 2.1v4.2h-1.5v-4.1c0-0.5-0.1-0.9-0.4-1.2s-0.7-0.4-1.1-0.4c-0.5 0-1 0.2-1.3 0.5-0.2 0.3-0.4 0.9-0.4 1.5v3.7h-1.5v-6.9h1.5v0.9c0.4-0.7 1.1-1 2.1-1z"/>
    <path d="m66.2 40.1h1.5v9.7h-1.5v-1c-0.6 0.8-1.4 1.2-2.4 1.2s-1.8-0.4-2.4-1.1-1-1.5-1-2.6 0.4-1.9 1-2.6 1.5-1.1 2.4-1.1c1.1 0 1.9 0.4 2.4 1.1v-3.6zm-3.8 7.8c0.4 0.4 0.9 0.6 1.5 0.6s1.1-0.2 1.5-0.6 0.6-0.9 0.6-1.6-0.2-1.1-0.6-1.6c-0.4-0.4-0.9-0.6-1.5-0.6s-1.1 0.2-1.5 0.6-0.6 0.9-0.6 1.6 0.2 1.2 0.6 1.6z"/>
    <path d="m69.9 46.9c0.1 0.5 0.4 0.9 0.7 1.2 0.4 0.3 0.9 0.4 1.5 0.4 0.8 0 1.4-0.3 1.8-0.8l1.2 0.7c-0.7 1-1.7 1.5-3 1.5-1.1 0-2-0.4-2.7-1-0.7-0.7-1.1-1.5-1.1-2.6 0-1 0.4-1.9 1-2.6 0.7-0.7 1.5-1.1 2.6-1.1 1 0 1.9 0.4 2.5 1.1s1 1.6 1 2.6v0.6h-5.5zm0-1.1h4.1c-0.1-0.6-0.4-1-0.7-1.3-0.4-0.3-0.8-0.4-1.3-0.4-0.6 0-1 0.1-1.4 0.4s-0.6 0.7-0.7 1.3z"/>
    <path d="m77.5 44c0.4-0.8 1.1-1.3 2.1-1.3v1.6c-0.6 0-1.1 0.1-1.5 0.4s-0.6 0.8-0.6 1.5v3.5h-1.5v-7h1.5v1.3z"/>
    <path d="m80.8 44.7c0 0.4 0.1 0.6 0.4 0.8s0.6 0.4 1.1 0.4l1.2 0.3c0.4 0.1 0.7 0.3 1.1 0.6 0.3 0.3 0.4 0.7 0.4 1.1 0 0.6-0.2 1.1-0.7 1.4-0.4 0.4-1.1 0.6-1.8 0.6s-1.2-0.1-1.7-0.4c-0.4-0.3-0.8-0.7-0.9-1.1l0.6-0.4c0.1 0.4 0.4 0.7 0.7 0.9 0.4 0.2 0.8 0.3 1.3 0.3s0.9-0.1 1.3-0.4 0.5-0.5 0.5-1c0-0.4-0.1-0.6-0.4-0.8s-0.6-0.4-1.1-0.5l-1.2-0.3s-0.7-0.3-1.1-0.6c-0.3-0.3-0.4-0.7-0.4-1.1 0-0.6 0.2-1 0.7-1.4s1-0.6 1.7-0.6c0.6 0 1 0.1 1.5 0.4 0.4 0.3 0.7 0.6 0.9 1l-0.6 0.4c-0.1-0.4-0.4-0.6-0.7-0.8s-0.7-0.3-1.1-0.3c-0.5 0-0.9 0.1-1.2 0.4-0.4 0.4-0.5 0.7-0.5 1.1z"/>
    <path d="m90.8 42.8h0.7v6.9h-0.7v-1.3c-0.5 1-1.3 1.5-2.5 1.5-0.8 0-1.5-0.3-1.9-0.7-0.5-0.5-0.7-1.2-0.7-2v-4.3h0.7v4.3c0 0.7 0.2 1.1 0.5 1.5 0.4 0.4 0.8 0.6 1.5 0.6s1.3-0.2 1.7-0.7 0.7-1.1 0.7-2v-3.8z"/>
    <path d="m93.7 41c-0.1 0.1-0.2 0.2-0.4 0.2-0.1 0-0.3 0-0.4-0.2-0.1-0.1-0.2-0.2-0.2-0.4 0-0.1 0-0.3 0.2-0.4 0.1-0.1 0.2-0.2 0.4-0.2 0.1 0 0.3 0 0.4 0.2 0.1 0.1 0.2 0.2 0.2 0.4s-0.1 0.3-0.2 0.4zm-0.8 8.8v-6.9h0.7v6.9h-0.7z"/>
    <path d="m98.6 43.6h-2.1v4.5c0 0.4 0.1 0.7 0.2 0.8 0.1 0.2 0.4 0.3 0.7 0.3h1.1v0.6c-0.9 0.1-1.6 0.1-2.1-0.2-0.4-0.3-0.7-0.8-0.7-1.5v-4.5h-1.5v-0.7h1.5v-1.7l0.7-0.2v1.9h2.1l0.1 0.7z"/>
    <path d="m102.3 42.7c1 0 1.9 0.4 2.5 1.1s0.9 1.6 0.9 2.6v0.2 0.2h-6.3c0.1 0.8 0.4 1.4 0.9 1.9s1.2 0.7 2 0.7c0.6 0 1.1-0.1 1.5-0.4s0.7-0.5 0.9-0.9l0.6 0.4c-0.3 0.5-0.7 0.8-1.2 1.1s-1.1 0.4-1.8 0.4c-1.1 0-1.9-0.4-2.6-1-0.7-0.7-1-1.5-1-2.6 0-1 0.4-1.9 1-2.6s1.5-1.1 2.6-1.1zm0 0.7c-0.8 0-1.5 0.3-1.9 0.7-0.5 0.5-0.8 1.1-0.9 1.9h5.6c-0.1-0.8-0.4-1.5-0.9-1.9-0.6-0.5-1.2-0.7-1.9-0.7z"/>

	</g>
  </a>

</svg>
