<svg xmlns="http://www.w3.org/2000/svg" viewBox="0 0 142.7 57.7"><path fill="#FFF" stroke="#5F52CA" stroke-width=".5" stroke-miterlimit="10" d="M.3.3h142v57.1H.3z"/><g fill="#5F52CA"><path d="M61.9 25.6h-5.2v2.6h5.1V30h-5.1v4.9h-2.1v-11h7.3v1.7zM68.8 27.7l-1.1 1.7c-.4-.4-.9-.8-1.4-.8S65 29 65 30.4v4.5h-2v-8h2v.9c.5-.7 1.1-1.1 1.8-1.1.8-.1 1.4.4 2 1zM77.7 30.8c0 .3 0 .5-.1.8h-6.4c.3 1 1.1 1.7 2.3 1.7.7 0 1.5-.3 2-.7l1.3 1.3c-1.1.8-2.2 1.1-3.2 1.1-2.4 0-4.2-1.9-4.2-4.2s1.9-4.2 4.2-4.2c2.1 0 4.1 1.8 4.1 4.2zm-2.1-.8c-.3-1-1.2-1.7-2.2-1.7s-1.9.7-2.2 1.7h4.4zM87.1 30.8c0 .3 0 .5-.1.8h-6.4c.3 1 1.1 1.7 2.3 1.7.7 0 1.5-.3 2-.7l1.3 1.3C85.1 34.7 84 35 83 35c-2.4 0-4.2-1.9-4.2-4.2s1.9-4.2 4.2-4.2c2.2 0 4.1 1.8 4.1 4.2zm-2-.8c-.3-1-1.2-1.7-2.2-1.7S81 29 80.7 30h4.4zM94.2 32.6c0 1.6-1.7 2.5-3.1 2.5-1.2 0-2.3-.4-3.1-1.4l1.2-1.2c.5.6 1.1 1 1.9 1 .6 0 1.1-.2 1.1-.7s-.6-.8-1.7-1.1c-1.3-.4-2.5-1.1-2.5-2.5 0-1.6 1.6-2.5 3.1-2.5 1.2 0 2.2.5 3 1.4L93 29.2c-.5-.6-1.1-.9-1.8-.9-.5 0-1.2.3-1.2.8 0 .4.6.7 1.7 1 1.4.3 2.5 1.2 2.5 2.5zM99.9 34.7c-.4.3-1 .4-1.5.4-1.9 0-2.5-.9-2.5-3v-3.4h-1.1v-.8c1.3-.7 2.3-1.8 2.5-3.3h.6v2.3h2v1.8h-2v3.6c0 .8.4 1 .9 1 .3 0 .8-.1 1.1-.4v1.8zM107.6 34.9h-2v-.4c-.7.5-1.5.6-2.4.6-1.6 0-2.6-1-2.6-2.5 0-1.8 1.7-2.7 3.7-2.7h1.2c0-1-.6-1.6-1.8-1.6-.6 0-1.2.2-1.8.7l-1.2-1.2c.9-.8 2-1.3 3.1-1.3s2 .4 2.6 1c.7.7 1 1.5 1 2.9v4.5h.2zm-2.1-2.1v-1.5h-.9c-1.1 0-2 .3-2 1.1 0 .6.5 1 1.2 1 .6 0 1.1-.2 1.7-.6zM116.7 34.9h-2.4l-3.2-3.5v3.5H109V23.4h2.1v6.8l2.8-3.3h2.4l-3.2 3.9 3.6 4.1z"/><g><path d="M41.8 17.1l-3.4 2.1 6.6 3.9v11.7l-6.7 3.8-6.7-3.8 10.2 5.8 10.1-5.8V23.1z"/><path d="M31.6 34.8V23.1l6.7-3.9-3.4-2.1-10.2 6v11.7l10.2 5.8L45 34.8l-6.7 3.8z"/></g></g></svg>