<?xml version="1.0" encoding="utf-8"?>
<!-- Generator: Adobe Illustrator 19.0.0, SVG Export Plug-In . SVG Version: 6.00 Build 0)  -->
<svg version="1.1" id="Слой_1" xmlns="http://www.w3.org/2000/svg" xmlns:xlink="http://www.w3.org/1999/xlink" x="0px" y="0px"
	 viewBox="0 0 142.7 57.7" enable-background="new 0 0 142.7 57.7" xml:space="preserve">
<rect id="XMLID_438_" x="0.3" y="0.3" fill="#FFFFFF" stroke="#5F52CA" stroke-width="0.5" stroke-miterlimit="10" width="142" height="57.1"/>
<g id="XMLID_28_">
	<g id="XMLID_31_">
		<path id="XMLID_45_" fill="#5F52CA" d="M61.9,25.6h-5.2v2.6h5.1V30h-5.1v4.9h-2.1v-11h7.3L61.9,25.6L61.9,25.6z"/>
		<path id="XMLID_44_" fill="#5F52CA" d="M68.8,27.7l-1.1,1.7c-0.4-0.4-0.9-0.8-1.4-0.8S65,29,65,30.4v4.5h-2v-8h2v0.9
			c0.5-0.7,1.1-1.1,1.8-1.1C67.6,26.6,68.2,27.1,68.8,27.7z"/>
		<path id="XMLID_41_" fill="#5F52CA" d="M77.7,30.8c0,0.3,0,0.5-0.1,0.8h-6.4c0.3,1,1.1,1.7,2.3,1.7c0.7,0,1.5-0.3,2-0.7l1.3,1.3
			c-1.1,0.8-2.2,1.1-3.2,1.1c-2.4,0-4.2-1.9-4.2-4.2s1.9-4.2,4.2-4.2C75.7,26.6,77.7,28.4,77.7,30.8z M75.6,30
			c-0.3-1-1.2-1.7-2.2-1.7S71.5,29,71.2,30H75.6z"/>
		<path id="XMLID_38_" fill="#5F52CA" d="M87.1,30.8c0,0.3,0,0.5-0.1,0.8h-6.4c0.3,1,1.1,1.7,2.3,1.7c0.7,0,1.5-0.3,2-0.7l1.3,1.3
			C85.1,34.7,84,35,83,35c-2.4,0-4.2-1.9-4.2-4.2s1.9-4.2,4.2-4.2C85.2,26.6,87.1,28.4,87.1,30.8z M85.1,30c-0.3-1-1.2-1.7-2.2-1.7
			S81,29,80.7,30H85.1z"/>
		<path id="XMLID_37_" fill="#5F52CA" d="M94.2,32.6c0,1.6-1.7,2.5-3.1,2.5c-1.2,0-2.3-0.4-3.1-1.4l1.2-1.2c0.5,0.6,1.1,1,1.9,1
			c0.6,0,1.1-0.2,1.1-0.7s-0.6-0.8-1.7-1.1c-1.3-0.4-2.5-1.1-2.5-2.5c0-1.6,1.6-2.5,3.1-2.5c1.2,0,2.2,0.5,3,1.4L93,29.2
			c-0.5-0.6-1.1-0.9-1.8-0.9c-0.5,0-1.2,0.3-1.2,0.8c0,0.4,0.6,0.7,1.7,1C93.1,30.4,94.2,31.3,94.2,32.6z"/>
		<path id="XMLID_36_" fill="#5F52CA" d="M99.9,34.7c-0.4,0.3-1,0.4-1.5,0.4c-1.9,0-2.5-0.9-2.5-3v-3.4h-1.1v-0.8
			c1.3-0.7,2.3-1.8,2.5-3.3h0.6v2.3h2v1.8h-2v3.6c0,0.8,0.4,1,0.9,1c0.3,0,0.8-0.1,1.1-0.4V34.7z"/>
		<path id="XMLID_33_" fill="#5F52CA" d="M107.6,34.9h-2v-0.4c-0.7,0.5-1.5,0.6-2.4,0.6c-1.6,0-2.6-1-2.6-2.5c0-1.8,1.7-2.7,3.7-2.7
			h1.2c0-1-0.6-1.6-1.8-1.6c-0.6,0-1.2,0.2-1.8,0.7l-1.2-1.2c0.9-0.8,2-1.3,3.1-1.3s2,0.4,2.6,1c0.7,0.7,1,1.5,1,2.9v4.5H107.6z
			 M105.5,32.8v-1.5h-0.9c-1.1,0-2,0.3-2,1.1c0,0.6,0.5,1,1.2,1C104.4,33.4,104.9,33.2,105.5,32.8z"/>
		<path id="XMLID_32_" fill="#5F52CA" d="M116.7,34.9h-2.4l-3.2-3.5v3.5H109V23.4h2.1v6.8l2.8-3.3h2.4l-3.2,3.9L116.7,34.9z"/>
	</g>
	<g id="XMLID_27_">
		<polygon id="XMLID_47_" fill="#5F52CA" points="41.8,17.1 38.4,19.2 45,23.1 45,34.8 38.3,38.6 31.6,34.8 41.8,40.6 51.9,34.8 
			51.9,23.1 		"/>
		<polygon id="XMLID_30_" fill="#5F52CA" points="31.6,34.8 31.6,23.1 38.3,19.2 34.9,17.1 24.7,23.1 24.7,34.8 34.9,40.6 45,34.8 
			38.3,38.6 		"/>
	</g>
</g>
</svg>
