<?xml version="1.0" encoding="UTF-8"?>
<svg enable-background="new 0 0 142.7 57.7" version="1.1" viewBox="0 0 142.7 57.7" xml:space="preserve" xmlns="http://www.w3.org/2000/svg">


  <rect x=".3" y=".3" width="142" height="57.1" fill="#fff" stroke="#5F52CA" stroke-miterlimit="10" stroke-width=".5"/>
  <a href="#invoyis">
  <g fill="#5F52CA">
		<path d="m80.8 14.6c-7.7 0-13.9 6.4-13.9 14.2 0 7.9 6.3 14.3 13.9 14.3s13.9-6.5 13.8-14.3c0-7.8-6.2-14.2-13.8-14.2zm0 24.5c-5.4 0-9.9-4.6-9.9-10.2 0-5.7 4.4-10.2 10-10.2 5.4 0 9.7 4.6 9.7 10.2s-4.5 10.2-9.8 10.2z"/>
    <path d="m65.7 29c0-4.8 2.1-9 5.4-11.9 0.2-0.3 0.2-0.6 0.2-0.7-1.6 0-3.1 0.1-4.7 0-0.9-0.1-1.3 0.3-1.6 1.1-1.7 4.1-3.5 8.2-5.3 12.4-0.2-0.4-0.3-0.7-0.5-0.9-1.6-3.8-3.2-7.5-4.8-11.3-0.4-0.9-0.8-1.4-1.8-1.3-1.5 0.1-2.9 0-4.5 0 0.2 0.4 0.3 0.7 0.4 1 2.8 6.4 5.4 12.8 8.2 19.2 0.4 0.8 0.5 2.1 1.2 2.5 0.7 0.5 3.5 0.8 4-0.5 1.2-2.9 2.5-5.9 3.8-8.8v-0.8z"/>
	</g>
  </a>
</svg>
