<?xml version="1.0" encoding="UTF-8"?>
<svg enable-background="new 0 0 142.7 57.7" version="1.1" viewBox="0 0 142.7 57.7" xml:space="preserve" xmlns="http://www.w3.org/2000/svg">


		<rect x=".3" y=".4" width="142" height="57.1" fill="#fff" stroke="#5F52CA" stroke-miterlimit="10" stroke-width=".5"/>
  <a href="#knockknockcity">
  <g fill="#5F52CA">
		<path d="m116.5 18.3c0-0.5 0.2-0.9 0.6-1.1 0.2-0.1 0.5-0.1 0.6 0.1 0.3 0.5 0.3 0.9 0.1 1.3-0.5 1-1.2 2.7-1.4 2.9-0.1 0.2 0-2.3 0.1-3.2zm3.3 1.2c0.3-0.5 0.6-0.6 1.2-0.5 0.2 0.1 0.5 0.2 0.5 0.5 0 0.5-0.2 0.9-0.6 1.1-1 0.5-2.5 1.5-2.8 1.6-0.4 0 1.1-2 1.7-2.7zm1.5 3.1c0.5-0.2 0.9-0.2 1.3 0.1 0.2 0.2 0.3 0.5 0.2 0.6-0.2 0.5-0.6 0.6-1.1 0.6-1.1 0-2.9 0.2-3.2 0.1s1.9-1.1 2.8-1.4z"/>
    <path d="m28.6 32.2c0 0.1-0.1 0.2-0.2 0.3-0.1 0.2-0.2 0.3-0.4 0.4s-0.4 0.2-0.6 0.3-0.5 0.2-0.7 0.2c-0.4 0-0.7-0.1-1-0.4-0.3-0.2-0.6-0.6-0.8-1-0.2-0.5-0.5-1-0.7-1.6s-0.4-1.3-0.6-2l-0.6 0.4-0.4 4.2c0 0.1-0.1 0.2-0.1 0.2s-0.1 0.1-0.2 0.1h-0.9c-0.6 0-1-0.1-1.3-0.3-0.2-0.2-0.4-0.6-0.4-1.1v-0.7s0.1-0.7 0.1-1.1c0.1-0.4 0.1-0.9 0.1-1.4s0.1-1 0.1-1.5c0.1-1 0.1-1.8 0.2-2.5s0.1-1.1 0.1-1.4 0.1-0.6 0.1-0.8v-0.5c0-0.2 0.1-0.2 0.3-0.2h0.9c0.3 0 0.6 0.1 0.9 0.1s0.4 0.2 0.5 0.3 0.2 0.3 0.2 0.5c0.1 0.2 0.1 0.4 0.1 0.6s0 0.6-0.1 1.2c0 0.6-0.1 1.2-0.1 1.9 0.3-0.5 0.8-1 1.3-1.7s1.1-1.5 1.9-2.5c0.1-0.1 0.1-0.1 0.1-0.2l0.2-0.2c0.1-0.1 0.2-0.1 0.2-0.2s0.2-0.1 0.2-0.1c0.1 0 0.3 0.1 0.5 0.2l0.5 0.5s0.3 0.4 0.4 0.6 0.2 0.4 0.2 0.6c0 0.3-0.3 0.8-0.9 1.4s-1.4 1.3-2.4 2.1c0.2 0.3 0.4 0.6 0.6 1 0.2 0.3 0.5 0.7 0.7 1.1 0.2 0.3 0.5 0.7 0.7 1.1s0.4 0.7 0.6 0.9 0.3 0.5 0.4 0.7c0.3 0.3 0.3 0.4 0.3 0.5zm6.6-0.4c0-0.2 0-0.6 0.1-0.9 0.1-0.4 0.1-0.8 0.1-1.2 0.1-0.4 0.1-0.9 0.1-1.3 0.1-0.4 0.1-0.7 0.1-1s-0.1-0.5-0.2-0.7-0.4-0.3-0.8-0.3-0.7 0.1-0.9 0.3-0.5 0.5-0.6 1c-0.2 0.5-0.3 1.1-0.4 2s-0.2 1.9-0.3 3.3c0 0.1-0.1 0.2-0.1 0.3-0.1 0.1-0.1 0.1-0.3 0.1h-0.6c-0.3 0-0.6-0.1-0.8-0.1-0.2-0.1-0.4-0.2-0.5-0.3s-0.2-0.3-0.3-0.5-0.1-0.4-0.1-0.6v-0.9c0-0.3 0.1-0.7 0.1-1.2 0.1-0.5 0.1-1.2 0.2-2s0.1-1.8 0.2-3c0-0.2 0.1-0.4 0.1-0.4 0.1-0.1 0.1-0.1 0.3-0.1h0.6c0.3 0 0.6 0.1 0.8 0.1 0.2 0.1 0.4 0.2 0.5 0.3s0.2 0.3 0.3 0.5 0.1 0.3 0.1 0.5c0.3-0.6 0.7-1 1.1-1.2 0.5-0.2 1-0.3 1.6-0.3 0.5 0 0.9 0.1 1.2 0.2s0.6 0.3 0.9 0.5 0.4 0.5 0.5 0.9 0.2 0.9 0.2 1.4c0 0.2 0 0.4-0.1 0.7 0 0.3-0.1 0.7-0.1 1.1s-0.1 0.8-0.1 1.2c-0.1 0.4-0.1 0.8-0.1 1.1v1c0 0.3-0.1 0.5-0.1 0.5 0 0.2 0 0.4-0.1 0.4s-0.2 0.1-0.3 0.1h-0.5c-0.3 0-0.6-0.1-0.9-0.1s-0.4-0.2-0.5-0.3-0.2-0.3-0.2-0.5c-0.2-0.2-0.2-0.4-0.2-0.6zm8.1 1.6c-0.7 0-1.4-0.1-1.8-0.3-0.5-0.2-0.9-0.5-1.1-0.9-0.3-0.3-0.5-0.8-0.6-1.3s-0.2-1-0.2-1.6 0.1-1.3 0.2-1.9c0.2-0.6 0.4-1.1 0.8-1.7 0.4-0.5 0.9-0.9 1.5-1.1 0.6-0.3 1.4-0.5 2.3-0.5 1.4 0 2.3 0.3 2.9 1 0.6 0.6 0.9 1.6 0.9 2.8 0 0.3 0 0.7-0.1 1.1s-0.1 0.8-0.3 1.2-0.3 0.8-0.6 1.1c-0.2 0.4-0.5 0.7-0.9 1-0.3 0.3-0.8 0.5-1.3 0.7-0.4 0.3-1 0.4-1.7 0.4zm0.8-7.1c-0.4 0-0.7 0.1-1 0.3s-0.4 0.5-0.6 0.7c-0.1 0.3-0.2 0.6-0.2 0.9s-0.1 0.6-0.1 0.9c0 0.7 0.1 1.3 0.3 1.5 0.2 0.3 0.6 0.5 1 0.5s0.7-0.1 0.9-0.3 0.5-0.5 0.6-0.9c0.1-0.3 0.2-0.7 0.3-1s0.1-0.7 0.1-0.9c0-0.5-0.1-1-0.3-1.3-0.2-0.2-0.6-0.4-1-0.4zm9.3 4.9c0.3 0 0.6-0.1 0.8-0.1 0.2-0.1 0.5-0.2 0.6-0.3 0.2-0.1 0.3-0.2 0.5-0.3 0.1-0.1 0.2-0.1 0.3-0.1 0.2 0 0.4 0.2 0.4 0.5 0 0.1 0 0.2-0.1 0.3-0.1 0.2-0.1 0.3-0.1 0.4-0.1 0.2-0.1 0.3-0.2 0.4s-0.1 0.2-0.2 0.3-0.2 0.1-0.3 0.3c-0.1 0.1-0.3 0.2-0.5 0.3s-0.5 0.2-0.8 0.3-0.6 0.1-1 0.1-0.9-0.1-1.3-0.2c-0.5-0.1-0.9-0.3-1.2-0.6s-0.6-0.7-0.9-1.3-0.3-1.2-0.3-1.9c0-0.3 0-0.6 0.1-1 0.1-0.3 0.1-0.7 0.2-1.1s0.3-0.7 0.5-1.1c0.2-0.3 0.5-0.7 0.8-1s0.7-0.5 1.2-0.7 1-0.3 1.7-0.3c0.5 0 1 0.1 1.4 0.2s0.7 0.3 1 0.5c0.2 0.2 0.5 0.5 0.6 0.7 0.1 0.3 0.2 0.6 0.2 0.9 0 0.6-0.2 1-0.6 1.3-0.4 0.2-0.9 0.4-1.5 0.4-0.2 0-0.3 0-0.3-0.1-0.1 0-0.1-0.1-0.1-0.2v-0.7c0-0.2-0.1-0.4-0.1-0.5-0.1-0.1-0.1-0.2-0.2-0.3s-0.2-0.1-0.4-0.1c-0.3 0-0.6 0.1-0.8 0.3s-0.3 0.5-0.5 0.8c-0.1 0.3-0.2 0.6-0.2 1s-0.1 0.6-0.1 0.8c0 0.7 0.1 1.3 0.3 1.6s0.6 0.4 1.1 0.5zm11.8 0.7c0 0.1 0 0.2-0.1 0.3s-0.1 0.3-0.3 0.5c-0.1 0.2-0.3 0.3-0.5 0.5-0.2 0.1-0.4 0.2-0.6 0.2-0.3 0-0.6-0.1-0.9-0.3s-0.6-0.5-0.9-0.8-0.6-0.7-0.9-1.2-0.6-1-0.9-1.5c-0.1 0.6-0.1 1.1-0.1 1.7s-0.1 1.1-0.1 1.6c0 0.1-0.1 0.2-0.1 0.3-0.1 0.1-0.1 0.1-0.3 0.1h-0.6c-0.3 0-0.6-0.1-0.8-0.1-0.2-0.1-0.4-0.2-0.5-0.3s-0.2-0.3-0.2-0.5c-0.1-0.2-0.1-0.4-0.1-0.7v-0.4c0-0.1 0-0.3 0.1-0.6 0.1-0.2 0.1-0.6 0.1-1 0.1-0.5 0.1-1 0.1-1.7 0.1-0.7 0.1-1.5 0.2-2.6 0.1-1 0.2-2.2 0.2-3.7 0-0.2 0.1-0.4 0.1-0.4 0.1-0.1 0.1-0.1 0.3-0.1h0.6c0.3 0 0.6 0.1 0.8 0.1 0.2 0.1 0.4 0.2 0.5 0.3s0.2 0.3 0.3 0.5 0.1 0.3 0.1 0.5v0.5c0 0.2-0.1 0.6-0.1 0.9s-0.1 0.7-0.1 1.2c-0.1 0.5-0.1 0.9-0.1 1.4l2.6-2.3c0.1-0.1 0.2-0.2 0.3-0.2 0.1-0.1 0.2-0.1 0.2-0.1 0.1 0 0.2 0.1 0.4 0.2 0.1 0.2 0.3 0.3 0.4 0.5l0.3 0.6c0.1 0.2 0.1 0.4 0.1 0.5 0 0.3-0.2 0.6-0.7 1-0.5 0.3-1.3 0.7-2.3 1.1 0.5 0.5 0.9 1 1.3 1.4s0.7 0.8 1.1 1.1c0.3 0.3 0.6 0.6 0.7 0.8 0.3 0.5 0.4 0.6 0.4 0.7zm13.6 0.3c0 0.1-0.1 0.2-0.2 0.3s-0.2 0.3-0.4 0.4l-0.6 0.3s-0.5 0.2-0.7 0.2c-0.4 0-0.7-0.1-1-0.4s-0.6-0.6-0.8-1-0.5-1-0.7-1.6-0.4-1.3-0.6-2l-0.8 0.4-0.3 4.2c0 0.1-0.1 0.2-0.1 0.2s-0.1 0.1-0.2 0.1h-0.9c-0.6 0-1-0.1-1.3-0.3-0.2-0.2-0.4-0.6-0.4-1.1v-0.7s0.1-0.7 0.1-1.1c0.1-0.4 0.1-0.9 0.1-1.4 0.1-0.5 0.1-1 0.1-1.5 0.1-1 0.1-1.8 0.2-2.5 0.1-0.6 0.1-1.1 0.1-1.4s0.1-0.6 0.1-0.8v-0.5c0-0.2 0.1-0.2 0.3-0.2h0.9c0.3 0 0.6 0.1 0.9 0.1s0.4 0.2 0.5 0.3 0.2 0.3 0.2 0.5c0.1 0.2 0.1 0.4 0.1 0.6s0 0.6-0.1 1.2c0 0.6-0.1 1.2-0.1 1.9 0.3-0.5 0.8-1 1.3-1.7s1.1-1.5 1.9-2.5c0.1-0.1 0.1-0.1 0.1-0.2l0.2-0.2c0.1-0.1 0.2-0.1 0.2-0.2 0.1-0.1 0.2-0.1 0.2-0.1 0.1 0 0.3 0.1 0.5 0.2l0.5 0.5c0.2 0.2 0.3 0.4 0.4 0.6s0.2 0.4 0.2 0.6c0 0.3-0.3 0.8-0.9 1.4s-1.4 1.3-2.4 2.1c0.2 0.3 0.4 0.6 0.6 1 0.2 0.3 0.5 0.7 0.7 1.1s0.5 0.7 0.7 1.1c0.2 0.3 0.4 0.7 0.6 0.9 0.2 0.3 0.3 0.5 0.4 0.7 0.3 0.3 0.4 0.4 0.4 0.5zm6.5-0.4c0-0.2 0-0.6 0.1-0.9 0.1-0.4 0.1-0.8 0.1-1.2 0.1-0.4 0.1-0.9 0.1-1.3 0.1-0.4 0.1-0.7 0.1-1s-0.1-0.5-0.2-0.7-0.4-0.3-0.8-0.3-0.7 0.1-0.9 0.3-0.5 0.5-0.6 1c-0.2 0.5-0.3 1.1-0.4 2s-0.2 1.9-0.3 3.3c0 0.1-0.1 0.2-0.1 0.3-0.1 0.1-0.1 0.1-0.3 0.1h-0.6c-0.3 0-0.6-0.1-0.8-0.1-0.2-0.1-0.4-0.2-0.5-0.3s-0.2-0.3-0.3-0.5-0.1-0.4-0.1-0.6v-0.9c0-0.3 0.1-0.7 0.1-1.2 0.1-0.5 0.1-1.2 0.2-2s0.1-1.8 0.2-3c0-0.2 0.1-0.4 0.1-0.4 0.1-0.1 0.1-0.1 0.3-0.1h0.6c0.3 0 0.6 0.1 0.8 0.1s0.4 0.2 0.5 0.3 0.2 0.3 0.3 0.5 0.1 0.3 0.1 0.5c0.3-0.6 0.7-1 1.1-1.2 0.5-0.2 1-0.3 1.6-0.3 0.5 0 0.9 0.1 1.2 0.2s0.6 0.3 0.9 0.5 0.4 0.5 0.5 0.9 0.2 0.9 0.2 1.4c0 0.2 0 0.4-0.1 0.7 0 0.3-0.1 0.7-0.1 1.1s-0.1 0.8-0.1 1.2-0.1 0.8-0.1 1.1c-0.1 0.3-0.1 0.7-0.1 0.9 0 0.3-0.1 0.5-0.1 0.5 0 0.2 0 0.4-0.1 0.4-0.1 0.1-0.2 0.1-0.3 0.1h-0.5c-0.3 0-0.6-0.1-0.9-0.1s-0.4-0.2-0.5-0.3-0.2-0.3-0.2-0.5c-0.1-0.1-0.1-0.3-0.1-0.5zm8.1 1.6c-0.7 0-1.4-0.1-1.8-0.3-0.5-0.2-0.9-0.5-1.1-0.9-0.3-0.3-0.5-0.8-0.6-1.3s-0.2-1-0.2-1.6 0.1-1.3 0.2-1.9c0.2-0.6 0.4-1.1 0.8-1.7 0.4-0.5 0.9-0.9 1.5-1.1 0.6-0.3 1.4-0.5 2.3-0.5 1.4 0 2.3 0.3 2.9 1 0.6 0.6 0.9 1.6 0.9 2.8 0 0.3 0 0.7-0.1 1.1s-0.1 0.8-0.3 1.2c-0.1 0.4-0.3 0.8-0.6 1.1-0.2 0.4-0.5 0.7-0.9 1-0.3 0.3-0.8 0.5-1.3 0.7-0.4 0.3-1 0.4-1.7 0.4zm0.8-7.1c-0.4 0-0.7 0.1-1 0.3-0.2 0.2-0.4 0.5-0.6 0.7-0.1 0.3-0.2 0.6-0.2 0.9-0.1 0.3-0.1 0.6-0.1 0.9 0 0.7 0.1 1.3 0.3 1.5 0.2 0.3 0.6 0.5 1 0.5s0.7-0.1 0.9-0.3 0.5-0.5 0.6-0.9c0.1-0.3 0.2-0.7 0.3-1s0.1-0.7 0.1-0.9c0-0.5-0.1-1-0.3-1.3-0.2-0.2-0.6-0.4-1-0.4zm9.4 4.9c0.3 0 0.6-0.1 0.8-0.1 0.2-0.1 0.5-0.2 0.6-0.3 0.2-0.1 0.3-0.2 0.5-0.3 0.1-0.1 0.2-0.1 0.3-0.1 0.2 0 0.4 0.2 0.4 0.5 0 0.1 0 0.2-0.1 0.3s-0.1 0.3-0.1 0.4c-0.1 0.2-0.1 0.3-0.2 0.4s-0.1 0.2-0.2 0.3-0.2 0.1-0.3 0.3c-0.1 0.1-0.3 0.2-0.5 0.3s-0.5 0.2-0.8 0.3-0.6 0.1-1 0.1-0.9-0.1-1.3-0.2c-0.5-0.1-0.9-0.3-1.2-0.6s-0.6-0.7-0.9-1.3-0.3-1.2-0.3-1.9c0-0.3 0-0.6 0.1-1 0.1-0.3 0.1-0.7 0.2-1.1s0.3-0.7 0.5-1.1c0.2-0.3 0.5-0.7 0.8-1s0.7-0.5 1.2-0.7 1-0.3 1.7-0.3c0.5 0 1 0.1 1.4 0.2s0.7 0.3 1 0.5c0.2 0.2 0.5 0.5 0.6 0.7 0.1 0.3 0.2 0.6 0.2 0.9 0 0.6-0.2 1-0.6 1.3-0.4 0.2-0.9 0.4-1.5 0.4-0.2 0-0.3 0-0.3-0.1-0.1 0-0.1-0.1-0.1-0.2v-0.7c0-0.2-0.1-0.4-0.1-0.5-0.1-0.1-0.1-0.2-0.2-0.3s-0.2-0.1-0.4-0.1c-0.3 0-0.6 0.1-0.8 0.3s-0.3 0.5-0.5 0.8c-0.1 0.3-0.2 0.6-0.2 1s-0.1 0.6-0.1 0.8c0 0.7 0.1 1.3 0.3 1.6 0.1 0.3 0.5 0.4 1.1 0.5zm11.7 0.7c0 0.1 0 0.2-0.1 0.3-0.1 0.2-0.1 0.3-0.3 0.5-0.1 0.2-0.3 0.3-0.5 0.5-0.2 0.1-0.4 0.2-0.6 0.2-0.3 0-0.6-0.1-0.9-0.3s-0.6-0.5-0.9-0.8-0.6-0.7-0.9-1.2-0.6-1-0.9-1.5c-0.1 0.6-0.1 1.1-0.1 1.7s-0.1 1.1-0.1 1.6c0 0.1-0.1 0.2-0.1 0.3-0.1 0.1-0.1 0.1-0.3 0.1h-0.6c-0.3 0-0.6-0.1-0.8-0.1-0.2-0.1-0.4-0.2-0.5-0.3s-0.2-0.3-0.2-0.5c-0.1-0.2-0.1-0.4-0.1-0.7v-0.4c0-0.1 0-0.3 0.1-0.6 0-0.3 0.1-0.6 0.1-1 0.1-0.4 0.1-1 0.1-1.7 0.1-0.7 0.1-1.5 0.2-2.6 0.1-1 0.2-2.2 0.2-3.7 0-0.2 0.1-0.4 0.1-0.4 0.1-0.1 0.1-0.1 0.3-0.1h0.6c0.3 0 0.6 0.1 0.8 0.1 0.2 0.1 0.4 0.2 0.5 0.3s0.2 0.3 0.3 0.5 0.1 0.3 0.1 0.5v0.5c0 0.2-0.1 0.6-0.1 0.9s-0.1 0.7-0.1 1.2c-0.1 0.5-0.1 0.9-0.1 1.4l2.6-2.3c0.1-0.1 0.2-0.2 0.3-0.2s0.1-0.1 0.2-0.1 0.2 0.1 0.4 0.2c0.1 0.2 0.3 0.3 0.4 0.5l0.3 0.6c0.1 0.2 0.1 0.4 0.1 0.5 0 0.3-0.2 0.6-0.7 1s-1.3 0.7-2.3 1.1c0.5 0.5 0.9 1 1.3 1.4s0.7 0.8 1.1 1.1c0.3 0.3 0.6 0.6 0.7 0.8 0.4 0.5 0.4 0.6 0.4 0.7z"/>
	</g>
  </a>
</svg>
