<?xml version="1.0" encoding="UTF-8"?>
<svg enable-background="new 0 0 142.7 57.7" version="1.1" viewBox="0 0 142.7 57.7" xml:space="preserve" xmlns="http://www.w3.org/2000/svg">


		<rect x=".3" y=".4" width="142" height="57.1" fill="#fff" stroke="#5F52CA" stroke-miterlimit="10" stroke-width=".5"/>
  <a href="#mediprocity">
  <g fill="#5F52CA">
			<path d="m53.8 29.6h-7.1c0.1 0.4 0.2 0.7 0.4 0.9 0.4 0.5 0.9 0.7 1.6 0.7 0.6 0 1.1-0.2 1.4-0.7h3.6c-0.2 0.8-0.7 1.5-1.3 2-0.5 0.4-1.1 0.7-1.8 0.9s-1.3 0.3-2 0.3c-1.1 0-2-0.2-2.9-0.7s-1.6-1.3-2.1-2.4c-0.3-0.7-0.4-1.4-0.4-2.1 0-1.6 0.6-2.9 1.8-3.9 0.9-0.8 2.1-1.2 3.4-1.2 1.4 0 2.6 0.4 3.5 1.2 1.3 1.2 1.9 2.8 1.9 5zm-3.7-2c0-0.4-0.1-0.7-0.3-0.9-0.3-0.4-0.7-0.6-1.3-0.6s-1 0.2-1.3 0.6c-0.2 0.2-0.3 0.6-0.4 1h3.3z"/>
    <path d="m63.5 20.1v13.4h-3.4v-1.1c-0.3 0.4-0.6 0.7-1 0.9-0.5 0.3-1.2 0.5-2 0.5-1.4 0-2.4-0.5-3.2-1.4-0.8-1-1.1-2.2-1.1-3.7s0.4-2.7 1.1-3.7c0.8-1 1.8-1.5 3.1-1.5 1.2 0 2.1 0.4 2.8 1.3v-4.7h3.7zm-5.3 6.2c-0.6 0-1 0.2-1.3 0.7-0.2 0.4-0.4 0.9-0.4 1.6s0.2 1.3 0.5 1.7 0.7 0.6 1.2 0.6c0.6 0 1.1-0.3 1.4-0.8 0.2-0.4 0.4-0.9 0.4-1.6 0-0.6-0.1-1.2-0.4-1.5-0.3-0.5-0.8-0.7-1.4-0.7z"/>
    <path d="m67.9 20.1v2.6h-3.7v-2.6h3.7zm0 3.7v9.6h-3.7v-9.6h3.7z"/>
    <path d="m72.1 23.8v1.2c0.3-0.4 0.6-0.7 0.9-0.9 0.6-0.4 1.2-0.6 2-0.6 1.3 0 2.3 0.5 3.1 1.4s1.2 2.2 1.2 3.8c0 1.5-0.3 2.6-1 3.5-0.8 1-1.9 1.5-3.3 1.5-0.7 0-1.3-0.2-1.9-0.5-0.3-0.2-0.6-0.4-0.9-0.8v4.1h-3.7v-12.7h3.6zm1.7 2.7c-0.5 0-0.9 0.2-1.2 0.6s-0.5 1-0.5 1.7 0.1 1.2 0.4 1.6c0.3 0.5 0.8 0.7 1.3 0.7 0.6 0 1.1-0.3 1.3-0.8 0.2-0.4 0.3-0.9 0.3-1.5 0-0.8-0.2-1.4-0.5-1.8-0.2-0.3-0.6-0.5-1.1-0.5z"/>
    <path d="m82.1 23.8v1.4c0.7-1 1.7-1.6 2.9-1.6 0.3 0 0.6 0 1 0.1v3c-0.4-0.1-0.7-0.1-1-0.1-1 0-1.8 0.3-2.2 1-0.3 0.4-0.4 1-0.4 1.8v4h-3.7v-9.6h3.4z"/>
    <path d="m89.6 23.5c1 0 1.9 0.2 2.8 0.7s1.6 1.2 2 2.1c0.3 0.7 0.5 1.5 0.5 2.3 0 1.5-0.5 2.7-1.5 3.7-0.5 0.5-1.1 0.9-1.9 1.1-0.6 0.2-1.3 0.3-2 0.3-1 0-2-0.2-2.8-0.7-0.9-0.5-1.6-1.2-2-2.1-0.3-0.7-0.5-1.5-0.5-2.3 0-1.5 0.5-2.7 1.5-3.7 1-0.9 2.3-1.4 3.9-1.4zm-0.1 2.6c-1.1 0-1.7 0.9-1.7 2.6s0.6 2.6 1.7 2.6 1.7-0.9 1.7-2.6c0-1.8-0.6-2.6-1.7-2.6z"/>
    <path d="m100.9 29.5 3.5 0.1c0 1.1-0.4 2-1.2 2.8-0.5 0.5-1.1 0.9-1.8 1.1-0.6 0.2-1.3 0.3-2 0.3-1.7 0-3-0.6-4.1-1.8-0.8-0.9-1.2-2.1-1.2-3.4 0-1.1 0.3-2.1 0.9-3 0.5-0.7 1.2-1.3 2.1-1.7 0.7-0.3 1.5-0.5 2.4-0.5 1.7 0 3 0.5 3.9 1.6 0.5 0.6 0.9 1.4 1 2.3l-3.5 0.1c-0.2-0.9-0.6-1.4-1.5-1.4-0.6 0-1 0.2-1.2 0.7-0.3 0.5-0.4 1.1-0.4 1.9 0 0.7 0.1 1.2 0.3 1.7 0.3 0.6 0.7 0.9 1.4 0.9 0.6 0 1-0.3 1.2-0.8 0.1-0.2 0.1-0.5 0.2-0.9z"/>
    <path d="m107.8 20.1v2.6h-3.7v-2.6h3.7zm0 3.7v9.6h-3.7v-9.6h3.7z"/>
    <path d="m112.6 20.7v3.1h1.7v2.2h-1.7v3.6c0 0.5 0.1 0.8 0.3 0.9s0.4 0.2 0.6 0.2 0.4 0 0.8-0.1v2.8c-0.9 0.2-1.7 0.2-2.5 0.2-1.3 0-2.2-0.4-2.6-1.3-0.2-0.3-0.3-0.7-0.3-1.3v-1.3-3.7h-1.3v-2.2h1.3v-3.1h3.7z"/>
    <path d="m123.6 23.8-3 8.8c-0.6 1.6-1.2 2.7-1.9 3.3-0.5 0.4-1.2 0.6-2 0.6h-0.9-1.9v-2.8h0.9c0.8 0 1.1-0.2 1.1-0.7 0-0.2-0.1-0.6-0.2-1l-3.1-8.2h3.8l1.7 6 1.7-6h3.8z"/>
		</g>
  </a>

  <path d="m29.8 23.8v1.4c0.7-1.1 1.7-1.7 3-1.7 1.4 0 2.4 0.6 3 1.7 0.3-0.4 0.6-0.8 0.8-1 0.6-0.5 1.4-0.7 2.4-0.7s1.8 0.3 2.4 0.8 0.9 1.2 1.1 2c0.1 0.4 0.1 0.8 0.1 1.3v5.9s0 1.8 1.7 1.8 2-1.3 2-1.3c0.9 0.6 3.1 0.8 4.2 0 0 0-1.5 5-6.2 5-5.3 0-5.3-5.5-5.3-5.5v-5c0-0.6 0-1-0.1-1.2-0.2-0.5-0.5-0.7-1.1-0.7-1 0-1.4 0.7-1.4 2.1v4.8h-3.7v-5c0-0.6 0-1-0.1-1.2-0.2-0.5-0.5-0.7-1.1-0.7-1 0-1.4 0.7-1.4 2.1v4.8h-3.7v-9.6h3.4z" fill="#5F52CA"/>

  <path d="m43.8 39.8h-3c-1.9 1.1-4.1 1.7-6.4 1.7-7.2 0-13-5.8-13-13s5.8-13 13-13c5.3 0 9.8 3.2 11.9 7.7 0 0 2.2-0.9 4.2 0.1-1.9-6.9-8.7-11.5-16-11.5-9.2 0-16.7 7.5-16.7 16.7s7.5 16.7 16.7 16.7c3.5 0 6.8-1.1 9.5-2.9l-0.2-2.5z" fill="#5F52CA"/>


</svg>
