<svg xmlns="http://www.w3.org/2000/svg" viewBox="0 0 142.7 57.7"><a><path fill="#FFF" stroke="#5F52CA" stroke-width=".5" stroke-miterlimit="10" d="M.3.3h142v57.1H.3z"/><g fill="#5F52CA"><path d="M48.4 26.8c0 1.9-1 3-2.7 3h-1V33h-1.3v-9h2.3c1.7-.1 2.7.9 2.7 2.8zm-1.3 0c0-1.2-.5-1.7-1.4-1.7h-1v3.3h1c.9.1 1.4-.6 1.4-1.6zM57.8 29.5H57v3.2h-1.3v-9H58c1.7 0 2.7 1 2.7 2.8 0 1.4-.6 2.3-1.7 2.7l1.9 3.5h-1.4l-1.7-3.2zm-.8-1.1h1c.9 0 1.4-.6 1.4-1.7 0-1-.5-1.5-1.4-1.5h-1v3.2zM72.9 31.6v1.2h-4.5v-9h4.4V25h-3.1v2.6h2.8v1.2h-2.8v2.7h3.2v.1zM85 31.6v1.2h-4.5v-9h4.4V25h-3.1v2.6h2.8v1.2h-2.8v2.7H85v.1zM96.7 32.1v.8h-4.1v-9h.8v8.2h3.3zM104.8 23.9v9h-.8v-9h.8zM117.9 23.9v9h-.8l-2.4-5.3c-.3-.6-.8-1.7-.9-2.2v7.4h-.8v-9h.8l2.4 5.3c.3.6.8 1.7 1 2.2 0-.6-.1-1.8-.1-2.6v-4.9h.8zM130.3 32.1v.8H126v-9h4.2v.8h-3.3V28h3.2v.8h-3.2v3.5h3.5v-.2zM23.3 36.3l-6.9-7.5-3.2 3.2-.9-.9 3.2-3.2c-.7-.7-1.9-2.1-2-3.8-.1-.9.2-1.8.9-2.5.6-.7 1.3-1.1 2.2-1.1h.1c2.2 0 4.5 2.4 4.6 2.5l.4.5-4.3 4.4 2.7 2.9 9.8-10.3.4.1c1.7.4 2.4 1.5 2.6 2.3.5 1.8-.4 4-1.5 5.2l-8.1 8.2zm-2.5-4.6l2.5 2.7 7-7.3c.9-.9 1.6-2.6 1.2-3.9-.2-.6-.6-1.1-1.3-1.3l-9.4 9.8zm-4.2-9.9c-.5 0-1 .2-1.3.6-.4.5-.6 1-.6 1.6.1 1.2 1.1 2.4 1.6 2.9l3.4-3.5c-.6-.7-2-1.6-3.1-1.6z"/></g></a></svg>