<?xml version="1.0" encoding="utf-8"?>
<!-- Generator: Adobe Illustrator 19.0.0, SVG Export Plug-In . SVG Version: 6.00 Build 0)  -->
<svg version="1.1" id="Слой_1" xmlns="http://www.w3.org/2000/svg" xmlns:xlink="http://www.w3.org/1999/xlink" x="0px" y="0px"
     viewBox="0 0 142.7 57.7" enable-background="new 0 0 142.7 57.7" xml:space="preserve">
<a href="#preeline">
  <g id="XMLID_609_">

		<rect id="XMLID_857_" x="0.3" y="0.3" fill="#FFFFFF" stroke="#5F52CA" stroke-width="0.5" stroke-miterlimit="10" width="142" height="57.1"/>
    <g id="XMLID_839_">
		<g id="XMLID_844_">
			<path id="XMLID_854_" fill="#5F52CA" d="M48.4,26.8c0,1.9-1,3-2.7,3h-1V33h-1.3v-9h2.3C47.4,23.9,48.4,24.9,48.4,26.8z
				 M47.1,26.8c0-1.2-0.5-1.7-1.4-1.7h-1v3.3h1C46.6,28.5,47.1,27.8,47.1,26.8z"/>
          <path id="XMLID_851_" fill="#5F52CA" d="M57.8,29.5H57v3.2h-1.3v-9H58c1.7,0,2.7,1,2.7,2.8c0,1.4-0.6,2.3-1.7,2.7l1.9,3.5h-1.4
				L57.8,29.5z M57,28.4h1c0.9,0,1.4-0.6,1.4-1.7c0-1-0.5-1.5-1.4-1.5h-1V28.4z"/>
          <path id="XMLID_850_" fill="#5F52CA" d="M72.9,31.6v1.2h-4.5v-9h4.4v1.2h-3.1v2.6h2.8v1.2h-2.8v2.7h3.2V31.6z"/>
          <path id="XMLID_849_" fill="#5F52CA" d="M85,31.6v1.2h-4.5v-9h4.4v1.2h-3.1v2.6h2.8v1.2h-2.8v2.7H85V31.6z"/>
          <path id="XMLID_848_" fill="#5F52CA" d="M96.7,32.1v0.8h-4.1v-9h0.8v8.2H96.7z"/>
          <path id="XMLID_847_" fill="#5F52CA" d="M104.8,23.9v9H104v-9L104.8,23.9z"/>
          <path id="XMLID_846_" fill="#5F52CA" d="M117.9,23.9v9h-0.8l-2.4-5.3c-0.3-0.6-0.8-1.7-0.9-2.2l0,0c0,0.6,0,1.7,0,2.4v5H113v-9
				h0.8l2.4,5.3c0.3,0.6,0.8,1.7,1,2.2l0,0c0-0.6-0.1-1.8-0.1-2.6v-4.9H117.9z"/>
          <path id="XMLID_845_" fill="#5F52CA" d="M130.3,32.1v0.8H126v-9h4.2v0.8h-3.3V28h3.2v0.8h-3.2v3.5h3.5V32.1z"/>
		</g>
      <path id="XMLID_840_" fill="#5F52CA" d="M23.3,36.3l-6.9-7.5L13.2,32l-0.9-0.9l3.2-3.2c-0.7-0.7-1.9-2.1-2-3.8
			c-0.1-0.9,0.2-1.8,0.9-2.5c0.6-0.7,1.3-1.1,2.2-1.1c0,0,0,0,0.1,0c2.2,0,4.5,2.4,4.6,2.5l0.4,0.5l-4.3,4.4l2.7,2.9l9.8-10.3
			l0.4,0.1c1.7,0.4,2.4,1.5,2.6,2.3c0.5,1.8-0.4,4-1.5,5.2L23.3,36.3z M20.8,31.7l2.5,2.7l7-7.3c0.9-0.9,1.6-2.6,1.2-3.9
			c-0.2-0.6-0.6-1.1-1.3-1.3L20.8,31.7z M16.6,21.8C16.6,21.8,16.6,21.8,16.6,21.8c-0.5,0-1,0.2-1.3,0.6c-0.4,0.5-0.6,1-0.6,1.6
			c0.1,1.2,1.1,2.4,1.6,2.9l3.4-3.5C19.1,22.7,17.7,21.8,16.6,21.8z"/>
	</g>
</g>
  </a>
</svg>
