<svg xmlns="http://www.w3.org/2000/svg" viewBox="0 0 142.7 57.7"><a><path fill="#FFF" stroke="#5F52CA" stroke-width=".5" stroke-miterlimit="10" d="M.3.3h142v57.1H.3z"/><g fill="#5F52CA"><path d="M28.5 19.2c3 .1 5.1 1 6.8 2.8.2.2.4.5.4.5L34.3 24l-1.2-1.1.4-.4s-.3-.3-.6-.4c-2.4-1.6-5.8-1.6-8.2-.1-.6.4-.6.6-.6.6 3.5 3.5 7.5 7.6 11.1 11.1l.6.6c-1.8 4.1-10 4.2-13.4.7-.2-.2-.5-.6-.5-.6l1.4-1.6 1.2 1.1-.4.5s.4.3.6.4c2.7 1.6 8 1.4 9-.5 0 0-8.3-8.2-11.8-11.7 0 0 0-.4.7-1 1.8-1.6 4-2.4 5.9-2.4zM58.5 19.2h1.6v17H70v-.8h1.4v2.3H58.5zM48.4 19.3c-2.8-.2-8.9-.1-8.9-.1v1.4h.6v17.1h1.4V32h6.4c3.5-.1 6.2-2.8 6.3-6.3.2-3.3-2.4-6.2-5.8-6.4zm-.7 11.2c-1.8.1-6.2 0-6.2 0v-9.9h.8c1.8 0 3.6 0 5.4.1 2.9.1 5.1 2.2 5.1 4.8 0 2.7-2.1 4.9-5.1 5zM110.6 19.2c-5.1 0-9.2 4.1-9.2 9.3 0 5.1 4.2 9.2 9.3 9.2 5.1 0 9.1-4.1 9.1-9.2 0-5.2-4.1-9.3-9.2-9.3zm-.1 17.3c-4.4-.1-8-3.7-8-8.1 0-4.4 3.7-8 8.1-8 4.4 0 8 3.7 8 8.1 0 4.3-3.8 8-8.1 8z"/><path d="M104.8 29s-.4-6 6.4-6v2H110v-.9c-4 .6-3.9 3.7-3.9 3.7h4V29h-5.3zM75.6 19.2h1.5v18.5h-1.5zM88.3 19.2h1.5v18.5h-1.5z"/><path d="M96.9 21.4v-2.2H81.3v2.2h1.6v-.7h12.4v.7zM116.3 27.8s.4 6-6.4 6v-2h1.1v.9c4-.6 3.9-3.7 3.9-3.7h-4v-1.2h5.4z"/></g></a></svg>