<?xml version="1.0" encoding="utf-8"?>
<!-- Generator: Adobe Illustrator 19.0.0, SVG Export Plug-In . SVG Version: 6.00 Build 0)  -->
<svg version="1.1" id="Слой_1" xmlns="http://www.w3.org/2000/svg" xmlns:xlink="http://www.w3.org/1999/xlink" x="0px" y="0px"
     viewBox="0 0 142.7 57.7" enable-background="new 0 0 142.7 57.7" xml:space="preserve">
<a href="#split">
  <g id="XMLID_614_">

		<rect id="XMLID_428_" x="0.3" y="0.3" fill="#FFFFFF" stroke="#5F52CA" stroke-width="0.5" stroke-miterlimit="10" width="142" height="57.1"/>
    <g id="XMLID_1125_">
		<path id="XMLID_1138_" fill="#5F52CA" d="M28.5,19.2c3,0.1,5.1,1,6.8,2.8c0.2,0.2,0.4,0.5,0.4,0.5l-1.4,1.5l-1.2-1.1l0.4-0.4
			c0,0-0.3-0.3-0.6-0.4c-2.4-1.6-5.8-1.6-8.2-0.1c-0.6,0.4-0.6,0.6-0.6,0.6c3.5,3.5,7.5,7.6,11.1,11.1l0.6,0.6
			c-1.8,4.1-10,4.2-13.4,0.7c-0.2-0.2-0.5-0.6-0.5-0.6l1.4-1.6l1.2,1.1l-0.4,0.5c0,0,0.4,0.3,0.6,0.4c2.7,1.6,8,1.4,9-0.5
			c0,0-8.3-8.2-11.8-11.7c0,0,0-0.4,0.7-1C24.4,20,26.6,19.2,28.5,19.2z"/>
      <polygon id="XMLID_1137_" fill="#5F52CA" points="58.5,19.2 60.1,19.2 60.1,36.2 70,36.2 70,35.4 71.4,35.4 71.4,37.7 58.5,37.7
					"/>
      <path id="XMLID_1134_" fill="#5F52CA" d="M48.4,19.3c-2.8-0.2-8.9-0.1-8.9-0.1v1.4h0.6l0,17.1h1.4l0-5.7c0,0,4.6,0,6.4,0
			c3.5-0.1,6.2-2.8,6.3-6.3C54.4,22.4,51.8,19.5,48.4,19.3z M47.7,30.5c-1.8,0.1-6.2,0-6.2,0l0-9.9c0,0,0.2,0,0.8,0
			c1.8,0,3.6,0,5.4,0.1c2.9,0.1,5.1,2.2,5.1,4.8C52.8,28.2,50.7,30.4,47.7,30.5z"/>
      <path id="XMLID_1131_" fill="#5F52CA" d="M110.6,19.2c-5.1,0-9.2,4.1-9.2,9.3c0,5.1,4.2,9.2,9.3,9.2c5.1,0,9.1-4.1,9.1-9.2
			C119.8,23.3,115.7,19.2,110.6,19.2z M110.5,36.5c-4.4-0.1-8-3.7-8-8.1c0-4.4,3.7-8,8.1-8c4.4,0,8,3.7,8,8.1
			C118.6,32.8,114.8,36.5,110.5,36.5z"/>
      <path id="XMLID_1130_" fill="#5F52CA" d="M104.8,29c0,0-0.4-6,6.4-6l0,2H110l0-0.9c-4,0.6-3.9,3.7-3.9,3.7h4V29H104.8z"/>
      <rect id="XMLID_1129_" x="75.6" y="19.2" fill="#5F52CA" width="1.5" height="18.5"/>
      <rect id="XMLID_1128_" x="88.3" y="19.2" fill="#5F52CA" width="1.5" height="18.5"/>
      <polygon id="XMLID_1127_" fill="#5F52CA" points="96.9,21.4 96.9,19.2 81.3,19.2 81.3,21.4 82.9,21.4 82.9,20.7 95.3,20.7
			95.3,21.4 		"/>
      <path id="XMLID_1126_" fill="#5F52CA" d="M116.3,27.8c0,0,0.4,6-6.4,6l0-2h1.1l0,0.9c4-0.6,3.9-3.7,3.9-3.7h-4v-1.2H116.3z"/>
	</g>
</g>
  </a>
</svg>
