<?xml version="1.0" encoding="utf-8"?>
<!-- Generator: Adobe Illustrator 19.0.0, SVG Export Plug-In . SVG Version: 6.00 Build 0)  -->
<svg version="1.1" id="Слой_1" xmlns="http://www.w3.org/2000/svg" xmlns:xlink="http://www.w3.org/1999/xlink" x="0px" y="0px"
     viewBox="0 0 142.7 57.7" enable-background="new 0 0 142.7 57.7" xml:space="preserve">
<a href="#upstack">
  <g id="XMLID_608_">

		<rect id="XMLID_867_" x="0.4" y="0.3" fill="#FFFFFF" stroke="#5F52CA" stroke-width="0.5" stroke-miterlimit="10" width="142" height="57.1"/>
    <g id="Layer_1_1_">
		<g id="XMLID_858_">
			<path id="XMLID_866_" fill="#5F52CA" d="M57.9,25.8C55.2,25.6,53,25.3,53,24c0-0.3,0.1-0.7,0.4-0.9c0.8-0.8,2.7-1.1,4.1-1.1
				c2,0,3.6,0.7,4.8,1.7l0.1,0.1l1.3-1.1l-0.1-0.1c-1.5-1.3-3.8-2.2-6.2-2.2c-1.7,0-3.2,0.3-4.3,0.9c-1.2,0.7-1.9,1.7-1.9,2.8
				c0,1.2,0.7,3,6.3,3.4c3.3,0.2,4.9,0.7,4.9,1.9c0,1.4-1.7,2.2-4.4,2.2c-2.4,0-4.3-0.7-6-2.2l-0.1-0.1l-1.2,1.3l0.1,0.1
				c1.8,1.5,4.3,2.5,7.1,2.5c3.8,0,6.3-1.5,6.3-4S61.1,26.1,57.9,25.8z"/>
          <path id="XMLID_865_" fill="#5F52CA" d="M96.4,21.9c2.1,0,3.8,0.8,4.5,2.2l0.1,0.1l1.7-0.8l-0.1-0.1c-1.2-1.9-3.4-3-6.2-3
				c-4.5,0-7.4,2.4-7.4,6.4s2.8,6.4,7.3,6.4c2.8,0,5-1.1,6.2-3l0.1-0.1l-1.7-0.8l-0.1,0.1c-0.9,1.4-2.4,2.2-4.5,2.2
				c-3.5,0-5.6-1.8-5.6-4.9C90.8,23.6,92.9,21.9,96.4,21.9z"/>
          <polygon id="XMLID_864_" fill="#5F52CA" points="111.6,25.4 117.8,20.5 115.2,20.5 106.4,27.4 106.4,20.5 104.6,20.5 104.6,32.8
				106.4,32.8 106.4,29.4 110.2,26.4 115.8,32.8 118,32.8 			"/>
          <polygon id="XMLID_863_" fill="#5F52CA" points="64.9,20.5 64.9,22.1 70.6,22.1 70.6,32.7 72.4,32.7 72.4,22.1 77.2,22.1
				78.1,20.5 			"/>
          <polygon id="XMLID_862_" fill="#5F52CA" points="80.4,20.5 84.5,27.9 78.2,27.9 77.3,29.5 85.4,29.5 87.2,32.8 89.2,32.8
				82.4,20.5 			"/>
          <path id="XMLID_861_" fill="#5F52CA" d="M27.4,33.5c4,0,6.5-2.4,6.5-6.2v-6.5H32v6.4c0,2.8-1.7,4.5-4.6,4.5
				c-2.9,0-4.6-1.7-4.6-4.5v-6.4h-1.9v6.5C20.9,31.1,23.4,33.5,27.4,33.5z"/>
          <polygon id="XMLID_860_" fill="#5F52CA" points="21,37.9 47.8,37.9 47.8,36.1 21,36.1 			"/>
          <path id="XMLID_859_" fill="#5F52CA" d="M44.3,20.7h-8.2v1.9h8.1c1.9,0,3,0.8,3,2.2s-1.1,2.2-3,2.2h-8.1v6.2H38v-4.3h6.3
				c3,0,4.9-1.5,4.9-4S47.3,20.7,44.3,20.7z"/>
		</g>
	</g>
</g>
  </a>

</svg>
