<svg xmlns="http://www.w3.org/2000/svg" viewBox="0 0 142.7 57.7"><a><path fill="#FFF" stroke="#5F52CA" stroke-width=".5" stroke-miterlimit="10" d="M.4.3h142v57.1H.4z"/><g fill="#5F52CA"><path d="M57.9 25.8c-2.7-.2-4.9-.5-4.9-1.8 0-.3.1-.7.4-.9.8-.8 2.7-1.1 4.1-1.1 2 0 3.6.7 4.8 1.7l.1.1 1.3-1.1-.1-.1c-1.5-1.3-3.8-2.2-6.2-2.2-1.7 0-3.2.3-4.3.9-1.2.7-1.9 1.7-1.9 2.8 0 1.2.7 3 6.3 3.4 3.3.2 4.9.7 4.9 1.9 0 1.4-1.7 2.2-4.4 2.2-2.4 0-4.3-.7-6-2.2l-.1-.1-1.2 1.3.1.1c1.8 1.5 4.3 2.5 7.1 2.5 3.8 0 6.3-1.5 6.3-4s-3.1-3.1-6.3-3.4zM96.4 21.9c2.1 0 3.8.8 4.5 2.2l.1.1 1.7-.8-.1-.1c-1.2-1.9-3.4-3-6.2-3-4.5 0-7.4 2.4-7.4 6.4s2.8 6.4 7.3 6.4c2.8 0 5-1.1 6.2-3l.1-.1-1.7-.8-.1.1c-.9 1.4-2.4 2.2-4.5 2.2-3.5 0-5.6-1.8-5.6-4.9.1-3 2.2-4.7 5.7-4.7zM111.6 25.4l6.2-4.9h-2.6l-8.8 6.9v-6.9h-1.8v12.3h1.8v-3.4l3.8-3 5.6 6.4h2.2zM64.9 20.5v1.6h5.7v10.6h1.8V22.1h4.8l.9-1.6zM80.4 20.5l4.1 7.4h-6.3l-.9 1.6h8.1l1.8 3.3h2l-6.8-12.3zM27.4 33.5c4 0 6.5-2.4 6.5-6.2v-6.5H32v6.4c0 2.8-1.7 4.5-4.6 4.5-2.9 0-4.6-1.7-4.6-4.5v-6.4h-1.9v6.5c0 3.8 2.5 6.2 6.5 6.2zM21 37.9h26.8v-1.8H21zM44.3 20.7h-8.2v1.9h8.1c1.9 0 3 .8 3 2.2s-1.1 2.2-3 2.2h-8.1v6.2H38v-4.3h6.3c3 0 4.9-1.5 4.9-4s-1.9-4.2-4.9-4.2z"/></g></a></svg>