<svg xmlns="http://www.w3.org/2000/svg" viewBox="0 0 403.9 380.4" xml:space="preserve">
  <path opacity=".6" fill="#5723B5" d="M297.8 122h-76.4c-.7 0-1.1-.6-.8-1.3l15.5-42.6c.3-.7 1.1-1.3 1.8-1.3h76.4c.7 0 1.1.6.8 1.3l-15.5 42.6c-.3.7-1 1.3-1.8 1.3z"/>
  <path fill="#FFF" d="M296.9 120h-73.1c-.7 0-1-.5-.8-1.2L237.1 80c.2-.7 1-1.2 1.7-1.2h73.1c.7 0 1 .5.8 1.2l-14.1 38.8c-.3.7-1 1.2-1.7 1.2z"/>
  <path opacity=".6" fill="#5723B5" d="M295.6 117.5H227c-.8 0-1.1-.6-.9-1.4l12.2-33.4c.3-.8 1.1-1.4 1.9-1.4h68.6c.8 0 1.1.6.9 1.4l-12.2 33.4c-.3.8-1.2 1.4-1.9 1.4z"/>
  <ellipse transform="rotate(-39.843 267.868 99.425)" fill="#FFF" cx="267.9" cy="99.4" rx="15" ry="10.5"/>
  <path opacity=".6" fill="#5723B5" d="M278.7 99.4c-2.2 6-8.8 10.8-14.7 10.8-6 0-9-4.8-6.9-10.8 2.2-6 8.8-10.8 14.7-10.8 6 0 9 4.9 6.9 10.8z"/>
  <path fill="#FFF" d="m273.4 98.9-4.8 2.2-4.8 2.3 1.7-4.5 1.7-4.6 3.1 2.3z"/>
  <path fill="#0A7A1D" d="M182.2 74.1h-6c-1.2 0-2.3-.5-2.9-1.4-.7-1-.8-2.2-.3-3.5l2.2-6c.8-2.3 3.4-4.1 5.7-4.1h6c1.2 0 2.3.5 2.9 1.4.7 1 .8 2.2.3 3.5l-2.2 6c-.8 2.3-3.3 4.1-5.7 4.1zm-1.3-12.8c-1.4 0-3 1.2-3.5 2.6l-2.2 6c-.2.6-.2 1.1 0 1.4.2.4.7.4 1 .4h6c1.4 0 3-1.2 3.5-2.6l2.2-6c.2-.6.2-1.1 0-1.4-.2-.4-.7-.4-1-.4h-6zM172.9 99.7h-6c-1.2 0-2.3-.5-2.9-1.4-.7-1-.8-2.2-.3-3.5l2.2-6c.8-2.3 3.4-4.1 5.7-4.1h6c1.2 0 2.3.5 2.9 1.4.7 1 .8 2.2.3 3.5l-2.2 6c-.8 2.3-3.3 4.1-5.7 4.1zm-1.3-12.8c-1.4 0-3 1.2-3.5 2.6l-2.2 6c-.2.6-.2 1.1 0 1.4.2.3.7.4 1 .4h6c1.4 0 3-1.2 3.5-2.6l2.2-6c.2-.6.2-1.1 0-1.4-.2-.3-.7-.4-1-.4h-6z"/>
  <path opacity=".6" fill="#5723B5" d="M163.6 125.3h-6c-1.2 0-2.3-.5-2.9-1.4-.7-1-.8-2.2-.3-3.5l2.2-6c.8-2.3 3.4-4.1 5.7-4.1h6c1.2 0 2.3.5 2.9 1.4.7 1 .8 2.2.3 3.5l-2.2 6c-.8 2.2-3.3 4.1-5.7 4.1zm-1.3-12.8c-1.4 0-3 1.2-3.5 2.6l-2.2 6c-.2.6-.2 1.1 0 1.4.2.3.7.4 1 .4h6c1.4 0 3-1.2 3.5-2.6l2.2-6c.2-.6.2-1.1 0-1.4-.2-.3-.7-.4-1-.4h-6zM231.7 69.2h-33.1c-.6 0-.9-.5-.7-1.1.2-.6.9-1.1 1.5-1.1h33.1c.6 0 .9.5.7 1.1-.2.6-.8 1.1-1.5 1.1zM230.1 73.7H197c-.6 0-.9-.5-.7-1.1.2-.6.9-1.1 1.5-1.1h33.1c.6 0 .9.5.7 1.1-.2.6-.9 1.1-1.5 1.1zM223.1 92.9H190c-.6 0-.9-.5-.7-1.1.2-.6.9-1.1 1.5-1.1h33.1c.6 0 .9.5.7 1.1-.2.6-.9 1.1-1.5 1.1zM221.5 97.4h-33.1c-.6 0-.9-.5-.7-1.1.2-.6.9-1.1 1.5-1.1h33.1c.6 0 .9.5.7 1.1-.2.6-.9 1.1-1.5 1.1zM213.5 119.2h-33.1c-.6 0-.9-.5-.7-1.1.2-.6.9-1.1 1.5-1.1h33.1c.6 0 .9.5.7 1.1-.2.6-.8 1.1-1.5 1.1zM211.9 123.7h-33.1c-.6 0-.9-.5-.7-1.1.2-.6.9-1.1 1.5-1.1h33.1c.6 0 .9.5.7 1.1-.2.6-.9 1.1-1.5 1.1z"/>
  <path fill="#260A3F" d="M180.8 70.7h-.3c-.4-.1-.6-.3-.8-.7l-2.3-5.6c-.2-.6 0-1.3.6-1.5.6-.2 1.3 0 1.5.6l1.7 4.2 13.4-10.3c.5-.4 1.2-.3 1.6.2.4.5.3 1.2-.2 1.6l-14.6 11.3c-.1.2-.3.2-.6.2zM171.5 96.3h-.3c-.4-.1-.6-.3-.8-.7l-2.3-5.6c-.2-.6 0-1.3.6-1.5.6-.2 1.3 0 1.5.6l1.7 4.2L185.5 83c.5-.4 1.2-.3 1.6.2.4.5.3 1.2-.2 1.6l-14.6 11.3c-.3.1-.5.2-.8.2z"/>
  <path opacity=".6" fill="#5723B5" d="M390.3 39.5H263.2l3.3-9h127.1zM385.4 53H258.3l3.3-9h127.1zM244.5 161.3h-93.3c-1.2 0-1.9-1-1.4-2.2.4-1.2 1.8-2.2 3-2.2h93.3c1.2 0 1.9 1 1.4 2.2-.4 1.2-1.8 2.2-3 2.2zM240.9 171.1h-93.3c-1.2 0-1.9-1-1.4-2.2.4-1.2 1.8-2.2 3-2.2h93.3c1.2 0 1.9 1 1.4 2.2-.4 1.2-1.7 2.2-3 2.2z"/>
  <g>
    <path fill="#F09959" d="M29.2 355.1v16.7s9.9.5 9.9-3.5 1.3-13.2 1.3-13.2H29.2zM85.9 355.3l3.1 14.4s8.2 1 8.2 0v-16.3l-11.3 1.9z"/>
    <path fill="#260A3F" d="m90.8 173.8 11.7 185.3H83.2L60.5 256.2l-31.3-73.5 1.9-13z"/>
    <path fill="#321551" d="M60.3 258 45.8 361.8H24.7L28 189.3l7.3 5.9c18.8 15.1 28.3 38.9 25 62.8z"/>
    <path fill="#F09959" d="M193.9 80.8c1.3 0 5.1 6 5.1 6s-45.7 27.1-61.3 38.4c-2.5 1.8-5.8 2-8.5.4l-34-19.6 9.5-23.7 30.3 24.8c17.8-9.5 57.9-26.3 58.9-26.3z"/>
    <path fill="#F09959" d="M197.2 87.9c5.8-3.1 16.6-1.6 18.3-2.5 1.7-.9 9.4-3.9 12.2-4.6 2.6-.7 6.9-4.6 5.6-4.4-.6.1-11.9 1.4-17 2.7-3.6 1-2.2-1.6-10.8-1.2-8.6.4-12 2.9-12 2.9l3.7 7.1z"/>
    <linearGradient id="a" gradientUnits="userSpaceOnUse" x1="1508.949" y1="-734.003" x2="1533.947" y2="-690.704" gradientTransform="rotate(-71.838 1366.69 672.483)">
      <stop offset="0" style="stop-color:#aa30be"/>
      <stop offset="1" style="stop-color:#5723b5"/>
    </linearGradient>
    <path fill="url(#a)" d="M72.8 74.9c-12.9 9.3 36.9 43.9 36.9 43.9s2-3.2 9.6-13.4c3.1-4.2 6.1-8.4 6.1-8.4s-8.1-10.1-18.1-17.2c-13-9.2-21-14.7-34.5-4.9z"/>
    <linearGradient id="b" gradientUnits="userSpaceOnUse" x1="61.592" y1="62.401" x2="61.592" y2="173.822">
      <stop offset="0" style="stop-color:#aa30be"/>
      <stop offset="1" style="stop-color:#5723b5"/>
    </linearGradient>
    <path fill="url(#b)" d="M62.9 62.4c-18.9 9.3-27.7 1-33.6 26.3-5.9 25.3-5.9 64.4-2.8 82.2 20.9.6 65.3 2.9 65.3 2.9s-2-24.2 4.7-53.2c2.7-11.4 2.9-23.2.6-34.7C94.6 73.8 93.3 70 88.7 69c-7-1.6-25.8-6.6-25.8-6.6z"/>
    <path opacity=".2" d="m39.4 73.6-8.6 40-6.2 32.1c-.1 9.3.6 17.8 1.9 25.3.1.4 11.2.4 11.6.4 13.4.6 16.1.7 16.1.7 3.4-47.5 6.3-92.5-14.8-98.5z"/>
    <path fill="#FFF" d="M61.1 62.4C58.7 68 63.6 75.3 71.3 81c7.7 5.8 12.3 2.6 11.9-1.9-.4-4.5-.8-9.3-2.6-12.2-1.8-2.9-16-5.3-16-5.3s-3.1-.1-3.5.8z"/>
    <path fill="#F09959" d="m62.2 49.4.7 13c-.7 1.9-.5 4 .5 5.7 3 4.8 9.4 14.1 14 12.8 6.2-1.6 2.1-13.2 2.1-13.2l1.9-29-19.2 10.7z"/>
    <path fill="#E38540" d="m75.1 36.2-7.3-3-2.2 5.7c1 24.3 10.4 34.2 15.2 37 .3-3.7-1.3-8.1-1.3-8.1l.9-19.7-5.3-11.9z"/>
    <path fill="#F09959" d="M95.4 47.1c-1.4 9.6-5.2 21.7-12.1 20.7-6.9-1-18.7-12.9-17.3-22.5 1.4-9.6 16.9-21.2 23.8-20.2 6.9 1 7.1 12.4 5.6 22zM43.2 126.7s-22-4.6-22.4-2.4c-3.2 18.6-1 23.8-1.6 32.8-.7 11.3 5.5 56.3 6.7 56 1.2-.3 8.5-2.6 8.5-2.6s5.6-45.7 3.8-58c2.3-5.6 5-25.8 5-25.8z"/>
    <linearGradient id="c" gradientUnits="userSpaceOnUse" x1="249.873" y1="-271.286" x2="273.365" y2="-230.596" gradientTransform="rotate(-17.503 1310.326 664.661)">
      <stop offset="0" style="stop-color:#aa30be"/>
      <stop offset="1" style="stop-color:#5723b5"/>
    </linearGradient>
    <path fill="url(#c)" d="M32.8 74.3c-11.9 10.6-14.2 55.5-14.2 55.5s3.8-.2 16.5 0c5.3.1 10.4.1 10.4.1s6.5-17.7 6.4-30c-.1-15.7-11.8-32.1-19.1-25.6z"/>
    <path fill="#F09959" d="M61.7 24.1c-10.2 12.6 1.9 18.9.8 31.2 2.3.8 4.2-.8 5.8-4.4 1.6-3.6 13.8-26.3 13.8-26.3l-20.4-.5z"/>
    <path opacity=".2" d="M60.9 28c-2.9-.5-4.3 5.7-2.6 10.7 2 3.7 6.7 3.7 7.1 2.8.2-.5.6 3.9.6 3.9l3.9 1.1s1.2-2.6 1-3.8c-.2-1.3-.9-7.3 2.2-10.1 2-1.9 10.1 2.2 10.1 2.2l-7.9-11.4L60.9 28z"/>
    <path fill="#424047" d="M98.3 31.9c-.7 8.6-14.1 5.9-20.4-1.8-5.9-7.4-10.8-2.3-16.8.2-9.9 4.1 1.3-19.8 21.3-16 15 2.8 16.4 11.9 15.9 17.6z"/>
    <path fill="#F09959" d="M65.5 41.9c.6 3.2-.6 6.2-2.7 6.6-2.1.4-4.3-1.9-4.9-5.1-.6-3.2.6-6.2 2.7-6.6 2.1-.4 4.3 1.9 4.9 5.1zM34.4 210.5s4.9 7.8 5.5 11.1c.3 1.5.7 3.4.6 5.2 0 .3 0 .7-.1 1.3-.1.9-1.3 1-1.6.2-.7-1.9-1.3-3.7-1.7-5.1-.1-.5-.9-.5-1 .1-.1 1.3-.3 2.7-.4 4-.3 3.6-.6 12.3-1.2 13-2.4 2.8-7.8 3.2-9.7 1.1-1.3-1.5-.3-11.3.4-17.9.3-3.1.7-8.4.7-10.3l8.5-2.7z"/>
    <linearGradient id="d" gradientUnits="userSpaceOnUse" x1="25.928" y1="372.752" x2="65.258" y2="372.752">
      <stop offset="0" style="stop-color:#aa30be"/>
      <stop offset="1" style="stop-color:#5723b5"/>
    </linearGradient>
    <path fill="url(#d)" d="M29.2 368.3h-.1c-1.9.5-3.2 2.2-3.2 4.2v2.8c0 1.3 1.1 2.4 2.4 2.4H38c3.4-3.1 11 .2 13.3.2 4.8 0 9.5-.2 9.5-.2 2.9 0 5.6-3.2 4-5.6-.8-1.2-3.1-2.7-4.4-3.4-4.4-2.1-6.9 1.8-14.7.7-2.1-.3-4.4-1.1-6.5-1.7-2.8-.9-.3 2.8-5.9 2.8-3.4 0-2.5-2.6-4.1-2.2z"/>
    <linearGradient id="e" gradientUnits="userSpaceOnUse" x1="84.646" y1="371.824" x2="123.976" y2="371.824">
      <stop offset="0" style="stop-color:#aa30be"/>
      <stop offset="1" style="stop-color:#5723b5"/>
    </linearGradient>
    <path fill="url(#e)" d="M88 367.4h-.1c-1.9.5-3.2 2.2-3.2 4.2v2.8c0 1.3 1.1 2.4 2.4 2.4h9.7c3.4-3.1 11 .2 13.3.2 4.8 0 9.5-.2 9.5-.2 2.9 0 5.6-3.2 4-5.6-.8-1.2-3.1-2.7-4.4-3.4-4.4-2.1-6.9 1.8-14.7.7-2.1-.3-4.4-1.1-6.5-1.7-2.8-.9-.3 2.8-5.9 2.8-3.5 0-2.6-2.6-4.1-2.2z"/>
  </g>
</svg>
