<svg xmlns="http://www.w3.org/2000/svg" viewBox="0 0 315.6 396.7" xml:space="preserve">
  <path fill="#260A3F" d="M3.7 71.6c0-13.2 10.7-24 24-24h204c11.3 0 20.5 8.8 21.1 20.1l15.1 295.7c.4 8.8-6.5 16.2-15.3 16.4L18.7 384c-8.3.2-15.1-6.5-15.1-14.8V71.6z"/>
  <linearGradient id="a" gradientUnits="userSpaceOnUse" x1="-41.227" y1="313.628" x2="171.394" y2="448.705">
    <stop offset="0" style="stop-color:#a737d5"/>
    <stop offset="1" style="stop-color:#ef497a"/>
  </linearGradient>
  <path fill="url(#a)" d="m52.9 379-26.2-.3c-8.7-.1-15.9-7.3-15.9-16.1v-39.5c0-.3.3-.6.6-.6s.6.2.6.6v39.5c0 8.1 6.6 14.8 14.8 15l26.2.3c.3 0 .6.3.6.6-.1.2-.4.5-.7.5z"/>
  <linearGradient id="b" gradientUnits="userSpaceOnUse" x1="-23.38" y1="285.536" x2="189.241" y2="420.613">
    <stop offset="0" style="stop-color:#a737d5"/>
    <stop offset="1" style="stop-color:#ef497a"/>
  </linearGradient>
  <path fill="url(#b)" d="M11.4 311.4c-.3 0-.6-.2-.6-.6v-6.4c0-.3.3-.6.6-.6s.6.2.6.6v6.4c0 .4-.2.6-.6.6z"/>
  <path fill="#8562D1" d="M20.4 52.2c0-4.2 3.7-7.5 7.9-6.9 27.9 3.8 123.6 15.5 202.8 9.4 3.6-.3 6.7 2.5 6.9 6.1l15.8 297c.2 4.1-2.9 7.6-7 7.8-33.3 2-170.5 9.6-219.4 4.5-3-.3-5.2-2.8-5.3-5.8L20.4 52.2z"/>
  <path opacity=".6" fill="#FFF" d="M22.5 59.6c0-4.1 3.6-7.2 7.6-6.7 26.8 3.6 119 14.9 195.2 9 3.5-.3 6.5 2.4 6.7 5.8l15.2 285.9c.2 3.9-2.8 7.3-6.7 7.5-32.1 1.9-164.1 9.2-211.1 4.3-2.9-.3-5-2.7-5.1-5.6L22.5 59.6z"/>
  <path opacity=".78" fill="#FFF" d="m48.5 81.6 2.8 61.3c.1 2 1.7 3.7 3.8 3.7 11.4.3 46.7 1.2 66.7.1 2.3-.1 4-1.9 4.1-4.2.4-11.5 1.2-44.9-1.4-58.9-.4-2.3-2.4-3.9-4.7-4l-67.1-2.3c-2.3-.1-4.3 1.9-4.2 4.3z"/>
  <path fill="#FFF" d="M216.6 87c1.2 0 2.1-.9 2.1-2.1 0-1.1-1-2.1-2.2-2.1l-74-1.3c-1.2 0-1.8.9-1.4 2l.5 1.4c.4 1.1 1.7 2 2.9 2h72.1zM142.4 100.6c-1.2 0-1.8.9-1.4 2l.5 1.4c.4 1.1 1.7 2 2.9 2h72.2c1.2 0 2.1-.9 2.1-2.1 0-1.1-1-2.1-2.2-2.1l-74.1-1.2zM142.4 121.5c-1.2 0-1.8.9-1.4 2l.5 1.4c.4 1.1 1.7 2 2.9 2h72.2c1.2 0 2.1-.9 2.1-2.1 0-1.1-1-2.1-2.2-2.1l-74.1-1.2zM223.7 165.9c1.2 0 2.1-.9 2-2.1s-1.1-2.1-2.3-2.1l-172.8-1.4c-1.2 0-1.6.7-.8 1.7l1.7 2.1c.7.9 2.3 1.7 3.5 1.7h168.7z" opacity=".6"/>
  <path fill="#FFF" d="m68.6 245.4-14.6-.1c-2.1 0-3.8-1.5-4-3.3l-1.3-12.2c-.1-.7.1-1.4.6-2 .5-.6 1.3-1 2.2-1.1 1.2-.1 3-.2 4.8-.4 3.8-.3 8.6-.7 11.3-.8 2 0 3.6 1.1 4.1 2.8.8 2.8.7 8.1.5 13.8.1 1.9-1.6 3.3-3.6 3.3zm-16.9-17.6c-.6 0-1.1.3-1.4.7-.3.3-.4.7-.4 1.2l1.3 12.2c.1 1.3 1.4 2.3 2.9 2.3l14.5.1c1.4 0 2.6-1 2.6-2.2.1-5.6.2-10.8-.5-13.4-.3-1.2-1.6-2-3-2-2.7 0-7.4.4-11.2.8-1.8.1-3.6.2-4.8.3z"/>
  <path opacity=".6" fill="#FFF" d="M53.3 229c3.1-.2 9.7-.9 12.8-.9 1.3 0 2.5.8 2.8 1.9.6 2.2.5 6.7.4 10.9 0 1.2-1.2 2.2-2.6 2.2l-11.5-.1c-1.4 0-2.6-1-2.7-2.3l-1-9.8c-.2-.9.6-1.8 1.8-1.9zM81.4 237.3c.4 1.6 1.9 2.7 3.5 2.7l134.6-1.1c1.5 0 2.7-1.3 2.7-2.8 0-1.5-1.2-2.7-2.7-2.7l-134.6-.6c-2.4 0-4.1 2.2-3.5 4.5z"/>
  <path fill="#FFF" d="m67.7 213.5-14.6-.1c-2.1 0-3.8-1.5-4-3.3l-1.3-12.2c-.1-.7.1-1.4.6-2 .5-.6 1.3-1 2.2-1.1 1.2-.1 3-.2 4.8-.4 3.8-.3 8.6-.7 11.3-.8 2 0 3.6 1.1 4.1 2.8.8 2.8.7 8.1.5 13.8.1 1.8-1.6 3.3-3.6 3.3zm-16.9-17.7c-.6 0-1.1.3-1.4.7-.3.3-.4.7-.4 1.2l1.3 12.2c.1 1.3 1.4 2.3 2.9 2.3l14.5.1c1.4 0 2.6-1 2.6-2.2.1-5.6.2-10.8-.5-13.4-.3-1.2-1.6-2-3-2-2.7 0-7.4.4-11.2.8-1.9.1-3.6.3-4.8.3z"/>
  <path opacity=".6" fill="#FFF" d="M52.3 197.1c3.1-.2 9.7-.9 12.8-.9 1.3 0 2.5.8 2.8 1.9.6 2.2.5 6.7.4 10.9 0 1.2-1.2 2.2-2.6 2.2l-11.6-.1c-1.4 0-2.6-1-2.7-2.3l-1-9.8c-.1-.9.8-1.8 1.9-1.9zM80.5 205.4c.4 1.6 1.9 2.7 3.5 2.7l134.6-1.1c1.5 0 2.7-1.3 2.7-2.8 0-1.5-1.2-2.7-2.7-2.7L84 200.8c-2.4 0-4.2 2.3-3.5 4.6z"/>
  <path fill="#FFF" d="m68.6 276.6-14.6-.1c-2.1 0-3.8-1.5-4-3.3L48.7 261c-.1-.7.1-1.4.6-2 .5-.6 1.3-1 2.2-1.1 1.2-.1 3-.2 4.8-.4 3.8-.3 8.6-.7 11.3-.8h.1c1.9 0 3.6 1.2 4 2.8.8 2.8.7 8.1.5 13.8.1 1.8-1.6 3.3-3.6 3.3zM51.7 259c-.6 0-1.1.3-1.4.7-.3.3-.4.7-.4 1.2l1.3 12.2c.1 1.3 1.4 2.3 2.9 2.3l14.5.1c1.4 0 2.6-1 2.6-2.2.1-5.6.2-10.8-.5-13.4-.3-1.2-1.6-2-3-2-2.7 0-7.4.4-11.2.8-1.8 0-3.6.2-4.8.3z"/>
  <path opacity=".6" fill="#FFF" d="M53.3 260.2c3.1-.2 9.7-.9 12.8-.9 1.3 0 2.5.8 2.8 1.9.6 2.2.5 6.7.4 10.9 0 1.2-1.2 2.2-2.6 2.2l-11.6-.1c-1.4 0-2.6-1-2.7-2.3l-1-9.8c-.1-.9.7-1.8 1.9-1.9zM81.4 268.5c.4 1.6 1.9 2.7 3.5 2.7l134.6-1.1c1.5 0 2.7-1.3 2.7-2.8 0-1.5-1.2-2.7-2.7-2.7L84.9 264c-2.4 0-4.1 2.2-3.5 4.5z"/>
  <path fill="#FFF" d="m68.6 307.8-14.6-.2c-2.1 0-3.8-1.4-4-3.3l-1.3-12.2c-.1-.7.1-1.4.6-2 .5-.6 1.3-1 2.2-1.1 1.2-.1 3-.2 4.8-.4 3.8-.3 8.6-.7 11.3-.8h.1c1.9 0 3.6 1.2 4 2.8.8 2.8.7 8.1.5 13.8.1 1.9-1.6 3.4-3.6 3.4zm-16.9-17.7c-.6 0-1.1.3-1.4.7-.3.3-.4.7-.4 1.2l1.3 12.2c.1 1.3 1.4 2.3 2.9 2.3l14.5.1c1.4 0 2.6-1 2.6-2.2.1-5.6.2-10.8-.5-13.4-.3-1.2-1.6-2.1-3-2-2.7 0-7.4.4-11.2.8-1.8.1-3.6.3-4.8.3z"/>
  <path opacity=".6" fill="#FFF" d="M53.3 291.4c3.1-.2 9.7-.9 12.8-.9 1.3 0 2.5.8 2.8 1.9.6 2.2.5 6.7.4 10.9 0 1.2-1.2 2.2-2.6 2.2l-11.6-.1c-1.4 0-2.6-1-2.7-2.3l-1-9.8c-.1-.9.7-1.8 1.9-1.9zM81.4 299.7c.4 1.6 1.9 2.7 3.5 2.7l134.6-1.1c1.5 0 2.7-1.3 2.7-2.8 0-1.5-1.2-2.7-2.7-2.7l-134.6-.6c-2.4-.1-4.1 2.2-3.5 4.5zM137.9 332c.3 1.6 1.2 2.7 2.3 2.7l86.5-1.1c1 0 1.8-1.3 1.7-2.8 0-1.5-.8-2.7-1.7-2.7l-86.5-.6c-1.6-.1-2.7 2.2-2.3 4.5z"/>
  <path fill="#260A3F" d="M142.3 7.3c-7.4-5.1-13.8-5-18.3-3.7-4.1 1.2-6.8 5.2-6.4 9.5l1.9 21.2 23.1 2.1c.1-.1 14.2-19.1-.3-29.1zm-10.2 17.1c-3.2 0-5.8-2.6-5.8-5.8s2.6-5.8 5.8-5.8c3.2 0 5.8 2.6 5.8 5.8s-2.6 5.8-5.8 5.8z"/>
  <path fill="#FFF" d="M121.9 25.4c-.3 0-.5-.2-.6-.5l-.3-3.4c0-.3.2-.6.5-.6s.6.2.6.5l.3 3.4c.1.3-.1.5-.5.6zm-.6-6.7c-.3 0-.5-.2-.6-.5l-.2-2.6c-.4-4.1 2.2-7.9 6.1-9 2.8-.8 5.6-.9 8.5-.3.3.1.5.4.4.7-.1.3-.4.5-.7.4-2.7-.5-5.3-.4-7.9.3-3.4 1-5.6 4.3-5.3 7.8l.2 2.6c.1.3-.2.6-.5.6z"/>
  <path fill="#260A3F" d="M88 48V37.3c0-3.7 3.1-6.6 6.7-6.5l73.6 2.5c3.3.1 5.9 2.7 6.1 6l.6 10.3L88 48z"/>
  <path fill="#FFF" d="M115.4 34.8h-3.2c-.3 0-.6-.2-.6-.6 0-.3.3-.6.6-.6h3.2c.3 0 .6.2.6.6 0 .4-.3.6-.6.6zM92 44.7c-.3 0-.6-.2-.6-.6v-4.3c0-3.3 2.7-6 6.1-6h11.6c.3 0 .6.2.6.6 0 .3-.3.6-.6.6H97.5c-2.7 0-4.9 2.2-4.9 4.9v4.3c-.1.2-.3.5-.6.5z"/>
  <path fill="#5723B5" d="M58 50.7c.2-3.7 3.2-6.6 6.9-6.6h128.7c4.6 0 8.6 3.3 9.4 7.9l.1.6c.9 5-3 9.6-8 9.6H63c-3 0-5.5-2.5-5.3-5.6l.3-5.9z"/>
  <path fill="#260A3F" d="M167 354.6c-1.4 0-2.8-.7-4.3-2.1-5.9-5.4-7.3-13.9-7.6-21.9-2.8 3.2-5.8 6.3-8.6 9.4l-1-1c3.2-3.4 6.5-6.9 9.6-10.5-.3-10.7.2-21.5 1.5-32.1.8-6.5 1.8-13.3 4.6-19.6.9-2 2.3-4.8 4.8-6.5 2.6-1.8 5.9-2 8.2-.5 2.5 1.7 3.2 5 3.5 7.3 1.8 13.9-3.6 26.6-8.5 34.8-3.6 6.2-8 11.8-12.7 17.1.2 8.1 1.3 17 7.2 22.4 1.3 1.2 2.4 1.7 3.5 1.7 1.8-.1 3.2-1.7 4.3-3.3 4.9-7 8.7-14.7 11.4-22.8.3-2.4 1-4.8 2-7l1.3.5c-.6 2.3-1.2 4.6-1.9 6.8-.3 2.3-.2 4.7.3 7 .3 1.2 1.3 5.4 4.4 6 2.3.4 4.7-1.2 7.3-5.2l9.3-14.1-.9 3.9c-.5 2.1-1.3 7 1.7 8.2 1.7.7 3.5-.3 5.4-1.4 1.9-1 3.8-2.1 5.9-1.9l.7.1-.1.7c-.5 2.8-.2 6.4 2.1 6.9 1.5.3 2.7-.8 4.2-2.1 1.2-1.1 2.5-2.3 4.1-2.7l.3 1.4c-1.3.3-2.4 1.3-3.5 2.3-1.6 1.5-3.2 3-5.4 2.5-3-.7-3.7-4.3-3.3-7.7-1.4.1-2.8.9-4.3 1.7-2.1 1.2-4.3 2.4-6.7 1.5-2.2-.9-3.2-3.2-3-6.6l-5.4 8.2c-1.9 2.8-4.8 6.5-8.7 5.8-2.7-.5-4.8-3.2-5.5-7.1-.2-1-.3-2-.4-3-2.6 6.7-6 13.1-10.1 19-1.3 1.9-3 3.8-5.4 3.9h-.3zm3.6-84.4c-1.3 0-2.7.4-3.9 1.3-2.2 1.5-3.6 4.1-4.4 6-2.7 6.1-3.8 12.8-4.5 19.1-1.2 10-1.7 20.3-1.5 30.4 4.2-5 8.2-10.1 11.5-15.8 4.7-8 10-20.4 8.3-33.9-.4-3.2-1.3-5.2-2.9-6.3-.7-.5-1.6-.8-2.6-.8z"/>
  <g>
    <path fill="#5723B5" d="M95 391.8v-.4c-2-7.8-11.8-12.7-11.8-12.7l-3.9.3c-2.2 6.9-1.9 11.1-1.6 13v.2c3.2.3 9.8.4 17.3-.4z"/>
    <path fill="#260A3F" d="M77.7 392.2c.2.6.6 1.1 1.2 1.2 4.6 1 11.8.2 14.9-.2.7-.1 1.2-.7 1.2-1.4-7.5.8-14.1.7-17.3.4z"/>
    <linearGradient id="c" gradientUnits="userSpaceOnUse" x1="-1207.793" y1="365.57" x2="-1211.144" y2="394.817" gradientTransform="translate(1290.102)">
      <stop offset="0" style="stop-color:#f9b776"/>
      <stop offset="1" style="stop-color:#f47960"/>
    </linearGradient>
    <path fill="url(#c)" d="m77.7 373.2 1.6 7.9c.1.6.6 1 1.1 1.1.7.1 1.6.1 2.5 0 .8-.1 1.4-1 1.3-1.9l-1.1-7h-5.4z"/>
    <path fill="#260A3F" d="M111.8 392.1c-4.3-.1-6.5-.6-7.7-1.1v1.3c0 .5.4.9.8.9l23.6-.2c.8 0 1.2-.9.9-1.6-3.1.3-11 .8-17.6.7z"/>
    <path fill="#5723B5" d="M129.4 391.4c0-.1-.1-.1-.1-.2-2.1-2.9-7.4-8.7-17.9-11.2l-5-.2s-2.2 3.9-2.3 11.1c1.1.5 3.4 1 7.7 1.1 6.6.2 14.5-.3 17.6-.6z"/>
    <linearGradient id="d" gradientUnits="userSpaceOnUse" x1="-1008.014" y1="348.438" x2="-1011.365" y2="377.685" gradientTransform="rotate(-3.624 -122.695 -17384.358)">
      <stop offset="0" style="stop-color:#f9b776"/>
      <stop offset="1" style="stop-color:#f47960"/>
    </linearGradient>
    <path fill="url(#d)" d="M105.3 372.5c.1.4 1.1 6 1.5 8.2.1.5.5.9 1 .9.9 0 2.2.1 3.4-.3.6-.2 1.1-.8 1-1.6l-.6-8.9-6.3 1.7z"/>
    <path fill="#260A3F" d="M101.5 268.4s6.9 47.5 11.9 104c.1 1.1-.7 2-1.8 2.2-1.5.3-3.8.7-5.6.7-1 0-1.8-.8-2-1.7-1.7-10-13.8-63.5-17-75.2 0 0-3.7 50-2.5 75.9 0 .6-.4 1.2-1.1 1.3-1 .1-2.5.2-4.5 0-.8-.1-1.4-.6-1.5-1.4-1.2-8.4-8.2-58.6-7.9-94.8 0-2 2.4-18.8 2.4-18.8l29.6 7.8z"/>
    <path fill="#F9BA8F" d="M160.7 223s-1.9-5.1-4.2-4.6c-2.3.5-4.7 2.2-4.7 2.2l-3.6 4.9s10.2 4 13.8 1.7c0 0 10.4 1.8 23.6-.4-1.9-4-3-8-3.7-11.2-6.8 3.8-13.9 6.6-21.2 7.4z"/>
    <path fill="#424047" d="M220.3 188.9s-19.4 15.9-38.6 26.8c.7 3.1 1.8 7.1 3.7 11.2 9.9-1.6 27.4-15.8 37.1-24.4l-2.2-13.6z"/>
    <path fill="#F09959" d="M153.4 188.1c-13.5 14.6-24.5 15.5-33.4 12.3-2.7 4.4-6 10.3-7.5 15.1 36.2 8 44.7-25.3 44.7-25.3l-3.8-2.1z"/>
    <linearGradient id="e" gradientUnits="userSpaceOnUse" x1="116.994" y1="195.286" x2="176.874" y2="91.572">
      <stop offset="0" style="stop-color:#aa30be"/>
      <stop offset="1" style="stop-color:#5723b5"/>
    </linearGradient>
    <path fill="url(#e)" d="m108 190 1.3 24.1c2.6.9 5.1 1.6 7.5 2.1 1.5-4.8 4.8-10.7 7.5-15.1-9.9-3.4-16.3-11.1-16.3-11.1z"/>
    <linearGradient id="f" gradientUnits="userSpaceOnUse" x1="108.042" y1="203.154" x2="124.321" y2="203.154">
      <stop offset="0" style="stop-color:#aa30be"/>
      <stop offset="1" style="stop-color:#5723b5"/>
    </linearGradient>
    <path fill="url(#f)" d="m108 190 1.3 24.1c2.6.9 5.1 1.6 7.5 2.1 1.5-4.8 4.8-10.7 7.5-15.1-9.9-3.4-16.3-11.1-16.3-11.1z"/>
    <path fill="#F09959" d="M156.2 186.5s1.6-1.7 4.4-1.1c2.9.5 5.5 1.5 7.3 0 1.8-1.5 2.4.5 2.4.5l-5.4 4.1-8.7-3.5z"/>
    <path fill="#F09959" d="M153 189.4s1.1-4.5 4.3-3.9c3.2.6 10.5 4.6 12.4 3.9 1.9-.7 4.3-2.5 5.5-1.9l-2.2 2.7s5.6-3.2 6.6-1.2l-9.3 5.2s-13.7-1.3-17.3-4.8z"/>
    <linearGradient id="g" gradientUnits="userSpaceOnUse" x1="105.655" y1="213.694" x2="37.657" y2="307.133">
      <stop offset="0" style="stop-color:#aa30be"/>
      <stop offset="1" style="stop-color:#5723b5"/>
    </linearGradient>
    <path fill="url(#g)" d="M70.9 271.1c-.7-.3-1.2-.9-1.3-1.6-.9-8.9-5.4-64.2 22.7-87 0 0 1.6-4.2 14.9 6.1 13.2 10.4 6.2 21.2 3 36.2-3.8 18.1-10.6 32.9-7.6 44.1.2.8-.2 1.6-.9 1.9-10.3 3.8-20.6 4-30.8.3z"/>
    <path fill="#F09959" d="M103.3 166c0 .8-11.2 16.7-11.2 16.7s2 4 11.6 7.2l8.3-17.1-8.7-6.8zM98.9 220.7s21.3 17.8 44.3 10c1.4-.5 3-.4 4.3.3l6.6 3.5c2.8 1.5 6.2.5 7.8-2.2.9-1.5 1.7-3.3 1.9-5l-12.9-5.2 1-1.6s-6.3-.5-8 4c0 0-12 5-32.3-17.3-.1 0-9.3 7.9-12.7 13.5z"/>
    <path opacity=".2" d="m99.6 171.9-1.2 1.8c.4 1 1.4 2.9 3.3 4.5 2.5 2.1 5.9 3.9 6.4 2.8.1-.3 2.1-4.3 2.1-4.3l-10.6-4.8z"/>
    <g>
      <path fill="#F09959" d="M112.1 156.8s4 9.2 4.3 14c.3 4.8 1.3 7.9-4.3 8.9s-10.3-1.8-12.8-6.6c0 0-4-7.4-3.1-10.4.9-3 15.9-5.9 15.9-5.9z"/>
    </g>
    <path fill="#F9BA8F" d="M147.5 231s5.4 5.3 6.5 4.5c.4-.3 1.3-1.3 2.2-2.4.6-.8.7-1.9.2-2.7l-1.3-2c-1.2-1.9-3.8-2.3-5.5-.8-.9.8-1.7 1.9-2.1 3.4z"/>
    <path fill="#424047" d="M234.5 269.2c-2.6-12.2-3-33.3-15.7-44.9-4.6-4.2-5.3-11.2-1.9-16.4 1.1-1.7 2.1-3.7 2.6-6.3l.8-12.8s4.6-4.5 25.6 1.7c0 0 14.6 12.6 19.2 69.2-8.7 9.9-19 12.7-30.6 9.5z"/>
    <g>
      <path fill="#CFC1F7" d="M231.2 229.1c-.7.2-1 .9-.7 1.6l14.2 27.3c.2.5.8.7 1.3.5l46.5-13.4c.6-.2.9-.8.7-1.4l-8-27.8c-.2-.6-.8-.9-1.3-.8l-52.7 14z"/>
      <path fill="#FFF" d="M234.2 225.9c-.7.2-1 .9-.8 1.5l11.4 30.9c.2.6.8.9 1.4.7l46.4-13.4c.6-.2.9-.8.8-1.3l-6.4-29.8c-.1-.6-.8-1-1.4-.9l-51.4 12.3z"/>
      <path fill="#AA30BE" d="M238.3 222.8c-.8.1-1.3.9-1.2 1.7l7.7 33.4c.2.8 1 1.3 1.8 1l45.7-13.2c.7-.2 1.2-1 1-1.7l-7-27.3c-.2-.7-.9-1.2-1.6-1l-46.4 7.1z"/>
    </g>
    <path fill="#424047" d="M275.3 235.5c-9.3-29.1-27.6-45.6-27.6-45.6l-1.8 12.6c9.3 11.6 13.8 22.3 15.8 30.6 2.6-.8 9.1-2.1 13.6 2.4z"/>
    <path opacity=".2" d="M261.7 233.8c-.3 0-.7-.2-.7-.6-2.5-10.3-7.8-20.5-15.6-30.4-.3-.3-.2-.8.1-1.1.3-.3.8-.2 1.1.1 8 10 13.4 20.4 15.9 30.9.1.4-.2.8-.6.9-.1.2-.2.2-.2.2z"/>
    <path fill="#F9BA8F" d="M261.7 233.1c1.9 7.8 1.7 13.6 1.4 16.4-.1 1-.9 1.9-2 1.9-1.2.1-2.8.2-4.3.3-1.6.1-3.4-.9-4.5-1.8-.6-.4-1.4.2-1 .9.9 1.7 3.1 3.3 4.7 4.2.6.3.5 1.2-.2 1.3l-6.6 1.9c10.8 10.2 18-1.2 18-1.2 4.8-7.4 7.3-14.6 8.2-21.4-4.6-4.6-11.1-3.3-13.7-2.5z"/>
    <g>
      <path fill="#260A3F" d="M232.6 391.3c4.6.4 12.5 1 18.8 1.3 3.8.2 5.9-.2 7.2-.7v.4c0 .7-.6 1.2-1.2 1.2-11.8.7-21.3.2-24.6 0-.7 0-1.1-.8-.8-1.4.1-.2.4-.5.6-.8z"/>
      <path fill="#AA30BE" d="M251.4 392.6c-6.3-.3-14.2-.9-18.8-1.3 4.5-5.5 18.8-9.3 18.8-9.3h4c2.8 4 3.2 7.8 3.1 9.9-1.2.5-3.3.9-7.1.7z"/>
      <linearGradient id="h" gradientUnits="userSpaceOnUse" x1="1160.123" y1="380.019" x2="1167.656" y2="380.019" gradientTransform="matrix(-1 0 0 1 1416.227 0)">
        <stop offset="0" style="stop-color:#f9b776"/>
        <stop offset="1" style="stop-color:#f47960"/>
      </linearGradient>
      <path fill="url(#h)" d="m256.1 375.4-.4 7.5c0 .8-.6 1.5-1.5 1.6-.8.1-1.9.1-3-.3-.7-.2-1.2-.8-1.4-1.6l-1.3-7.3h7.6z"/>
    </g>
    <g>
      <path fill="#260A3F" d="M308.6 392.5c2-.3 2.9-1.3 3.3-2.4.3 1.2-.4 2.4-1.7 2.9-1.6.7-3.4.8-4.8.8-1.5-.1-2.9-.7-3.6-1.7 1.3.8 3.4.9 6.8.4z"/>
      <path fill="#AA30BE" d="M299.2 375.4h3.3c5.1-.1 8.3 10.6 9.3 14.7-.4 1.1-1.3 2.1-3.3 2.4-3.3.5-5.4.4-6.9-.4-2.7-3.6-4.1-8.9-4.8-12-.7-3.4 2.4-4.7 2.4-4.7z"/>
      <linearGradient id="i" gradientUnits="userSpaceOnUse" x1="1112.233" y1="373.739" x2="1121.235" y2="373.739" gradientTransform="matrix(-1 0 0 1 1416.227 0)">
        <stop offset="0" style="stop-color:#f9b776"/>
        <stop offset="1" style="stop-color:#f47960"/>
      </linearGradient>
      <path fill="url(#i)" d="m302.1 368.5 1.8 7.4c.2.9-.2 1.8-1 2.3-1 .5-2.5 1.1-3.8.9-.6-.1-1.2-.5-1.4-1.1l-2.7-7.7 7.1-1.8z"/>
    </g>
    <path fill="#5723B5" d="M304.3 370.6c-2.3 2-9.8 2.3-9.8 2.3-27-64.7-38.2-82.5-38.2-82.5 3.9 24.4.8 87.1.8 87.1-4.4 2-10.2 0-10.2 0-.4-40-6-82.9-13.2-110.4 18.2-.4 28.1-4.4 31.3-6.9 15.2 24.5 39.3 110.4 39.3 110.4z"/>
  </g>
  <linearGradient id="j" gradientUnits="userSpaceOnUse" x1="98.23" y1="194.828" x2="98.23" y2="222.09">
    <stop offset="0" style="stop-color:#aa30be"/>
    <stop offset="1" style="stop-color:#5723b5"/>
  </linearGradient>
  <path fill="url(#j)" d="M98.6 222.1c.3-.5 13.4-14.8 13.4-14.8-1.2-2.2-4.1-6.6-9.5-9.4-1.3-.7-11-5.7-15.6-1.1-3.1 3.2-3.8 10.8 1.4 16 2.4 2.3 10.3 9.3 10.3 9.3z"/>
  <path opacity=".2" d="M97.4 161.7c-1.6.2-1.7 3.3-.4 5.7 1.3 1.7 3.7 1.3 3.8.8.1-.3.6 1.9.6 1.9l2.1.2s.4-1.4.2-2c-.2-.6-1.1-3.6.2-5.4.8-1.1 5.3.2 5.3.2l-5-5.1-6.8 3.7z"/>
  <path fill="#424047" d="M116.7 160.5c.4 4.5-6.7 4.2-10.5.8-3.7-3.2-5.7-.2-8.5 1.5-4.7 3-1.1-10.2 9.4-10 7.9.2 9.4 4.7 9.6 7.7z"/>
  <path fill="#F09959" d="M100.9 168.4c.6 1.6.2 3.2-.8 3.6-1 .4-2.4-.6-2.9-2.2s-.2-3.2.8-3.6c1-.4 2.3.6 2.9 2.2z"/>
  <linearGradient id="k" gradientUnits="userSpaceOnUse" x1="218.583" y1="179.948" x2="274.628" y2="179.948">
    <stop offset="0" style="stop-color:#aa30be"/>
    <stop offset="1" style="stop-color:#5723b5"/>
  </linearGradient>
  <path fill="url(#k)" d="M218.8 162.5c-.5 12.5-.4 19.2 4.2 24.4 4.5 5.2 17.3 3.9 17.3 3.9s1.3 18.4 19.1 19.1c17.8.8 20.4-22.9 6.4-28.9-13.3-5.8-17.5-7.4-22.1-21.7-4.2-13.1-19.5-10.4-22.6-5-3.2 5.5-2.3 8.2-2.3 8.2z"/>
  <path fill="#F9BA8F" d="M224.3 179.7 224 192c.3.7 1 1.3 1.8 1.4 2.8.5 4.9 1.7 9.4-1.3.5-.4.7-1.1.3-1.6l-4.3-17.2-6.9 6.4z"/>
  <path opacity=".1" d="M224.3 178.6v1.8s1.3 1.3 4.4.6c3.1-.6 4.3-.6 4.3-.6l-1.5-6.1-7.2 4.3z"/>
  <g fill="#F9BA8F">
    <path d="M217.9 161c-.1.1-1.2 9.7-.2 15.1.3 1.5.4 5 2.8 4.9 1.5 0 7.1-2.8 7.1-2.8 3.5-1.8 3.9-1.9 5.1-5.3l.8-8.8s-12.2-6.4-15.6-3.1z"/>
    <path d="M228 172.3s1.9-5.4 4.2-5.2 4.2 2.6 1.3 5.2c-3.7 3.3-5.5 0-5.5 0z"/>
  </g>
  <linearGradient id="l" gradientUnits="userSpaceOnUse" x1="216.806" y1="160.76" x2="234.004" y2="160.76">
    <stop offset="0" style="stop-color:#aa30be"/>
    <stop offset="1" style="stop-color:#5723b5"/>
  </linearGradient>
  <path fill="url(#l)" d="M223.2 154.2c-5.5-.4-5.2 3.8-6.1 8.2-.2.8-.3 1.5-.3 1.5s.5.8 4.8 1.1c4.3.3 4.9.2 4.9.2l-.1-3.5 1 3.3s1.1 0 4.1-.5c-.5 1.9 1.8 2.7 1.8 2.7s2.8-7.8-2.2-11c-3.1-1.8-7.9-2-7.9-2z"/>
  <g>
    <linearGradient id="m" gradientUnits="userSpaceOnUse" x1="242.367" y1="174.403" x2="275.073" y2="174.403">
      <stop offset="0" style="stop-color:#8533b5"/>
      <stop offset="1" style="stop-color:#5723b5"/>
    </linearGradient>
    <path fill="url(#m)" d="M274.9 190.5c.1 0 .2-.1.2-.2-.2-2.4-1.4-4.8-3.4-6.9-2.2-2.3-5.3-4.2-9-5.3-8.2-2.6-15.4-5.8-20-19.7 0-.1-.1-.2-.3-.1-.1 0-.2.1-.1.3 2.1 6.4 4.9 11 8.6 14.2 3.3 2.8 7 4.3 11.6 5.7 3.6 1.1 6.7 2.9 8.8 5.2 1.9 2 3 4.4 3.2 6.7.2.1.3.1.4.1z"/>
  </g>
  <g>
    <linearGradient id="n" gradientUnits="userSpaceOnUse" x1="243.361" y1="170.31" x2="271.477" y2="170.31">
      <stop offset="0" style="stop-color:#8533b5"/>
      <stop offset="1" style="stop-color:#5723b5"/>
    </linearGradient>
    <path fill="url(#n)" d="M271.3 181c.1 0 .1 0 .2-.1s.1-.2 0-.3c0 0-3.6-2.7-8.7-3.8-9.8-2.2-16.3-8-19-17 0-.1-.1-.2-.2-.1-.1 0-.2.1-.1.2 1.6 5.5 4.7 9.9 9.1 13 2.8 2 6.3 3.4 10.2 4.3 5 1.1 8.5 3.7 8.5 3.8-.1 0-.1 0 0 0z"/>
  </g>
</svg>
