<svg xmlns="http://www.w3.org/2000/svg" viewBox="0 0 604.6 230.8" xml:space="preserve">
  <path fill="#321551" d="M121.6 15.2 82.5 217.5c-.8 4.1 2.4 7.9 6.5 7.9h20.6l12-210.2z"/>
  <path fill="#5723B5" d="M122.1 14.4 96.1 213c-.9 6.6 4.3 12.4 10.9 12.4h38L123.6 13.7l-1.5.7z"/>
  <path fill="#CFC1F7" d="m122.1 14.4-11.6 197.3c-.4 7.4 5.5 13.7 12.9 13.7h56.7l-58-211z"/>
  <path fill="#8562D1" d="m121.6 16 5.6 195.7c-.4 7.4 5.5 13.7 12.9 13.7h56.7L121.6 16z"/>
  <path fill="#FFF" d="M393.3 225.4H169.6c-5.6 0-10.4-4-11.4-9.5l-34-186.1c-1.5-8.5 4.9-16.2 13.5-16.2h221.1c5.6 0 10.4 4 11.4 9.5l34.5 188.7c1.2 7.1-4.2 13.6-11.4 13.6z"/>
  <path fill="#260A3F" d="M128.6 53.9H376l-6.3-35.1c-.6-3-3.2-5.3-6.3-5.3H123.7c-1.3 0-2.3 1.2-2.1 2.5l7 37.9z"/>
  <path fill="#5723B5" d="M134.4 3c-5.9 0-10.7 4.8-10.7 10.7h2.1c0-4.8 3.9-8.7 8.7-8.7s8.7 3.9 8.7 8.7c0 1-.2 1.9-.4 2.7-.9 2.5-2.9 4.6-5.4 5.4-.7.3-1.5.4-2.3.5v2.1c1 0 1.9-.2 2.7-.5 3.5-1.1 6.2-3.9 7.1-7.5.2-.9.4-1.8.4-2.7-.2-5.9-5-10.7-10.9-10.7z"/>
  <path fill="#5723B5" d="M137.7 23.3c0 .2 0 .4-.1.6-.3 1-1.2 1.7-2.2 1.7-1.3 0-2.3-1-2.3-2.3 0-1.3 1-2.3 2.3-2.3.7 0 1.4.4 1.8.9.3.4.5.9.5 1.4zM172.8 3c-5.9 0-10.7 4.8-10.7 10.7h2.1c0-4.8 3.9-8.7 8.7-8.7 4.8 0 8.7 3.9 8.7 8.7 0 1-.2 1.9-.4 2.7-.9 2.5-2.9 4.6-5.4 5.4-.7.3-1.5.4-2.3.5v2.1c1 0 1.9-.2 2.7-.5 3.5-1.1 6.2-3.9 7.1-7.5.2-.9.4-1.8.4-2.7-.2-5.9-5-10.7-10.9-10.7z"/>
  <path fill="#5723B5" d="M176.1 23.3c0 .2 0 .4-.1.6-.3 1-1.2 1.7-2.2 1.7-1.3 0-2.3-1-2.3-2.3 0-1.3 1-2.3 2.3-2.3.8 0 1.4.4 1.8.9.3.4.5.9.5 1.4zM211.3 3c-5.9 0-10.7 4.8-10.7 10.7h2.1c0-4.8 3.9-8.7 8.7-8.7 4.8 0 8.7 3.9 8.7 8.7 0 1-.2 1.9-.4 2.7-.9 2.5-2.9 4.6-5.4 5.4-.7.3-1.5.4-2.3.5v2.1c.9 0 1.9-.2 2.7-.5 3.5-1.1 6.2-3.9 7.1-7.5.2-.9.4-1.8.4-2.7-.2-5.9-5-10.7-10.9-10.7z"/>
  <path fill="#5723B5" d="M214.6 23.3c0 .2 0 .4-.1.6-.3 1-1.2 1.7-2.2 1.7-1.3 0-2.3-1-2.3-2.3 0-1.3 1-2.3 2.3-2.3.7 0 1.4.4 1.8.9.3.4.5.9.5 1.4zM249.7 3C243.8 3 239 7.8 239 13.7h2.1c0-4.8 3.9-8.7 8.7-8.7 4.8 0 8.7 3.9 8.7 8.7 0 1-.2 1.9-.4 2.7-.9 2.5-2.9 4.6-5.4 5.4-.7.3-1.5.4-2.3.5v2.1c.9 0 1.9-.2 2.7-.5 3.5-1.1 6.2-3.9 7.1-7.5.2-.9.4-1.8.4-2.7-.2-5.9-5-10.7-10.9-10.7z"/>
  <path fill="#5723B5" d="M253 23.3c0 .2 0 .4-.1.6-.3 1-1.2 1.7-2.2 1.7-1.3 0-2.3-1-2.3-2.3 0-1.3 1-2.3 2.3-2.3.7 0 1.4.4 1.8.9.3.4.5.9.5 1.4zM288.2 3c-5.9 0-10.7 4.8-10.7 10.7h2.1c0-4.8 3.9-8.7 8.7-8.7 4.8 0 8.7 3.9 8.7 8.7 0 1-.2 1.9-.4 2.7-.9 2.5-2.9 4.6-5.4 5.4-.7.3-1.5.4-2.3.5v2.1c1 0 1.9-.2 2.7-.5 3.5-1.1 6.2-3.9 7.1-7.5.2-.9.4-1.8.4-2.7-.2-5.9-5-10.7-10.9-10.7z"/>
  <path fill="#5723B5" d="M291.5 23.3c0 .2 0 .4-.1.6-.3 1-1.2 1.7-2.2 1.7-1.3 0-2.3-1-2.3-2.3 0-1.3 1-2.3 2.3-2.3.8 0 1.4.4 1.8.9.3.4.5.9.5 1.4z"/>
  <g>
    <path fill="#5723B5" d="M326.6 3c-5.9 0-10.7 4.8-10.7 10.7h2.1c0-4.8 3.9-8.7 8.7-8.7 4.8 0 8.7 3.9 8.7 8.7 0 1-.2 1.9-.4 2.7-.9 2.5-2.9 4.6-5.4 5.4-.7.3-1.5.4-2.3.5v2.1c1 0 1.9-.2 2.7-.5 3.5-1.1 6.2-3.9 7.1-7.5.2-.9.4-1.8.4-2.7-.2-5.9-5-10.7-10.9-10.7z"/>
    <path fill="#5723B5" d="M329.9 23.3c0 .2 0 .4-.1.6-.3 1-1.2 1.7-2.2 1.7-1.3 0-2.3-1-2.3-2.3 0-1.3 1-2.3 2.3-2.3.7 0 1.4.4 1.8.9.3.4.5.9.5 1.4z"/>
  </g>
  <g>
    <path fill="#5723B5" d="M365.1 3c-5.9 0-10.7 4.8-10.7 10.7h2.1c0-4.8 3.9-8.7 8.7-8.7 4.8 0 8.7 3.9 8.7 8.7 0 1-.2 1.9-.4 2.7-.9 2.5-2.9 4.6-5.4 5.4-.7.3-1.5.4-2.3.5v2.1c1 0 1.9-.2 2.7-.5 3.5-1.1 6.2-3.9 7.1-7.5.2-.9.4-1.8.4-2.7-.2-5.9-5-10.7-10.9-10.7z"/>
    <path fill="#5723B5" d="M368.4 23.3c0 .2 0 .4-.1.6-.3 1-1.2 1.7-2.2 1.7-1.3 0-2.3-1-2.3-2.3 0-1.3 1-2.3 2.3-2.3.7 0 1.4.4 1.8.9.3.4.5.9.5 1.4z"/>
  </g>
  <g>
    <path fill="#CFC1F7" d="M271.6 120h-12.5c-1.4 0-2.9-1.2-3.1-2.6l-2.4-12.5c-.3-1.4.7-2.6 2.1-2.6h12.5c1.4 0 2.9 1.2 3.1 2.6l2.4 12.5c.3 1.4-.6 2.6-2.1 2.6zM303.2 120h-12.5c-1.4 0-2.9-1.2-3.1-2.6l-2.4-12.5c-.3-1.4.7-2.6 2.1-2.6h12.5c1.4 0 2.9 1.2 3.1 2.6l2.4 12.5c.3 1.4-.7 2.6-2.1 2.6z"/>
    <path fill="#5723B5" d="M334.7 120h-12.5c-1.4 0-2.9-1.2-3.1-2.6l-2.4-12.5c-.3-1.4.7-2.6 2.1-2.6h12.5c1.4 0 2.9 1.2 3.1 2.6l2.4 12.5c.3 1.4-.6 2.6-2.1 2.6z"/>
    <path fill="#CFC1F7" d="M177 120h-12.5c-1.4 0-2.9-1.2-3.1-2.6l-2.4-12.5c-.3-1.4.7-2.6 2.1-2.6h12.5c1.4 0 2.9 1.2 3.1 2.6l2.4 12.5c.3 1.4-.7 2.6-2.1 2.6z"/>
    <path fill="#260A3F" d="M163.3 82.4h-5.4c-.6 0-1.2-.5-1.3-1.1l-1-5.4c-.1-.6.3-1.1.9-1.1h5.4c.6 0 1.2.5 1.3 1.1l1 5.4c.1.6-.3 1.1-.9 1.1z"/>
    <path fill="#CFC1F7" d="M208.5 120H196c-1.4 0-2.9-1.2-3.1-2.6l-2.4-12.5c-.3-1.4.7-2.6 2.1-2.6h12.5c1.4 0 2.9 1.2 3.1 2.6l2.4 12.5c.3 1.4-.6 2.6-2.1 2.6zM240.1 120h-12.5c-1.4 0-2.9-1.2-3.1-2.6l-2.4-12.5c-.3-1.4.7-2.6 2.1-2.6h12.5c1.4 0 2.9 1.2 3.1 2.6l2.4 12.5c.3 1.4-.7 2.6-2.1 2.6z"/>
    <path fill="#5723B5" d="M366.3 120h-12.5c-1.4 0-2.9-1.2-3.1-2.6l-2.4-12.5c-.3-1.4.7-2.6 2.1-2.6h12.5c1.4 0 2.9 1.2 3.1 2.6l2.4 12.5c.3 1.4-.7 2.6-2.1 2.6z"/>
    <path fill="#CFC1F7" d="M266.4 92.8h-12.5c-1.4 0-2.9-1.2-3.1-2.6l-2.4-12.5c-.3-1.4.7-2.6 2.1-2.6H263c1.4 0 2.9 1.2 3.1 2.6l2.4 12.5c.3 1.4-.7 2.6-2.1 2.6zM297.9 92.8h-12.5c-1.4 0-2.9-1.2-3.1-2.6l-2.4-12.5c-.3-1.4.7-2.6 2.1-2.6h12.5c1.4 0 2.9 1.2 3.1 2.6l2.4 12.5c.3 1.4-.6 2.6-2.1 2.6z"/>
    <path fill="#5723B5" d="M329.5 92.8H317c-1.4 0-2.9-1.2-3.1-2.6l-2.4-12.5c-.3-1.4.7-2.6 2.1-2.6h12.5c1.4 0 2.9 1.2 3.1 2.6l2.4 12.5c.3 1.4-.7 2.6-2.1 2.6zM361 92.8h-12.5c-1.4 0-2.9-1.2-3.1-2.6L343 77.7c-.3-1.4.7-2.6 2.1-2.6h12.5c1.4 0 2.9 1.2 3.1 2.6l2.4 12.5c.3 1.4-.6 2.6-2.1 2.6z"/>
    <path fill="#CFC1F7" d="M277.2 148.8h-12.5c-1.4 0-2.9-1.2-3.1-2.6l-2.4-12.5c-.3-1.4.7-2.6 2.1-2.6h12.5c1.4 0 2.9 1.2 3.1 2.6l2.4 12.5c.3 1.4-.7 2.6-2.1 2.6zM308.7 148.8h-12.5c-1.4 0-2.9-1.2-3.1-2.6l-2.4-12.5c-.3-1.4.7-2.6 2.1-2.6h12.5c1.4 0 2.9 1.2 3.1 2.6l2.4 12.5c.3 1.4-.6 2.6-2.1 2.6z"/>
    <path fill="#5723B5" d="M340.3 148.8h-12.5c-1.4 0-2.9-1.2-3.1-2.6l-2.4-12.5c-.3-1.4.7-2.6 2.1-2.6h12.5c1.4 0 2.9 1.2 3.1 2.6l2.4 12.5c.3 1.4-.7 2.6-2.1 2.6z"/>
    <path fill="#CFC1F7" d="M182.5 148.8H170c-1.4 0-2.9-1.2-3.1-2.6l-2.4-12.5c-.3-1.4.7-2.6 2.1-2.6h12.5c1.4 0 2.9 1.2 3.1 2.6l2.4 12.5c.3 1.4-.6 2.6-2.1 2.6zM214.1 148.8h-12.5c-1.4 0-2.9-1.2-3.1-2.6l-2.4-12.5c-.3-1.4.7-2.6 2.1-2.6h12.5c1.4 0 2.9 1.2 3.1 2.6l2.4 12.5c.3 1.4-.7 2.6-2.1 2.6zM245.6 148.8h-12.5c-1.4 0-2.9-1.2-3.1-2.6l-2.4-12.5c-.3-1.4.7-2.6 2.1-2.6h12.5c1.4 0 2.9 1.2 3.1 2.6l2.4 12.5c.3 1.4-.6 2.6-2.1 2.6z"/>
    <path fill="#5723B5" d="M371.8 148.8h-12.5c-1.4 0-2.9-1.2-3.1-2.6l-2.4-12.5c-.3-1.4.7-2.6 2.1-2.6h12.5c1.4 0 2.9 1.2 3.1 2.6l2.4 12.5c.3 1.4-.6 2.6-2.1 2.6z"/>
    <path fill="#CFC1F7" d="M282.7 177.5h-12.5c-1.4 0-2.9-1.2-3.1-2.6l-2.4-12.5c-.3-1.4.7-2.6 2.1-2.6h12.5c1.4 0 2.9 1.2 3.1 2.6l2.4 12.5c.3 1.5-.6 2.6-2.1 2.6zM314.3 177.5h-12.5c-1.4 0-2.9-1.2-3.1-2.6l-2.4-12.5c-.3-1.4.7-2.6 2.1-2.6h12.5c1.4 0 2.9 1.2 3.1 2.6l2.4 12.5c.3 1.5-.7 2.6-2.1 2.6z"/>
    <path fill="#5723B5" d="M345.8 177.5h-12.5c-1.4 0-2.9-1.2-3.1-2.6l-2.4-12.5c-.3-1.4.7-2.6 2.1-2.6h12.5c1.4 0 2.9 1.2 3.1 2.6l2.4 12.5c.3 1.5-.6 2.6-2.1 2.6z"/>
    <path fill="#CFC1F7" d="M188.1 177.5h-12.5c-1.4 0-2.9-1.2-3.1-2.6l-2.4-12.5c-.3-1.4.7-2.6 2.1-2.6h12.5c1.4 0 2.9 1.2 3.1 2.6l2.4 12.5c.3 1.5-.7 2.6-2.1 2.6z"/>
    <path fill="#260A3F" d="M219.6 177.5h-12.5c-1.4 0-2.9-1.2-3.1-2.6l-2.4-12.5c-.3-1.4.7-2.6 2.1-2.6h12.5c1.4 0 2.9 1.2 3.1 2.6l2.4 12.5c.3 1.5-.6 2.6-2.1 2.6z"/>
    <path fill="#CFC1F7" d="M251.2 177.5h-12.5c-1.4 0-2.9-1.2-3.1-2.6l-2.4-12.5c-.3-1.4.7-2.6 2.1-2.6h12.5c1.4 0 2.9 1.2 3.1 2.6l2.4 12.5c.3 1.5-.7 2.6-2.1 2.6z"/>
    <path fill="#5723B5" d="M377.4 177.5h-12.5c-1.4 0-2.9-1.2-3.1-2.6l-2.4-12.5c-.3-1.4.7-2.6 2.1-2.6H374c1.4 0 2.9 1.2 3.1 2.6l2.4 12.5c.3 1.5-.7 2.6-2.1 2.6z"/>
    <path fill="#CFC1F7" d="M288 204.7h-12.5c-1.4 0-2.9-1.2-3.1-2.6l-2.4-12.5c-.3-1.4.7-2.6 2.1-2.6h12.5c1.4 0 2.9 1.2 3.1 2.6l2.4 12.5c.3 1.4-.7 2.6-2.1 2.6zM319.5 204.7H307c-1.4 0-2.9-1.2-3.1-2.6l-2.4-12.5c-.3-1.4.7-2.6 2.1-2.6h12.5c1.4 0 2.9 1.2 3.1 2.6l2.4 12.5c.3 1.4-.6 2.6-2.1 2.6z"/>
    <path fill="#5723B5" d="M351.1 204.7h-12.5c-1.4 0-2.9-1.2-3.1-2.6l-2.4-12.5c-.3-1.4.7-2.6 2.1-2.6h12.5c1.4 0 2.9 1.2 3.1 2.6l2.4 12.5c.3 1.4-.7 2.6-2.1 2.6z"/>
    <path fill="#CFC1F7" d="M193.3 204.7h-12.5c-1.4 0-2.9-1.2-3.1-2.6l-2.4-12.5c-.3-1.4.7-2.6 2.1-2.6h12.5c1.4 0 2.9 1.2 3.1 2.6l2.4 12.5c.3 1.4-.6 2.6-2.1 2.6zM224.9 204.7h-12.5c-1.4 0-2.9-1.2-3.1-2.6l-2.4-12.5c-.3-1.4.7-2.6 2.1-2.6h12.5c1.4 0 2.9 1.2 3.1 2.6l2.4 12.5c.3 1.4-.7 2.6-2.1 2.6zM256.4 204.7h-12.5c-1.4 0-2.9-1.2-3.1-2.6l-2.4-12.5c-.3-1.4.7-2.6 2.1-2.6H253c1.4 0 2.9 1.2 3.1 2.6l2.4 12.5c.3 1.4-.6 2.6-2.1 2.6zM201.2 77.5H168c-.5 0-.9-.4-.9-.9s.4-.9.9-.9h33.1c.5 0 .9.4.9.9s-.4.9-.8.9zM202.2 81.5H169c-.5 0-.9-.4-.9-.9s.4-.9.9-.9h33.1c.5 0 .9.4.9.9.1.5-.3.9-.8.9z"/>
  </g>
  <g fill="#FFF">
    <path d="M165.6 47.6h-11.4c-.9 0-1.7-.8-1.7-1.7 0-.9.8-1.7 1.7-1.7h11.4c.9 0 1.7.8 1.7 1.7 0 1-.7 1.7-1.7 1.7zM196.8 47.6h-11.4c-.9 0-1.7-.8-1.7-1.7 0-.9.8-1.7 1.7-1.7h11.4c.9 0 1.7.8 1.7 1.7 0 1-.7 1.7-1.7 1.7zM228 47.6h-11.4c-.9 0-1.7-.8-1.7-1.7 0-.9.8-1.7 1.7-1.7H228c.9 0 1.7.8 1.7 1.7 0 1-.8 1.7-1.7 1.7zM259.2 47.6h-11.4c-.9 0-1.7-.8-1.7-1.7 0-.9.8-1.7 1.7-1.7h11.4c.9 0 1.7.8 1.7 1.7 0 1-.8 1.7-1.7 1.7zM290.4 47.6H279c-.9 0-1.7-.8-1.7-1.7 0-.9.8-1.7 1.7-1.7h11.4c.9 0 1.7.8 1.7 1.7 0 1-.8 1.7-1.7 1.7zM321.6 47.6h-11.4c-.9 0-1.7-.8-1.7-1.7 0-.9.8-1.7 1.7-1.7h11.4c.9 0 1.7.8 1.7 1.7 0 1-.8 1.7-1.7 1.7zM352.8 47.6h-11.4c-.9 0-1.7-.8-1.7-1.7 0-.9.8-1.7 1.7-1.7h11.4c.9 0 1.7.8 1.7 1.7 0 1-.8 1.7-1.7 1.7z"/>
  </g>
  <g>
    <path fill="#AA30BE" d="M280.9 93.1c-2.5 0-4.3-.8-5.3-2.3-1.9-3-.4-7.1 4.4-12.4 3.5-3.8 7.6-6.8 7.7-6.9.2-.1.4-.1.5.1.1.2.1.4-.1.5-.2.1-16 11.8-11.9 18.3 1.3 2 4.1 2.2 6.2 1.9 3.9-.5 9-2.6 13.7-5.7 4.8-3.2 8.2-6.8 9.3-9.9.7-2 .5-3.5-.7-4.3-1.5-1-4.6-1-8.4 0-3.6 1-7.2 2.8-9.4 4.7-.2.1-.4.1-.5 0-.1-.2-.1-.4 0-.5 2.3-1.9 6-3.8 9.7-4.8 4-1.1 7.3-1.1 9 .1 1 .7 2 2.1.9 5.1-1.1 3.2-4.6 7-9.6 10.2-4.7 3.1-10 5.3-14 5.8-.5 0-1 .1-1.5.1z"/>
  </g>
  <g>
    <path fill="#F09959" d="m346.5 72.4-1.3-2.4s.6-4.3-4.8-7.1c0 0-2-.8-3.1.8-1 1.5 2 1.2 1.8 3.8-.2 2.6 1.1 4.1 2.7 4.9l1.4 1.6 3.3-1.6z"/>
    <linearGradient id="a" gradientUnits="userSpaceOnUse" x1="341.302" y1="81.476" x2="397.896" y2="81.476">
      <stop offset="0" style="stop-color:#aa30be"/>
      <stop offset="1" style="stop-color:#5723b5"/>
    </linearGradient>
    <path fill="url(#a)" d="M397.9 66.6s-4.7 22.9-30.4 30.4c-8 2.3-26.2-24.1-26.2-24.1s.6-2.4 4.7-1.9c0 0 17.7 11.7 20 13 2 1.1 15-14.6 21-17.1 5.8-2.4 10.9-.3 10.9-.3z"/>
    <path fill="#AA30BE" d="m323.84 71.812-1.037-5.605 27.925-5.172 1.038 5.605z"/>
    <path fill="#FFB27D" d="m316.8 70.2 7 1.6-1-5.6zM354.3 62.3l.3 1.8c.2 1.1-.5 2.1-1.6 2.3l-1.3.2-1-5.6 1.4-.3c1.1-.1 2 .6 2.2 1.6z"/>
    <path fill="#AA30BE" d="M428.6 210.7s3.2 2.9 2.6 5c-.6 2.1-3.5 3.4-3.9 6-.4 2.5-1.9 3.9-3.3 3.9h-6.7s-1-1.8 1.5-2.3c2.5-.5 3.4-3.5 3.3-6.3-.2-2.8.2-6.4.2-6.4l5.3-1.2 1 1.3zM389.5 218.2s.6 6.6-.8 7.3h-17.9s0-2.1 2.9-2.5c2.9-.5 7.9-2.1 8.8-5.9.7-3.8 7 1.1 7 1.1z"/>
    <path fill="#260A3F" d="M374.4 124.7s.9 11.6 2.1 25.5c1.5 18.9 3.3 42.2 3.5 46.6.3 7.7 1.6 19.9 1.6 19.9s3 2.9 8.9 1.7c0 0 5.3-17.5 6.8-36 0-.3 0-.6.1-.9 1.4-18.8 3.6-58.5 3.6-58.5l-26.6 1.7z"/>
    <path opacity=".2" d="M374.4 124.7s.9 11.6 2.1 25.5l20.7 32.2c0-.3 0-.6.1-.9 1.4-18.8 3.6-58.5 3.6-58.5l-26.5 1.7z"/>
    <path fill="#260A3F" d="M378.7 126.1s17 42 28.2 61.8c11.2 19.7 14.7 25.3 14.7 25.3s6.4-2.5 7-4.2c0 0-4.3-38.1-11.8-47.4-4.2-5.3-9.2-21-9.4-26.5-.2-5.5-1.5-16.4-1.5-16.4l-27.2 7.4z"/>
    <path fill="#F09959" d="M401.1 61.3s-11.5 5.6-18.2 3.5c0 0 1.6-2.1 4.5-3.6-.2-1.3-.4-2.5-.5-3.5-.3-2.3-.3-3.5-.3-3.5l4.4-3.5 4.2-3.3c-.3 9.4 5.9 13.9 5.9 13.9z"/>
    <linearGradient id="b" gradientUnits="userSpaceOnUse" x1="373.393" y1="92.738" x2="407.13" y2="92.738">
      <stop offset="0" style="stop-color:#aa30be"/>
      <stop offset="1" style="stop-color:#5723b5"/>
    </linearGradient>
    <path fill="url(#b)" d="M373.6 125.6c.2.2.4.3.7.3 2.5-.1 9.8 1.3 15.9.7 5.2-.5 9.8-2 14.7-4.2.7-.3 2.2-1.1 2.1-1.8 0-.8-.1-1.9-.2-3.4-.2-2.9-.5-7-.6-11.8-.1-3.6 0-7.6.2-11.8v-.9c.1-1.6.1-3.1.1-4.6 0-4.9-.3-9.6-1-13.8 3.4-14.4-3.6-13-7.1-15.5-.5-.4-3.3 1-6 2.3-2.4 1.2-4.9 1.3-7.1.9l-2.3 2c-2.8 2.5-5.9 6-7.2 11.3-1.1 4.5-1.8 12.6-2.1 21-.2 3.8-.3 7.6-.4 11.3V108.8c0 9.3.1 16.7.3 16.8z"/>
    <path opacity=".2" d="M395.3 50.9s-2.9 5.3-8.5 6.8c-.3-2.3-.3-3.5-.3-3.5l4.4-3.5 4.4.2z"/>
    <path fill="#F09959" d="M384.6 54s11.9 1.9 12-5c0-1.6.2-3.7 1-5.3.8-1.5 1-2.8.7-3.8-.4-1.4-2.1-2.8-5.5-3.4-7-1.1-8.7.9-9.6 3.1-1 2.3-1.5 13.8 1.4 14.4zM345.2 69.9s.4-1.5-.7-2.2c-1-.7-2-2.5-2.4-2.2-.9.5.5 2.1.2 4.1 0 .7 1.6 2.5 2.9.3z"/>
    <path opacity=".2" d="M406.3 105.5c-.1-3.6 0-7.6.2-11.8v-.9c-1-5.2-9.7-18.2-12-18.4.1 0 .2 19.3 11.8 31.1z"/>
    <path fill="#F09959" d="M415.5 124.2s-.6 5.6-1.2 6.7c-.6 1.1-3.3 4.5-4.5 5.1-1.1.7.7-4.5.5-5.5-.2-1-.9 1.8-1.5 1.9-.5.1-.4-2.5-.4-3.4 0-.9 2.5-3.2 3.3-5.2.9-1.9 3.8.4 3.8.4z"/>
    <linearGradient id="c" gradientUnits="userSpaceOnUse" x1="394.627" y1="95.264" x2="420.156" y2="95.264">
      <stop offset="0" style="stop-color:#aa30be"/>
      <stop offset="1" style="stop-color:#5723b5"/>
    </linearGradient>
    <path fill="url(#c)" d="M405.3 63.1s.2-1.1 3.6 3.9c5.2 7.9 11.2 36.5 11.3 39.1.1 2.6-4.4 21.4-4.4 21.4s-4.5-.3-5.7-2.6c0 0 .9-19.2.3-20.5-.6-1.2-17.7-27.1-15.6-32.3 2.1-5.2 10.5-9 10.5-9z"/>
    <path fill="#AA30BE" d="m320.4 67.8.4 3.3-4-.9z"/>
  </g>
  <path fill="#2E3552" d="M600.4 226.8H5.2c-.4 0-.7-.3-.7-.7v-.2c0-.4.3-.7.7-.7h595.2c.4 0 .7.3.7.7v.2c0 .4-.3.7-.7.7z"/>
  <path opacity=".2" d="M397.4 39c1.3.2 1.4 2.6.3 4.6-1.1 1.4-3 1-3.1.7-.1-.2-.5 1.5-.5 1.5l-1.7.2s-.3-1.1-.2-1.7c.2-.5.9-2.9-.2-4.3-.7-.9-4.3.2-4.3.2l4-4.1 5.7 2.9z"/>
  <path fill="#424047" d="M381.8 38c-.3 3.6 5.4 3.4 8.5.7 3-2.6 4.6-.2 6.9 1.2 3.8 2.4.9-8.2-7.6-8.1-6.4.2-7.6 3.8-7.8 6.2z"/>
  <path fill="#F09959" d="M394.5 44.4c-.5 1.3-.2 2.6.6 2.9.8.3 1.9-.5 2.4-1.8s.2-2.6-.6-2.9c-.8-.3-1.9.5-2.4 1.8z"/>
</svg>
