<svg xmlns="http://www.w3.org/2000/svg" viewBox="0 0 664.3 344" xml:space="preserve">
  <g opacity=".3">
    <path fill="#5723B5" d="M304.9 205.4c-41.9 0-76.1-52.3-76.1-116.5 0-.4.3-.7.7-.7.4 0 .7.3.7.7 0 63.4 33.5 115.1 74.6 115.1 41.2 0 74.6-51.6 74.6-115.1 0-.4.3-.7.7-.7.4 0 .7.3.7.7.2 64.2-33.9 116.5-75.9 116.5z"/>
    <g fill="#5723B5">
      <path d="M229.6 180.3H271v8.4h-41.4zM229.6 151H271v8.4h-41.4zM229.6 121.8H271v8.4h-41.4zM229.6 95.8H271v8.4h-41.4z"/>
    </g>
    <path opacity=".3" d="M262.3 180.3h9.1v8.4h-9.1zM263 151h9.1v8.4H263zM263.5 121.8h9.1v8.4h-9.1zM264.1 95.8h9.1v8.4h-9.1z"/>
    <path fill="#5723B5" d="M265.1 255.8H277v17.6h-11.9zM265.7 151h10.6v29.3h-10.6z"/>
    <path fill="#5723B5" d="M266.3 121.8h9.4v29.3h-9.4zM266.9 92.5h8.3v29.3h-8.3z"/>
    <g>
      <path fill="#5723B5" d="M374.3 180.3h11.9v75.5h-11.9z"/>
      <path opacity=".3" d="M386.2 217.1h-11.9v9.5l11.9 6z"/>
      <path fill="#5723B5" d="M223.6 180.3h11.9v75.5h-11.9z"/>
      <path opacity=".3" d="M235.5 217.1h-11.9v9.5l11.9 6z"/>
      <path fill="#5723B5" d="M200 210.7h10.8v.7H200zM195.6 210.7h2.9v.7h-2.9zM187.9 213.3h277.7v8.1H187.9z"/>
      <path opacity=".3" d="M271 213.3h10.6v8.1H271z"/>
      <path fill="#5723B5" d="M265.1 180.3H277v75.5h-11.9zM263.8 255.8h14.3v17.6h-14.3zM222.4 255.8h14.3v17.6h-14.3zM224.3 151h10.6v29.3h-10.6z"/>
      <path fill="#5723B5" d="M224.9 121.8h9.4v29.3h-9.4zM225.4 92.5h8.3v29.3h-8.3zM273.5 92.5h-5v-4.8c0-1.4 1.1-2.5 2.5-2.5s2.5 1.1 2.5 2.5v4.8zM232.1 92.5h-5v-4.8c0-1.4 1.1-2.5 2.5-2.5s2.5 1.1 2.5 2.5v4.8z"/>
      <g fill="#5723B5">
        <path d="M380.3 180.3h41.4v8.4h-41.4zM380.3 151h41.4v8.4h-41.4zM380.3 121.8h41.4v8.4h-41.4zM380.3 95.8h41.4v8.4h-41.4z"/>
      </g>
      <path opacity=".3" d="M413 180.3h9.1v8.4H413zM413.7 151h9.1v8.4h-9.1zM414.2 121.8h9.1v8.4h-9.1zM414.8 95.8h9.1v8.4h-9.1z"/>
      <path fill="#5723B5" d="M415.8 255.8h11.9v17.6h-11.9zM416.4 151H427v29.3h-10.6z"/>
      <path fill="#5723B5" d="M417 121.8h9.4v29.3H417zM417.6 92.5h8.3v29.3h-8.3z"/>
      <path opacity=".3" d="M421.7 213.3h10.6v8.1h-10.6z"/>
      <path fill="#5723B5" d="M415.8 180.3h11.9v75.5h-11.9zM414.5 255.8h14.3v17.6h-14.3zM373.1 255.8h14.3v17.6h-14.3zM375 151h10.6v29.3H375z"/>
      <path fill="#5723B5" d="M375.6 121.8h9.4v29.3h-9.4zM376.1 92.5h8.3v29.3h-8.3zM424.2 92.5h-5v-4.8c0-1.4 1.1-2.5 2.5-2.5s2.5 1.1 2.5 2.5v4.8zM382.8 92.5h-5v-4.8c0-1.4 1.1-2.5 2.5-2.5s2.5 1.1 2.5 2.5v4.8z"/>
    </g>
    <path fill="#5723B5" d="M346.4 205.4c-41.9 0-76.1-52.3-76.1-116.5 0-.4.3-.7.7-.7.4 0 .7.3.7.7 0 63.4 33.5 115.1 74.6 115.1S421 152.3 421 88.9c0-.4.3-.7.7-.7.4 0 .7.3.7.7 0 64.2-34.1 116.5-76 116.5z"/>
  </g>
  <linearGradient id="a" gradientUnits="userSpaceOnUse" x1="453.133" y1="183.366" x2="548.465" y2="183.366">
    <stop offset="0" style="stop-color:#aa30be"/>
    <stop offset="1" style="stop-color:#5723b5"/>
  </linearGradient>
  <path fill="url(#a)" d="M453.5 153.8c-.9 21.2-.7 32.7 7.1 41.5 7.7 8.8 29.4 6.6 29.4 6.6s2.1 31.2 32.4 32.6c30.3 1.3 34.6-38.9 10.9-49.2-22.6-9.8-29.8-12.7-37.6-37-7.1-22.2-29.4-18-34.7-8.7-5.3 9.4-7.5 14.2-7.5 14.2z"/>
  <path fill="#E38540" d="M463.4 262.1s-14.3 2.8-15 2.7c-.7-.1-16.4-7.1-18-6-1.6 1-11 5-13.1 5.9-2.1.9 1.2 1.2 2.8 1.2 1.6 0 10.9-3.8 11.9-3.1 1 .7-8.1 2.2-8.1 2.8s24.5 6.2 25.9 6.2 12.8-1 12.8-1l.8-8.7z"/>
  <path fill="#424047" d="M475.3 184.1c-7.7 1.5-12.2 9.7-13.7 16.8-1.5 7.1 13.7-16.8 13.7-16.8z"/>
  <path fill="#424047" d="M488.2 178.6s14.8 9.9 22.8 14.8-2.9 57.2-5.5 76.7c-1.8 10.1-48.6 1.8-48.6 1.8s3.1-16.4-.9-42.6c-2.8-18.8 7.6-30.6 13.6-38.8 14.9-20.8 18.6-11.9 18.6-11.9z"/>
  <path opacity=".2" d="M502.8 193.6c-17 20.8-22.8 24.7-18.6 38.7 3.3 11 4.4 15 5.1 18.8.7 3.8-31.6-2.4-31.6-2.4l.2 12.2s25.4 12.2 37.8 14.6c12.4 2.4 20.1-.4 20.1-.4l-13-81.5z"/>
  <path fill="#F09959" d="m482.7 157.6 7.7 22.7s-8.4 22.8-15.5 17.7c-2.4-1.7.9-15.5.9-15.5l-5.2-18.4 12.1-6.5zM507.2 192.7c10.6 1.2 11.5 15.5 16.4 39.3 4.9 23.9 3.4 39.6 1.1 42.6-5.5 7.3-67.6-18.1-75.4-17.9-5.3.2-.9-8.8-.9-8.8l59.2 9.1s-8.4-27.6-8.4-41.8c0-14.1 4-22.9 8-22.5z"/>
  <path fill="#F09959" d="M452.2 248.4c-6.2-1.5-15.2-5.1-17-3.5-1.8 1.5-9.1 12.6-11.5 15.7-2.4 3.1 1.1.7 3.8-1.8 2.7-2.4 4.9-3.8 4.9-3.8s3.3 3.1 6.4 4.9c3.1 1.8 4.2-1.8 9.5-2.7 5.3-.9 18.6 3.8 18.6 3.8l-14.7-12.6z"/>
  <path fill="#424047" d="M506 190.9c6.5.3 11.5 5.7 13.3 14.1 1.8 8.4 6.9 35.1 6.9 35.1s1 .7-9.7 2.7c-10.8 1.9-19.6-.3-19.6-.3s-2.2-15.2-1.6-25.6c.6-10.5 2.9-20.3 6.8-23.7 3.8-3.4 3.9-2.3 3.9-2.3z"/>
  <path fill="#E38540" d="m475.8 182.5-5.2-18.4 12.1-6.5 1.8 5.5c.4 18.3-4.3 24.4-7.4 26.7-1 .7-1.8.2-2.5-1 .5-3.3 1.2-6.3 1.2-6.3z"/>
  <path fill="#F09959" d="M451.3 159.8c0 9.9 1.2 24.6 9.7 24.3 13.3-.4 21.6-13.4 21.6-23.2 0-9.9-6.9-17.8-15.5-17.8-8.5-.1-15.8 6.8-15.8 16.7z"/>
  <path fill="#7F7E8E" d="M352.3 271.5H402l-20.4-45c-.6-1.3-1.9-2.2-3.3-2.2h-45.1c-1 0-1.7 1.1-1.3 2l20.4 45.2z"/>
  <path fill="#7F7E8E" d="M352.4 271.5h91.7c0-3.2-2.6-5.8-5.8-5.8h-85.9v5.8z"/>
  <path fill="#5C5B66" d="M333.1 224.4h39.8c1.4 0 2.8.8 3.3 2.2l20.4 45h-44.3l-20.5-45.1c-.4-1 .3-2.1 1.3-2.1z"/>
  <linearGradient id="b" gradientUnits="userSpaceOnUse" x1="449.891" y1="150.427" x2="481.849" y2="150.427">
    <stop offset="0" style="stop-color:#aa30be"/>
    <stop offset="1" style="stop-color:#5723b5"/>
  </linearGradient>
  <path fill="url(#b)" d="M467.2 138.2c-9.4-.7-15 7.9-16.6 15.4-1.2 5.4-.6 6.5-.6 6.5s1 1.5 8.4 1.9c7.4.4 8.2.3 8.2.3l.4-8.5 2.2 8.2s1.2 1.6 5.7-.6c4.6-2.2 6.6-9.6 6.6-9.6s1-4.9-2.5-8.1c-3.3-3.1-11.8-5.5-11.8-5.5z"/>
  <path fill="#260A3F" d="M472.9 161.7c.9 6 5.7 10.2 10.6 9.4 5-.8 8.3-6.2 7.4-12.2-.9-6-5.7-10.2-10.6-9.4-5.1.8-8.3 6.3-7.4 12.2z"/>
  <path fill="#3D1468" d="M476.4 161.6c.8 5.5 4.7 9.5 8.7 8.9 4-.6 6.5-5.6 5.7-11.1-.8-5.5-4.7-9.5-8.7-8.9-3.9.6-6.5 5.6-5.7 11.1z"/>
  <path fill="#F2E5DE" d="M482.5 160.3c.5 3 2.1 5.3 3.7 5.1 1.6-.2 2.5-2.9 2-5.9-.5-3-2.1-5.3-3.7-5.1-1.5.3-2.4 2.9-2 5.9z"/>
  <path fill="#260A3F" d="M482.8 149.7c-4.3-16-19.2-13.7-22.9-11.5-3.2 1.9-3.6 4.5-3.6 4.5s4.1-3.3 11-2.1c6.6 1.2 10.5 5 11.1 9.4.2 2.3 4.4-.3 4.4-.3z"/>
  <linearGradient id="c" gradientUnits="userSpaceOnUse" x1="493.589" y1="173.999" x2="549.222" y2="173.999">
    <stop offset="0" style="stop-color:#8533b5"/>
    <stop offset="1" style="stop-color:#5723b5"/>
  </linearGradient>
  <path fill="url(#c)" d="M548.9 201.4c.2 0 .4-.2.3-.4-.4-4.1-2.4-8.2-5.7-11.7-3.7-4-9-7.1-15.3-9-14-4.3-26.3-9.9-34-33.5-.1-.2-.3-.3-.4-.2-.2.1-.3.3-.2.4 3.5 10.9 8.3 18.8 14.7 24.2 5.6 4.8 11.9 7.4 19.7 9.8 6.2 1.9 11.4 5 15 8.9 3.2 3.4 5.1 7.4 5.5 11.3.1.1.2.2.4.2z"/>
  <g>
    <linearGradient id="d" gradientUnits="userSpaceOnUse" x1="495.28" y1="167.036" x2="543.104" y2="167.036">
      <stop offset="0" style="stop-color:#8533b5"/>
      <stop offset="1" style="stop-color:#5723b5"/>
    </linearGradient>
    <path fill="url(#d)" d="M542.8 185.2c.1 0 .2 0 .3-.1.1-.1.1-.4-.1-.5-.1 0-6.1-4.6-14.7-6.5-16.6-3.7-27.8-13.7-32.3-28.9-.1-.2-.2-.3-.4-.2-.2.1-.3.2-.2.4 2.8 9.4 8 16.9 15.5 22.1 4.8 3.4 10.7 5.8 17.3 7.3 8.5 1.9 14.4 6.4 14.4 6.4h.2z"/>
  </g>
  <g>
    <path fill="#424047" d="m266.1 271.8-35.8.1c-.5 0-.9-.5-1-1.2 0-.6.3-1.2.9-1.2l35.6-3.2c2.9-.3 5.5.9 5.6 2.5.1 1.6-2.4 3-5.3 3z"/>
    <path fill="#F09959" d="M219.8 266.7c1.2-.3 3.5-7.1 3.5-7.1s-25.8-8.7-36.8-14.4l-15.3 17.7c19.6 4.9 47.7 4.1 48.6 3.8z"/>
    <path fill="#F09959" d="M215.8 257c6.4 1.6 16.5-2.5 18.4-2.1 1.9.4 9.8 4.5 11.7 6.6 1.9 2.1 8.6 8.4 7.4 8.8-1.2.4-9.6-5.8-10.7-6-1-.2-1.5 1.2-10 2.9-8.4 1.6-18.6-2.6-18.6-2.6l1.8-7.6z"/>
    <path fill="#E38540" d="M225.9 263.4s9.8-2.5 11-2.1c1.2.4 8.5 2.1 13.6 7.8-4.8-1.4-11.7-1.8-13.6-1.8-1.9 0-11-3.9-11-3.9z"/>
    <path fill="#F09959" d="M228.3 259.3c4.2 5.3 14.8 7 16.4 8.8 1.6 1.9-3.9 1.1-6.8.8-7.4-.6-12.5 2.4-18.4.5-6-1.8-7.3-6.3-7.3-6.3l16.1-3.8z"/>
    <linearGradient id="e" gradientUnits="userSpaceOnUse" x1="152.952" y1="163.619" x2="152.952" y2="275.806">
      <stop offset="0" style="stop-color:#aa30be"/>
      <stop offset="1" style="stop-color:#5723b5"/>
    </linearGradient>
    <path fill="url(#e)" d="M149.9 164.4c-18.9 9.3-27.5 16.1-33.4 41.3-5.9 25.3-6.2 49.3-3.1 67.2 20.9.6 81 2.9 81 2.9s-1.1-36.7-7.3-65.8c-5.9-27.7-14.2-38.5-21.3-43.5-7-4.9-15.9-2.1-15.9-2.1z"/>
    <path opacity=".2" d="M154.4 250.4c-6.8-6.8-4.9-52.7-16-73.4l-20.7 38.5-6.2 32.1c-.1 9.3.6 17.8 1.9 25.3.1.4.5.7.9.7 17.1-1.5 18-8.9 72.5-17.1 1.3-.2-27.8-1.5-32.4-6.1z"/>
    <path fill="#FFF" d="M148.1 164.4c-2.4 5.6 2.5 12.9 10.1 18.6 7.7 5.8 12.3 2.6 11.9-1.9-.4-4.5-.8-9.3-2.6-12.2-1.8-2.9-16-5.3-16-5.3s-3-.2-3.4.8z"/>
    <path fill="#F09959" d="m157.2 136.4-7.3 27.9c-.7 1.9-.5 4 .5 5.7 3 4.8 9.4 14.1 14 12.8 6.2-1.6 2.1-13.2 2.1-13.2l8.2-29-17.5-4.2z"/>
    <path fill="#E38540" d="m168.4 138.2-7.3-3-2.2 5.7c1 24.3 4.1 34.2 8.9 37 .3-3.7-1.3-8.1-1.3-8.1l6-21.6-4.1-10z"/>
    <path fill="#F09959" d="M188.7 149.1c-1.4 9.6-5.2 17.9-12.1 16.9-6.9-1-18.7-9.1-17.3-18.7 1.4-9.6 16.9-21.2 23.8-20.2 6.9 1 7 12.4 5.6 22zM136.3 185.4c.5-2.2-8.2-3.5-9.6-1.7-13.8 17.6-35.3 65-30.5 73.6 5.5 9.9 65.3-3.1 66.6-3.4 1.2-.3-2.2-9.6-2.2-9.6s-33.5.6-39.2-3.2c17.6-33 10.7-39.1 14.9-55.7z"/>
    <linearGradient id="f" gradientUnits="userSpaceOnUse" x1="113.301" y1="186.722" x2="136.793" y2="227.412">
      <stop offset="0" style="stop-color:#aa30be"/>
      <stop offset="1" style="stop-color:#5723b5"/>
    </linearGradient>
    <path fill="url(#f)" d="M132.9 175.5c-14.5 6.5-30.2 48.7-30.2 48.7s3.7.9 15.7 4.9c5 1.7 9.8 3.2 9.8 3.2s11.5-14.9 15.1-26.6c4.7-15.1-1.5-34.2-10.4-30.2z"/>
    <path fill="#424047" d="M187.2 256.3H172l-2.3-28.4h20z"/>
    <path fill="#F09959" d="M158.7 244.4c4.2-.1 11.1-4.9 13.5-6.3 2.4-1.3 15.7-4.2 16.3-2.8.6 1.4-11.2 4.4-11.2 4.4l8.8.4s2.6 3.9 2.8 6.5-.8 6.3-.8 6.3l-3.9-3.5s-3.2 1.7-7.2 4.1c-4 2.4-11.2.9-14.3.3-3.1-.6-10.3-2.9-10.3-2.9l6.3-6.5z"/>
    <path fill="#5C5B66" d="M318.9 194.6v70c0 2.3-2.2 4.2-4.9 4.2h-14.7c-2.5 0-4.5 1.7-4.5 3.9h21.1c4.6 0 8.2-3.2 8.2-7.1v-71h-5.2z"/>
    <path fill="#7F7E8E" d="m308.1 254.6-2.3-.4c-1.5-.3-2.5-1.6-2.2-2.9l18.3-71c.3-1.3 1.9-2.2 3.4-1.9l2.3.4c1.5.3 2.5 1.6 2.2 2.9l-18.3 71c-.3 1.3-1.9 2.1-3.4 1.9z"/>
    <path fill="#424047" d="m308.7 254.7-.3-.1c-1.2-.2-1.9-1.2-1.7-2.3l18.6-72.1c.3-1 1.5-1.7 2.6-1.4l.3.1c1.2.2 1.9 1.2 1.7 2.3l-18.6 72.1c-.2 1-1.4 1.6-2.6 1.4z"/>
    <path fill="#F09959" d="M160.4 124.4c-14.2 8.8-5.2 18.4-9 34.8 2.3.8 4.9-3.8 6.5-7.4 1.6-3.6 3.1-8.8 3.6-8.6.5.2 1.4 8.3 1.4 8.3l2.2 1.1s3.1-5.4 2.9-6.7c-.2-1.3-2.7-7.4.4-10.3 2-1.9 10.1 2.2 10.1 2.2l-7.9-11.4-10.2-2z"/>
    <path opacity=".2" d="M160.4 124.4c-14.2 8.8-5.2 18.4-9 34.8 2.3.8 4.9-3.8 6.5-7.4 1.6-3.6 3.1-8.8 3.6-8.6.5.2 1.4 8.3 1.4 8.3l2.2 1.1s3.1-5.4 2.9-6.7c-.2-1.3-2.7-7.4.4-10.3 2-1.9 10.1 2.2 10.1 2.2l-7.9-11.4-10.2-2z"/>
    <path fill="#424047" d="M191.5 133.9c-.7 8.6-14.1 5.9-20.4-1.8-5.9-7.4-10.8-2.3-16.8.2-9.9 4.1 1.3-19.8 21.3-16 15.1 2.8 16.4 11.9 15.9 17.6z"/>
    <path fill="#F09959" d="M161.7 143.1c.6 3.2-.6 6.2-2.7 6.6-2.1.4-4.3-1.9-4.9-5.1-.6-3.2.6-6.2 2.7-6.6s4.3 1.9 4.9 5.1z"/>
  </g>
  <path fill="#260A3F" d="M528.6 276.8H103.3c-1.5 0-2.6-1.2-2.6-2.6 0-1.5 1.2-2.6 2.6-2.6h425.4c1.5 0 2.6 1.2 2.6 2.6 0 1.4-1.2 2.6-2.7 2.6z"/>
  <path fill="#CFC1F7" d="m201.4 101.7-2.3-4.4-5-.1 4.4-2.4.2-4.9 2.3 4.4 5 .1-4.4 2.4zM133.2 136.1l.2-3.9-3.3-2.1 3.9.2 2.1-3.3-.2 3.9 3.3 2.1-3.9-.2zM251.3 146.8l.5-4.9-4.1-2.9 4.9.5 2.9-4.1-.5 5 4.1 2.9-4.9-.5zM106.7 188l.3-3.1-2.5-1.8 3 .4 1.8-2.5-.3 3 2.5 1.8-3-.3zM305.4 150.3l.3-3.1-2.5-1.8 3.1.3 1.8-2.4-.4 3 2.5 1.8-3-.3zM208.5 200.6l-2.2-2.2-2.9.7 2.2-2.1-.8-3 2.1 2.2 3-.7-2.2 2.1zM176.1 108.3l-2.1-2.2-3 .7 2.2-2.1-.7-3 2.1 2.2 3-.7-2.2 2.1zM139.7 91.4l-2.1-2.2-3 .8 2.2-2.1-.7-3 2.1 2.2 3-.8-2.2 2.2zM289.7 242.2l.7-3-2.3-2 3 .6 2-2.3-.6 3 2.3 2.1-3-.7zM73.8 238.3l.4-4.9-4-2.9 4.9.5 2.9-4.1-.5 4.9 4.1 2.9-5-.5zM203.2 182.9l-2.6-4.3-5 .2 4.2-2.6-.2-5 2.7 4.3 4.9-.2-4.2 2.6z"/>
  <path opacity=".38" fill="#FFE697" d="M496.2 67.4c13.8-6.1 29.3.1 36.9 11.5 7.8 11.7 6.8 27.9-1.8 36.5-13.5 13.6-44.6 6.8-51.3-12.2-4.1-12 1.5-29.3 16.2-35.8z"/>
  <path fill="#FFE697" d="M500.1 72c10.7-4.7 22.8.1 28.7 8.9 6.1 9.1 5.3 21.7-1.4 28.4-10.5 10.6-34.7 5.3-39.8-9.4-3.3-9.4 1.1-22.9 12.5-27.9z"/>
</svg>
