<svg xmlns="http://www.w3.org/2000/svg" width="100" height="100" fill="none"><path fill="url(#a)" d="M50 100C22.52 100 0 77.863 0 50 .382 22.52 22.52 0 50 0s50 22.137 50 50c0 27.48-22.137 50-50 50Z" opacity=".25"/><path fill="url(#b)" d="M50 93.511C25.954 93.511 6.488 74.046 6.488 50 6.488 25.954 25.954 6.488 50 6.488S93.51 25.954 93.51 50 74.046 93.51 50 93.51Z"/><path fill="#fff" d="M37.023 59.923h11.45v5.344H26.336v-1.145L37.023 52.29a27.843 27.843 0 0 0 3.435-4.199c.763-1.145 1.145-2.29 1.145-3.435s-.382-2.29-1.145-3.053c-.763-.764-1.908-1.145-3.053-1.145s-2.29.381-3.054 1.145c-.763.763-1.145 1.908-1.145 3.435 0 .381 0 1.145.382 2.29H27.48c-.382-.764-.382-1.527-.382-2.672 0-2.672 1.145-4.962 3.054-6.87 1.908-1.909 4.58-3.054 7.633-3.054 3.054 0 5.344.764 7.634 2.672 1.908 1.909 3.053 4.199 3.053 6.87 0 1.909-.381 3.817-1.526 5.726-1.145 1.908-2.672 3.816-4.962 6.106l-4.962 3.817ZM60.305 61.45v-8.016H52.29v-5.343h8.015v-8.016h6.107v8.015h7.634v5.344h-7.634v8.015h-6.107Z"/><defs><linearGradient id="a" x1="14.841" x2="85.313" y1="14.841" y2="85.313" gradientUnits="userSpaceOnUse"><stop stop-color="#AA30BE"/><stop offset="1" stop-color="#5723B5"/></linearGradient><linearGradient id="b" x1="19.505" x2="80.833" y1="19.505" y2="80.833" gradientUnits="userSpaceOnUse"><stop stop-color="#AA30BE"/><stop offset="1" stop-color="#5723B5"/></linearGradient></defs></svg>