<svg xmlns="http://www.w3.org/2000/svg" width="100" height="100" fill="none"><path fill="url(#a)" d="M50 100C22.52 100 0 77.778 0 49.808.382 22.222 22.52 0 50 0s50 22.222 50 50.192C100 77.778 77.863 100 50 100Z" opacity=".25"/><path fill="url(#b)" d="M50 93.87c-24.046 0-43.512-19.54-43.512-43.678C6.488 26.054 25.954 6.514 50 6.514S93.51 26.054 93.51 50.192C93.511 74.33 74.046 93.87 50 93.87Z"/><path fill="#fff" d="M33.437 46.912c0 1.249-.414 2.498-.829 3.33-.414.834-1.242 2.083-2.07 3.748l-5.797 7.495h-4.97l4.97-7.078c-1.657 0-3.727-.833-4.97-2.082-1.242-1.25-2.484-3.331-2.484-5.413 0-2.082.828-4.164 2.485-5.414C21.428 39.833 23.084 39 25.155 39c2.07 0 4.14.833 5.797 2.082 1.656 1.25 2.485 3.748 2.485 5.83Zm-5.384 2.498c.829-.833 1.243-1.666 1.243-2.498 0-1.25-.414-2.082-1.243-2.499-.828-.833-1.656-1.249-2.898-1.249-.828 0-1.657.416-2.485.833-.828.416-.828 1.665-.828 2.915 0 1.249.414 2.082 1.242 2.498.829.833 1.657 1.25 2.485 1.25.828 0 1.656-.417 2.484-1.25ZM36.335 50.243c0-3.331.828-6.246 2.07-8.328C40.062 39.833 42.132 39 45.031 39c2.898 0 4.969.833 6.625 2.915 1.657 2.082 2.07 4.58 2.07 8.328 0 3.331-.828 6.246-2.07 8.328C50 60.653 47.93 61.9 45.031 61.9c-2.899 0-4.97-1.248-6.626-3.33-1.242-2.082-2.07-4.997-2.07-8.328Zm12.837 0c0-4.58-1.242-7.079-4.141-7.079s-4.141 2.498-4.141 7.079c0 4.997 1.242 7.495 4.14 7.495 2.9 0 4.142-2.498 4.142-7.495ZM59.11 48.16c-1.242-.832-1.656-2.081-1.656-3.747 0-1.665.414-2.915 1.657-3.747C60.352 39.416 61.595 39 63.25 39c1.657 0 2.899.416 4.141 1.666 1.243 1.249 1.657 2.498 1.657 3.747 0 1.666-.415 2.915-1.657 3.748-1.242 1.249-2.484 1.665-4.14 1.665-1.657 0-2.9-.416-4.142-1.665Zm6.212-3.747c0-.833 0-1.249-.414-1.665-.414-.417-.829-.833-1.657-.833-.828 0-1.242.416-1.656.833-.414.416-.414.832-.414 1.665 0 .833 0 1.25.414 1.666.414.416.828.833 1.656.833.414 0 1.243-.417 1.657-.833.414-.417.414-.833.414-1.666Zm-3.313 17.073 12.423-22.07h3.727l-12.423 22.07h-3.727Zm10.766-1.25c-1.242-1.249-1.656-2.498-1.656-4.164 0-1.665.414-2.914 1.656-3.747 1.243-1.25 2.485-1.666 4.141-1.666 1.657 0 2.899.417 4.141 1.666 1.242 1.249 1.656 2.498 1.656 3.747 0 1.666-.414 2.915-1.656 3.748-1.242.833-2.484 1.666-4.14 1.666-1.657.416-3.313-.417-4.142-1.25Zm5.384-2.082c.414-.416.414-.832.414-1.665 0-.833 0-1.25-.414-1.666-.415-.416-.829-.833-1.657-.833-.828 0-1.242.417-1.656.833-.414.417-.414.833-.414 1.666s0 1.249.414 1.665c.414.417.828.833 1.656.833.828-.416 1.243-.416 1.657-.833Z"/><defs><linearGradient id="a" x1="14.838" x2="85.579" y1="14.703" y2="85.174" gradientUnits="userSpaceOnUse"><stop stop-color="#AA30BE"/><stop offset="1" stop-color="#5723B5"/></linearGradient><linearGradient id="b" x1="19.406" x2="80.968" y1="19.481" y2="80.808" gradientUnits="userSpaceOnUse"><stop stop-color="#AA30BE"/><stop offset="1" stop-color="#5723B5"/></linearGradient></defs></svg>