<svg xmlns="http://www.w3.org/2000/svg" width="108" height="108" fill="none"><g filter="url(#a)"><path fill="url(#b)" d="M54 100C26.52 100 4 77.863 4 50 4.382 22.52 26.52 0 54 0s50 22.137 50 50c0 27.48-22.137 50-50 50Z" opacity=".25"/><path fill="url(#c)" d="M54 93.511c-24.046 0-43.512-19.465-43.512-43.511C10.488 25.954 29.954 6.488 54 6.488S97.51 25.954 97.51 50 78.046 93.51 54 93.51Z"/><path fill="#fff" d="M43.313 55.343v4.199h-3.054v4.198h-5.343v-4.198H22.32v-1.527l7.634-19.847h5.343l-6.87 16.794h6.107V47.71h5.344v7.252h3.435v.381ZM45.984 51.145c0-3.817.764-6.87 2.672-9.16 1.527-2.29 4.199-3.435 7.634-3.435 3.435 0 5.725 1.145 7.252 3.435 1.526 2.29 2.671 5.343 2.671 9.16s-.763 7.252-2.671 9.542c-1.909 2.29-4.199 3.817-7.252 3.817-3.054 0-5.725-1.145-7.252-3.817-2.29-2.671-3.054-5.725-3.054-9.542Zm14.886 0c0-5.343-1.527-8.015-4.58-8.015-3.054 0-4.58 2.672-4.58 8.015 0 5.725 1.526 8.397 4.58 8.397 2.672 0 4.58-3.053 4.58-8.397ZM76.519 60.305v-6.87H70.03v-4.199h6.489v-6.87h4.962v6.87h6.488v4.58h-6.488v6.87h-4.962v-.38Z"/></g><defs><linearGradient id="b" x1="18.841" x2="89.313" y1="14.841" y2="85.313" gradientUnits="userSpaceOnUse"><stop stop-color="#AA30BE"/><stop offset="1" stop-color="#5723B5"/></linearGradient><linearGradient id="c" x1="23.505" x2="84.833" y1="19.505" y2="80.833" gradientUnits="userSpaceOnUse"><stop stop-color="#AA30BE"/><stop offset="1" stop-color="#5723B5"/></linearGradient><filter id="a" width="108" height="108" x="0" y="0" color-interpolation-filters="sRGB" filterUnits="userSpaceOnUse"><feFlood flood-opacity="0" result="BackgroundImageFix"/><feColorMatrix in="SourceAlpha" result="hardAlpha" values="0 0 0 0 0 0 0 0 0 0 0 0 0 0 0 0 0 0 127 0"/><feOffset dy="4"/><feGaussianBlur stdDeviation="2"/><feComposite in2="hardAlpha" operator="out"/><feColorMatrix values="0 0 0 0 0 0 0 0 0 0 0 0 0 0 0 0 0 0 0.25 0"/><feBlend in2="BackgroundImageFix" result="effect1_dropShadow_866_418"/><feBlend in="SourceGraphic" in2="effect1_dropShadow_866_418" result="shape"/></filter></defs></svg>