<svg xmlns="http://www.w3.org/2000/svg" width="100" height="100" fill="none"><path fill="url(#a)" d="M50 100C22.52 100 0 77.778 0 49.808.382 22.222 22.52 0 50 0s50 22.222 50 50.192C100 77.778 77.863 100 50 100Z" opacity=".25"/><path fill="url(#b)" d="M50 93.87c-24.046 0-43.512-19.54-43.512-43.678C6.488 26.054 25.954 6.514 50 6.514S93.51 26.054 93.51 50.192C93.511 74.33 74.046 93.87 50 93.87Z"/><path fill="#fff" d="M48.473 57.855c0 2.682-1.145 4.981-3.435 6.897-2.29 1.532-5.343 2.682-8.778 2.682-3.817 0-6.489-.766-8.779-2.682-2.29-1.533-3.435-3.831-3.435-6.897 0-3.831 2.29-6.513 6.489-8.429-3.436-1.915-4.962-4.597-4.962-7.663 0-2.682 1.145-4.98 3.053-6.513 1.909-1.532 4.58-2.299 7.634-2.299 3.053 0 5.725.767 7.633 2.299 1.909 1.533 3.054 3.831 3.054 6.513 0 3.066-1.527 5.748-4.962 7.663 4.198 1.916 6.488 4.598 6.488 8.43Zm-6.87-.383c0-1.15-.382-2.299-1.145-3.065s-2.29-1.532-4.198-2.299c-1.909.767-3.435 1.533-4.199 2.3-.763.765-1.145 1.915-1.145 3.064 0 1.15.382 2.3 1.527 3.065 1.145.767 2.29 1.15 4.198 1.15 1.909 0 3.054-.383 4.199-1.15.381-.766.763-1.532.763-3.065ZM31.68 42.147c0 1.149.382 1.915 1.146 2.298.763.384 1.908 1.533 3.435 2.3 1.526-.767 2.671-1.533 3.435-2.3.763-.766 1.145-1.532 1.145-2.298 0-1.15-.382-1.916-1.145-2.682-.764-.767-1.909-1.15-3.435-1.15-1.527 0-2.29.383-3.435 1.15-1.146.766-1.146 1.532-1.146 2.682ZM61.452 62.454V53.64h-8.397v-5.747h8.397v-8.812h6.488v8.812h8.397v5.747H67.94v8.813h-6.488Z"/><defs><linearGradient id="a" x1="14.838" x2="85.579" y1="14.703" y2="85.174" gradientUnits="userSpaceOnUse"><stop stop-color="#AA30BE"/><stop offset="1" stop-color="#5723B5"/></linearGradient><linearGradient id="b" x1="19.406" x2="80.968" y1="19.481" y2="80.808" gradientUnits="userSpaceOnUse"><stop stop-color="#AA30BE"/><stop offset="1" stop-color="#5723B5"/></linearGradient></defs></svg>