<svg xmlns="http://www.w3.org/2000/svg" xmlns:xlink="http://www.w3.org/1999/xlink" xml:space="preserve" enable-background="new 0 0 1200 534" viewBox="0 0 1200 534"><path fill="#C00" fill-rule="evenodd" d="M138.1 60v4.3h7.7c1.6 0 4.3-1.2 4.4-4.4v-1.7c0-2.8-2.3-4.4-4.4-4.4H142v-2h7.6v-4.3h-7.3c-1.9 0-4.4 1.6-4.4 4.5v1.5c0 2.9 2.5 4.4 4.4 4.4h3.6V60m-49.2-1.1s4.1-.4 4.1-5.7-5-5.8-5-5.8h-9v16.8h4.5v-4.1l3.9 4.1h6.7l-5.2-5.3zM95 55.5h-3.6v-3.8H95s1 .4 1 1.9-1 1.9-1 1.9m17.1-8h-4.6c-3.3 0-4.4 3-4.4 4.4v12.3h4.6v-2.9h4.3v2.9h4.5V51.9c-.1-3.6-3.3-4.4-4.4-4.4m-.1 9h-4.3v-4.1s0-.9 1.4-.9h1.6c1.3 0 1.3.9 1.3.9v4.1zM118.5 47.5h4.8v16.7h-4.8zM130 59.9V47.5h-4.7v16.7h11.2v-4.3z" clip-rule="evenodd"/><path fill="#C00" fill-rule="evenodd" d="M58.5 64.2h18.6S73.5 48 85.3 41.4c2.6-1.2 10.8-5.9 24.1 4 .4-.4.8-.6.8-.6S98 32.5 84.4 33.9c-6.9.6-15.3 6.9-20.3 15.1-4.9 8.3-5.6 15.2-5.6 15.2" clip-rule="evenodd"/><path fill="#C00" fill-rule="evenodd" d="M58.5 64.2h18.6S73.5 48 85.3 41.4c2.6-1.2 10.8-5.9 24.1 4 .4-.4.8-.6.8-.6S98 32.5 84.4 33.9c-6.9.6-15.3 6.9-20.3 15.1-4.9 8.3-5.6 15.2-5.6 15.2" clip-rule="evenodd"/><path fill="#C00" fill-rule="evenodd" d="M58.5 64.2h18.6S73.5 48 85.3 41.4c2.6-1.3 10.8-5.9 24.1 4 .4-.4.8-.6.8-.6S98 32.5 84.4 33.9c-6.9.6-15.4 6.8-20.3 15.1-5 8.3-5.6 15.2-5.6 15.2m38.8-29 .1-1.6c-.2-.1-.8-.4-2.3-.8l-.1 1.6c.8.2 1.5.5 2.3.8" clip-rule="evenodd"/><path fill="#C00" fill-rule="evenodd" d="m95 40.2-.1 1.5c.8 0 1.6.1 2.3.3l.1-1.5c-.7-.2-1.5-.2-2.3-.3m-8.7-7.4h.2l-.5-1.4c-.7 0-1.5 0-2.3.1l.4 1.4c.8 0 1.5-.1 2.2-.1m1.1 8.7.5 1.6c.7-.3 1.4-.6 2.1-.8l-.5-1.6c-.8.3-1.5.6-2.1.8m-10.7-6.2-1.1-1.6c-.6.3-1.2.6-1.8 1l1.1 1.7c.6-.4 1.2-.8 1.8-1.1m4.9 10.6 1.1 1.7c.4-.6.9-1.1 1.4-1.7L83 44.4c-.5.5-1 1-1.4 1.5m-3.5 7.6L80 55c.1-.9.3-1.8.5-2.8l-1.7-1.3c-.3.9-.5 1.8-.7 2.6M67.8 42.3l-1.7-1.5c-.6.6-1.2 1.2-1.7 1.8l1.8 1.6c.5-.6 1-1.3 1.6-1.9m-7.1 10.6-2.7-1c-.4 1-.9 2.2-1.2 2.8l2.7 1c.3-.8.8-2 1.2-2.8m17.1 6.6c0 1.3.2 2.3.3 3l2.8 1c-.2-.9-.4-2-.6-3.1l-2.5-.9z" clip-rule="evenodd"/><path fill="#CCC" d="m278.4 45.2 6.5 8.5v-8.5h1.3v10.5h-1.4l-6.5-8.5v8.5h-1.2V45.2zM296.6 55.3c-.8.3-1.8.5-2.7.5-3.8 0-5.7-1.8-5.7-5.5 0-3.5 1.8-5.2 5.5-5.2 1.1 0 2 .1 2.9.4v1.2c-.9-.3-1.8-.5-2.8-.5-2.9 0-4.3 1.4-4.3 4.1 0 2.9 1.4 4.4 4.2 4.4.5 0 1-.1 1.5-.2v-3.6h1.4v4.4zM298.8 51.7v-6.5h1.4v6.5c0 2 1 3 3 3s3-1 3-3v-6.5h1.4v6.5c0 2.8-1.5 4.1-4.4 4.1-2.9 0-4.4-1.4-4.4-4.1M316.9 54.6v1.1H310V45.2h1.4v9.4zM322.7 43.8l5.2 11.9h-1.5l-1.4-3.3h-3.5l.4-1.1h2.7l-2-4.8-3.8 9.2h-1.4zM329.3 55.7V45.2h4.5c2 0 3 .8 3 2.5 0 1.4-1 2.4-2.9 3l3.6 5h-1.8l-3.4-4.7v-.9c2-.3 3-1.1 3-2.3 0-1-.6-1.5-1.7-1.5h-3v9.4h-1.3zM342.6 45.2v7.5c0 2-1.2 3-3.6 3v-1.1c1.5 0 2.2-.6 2.2-1.9v-7.5h1.4zM345 55.4v-1.3c1.1.4 2.3.6 3.6.6 1.8 0 2.7-.7 2.7-2 0-1.1-.7-1.7-2-1.7H348c-2.2 0-3.3-1-3.3-2.9 0-2 1.4-3 4.2-3 1.2 0 2.4.1 3.4.4v1.3c-1.1-.4-2.2-.6-3.4-.6-1.9 0-2.9.6-2.9 1.9 0 1.1.6 1.7 1.9 1.7h1.4c2.2 0 3.4 1 3.4 2.9 0 2.1-1.4 3.1-4.1 3.1-1.3 0-2.4-.1-3.6-.4"/><path d="m278.8 44.9 6.4 8.4v-8.4h1.3v10.5h-1.4l-6.4-8.6v8.6h-1.3V44.9zM297 55c-.9.3-1.8.5-2.7.5-3.8 0-5.7-1.8-5.7-5.5 0-3.5 1.8-5.2 5.5-5.2 1.1 0 2 .1 2.9.4v1.2c-.9-.3-1.8-.5-2.8-.5-2.9 0-4.3 1.4-4.3 4.1 0 2.9 1.4 4.4 4.2 4.4.5 0 1-.1 1.5-.2v-3.6h1.4V55zM299.1 51.3v-6.5h1.4v6.5c0 2 1 3 3 3s3-1 3-3v-6.5h1.4v6.5c0 2.8-1.5 4.1-4.4 4.1-2.9.1-4.4-1.3-4.4-4.1M317.2 54.3v1.1h-6.9V44.9h1.4v9.4zM323 43.5l5.2 11.9h-1.5l-1.3-3.3h-3.5l.4-1.1h2.6l-2-4.8-3.7 9.2h-1.4zM329.7 55.4V44.9h4.5c2 0 3 .8 3 2.5 0 1.4-1 2.4-2.9 3l3.6 5h-1.8l-3.4-4.7v-.9c2-.3 3-1.1 3-2.3 0-1-.6-1.5-1.7-1.5h-3v9.4h-1.3z"/><path fill="#A6120D" d="M343 44.9v7.5c0 2-1.2 3-3.6 3v-1.1c1.5 0 2.2-.6 2.2-1.9v-7.5h1.4zM345.4 55v-1.3c1.1.4 2.3.6 3.6.6 1.8 0 2.7-.7 2.7-2 0-1.1-.7-1.7-2-1.7h-1.4c-2.2 0-3.3-1-3.3-2.9 0-2 1.4-3 4.2-3 1.2 0 2.4.1 3.4.4v1.3c-1.1-.4-2.2-.6-3.4-.6-1.9 0-2.9.6-2.9 1.9 0 1.1.6 1.7 1.9 1.7h1.4c2.2 0 3.4 1 3.4 2.9 0 2.1-1.4 3.1-4.1 3.1-1.2.1-2.4-.1-3.5-.4"/><path d="m332.8 61-.5-1.5h-.4l.7 1.9s0 .1-.1.2c0 .1-.1.1-.1.1s0 .1-.1.1H332v.3h.2c.2 0 .3-.1.4-.2.1-.1.2-.4.4-.9.1-.2.2-.5.3-.8.2-.4.3-.7.3-.8h-.3l-.5 1.6zm-1.9.1c-.2 0-.4-.1-.5-.3 0-.1-.1-.3-.1-.4 0-.2.1-.4.2-.5.1-.1.2-.2.4-.2s.3.1.4.2c.1.1.1.3.1.5s0 .4-.1.5-.2.2-.4.2m-.8.3h.3v-.2c.1.1.1.2.2.2.1.1.2.1.4.1.3 0 .5-.1.6-.3.1-.2.2-.4.2-.7 0-.3-.1-.5-.2-.7-.1-.2-.3-.2-.6-.2-.1 0-.2 0-.3.1-.1 0-.2.1-.2.2V59h-.3v2.4z"/><path fill="#B3B3B3" d="m252.7 57.2 10.4 5.7 10.4-5.8 1.9-16.1-12.3-4.3-12.3 4.4z"/><path fill="#A6120D" d="m263 61.5 9.4-5.2 1.8-14.4-11.2-3.8z"/><path fill="#DD1B16" d="M263 61.5V38.1L252.1 42l1.7 14.4z"/><path fill="#F2F2F2" d="M266.1 50.6 263 52h-3.2l-1.5 3.8-2.8.1L263 39l3.1 11.6zm-.3-.7-2.8-5.5-2.3 5.4h2.2l2.9.1z"/><path fill="#B3B3B3" d="M265.6 49.8H263V52h3.6l1.7 3.9h2.7L263 39l.1 5.4z"/><path d="M342.5 60c0 .8-.6 1.4-1.4 1.4-.8 0-1.4-.6-1.4-1.4 0-.8.6-1.4 1.4-1.4.7 0 1.4.6 1.4 1.4m-.7 0c0-.5-.4-.9-.8-.9s-.8.4-.8.9.4.9.8.9.8-.4.8-.9M345.6 60c0 .8-.6 1.4-1.4 1.4-.8 0-1.4-.6-1.4-1.4 0-.8.6-1.4 1.4-1.4.7 0 1.4.6 1.4 1.4m-.6 0c0-.5-.4-.9-.8-.9s-.8.4-.8.9.4.9.8.9.8-.4.8-.9M348.6 58.7v2.6c0 1.1-.6 1.5-1.4 1.5-.7 0-1.1-.5-1.3-.8l.6-.2c.1.2.3.5.7.5.5 0 .8-.3.8-.8v-.2c-.1.2-.4.3-.8.3-.7 0-1.4-.6-1.4-1.4 0-.8.7-1.4 1.4-1.4.3 0 .6.2.8.3v-.2l.6-.2zM348 60c0-.5-.3-.9-.8-.9-.4 0-.8.4-.8.9s.4.9.8.9c.5 0 .8-.4.8-.9M348.9 57.1h.6v4.2h-.6zM352 60.5l.5.3c-.2.2-.5.6-1.2.6-.8 0-1.4-.6-1.4-1.4 0-.9.6-1.4 1.4-1.4.7 0 1.1.6 1.2.9l.1.2-1.9.8c.1.3.4.4.7.4.2 0 .4-.2.6-.4m-1.5-.5 1.3-.5c-.1-.2-.3-.3-.5-.3-.4-.1-.9.2-.8.8M337.3 59.6V59h2.1v.4c0 .5-.1 1-.5 1.4-.4.4-.9.6-1.6.6-1.2 0-2.3-1-2.3-2.2 0-1.2 1-2.2 2.3-2.2.7 0 1.2.3 1.5.6l-.4.4c-.3-.2-.6-.4-1.1-.4-.9 0-1.6.7-1.6 1.6 0 .9.7 1.6 1.6 1.6.6 0 .9-.2 1.1-.4.2-.2.3-.4.3-.8h-1.4z"/><path fill="none" stroke="#000" stroke-miterlimit="10" stroke-width=".5" d="M4.3 4.1h198.4v87.4H4.3z"/><path fill="none" stroke="#000" stroke-miterlimit="10" stroke-width=".5" d="M202.7 4.1h198.4v87.4H202.7zM401.1 4.1h198.4v87.4H401.1z"/><path fill="#1C9CBA" d="M325 133.7c0-3.1-3.8-6-9.7-7.8 1.4-6 .8-10.8-1.9-12.3-.6-.4-1.3-.5-2.1-.5v2.1c.4 0 .8.1 1.1.2 1.3.7 1.8 3.5 1.4 7.1-.1.9-.3 1.8-.5 2.8-1.8-.5-3.9-.8-6-1-1.3-1.7-2.6-3.3-3.9-4.7 3.1-2.9 6-4.4 7.9-4.4v-2.1c-2.6 0-6 1.8-9.4 5.1-3.4-3.2-6.8-5-9.4-5v2.1c2 0 4.8 1.6 7.9 4.4-1.3 1.4-2.6 3-3.9 4.7-2.1.2-4.1.6-6 1-.2-.9-.4-1.9-.5-2.7-.4-3.6.1-6.4 1.4-7.1.3-.2.6-.2 1.1-.2v-2.1c-.8 0-1.5.2-2.1.5-2.6 1.5-3.2 6.3-1.9 12.3-5.9 1.8-9.7 4.7-9.7 7.8 0 3.1 3.8 6 9.7 7.8-1.4 6-.8 10.8 1.9 12.3.6.4 1.3.5 2.1.5 2.6 0 6-1.8 9.4-5.1 3.4 3.2 6.8 5 9.4 5 .8 0 1.5-.2 2.1-.5 2.6-1.5 3.2-6.3 1.9-12.3 5.9-2 9.7-4.9 9.7-7.9m-12.2-6.3c-.3 1.2-.8 2.5-1.3 3.7-.4-.8-.8-1.5-1.2-2.3-.4-.8-.9-1.5-1.4-2.2 1.3.3 2.6.5 3.9.8m-4.4 10c-.7 1.3-1.5 2.5-2.3 3.6-1.4.1-2.8.2-4.3.2-1.4 0-2.8-.1-4.2-.2-.8-1.1-1.5-2.3-2.3-3.6-.7-1.2-1.4-2.5-2-3.8.6-1.3 1.2-2.5 2-3.8.7-1.3 1.5-2.5 2.3-3.6 1.4-.1 2.8-.2 4.3-.2 1.4 0 2.8.1 4.2.2.8 1.1 1.5 2.3 2.3 3.6.7 1.2 1.4 2.5 2 3.8-.6 1.3-1.3 2.6-2 3.8m3.1-1.2c.5 1.3.9 2.5 1.3 3.8-1.2.3-2.5.6-3.9.8.5-.7.9-1.5 1.4-2.2.4-.9.8-1.6 1.2-2.4m-9.6 10.1c-.9-.9-1.8-1.9-2.6-3 .8 0 1.7.1 2.6.1.9 0 1.8 0 2.6-.1-.8 1.1-1.7 2.1-2.6 3m-7-5.6c-1.3-.2-2.6-.4-3.9-.7.3-1.2.8-2.5 1.3-3.7.4.8.8 1.5 1.2 2.3.5.7 1 1.4 1.4 2.1m7-19.6c.9.9 1.8 1.9 2.6 3-.8 0-1.7-.1-2.6-.1-.9 0-1.8 0-2.6.1.8-1.1 1.7-2.1 2.6-3m-7 5.6c-.5.7-.9 1.5-1.4 2.2-.4.8-.8 1.5-1.2 2.3-.5-1.3-.9-2.5-1.3-3.8 1.3-.3 2.6-.5 3.9-.7m-8.5 11.8c-3.3-1.4-5.5-3.3-5.5-4.8s2.2-3.4 5.5-4.8c.8-.3 1.7-.7 2.6-1 .5 1.8 1.2 3.8 2.1 5.7-.9 2-1.6 3.9-2.1 5.7-.9-.2-1.8-.5-2.6-.8m5 13.4c-1.3-.7-1.8-3.5-1.4-7.1.1-.9.3-1.8.5-2.8 1.8.5 3.9.8 6 1 1.3 1.7 2.6 3.3 3.9 4.7-3.1 2.9-6 4.4-7.9 4.4-.4.1-.8 0-1.1-.2m22.4-7.2c.4 3.6-.1 6.4-1.4 7.1-.3.2-.7.2-1.1.2-2 0-4.8-1.6-7.9-4.4 1.3-1.4 2.6-3 3.9-4.7 2.1-.2 4.1-.6 6-1 .2 1.1.4 2 .5 2.8m3.6-6.2c-.8.3-1.7.7-2.6 1-.5-1.8-1.2-3.8-2.1-5.7.9-2 1.6-3.9 2.1-5.7.9.3 1.8.6 2.6 1 3.3 1.4 5.5 3.3 5.5 4.8 0 1.3-2.1 3.1-5.5 4.6"/><path fill="#1C9CBA" d="M301.9 129.4c2.4 0 4.3 1.9 4.3 4.3s-1.9 4.3-4.3 4.3-4.3-1.9-4.3-4.3 1.9-4.3 4.3-4.3"/><path fill="none" stroke="#000" stroke-miterlimit="10" stroke-width=".5" d="M4.3 91.5h198.4v87.4H4.3z"/><path fill="none" stroke="#000" stroke-miterlimit="10" stroke-width=".5" d="M202.7 91.5h198.4v87.4H202.7zM4.3 353.9h198.4v87.4H4.3zM4.3 179h198.4v87.4H4.3zM798 4.1h198.4v87.4H798zM798 91.5h198.4v87.4H798zM401.1 266.4h198.4v87.4H401.1zM4.3 441.3h198.4v87.4H4.3z"/><path fill="none" stroke="#000" stroke-miterlimit="10" stroke-width=".5" d="M202.7 353.9h198.4v87.4H202.7zM401.1 353.9h198.4v87.4H401.1zM202.7 441.3h198.4v87.4H202.7zM401.1 91.5h198.4v87.4H401.1zM798 179h198.4v87.4H798zM599.5 4.1h198.4v87.4H599.5zM798 353.9h198.4v87.4H798zM202.7 179h198.4v87.4H202.7zM401.1 179h198.4v87.4H401.1zM599.5 91.5h198.4v87.4H599.5zM4.3 266.4h198.4v87.4H4.3z"/><path fill="#478AFF" d="M71.9 127.9c-4.1 0-7.3 3.3-7.3 7.3s3.3 7.3 7.3 7.3c4.1 0 7.3-3.3 7.3-7.3s-3.3-7.3-7.3-7.3M82.4 121.9c1.8 0 3.3 1.5 3.3 3.3s-1.5 3.3-3.3 3.3c-1.8 0-3.3-1.5-3.3-3.3s1.5-3.3 3.3-3.3"/><path fill="#478AFF" d="m86.5 128.6-.1-.3-.2.3c-.5.6-1.2 1.1-2 1.4l-.2.1.1.2c2.8 6.7-.4 14.4-7.1 17.2-6.7 2.8-14.4-.4-17.2-7.1-2.8-6.7.4-14.4 7.1-17.2 3.4-1.4 7.3-1.3 10.7.3l.2.1.1-.2c.3-.8.8-1.4 1.5-1.9l.3-.2-.3-.2c-2.3-1.2-4.8-1.8-7.4-1.8-8.9 0-16.1 7.2-16.1 16.1 0 8.9 7.2 16.1 16.1 16.1 8.9 0 16.1-7.2 16.1-16.1-.1-2.4-.6-4.7-1.6-6.8zM96.3 128.3h3.4v14h-3.4zM132.9 128.3h3.4v14h-3.4zM125.1 127.9c-2.4 0-4.2 1.4-4.7 1.8l-.2-1.5h-2.8v14h3.4v-8.5c0-1.7 2.3-3 3.9-3 1.7 0 2.9 1.6 2.9 3.5v8h3.4v-7.7c0-3.6-1.6-6.6-5.9-6.6M145.2 139.7c-2.6 0-4.2-2-4.2-4.5s1.7-4.5 4.2-4.5c2.2 0 3.5 2.1 3.5 2.1l2.5-1.6c-.7-1.1-1.5-1.8-2.7-2.4-1-.6-2.1-.9-3.2-.9-4.2 0-7.5 3.2-7.5 7.3s3.3 7.3 7.5 7.3c1.1 0 2.2-.3 3.2-.9 1.1-.7 1.9-1.3 2.7-2.4l-2.5-1.6s-1.3 2.1-3.5 2.1M108.5 127.9c-4-.1-7.3 3.1-7.3 7.1v.2c0 4 3 7.4 7.4 7.4 4 0 7.3-3.1 7.3-7.3-.1-4.9-3.9-7.4-7.4-7.4m.1 2.9c2.1 0 4.1 1.7 4.1 4.5 0 2.7-2 4.5-4.1 4.5-2.3 0-4.2-1.9-4.2-4.5s1.8-4.5 4.2-4.5z"/><path fill="#D91404" d="M508 46.5c-5.3 3.4-10.5 6.8-15.9 10.2 8 1.1 15.9 2.2 24 3.3L508 46.5m10.4-15c-.7 1.1-1.4 2.1-2.1 3.2-2.4 3.7-4.9 7.3-7.3 11-.1.2-.3.4-.1.7 2.3 3.9 4.7 7.8 7 11.6.4.6.7 1.2 1.2 1.8l1.4-28.3h-.1zm-32.1 12c.1.1.4.2.5.1 2.3-1.1 4.5-2.2 6.7-3.4.7-.4 1.3-1.1 1.9-1.7 2-1.9 4.1-3.8 6.1-5.6.1-.1.3-.2.3-.4.7-1.4 1.5-2.9 2.2-4.4-.9-.3-1.7-.7-2.6-1-.1 0-.3 0-.4.1-2 1.1-4 2.2-5.9 3.4-1 .6-1.7 1.5-2.6 2.3-1.4 1.3-2.7 2.5-4.1 3.8-.4.3-.7.7-1 1.1-.9 1.3-1.8 2.7-2.8 4.1.8.6 1.2 1.2 1.7 1.6m8.3-1.8c-1.1 4.7-2.2 9.4-3.4 14.3 5.4-3.5 10.7-6.9 15.9-10.2-4.2-1.4-8.3-2.7-12.5-4.1m8.9-7.9 4.6 11.2c3-4.5 5.9-8.9 8.9-13.4-4.5.7-9 1.4-13.5 2.2m-8.7 6.9c4.1 1.3 8.1 2.6 12.3 4l-4.5-11.1-7.8 7.1zm-8.3 5.6-4.3 10.3c2.8-.1 5.4-.2 8.2-.2-1.3-3.4-2.6-6.7-3.9-10.1m4 7.6h.1c1-4.1 2-8.1 3-12.4-2.2 1.2-4.4 2.3-6.6 3.4 1.1 3 2.3 6 3.5 9m24.9-23.1c-1.3-.3-2.6-.7-3.9-1-1.9-.5-3.8-1-5.6-1.5-.2-.1-.4-.1-.5.2-.7 1.4-1.3 2.7-2 4.1v.2c3.9-.6 7.9-1.3 12-2zm-7.6-3.1c3.5 1 7 1.9 10.6 2.9l-1.8-5c-2.9.7-5.8 1.4-8.8 2.1zm3.2 32.5-8.7-1.2c-3.6-.5-7.2-1-10.9-1.5-1.3-.2-2.7 0-4 0-1.1 0-2.2.1-3.3.1-.1 0-.2 0-.3.1 9.1.8 18.2 1.7 27.2 2.5zm-28.6-6.8c1.2-2.7 2.3-5.4 3.5-8.1.1-.3.1-.5-.1-.7-.5-.5-.9-1-1.5-1.5l-2.1 10.6h.1c0-.1.1-.2.1-.3M505.5 27c2-.5 4-.9 6-1.4.1 0 .3-.1.4-.1v-.1l-8.5 1.1c.6.5 1.3.7 2.1.5m-18.6 41.9v3.5H485v-9.1h2.7c1.2 0 2.2.2 2.7.7.6.5.9 1.1.9 2.1 0 .5-.1 1-.4 1.4-.3.4-.7.7-1.3 1l2.7 4h-2.1L488 69l-1.1-.1zm0-1.6h.6c.6 0 1.1-.1 1.4-.3.3-.2.4-.5.4-1 0-.4-.1-.7-.4-.9-.3-.2-.8-.3-1.4-.3h-.6v2.5zm11.3 5.1-.3-.9h-.1c-.2.3-.5.6-.9.8-.4.2-.8.3-1.3.3-.8 0-1.4-.2-1.9-.7-.4-.4-.6-1.1-.6-1.9v-4.5h1.9v4.1c0 .5.1.9.3 1.1.2.3.5.4.9.4.5 0 .9-.2 1.2-.5.2-.4.4-.9.4-1.8v-3.3h1.9v7l-1.5-.1zm7.3-7.1c.8 0 1.5.3 1.9 1 .5.6.7 1.5.7 2.6s-.2 2-.7 2.7c-.5.6-1.1.9-2 .9-.8 0-1.5-.3-1.9-.9h-.1l-.3.8h-1.5v-9.7h1.9V65c0 .3 0 .7-.1 1.4h.1c.5-.8 1.2-1.1 2-1.1m-.6 1.5c-.5 0-.8.1-1 .4s-.3.8-.3 1.4v.2c0 .7.1 1.3.3 1.6.2.3.6.5 1.1.5.4 0 .7-.2.9-.5.2-.4.3-.9.3-1.6s-.1-1.2-.3-1.5c-.3-.3-.6-.5-1-.5m3.7-1.4h2.1l1.3 3.9c.1.3.2.7.2 1.2 0-.4.1-.8.3-1.2l1.3-3.9h2l-2.9 7.9c-.3.7-.7 1.3-1.2 1.6-.5.4-1.1.5-1.8.5-.3 0-.6 0-1-.1v-1.5c.2.1.5.1.7.1.3 0 .6-.1.9-.3.3-.2.4-.5.6-.9l.1-.3-2.6-7z"/><path fill="#F7DF1E" d="M877 378.8h40v40h-40z"/><path d="M903.9 410c.8 1.3 1.9 2.3 3.7 2.3 1.6 0 2.5-.8 2.5-1.9 0-1.3-1-1.7-2.7-2.5l-.9-.4c-2.7-1.2-4.5-2.6-4.5-5.7 0-2.8 2.1-5 5.5-5 2.4 0 4.1.8 5.3 3l-2.9 1.9c-.6-1.2-1.3-1.6-2.4-1.6-1.1 0-1.8.7-1.8 1.6 0 1.1.7 1.6 2.3 2.3l.9.4c3.2 1.4 5 2.8 5 5.9 0 3.4-2.7 5.2-6.2 5.2s-5.7-1.7-6.8-3.8l3-1.7zm-13.3.4c.6 1 1.1 1.9 2.4 1.9 1.2 0 2-.5 2-2.4v-12.8h3.8V410c0 3.9-2.3 5.7-5.6 5.7-3 0-4.7-1.6-5.6-3.4l3-1.9zM89.6 198.1h2.2v2.2h2v-2.2H96v6.6h-2.2v-2.2h-2v2.2h-2.2m9.4-4.4h-2v-2.2h6.1v2.2h-2v4.4H99m5.1-6.6h2.3l1.4 2.3 1.4-2.3h2.3v6.6h-2.2v-3.3l-1.5 2.4-1.5-2.4v3.3h-2.2m8.6-6.6h2.2v4.4h3.1v2.2h-5.3"/><path fill="#E44D26" d="m89.5 243.4-3.2-35.6h34.9l-3.2 35.5-14.3 4"/><path fill="#F16529" d="M103.8 244.3v-33.6H118l-2.7 30.4"/><path fill="#EBEBEB" d="M92.8 215.1h10.9v4.4h-6.2l.4 4.5h5.8v4.4H94m.2 2h4.4l.3 3.5 4.9 1.3v4.6l-9-2.5"/><path fill="#FFF" d="M114.7 215.1h-10.9v4.4h10.5m-.4 4.4h-10.1v4.4h5.4l-.5 5.7-4.9 1.3v4.5l8.9-2.5"/><defs><path id="a" d="M1084.6 289.5c-.3 0-.6.3-.6.6v38.1c0 .3.3.6.6.6h31.4c.3 0 .6-.3.6-.6v-29.7c0-2.7-7.2-9.1-9.8-9.1h-22.2z"/></defs><clipPath id="b"><use xlink:href="#a" overflow="visible"/></clipPath><linearGradient id="c" x1="766.795" x2="767.795" y1="1913.461" y2="1913.461" gradientTransform="matrix(15.1465 -22.1699 -23.0464 -14.5704 33580.938 45194.18)" gradientUnits="userSpaceOnUse"><stop offset="0" style="stop-color:#eeeeec"/><stop offset=".599" style="stop-color:#eeeeec"/><stop offset=".828" style="stop-color:#fff"/><stop offset="1" style="stop-color:#d3d7cf"/></linearGradient><path fill="url(#c)" d="m1065.2 317 28.6-41.9 41.6 26.3-28.6 41.9z" clip-path="url(#b)"/><defs><path id="d" d="M1108.1 289.6c.7.5.4 7.3.4 7.3 1 0 2 0 2.8-.1 2.4-.1 4.3-.3 5.3 1.6.3-4-6.2-8.8-8.3-8.8-.1-.1-.2-.1-.2 0"/></defs><clipPath id="e"><use xlink:href="#d" overflow="visible"/></clipPath><linearGradient id="f" x1="469.977" x2="470.977" y1="1695.549" y2="1695.549" gradientTransform="matrix(-2.1387 2.7767 2.4651 2.409 -2060.695 -5097.509)" gradientUnits="userSpaceOnUse"><stop offset="0" style="stop-color:#2e3436"/><stop offset="1" style="stop-color:#babdb6"/></linearGradient><path fill="url(#f)" d="m1120.7 293.3-7.6 9.9-8.9-8.6 7.6-10z" clip-path="url(#e)"/><path fill="none" stroke="#888A85" stroke-miterlimit="4.423" stroke-width=".973" d="M1108.1 289.6c1.9-.3 8.8 4.7 8.5 8.8-1.4-2.5-4.4-1.3-8.1-1.5 0-.1.3-6.8-.4-7.3z"/><g opacity=".369"><defs><path id="g" d="M1108.7 290.9h7.2v6.3h-7.2z"/></defs><clipPath id="i"><use xlink:href="#g" overflow="visible"/></clipPath><defs><filter id="h" width="5.3" height="4.2" x="1109.4" y="291.8" filterUnits="userSpaceOnUse"><feColorMatrix values="1 0 0 0 0 0 1 0 0 0 0 0 1 0 0 0 0 0 1 0"/></filter></defs><mask id="k" width="5.3" height="4.2" x="1109.4" y="291.8" maskUnits="userSpaceOnUse"><g filter="url(#h)"><linearGradient id="j" x1="739.337" x2="740.337" y1="2119.869" y2="2119.869" gradientTransform="matrix(6.171 0 0 -5.1943 -3453.501 11305.133)" gradientUnits="userSpaceOnUse"><stop offset="0" style="stop-color:#fff"/><stop offset="1" style="stop-color:#000"/></linearGradient><path fill="url(#j)" d="M1108.7 290.9h7.2v6.3h-7.2z" clip-path="url(#i)"/></g></mask><linearGradient id="l" x1="739.337" x2="740.337" y1="2119.889" y2="2119.889" gradientTransform="matrix(6.171 0 0 -5.1943 -3453.502 11305.13)" gradientUnits="userSpaceOnUse"><stop offset="0" style="stop-color:#fff"/><stop offset="1" style="stop-color:#fff"/></linearGradient><path fill="url(#l)" d="M1109.4 291.8c1.3.7 4.1 2.2 5.3 4.2-.6-.3-1.2-.4-1.8-.4-.9 0-1.9.2-3.4.2 0 0 .1-1.3.1-2.4-.1-.7-.1-1.3-.2-1.6.1.3.1.9.1 1.6 0 1.1-.1 2.4-.1 2.4 1.5 0 2.5-.2 3.4-.2.6 0 1.2.1 1.8.4-1.1-2-3.9-3.5-5.2-4.2z" clip-path="url(#i)" mask="url(#k)"/></g><path fill="#CE5C00" d="M1073.1 297.9h33.1v19.9h-33.1z"/><path fill="none" stroke="#CE5C00" stroke-linecap="round" stroke-linejoin="round" stroke-miterlimit="4.423" stroke-width="1.057" d="M1073.1 297.9h33.1v19.9h-33.1z"/><path fill="#F57900" d="M1074 316.9h31.2v-18H1074z"/><path fill="none" stroke="#FCAF3E" stroke-linejoin="round" stroke-miterlimit="4.423" stroke-width=".924" d="M1074 316.9h31.2v-18H1074z"/><path fill="#FFF" d="M1076.2 302.1h1.4l2.5 4.4 2.5-4.4h1.4l-3.2 5.6 3.4 6.1h-1.4l-2.8-5-2.8 5h-1.4l3.5-6.2z"/><path fill="none" stroke="#FFF" stroke-width=".432" d="M1076.2 302.1h1.4l2.5 4.4 2.5-4.4h1.4l-3.2 5.6 3.4 6.1h-1.4l-2.8-5-2.8 5h-1.4l3.5-6.2-3.1-5.5"/><path fill="#FFF" d="M1086 302.1h2l2.5 8 2.5-8h2v11.7h-1.3v-10.3l-2.5 8.1h-1.4l-2.5-8.1v10.3h-1.3z"/><path fill="none" stroke="#FFF" stroke-width=".432" d="M1086 302.1h2l2.5 8 2.5-8h2v11.7h-1.3v-10.3l-2.5 8.1h-1.4l-2.5-8.1v10.3h-1.3v-11.7"/><path fill="#FFF" d="M1097.7 302.1h1.3v10.4h4.8v1.3h-6.1z"/><path fill="none" stroke="#FFF" stroke-width=".432" d="M1097.7 302.1h1.3v10.4h4.8v1.3h-6.1v-11.7"/><path fill="#264DE4" d="m120.9 295.2-3.2 35.6-14.2 3.9-14.3-3.9-3.1-35.6z"/><path fill="#2965F1" d="m115 328.5 2.7-30.4h-14.2v33.6z"/><path fill="#EBEBEB" d="m93.3 311.3.4 4.4h9.8v-4.4zM103.5 302.5h-11l.4 4.3h10.6zM103.5 327.2v-4.6l-4.9-1.3-.3-3.5h-4.4l.6 6.9 9 2.5z"/><path d="M94.3 285.5h5.2v2.2h-3v2.3h3v2.2h-5.2zM100.6 285.5h5.3v2h-3.1v.3h3.1v4.5h-5.3v-2.1h3.1v-.3h-3.1zM106.9 285.5h5.3v2h-3v.3h3v4.5h-5.3v-2.1h3.1v-.3h-3.1z"/><path fill="#FFF" d="m108.8 315.7-.5 5.6-4.8 1.3v4.6l8.9-2.5.1-.7 1-11.5.1-1.2.8-8.8h-10.9v4.3h6.1l-.4 4.5h-5.7v4.4z"/><path fill="#0072C6" fill-rule="evenodd" d="M897.5 30.9v40.2c-9.6 0-17.5-2.8-17.5-6.4V30.9h17.5z" clip-rule="evenodd"/><path fill="#0072C6" fill-rule="evenodd" d="M897.3 71.1V30.9H915v33.8c0 3.5-7.8 6.4-17.5 6.4h-.2z" clip-rule="evenodd"/><path fill="#0072C6" fill-rule="evenodd" d="M897.3 71.1V30.9H915v33.8c0 3.5-7.8 6.4-17.5 6.4h-.2z" clip-rule="evenodd"/><path fill="#FFF" fill-rule="evenodd" d="M915 30.9c0-3.5-7.8-6.4-17.5-6.4-9.6 0-17.5 2.8-17.5 6.4 0 3.5 7.8 6.4 17.5 6.4 9.6 0 17.5-2.9 17.5-6.4" clip-rule="evenodd"/><path fill="none" stroke="#0072C6" stroke-miterlimit="10" stroke-width=".25" d="M915 30.9c0-3.5-7.8-6.4-17.5-6.4-9.6 0-17.5 2.8-17.5 6.4 0 3.5 7.8 6.4 17.5 6.4 9.6 0 17.5-2.9 17.5-6.4"/><path fill="#7FBA00" fill-rule="evenodd" d="M911.4 30.5c0-2.3-6.2-4.2-13.9-4.2s-13.9 1.9-13.9 4.2c0 2.3 6.2 4.2 13.9 4.2s13.9-1.8 13.9-4.2" clip-rule="evenodd"/><path fill="#B8D432" fill-rule="evenodd" d="M908.5 33.1c-2.5-1-6.5-1.6-11-1.6s-8.4.6-11 1.6c-1.8-.7-2.9-1.6-2.9-2.6 0-2.3 6.2-4.2 13.9-4.2s13.9 1.9 13.9 4.2c0 1-1.1 1.9-2.9 2.6" clip-rule="evenodd"/><path fill="#FFF" fill-rule="evenodd" d="M891.9 54.4c0-.8-.2-1.4-.7-1.9-.4-.5-1.2-1-2.2-1.5-.7-.3-1.1-.6-1.4-.8-.2-.2-.3-.5-.3-.9 0-.3.1-.6.4-.8.3-.2.7-.3 1.1-.3.9 0 1.8.3 2.5.8v-2.3c-.7-.3-1.6-.4-2.7-.4-1.2 0-2.2.3-2.9.9-.7.6-1.1 1.4-1.1 2.4 0 1.4.8 2.5 2.5 3.2.8.4 1.4.7 1.6 1 .3.2.4.5.4.9 0 .3-.1.6-.4.8-.3.2-.7.3-1.2.3-1.1 0-2-.4-2.9-1.1v2.5c.8.4 1.7.6 2.9.6 1.3 0 2.4-.3 3.1-.9 1-.6 1.3-1.5 1.3-2.5zm11.9-2.5c0-1.1-.2-2.1-.7-2.9-.4-.9-1.1-1.5-1.9-2-.8-.5-1.7-.7-2.7-.7-1.1 0-2 .2-2.9.7-.8.5-1.5 1.2-2 2.1-.5.9-.7 1.9-.7 3.1 0 1 .2 2 .6 2.8.4.8 1 1.5 1.8 2s1.7.7 2.6.8l2.3 2.6h3.2l-3.2-3c1.1-.4 1.9-1.1 2.5-2 .8-1.1 1.1-2.2 1.1-3.5zm-2.6.1c0 1.1-.3 2-.8 2.6s-1.2.9-2 .9-1.5-.3-2-1c-.5-.6-.8-1.5-.8-2.6s.3-2 .8-2.6 1.2-1 2.1-1c.8 0 1.5.3 2 1 .4.7.7 1.6.7 2.7zm11 3.5h-4.1v-9.1h-2.5v11.1h6.6v-2z" clip-rule="evenodd"/><path d="M874.4 134.1H920v16.1c0 3.8-2.9 6.7-6.7 6.7H881c-3.8 0-6.7-2.9-6.7-6.7v-16.1z"/><path fill="#FFB13B" d="M883.6 131.6c-1.4-1.4-3.7-1.4-5.1 0-1.4 1.4-1.4 3.7 0 5.1s3.7 1.4 5.1 0h27.1c1.4 1.4 3.7 1.4 5.1 0 1.4-1.4 1.4-3.7 0-5.1-1.4-1.4-3.7-1.4-5.1 0h-27.1z"/><path fill="none" stroke="#000" stroke-miterlimit="7.937" stroke-width="6.131" d="M883.6 131.6c-1.4-1.4-3.7-1.4-5.1 0-1.4 1.4-1.4 3.7 0 5.1s3.7 1.4 5.1 0h27.1c1.4 1.4 3.7 1.4 5.1 0 1.4-1.4 1.4-3.7 0-5.1-1.4-1.4-3.7-1.4-5.1 0h-27.1z"/><path fill="#FFB13B" d="M889.4 122.7c0-2-1.6-3.6-3.6-3.6s-3.6 1.6-3.6 3.6 1.6 3.6 3.6 3.6l19.2 19.2c0 2 1.6 3.6 3.6 3.6s3.6-1.6 3.6-3.6-1.6-3.6-3.6-3.6l-19.2-19.2z"/><path fill="none" stroke="#000" stroke-miterlimit="7.937" stroke-width="6.131" d="M889.4 122.7c0-2-1.6-3.6-3.6-3.6s-3.6 1.6-3.6 3.6 1.6 3.6 3.6 3.6l19.2 19.2c0 2 1.6 3.6 3.6 3.6s3.6-1.6 3.6-3.6-1.6-3.6-3.6-3.6l-19.2-19.2z"/><path fill="#FFB13B" d="M899.7 120.5c1.4-1.4 1.4-3.7 0-5.1s-3.7-1.4-5.1 0-1.4 3.7 0 5.1v27.1c-1.4 1.4-1.4 3.7 0 5.1 1.4 1.4 3.7 1.4 5.1 0 1.4-1.4 1.4-3.7 0-5.1v-27.1z"/><path fill="none" stroke="#000" stroke-miterlimit="7.937" stroke-width="6.131" d="M899.7 120.5c1.4-1.4 1.4-3.7 0-5.1s-3.7-1.4-5.1 0-1.4 3.7 0 5.1v27.1c-1.4 1.4-1.4 3.7 0 5.1 1.4 1.4 3.7 1.4 5.1 0 1.4-1.4 1.4-3.7 0-5.1v-27.1z"/><path fill="#FFB13B" d="M908.6 126.3c2 0 3.6-1.6 3.6-3.6s-1.6-3.6-3.6-3.6-3.6 1.6-3.6 3.6l-19.2 19.2c-2 0-3.6 1.6-3.6 3.6s1.6 3.6 3.6 3.6 3.6-1.6 3.6-3.6l19.2-19.2z"/><path fill="none" stroke="#000" stroke-miterlimit="7.937" stroke-width="6.131" d="M908.6 126.3c2 0 3.6-1.6 3.6-3.6s-1.6-3.6-3.6-3.6-3.6 1.6-3.6 3.6l-19.2 19.2c-2 0-3.6 1.6-3.6 3.6s1.6 3.6 3.6 3.6 3.6-1.6 3.6-3.6l19.2-19.2z"/><path fill="#FFB13B" d="M883.6 131.6c-1.4-1.4-3.7-1.4-5.1 0-1.4 1.4-1.4 3.7 0 5.1s3.7 1.4 5.1 0h27.1c1.4 1.4 3.7 1.4 5.1 0 1.4-1.4 1.4-3.7 0-5.1-1.4-1.4-3.7-1.4-5.1 0h-27.1z"/><path fill="#FFB13B" d="M889.4 122.7c0-2-1.6-3.6-3.6-3.6s-3.6 1.6-3.6 3.6 1.6 3.6 3.6 3.6l19.2 19.2c0 2 1.6 3.6 3.6 3.6s3.6-1.6 3.6-3.6-1.6-3.6-3.6-3.6l-19.2-19.2z"/><path fill="#FFB13B" d="M899.7 120.5c1.4-1.4 1.4-3.7 0-5.1s-3.7-1.4-5.1 0-1.4 3.7 0 5.1v27.1c-1.4 1.4-1.4 3.7 0 5.1 1.4 1.4 3.7 1.4 5.1 0 1.4-1.4 1.4-3.7 0-5.1v-27.1z"/><path fill="#FFB13B" d="M908.6 126.3c2 0 3.6-1.6 3.6-3.6s-1.6-3.6-3.6-3.6-3.6 1.6-3.6 3.6l-19.2 19.2c-2 0-3.6 1.6-3.6 3.6s1.6 3.6 3.6 3.6 3.6-1.6 3.6-3.6l19.2-19.2z"/><path d="M874.4 134.1H920v16.1c0 3.8-2.9 6.7-6.7 6.7H881c-3.8 0-6.7-2.9-6.7-6.7v-16.1z"/><path fill="#FFF" d="M881.2 145.5c-1.1-1.1-1.7-2.5-1.7-4.2 0-3.3 2.6-5.9 5.9-5.9 3.3 0 5.9 2.6 5.9 5.9h-3.5c0-1.4-1.1-2.4-2.5-2.4s-2.5 1.1-2.5 2.4c0 .7.3 1.3.7 1.7.4.4.8.6 1.7.7 1.6.2 3.1.7 4.2 1.7 1.1 1.1 1.7 2.5 1.7 4.2 0 3.3-2.7 5.9-5.9 5.9-3.3 0-5.9-2.7-5.9-5.9h3.5c0 1.4 1.1 2.5 2.5 2.5s2.5-1.1 2.5-2.5c0-.7-.3-1.3-.7-1.7-.4-.4-1.1-.6-1.7-.7-1.6-.2-3.1-.6-4.2-1.7M903.1 135.4l-4.1 20.2h-3.5l-4.2-20.2h3.5l2.4 11.8 2.5-11.8zM909.1 143.8h5.9v5.9c0 3.3-2.6 5.9-5.9 5.9-3.3 0-5.9-2.7-5.9-5.9v-8.4c0-3.3 2.6-5.9 5.9-5.9 3.3 0 5.9 2.6 5.9 5.9h-3.5c0-1.4-1.1-2.4-2.4-2.4-1.4 0-2.5 1.1-2.5 2.4v8.4c0 1.4 1.1 2.5 2.5 2.5s2.4-1.1 2.4-2.4v-2.4h-2.4v-3.6z"/><path fill="#ECDFA7" d="m129.1 398.9-2.7 19.3s-4.4 1.6-8.4-1.8l4.4-18.7-8.2-16.7s3.3-1.4 5.3-.9l7.3 13.7 12.6-10.7s4.2 1.5 4.6 2.9l-14.9 12.9z"/><path fill="#3F3E29" d="M145.6 400.8c-.2-.4-.5-.8-.8-1.1-.6-.7-1.3-1.2-2.1-1.7-.7-.5-1.6-.9-2.4-1.1l-.3-.1c-.1 0-.2-.1-.3-.1-.2-.1-.3-.1-.5-.2-.3-.2-.5-.4-.6-.6-.3-.4-.3-1.1-.2-1.8 0-.2.1-.4.1-.5.1-.2.1-.4.2-.6.1-.3.1-.5.1-.9l.1-.1 1.8-1.5c.3-.3.6-.6 1-.8.1.1.2.1.3.2 0 0 .9.1 1.4-1.3l-.3-.2.2-.1.4-.4c.1-.1.3-.3.3-.5-.3 0-.4.1-.6.2l-.5.4-.3.2-4.1-2.8c.2-.2.4-.3.6-.5l.9-.8.1-.1.2.2c.2.1.4.3.6.4l1.3.7c.4.2.9.5 1.3.7.2.1.4.2.7.3.1 0 .2.1.4.1H144.9c.1 0 .1 0 .2-.1v-.2c0-.1 0-.1-.1-.1 0-.1-.1-.1-.1-.2l-.3-.3c-.2-.2-.4-.3-.6-.5-.4-.3-.8-.6-1.2-.8-.4-.3-.8-.5-1.3-.7-.2-.1-.4-.2-.7-.3-.1 0-.2-.1-.4-.1h-.4c-.1 0-.1.1-.2.1-.2.1-.4.2-.5.3l-.9.5c-.3.2-.6.4-.8.6l-.3-.2s-1.2.1-.8.9l.1.1c-1.2 1-2.3 2-3.5 2.9-1.2 1-2.3 2-3.5 3l-1.7 1.5-.3.3c-.1-.2-.1-.3-.2-.5l-.4-.9-.8-1.8c-.5-1.2-1.1-2.3-1.6-3.5l-1.6-3.5c-.1-.2-.2-.4-.3-.5h.4s.1-1-.6-1.1h-.3c-.3-.5-.5-1.1-.8-1.6l-.1-.4c0-.1-.1-.2-.2-.3-.1 0-.1-.1-.1-.1-.1 0-.1 0-.2-.1h-.4c-.3 0-.5 0-.7.1-.5.1-1 .1-1.4.3-.5.1-.9.2-1.4.4-.2.1-.5.1-.7.3-.1.1-.2.1-.4.2-.1 0-.1.1-.2.1l-.1.1s0 .1-.1.1v.1c0 .1.1.1.1.2.1 0 .1.1.1.1.1 0 .1 0 .2.1h.4c.2 0 .5 0 .7-.1.5-.1 1-.1 1.4-.2l1.4-.2c.2 0 .5-.1.7-.1.2.4.4.9.6 1.3-1.4.1-3.5.3-4.8.4-.1-.3-.3-.5-.4-.8 0-.1-.1-.1-.2-.1s-.1.1-.1.2c.1.2.2.4.3.7-.4.1-.7.1-.7.2-.1.3.3 1.6.9 2 0 0 .2-.1.6-.2.2.5.4.9.6 1.4l1.8 4 1.8 4c.6 1.3 1.2 2.6 1.8 4l-.3.9c-.2.8-.5 1.6-.7 2.5-.4 1.6-.9 3.3-1.3 5l-.6 2.5-.6 2.5c-.4 1.7-.8 3.3-1.3 5v.1c.2.3.6.6.9.8.3.2.6.4 1 .6.7.4 1.4.6 2.1.9.7.2 1.5.4 2.3.4.4 0 .8 0 1.2-.1.4-.1.8-.1 1.2-.2.1 0 .2-.1.2-.3.3-1.6.6-3.3.9-4.9l.8-4.9c.3-1.6.6-3.3.8-4.9 0-.2.1-.4.1-.6.1.1.1.1.1.2.3.4.6.6 1 .9.7.5 1.5.9 2.2 1.2.8.3 1.6.5 2.3.7.5.1 1 .2 1.6.3-.2.5-.4 1.1-.4 1.7 0 .1 0 .1.1.1.6.3 1.1.5 1.8.7.6.1 1.3.2 1.9.1.7-.1 1.4-.4 1.9-.8s.9-1 1.1-1.6c0-.3.1-.5.1-.8l.9-.6c.4-.3.7-.6.9-1 .2-.4.4-.9.4-1.4.7-.7.6-1.2.4-1.6M142.9 384.4c.4.2.8.5 1.2.8.2.1.4.3.6.4.1.1.2.1.2.2l.1.1h-.1c-.1 0-.2-.1-.3-.1l-.6-.3c-.4-.2-.9-.4-1.2-.7-.4-.3-.8-.6-1.1-.9-.1-.1-.2-.2-.3-.4.1.1.3.1.4.2.3.3.7.5 1.1.7m-2-1.3c.1.1.1.1 0 0zm-20.9-3.2c-.4.2-.9.4-1.3.5-.5.1-.9.2-1.4.2h-1.1.1c.1-.1.2-.1.3-.1.2-.1.4-.1.6-.2.4-.1.9-.2 1.4-.3.5-.1.9-.1 1.4-.2h.4c-.1-.1-.3 0-.4.1m20.4 10-1.8 1.4-1.8 1.4-1.5 1.2.1-.1c.2-.3.5-.6.7-.9l1.5-1.8c.5-.6 1.1-1.1 1.6-1.6.3-.3.6-.5.9-.7.1-.1.2-.1.3-.2.3.2.6.4.8.6-.3.3-.6.5-.8.7m-21.6-3.6.1.1c.3.3.6.6.8.9s.4.7.5 1c.1.3.1.6-.1.9v-.1l-1.3-2.8zm1.5 3c.1-.1.1-.2.2-.4s.1-.4.1-.6c-.1-.4-.3-.9-.5-1.2-.4-.5-.9-.9-1.4-1.3l-.3-.7c-.2-.4-.4-.9-.6-1.3.4-.1 1-.3 1.6-.4.5.9 1 1.7 1.4 2.6.5 1.1 1 2.3 1.1 3.6v1.9c0 .4.1.9.2 1.4l-1.8-3.6zm6.9 23.9c-.1.1-.1.2-.3.3-.1.1-.3.2-.5.1-.1 0-.3-.2-.3-.3-.1-.1-.1-.3-.1-.5 0-.4 0-.7.1-1.1.1-.4.2-.7.3-1 .1-.1.2-.3.3-.4.1-.1.3-.2.4-.2.1 0 .3.1.4.3.1.1.1.2.1.3l-.4 2.1v.4m1.7-10.1c-.2 1-.4 2.1-.5 3.1 0-.2-.1-.4-.1-.6-.1-.6-.3-1.1-.5-1.6-.4-1.1-.8-2.1-1.3-3.1.3 1.1.7 2.1 1.1 3.2.2.5.4 1.1.6 1.6.1.3.2.5.3.8v.1c-.1.5-.2.9-.2 1.4l-.4 2.7c0-.1 0-.1-.1-.2-.1-.2-.2-.4-.4-.4-.2-.1-.4.1-.6.2l-.4.4c-.2.3-.3.7-.4 1.1-.1.4-.1.8 0 1.1 0 .2.1.4.2.6.1.2.3.4.5.4s.4-.1.5-.2l.2-.2-.6 4.2c-.3.1-.5.1-.8.2-.4.1-.7.1-1.1.1-.7 0-1.4 0-2.2-.2-.7-.1-1.4-.4-2.1-.7-.6-.3-1.3-.7-1.7-1.2.4-1.6.9-3.2 1.4-4.8l.8-2.4.7-2.5c.5-1.6 1-3.3 1.5-4.9.2-.8.4-1.6.7-2.5.2-.9.5-1.6.3-2.6h-.1c-.1.1-.2.3-.4.4-.3-.7-.7-1.4-1-2.2-.1-.3-.2-.5-.2-.8-.1-.6-.3-1.2-.3-1.8v-1.9c-.1-1.3-.6-2.5-1.2-3.7-.4-.9-1-1.8-1.6-2.6 1-.3 2-.5 2.8-.7.1.3.3.5.4.8l1.8 3.5c.6 1.1 1.2 2.3 1.8 3.4l.9 1.7.4.9c.1.2.2.4.3.5-.4.4-.8.7-1.1 1.1 0 0-.1.1 0 .1 0 .1.1.1.1 0 .6-.4 1.2-.9 1.8-1.4l1.9-1.4c1.2-.9 2.4-1.9 3.6-2.8 1.2-.9 2.4-1.9 3.6-2.9.6.6 1.6 1.5 2.6 2.3-.4.2-.9.5-1.2.8-.6.5-1.2 1-1.7 1.6l-1.5 1.8c-.3.4-.6.9-.9 1.4-1.8 1.5-3.6 3-5.3 4.5-.1.1-.1.1 0 .2s.1.1.2.1c-.2.6-.3 1.2-.4 1.8-.3.6-.5 1.4-.7 2.2m13 3.9c-.4.3-.9.5-1.4.6-.5.1-1.1.1-1.7.1-.5-.1-1.1-.1-1.6-.3-.1-.5 0-1 .2-1.5.2 0 .4 0 .6.1.1 0 .1 0 .2-.1 0-.1 0-.2-.1-.2-.1-.1-.3-.1-.4-.1.1-.2.3-.4.4-.6l.5-.5 1.2.6c.5.1 1 .2 1.6.1.5-.1 1.1-.3 1.4-.8.3-.4.5-.8.5-1.3.1.2.1.4 0 .6 0 .2-.1.5-.1.7 0 .1-.1.3-.1.4-.1.1-.3.2-.4.3-.2.1-.3.2-.5.5.3.1.5.1.7 0h.1c0 .1 0 .1-.1.2-.2.5-.6.9-1 1.2m2.9-3.8c-.1.3-.4.6-.6.9-.1.1-.3.2-.4.3 0-.3 0-.5-.1-.8 0-.1-.1-.3-.1-.4-.1-.1-.1-.3-.3-.4h-.1c-.2.4-.5.8-.8 1.1-.3.3-.7.4-1.1.4-.4 0-.9-.1-1.3-.2s-.9-.3-1.3-.4h-.1c-.1 0-.2 0-.3.1l-.6.9c-.1.2-.3.4-.4.7-.5-.2-1-.4-1.6-.6-.7-.3-1.5-.6-2.1-.9-.7-.3-1.4-.7-2-1.1-.6-.4-1.1-.9-1.4-1.5-.1-.1-.1-.2-.3-.3v-.2c.1-.7.2-1.4.1-2.1 2.4-1.7 4.7-3.4 7-5.3 0 .1-.1.2-.1.3-.1.4-.2.9-.2 1.4 0 .5.2 1.1.5 1.5s.8.8 1.2 1c.2.1.5.2.7.3.1 0 .2.1.4.1l.3.1c.8.2 1.5.5 2.2.9.7.4 1.3.9 1.9 1.4.5.5.9 1.2 1 1.9.1.2.1.6-.1.9"/><path fill="#3F3E29" d="M125.3 409.9c-.2.3-.4.7-.5 1.1-.1.2-.1.4-.1.6v.6c-.1.8 0 1.6.2 2.3.2.8.6 1.5.9 2.1-.1-.4-.3-.7-.4-1.1-.1-.4-.2-.7-.3-1.1-.2-.7-.2-1.5-.1-2.3v-.6c0-.2 0-.4.1-.6.1-.4.2-.7.4-1 .2-.3.4-.6.7-.9.3-.3.6-.5.9-.7-.7.5-1.3 1-1.8 1.6M71.4 406.9h-6.1v-.7c.2 0 .4 0 .7-.1.3 0 .5-.1.7-.1.2-.1.4-.2.5-.4.1-.2.1-.4.1-.7v-5.3h-6.9v5.1c0 .2 0 .4.1.6.1.2.2.3.5.4.1.1.3.1.6.2s.5.1.7.1v.7h-6.1v-.7c.2 0 .4 0 .7-.1.3 0 .5-.1.7-.1.2-.1.4-.2.5-.4.1-.2.1-.4.1-.7V394c0-.2 0-.4-.1-.6-.1-.2-.2-.3-.5-.4-.2-.1-.4-.2-.7-.2-.3-.1-.5-.1-.7-.1v-.7h6.1v.7c-.2 0-.4 0-.7.1-.3.1-.5.1-.6.2-.2.1-.4.2-.5.4-.1.2-.1.4-.1.6v4.6h6.9v-4.5c0-.2 0-.4-.1-.6-.1-.2-.2-.3-.5-.4-.2-.1-.4-.2-.7-.2-.3-.1-.5-.1-.7-.1v-.7h6.1v.7c-.2 0-.4 0-.7.1-.3.1-.5.1-.6.2-.2.1-.4.2-.5.4-.1.2-.1.4-.1.6v10.7c0 .2 0 .4.1.6.1.2.2.3.5.4.1.1.3.1.6.2s.5.1.7.1v.8zM82.9 406.7l-.9.3c-.2.1-.5.1-.8.1-.5 0-1-.1-1.3-.4-.3-.3-.5-.6-.6-1.1h-.1c-.5.5-.9.9-1.5 1.1-.5.3-1.1.4-1.9.4-.8 0-1.4-.2-1.9-.7-.5-.5-.7-1.1-.7-1.9 0-.4.1-.8.2-1.1.1-.3.3-.6.5-.8.2-.2.4-.4.7-.6.3-.2.6-.3.8-.4.3-.1.9-.3 1.9-.7 1-.3 1.6-.6 1.9-.8v-1c0-.1 0-.3-.1-.5 0-.3-.1-.5-.2-.7-.1-.3-.3-.5-.6-.7-.3-.2-.6-.3-1.1-.3-.3 0-.6.1-.9.2-.3.1-.5.2-.6.3 0 .1 0 .3.1.6s.1.5.1.8c0 .2-.1.5-.3.7-.2.2-.5.3-.9.3-.3 0-.6-.1-.8-.4-.2-.2-.2-.5-.2-.8 0-.3.1-.6.3-.9.2-.3.5-.6.9-.8.3-.2.7-.4 1.1-.5.4-.1.9-.2 1.3-.2.6 0 1.1 0 1.5.1.4.1.8.3 1.2.5.4.3.6.6.8 1 .2.4.3 1 .3 1.7v5.1c0 .3 0 .5.1.6.1.2.2.3.4.4.1.1.3.1.5.1h.7v1zm-3.6-5.5c-.6.2-1.1.3-1.6.5-.4.2-.9.4-1.2.6-.3.2-.6.5-.8.8-.2.3-.3.7-.3 1.2 0 .6.2 1 .5 1.3.3.3.7.4 1.2.4s.9-.1 1.3-.4c.4-.2.7-.5.9-.9v-3.5zM101.5 406.9h-5v-.7h.5c.2 0 .3 0 .4-.1.2-.1.3-.2.4-.3.1-.2.1-.4.1-.6v-5.3c0-.7-.2-1.3-.5-1.7-.3-.4-.7-.6-1.2-.6-.3 0-.7.1-1 .2-.3.1-.6.3-.8.4-.2.2-.4.3-.5.5-.1.2-.2.3-.3.4v5.9c0 .2 0 .4.1.6.1.2.2.3.4.4.2.1.3.1.4.1.1 0 .3.1.5.1v.7h-4.9v-.7h.5c.1 0 .3 0 .4-.1.2-.1.3-.2.4-.3.1-.2.1-.4.1-.6v-5.3c0-.7-.2-1.3-.5-1.7-.3-.4-.7-.6-1.2-.6-.3 0-.7.1-1 .2-.3.1-.6.3-.8.4-.2.2-.4.3-.5.5-.1.2-.2.3-.3.4v5.9c0 .2 0 .4.1.6.1.2.2.3.4.4.1.1.3.1.4.2.2 0 .3.1.5.1v.7h-5v-.7h.5c.2 0 .3 0 .4-.1.2-.1.3-.2.4-.3s.1-.4.1-.6v-6.4c0-.2-.1-.4-.2-.6-.1-.2-.2-.3-.4-.5-.1-.1-.3-.2-.5-.2-.2-.1-.4-.1-.6-.1v-.7l3.4-.2.1.1v1.5h.1l.6-.6c.2-.2.5-.4.7-.6.2-.2.5-.3.9-.4.4-.1.8-.2 1.2-.2.7 0 1.2.2 1.7.5.5.4.8.8 1 1.3.2-.2.5-.5.7-.6.2-.2.4-.4.8-.6.3-.2.6-.3.9-.4.4-.1.8-.2 1.2-.2.9 0 1.6.3 2.1.9.5.6.8 1.4.8 2.6v5.2c0 .2 0 .4.1.6.1.2.2.3.4.4.2.1.3.1.5.1s.3.1.5.1v.6zM107.6 406.9h-5v-.7h.5c.2 0 .3 0 .4-.1.2-.1.3-.2.4-.3s.1-.4.1-.6v-11.9c0-.3-.1-.5-.2-.7-.1-.2-.2-.4-.4-.5-.1-.1-.4-.2-.7-.2-.3-.1-.6-.1-.8-.1v-.8l3.9-.2.1.2v14c0 .2 0 .4.1.6.1.2.2.3.4.4.2.1.3.1.5.2.1 0 .3.1.5.1v.6z"/><path fill="#729544" d="M72 474.2c-.2.4-.3.7-.5 1.1-.3.9-.4 1.9-.3 2.8.1.8.2 1.5.5 2.2.4 1 1.1 1.8 1.9 2.5.8.7 1.7 1.2 2.6 1.6 1.2.5 2.4 1 3.6 1.4 1.3.4 2.5.9 3.8 1.6.8.4 1.6.9 2.2 1.6.8.8 1.3 1.8 1.5 3 .2 1.5-.2 2.8-1.3 4-1 1.1-2.2 1.7-3.6 2.1-1.1.3-2.1.4-3.2.2-2.2-.3-4.1-1.1-5.8-2.4-.3-.2-.6-.5-.8-.7l-.1-.1c-.2-.2-.4-.2-.6 0l-.3.3c-.3-.2-.5-.5-.8-.7-1.8-1.8-3-3.9-3.7-6.3-.2-.9-.4-1.8-.4-2.8-.1-2.5.4-4.9 1.6-7.1.9-1.7 2.1-3.2 3.7-4.3-.1 0 0-.1 0 0 0-.1 0-.1 0 0"/><path fill="#93BD5A" d="M88.8 495.4c.1-.3.2-.5.3-.8.2-.6.3-1.3.3-1.9 0-.9-.1-1.8-.4-2.7-.3-.9-.9-1.7-1.6-2.4-.8-.8-1.7-1.4-2.7-1.9-1.4-.7-2.8-1.3-4.3-1.8-1-.3-2-.7-2.9-1.1-.9-.4-1.8-.9-2.6-1.5-.7-.6-1.3-1.4-1.6-2.4-.5-1.8-.2-3.4.9-4.8.6-.8 1.4-1.4 2.4-1.8.8-.3 1.6-.5 2.5-.6.6-.1 1.2-.1 1.8 0 .9.1 1.8.3 2.6.6 1 .3 1.9.8 2.7 1.3.1 0 .1.1.2.1.2.1.4.1.6-.1l.3-.3c.2.2.5.3.7.5 1.6 1.2 2.9 2.6 3.9 4.3.8 1.3 1.3 2.7 1.6 4.2.2 1 .3 1.9.2 2.9-.1 1.7-.4 3.4-1.1 5-.7 1.7-1.7 3.1-3 4.4-.3.3-.5.6-.8.8"/><path fill="#729544" d="M101.2 491.9c-.2-.1-.2-.3-.1-.5l.2-.3c.2-.2.4-.2.5-.1 1.4 1.3 2.9 1.9 4.6 1.9 1.1 0 2.1-.3 2.9-1 .8-.6 1.2-1.4 1.2-2.3 0-1-.4-1.8-1.2-2.4-.8-.6-2-1.2-3.6-1.7-1.6-.6-2.8-1.2-3.6-1.9-.8-.7-1.1-1.7-1.1-3 0-.5.1-1 .3-1.5.2-.5.5-.9.9-1.4.4-.4.9-.8 1.7-1.1.7-.3 1.5-.4 2.4-.4.7 0 1.4.1 2.1.3.7.2 1.2.4 1.6.6l.5.3c.2.1.2.3.1.5-.1.1-.1.2-.2.3-.1.2-.3.3-.5.1-1.2-.8-2.4-1.2-3.6-1.2-1.4 0-2.4.3-3.1 1-.7.7-1 1.4-1 2.3 0 1 .3 1.7 1 2.3.7.6 1.7 1.1 3.1 1.5 1.9.7 3.3 1.4 4.2 2.1.9.7 1.3 1.8 1.3 3.1 0 1.2-.5 2.2-1.6 3.1-1.1.9-2.3 1.3-3.8 1.3-.7 0-1.3-.1-2-.3-.6-.2-1.2-.4-1.7-.7-.5-.3-.8-.5-1-.6-.2 0-.4-.1-.5-.3M114.8 493.4v-16.6c0-.2.1-.3.3-.3h.4c.2 0 .3.1.3.3v16.6c0 .2-.1.3-.3.3h-.5c-.1 0-.2-.1-.2-.3M120.7 478.8c-.2.2-.4.2-.6.2-.2 0-.4-.1-.6-.2-.2-.2-.2-.3-.2-.6 0-.2.1-.4.2-.6.2-.2.4-.3.6-.3.2 0 .4.1.6.3.2.2.2.4.2.6.1.2 0 .4-.2.6m-1.1 14.6v-9.2c0-.2.1-.3.3-.3h.4c.2 0 .3.1.3.3v9.2c0 .2-.1.3-.3.3h-.5c-.1 0-.2-.1-.2-.3M124.4 493.4v-9.2c0-.2.1-.3.3-.3h.3c.1 0 .2.1.3.2l.1 1.1c.1-.2.3-.4.6-.6.2-.2.6-.4 1.1-.6.5-.2 1.1-.3 1.7-.3 1.5 0 2.6.6 3.2 1.8.1-.2.4-.4.6-.7.3-.2.7-.5 1.3-.8.6-.3 1.2-.4 1.8-.4 2.6 0 3.8 1.5 3.8 4.5v5.3c0 .2-.1.3-.3.3h-.5c-.2 0-.3-.1-.3-.3v-5.3c0-2.3-.9-3.4-2.8-3.4-1.3 0-2.3.6-3.3 1.7.1.5.2 1.1.2 1.8v5.3c0 .2-.1.3-.3.3h-.5c-.2 0-.3-.1-.3-.3v-5.3c0-1.1-.2-2-.7-2.6-.5-.6-1.2-.9-2.1-.9-.6 0-1.1.1-1.7.4-.5.3-.9.5-1.1.7-.2.2-.3.4-.4.5v7c0 .2-.1.3-.3.3h-.5c-.1.1-.2 0-.2-.2"/><path fill="#CD6799" d="M916.4 488c-1.9 0-3.5.5-4.8 1.1-.5-1-1-1.9-1.1-2.5-.1-.7-.2-1.2-.1-2.1.1-.9.6-2.2.6-2.3 0-.1-.1-.6-1.2-.6-1.1 0-2 .2-2.1.5-.1.3-.3.9-.4 1.6-.2 1-2.1 4.4-3.3 6.3-.4-.7-.7-1.3-.7-1.8-.1-.7-.2-1.2-.1-2.1.1-.9.6-2.2.6-2.3 0-.1-.1-.6-1.2-.6-1.1 0-2 .2-2.1.5-.1.3-.2.9-.4 1.6-.2.6-2.8 6.4-3.5 7.9l-.9 1.8v.1l-.3.6c-.1.3-.3.5-.4.5-.1 0-.2-.7 0-1.7.4-2 1.3-5.1 1.3-5.3 0-.1.2-.6-.6-.9-.8-.3-1 .2-1.1.2s-.1.2-.1.2.8-3.5-1.6-3.5c-1.5 0-3.7 1.7-4.7 3.2-.7.4-2.1 1.1-3.6 2-.6.3-1.2.6-1.7.9l-.1-.1c-3-3.2-8.5-5.4-8.3-9.7.1-1.6.6-5.6 10.6-10.6 8.2-4 14.7-2.9 15.8-.4 1.6 3.5-3.5 10.1-12 11.1-3.2.4-4.9-.9-5.4-1.4-.4-.5-.5-.5-.7-.4-.3.1-.1.6 0 .8.3.7 1.3 1.8 3.1 2.4 1.6.5 5.3.8 9.9-1 5.1-2 9.1-7.5 8-12.1-1.2-4.7-9-6.2-16.3-3.6-4.4 1.6-9.1 4-12.5 7.2-4.1 3.8-4.7 7.1-4.4 8.5.9 4.9 7.7 8.1 10.4 10.5-.1.1-.3.1-.4.2-1.4.7-6.5 3.4-7.8 6.2-1.5 3.2.2 5.5 1.4 5.9 3.5 1 7-.8 9-3.6 1.9-2.9 1.7-6.6.8-8.3v-.1c.4-.2.7-.4 1.1-.6.7-.4 1.4-.8 2-1.1-.3.9-.6 2-.7 3.5-.1 1.8.6 4.2 1.6 5.1.4.4 1 .4 1.3.4 1.1 0 1.7-1 2.2-2.1.7-1.4 1.3-3 1.3-3s-.8 4.3 1.4 4.3c.8 0 1.6-1 1.9-1.5l.1-.1c.1-.1.1-.2.1-.2.3-.5 1-1.8 2.1-3.8 1.3-2.6 2.6-6 2.6-6s.1.8.5 2.1c.2.8.7 1.7 1.1 2.5-.3.4-.5.7-.5.7-.3.3-.5.7-.8 1-1.1 1.3-2.3 2.7-2.5 3.1-.2.5-.2.9.2 1.1.3.2.8.2 1.3.2 1-.1 1.6-.3 2-.4.5-.2 1.1-.5 1.7-.9 1-.8 1.7-1.9 1.6-3.3 0-.8-.3-1.6-.6-2.3.1-.1.2-.3.3-.4 1.6-2.4 2.9-5 2.9-5s.1.8.5 2.1c.2.7.6 1.4.9 2.1-1.5 1.3-2.5 2.7-2.8 3.7-.6 1.8-.1 2.6.8 2.8.4.1 1-.1 1.4-.3.5-.2 1.2-.5 1.8-.9 1-.8 2-1.8 2-3.3 0-.7-.2-1.3-.4-1.9 1.3-.5 3-.8 5.2-.6 4.6.5 5.5 3.4 5.4 4.6-.2 1.2-1.1 1.9-1.5 2.1-.3.2-.4.3-.4.4 0 .2.2.2.5.2.4-.1 2.4-1 2.5-3.2-.1-2.8-2.9-5.9-7.7-5.9m-35.7 12.1c-1.5 1.7-3.7 2.3-4.6 1.8-1-.6-.6-3 1.3-4.8 1.1-1.1 2.6-2.1 3.6-2.7.2-.1.6-.3 1-.6.1 0 .1-.1.1-.1.1 0 .2-.1.2-.1.7 2.5 0 4.7-1.6 6.5m11.2-7.6c-.5 1.3-1.7 4.6-2.3 4.5-.6-.2-.9-2.7-.1-5.2.4-1.3 1.3-2.8 1.8-3.3.8-.9 1.8-1.2 2-.9.2.4-1.1 4-1.4 4.9m9.2 4.4c-.2.1-.4.2-.5.1-.1 0 .1-.2.1-.2s1.2-1.2 1.6-1.8c.3-.3.6-.7.9-1.2v.1c0 1.6-1.4 2.6-2.1 3m7.1-1.6c-.2-.1-.1-.5.4-1.7.2-.5.7-1.3 1.6-2 .1.3.2.6.2.9 0 1.8-1.4 2.5-2.2 2.8"/><path fill="#28334C" d="M495.5 380.4c0 .3-.1.5-.5.7-.6-.3-1.7-.5-2.7-.4-1.1.1-2 .4-1.8 1.1.2.7 1.2 1.1 3 1 4.5-.4 4.4-3.4 11-4 5.1-.5 8 1.1 8.3 3 .3 1.5-.9 2.9-4.6 3.2-3.3.3-5.2-.6-5.4-1.5-.1-.5.2-1.1 1.7-1.3.2.7 1.1 1.5 3.2 1.3 1.5-.1 2.8-.7 2.6-1.5-.2-.9-1.8-1.4-4.3-1.2-5.2.5-6.5 3.3-10.9 3.7-3.1.3-5.7-.9-6-2.6-.1-.6-.1-2.1 3.2-2.4 1.7 0 3 .3 3.2.9m-16.6 17.8c-1.4 1.8-2.1 4-2 6 .1 2.1 1.1 3.8 2.8 5.1 1.7 1.3 3.5 1.7 5.6 1.3.8-.1 1.7-.6 2.5-.8-1.7 0-3.1-.6-4.6-1.7-1.6-1.1-2.6-2.8-2.9-4.7-.4-1.8 0-3.5 1-5 1.1-1.4 2.6-2.3 4.6-2.5 2-.1 3.7.4 5.4 1.6-.4-.6-.9-.9-1.4-1.4-1.7-1.1-3.5-1.7-5.8-1.1-2 .3-3.7 1.4-5.2 3.2m22.8-9.8c-5.5 0-10.4-.6-13.9-1.3-3.8-.9-5.8-2-5.8-3.3 0-.6.3-1 1-1.6-2.4.9-3.7 1.7-3.7 2.9.1 1.3 2.3 2.6 6.6 3.7 4.1 1 9.3 1.6 15.6 1.6 6.4 0 11.5-.6 15.6-1.6 4.3-1 6.4-2.4 6.4-3.7 0-.9-.9-1.8-2.6-2.5.4.3.7.7.7 1.1 0 1.3-2 2.4-5.9 3.3-3.6.8-8.3 1.4-14 1.4m15.7 3.6c-4.1.9-9.3 1.6-15.6 1.6-6.4 0-11.7-.7-15.7-1.6-3.7-.9-5.6-2-6.3-3 .7 4.6 2.3 8.9 4.3 12.8 1.6 2.4 3.1 4.5 4.7 6.7.7 1.3 1.2 2.6 1.4 4 1 1.4 2.5 2.4 4.3 2.9 2.3.8 4.6 1.1 7 1h.3c2.4.1 4.9-.3 7.2-1 1.7-.6 3.1-1.4 4.2-2.9h.1c.3-1.3.7-2.6 1.3-4 1.6-2.3 3.1-4.3 4.7-6.7 2.1-3.8 3.5-8.1 4.3-12.8-.7 1.2-2.7 2.2-6.2 3"/><path fill="#3178C6" d="M285.4 465h32.2c2.2 0 3.9 1.8 3.9 3.9v32.2c0 2.2-1.8 3.9-3.9 3.9h-32.2c-2.2 0-3.9-1.8-3.9-3.9v-32.2c0-2.1 1.8-3.9 3.9-3.9"/><path fill="#FFF" fill-rule="evenodd" d="M306.3 496.9v3.9c.6.3 1.4.6 2.3.7.9.2 1.8.2 2.7.2.9 0 1.8-.1 2.7-.3.8-.2 1.6-.5 2.2-.9.6-.4 1.1-.9 1.5-1.6.4-.7.6-1.5.6-2.5 0-.7-.1-1.3-.3-1.9s-.5-1-.9-1.4c-.4-.4-.9-.8-1.4-1.1-.6-.3-1.2-.6-1.9-.9-.5-.2-1-.4-1.4-.6-.4-.2-.8-.4-1-.6-.3-.2-.5-.4-.7-.7-.2-.2-.2-.5-.2-.8 0-.3.1-.5.2-.7.1-.2.3-.4.6-.6.3-.2.6-.3.9-.4.4-.1.8-.1 1.2-.1.3 0 .7 0 1 .1.4 0 .7.1 1.1.2.4.1.7.2 1.1.4.3.2.7.3 1 .5v-3.7c-.6-.2-1.2-.4-2-.5-.7-.1-1.5-.2-2.4-.2-.9 0-1.8.1-2.6.3-.8.2-1.6.5-2.2.9-.6.4-1.1 1-1.5 1.6-.4.7-.6 1.4-.6 2.4 0 1.2.3 2.2 1 3 .7.8 1.7 1.5 3.1 2.1l1.5.6c.5.2.9.4 1.2.7.3.2.6.5.8.7.2.3.3.6.3.9 0 .3-.1.5-.2.7-.1.2-.3.4-.6.6-.2.2-.6.3-.9.4s-.8.1-1.3.1c-.8 0-1.7-.1-2.5-.4-.9-.1-1.7-.5-2.4-1.1m-6.6-9.7h5V484h-14v3.2h5v14.3h4v-14.3z" clip-rule="evenodd"/><path fill="#6762A6" d="M476.4 146.9H461c-1.3 0-2.4-1.1-2.4-2.4v-20.3c0-1.3 1.1-2.4 2.4-2.4h15.5c1.3 0 2.4 1.1 2.4 2.4v20.3c-.1 1.4-1.1 2.4-2.5 2.4z"/><path fill="#FFF" d="M471.3 143.5v-10s.6-2.4-8 1v-9.2h2.8v5.9s7.9-3.1 7.9 2.4v9.9h-2.7zm1.6-14.7h-3c1.1-1.3 2.1-3.6 2.1-3.6h3.1c-.1.1-.6 1.5-2.2 3.6m-9.6 14.7v-5.7l2.8 2.8-2.8 2.9z"/><path fill="#6762A6" d="M490 142.8v-8.2c0-.6-.4-.8-.9-.8-1.2 0-2.3.3-3.4.7v8.2h-2.3v-15.2h2.3v5c1.1-.4 2.4-.7 3.7-.7 2.1 0 2.9 1.3 2.9 3v7.9l-2.3.1zm6.6-5c.1 2.7.6 3.3 2.3 3.3 1.3 0 2.8-.4 4-.9l.4 1.7c-1.2.6-2.7 1.1-4.5 1.1-3.8 0-4.4-2.1-4.4-5.5 0-1.8.1-3.5.6-5 1.1-.4 2.7-.7 4.6-.7 3.1 0 4.1 1.7 4.1 4.8v1.2h-7.1zm2.9-4c-.7 0-1.8 0-2.7.2-.1.5-.2 1.1-.2 2.3h4.8c0-1.7-.3-2.5-1.9-2.5zm8.4.7v8.3h-2.3v-9.3c1.7-.9 3.5-1.4 5.3-1.5v1.9c-.9.1-2.1.2-3 .6zm9.1 8.5c-3.4 0-5-1.7-5-5.5 0-4.1 2.1-5.6 5-5.6 3.4 0 5 1.7 5 5.5 0 4.1-2 5.6-5 5.6m0-9.2c-1.8 0-2.7 1-2.7 3.7 0 3 .8 3.6 2.7 3.6 1.8 0 2.7-1 2.7-3.7.1-3-.8-3.6-2.7-3.6zm16.1 8.9h-2.7c-.6-1.7-1.5-3.5-2.9-4.9h-1.2v4.9H524v-15.2h2.3v8.7h1.1c1.1-1.2 2.1-2.6 2.7-4.2h2.6c-.9 1.8-2 3.4-3.3 4.6 1.5 2 2.7 4 3.7 6.1zm4.3.3c-2.1 0-2.9-1.3-2.9-3v-7.9h2.3v8.2c0 .6.4.8.9.8 1.2 0 2.4-.3 3.5-.7v-8.2h2.3v9.2c-2.7 1.5-4.8 1.6-6.1 1.6z"/><path fill="#3B62DE" d="M867.3 314.7c.2 0 .4.2.4.4v1c0 .2-.2.4-.4.4H861c-.2 0-.4-.2-.4-.4v-9.3c0-.2.2-.4.4-.4h6.2c.1 0 .2 0 .3.1.1.1.1.2.1.3v1c0 .2-.2.4-.4.4h-4.7v2.3h4.4c.2 0 .4.2.4.4v1c0 .2-.2.4-.4.4h-4.4v2.4h4.8zM876 316.5c-.1 0-.3 0-.4-.1-.1-.1-.1-.2-.2-.2l-4-6v6c0 .2-.2.4-.4.4h-1.2c-.2 0-.4-.2-.4-.4v-9.3c0-.2.2-.4.4-.4h1c.1 0 .3 0 .4.1.1.1.1.2.2.2l4.1 6v-6c0-.2.2-.4.4-.4h1.2c.2 0 .4.2.4.4v9.3c0 .2-.2.4-.4.4H876zM879.3 310.1c0-.5.1-1.1.3-1.6.2-.5.5-.9.8-1.2.4-.4.9-.6 1.4-.8 1.3-.4 2.7-.4 3.9 0 .5.2.9.4 1.3.8.3.3.5.6.7.9.1.3.2.5.2.8 0 .1 0 .2-.1.3-.1.1-.2.1-.3.1h-1.2c-.1 0-.2 0-.3-.1-.1 0-.1-.1-.1-.2 0 0-.1-.1-.2-.3-.1-.2-.2-.3-.4-.4-.2-.2-.4-.3-.7-.4-.3-.1-.7-.2-1.1-.2-.6 0-1.2.2-1.7.6-.4.4-.7 1-.7 1.6v2.4c0 .8.3 1.4.7 1.7.5.4 1.1.6 1.7.5.3 0 .7 0 1-.1.3-.1.5-.2.8-.4.2-.2.4-.4.5-.7.1-.3.2-.7.2-1v-.1h-1.8c-.2 0-.4-.2-.4-.4v-1c0-.1 0-.2.1-.3.1-.1.2-.1.3-.1h3.3c.1 0 .2 0 .3.1.1.1.1.2.1.3v1.6c0 .5-.1 1.1-.3 1.6-.2.5-.5.9-.8 1.3-.4.4-.9.6-1.4.8-1.2.4-2.6.4-3.8 0-.5-.2-1-.4-1.3-.8-.4-.4-.6-.8-.8-1.3-.2-.5-.3-1.1-.3-1.6V310.5c.1 0 .1-.2.1-.4M890.3 316.5c-.2 0-.4-.2-.4-.4v-9.3c0-.2.2-.4.4-.4h1.2c.2 0 .4.2.4.4v9.3c0 .2-.2.4-.4.4h-1.2zM900.7 316.5c-.1 0-.3 0-.4-.1-.1-.1-.1-.2-.2-.2l-4.1-6v6c0 .2-.2.4-.4.4h-1.2c-.2 0-.4-.2-.4-.4v-9.3c0-.2.2-.4.4-.4h1c.1 0 .3 0 .4.1.1.1.1.2.2.2l4 6v-6c0-.2.2-.4.4-.4h1.2c.2 0 .4.2.4.4v9.3c0 .2-.2.4-.4.4h-.9zM911.1 314.7c.2 0 .4.2.4.4v1c0 .2-.2.4-.4.4h-6.3c-.2 0-.4-.2-.4-.4v-9.3c0-.2.2-.4.4-.4h6.2c.2 0 .4.2.4.4v1c0 .2-.2.4-.4.4h-4.7v2.3h4.4c.2 0 .4.2.4.4v1c0 .1 0 .2-.1.3-.1.1-.2.1-.3.1h-4.4v2.4h4.8zM923.9 306.3c.2 0 .4.2.4.4v.1l-3.4 6v3.2c0 .2-.2.4-.4.4h-1.2c-.2 0-.4-.2-.4-.4v-3.2l-3.4-6v-.1c0-.1 0-.2.1-.3.1-.1.2-.1.3-.1h1.1c.2 0 .3 0 .4.1l.2.2 2.3 4.1 2.3-4.1c0-.1.1-.2.2-.2.1-.1.3-.2.4-.1h1.1zM929.4 306.3c.1 0 .3 0 .3.1.1.1.2.2.2.4l3.5 9.1c.1.2-.1.4-.3.5H932c-.1 0-.3 0-.4-.1l-.2-.2-.6-1.6h-4.6l-.6 1.6c0 .1-.1.2-.2.2-.1.1-.3.1-.4.1h-1c-.1 0-.2 0-.3-.1-.1-.1-.1-.2-.1-.3v-.1l3.5-9.1c0-.1.1-.3.2-.4.1-.1.2-.1.3-.1h1.8zm.8 6.4-1.6-4.1-1.6 4.1h3.2zM938.9 306.3c1.2 0 2.1.3 2.7.8.6.6.9 1.3.9 2.3 0 .6-.1 1.3-.5 1.8-.3.5-.8.9-1.4 1.1l2 3.6v.2c0 .2-.1.3-.3.3h-1.2c-.2 0-.3 0-.4-.1-.1-.1-.1-.2-.2-.3l-1.9-3.4h-1.9v3.4c0 .2-.2.4-.4.4h-1.2c-.2 0-.4-.2-.4-.4v-9.3c0-.2.2-.4.4-.4h3.8zm-2.1 4.6h2.1c.5 0 .9-.1 1.3-.3.3-.2.5-.6.5-1.1 0-.5-.2-.9-.5-1.1-.4-.2-.9-.3-1.3-.3h-2.1v2.8zM948.5 306.3c.6 0 1.3.1 1.9.3 1 .3 1.8 1.1 2.1 2.1.2.5.3 1.1.3 1.6v2.1c0 .6-.1 1.1-.3 1.6-.2.5-.5.9-.8 1.3-.4.4-.8.6-1.3.8-.6.2-1.2.3-1.8.3H945c-.2 0-.4-.2-.4-.4v-9.3c0-.2.2-.4.4-.4h3.5zm2.3 4c0-.3-.1-.6-.2-.9-.1-.3-.3-.5-.4-.7-.2-.2-.5-.4-.8-.5-.3-.1-.7-.2-1.1-.2h-1.9v6.5h2c.3 0 .7 0 1-.2.3-.1.5-.3.7-.5.2-.2.3-.4.4-.7.1-.3.2-.6.2-.9.2-.5.2-1.2.1-1.9"/><defs><path id="m" d="M841 311.3c0-2.2 1.7-3.9 3.9-3.9s3.9 1.7 3.9 3.9-1.7 3.9-3.9 3.9-3.9-1.7-3.9-3.9m-5.3 0c0 5.1 4.1 9.2 9.2 9.2s9.2-4.1 9.2-9.2-4.1-9.2-9.2-9.2-9.2 4.1-9.2 9.2"/></defs><clipPath id="n"><use xlink:href="#m" overflow="visible"/></clipPath><linearGradient id="o" x1="811.724" x2="812.724" y1="1906.63" y2="1906.63" gradientTransform="rotate(-112.58 -3715.11 22463.565) scale(18.4513)" gradientUnits="userSpaceOnUse"><stop offset="0" style="stop-color:#477cd8"/><stop offset=".16" style="stop-color:#4573d2"/><stop offset=".43" style="stop-color:#3f5bc2"/><stop offset=".76" style="stop-color:#3633a7"/><stop offset="1" style="stop-color:#2f1391"/></linearGradient><path fill="url(#o)" d="m860.6 317.8-9.2-22.2-22.2 9.2 9.2 22.2z" clip-path="url(#n)"/><defs><path id="p" d="m844.9 302.1 1.9 2.8-1.9 2.5c2.2 0 3.9 1.8 3.8 4 0 2.1-1.7 3.8-3.8 3.8l-2.4 2.7 2.4 2.6c5.1.1 9.3-3.9 9.4-9 .1-5.1-3.9-9.3-9-9.4h-.4z"/></defs><clipPath id="q"><use xlink:href="#p" overflow="visible"/></clipPath><linearGradient id="r" x1="634.629" x2="635.629" y1="1939.647" y2="1939.647" gradientTransform="scale(-14.9255) rotate(-74.48 -1000.393 1414.595)" gradientUnits="userSpaceOnUse"><stop offset="0" style="stop-color:#2055da"/><stop offset=".11" style="stop-color:#2055da"/><stop offset="1" style="stop-color:#00bff6"/></linearGradient><path fill="url(#r)" d="m843.4 299.1-5.6 20.2 15.7 4.4 5.6-20.2z" clip-path="url(#q)"/><path d="M675.3 48.2c0-6.5 2.3-12 6.9-16.6 4.6-4.6 10.1-6.9 16.6-6.9 6.5 0 12 2.3 16.6 6.9 4.6 4.6 6.9 10.1 6.9 16.6 0 6.5-2.3 12-6.9 16.6-4.6 4.6-10.1 6.9-16.6 6.9-6.5 0-12-2.3-16.6-6.9-4.6-4.6-6.9-10.1-6.9-16.6m2.5 0c0 5.8 2 10.7 6.1 14.8 4.1 4.1 9 6.2 14.8 6.2 5.8 0 10.7-2 14.8-6.2 4.1-4.1 6.1-9 6.1-14.8s-2-10.7-6.1-14.8c-4.1-4.1-9-6.1-14.8-6.1-5.8 0-10.7 2-14.8 6.1-4 4.1-6.1 9.1-6.1 14.8m6.6 5.1c-.1-.1-.1-.2 0-.4.2-.2.6-.3.9-.3.4.1.6.1.6.2.4.2.9.6 1.4 1.2.5.6.9 1.1 1.2 1.3 1.5 1.2 3 1.3 4.5.3.1-.4.3-.8.6-1.1.3-.3.5-.5.8-.6.2-.1.7-.3 1.3-.6-2-.2-3.7-.5-4.9-1.1-1.3-.5-2.2-1.2-3-2-1-1.1-1.6-2.5-1.8-4.3-.2-1.8-.1-3.4.4-4.9.4-.9.9-1.7 1.6-2.5-.5-1.5-.4-3.3.3-5.2 2 .1 3.7.8 5.3 2 3.1-.8 6.2-.8 9.5-.1.4-.3 1.1-.7 2-1.1.9-.5 2-.7 3.4-.8.2.7.4 1.5.5 2.4.1.9 0 1.8-.1 2.6 1.4 1.5 2.1 3.4 2.2 5.9 0 2-.3 3.6-1 4.9-.7 1.3-1.9 2.4-3.6 3.2-1.2.5-2.7.9-4.6 1 .9.4 1.5.9 1.9 1.3.4.5.7 1.2.8 2.2v2.9l.1 2.8c.2.3.4.6.6.8.2.2.5.4.6.5.2.1.2.2.2.4-.1.2-.3.3-.7.3-1 0-1.9-.4-2.5-1.1-.2-.3-.3-.7-.3-1.1v-4.4c0-.5-.1-.8-.4-1.1-.2-.2-.5-.4-.7-.4v5.8c0 1 .1 1.7.4 2 .2.3.4.6.5.9.1.1 0 .1-.1.1-.2 0-.4 0-.8-.1-.8-.2-1.3-.6-1.7-1.2-.3-.6-.5-1.3-.5-2.1v-5.7h-1.2v5.7c0 .7-.2 1.4-.5 2.1-.4.9-1.2 1.3-2.4 1.4-.2-.1-.3-.1-.3-.2.1-.1.2-.4.6-.9.1-.1.1-.4.2-.7s.1-.8.1-1.3v-5.8c-.2.1-.5.2-.7.4-.2.2-.3.6-.3 1.1v4.4c0 .4-.1.8-.3 1.1-.6.7-1.4 1.1-2.5 1.1-.4 0-.7-.1-.7-.3-.1-.1 0-.2 0-.3.1-.1.2-.2.4-.3.2-.1.3-.2.4-.3.2-.2.4-.4.6-.7.2-.2.2-.9.1-1.9-.1-1-.1-1.7 0-2-1.6.6-3.2.3-4.9-.8-.5-.5-1-1.2-1.5-2.1-.1-.8-.9-1.6-2-2.5"/><path fill="#0080FF" d="M501.2 318.5v-5.7c6.1 0 10.8-6 8.4-12.4-.9-2.3-2.7-4.2-5.1-5.1-6.4-2.3-12.4 2.4-12.4 8.4h-5.7c0-9.7 9.3-17.2 19.5-14 4.4 1.4 8 4.9 9.3 9.3 3.1 10.1-4.4 19.5-14 19.5"/><path fill="#0080FF" fill-rule="evenodd" d="M495.5 307.1h5.7v5.7h-5.7zM491.1 312.8h4.4v4.4h-4.4zM487.4 309.1h3.7v3.7h-3.7z" clip-rule="evenodd"/><path fill="#0080FF" d="M476.7 324.3c-.7-.5-1.7-.8-2.7-.8h-2.3v7.5h2.4c1.1 0 2-.3 2.7-.8.4-.3.7-.7 1-1.2.2-.5.3-1.1.3-1.8s-.1-1.2-.3-1.7c-.3-.6-.6-1-1.1-1.2m-3.7.5h.7c.8 0 1.5.2 2 .5.6.4.9 1 .9 1.9 0 1-.3 1.7-.9 2-.5.3-1.2.5-2 .5h-.7v-4.9zM479.7 323.4c-.2 0-.4.1-.6.2-.2.2-.2.3-.2.6 0 .2.1.4.2.6.2.2.4.2.6.2.2 0 .4-.1.6-.2.1-.2.2-.4.2-.6 0-.2-.1-.4-.2-.6-.2-.1-.4-.2-.6-.2M479 325.7h1.3v5.3H479zM485.1 326.1c-.4-.4-.8-.6-1.3-.6-.7 0-1.3.3-1.8.8s-.7 1.1-.7 1.9c0 .7.2 1.4.7 1.9.5.5 1.1.7 1.8.7.5 0 1-.1 1.3-.4v.1c0 .4-.1.8-.4 1-.2.2-.6.4-1 .4-.6 0-1-.2-1.5-.9l-.9.9c.2.3.5.5.9.8.4.3.9.4 1.5.4.8 0 1.4-.2 1.9-.7.5-.5.7-1.1.7-1.9v-4.8H485l.1.4zm-.3 3.1c-.2.3-.5.4-.9.4s-.7-.1-.9-.4c-.2-.3-.3-.6-.3-1s.1-.8.3-1c.2-.3.5-.4.9-.4s.7.1.9.4c.2.3.4.6.4 1-.1.4-.2.8-.4 1M487.6 325.7h1.3v5.3h-1.3zM488.2 323.4c-.2 0-.4.1-.6.2-.1.2-.2.3-.2.6 0 .2.1.4.2.6.2.2.4.2.6.2.2 0 .4-.1.6-.2.1-.2.2-.4.2-.6 0-.2-.1-.4-.2-.6-.2-.1-.3-.2-.6-.2M491.8 324.3h-1.3v1.4h-.8v1.2h.8v2.2c0 .7.1 1.2.4 1.5.3.3.8.4 1.4.4h.7v-1.2h-.5c-.3 0-.5-.1-.6-.2-.1-.1-.1-.4-.1-.7v-2h1.2v-1.2h-1.2v-1.4zM499.2 323.5h1.3v7.5h-1.3zM513.9 329.1c-.2.3-.5.5-.7.6-.2.1-.4.2-.7.2-.4 0-.7-.1-1-.4-.3-.3-.4-.7-.4-1.1 0-.5.1-.8.4-1.1.3-.3.6-.4 1-.4s.9.3 1.3.7l.9-.8c-.6-.7-1.3-1.1-2.2-1.1-.7 0-1.4.3-1.9.8s-.8 1.2-.8 2 .3 1.4.8 2c.5.5 1.1.8 1.9.8 1 0 1.7-.4 2.3-1.2l-.9-1zM519.3 326.4c-.2-.3-.4-.5-.8-.6-.3-.2-.7-.2-1.1-.2-.7 0-1.3.3-1.8.8-.4.5-.7 1.2-.7 2s.3 1.5.7 2c.5.5 1.1.8 1.9.8.9 0 1.6-.4 2.2-1.1l-.9-.8-.3.3c-.1.1-.3.2-.4.3-.2.1-.4.2-.7.2-.4 0-.7-.1-.9-.3-.2-.2-.4-.5-.4-.8h3.5v-.5c0-.3 0-.7-.1-1 .2-.5 0-.8-.2-1.1m-2.9 1.3c.1-.3.2-.5.4-.6.2-.2.4-.3.7-.3.3 0 .6.1.7.3.2.2.3.4.3.6h-2.1zM524.4 326.1c-.4-.3-1-.5-1.6-.5-.4 0-.9.1-1.2.3-.4.2-.7.5-.9.8l.9.8c.4-.6.7-.8 1.3-.8.3 0 .5.1.7.2.2.1.3.3.3.6v.3c-.3-.1-.7-.2-1-.2-.7 0-1.2.2-1.6.5-.4.3-.6.8-.6 1.3s.2.9.5 1.2c.4.3.8.4 1.3.4s1-.2 1.4-.6v.4h1.3v-3.4c-.2-.5-.4-1-.8-1.3m-2.3 2.8c.2-.1.4-.1.6-.1.3 0 .7.1 1 .2v.5c-.3.3-.7.4-1.1.4-.2 0-.4-.1-.5-.2-.1-.1-.2-.2-.2-.4-.1-.1 0-.3.2-.4M530.1 326.2c-.4-.4-.9-.6-1.5-.6-.5 0-1 .1-1.3.5v-.3H526v5.2h1.3v-2.9c0-.4.1-.7.3-.9.2-.2.4-.3.8-.3.3 0 .5.1.7.3.2.2.3.5.3.8v3h1.3v-3c-.1-.8-.2-1.4-.6-1.8M497.6 326.1c-.4-.3-1-.5-1.6-.5-.4 0-.9.1-1.2.3-.4.2-.7.5-.9.8l.9.8c.4-.6.7-.8 1.3-.8.3 0 .5.1.7.2.2.1.3.3.3.6v.3c-.3-.1-.7-.2-1-.2-.7 0-1.2.2-1.6.5-.4.3-.6.8-.6 1.3s.2.9.5 1.2c.4.3.8.4 1.3.4s1-.2 1.4-.6v.4h1.3v-3.4c-.2-.5-.4-1-.8-1.3m-2.4 2.8c.1-.1.4-.1.6-.1.3 0 .7.1 1 .2v.5c-.3.3-.7.4-1.1.4-.2 0-.4-.1-.5-.2-.1-.1-.2-.2-.2-.4 0-.1.1-.3.2-.4M505.3 331.1c-2.1 0-3.9-1.7-3.9-3.8 0-2.1 1.7-3.9 3.9-3.9 2.1 0 3.9 1.7 3.9 3.9 0 2-1.7 3.8-3.9 3.8m0-6.4c-1.4 0-2.5 1.1-2.5 2.5s1.1 2.5 2.5 2.5 2.5-1.1 2.5-2.5-1.1-2.5-2.5-2.5"/><path fill="#F7981F" d="m287.8 224.5-1.8 7.4h3.6l-1.7-7.4z"/><path fill="#F7981F" d="M270.3 232.5v1.1c0 5.4 5.8 10.8 13 10.8h38.2c7.2 0 13-5.4 13-10.8v-1.1c0-5-5-11.3-11.5-11.8-.1-4.5-3.8-8.1-8.3-8.1-1.7 0-3.4.5-4.7 1.5-2.6-5.7-8.3-9.7-15-9.7-9.1 0-16.4 7.3-16.4 16.4v.5c-4.8 1.4-8.3 7.1-8.3 11.2m20.6 5-.9-3.7h-4.4l-1 3.7h-2.5l4.3-15.1h3.1l4 15.1h-2.6zm14.7 0h-2.8l-1.9-11.4-1.9 11.4h-2.8l-2.9-15.1h2.4l2 11.7 2-11.7h2.5l2 11.8 2-11.8h2.4l-3 15.1zm8.8.3c-3.7 0-4.6-2.5-4.6-4.6v-.4h2.4v.4c0 1.8.8 2.8 2.5 2.8 1.5 0 2.3-1.1 2.3-2.2 0-1.6-.8-2.3-2.2-2.7l-1.7-.6c-2.2-.8-3.1-2-3.1-4.1 0-2.7 1.9-4.3 4.7-4.3 3.9 0 4.3 2.4 4.3 4v.3h-2.4v-.3c0-1.4-.6-2.2-2.1-2.2-1 0-2 .6-2 2.2 0 1.3.7 1.9 2.3 2.6l1.6.6c2.1.8 3.1 1.9 3.1 4-.1 3.2-2 4.5-5.1 4.5"/><path fill="#FFF" d="m286.4 222.4-4.3 15.1h2.5l1-3.7h4.4l.9 3.7h2.5l-4-15.1h-3zm-.4 9.5 1.8-7.4 1.7 7.4H286zM304.2 234.2l-2-11.8h-2.6l-2 11.7-2-11.7h-2.4l2.9 15.1h2.8l1.9-11.4 2 11.4h2.8l3-15.1h-2.4zM316.3 229.3l-1.6-.6c-1.6-.6-2.3-1.3-2.3-2.6 0-1.6 1-2.2 2-2.2 1.5 0 2.1.8 2.1 2.2v.3h2.4v-.3c0-1.6-.4-4-4.3-4-2.8 0-4.7 1.5-4.7 4.3 0 2.2.9 3.3 3.1 4.1l1.6.6c1.4.4 2.2 1.1 2.2 2.7 0 1.1-.8 2.2-2.3 2.2-1.7 0-2.5-.9-2.5-2.8v-.4h-2.4v.4c0 2.1.8 4.6 4.6 4.6 3 0 5-1.3 5-4.5.2-2.1-.7-3.3-2.9-4"/><path fill="none" stroke="#000" stroke-miterlimit="10" stroke-width=".5" d="M401.1 441.3h198.4v87.4H401.1zM996.4 4.1h198.4v87.4H996.4zM599.5 179h198.4v87.4H599.5zM798 441.3h198.4v87.4H798zM996.4 91.5h198.4v87.4H996.4zM599.5 266.4h198.4v87.4H599.5zM599.5 441.3h198.4v87.4H599.5zM996.4 353.9h198.4v87.4H996.4zM599.5 353.9h198.4v87.4H599.5z"/><path fill="#00678C" fill-rule="evenodd" d="M460.7 239.5h2.6v-10.3l4 9c.5 1.1 1.1 1.5 2.4 1.5 1.3 0 1.9-.4 2.4-1.5l4-9v10.3h2.6v-10.3c0-1-.4-1.5-1.2-1.7-2-.6-3.3-.1-3.9 1.3l-3.9 8.8-3.8-8.8c-.6-1.3-1.9-1.9-3.9-1.3-.8.3-1.2.7-1.2 1.7v10.3zm20.2-8.4h2.6v5.7c0 .3.1 1 1.5 1.1h5.6v-6.7h2.6v9.2c0 2.3-2.8 2.8-4.1 2.8H481v-1.8h8.2c1.7-.2 1.5-1 1.5-1.3v-.7h-5.5c-2.6 0-4.2-1.2-4.2-2.5-.1-.1 0-5.7-.1-5.8m56-6.5c-1.6 0-2.8.1-3.9.6-.3.1-.8.1-.8.5.2.2.2.4.3.6.3.4.7.9 1.1 1.2.4.3.8.6 1.3.9.8.5 1.7.7 2.4 1.2.5.3.9.6 1.3 1 .2.2.4.4.6.5l-.3-.6-.6-.6c-.6-.8-1.3-1.4-2.1-2-.6-.4-2-1.1-2.3-1.8.4-.1 1-.2 1.4-.3.7-.2 1.3-.1 2-.3.3-.1.6-.2 1-.3v-.2c-.4-.4-.6-.9-1-1.2-1-.9-2.1-1.7-3.3-2.5-.6-.4-1.4-.7-2.1-1-.2-.1-.6-.2-.8-.4-.4-.4-.5-1-.8-1.5-.6-1.1-1.1-2.3-1.6-3.5-.3-.8-.6-1.6-1-2.3-2.1-3.4-4.3-5.4-7.7-7.5-.7-.4-1.6-.6-2.6-.8-.5 0-1-.1-1.5-.1-.3-.1-.6-.5-.9-.7-1.1-.7-4.1-2.3-4.9-.2-.5 1.3.8 2.6 1.3 3.2.3.5.8 1 1 1.5.2.3.2.7.3 1 .3.9.6 1.9 1 2.7.2.4.5.9.7 1.2.2.2.5.3.5.7-.3.4-.3 1-.5 1.5-.7 2.3-.4 5 .6 6.7.3.5 1.1 1.6 2.1 1.2.9-.4.7-1.5 1-2.5.1-.2 0-.4.1-.5.3.6.5 1.1.8 1.6.6 1 1.7 2 2.6 2.7.5.4.8 1 1.5 1.2h-.1c-.1-.2-.3-.3-.4-.4-.4-.4-.8-.8-1.1-1.2-.8-1.1-1.6-2.4-2.2-3.6-.3-.6-.6-1.3-.9-1.9-.1-.2-.1-.6-.3-.7-.3.5-.7.8-1 1.4-.4.9-.4 1.9-.5 3-.1 0-.1 0-.1.1-.6-.2-.9-.8-1.1-1.4-.6-1.4-.7-3.7-.2-5.3.1-.4.8-1.7.5-2.1-.1-.4-.5-.6-.7-.9-.3-.4-.5-.8-.7-1.3-.5-1.1-.7-2.4-1.2-3.5-.3-.5-.7-1.1-1-1.5-.4-.5-.8-.9-1.1-1.6-.1-.2-.2-.6-.1-.8.1-.2.1-.2.3-.3.3-.2 1 .1 1.3.2.7.3 1.3.6 2 1 .3.2.6.6 1 .7h.4c.6.1 1.4 0 2 .2 1.1.3 2 .8 2.9 1.4 2.6 1.7 4.8 4 6.2 6.8.2.5.3.9.5 1.4.4 1 1 2 1.4 2.9.4 1 .8 1.9 1.4 2.7.3.4 1.5.6 2.1.9.4.2 1 .3 1.4.6.7.4 1.4.9 2 1.4.1 0 1.1.5 1.1.9" clip-rule="evenodd"/><path fill="#00678C" fill-rule="evenodd" d="M516.6 207.2c-.3 0-.5 0-.8.1h.1c.2.3.4.5.6.8.1.3.3.6.4 1l.1-.1c.3-.2.4-.5.4-1-.1-.1-.1-.3-.2-.4-.2-.1-.4-.2-.6-.4" clip-rule="evenodd"/><path fill="#CE8B2C" fill-rule="evenodd" d="M495.3 239.5h7.5c.9 0 1.7-.2 2.4-.5 1.1-.5 1.7-1.2 1.7-2.1V235c0-.7-.6-1.5-1.9-1.9-.7-.3-1.5-.4-2.2-.4h-3.2c-1.1 0-1.6-.3-1.7-1V230.1c.1-.5.4-.7 1.3-.8h7.7v-1.7h-7.3c-1.1 0-1.6.1-2.1.2-1.6.5-2.2 1.3-2.2 2.6v1.5c0 1.2 1.3 2.2 3.6 2.4h3.8c.8.1 1.2.2 1.4.5.1.2.2.3.2.5v1.5c0 .2-.1.4-.4.6-.2.2-.6.3-1.1.4h-7.5v1.7zm27.8-3.1c0 1.8 1.3 2.8 4 3h7.5v-1.7h-6.8c-1.5 0-2.1-.4-2.1-1.3v-9h-2.6v9zm-14.6.1v-6.2c0-1.6 1.1-2.5 3.3-2.8H518.1c2.2.3 3.3 1.3 3.3 2.8v6.2c0 1.3-.5 2-1.6 2.4l2.6 2.3h-3l-2.1-1.9-2.1.1h-2.8c-.5 0-1-.1-1.5-.2-1.6-.3-2.4-1.2-2.4-2.7m2.9-.1v.3c.2.7.8 1.1 1.9 1.1h2.4l-2.2-2h3l1.9 1.7c.3-.2.6-.5.7-.8v-6.4c-.2-.7-.8-1.1-1.8-1.1h-4c-1.2 0-1.9.5-1.9 1.3v5.9zm24.4 3.1h.4V238h.5v-.3h-1.4v.3h.5v1.5zm3 0h.3v-1.7h-.5l-.5 1.2-.5-1.2h-.5v1.7h.4v-1.3l.5 1.3h.3l.5-1.3v1.3z" clip-rule="evenodd"/><path fill="#8E714E" fill-rule="evenodd" d="M744.1 129.5c-.1 0-.2.2-.2.3v4.1l.1.1h1.6c.8 0 1.3-.1 1.6-.2.7-.3 1-1.1 1-1.9 0-1.8-1.3-2.5-3.2-2.5-.2.1-.6.1-.9.1m4.9 8.5c0-1.9-1.4-2.9-3.9-2.9H744c-.1 0-.1.1-.1.1v4.3c0 .4.3.9.6 1 .3.2 1.1.2 1.7.2 1.5.1 2.8-.7 2.8-2.7m-8.7-9.5c.2 0 .8.1 2.2.1h3.8c1.7 0 3.9.6 3.9 3.1 0 1.2-.9 2.2-2 2.7-.1 0-.1.1 0 .1 1.6.4 3 1.4 3 3.3 0 1.8-1.1 3-2.8 3.7-1 .4-2.3.6-3.5.6-1 0-3.6-.1-5-.1-.2-.1.1-.7.3-.9.3 0 .6 0 1-.2.5-.1.6-.3.6-1.1v-9.3c0-.6-.2-.8-.6-.9-.3-.1-.9-.1-1.3-.2-.1-.2.2-.8.4-.9m-11 11.8c.5.4 1.4.5 2.1.5 1 0 2.1-.2 3-1.1 1-.9 1.7-2.3 1.7-4.6 0-2.1-.8-3.9-2.5-4.9-1-.6-2.2-.8-3.6-.8-.4 0-.8 0-1.1.1-.1 0-.2.2-.2.3v9.5c.2.4.3.8.6 1m-4.3-11.8c.4 0 1.8.1 2.4.1 1.2 0 2.1-.1 4.3-.1 1.9 0 3.5.5 4.6 1.5 1.4 1.2 2.1 2.9 2.1 4.9 0 2.9-1.3 4.5-2.6 5.5s-3 1.5-5.5 1.5c-1.3 0-3.5 0-5.4-.1-.1-.2.2-.8.3-.9.5-.1.6-.1.9-.2.4-.2.5-.4.5-1.1.1-1.3 0-2.9 0-4.7v-4.6c-.1-.7-.3-.8-.9-1-.3-.1-.7-.1-1.2-.2 0 .1.4-.5.5-.6" clip-rule="evenodd"/><path fill="#442D22" fill-rule="evenodd" d="M701.9 141.1c-.5-.1-.8-.1-1.2-.3-.1 0-.2-.2-.2-.3v-3.8c0-1-.2-1.9-.6-2.5-.5-.7-1.3-1.1-2.2-1.1-.8 0-2 .6-2.9 1.4 0 0-.2.2-.2-.1 0-.2 0-.6.1-.9 0-.3-.1-.4-.1-.4-.6.3-2.3.7-2.9.8-.5.1-.6.5-.1.7.5.2.9.3 1.1.5.2.2.2.4.2.5v4.8c0 .5-.2.6-.5.7-.3.1-.5.1-.8.2-.1.1-.1.7 0 .9.2 0 1.3-.1 2.2-.1 1.3 0 1.9.1 2.2.1.1-.2.2-.7.1-.9-.4 0-.6-.1-.9-.1-.3-.1-.4-.2-.5-.6V136c0-.4.1-.6.2-.7.4-.4 1.1-.6 1.8-.6.6 0 1 .2 1.3.4.4.3.6.8.6 1.2.1.8.1 2.4.1 3.8 0 .8-.1 1-.3 1-.1.1-.5.1-.9.2-.1.1-.1.7 0 .9.6 0 1.2-.1 2.2-.1 1.2 0 1.9.1 2.2.1.1-.4.1-1 0-1.1m5.3-7.3c-1 0-1.6.8-1.6 2s.6 2.7 2.1 2.7c.3 0 .8-.1 1-.4.4-.3.6-1 .6-1.8 0-1.5-.8-2.5-2.1-2.5zm-.1 8.4c-.4 0-.6.1-.8.2-.8.5-1.2 1-1.2 1.6 0 .6.2 1 .7 1.4.6.5 1.3.7 2.3.7 1.9 0 2.8-1 2.8-2.1 0-.7-.4-1.2-1.1-1.5-.6-.2-1.6-.3-2.7-.3zm.1 5c-1.2 0-2-.2-2.7-.8-.7-.5-1-1.3-1-1.9 0-.2 0-.6.4-1 .2-.2.7-.7 1.8-1.4 0 0 .1 0 .1-.1 0 0 0-.1-.1-.1-.9-.3-1.2-.9-1.2-1.2 0-.1-.1-.2.1-.3.1-.1.3-.2.5-.3.3-.2.7-.4.9-.6v-.1s0-.1-.1-.1c-1.3-.4-2-1.4-2-2.9 0-1 .4-1.8 1.2-2.4.5-.4 1.9-.9 2.7-.9h.1c.9 0 1.4.2 2.1.5.4.1.7.2 1.2.2.7 0 1.1-.2 1.3-.5 0 0 .1.1.1.4 0 .2-.1.6-.2.9-.2.2-.5.4-.8.4h-.1c-.3 0-.5-.1-.5-.1h-.1v.1c0 .2.1.7.1.8 0 1.6-.6 2.2-1.3 2.8-.6.5-1.4.8-2.2.9h-.5c-.2 0-.5.2-.5.6 0 .3.2.6 1 .7h.5c1.1.1 2.4.2 3.1.4.9.3 1.4 1.1 1.4 2 0 1.4-1 2.7-2.7 3.5-.9.3-1.7.5-2.6.5m10.9-13.3c-.4 0-.8.1-1 .3-.7.5-1.1 1.4-1.1 2.7 0 2.5 1.3 4.2 3 4.2.5 0 1-.2 1.3-.5.6-.5.8-1.4.8-2.6 0-2.5-1.2-4.1-3-4.1zm.3 8.1c-3.2 0-4.4-2.4-4.4-4.6 0-1.6.6-2.8 1.9-3.6.9-.6 2-.9 2.9-.9 2.5 0 4.2 1.8 4.2 4.3 0 1.7-.7 3.1-2 3.9-.6.5-1.7.9-2.6.9m-33.9-8.1c-.4 0-.8.1-1 .3-.7.5-1.1 1.4-1.1 2.7 0 2.5 1.3 4.2 3 4.2.5 0 1-.2 1.3-.5.6-.5.8-1.4.8-2.6 0-2.5-1.2-4.1-3-4.1m.3 8.1c-3.2 0-4.4-2.4-4.4-4.6 0-1.6.6-2.8 1.9-3.6.9-.6 2-.9 2.9-.9 2.5 0 4.2 1.8 4.2 4.3 0 1.7-.7 3.1-2 3.9-.6.5-1.6.9-2.6.9m-21.7-.2c0-.1-.1-.2-.1-.4s0-.2.1-.3c.4-.1.6-.1.8-.2.4-.1.5-.3.6-.8.1-1.1.1-3.3 0-4.8 0-.2 0-.4-.2-.5-.3-.2-.7-.4-1.1-.5-.2-.1-.3-.2-.3-.3 0-.1.1-.2.4-.3.6-.1 2.3-.5 2.9-.7 0 0 .1.2.1.3V134.2c0 .1.1.1.2.1h.1c1.2-1 2.3-1.3 2.9-1.3.9 0 1.7.4 2.2 1.3 0 .1.1.1.1.1s.1 0 .1-.1c1.1-.9 2.2-1.4 3-1.4 1.8 0 2.8 1.3 2.8 3.5V140.3c0 .1.1.4.3.5.3.1.6.2 1.1.3 0 .1 0 .6-.1.7h-1.9c-1.2 0-1.8 0-2.4.1 0-.2-.1-.6 0-.7.3-.1.5-.1.7-.2.4-.1.5-.3.5-.8 0-.4.1-3.4 0-4.2-.1-.8-.7-1.7-1.9-1.7-.5 0-1.2.2-1.9.7 0 0-.1.1-.1.2.1.4.1.9.1 1.6v3.5c0 .4.2.5.5.6.1 0 .2 0 .3.1.2 0 .3.1.6.1v.5c0 .1-.1.2-.1.2H669s-.1-.2-.1-.4 0-.3.1-.3h.3c.2 0 .4-.1.6-.1.3-.1.4-.3.5-.7.1-1 .1-3.7 0-4.4-.2-1.1-.9-1.7-1.9-1.7-.6 0-1.3.3-1.9.7-.1.1-.2.3-.2.4v4.9c0 .2.1.5.5.6.1 0 .2.1.4.1l.3.1c0 .1 0 .6-.1.7h-3.7c-.3.1-.5.1-.7.1" clip-rule="evenodd"/><path fill="#FFF" fill-rule="evenodd" d="m653.1 146.4-.8-.3s.1-4-1.3-4.3c-1-1.1.2-46.8 3.6-.2 0 0-1.2.6-1.4 1.6-.3 1.1-.1 3.2-.1 3.2" clip-rule="evenodd"/><path fill="#A6A385" fill-rule="evenodd" d="m653.1 146.4-.8-.3s.1-4-1.3-4.3c-1-1.1.2-46.8 3.6-.2 0 0-1.2.6-1.4 1.6-.3 1.1-.1 3.2-.1 3.2" clip-rule="evenodd"/><path fill="#FFF" fill-rule="evenodd" d="M653.5 142.6s6.8-4.5 5.2-13.8c-1.5-6.8-5.2-9-5.6-9.9-.4-.6-.9-1.7-.9-1.7l.3 18.9c.1 0-.5 5.8 1 6.5" clip-rule="evenodd"/><path fill="#499D4A" fill-rule="evenodd" d="M653.5 142.6s6.8-4.5 5.2-13.8c-1.5-6.8-5.2-9-5.6-9.9-.4-.6-.9-1.7-.9-1.7l.3 18.9c.1 0-.5 5.8 1 6.5" clip-rule="evenodd"/><path fill="#FFF" fill-rule="evenodd" d="M651.9 142.8s-6.4-4.4-6-12.1c.4-7.7 4.9-11.5 5.8-12.2.6-.6.6-.8.6-1.4.4.9.3 12.8.4 14.2.1 5.4-.4 10.5-.8 11.5" clip-rule="evenodd"/><path fill="#58AA50" fill-rule="evenodd" d="M651.9 142.8s-6.4-4.4-6-12.1c.4-7.7 4.9-11.5 5.8-12.2.6-.6.6-.8.6-1.4.4.9.3 12.8.4 14.2.1 5.4-.4 10.5-.8 11.5" clip-rule="evenodd"/><path d="M313.9 322.3c.3-2.3.2-2.7 1.9-2.3h.4c1.3.1 3.1-.2 4.1-.7 2.2-1 3.5-2.7 1.3-2.3-5 1-5.3-.7-5.3-.7 5.2-7.8 7.4-17.6 5.5-20-5.1-6.6-14.1-3.5-14.2-3.4-1-.2-2.1-.3-3.3-.3-2.2 0-3.9.6-5.2 1.6 0 0-15.9-6.5-15.2 8.2.2 3.1 4.5 23.8 9.7 17.6 1.9-2.3 3.7-4.2 3.7-4.2.9.6 2 .9 3.1.8l.1-.1v.9c-1.3 1.5-.9 1.8-3.6 2.3-2.7.6-1.1 1.5-.1 1.8 1.3.3 4.2.8 6.1-2l-.1.3c.5.4.5 3 .6 4.9.1 1.9.2 3.6.6 4.6.4 1 .8 3.6 4.3 2.9 3.1-.6 5.4-1.5 5.6-9.9"/><path fill="none" stroke="#000" stroke-width="3.684" d="M313.9 322.3c.3-2.3.2-2.7 1.9-2.3h.4c1.3.1 3.1-.2 4.1-.7 2.2-1 3.5-2.7 1.3-2.3-5 1-5.3-.7-5.3-.7 5.2-7.8 7.4-17.6 5.5-20-5.1-6.6-14.1-3.5-14.2-3.4-1-.2-2.1-.3-3.3-.3-2.2 0-3.9.6-5.2 1.6 0 0-15.9-6.5-15.2 8.2.2 3.1 4.5 23.8 9.7 17.6 1.9-2.3 3.7-4.2 3.7-4.2.9.6 2 .9 3.1.8l.1-.1v.9c-1.3 1.5-.9 1.8-3.6 2.3-2.7.6-1.1 1.5-.1 1.8 1.3.3 4.2.8 6.1-2l-.1.3c.5.4.5 3 .6 4.9.1 1.9.2 3.6.6 4.6.4 1 .8 3.6 4.3 2.9 3.1-.6 5.4-1.5 5.6-9.9"/><path fill="#336791" d="M321.7 317.1c-5 1-5.3-.7-5.3-.7 5.2-7.8 7.4-17.6 5.5-20-5.1-6.6-14.1-3.5-14.2-3.4-1-.2-2.1-.3-3.3-.3-2.2 0-3.9.6-5.2 1.6 0 0-15.9-6.6-15.2 8.2.2 3.1 4.5 23.8 9.7 17.6 1.9-2.3 3.7-4.2 3.7-4.2.9.6 2 .9 3.1.8l.1-.1v.9c-1.3 1.5-.9 1.8-3.6 2.3-2.7.6-1.1 1.6-.1 1.8 1.3.3 4.2.8 6.1-2l-.1.3c.5.4.9 2.7.8 4.8-.1 2.1-.1 3.5.3 4.7.4 1.1.8 3.7 4.3 2.9 2.9-.6 4.5-2.3 4.7-5 .2-1.9.5-1.6.5-3.4l.3-.8c.3-2.6 0-3.5 1.9-3.1h.4c1.3.1 3.1-.2 4.1-.7 2.3-1 3.6-2.7 1.5-2.2"/><path fill="none" stroke="#FFF" stroke-linecap="round" stroke-linejoin="round" stroke-width="1.228" d="M303.3 318.6c-.1 4.9 0 9.8.5 11 .5 1.2 1.5 3.5 5 2.8 2.9-.6 4-1.8 4.5-4.5.3-2 1-7.5 1.1-8.6M299.1 294.1s-15.9-6.5-15.2 8.3c.2 3.1 4.5 23.8 9.7 17.6 1.9-2.3 3.6-4.1 3.6-4.1M307.7 292.9c-.6.2 8.9-3.4 14.2 3.4 1.9 2.4-.3 12.3-5.5 20"/><path fill="none" stroke="#FFF" stroke-linecap="round" stroke-linejoin="bevel" stroke-width="1.228" d="M316.3 316.3s.3 1.7 5.3.7c2.2-.4.9 1.3-1.3 2.3-1.8.8-5.9 1.1-5.9-.1-.2-3 2.1-2.1 1.9-2.9-.2-.7-1.2-1.3-1.9-3-.6-1.4-8.2-12.5 2.1-10.9.4-.1-2.7-9.8-12.3-9.9-9.6-.2-9.3 11.8-9.3 11.8"/><path fill="none" stroke="#FFF" stroke-linecap="round" stroke-linejoin="round" stroke-width="1.228" d="M300.6 317.4c-1.3 1.5-.9 1.8-3.6 2.3-2.7.6-1.1 1.5-.1 1.8 1.3.3 4.2.8 6.1-2 .6-.8 0-2.2-.8-2.5-.4-.2-.9-.4-1.6.4z"/><path fill="none" stroke="#FFF" stroke-linecap="round" stroke-linejoin="round" stroke-width="1.228" d="M300.5 317.3c-.1-.9.3-1.9.7-3.1.7-1.8 2.3-3.7 1-9.5-.9-4.3-7.2-.9-7.2-.3 0 .6.3 3-.1 5.8-.5 3.6 2.3 6.7 5.6 6.4"/><path fill="#FFF" d="M299 304.3c0 .2.4.7.9.8.5.1 1-.3 1-.5s-.4-.4-.9-.5-.9 0-1 .2"/><path fill="none" stroke="#FFF" stroke-width=".409" d="M299 304.3c0 .2.4.7.9.8.5.1 1-.3 1-.5s-.4-.4-.9-.5-.9 0-1 .2z"/><path fill="#FFF" d="M314.7 303.9c0 .2-.4.7-.9.8-.5.1-1-.3-1-.5s.4-.4.9-.5 1 0 1 .2z"/><path fill="none" stroke="#FFF" stroke-width=".205" d="M314.7 303.9c0 .2-.4.7-.9.8-.5.1-1-.3-1-.5s.4-.4.9-.5 1 0 1 .2z"/><path fill="none" stroke="#FFF" stroke-linecap="round" stroke-linejoin="round" stroke-width="1.228" d="M316.6 302.5c.1 1.6-.3 2.6-.4 4.3-.1 2.4 1.2 5.2-.7 8"/><path d="M473.1 488.8c-1.2 0-2.1-.3-2.8-1-.7-.7-1-1.6-1-2.8 0-1.2.3-2.2.9-2.9.6-.7 1.4-1 2.5-1 1 0 1.8.3 2.3.9.6.6.9 1.4.9 2.5v.9h-5c0 .7.2 1.3.6 1.7.3.4.9.6 1.6.6.4 0 .9 0 1.2-.1.4-.1.8-.2 1.2-.4v1.3c-.4.2-.8.3-1.2.4-.2-.1-.7-.1-1.2-.1m-.3-6.5c-.5 0-.9.2-1.2.5-.3.3-.5.8-.5 1.4h3.4c0-.6-.1-1.1-.4-1.4-.4-.4-.8-.5-1.3-.5M477.8 478.1h1.6v10.6h-1.6zM486.4 488.7l-.3-1h-.1c-.3.5-.7.8-1.1.9-.4.1-.8.3-1.4.3-.7 0-1.3-.2-1.7-.6-.4-.4-.6-1-.6-1.7 0-.8.3-1.4.9-1.7.6-.4 1.4-.6 2.6-.6h1.3v-.4c0-.5-.1-.8-.3-1.1-.2-.2-.6-.3-1-.3s-.8.1-1.1.2c-.3.1-.7.3-1 .4l-.5-1.1c.4-.2.8-.4 1.3-.5.5-.1.9-.2 1.4-.2 1 0 1.7.2 2.2.6.5.4.7 1.1.7 2v5h-1.3zm-2.4-1.1c.6 0 1-.2 1.4-.5.3-.3.5-.8.5-1.4v-.6h-1c-.8 0-1.3.1-1.7.4-.3.2-.5.6-.5 1 0 .3.1.6.3.8.3.2.6.3 1 .3M494.8 486.6c0 .7-.3 1.3-.8 1.7-.5.4-1.3.6-2.3.6-1 0-1.8-.1-2.4-.5V487c.9.4 1.7.6 2.5.6 1 0 1.5-.3 1.5-.9 0-.2-.1-.3-.2-.5s-.3-.3-.5-.4c-.3-.1-.6-.3-1-.5-.9-.3-1.4-.7-1.8-1-.3-.3-.5-.8-.5-1.3 0-.6.3-1.1.8-1.5.5-.4 1.2-.5 2.1-.5.9 0 1.7.2 2.5.6l-.5 1.2c-.8-.3-1.5-.5-2.1-.5-.8 0-1.3.2-1.3.7 0 .2.1.4.3.6.2.2.7.4 1.4.7.6.2 1.1.5 1.4.7.3.2.5.4.6.7.2.2.3.5.3.9M499.3 487.5c.4 0 .8-.1 1.2-.2v1.2c-.2.1-.4.1-.7.2-.3.1-.6.1-.9.1-1.5 0-2.3-.8-2.3-2.4v-4.1h-1v-.7l1.1-.6.5-1.6h1v1.7h2.1v1.2h-2.1v4c0 .4.1.7.3.8.3.4.5.4.8.4M501.9 479.2c0-.3.1-.5.2-.7.1-.2.4-.2.7-.2.3 0 .5.1.7.2.2.1.2.4.2.7 0 .3-.1.5-.2.6-.1.1-.4.2-.7.2-.3 0-.5-.1-.7-.2-.1-.1-.2-.3-.2-.6m1.7 9.5H502v-7.5h1.6v7.5zM508.9 488.8c-1.1 0-2-.3-2.6-1-.6-.7-.9-1.6-.9-2.9 0-1.3.3-2.2.9-2.9.6-.7 1.5-1 2.7-1 .8 0 1.5.1 2.1.4l-.5 1.3c-.7-.3-1.2-.4-1.7-.4-1.3 0-1.9.9-1.9 2.6 0 .8.2 1.5.5 1.9.3.4.8.6 1.4.6.7 0 1.4-.2 2-.5v1.4c-.3.2-.6.3-.9.3-.3.1-.6.2-1.1.2M517.8 486.6c0 .7-.3 1.3-.8 1.7-.5.4-1.3.6-2.3.6-1 0-1.8-.1-2.4-.5V487c.9.4 1.7.6 2.5.6 1 0 1.5-.3 1.5-.9 0-.2-.1-.3-.2-.5-.1-.1-.3-.3-.5-.4-.3-.1-.6-.3-1-.5-.9-.3-1.4-.7-1.8-1-.3-.3-.5-.8-.5-1.3 0-.6.3-1.1.8-1.5.5-.4 1.2-.5 2.1-.5.9 0 1.7.2 2.5.6l-.5 1.2c-.8-.3-1.5-.5-2.1-.5-.8 0-1.3.2-1.3.7 0 .2.1.4.3.6.2.2.7.4 1.4.7.6.2 1.1.5 1.4.7.3.2.5.4.6.7.2.2.3.5.3.9M522.8 488.8c-1.2 0-2.1-.3-2.8-1-.7-.7-1-1.6-1-2.8 0-1.2.3-2.2.9-2.9.6-.7 1.4-1 2.5-1 1 0 1.8.3 2.3.9.6.6.9 1.4.9 2.5v.9h-5c0 .7.2 1.3.6 1.7.3.4.9.6 1.6.6.4 0 .9 0 1.2-.1.4-.1.8-.2 1.2-.4v1.3c-.4.2-.8.3-1.2.4-.2-.1-.7-.1-1.2-.1m-.3-6.5c-.5 0-.9.2-1.2.5-.3.3-.5.8-.5 1.4h3.4c0-.6-.1-1.1-.4-1.4-.4-.4-.8-.5-1.3-.5M532.2 488.7l-.3-1h-.1c-.3.5-.7.8-1.1.9-.4.1-.8.3-1.4.3-.7 0-1.3-.2-1.7-.6-.4-.4-.6-1-.6-1.7 0-.8.3-1.4.9-1.7.6-.4 1.4-.6 2.6-.6h1.3v-.4c0-.5-.1-.8-.3-1.1-.2-.2-.6-.3-1-.3s-.8.1-1.1.2c-.3.1-.7.3-1 .4l-.5-1.1c.4-.2.8-.4 1.3-.5.5-.1.9-.2 1.4-.2 1 0 1.7.2 2.2.6.5.4.7 1.1.7 2v5h-1.3zm-2.4-1.1c.6 0 1-.2 1.4-.5.3-.3.5-.8.5-1.4v-.6h-1c-.8 0-1.3.1-1.7.4-.3.2-.5.6-.5 1 0 .3.1.6.3.8.3.2.7.3 1 .3M539.4 481.1c.3 0 .6 0 .8.1l-.1 1.5c-.2-.1-.5-.1-.7-.1-.6 0-1.2.2-1.6.6-.4.4-.6 1-.6 1.6v3.9h-1.6v-7.5h1.2l.2 1.3h.1c.3-.4.6-.8 1-1.1.4-.2.8-.3 1.3-.3M544.6 488.8c-1.1 0-2-.3-2.6-1-.6-.7-.9-1.6-.9-2.9 0-1.3.3-2.2.9-2.9.6-.7 1.5-1 2.7-1 .8 0 1.5.1 2.1.4l-.5 1.3c-.7-.3-1.2-.4-1.7-.4-1.3 0-1.9.9-1.9 2.6 0 .8.2 1.5.5 1.9.3.4.8.6 1.4.6.7 0 1.4-.2 2-.5v1.4c-.3.2-.6.3-.9.3-.3.1-.6.2-1.1.2M555.1 488.7h-1.6v-4.6c0-.6-.1-1-.3-1.3-.2-.3-.6-.4-1.1-.4-.7 0-1.2.2-1.5.6-.3.4-.5 1.1-.5 2v3.8h-1.6v-10.6h1.6v2.7c0 .4 0 .9-.1 1.4h.1c.2-.3.5-.6.9-.8.4-.2.8-.3 1.4-.3 1.8 0 2.7.9 2.7 2.8v4.7z"/><path fill="#00A9E5" d="M458.2 481.9h-6.1c0 .1.1.3.1.4.2.7.3 1.4.4 2.2v1.8c-.1.8-.2 1.5-.4 2.2 0 .1-.1.3-.1.4h6.1c1.9 0 3.4-1.6 3.4-3.5.1-1.9-1.5-3.5-3.4-3.5"/><path fill="#353535" d="M452.7 486.3v-1.8c-.1-.8-.2-1.5-.4-2.2 0-.1-.1-.3-.1-.4h-9.4c-.3 1.1-.5 2.3-.5 3.5 0 1.2.2 2.4.5 3.5h9.4c0-.1.1-.3.1-.4.2-.8.3-1.5.4-2.2"/><path fill="#00BFB3" d="M459.3 490h-7.5c-.2.5-.5 1-.8 1.5-.4.7-1 1.4-1.5 2l-.6.6c-.4.4-.9.7-1.3 1 1.8 1.2 4 1.9 6.4 1.9 4 0 7.6-2.1 9.6-5.2-1.2-1.1-2.7-1.8-4.3-1.8"/><path fill="#019B8F" d="M450.9 491.5c.3-.5.5-1 .8-1.5h-8.5c.9 2.1 2.4 3.8 4.3 5 .5-.3.9-.6 1.3-1l.6-.6c.6-.5 1.1-1.2 1.5-1.9"/><path fill="#F9B110" d="m449.4 477.3-.6-.6c-.4-.4-.9-.7-1.3-1-1.9 1.2-3.3 3-4.3 5h8.5c-.2-.5-.5-1-.8-1.5-.4-.7-.9-1.3-1.5-1.9"/><path fill="#FED10A" d="M453.8 473.8c-2.3 0-4.5.7-6.4 1.9.5.3.9.6 1.3 1l.6.6c.6.6 1.1 1.2 1.5 2 .3.5.5 1 .8 1.5h7.5c1.6 0 3.2-.7 4.2-1.8-1.9-3.2-5.4-5.2-9.5-5.2"/><path fill="#FF496C" d="m1102.4 49-7 12.6 4.7-12.5.1-.2zM1097 49.8v.1l-1.6 11.7-1.5-11.7v-.1h1.5M1090.7 49.1l4.7 12.5-7-12.6 2.2-.1zM1088.3 49l.1.1-3.9-.6-1.3-3.1 3.6.6 1.5 3M1092.3 46.1l1.5 3.8-3-.8M1098.5 46.1l1.6 3-3.1.8M1107.6 45.4l-1.2 3.1-3.9.6V49l1.5-3M1100.8 38.6l3.2 7.2h-5.4l.8-7.2h1.4"/><path fill="#FF496C" d="m1092.2 45.8 3.2-7.2 3.2 7.2h-6.4M1092.2 45.8h-5.3l3.1-7.2h1.5"/><path fill="#FD405F" d="m1102.5 49.1 3.9-.6-11 13.1 7-12.6h.1M1100.1 49.1l-4.7 12.5 1.6-11.7 3.1-.8"/><path fill="#FD405F" d="m1093.9 49.9 1.5 11.7-4.7-12.5h.1l3 .8M1088.4 49l7 12.6-10.9-13.1 3.9.6-.1-.1"/><path fill="#FD405F" d="M1092.2 45.8h.1v.3l-1.5 3h-.1l-.1-.2-2.2.1h-.1l-1.5-3 .1-.2M1097 49.8h-3.1v.1h-.1l-1.5-3.8v-.3h6.2v.3l-1.5 3.8M1104 45.8v.2l-1.5 3h-.1l-2.2-.1-.1.2-1.6-3v-.3h.1"/><path fill="#FD405F" d="m1101.8 38.6 6 6.3-.2.5-3.6.6v-.2l-3.2-7.2M1099.4 38.6l-.8 7.2-3.2-7.2M1095.4 38.6l-3.2 7.2-.7-7.2M1090 38.6l-3.1 7.2-.1.2-3.6-.6-.2-.5 6.1-6.3"/><path fill="#96EFFF" d="M1118.9 48.8c0 3.1-.6 6-1.6 8.6l-3.5.7-2.2-3.2c.7-1.9 1.1-3.9 1.1-6.1 0-8.9-6.8-16.2-15.5-17.1l2.3-3.2-1.8-3c12 1.2 21.2 11.2 21.2 23.3"/><path fill="#6CE0F9" d="m1113.3 59.4 3.4-.7c-3.7 7.9-11.8 13.4-21.1 13.4-9.4 0-17.4-5.5-21.2-13.5l1.9-3 3.8.6c2.8 5.7 8.6 9.7 15.4 9.7 6.9 0 12.8-4 15.5-9.8"/><path fill="#40DAF4" d="M1095.9 31.7h-.3c-9.5 0-17.1 7.7-17.1 17.1 0 2.2.4 4.3 1.2 6.3l-3.9-.7-1.8 2.9c-1-2.7-1.6-5.5-1.6-8.6 0-12.9 10.4-23.3 23.3-23.3h.8l1.8 3"/><path fill="#563D7C" d="M647 208.5c-.6.1-1.1.2-1.6.5-.9.4-1.5 1.1-2 2-.2.4-.3.7-.4 1.2-.1.3-.1.8-.1 10s0 9.7.1 10c.1.5.2.7.4 1.2.4.9 1.1 1.5 2 2 .4.2.7.3 1.2.4.3.1.8.1 10 .1s9.7 0 10-.1c.5-.1.7-.2 1.2-.4.9-.4 1.5-1.1 2-2 .2-.4.3-.7.4-1.2.1-.3.1-.8.1-10s0-9.7-.1-10c-.1-.5-.2-.7-.4-1.2-.6-1.2-1.7-2.1-3.1-2.4-.3-.1-.8-.1-10-.1H647m12.4 6.1c1.9.4 3 1.2 3.4 2.6.2.7.2 1.7 0 2.4-.1.3-.3.8-.5 1-.3.4-.9.9-1.4 1.2-.1.1-.2.1-.2.1s.1.1.2.1.3.1.5.2c1.5.6 2.3 2 2.3 3.9 0 1.1-.4 2.1-1 2.8-.7.8-1.8 1.3-3.3 1.6-.3.1-.8.1-4.7.1h-4.3v-16h4.4c3.7-.1 4.3-.1 4.6 0m-6.2 4.4v2.2h2.6c2.3 0 2.6 0 2.8-.1.6-.2 1.1-.6 1.4-1.1.2-.4.2-.6.2-1.1 0-1-.3-1.6-.9-1.9-.6-.3-.6-.3-3.4-.3h-2.6v2.3zm0 6.7v2.5h2.8c2.7 0 2.8 0 3.1-.1.4-.1.8-.3 1.1-.6.5-.5.7-1 .7-1.8s-.2-1.3-.7-1.8c-.3-.3-.6-.4-1.1-.6-.3-.1-.4-.1-3.1-.1h-2.8v2.5zM679.6 214.5h6.4c.7 0 1.4.3 1.9.7 1.3 1 1.5 3.7-.4 4.7-.1.1-.2.1-.3.2.4.2.7.3 1 .5 1.1.7 1.5 2.4 1 3.9-.4 1.3-1.5 1.8-2.6 2.1-.4.1-.8.1-1.2.1h-5.8v-12.2zm2.1 10.4h4.2c.9 0 1.5-1 1.5-1.9-.1-.9-.6-1.7-1.5-1.7-1.4-.1-2.8-.1-4.2-.1l-.1.1v3.6zm0-5.4c1.3 0 2.5.1 3.8 0 .9-.1 1.4-.8 1.4-1.8 0-.9-.6-1.4-1.5-1.5h-3.7v3.3zm64.3-1.6h1.7v.9c.2-.1.4-.3.7-.5 1.3-1.2 4.5-1 5.5 1.3.9 2 .9 4-.4 5.9-.7 1-1.8 1.4-3 1.3-1.1-.1-2-.4-2.7-1.4v4.4H746v-11.9zm1.8 4.4c.1.4.1.9.2 1.3.3.9 1.1 1.7 1.9 1.7 1.1.1 2-.4 2.4-1.4.5-1.3.5-2.6-.3-3.8-.9-1.4-3.1-1.3-3.8.2-.3.7-.4 1.3-.4 2m-3 3.1v1.1c0 .1-.1.2-.2.2-.5 0-1.1.1-1.6.1-.5-.1-.7-.5-.9-.9-1.1.9-2.4 1.1-3.8.9-1.1-.1-2.1-1.1-2.2-2.2-.1-1.5.4-2.4 1.7-2.8.9-.2 1.8-.3 2.8-.5.2 0 .4-.1.7-.1.4-.1.7-.4.7-.8 0-.5-.2-.9-.6-1.1-.8-.3-1.6-.3-2.4.1-.4.2-.6.5-.7 1.1h-1.8c0-.7.2-1.3.7-1.8.6-.7 1.4-.9 2.3-1 .9-.1 1.8-.1 2.7.2 1.2.4 1.7 1.2 1.7 2.5v4c0 .9 0 .9.9 1m-2.8-3c-.6.1-1.1.2-1.6.3-.5.1-1.1.2-1.6.4s-.7.7-.7 1.2.4.8.8.9c.7.3 1.5.2 2.2-.1.5-.2.9-.6.9-1.2v-1.5m-46.9-4.8c2.9 0 4.5 2.1 4.4 5-.1 1-.3 2-1 2.8-.7.9-1.6 1.3-2.7 1.4-.9.1-1.8 0-2.6-.4-1.2-.6-2-1.6-2.3-2.9-.2-.9-.2-1.8 0-2.8.5-1.9 2-3.1 4.2-3.1m-2.5 4.7c.1.4.1.9.2 1.3.3 1.1 1.1 1.7 2 1.8 1.2.1 2-.4 2.4-1.5.4-1.1.4-2.2 0-3.2-.7-1.6-2.5-2-3.7-.8-.7.6-.9 1.4-.9 2.4m12.4-4.7c2.6 0 4.3 1.8 4.4 4.4 0 1.1-.2 2.2-.8 3.1-.9 1.3-2.2 1.8-3.8 1.7-.6 0-1.2-.1-1.7-.4-1.2-.5-2-1.5-2.3-2.8-.3-1.1-.3-2.3.1-3.4.6-1.6 2.1-2.6 4.1-2.6m2.5 4.4c0-.2-.1-.7-.2-1.1-.3-1.1-1.2-1.7-2.2-1.8-1 0-1.9.5-2.3 1.6-.4 1.2-.4 2.4.3 3.6.7 1.2 2.3 1.5 3.4.6.7-.7.9-1.7 1-2.9m15.9-1.7h-1.7c-.1 0-.2-.1-.2-.1-.3-.9-1.1-1-1.9-1-.3 0-.7.1-1 .2-.7.3-.7 1-.1 1.4.4.2.9.4 1.4.5.7.2 1.4.3 2 .5 1.7.5 2.4 2.3 1.4 3.7-.4.7-1.1 1.1-1.9 1.2-1.2.3-2.3.3-3.4-.1-1.2-.4-1.8-1.3-1.9-2.7h1.8c.5 1.4 2 1.9 3.4 1.2.3-.2.5-.4.6-.8 0-.4-.1-.8-.5-.9-.7-.2-1.3-.4-2-.6-.6-.2-1.1-.3-1.6-.5-1-.4-1.5-1.1-1.5-2.2 0-.9.5-1.7 1.5-2.1 1.3-.5 2.7-.6 4 0 .9.4 1.4 1.1 1.7 2-.1.1-.1.2-.1.3m-10-2.5h1.7v1.4h-1.7v5.3c0 .4.2.6.6.6h1.1v1.4c-.8.2-1.6.2-2.3 0-.9-.2-1.2-.8-1.3-2v-5.3h-1.4v-1.4h1.4v-2.6h1.9v2.6m15.9 8.9h-2.1c-.7 0-1.2-.5-1.3-1.2-.1-.4-.1-.8-.1-1.2v-5h-1.4v-1.4h1.4v-2.6h1.9v2.6h1.7v1.4h-1.6V224.2c0 .8.2 1 1 1h.7l-.2 1.5zm3.2-8.8v1.5c.7-1.3 1.7-1.9 3.3-1.7v1.8c-.7-.1-1.4-.1-2 .3-.8.6-1.1 1.5-1.1 2.4v4.4h-1.9v-8.7h1.7"/><path fill="#1A4658" d="M1114.6 511.5c0 1.3-8.7 2.4-19.5 2.4-10.7 0-19.5-1.1-19.5-2.4s10.2-2.4 19.5-2.4c11 .1 19.5 1.1 19.5 2.4"/><path fill="#EDF7FA" d="M1113.4 494.5c-.6 0-1.3-.3-1.7-2.4-.5-2.1-1.2-4.3-1.2-4.3.7 0 1.2-.3 1.2-.3-.5-.2-1.6-1-2.4-2-.7-1-2.6-2.5-2.6-2.5v-3.1c0-2.1 1.4-3.8 1.4-3.8-.9 0-1.4.8-1.4.8v-4.5c0-4.4 2.2-6.4 2.2-6.4-.7 0-1.2.3-1.2.3.3-3.3 1.3-4.3 1.3-4.3-3.7-1-5.8 1.2-5.8 1.2-.4-2 1.2-3.2 1.2-3.2-1.9-.4-3.5.1-3.5.1 0-2.9 1.2-3.9 1.2-3.9-5.8 0-9.1 4.4-9.1 4.4-.2-1.9.3-3.5.3-3.5-5.6 2.4-7.1 7.6-7.1 7.6-.4-.9-.4-2.9-.4-2.9s-2.3 3.9-2.7 6.6c-.4 2.7.4 10.4.4 10.4s-.4-.5-1.2-.6c0 0 .8.9.8 3 0 0-.3-.3-.9-.1 0 0 .9.8 1 2.1 0 0-1 .7-1.6 1.4 0 0-.9 0-1.3.2 0 0 .7.4.9.8 0 0-2.2 2.2-3.3 4 0 0 1-.6 1.7-.4 0 0-1.5 1.9-2 4.9 0 0 .7-.4 1.1-.2 0 0-.9 1.9-1 4l-1 .6.8.6s-.6 2.5-.7 3.9c0 0 .5-.5.8-.6 0 0 .5 1.2 1.2 2.1.7.9 2.3 1.7 3.2 1.7l1.7-.1c-.2.9-.6 1.7-1.5 1.8l-.1.2h-.1c0 .3-.6.3-.7.5-.5.6-.8 1.4-1 2.1-.2.5-.1.5-.2 1 0 .2-.2.4-.3.5.5-.2 1.9-.3 2.6-.3v.6s.1.1.3.2h.2c1.1-.1 1.9.1 3.1 0 .2 0 .5-.1.7-.2.1-.2.1-.2.1-.4v-.1h.2c.2 0 .6 0 .8-.1.7 0 1.7.1 1.7.1.1-.8.1-2.1 1.5-5.9l.3-.2s4.2 1.5 8-.1c.3.8 1.3 3.3 1.4 4.9.1.2.1.4.1.7v.6c.1 0 .6-.1 1.3-.1.2 0 .6 0 .8.1h.2v.1c0 .2 0 .2.1.4h.1c.7-.1 1.4-.1 2.1-.1.5 0 1.1.1 1.6.2h.2c.3.1.6.1.9.1v-1c.6 0 1.4.1 1.8.2.1 0 .3.1.4.1.1 0 .2.1.4.1 0-.3 0-.3-.1-.7 0-.3-.3-1.2-.7-1.6l.6.3c-.4-.6-.7-1.4-2-2 0 0 .3-.1.5-.1-.2-.1-.4-.2-.7-.2.1-.2.4-.8.8-.9 0 0-.2-.1-.5 0-.1.1-.2.1-.3.2h-.1c-.1-.4-.2-.7-.2-1.1 2.8-.1 3.2-1.5 3.2-1.5.2.2.2.6.2.6 1.2-1.6 1.1-3.1 1.1-3.1.3 0 .5.2.5.2.1-2.4-.6-6.5-.6-6.5.4.2.6 0 .6 0-.4-.2-.5-.6-.5-.6.8-.1.9-.6.9-.6"/><path fill="#CDE9EE" d="M1086.9 512s.1-1.2-.3-2c0 0 .7 0 .8 2 0-.1-.5 0-.5 0M1083.9 511.9"/><path fill="#CDE9EE" d="M1093.1 460.5c-.2-1.9.3-3.5.3-3.5-5.6 2.4-7.1 7.6-7.1 7.6-.4-.9-.4-2.9-.4-2.9s-2.3 3.9-2.7 6.6c-.4 2.7.4 10.4.4 10.4s-.4-.5-1.2-.6c0 0 .8.9.8 3 0 0-.3-.3-.9-.1 0 0 .9.8 1 2.1 0 0-1 .7-1.6 1.4 0 0-.9 0-1.3.2 0 0 .7.4.9.8 0 0-2.2 2.2-3.3 4 0 0 1-.6 1.7-.4 0 0-1.5 1.9-2 4.9 0 0 .7-.4 1.1-.2 0 0-.9 1.9-1 4l-1 .6.8.6s-.6 2.5-.7 3.9c0 0 .5-.5.8-.6 0 0 .5 1.2 1.2 2.1.7.9 2.3 1.7 3.2 1.7h.1c-.1.3-.1.6-.2 1 0 0-.1.1-.1 0-.1-.1-.2-.1-.3-.2-.3-.1-.5 0-.5 0 .3.1.7.7.8.9-.2 0-.4 0-.7.2.2 0 .5.1.5.1-1.4.6-1.6 1.4-2 2 .1-.1.6-.3.6-.3-.4.4-.6 1.3-.7 1.6 0 .4 0 .4-.1.7.4-.1.5-.1.8-.2.5-.1 1.7-.2 2.2-.2l-.1.9c.2-.1.4-.1.7-.1v-.7c0-.4 0-.8.1-1.2.2-.6.5-.9.7-1.1l.2-.2.3-.6c.2-.5.1-1.7-.3-2.8.4.6.8 1.1.9 1.3v-1.4s.7.7 1.4 1.3c.3.3.7.6 1 .8 0 0 0-.1.1.1.4.2.8.4 1.1.6 0 0 .1 0 .1.1.2.1.5.2.7.4l.3 3c.2-3.1 2-6.1 2-6.1h-.1c-.5-.2-4.6-1.6-6.9-6.5-.2-.3.9.4.9.4-1-2.4-1.3-6.2-1.3-6.2.3.3.6.3.6.3-.7-1.9-1-4.4-1-6.5-.2-11.7 4.1-14.4 4.1-14.4-.7-.3-1.5-.3-1.5-.3.9-2.1 3.7-4.9 3.7-4.9-.8 0-3.8.9-3.8.9 2.5-6.5 5-8.2 5-8.2-.2 1.6.4 3.2.4 3.2 5.4-6.6 9.7-6.3 9.7-6.3.3-.7.7-1.1.7-1.1-5.8-.2-9.1 4.1-9.1 4.1m15.2 51.4s-.1-1.7-.4-2.5c0 0 1 .6 1 2.6 0 0-.5-.1-.6-.1"/><path fill="#ABD8D7" d="M1082.4 503.3c.7-6.4.8-19 .8-19-1.4 2.8-2.6 7.9-2.6 7.9l.3 1.1-.6-.3c-1 3.5-.3 8.2-.1 9.5.7.5 1.4.7 2.2.8m-1.3-.2.6 3h.4c.2-.6.2-1.6.3-2.8-.5.1-.9 0-1.3-.2"/><path fill="#CDE9EE" d="M1102.8 508.7h-.2c1-.7 1-1.4 1-1.4-.6.3-1.3.4-1.6.4 2.2-1.9 2.6-5.5 2.6-5.5-.9 1.1-2.2 2-3.2 2.7 0 0-.7.4-1.3.7h-.1c-.3.1-.6.3-.8.3 0 0 .5.9.7 1.5 0 0 .7 1.7 1 3.4 0 .3.1.5.1.7v.4c1-.1 2.4 0 2.4 0 0 .2.1.5.1.6.5-.1.9-.1 1.4-.1 0-1.6-.1-4.3-2.1-3.7"/><path fill="#83BAC0" d="M1082.4 503.8c-1.5-.3-2.9-2-2.9-2 1.1 1.2 2.5 1.3 2.5 1.3.2-1.4-.9-4.5-.9-4.5.8 1 1.3 2.2 1.5 3.2l-.2 2"/><path fill="#ABD8D7" d="M1085.8 501.4s1.2 2.1 2.3 3c1.1 1 2.2 2.4 2.7 3.2 0 0 .6-1.3.9-1.8-.1.1-3.4-.9-5.9-4.4m15.8 4.1c.2-.2.4-.5.5-.7.3-.4.6-.7.9-1.1-.4.3-.9.6-1.4.9-1.4 1-2.4 1.3-2.4 1.3.3.5.9 1.8.9 1.8.3-.5.8-1.2 1.4-1.9 0-.1 0-.2.1-.3"/><path fill="#545352" d="M1085.4 469.7h-.6c-3.8.3-6.6-2.7-6.6-2.7s-.3 2.3 1.4 4.3 5 2.4 5 2.4c.1.5-.1 1.5-.1 1.5s1-1.1 1.2-3.1c.2-1.4-.2-2.4-.3-2.4"/><path fill="#6E7979" d="M1085.4 469.7h-.6c-3.8.3-6.6-2.7-6.6-2.7s1.7 5 7.6 4.7c0 0 .1-1-.4-2"/><path fill="#545352" d="M1104.4 469.7h.6c3.8.3 6.6-2.7 6.6-2.7s.3 2.3-1.4 4.3-5 2.4-5 2.4c-.1.5.1 1.5.1 1.5s-1-1.1-1.2-3.1c-.2-1.4.3-2.4.3-2.4"/><path fill="#6E7979" d="M1104.4 469.7h.6c3.8.3 6.6-2.7 6.6-2.7s-1.7 5-7.6 4.7c.1 0-.1-1 .4-2"/><path fill="#CDE9EE" d="M1083.4 486.8s-2.7 9.9 0 16.2v-16.2m27.3 15.6c-1.4 1-2.8 1.1-2.8 1.1-.1-1.4 1.4-4.3 1.4-4.3-.3.2-.6.4-.8.7v-1l1.1-.9-.9-.7 1.1-4.4-1 .7s-.3-6.2-.1-8.9c0 0-1.3-1.3-2-1.9 0 0 .1 1.9.3 5 .6 2.5 1.5 7.5.4 12v2.8s.6 2 .8 3.4c0 0 .2.1.5 0v-2.1c1.3-.4 2-1.5 2-1.5m-12.8-19.1c0 1.1.7 1.9 1.5 1.9s1.5-.9 1.5-1.9c0-1.1-.7-1.9-1.5-1.9s-1.5.8-1.5 1.9"/><path fill="#FFF" d="M1097.9 482.8c0 1 .7 1.9 1.5 1.9s1.5-.8 1.5-1.9c0-1-.7-1.9-1.5-1.9s-1.5.9-1.5 1.9"/><path fill="#474746" d="M1099 481.8v.1c0 .3.2.5.4.5s.3-.2.4-.4c.1.2.2.4.2.6 0 .5-.3.9-.7.9-.4 0-.7-.4-.7-.9-.1-.3.1-.7.4-.8"/><path fill="#CDE9EE" d="M1090.7 483.3c0 1.1.7 1.9 1.5 1.9s1.5-.9 1.5-1.9c0-1.1-.7-1.9-1.5-1.9-.9 0-1.5.8-1.5 1.9"/><path fill="#FFF" d="M1090.7 482.8c0 1 .7 1.9 1.5 1.9s1.5-.8 1.5-1.9c0-1-.7-1.9-1.5-1.9s-1.5.9-1.5 1.9"/><path fill="#474746" d="M1092.1 481.8v.1c0 .3.2.5.4.5s.3-.2.4-.4c.1.2.2.4.2.6 0 .5-.3.9-.7.9-.4 0-.7-.4-.7-.9-.1-.3.1-.7.4-.8"/><path fill="#545352" d="M1103.3 484.8c-.1.3-.4.4-1.3.5h-.1c-.9.2-2.5.1-3.4 0h-.1c-.8-.1-.9-.2-1.2-.7-.3-.4-.4-1.7-.5-2 0-.3 0-.4.3-.6.5-.2 2.5-.5 3.3-.5.7 0 2.1.1 2.7.2h.2c.1 0 .3.2.3.4.2.5-.1 2.3-.2 2.7m-8.9-2.1c0 .3-.2 1.5-.5 2-.3.4-.4.5-1.2.7h-.1c-.9.1-2.5.1-3.4 0h-.1c-.9-.2-1.2-.3-1.3-.5-.1-.4-.4-2.2-.4-2.5 0-.3.3-.4.3-.4h.2c.6-.1 2-.2 2.7-.2.8 0 2.9.3 3.3.5.5 0 .5.1.5.4m10.1-1.7c-.7-.1-1.8-.2-3.3-.1-1.8.1-3.4.3-4.3.5-.3 0-.5.1-.7.1h-.2c-.2 0-.3 0-.5.1-.1 0-.3 0-.5-.1h-.2c-.2 0-.4-.1-.7-.1-.9-.2-2.5-.4-4.3-.5-1.4-.1-2.6 0-3.2.1 0 0-.7.1-1.3.4l.1.8s.6-.2 1.3-.2c.1 1.1.3 2.5.3 2.5 0 .1 0 .1.1.2.1.6.3.9.8 1.1.5.2 1.7.4 2.9.4.5 0 1 0 1.5-.1.8-.1 1.5-.3 1.7-.5.4-.3.6-1 .7-1.5v-.1c0-.2.1-.3.1-.5.1-.2.1-.5.2-.6 0 0 .1-.1.2-.1h.4c.2 0 .2.1.2.1.1.1.1.3.2.6 0 .2.1.3.1.5v.1c.1.5.3 1.2.7 1.5.3.2 1 .4 1.7.5.5.1 1 .1 1.5.1 1.2-.1 2.4-.2 2.9-.4s.6-.5.8-1.1c0-.1 0-.1.1-.2 0 0 .2-1.4.3-2.5.6.1 1.3.2 1.3.2l.1-.8c-.3-.3-1-.4-1-.4"/><path fill="#A0D1DE" d="M1092.6 479s-1.7-.8-2.6.7c0 0-.1-1.5 1.3-1.6 1.3-.2 1.3.9 1.3.9m-.6-2.1s-1.6-.7-2.3.7c0 0-.2-1.2.9-1.5 1.1-.4 1.4.8 1.4.8m6.6 3s1.3-.6 2 .5c0 0 .1-1.1-1-1.3-1 0-1 .8-1 .8m.9-2s1.3-.2 1.5 1c0 0 .4-.9-.3-1.3-.7-.5-1.2.3-1.2.3"/><path fill="#B2DCE5" d="M1092.5 490.7s.9-.6 1.5-.7c0 0 .1 1.2.7 1.7 0 0 1.2-1 2.3-1.1 0 0 .3.6.8.9l.6.3s.7-.4.9-1.1c0 0 .1 1.5-.9 2.4 0 0-.7-.4-1.3-.9-.2-.2-.3-.3-.4-.5 0 0-1.7 1.2-1.8 1.9 0 0-1.2-1.2-1.7-2.1 0 0-.8.3-1 .4 0 0-.7-1.1-.8-2.1-.1 0 .7.7 1.1.9"/><path fill="#545352" d="M1095.6 487.7c-.1 0 1.7.1 3.5.1 0 0 .1-.3.2-.5 0 0 0 .6.1.7 0 0-.9.3-1.8.3 0 0 1-.2 1.3-.3.1-.1-1.7 0-3.3-.3"/><path fill="#002A41" fill-rule="evenodd" d="M237.2 386.1v12.4l9.3 5.3v-3.6l-6.2-3.5v-5.6l6.2 3.6v-3.4z" clip-rule="evenodd"/><path fill="none" stroke="#848484" stroke-miterlimit="10" stroke-width=".026" d="M237.2 386.1v12.4l9.3 5.3v-3.6l-6.2-3.5v-5.6l6.2 3.6v-3.4z"/><path fill="#0071B5" fill-rule="evenodd" d="M255.8 386.1v12.4l-9.3 5.3v-3.6l6.2-3.5v-5.6l-6.2 3.6v-3.4z" clip-rule="evenodd"/><path fill="none" stroke="#848484" stroke-miterlimit="10" stroke-width=".026" d="M255.8 386.1v12.4l-9.3 5.3v-3.6l6.2-3.5v-5.6l-6.2 3.6v-3.4z"/><path fill="#0071B5" fill-rule="evenodd" d="M237.2 409.1v-12.4l9.3-5.3v3.6l-6.2 3.5v5.3l6.2-3.6v3.6z" clip-rule="evenodd"/><path fill="none" stroke="#848484" stroke-miterlimit="10" stroke-width=".026" d="M237.2 409.1v-12.4l9.3-5.3v3.6l-6.2 3.5v5.3l6.2-3.6v3.6z"/><path fill="#002A41" fill-rule="evenodd" d="M255.8 409.1v-12.4l-9.3-5.3v3.6l6.2 3.5v5.3l-6.2-3.6v3.6z" clip-rule="evenodd"/><path fill="none" stroke="#848484" stroke-miterlimit="10" stroke-width=".026" d="M255.8 409.1v-12.4l-9.3-5.3v3.6l6.2 3.5v5.3l-6.2-3.6v3.6z"/><path fill="#002A41" d="M263.4 391.6h3.4c1.5 0 2.6.3 3.4.8.7.5 1.1 1.3 1.1 2.3 0 .7-.2 1.3-.7 1.8-.4.5-1.1.8-1.9.9v.1c1 .1 1.7.5 2.2.9.5.5.7 1.1.7 2 0 1.1-.4 2-1.1 2.6-.8.6-1.8.9-3.2.9h-3.8v-12.3zm.9 5.5h2.7c1.2 0 2-.2 2.5-.6.5-.4.8-1 .8-1.8s-.3-1.4-.9-1.8c-.6-.4-1.5-.6-2.7-.6h-2.5v4.8zm0 .7v5.3h2.9c2.3 0 3.4-.9 3.4-2.8 0-1.7-1.2-2.5-3.6-2.5h-2.7zM280.2 399.6h-5l-1.7 4.4h-1l5-12.4h.5l4.9 12.4h-1l-1.7-4.4zm-4.7-.8h4.4l-1.7-4.4c-.1-.3-.3-.8-.5-1.5-.2.5-.3 1-.5 1.5l-1.7 4.4zM289.9 392.2c-1.5 0-2.8.5-3.7 1.5-.9 1-1.3 2.3-1.3 4.1 0 1.8.4 3.1 1.3 4.1.8 1 2 1.5 3.6 1.5 1 0 2-.1 2.9-.4v.8c-.8.3-1.8.4-3.1.4-1.7 0-3.1-.6-4.1-1.7s-1.5-2.7-1.5-4.7c0-1.3.2-2.4.7-3.3.5-1 1.2-1.7 2-2.2.9-.5 1.9-.8 3.1-.8 1.2 0 2.3.2 3.2.7l-.3.8c-.9-.6-1.8-.8-2.8-.8M303.6 403.9h-1l-4.8-6.5-1.6 1.5v5h-.9v-12.3h.9v6.4l1.4-1.4 4.8-5h1.1l-5.1 5.2zM305.4 391.6h3.4c1.5 0 2.6.3 3.4.8.7.5 1.1 1.3 1.1 2.3 0 .7-.2 1.3-.7 1.8-.4.5-1.1.8-1.9.9v.1c1 .1 1.7.5 2.2.9.5.5.7 1.1.7 2 0 1.1-.4 2-1.1 2.6-.8.6-1.8.9-3.2.9h-3.8v-12.3zm.9 5.5h2.7c1.2 0 2-.2 2.5-.6.5-.4.8-1 .8-1.8s-.3-1.4-.9-1.8c-.6-.4-1.5-.6-2.7-.6h-2.5v4.8zm0 .7v5.3h2.9c2.3 0 3.4-.9 3.4-2.8 0-1.7-1.2-2.5-3.6-2.5h-2.7zM326.6 397.7c0 2-.5 3.5-1.5 4.6-1 1.1-2.3 1.7-4 1.7-1.7 0-3.1-.6-4-1.7-1-1.1-1.5-2.7-1.5-4.7s.5-3.5 1.5-4.6c1-1.1 2.3-1.7 4-1.7 1.7 0 3.1.6 4 1.7 1 1.2 1.5 2.8 1.5 4.7m-10.1 0c0 1.8.4 3.1 1.2 4.1.8 1 1.9 1.4 3.4 1.4s2.6-.5 3.4-1.4c.8-1 1.2-2.3 1.2-4.1 0-1.8-.4-3.1-1.2-4.1-.8-.9-1.9-1.4-3.4-1.4s-2.6.5-3.4 1.4c-.8 1-1.2 2.4-1.2 4.1M338.4 403.9h-.9l-7.3-10.9h-.1c.1 1.3.1 2.3.1 3v8h-.8v-12.3h.9l7.3 10.9h.1c-.1-1-.1-2-.1-2.9v-8h.8v12.2zM348.6 403.9h-6.7v-12.3h6.7v.8h-5.9v4.7h5.6v.7h-5.6v5.3h5.9zM351 403.3c0-.6.2-.8.7-.8.5 0 .7.3.7.8 0 .6-.2.8-.7.8-.4 0-.7-.3-.7-.8M353.5 407c-.5 0-.9-.1-1.3-.2v-.7c.4.1.9.2 1.3.2 1.4 0 2-.7 2-2.2v-12.4h.9V404c0 2-1 3-2.9 3M366.6 400.7c0 1-.4 1.8-1.1 2.4-.8.6-1.8.9-3 .9-1.5 0-2.7-.2-3.5-.5v-.9c.9.4 2 .6 3.4.6 1 0 1.8-.2 2.4-.7.6-.5.9-1.1.9-1.8 0-.5-.1-.9-.3-1.2-.2-.3-.5-.6-1-.8s-1.1-.5-2-.8c-1.3-.4-2.1-.9-2.6-1.4-.5-.5-.7-1.2-.7-2 0-.9.4-1.7 1.1-2.3.7-.6 1.7-.9 2.8-.9 1.2 0 2.2.2 3.3.7l-.3.7c-1-.4-2-.6-2.9-.6-.9 0-1.6.2-2.2.6-.5.4-.8 1-.8 1.7 0 .5.1.8.2 1.1.2.3.4.6.8.8.4.2 1 .5 1.9.8 1 .3 1.7.7 2.2 1 .5.3.8.7 1.1 1.1.2.5.3 1 .3 1.5"/><path fill-rule="evenodd" d="M658.4 309.2s-.1 0 0 0c0 0-.2-.1-.3 0-.1 0-.3 0-.5-.1-.1-.1-.3 0-.4-.1-.1-.1-.3-.1-.4-.1-.1 0-.3 0-.4.1l-.4.4c-.1.1-.4.5-.6.5v.4l-.1.1v.2c0 .1.1.3-.1.2-.2-.1-.1-.2-.3-.2-.1 0-.3 0-.4-.2-.1-.2-.1-.5-.2-.6 0-.1-.1-.3 0-.5s.2-.3.2-.4c0 0 .1-.3.2-.4.1 0 0-.2.1-.2 0-.1 0-.1.1-.2 0-.1 0-.2.1-.3 0-.1.2-.3.2-.4.1-.1.1-.2.1-.3 0 0 0-.1.1-.2s.3-.3.3-.4v-.5c.1 0 .2-.1.2-.1l-.2-.2c-.1-.1-.5-.5-.6-.8 0-.3-.1-.7.3-.9.4-.2.8-.2.8-.2.1 0 .3-.1.4 0h-.1s.2 0 .2.1h-.2c-.1 0 .1.1.1.1 0 .1.1.1.1.2v.3s.1.1.1.2 0 .3.1.3c0 .1.1.3.1.4 0 0 0 .1.2-.1s.3-.2.4-.2c.1 0 .2-.1.3 0H658.8c.1 0 .4-.1.4-.1.1 0-.1-.1 0-.2s-.1-.1.1-.3c.2-.2 0-.3 0-.3v-.7s0-.1-.1-.2c0-.1-.2-.4-.3-.4-.1 0-.1-.1-.1-.2s.1-.1 0-.2v-.2s0-.2.1-.3v-.2s.1 0 .1.1 0 .1.1.2v.1h.1s.1 0 .1.1h.2v.7c0 .1.2.4.2.4h.4c.1 0 .3 0 .3.1v.7c0 .2 0 .7-.1.9 0 .2-.3.6-.4.7-.1.1-.2.1-.5.2s-.6.3-.6.3l.2.2h.2l.3.1c0-.1.1-.2.1-.2v.1l.7-.1h.1s.2-.1.3-.1h.5c.1 0 .4-.2.5-.3.1-.1.5 0 .6-.2.2-.1.5-.4.7-.4.1-.1 1.2-.8 1.5-.8s.8-.3.9-.3c.1-.1.4-.2.5-.3.1-.1.4.1.5.3 0 0 .3-.1.4-.2.1 0 .2-.1.3-.2.1-.1.4-.3.5-.3 0 0 .1 0 .1-.1l.1-.1.1-.1s.1-.1.1 0h.1s.1-.1.1 0h.1v.2s-.1 0-.1.1-.2.2-.3.3c-.1.1-.3.2-.3.4s-.1.5-.3.4c-.2-.1-.4 0-.6.1v.1s-.1 0-.2.1-.2.1-.3.2l-.2.2c-.1 0-.2.1-.2.2-.1.1-.3.2-.5.3-.2.1-1.2.5-1.5.7-.2.2-.7.5-1.3.8h-.1s-.6.5-.8.7c-.2.1-.3.2-.3.5 0 .2-.2.5-.3.8v.7c0 .2-.3 2.2-.3 2.4-.1.2-.1.4 0 .5 0 .2 0 .4-.1.5-.1.2-.2.6-.2.8v.3c-.1 0-.3 0-.3.1s-.1.1-.1.1v.4c.1.1.3.3 0 .5s-.5.4-.6.5c-.1.1-.2.2-.3.2-.1 0-.1.1-.2.1 0 0-.1.1-.2.1h-.1s-.1 0-.1-.1c0 0-.1 0-.1-.1 0 0 0-.1.1-.1s.4-.3.4-.4c0 0 .1-.4.2-.5.1-.1.2-.5.2-.8V312.9c0-.3 0-2.1.1-2.4.1-.2.1-.3.1-.4v-.8l-.3-.3v.2l-.1-.1c-.1-.1-.2-.3-.2-.4-.3.6-.5.5-.5.5" clip-rule="evenodd"/><path fill="#991B21" fill-rule="evenodd" d="M678 306.4h1.1v7.9H678v-7.9zm-2.8-1.9-.3 1c-.7-.3-1.6-.6-2.4-.6h-.1c-1.7 0-2.1.6-2.1 1.8 0 1 .4 1.4 1 1.6.5.1.9.2 1.3.3h.1c1.7.3 2.8.4 2.8 2.7v.1c0 2.3-1.3 3-3.2 3-.9 0-2.3-.2-3.4-.8l.4-.9c.6.3 1.7.8 2.9.8 1.6 0 2.1-.7 2.1-1.9v-.3c0-1.2-.2-1.4-2-1.7-1.9-.3-3.2-.6-3.2-2.8v-.1c0-2.1 1.2-2.8 3.1-2.8h.1c.9.2 2.1.3 2.9.6m3.4 0c-.6 0-.8-.2-.8-.8 0-.6.2-.8.8-.8.6 0 .8.2.8.8-.1.6-.3.8-.8.8m9.8-1.6v7.8c0 1.6 0 2.7.1 3.6l-1 .1-.2-.9c-.5.4-1.6 1-2.8 1-2.3 0-2.5-1.9-2.5-3.8 0-2.5 0-4.4 2.6-4.4.9 0 1.9.1 2.6.5V303l1.2-.1zm-1.1 7.7v-2.9c-.7-.2-1.5-.4-2.3-.4-1.5 0-1.8.2-1.8 3.3v.1c0 1.9.3 2.7 1.6 2.7h.1c.8 0 1.9-.5 2.4-.9v-1.9m3.8-.3v-.3c0-2.9 1.2-3.7 3.5-3.7 2.6 0 3 1.3 3 3.3v1.1h-2.7c-.8 0-2-.1-2.6-.1 0 1.9.3 2.9 2.2 2.9 1 0 2-.2 2.7-.5l.3.9s-1.3.5-3 .5c-1.3 0-2.2-.2-2.7-.9-.6-.6-.7-1.8-.7-3.2m1.1-.5h4.2v-.6c0-1.3-.4-2-2-2-1.7 0-2.2.7-2.2 2.6m8.1 4.5V303l1.1-.1v6.8s.2 0 .3-.1c.7-.3 2.5-2.5 3-3.3h1.3c-.3.7-2.7 3.3-3.3 3.5v.1c.2.1.5.2 1.3 1.2l2.5 3.1h-1.4l-1.7-2.2c-.9-1.1-1.3-1.5-1.6-1.6h-.5v3.8h-1zm8.2-7.9h1.1v7.9h-1.1v-7.9zm.6-1.9c-.6 0-.8-.2-.8-.8 0-.6.2-.8.8-.8.6 0 .8.2.8.8-.1.6-.3.8-.8.8m8.8 12.8v-3.8c-.5.4-1.5.9-2.7.9-2.4 0-2.6-1.9-2.6-3.8 0-2.5 0-4.4 2.6-4.4.9 0 1.9.3 2.7.7l.1-.5h.9v10.9h-1zm-2.5-3.9c.9 0 1.9-.4 2.5-.8v-4.8c-.6-.3-1.5-.6-2.3-.6-1.5 0-1.8.2-1.8 3.3v.1c-.1 2.1.3 2.8 1.6 2.8" clip-rule="evenodd"/><path fill-rule="evenodd" d="M723.5 314.9v-10.1c1.2-.1 2.5-.2 3.8-.2 2.3 0 2.8 1 2.8 2.7v.8c0 1.4-.3 2.5-1.1 3.1-.6.5-1.4.5-2.1.5-.7 0-1.5-.1-2.3-.2v3.4h-1.1zm1.1-9.2v5c.7.1 1.6.2 2.3.2 1.7 0 2-.6 2-2.6v-.8c0-1.3-.5-1.8-1.6-1.8-.8-.1-1.8-.1-2.7 0m7.8 9.4v-7.9h1l.1 1.1s.6-.9 1.3-1.1c.2-.1.4-.1.6-.1.3 0 .7.1.7.1l-.1 1.1c-.3-.1-.6-.1-.8-.1-.7 0-1.3.4-1.7.9v6.1h-1.1zm5.5-3.8c0-2.7.3-4.1 3.4-4.1s3.2 1.5 3.2 4.1c0 2.8-.4 4.1-3.3 4.1-3.1-.1-3.3-1.5-3.3-4.1m3.2 3.1c2 0 2.1-.9 2.1-3.3 0-2-.1-3-2.1-3-2.1 0-2.2.9-2.2 3 .1 2.3.2 3.3 2.2 3.3" clip-rule="evenodd"/><path fill="none" stroke="#000" stroke-miterlimit="10" stroke-width=".5" d="M996.4 441.3h198.4v87.4H996.4zM996.4 179h198.4v87.4H996.4zM798 266.4h198.4v87.4H798z"/><path fill="#131B28" d="m890.4 220.2-.6 2.3zM893.7 225.2h-.7.7zM893.5 228.6h-4.2 4.2zM894.4 225.2h-.7.7zM893.9 228.3l.8-2.8-.8 2.8zM909.7 215.3l-1.4 6.5 1.4-6.5zM906.1 215.3l-1.1 4.9 1.1-4.9zM909.4 215h-3c-.2 0-.3.1-.4.3l-1.1 4.9-.9 4.8c0 .2-.2.3-.4.3h-2.1c-2.1 0-1.8-1.4-1.4-3.4V221.6l.1-.5.1-.5c0-.2.1-.4.1-.6l.5-2.3.5-2.3c0-.2-.1-.3-.2-.3h-3c-.2 0-.3.1-.4.3l-.7 3.1-.7 3.1-.1.3c-.8 3.4-.6 6.7 3.5 6.8h6.5c.2 0 .3-.1.4-.3l1.4-6.5 1.4-6.5c.2-.3.1-.4-.1-.4M921.2 225.3c.2 0 .3.1.2.3l-.3 1.4M920.9 228.4l.3-1.4-.3 1.4zM920.5 228.7H915h5.5zM913.3 223.5c0-.2.2-.4.3-.4h-.4c-.1 1.7.1.4.1.4M915.4 228.7z"/><path fill="#131B28" d="M921.2 225.3c.2 0 .3.1.2.3l-.3 1.4v.2M916.8 228.7zM916 228.7zM915.6 228.7zM916 228.7h-.2.2zM916.7 228.7h-.7.7M920.5 228.7h-3.8 3.8M920.9 228.4l.2-1.2-.2 1.2zM915.7 228.7h-.2.2zM915.3 228.7h-.2.2zM915.5 228.7h-.2.2zM872.1 223.5l.5-2-.5 2.3-.5 2.4.4-2.1c.1-.1.1-.4.1-.6M877.7 214.9h-3.3c-.2 0-.3.1-.4.3l-.3 1.4-.3 1.4c0 .2.1.3.2.3h3.3c.2 0 .3-.1.4-.3l.3-1.4.3-1.4c0-.1-.1-.3-.2-.3M877 219.5l-1 4.4zM873.1 219.5l-.5 2 .5-2z"/><path fill="#131B28" d="M876.7 219.2h-3.3c-.2 0-.3.1-.4.3l-.5 2-.5 2c0 .2-.1.4-.1.6l-.4 2.1-.4 2.1c0 .2-.1.4-.2.6 0 0-.6 1.8-1.6 1.8h-1c-.2 0-.3.1-.4.3l-.3 1.4-.3 1.4c0 .2.1.3.2.3h2.7c2.6 0 3.9-1.4 4.8-5.5l1-4.7 1-4.4c0-.2-.1-.3-.3-.3M923.3 228.6c-.2 0-.3-.1-.2-.3l2.5-11.6M926.8 228.3l1-4.9-1 4.9z"/><path fill="#131B28" d="M923.1 228.4v-.4l1.2-5.5-1.2 5.8c0 .2.1.3.2.3h.3c-.1 0-.4-.1-.5-.2M926.6 228.5c-.1 0-.3.1-.5.1h.3c.2 0 .3-.1.4-.3l.1-.3c-.1.2-.2.5-.3.5M927.3 225.8l.4-2.2zM937 217.5l.1.6c0 .2-.1.3-.2.3M926.8 228l.4-2.2-.4 2.2zM936.9 216.9l.1.6-.1-.6zM927.7 223.6c0-.2.1-.4.1-.6l.5-2.2-.5 2.5-.1.3zM925.6 216.5c0 .2-.1.4-.1.5l-1.2 5.5 1.2-5.8.1-.2z"/><path fill="#131B28" d="m937.1 218.1-.1-.6-.1-.6-.1-.3c-.3-1-1-1.6-2.7-1.6h-7.7c-.2 0-.3.1-.4.3l-.1.6-.1.7v.2l-1.2 5.8-1.2 5.5v.4c0 .1.3.1.5.1h2.5c.2 0 .4 0 .5-.1.1 0 .2-.4.3-.5l.4-2.2.4-2.2.1-.3.5-2.5.5-2.2c0-.2.2-.3.4-.3h7.8c-.2.1-.1-.1-.2-.2"/><path fill="#131B28" d="M947.2 213h-3.1c-.2 0-.4.1-.5.2l-5.5 8.1c-.1.1-.2.1-.2 0l-.4-1.8c0-.2-.2-.3-.4-.3h-3.5c-.2 0-.3.1-.2.3l1.6 5.6v.6l-.7 2.7c0 .2.1.3.2.3h3.5c.2 0 .3-.1.4-.3l.7-2.7c0-.2.2-.4.3-.5l8.9-11.9c.1-.1 0-.2-.1-.2l-1-.1zM919 219.9c0 .2-.2.3-.3.3h-4.5c-.2 0-.2-.1-.2-.2v-.1c.4-1.1 1.3-1.9 2.9-1.9 1.9 0 2.3.9 2.1 1.9m-1.3-5.1c-5.8 0-7.1 3.5-7.9 7-.8 3.6-.7 7 5.3 7h5.6c.2 0 .3-.1.4-.3l.2-1.2v-.2l.3-1.4c0-.2-.1-.3-.2-.3H916c-2.1 0-2.8-.6-2.5-2.2h8.6c.1 0 .3-.1.3-.2v-.1c1.1-4.9.8-8.1-4.7-8.1M890.5 219.9l-.1.3-.6 2.3-.6 2.3c0 .2-.2.3-.4.3h-3.4c-2.6 0-3.2-2-2.6-5 .6-3.1 1.9-5 4.4-5.2 3.4-.3 4.1 2.2 3.3 5m2.3 5s1.6-3.9 2-6.2c.5-3-1-7.4-6.9-7.4-5.8 0-8.4 4.2-9.3 8.8-1 4.6.3 8.6 6.1 8.6H893.6c.2 0 .3-.1.4-.3l.7-2.8c0-.2-.1-.3-.2-.3h-1.4c-.2-.1-.3-.2-.3-.4 0 .1 0 0 0 0z"/><path fill="#131B28" d="M921.7 222.3c0 .1-.1.2-.2.2s-.2-.1-.2-.2.1-.2.2-.2.2.1.2.2"/><path fill="#0868AC" d="M848.3 217.2c-1.6 2.3-1.4 5.3-.2 7.8 0 .1.1.1.1.2 0 0 0 .1.1.1v.1s0 .1.1.1c0 .1.1.1.1.2 0 0 0 .1.1.1 0 .1.1.1.1.2 0 0 0 .1.1.1.1.1.1.2.2.3.1.1.1.2.2.2 0 0 0 .1.1.1l.2.2.1.1c.1.1.2.2.2.3l.2.2s0 .1.1.1l.2.2s.1 0 .1.1c.1.1.2.2.3.2.1.1.2.1.2.2l.1.1.2.2.1.1.2.2s.1 0 .1.1c.1 0 .1.1.2.1 0 0 .1 0 .1.1.1.1.2.1.3.2 0 0 .1 0 .1.1.1 0 .2.1.2.1s.1 0 .1.1c.1 0 .1.1.2.1h.1c.1 0 .2.1.3.1h.1c.1 0 .2.1.3.1h.1c.1 0 .2.1.3.1.1 0 .2.1.3.1h.1c.1 0 .2.1.4.1 7.8 1.4 10-4.7 10-4.7-1.9 2.5-5.3 3.1-8.5 2.4-.1 0-.2-.1-.4-.1h-.1c-.1 0-.2-.1-.3-.1-.1 0-.2-.1-.3-.1h-.1c-.1 0-.2-.1-.3-.1h-.1c-.1 0-.2-.1-.3-.1h-.1c-.1 0-.1-.1-.2-.1 0 0-.1 0-.1-.1-.1 0-.2-.1-.3-.1h-.1c-.1-.1-.2-.1-.3-.2 0 0-.1 0-.1-.1-.1-.1-.2-.1-.2-.2 0 0-.1 0-.1-.1-.1-.1-.2-.1-.2-.2 0 0-.1 0-.1-.1l-.2-.2s-.1 0-.1-.1c-.1-.1-.2-.1-.3-.2-.1-.1-.2-.2-.3-.2l-.1-.1-.2-.2-.1-.1-.2-.2c-.1-.1-.2-.2-.2-.3l-.1-.1-.2-.2s0-.1-.1-.1c-.1-.1-.1-.2-.2-.3-1.8-2.4-2.4-5.8-1-8.5"/><path fill="#0868AC" d="M853.3 215.2c-1.2 1.7-1.1 3.9-.2 5.7.2.3.3.6.5.9.2.3.4.5.6.7l.3.3.1.1c.1.1.2.2.3.2l.3.3.1.1c.1.1.2.2.3.2l.1.1h.1c.1.1.2.1.2.1.1 0 .1.1.2.1h.1s.1.1.2.1.2.1.3.1h.1c.1 0 .2.1.3.1h.1c.1 0 .2.1.2.1h.1c.1 0 .2.1.3.1 6 1 7.4-3.6 7.4-3.6-1.3 1.8-3.7 2.7-6.3 2-.1 0-.2-.1-.3-.1h-.1c-.1 0-.2-.1-.2-.1h-.1c-.1 0-.2-.1-.3-.1h-.1c-.1 0-.2-.1-.3-.1-.1 0-.1-.1-.2-.1h-.1c-.1 0-.1-.1-.2-.1s-.2-.1-.2-.1h-.1c-.1 0-.1-.1-.2-.1-.1-.1-.2-.2-.3-.2l-.1-.1c-1.1-.9-2-2.1-2.5-3.5-.4-1.4-.4-3 .4-4.4"/><path fill="#0868AC" d="M857.5 213.8c-.7 1-.8 2.3-.3 3.4.5 1.2 1.5 2.1 2.7 2.6.1 0 .1 0 .2.1h.1c.1 0 .1 0 .2.1 3.3.6 4.2-1.7 4.5-2-.8 1.1-2.1 1.4-3.7 1-.1 0-.3-.1-.4-.1-.2-.1-.3-.1-.5-.2-.3-.1-.6-.3-.8-.5-1.5-1.1-2.4-3.2-1.4-4.9"/><path fill="#D34231" d="M1087.1 214.7v-.1l-5.8 5.9 14.1 14.1 5.9-5.8 8.3-8.3-5.9-5.9h-16.6z"/><path fill="#D34231" d="m1095.4 199.1-20.6 11.8v23.6l20.6 11.8 20.6-11.8v-23.6l-20.6-11.8zm16.6 33.2-16.7 9.6-16.7-9.6v-19.1l16.7-9.6 16.7 9.6v19.1z"/><path fill="#413000" d="M1102.5 130.2c-1.5 0-2.7.7-2.7 2.5 0 1.4.7 2.3 2.6 2.3 1.5 0 2.6-.9 2.6-2.4 0-1.6-.9-2.4-2.5-2.4m-3 12.7c-.4.4-.7.9-.7 1.5 0 1.1 1.4 1.4 3.3 1.4 1.6 0 3.8-.1 3.8-1.6 0-.9-1-.9-2.4-1l-4-.3zm8.2-12.6c.5.6 1 1.5 1 2.8 0 3.1-2.4 4.9-5.9 4.9-.9 0-1.7-.1-2.2-.2l-.9 1.5 2.7.2c4.8.3 7.6.4 7.6 4.1 0 3.2-2.8 5-7.6 5-5 0-6.9-1.3-6.9-3.5 0-1.2.6-1.9 1.5-2.8-.9-.4-1.2-1.1-1.2-1.8 0-.6.3-1.2.8-1.7s1-1.1 1.7-1.7c-1.4-.7-2.4-2.1-2.4-4.1 0-3.2 2.1-5.4 6.3-5.4 1.2 0 1.9.1 2.5.3h5.4v2.4h-2.4M1115.1 125.2c-1.6 0-2.5-.9-2.5-2.5s.9-2.4 2.5-2.4 2.5.9 2.5 2.4c0 1.6-.9 2.5-2.5 2.5m-3.6 16.7v-2.2l1.4-.2c.4-.1.4-.1.4-.6v-8.1c0-.3-.1-.5-.4-.6l-1.5-.5.3-2.2h5.7V139c0 .4 0 .5.4.6l1.4.2v2.2l-7.7-.1M1130.3 140.8c-1.2.6-2.9 1.1-4.5 1.1-3.3 0-4.5-1.3-4.5-4.5v-7.2c0-.2 0-.3-.2-.3h-1.9v-2.5c2.4-.3 3.4-1.5 3.7-4.5h2.6v3.9c0 .2 0 .3.2.3h3.9v2.8h-4.1v6.6c0 1.6.4 2.3 1.9 2.3.8 0 1.6-.2 2.2-.4l.7 2.4"/><path fill="#F05133" d="m1089.3 133.5-12.7-12.6c-.7-.7-1.9-.7-2.6 0l-2.6 2.6 3.3 3.3a2.176 2.176 0 0 1 2.8 2.8l3.2 3.2c.8-.3 1.7-.1 2.3.5.9.9.9 2.3 0 3.1-.9.9-2.3.9-3.1 0-.7-.7-.8-1.6-.5-2.4l-3-3v7.9c.2.1.4.2.6.4.9.9.9 2.3 0 3.1-.9.9-2.3.9-3.1 0-.9-.9-.9-2.3 0-3.1.2-.2.5-.4.7-.5v-8c-.3-.1-.5-.3-.7-.5-.7-.7-.8-1.6-.5-2.4l-3.3-3.3-8.7 8.7c-.7.7-.7 1.9 0 2.6l12.7 12.6c.7.7 1.9.7 2.6 0l12.6-12.6c.8-.5.8-1.6 0-2.4"/><path fill="#95BF47" d="M672 476.6c0-.1-.1-.2-.2-.2h-2s-1.6-1.5-1.7-1.7c-.2-.2-.5-.1-.6-.1 0 0-.3.1-.8.2-.1-.3-.2-.6-.4-.9-.6-1.1-1.4-1.6-2.4-1.6h-.2l-.1-.1c-.4-.5-1-.7-1.7-.7-1.3 0-2.6 1-3.6 2.6-.7 1.2-1.3 2.6-1.4 3.7-1.5.5-2.5.8-2.5.8-.7.2-.8.3-.9 1-.1.5-2 15.6-2 15.6l16.3 2.8 7.1-1.8s-2.9-19.5-2.9-19.6m-6.2-1.5c-.4.1-.8.2-1.3.4 0-.6-.1-1.6-.4-2.3 1 .1 1.5 1.2 1.7 1.9m-2.1.6c-.9.3-1.8.6-2.7.8.3-1 .8-2 1.4-2.7.2-.2.5-.5.9-.7.3.9.4 1.9.4 2.6m-1.7-3.3c.3 0 .6.1.8.2-.3.2-.7.4-1 .8-.8.9-1.4 2.2-1.7 3.5-.8.2-1.5.5-2.2.7.3-2.1 2.1-5.2 4.1-5.2"/><path fill="#5E8E3E" d="M671.7 476.4h-2s-1.6-1.5-1.7-1.7c-.1-.1-.1-.1-.2-.1V498l7.1-1.8s-2.9-19.5-2.9-19.6c-.1-.1-.2-.2-.3-.2"/><path fill="#FFF" d="m663.9 480-.8 3.1s-.9-.4-2-.3c-1.6.1-1.6 1.1-1.6 1.4.1 1.4 3.7 1.7 3.9 4.9.2 2.5-1.3 4.3-3.5 4.4-2.6.2-4-1.4-4-1.4l.5-2.3s1.4 1.1 2.6 1c.8 0 1-.7 1-1.1-.1-1.8-3.1-1.7-3.2-4.6-.2-2.5 1.5-5 5.1-5.2 1.3-.2 2 .1 2 .1"/><path d="M684.2 486.5c-.8-.4-1.2-.8-1.2-1.3 0-.7.6-1.1 1.5-1.1 1.1 0 2 .4 2 .4l.7-2.3s-.7-.5-2.7-.5c-2.8 0-4.7 1.6-4.7 3.9 0 1.3.9 2.3 2.1 2.9 1 .6 1.3 1 1.3 1.5 0 .6-.5 1.1-1.4 1.1-1.3 0-2.6-.7-2.6-.7l-.8 2.3s1.2.8 3.2.8c2.9 0 4.9-1.4 4.9-4 0-1.3-1.1-2.3-2.3-3M695.6 481.7c-1.4 0-2.5.7-3.4 1.7l1.2-6.4h-3.2l-3.1 16.4h3.2l1.1-5.6c.4-2.1 1.5-3.4 2.5-3.4.7 0 1 .5 1 1.2 0 .4 0 1-.1 1.4l-1.2 6.4h3.2l1.3-6.6c.1-.7.2-1.5.2-2.1 0-1.9-1-3-2.7-3M705.5 481.7c-3.9 0-6.4 3.5-6.4 7.4 0 2.5 1.5 4.5 4.4 4.5 3.8 0 6.3-3.4 6.3-7.4.1-2.3-1.3-4.5-4.3-4.5m-1.6 9.4c-1.1 0-1.6-.9-1.6-2.1 0-1.8 1-4.8 2.7-4.8 1.1 0 1.5 1 1.5 1.9.1 1.9-.9 5-2.6 5M718.1 481.7c-2.2 0-3.4 1.9-3.4 1.9l.2-1.7H712c-.1 1.2-.4 2.9-.6 4.3l-2.2 11.7h3.2l.9-4.7h.1s.7.4 1.9.4c3.8 0 6.2-3.9 6.2-7.8-.1-2.2-1.1-4.1-3.4-4.1m-3.1 9.4c-.8 0-1.3-.5-1.3-.5l.5-3c.4-2 1.4-3.3 2.5-3.3 1 0 1.3.9 1.3 1.8 0 2.1-1.2 5-3 5M725.9 477.1c-1 0-1.8.8-1.8 1.9 0 1 .6 1.6 1.5 1.6 1 0 1.9-.7 1.9-1.9 0-.9-.6-1.6-1.6-1.6M721.4 493.3h3.3l2.1-11.4h-3.2zM735 481.9h-2.2l.1-.5c.2-1.1.8-2.1 1.9-2.1.6 0 1 .2 1 .2l.6-2.5s-.6-.3-1.7-.3-2.3.3-3.1 1.1c-1.1.9-1.6 2.3-1.9 3.6l-.1.5h-1.5l-.5 2.4h1.5l-1.7 9h3.2l1.7-9h2.2l.5-2.4zM742.7 481.9s-2 5-2.9 7.8c-.1-.9-.8-7.8-.8-7.8h-3.4l1.9 10.4c0 .2 0 .4-.1.5-.4.7-1 1.4-1.7 1.9-.6.4-1.3.7-1.8.9l.9 2.7c.6-.1 2-.7 3.1-1.7 1.5-1.4 2.8-3.5 4.2-6.4l3.9-8.4h-3.3z"/><path fill="#E0097E" d="M1080.3 399.2c0 5.7-4.6 10.2-10.2 10.2s-10.2-4.6-10.2-10.2c0-5.7 4.6-10.2 10.2-10.2s10.2 4.5 10.2 10.2"/><path fill="#00A4D1" d="M1097.1 399.2c0 5.7-4.6 10.2-10.2 10.2s-10.2-4.6-10.2-10.2c0-5.7 4.6-10.2 10.2-10.2s10.2 4.5 10.2 10.2"/><path fill="#FEF200" d="M1114.1 399.2c0 5.7-4.6 10.2-10.2 10.2-5.7 0-10.2-4.6-10.2-10.2 0-5.7 4.6-10.2 10.2-10.2 5.6-.1 10.2 4.5 10.2 10.2"/><path fill="#36353A" d="M1131 399.2c0 5.7-4.6 10.2-10.2 10.2-5.7 0-10.2-4.6-10.2-10.2 0-5.7 4.6-10.2 10.2-10.2 5.7-.1 10.2 4.5 10.2 10.2"/><path fill="#000667" d="M1076.6 399.2c0 2.2.7 4.2 1.8 5.8 1.1-1.7 1.8-3.7 1.8-5.8 0-2.2-.7-4.2-1.8-5.8-1.1 1.6-1.8 3.6-1.8 5.8"/><path fill="#009C00" d="M1093.6 399.2c0 2.1.6 4.1 1.7 5.7 1.1-1.6 1.7-3.6 1.7-5.7s-.6-4.1-1.7-5.7c-1 1.6-1.7 3.6-1.7 5.7"/><path fill="#363200" d="M1110.6 399.2c0 2.1.7 4.1 1.8 5.8 1.1-1.6 1.8-3.6 1.8-5.8 0-2.1-.7-4.1-1.8-5.8-1.2 1.7-1.8 3.7-1.8 5.8"/><path fill="#F7F7F7" d="M1067.6 396h3.1c.7 0 1.3.2 1.7.6.4.4.6.9.6 1.6 0 .7-.2 1.2-.6 1.6-.4.4-1 .6-1.7.6h-1.5v1.9h-1.5V396zm1.5 3.1h1.4c.3 0 .5-.1.7-.2.2-.2.3-.4.3-.6 0-.3-.1-.5-.3-.6-.2-.2-.4-.2-.7-.2h-1.4v1.6zM1089.9 396v3.5c0 .9-.3 1.6-.8 2.2-.5.5-1.4.8-2.2.8-.9 0-1.8-.3-2.3-.8-.5-.5-.8-1.3-.8-2.2V396h1.8v3.5c0 .5.1.9.4 1.1.2.3.6.4.9.4.4 0 .7-.1.9-.4.2-.3.3-.7.3-1.1V396h1.8zM1107.5 396.1v6.2h-1.6v-4.4l-1.6 4.4h-.8l-1.6-4.4v4.4h-1.5v-6.2h2.1l1.4 3.4 1.4-3.4zM1124.2 402.3h-1.8l-.3-.8h-2.5l-.3.8h-1.8l2.4-6.3h2l2.3 6.3zm-2.5-2.2-.8-2.5-1 2.5h1.8z"/><path d="M646.7 390.6h-13.4c-1.1 0-1.9.9-1.9 1.9v13.4c0 1.1.9 1.9 1.9 1.9h13.4c1.1 0 1.9-.9 1.9-1.9v-13.4c.1-1.1-.8-1.9-1.9-1.9m-1.9 10.9c0 .2-.1.2-.3.3-.6.3-1.3.5-2.1.5-1.4 0-2.3-1.5-5.5.1v1.7c0 1-1.5 1-1.5 0v-8.4c-.3-.2-.5-.6-.5-1 0-.7.6-1.3 1.3-1.3.7 0 1.3.6 1.3 1.3 0 .4-.2.8-.5 1v.7c1.3-.4 2.2-1.2 4.9-.1.9.4 2.3-.5 2.6-.5.2 0 .3.1.3.3v5.4zm14.6-5.9h-4.6v2.4h4.5c1.3 0 1.4 2.1 0 2.1h-4.5v3.6c0 1.5-2.4 1.6-2.4 0v-8.8c0-.7.6-1.3 1.3-1.3h5.7c1.3-.1 1.3 2 0 2m6.4.8c-5.7 0-5.7 8.5 0 8.5s5.7-8.5 0-8.5m0 6.6c-2.8 0-2.8-4.7 0-4.7s2.8 4.7 0 4.7m12.6 1.8c-.6 0-1.1-.5-1.1-1.1v-3.9c0-2.1-2.5-1.8-3.3-.6v4.5c0 1.4-2.1 1.4-2.1 0v-6.2c0-1.3 2.1-1.4 2.1 0v.1c1.5-1.7 5.5-2 5.5 1.3v4.8c0 1.1-1.1 1.1-1.1 1.1m6 .1c-1.5 0-2.3-.8-2.3-2.2v-4.2h-.5c-1.2 0-1.2-1.9 0-1.9h.5v-1.3c0-1.4 2.2-1.4 2.2 0v1.3h.8c1.2 0 1.2 1.9 0 1.9h-.8v3.7c0 1 .9.9.9.9 1.1-.1 1.8 1.8-.8 1.8m14.2-10.2c-.7-1.7-3.2-1.7-3.9 0-3.6 9.3-3.4 8.5-3.4 8.9 0 1.4 2 1.7 2.4.5l.5-1.2h4.8l.4 1.2c.5 1.3 2.4.9 2.4-.5.2-.4.3.2-3.2-8.9m-3.7 6 1.7-4.8 1.7 4.8h-3.4zm20-2.8-1.8 5.9c-.4 1.4-2.4 1.4-2.8 0l-1.4-4.6-1.4 4.6c-.4 1.4-2.4 1.4-2.9 0l-1.8-5.9c-.4-1.3 1.7-1.9 2-.6l1.3 4.8 1.5-4.7c.4-1.1 2-1.2 2.4 0l1.5 4.7 1.3-4.8c.4-1.3 2.5-.8 2.1.6m9.3 2.5c0-1.4-1.1-4-4-4-2.5 0-4.2 1.9-4.2 4.3 0 2.6 1.9 4.3 4.3 4.3 1.1 0 3.1-.4 3.1-1.3 0-.6-.7-1.1-1.3-.8-1.7.9-3.7.3-3.9-1.5h5c.6 0 1-.5 1-1m-6-.5c.3-2.5 3.8-2.3 4 0h-4zm10.6 5c-1.1 0-2.8-.4-3.3-1.1-.4-.6.1-1.3.7-1.3.5 0 1.2.8 2.6.8.9 0 1.4-.4 1.4-.9 0-1.3-4.8-.3-4.8-3.4 0-1.4 1.2-2.6 3.3-2.6 1.1 0 2.5.3 3 1 .4.5 0 1.2-.7 1.2-.5 0-.9-.6-2.2-.6-.8 0-1.3.4-1.3.8 0 1.2 4.8.2 4.8 3.5.1 1.5-1.2 2.6-3.5 2.6m9.1-8.5c-5.7 0-5.7 8.5 0 8.5s5.7-8.5 0-8.5m0 6.6c-2.8 0-2.8-4.7 0-4.7 2.7 0 2.7 4.7 0 4.7m16 .8v-4.2c0-1.8-2.1-1.5-2.9-.4v4.5c0 1.4-2.2 1.4-2.2 0v-4.2c0-1.8-2-1.6-2.9-.3v4.5c0 1.4-2.1 1.4-2.1 0v-6.2c0-1.3 2.1-1.4 2.1 0v.1c.3-.5 1.4-1.3 2.7-1.3 1.2 0 1.9.6 2.3 1.5.5-.7 1.5-1.5 2.8-1.5 1.5 0 2.4.8 2.4 2.5v4.9c0 .6-.5 1.1-1.1 1.1.1 0-1.1.1-1.1-1m12.2-3.4c0-1.4-1.1-4-4-4-2.5 0-4.3 1.9-4.3 4.3 0 2.6 2 4.3 4.4 4.3 1.1 0 3.1-.4 3.1-1.3 0-.6-.7-1.1-1.3-.8-1.7.9-3.7.3-4-1.5h5.1c.6 0 1-.5 1-1m-6.1-.5c.3-2.5 3.9-2.3 4.1 0H760z"/><path fill="none" stroke="#000" stroke-miterlimit="10" stroke-width=".5" d="M996.4 266.4h198.4v87.4H996.4z"/></svg>