<svg xmlns="http://www.w3.org/2000/svg" width="80" height="100" fill="none" viewBox="0 0 100 100"><path fill="url(#a)" d="M50 100C22.52 100 0 77.863 0 50 .382 22.52 22.52 0 50 0s50 22.137 50 50c0 27.48-22.137 50-50 50Z" opacity=".25"/><path fill="url(#b)" d="M50 93.511C25.954 93.511 6.488 74.046 6.488 50 6.488 25.954 25.954 6.488 50 6.488S93.51 25.954 93.51 50 74.046 93.51 50 93.51Z"/><path fill="#fff" d="M37.023 59.923h11.45v5.344H26.335v-1.145l10.688-11.833a27.843 27.843 0 0 0 3.435-4.198c.763-1.145 1.145-2.29 1.145-3.435s-.382-2.29-1.145-3.053c-.764-.764-1.909-1.145-3.054-1.145-1.145 0-2.29.381-3.053 1.145-.764.763-1.145 1.908-1.145 3.435 0 .381 0 1.145.381 2.29H27.48c-.381-.764-.381-1.527-.381-2.672 0-2.672 1.145-4.962 3.053-6.87 1.909-1.909 4.58-3.054 7.634-3.054 3.053 0 5.343.764 7.633 2.672 1.909 1.908 3.054 4.198 3.054 6.87 0 1.909-.382 3.817-1.527 5.725-1.145 1.909-2.672 3.817-4.962 6.107l-4.962 3.817ZM60.305 61.45v-8.016H52.29v-5.343h8.015v-8.016h6.107v8.016h7.634v5.343h-7.634v8.016h-6.107Z"/><defs><linearGradient id="a" x1="14.841" x2="85.313" y1="14.841" y2="85.313" gradientUnits="userSpaceOnUse"><stop stop-color="#AA30BE"/><stop offset="1" stop-color="#5723B5"/></linearGradient><linearGradient id="b" x1="19.505" x2="80.833" y1="19.505" y2="80.833" gradientUnits="userSpaceOnUse"><stop stop-color="#AA30BE"/><stop offset="1" stop-color="#5723B5"/></linearGradient></defs></svg>