<svg xmlns="http://www.w3.org/2000/svg" width="80" height="100" fill="none" viewBox="0 0 100 100"><path fill="url(#a)" d="M50 100C22.52 100 0 77.863 0 50 .382 22.52 22.52 0 50 0s50 22.137 50 50c0 27.48-22.137 50-50 50Z" opacity=".25"/><path fill="url(#b)" d="M50 93.511C25.954 93.511 6.489 74.046 6.489 50 6.489 25.954 25.954 6.489 50 6.489c24.046 0 43.511 19.465 43.511 43.511 0 24.046-19.465 43.511-43.511 43.511Z"/><path fill="#fff" d="M39.313 55.343v4.199H36.26v4.198h-5.344v-4.198H18.321v-1.527l7.633-19.847h5.344l-6.87 16.794h6.106V47.71h5.344v7.252h3.435v.381ZM41.985 51.145c0-3.817.763-6.87 2.672-9.16 1.526-2.29 4.198-3.435 7.633-3.435 3.435 0 5.725 1.145 7.252 3.435 1.527 2.29 2.672 5.343 2.672 9.16s-.764 7.252-2.672 9.542c-1.908 2.29-4.199 3.817-7.252 3.817s-5.725-1.145-7.252-3.817c-2.29-2.672-3.053-5.725-3.053-9.542Zm14.885 0c0-5.344-1.526-8.015-4.58-8.015-3.053 0-4.58 2.671-4.58 8.015 0 5.725 1.527 8.397 4.58 8.397 2.672 0 4.58-3.054 4.58-8.397ZM72.52 60.305v-6.87h-6.49v-4.198h6.49v-6.87h4.96v6.87h6.49v4.58h-6.49v6.87h-4.96v-.382Z"/><defs><linearGradient id="a" x1="14.841" x2="85.313" y1="14.841" y2="85.313" gradientUnits="userSpaceOnUse"><stop stop-color="#AA30BE"/><stop offset="1" stop-color="#5723B5"/></linearGradient><linearGradient id="b" x1="19.505" x2="80.833" y1="19.505" y2="80.833" gradientUnits="userSpaceOnUse"><stop stop-color="#AA30BE"/><stop offset="1" stop-color="#5723B5"/></linearGradient></defs></svg>