<svg xmlns="http://www.w3.org/2000/svg" width="100" height="100" fill="none"><path fill="url(#a)" d="M50 100C22.52 100 0 77.778 0 49.808.382 22.222 22.52 0 50 0s50 22.222 50 50.192C100 77.778 77.863 100 50 100Z" opacity=".25"/><path fill="url(#b)" d="M50 93.87c-24.046 0-43.512-19.54-43.512-43.679C6.488 26.053 25.954 6.513 50 6.513S93.51 26.053 93.51 50.191C93.511 74.33 74.046 93.87 50 93.87Z"/><path fill="#fff" d="M48.474 57.855c0 2.682-1.145 4.98-3.436 6.896-2.29 1.533-5.343 2.682-8.778 2.682-3.817 0-6.489-.766-8.779-2.682-2.29-1.532-3.435-3.831-3.435-6.896 0-3.831 2.29-6.513 6.489-8.43-3.436-1.915-4.962-4.597-4.962-7.662 0-2.682 1.145-4.98 3.053-6.514 1.909-1.532 4.58-2.298 7.634-2.298 3.053 0 5.725.766 7.633 2.298 1.909 1.533 3.054 3.832 3.054 6.514 0 3.065-1.527 5.747-4.962 7.663 4.198 1.916 6.489 4.597 6.489 8.429Zm-6.87-.383c0-1.15-.382-2.3-1.146-3.065-.763-.767-2.29-1.533-4.198-2.3-1.909.767-3.435 1.533-4.199 2.3-.763.766-1.145 1.915-1.145 3.065s.382 2.299 1.527 3.065 2.29 1.15 4.198 1.15c1.909 0 3.054-.384 4.199-1.15.382-.766.763-1.533.763-3.065ZM31.68 42.146c0 1.15.381 1.916 1.145 2.299.763.383 1.908 1.532 3.435 2.299 1.526-.767 2.672-1.533 3.435-2.3.763-.765 1.145-1.532 1.145-2.298 0-1.15-.382-1.916-1.145-2.682-.764-.766-1.909-1.15-3.435-1.15-1.527 0-2.29.384-3.435 1.15-1.145.766-1.145 1.533-1.145 2.682ZM61.451 62.453V53.64h-8.397v-5.747h8.397V39.08h6.489v8.813h8.397v5.747H67.94v8.812H61.45Z"/><defs><linearGradient id="a" x1="14.838" x2="85.579" y1="14.703" y2="85.174" gradientUnits="userSpaceOnUse"><stop stop-color="#AA30BE"/><stop offset="1" stop-color="#5723B5"/></linearGradient><linearGradient id="b" x1="19.406" x2="80.968" y1="19.48" y2="80.808" gradientUnits="userSpaceOnUse"><stop stop-color="#AA30BE"/><stop offset="1" stop-color="#5723B5"/></linearGradient></defs></svg>