<svg xmlns="http://www.w3.org/2000/svg" xml:space="preserve" viewBox="0 0 100 100"><radialGradient id="a" cx="50" cy="50" r="50" gradientUnits="userSpaceOnUse"><stop offset=".515" style="stop-color:#fff"/><stop offset=".847" style="stop-color:#f3f2ff"/><stop offset="1" style="stop-color:#e8e6ff"/></radialGradient><circle cx="50" cy="50" r="50" fill="url(#a)"/><linearGradient id="b" x1="35.496" x2="64.504" y1="70.188" y2="41.18" gradientTransform="matrix(1 0 0 -1 0 100.72)" gradientUnits="userSpaceOnUse"><stop offset="0" style="stop-color:#aa30be"/><stop offset="1" style="stop-color:#5723b5"/></linearGradient><path fill="url(#b)" d="m51.5 32.2-1.5-1-1.5 1.1c-4.2 2.9-9.9 2.5-13.6-1.1v23.5c0 4.2 2.6 8 6.5 9.5l8.6 3.3 8.6-3.3c3.9-1.5 6.5-5.3 6.5-9.5V31.2c-3.7 3.5-9.4 4-13.6 1zm11.3 22.5c0 3.3-2 6.2-5 7.4L50 65l-7.8-3c-3-1.2-5-4.1-5-7.4V35.5c1.6.7 3.4 1 5.1 1 2.7 0 5.3-.8 7.5-2.4l.2-.1.2.1c2.2 1.5 4.8 2.4 7.5 2.4 1.8 0 3.5-.4 5.1-1v19.2zm-11.2-14c-4.8-.9-9.4 2.3-10.2 7.1s2.3 9.4 7.1 10.2c4.8.9 9.4-2.3 10.2-7.1s-2.3-9.3-7.1-10.2zm3.7 9.8h-4.1v4.1h-2.3v-4.1h-4.1v-2.3h4.1v-4.1h2.3v4.1h4.1v2.3z"/></svg>