<svg xmlns="http://www.w3.org/2000/svg" xml:space="preserve" viewBox="0 0 100 100"><radialGradient id="a" cx="50" cy="50" r="50" gradientUnits="userSpaceOnUse"><stop offset=".515" style="stop-color:#fff"/><stop offset=".847" style="stop-color:#f3f2ff"/><stop offset="1" style="stop-color:#e8e6ff"/></radialGradient><circle cx="50" cy="50" r="50" fill="url(#a)"/><linearGradient id="b" x1="35.644" x2="62.904" y1="33.664" y2="60.924" gradientUnits="userSpaceOnUse"><stop offset="0" style="stop-color:#aa30be"/><stop offset="1" style="stop-color:#5723b5"/></linearGradient><path fill="url(#b)" d="M56.6 42.7h8.5c.3 0 .4-.1.4-.3.2-1 .3-2.1.5-3.1.2-.9.9-1.5 1.8-1.6H71c.4 0 .7.3.7.6 0 .4-.3.6-.7.6h-3.1c-.5 0-.7.2-.8.7-.6 3.4-1.1 6.9-1.7 10.3-.1.8-.3 1.6-.4 2.4 0 .3-.1.3-.4.3H52.5c-1.6 0-2.8-.9-3.2-2.5-.5-2.4-1.1-4.7-1.6-7.1-.1-.3-.1-.4.3-.4 2.9.1 5.8.1 8.6.1zm-9.4-1.3h9.3c.3 0 .4 0 .4-.4v-5.2H35.7v27.3H56.8v-4.9h-.1c-.6 0-.6 0-.8.5-.6 1.4-2 2.2-3.5 1.9-1.3-.2-2.4-1.6-2.4-3.1s1.1-2.8 2.6-3c1.5-.2 2.9.6 3.4 2 .1.4.3.5.6.4h.2v-2.8c0-.3-.1-.3-.3-.3h-4c-2.2 0-3.8-1.4-4.3-3.5-.6-2.7-1.2-5.3-1.8-8-.2-.6 0-.9.8-.9zm9.6 23c0 1.4-1.1 2.5-2.5 2.5H38.2c-1.4 0-2.5-1.1-2.5-2.5h21.1zm-8 1.3c0-.4-.2-.6-.7-.6h-3.6c-.4 0-.7.2-.7.6 0 .4.3.6.7.6h3.6c.4 0 .7-.2.7-.6zm8.1-31.3c0 .1 0 .2-.2.2H35.8c0-1.4 1.1-2.5 2.5-2.5h16.6c1 0 2.1.7 2 2.3zm-12.5-1c0-.3-.2-.6-.6-.6h-1.3c-.3 0-.6.3-.6.6s.2.6.6.6h1.4c.3-.1.5-.3.5-.6zm6.3 0c0-.4-.3-.6-.7-.6h-3.5c-.4 0-.7.2-.7.6 0 .4.3.6.7.6h3.6c.3 0 .6-.3.6-.6zm12.1 27.2c-1.6.5-3.4-.4-3.9-2-.1-.3-.2-.4-.5-.4h-1.5v-1.3h1.5c.3 0 .4-.1.5-.4.4-1.3 1.6-2.1 3-2.1s2.5.9 2.9 2.2c.5 1.7-.4 3.5-2 4zm.9-3c0-1-.8-1.9-1.9-1.9-1 0-1.9.8-1.9 1.9 0 1 .8 1.9 1.9 1.9 1.1 0 1.9-.9 1.9-1.9zm-8.7 0c0-1-.8-1.9-1.8-1.9s-1.9.8-1.9 1.9c0 1 .8 1.9 1.8 1.9 1.1 0 1.9-.9 1.9-1.9z"/></svg>