<svg xmlns="http://www.w3.org/2000/svg" xml:space="preserve" viewBox="0 0 100 100"><radialGradient id="a" cx="50" cy="50" r="50" gradientUnits="userSpaceOnUse"><stop offset=".515" style="stop-color:#fff"/><stop offset=".847" style="stop-color:#f3f2ff"/><stop offset="1" style="stop-color:#e8e6ff"/></radialGradient><circle cx="50" cy="50" r="50" fill="url(#a)"/><linearGradient id="b" x1="33.045" x2="66.954" y1="66.403" y2="32.493" gradientTransform="matrix(1 0 0 -1 0 100.72)" gradientUnits="userSpaceOnUse"><stop offset="0" style="stop-color:#aa30be"/><stop offset="1" style="stop-color:#5723b5"/></linearGradient><path fill="url(#b)" d="M34 43.7v2.2h32v-2.2c0-1.2 1-2.1 2.1-2.1H31.9c1.2 0 2.1.9 2.1 2.1zm1.1 17h6.4c-.6 0-1.1-.5-1.1-1.1V49.1c0-.6.5-1.1 1.1-1.1h-6.4c.6 0 1.1.5 1.1 1.1v10.6c-.1.6-.5 1-1.1 1zM66 62.9H34V65h-2.1v2.1h36.2V65H66v-2.1zm-7.4-2.2H65c-.6 0-1.1-.5-1.1-1.1V49.1c0-.6.5-1.1 1.1-1.1h-6.4c.6 0 1.1.5 1.1 1.1v10.6c-.1.6-.6 1-1.1 1zM50 57.6c-.6 0-1.1-.5-1.1-1.1h-2.1c0 1.4.9 2.5 2.1 3v1.3H51v-1.3c1.2-.4 2.1-1.6 2.1-3 0-1.8-1.4-3.2-3.2-3.2-.6 0-1.1-.5-1.1-1.1s.5-1.1 1.1-1.1 1.1.5 1.1 1.1h2.1c0-1.4-.9-2.5-2.1-3V48h-2.1v1.3c-1.2.4-2.1 1.6-2.1 3 0 1.8 1.4 3.2 3.2 3.2.6 0 1.1.5 1.1 1.1 0 .5-.5 1-1.1 1zM31.9 35.5v4h36.2v-4L50 30.9l-18.1 4.6zm19.2.8H49v-2.1h2.1v2.1z"/></svg>