<svg xmlns="http://www.w3.org/2000/svg" xml:space="preserve" viewBox="0 0 100 100"><radialGradient id="a" cx="50" cy="50" r="50" gradientUnits="userSpaceOnUse"><stop offset=".515" style="stop-color:#fff"/><stop offset=".847" style="stop-color:#f3f2ff"/><stop offset="1" style="stop-color:#e8e6ff"/></radialGradient><circle cx="50" cy="50" r="50" fill="url(#a)"/><linearGradient id="b" x1="35.281" x2="64.719" y1="32.75" y2="62.188" gradientUnits="userSpaceOnUse"><stop offset="0" style="stop-color:#aa30be"/><stop offset="1" style="stop-color:#5723b5"/></linearGradient><path fill="url(#b)" d="M39.9 65.1c-.3 0-.5.2-.5.5v.4c0 .3.2.5.5.5h20.3c.3 0 .5-.2.5-.5v-.4c0-.3-.2-.5-.5-.5H39.9zm2.5-.6h15.3l-1-3.6H43.4l-1 3.6zm21.9-31.1H35.7c-1.5 0-2.6 1.2-2.6 2.6v21.6c0 1.5 1.2 2.6 2.6 2.6h28.6c1.5 0 2.6-1.2 2.6-2.6V36.1c.1-1.5-1.1-2.7-2.6-2.7zm.9 18.7c0 .7-.5 1.2-1.2 1.2H36c-.7 0-1.2-.5-1.2-1.2V36.4c0-.7.5-1.2 1.2-1.2h28c.7 0 1.2.5 1.2 1.2v15.7zm-8.6-10.2c-.1 0-.2-.1-.3-.1-2-.9-4-1.8-5.9-2.6-.3-.1-.6-.1-.9 0-2 .9-4.1 1.8-6.1 2.7-.3.1-.5.3-.5.7 0 .4.2.6.5.7l2.1.9c.1.1.2.1.2.3v3c0 .2.1.4.2.5 1.2 1 2.5 1.6 4.1 1.6 1.5 0 2.8-.6 3.9-1.5.2-.2.3-.4.3-.6v-2.7c0-.4.1-.6.4-.7.3-.1.6-.3 1-.4V45c.1.3.4.5.7.5.4 0 .6-.3.6-.7v-2.1c.2-.4 0-.7-.3-.8zm-3.9 5.4c-.9.6-1.9 1-3 .9-.9-.1-1.8-.4-2.5-.9-.1 0-.1-.1-.1-.2v-2.2c.5.2.9.4 1.3.6.4.2.8.3 1.1.5.3.1.5.1.8 0 .7-.3 1.5-.7 2.3-1 .1 0 .1-.1.2-.1V47c0 .2 0 .2-.1.3zm.8-4.2c-1.1.5-2.3 1-3.4 1.5h-.3c-1.4-.6-2.9-1.3-4.3-1.9 0 0-.1 0-.2-.1 1-.5 2-.9 3-1.4.5-.2 1-.4 1.4-.6.1 0 .1-.1.2 0 1.5.7 3 1.3 4.5 2-.2.1-.5.3-.9.5z"/></svg>