<svg xmlns="http://www.w3.org/2000/svg" xml:space="preserve" viewBox="0 0 100 100"><radialGradient id="a" cx="50" cy="50" r="50" gradientUnits="userSpaceOnUse"><stop offset=".515" style="stop-color:#fff"/><stop offset=".847" style="stop-color:#f3f2ff"/><stop offset="1" style="stop-color:#e8e6ff"/></radialGradient><circle cx="50" cy="50" r="50" fill="url(#a)"/><linearGradient id="b" x1="39.996" x2="62.232" y1="39.838" y2="62.074" gradientUnits="userSpaceOnUse"><stop offset="0" style="stop-color:#aa30be"/><stop offset="1" style="stop-color:#5723b5"/></linearGradient><path fill="url(#b)" d="M57 50.2h-6.2V60h-1.1V48h-17v12.6h1.6v1.3h-1.6v1.6h4.1c.3-1.4 1.6-2.5 3.1-2.5s2.8 1.1 3.1 2.5h8.7c.3-1.4 1.6-2.5 3.1-2.5s2.8 1.1 3.1 2.5h2.9v-6.9L57 50.2zm2.5 7.5h-3.2l-.9-1h-3.1v-4.9h4.3l3 4.8v1.1zm-4.8 9.1c-1.5 0-2.7-1.2-2.7-2.7 0-1.5 1.2-2.7 2.7-2.7s2.7 1.2 2.7 2.7c0 1.5-1.2 2.7-2.7 2.7zm0-4.3c-.9 0-1.6.7-1.6 1.6 0 .9.7 1.6 1.6 1.6s1.6-.7 1.6-1.6c.1-.8-.7-1.6-1.6-1.6zm-14.8 4.3c-1.5 0-2.7-1.2-2.7-2.7 0-1.5 1.2-2.7 2.7-2.7 1.5 0 2.7 1.2 2.7 2.7-.1 1.5-1.3 2.7-2.7 2.7zm0-4.3c-.9 0-1.6.7-1.6 1.6 0 .9.7 1.6 1.6 1.6s1.6-.7 1.6-1.6c0-.8-.7-1.6-1.6-1.6zm15.6-32c-8.2 0-14.8 6.7-14.8 14.8 0 .5 0 1.1.1 1.6h1c0-.4-.1-.7-.1-1.1h5.1c0 .4 0 .7.1 1.1h1c0-.4 0-.7-.1-1.1H55v3.3h1v-3.3h7.1c0 2-.3 3.9-.8 5.6-1.1-.3-2.5-.6-4-.7l.6 1.1c1.1.1 2.2.4 3 .6-.3 1-.7 1.9-1.2 2.7l.6 1c.6-1 1.2-2.1 1.6-3.4 1.5.5 2.6 1 3.1 1.3-1.3 1.5-2.8 2.7-4.6 3.6v1.1c5.2-2.3 8.8-7.5 8.8-13.5.1-8.1-6.5-14.7-14.7-14.7zm-4 1.6c-1.4 1.2-2.5 3-3.3 5.1-1.4-.4-2.4-.9-2.9-1.2 1.7-1.8 3.8-3.2 6.2-3.9zm-4.7 12.7h-5.1c.1-3 1.2-5.8 2.9-8 .5.3 1.6.9 3.2 1.4-.6 2-.9 4.2-1 6.6zm8.2 0h-7.1c0-2.3.4-4.4 1-6.3 1.6.4 3.7.8 6.1.8v5.5zm0-6.6c-2.3 0-4.2-.4-5.8-.8 1.3-3.4 3.4-5.7 5.8-6v6.8zm11.4-1.4c1.7 2.2 2.8 5 2.9 8h-5.1c0-2.4-.4-4.6-1.1-6.6 1.6-.5 2.7-1.1 3.3-1.4zm-.7-.8c-.5.3-1.5.8-2.9 1.2-.8-2.2-2-4-3.4-5.2 2.4.8 4.6 2.2 6.3 4zM56 31.5c2.4.3 4.5 2.6 5.8 6-1.5.4-3.5.7-5.8.7v-6.7zm0 13.3v-5.5c2.5 0 4.5-.4 6.1-.8.6 1.9.9 4 1 6.3H56zm10.8 8.5c-.6-.3-1.8-1-3.5-1.5.5-1.8.8-3.8.9-5.9h5.1c-.1 2.7-1 5.2-2.5 7.4z"/></svg>