<svg xmlns="http://www.w3.org/2000/svg" xml:space="preserve" viewBox="0 0 100 100"><radialGradient id="a" cx="50" cy="50" r="50" gradientUnits="userSpaceOnUse"><stop offset=".515" style="stop-color:#fff"/><stop offset=".847" style="stop-color:#f3f2ff"/><stop offset="1" style="stop-color:#e8e6ff"/></radialGradient><circle cx="50" cy="50" r="50" fill="url(#a)"/><linearGradient id="b" x1="36.593" x2="63.738" y1="71.057" y2="43.911" gradientTransform="matrix(1 0 0 -1 0 100.72)" gradientUnits="userSpaceOnUse"><stop offset="0" style="stop-color:#aa30be"/><stop offset="1" style="stop-color:#5723b5"/></linearGradient><path fill="url(#b)" d="M44.2 49.4c.4-.1.9-.3 1.3-.6 1.3-.9 1.8-2.4 1.2-3.3-.6-1-2.3-1-3.6.2-1.2 1.1-1.5 2.2-1.5 3.4 0 .8.3 2.3 1.9 3.6.8-.6 1.7-1.1 2.7-1.4-.7-.4-1.8-1-2-1.9zm-.2-2.9c0-.4.3-.6.6-.6s.6.3.6.6c0 .4-.3.6-.6.6s-.6-.2-.6-.6zm14.7 2.6c0-1.2-.3-2.3-1.5-3.4-1.3-1.2-3-1.2-3.6-.2-.6.9 0 2.4 1.2 3.3.4.3.9.5 1.3.6-.2.5-.6 1-1.3 1.4-1 .6-1.5.7-7.8 2.7-2.3.8-3.7 2.4-3.7 4.2 0 1.3.7 2.3 1.6 3.1.6-.6 1.3-1.1 2.2-1.5-1-.5-1.3-.9-1.3-1.5 0-1.1 2.1-1.7 3.1-2v2.7l2.5-1.1v-1.6c1 .3 3.1.9 3.1 2 0 1.8-5.1 2.8-7.2 4.3-1 .7-1.6 1.6-1.6 2.7 0 .6.1 1.4 1.2 2.2.3.2.7-.1.5-.5-.7-1.4 0-2.2 1.5-2.8v2.1c0 .7.6 1.2 1.2 1.2s1.2-.6 1.2-1.2v-2.1c1.4.6 2.3 1.4 1.5 2.8-.2.3.2.7.5.5 1.1-.8 1.1-1.5 1.1-2.1 0-1-.6-2-1.6-2.7 2.1-.8 4-2.1 4-4.3 0-1.6-1-2.9-2.7-3.8.8-.3 1.2-.5 1.7-.8 2.6-1.5 2.9-3.3 2.9-4.2zm-2.9-1.9c-.3 0-.6-.3-.6-.6 0-.4.3-.6.6-.6s.6.3.6.6-.3.6-.6.6zm11.8-13.7h-8.5c-1.7 0-2.9.7-4 1.8-1.2 1.2-1.8 3.8-3.6 3.8v-3.5c.7-.4 1.2-1.2 1.2-2.1 0-1.4-1.1-2.5-2.5-2.5s-2.5 1.1-2.5 2.5c0 .9.5 1.7 1.2 2.1v14.8c.8-.2 1.6-.5 2.5-.8v-6.2c.5-.3 1-.7 1.2-1.2.4.7 1.3 1.3 2.2 1.3.9 0 1.7-.5 2.2-1.3 1.5 1.5 4.2 1.5 5.6 0l-2.1-2.1 1 .4c1.9.8 4.1-.1 4.9-2l-3-1.2c2.8-.1 4.2-1.9 4.2-3.8zm-22.3 1.8c-1.1-1.1-2.3-1.8-4-1.8h-8.5c0 1.9 1.3 3.7 4.2 3.7l-3 1.2c.8 1.9 3 2.8 4.9 2l1-.4-2.1 2.1c1.5 1.5 4.2 1.4 5.6 0 .4.8 1.2 1.3 2.2 1.3 1.2 0 2.1-1.1 2.1-2.3v-2.5c-1-.8-1.6-2.4-2.4-3.3z"/></svg>