<svg xmlns="http://www.w3.org/2000/svg" xml:space="preserve" viewBox="0 0 203.9 203.9"><linearGradient id="a" x1="41.472" x2="181.21" y1="30.396" y2="170.134" gradientUnits="userSpaceOnUse"><stop offset="0" style="stop-color:#aa30be"/><stop offset="1" style="stop-color:#5723b5"/></linearGradient><path fill="url(#a)" d="M146.3 203.9c-1.5 0-2.6-1.2-2.6-2.6V192h-12.9v9.3c0 1.5-1.2 2.6-2.6 2.6-1.5 0-2.6-1.2-2.6-2.6V192h-4.4c-1.5 0-2.6-1.2-2.6-2.6s1.2-2.6 2.6-2.6h4.4V173h-4.4c-1.5 0-2.6-1.2-2.6-2.6s1.2-2.6 2.6-2.6h4.4V154h-4.4c-1.5 0-2.6-1.2-2.6-2.6 0-1.5 1.2-2.6 2.6-2.6h4.4v-13.7h-4.4c-1.5 0-2.6-1.2-2.6-2.6s1.2-2.6 2.6-2.6h4.4V117l-5.2-.2c-1.5-.1-2.6-1.3-2.5-2.7.1-1.5 1.3-2.6 2.7-2.5l5 .2v-6.6c0-2 .1-4.1.2-6.1l-4.8-.7c-1.4-.2-2.4-1.5-2.2-3 .2-1.4 1.5-2.5 3-2.2l4.7.7c.7-4.4 1.8-8.8 3.2-12.9l-4.3-1.6c-1.4-.5-2.1-2-1.6-3.4s2-2.1 3.4-1.6l4.4 1.6c2-4.7 4.5-9.2 7.4-13.3l-3.4-2.4c-1.2-.8-1.4-2.5-.6-3.7.9-1.2 2.5-1.4 3.7-.6l3.5 2.5c3.3-4 6.9-7.7 10.9-10.9l-2.7-3.7c-.9-1.2-.6-2.8.6-3.7 1.2-.9 2.8-.6 3.7.6l2.6 3.6c4.5-3.2 9.5-5.9 14.7-8l-1.2-3.9c-.4-1.4.4-2.9 1.8-3.3 1.4-.4 2.9.4 3.3 1.8l1.1 3.6c4.5-1.5 9.2-2.5 14.1-3l-.4-3.6c-.2-1.4.9-2.7 2.3-2.9 1.4-.1 2.7.9 2.9 2.3l.4 3.7c1.1 0 2.2-.1 3.3-.1 1.5 0 2.6 1.2 2.6 2.6s-1.2 2.6-2.6 2.6c-.9 0-1.8 0-2.7.1l1.6 15.1h1.1c1.5 0 2.6 1.2 2.6 2.6s-1.2 2.6-2.6 2.6h-.6l.4 3.9c.2 1.4-.9 2.7-2.3 2.9-1.4.1-2.7-.9-2.9-2.3l-.4-4.1c-3.3.4-6.5 1.1-9.5 2l1.2 3.9c.4 1.4-.4 2.9-1.8 3.3-1.4.4-2.9-.4-3.3-1.8l-1.1-3.5c-2.5 1.1-4.8 2.4-7.1 3.8l2.1 2.9c.9 1.2.6 2.8-.6 3.7-1.2.9-2.8.6-3.7-.6l-2.2-3c-2 1.6-3.8 3.3-5.6 5.2l3.4 2.4c1.2.8 1.4 2.5.6 3.7-.8 1.2-2.5 1.4-3.7.6l-3.7-2.6c-1.7 2.3-3.2 4.7-4.5 7.2l4 1.5c1.4.5 2.1 2 1.6 3.4s-2 2.1-3.4 1.6l-4.4-1.6c-1 2.6-1.8 5.2-2.3 7.9l4.8.7c1.4.2 2.4 1.5 2.2 3-.2 1.4-1.5 2.4-3 2.2l-4.8-.7c-.2 1.7-.2 3.3-.2 5v5.1l5 .2c1.5.1 2.6 1.3 2.5 2.7-.1 1.5-1.3 2.6-2.7 2.5l-4.8-.2v12.1h5.6c1.5 0 2.6 1.2 2.6 2.6 0 1.5-1.2 2.6-2.6 2.6h-5.6v13.7h5.6c1.5 0 2.6 1.2 2.6 2.6s-1.2 2.6-2.6 2.6h-5.6v13.7h5.6c1.5 0 2.6 1.2 2.6 2.6 0 1.5-1.2 2.6-2.6 2.6h-5.6v13.7h5.6c1.5 0 2.6 1.2 2.6 2.6s-1.2 2.6-2.6 2.6h-5.6v9.3c.1 2-1 3.1-2.5 3.1zm-15.5-17.2h12.9V173h-12.9v13.7zm0-18.9h12.9V154h-12.9v13.8zm0-19h12.9v-13.7h-12.9v13.7zm0-19h12.9v-12.3l-12.9-.5v12.8zm0-18 12.9.5v-5c0-1.9.1-3.9.3-5.8l-13-1.8c-.1 1.8-.2 3.5-.2 5.3v6.8zm.8-17.3 13.2 1.8c.6-3.1 1.5-6.1 2.6-9l-12.8-4.7c-1.4 3.9-2.4 7.8-3 11.9zm4.9-16.7 13 4.7c1.5-3 3.2-5.8 5.2-8.4l-11.5-8.3c-2.6 3.7-4.9 7.7-6.7 12zm9.9-16.2L158 70c2.1-2.3 4.3-4.4 6.7-6.3l-8.6-11.8c-3.5 2.8-6.8 6.1-9.7 9.7zm14-13 8.7 11.9c2.7-1.8 5.6-3.3 8.7-4.6l-4.3-14.4a66 66 0 0 0-13.1 7.1zm18-8.9 4.3 14.4c3.4-1.1 6.9-1.8 10.5-2.2l-1.6-15c-4.6.4-9 1.4-13.2 2.8zM74.9 203c-1.5 0-2.6-1.2-2.6-2.6v-8.1H59.4v8.1c0 1.5-1.2 2.6-2.6 2.6-1.5 0-2.6-1.2-2.6-2.6v-8.1h-5.6c-1.5 0-2.6-1.2-2.6-2.6s1.2-2.6 2.6-2.6h5.6v-13.7h-5.6c-1.5 0-2.6-1.2-2.6-2.6 0-1.5 1.2-2.6 2.6-2.6h5.6v-13.7h-5.6c-1.5 0-2.6-1.2-2.6-2.6s1.2-2.6 2.6-2.6h5.6v-3.6c0-2-.1-4-.3-5.9l-4.8.7c-1.4.2-2.8-.8-3-2.2-.2-1.4.8-2.8 2.2-3l4.6-.6c-.6-2.6-1.4-5.1-2.3-7.5l-4.3 1.8c-1.3.6-2.9-.1-3.4-1.4-.6-1.3.1-2.9 1.4-3.4l4.1-1.7c-1.2-2.4-2.7-4.6-4.3-6.8l-3.7 2.6c-1.2.9-2.8.6-3.7-.6-.8-1.2-.6-2.8.6-3.7l3.4-2.4c-1.7-1.9-3.6-3.6-5.6-5.2l-2.2 3c-.9 1.2-2.5 1.4-3.7.6-1.2-.9-1.4-2.5-.6-3.7l2.1-2.9c-2.2-1.4-4.6-2.7-7.1-3.8l-1.1 3.5c-.4 1.4-1.9 2.2-3.3 1.8-1.4-.4-2.2-1.9-1.8-3.3l1.2-3.9c-3.1-1-6.2-1.7-9.5-2L9 99.5c-.2 1.4-1.5 2.5-2.9 2.3-1.4-.2-2.5-1.5-2.3-2.9l.3-3.9h-.6C2.1 95 1 93.8 1 92.4c0-1.5 1.2-2.6 2.6-2.6h1.1l1.6-15.1c-.9 0-1.8-.1-2.7-.1C2.1 74.6 1 73.5 1 72s1.2-2.6 2.6-2.6c1.1 0 2.2 0 3.3.1l.4-3.7c.2-1.4 1.5-2.5 2.9-2.3 1.4.2 2.5 1.5 2.3 2.9l-.4 3.6c4.9.6 9.6 1.6 14.1 3l1.1-3.6c.4-1.4 1.9-2.2 3.3-1.8 1.4.4 2.2 1.9 1.8 3.3l-1.2 3.9c5.2 2.1 10.1 4.8 14.7 8l2.6-3.6c.9-1.2 2.5-1.4 3.7-.6 1.2.9 1.4 2.5.6 3.7L50.1 86c4 3.3 7.7 6.9 10.9 10.9l3.5-2.5c1.2-.8 2.8-.6 3.7.6.8 1.2.6 2.8-.6 3.7l-3.4 2.4c2.6 3.7 4.9 7.7 6.8 12l4.2-1.7c1.3-.6 2.9.1 3.4 1.4.6 1.3-.1 2.9-1.4 3.4l-4.2 1.7c1.6 4.3 2.8 8.8 3.6 13.4l4.9-.7c1.4-.2 2.8.8 3 2.2.2 1.4-.8 2.8-2.2 3l-4.9.7c.2 2.3.3 4.6.3 6.9v5.8h4.4c1.5 0 2.6 1.2 2.6 2.6s-1.2 2.6-2.6 2.6h-4.4v13.7h4.4c1.5 0 2.6 1.2 2.6 2.6 0 1.5-1.2 2.6-2.6 2.6h-4.4V187h4.4c1.5 0 2.6 1.2 2.6 2.6s-1.2 2.6-2.6 2.6h-4.4v8.1c-.1 1.6-1.3 2.7-2.8 2.7zm-15.5-15.9h12.9v-13.7H59.4v13.7zm0-19h12.9v-13.7H59.4v13.7zm0-19h12.9v-5.8c0-2.1-.1-4.2-.3-6.2l-13 1.8c.3 2.2.4 4.4.4 6.6v3.6zM55.5 125c1.1 2.8 2 5.8 2.7 8.8l13.2-1.8c-.7-4.2-1.8-8.3-3.2-12.2L55.5 125zm-7.1-12.7c1.8 2.5 3.5 5.1 4.9 7.8l12.8-5.3c-1.7-3.8-3.8-7.5-6.2-10.9l-11.5 8.4zm-10.1-10.4c2.4 1.9 4.7 4.1 6.7 6.3l11.7-8.4c-2.9-3.6-6.2-6.8-9.8-9.7l-8.6 11.8zm-12.9-7.7c3 1.3 5.9 2.8 8.7 4.6l8.7-11.9c-4.1-2.8-8.4-5.2-13.1-7.1l-4.3 14.4zM10 90.1c3.6.4 7.1 1.2 10.5 2.2L24.7 78c-4.2-1.4-8.6-2.3-13.1-2.9l-1.6 15zm109.5-49.4-12.2-13.8c-.3-.3-.6-.5-1-.5H62.9c-.4 0-.8.2-1 .5L49.6 40.7c-.4.4-.5 1-.2 1.5.1.2.2.4.4.5l33.8 38c.3.3.6.5 1 .5s.8-.2 1-.5l33.8-38c.2-.1.3-.3.4-.5.2-.5.1-1.1-.3-1.5zm-15.7-11.5-6.2 10-9.9-10h16.1zm-9.2 11H74.5l10.1-10.1 10 10.1zm-13.1-11-9.9 10-6.2-10h16.1zm-18.9 1 6.2 10h-15l8.8-10zM53.8 43h16.5l11.4 31.5L53.8 43zm33.7 31.4 8-21.6c.3-.7-.1-1.5-.8-1.8-.7-.3-1.5.1-1.8.8l-8.2 22.3L73.3 43h42.1L87.5 74.4zm12.8-34.2 6.2-10 8.9 10h-15.1zM84.6 9.7c-.8 0-1.4.6-1.4 1.4v7.2c0 .8.6 1.4 1.4 1.4s1.4-.6 1.4-1.4v-7.2c0-.8-.7-1.4-1.4-1.4zm12.7 5.5c-.5-.5-1.4-.5-2 0l-5.1 5.1c-.5.5-.5 1.4 0 2 .3.3.6.4 1 .4s.7-.1 1-.4l5.1-5.1c.5-.6.5-1.4 0-2zm-18.7 5.1-5.1-5.1c-.5-.5-1.4-.5-2 0-.5.5-.5 1.4 0 2l5.1 5.1c.3.3.6.4 1 .4s.7-.1 1-.4c.6-.6.6-1.5 0-2zm17.3 25.5c.8 0 1.4.6 1.4 1.4 0 .8-.6 1.4-1.4 1.4s-1.4-.6-1.4-1.4c0-.8.7-1.4 1.4-1.4z"/></svg>