<?xml version="1.0" encoding="UTF-8" standalone="no"?>
<svg width="298px" height="288px" viewBox="0 0 298 288" version="1.1" xmlns="http://www.w3.org/2000/svg" xmlns:xlink="http://www.w3.org/1999/xlink" xmlns:sketch="http://www.bohemiancoding.com/sketch/ns">
    <defs>
        <path d="M119.627481,9.21530637 C136.155827,-2.79324026 162.963974,-2.78568234 179.481918,9.21530637 L277.502863,80.4316911 C294.031209,92.4402377 302.308194,117.938636 295.998901,137.356644 L258.558232,252.587175 C252.244965,272.017411 230.552276,287.76873 210.134975,287.76873 L88.9744244,287.76873 C68.5442646,287.76873 46.8604605,272.005182 40.5511674,252.587175 L3.11049825,137.356644 C-3.20276833,117.926407 5.08859269,92.4326798 21.6065366,80.4316911 L119.627481,9.21530637 Z" id="path-12345"></path>
    </defs>
    <g id="Page-1" stroke="none" stroke-width="1" fill="none" fill-rule="evenodd" sketch:type="MSPage">
        <g id="AB-mobile" sketch:type="MSArtboardGroup" transform="translate(-1649.000000, -2491.000000)">
            <g id="screen-2" sketch:type="MSLayerGroup" transform="translate(1156.000000, 1644.000000)">
                <g id="Group" transform="translate(-636.000000, 70.000000)">
                    <g id="cup" transform="translate(1128.290032, 777.201935)">
                        <mask id="cup-mask" sketch:name="Mask" fill="white">
                            <use xlink:href="#path-12345"></use>
                        </mask>
                        <use id="Mask" fill="#4F484F" sketch:type="MSShapeGroup" xlink:href="#path-12345"></use>
                        <g id="Group-5" mask="url(#cup-mask)">
                            <g transform="translate(64.554700, 78.471909)" id="trophy">
                                <g>
                                    <g id="Layer_1" sketch:type="MSShapeGroup">
                                        <path d="M66.1108205,85.2365848 C39.2582308,85.2365848 16.5649744,65.9786979 12.1515128,39.4414659 L12.0272821,38.7039688 C11.5425641,35.7902222 12.3014615,32.9712281 14.165359,30.7687797 C15.9656154,28.6383782 18.6019231,27.4188226 21.3995128,27.4188226 L44.5735641,27.4188226 L44.5735641,15.8546589 L21.3995128,15.8546589 C15.2027949,15.8546589 9.35610256,18.5649279 5.35761538,23.2929435 C1.32338462,28.0659337 -0.395358974,34.3746121 0.641641026,40.6116803 L0.765871795,41.3456842 C6.10953846,73.4811696 33.5902564,96.7998752 66.1095128,96.7998752 L66.1191026,96.7998752 L66.1191026,85.2361481 C66.1147436,85.2365848 66.1147436,85.2365848 66.1108205,85.2365848 L66.1108205,85.2365848 Z" id="Shape" fill="#EBB45F"></path>
                                        <g id="Group" transform="translate(73.230769, 15.719298)" fill="#FFC36E">
                                            <path d="M91.4120513,7.57364522 C87.4135641,2.84562963 81.5668718,0.135360624 75.3701538,0.135360624 L52.1961026,0.135360624 L52.1961026,11.6990877 L75.3701538,11.6990877 C78.1677436,11.6990877 80.8040513,12.9186433 82.6038718,15.0490448 C84.4677692,17.2510565 85.2266667,20.0704873 84.7419487,22.9842339 L84.6177179,23.721731 C80.2046923,50.2593996 57.5114359,69.5168499 30.6588462,69.5168499 L30.651,69.5168499 L30.651,81.080577 L30.6588462,81.080577 C63.1798462,81.080577 90.6605641,57.7614347 96.0037949,25.626386 L96.1280256,24.8923821 C97.1654615,18.6557505 95.4458462,12.3466355 91.4120513,7.57364522 L91.4120513,7.57364522 Z" id="Shape"></path>
                                            <path d="M23.3131026,165.880951 L0.225794872,165.880951 L4.07346154,84.9352982 L19.4654359,84.9352982 L23.3131026,165.880951 Z" id="Shape"></path>
                                        </g>
                                        <path d="M77.3042308,100.654596 L73.4565641,181.60025 L85,181.60025 L85,100.654596 L77.3042308,100.654596 Z" id="Shape" fill="#EBB45F"></path>
                                        <path d="M108.087744,197.018261 L61.9126923,197.018261 L61.9126923,181.60025 C61.9126923,179.471595 63.6357949,177.745528 65.7607949,177.745528 L104.240077,177.745528 C106.365077,177.745528 108.088179,179.471595 108.088179,181.60025 L108.088179,197.018261 L108.087744,197.018261 Z" id="Shape" fill="#FFD782"></path>
                                        <path d="M85,177.745528 L65.760359,177.745528 C63.635359,177.745528 61.9122564,179.471595 61.9122564,181.60025 L61.9122564,197.018261 L81.1518974,197.018261 L81.1518974,181.60025 C81.1523333,179.471595 82.875,177.745528 85,177.745528 L85,177.745528 Z" id="Shape" fill="#FFC36E"></path>
                                        <path d="M123.479282,204.727267 L46.5207179,204.727267 L51.9319487,196.59646 C53.3590769,194.452086 55.7621795,193.16354 58.3352821,193.16354 L111.664718,193.16354 C114.237821,193.16354 116.640487,194.452086 118.068051,196.59646 L123.479282,204.727267 L123.479282,204.727267 Z" id="Shape" fill="#9B5A50"></path>
                                        <path d="M81.4230256,193.16354 L58.3352821,193.16354 C55.7621795,193.16354 53.3595128,194.451649 51.9319487,196.59646 L46.5207179,204.727267 L69.6084615,204.727267 L75.0196923,196.59646 C76.4472564,194.451649 78.8499231,193.16354 81.4230256,193.16354 L81.4230256,193.16354 Z" id="Shape" fill="#874641"></path>
                                        <path d="M123.479282,224 L46.5207179,224 C44.3957179,224 42.6726154,222.273934 42.6726154,220.145279 L42.6726154,204.727267 C42.6726154,202.598612 44.3957179,200.872546 46.5207179,200.872546 L123.479282,200.872546 C125.604282,200.872546 127.327385,202.598612 127.327385,204.727267 L127.327385,220.145279 C127.327385,222.273934 125.604282,224 123.479282,224 L123.479282,224 Z" id="Shape" fill="#AA6455"></path>
                                        <path d="M69.6084615,220.145279 L69.6084615,204.727267 C69.6084615,202.598612 71.3315641,200.872546 73.4565641,200.872546 L46.5211538,200.872546 C44.3961538,200.872546 42.6730513,202.598612 42.6730513,204.727267 L42.6730513,220.145279 C42.6730513,222.273934 44.3961538,224 46.5211538,224 L73.4565641,224 C71.3315641,224 69.6084615,222.273934 69.6084615,220.145279 L69.6084615,220.145279 Z" id="Shape" fill="#9B5A50"></path>
                                        <path d="M115.66059,89.6152827 L98.6287692,102.88499 C97.2774872,103.93731 95.6154103,104.508881 93.9040769,104.508881 L76.0972308,104.508881 C74.3858974,104.508881 72.7229487,103.93731 71.3725385,102.88499 L54.3407179,89.6152827 C44.4279744,81.8918674 38.0826154,70.4573879 36.7683846,57.9465731 L31.1291795,4.29136842 L138.870821,4.29136842 L133.232487,57.9465731 C131.918256,70.4573879 125.572897,81.8923041 115.66059,89.6152827 L115.66059,89.6152827 Z" id="Shape" fill="#FFD782"></path>
                                        <path d="M84.4446667,102.88499 L76.5370513,89.6152827 C71.9344103,81.8918674 68.9890513,70.4573879 68.378359,57.9456998 L65.760359,4.29136842 L31.1291795,4.29136842 L36.7675128,57.9465731 C38.0821795,70.4573879 44.4271026,81.8923041 54.3398462,89.6161559 L71.3716667,102.885864 C72.7229487,103.93862 74.3850256,104.510191 76.096359,104.510191 L86.6376667,104.510191 C85.8438974,104.509318 85.0719231,103.937747 84.4446667,102.88499 L84.4446667,102.88499 Z" id="Shape" fill="#FFC36E"></path>
                                        <g id="Group" transform="translate(27.025641, 0.000000)" fill="#FFD782">
                                            <path d="M111.845615,8.14565302 L4.10353846,8.14565302 C1.97853846,8.14565302 0.255435897,6.41958674 0.255435897,4.29093177 L0.255435897,4.29093177 C0.255435897,2.1622768 1.97853846,0.436210526 4.10353846,0.436210526 L111.845179,0.436210526 C113.970179,0.436210526 115.693282,2.1622768 115.693282,4.29093177 L115.693282,4.29093177 C115.693282,6.42002339 113.970615,8.14565302 111.845615,8.14565302 L111.845615,8.14565302 Z" id="Shape"></path>
                                            <path d="M69.5182308,131.491057 L46.4304872,131.491057 C44.3054872,131.491057 42.5823846,129.76499 42.5823846,127.636335 L42.5823846,123.781614 C42.5823846,121.652959 44.3054872,119.926893 46.4304872,119.926893 L69.5182308,119.926893 C71.6432308,119.926893 73.3663333,121.652959 73.3663333,123.781614 L73.3663333,127.636335 C73.3663333,129.76499 71.6432308,131.491057 69.5182308,131.491057 L69.5182308,131.491057 Z" id="Shape"></path>
                                        </g>
                                        <g id="Group" transform="translate(31.384615, 7.859649)" fill="#FFC36E">
                                            <path d="M49.7677179,119.776686 L49.7677179,115.921965 C49.7677179,113.79331 51.4908205,112.067244 53.6158205,112.067244 L42.0719487,112.067244 C39.9469487,112.067244 38.2238462,113.79331 38.2238462,115.921965 L38.2238462,119.776686 C38.2238462,121.905341 39.9469487,123.631407 42.0719487,123.631407 L53.6153846,123.631407 C51.4903846,123.631407 49.7677179,121.905341 49.7677179,119.776686 L49.7677179,119.776686 Z" id="Shape"></path>
                                            <path d="M106.271359,7.99500975 L107.081256,0.286003899 L0.149512821,0.286003899 L0.959410256,7.99500975 L106.271359,7.99500975 Z" id="Shape"></path>
                                        </g>
                                        <path d="M65.9486667,8.14565302 L31.5341282,8.14565302 L32.3440256,15.8546589 L66.3248462,15.8546589 L65.9486667,8.14565302 Z" id="Shape" fill="#EBB45F"></path>
                                        <path d="M61.9126923,4.29136842 C61.9126923,2.16271345 63.6357949,0.436647173 65.7607949,0.436647173 L31.1296154,0.436647173 C29.0046154,0.436647173 27.2815128,2.16271345 27.2815128,4.29136842 C27.2815128,6.42002339 29.0046154,8.14608967 31.1296154,8.14608967 L65.7607949,8.14608967 C63.635359,8.14565302 61.9126923,6.42002339 61.9126923,4.29136842 L61.9126923,4.29136842 Z" id="Shape" fill="#FFC36E"></path>
                                        <g id="Group" transform="translate(96.333333, 7.859649)" fill="#FFFFFF">
                                            <path d="M34.6429487,12.0767875 C28.9008718,10.7650994 24.3806154,6.23750487 23.0716154,0.485551657 C22.9731026,0.0523976608 22.4007692,0.0523976608 22.3018205,0.485551657 C20.9923846,6.23750487 16.4725641,10.7655361 10.7304872,12.0767875 C10.2980769,12.1754698 10.2980769,12.7487875 10.7304872,12.8479064 C16.4725641,14.1595945 20.9928205,18.6871891 22.3018205,24.4391423 C22.4003333,24.8722963 22.9726667,24.8722963 23.0716154,24.4391423 C24.3810513,18.6871891 28.9008718,14.1591579 34.6429487,12.8479064 C35.075359,12.7492242 35.075359,12.1754698 34.6429487,12.0767875 L34.6429487,12.0767875 Z" id="Shape"></path>
                                            <path d="M17.7976923,29.5016296 C13.7551795,28.4528031 10.5718205,25.2639688 9.52479487,21.2145029 C9.41930769,20.8079844 8.89405128,20.8079844 8.789,21.2145029 C7.74197436,25.2639688 4.55861538,28.4528031 0.516102564,29.5016296 C0.110282051,29.6072982 0.110282051,30.1334581 0.516102564,30.2386901 C4.55861538,31.2875166 7.74197436,34.4759142 8.789,38.5258168 C8.89448718,38.9323353 9.41974359,38.9323353 9.52479487,38.5258168 C10.5718205,34.4754776 13.7551795,31.2875166 17.7976923,30.2386901 C18.2035128,30.1338947 18.2035128,29.6072982 17.7976923,29.5016296 L17.7976923,29.5016296 Z" id="Shape"></path>
                                        </g>
                                    </g>
                                </g>
                            </g>
                        </g>
                    </g>
                </g>
            </g>
        </g>
    </g>
</svg>
