<?xml version="1.0" encoding="UTF-8" standalone="no"?>
<svg width="115px" height="213px" viewBox="0 0 115 213" version="1.1" xmlns="http://www.w3.org/2000/svg" xmlns:xlink="http://www.w3.org/1999/xlink" xmlns:sketch="http://www.bohemiancoding.com/sketch/ns">
    <!-- Generator: Sketch 3.5.1 (25234) - http://www.bohemiancoding.com/sketch -->
    <title>HTML</title>
    <desc>Created with Sketch.</desc>
    <defs>
        <path d="M47.191964,5.76280994 C56.1226288,-0.733610603 70.5996918,-0.735360372 79.5327619,5.76280994 L109.355265,27.4565505 C118.28593,33.952971 122.761251,47.7377263 119.349121,58.2519867 L107.957939,93.3531962 C104.546728,103.864625 92.8355656,112.385823 81.7811641,112.385823 L44.9435618,112.385823 C33.8977388,112.385823 22.1789164,103.867457 18.7667872,93.3531962 L7.37560453,58.2519867 C3.96439414,47.7405575 8.43639054,33.9547208 17.3694607,27.4565505 L47.191964,5.76280994 Z" id="path-1"></path>
    </defs>
    <g id="Page-1" stroke="none" stroke-width="1" fill="none" fill-rule="evenodd" sketch:type="MSPage">
        <g id="AB-mobile" sketch:type="MSArtboardGroup" transform="translate(-2416.000000, -569.000000)">
            <g id="screen-3" sketch:type="MSLayerGroup" transform="translate(2046.000000, 143.000000)">
                <g id="Group" transform="translate(-698.000000, 100.000000)">
                    <g id="service-list" transform="translate(779.000000, 326.000000)">
                        <g id="HTML" transform="translate(283.181486, 0.000000)">
                            <text opacity="0.7" sketch:type="MSTextLayer" font-family="Helvetica Neue" font-size="19.7320341" font-weight="420" sketch:alignment="middle" fill="#FFFFFF">
                                <tspan x="36.3656516" y="164.463415">HTML</tspan>
                                <tspan x="40.2035323" y="188.035781">Haml</tspan>
                                <tspan x="44.0414129" y="211.608147">Slim</tspan>
                            </text>
                            <mask id="mask-2" sketch:name="Mask" fill="white">
                                <use xlink:href="#path-1"></use>
                            </mask>
                            <use id="Mask" fill="#4F484F" sketch:type="MSShapeGroup" xlink:href="#path-1"></use>
                            <g id="Group" mask="url(#mask-2)" fill="#B96BA2" sketch:type="MSShapeGroup">
                                <g transform="translate(39.000000, 35.000000)" id="Shape">
                                    <path d="M23.5095,19.02 L11.19075,19.02 L10.33975,9.487 L23.5095,9.487 L23.5095,0.17725 L23.47725,0.17725 L0.16575,0.17725 L0.38875,2.675 L2.67675,28.329 L23.5095,28.329 L23.5095,19.02 Z"></path>
                                    <path d="M23.5095,43.197 L23.46875,43.2085 L13.10075,40.40875 L12.43775,32.98425 L7.4,32.98425 L3.09275,32.98425 L4.397,47.601 L23.4665,52.895 L23.5095,52.883 L23.5095,43.197 Z"></path>
                                    <path d="M23.47725,19.02 L23.47725,28.329 L34.94075,28.329 L33.86025,40.4025 L23.47725,43.205 L23.47725,52.8905 L42.56225,47.601 L42.702,46.0285 L44.88975,21.51975 L45.11675,19.02 L42.60825,19.02 L23.47725,19.02 Z"></path>
                                    <path d="M23.47725,0.17725 L23.47725,5.95925 L23.47725,9.464 L23.47725,9.487 L45.934,9.487 L45.934,9.487 L45.964,9.487 L46.15075,7.3945 L46.57475,2.675 L46.7975,0.17725 L23.47725,0.17725 Z"></path>
                                </g>
                            </g>
                        </g>
                    </g>
                </g>
            </g>
        </g>
    </g>
</svg>