<?xml version="1.0" encoding="UTF-8" standalone="no"?>
<svg width="115px" height="264px" viewBox="0 0 115 264" version="1.1" xmlns="http://www.w3.org/2000/svg" xmlns:xlink="http://www.w3.org/1999/xlink" xmlns:sketch="http://www.bohemiancoding.com/sketch/ns">
    <!-- Generator: Sketch 3.5.1 (25234) - http://www.bohemiancoding.com/sketch -->
    <title>Js</title>
    <desc>Created with Sketch.</desc>
    <defs>
        <path d="M47.191964,5.76280994 C56.1226288,-0.733610603 70.5996918,-0.735360372 79.5327619,5.76280994 L109.355265,27.4565505 C118.28593,33.952971 122.761251,47.7377263 119.349121,58.2519867 L107.957939,93.3531962 C104.546728,103.864625 92.8355656,112.385823 81.7811641,112.385823 L44.9435618,112.385823 C33.8977388,112.385823 22.1789164,103.867457 18.7667872,93.3531962 L7.37560453,58.2519867 C3.96439414,47.7405575 8.43639054,33.9547208 17.3694607,27.4565505 L47.191964,5.76280994 Z" id="path-1"></path>
    </defs>
    <g id="Page-1" stroke="none" stroke-width="1" fill="none" fill-rule="evenodd" sketch:type="MSPage">
        <g id="AB-mobile" sketch:type="MSArtboardGroup" transform="translate(-2276.000000, -569.000000)">
            <g id="screen-3" sketch:type="MSLayerGroup" transform="translate(2046.000000, 143.000000)">
                <g id="Group" transform="translate(-698.000000, 100.000000)">
                    <g id="service-list" transform="translate(779.000000, 326.000000)">
                        <g id="Js" transform="translate(143.412911, 0.000000)">
                            <text id="Javascript" opacity="0.7" sketch:type="MSTextLayer" font-family="Helvetica Neue" font-size="19.7320341" font-weight="420" sketch:alignment="middle" fill="#FFFFFF">
                                <tspan x="16.6138855" y="164.463415">Javascript</tspan>
                                <tspan x="25.3946407" y="188.035781">ReactJS</tspan>
                                <tspan x="34.1556638" y="211.608147">jQuery</tspan>
                                <tspan x="16.9887942" y="235.180513">AngularJS</tspan>
                                <tspan x="7.29049939" y="258.75288">Backbone.js</tspan>
                            </text>
                            <mask id="mask-2" sketch:name="Mask" fill="white">
                                <use xlink:href="#path-1"></use>
                            </mask>
                            <use id="Mask" fill="#4F484F" sketch:type="MSShapeGroup" xlink:href="#path-1"></use>
                            <path d="M48.5095966,39.1355539 L56.9278237,39.1355539 L56.9278237,66.2705806 C56.9278237,78.5004794 51.8327231,82.7683835 43.6910983,82.7683835 C41.6974024,82.7683835 39.1498021,82.3862243 37.4880889,81.7492923 L38.4296564,73.9145691 C39.5927456,74.3604215 41.0881176,74.6788875 42.7495308,74.6788875 C46.294079,74.6788875 48.5095966,72.8315548 48.5095966,66.2071174 L48.5095966,39.1355539 L48.5095966,39.1355539 Z" id="Shape" fill="#B96BA2" sketch:type="MSShapeGroup" mask="url(#mask-2)"></path>
                            <path d="M64.2369425,72.1306997 C66.4522601,73.4683718 69.9969083,74.8060439 73.596837,74.8060439 C77.4737678,74.8060439 79.5229441,72.9589412 79.5229441,70.0925174 C79.5229441,67.4809813 77.75067,65.8886514 73.2645543,64.1050119 C67.061445,61.557054 62.9631923,57.6078458 62.9631923,51.3019893 C62.9631923,43.9766968 68.3353951,38.4349287 77.0860048,38.4349287 C81.3506987,38.4349287 84.396623,39.3906716 86.6121406,40.6007273 L84.7289056,48.3717573 C83.2890141,47.5438607 80.5750726,46.33346 76.9754438,46.33346 C73.3200347,46.33346 71.5476606,48.3080641 71.5476606,50.4738628 C71.5476606,53.2129002 73.596837,54.422956 78.4708157,56.5888697 C85.0612883,59.3916003 88.1074125,63.3408085 88.1074125,69.4557004 C88.1074125,76.6534916 83.3443946,82.7684984 73.098413,82.7684984 C68.8337191,82.7684984 64.6244056,81.4307114 62.5201487,80.0931542 L64.2369425,72.1306997 L64.2369425,72.1306997 Z" id="Shape" fill="#B96BA2" sketch:type="MSShapeGroup" mask="url(#mask-2)"></path>
                        </g>
                    </g>
                </g>
            </g>
        </g>
    </g>
</svg>