<?xml version="1.0" encoding="UTF-8" standalone="no"?>
<svg viewBox="0 0 518 288" version="1.1" xmlns="http://www.w3.org/2000/svg" xmlns:xlink="http://www.w3.org/1999/xlink">
    <g stroke="none" stroke-width="1" fill="none" fill-rule="evenodd">
        <g transform="translate(-417.000000, -238.000000)">
            <g id="screen-1" transform="translate(266.000000, 143.000000)">
                <g class="Group" transform="translate(-636.000000, -41.000000)">
                    <g id="ab-logo" transform="translate(786.864841, 136.595588)">
                        <path d="M109.376345,264.117991 C109.40399,247.856386 109.408728,224.287938 109.332609,198.659096 C109.157282,139.626968 109.786075,72.8037371 108.219839,72.7400096 C105.966422,72.8435708 101.294936,216.809029 98.8710399,282.78241 C98.7898859,284.885598 104.383677,290.935562 108.755299,284.412522 C109.740544,282.556213 109.358493,274.618764 109.376345,264.117991 L109.376345,264.117991 Z" fill="#FFFFFF"></path>
                        <path d="M411.748074,248.796021 C410.044699,227.650575 407.535819,197.007566 404.715298,163.694307 C398.21866,86.9622929 391.804215,0.0154781697 390.018444,0.0985763072 C387.470003,0.471986283 397.522121,188.143579 401.80698,274.175665 C401.939168,276.918721 408.938147,284.191879 413.207677,275.247749 C414.128714,272.729875 412.84801,262.450488 411.748074,248.796021 L411.748074,248.796021 L411.748074,248.796021 Z" fill="#FFFFFF"></path>
                        <path d="M437.861276,135.641226 C427.209702,113.894168 408.533601,67.3065786 408.533601,67.3065786 C408.533601,67.3065786 419.596532,111.02414 429.753171,136.917439 C436.008418,152.864545 457.769261,192.827793 457.769261,192.827793 C457.769261,192.827793 365.755266,158.5172 249.885412,163.875429 C123.755172,165.945972 0.137302884,211.346612 0.137302884,211.346612 C0.137302884,211.346612 17.4726145,205.706858 42.3465878,200.553468 C99.3988962,188.733367 190.97389,177.554756 252.179465,176.825202 C321.680022,175.99677 477.979024,209.091606 477.979024,209.091606 C477.979024,209.091606 450.358176,161.155844 437.861276,135.641226 L437.861276,135.641226 Z" fill="#FFFFFF"></path>
                        <path d="M318.455146,100.843355 C291.220661,117.029994 255.479747,127.492713 242.245525,129.400781 C145.200718,148.321133 121.181617,111.084673 121.181617,111.084673 C121.181617,111.084673 138.223341,157.643168 244.709883,135.795021 C338.386238,115.768548 376.538113,54.6873573 376.538113,54.6873573 C376.538113,54.6873573 352.03104,80.8877391 318.455146,100.843355 L318.455146,100.843355 Z" fill="#FFFFFF"></path>
                        <path d="M408.69445,67.4687609 C408.69445,67.4687609 444.118199,143.300843 463.968063,174.462867 C480.589526,200.556669 518.108436,239.236244 518.108436,239.236244 C518.108436,239.236244 387.670598,187.133792 271.036755,184.912603 C122.61512,179.100741 0.798683243,210.638814 0.798683243,210.638814 C0.798683243,210.638814 63.1768681,195.762607 130.38647,184.231621 C177.871809,176.084679 233.600669,170.066659 284.792237,171.842946 C295.567493,172.09266 306.763621,172.894208 318.094157,174.101525 C394.867793,182.282078 477.812342,209.092126 477.812342,209.092126 C477.812342,209.092126 463.065164,184.86895 442.622632,145.197538 C425.530249,111.55329 408.69445,67.4687609 408.69445,67.4687609 Z" fill="#B96BA2"></path>
                    </g>
                </g>
            </g>
        </g>
    </g>
</svg>
