<svg width="50px" height="47px" viewBox="0 0 50 47" version="1.1" xmlns="http://www.w3.org/2000/svg" xmlns:xlink="http://www.w3.org/1999/xlink">
    <g id="Page-1" stroke="none" stroke-width="1" fill="none" fill-rule="evenodd" >
        <g id="AB-mobile" transform="translate(-2644.000000, -2982.000000)" stroke="#A6A6A6" stroke-width="2">
            <g id="screen-3" transform="translate(2046.000000, 1644.000000)">
                <g id="Group" transform="translate(-698.000000, 70.000000)">
                    <g id="menu-testimonials-button" transform="translate(1297.000000, 1269.000000)">
                        <path d="M26.2920561,0.447733438 L47.8456533,0.447733438 L47.8456533,21.405717 C47.8456533,21.405717 47.4372391,26.1217637 42.1940007,33.5754533 C36.9507622,41.0291429 26.1714291,44.0442125 26.1714291,44.0442125 L26.3008659,36.0101228 C26.3008659,36.0101228 30.9028678,35.1962705 35.1781907,30.6199251 C39.4535136,26.0435796 39.4963345,21.7526231 39.4963345,21.7526231 L26.3008659,21.7526223 L26.2920561,0.447733438 Z" id="Path-11198"></path>
                        <path d="M0.292056071,0.447733438 L21.8456533,0.447733438 L21.8456533,21.405717 C21.8456533,21.405717 21.4372391,26.1217637 16.1940007,33.5754533 C10.9507622,41.0291429 0.171429116,44.0442125 0.171429116,44.0442125 L0.300865907,36.0101228 C0.300865907,36.0101228 4.90286775,35.1962705 9.17819067,30.6199251 C13.4535136,26.0435796 13.4963345,21.7526231 13.4963345,21.7526231 L0.300865905,21.7526223 L0.292056071,0.447733438 Z" id="Path-11198"></path>
                    </g>
                </g>
            </g>
        </g>
    </g>
</svg>
