<?xml version="1.0" encoding="UTF-8" standalone="no"?>
<svg width="104px" height="59px" viewBox="0 0 104 59" version="1.1" xmlns="http://www.w3.org/2000/svg" xmlns:xlink="http://www.w3.org/1999/xlink">
    <g stroke="none" stroke-width="1" fill="none" fill-rule="evenodd">
        <g transform="translate(-2136.000000, -1469.000000)">
            <g transform="translate(2046.000000, 143.000000)">
                <g class="Group" transform="translate(-698.000000, 100.000000)">
                    <g id="menu-home-button" transform="translate(787.804383, 1226.599774)">
                        <path d="M22.0194527,53.1717677 C22.0250181,49.89801 22.025972,45.1532517 22.0106479,39.9936985 C21.9753512,28.1094547 22.1019388,14.6567198 21.7866269,14.6438903 C21.3329729,14.664739 20.3925177,43.6476108 19.9045432,56.9292555 C19.8882054,57.3526655 21.0143375,58.5706336 21.8944247,57.2574268 C22.0927725,56.8837179 22.0158588,55.2857646 22.0194527,53.1717677 L22.0194527,53.1717677 Z" id="menu-home-path-5" fill="#A8A8A8"></path>
                        <path d="M82.8923952,50.0871756 C82.5494749,45.8302117 82.0443916,39.6612153 81.4765692,32.9546489 C80.1686775,17.5070953 78.8773327,0.00311603779 78.5178245,0.0198452081 C78.0047769,0.0950194452 80.0284515,37.8767331 80.8910716,55.1965608 C80.9176836,55.7487879 82.3267057,57.2130073 83.1862399,55.4123907 C83.3716614,54.9054969 83.1138324,52.8360688 82.8923952,50.0871756 L82.8923952,50.0871756 L82.8923952,50.0871756 Z" id="menu-home-path-4" fill="#A8A8A8"></path>
                        <path d="M88.149459,27.3070521 C86.0051028,22.9289728 82.2452632,13.5500416 82.2452632,13.5500416 C82.2452632,13.5500416 84.4724329,22.3511838 86.5171495,27.5639771 C87.7764448,30.7744203 92.1572994,38.8197509 92.1572994,38.8197509 C92.1572994,38.8197509 73.6332043,31.9124029 50.3064899,32.9911121 C24.9141727,33.4079501 0.0276415741,42.5479268 0.0276415741,42.5479268 C0.0276415741,42.5479268 3.51755589,41.4125414 8.52514028,40.37507 C20.0108103,37.9954682 38.4465264,35.74501 50.7683245,35.5981374 C64.760054,35.431359 96.2258932,42.0939529 96.2258932,42.0939529 C96.2258932,42.0939529 90.6653128,32.44361 88.149459,27.3070521 L88.149459,27.3070521 Z" id="menu-home-path-3" fill="#A8A8A8"></path>
                        <path d="M64.1108276,20.3016061 C58.6280293,23.5602717 51.4327315,25.6666078 48.7684414,26.0507368 C29.2315521,29.8597486 24.3960692,22.3633702 24.3960692,22.3633702 C24.3960692,22.3633702 27.826879,31.7364442 49.2645615,27.338014 C68.12332,23.3063197 75.803988,11.0095622 75.803988,11.0095622 C75.803988,11.0095622 70.8702673,16.2841768 64.1108276,20.3016061 L64.1108276,20.3016061 Z" id="menu-home-path-2" fill="#A8A8A8"></path>
                        <path d="M82.277645,13.5826918 C82.277645,13.5826918 89.4090916,28.8490726 93.4052313,35.1225564 C96.7514347,40.3757146 104.304675,48.1626182 104.304675,48.1626182 C104.304675,48.1626182 78.0451603,37.6734445 54.564641,37.2262787 C24.6846596,36.056245 0.1607895,42.4054341 0.1607895,42.4054341 C0.1607895,42.4054341 12.7186555,39.4105823 26.2491739,37.0891847 C35.8088386,35.4490567 47.0280743,34.2375195 57.3338703,34.5951184 C59.5031259,34.6453905 61.7571106,34.8067568 64.0381541,35.0498115 C79.4940868,36.6967061 96.1923371,42.0940575 96.1923371,42.0940575 C96.1923371,42.0940575 93.2234611,37.2174906 89.1080067,29.2309119 C85.6669984,22.4577114 82.277645,13.5826918 82.277645,13.5826918 Z" id="menu-home-path-1" fill="#E8E8E8"></path>
                    </g>
                </g>
            </g>
        </g>
    </g>
</svg>
