<?xml version="1.0" encoding="UTF-8" standalone="no"?>
<svg width="64px" height="46px" viewBox="0 0 64 46" version="1.1" xmlns="http://www.w3.org/2000/svg" xmlns:xlink="http://www.w3.org/1999/xlink">
    <defs>
        <path id="nav-path-2" d="M0.125200441,11.087628 L11.1657041,0.459048575 L46.3949477,0.459048575 L57.8369242,11.0975849 L28.9810623,40.4409364 L0.125200441,11.087628 Z"></path>
    </defs>
    <g stroke="none" stroke-width="1" fill="none" fill-rule="evenodd">
        <g transform="translate(-2519.000000, -1483.000000)">
            <g transform="translate(2046.000000, 143.000000)">
                <g class="Group" transform="translate(-698.000000, 100.000000)">
                    <g id="menu-services-button" transform="translate(1174.000000, 1242.000000)">
                        <mask id="nav-mask-2" fill="white">
                            <use xlink:href="#nav-path-2"></use>
                        </mask>
                        <use id="menu-services-mask" stroke="#A6A6A6" stroke-width="2" xlink:href="#nav-path-2"></use>
                        <path d="M9.20083213,-1.27310595 L15.746221,11.426812 L-4.08493134,11.426812 L9.20083213,-1.27310595 Z" id="menu-services-path-4" stroke="#A6A6A6" stroke-width="2" mask="url(#nav-mask-2)"></path>
                        <path d="M48.2992085,-1.27310595 L41.7538196,11.426812 L61.5849719,11.426812 L48.2992085,-1.27310595 L48.2992085,-1.27310595 Z" id="menu-services-path-3" stroke="#A6A6A6" stroke-width="2" mask="url(#nav-mask-2)"></path>
                        <rect id="menu-services-rectangle-1" stroke="#A6A6A6" stroke-width="2" opacity="0.1" mask="url(#nav-mask-2)" x="-3.54736701" y="11.0545574" width="66.390867" height="33.4332008"></rect>
                        <path d="M15.7713683,11.3697992 L28.9420885,42.9420052 L41.6613556,11.3697992 L15.7713683,11.3697992 Z" id="menu-services-path-2" stroke="#A6A6A6" stroke-width="2" mask="url(#nav-mask-2)"></path>
                        <path d="M61.4174307,11.3509339 L42.6829696,11.3509339 L29.796363,43.3858306 L61.4174307,11.3509339 Z" id="menu-services-path-1" stroke="#A6A6A6" stroke-width="2" mask="url(#nav-mask-2)"></path>
                        <polygon id="menu-services-triangle-1" stroke="#A6A6A6" stroke-width="2" mask="url(#nav-mask-2)" points="28.7658569 1.01811217 41.5552073 11.2220554 15.6229562 11.2220554 "></polygon>
                    </g>
                </g>
            </g>
        </g>
    </g>
</svg>
