<?xml version="1.0" encoding="UTF-8" standalone="no"?>
<svg width="116px" height="113px" viewBox="0 0 116 113" version="1.1" xmlns="http://www.w3.org/2000/svg" xmlns:xlink="http://www.w3.org/1999/xlink" xmlns:sketch="http://www.bohemiancoding.com/sketch/ns">
    <!-- Generator: Sketch 3.5.1 (25234) - http://www.bohemiancoding.com/sketch -->
    <title>ror-tech</title>
    <desc>Created with Sketch.</desc>
    <defs>
        <path d="M41.8363002,5.76280994 C50.7669649,-0.733610603 65.2440279,-0.735360372 74.1770981,5.76280994 L103.999601,27.4565505 C112.930266,33.952971 117.405587,47.7377263 113.993458,58.2519867 L102.602275,93.3531962 C99.1910646,103.864625 87.4799018,112.385823 76.4255003,112.385823 L39.587898,112.385823 C28.5420749,112.385823 16.8232525,103.867457 13.4111234,93.3531962 L2.01994071,58.2519867 C-1.39126968,47.7405575 3.08072671,33.9547208 12.0137969,27.4565505 L41.8363002,5.76280994 Z" id="path-1"></path>
    </defs>
    <g id="Page-1" stroke="none" stroke-width="1" fill="none" fill-rule="evenodd" sketch:type="MSPage">
        <g id="AB-mobile" sketch:type="MSArtboardGroup" transform="translate(-2136.000000, -569.000000)">
            <g id="screen-3" sketch:type="MSLayerGroup" transform="translate(2046.000000, 143.000000)">
                <g id="Group" transform="translate(-698.000000, 100.000000)">
                    <g id="tech-list" transform="translate(779.000000, 326.000000)">
                        <g id="ror-tech" transform="translate(9.000000, 0.000000)">
                            <mask id="mask-2" sketch:name="tech-mask" fill="white">
                                <use xlink:href="#path-1"></use>
                            </mask>
                            <use id="tech-mask" fill="#4F484F" sketch:type="MSShapeGroup" xlink:href="#path-1"></use>
                            <path d="M88.3899851,40.9683234 L87.0491885,42.9875066 C87.0491885,42.9875066 83.6971376,39.1739193 77.5536372,39.846462 C71.4085878,40.5194831 60.5727166,46.801094 58.8965124,60.5970713 C57.2207848,74.392929 63.8122898,89.4229779 63.8122898,89.4229779 L34.095768,89.4229779 C34.095768,89.4229779 33.3139048,84.4876487 35.2130389,75.0660698 C37.1118155,65.6442517 39.904814,59.363239 44.7085902,50.3899023 C49.5123665,41.4170441 57.2206657,34.0141699 68.3924212,33.0052363 C79.564415,31.9954652 88.3899851,40.9683234 88.3899851,40.9683234 L88.3899851,40.9683234 Z M28.1746018,74.3930487 L27.5042631,80.0015187 L32.978378,80.674181 L33.9842435,74.8416497 L28.1746018,74.3930487 L28.1746018,74.3930487 Z M38.8995443,57.6809253 L33.760837,55.6616225 L32.0851094,60.372053 L37.3358178,62.0544864 L38.8995443,57.6809253 L38.8995443,57.6809253 Z M47.613709,43.4363469 L43.7033205,40.8564722 L40.575391,44.3328312 L44.5971848,47.0251552 L47.613709,43.4363469 L47.613709,43.4363469 Z M58.8965124,34.2390686 L56.2153959,31.2104732 L52.5290097,33.1172071 L55.2101262,36.3696245 L58.8965124,34.2390686 L58.8965124,34.2390686 Z M70.8507269,32.5566352 L70.4031989,29.6404892 L65.5998993,29.4157102 L66.2697614,32.6692042 L70.8507269,32.5566352 L70.8507269,32.5566352 Z M84.8150042,35.5847521 L81.128618,32.8929066 L81.016736,34.9116113 L84.1447847,36.5940446 L84.8150042,35.5847521 L84.8150042,35.5847521 Z M80.4576836,43.2114483 L83.4742077,43.5477196 L83.4742077,42.2020361 L80.4576836,41.5290149 L80.4576836,43.2114483 L80.4576836,43.2114483 Z M70.8507269,42.9876263 L72.3024522,45.6789932 L74.425112,43.9965599 L73.9781798,42.2021557 L70.8507269,42.9876263 L70.8507269,42.9876263 Z M68.5044223,49.829809 L66.2697614,46.4649423 L63.9240526,48.5960963 L67.1635066,52.1849046 L68.5044223,49.829809 L68.5044223,49.829809 Z M60.3491909,58.6897393 L64.1472208,61.9431137 L65.0410852,58.2414972 L61.8016311,55.7740718 L60.3491909,58.6897393 L60.3491909,58.6897393 Z M60.0139024,69.906799 L64.7061541,71.9255037 L64.4832242,68.2243656 L60.2373089,65.9808819 L60.0139024,69.906799 L60.0139024,69.906799 Z M68.6154702,84.2639463 L66.4932871,79.889189 L61.5779863,79.889189 L62.6953763,83.9275554 L68.6154702,84.2639463 L68.6154702,84.2639463 Z" id="ror-tech-icon" fill="#B96BA2" sketch:type="MSShapeGroup" mask="url(#mask-2)"></path>
                        </g>
                    </g>
                </g>
            </g>
        </g>
    </g>
</svg>