<?xml version="1.0" encoding="UTF-8" standalone="no"?>
<svg width="115px" height="237px" viewBox="0 0 115 237" version="1.1" xmlns="http://www.w3.org/2000/svg" xmlns:xlink="http://www.w3.org/1999/xlink" xmlns:sketch="http://www.bohemiancoding.com/sketch/ns">
    <!-- Generator: Sketch 3.5.1 (25234) - http://www.bohemiancoding.com/sketch -->
    <title>SQL</title>
    <desc>Created with Sketch.</desc>
    <defs>
        <path d="M47.191964,5.76280994 C56.1226288,-0.733610603 70.5996918,-0.735360372 79.5327619,5.76280994 L109.355265,27.4565505 C118.28593,33.952971 122.761251,47.7377263 119.349121,58.2519867 L107.957939,93.3531962 C104.546728,103.864625 92.8355656,112.385823 81.7811641,112.385823 L44.9435618,112.385823 C33.8977388,112.385823 22.1789164,103.867457 18.7667872,93.3531962 L7.37560453,58.2519867 C3.96439414,47.7405575 8.43639054,33.9547208 17.3694607,27.4565505 L47.191964,5.76280994 Z" id="path-1"></path>
    </defs>
    <g id="Page-1" stroke="none" stroke-width="1" fill="none" fill-rule="evenodd" sketch:type="MSPage">
        <g id="AB-mobile" sketch:type="MSArtboardGroup" transform="translate(-2699.000000, -569.000000)">
            <g id="screen-3" sketch:type="MSLayerGroup" transform="translate(2046.000000, 143.000000)">
                <g id="Group" transform="translate(-698.000000, 100.000000)">
                    <g id="service-list" transform="translate(779.000000, 326.000000)">
                        <g id="SQL" transform="translate(566.275274, 0.000000)">
                            <text id="MySQL-PostgreSQL-Mon" opacity="0.7" sketch:type="MSTextLayer" font-family="Helvetica Neue" font-size="19.7320341" font-weight="420" sketch:alignment="middle" fill="#FFFFFF">
                                <tspan x="30.3276492" y="164.463415">MySQL</tspan>
                                <tspan x="8.57308161" y="188.035781">PostgreSQL</tspan>
                                <tspan x="17.7188794" y="211.608147">MongoDB</tspan>
                                <tspan x="37.8159562" y="235.180513">Redis</tspan>
                            </text>
                            <mask id="mask-2" sketch:name="Mask" fill="white">
                                <use xlink:href="#path-1"></use>
                            </mask>
                            <use id="Mask" fill="#4F484F" sketch:type="MSShapeGroup" xlink:href="#path-1"></use>
                            <path d="M86.5324446,67.6805943 C83.7055016,71.4515849 74.6921085,74.2079468 64.0006367,74.2079468 C53.3158638,74.2079468 44.2957718,71.4515849 41.4721782,67.6805943 C40.8726251,66.8816088 40.5544266,67.3101304 40.5544266,67.7054762 L40.5544266,73.2403173 C40.5544266,78.600985 51.0516298,84.1579433 64.0006367,84.1579433 C76.9496436,84.1579433 87.4468468,78.600985 87.4468468,73.2403173 L87.4468468,67.7054762 C87.4468468,67.3101304 87.1252988,66.8816088 86.5324446,67.6805943 L86.5324446,67.6805943 Z M86.5659392,53.5393795 C83.789238,56.8735545 74.7356515,59.3175103 64.0006367,59.3175103 C53.2656219,59.3175103 44.2120353,56.8735545 41.4353342,53.5393795 C40.8592273,52.8509802 40.5544266,53.2242088 40.5544266,53.5366149 L40.5544266,60.0501441 C40.5544266,64.9242324 51.0516298,68.872161 64.0006367,68.872161 C76.9496436,68.872161 87.4468468,64.9242324 87.4468468,60.0501441 L87.4468468,53.5366149 C87.4468468,53.2242088 87.1386966,52.8509802 86.5659392,53.5393795 L86.5659392,53.5393795 Z M64.0006367,35.5 C51.0516298,35.5 40.5544266,38.7567646 40.5544266,42.7765742 L40.5544266,46.257276 C40.5544266,50.5203753 51.0516298,53.9761952 64.0006367,53.9761952 C76.9496436,53.9761952 87.4468468,50.5203753 87.4468468,46.257276 L87.4468468,42.7793389 C87.4468468,38.7567646 76.9496436,35.5 64.0006367,35.5 L64.0006367,35.5 Z" id="database" fill="#B96BA2" sketch:type="MSShapeGroup" mask="url(#mask-2)"></path>
                        </g>
                    </g>
                </g>
            </g>
        </g>
    </g>
</svg>