<svg xmlns="http://www.w3.org/2000/svg" viewBox="0 0 326 312"><path d="M237.9 127.4l.3 161.4m-.3-161.4l-.8-.3c-1.9-.6-47.9-14-47.9-53.4V21.8c0-4.1-2.7-7.7-6.5-8.9-1.1-.3-26.6-8.1-45.2 5.6-11.8 8.6-17.7 23.2-17.7 43.4v44.3H57.6c-24 0-43.4 19.5-43.3 43.5v1.3l17.1 108.4c3.3 26.7 21.9 42 63.2 42h127s8.8-4.9 16.7-12.7c3.3 3 9.7 4.9 14.5 4.9h44.8c10.2 0 18.5-8.3 18.5-18.5V138.4c0-10.2-8.3-18.5-18.5-18.5h-44.8c-6.2.1-11.5 3-14.9 7.5z" fill="none" stroke="#936ae2" stroke-width="15" stroke-miterlimit="10" opacity=".2"/><path d="M46.4 239.7s-.1 0 0 0c-.5-.2-9-2.7-9-10.1v-9.7c0-.8-.5-1.4-1.2-1.7-.2-.1-5-1.5-8.4 1-2.2 1.6-3.3 4.3-3.3 8.1v8.3H12.9a8 8 0 0 0-8.1 7.9v.5L8 264.2c.6 5 4.1 7.8 9.5 7.8h23.7c2.1 0 4.2-.9 5.7-2.4.6.6 1.4.9 2.3.9h8.4c1.9 0 3.5-1.5 3.5-3.5v-25.5c0-1.9-1.5-3.5-3.5-3.5h-8.4c-1.1.2-2.1.8-2.8 1.7zm2.8 27.5v-25.4h8.3v25.4h-8.3z" fill="#fff" opacity=".7"/></svg>