<svg xmlns="http://www.w3.org/2000/svg" viewBox="-250 410.5 93.9 21.4"><path fill="#FFF" d="M-239.3 410.5a10.7 10.7 0 1 0 0 21.4 10.7 10.7 0 0 0 0-21.4zm7 13.3l-.8-.1-.2.5c.9.4 1.5 1.3 1.5 2.3 0 1.4-1.1 2.5-2.5 2.5-1 0-1.9-.6-2.3-1.5l-.3.1.2.8c0 1.4-1.1 2.5-2.5 2.5s-2.5-1.1-2.5-2.5l.2-.8-.4-.2c-.4.8-1.2 1.3-2.2 1.3a2.5 2.5 0 0 1-1.1-4.7l-.1-.3-.8.1c-1.4 0-2.5-1.1-2.5-2.5s1.1-2.5 2.5-2.5l.8.1.2-.4a2.6 2.6 0 0 1-1.4-2.2c0-1.4 1.1-2.5 2.5-2.5 1 0 1.9.6 2.3 1.4l.4-.2-.2-.9c0-1.4 1.1-2.5 2.5-2.5s2.5 1.1 2.5 2.5l-.2.9.4.1c.4-.8 1.3-1.4 2.3-1.4 1.4 0 2.5 1.1 2.5 2.5 0 1-.6 1.8-1.4 2.3l.2.4.8-.2c1.4 0 2.5 1.1 2.5 2.5s-1.5 2.6-2.9 2.6z"/><circle fill="#FFF" cx="-239.3" cy="421.2" r="2.5"/><g fill="#FFF"><path d="M-225.4 426h1.7v-8.9h-1.7V416h4.1c4 0 6.9.9 6.9 5.5s-2.8 5.6-6.9 5.6h-4.1V426zm3.3 0h.9c3.1 0 5.3-.9 5.3-4.5s-2.1-4.5-5.3-4.5h-.9v9zM-207.1 425.5c-.4 1.2-1.4 1.8-2.6 1.8-1.5 0-3-.7-3-2.4 0-2.4 2.3-2.5 4.2-2.5h1.5v-.5c0-1.2-.6-1.6-1.9-1.6-1.1 0-1.9.2-2 1.3h-1.5c.1-1.8 1.7-2.4 3.3-2.4 1.8 0 3.5.4 3.5 2.4v4.4h1.4v1.1h-2.8v-1.6h-.1zm-2.5.7c1.7 0 2.5-1.2 2.5-2.7h-1.2c-1 0-3 0-3 1.4-.1 1 .8 1.3 1.7 1.3zM-203.6 426h1.3v-5.6h-1.3v-1.1h2.7v6.7h1.3v1.1h-4.1V426h.1zm2.6-8.4h-1.6V416h1.6v1.6zM-198.5 427.1v-2.7h1.1c0 .7.3 1.2.8 1.4.5.3 1.1.3 1.7.3.7 0 1.6-.4 1.6-1.2 0-1.1-1.1-1-2-1.2-1.4-.2-3.2-.4-3.2-2.2 0-1.6 1.6-2.4 3-2.4 1 0 1.9.3 2.4 1.1v-.9h1.1v2.5h-1.1c0-.7-.2-1.1-.6-1.3s-.9-.3-1.5-.3c-.8 0-1.9.2-1.9 1.2 0 .9 1.3.9 2.3 1.1 1.4.2 2.9.5 2.9 2.2 0 1.8-1.6 2.5-3.2 2.5-.9 0-2-.4-2.4-1.2v1.1h-1zM-181.6 420.5h-.9l-3.2 7.4c-.6 1.3-.9 2.2-2.5 2.2l-1.1-.1v-1.1l.8.1c1.2 0 1.2-1 1.7-1.9l-3-6.7h-.8v-1.1h3.9v1.1h-1.5l2.2 5.2 2.2-5.2h-1.5v-1.1h3.7v1.2zM-181 426h1.7v-8.9h-1.7V416h5c1.8 0 4.3.1 4.3 3 0 1.2-.8 2.2-2.2 2.4 1.6 0 2.5.9 2.5 2.6 0 2.7-2.2 3.1-4.7 3.1h-5V426h.1zm3.2-5h1.8c1.4 0 2.8-.3 2.8-2 0-1.8-1.6-1.9-2.7-1.9h-1.8l-.1 3.9zm0 5h1.8c1.6 0 3.1-.3 3.1-2s-1.4-1.9-3.1-1.9h-1.8v3.9zM-169.6 426h1.3v-5.6h-1.3v-1.1h2.7v6.7h1.3v1.1h-4.1V426h.1zm2.7-8.4h-1.6V416h1.6v1.6zM-164.9 426h1.3v-8.9h-1.3V416h2.7v10h1.3v1.1h-4.1V426h.1zM-160.1 426h1.3v-8.9h-1.3V416h2.7v10h1.3v1.1h-4.1V426h.1z"/></g></svg>