<svg xmlns="http://www.w3.org/2000/svg" viewBox="0 0 527.4 278.5"><g fill="#212121"><path d="M261.1 106.6c-1.3 0-2.4-1.1-2.4-2.4V63c0-1.3 1.1-2.4 2.4-2.4H282c6.1 0 10.3 1.2 12.8 3.5 2.5 2.4 3.8 6.5 3.8 12.1v14.5c0 5.7-1.3 9.8-3.8 12.2-2.6 2.4-6.7 3.6-12.8 3.6h-20.9zm5.1-39.6c-.2 0-.4.2-.4.4v32.5c0 .2.2.4.4.4h15c5.2 0 7.3-1 8.2-1.9 1.3-1.2 1.9-3.8 1.9-7.5V76.7c0-3.9-.7-6.6-1.9-7.8-.9-.9-3-1.9-8.2-1.9h-15z"/><path d="M282 61.7c5.8 0 9.8 1.1 12.2 3.3 2.3 2.2 3.5 6 3.5 11.4v14.5c0 5.4-1.2 9.3-3.5 11.5-2.3 2.2-6.4 3.3-12.1 3.3h-20.9c-.8 0-1.4-.6-1.4-1.4V63c0-.8.6-1.4 1.4-1.4H282m-15.8 39.7h15c4.4 0 7.4-.7 8.9-2.2 1.5-1.4 2.3-4.2 2.3-8.2V76.7c0-4.2-.7-7.1-2.2-8.5-1.5-1.4-4.5-2.2-8.9-2.2h-15c-.8 0-1.4.6-1.4 1.4v32.5c-.1.8.5 1.4 1.3 1.4M282 59.7h-20.9c-1.9 0-3.4 1.5-3.4 3.4v41.2c0 1.9 1.5 3.4 3.4 3.4H282c6.3 0 10.8-1.3 13.5-3.8 2.8-2.6 4.1-6.8 4.1-12.9V76.4c0-6.1-1.3-10.3-4.1-12.9-2.7-2.6-7.2-3.8-13.5-3.8zM266.8 68h14.3c5.1 0 6.9 1 7.5 1.6.6.6 1.6 2.3 1.6 7.1v14.2c0 4.3-.9 6-1.6 6.8-.6.6-2.4 1.6-7.5 1.6h-14.3V68zM308.1 106.6c-1.3 0-2.4-1.1-2.4-2.4V63c0-1.3 1.1-2.4 2.4-2.4h29.5c1.3 0 2.4 1.1 2.4 2.4v2c0 1.3-1.1 2.4-2.4 2.4h-24.5c-.2 0-.4.2-.4.4v11.6c0 .2.2.4.4.4h23.7c1.3 0 2.4 1.1 2.4 2.4v1.7c0 1.3-1.1 2.4-2.4 2.4h-23.7c-.2 0-.4.2-.4.4v13.1c0 .2.2.4.4.4h24.5c1.3 0 2.4 1.1 2.4 2.4v1.9c0 1.3-1.1 2.4-2.4 2.4h-29.5z"/><path d="M337.7 61.7c.8 0 1.4.6 1.4 1.4V65c0 .8-.6 1.4-1.4 1.4h-24.5c-.8 0-1.4.6-1.4 1.4v11.6c0 .8.6 1.4 1.4 1.4h23.7c.8 0 1.4.6 1.4 1.4v1.7c0 .8-.6 1.4-1.4 1.4h-23.7c-.8 0-1.4.6-1.4 1.4v13.1c0 .8.6 1.4 1.4 1.4h24.5c.8 0 1.4.6 1.4 1.4v1.9c0 .8-.6 1.4-1.4 1.4h-29.5c-.8 0-1.4-.6-1.4-1.4V63c0-.8.6-1.4 1.4-1.4h29.5m0-1.9h-29.5c-1.9 0-3.4 1.5-3.4 3.4v41.2c0 1.9 1.5 3.4 3.4 3.4h29.5c1.9 0 3.4-1.5 3.4-3.4v-1.9c0-1.9-1.5-3.4-3.4-3.4h-23.8V87.2H337c1.9 0 3.4-1.5 3.4-3.4v-1.7c0-1.9-1.5-3.4-3.4-3.4h-23.1V68.3h23.8c1.9 0 3.4-1.5 3.4-3.4V63c-.1-1.8-1.6-3.3-3.4-3.3zM349.1 106.6c-1.3 0-2.4-1.1-2.4-2.4V63c0-1.3 1.1-2.4 2.4-2.4h26c1.3 0 2.4 1.1 2.4 2.4v2c0 1.3-1.1 2.4-2.4 2.4h-20.9c-.2 0-.4.2-.4.4v11.6c0 .2.2.4.4.4h20.2c1.3 0 2.4 1.1 2.4 2.4v1.7c0 1.3-1.1 2.4-2.4 2.4h-20.2c-.2 0-.4.2-.4.4v17.7c0 1.3-1.1 2.4-2.4 2.4h-2.3z"/><path d="M375.1 61.7c.8 0 1.4.6 1.4 1.4V65c0 .8-.6 1.4-1.4 1.4h-20.9c-.8 0-1.4.6-1.4 1.4v11.6c0 .8.6 1.4 1.4 1.4h20.2c.8 0 1.4.6 1.4 1.4v1.7c0 .8-.6 1.4-1.4 1.4h-20.2c-.8 0-1.4.6-1.4 1.4v17.7c0 .8-.6 1.4-1.4 1.4h-2.3c-.8 0-1.4-.6-1.4-1.4V63c0-.8.6-1.4 1.4-1.4h26m0-1.9h-26c-1.9 0-3.4 1.5-3.4 3.4v41.2c0 1.9 1.5 3.4 3.4 3.4h2.3c1.9 0 3.4-1.5 3.4-3.4V87.2h19.6c1.9 0 3.4-1.5 3.4-3.4v-1.7c0-1.9-1.5-3.4-3.4-3.4h-19.6V68.3h20.3c1.9 0 3.4-1.5 3.4-3.4V63c0-1.8-1.6-3.3-3.4-3.3zM304.2 171.1c-1.3 0-2.4-1.1-2.4-2.4v-31.3c0-.4-.3-.4-.4-.4-.2 0-.3.1-.3.2l-12.9 32.4c-.4.9-1.2 1.5-2.2 1.5h-4.4c-1 0-1.8-.6-2.2-1.5l-12.9-32.4c0-.1-.1-.2-.3-.2-.1 0-.4 0-.4.4v31.3c0 1.3-1.1 2.4-2.4 2.4h-2.3c-1.3 0-2.4-1.1-2.4-2.4v-41.2c0-1.3 1.1-2.4 2.4-2.4h6.1c1 0 1.8.6 2.2 1.5l14.1 35.1c.1.2.2.2.3.2.1 0 .3 0 .3-.2l14-35.1c.4-.9 1.2-1.5 2.2-1.5h6.1c1.3 0 2.4 1.1 2.4 2.4v41.2c0 1.3-1.1 2.4-2.4 2.4h-2.2z"/><path d="M306.6 126.2c.8 0 1.4.6 1.4 1.4v41.2c0 .8-.6 1.4-1.4 1.4h-2.3c-.8 0-1.4-.6-1.4-1.4v-31.3c0-.9-.7-1.4-1.4-1.4-.5 0-1 .3-1.3.9l-12.9 32.4c-.2.5-.7.9-1.3.9h-4.4c-.6 0-1.1-.3-1.3-.9L267.4 137c-.2-.6-.7-.9-1.3-.9-.7 0-1.4.5-1.4 1.4v31.3c0 .8-.6 1.4-1.4 1.4H261c-.8 0-1.4-.6-1.4-1.4v-41.2c0-.8.6-1.4 1.4-1.4h6.1c.6 0 1.1.3 1.3.9l14.1 35.1c.2.6.7.9 1.3.9.5 0 1-.3 1.3-.9l14-35.1c.2-.5.7-.9 1.3-.9h6.2m0-2h-6.1c-1.4 0-2.6.8-3.1 2.1L283.9 160l-13.6-33.7c-.5-1.3-1.7-2.1-3.1-2.1h-6.1c-1.9 0-3.4 1.5-3.4 3.4v41.2c0 1.9 1.5 3.4 3.4 3.4h2.3c1.9 0 3.4-1.5 3.4-3.4v-28.1l11.7 29.3c.5 1.3 1.7 2.1 3.1 2.1h4.4c1.4 0 2.6-.8 3.1-2.1l11.7-29.3v28.1c0 1.9 1.5 3.4 3.4 3.4h2.3c1.9 0 3.4-1.5 3.4-3.4v-41.2c0-1.9-1.5-3.4-3.3-3.4zM318.3 171.1c-1.3 0-2.4-1.1-2.4-2.4v-41.2c0-1.3 1.1-2.4 2.4-2.4h29.5c1.3 0 2.4 1.1 2.4 2.4v1.9c0 1.3-1.1 2.4-2.4 2.4h-24.5c-.2 0-.4.2-.4.4v11.6c0 .2.2.4.4.4H347c1.3 0 2.4 1.1 2.4 2.4v1.7c0 1.3-1.1 2.4-2.4 2.4h-23.7c-.2 0-.4.2-.4.4v13.1c0 .2.2.4.4.4h24.5c1.3 0 2.4 1.1 2.4 2.4v1.9c0 1.3-1.1 2.4-2.4 2.4h-29.5z"/><path d="M347.8 126.2c.8 0 1.4.6 1.4 1.4v1.9c0 .8-.6 1.4-1.4 1.4h-24.5c-.8 0-1.4.6-1.4 1.4v11.6c0 .8.6 1.4 1.4 1.4H347c.8 0 1.4.6 1.4 1.4v1.7c0 .8-.6 1.4-1.4 1.4h-23.7c-.8 0-1.4.6-1.4 1.4v13.1c0 .8.6 1.4 1.4 1.4h24.5c.8 0 1.4.6 1.4 1.4v1.9c0 .8-.6 1.4-1.4 1.4h-29.5c-.8 0-1.4-.6-1.4-1.4v-41.2c0-.8.6-1.4 1.4-1.4h29.5m0-2.2h-29.5c-1.9 0-3.4 1.5-3.4 3.4v41.2c0 1.9 1.5 3.4 3.4 3.4h29.5c1.9 0 3.4-1.5 3.4-3.4v-1.9c0-1.9-1.5-3.4-3.4-3.4H324v-11.8h23.1c1.9 0 3.4-1.5 3.4-3.4v-1.7c0-1.9-1.5-3.4-3.4-3.4H324v-10.4h23.8c1.9 0 3.4-1.5 3.4-3.4v-1.9c0-1.8-1.5-3.3-3.4-3.3z"/><g><path d="M370.8 171.1c-1.3 0-2.4-1.1-2.4-2.4v-36.5c0-.2-.2-.4-.4-.4h-11.9c-1.3 0-2.4-1.1-2.4-2.4v-1.9c0-1.3 1.1-2.4 2.4-2.4h31.7c1.3 0 2.4 1.1 2.4 2.4v1.9c0 1.3-1.1 2.4-2.4 2.4h-12c-.2 0-.4.2-.4.4v36.5c0 1.3-1.1 2.4-2.4 2.4h-2.2z"/><path d="M387.9 126.2c.8 0 1.4.6 1.4 1.4v1.9c0 .8-.6 1.4-1.4 1.4h-12c-.8 0-1.4.6-1.4 1.4v36.5c0 .8-.6 1.4-1.4 1.4h-2.4c-.8 0-1.4-.6-1.4-1.4v-36.5c0-.8-.6-1.4-1.4-1.4H356c-.8 0-1.4-.6-1.4-1.4v-1.9c0-.8.6-1.4 1.4-1.4h31.9m0-2h-31.7c-1.9 0-3.4 1.5-3.4 3.4v1.9c0 1.9 1.5 3.4 3.4 3.4h11.3v35.9c0 1.9 1.5 3.4 3.4 3.4h2.4c1.9 0 3.4-1.5 3.4-3.4v-35.9H388c1.9 0 3.4-1.5 3.4-3.4v-1.9c-.1-1.9-1.6-3.4-3.5-3.4z"/></g><g><path d="M427.5 171.1c-1.3 0-2.4-1.1-2.4-2.4v-17.6c0-.2-.2-.4-.4-.4H401c-.2 0-.4.2-.4.4v17.6c0 1.3-1.1 2.4-2.4 2.4h-2.3c-1.3 0-2.4-1.1-2.4-2.4v-41.2c0-1.3 1.1-2.4 2.4-2.4h2.3c1.3 0 2.4 1.1 2.4 2.4v16.2c0 .2.2.4.4.4h23.8c.2 0 .4-.2.4-.4v-16.2c0-1.3 1.1-2.4 2.4-2.4h2.3c1.3 0 2.4 1.1 2.4 2.4v41.2c0 1.3-1.1 2.4-2.4 2.4h-2.4z"/><path d="M429.8 126.2c.8 0 1.4.6 1.4 1.4v41.2c0 .8-.6 1.4-1.4 1.4h-2.3c-.8 0-1.4-.6-1.4-1.4v-17.6c0-.8-.6-1.4-1.4-1.4H401c-.8 0-1.4.6-1.4 1.4v17.6c0 .8-.6 1.4-1.4 1.4h-2.3c-.8 0-1.4-.6-1.4-1.4v-41.2c0-.8.6-1.4 1.4-1.4h2.3c.8 0 1.4.6 1.4 1.4v16.2c0 .8.6 1.4 1.4 1.4h23.8c.8 0 1.4-.6 1.4-1.4v-16.2c0-.8.6-1.4 1.4-1.4h2.2m0-2h-2.3c-1.9 0-3.4 1.5-3.4 3.4v15.6h-22.5v-15.6c0-1.9-1.5-3.4-3.4-3.4h-2.3c-1.9 0-3.4 1.5-3.4 3.4v41.2c0 1.9 1.5 3.4 3.4 3.4h2.3c1.9 0 3.4-1.5 3.4-3.4v-17h22.5v17c0 1.9 1.5 3.4 3.4 3.4h2.3c1.9 0 3.4-1.5 3.4-3.4v-41.2c0-1.9-1.5-3.4-3.4-3.4z"/></g><g><path d="M456.3 171.7c-6.5 0-11-1.2-13.6-3.6-2.6-2.4-4-6.6-4-12.5v-14.9c0-5.9 1.3-10.1 4-12.5 2.6-2.4 7.1-3.6 13.6-3.6h5.8c6.6 0 11.1 1.2 13.7 3.5 2.6 2.4 3.9 6.6 3.9 12.5v14.9c0 5.9-1.3 10.1-4 12.5-2.7 2.4-7.1 3.6-13.6 3.6h-5.8zm1.4-40.5c-3.1 0-5.4.2-6.6.5-1.2.3-2.2.8-3.1 1.5-.8.6-1.3 1.4-1.6 2.5-.3 1.2-.5 3.3-.5 6.3v12.5c0 3 .2 5 .5 6.2.3 1.1.8 1.9 1.6 2.5.8.7 1.9 1.2 3.1 1.5 1.3.3 3.5.5 6.6.5h2.8c3.1 0 5.4-.2 6.7-.5 1.2-.3 2.3-.8 3.1-1.5.7-.6 1.2-1.4 1.5-2.4.3-1.1.5-3.2.5-6.3V142c0-3-.2-5.1-.5-6.3-.3-1.1-.8-1.9-1.6-2.5-.8-.7-1.8-1.1-3-1.4-1.3-.3-3.5-.5-6.7-.5h-2.8z"/><path d="M462.1 125.7c6.3 0 10.6 1.1 13 3.3 2.4 2.2 3.6 6.1 3.6 11.8v14.9c0 5.6-1.2 9.5-3.7 11.7-2.4 2.2-6.8 3.3-12.9 3.3h-5.8c-6.2 0-10.5-1.1-13-3.3-2.4-2.2-3.6-6.1-3.6-11.7v-14.9c0-5.6 1.2-9.5 3.6-11.7 2.4-2.2 6.7-3.3 13-3.3h5.8m-4.4 40.3h2.8c3.2 0 5.5-.2 6.9-.5 1.4-.3 2.5-.9 3.5-1.7.9-.7 1.5-1.7 1.9-2.9.4-1.2.5-3.4.5-6.6v-12.5c0-3.1-.2-5.3-.6-6.5-.4-1.3-1-2.3-1.9-3-.9-.8-2.1-1.3-3.4-1.6-1.3-.3-3.6-.5-6.9-.5h-2.8c-3.2 0-5.5.2-6.9.5-1.3.3-2.5.9-3.5 1.7-.9.7-1.5 1.8-1.9 3-.4 1.3-.6 3.4-.6 6.5v12.5c0 3.1.2 5.2.6 6.5.4 1.2 1 2.2 1.9 3 1 .8 2.1 1.3 3.5 1.7 1.4.2 3.7.4 6.9.4m4.4-42.4h-5.8c-6.8 0-11.5 1.3-14.3 3.8-2.9 2.6-4.3 7-4.3 13.2v14.9c0 6.3 1.4 10.6 4.3 13.2 2.8 2.6 7.5 3.8 14.3 3.8h5.8c6.8 0 11.4-1.2 14.3-3.8 2.9-2.6 4.3-7 4.3-13.2v-14.9c0-6.3-1.4-10.6-4.3-13.3-2.8-2.5-7.5-3.7-14.3-3.7zm-4.4 40.4c-3.8 0-5.6-.2-6.4-.4-1.1-.3-1.9-.7-2.7-1.3-.6-.5-1-1.1-1.3-2-.2-.7-.5-2.3-.5-5.9V142c0-3.6.3-5.2.5-6 .3-.9.7-1.6 1.3-2 .7-.6 1.6-1 2.7-1.3.8-.2 2.6-.4 6.4-.4h2.8c3.8 0 5.6.2 6.4.4 1 .3 1.9.7 2.6 1.2.6.5 1 1.1 1.3 2 .2.7.5 2.4.5 6v12.5c0 3.7-.2 5.3-.5 6-.2.8-.6 1.5-1.2 1.9-.7.6-1.6 1-2.7 1.3-.8.2-2.6.4-6.4.4h-2.8v.1z"/></g><g><path d="M488.9 171.1c-1.3 0-2.4-1.1-2.4-2.4v-41.2c0-1.3 1.1-2.4 2.4-2.4h20.9c6.1 0 10.3 1.2 12.8 3.5 2.5 2.4 3.8 6.5 3.8 12.1v14.5c0 5.7-1.3 9.8-3.8 12.2-2.6 2.4-6.7 3.6-12.8 3.6h-20.9zm5.1-39.5c-.2 0-.4.2-.4.4v32.5c0 .2.2.4.4.4h15c5.2 0 7.3-1 8.2-1.9 1.3-1.2 1.9-3.8 1.9-7.5v-14.2c0-3.9-.7-6.6-1.9-7.8-.9-.9-3-1.9-8.2-1.9h-15z"/><path d="M509.8 126.2c5.8 0 9.8 1.1 12.2 3.3 2.3 2.2 3.5 6 3.5 11.4v14.5c0 5.4-1.2 9.3-3.5 11.5-2.3 2.2-6.4 3.3-12.1 3.3H489c-.8 0-1.4-.6-1.4-1.4v-41.2c0-.8.6-1.4 1.4-1.4h20.8M494 165.8h15c4.4 0 7.4-.7 8.9-2.2 1.5-1.4 2.3-4.2 2.3-8.2v-14.2c0-4.2-.7-7.1-2.2-8.5-1.5-1.4-4.5-2.2-8.9-2.2h-15c-.8 0-1.4.6-1.4 1.4v32.5c-.1.8.6 1.4 1.3 1.4m15.8-41.6h-20.9c-1.9 0-3.4 1.5-3.4 3.4v41.2c0 1.9 1.5 3.4 3.4 3.4h20.9c6.3 0 10.8-1.3 13.5-3.8 2.8-2.6 4.1-6.8 4.1-12.9V141c0-6.1-1.3-10.3-4.1-12.9-2.7-2.7-7.1-3.9-13.5-3.9zm-15.2 8.4H509c5.1 0 6.9 1 7.5 1.6.6.6 1.6 2.3 1.6 7.1v14.2c0 4.3-.9 6-1.6 6.8-.6.6-2.4 1.6-7.5 1.6h-14.3v-31.3h-.1z"/></g></g><path fill="#262626" d="M18.9 60.4c2.4-3.8 3.4-7.4.1-11.4-1.5-1.9-2.1-4.5-3.1-6.8-.5-1.1-.8-2.4.3-3.2 1.2-.7 2.2.2 3 1.1 1.6 1.9 3.3 3.7 4.9 5.7 2.6 3.2 4.2 1.8 5.1-1.2.7-2.5 1.2-4 4.3-2.7 1.4.6 3.1-.4 4.1-1.5 2.1-2.4 4-3.7 6.8-1 .3.3 1.6.2 1.9-.1 2.8-3.5 5-2.3 7.4.6 1 1.2 2.5.4 3.3-1 1-1.8 1.8-3.6 3.6-.7.2.2.6.3.8.5 1-3.3 4.2-4.8 6-7.5 1.5-2.2 0-4.1-1.2-6-6.5-10.5-6.6-12.7.9-21.2.7-.7 1.6-1.2 2.5-1.4 4.4-.8 8.8-1 12.7 2.3 2.2 1.8 5.3 2.2 7.3.2 2.6-2.6 5.4-2.9 8.6-2.2 1.8.4 3.1-.7 4.6-1.3 4-1.5 13.1-1.8 17 0 2.4 1.1 5.1 2.5 5.7 5.7 0 .2.5.6.7.6 3.6-.8 7-1.1 6.9 4.2 0 .1.8.4 1.3.4 19.8 1.5 38.5 6.6 56.7 20.6 22.6 17.3 34.9 40.6 39.5 68.3.6 3.5.3 7.5 5.9 5.5.8-.3 1.7.2 2.1 1 .4.9-.1 1.6-.8 2.2-.9.8-1.8 1.5-2.7 2.2-1 .8-2.6 1.4-2 3 .5 1.3 1.5 2.2 3 2.2 2.5 0 3.7 1.2 2.3 3.4-1.9 3.1-.4 5 2 6.7 3.2 2.2 3.2 4.7.9 7.6-3 3.8-3.4 8-.7 12.3.5.9.5 2-.2 2.8-5.4 5.4-4.8 14.6-11.8 18.9-1.7 1-2.9 2.8-3 4.4-.5 6.4-5.4 7-9.9 7.3-2.7.2-4.1 1.1-5.5 3.2-3.5 5.1-7.6 9.7-12.3 13.7-2.2 1.9-3 4-3 6.9.1 16.2 0 32.3 0 48.5 0 1.5 0 3-.1 4.5-.2 3.1-1.6 5.2-4.9 5.2-3-.1-4.4-2.3-4.5-5.1-.1-4.7 0-9.3 0-14v-24.5c0-2.1.2-4.9-2.8-5-3.4-.1-3.1 2.8-3.1 5.1v52c0 1.5 0 3-.3 4.5s-1.3 2.7-3.1 2.7-2.8-1.2-3.1-2.7c-.3-1.6-.3-3.3-.3-5v-40c0-3-.2-6.2-4-6.2-3.9 0-4 3.3-4 6.2v19c0 3.8-1.5 6.6-5.7 6.7-4.4.1-5.7-2.9-5.7-6.6-.1-8-.1-16 0-24 0-3.3-.9-4.2-4.3-3.6-43.9 7.5-84.1-17-103-55.9-1-2.1-1.4-6.1-4.8-1.5-1 1.4-3.4 1.3-4.1-.7-1.2-3.7-3.2-2.4-5.4-1.3-1.1.5-2.2 1.1-3.2 0-1.1-1.2.1-2.2.5-3.1.4-.9 1.2-1.6 1.7-2.4.7-.9 1.6-1.9.9-3.1-.7-1.3-2.1-1.8-3.4-1.3-2.9 1.1-3.9-.2-3.3-2.8.9-3.4-1.2-4.7-3.7-5.3-3.7-.9-4.5-3.2-3.4-6.4 1.8-4.7 1.5-8.8-2.3-12.3-1.6-1.5-1.2-3.3-.3-5.1 3.3-7 2.3-13.4-2.6-19.3-1-1.2-1.4-2.7-1-4.2.6-2.6-.1-4.8-1.5-7C9 89 8 87 8.8 84.6c1.3-4.4-.7-6.4-5.6-5.9-1.1.1-2.4.8-3.2-.4-.4-.6-.4-1.7-.1-2.4 1.1-1.9 2.6-.8 3.8-.7 3 .2 6.2 1.7 8.5-1.9 2.6-3.9 4.1-7.6.7-11.8-.2-1.3.5-1.3 1.4-1 1.6.5 3.2 1.1 4.6-.1z"/><path fill="#262626" d="M18.9 60.4c-1.5 3-4.2-.2-6 1.2-2.3-1.8-4.6-3.6-6.9-5.5-.9-.8-2.6-1.7-1.2-3.1 1.1-1.1 2.5-.1 3.5.8 1.5 1.5 3 3.1 4.4 4.6 1.7 1.8 3.7 2.7 6.2 2z"/><path fill="#FEFEFE" d="M115.4 156.6c-2.6 3.7-4.5 6.4-6.4 9.1-1.7 2.4-4.2 3-7.3 2.7-10.6-.9-21.2-.7-31.8.1-3.6.3-5.2-.7-5.2-4 .1-32.2 0-64.3 0-96.5 0-3.7 1.7-4.8 6.9-4 19 3.2 38.4 3.4 57.4-.1 4.6-.9 6.5 1.5 8.2 4.5 6.6 11.6 13.2 23.1 19.9 34.7.9 1.6 1.5 3.7 3.6 3.8 2.5.2 3.1-2.2 4-3.9 6.3-11.2 12.8-22.3 18.8-33.6 2.3-4.2 5-6 9.9-5.8 13.2.4 11.6-1.8 11.6 11.8.1 29.7-.1 59.3.1 89 0 4.5-1.2 6.1-5.9 6.2-4.8 0-5.9-1.8-5.8-6.2.1-26.7 0-53.3 0-80v-4c0-1 .1-2.2-1.2-2.5-1.2-.2-1.7.8-2.2 1.7-3 5.4-6 10.8-8.9 16.2-3.6 6.6-7.2 13.1-10.9 19.7-3.6 6.4-15.5 6.5-19.2.1-6.6-11.4-13.1-22.8-19.5-34.3-2.2-4-5-5.7-9.6-5.6-13 .2-26 0-39 .1-5.6 0-6.7 1.1-6.7 6.8v67.5c0 5.7 1 6.7 6.7 6.7 10.4-.1 20.9-.2 32.5-.2z"/><path fill="#D9FD39" d="M110.1 151.4c-3.3 0-3.9-.8-1.9-3.6 5.4-7.6 10.6-15.4 16.2-22.8 3.3-4.4 3.3-8.2.3-12.7-5.4-8.2-10.2-16.8-15.5-25.1-1.9-3.1-2.3-4.3 2.2-4.5 5.2-.2 8.4 1.5 11 5.9 5.1 8.6 10.1 17.2 15.7 25.5 2.1 3.1 2.3 5.6.1 8.6-6.1 8.5-12.1 17.1-17.9 25.9-2 3.2-3.4 2.8-10.2 2.8z"/></svg>