<svg xmlns="http://www.w3.org/2000/svg" viewBox="-33 281.4 527.4 278.5"><g fill="#FFF"><path d="M228.1 388a2.4 2.4 0 0 1-2.4-2.4v-41.2c0-1.3 1.1-2.4 2.4-2.4H249c6.1 0 10.3 1.2 12.8 3.5 2.5 2.4 3.8 6.5 3.8 12.1v14.5c0 5.7-1.3 9.8-3.8 12.2-2.6 2.4-6.7 3.6-12.8 3.6h-20.9v.1zm5.1-39.6c-.2 0-.4.2-.4.4v32.5c0 .2.2.4.4.4h15c5.2 0 7.3-1 8.2-1.9 1.3-1.2 1.9-3.8 1.9-7.5v-14.2c0-3.9-.7-6.6-1.9-7.8-.9-.9-3-1.9-8.2-1.9h-15z"/><path d="M249 343.1c5.8 0 9.8 1.1 12.2 3.3 2.3 2.2 3.5 6 3.5 11.4v14.5c0 5.4-1.2 9.3-3.5 11.5-2.3 2.2-6.4 3.3-12.1 3.3h-20.9c-.8 0-1.4-.6-1.4-1.4v-41.3c0-.8.6-1.4 1.4-1.4H249m-15.8 39.7h15c4.4 0 7.4-.7 8.9-2.2 1.5-1.4 2.3-4.2 2.3-8.2v-14.2c0-4.2-.7-7.1-2.2-8.5s-4.5-2.2-8.9-2.2h-15c-.8 0-1.4.6-1.4 1.4v32.5c-.1.8.5 1.4 1.3 1.4m15.8-41.6h-20.9a3.4 3.4 0 0 0-3.4 3.4v41.2c0 1.9 1.5 3.4 3.4 3.4H249c6.3 0 10.8-1.3 13.5-3.8 2.8-2.6 4.1-6.8 4.1-12.9v-14.6c0-6.1-1.3-10.3-4.1-12.9-2.7-2.6-7.2-3.8-13.5-3.8zm-15.2 8.3h14.3c5.1 0 6.9 1 7.5 1.6.6.6 1.6 2.3 1.6 7.1v14.2c0 4.3-.9 6-1.6 6.8-.6.6-2.4 1.6-7.5 1.6h-14.3v-31.3zM275.1 388a2.4 2.4 0 0 1-2.4-2.4v-41.2c0-1.3 1.1-2.4 2.4-2.4h29.5c1.3 0 2.4 1.1 2.4 2.4v2c0 1.3-1.1 2.4-2.4 2.4h-24.5c-.2 0-.4.2-.4.4v11.6c0 .2.2.4.4.4h23.7c1.3 0 2.4 1.1 2.4 2.4v1.7c0 1.3-1.1 2.4-2.4 2.4h-23.7c-.2 0-.4.2-.4.4v13.1c0 .2.2.4.4.4h24.5c1.3 0 2.4 1.1 2.4 2.4v1.9c0 1.3-1.1 2.4-2.4 2.4h-29.5v-.3z"/><path d="M304.7 343.1c.8 0 1.4.6 1.4 1.4v1.9c0 .8-.6 1.4-1.4 1.4h-24.5c-.8 0-1.4.6-1.4 1.4v11.6c0 .8.6 1.4 1.4 1.4h23.7c.8 0 1.4.6 1.4 1.4v1.7c0 .8-.6 1.4-1.4 1.4h-23.7c-.8 0-1.4.6-1.4 1.4v13.1c0 .8.6 1.4 1.4 1.4h24.5c.8 0 1.4.6 1.4 1.4v1.9c0 .8-.6 1.4-1.4 1.4h-29.5c-.8 0-1.4-.6-1.4-1.4v-41.5c0-.8.6-1.4 1.4-1.4h29.5m0-1.9h-29.5a3.4 3.4 0 0 0-3.4 3.4v41.2c0 1.9 1.5 3.4 3.4 3.4h29.5c1.9 0 3.4-1.5 3.4-3.4v-1.9c0-1.9-1.5-3.4-3.4-3.4h-23.8v-11.8H304c1.9 0 3.4-1.5 3.4-3.4v-1.7c0-1.9-1.5-3.4-3.4-3.4h-23.1v-10.4h23.8c1.9 0 3.4-1.5 3.4-3.4v-1.9a3.5 3.5 0 0 0-3.4-3.3zM316.1 388a2.4 2.4 0 0 1-2.4-2.4v-41.2c0-1.3 1.1-2.4 2.4-2.4h26c1.3 0 2.4 1.1 2.4 2.4v2c0 1.3-1.1 2.4-2.4 2.4h-20.9c-.2 0-.4.2-.4.4v11.6c0 .2.2.4.4.4h20.2c1.3 0 2.4 1.1 2.4 2.4v1.7c0 1.3-1.1 2.4-2.4 2.4h-20.2c-.2 0-.4.2-.4.4v17.7c0 1.3-1.1 2.4-2.4 2.4h-2.3v-.2z"/><path d="M342.1 343.1c.8 0 1.4.6 1.4 1.4v1.9c0 .8-.6 1.4-1.4 1.4h-20.9c-.8 0-1.4.6-1.4 1.4v11.6c0 .8.6 1.4 1.4 1.4h20.2c.8 0 1.4.6 1.4 1.4v1.7c0 .8-.6 1.4-1.4 1.4h-20.2c-.8 0-1.4.6-1.4 1.4v17.7c0 .8-.6 1.4-1.4 1.4h-2.3c-.8 0-1.4-.6-1.4-1.4v-41.4c0-.8.6-1.4 1.4-1.4h26m0-1.9h-26a3.4 3.4 0 0 0-3.4 3.4v41.2c0 1.9 1.5 3.4 3.4 3.4h2.3c1.9 0 3.4-1.5 3.4-3.4v-17.1h19.6c1.9 0 3.4-1.5 3.4-3.4v-1.7c0-1.9-1.5-3.4-3.4-3.4h-19.6v-10.4h20.3c1.9 0 3.4-1.5 3.4-3.4v-1.9c0-1.8-1.6-3.3-3.4-3.3zM271.2 452.5a2.4 2.4 0 0 1-2.4-2.4v-31.3c0-.4-.3-.4-.4-.4-.2 0-.3.1-.3.2L255.2 451c-.4.9-1.2 1.5-2.2 1.5h-4.4c-1 0-1.8-.6-2.2-1.5l-12.9-32.4c0-.1-.1-.2-.3-.2-.1 0-.4 0-.4.4v31.3c0 1.3-1.1 2.4-2.4 2.4h-2.3a2.4 2.4 0 0 1-2.4-2.4v-41.2c0-1.3 1.1-2.4 2.4-2.4h6.1c1 0 1.8.6 2.2 1.5l14.1 35.1c.1.2.2.2.3.2.1 0 .3 0 .3-.2l14-35.1c.4-.9 1.2-1.5 2.2-1.5h6.1c1.3 0 2.4 1.1 2.4 2.4v41.2c0 1.3-1.1 2.4-2.4 2.4h-2.2z"/><path d="M273.6 407.6c.8 0 1.4.6 1.4 1.4v41.2c0 .8-.6 1.4-1.4 1.4h-2.3c-.8 0-1.4-.6-1.4-1.4v-31.3c0-.9-.7-1.4-1.4-1.4-.5 0-1 .3-1.3.9l-12.9 32.4c-.2.5-.7.9-1.3.9h-4.4c-.6 0-1.1-.3-1.3-.9l-12.9-32.4c-.2-.6-.7-.9-1.3-.9-.7 0-1.4.5-1.4 1.4v31.3c0 .8-.6 1.4-1.4 1.4H228c-.8 0-1.4-.6-1.4-1.4V409c0-.8.6-1.4 1.4-1.4h6.1c.6 0 1.1.3 1.3.9l14.1 35.1c.2.6.7.9 1.3.9.5 0 1-.3 1.3-.9l14-35.1c.2-.5.7-.9 1.3-.9h6.2m0-2h-6.1c-1.4 0-2.6.8-3.1 2.1l-13.5 33.7-13.6-33.7a3.3 3.3 0 0 0-3.1-2.1h-6.1a3.4 3.4 0 0 0-3.4 3.4v41.2c0 1.9 1.5 3.4 3.4 3.4h2.3c1.9 0 3.4-1.5 3.4-3.4v-28.1l11.7 29.3a3.3 3.3 0 0 0 3.1 2.1h4.4c1.4 0 2.6-.8 3.1-2.1l11.7-29.3v28.1c0 1.9 1.5 3.4 3.4 3.4h2.3c1.9 0 3.4-1.5 3.4-3.4V409c0-1.9-1.5-3.4-3.3-3.4zM285.3 452.5a2.4 2.4 0 0 1-2.4-2.4v-41.2c0-1.3 1.1-2.4 2.4-2.4h29.5c1.3 0 2.4 1.1 2.4 2.4v1.9c0 1.3-1.1 2.4-2.4 2.4h-24.5c-.2 0-.4.2-.4.4v11.6c0 .2.2.4.4.4H314c1.3 0 2.4 1.1 2.4 2.4v1.7c0 1.3-1.1 2.4-2.4 2.4h-23.7c-.2 0-.4.2-.4.4v13.1c0 .2.2.4.4.4h24.5c1.3 0 2.4 1.1 2.4 2.4v1.9c0 1.3-1.1 2.4-2.4 2.4h-29.5v-.2z"/><path d="M314.8 407.6c.8 0 1.4.6 1.4 1.4v1.9c0 .8-.6 1.4-1.4 1.4h-24.5c-.8 0-1.4.6-1.4 1.4v11.6c0 .8.6 1.4 1.4 1.4H314c.8 0 1.4.6 1.4 1.4v1.7c0 .8-.6 1.4-1.4 1.4h-23.7c-.8 0-1.4.6-1.4 1.4v13.1c0 .8.6 1.4 1.4 1.4h24.5c.8 0 1.4.6 1.4 1.4v1.9c0 .8-.6 1.4-1.4 1.4h-29.5c-.8 0-1.4-.6-1.4-1.4v-41.2c0-.8.6-1.4 1.4-1.4h29.5m0-2.2h-29.5a3.4 3.4 0 0 0-3.4 3.4v41.2c0 1.9 1.5 3.4 3.4 3.4h29.5c1.9 0 3.4-1.5 3.4-3.4v-1.9c0-1.9-1.5-3.4-3.4-3.4H291v-11.8h23.1c1.9 0 3.4-1.5 3.4-3.4V428c0-1.9-1.5-3.4-3.4-3.4H291v-10.4h23.8c1.9 0 3.4-1.5 3.4-3.4v-1.9c0-1.8-1.5-3.3-3.4-3.3z"/><g><path d="M337.8 452.5a2.4 2.4 0 0 1-2.4-2.4v-36.5c0-.2-.2-.4-.4-.4h-11.9a2.4 2.4 0 0 1-2.4-2.4v-1.9c0-1.3 1.1-2.4 2.4-2.4h31.7c1.3 0 2.4 1.1 2.4 2.4v1.9c0 1.3-1.1 2.4-2.4 2.4h-12c-.2 0-.4.2-.4.4v36.5c0 1.3-1.1 2.4-2.4 2.4h-2.2z"/><path d="M354.9 407.6c.8 0 1.4.6 1.4 1.4v1.9c0 .8-.6 1.4-1.4 1.4h-12c-.8 0-1.4.6-1.4 1.4v36.5c0 .8-.6 1.4-1.4 1.4h-2.4c-.8 0-1.4-.6-1.4-1.4v-36.5c0-.8-.6-1.4-1.4-1.4H323c-.8 0-1.4-.6-1.4-1.4V409c0-.8.6-1.4 1.4-1.4h31.9m0-2h-31.7a3.4 3.4 0 0 0-3.4 3.4v1.9c0 1.9 1.5 3.4 3.4 3.4h11.3v35.9c0 1.9 1.5 3.4 3.4 3.4h2.4c1.9 0 3.4-1.5 3.4-3.4v-35.9H355c1.9 0 3.4-1.5 3.4-3.4V409a3.5 3.5 0 0 0-3.5-3.4z"/></g><g><path d="M394.5 452.5a2.4 2.4 0 0 1-2.4-2.4v-17.6c0-.2-.2-.4-.4-.4H368c-.2 0-.4.2-.4.4v17.6c0 1.3-1.1 2.4-2.4 2.4h-2.3a2.4 2.4 0 0 1-2.4-2.4v-41.2c0-1.3 1.1-2.4 2.4-2.4h2.3c1.3 0 2.4 1.1 2.4 2.4v16.2c0 .2.2.4.4.4h23.8c.2 0 .4-.2.4-.4v-16.2c0-1.3 1.1-2.4 2.4-2.4h2.3c1.3 0 2.4 1.1 2.4 2.4v41.2c0 1.3-1.1 2.4-2.4 2.4h-2.4z"/><path d="M396.8 407.6c.8 0 1.4.6 1.4 1.4v41.2c0 .8-.6 1.4-1.4 1.4h-2.3c-.8 0-1.4-.6-1.4-1.4v-17.6c0-.8-.6-1.4-1.4-1.4H368c-.8 0-1.4.6-1.4 1.4v17.6c0 .8-.6 1.4-1.4 1.4h-2.3c-.8 0-1.4-.6-1.4-1.4V409c0-.8.6-1.4 1.4-1.4h2.3c.8 0 1.4.6 1.4 1.4v16.2c0 .8.6 1.4 1.4 1.4h23.8c.8 0 1.4-.6 1.4-1.4V409c0-.8.6-1.4 1.4-1.4h2.2m0-2h-2.3a3.4 3.4 0 0 0-3.4 3.4v15.6h-22.5V409c0-1.9-1.5-3.4-3.4-3.4h-2.3a3.4 3.4 0 0 0-3.4 3.4v41.2c0 1.9 1.5 3.4 3.4 3.4h2.3c1.9 0 3.4-1.5 3.4-3.4v-17h22.5v17c0 1.9 1.5 3.4 3.4 3.4h2.3c1.9 0 3.4-1.5 3.4-3.4V409c0-1.9-1.5-3.4-3.4-3.4z"/></g><g><path d="M423.3 453.1c-6.5 0-11-1.2-13.6-3.6-2.6-2.4-4-6.6-4-12.5v-14.9c0-5.9 1.3-10.1 4-12.5 2.6-2.4 7.1-3.6 13.6-3.6h5.8c6.6 0 11.1 1.2 13.7 3.5 2.6 2.4 3.9 6.6 3.9 12.5v14.9c0 5.9-1.3 10.1-4 12.5s-7.1 3.6-13.6 3.6l-5.8.1zm1.4-40.5c-3.1 0-5.4.2-6.6.5-1.2.3-2.2.8-3.1 1.5-.8.6-1.3 1.4-1.6 2.5a29 29 0 0 0-.5 6.3v12.5c0 3 .2 5 .5 6.2.3 1.1.8 1.9 1.6 2.5.8.7 1.9 1.2 3.1 1.5 1.3.3 3.5.5 6.6.5h2.8c3.1 0 5.4-.2 6.7-.5 1.2-.3 2.3-.8 3.1-1.5a5 5 0 0 0 1.5-2.4c.3-1.1.5-3.2.5-6.3v-12.5c0-3-.2-5.1-.5-6.3a4.4 4.4 0 0 0-1.6-2.5 7 7 0 0 0-3-1.4c-1.3-.3-3.5-.5-6.7-.5h-2.8v-.1z"/><path d="M429.1 407.1c6.3 0 10.6 1.1 13 3.3 2.4 2.2 3.6 6.1 3.6 11.8v14.9c0 5.6-1.2 9.5-3.7 11.7-2.4 2.2-6.8 3.3-12.9 3.3h-5.8c-6.2 0-10.5-1.1-13-3.3-2.4-2.2-3.6-6.1-3.6-11.7v-14.9c0-5.6 1.2-9.5 3.6-11.7 2.4-2.2 6.7-3.3 13-3.3h5.8m-4.4 40.3h2.8c3.2 0 5.5-.2 6.9-.5 1.4-.3 2.5-.9 3.5-1.7a6 6 0 0 0 1.9-2.9c.4-1.2.5-3.4.5-6.6v-12.5c0-3.1-.2-5.3-.6-6.5-.4-1.3-1-2.3-1.9-3a7.7 7.7 0 0 0-3.4-1.6c-1.3-.3-3.6-.5-6.9-.5h-2.8c-3.2 0-5.5.2-6.9.5-1.3.3-2.5.9-3.5 1.7-.9.7-1.5 1.8-1.9 3-.4 1.3-.6 3.4-.6 6.5v12.5c0 3.1.2 5.2.6 6.5.4 1.2 1 2.2 1.9 3 1 .8 2.1 1.3 3.5 1.7 1.4.2 3.7.4 6.9.4m4.4-42.4h-5.8c-6.8 0-11.5 1.3-14.3 3.8-2.9 2.6-4.3 7-4.3 13.2V437c0 6.3 1.4 10.6 4.3 13.2 2.8 2.6 7.5 3.8 14.3 3.8h5.8c6.8 0 11.4-1.2 14.3-3.8s4.3-7 4.3-13.2v-14.9c0-6.3-1.4-10.6-4.3-13.3-2.8-2.5-7.5-3.7-14.3-3.7zm-4.4 40.4c-3.8 0-5.6-.2-6.4-.4a7.5 7.5 0 0 1-2.7-1.3c-.6-.5-1-1.1-1.3-2a23 23 0 0 1-.5-5.9v-12.5c0-3.6.3-5.2.5-6 .3-.9.7-1.6 1.3-2 .7-.6 1.6-1 2.7-1.3.8-.2 2.6-.4 6.4-.4h2.8c3.8 0 5.6.2 6.4.4a9 9 0 0 1 2.6 1.2c.6.5 1 1.1 1.3 2 .2.7.5 2.4.5 6v12.5c0 3.7-.2 5.3-.5 6-.2.8-.6 1.5-1.2 1.9-.7.6-1.6 1-2.7 1.3-.8.2-2.6.4-6.4.4h-2.8v.1z"/></g><g><path d="M455.9 452.5a2.4 2.4 0 0 1-2.4-2.4v-41.2c0-1.3 1.1-2.4 2.4-2.4h20.9c6.1 0 10.3 1.2 12.8 3.5 2.5 2.4 3.8 6.5 3.8 12.1v14.5c0 5.7-1.3 9.8-3.8 12.2-2.6 2.4-6.7 3.6-12.8 3.6h-20.9v.1zM461 413c-.2 0-.4.2-.4.4v32.5c0 .2.2.4.4.4h15c5.2 0 7.3-1 8.2-1.9 1.3-1.2 1.9-3.8 1.9-7.5v-14.2c0-3.9-.7-6.6-1.9-7.8-.9-.9-3-1.9-8.2-1.9h-15z"/><path d="M476.8 407.6c5.8 0 9.8 1.1 12.2 3.3 2.3 2.2 3.5 6 3.5 11.4v14.5c0 5.4-1.2 9.3-3.5 11.5-2.3 2.2-6.4 3.3-12.1 3.3H456c-.8 0-1.4-.6-1.4-1.4V409c0-.8.6-1.4 1.4-1.4h20.8M461 447.2h15c4.4 0 7.4-.7 8.9-2.2 1.5-1.4 2.3-4.2 2.3-8.2v-14.2c0-4.2-.7-7.1-2.2-8.5s-4.5-2.2-8.9-2.2h-15c-.8 0-1.4.6-1.4 1.4v32.5c-.1.8.6 1.4 1.3 1.4m15.8-41.6h-20.9a3.4 3.4 0 0 0-3.4 3.4v41.2c0 1.9 1.5 3.4 3.4 3.4h20.9c6.3 0 10.8-1.3 13.5-3.8 2.8-2.6 4.1-6.8 4.1-12.9v-14.5c0-6.1-1.3-10.3-4.1-12.9-2.7-2.7-7.1-3.9-13.5-3.9zm-15.2 8.4H476c5.1 0 6.9 1 7.5 1.6s1.6 2.3 1.6 7.1v14.2c0 4.3-.9 6-1.6 6.8-.6.6-2.4 1.6-7.5 1.6h-14.3V414h-.1z"/></g></g><g fill="#FFF"><path d="M-14 342.9c-1.5 3-4.2-.3-6 1.1l-7.1-5.8c-.9-.8-2.6-1.7-1.2-3.1 1.1-1.1 2.5-.1 3.5.8l4.4 4.6c1.6 1.8 3.9 3.1 6.4 2.4z"/><path d="M207.5 410.1c-2.4-1.7-3.9-3.6-2-6.7 1.4-2.2.2-3.4-2.3-3.4-1.5 0-2.5-.9-3-2.2-.6-1.6 1-2.2 2-3l2.7-2.2c.7-.6 1.2-1.3.8-2.2-.4-.8-1.3-1.3-2.1-1-5.6 2-5.3-2-5.9-5.5-4.6-27.7-16.9-51-39.5-68.3a100.9 100.9 0 0 0-56.7-20.6c-.5 0-1.3-.3-1.3-.4.1-5.3-3.3-5-6.9-4.2-.2 0-.7-.4-.7-.6-.6-3.2-3.3-4.6-5.7-5.7-3.9-1.8-13-1.5-17 0-1.5.6-2.8 1.7-4.6 1.3-3.2-.7-6-.4-8.6 2.2-2 2-5.1 1.6-7.3-.2-3.9-3.3-8.3-3.1-12.7-2.3-.9.2-1.8.7-2.5 1.4-7.5 8.5-7.4 10.7-.9 21.2 1.2 1.9 2.7 3.8 1.2 6-1.8 2.7-5 4.2-6 7.5l-.8-.5c-1.8-2.9-2.6-1.1-3.6.7-.8 1.4-2.3 2.2-3.3 1-2.4-2.9-4.6-4.1-7.4-.6-.3.3-1.6.4-1.9.1-2.8-2.7-4.7-1.4-6.8 1-1 1.1-2.7 2.1-4.1 1.5-3.1-1.3-3.6.2-4.3 2.7-.9 3-2.5 4.4-5.1 1.2l-4.9-5.7c-.8-.9-1.8-1.8-3-1.1-1.1.8-.8 2.1-.3 3.2 1 2.3 1.6 4.9 3.1 6.8 3.3 4 2.3 7.6-.1 11.4-1.4 1.2-3 .6-4.6.1-.9-.3-1.6-.3-1.4 1 3.4 4.2 1.9 7.9-.7 11.8-2.3 3.6-5.5 2.1-8.5 1.9-1.2-.1-2.7-1.2-3.8.7-.3.7-.3 1.8.1 2.4.8 1.2 2.1.5 3.2.4 4.9-.5 6.9 1.5 5.6 5.9-.8 2.4.2 4.4 1.3 6.1a8.8 8.8 0 0 1 1.5 7c-.4 1.5 0 3 1 4.2a16.8 16.8 0 0 1 2.6 19.3c-.9 1.8-1.3 3.6.3 5.1 3.8 3.5 4.1 7.6 2.3 12.3-1.1 3.2-.3 5.5 3.4 6.4 2.5.6 4.6 1.9 3.7 5.3-.6 2.6.4 3.9 3.3 2.8 1.3-.5 2.7 0 3.4 1.3.7 1.2-.2 2.2-.9 3.1-.5.8-1.3 1.5-1.7 2.4-.4.9-1.6 1.9-.5 3.1 1 1.1 2.1.5 3.2 0 2.2-1.1 4.2-2.4 5.4 1.3.7 2 3.1 2.1 4.1.7 3.4-4.6 3.8-.6 4.8 1.5 18.9 38.9 59.1 63.4 103 55.9 3.4-.6 4.3.3 4.3 3.6v24c0 3.7 1.3 6.7 5.7 6.6 4.2-.1 5.7-2.9 5.7-6.7v-19c0-2.9.1-6.2 4-6.2 3.8 0 4 3.2 4 6.2v40c0 1.7 0 3.4.3 5 .3 1.5 1.3 2.7 3.1 2.7s2.8-1.2 3.1-2.7.3-3 .3-4.5v-52c0-2.3-.3-5.2 3.1-5.1 3 .1 2.8 2.9 2.8 5v38.5c.1 2.8 1.5 5 4.5 5.1 3.3 0 4.7-2.1 4.9-5.2l.1-4.5v-48.5c0-2.9.8-5 3-6.9 4.7-4 8.8-8.6 12.3-13.7 1.4-2.1 2.8-3 5.5-3.2 4.5-.3 9.4-.9 9.9-7.3a6 6 0 0 1 3-4.4c7-4.3 6.4-13.5 11.8-18.9.7-.8.7-1.9.2-2.8a10 10 0 0 1 .7-12.3c2.3-2.9 2.3-5.4-.9-7.6zm-102.3-6A791.7 791.7 0 0 0 87.3 430c-2 3.2-3.4 2.8-10.2 2.8-3.3 0-3.9-.8-1.9-3.6 5.4-7.6 10.6-15.4 16.2-22.8 3.3-4.4 3.3-8.2.3-12.7-5.4-8.2-10.2-16.8-15.5-25.1-1.9-3.1-2.3-4.3 2.2-4.5 5.2-.2 8.4 1.5 11 5.9 5.1 8.6 10.1 17.2 15.7 25.5 2.1 3.1 2.3 5.6.1 8.6zm61 47.9c-4.8 0-5.9-1.8-5.8-6.2v-80-4c0-1 .1-2.2-1.2-2.5-1.2-.2-1.7.8-2.2 1.7l-8.9 16.2a1931 1931 0 0 1-10.9 19.7c-3.6 6.4-15.5 6.5-19.2.1a2324 2324 0 0 1-19.5-34.3c-2.2-4-5-5.7-9.6-5.6-13 .2-26 0-39 .1-5.6 0-6.7 1.1-6.7 6.8v67.5c0 5.7 1 6.7 6.7 6.7l32.5-.2-6.4 9.1c-1.7 2.4-4.2 3-7.3 2.7-10.6-.9-21.2-.7-31.8.1-3.6.3-5.2-.7-5.2-4v-96.5c0-3.7 3.2-4 6.9-4l57.4-.1c5.1 0 6.5 1.5 8.2 4.5l19.9 34.7c.9 1.6 1.5 3.7 3.6 3.8 2.5.2 3.1-2.2 4-3.9 6.3-11.2 12.8-22.3 18.8-33.6 2.3-4.2 5-6 9.9-5.8 13.2.4 11.6-1.8 11.6 11.8.1 29.7-.1 59.3.1 89 0 4.5-1.2 6.1-5.9 6.2z"/></g></svg>