<svg xmlns="http://www.w3.org/2000/svg" viewBox="-250 408.4 93.4 24.5"><g fill="#FFF"><path d="M-212 417h-5.3v2.6h5.2v1.8h-5.2v5h-2.1v-11.2h7.3l.1 1.8zM-205 419.1l-1.1 1.7c-.4-.4-.9-.8-1.4-.8-.5 0-1.3.4-1.3 1.8v4.6h-2v-8.1h2v.9c.5-.7 1.1-1.1 1.8-1.1.7-.1 1.4.5 2 1zM-196.1 422.3l-.1.8h-6.4c.3 1 1.1 1.7 2.3 1.7.7 0 1.5-.3 2-.7l1.3 1.3a5.4 5.4 0 0 1-3.3 1.1 4.3 4.3 0 0 1-4.3-4.3c0-2.4 1.9-4.3 4.3-4.3 2.2.1 4.2 1.9 4.2 4.4zm-2.1-.8c-.3-1-1.2-1.7-2.2-1.7-1 0-1.9.7-2.2 1.7h4.4zM-186.5 422.3l-.1.8h-6.4c.3 1 1.1 1.7 2.3 1.7.7 0 1.5-.3 2-.7l1.3 1.3a5.4 5.4 0 0 1-3.3 1.1 4.3 4.3 0 0 1-4.3-4.3c0-2.4 1.9-4.3 4.3-4.3 2.2.1 4.2 1.9 4.2 4.4zm-2.1-.8c-.3-1-1.2-1.7-2.2-1.7s-1.9.7-2.2 1.7h4.4zM-179.4 424.1c0 1.6-1.7 2.5-3.1 2.5-1.2 0-2.3-.4-3.1-1.4l1.2-1.2c.5.6 1.1 1 1.9 1 .6 0 1.1-.2 1.1-.7 0-.5-.6-.8-1.7-1.1-1.3-.4-2.5-1.1-2.5-2.5 0-1.6 1.6-2.5 3.1-2.5 1.2 0 2.2.5 3 1.4l-1.1 1.1c-.5-.6-1.1-.9-1.8-.9-.5 0-1.2.3-1.2.8 0 .4.6.7 1.7 1 1.4.3 2.5 1.2 2.5 2.5zM-173.6 426.2c-.4.3-1 .4-1.5.4-1.9 0-2.5-.9-2.5-3v-3.5h-1.1v-.8a4.4 4.4 0 0 0 2.5-3.4h.6v2.3h2v1.8h-2v3.7c0 .8.4 1 .9 1 .3 0 .8-.1 1.1-.4v1.9zM-165.8 426.4h-2v-.4a4 4 0 0 1-2.4.6c-1.6 0-2.6-1-2.6-2.5 0-1.8 1.7-2.7 3.8-2.7h1.2c0-1-.6-1.6-1.8-1.6-.6 0-1.2.2-1.8.7l-1.2-1.2c.9-.8 2-1.3 3.2-1.3 1.1 0 2 .4 2.6 1 .7.7 1 1.5 1 2.9v4.5zm-2.1-2.1v-1.5h-.9c-1.1 0-2 .3-2 1.1 0 .6.5 1 1.2 1 .5 0 1.1-.2 1.7-.6zM-156.7 426.4h-2.4l-3.3-3.6v3.6h-2.1v-11.6h2.1v6.9l2.8-3.4h2.4l-3.3 4 3.8 4.1zM-229.1 427l-7.2 4.2-7.2-4.2v-12l6.7-4.5-2.7-2-10.1 6.5v12l10.4 5.9"/><path d="M-233.5 408.5l-3.3 2 7.7 4.5v12l-7.2 4.2-7.2-4.2 10.2 5.9 10.2-5.9v-12z"/></g></svg>