<svg xmlns="http://www.w3.org/2000/svg" viewBox="-206 371.3 182.9 98.6"><g fill="#FFF"><path d="M-205.8 400h5.7v29.8h12.3v4.8h-18V400zM-179.3 405.6h-5.6V400h5.6v5.6zm-5.4 3.4h5.3v25.6h-5.3V409zM-167.3 409h4.6v4.3h-4.6v21.4h-5.2v-21.4h-3.4V409h3.4c.1-3 .3-5.1.8-6.3a5.1 5.1 0 0 1 2.3-2.7 9 9 0 0 1 4.4-1c1.1 0 2.1.1 3.1.3v4.2a15 15 0 0 0-2-.2c-1 0-1.8.2-2.3.6-.5.4-.8.9-.9 1.5l-.2 3.6zM-141.2 422.6h-14.5c0 3.5.5 5.8 1.4 6.9a4.1 4.1 0 0 0 3.5 1.7c2.4 0 3.9-1.6 4.5-4.8l4.8.6c-1.3 5.4-4.4 8.2-9.5 8.2a9 9 0 0 1-7.4-3.3 15.3 15.3 0 0 1-2.8-9.8c0-4.4.9-7.8 2.8-10.2a9 9 0 0 1 7.5-3.6c2.2 0 4 .6 5.5 1.8s2.5 2.8 3.1 4.7a27 27 0 0 1 1.1 7.8zm-5.4-3.5c0-4.5-1.5-6.8-4.4-6.8-2.8 0-4.3 2.3-4.5 6.8h8.9zM-136.6 400h5.7v29.8h12.3v4.8h-18V400zM-110.1 405.6h-5.6V400h5.6v5.6zm-5.4 3.4h5.3v25.6h-5.3V409zM-104 409h4.9v4c1.2-3 3.3-4.6 6.4-4.6 1.7 0 3.1.4 4.2 1.2s1.7 1.8 2 3 .4 3 .4 5.5v16.5h-5.3v-16.2c0-2.2-.2-3.7-.6-4.6-.4-.8-1.2-1.2-2.5-1.2s-2.4.5-3.1 1.5-1.1 3.1-1.1 6.1v14.4h-5.3V409zM-80.1 400h5.3v20.5l8.3-11.5h5.2l-6.6 8.8 7.4 16.8h-5.7l-5.1-12.9-3.4 4.7v8.2H-80l-.1-34.6zM-39.5 422.6H-54c0 3.5.5 5.8 1.4 6.9a4.1 4.1 0 0 0 3.5 1.7c2.4 0 3.9-1.6 4.5-4.8l4.8.6c-1.3 5.4-4.4 8.2-9.5 8.2a9 9 0 0 1-7.4-3.3 15.3 15.3 0 0 1-2.8-9.8c0-4.4.9-7.8 2.8-10.2a9 9 0 0 1 7.5-3.6c2.2 0 4 .6 5.5 1.8s2.5 2.8 3.1 4.7a31 31 0 0 1 1.1 7.8zm-5.4-3.5c0-4.5-1.5-6.8-4.4-6.8-2.8 0-4.3 2.3-4.5 6.8h8.9zM-35.1 409h4.6v5.7c1.4-4.2 3.6-6.3 6.4-6.3l1 .1v5.5l-1.1-.1c-3.8 0-5.7 2.5-5.7 7.6v13.1h-5.3V409h.1z"/></g><path fill="#FFF" d="M-176.6 392.4l1.1-1.2 1.6-1.4 2.2-1.6c1.7-1.1 3.7-2.3 6.2-3.6 1.2-.7 2.5-1.2 3.9-1.9l4.4-1.9a154.3 154.3 0 0 1 22-6.5l6.3-1.2 3.2-.5 3.3-.4 3.3-.3 3.4-.2c2.2-.2 4.5-.1 6.8-.1 4.5.1 9.1.4 13.5 1.1 2.2.3 4.4.8 6.5 1.2l3.2.8 3.1.9 3 1 2.9 1.1 2.8 1.2 1.4.6 1.3.7c1.8.9 3.5 1.7 5.1 2.7s3.2 1.8 4.5 2.9c1.4 1 2.8 1.9 4 2.9l3.4 2.9c.6.4 1 .9 1.5 1.4l1.4 1.3 2.4 2.3 4.2 4.7-5 4-3.8-4.5-2.2-2.2-1.2-1.2-1.4-1.3-3.1-2.7-3.6-2.8c-1.2-1-2.7-1.8-4.1-2.8-1.4-1-3-1.7-4.6-2.6l-1.2-.7-1.3-.6-2.6-1.2-2.7-1.1-2.8-1-2.9-.9-3-.8c-2-.5-4-1-6.1-1.3a109 109 0 0 0-12.8-1.4h-6.5l-3.2.1-3.2.2-3.1.4a110.9 110.9 0 0 0-20.7 4.1c-3.6 1-7 2.1-10 3.3l-4.3 1.7-3.8 1.8a52.2 52.2 0 0 0-6 3.3l-2 1.4-1.3 1-1.1 1.1-2.3-2.2zM-48.7 443.9l-1 1.3-1.5 1.6-2.1 1.8a111.5 111.5 0 0 1-14 8.8c-3 1.6-6.4 3-10 4.5a125.9 125.9 0 0 1-24.4 6.7c-2.2.4-4.5.6-6.7.9l-3.4.3-1.7.1h-1.7l-3.4.1-3.4-.1-1.7-.1-1.7-.1-3.4-.3-3.3-.5-3.3-.5c-2.2-.5-4.3-.8-6.4-1.4l-3.1-.8-3-1-2.9-1-2.8-1.2-2.7-1.2-2.5-1.3-2.5-1.2-2.3-1.4c-3-1.7-5.6-3.6-7.9-5.2l-5.7-4.6-4.7-4.3 4.5-4.5 4.3 4.1 5.2 4.4c2.1 1.5 4.5 3.4 7.2 5l2.1 1.3a48.5 48.5 0 0 0 4.6 2.5l2.5 1.1 2.6 1.2 2.7 1 2.8 1 2.9.9c1.9.6 4 1 6 1.5 1 .3 2.1.4 3.1.6l3.1.5 3.2.3 1.6.2 1.6.1 3.2.2h4.9l1.6-.1 3.3-.2c2.2-.2 4.3-.3 6.5-.7a97.1 97.1 0 0 0 23.7-5.9A131.8 131.8 0 0 0-61 450a80 80 0 0 0 7.6-5.4l1.2-1.2 1-1.2 2.5 1.7z"/></svg>