<svg xmlns="http://www.w3.org/2000/svg" viewBox="-274 398.3 64.2 64.2"><linearGradient id="a" gradientUnits="userSpaceOnUse" x1="-273.851" y1="431.231" x2="-228.451" y2="385.831" gradientTransform="scale(1 -1) rotate(45 766.141 .245)"><stop offset="0" stop-color="#b64e96"/><stop offset="1" stop-color="#5f52ca"/></linearGradient><path fill="url(#a)" d="M-274 430.4l32.1-32.1 32.1 32.1-32.1 32.1z"/><g fill="#FFF"><path d="M-246.9 432.7c-.2-.8-1-2.8-.5-5 .8-3-1-6.1-1.5-6.9-.6-.8.2-3.2 2.6-1.2s2.5 4.8 2.5 4.8l4.6-4.6c1.2-1.6 3.7.5 2.3 1.9l-.4.4.1.1.3-.3c1.1-1.1 3.3 1.1 2.2 2.2l-.1.1c1.1-.6 2.9 1.3 1.8 2.4l-.3.3c.8-.6 1.4.1 2 .7 1.3 1.3-5.5 8.5-7.6 10.3l-1.3 1.1-.5.5-6.6-6.6.4-.2z"/><path d="M-251.2 435.2l3.1-3.1 8 8-3.1 3.1-8-8z"/></g></svg>