<svg xmlns="http://www.w3.org/2000/svg" viewBox="-230 386.9 83.5 42.5"><path fill="#FFF" d="M-156 386.9c2.9 0 9.5 1 9.5 7.9 0 1.7-.3 3.6-.8 6.2l-1.1 6.5-1.2 6.5c-1 5.3-1.4 8.9-1.5 11.1-.1 2.4-2.9 4.2-5.9 4.2h-.6c-2.8.1-4.6-2-4.2-3.9.4-1.4 1-3.9 1.5-6.6l1.2-6.8 1.1-6.6c.4-2.6.9-5.6.9-7.2 0-3.9-.6-4.8-1.6-4.8-3 0-7.4 2.8-10.3 10.4-1.9 6.1-3.5 17.2-3.9 21.5-.2 2.3-3 3.9-5.9 3.9-2.8 0-5.1-1.9-4.6-3.9.7-2.4 1.3-5.8 2.3-11.4l.9-5.2c.8-4.7 1.4-8.6 1.4-10.5 0-3.5-.1-4.9-1.9-4.9-3.5 0-7.3 3.7-9.7 9.8-1.7 5.1-3.6 17.1-4.1 22-.1 2.3-2.8 4.1-5.8 4.1h-.6c-2.6.1-4.6-1.9-4.2-3.7l1.2-5.7.3-1.1h-.1l1.1-6.4 2.2-12.7c.6-3.2.7-5.2.7-6.7-.1-2 .8-3.9 3.5-4.4l.8-.1.4-.1 1-.1c2.5-.4 5.6 1 5.2 3.2l-.2 1.1 2-2.2c.8-.9 4.1-3.6 8.7-3.6 6.3 0 8.6 4.9 9.3 8.7 1.1-1.7 2.6-3.7 4.1-5.2 1-.6 4.2-3.3 8.9-3.3z"/><path fill="#C00216" d="M-215.4 413.9h-3.6l1.2-8.4h-3.4l-1.2 8.4h-3.7l1.2-8.4h-5.1v-2.8h5.5l.6-4h-5.2v-2.8h5.6l1.1-7.9h3.7l-1.1 7.9h3.3l1.2-7.9h3.6l-1.1 7.9h5.1v2.8h-5.4l-.6 4h5.1v2.8h-5.6l-1.2 8.4zm-2-11.2.6-4h-3.3l-.6 4h3.3z"/></svg>