<svg xmlns="http://www.w3.org/2000/svg" viewBox="-357.1 583.4 92.2 26.4"><style>.st0{fill:#58BAE5;} .st1{fill:#90C348;}</style><path d="M-326.1 598.5h2.9c0 .5.2.8.6 1.1s.8.3 1.4.3c.5 0 .8-.1 1.1-.3.3-.2.4-.4.4-.7 0-.3-.1-.6-.4-.8s-1.1-.4-2.3-.6c-1.2-.2-2.1-.5-2.6-.9-.5-.5-.8-1.1-.8-1.9 0-.9.4-1.6 1.1-2.1.8-.5 1.9-.7 3.3-.7s2.5.3 3.2.8c.7.5 1.1 1.2 1.1 2.1h-2.6c0-.3-.2-.6-.4-.8-.2-.2-.6-.3-1.2-.3-.5 0-1 .1-1.2.2s-.4.3-.4.6.1.6.4.8c.3.2 1 .4 2 .5 1.6.2 2.6.6 3.1 1 .5.5.7 1 .7 1.8 0 1-.4 1.7-1.1 2.3s-1.9.8-3.5.8c-1.5 0-2.6-.3-3.5-.9s-1.3-1.3-1.3-2.3z" class="st0"/><path d="M-308.2 598h2.8c-.1 1.1-.5 2-1.3 2.7-.8.7-2 1.1-3.4 1.1-1.6 0-2.9-.4-3.8-1.3-.9-.8-1.4-2.1-1.4-3.6s.4-2.7 1.3-3.6c.9-.9 2.2-1.3 4-1.3 1.4 0 2.4.3 3.2 1s1.2 1.5 1.3 2.6h-2.7c-.1-.6-.3-1.1-.6-1.4-.3-.3-.7-.4-1.3-.4-.7 0-1.3.2-1.6.7-.4.5-.6 1.2-.6 2.2 0 1.1.2 1.9.6 2.5s.9.8 1.6.8c.6 0 1-.2 1.4-.5.3-.4.5-.9.5-1.5z" class="st0"/><path d="M-300.7 588.8v4.4c.4-.4.9-.8 1.4-1 .5-.2 1.2-.4 1.9-.4 1 0 1.8.3 2.4.9s.8 1.6.8 2.8v5.7h-2.9v-5.3c0-.8-.1-1.4-.4-1.8-.3-.4-.7-.6-1.2-.6-.6 0-1.1.2-1.4.7-.4.4-.5 1.1-.5 1.9v5.2h-2.9v-12.6h2.8z" class="st0"/><path d="M-287 601.8c-1.6 0-2.9-.4-3.8-1.2-1-.8-1.5-2.1-1.5-3.7 0-1.5.5-2.7 1.4-3.6.9-.9 2.2-1.3 3.9-1.3 1.6 0 2.9.4 3.8 1.2 1 .8 1.5 2 1.5 3.7 0 1.6-.5 2.9-1.5 3.7-.9.7-2.2 1.2-3.8 1.2zm0-1.8c.8 0 1.3-.3 1.7-.8.4-.5.6-1.3.6-2.4 0-1.1-.2-1.8-.6-2.3s-1-.8-1.7-.8-1.3.3-1.7.8-.6 1.3-.6 2.3c0 1.1.2 1.8.6 2.4.4.5 1 .8 1.7.8z" class="st0"/><path d="M-274.9 601.8c-1.6 0-2.9-.4-3.8-1.2-1-.8-1.5-2.1-1.5-3.7 0-1.5.5-2.7 1.4-3.6.9-.9 2.2-1.3 3.9-1.3 1.6 0 2.9.4 3.8 1.2 1 .8 1.5 2 1.5 3.7 0 1.6-.5 2.9-1.5 3.7-1 .7-2.3 1.2-3.8 1.2zm0-1.8c.8 0 1.3-.3 1.7-.8.4-.5.6-1.3.6-2.4 0-1.1-.2-1.8-.6-2.3-.4-.5-1-.8-1.7-.8s-1.3.3-1.7.8c-.4.5-.6 1.3-.6 2.3 0 1.1.2 1.8.6 2.4.3.5.9.8 1.7.8z" class="st0"/><path d="M-267.8 588.8h2.9v12.6h-2.9v-12.6z" class="st0"/><g><path d="M-341.9 583.4c-8.4 0-15.2 5.9-15.2 13.2s6.8 13.2 15.2 13.2c8.4 0 15.2-5.9 15.2-13.2s-6.8-13.2-15.2-13.2zm1.6 18h-2.7V596c0-.8-.1-1.4-.3-1.7-.2-.4-.6-.5-1-.5-.5 0-.9.2-1.2.6-.3.4-.5 1-.5 1.8v5.3h-2.7v-5.4c0-.8-.1-1.4-.3-1.8-.2-.3-.6-.5-1-.5-.5 0-.9.2-1.2.6-.3.4-.5 1-.5 1.8v5.3h-2.7v-9.1h2.6v1.3c.4-.6.9-1 1.3-1.3.5-.3 1-.4 1.5-.4.7 0 1.3.2 1.7.5.5.3.8.8 1 1.3.4-.6.9-1.1 1.4-1.4s1.1-.4 1.7-.4c1.1 0 1.8.3 2.3 1 .5.7.8 1.6.8 2.9v5.5h-.2zm7.8.5c-.4 1.3-.9 2.1-1.4 2.4-.5.3-1.1.6-1.9.6h-1c-.3 0-.6-.1-.9-.1V603c.1 0 .2.1.4.1h.5c.3 0 .6-.1.8-.3.2-.2.4-.5.5-1l.1-.4-4-9h3.4l2.1 6 1.6-6h2.9l-3.1 9.5z" class="st1"/></g></svg>
