<svg xmlns="http://www.w3.org/2000/svg" viewBox="0 0 242 264"><style>.st1{fill:none;stroke:#a36fd1;stroke-width:6;stroke-linecap:round;stroke-miterlimit:10}</style><g id="_Group_9"><path id="_Path_15" d="M233.2 136.8v26.9c0 16.1-9.5 29.3-25.6 29.3a29.2 29.2 0 0 0-29.2 29.2v20.3c0 16.1-8.4 19.2-18.8 6.8l-34-43c-10.4-12.3-73.3-13.7-89.4-13.7h.3a29.2 29.2 0 0 1-29.2-29.2V36.2A29.3 29.3 0 0 1 36.5 7h166.1c16.1 0 30.4 13 30.6 29.1v100.7z" opacity=".8" fill="#dbd1df"/><g id="_Group_10"><path id="_Path_16" class="st1" d="M233.2 155.9v7.7c0 3.3-.4 6.7-1.3 9.9"/><path id="_Path_17" d="M220.1 189.8a25.8 25.8 0 0 1-12.5 3.2 29.2 29.2 0 0 0-29.2 29.2v20.3c0 16.1-8.4 19.2-18.8 6.8l-34-43c-7.7-9.1-44.2-12.3-69.1-13.3" fill="none" stroke="#a36fd1" stroke-width="6" stroke-linecap="round" stroke-miterlimit="10" stroke-dasharray="20.64,20.64"/><path id="_Path_18" class="st1" d="M46.2 192.7l-10-.1h.3c-3.3 0-6.7-.6-9.8-1.7"/><path id="_Path_19" d="M11.4 178.5a28.7 28.7 0 0 1-4.2-15.1V36.2A29.3 29.3 0 0 1 36.4 7h166.1c16.1 0 30.5 13 30.7 29.1v27.8l-.1 72.7v9.2" fill="none" stroke="#a36fd1" stroke-width="6" stroke-linecap="round" stroke-miterlimit="10" stroke-dasharray="20.03,20.03"/></g></g></svg>
