<svg xmlns="http://www.w3.org/2000/svg" viewBox="-251 414.8 92 12.1"><g fill="#FFF"><path d="M-222.8 419.7c0 1.5-.8 2.3-2.1 2.3h-.8v2.5h-1v-7h1.8c1.3-.1 2.1.7 2.1 2.2zm-1 0c0-.9-.4-1.3-1.1-1.3h-.8v2.6h.8c.7 0 1.1-.5 1.1-1.3zM-215.5 421.8h-.6v2.5h-1v-7h1.8c1.3 0 2.1.8 2.1 2.2 0 1.1-.5 1.8-1.3 2.1l1.5 2.7h-1.1l-1.4-2.5zm-.6-.9h.8c.7 0 1.1-.5 1.1-1.3s-.4-1.2-1.1-1.2h-.8v2.5zM-203.7 423.4v.9h-3.5v-7h3.4v.9h-2.4v2h2.2v.9h-2.2v2.1h2.5v.2zM-194.3 423.4v.9h-3.5v-7h3.4v.9h-2.4v2h2.2v.9h-2.2v2.1h2.5v.2zM-185.2 423.8v.6h-3.2v-7h.6v6.4h2.6zM-178.9 417.4v7h-.6v-7h.6zM-168.7 417.4v7h-.6l-1.9-4.1-.7-1.7v5.8h-.6v-7h.6l1.9 4.1.8 1.7-.1-2v-3.8h.6zM-159 423.8v.6h-3.4v-7h3.3v.6h-2.6v2.6h2.5v.6h-2.5v2.7l2.7-.1z"/></g><path fill="none" stroke="#FFF" stroke-linejoin="round" stroke-miterlimit="10" d="M-250.6 424l6.5-6.5-1.1-1.1a4 4 0 0 0-1.6-1h-.9c-.8.1-1.4.6-1.8 1.3l-.1.2c-.3.8-.1 1.6.5 2.1l7 7 5.7-5.7c.5-.5.8-1.1 1-1.7.1-.5.1-1.1-.1-1.5-.4-.6-1.3-1.3-1.8-1.7-.2-.1-.4-.1-.6.1l-7.1 7.1"/></svg>