<svg xmlns="http://www.w3.org/2000/svg" viewBox="-164.8 136.4 90.8 12.1"><path fill="#2D1A46" d="M-137.8 141.4c0 1.5-.8 2.3-2.1 2.3h-.8v2.5h-1v-7h1.8c1.3-.1 2.1.7 2.1 2.2zm-1 0c0-.9-.4-1.3-1.1-1.3h-.8v2.6h.8c.7 0 1.1-.5 1.1-1.3zm8.3 2.1h-.6v2.5h-1v-7h1.8c1.3 0 2.1.8 2.1 2.2 0 1.1-.5 1.8-1.3 2.1l1.5 2.7h-1.1l-1.4-2.5zm-.6-.9h.8c.7 0 1.1-.5 1.1-1.3s-.4-1.2-1.1-1.2h-.8v2.5zm12.4 2.5v.9h-3.5v-7h3.4v.9h-2.4v2h2.2v.9h-2.2v2.1h2.5v.2zm9.4 0v.9h-3.5v-7h3.4v.9h-2.4v2h2.2v.9h-2.2v2.1h2.5v.2zm9.1.4v.6h-3.2v-7h.6v6.4h2.6zm6.3-6.4v7h-.6v-7h.6zm10.2 0v7h-.6l-1.9-4.1c-.2-.5-.6-1.3-.7-1.7v5.8h-.6v-7h.6l1.9 4.1c.2.5.6 1.3.8 1.7 0-.5-.1-1.4-.1-2v-3.8h.6zm9.7 6.4v.6h-3.4v-7h3.3v.6h-2.6v2.6h2.5v.6h-2.5v2.7l2.7-.1z"/><path fill="none" stroke="#918A91" stroke-linecap="round" stroke-linejoin="round" stroke-miterlimit="10" stroke-width=".947" d="m-156.1 148 5.8-6.1c1.3-1.3 2-4.4-.6-5"/><path fill="none" stroke="#4D4159" stroke-linecap="round" stroke-linejoin="round" stroke-miterlimit="10" stroke-width=".947" d="m-164.3 145 6.2-6.3s-2.9-3.1-4.6-1.1c-1.8 2 1.2 4.5 1.2 4.5l5.4 5.9m-2.6-2.9 7.9-8.2"/></svg>