<svg xmlns="http://www.w3.org/2000/svg" viewBox="-164.8 136.4 90.8 12.1"><g fill="#2D1A46"><path d="M-137.8 141.4c0 1.5-.8 2.3-2.1 2.3h-.8v2.5h-1v-7h1.8c1.3-.1 2.1.7 2.1 2.2zm-1 0c0-.9-.4-1.3-1.1-1.3h-.8v2.6h.8c.7 0 1.1-.5 1.1-1.3zM-130.5 143.5h-.6v2.5h-1v-7h1.8c1.3 0 2.1.8 2.1 2.2 0 1.1-.5 1.8-1.3 2.1l1.5 2.7h-1.1l-1.4-2.5zm-.6-.9h.8c.7 0 1.1-.5 1.1-1.3s-.4-1.2-1.1-1.2h-.8v2.5zM-118.7 145.1v.9h-3.5v-7h3.4v.9h-2.4v2h2.2v.9h-2.2v2.1h2.5v.2zM-109.3 145.1v.9h-3.5v-7h3.4v.9h-2.4v2h2.2v.9h-2.2v2.1h2.5v.2zM-100.2 145.5v.6h-3.2v-7h.6v6.4h2.6zM-93.9 139.1v7h-.6v-7h.6zM-83.7 139.1v7h-.6l-1.9-4.1c-.2-.5-.6-1.3-.7-1.7v5.8h-.6v-7h.6l1.9 4.1c.2.5.6 1.3.8 1.7 0-.5-.1-1.4-.1-2v-3.8h.6zM-74 145.5v.6h-3.4v-7h3.3v.6h-2.6v2.6h2.5v.6h-2.5v2.7l2.7-.1z"/></g><path fill="none" stroke="#918A91" stroke-width=".947" stroke-linecap="round" stroke-linejoin="round" stroke-miterlimit="10" d="M-156.1 148l5.8-6.1c1.3-1.3 2-4.4-.6-5"/><path fill="none" stroke="#4D4159" stroke-width=".947" stroke-linecap="round" stroke-linejoin="round" stroke-miterlimit="10" d="M-164.3 145l6.2-6.3s-2.9-3.1-4.6-1.1c-1.8 2 1.2 4.5 1.2 4.5l5.4 5.9M-158.7 145.1l7.9-8.2"/></svg>