<svg xmlns="http://www.w3.org/2000/svg" viewBox="25.3 -82.2 141.2 125.7"><path fill="#A36FD1" d="M166.5-35.9c0-7.2-4.5-13.7-11-16.3v-23.3c0-3.6-3-6.6-6.6-6.6h-4.4H144.2h-.1-.1-.1-.1-.1-.1-.1-.1l-.1.1h-.1l-.1.1a88.5 88.5 0 0 1-60.4 21.5h-42c-8.5 0-15.4 6.9-15.4 15.4v17.6c0 8.5 6.9 15.4 15.4 15.4h9.1l5.7 47.3a8.9 8.9 0 0 0 8.8 7.8H73a8.9 8.9 0 0 0 8.8-9.9L76.4-12h6.3a89 89 0 0 1 60.4 21.5l.2.1.1.1h.1l.1.1H148.9c3.7 0 6.6-3 6.6-6.6v-23.3c6.5-2.1 11-8.6 11-15.8zm-11.1 11.4v-22.9c4 2.3 6.6 6.7 6.6 11.5a13 13 0 0 1-6.6 11.4z"/><path fill="#B785ED" d="M144.4-53.6c-1.2 0-2.2 1-2.2 2.2v4.4c0 1.2 1 2.2 2.2 2.2 1.2 0 2.2-1 2.2-2.2v-4.4c0-1.2-1-2.2-2.2-2.2z"/><path fill="#B785ED" d="M166.5-35.9c0-7.2-4.5-13.7-11-16.3v-23.3c0-3.6-3-6.6-6.6-6.6h-4.4H144.2h-.1-.1-.1-.1-.1-.1-.1-.1l-.1.1h-.1l-.1.1a88.5 88.5 0 0 1-60.4 21.5h-42c-8.5 0-15.4 6.9-15.4 15.4v17.6c0 8.5 6.9 15.4 15.4 15.4h9.1l5.7 47.3a8.9 8.9 0 0 0 8.8 7.8H73a8.9 8.9 0 0 0 8.8-9.9L76.4-12h6.3a89 89 0 0 1 60.4 21.5l.2.1.1.1h.1l.1.1H148.9c3.7 0 6.6-3 6.6-6.6v-23.3c6.5-2.1 11-8.6 11-15.8zm-89.2 70c.2 1.3-.2 2.5-1.1 3.5-.8 1-2 1.5-3.3 1.5h-8.7a4.5 4.5 0 0 1-4.4-3.9l-.1-.5h9.6c1.2 0 2.2-1 2.2-2.2 0-1.2-1-2.2-2.2-2.2H59.2l-5-41.9h17.6l5.5 45.7zM148.8 6h-2.2v-44.1c0-1.2-1-2.2-2.2-2.2-1.2 0-2.2 1-2.2 2.2V3.6a90.6 90.6 0 0 0-50.8-19.4v-29c0-1.2-1-2.2-2.2-2.2S87-46 87-44.7V-16l-4.4-.1H40.7a11 11 0 0 1-11-11v-17.6a11 11 0 0 1 11-11h41.9l4.4-.1v2.3c0 1.2 1 2.2 2.2 2.2s2.2-1 2.2-2.2V-56a90.2 90.2 0 0 0 50.8-19.4v15.3c0 1.2 1 2.2 2.2 2.2 1.2 0 2.2-1 2.2-2.2v-17.6h2.2c1.2 0 2.2 1 2.2 2.2V3.8c0 1.2-1 2.2-2.2 2.2zm6.6-30.5v-22.9c4 2.3 6.6 6.7 6.6 11.5a13 13 0 0 1-6.6 11.4z"/></svg>