<svg xmlns="http://www.w3.org/2000/svg" viewBox="0 0 1424 895.6"><g opacity=".1" fill="none" stroke="#C39FF7" stroke-width="15" stroke-miterlimit="10"><path d="M719.6 155a80.4 80.4 0 0 1-40.2-27.1 66.8 66.8 0 0 1-13.5-40.4c0-18.1 6.4-33.4 19.1-46 12.7-12.6 28.5-18.8 47.4-18.8s34.6 6.7 47.4 20.2 19.1 32 19.1 55.7c0 33.2-10.6 66.1-31.9 98.6s-55 60.2-101.1 83.1v-48.8a126.9 126.9 0 0 0 53.7-76.5zM873.1 155a80.4 80.4 0 0 1-40.2-27.1 65.6 65.6 0 0 1-13.6-40.4c0-18.1 6.4-33.4 19.1-46 12.7-12.6 28.5-18.8 47.4-18.8s34.6 6.7 47.4 20.2 19.1 32 19.1 55.7c0 33.2-10.6 66.1-31.9 98.6s-55 60.2-101.1 83.1v-48.8a127 127 0 0 0 53.8-76.5z"/></g><g fill="#A36FD1"><path d="M1317.6 295.5c-7.3-2.4-13-5.9-16.8-10.7a24.4 24.4 0 0 1 2.2-33.8 28 28 0 0 1 19.9-7.4c7.5-.2 14.7 2.7 19.9 8 5.4 5.3 7.9 12.4 7.9 21.9 0 13-4.4 25.8-13.3 38.5s-23.1 23.7-42.4 32.6v-19a52.6 52.6 0 0 0 22.6-30.1zM1381.9 295.5c-7.3-2.4-13-5.9-16.8-10.7a24.4 24.4 0 0 1 2.2-33.8 28 28 0 0 1 19.9-7.4c7.5-.2 14.7 2.7 19.9 8 5.4 5.3 7.9 12.4 7.9 21.9 0 13-4.4 25.8-13.3 38.5s-23.1 23.7-42.4 32.6v-19a52.6 52.6 0 0 0 22.6-30.1z"/></g><g opacity=".1" fill="#C39FF7"><path d="M360.5 725a54 54 0 0 1-27.5-18.6c-6.1-8-9.3-17.7-9.3-27.7a44.6 44.6 0 0 1 45.6-44.4c12.9 0 23.7 4.6 32.4 13.8s13.1 21.9 13.1 38.1c0 22.8-7.3 45.3-21.8 67.5-14.5 22.3-37.6 41.3-69.2 56.9v-33.3a86.8 86.8 0 0 0 36.7-52.3zM465.6 725a54 54 0 0 1-27.5-18.6c-6.1-8-9.3-17.7-9.3-27.7a44.5 44.5 0 0 1 45.6-44.4c12.9 0 23.7 4.6 32.4 13.8s13.1 21.9 13.1 38.2c0 22.8-7.3 45.3-21.8 67.5-14.5 22.3-37.6 41.3-69.2 56.9v-33.3a87.3 87.3 0 0 0 36.7-52.4z"/></g><path opacity=".1" fill="none" stroke="#C39FF7" stroke-width="9" stroke-linecap="round" stroke-linejoin="round" stroke-miterlimit="10" d="M345.2 269.8a41.8 41.8 0 0 0-26-38.5v-54.9c0-8.6-7-15.6-15.6-15.6h-11.3l-.2.1-.3.1-.2.1-.2.1-.2.1-.2.1-.2.1-.2.1-.3.2-.1.1a208.5 208.5 0 0 1-142 50.7H49.3c-20 0-36.3 16.3-36.3 36.3v41.5c0 20 16.3 36.3 36.3 36.3h21.4L83 429.3l1 8.6a20.8 20.8 0 0 0 20.6 18.3h20.5a20.9 20.9 0 0 0 20.6-23.2L133 326.9h14.9a208.3 208.3 0 0 1 142.4 51h.1l.3.2.1.1.3.1.2.1.3.1.2.1.3.1h11.6c8.6 0 15.6-7 15.6-15.6v-54.9a41.8 41.8 0 0 0 25.9-38.4zm-26 13v-24.3"/></svg>