<svg width="2348px" height="1599px" viewBox="0 0 2348 1599" version="1.1" xmlns="http://www.w3.org/2000/svg">
    <g id="Page-1" stroke="none" stroke-width="1" fill="none" fill-rule="evenodd">
        <g id="Artboard-5" transform="translate(-132.000000, -105.000000)">
            <g id="testimonials-bg" transform="translate(132.000000, 110.000000)">
                <path d="M160.361543,1081.16454 C160.361543,1081.16454 160.361543,1125.93035 160.361543,1181.16981 L160.361543,1173.25759 C160.361543,1228.48897 205.139855,1273.26286 260.363142,1273.26286 L1656.57782,1273.26286 C1711.80718,1273.26286 1756.57942,1318.03972 1756.57942,1373.25573 L1756.57942,1632.63007 C1756.57942,1687.85461 1785.36243,1698.3327 1820.87137,1656.02963 L2079.04168,1348.46204 C2114.54915,1306.16072 2188.10807,1271.86873 2243.34175,1271.86873 L2242.28526,1271.86873 C2297.51822,1271.86873 2342.29338,1227.10494 2342.29338,1171.87195 L2342.29338,326.194423 C2342.29338,270.967724 2297.52066,226.197639 2242.29706,226.197639 L1394.4531,226.197639 C1339.22666,226.197639 1294.45678,270.962256 1294.45678,326.193484 L1294.45678,465.943207 C1294.45678,521.169388 1249.67751,565.939053 1194.44891,565.939053 L1195.75873,565.939053 C1140.52591,565.939053 1095.75086,521.15757 1095.75086,465.930453 L1095.75086,100.521312 C1095.75086,45.2880876 1050.98616,0.512712344 995.75336,0.512712344 L153.465955,0.512712344 C98.2388604,0.512712344 53.4684542,45.2841972 53.4684542,100.508417 L53.4684542,292.578424 C53.4684542,347.804527 98.2454573,392.574129 153.471127,392.574129 L780.169504,392.574129 C835.399455,392.574129 880.172177,437.347009 880.172177,492.574762 L880.172177,536.97069 C880.172177,592.199514 835.39545,636.971323 780.167528,636.971323 L265.184124,636.971323 C209.953082,636.971323 164.804823,681.745653 164.342686,736.975183 L163.539509,832.961955" id="Path-1990" stroke="#7F5B7C" stroke-width="10" stroke-linecap="round" stroke-dasharray="25"></path>
                <g id="chat" transform="translate(1854.000000, 1166.000000)" fill="#7F5B7C">
                    <g id="Group">
                        <path d="M28.800813,169.557299 L43.5556911,169.557299 L43.5556911,208.437549 C43.5556911,210.208859 44.6191057,211.758755 46.2142276,212.467279 C46.7902439,212.688692 47.3662602,212.821541 47.9422764,212.821541 C49.05,212.821541 50.1577236,212.378713 50.9995935,211.581624 L94.9097561,169.557299 L177.235772,169.557299 C188.933333,169.557299 199.700407,162.206364 204.042683,151.268526 C204.928862,149.010106 203.821138,146.48599 201.561382,145.600335 C199.301626,144.71468 196.776016,145.821748 195.889837,148.080168 C192.876829,155.6968 185.388618,160.789316 177.235772,160.789316 L93.1373984,160.789316 C91.9853659,160.789316 90.9219512,161.232143 90.1243902,162.029233 L52.3731707,198.163952 L52.3731707,165.21759 C52.3731707,162.78204 50.4235772,160.833599 47.9865854,160.833599 L28.800813,160.833599 C17.7678862,160.833599 8.77317073,151.844202 8.77317073,140.817798 L8.77317073,50.2595863 C8.77317073,39.233183 17.7678862,30.2437859 28.800813,30.2437859 L119.811382,30.2437859 C122.248374,30.2437859 124.197967,28.2953451 124.197967,25.8597942 C124.197967,23.4242432 122.248374,21.4758025 119.811382,21.4758025 L28.800813,21.4758025 C12.8939024,21.4758025 0,34.4063638 0,50.2595863 L0,140.773516 C0,156.671021 12.8939024,169.557299 28.800813,169.557299 L28.800813,169.557299 Z" id="Shape"></path>
                        <path d="M113.342276,54.9978399 C111.747154,52.9165509 109.265854,51.5437859 106.430081,51.5437859 L85.5162602,51.5437859 C80.7308943,51.5437859 76.8760163,55.4406674 76.8760163,60.178921 L76.8760163,123.990356 C76.8760163,128.772892 80.7752033,132.625491 85.5162602,132.625491 L106.430081,132.625491 C108.689837,132.625491 110.728049,131.739836 112.278862,130.322788 C115.956504,133.953973 121.007724,136.256676 126.59065,136.256676 L185.876016,136.256676 C199.523171,136.256676 208.207724,129.082871 209.758537,116.63942 L217.734146,66.0242432 C217.778455,65.8028295 217.778455,65.5814158 217.778455,65.3600021 C217.778455,54.2007505 208.695122,45.1227879 197.529268,45.1227879 L168.506911,45.1227879 L168.506911,24.4427464 C168.506911,15.0105218 165.715447,8.19097921 160.221138,4.16124948 C151.536585,-2.2154657 139.661789,1.41571933 139.130081,1.54856757 C137.313415,2.12424324 136.072764,3.80698753 136.072764,5.71114553 L136.072764,29.9338067 C136.072764,48.3111455 114.582927,54.5992952 113.696748,54.8649917 C113.519512,54.9092744 113.430894,54.9535572 113.342276,54.9978399 L113.342276,54.9978399 Z M106.297154,123.90179 L85.604878,123.90179 L85.604878,60.3117692 L106.297154,60.3117692 L106.297154,123.90179 L106.297154,123.90179 Z M115.070325,63.4558441 C115.380488,63.4558441 115.69065,63.4115613 116.000813,63.3229958 C117.197154,63.0130166 144.801626,54.9978399 144.801626,29.9338067 L144.801626,9.29804782 C147.637398,8.94378586 151.891057,8.94378586 154.992683,11.2464886 C158.094309,13.5491913 159.689431,17.9774657 159.689431,24.4427464 L159.689431,49.4624969 C159.689431,51.8980478 161.639024,53.8464886 164.076016,53.8464886 L197.484959,53.8464886 C203.73252,53.8464886 208.78374,58.8061559 208.960976,65.0057401 L201.029675,115.35522 L201.029675,115.488069 C200.054878,123.458963 194.95935,127.488692 185.831707,127.488692 L126.59065,127.488692 C120.254472,127.488692 115.114634,122.351894 115.114634,116.019462 L115.114634,63.4558441 L115.070325,63.4558441 L115.070325,63.4558441 L115.070325,63.4558441 Z" id="Shape"></path>
                    </g>
                </g>
                <g id="megaphone" transform="translate(0.000000, 859.000000)" fill="#7F5B7C">
                    <g id="Group">
                        <path d="M235.40625,56.6202081 C232.998785,56.6202081 231.046875,58.5703012 231.046875,60.9755249 L231.046875,69.6850698 C231.046875,72.0902936 232.998785,74.0403867 235.40625,74.0403867 C237.813715,74.0403867 239.765625,72.0902936 239.765625,69.6850698 L239.765625,60.9755249 C239.765625,58.5703012 237.813715,56.6202081 235.40625,56.6202081 L235.40625,56.6202081 Z" id="Shape"></path>
                        <path d="M279,91.4616541 C279,77.2671321 270.184254,64.4292912 257.203125,59.1620799 L257.203125,13.0659506 C257.203125,5.86171208 251.336496,0 244.125,0 L235.434586,0 L235.430227,0 L235.40625,0 C235.370285,0 235.33541,0.00435531686 235.29999,0.00544414608 C235.19482,0.00816621912 235.089105,0.0114327068 234.983936,0.0212321697 C234.928354,0.0266763158 234.874406,0.0364757787 234.819369,0.0440975832 C234.732727,0.05553029 234.646629,0.0664185822 234.560531,0.083295435 C234.49732,0.095816971 234.436289,0.112693824 234.374168,0.127937433 C234.298424,0.14644753 234.222135,0.163868797 234.146936,0.186189796 C234.081545,0.205788722 234.017789,0.230287379 233.953488,0.253152793 C233.883738,0.27765145 233.813988,0.301061278 233.745328,0.329370838 C233.678303,0.357135983 233.614002,0.38871203 233.549156,0.419743663 C233.485945,0.449686466 233.422189,0.477451611 233.360068,0.510660902 C233.288684,0.548769925 233.220023,0.591778679 233.150818,0.633698604 C233.098506,0.665819066 233.045104,0.695217454 232.993336,0.72897116 C232.910508,0.78450145 232.831494,0.844931472 232.75248,0.905905908 C232.72033,0.930404565 232.686,0.951636735 232.654395,0.977768636 C206.771695,22.0313704 172.356609,43.5531686 113.34375,43.5531686 L30.515625,43.5531686 C13.6895273,43.5531686 0,57.229408 0,74.0403867 L0,108.882922 C0,125.6939 13.6895273,139.37014 30.515625,139.37014 L48.4451895,139.37014 L59.6803887,232.907647 C60.7304531,241.655845 68.173541,248.253061 76.9931016,248.253061 L94.2431484,248.253061 C99.2259141,248.253061 103.980357,246.117323 107.287488,242.392982 C110.594074,238.669186 112.150371,233.698681 111.556406,228.755941 L100.819811,139.37014 L113.34375,139.37014 C172.356609,139.37014 206.771695,160.891938 232.65385,181.94554 C232.755205,182.027746 232.859285,182.105053 232.965545,182.176916 C232.982438,182.188349 233.000965,182.198148 233.017857,182.209036 C233.113764,182.271644 233.210215,182.332074 233.309391,182.385971 C233.347535,182.407203 233.387314,182.424624 233.426549,182.444768 C233.507197,182.486143 233.588391,182.52643 233.670674,182.562361 C233.716447,182.582505 233.763855,182.599382 233.810174,182.617892 C233.888643,182.648923 233.967111,182.678322 234.04667,182.704454 C234.096803,182.720786 234.14748,182.735485 234.198703,182.750184 C234.279352,182.77305 234.36,182.794282 234.441193,182.812248 C234.491326,182.82368 234.542004,182.835113 234.593227,182.844368 C234.683139,182.861245 234.773596,182.874311 234.864053,182.885744 C234.907646,182.891188 234.950695,182.897721 234.994834,182.902076 C235.13052,182.914598 235.26675,182.922764 235.40298,182.922764 L235.40407,182.922764 L235.405705,182.922764 L244.124455,182.922764 C251.335951,182.922764 257.20258,177.061052 257.20258,169.856813 L257.20258,123.760684 C270.184254,118.493473 279,105.655087 279,91.4616541 L279,91.4616541 Z M102.899777,229.79414 C103.201119,232.301713 102.443133,234.723814 100.765318,236.612388 C99.0875039,238.502051 96.771041,239.542427 94.2431484,239.542427 L76.9931016,239.542427 C72.5835937,239.542427 68.8623223,236.243819 68.3364727,231.869448 L68.2116855,230.831794 L87.1875,230.831794 C89.5949648,230.831794 91.546875,228.881701 91.546875,226.476477 C91.546875,224.071253 89.5949648,222.12116 87.1875,222.12116 L67.1654355,222.12116 L57.2260605,139.37014 L92.0383945,139.37014 L102.899777,229.79414 L102.899777,229.79414 Z M244.125,174.212675 L239.765625,174.212675 L239.765625,87.1074261 C239.765625,84.7022024 237.813715,82.7521092 235.40625,82.7521092 C232.998785,82.7521092 231.046875,84.7022024 231.046875,87.1074261 L231.046875,169.576984 C207.593437,151.656489 177.226031,134.717028 130.78125,131.290482 L130.78125,74.0403867 C130.78125,71.6351629 128.82934,69.6850698 126.421875,69.6850698 C124.01441,69.6850698 122.0625,71.6351629 122.0625,74.0403867 L122.0625,130.813575 C119.214193,130.712314 116.309215,130.659506 113.34375,130.659506 L30.515625,130.659506 C18.4968281,130.659506 8.71875,120.89053 8.71875,108.882922 L8.71875,74.0403867 C8.71875,62.0327781 18.4968281,52.2638024 30.515625,52.2638024 L113.34375,52.2638024 C116.309215,52.2638024 119.214193,52.2109941 122.0625,52.109733 L122.0625,56.6191192 C122.0625,59.024343 124.01441,60.9744361 126.421875,60.9744361 C128.82934,60.9744361 130.78125,59.024343 130.78125,56.6191192 L130.78125,51.6328258 C177.226031,48.2062803 207.593438,31.2662753 231.046875,13.3463241 L231.046875,43.5537131 C231.046875,45.9589368 232.998785,47.9090299 235.40625,47.9090299 C237.813715,47.9090299 239.765625,45.9589368 239.765625,43.5537131 L239.765625,8.71063373 L244.125,8.71063373 C246.52865,8.71063373 248.484375,10.6645378 248.484375,13.0659506 L248.484375,62.1699706 C248.483285,62.2353003 248.48274,62.3000857 248.484375,62.364871 L248.484375,169.857358 C248.484375,172.258771 246.52865,174.212675 244.125,174.212675 L244.125,174.212675 Z M257.203125,114.085892 L257.203125,68.8374163 C265.11975,73.4409862 270.28125,82.0536253 270.28125,91.4616541 C270.28125,100.868594 265.11975,109.482322 257.203125,114.085892 L257.203125,114.085892 Z" id="Shape"></path>
                    </g>
                </g>
            </g>
        </g>
    </g>
</svg>
