<svg xmlns="http://www.w3.org/2000/svg" xml:space="preserve" viewBox="0 0 100 100"><path fill="#C1C9D6" d="M97.8 50.2c0 26.5-21.5 48-48 48s-48-21.5-48-48 21.5-48 48-48 48 21.5 48 48zm-88.6 0c0 22.4 18.2 40.6 40.6 40.6s40.6-18.2 40.6-40.6S72.2 9.6 49.8 9.6 9.2 27.8 9.2 50.2z"/><g fill="#AA30BE"><path d="M39.3 47.6c0 1.1-.2 2.1-.7 2.9-.4.8-1.1 1.9-2.1 3.3l-4.9 6.8h-4.8l4.6-6.4h-.1c-1.7 0-3.2-.6-4.6-1.9-1.4-1.3-2-2.9-2-4.8 0-2 .7-3.6 2.1-5 1.5-1.4 3.2-2.1 5.1-2 2 0 3.7.7 5.1 2 1.6 1.4 2.3 3.1 2.3 5.1zm-4.9 2.3c.6-.6.9-1.4.9-2.4 0-.9-.3-1.7-.9-2.4s-1.4-1-2.3-1c-.9 0-1.7.3-2.3 1-.6.6-1 1.4-1 2.4 0 .9.3 1.7 1 2.4.6.6 1.4 1 2.3 1 .9 0 1.7-.3 2.3-1zM48.4 40.8h1.3v19.8h-4v-15L42 46.8l-1-3.6 7.4-2.4zM55.7 48.9c-1-1-1.5-2.1-1.5-3.5s.5-2.5 1.5-3.5c1-.9 2.2-1.4 3.6-1.4s2.6.5 3.6 1.4c1 1 1.5 2.1 1.5 3.5s-.5 2.6-1.5 3.5-2.2 1.4-3.6 1.4c-1.4.1-2.6-.4-3.6-1.4zm5.6-3.5c0-.6-.2-1.1-.6-1.5-.4-.4-.8-.6-1.4-.6-.6 0-1.1.2-1.5.6-.4.4-.6.9-.6 1.5s.2 1.2.5 1.6c.4.4.8.6 1.5.6.6 0 1-.2 1.4-.6.5-.4.7-1 .7-1.6zm-3.2 15.2 11.4-19.8h3.3L61.4 60.6h-3.3zm9.8-1.1c-1-1-1.5-2.1-1.5-3.5s.5-2.5 1.5-3.5c1-.9 2.2-1.4 3.6-1.4s2.6.5 3.6 1.4c1 1 1.5 2.1 1.5 3.5s-.5 2.5-1.5 3.5-2.2 1.4-3.6 1.4c-1.4.1-2.6-.4-3.6-1.4zm5.1-1.9c.4-.4.6-.9.6-1.5s-.2-1.1-.6-1.5c-.4-.4-.8-.6-1.4-.6-.6 0-1.1.2-1.5.6-.4.4-.5.9-.5 1.5s.2 1.2.5 1.5.8.6 1.5.6c.5 0 1-.2 1.4-.6z"/></g><path fill="#AA30BE" d="M50 0C38 0 26.3 4.3 17.2 12.2 8.1 20.1 2.2 31 .5 42.9-1.2 54.8 1.4 67 8 77.1 14.5 87.2 24.4 94.6 36 98c11.6 3.4 23.9 2.5 34.9-2.6 10.9-5 19.7-13.8 24.7-24.8s5.8-23.3 2.4-34.9C94.5 24.2 87 14.3 76.9 7.9l-6.3 9.8c7.8 5 13.5 12.6 16.1 21.4 2.6 8.9 2 18.4-1.8 26.8-3.8 8.4-10.5 15.1-18.9 19-8.4 3.9-17.9 4.6-26.8 2s-16.5-8.3-21.5-16.1-7-17.1-5.7-26.2S17.9 27.1 24.9 21s15.9-9.4 25.1-9.4V0z"/></svg>