<svg xmlns="http://www.w3.org/2000/svg" xml:space="preserve" viewBox="0 0 100 100"><path fill="#C1C9D6" d="M97.8 50.2c0 26.5-21.5 48-48 48s-48-21.5-48-48 21.5-48 48-48 48 21.5 48 48zm-88.6 0c0 22.4 18.2 40.6 40.6 40.6s40.6-18.2 40.6-40.6S72.2 9.6 49.8 9.6 9.2 27.8 9.2 50.2z"/><g fill="#5723B5"><path d="M36.7 47.6c0 1.1-.2 2.1-.7 2.9-.4.8-1.1 1.9-2.1 3.3L29 60.6h-4.8l4.6-6.4h-.1c-1.7 0-3.2-.6-4.6-1.9-1.4-1.3-2-2.9-2-4.8 0-2 .7-3.6 2.1-5 1.5-1.4 3.2-2.1 5.1-2 2 0 3.7.7 5.1 2 1.6 1.4 2.3 3.1 2.3 5.1zm-5 2.3c.6-.6.9-1.4.9-2.4 0-.9-.3-1.7-.9-2.4s-1.4-1-2.3-1c-.9 0-1.7.3-2.3 1-.6.6-1 1.4-1 2.4 0 .9.3 1.7 1 2.4.6.6 1.4 1 2.3 1 .9 0 1.7-.3 2.3-1zM54.1 55.4c0 1.7-.7 3.1-2.1 4.1-1.4 1-3.2 1.5-5.3 1.5-2.2 0-4-.5-5.4-1.5-1.4-1-2.1-2.4-2.1-4.1 0-2.3 1.3-3.9 3.9-5-2-1.2-3-2.7-3-4.7 0-1.6.6-2.9 1.8-3.8 1.2-.9 2.8-1.4 4.7-1.4 1.9 0 3.4.5 4.7 1.4 1.2.9 1.9 2.2 1.9 3.8 0 2-1 3.5-3 4.7 2.6 1 3.9 2.7 3.9 5zm-4.1-.2c0-.7-.3-1.3-.8-1.8s-1.4-.9-2.6-1.3c-1.2.4-2.1.9-2.6 1.4-.5.5-.8 1.1-.8 1.8 0 .8.3 1.4.9 1.8.6.5 1.4.7 2.5.7s1.9-.2 2.5-.7c.6-.5.9-1.1.9-1.9zm-6.1-9.3c0 .6.2 1.1.6 1.5s1.1.8 2.1 1.3c1-.5 1.7-.9 2.1-1.3.4-.4.6-.9.6-1.5s-.3-1.2-.8-1.5c-.5-.4-1.2-.6-2-.6s-1.5.2-2 .6c-.4.3-.6.9-.6 1.5zM58.3 48.9c-1-1-1.5-2.1-1.5-3.5s.5-2.5 1.5-3.5c1-.9 2.2-1.4 3.6-1.4s2.6.5 3.6 1.4c1 1 1.5 2.1 1.5 3.5s-.5 2.6-1.5 3.5-2.2 1.4-3.6 1.4c-1.3.1-2.6-.4-3.6-1.4zm5.7-3.5c0-.6-.2-1.1-.6-1.5-.4-.4-.8-.6-1.4-.6-.6 0-1.1.2-1.5.6-.4.4-.6.9-.6 1.5s.2 1.2.5 1.6c.4.4.8.6 1.5.6.6 0 1-.2 1.4-.6.5-.4.7-1 .7-1.6zm-3.2 15.2 11.4-19.8h3.3L64 60.6h-3.2zm9.8-1.1c-1-1-1.5-2.1-1.5-3.5s.5-2.5 1.5-3.5c1-.9 2.2-1.4 3.6-1.4s2.6.5 3.6 1.4c1 1 1.5 2.1 1.5 3.5s-.5 2.5-1.5 3.5-2.2 1.4-3.6 1.4c-1.4.1-2.6-.4-3.6-1.4zm5-1.9c.4-.4.6-.9.6-1.5s-.2-1.1-.6-1.5c-.4-.4-.8-.6-1.4-.6-.6 0-1.1.2-1.5.6-.4.4-.5.9-.5 1.5s.2 1.2.5 1.5.8.6 1.5.6c.6 0 1-.2 1.4-.6z"/></g><path fill="#5723B5" d="M50 0C37 0 24.5 5.1 15.2 14.1 5.9 23.1.4 35.5 0 48.5s4.3 25.6 13 35.2c8.8 9.6 20.9 15.4 33.9 16.2 13 .8 25.7-3.5 35.6-11.9 9.9-8.5 16.1-20.4 17.3-33.3 1.2-12.9-2.7-25.8-10.8-36C80.8 8.5 69.1 2 56.2.4l-1.4 11.5c9.9 1.2 18.9 6.3 25.2 14 6.2 7.8 9.2 17.7 8.3 27.6-.9 9.9-5.7 19.1-13.3 25.6-7.6 6.5-17.4 9.8-27.3 9.2-10-.6-19.3-5.1-26-12.5-6.7-7.4-10.3-17.1-10-27 .3-10 4.5-19.4 11.6-26.4C30.4 15.5 40 11.6 50 11.6V0z"/></svg>