<svg xmlns="http://www.w3.org/2000/svg" xml:space="preserve" viewBox="0 0 100 100"><path fill="#C1C9D6" d="M97.8 50.2c0 26.5-21.5 48-48 48s-48-21.5-48-48 21.5-48 48-48 48 21.5 48 48zm-88.6 0c0 22.4 18.2 40.6 40.6 40.6s40.6-18.2 40.6-40.6S72.2 9.6 49.8 9.6 9.2 27.8 9.2 50.2z"/><path fill="#5723B5" d="M50 0C37.6 0 25.6 4.6 16.4 13 7.2 21.4 1.4 32.9.3 45.3-1 57.7 2.5 70 10 80c7.5 10 18.4 16.8 30.6 19.1 12.2 2.3 24.9 0 35.5-6.5C86.7 86.2 94.5 75.9 98 64c3.5-11.9 2.4-24.8-3.1-35.9C89.7 17.4 80.9 9 70 4.2L65.7 15c8.2 3.7 14.8 10.1 18.7 18.2 4.2 8.6 5 18.4 2.4 27.6-2.7 9.2-8.7 17-16.8 22-8.1 5-17.9 6.8-27.2 5-9.4-1.8-17.8-7-23.5-14.7-5.7-7.6-8.4-17.1-7.5-26.7.9-9.5 5.3-18.3 12.4-24.8 7.1-6.4 16.3-10 25.8-10V0z"/><g fill="#5723B5"><path d="M37.3 47.6c0 1.1-.2 2.1-.7 2.9-.4.8-1.1 1.9-2.1 3.3l-4.9 6.8h-4.8l4.6-6.4h-.1c-1.7 0-3.2-.6-4.6-1.9-1.4-1.3-2-2.9-2-4.8 0-2 .7-3.6 2.1-5 1.5-1.4 3.2-2.1 5.1-2 2 0 3.7.7 5.1 2 1.6 1.4 2.3 3.1 2.3 5.1zm-5 2.3c.6-.6.9-1.4.9-2.4 0-.9-.3-1.7-.9-2.4s-1.4-1-2.3-1c-.9 0-1.7.3-2.3 1-.6.6-1 1.4-1 2.4 0 .9.3 1.7 1 2.4.6.6 1.4 1 2.3 1 .9 0 1.7-.3 2.3-1zM53.5 54.2c0 2-.7 3.6-2.2 4.9-1.4 1.3-3.2 1.9-5.3 1.9-1.6 0-3-.4-4.3-1.2-1.3-.8-2.2-1.9-2.9-3.3l2.8-2c.6.9 1.3 1.6 1.9 2.1.7.4 1.4.7 2.3.7 1 0 1.9-.3 2.5-.8.6-.5 1-1.3 1-2.2 0-.9-.3-1.6-1-2.1s-1.7-.7-3-.7h-2.5v-1.1l4.1-5.8h-6.6v-3.7H53V42l-4.4 6.2c1.3.3 2.4 1 3.4 2.1 1.1 1 1.5 2.3 1.5 3.9zM57.8 48.9c-1-1-1.5-2.1-1.5-3.5s.5-2.5 1.5-3.5c1-.9 2.2-1.4 3.6-1.4s2.6.5 3.6 1.4c1 1 1.5 2.1 1.5 3.5S66 48 65 48.9s-2.2 1.4-3.6 1.4c-1.4.1-2.6-.4-3.6-1.4zm5.6-3.5c0-.6-.2-1.1-.6-1.5-.4-.4-.8-.6-1.4-.6-.6 0-1.1.2-1.5.6-.4.4-.6.9-.6 1.5s.2 1.2.5 1.6c.4.4.8.6 1.5.6.6 0 1-.2 1.4-.6.5-.4.7-1 .7-1.6zm-3.2 15.2 11.4-19.8h3.3L63.4 60.6h-3.2zm9.8-1.1c-1-1-1.5-2.1-1.5-3.5s.5-2.5 1.5-3.5c1-.9 2.2-1.4 3.6-1.4s2.6.5 3.6 1.4c1 1 1.5 2.1 1.5 3.5s-.5 2.5-1.5 3.5-2.2 1.4-3.6 1.4c-1.4.1-2.6-.4-3.6-1.4zm5-1.9c.4-.4.6-.9.6-1.5s-.2-1.1-.6-1.5c-.4-.4-.8-.6-1.4-.6-.6 0-1.1.2-1.5.6-.4.4-.5.9-.5 1.5s.2 1.2.5 1.5.8.6 1.5.6c.6 0 1.1-.2 1.4-.6z"/></g></svg>