<svg xmlns="http://www.w3.org/2000/svg" xml:space="preserve" viewBox="0 0 100 100"><path fill="#C1C9D6" d="M97.8 50.2c0 26.5-21.5 48-48 48s-48-21.5-48-48 21.5-48 48-48 48 21.5 48 48zm-88.6 0c0 22.4 18.2 40.6 40.6 40.6s40.6-18.2 40.6-40.6S72.2 9.6 49.8 9.6 9.2 27.8 9.2 50.2z"/><g fill="#AA30BE"><path d="M36.6 47.6c0 1.1-.2 2.1-.7 2.9-.4.8-1.1 1.9-2.1 3.3L29 60.6h-4.8l4.6-6.4h-.1c-1.7 0-3.2-.6-4.6-1.9-1.4-1.3-2-2.9-2-4.8 0-2 .7-3.6 2.1-5 1.5-1.4 3.2-2.1 5.1-2 2 0 3.7.7 5.1 2 1.5 1.4 2.2 3.1 2.2 5.1zm-5 2.3c.6-.6.9-1.4.9-2.4 0-.9-.3-1.7-.9-2.4s-1.4-1-2.3-1c-.9 0-1.7.3-2.3 1-.6.6-1 1.4-1 2.4 0 .9.3 1.7 1 2.4.6.6 1.4 1 2.3 1 .9 0 1.7-.3 2.3-1zM46.3 57.2h7.4v3.5H39.1v-.9l7.1-7.7c1-1.1 1.7-2 2.1-2.8.4-.8.6-1.5.6-2.2 0-.9-.3-1.6-.8-2.1s-1.2-.8-2-.8-1.5.3-2 .8c-.5.6-.8 1.3-.8 2.2 0 .3 0 .8.1 1.4h-4.1c-.1-.5-.2-1.1-.2-1.7 0-1.8.7-3.3 2-4.6 1.3-1.3 3-2 5-2s3.6.6 4.9 1.8c1.3 1.2 2 2.7 2 4.5 0 1.3-.4 2.6-1.1 3.8-.8 1.2-1.8 2.5-3.2 3.9l-2.4 2.9zM58.4 48.9c-1-1-1.5-2.1-1.5-3.5s.5-2.5 1.5-3.5c1-.9 2.2-1.4 3.6-1.4s2.6.5 3.6 1.4c1 1 1.5 2.1 1.5 3.5s-.5 2.6-1.5 3.5-2.2 1.4-3.6 1.4c-1.4.1-2.6-.4-3.6-1.4zm5.6-3.5c0-.6-.2-1.1-.6-1.5-.4-.4-.8-.6-1.4-.6-.6 0-1.1.2-1.5.6-.4.4-.6.9-.6 1.5s.2 1.2.5 1.6c.4.4.8.6 1.5.6.6 0 1-.2 1.4-.6.6-.4.7-1 .7-1.6zm-3.1 15.2 11.4-19.8h3.3L64.1 60.6h-3.2zm9.8-1.1c-1-1-1.5-2.1-1.5-3.5s.5-2.5 1.5-3.5c1-.9 2.2-1.4 3.6-1.4s2.6.5 3.6 1.4c1 1 1.5 2.1 1.5 3.5s-.5 2.5-1.5 3.5-2.2 1.4-3.6 1.4c-1.4.1-2.6-.4-3.6-1.4zm5-1.9c.4-.4.6-.9.6-1.5s-.2-1.1-.6-1.5c-.4-.4-.8-.6-1.4-.6-.6 0-1.1.2-1.5.6-.4.4-.5.9-.5 1.5s.2 1.2.5 1.5.8.6 1.5.6c.6 0 1-.2 1.4-.6z"/></g><path fill="#AA30BE" d="M50 0C37.8 0 26.1 4.4 16.9 12.5c-9.1 8-15 19.1-16.5 31.2C-1.1 55.8 1.8 68 8.6 78.1c6.8 10.1 17.1 17.3 28.9 20.4 11.8 3 24.3 1.7 35.1-3.8 10.9-5.5 19.3-14.8 23.8-26.1s4.7-23.9.6-35.3c-4-11.6-12.1-21.2-22.8-27l-5.6 10.2C76.8 21 83 28.4 86.2 37.2c3.1 8.8 3 18.4-.5 27.1-3.5 8.7-10 15.8-18.3 20-8.3 4.2-17.9 5.3-27 2.9s-16.9-7.9-22.2-15.6-7.5-17.1-6.3-26.4c1.2-9.3 5.7-17.8 12.7-24s16-9.6 25.4-9.6V0z"/></svg>