<svg xmlns="http://www.w3.org/2000/svg" xml:space="preserve" viewBox="0 0 100 100"><path fill="#C1C9D6" d="M97.8 50.2c0 26.5-21.5 48-48 48s-48-21.5-48-48 21.5-48 48-48 48 21.5 48 48zm-88.6 0c0 22.4 18.2 40.6 40.6 40.6s40.6-18.2 40.6-40.6S72.2 9.6 49.8 9.6 9.2 27.8 9.2 50.2z"/><g fill="#AA30BE"><path d="M37.2 47.6c0 1.1-.2 2.1-.7 2.9-.4.8-1.1 1.9-2.1 3.3l-4.9 6.8h-4.8l4.6-6.4h-.1c-1.7 0-3.2-.6-4.6-1.9-1.4-1.3-2-2.9-2-4.8 0-2 .7-3.6 2.1-5 1.5-1.4 3.2-2.1 5.1-2 2 0 3.7.7 5.1 2 1.6 1.4 2.3 3.1 2.3 5.1zm-4.9 2.3c.6-.6.9-1.4.9-2.4 0-.9-.3-1.7-.9-2.4s-1.4-1-2.3-1c-.9 0-1.7.3-2.3 1-.6.6-1 1.4-1 2.4 0 .9.3 1.7 1 2.4.6.6 1.4 1 2.3 1 .9 0 1.6-.3 2.3-1zM54.1 53.9c0 2-.7 3.7-2.2 5-1.4 1.4-3.1 2-5.1 2-1.9 0-3.6-.6-5.1-2-1.5-1.4-2.2-3.1-2.1-5.1 0-.7.1-1.5.3-2.2.3-1 1.1-2.3 2.4-4l4.9-6.8H52l-4.6 6.4h.1c1.7 0 3.2.6 4.6 1.9 1.4 1.4 2 3 2 4.8zm-5 2.4c.6-.6.9-1.4.9-2.4s-.3-1.8-.9-2.4c-.6-.6-1.4-.9-2.3-.9-.9 0-1.7.3-2.3 1-.6.6-.9 1.4-.9 2.4 0 .9.3 1.7.9 2.4.6.6 1.4 1 2.3 1 .9-.1 1.7-.4 2.3-1.1zM57.8 48.9c-1-1-1.5-2.1-1.5-3.5s.5-2.5 1.5-3.5c1-.9 2.2-1.4 3.6-1.4s2.6.5 3.6 1.4c1 1 1.5 2.1 1.5 3.5S66 48 65 48.9s-2.2 1.4-3.6 1.4c-1.4.1-2.6-.4-3.6-1.4zm5.6-3.5c0-.6-.2-1.1-.6-1.5-.4-.4-.8-.6-1.4-.6-.6 0-1.1.2-1.5.6-.4.4-.6.9-.6 1.5s.2 1.2.5 1.6c.4.4.8.6 1.5.6.6 0 1-.2 1.4-.6.5-.4.7-1 .7-1.6zm-3.2 15.2 11.4-19.8h3.3L63.5 60.6h-3.3zm9.9-1.1c-1-1-1.5-2.1-1.5-3.5s.5-2.5 1.5-3.5c1-.9 2.2-1.4 3.6-1.4s2.6.5 3.6 1.4c1 1 1.5 2.1 1.5 3.5s-.5 2.5-1.5 3.5-2.2 1.4-3.6 1.4c-1.4.1-2.6-.4-3.6-1.4zm5-1.9c.4-.4.6-.9.6-1.5s-.2-1.1-.6-1.5c-.4-.4-.8-.6-1.4-.6-.6 0-1.1.2-1.5.6-.4.4-.5.9-.5 1.5s.2 1.2.5 1.5.8.6 1.5.6c.5 0 1-.2 1.4-.6z"/></g><path fill="#AA30BE" d="M50 0C37.3 0 25 4.8 15.8 13.6 6.5 22.3.9 34.2.1 46.9c-.8 12.7 3.3 25.2 11.4 35 8.1 9.8 19.7 16.1 32.3 17.7 12.6 1.6 25.4-1.7 35.7-9.2s17.3-18.6 19.7-31.1c2.4-12.5-.1-25.4-6.9-36.2C85.4 12.4 74.7 4.7 62.4 1.6l-2.9 11.3c9.5 2.4 17.6 8.3 22.9 16.6 5.2 8.2 7.1 18.2 5.3 27.8-1.8 9.6-7.2 18.1-15.1 23.9-7.9 5.7-17.7 8.3-27.4 7-9.7-1.2-18.5-6.1-24.8-13.6-6.2-7.5-9.4-17.1-8.7-26.9.6-9.7 4.9-18.9 12-25.6 7.1-6.7 16.5-10.4 26.3-10.4V0z"/></svg>