<svg xmlns="http://www.w3.org/2000/svg" xml:space="preserve" viewBox="0 0 200.5 200"><path fill="#A49FEB" d="M100.4 0C45.3 0 .5 44.9.5 100l18.1-19 18.1 19c0-35.1 28.6-63.7 63.7-63.7l19-18.1-19-18.2z"/><path fill="#FBDF89" d="M188.5 147.6c26.2-48.5 8.1-109.3-40.4-135.5l8.1 25-25.3 6.9c30.9 16.7 42.4 55.4 25.7 86.3l6.9 25.3 25-8z"/><path fill="#AA30BE" d="M16.6 154.2c29.8 46.4 91.8 59.8 138.1 29.9l-25.8-5 6.2-25.5c-29.5 19-69 10.5-88-19.1l-25.5-6.2-5 25.9z"/><path d="m23.5 80.5-.5-1.4c1.3-.4 2.1-1 2.5-2.1.2-.5.2-1 0-1.4-.1-.4-.4-.7-.8-.8-.3-.1-.6-.1-.9 0-.3.1-.6.4-1.1.9l-.9.9c-.6.7-1.2 1.1-1.7 1.3-.6.2-1.1.3-1.8 0-.8-.3-1.3-.8-1.6-1.6-.3-.8-.3-1.6 0-2.5.2-.7.6-1.3 1.1-1.7.5-.5 1.1-.7 1.7-.9l.5 1.4c-1 .3-1.6.8-1.9 1.7-.1.7-.1 1.1 0 1.5.1.4.4.6.7.7.2.1.3.1.5.1.1 0 .3 0 .5-.2.2-.1.3-.2.3-.2l.5-.5c.1 0 .1-.1.1-.1l.9-.9c.7-.7 1.3-1.2 1.8-1.4.6-.2 1.2-.2 1.8 0 .8.3 1.4.8 1.7 1.6.3.8.3 1.7 0 2.6-.3.8-.7 1.5-1.3 2-.6.5-1.3.9-2.1 1zm4.9-16.9c1.1.5 1.8 1.2 2.2 2.2s.4 2-.1 3-1.2 1.6-2.1 1.9l3.4 1.6-.7 1.5-9.6-4.5.7-1.4 1 .5c-.5-.9-.5-1.9 0-3 .5-1 1.2-1.7 2.2-2 1-.4 2-.3 3 .2zm.7 2.9c-.2-.6-.7-1.1-1.4-1.4-.7-.3-1.3-.4-1.9-.2-.6.2-1.1.6-1.4 1.2-.3.6-.3 1.2-.1 1.8.2.6.7 1.1 1.4 1.4.7.3 1.4.4 2 .2.6-.2 1-.6 1.3-1.2.3-.6.3-1.2.1-1.8zM28.4 56l1.3.7-.3.4c-.3.6-.5 1.2-.3 1.7.1.6.5 1 1 1.3l3.6 2.1-.8 1.4-6.7-3.9.8-1.3.9.5c-.3-.9-.3-1.7.2-2.5 0-.1.1-.2.3-.4zm-.8-2.7c-.3.1-.6 0-.8-.2-.3-.2-.4-.4-.5-.7-.1-.3 0-.6.2-.9.2-.3.4-.4.7-.5s.6 0 .8.2c.3.2.4.4.5.7.1.3 0 .6-.2.8-.1.4-.4.5-.7.6zm8.2 5.5-6.5-4.3.9-1.4 6.5 4.3-.9 1.4zm2.5-11.5 3.8 3-1 1.3-3.7-2.9c-.4-.3-.9-.5-1.3-.4-.5 0-.8.3-1.1.7-.3.4-.4.8-.4 1.3.1.5.3.9.7 1.2l3.7 2.9-1 1.3-6.1-4.8 1-1.2.6.5c-.1-.8.1-1.7.7-2.4s1.2-1.1 2-1.2c.6-.2 1.4.1 2.1.7zm7.4-2.9 1 1c-.3.5-.6.9-.8 1.1-.6.7-1.3 1-1.9 1.1-.7.1-1.3-.2-2-.8l-2.8-2.6-.9.8-1.1-1 .9-.9-1.5-1.4 1.1-1.2 1.5 1.4 1.6-1.7 1.1 1-1.6 1.7 2.7 2.5c.4.3.7.5 1 .4.3 0 .7-.3 1-.6.1-.1.4-.4.7-.8zm5.3-3.1-6.6-8.1 3-2.4c.8-.7 1.7-1 2.6-.9.9.1 1.6.4 2.2 1.2s.8 1.5.7 2.4c-.1.9-.6 1.7-1.4 2.3l-1.7 1.3 2.5 3.1-1.3 1.1zM48.8 36l1.6-1.3c.5-.4.7-.8.8-1.2s-.1-.9-.4-1.3c-.3-.4-.7-.6-1.2-.7-.4 0-.9.1-1.4.5l-1.6 1.3 2.2 2.7zm9.2-.1-6.7-9.8 1.4-.9 6.7 9.8-1.4.9zm6.1-9.4 2.4 4.1-1.3.8-.4-.8c-.1.9-.7 1.6-1.6 2.2-.7.4-1.4.6-2 .5-.6-.1-1.1-.4-1.5-1-.3-.6-.4-1.2-.1-1.8s.7-1.1 1.5-1.6l1.9-1.1-.3-.4c-.3-.5-.6-.7-1-.8-.4-.1-.8 0-1.3.3-.7.4-1.1 1.1-1.3 2.1l-1.3-.4c.1-1.3.8-2.4 2-3.1.8-.5 1.6-.6 2.4-.4.8 0 1.4.5 1.9 1.4zm-.5 2.4-.1-.1-1.7 1c-.8.5-1 1-.7 1.5.2.3.4.4.7.5.3 0 .6-.1 1-.3.5-.3.8-.7 1-1.2.1-.5.1-1-.2-1.4zm8.9-6.6 2 4.4-1.5.8-1.9-4.2c-.2-.5-.5-.8-1-1-.4-.2-.9-.2-1.3.1-.5.2-.8.5-.9 1-.2.4-.1.9.1 1.4l1.9 4.2-1.5.7-3.2-7.1 1.4-.6.3.7c.3-.8.9-1.4 1.7-1.8.8-.4 1.6-.4 2.3-.1.7.1 1.2.7 1.6 1.5zm8.8-3 1.5 4.6-1.6.5-1.4-4.4c-.2-.5-.5-.9-.9-1.1-.4-.2-.8-.2-1.3-.1-.5.2-.8.5-1 .9-.2.4-.2.9-.1 1.4l1.5 4.4-1.6.5-2.5-7.4 1.5-.5.2.7c.4-.8 1-1.3 1.9-1.6.9-.3 1.6-.2 2.3.1.7.4 1.2 1.1 1.5 2zm1.2-5.5c-.3-.2-.4-.4-.5-.7-.1-.3 0-.6.1-.8.2-.3.4-.4.7-.5.3-.1.6 0 .8.1.3.2.4.4.5.7.1.3 0 .6-.1.8-.2.3-.4.4-.7.5-.2.1-.5 0-.8-.1zm2.4 9.6L83 15.8l1.6-.4 1.9 7.5-1.6.5zm9.6-6.9.8 4.8-1.6.3-.8-4.6c-.1-.5-.3-.9-.7-1.2-.4-.3-.8-.4-1.3-.3-.5.1-.9.3-1.2.7-.3.4-.4.8-.3 1.4l.8 4.6-1.6.3-1.3-7.7 1.5-.3.1.7c.5-.7 1.2-1.2 2.1-1.3.9-.2 1.6 0 2.2.5.8.5 1.1 1.2 1.3 2.1zm8.5-3.6 1.5-.1.4 7c.1 1.2-.2 2.2-.9 2.9-.7.7-1.6 1.1-2.8 1.2-1.4.1-2.7-.3-3.8-1.2l.8-1.2c1 .7 1.9 1 2.8.9.7 0 1.3-.3 1.7-.7.4-.4.6-1 .5-1.7v-.6c-.6.8-1.4 1.2-2.6 1.3-1.1.1-2-.2-2.8-.9-.8-.7-1.2-1.6-1.2-2.7-.1-1.1.2-2.1.9-2.9.7-.8 1.6-1.2 2.6-1.3 1.2-.1 2.2.3 2.8 1.1l.1-1.1zm.1 3.7c0-.8-.3-1.3-.8-1.7-.5-.4-1-.6-1.7-.5-.7 0-1.2.3-1.7.8-.4.5-.6 1.1-.6 1.8s.3 1.3.8 1.7c.5.4 1.1.6 1.7.6.6 0 1.2-.3 1.6-.7.5-.6.7-1.2.7-2zM30.4 147l1.4.5c-.5 1.3-.4 2.3.2 3.2.3.4.7.7 1.1.8.4.1.8.1 1.2-.2.3-.2.5-.5.5-.8 0-.3 0-.8-.1-1.4l-.2-1.3c-.2-.9-.2-1.6 0-2.2.1-.6.5-1.1 1-1.5.7-.5 1.4-.6 2.2-.4.8.2 1.5.7 2 1.5.4.6.7 1.2.7 1.9.1.7 0 1.3-.3 1.9l-1.4-.4c.4-.9.3-1.8-.2-2.5-.3-.4-.6-.6-.9-.7-.4-.1-.7-.1-1 .2-.1.1-.3.2-.3.3-.1.1-.1.3-.1.5v.4c0 .1 0 .3.1.7v.2l.2 1.3c.2.9.2 1.7 0 2.3s-.5 1.1-1.1 1.5c-.7.5-1.5.7-2.4.4-.8-.2-1.5-.8-2.1-1.6-.5-.7-.8-1.4-.8-2.2-.2-.9-.1-1.6.3-2.4zm12.5 13c-.9.8-1.8 1.1-2.9 1.1-1.1 0-2-.4-2.7-1.3-.7-.8-1-1.7-.9-2.7l-2.8 2.5-1.1-1.2 7.9-7.1 1 1.2-.8.7c1-.1 1.9.3 2.7 1.2.7.8 1 1.8.9 2.8 0 1.2-.4 2.1-1.3 2.8zm-3-.5c.7 0 1.3-.2 1.8-.7.6-.5.9-1.1.9-1.7.1-.7-.1-1.2-.6-1.7-.4-.5-1-.8-1.6-.8-.6 0-1.2.2-1.8.7-.6.5-.9 1.1-1 1.8 0 .6.2 1.2.6 1.7.5.4 1.1.7 1.7.7zm10.6 2.2-1 1.1-.4-.3c-.5-.5-1-.7-1.6-.7-.6 0-1.1.2-1.5.7l-2.8 3.1-1.2-1.1 5.2-5.7 1.1 1-.7.7c.9-.1 1.7.1 2.4.7.2.1.3.3.5.5zm-3.8 6.9 4.9-6.1 1.3 1-4.9 6.1-1.3-1zm6.2-7.7c0-.3 0-.6.2-.8.2-.2.4-.4.7-.4.3 0 .6.1.8.3.2.2.4.4.4.7 0 .3 0 .6-.2.8-.2.2-.4.4-.7.4-.3 0-.6-.1-.8-.2-.2-.2-.3-.5-.4-.8zm5.8 10.3-2.7 4-1.4-.9 2.6-3.9c.3-.4.4-.9.3-1.3-.1-.4-.3-.8-.7-1.1-.4-.3-.9-.4-1.3-.3-.5.1-.8.4-1.1.8l-2.6 3.9-1.4-.9 4.3-6.5 1.3.9-.4.6c.8-.2 1.7 0 2.5.5.7.5 1.2 1.1 1.3 1.9 0 .8-.2 1.5-.7 2.3zm4.6 6.5-.7 1.2c-.5-.2-1-.3-1.3-.5-.8-.4-1.3-1-1.5-1.6-.2-.6-.1-1.4.3-2.1l1.8-3.3-1.1-.6.7-1.3 1.1.6 1-1.8 1.5.8-1 1.8 2 1.1-.7 1.3-2-1.1-1.7 3.2c-.2.4-.3.8-.2 1.1.1.3.4.6.9.8.1 0 .4.2.9.4zm14 7-1.8-.6-1.5-4.8-1.8-.6-1.3 3.8-1.6-.5 3.4-9.9 3.6 1.2c1 .3 1.7.9 2.1 1.7.4.8.5 1.6.2 2.5-.2.6-.6 1.2-1.1 1.5-.5.4-1.1.6-1.8.6l1.6 5.1zM73.8 174l-1.1 3.3 2 .7c.5.2 1 .2 1.4 0 .4-.2.7-.5.9-1 .2-.5.1-.9-.1-1.3s-.6-.7-1.1-.9l-2-.8zm13 9.3-5.7-1.2c0 .6.1 1.2.5 1.6.4.5.9.7 1.5.9.8.2 1.6 0 2.4-.4l.5 1.3c-1 .6-2.1.8-3.3.6-1.2-.2-2-.8-2.7-1.8-.6-.9-.8-2-.6-3.1.2-1.1.8-2 1.7-2.6 1-.6 2-.8 3-.6 1 .2 1.8.7 2.3 1.5.5.8.7 1.7.5 2.7.2.4 0 .7-.1 1.1zm-5.4-2.5 4.1.9c.1-.6 0-1.1-.3-1.5-.3-.4-.7-.7-1.3-.8-.5-.1-1 0-1.5.2-.4.3-.7.7-1 1.2zm13.3-1.1 1.8.2-4.5 7.5-.6-.1-3-8.3 1.8.2 1.8 5.3 2.7-4.8zm3.2-2c-.2-.2-.3-.5-.3-.8 0-.3.1-.6.3-.8.2-.2.5-.3.8-.3.3 0 .6.1.8.3.2.2.3.5.3.8 0 .3-.1.6-.3.8-.2.2-.5.3-.8.3-.3 0-.6-.1-.8-.3zm-.2 9.9.1-7.8h1.7l-.1 7.8h-1.7zm11.4-3.8-5.8.4c.1.6.5 1.1.9 1.4.5.3 1.1.5 1.7.4.8-.1 1.6-.4 2.2-1.1l.9 1.1c-.8.9-1.8 1.4-3 1.5-1.2.1-2.2-.2-3-1-.9-.7-1.3-1.6-1.4-2.8-.1-1.1.2-2.1 1-3 .7-.9 1.7-1.3 2.8-1.4 1-.1 1.9.2 2.6.8.7.6 1.1 1.5 1.2 2.5 0 .4 0 .8-.1 1.2zm-5.8-.9 4.2-.3c-.1-.6-.3-1-.7-1.3-.4-.3-.9-.5-1.4-.4-.5 0-1 .2-1.4.6-.4.3-.6.8-.7 1.4zm17-5.8 1.7-.4-1.7 8.5-.6.1-3.5-4.6-1.3 5.6-.6.1-5-7.1 1.7-.4 3.1 4.5 1.2-5.6.6-.1 3.4 4.6 1-5.2zm37.1-131.6 8.1-6.6 2.1 2.6c1.1 1.3 1.6 2.7 1.5 4.1-.1 1.4-.7 2.6-1.9 3.6s-2.5 1.3-3.9 1.1c-1.4-.2-2.7-1-3.7-2.3l-2.2-2.5zm2.2.4 1 1.2c.8.9 1.6 1.5 2.6 1.6 1 .1 1.9-.2 2.8-.9.9-.7 1.3-1.5 1.4-2.5.1-1-.3-1.9-1-2.9l-1-1.2-5.8 4.7zm11.5 10.6-4 2.5-.8-1.3.7-.5c-.9-.1-1.6-.6-2.2-1.5-.4-.7-.6-1.3-.5-2 .1-.6.4-1.1 1-1.5.6-.4 1.2-.4 1.8-.2s1.2.7 1.6 1.4l1.2 1.9.4-.3c.5-.3.7-.6.8-1 .1-.4 0-.8-.3-1.3-.4-.7-1.1-1.1-2.1-1.2l.3-1.3c1.3 0 2.4.7 3.2 1.9.5.8.7 1.6.5 2.4-.2.8-.7 1.5-1.6 2zm-2.4-.4.1-.1-1.1-1.7c-.5-.8-1-1-1.5-.7-.3.2-.4.4-.4.7 0 .3.1.6.3 1 .3.5.7.8 1.2.9.5.2 1 .1 1.4-.1zm-.5 4.8 6.8-3.7.8 1.5-6.8 3.7-.8-1.5zm8.7-4.6c.1-.3.3-.5.5-.7.3-.1.6-.2.8-.1.3.1.5.3.7.6.1.3.2.6.1.9-.1.3-.3.5-.5.7-.3.1-.5.2-.8.1-.3-.1-.5-.3-.7-.5-.2-.4-.2-.7-.1-1zm-6.9 8.1 10.7-5.1.7 1.5-10.7 5.1-.7-1.5zm10.9 5.7.6 1.7-9.4-.4c-.8 0-1.5-.2-1.9-.5-.5-.3-.8-.8-1.1-1.4-.2-.4-.3-.8-.3-1.3l1.3-.5c.1.4.2.7.3.9.3.7.9 1.1 1.7 1.2h.8l5.8-5.6.7 1.7L175 70l5.9.1zm-3.2 8.8 1.1 1c-.9 1-1.3 2-1 3 .1.5.3.9.7 1.2.3.3.7.4 1.1.3.4-.1.6-.2.8-.5.2-.3.3-.7.4-1.3l.3-1.2c.2-.9.4-1.6.8-2.1.3-.5.8-.8 1.5-1 .8-.2 1.5 0 2.2.5.7.5 1.1 1.2 1.3 2.1.2.7.1 1.4-.1 2-.2.7-.5 1.2-1 1.6l-1.1-.9c.7-.7 1-1.5.8-2.4-.1-.5-.3-.8-.6-1-.3-.2-.6-.3-1-.2-.2.1-.3.1-.4.2-.1.1-.2.2-.3.4-.1.2-.1.3-.2.4 0 .1-.1.3-.2.7v.2l-.3 1.3c-.2.9-.5 1.7-.8 2.1-.4.5-.9.8-1.5.9-.9.2-1.7 0-2.3-.5-.7-.5-1.1-1.3-1.4-2.3-.2-.8-.2-1.6.1-2.4.1-.9.5-1.6 1.1-2.1zm1.8 13.8-1.4.2c-.2-.5-.3-1-.4-1.3-.1-.9 0-1.6.4-2.2.4-.6 1-.9 1.9-1l3.8-.5-.2-1.3 1.4-.2.2 1.3 2-.3.2 1.7-2 .3.3 2.3-1.4.2-.3-2.3-3.6.5c-.5.1-.8.2-1 .5s-.2.7-.2 1.2c.2.1.2.4.3.9zm3.8 7.6-4.7.2-.1-1.5h.9c-.7-.5-1.1-1.4-1.2-2.4 0-.8.1-1.5.5-2s.9-.8 1.6-.8c.7 0 1.2.2 1.6.7.4.5.7 1.2.7 2.1l.1 2.2h.5c.5 0 .9-.2 1.2-.5.3-.3.4-.7.4-1.2 0-.8-.5-1.5-1.3-2.1l.9-1c1.1.7 1.7 1.8 1.8 3.2 0 1-.2 1.8-.7 2.4-.4.3-1.2.6-2.2.7zm-1.8-1.6h.1l-.1-2c0-.9-.4-1.4-1-1.3-.3 0-.6.2-.7.4-.2.3-.2.6-.2 1 0 .6.2 1 .6 1.4.3.3.7.5 1.3.5zm1.6 10.9-4.8-.3.1-1.7 4.6.2c.5 0 1-.1 1.3-.4.3-.3.5-.7.6-1.2 0-.5-.1-.9-.4-1.3-.3-.3-.7-.5-1.3-.6l-4.6-.2.1-1.7 7.8.4-.1 1.5h-.8c.6.6.9 1.4.8 2.4 0 .9-.4 1.6-.9 2.1-.7.6-1.5.8-2.4.8zm5.7 9.5-.3 1.7-11.7-1.9.2-1.5 1.1.2c-.7-.7-1-1.7-.8-2.9.2-1.1.7-1.9 1.6-2.5.9-.6 1.9-.8 3-.6 1.1.2 2 .7 2.7 1.5.7.9.9 1.8.7 2.9-.2 1.1-.7 1.9-1.5 2.4l5 .7zm-9.6-2.2c.4.5.9.8 1.7 1 .8.1 1.4 0 2-.4.5-.4.8-.9.9-1.5.1-.7 0-1.3-.4-1.8s-1-.9-1.7-1c-.7-.1-1.4 0-1.9.4s-.9.9-1 1.6c-.1.6 0 1.1.4 1.7zm.3 4.8 4.3 1.2-.4 1.6-4.5-1.2c-.5-.1-1-.1-1.4.1-.4.2-.7.6-.8 1.1-.1.5-.1.9.1 1.3s.6.7 1.1.8l4.5 1.2-.4 1.6-4.3-1.2c-1-.3-1.7-.8-2.1-1.6s-.5-1.6-.3-2.6c.3-1 .8-1.7 1.6-2.1.7-.4 1.6-.5 2.6-.2zm-5 16.5c-1.1-.4-1.8-1.1-2.3-2.1-.4-1-.5-1.9-.1-3 .4-1 1.1-1.7 2-2l-3.5-1.4.6-1.5 9.8 4-.6 1.4-1-.4c.6.9.6 1.9.2 3-.4 1-1.1 1.7-2.1 2.1-.9.4-1.9.4-3-.1zm-.8-2.9c.3.6.7 1 1.4 1.3.7.3 1.3.3 1.9.1.6-.2 1-.7 1.3-1.3.2-.6.2-1.2 0-1.8-.2-.6-.7-1-1.5-1.3-.8-.3-1.4-.3-2-.1-.6.3-1 .7-1.2 1.3-.2.6-.2 1.2.1 1.8zm-2.1 2.9.5 1.3c-1 .3-1.6.8-2 1.4-.2.3-.2.6-.2.9 0 .3.2.5.4.6.2.1.4.1.6 0 .2-.1.5-.3.8-.5l.7-.5c.6-.5 1.1-.8 1.6-.9.5-.1.9-.1 1.4.2.6.3 1 .8 1.1 1.4.1.6 0 1.3-.4 2-.5 1-1.3 1.6-2.3 1.8l-.5-1.3c.7-.2 1.2-.6 1.5-1.2.3-.6.3-1.1-.2-1.3-.2-.1-.3-.1-.5 0s-.4.2-.8.5l-.6.5c-.6.5-1.2.8-1.6 1-.5.1-.9.1-1.4-.2-.7-.3-1.1-.9-1.2-1.5-.1-.7 0-1.4.4-2.1.6-1.2 1.5-1.9 2.7-2.1z"/></svg>