<svg xmlns="http://www.w3.org/2000/svg" viewBox="-251 362.4 91.7 117.5"><path fill="none" stroke="#B64E96" stroke-width=".5" stroke-miterlimit="10" d="M-205.2 380.5h-13.7c-5.8 0-11.1 3.1-14 8.1h0c-2 3.5-2.8 7.5-2.3 11.4l2.4 19.3 2.8 21.6c0 5.4 9.7 16.7 18.9 20.3 2 .8 4.2.5 6 .5h0c1.8 0 4 .2 6-.5 9.2-3.6 18.9-14.8 18.9-20.3l2.8-21.6 2.4-19.3c.5-4-.3-8-2.3-11.4h0c-2.9-5-8.2-8.1-14-8.1h-13.9"/><path fill="#B64E96" d="M-199.5 413.3l12.1-2.5 4 3.5-1.7 1.8-1.4-1.5c-1-1-2.5-1.4-3.9-1l-5 1.5c-1 .3-2.2.1-3-.7l-1.1-1.1z"/><path fill="none" stroke="#B64E96" stroke-width=".5" stroke-linejoin="round" stroke-miterlimit="10" d="M-200.1 413.5l2.2 2.2-2.8-1.9 1.4 2.4-2.4-2.4M-177.2 417.5c1.5-2.8 3.7-4.4 5-3.9 1.6.5 1.8 3.8 1.7 5.5-.3 3.7-2.6 4.2-3.8 8.5-.1.3-.4 1.9-1.7 2.6-.6.3-2.9 1-2.6-1.2M-187.9 420.2c-.3-.5-1.6-2.3-3.9-2.7-2.6-.5-5.4.8-7 3.4.7-.5 2.7-1.8 5.5-1.8 1.9 0 3.4.7 4.1 1.1l1.8.8"/><path fill="#B64E96" d="M-195.3 419.5c-.2.3-.3.6-.3 1 0 1.2 1 1.7 2.2 1.7s2.2-.5 2.2-1.7c0-.5-.2-1-.5-1.3"/><path fill="none" stroke="#B64E96" stroke-width=".5" stroke-linejoin="round" stroke-miterlimit="10" d="M-197.3 421.5c.7.3 2 .8 3.8.7 1.7-.1 2.9-.7 3.5-1M-198.5 423.2c.9.5 2.5 1.3 4.6 1.5 1.5.1 2.7 0 3.6-.2M-195.1 441.8c.3.1 2.2.6 3 2.5.4.9.4 1.8.3 2.2"/><path fill="none" stroke="#B64E96" stroke-width=".5" stroke-miterlimit="10" d="M-232.9 419.3l3.3-17.5c.8-4.5 5-7.5 9.5-6.9l15 1.9h0l15-1.9c4.5-.6 8.7 2.5 9.5 6.9l3.3 17.5"/><path fill="#B64E96" d="M-210.8 413.3l-12.1-2.5-4 3.5 1.7 1.8 1.4-1.5c1-1 2.5-1.4 3.9-1l5 1.5c1 .3 2.2.1 3-.7l1.1-1.1z"/><path fill="none" stroke="#B64E96" stroke-width=".5" stroke-linejoin="round" stroke-miterlimit="10" d="M-210.2 413.5l-2.2 2.2 2.8-1.9-1.4 2.4 2.4-2.4M-233.1 417.5c-1.5-2.8-3.7-4.4-5-3.9-1.6.5-1.8 3.8-1.7 5.5.3 3.7 2.6 4.2 3.8 8.5.1.3.4 1.9 1.7 2.6.6.3 2.9 1 2.6-1.2M-210.7 433.7c-1 .4-1.5 1.4-1.3 2.3.2.7.8 1.3 1.6 1.4.5-.8 1.4-1.2 2.3-1 .8.2 1.4.9 1.5 1.8h2.8c.1-.8.7-1.5 1.5-1.8.9-.2 1.9.2 2.3 1 .8-.2 1.4-.7 1.6-1.4.2-.9-.3-1.9-1.3-2.3M-222.5 420.2c.3-.5 1.6-2.3 3.9-2.7 2.6-.5 5.4.8 7 3.4-.7-.5-2.7-1.8-5.5-1.8-1.9 0-3.4.7-4.1 1.1l-1.8.8"/><path fill="#B64E96" d="M-215 419.5c.2.3.3.6.3 1 0 1.2-1 1.7-2.2 1.7s-2.2-.5-2.2-1.7c0-.5.2-1 .5-1.3"/><path fill="none" stroke="#B64E96" stroke-width=".5" stroke-linejoin="round" stroke-miterlimit="10" d="M-213 421.5c-.7.3-2 .8-3.8.7-1.7-.1-2.9-.7-3.5-1M-211.9 423.2c-.9.5-2.5 1.3-4.6 1.5-1.5.1-2.7 0-3.6-.2M-216.6 445.8c1.5.1 4.8.4 7.6-.7.7-.3 1.3-.6 1.9-.9l1.8 1.3h0l1.8-1.3c.5.3 1.1.6 1.9.9 2.8 1 6.1.7 7.6.7"/><path fill="none" stroke="#B64E96" stroke-width=".5" stroke-linejoin="round" stroke-miterlimit="10" d="M-217.1 446.3l.5-.5 7 .6 4.3.9h0l4.3-.9 6.9-.6.5.5"/><path fill="none" stroke="#B64E96" stroke-width=".5" stroke-linejoin="round" stroke-miterlimit="10" d="M-215.2 445.9c4.3 1.1 6.3 4.1 9.9 4.1h0c3.5 0 5.6-3 9.9-4.1M-215.5 441.8c-.3.1-2.2.6-3 2.5-.4.9-.4 1.8-.3 2.2"/><path fill="none" stroke="#B64E96" stroke-width=".5" stroke-miterlimit="10" d="M-224.1 381.4v14M-222.3 380.9V395M-209.6 380.6v15.7M-206 380.6v16.2M-207.8 380.5v16M-218.7 380.5v14.6M-216.9 380.5v14.9M-215.1 380.5v15.1M-213.3 380.5v15.2M-211.4 380.6v15.3M-220.5 380.5v14.4M-187.9 380.9V395M-189.7 380.7v14.2M-202.4 380.6v15.9M-204.2 380.5v16M-193.3 380.5v14.9M-195.1 380.5v15.1M-197 380.5v15.3M-198.8 380.5v15.3M-200.6 380.7v15.6M-191.5 380.5V395M-225.9 382.1v14.2M-227.8 383.2v14.6M-180.6 384.6V402M-182.5 383.3V398M-184.3 382.2v14.2M-186.1 381.4v14M-178.8 386.5v25.3M-231.5 386.6v25M-229.6 384.5V402M-233.3 389.4v26M-177 389.3V416"/></svg>