<svg xmlns="http://www.w3.org/2000/svg" viewBox="-139.9 300.5 91.7 117.5"><path fill="none" stroke="#B64E96" stroke-width=".5" stroke-miterlimit="10" d="M-86.6 398.9c5 0 17.3-24.3 17.3-24.3 1.8-3 2.6-15.1 2.6-18.6 0 0 1.1-17.9 1.1-23.9-7.3-14.5-20.1-18.4-28.4-18.4-8.7 0-19.4 3.6-28.5 18.4 0 7.4 1.4 23.9 1.4 23.9 0 3.5 1.1 16 2.9 19 0 0 11.7 23.9 16.7 23.9h14.9z"/><circle fill="#B64E96" cx="-81.2" cy="354.8" r=".5"/><path fill="none" stroke="#B64E96" stroke-width=".5" stroke-miterlimit="10" d="M-66.7 356h-1l-3.4-22.2h-45.2l-3.6 22.2h-1"/><path fill="none" stroke="#B64E96" stroke-width=".5" stroke-miterlimit="10" d="M-70.6 349.5l-3.9-1.7c-3.5.8-6.9 1.6-10.4 2.4-.4.1-5.2.9-6.5 4.5-1.4 3.9 2.3 7.5 2.5 7.8M-78.8 346l4.5-1.1 3.7 3"/><path fill="none" stroke="#B64E96" stroke-width=".5" stroke-linejoin="round" stroke-miterlimit="10" d="M-75.8 356.2c-.5-.5-2.2-2.1-4.9-2.4-3-.3-5.2 1.1-5.7 1.5 1.4.5 3.1.9 5.2 1.1 1.8.1 4.1-.1 5.4-.2"/><path fill="none" stroke="#B64E96" stroke-width=".5" stroke-linejoin="round" stroke-miterlimit="10" d="M-83.4 353.9c.1 1.3 1 2.6 2.5 2.4 1.1-.1 1.9-1 2-2.2"/><path fill="none" stroke="#B64E96" stroke-width=".5" stroke-linejoin="round" stroke-miterlimit="10" d="M-87.9 355.2c.4-.4 3.8-3.5 8.3-2.7 2.1.4 3.6 1.5 4.3 2.2M-97.2 371c.2 1.6 1.5 2.8 3.1 2.8 1.6.1 3.1-1.2 3.3-2.9M-90.1 372.4c.2-.5.6-1 1.1-1.1.6-.1 1 .5 1.4.3.6-.2 1.5-3.2-.7-4.5"/><circle fill="#B64E96" cx="-106.8" cy="354.8" r=".5"/><path fill="none" stroke="#B64E96" stroke-width=".5" stroke-miterlimit="10" d="M-117.5 349.5l3.9-1.7c3.5.8 6.9 1.6 10.4 2.4.4.1 5.2.9 6.5 4.5 1.4 3.9-2.3 7.5-2.5 7.8M-109.2 346l-4.5-1.1-3.8 3"/><path fill="none" stroke="#B64E96" stroke-width=".5" stroke-linejoin="round" stroke-miterlimit="10" d="M-112.2 356.2c.5-.5 2.2-2.1 4.9-2.4 3-.3 5.2 1.1 5.7 1.5-1.4.5-3.1.9-5.2 1.1-1.8.1-4.1-.1-5.4-.2"/><path fill="none" stroke="#B64E96" stroke-width=".5" stroke-linejoin="round" stroke-miterlimit="10" d="M-104.7 353.9c-.1 1.3-1 2.6-2.5 2.4-1.1-.1-1.9-1-2-2.2"/><path fill="none" stroke="#B64E96" stroke-width=".5" stroke-linejoin="round" stroke-miterlimit="10" d="M-100.1 355.2c-.4-.4-3.8-3.5-8.3-2.7-2.1.4-3.6 1.5-4.3 2.2M-97.9 372.4c-.2-.5-.6-1-1.1-1.1-.6-.1-1 .5-1.4.3-.6-.2-1.5-3.2.7-4.5"/><path fill="none" stroke="#B64E96" stroke-width=".5" stroke-linecap="round" stroke-linejoin="round" stroke-miterlimit="10" d="M-105.5 380.8l1-.7c.6.3 3.1 1.8 6.1.9 1.2-.4 2.1-1 2.7-1.5l1.7 1.8 1.7-1.8c.6.5 1.5 1.1 2.7 1.5 3 .8 5.5-.6 6.1-.9l1 .7"/><path fill="none" stroke="#B64E96" stroke-width=".5" stroke-miterlimit="10" d="M-104.5 380.1c.7.9 4.3 5.9 10.5 5.9s9.8-5 10.5-5.9M-104.2 380.4c6 2.8 14 2.8 20.5-.2M-112.2 320.2v13.6M-114 321.6v12.2M-115.8 323.5v10.3M-117.6 325.5v16.3M-110.4 318.8v15M-97.7 314v19.8M-94 313.7v20.1M-95.9 313.8v20M-106.7 316.7v17.1M-104.9 315.8v18M-103.1 315.2v18.6M-101.3 314.7v19.1M-99.5 314.2v19.6M-108.5 317.7v16.1M-119.4 327.7v25.4M-121.2 330.3v22.1M-75.9 319.6v14.1M-74.1 321.1v12.6M-72.3 322.7v11M-70.5 324.7V338M-77.7 318.4v15.3M-90.4 313.9v19.8M-92.2 313.7v20M-81.4 316.6v17.1M-83.2 315.8v17.9M-85 315.1v18.6M-86.8 314.6v19.1M-88.6 314.2v19.5M-79.5 317.4v16.3M-68.7 327v22.9M-66.9 329.7V356"/></svg>