<svg xmlns="http://www.w3.org/2000/svg" viewBox="-139.9 297.5 91.7 117.5"><path fill="none" stroke="#B64E96" stroke-width=".5" stroke-miterlimit="10" d="M-72.6 396.9c6.6 0 12-5.4 12-12l-2.2-57.3c0-6.6-5.4-12-12-12h-38.4c-6.6 0-12 5.4-12 12l-2.2 57.3c0 6.6 5.4 12 12 12h42.8zM-88.3 341.9v3.3M-86.5 344.2v-2.9M-84.7 340.9v2.5M-82.9 342.7v-1.9M-79.3 342.2v-1.5M-77.5 341v1.3M-73.8 342.3v1.4M-94 330.5v-14.9M-92.2 315.6v15.5M-90.3 330.7v-15.1M-88.5 315.6v14.8M-86.7 330.1v-14.5M-84.9 315.6v14.1M-83.1 329.4v-13.8M-81.3 315.6v13.5M-79.5 328.8v-13.1M-77.7 315.7v12.7M-75.8 328.1v-12.5M-74 315.6v12.2M-72.2 327.4v-11.5M-70.4 316.4v9.7M-68.6 325.7v-8.4M-94 331.3v-15.6M-95.8 315.7V331M-97.6 330.7v-15.1M-99.4 315.6v14.8M-101.2 330.1v-14.5M-103 315.7v14M-104.8 329.4v-13.7M-106.7 315.7v13.4M-108.5 328.8v-13M-110.3 315.8v12.6M-112.1 328.1v-12.4M-113.9 315.7v12.1M-115.7 327.4V316M-117.5 316.4v9.6M-119.3 325.7v-8.4M-121.2 318.6v7.5"/><path fill="none" stroke="#B64E96" stroke-width=".5" stroke-miterlimit="10" d="M-126.1 351.2l3.7-18.9c-1.5-2.1-.8-5 1.1-6.1 1.7-1 4.1-.5 5.5 1.3l21.8 4 21.8-4c1.3-1.8 3.7-2.3 5.5-1.3 2 1.2 2.6 4 1.1 6.1l3.7 18.4M-107.6 377.9c2.3-1.7 7-2.4 13-2.6 4.3-.1 11 1 11.3 1.8-1.2 2.7-4.5 5.9-8.9 7-5.3 1.3-9.8-.8-11.4-1.6"/><path fill="none" stroke="#B64E96" stroke-width=".5" stroke-miterlimit="10" d="M-85.1 349.6c0-.5 3.6-2.1 6.8-.8 2.4 1 4 3.4 3.7 3.8-.2.3-1.6-1-4.5-1.9-3.6-1.2-6-.7-6-1.1z"/><ellipse transform="scale(-1) rotate(14.725 2705.75 612.51)" fill="#B64E96" cx="-79.1" cy="349.6" rx="1.7" ry="1.2"/><path fill="none" stroke="#B64E96" stroke-width=".5" stroke-miterlimit="10" d="M-86 351c1 .9 2.8 2.1 5.3 2.9 2.2.7 4 .8 5.3.8"/><path fill="none" stroke="#B64E96" stroke-width=".5" stroke-linecap="round" stroke-linejoin="round" stroke-miterlimit="10" d="M-85.7 348.2c.4-.2 3.8-2.4 7.7-.9 2.9 1.1 4.2 3.6 4.5 4.2"/><path fill="none" stroke="#B64E96" stroke-width=".5" stroke-miterlimit="10" d="M-103.3 349.6c0-.5-3.6-2.1-6.8-.8-2.4 1-4 3.4-3.7 3.8.2.3 1.6-1 4.5-1.9 3.6-1.2 5.9-.7 6-1.1z"/><ellipse transform="rotate(-14.725 -109.216 349.517)" fill="#B64E96" cx="-109.2" cy="349.5" rx="1.7" ry="1.2"/><path fill="none" stroke="#B64E96" stroke-width=".5" stroke-miterlimit="10" d="M-102.4 351c-1 .9-2.8 2.1-5.3 2.9-2.2.7-4 .8-5.3.8"/><path fill="none" stroke="#B64E96" stroke-width=".5" stroke-linecap="round" stroke-linejoin="round" stroke-miterlimit="10" d="M-102.8 348.2c-.4-.2-3.8-2.4-7.7-.9-2.9 1.1-4.2 3.6-4.5 4.2"/><path fill="none" stroke="#B64E96" stroke-width=".5" stroke-miterlimit="10" d="M-123 328.6v-7.9M-124.8 324.6v20.3M-66.8 318.5v7.5M-64.9 328.5v-7.9M-63.1 324.5v19.9M-81.1 342.3v-1.7M-75.7 341.4v1.4M-72 343.6v1.6M-70.2 347v-1.3M-99.6 341.9v3.3M-101.4 344.2v-2.9M-103.2 340.9v2.5M-105 342.7v-1.9M-108.7 342.2v-1.5M-110.5 341v1.3M-114.1 342.3v1.4M-106.9 342.3v-1.7M-112.3 341.4v1.4M-115.9 343.6v1.6M-117.7 347v-1.3M-90.2 342.8v3.6M-97.8 342.8v3.6"/></svg>