<svg xmlns="http://www.w3.org/2000/svg" viewBox="-139.9 298.5 91.7 117.5"><path fill="none" stroke="#B64E96" stroke-width=".5" stroke-miterlimit="10" d="M-71.3 396.9h-45.4c-6.6 0-12-5.4-12-12v-57.2c0-6.6 5.4-12 12-12h45.4c6.6 0 12 5.4 12 12v57.2c0 6.6-5.4 12-12 12z"/><circle fill="#B64E96" cx="-100.2" cy="330" r=".5"/><circle fill="#B64E96" cx="-96.2" cy="330" r=".5"/><circle fill="#B64E96" cx="-92.3" cy="330" r=".5"/><circle fill="#B64E96" cx="-90.4" cy="327.2" r=".5"/><circle fill="#B64E96" cx="-86.3" cy="327.2" r=".5"/><circle fill="#B64E96" cx="-94.3" cy="327.2" r=".5"/><circle fill="#B64E96" cx="-103.8" cy="324.2" r=".5"/><circle fill="#B64E96" cx="-99.7" cy="324.2" r=".5"/><circle fill="#B64E96" cx="-95.8" cy="324.2" r=".5"/><circle fill="#B64E96" cx="-94.3" cy="321.4" r=".5"/><circle fill="#B64E96" cx="-90.3" cy="321.4" r=".5"/><circle fill="#B64E96" cx="-86.3" cy="321.4" r=".5"/><circle fill="#B64E96" cx="-98.2" cy="321.4" r=".5"/><circle fill="#B64E96" cx="-96.3" cy="318.6" r=".5"/><circle fill="#B64E96" cx="-92.3" cy="318.6" r=".5"/><circle fill="#B64E96" cx="-88.4" cy="318.6" r=".5"/><circle fill="#B64E96" cx="-100.2" cy="318.6" r=".5"/><circle fill="#B64E96" cx="-88.4" cy="318.6" r=".5"/><circle fill="#B64E96" cx="-100.2" cy="318.6" r=".5"/><circle fill="#B64E96" cx="-102.2" cy="321.4" r=".5"/><circle fill="#B64E96" cx="-92.3" cy="324.2" r=".5"/><circle fill="#B64E96" cx="-88.4" cy="324.2" r=".5"/><circle fill="#B64E96" cx="-84.3" cy="324.2" r=".5"/><circle fill="#B64E96" cx="-102.3" cy="327.2" r=".5"/><circle fill="#B64E96" cx="-98.2" cy="327.2" r=".5"/><circle fill="#B64E96" cx="-88.4" cy="330" r=".5"/><path fill="none" stroke="#B64E96" stroke-width=".5" stroke-miterlimit="10" d="M-101.9 346.4h-19.6c-.8 0-1.5-.7-1.5-1.5s.7-1.5 1.5-1.5h19.6c.8 0 1.5.7 1.5 1.5 0 .9-.7 1.5-1.5 1.5zM-66.6 346.4h-19.6c-.8 0-1.5-.7-1.5-1.5s.7-1.5 1.5-1.5h19.6c.8 0 1.5.7 1.5 1.5.1.9-.6 1.5-1.5 1.5zM-82.8 350.4h12.9"/><path fill="#B64E96" d="M-75.6 352.7H-77c-.7 0-1.3-.6-1.3-1.3 0-.7.6-1.3 1.3-1.3h1.4c.7 0 1.3.6 1.3 1.3-.1.7-.6 1.3-1.3 1.3z"/><path fill="none" stroke="#B64E96" stroke-width=".5" stroke-miterlimit="10" d="M-80.3 352.7h7.9M-68 358.3h-16.7c-1.6 0-3-1.4-3-3v-4.5c0-1.6 1.4-3 3-3H-68c1.6 0 3 1.4 3 3v4.5c0 1.7-1.4 3-3 3zM-105.3 350.4h-12.8"/><path fill="#B64E96" d="M-112.4 352.7h1.4c.7 0 1.3-.6 1.3-1.3 0-.7-.6-1.3-1.3-1.3h-1.4c-.7 0-1.3.6-1.3 1.3 0 .7.6 1.3 1.3 1.3z"/><path fill="none" stroke="#B64E96" stroke-width=".5" stroke-miterlimit="10" d="M-107.7 352.7h-8M-120 358.3h16.7c1.6 0 3-1.4 3-3v-4.5c0-1.6-1.4-3-3-3H-120c-1.6 0-3 1.4-3 3v4.5c0 1.7 1.3 3 3 3z"/><path fill="none" stroke="#B64E96" stroke-width=".5" stroke-miterlimit="10" d="M-100.4 352.7c.4-.4 3.2-2.1 6.3-2.1s5.9 1.8 6.3 2.2M-111.7 380.2h35.3c-1.9 1.6-8.2 3.8-17.7 4-7.8.2-13.4-.3-15.7-1.7M-128.7 352.7h5.7M-65 352.7h5.7"/></svg>