<svg xmlns="http://www.w3.org/2000/svg" viewBox="-94 238.8 91.7 117.5"><path fill="none" stroke="#B64E96" stroke-width=".5" stroke-miterlimit="10" d="M-77.2 290h-.7c-1.2 0-2.1.9-2.1 2.1v9.8c0 1.7 1.3 3 3 3h1.7M-19.1 290h.7c1.2 0 2.1.9 2.1 2.1v9.8c0 1.7-1.3 3-3 3H-21"/><path fill="none" stroke="#B64E96" stroke-width=".5" stroke-miterlimit="10" d="M-67.4 256.7c-6.1 0-9.5 5.4-9.5 12 0 0-.7 19.9 0 26.6.8 7.8 6.3 30.8 6.3 30.8 0 6.6 5 12 11.1 12h22.8c6.1 0 11.1-5.4 11.1-12 0 0 5.5-23 6.3-30.9.7-6.6 0-26.5 0-26.5 0-6.6-3.7-12-9.8-12"/><path fill="none" stroke="#B64E96" stroke-width=".5" stroke-miterlimit="10" d="M-35.2 263.6h-26.3c-3.3 0-6-2.7-6-6s2.7-6 6-6h26.3c3.3 0 6 2.7 6 6s-2.7 6-6 6zM-40 263.6v-11.9M-38.2 251.7v12M-36.4 263.6v-12M-34.6 251.6v12M-32.8 263.2v-11M-30.9 253.5v8.4M-40 263.7v-11.9M-41.8 251.8v11.8M-43.6 263.6v-11.9M-45.4 251.7v11.9M-47.3 263.6v-11.9M-49.1 251.8v11.8M-50.9 263.6v-11.8M-52.7 251.8v11.8M-54.5 263.6v-11.7M-56.3 251.9v11.7M-58.1 263.6v-11.8M-59.9 251.8v11.8M-61.8 263.6v-12M-63.6 252v11.3M-65.4 262.2v-9.1M-42.7 343.4v-15M-44.5 328.4v15M-46.4 343.4v-15.1M-48.2 328.3v15.1M-42.7 343.5v-15M-40.9 328.5v15M-39.1 342.5v-14.1M-37.3 328.4v12.9M-35.5 340.1v-12.5M-33.7 326.6v12M-31.9 336.7v-11.8M-30 323v12.5M-28.2 333.6v-12.7M-26.4 318.1v12M-24.6 321.3v-6.5M-22.8 310.3v2.9M-27.3 262.9v-6M-25.5 257.4v6.6M-23.7 265.6v-7.1M-21.9 260.4v7.6"/><path fill="none" stroke="#B64E96" stroke-width=".49998" stroke-miterlimit="10" d="M-70.68 281.17l17.995-1.94.268 2.486-17.995 1.94zM-25.957 283.511l-17.995-1.94.268-2.485 17.995 1.94z"/><path fill="none" stroke="#B64E96" stroke-width=".5" stroke-miterlimit="10" d="M-47 312.4v4.3l9.3 3.3h4.3v-3.1zM-38.5 315.3v4.5M-34.8 316.5v3.5M-36.7 315.9v4.1M-40.3 314.7v4.4M-42.1 314.1v4.4M-43.9 313.5v4.4M-45.7 312.9v4.3"/><path fill="none" stroke="#B64E96" stroke-width=".5" stroke-linejoin="round" stroke-miterlimit="10" d="M-39.2 319.4h-9"/><path fill="none" stroke="#B64E96" stroke-width=".5" stroke-miterlimit="10" d="M-47.3 321.7v3.4M-49.1 321.7v3.4M-50.9 321.7v3.4M-45.5 321.7v3.4M-48.2 328.4h9.2c2.1 0 4.1-.8 5.7-2.1 1.5-1.3 3.1-2.9 4.6-4.8 6-7.6 6.9-15.2 8.3-19.8M-53.6 343.4v-15M-51.8 328.4v15M-50 343.4v-15.1M-48.2 328.3v15.1M-53.6 343.5v-15M-55.4 328.5v15M-57.2 342.5v-14.1M-59 328.4v12.9M-60.9 340.1v-12.5M-62.7 326.6v12M-64.5 336.7v-11.8M-66.3 323v12.5M-68.1 333.6v-12.7M-69.9 318.1v12M-71.7 321.3v-6.5M-73.6 310.3v2.9M-49.4 312.4v4.3l-9.2 3.3h-4.3v-3.1zM-57.9 315.3v4.5M-61.5 316.5v3.5M-59.7 315.9v4.1M-56.1 314.7v4.4M-54.3 314.1v4.4M-52.4 313.5v4.4"/><path fill="none" stroke="#B64E96" stroke-width=".5" stroke-linejoin="round" stroke-miterlimit="10" d="M-57.1 319.4h8.9"/><path fill="none" stroke="#B64E96" stroke-width=".5" stroke-miterlimit="10" d="M-48.2 328.4h-9.2c-2.1 0-4.1-.8-5.7-2.1-1.5-1.3-3.1-2.9-4.6-4.8-6-7.6-6.9-15.2-8.3-19.8M-40.3 286.4c.6-.3 4.3-1.9 8-.2 1.3.6 2.2 1.5 2.8 2.1"/><circle fill="#B64E96" cx="-35.7" cy="287.6" r="2.4"/><path fill="none" stroke="#B64E96" stroke-width=".5" stroke-miterlimit="10" d="M-56.2 286.4c-.6-.3-4.3-1.9-8-.2-1.3.6-2.2 1.5-2.8 2.1"/><circle fill="#B64E96" cx="-60.9" cy="287.6" r="2.4"/><path fill="none" stroke="#B64E96" stroke-width=".5" stroke-miterlimit="10" d="M-30.8 261.8c1.3.4 4.9 1.3 7.3 4.1 3.4 3.8 4.2 8.6 4.2 9.8M-69.1 262.9v-6M-70.9 257.4v6.6M-72.8 265.6v-7.1M-74.6 260.4v7.6M-65.6 261.8c-1.3.4-4.9 1.3-7.3 4.1-3.4 3.8-4.2 8.6-4.2 9.8M-77.2 290h-.7c-1.2 0-2.1.9-2.1 2.1v9.8c0 1.7 1.3 3 3 3h1.7"/><path fill="none" stroke="#B64E96" stroke-width=".5" stroke-miterlimit="10" d="M-77.3 302.2c-2.2.4-3.5 1.8-2.8 3.8 1 3.2 4.5 1.4 4-1.1"/><path fill="none" stroke="#B64E96" stroke-width=".5" stroke-miterlimit="10" d="M-77.3 302.2c-2.2.4-3.5 1.8-2.8 3.8 1 3.2 4.5 1.4 4-1.1M-19 302.2c2.2.4 3.5 1.8 2.8 3.8-1 3.2-4.5 1.4-4-1.1M-52.3 307.2h8.3v-18.9"/></svg>