<svg xmlns="http://www.w3.org/2000/svg" viewBox="-251 362.4 91.7 117.5"><path fill="none" stroke="#B64E96" stroke-width=".5" stroke-miterlimit="10" d="M-213.6 395.8h-3.9c-6.1 0-11.1 5.4-11.1 12l-1.1 7.5v5.9c0 7.2 6.4 40.7 23.9 40.7h.1c16.1 0 24-33.5 24-40.7v-6l-1.2-9.7c0-3.4-.7-5.8-2.8-8"/><path fill="none" stroke="#B64E96" stroke-width=".5" stroke-miterlimit="10" d="M-182.1 426.3l2.2-6.5c1.8-3.8 2.9-10.9 2.1-14l-4.2-13.7c-1.1-4.4-4.3-7.9-8.6-9.3l.1-1.7c-1.1-.4-2.3-.6-3.5-.6h-23.6c-1.2 0-2.4.2-3.5.6l-2.4.8c-4.3 1.4-6.2 5.6-7.3 9.9l-1.8 14.3c-.5 3.4-.2 11.5.6 14.6l2.5 4.8"/><path fill="none" stroke="#B64E96" stroke-width=".5" stroke-miterlimit="10" d="M-225.5 399.5c-.8-3.6-1.4-10.4.4-11.4.3-.1 1.5-.8 4.4.7 5.8 2.9 8.7 9.3 9.9 12.9 4.7.2 11-.1 18.2-1.9 4.5-1.2 8.4-2.7 11.5-4.3"/><path fill="#B64E96" d="M-202.5 415.1h11.2c1.6 0 3.3.4 4.7 1.3l3 1.8-2.4-.4c-2-.3-4.1-.4-6.2-.3l-10.4.6v-3z"/><path fill="none" stroke="#B64E96" stroke-width=".5" stroke-miterlimit="10" d="M-198.3 428.2c-2.6-1.5-4.5-3.6-4.2-5.4.4-2.7 5.5-4.2 9.3-3.5 2.4.5 4.2 1.8 5.1 2.6"/><path fill="none" stroke="#B64E96" stroke-width=".5" stroke-miterlimit="10" d="M-200.8 423.4c.3-.5 1.3-2.3 3.4-3 2.4-.8 5.3.2 7.1 2.6"/><path fill="none" stroke="#B64E96" stroke-width=".5" stroke-miterlimit="10" d="M-198.1 420.9c0 1.4 1 2.5 2.2 2.5 1.3 0 2.5-1.2 2.4-2.6"/><circle fill="#B64E96" cx="-195.8" cy="421.3" r="1.1"/><path fill="none" stroke="#B64E96" stroke-width=".5" stroke-miterlimit="10" d="M-199.2 423.4h6.5M-209.1 440.1h3.3c1.9 0 3.4-1.5 3.4-3.4v-1.2M-197.8 447l.3 1.3"/><path fill="#B64E96" d="M-209.1 415.1h-11.2c-1.6 0-3.3.4-4.7 1.3l-3 1.8 2.4-.4c2-.3 4.1-.4 6.2-.3l10.4.6v-3z"/><path fill="none" stroke="#B64E96" stroke-width=".5" stroke-miterlimit="10" d="M-213.3 428.2c2.6-1.5 4.5-3.6 4.2-5.4-.4-2.7-5.5-4.2-9.3-3.5-2.4.5-4.2 1.8-5.1 2.6"/><path fill="none" stroke="#B64E96" stroke-width=".5" stroke-miterlimit="10" d="M-210.8 423.4c-.3-.5-1.3-2.3-3.4-3-2.4-.8-5.3.2-7.1 2.6"/><path fill="none" stroke="#B64E96" stroke-width=".5" stroke-miterlimit="10" d="M-213.5 420.9c0 1.4-1 2.5-2.2 2.5-1.3 0-2.5-1.2-2.4-2.6"/><circle fill="#B64E96" cx="-215.8" cy="421.3" r="1.1"/><path fill="none" stroke="#B64E96" stroke-width=".5" stroke-miterlimit="10" d="M-212.4 423.4h-6.5M-213.2 447.9c1.1-1 5.6-1.8 5.6-1.8l1.8 1.3 1.8-1.3s4.6.8 5.6 1.8M-214 447.9l5.5.3c.1.1.3.1.4.2.8.3 1.6.4 2.3.4.7 0 1.5-.1 2.3-.4.1-.1.3-.1.4-.2l5.5-.3"/><path fill="none" stroke="#B64E96" stroke-width=".5" stroke-miterlimit="10" d="M-213 448.5c.6.6 1.5 1.4 2.8 2 1.8.9 3.4 1 4.4 1.1 1 0 2.6-.2 4.4-1.1 1.3-.6 2.2-1.4 2.8-2M-213.8 447l-.3 1.3M-202.4 401.5v-21.1M-206 401.8v-21.4M-204.2 401.7v-21.3M-193.3 400v-19.6M-195.1 400.4v-20M-196.9 400.8v-20.4M-198.7 401v-20.6M-200.6 401v-20.6M-191.5 399.5v-18.7M-224.1 387.9v-5.8M-222.3 388.2v-6.7M-209.6 401.7v-21.3M-207.8 401.8v-21.4M-218.7 390.2v-9.8M-216.9 391.6v-11.2M-215 393.6v-13.2M-213.2 396.3v-15.9M-211.4 400v-19.6M-220.5 388.9v-8M-225.9 389.4v-6.3M-187.9 398.4v-14.3M-189.7 399v-15.9M-178.8 417v-14.5M-180.6 421.8v-25.2M-182.4 409.6v-18.9M-184.2 399.7v-12.3M-186.1 397.7v-12.3"/><path fill="#B64E96" d="M-225.3 399.3c-1.8-5.1-.8-10.6.3-11.2 2.2-1.2 7.6 1.6 11.5 7.9-1.3.1-3.8-.7-7 .2-1.9.6-3 1.4-3.8 2.1l-1 1z"/><path fill="none" stroke="#B64E96" stroke-width=".5" stroke-miterlimit="10" d="M-227.7 403.2v-18.3M-229.5 414.2V388M-231.4 421.8v-25.5"/></svg>