<svg xmlns="http://www.w3.org/2000/svg" viewBox="-94 238.8 91.7 117.5"><path fill="none" stroke="#B64E96" stroke-width=".5" stroke-miterlimit="10" d="M-19.3 267.3c.2 2.3-.7 8.1 4.1 14.6 2.2 2.9 4.8 4.5 6.5 5.3-.2.3-1.9 2.2-4.6 2.1-2.1-.1-4.8-1.9-5.8-3.9-.4 4.2 1.9 7.2 5.7 7.4l-5.9 6.5M-77 267.3c-.2 2.3.7 8.1-4.1 14.6-2.2 2.9-4.8 4.5-6.5 5.3.2.3 1.9 2.2 4.6 2.1 2.1-.1 4.8-1.9 5.8-3.9.4 4.2-1.9 7.2-5.7 7.4l5.9 6.5"/><path fill="none" stroke="#B64E96" stroke-width=".5" stroke-miterlimit="10" d="M-67.3 330c-6.6 0-9.7-5.4-9.7-12v-51.1c0-6.6 5-12 11.6-12h34.5c6.6 0 11.6 5.7 11.6 12.3v51c0 6.6-3.1 11.7-9.7 11.7"/><path fill="none" stroke="#B64E96" stroke-width=".5" stroke-miterlimit="10" d="M-70.7 314.6c0 17.9 9.3 25.6 22.5 25.6s22.5-7.7 22.5-25.6M-33.7 254.9v19.4M-35.5 254.9v19.4M-44.5 254.9v19.4M-48.2 254.9v19.4M-46.3 254.9v19.4M-42.7 254.9v19.4M-40.8 254.9v19.4M-39 254.9v19.4M-37.3 254.9v19.4"/><path fill="#B64E96" d="M-42.3 280.3h19.1v3.8h-19.1zM-73 280.3h19.1v3.8H-73z"/><path fill="none" stroke="#B64E96" stroke-width=".5" stroke-miterlimit="10" d="M-53.5 280.3v3.8M-42.8 280.3v3.8M-54.8 316.2c1.5 1.8 3.4 3.5 6.2 3.5 3.5 0 6.2-3.2 7-2.5.5.5-.5 2.4-.7 2.7-1.2 2.1-4.3 5.7-7.8 4.8-1.9-.5-3-2.1-3.5-3"/><path fill="none" stroke="#B64E96" stroke-width=".5" stroke-miterlimit="10" d="M-34.3 320.5h-1.5c-.3 0-.6-.2-.7-.4l-2.2-3.6c-.2-.2-.4-.4-.7-.4h-8.7v-4.9h11.7c1.7 0 2.9 1.4 2.9 3v5.4c0 .5-.3.9-.8.9zM-35.5 320.5v-9.1M-37.3 311.2v7.7M-39 316.1v-4.9M-40.8 311.2v4.9M-42.7 316.1v-4.9M-44.5 311.2v4.9M-46.3 316.1v-4.9"/><path fill="none" stroke="#B64E96" stroke-width=".5" stroke-miterlimit="10" d="M-34.3 320.5h-1.5c-.3 0-.6-.2-.7-.4l-2.2-3.6c-.2-.2-.4-.4-.7-.4h-8.7v-4.9h11.7c1.7 0 2.9 1.4 2.9 3v5.4c0 .5-.3.9-.8.9zM-35.5 320.5v-9.1M-37.3 311.2v7.7M-39 316.1v-4.9M-40.8 311.2v4.9M-42.7 316.1v-4.9M-44.5 311.2v4.9M-46.3 316.1v-4.9"/><path fill="none" stroke="#B64E96" stroke-width=".5" stroke-miterlimit="10" d="M-61.8 320.5h1.5c.3 0 .6-.2.7-.4l2.2-3.6c.2-.2.4-.4.7-.4h8.7v-4.9h-11.7c-1.7 0-2.9 1.4-2.9 3v5.4c-.2.5.3.9.8.9zM-60.8 320.5v-9.1M-59 311.2v7.7M-57.2 316.1v-4.9M-55.3 311.2v4.9M-53.5 316.1v-4.9M-51.8 311.2v4.9M-50 316.1v-4.9M-45.5 333.5v6.5M-47.3 326.9v13.2M-49 326.9v13.2M-50.8 326.9v3.4M-27.5 316.4v10.1M-29.3 330.5V319M-31 325.2v7.9M-32.8 335v-6.9M-34.7 330.1v6.3M-36.5 337.5v-6M-38.3 332.4v6M-40.2 339v-5.9M-42 333.5v6M-43.8 339.8v-6.2M-21 321.8v3.9M-23 327.9v-5.1M-24.8 323.4v5.7M-26.5 329.6v-6.2M-45.5 326.9v3.4M-50.8 333.5v6.5M-68.8 316.4v10.1M-67 330.5V319M-65.2 325.2v7.9M-63.3 335v-6.9M-61.5 330.1v6.3M-59.8 337.5v-6M-58 332.4v6M-56.2 339v-5.9M-54.3 333.5v6M-52.5 339.8v-6.2M-75.2 321.8v3.9M-73.3 327.9v-5.1M-71.5 323.4v5.6M-69.8 329.8v-6.4M-41.3 290.7c1.2-2.5 3.6-4.1 6.2-4.2 3.1-.1 5 2.1 5.3 2.4M-36 285.1c.9-.1 3.4-.3 5.8 1.2 1.2.7 2.1 1.6 2.6 2.3"/><path fill="none" stroke="#B64E96" stroke-width=".5" stroke-miterlimit="10" d="M-32.8 288.1c0 1.3-1 2.3-2.3 2.3s-2.3-1-2.3-2.3 1-1.5 2.3-1.5c1.3-.1 2.3.2 2.3 1.5z"/><path fill="none" stroke="#B64E96" stroke-width=".5" stroke-miterlimit="10" d="M-40 289.7c1 .4 3 1 5.4.7 1.7-.2 3-.7 3.8-1.1M-39.7 291.5c.8.4 2.5 1.1 4.8 1 1.8-.1 3.1-.6 3.9-1"/><circle fill="#B64E96" cx="-35" cy="288.2" r=".8"/><path fill="none" stroke="#B64E96" stroke-width=".5" stroke-miterlimit="10" d="M-54.8 290.7c-1.2-2.5-3.6-4.1-6.2-4.2-3.1-.1-5 2.1-5.3 2.4M-60.2 285.1c-.9-.1-3.4-.3-5.8 1.2-1.2.7-2.1 1.6-2.6 2.3"/><path fill="none" stroke="#B64E96" stroke-width=".5" stroke-miterlimit="10" d="M-63.5 288.1c0 1.3 1 2.3 2.3 2.3s2.3-1 2.3-2.3-1-1.5-2.3-1.5c-1.3-.1-2.3.2-2.3 1.5z"/><path fill="none" stroke="#B64E96" stroke-width=".5" stroke-miterlimit="10" d="M-56.3 289.7c-1 .4-3 1-5.4.7-1.7-.2-3-.7-3.8-1.1M-56.5 291.5c-.8.4-2.5 1.1-4.8 1-1.8-.1-3.1-.6-3.9-1"/><circle fill="#B64E96" cx="-61.3" cy="288.2" r=".8"/><path fill="none" stroke="#B64E96" stroke-width=".5" stroke-miterlimit="10" d="M-17.3 278.4v9.1M-15.5 281.6v7.2M-28.2 255.3v20.2M-31.8 255v19.3M-30 255v19.7M-26.3 255.9v20.7M-24.5 256.9v21.2M-22.8 258.5v21.8M-21 261v22.4M-13.5 283.8v5.5M-17.3 291.1v5.9M-15.5 292.4v2.6M-62.7 254.9v19.4M-60.8 254.9v19.4M-51.8 254.9v19.4M-48.2 254.9v19.4M-50 254.9v19.4M-53.5 254.9v19.4M-55.3 254.9v19.4M-57.2 254.9v19.4M-59 254.9v19.4M-79 278.4v9.1M-80.8 281.6v7.2M-68 255.3v20.2M-64.5 255v19.3M-66.3 255v19.7M-69.8 255.9v20.7M-71.7 256.9v21.2M-73.5 258.4v21.9M-75.3 260.7v22.7M-82.8 283.8v5.5M-84.7 285.4v3.7M-79 291.1v5.9M-80.8 292.4v2.6"/></svg>