<svg xmlns="http://www.w3.org/2000/svg" viewBox="-139.9 297.5 91.7 117.5"><path fill="none" stroke="#B64E96" stroke-width=".5" stroke-miterlimit="10" d="M-109.5 317.3h-3.7c-6.6 0-12 5.4-12 12v43.9c0 10.6 17.1 25.4 31.2 25.4 14 0 31.2-13.7 31.2-25.4v-43.9c0-6.6-5.4-12-12-12h-3.7"/><circle fill="#B64E96" cx="-77.9" cy="325.6" r=".5"/><circle fill="#B64E96" cx="-66.1" cy="350.3" r=".5"/><circle fill="#B64E96" cx="-70.1" cy="331.4" r=".5"/><circle fill="#B64E96" cx="-73.9" cy="319.8" r=".5"/><circle fill="#B64E96" cx="-72.1" cy="334.2" r=".5"/><circle fill="#B64E96" cx="-75.9" cy="322.6" r=".5"/><circle fill="#B64E96" cx="-71.9" cy="322.6" r=".5"/><circle fill="#B64E96" cx="-76" cy="334.2" r=".5"/><circle fill="#B64E96" cx="-73.9" cy="325.6" r=".5"/><circle fill="#B64E96" cx="-68.1" cy="322.6" r=".5"/><circle fill="#B64E96" cx="-69.9" cy="319.8" r=".5"/><circle fill="#B64E96" cx="-66" cy="325.6" r=".5"/><circle fill="#B64E96" cx="-64" cy="334.4" r=".5"/><circle fill="#B64E96" cx="-64" cy="328.5" r=".5"/><circle fill="#B64E96" cx="-65.9" cy="337.4" r=".5"/><circle fill="#B64E96" cx="-65.9" cy="331.5" r=".5"/><circle fill="#B64E96" cx="-68.1" cy="334.2" r=".5"/><circle fill="#B64E96" cx="-73.9" cy="331.5" r=".5"/><circle fill="#B64E96" cx="-64" cy="340.6" r=".5"/><circle fill="#B64E96" cx="-70.1" cy="325.6" r=".5"/><circle fill="#B64E96" cx="-72" cy="328.5" r=".5"/><circle fill="#B64E96" cx="-68.1" cy="328.5" r=".5"/><circle fill="#B64E96" cx="-76" cy="328.5" r=".5"/><circle fill="#B64E96" cx="-80.7" cy="352.5" r=".8"/><path fill="none" stroke="#B64E96" stroke-width=".5" stroke-miterlimit="10" d="M-83.6 313.8c1.7 0 3.3.8 4.3 2.2 1.4 2 3.2 4.7 3 5.9-.4 2.4-2.4 4.2-4.4 4.7-2.8.7-4.2-1.6-7.6-1.5-2.4.1-4.5 1.3-5.7 2.3-1.2-.9-3.2-2.2-5.7-2.3-3.4-.1-4.8 2.2-7.6 1.5-2-.5-4-2.3-4.4-4.7-.2-1.2 1.6-4 3-5.9 1-1.4 2.6-2.2 4.3-2.2h20.8z"/><circle fill="#B64E96" cx="-74.2" cy="337.4" r=".5"/><circle fill="#B64E96" cx="-70.1" cy="337.4" r=".5"/><circle fill="#B64E96" cx="-72.1" cy="340.6" r=".5"/><circle fill="#B64E96" cx="-68.1" cy="340.6" r=".5"/><circle fill="#B64E96" cx="-70.1" cy="343.8" r=".5"/><circle fill="#B64E96" cx="-66.1" cy="343.8" r=".5"/><circle fill="#B64E96" cx="-68.1" cy="346.9" r=".5"/><circle fill="#B64E96" cx="-64.1" cy="346.9" r=".5"/><circle fill="#B64E96" cx="-110.4" cy="325.6" r=".5"/><circle fill="#B64E96" cx="-122.3" cy="350.3" r=".5"/><circle fill="#B64E96" cx="-118.2" cy="331.4" r=".5"/><circle fill="#B64E96" cx="-114.5" cy="319.8" r=".5"/><circle fill="#B64E96" cx="-116.2" cy="334.2" r=".5"/><circle fill="#B64E96" cx="-112.4" cy="322.6" r=".5"/><circle fill="#B64E96" cx="-116.5" cy="322.6" r=".5"/><circle fill="#B64E96" cx="-112.3" cy="334.2" r=".5"/><circle fill="#B64E96" cx="-114.5" cy="325.6" r=".5"/><circle fill="#B64E96" cx="-120.2" cy="322.6" r=".5"/><circle fill="#B64E96" cx="-118.4" cy="319.8" r=".5"/><circle fill="#B64E96" cx="-122.4" cy="325.6" r=".5"/><circle fill="#B64E96" cx="-124.3" cy="334.4" r=".5"/><circle fill="#B64E96" cx="-124.3" cy="328.5" r=".5"/><circle fill="#B64E96" cx="-122.4" cy="337.4" r=".5"/><circle fill="#B64E96" cx="-122.4" cy="331.5" r=".5"/><circle fill="#B64E96" cx="-120.2" cy="334.2" r=".5"/><circle fill="#B64E96" cx="-114.5" cy="331.5" r=".5"/><circle fill="#B64E96" cx="-124.3" cy="340.6" r=".5"/><circle fill="#B64E96" cx="-118.2" cy="325.6" r=".5"/><circle fill="#B64E96" cx="-116.4" cy="328.5" r=".5"/><circle fill="#B64E96" cx="-120.2" cy="328.5" r=".5"/><circle fill="#B64E96" cx="-112.3" cy="328.5" r=".5"/><circle fill="#B64E96" cx="-114.2" cy="337.4" r=".5"/><circle fill="#B64E96" cx="-118.2" cy="337.4" r=".5"/><circle fill="#B64E96" cx="-116.2" cy="340.6" r=".5"/><circle fill="#B64E96" cx="-120.2" cy="340.6" r=".5"/><circle fill="#B64E96" cx="-118.2" cy="343.8" r=".5"/><circle fill="#B64E96" cx="-122.3" cy="343.8" r=".5"/><circle fill="#B64E96" cx="-120.2" cy="346.9" r=".5"/><circle fill="#B64E96" cx="-64.1" cy="346.9" r=".5"/><path fill="none" stroke="#B64E96" stroke-width=".5" stroke-miterlimit="10" d="M-77.7 324.8v-6.3M-90.4 325.5v-11.7M-94 327.4v-13.6M-92.2 326.2v-12.4M-81.3 326.9v-12.5M-83.1 326.6v-12.8M-84.9 325.9v-12.1M-86.7 325.3v-11.5M-88.6 325.2v-11.4M-79.5 326.2v-10.4M-110.3 324.8v-6.3M-97.6 325.5v-11.6M-95.8 326.2v-12.3M-106.7 326.8v-12.4M-104.9 326.6v-12.7M-103.1 325.9v-12M-101.2 325.3v-11.4M-99.4 325.2v-11.3M-108.5 326.2v-10.4M-125.2 370.5c3.6 13.9 17 23.5 31.2 23.3 13.9-.2 27.6-9.8 31.2-23.3M-69.7 347.5c-2-.9-4.9-2.1-8.7-2.5-5.3-.6-9.6.5-12 1.4v3.9c1.9-1.1 5-2.5 9.1-3 5.7-.7 10.2.6 12.5 1.5M-118.4 347.5c2-.9 4.9-2.1 8.7-2.5 5.3-.6 9.6.5 12 1.4v3.9c-1.9-1.1-5-2.5-9.1-3-5.7-.7-10.2.6-12.5 1.5"/><path fill="none" stroke="#B64E96" stroke-width=".5" stroke-miterlimit="10" d="M-101.2 378.9l5-2.7 2.2.7 2.2-.7 5 2.7"/><path fill="none" stroke="#B64E96" stroke-width=".5" stroke-miterlimit="10" d="M-103.5 379l.6-.5c.6.2 1.6.5 2.7.5 1.4.1 2.7-.6 3.4-.9l2.8.4 2.8-.4c.7.2 2 .9 3.4.9 1.2 0 2.1-.3 2.7-.5l.6.5"/><path fill="none" stroke="#B64E96" stroke-width=".5" stroke-miterlimit="10" d="M-101.8 378.7c1.4.7 3.9 2.4 7.7 2.4 4 0 6.8-1.8 8.2-2.5M-97.3 384.4c.4-.3 1.6-1.1 3.3-1.2 1.5 0 2.6.6 3 .8M-85.9 354.1c.2-.4 1.4-2.5 3.9-3.1s5.2.6 6.7 3.1"/><path fill="none" stroke="#B64E96" stroke-width=".5" stroke-miterlimit="10" d="M-78.7 352.5c-.1 1.2-1.1 2.1-2.2 2s-2-1.2-1.9-2.4c.1-1.2 1.1-1.3 2.3-1.2s1.9.4 1.8 1.6z"/><path fill="none" stroke="#B64E96" stroke-width=".5" stroke-miterlimit="10" d="M-84.8 354.1c.8.3 2.2.8 3.9.8 2.2 0 3.8-.6 4.7-1"/><path fill="none" stroke="#B64E96" stroke-width=".5" stroke-miterlimit="10" d="M-86.1 354c1.1-2.7 3.7-4.6 6.4-4.3 2.3.2 4.4 1.9 5.2 4.2"/><circle fill="#B64E96" cx="-106.8" cy="352.5" r=".8"/><path fill="none" stroke="#B64E96" stroke-width=".5" stroke-miterlimit="10" d="M-101.4 354.1c-.2-.4-1.6-2.5-4.1-3.1s-5.2.6-6.7 3.1"/><path fill="none" stroke="#B64E96" stroke-width=".5" stroke-miterlimit="10" d="M-108.9 352.5c.1 1.2 1.1 2.1 2.2 2s2-1.2 1.9-2.4c-.1-1.2-1.1-1.3-2.3-1.2s-1.9.4-1.8 1.6z"/><path fill="none" stroke="#B64E96" stroke-width=".5" stroke-miterlimit="10" d="M-102.8 354.1c-.8.3-2.2.8-3.9.8-2.2 0-3.8-.6-4.7-1"/><path fill="none" stroke="#B64E96" stroke-width=".5" stroke-miterlimit="10" d="M-101.2 354c-1.1-2.7-3.9-4.6-6.7-4.3-2.3.2-4.4 1.9-5.2 4.2"/><circle fill="#B64E96" cx="-92.1" cy="371.9" r=".5"/><circle fill="#B64E96" cx="-90.2" cy="374.2" r=".5"/><circle fill="#B64E96" cx="-88.4" cy="371.9" r=".5"/><circle fill="#B64E96" cx="-86.7" cy="374.2" r=".5"/><circle fill="#B64E96" cx="-84.8" cy="376.5" r=".5"/><circle fill="#B64E96" cx="-93.9" cy="374.2" r=".5"/><circle fill="#B64E96" cx="-95.7" cy="371.9" r=".5"/><circle fill="#B64E96" cx="-97.6" cy="374.2" r=".5"/><circle fill="#B64E96" cx="-99.5" cy="371.9" r=".5"/><circle fill="#B64E96" cx="-101.2" cy="374.2" r=".5"/><circle fill="#B64E96" cx="-103.1" cy="376.5" r=".5"/><path fill="none" stroke="#B64E96" stroke-width=".5" stroke-miterlimit="10" d="M-62.8 369.8c.1.1 1.1 1 2 1 1.2.1 2.2-1.2 2.2-2.3 0-1.4-.2-2.9-.2-2.9s-.2-.9.8-1.5c2.6-1.7 2.8-6.3 2.1-9.1-.2-1-1-4.6-2.8-4.8-1.3-.1-3.4 1.8-4.2 4.6l.1 15z"/><path fill="none" stroke="#B64E96" stroke-width=".5" stroke-miterlimit="10" d="M-62.8 357.6c.7-3.2 3.6-5 4.9-4.8 1.3.2 2.8 2.8 2.3 6.6M-125.2 369.8c-.1.1-1.1 1-2 1-1.2.1-2.2-1.2-2.2-2.3 0-1.4.2-2.9.2-2.9s.2-.9-.8-1.5c-2.6-1.7-2.8-6.3-2.1-9.1.2-1 1-4.6 2.8-4.8 1.3-.1 3.4 1.8 4.2 4.6l-.1 15z"/><path fill="none" stroke="#B64E96" stroke-width=".5" stroke-miterlimit="10" d="M-125.2 357.6c-.7-3.2-3.6-5-4.9-4.8s-2.8 2.8-2.3 6.6M-123.9 374.2v4.3M-122.1 377.9v4M-109.4 390v3.7M-105.8 391.7v3.9M-107.6 390.9v3.9M-118.5 382.9v3.5M-116.7 384.8v3.4M-114.9 386.4v3.4M-113.1 387.8v3.5M-111.3 389v3.5M-120.3 380.6v3.7M-87.7 393.1v4.7M-89.5 393.4v4.7M-102.2 392.8v4.3M-104 392.3v4.1M-93.1 393.8v4.9M-94.9 393.8v4.9M-96.8 393.7v4.7M-98.6 393.5v4.6M-100.4 393.2v4.5M-91.3 393.7v5M-64.1 374.2v4.8M-65.9 377.8v4.6M-78.6 389.7v4.2M-82.2 391.4v4.5M-80.4 390.6v4.4M-69.5 382.6v4.4M-71.3 384.5v4.2M-73.2 386.1v4.2M-75 387.4v4.3M-76.8 388.7v4.2M-67.7 380.4v4.6M-85.8 392.8v4.3M-84 392.3v4.3"/></svg>