<svg xmlns="http://www.w3.org/2000/svg" viewBox="-94 238.8 91.7 117.5"><path fill="none" stroke="#B64E96" stroke-width=".5" stroke-miterlimit="10" d="M-64.1 333.6h-3.3c-6.6 0-12-5.4-12-12v-57.4c0-6.6 5.4-12 12-12H-29c6.6 0 12 5.4 12 12v57.3c0 6.6-5.4 12-12 12h-3.2"/><path fill="none" stroke="#B64E96" stroke-width=".5" stroke-miterlimit="10" d="M-64.1 333.6h-3.3c-6.6 0-12-5.4-12-12v-57.4c0-6.6 5.4-12 12-12H-29c6.6 0 12 5.4 12 12v57.3c0 6.6-5.4 12-12 12h-3.2"/><path fill="none" stroke="#B64E96" stroke-width=".5" stroke-miterlimit="10" d="M-78.7 260.3c.3-.7 3.3-5 8.3-3 4.2 1.7 5.5 4.5 8 6.7 2.3 2 6.5 3.9 14.2 3.2 7.8.8 11.9-1.2 14.2-3.2 2.5-2.1 3.8-5 8-6.7 5-2 8 2.3 8.3 3M-48.2 267.1v-14.9M-46.3 252.2v15.1M-44.5 267.1v-15M-42.7 252.1v15.1M-40.9 267.1v-15M-39.1 252.2v14.5M-37.3 266v-13.8M-35.5 252.2v12.9M-33.7 263.7v-11.4M-31.8 252.3v9.6M-30 259.9v-7.7M-28.2 252.2v6.3M-26.4 257.5v-5M-24.6 253.2v3.7M-22.8 256.8v-2.7M-21 255.4v1.9"/><g fill="none" stroke="#B64E96" stroke-width=".5" stroke-miterlimit="10"><path d="M-48.2 267.2v-14.9M-50 252.3v15.1M-51.8 267.1v-14.9M-53.6 252.2v15.1M-55.4 267.1v-14.9M-57.2 252.3v14.4M-59 266v-13.7M-60.8 252.3v12.8M-62.7 263.8v-11.4M-64.5 252.4v9.5M-66.3 260v-7.7M-68.1 252.3v6.2M-69.9 257.6v-5M-71.7 253.2v3.7M-73.5 256.8v-2.7M-75.3 255.4v2"/></g><path fill="none" stroke="#B64E96" stroke-width=".5" stroke-miterlimit="10" d="M-22.8 276.5c-4.1-2.5-6.8-2.5-8.7-2-3.1.8-6.9 4.9-10.7 4.9v2c4.6-.3 8.8-4.1 11.1-5.1 1.5-.7 4.5-1.6 8.3.2zM-73.3 276.5c4.1-2.5 6.8-2.5 8.7-2 3.1.8 6.9 4.9 10.7 4.9v2c-4.6-.3-8.8-4.1-11.1-5.1-1.5-.7-4.5-1.6-8.3.2zM-44 319.3l-4.2 4.9-4.1-4.9zM-48.2 319.3v4.9M-46.3 319.3v2.8M-50 319.3v2.8M-37 312.5c-19.1-1.5-23.7-.9-23.9 0-.2 1.1 5.8 3.4 11.1 3.8 4.9.4 8.7-.9 10.8-1.7"/><path fill="none" stroke="#B64E96" stroke-width=".5" stroke-miterlimit="10" d="M-48.2 343.2l-5.4 4.1-12.1-16 8.5-12 9 9.4 9.1-9.4 8.5 12-12.1 16zM-48.2 328.7v14.5M-46.3 344.6v-17.8M-44.5 325.1v21M-42.7 347.3v-24.2M-40.9 321.2V345M-39.1 342.6v-23.1M-37.3 321.9v18.3M-35.5 337.8v-13.4M-33.7 327v8.4M-31.8 332.9v-3.3M-50 344.5v-17.8M-51.8 325v21M-53.6 347.2V323M-55.4 321.1v23.8M-57.2 342.5v-23.1M-59 321.8v18.3M-60.8 337.7v-13.4M-62.7 326.9v8.4M-64.5 332.8v-3.3M-37.1 285h10.5c-.9-2.2-3-3.6-5.3-3.6-2.1 0-4.2 1.7-5.2 3.6z"/><path fill="#B64E96" d="M-30.3 284c0 1-.7 1-1.6 1s-1.6 0-1.6-1 .7-2.6 1.6-2.6 1.6 1.6 1.6 2.6z"/><path fill="none" stroke="#B64E96" stroke-width=".5" stroke-miterlimit="10" d="M-59.2 285h-10.5c.9-2.2 3-3.6 5.3-3.6 2 0 4.2 1.7 5.2 3.6z"/><path fill="#B64E96" d="M-66 284c0 1 .7 1 1.6 1s1.6 0 1.6-1-.7-2.6-1.6-2.6S-66 283-66 284z"/><circle fill="#B64E96" cx="-46.3" cy="304.9" r=".5"/><circle fill="#B64E96" cx="-44.5" cy="307.2" r=".5"/><circle fill="#B64E96" cx="-42.6" cy="304.9" r=".5"/><circle fill="#B64E96" cx="-40.9" cy="307.2" r=".5"/><circle fill="#B64E96" cx="-39" cy="309.5" r=".5"/><circle fill="#B64E96" cx="-37.2" cy="307.2" r=".5"/><circle fill="#B64E96" cx="-35.2" cy="309.5" r=".5"/><circle fill="#B64E96" cx="-33.3" cy="311.8" r=".5"/><circle fill="#B64E96" cx="-31.5" cy="309.5" r=".5"/><circle fill="#B64E96" cx="-48.2" cy="307.2" r=".5"/><circle fill="#B64E96" cx="-50" cy="304.9" r=".5"/><circle fill="#B64E96" cx="-51.9" cy="307.2" r=".5"/><circle fill="#B64E96" cx="-53.7" cy="304.9" r=".5"/><circle fill="#B64E96" cx="-55.4" cy="307.2" r=".5"/><circle fill="#B64E96" cx="-57.3" cy="309.5" r=".5"/><circle fill="#B64E96" cx="-59.1" cy="307.2" r=".5"/><circle fill="#B64E96" cx="-61.1" cy="309.5" r=".5"/><circle fill="#B64E96" cx="-63" cy="311.8" r=".5"/><circle fill="#B64E96" cx="-64.8" cy="309.5" r=".5"/><path fill="none" stroke="#B64E96" stroke-width=".5" stroke-miterlimit="10" d="M-40.3 281v-2M-38.5 278.3v2.2M-36.7 279.6v-2.3M-34.8 276.1v2.4M-33 277.4V275M-31.2 274.4v1.9M-29.4 275.7v-1.5M-27.6 274.5v1.1M-55.9 281v-2M-57.7 278.3v2.2M-59.5 279.6v-2.3M-61.3 276.1v2.4M-63.1 277.4V275M-64.9 274.4v1.9M-66.8 275.7v-1.5M-68.6 274.5v1.1M-69.9 287H-59M-37.3 287h10.9"/></svg>