<svg xmlns="http://www.w3.org/2000/svg" viewBox="-139.9 297.5 91.7 117.5"><path fill="none" stroke="#B64E96" stroke-width=".5" stroke-miterlimit="10" d="M-67.7 368.6c.9 2.1 5.6 1.8 6.3-1.8.9-4.9.1-11.1-.4-12.3M-120.2 368.6c-.9 2.1-5.6 1.8-6.3-1.8-.9-4.9-.1-11.1.4-12.3"/><path fill="none" stroke="#B64E96" stroke-width=".5" stroke-miterlimit="10" d="M-121.7 358.1l2.8 21.5c0 5.2 10.9 16 19.1 20.1 2.3 1.1 4.2.7 5.8.7 1.8 0 4 .2 6-.5 9.2-3.6 18.9-14.8 18.9-20.3l2.8-21.6"/><path fill="none" stroke="#B64E96" stroke-width=".5" stroke-miterlimit="10" d="M-94 334.9h-17.8c-1.3 0-2.4.8-2.8 2l-8.8 26.4c-1-1.3-5.1-14.3-4.7-28.9.4-15.2 12.5-22.3 34.1-22.3s33.7 7.1 34.1 22.3c.4 14.5-3.6 27.6-4.7 28.9l-8.8-26.4c-.4-1.2-1.5-2-2.8-2H-94"/><g fill="none" stroke="#B64E96" stroke-width=".5" stroke-miterlimit="10"><path d="M-112.1 314.4v20.5M-113.9 315.1v20.6M-115.7 315.8v24.4M-110.3 313.9v21M-97.6 312.2v22.7M-94 312.2v22.7M-95.8 312.1v22.8M-106.6 313.1v21.8M-104.8 312.8v22.1M-103 312.6v22.3M-101.2 312.4v22.5M-99.4 312.3v22.6M-108.5 313.5v21.4M-75.8 314.4v20.5M-74 315.1v20.6M-72.2 315.8v24.4M-77.6 314v20.9M-90.3 312.2v22.7M-92.1 312.1v22.8M-81.3 313.1v21.8M-83.1 312.8v22.1M-84.9 312.6v22.3M-86.7 312.4v22.5M-88.5 312.3v22.6M-79.5 313.5v21.4M-123 320.8v41.3M-124.8 323.1v36.5M-126.6 326.6v25.5M-121.1 319.1v37.5M-117.5 316.7v29M-119.3 317.8V351M-65 320.8v41.3M-63.1 323.1v36.5M-61.3 326.6v25.5M-66.8 319.1v37.5M-70.4 316.7v29M-68.6 317.8V351"/></g><g fill="none" stroke="#B64E96" stroke-width=".5" stroke-miterlimit="10"><path stroke-linejoin="round" d="M-90.3 351.8c.1-.8.6-1.5 1.3-1.8 3-1.3 7.5-2.6 12.5-1.5 3.4.7 6.9 5.6 6.7 6.2s-4.2-3-9.1-2.5c-4.1.4-8.3 1.3-11 2.7-.3.2-.7-.1-.7-.5l.3-2.6z"/><path d="M-89 350v4.4M-87.2 349.3v4.4M-74.5 349.3v3.3M-70.9 352.7v1.6M-72.7 350.7v2.6M-83.6 348.3v4.5M-81.7 348.1v4.3M-79.9 348v4.2M-78.1 348.2v3.9M-76.3 348.5v3.7M-85.4 348.7v4.5"/></g><g fill="none" stroke="#B64E96" stroke-width=".5" stroke-miterlimit="10"><path stroke-linejoin="round" d="M-97.6 351.8c-.1-.8-.6-1.5-1.3-1.8-3-1.3-7.5-2.6-12.5-1.5-3.4.7-6.9 5.6-6.7 6.2s4.2-3 9.1-2.5c4.1.4 8.3 1.3 11 2.7.3.2.7-.1.7-.5l-.3-2.6z"/><path d="M-98.9 350v4.4M-100.7 349.3v4.4M-113.4 349.3v3.3M-117 352.7v1.6M-115.2 350.7v2.6M-104.3 348.3v4.5M-106.1 348.1v4.3M-107.9 348v4.2M-109.8 348.2v3.9M-111.6 348.5v3.7M-102.5 348.7v4.5"/></g><path fill="none" stroke="#B64E96" stroke-width=".5" stroke-miterlimit="10" d="M-86.8 359.3c.2-.5 1.4-3.2 4.3-4.1 2.9-1 6.3.2 8.4 3"/><path fill="none" stroke="#B64E96" stroke-width=".5" stroke-miterlimit="10" d="M-85.9 358.9c.7.4 3 1.6 6 1.1 2.5-.4 4.1-1.6 4.8-2.2"/><path fill="#B64E96" d="M-78.3 356.5c0 1.5-1.1 2.6-2.5 2.6s-2.5-1.2-2.5-2.6 1.2-1.7 2.6-1.7 2.4.3 2.4 1.7z"/><path fill="none" stroke="#B64E96" stroke-width=".5" stroke-miterlimit="10" d="M-87.6 358.3c1.6-2.9 4.6-4.8 7.8-4.8 4.5 0 7.1 3.4 7.3 3.8M-101.1 359.3c-.2-.5-1.4-3.2-4.3-4.1-2.9-1-6.3.2-8.4 3"/><path fill="none" stroke="#B64E96" stroke-width=".5" stroke-miterlimit="10" d="M-102 358.9c-.7.4-3 1.6-6 1.1-2.5-.4-4.1-1.6-4.8-2.2"/><path fill="#B64E96" d="M-109.6 356.5c0 1.5 1.1 2.6 2.5 2.6s2.5-1.2 2.5-2.6-1.2-1.7-2.6-1.7-2.4.3-2.4 1.7z"/><path fill="none" stroke="#B64E96" stroke-width=".5" stroke-miterlimit="10" d="M-100.3 358.3c-1.6-2.9-4.6-4.8-7.8-4.8-4.5 0-7.1 3.4-7.3 3.8M-96.5 355.5v21.4h5.1v-21.4M-103.6 384.5l.9-.5h17.5l.4.8M-98.1 388.7c.4-.3 1.9-1.4 4.1-1.3 1.9.1 3.1 1.1 3.5 1.4"/></svg>