<svg xmlns="http://www.w3.org/2000/svg" viewBox="-139.9 297.5 91.7 117.5"><circle fill="#B64E96" cx="-83.8" cy="349.9" r=".5"/><path fill="none" stroke="#B64E96" stroke-width=".5" stroke-linecap="round" stroke-linejoin="round" stroke-miterlimit="10" d="M-123.6 325.2c0-6.6 5.4-12 12-12h33.7c6.6 0 12 5.4 12 12"/><path fill="none" stroke="#B64E96" stroke-width=".5" stroke-linecap="round" stroke-linejoin="round" stroke-miterlimit="10" d="M-93.7 313.2c-9.1 2.3-17.2 9.9-22.1 19.9-3.8 7.8-2.6 13.5-1.7 23.4.9 10.9 2 24.6-2 42.7 0 0-6.6-2.4-7.2-5.9-2.1-11.7-2.4-28.9-.7-42.5 1.2-9.4 3.8-14.5 3.8-25.7"/><path fill="none" stroke="#B64E96" stroke-width=".5" stroke-linecap="round" stroke-linejoin="round" stroke-miterlimit="10" d="M-96.1 314.5c3.7 8.4 8.3 13.1 11.8 15.8 4.8 3.7 7.8 3.9 10.6 7.7 4.2 5.6 3 12.6 2.5 18.2-2 21.7-1.6 27.4 1.1 42.8 2.1.8 9.6-5.5 10.2-7.7 2.4-10.2-5.7-40-5.9-66.1M-94.7 399.4c1 .1 5.8.4 9.8-2.9 1.6-1.3 2.5-2.8 3-4.4v-12c-.1-2.9-8.4-6.7-9.8-7l-2.9 1.8v3.5h9.1c.3.7.6 1.6.8 2.8.2 1.6 1 4.9-.9 6.5-.3.3-1.5 1-3.5.9v-6.4h-5.5v17.2h-.1z"/><path fill="none" stroke="#B64E96" stroke-width=".5" stroke-miterlimit="10" d="M-89.2 388.6v10.2M-85.6 387.6v9.4M-87.4 388.6v9.4M-92.8 382.2v17.2M-91 382.2v17M-112.8 380.1v5.5M-114.6 377.9v5.5M-109.2 384.5v5.5M-111 382.3v5.4"/><path fill="none" stroke="#B64E96" stroke-width=".5" stroke-linecap="round" stroke-linejoin="round" stroke-miterlimit="10" d="M-101.9 379.4c-.1.9 1.4 1.8 2.3 1.8h6.5M-87.3 379.4c.1.9-1.4 1.8-2.3 1.8H-93"/><path fill="none" stroke="#B64E96" stroke-width=".5" stroke-miterlimit="10" d="M-83.8 377.5v17.9M-85.6 376.2v2.2M-89.2 374.2v4.2M-87.4 375.1v3.3M-92.8 373.8v4.6M-91 373.4v5"/><path fill="none" stroke="#B64E96" stroke-width=".5" stroke-linejoin="round" stroke-miterlimit="10" d="M-90.1 341.2h10.5v2.5h-10.5z"/><path fill="none" stroke="#B64E96" stroke-width=".5" stroke-linecap="round" stroke-linejoin="round" stroke-miterlimit="10" d="M-79.6 343.7l4.9 3.7-4.9-6.2"/><path fill="none" stroke="#B64E96" stroke-width=".5" stroke-linejoin="round" stroke-miterlimit="10" d="M-109.8 341.2h10.5v2.5h-10.5z"/><path fill="none" stroke="#B64E96" stroke-width=".5" stroke-linecap="round" stroke-linejoin="round" stroke-miterlimit="10" d="M-109.8 343.7l-4.8 3.7 4.8-6.2M-77.5 350.5c-1.2-.2-2.9-.6-4.8-1.5-1.6-.8-2.8-1.7-3.6-2.5M-87.8 351.2c.2-.3 1.1-1.9 3.1-2.2.9-.2 2.2 0 2.6.1"/><path fill="none" stroke="#B64E96" stroke-width=".5" stroke-linecap="round" stroke-linejoin="round" stroke-miterlimit="10" d="M-86.9 350.4c.4.3 1.7 1.2 3.5 1.1 1.6 0 2.8-.8 3.2-1.1"/><circle fill="none" stroke="#B64E96" stroke-width=".5" stroke-linecap="round" stroke-linejoin="round" stroke-miterlimit="10" cx="-83.8" cy="349.9" r="1.4"/><path fill="none" stroke="#B64E96" stroke-width=".5" stroke-linecap="round" stroke-linejoin="round" stroke-miterlimit="10" d="M-89.9 349.7c1.2 2.5 3.7 4 6.4 4 3.1-.1 4.9-2.4 5.2-2.8"/><path fill="none" stroke="#B64E96" stroke-width=".5" stroke-linecap="round" stroke-linejoin="round" stroke-miterlimit="10" d="M-90.1 343.7c-4 4.4-4 14.9 1.4 20 .8 1.5.3 3.2-.8 3.9-.7.4-1 2.3-5.2 2.3"/><circle fill="#B64E96" cx="-105.6" cy="349.9" r=".5"/><path fill="none" stroke="#B64E96" stroke-width=".5" stroke-linecap="round" stroke-linejoin="round" stroke-miterlimit="10" d="M-94.6 399.4c-1 .1-5.8.4-9.8-2.9-1.6-1.3-2.5-2.8-3-4.4v-12c.1-2.9 8.4-6.7 9.8-7l2.9 1.8v3.5h-9.1c-.3.7-.6 1.6-.8 2.8-.2 1.6-1 4.9.9 6.5.3.3 1.5 1 3.5.9v-6.4h5.5v17.2h.1z"/><path fill="none" stroke="#B64E96" stroke-width=".5" stroke-miterlimit="10" d="M-100.1 388.6v10.2M-103.7 387.6v9.4M-101.9 388.6v9.4M-96.5 382.2v17.2M-98.3 382.2v17M-105.6 377.5v17.9M-103.7 376.2v2.2M-100.1 374.2v4.2M-101.9 375.1v3.3M-96.5 373.8v4.6M-98.3 373.4v5"/><path fill="none" stroke="#B64E96" stroke-width=".5" stroke-linecap="round" stroke-linejoin="round" stroke-miterlimit="10" d="M-111.8 350.5c1.2-.2 2.9-.6 4.8-1.5 1.6-.8 2.8-1.7 3.6-2.5M-101.5 351.2c-.2-.3-1.1-1.9-3.1-2.2-.9-.2-2.2 0-2.6.1"/><path fill="none" stroke="#B64E96" stroke-width=".5" stroke-linecap="round" stroke-linejoin="round" stroke-miterlimit="10" d="M-102.4 350.4c-.4.3-1.7 1.2-3.5 1.1-1.6 0-2.8-.8-3.2-1.1"/><circle fill="none" stroke="#B64E96" stroke-width=".5" stroke-linecap="round" stroke-linejoin="round" stroke-miterlimit="10" cx="-105.6" cy="349.9" r="1.4"/><path fill="none" stroke="#B64E96" stroke-width=".5" stroke-linecap="round" stroke-linejoin="round" stroke-miterlimit="10" d="M-99.4 349.7c-1.2 2.5-3.7 4-6.4 4-3.1-.1-4.9-2.4-5.2-2.8"/><path fill="none" stroke="#B64E96" stroke-width=".5" stroke-miterlimit="10" d="M-99.2 343.7c4 4.4 4 14.9-1.4 20-.8 1.5-.3 3.2.8 3.9.7.4 1 2.3 5.2 2.3"/><path fill="none" stroke="#B64E96" stroke-width=".5" stroke-linecap="round" stroke-linejoin="round" stroke-miterlimit="10" d="M-107.4 392.1l-9.5-11.5M-81.9 392.1l9.5-11.5"/><path fill="none" stroke="#B64E96" stroke-width=".5" stroke-miterlimit="10" d="M-76.5 380.1v5.5M-74.7 377.9v5.5M-80.1 384.5v5.5M-78.3 382.3v5.4M-119.2 315.9v81.7M-121 317.7v80.9M-122.8 321v76.5M-124.6 337v59.3M-126.4 345.6v48.6M-117.3 358.5v27.6M-104.7 313.1v5.7M-101 313.2v3.1M-102.8 313.1v4.4M-113.7 313.1v16.2M-111.9 313.1v13.5M-110.1 313.1v11.2M-108.3 313.1v9M-106.5 313.1v7.3M-115.5 313.8v18.6M-117.3 314.7V337M-92 313.1v9M-93.8 313.1v6.1M-72.1 314.7v26.1M-97.4 313.1v1.3M-99.2 313.1v2.1M-90.2 313.1v11.4M-77.5 313.1v21.5M-73.8 313.8v24M-75.7 313.4v22.5M-86.5 313.1v15.3M-84.7 313.1V330M-82.9 313.1v18.3M-81.1 313.1v19.4M-79.3 313.1v20.5M-88.3 313.1v13.6M-63 356.2v38.9M-68.4 317.7v81.1M-64.8 342.3v54.3M-66.6 320.9v77M-61.3 368.3v25.1M-70.3 315.9v81.8M-83.2 341.1v2.6M-86.8 341.1v2.6M-85 341.1v2.6M-81.4 341.1v2.7M-88.6 341.2v2.7M-77.9 343.3v1.7M-106.2 341.1v2.6M-102.6 341.1v2.6M-104.4 341.1v2.6M-108 341.1v2.7M-100.8 341.2v2.7M-111.5 343.3v1.7"/></svg>