<svg xmlns="http://www.w3.org/2000/svg" viewBox="-139.9 297.5 91.7 117.5"><path fill="none" stroke="#B64E96" stroke-width=".5" stroke-linejoin="round" stroke-miterlimit="10" d="M-88.5 397c18.6 0 17.6-25.9 19.9-37.2 6-29.1-.4-44.2-24.8-44.2-24.5 0-33.4 14.8-25.2 44.2 3.1 11.1 1.4 37.1 20.3 37.1 5 .1 7.1.1 9.8.1zM-91.6 389.8v7.2M-91.6 383.6v3.4M-91.6 374.9v5M-78.9 382.9v10.8M-75.2 382.7v6.6M-77.1 381.5v10.3M-87.9 389.5v7.5M-87.9 375.5v4.7M-86.1 388.9v7.9M-86.1 375.9v4.3M-84.3 387.4v9.1M-84.3 376.2v3.8M-82.5 376.7v19.2M-80.7 381.8V395M-89.7 389.8v7.2M-89.7 383.8v1.8M-89.7 375.2v4.8M-71.9 377.9v3M-73.4 380.5v5.1"/><path fill="#B64E96" d="M-88.8 349.2l9.7-1.9h.4l5.9 2.6c.2.1.4.3.4.6v.7c0 .5-.5.8-.9.6l-4.5-1.6h-.3l-8.2 1.4c-.1 0-.3 0-.4-.1l-2.2-1.2c-.6-.2-.5-1 .1-1.1z"/><path fill="none" stroke="#B64E96" stroke-width=".5" stroke-linejoin="round" stroke-miterlimit="10" d="M-86.3 356.6c.5-.6 1.5-1.8 3.3-2.4 3.4-1.1 6.3.9 6.7 1.1"/><circle fill="#B64E96" cx="-80.9" cy="355.2" r=".8"/><path fill="none" stroke="#B64E96" stroke-width=".5" stroke-linejoin="round" stroke-miterlimit="10" d="M-79.2 354.1c.1.2.3.5.3.7 0 1.1-.9 2.1-2 2.1s-2.1-.9-2.1-2c0-.2.2-.7.2-.7s1.1-.3 1.7-.3c.8 0 1.4.1 1.4.1l.5.1zM-93.4 373.5h1.8c1-1.8 1.7-2.2 2.3-2.2.5 0 .8.4 1.2.3.6-.2 1-1.1 1.1-1.7.1-1.2-.7-2.4-2.1-3.1M-93.4 397v-8c.2.1 4.5 2 7.9-.5 1.9-1.5 2.9-3.8 2.9-5.8 0-.4 0-2.3-.9-2.7-.4-.2-.8 0-.9 0-1 .3-3.4.3-9-.4v-4.9c3.4.5 6.3 1 8.7 1.5 1.4.3 3.3.7 3.7 1.9.2.7-.1 1.3.1 2.7.2 1 .2 1.5.6 1.8.8.7 2.7.3 3.1-.6.5-.9-.3-2.2.7-1.8.9.4-.6 2.6.6 2.8.7.1 4.9-3.4 6-13.3"/><path fill="none" stroke="#B64E96" stroke-width=".5" stroke-linejoin="round" stroke-miterlimit="10" d="M-93.4 387.3h1.8l3.9-3.5h-5.7zM-84.4 379.9c-1.1.8-4.3 2.8-8.8 2.7-3.8-.1-6.6-1.6-7.8-2.4M-68.4 358.6c2.2-9.2.8-16.6 0-21-1.1-5.9-1.9-11.2-6.3-15.1-3.6-3.2-10.8-5.3-18.6-4.9-7.8-.4-15.3 1.7-18.8 4.9-4.4 3.9-5.2 9.2-6.3 15.1-.8 4.4-2.6 11.8-.4 21M-95.2 389.8v7.2M-95.2 383.6v3.4M-95.2 374.9v5M-107.9 382.9v10.8M-111.5 382.7v6.6M-109.7 381.5v10.3M-98.8 389.5v7.5M-98.8 375.5v4.7M-100.6 388.9v7.9M-100.6 375.9v4.3M-102.4 387.4v9.1M-102.4 376.2v3.8M-104.2 376.7v19.2M-106.1 381.8V395M-97 389.8v7.2M-97 383.8v1.8M-97 375.2v4.8M-114.8 377.9v3M-113.3 380.5v5.1"/><path fill="#B64E96" d="M-98 349.2l-9.7-1.9h-.4l-5.9 2.6c-.2.1-.4.3-.4.6v.7c0 .5.5.8.9.6l4.5-1.6h.3l8.2 1.4c.1 0 .3 0 .4-.1l2.2-1.2c.7-.2.5-1-.1-1.1z"/><path fill="none" stroke="#B64E96" stroke-width=".5" stroke-linejoin="round" stroke-miterlimit="10" d="M-100.4 356.6c-.5-.6-1.5-1.8-3.3-2.4-3.4-1.1-6.3.9-6.7 1.1"/><circle fill="#B64E96" cx="-105.8" cy="355.2" r=".8"/><path fill="none" stroke="#B64E96" stroke-width=".5" stroke-linejoin="round" stroke-miterlimit="10" d="M-107.6 354.1c-.1.2-.3.5-.3.7 0 1.1.9 2.1 2 2.1s2.1-.9 2.1-2c0-.2-.2-.7-.2-.7s-1.1-.3-1.7-.3c-.8 0-1.4.1-1.4.1l-.5.1zM-93.4 373.5h-1.8c-1-1.8-1.7-2.2-2.3-2.2-.5 0-.8.4-1.2.3-.6-.2-1-1.1-1.1-1.7-.1-1.2.7-2.4 2.1-3.1M-93.4 397v-8c-.2.1-4.5 2-7.9-.5-1.9-1.5-2.9-3.8-2.9-5.8 0-.4 0-2.3.9-2.7.4-.2.8 0 .9 0 1 .3 3.4.3 9-.4v-4.9c-3.4.5-6.3 1-8.7 1.5-1.4.3-3.3.7-3.7 1.9-.2.7.1 1.3-.1 2.7-.2 1-.2 1.5-.6 1.8-.8.7-2.7.3-3.1-.6-.5-.9.3-2.2-.7-1.8-.9.4.6 2.6-.6 2.8-.7.1-4.9-3.4-6-13.3"/><path fill="none" stroke="#B64E96" stroke-width=".5" stroke-linejoin="round" stroke-miterlimit="10" d="M-93.4 387.3h-1.7l-3.9-3.5h5.6zM-87.8 353.1c-1.6.2-3 1.4-3.4 2.9-.6 2 .8 3.6.9 3.7M-98.9 353.1c1.6.2 3 1.4 3.4 2.9.6 2-.8 3.6-.9 3.7M-91.6 373.5c1.6-2.3 1.6-3.9 1.4-5-.2-.9-.6-1.1-.9-2.3-.4-1.7-.1-2.8.1-4.1M-83.9 356.9h6M-109.1 356.9h6"/></svg>