<svg xmlns="http://www.w3.org/2000/svg" viewBox="-87 238.8 106.1 117.5"><path fill="none" stroke="#B64E96" stroke-width=".5" stroke-linecap="round" stroke-linejoin="round" stroke-miterlimit="10" d="M-8.7 305.4v23.4c0 6.6-5.4 12-12 12H-56c-6.6 0-12-5.4-12-12v-16.2"/><path fill="none" stroke="#B64E96" stroke-width=".5" stroke-miterlimit="10" d="M-47.9 259.6c.1 6.7 12 14.5 22.8 18.7 10.7 4.1 11.1 1.9 14.6 6.3 3.6 4.5-.8 21 3.8 26.7 3.5 4.4 9.5 5.9 11.1 6.1 4.5.6 12-.8 13.4-6.3 1.2-4.7-2.7-10.3-6.7-11.1-3.5-.7-5.6 2.8-7.4 1.8-3.2-1.6 2-12.3-.3-23.9-.2-.8-2.8-11-10.8-18.2-3.2-3-40.5-.1-40.5-.1z"/><path fill="none" stroke="#B64E96" stroke-width=".5" stroke-miterlimit="10" d="M-47.9 259.6v4.2c-3 2.5-11 4.3-16.6 8.8-13.1 10.5.3 41-4.3 41-3.4 0 .6-4.3-2.3-5.6-1.3-.6-5.9-2-8.1-2.2-2.3-.1-6-1.3-6.8-4.2-.7-2.4.7-5.7 2.5-6 1.6-.3 2.6 2 4.3 1.8 2.4-.3 3.5-5.6 3.7-6.8 2.9-13.7-1.8-19.4 1.5-25.5 4.3-8 20-10.8 26.1-5.5z"/><path fill="#B64E96" d="M-9.2 288.9c-1.4-1.1-3.9-2.2-7.5-3.6-3.2.1-15.2 3.1-16.7 4.1l1.9 2.9c1.9-1.3 9.3-4.9 14.6-5.6 3.5.7 5.7 1.7 7.7 2.2M-68 289.1c1.4-1.1 4.4-2.4 8-3.8 3.2.1 15.2 3.1 16.7 4.1l-1.9 2.9c-1.9-1.3-9.3-4.9-14.6-5.6-3.5.7-6.1 1.9-8.2 2.4"/><path fill="none" stroke="#B64E96" stroke-width=".5" stroke-miterlimit="10" d="M-14.9 296.7c-.6-.6-3.1-2.7-6.8-2.7-4.9 0-7.8 3.5-8.2 4 1.2.5 3.7 1.4 6.9 1 2.8-.3 4.8-1.3 5.8-2"/><circle fill="#B64E96" cx="-23" cy="296.6" r="2.3"/><path fill="none" stroke="#B64E96" stroke-width=".5" stroke-miterlimit="10" d="M-28.5 294c.2-.2 3.5-3.9 8.4-3 3.9.7 5.8 3.9 6 4.4M-62.3 296.7c.6-.6 3.1-2.7 6.8-2.7 4.9 0 7.8 3.5 8.2 4-1.2.5-3.7 1.4-6.9 1-2.8-.3-4.8-1.3-5.8-2"/><circle fill="#B64E96" cx="-54.3" cy="296.6" r="2.3"/><path fill="none" stroke="#B64E96" stroke-width=".5" stroke-miterlimit="10" d="M-48.6 294c-.2-.2-3.5-3.9-8.4-3-3.9.7-5.8 3.9-6 4.4M-53.3 324.1h29.8c-1.9 1.4-7.6 5.1-15.6 5.1-5.8 0-10.2-2.1-12.4-3.3"/><circle fill="none" stroke="#B64E96" stroke-width=".5" stroke-linecap="round" stroke-linejoin="round" stroke-miterlimit="10" cx="-57.1" cy="309.8" r="6"/><circle fill="none" stroke="#B64E96" stroke-width=".5" stroke-linecap="round" stroke-linejoin="round" stroke-miterlimit="10" cx="-19.6" cy="309.8" r="6"/><path fill="none" stroke="#B64E96" stroke-width=".5" stroke-miterlimit="10" d="M-84.1 295.9v8.3M-82.3 295.9v9.3M-76.9 294.9v11.3M-80.5 297.3v8.4M-78.7 297.3v8.6M-75.1 287.7v19M-73.3 263.9v43.3M-71.4 262v45.9M-66 258.7V274M-69.6 260.6v20.6M-67.8 259.5v17M-56.9 256.9v11.3M-58.8 257v12M-60.6 257.2v12.7M-62.4 257.6v13.5M-64.2 258.1v14.2M-55.1 257v10.3M-24.3 258.4v20.2M-26.1 258.4v19.4M-31.6 258.6v16.9M-27.9 258.5v18.6M-29.8 258.6v17.7M-33.4 258.7v15.7M-35.2 258.8v14.7M-37 258.9v13.5M-42.4 259.2v9.1M-38.8 259v12.1M-40.6 259.1v10.6M-51.5 257.8v8M-49.7 258.4v6.5M-47.9 261.2v2.6M-46.1 259.5v4.8M-44.3 259.3v7.3M-53.3 257.2v9.4M-22.5 258.3v21M-20.7 258.3v21.5M-15.3 258.4v22.9M-18.9 258.3v22M-17.1 258.4v22.3M-13.4 258.5V282M-11.6 258.6v24.7M-9.8 258.8v27M-4.4 262.8v50.8M-8 259.3v49.5M-6.2 260.8v51.1M-.8 268v47.8M-2.6 265.1v49.7M13.7 301.3v14.5M17.4 306v6.3M15.6 302.9v11.7M11.9 300.3v16.3M10.1 300v17.1M8.3 300.3v17.1M2.9 276v20.3M6.5 301.2v16.3M4.7 302v15.4M1.1 271.4v45.1M2.9 300.9v16.3M-69.6 298.8v14.8"/></svg>