<svg xmlns="http://www.w3.org/2000/svg" viewBox="-139.9 300.5 91.7 117.5"><g fill="none" stroke="#B64E96" stroke-width=".5" stroke-miterlimit="10"><path d="M-102.5 383.6l7.2-1.7 1.5 1 1.6-1 7.2 1.7"/><path d="M-103.8 382.9l2 1.1h6.1l1.9.7 2-.7h6.1l1.9-1.1"/><path d="M-101.3 384c1.1.7 3.8 2.6 7.6 2.6 3.9 0 6.4-1.9 7.4-2.6"/></g><g fill="none" stroke="#B64E96" stroke-width=".5" stroke-miterlimit="10"><path d="M-92 375.6v4.5M-88.3 375.8v4.4M-86.5 376.2v4.3M-84.8 376.9v4.5M-82.8 377.9v4.7M-81 380v3.9M-90.2 375.6v4.9M-93.8 375.9v3.9M-95.5 375.6v4.5M-99.2 375.8v4.4M-101 376.2v4.3M-102.8 376.9v4.5M-104.7 377.9v4.7M-106.5 380v3.9M-97.3 375.6v4.9"/></g><path fill="none" stroke="#B64E96" stroke-width=".5" stroke-miterlimit="10" d="M-93.8 388.7v4.9M-92 388.7v2.8M-95.7 388.7v2.8M-89.3 359.5c-.3-.4-1.4-2.5-.9-5.1.5-2.2 1.9-3.5 2.4-3.9.4-.4 3.1-3.4 7.5-3.3 4.9.1 7.6 3.9 7.8 4.3"/><path fill="none" stroke="#B64E96" stroke-width=".5" stroke-miterlimit="10" d="M-87.7 353.1c1.7-1.3 3.3-1.6 4.2-1.8 2.9-.4 5.3.9 7 1.8 1.1.6 1.9 1.2 2.5 1.7"/><path fill="none" stroke="#B64E96" stroke-width=".5" stroke-miterlimit="10" d="M-86.8 354.8c.5-.6.9-1.8 2.8-2.7 2.5-.4 6 1 7.8 3.4"/><ellipse transform="matrix(.079 -.9969 .9969 .079 -427.927 244.478)" fill="none" stroke="#B64E96" stroke-width=".5" stroke-miterlimit="10" cx="-81.7" cy="353.8" rx="1.5" ry="2.1"/><circle fill="#B64E96" cx="-81.7" cy="353.8" r=".7"/><path fill="none" stroke="#B64E96" stroke-width=".5" stroke-miterlimit="10" d="M-86.2 354.7c1 .3 2.4.7 4 .8 1.9.1 3.5-.1 4.6-.4M-88.3 355c.6.8 2.5 2.9 5.7 3.9s6 .3 6.9 0M-99.3 359.5c.3-.4 1.4-2.5.9-5.1-.5-2.2-1.9-3.5-2.4-3.9-.5-.5-4.3-4.1-9.9-3.4-3.9.4-6.3 2.7-7.1 3.5"/><path fill="none" stroke="#B64E96" stroke-width=".5" stroke-miterlimit="10" d="M-101.2 353.1c-1.7-1.3-3.3-1.6-4.2-1.8-2.9-.4-5.3.9-7 1.8-1.1.6-1.9 1.2-2.5 1.7"/><path fill="none" stroke="#B64E96" stroke-width=".5" stroke-miterlimit="10" d="M-102 354.8c-.5-.6-.9-1.8-2.8-2.7-2.5-.4-6 1-7.8 3.4"/><ellipse transform="matrix(.079 .9969 -.9969 .079 254.085 432.663)" fill="none" stroke="#B64E96" stroke-width=".5" stroke-miterlimit="10" cx="-107.1" cy="353.8" rx="1.5" ry="2.1"/><circle fill="#B64E96" cx="-107.2" cy="353.8" r=".7"/><path fill="none" stroke="#B64E96" stroke-width=".5" stroke-miterlimit="10" d="M-102.8 354.7c-1 .3-2.4.7-4 .8-1.9.1-3.5-.1-4.6-.4M-99.5 355c-.6.8-2.5 2.9-5.7 3.9s-6 .3-6.9 0"/><g fill="none" stroke="#B64E96" stroke-width=".5" stroke-miterlimit="10"><path d="M-93.8 374.1c1.3.1 2.1-.3 2.5-.6.7-.5.8-1.1 1.5-1.3.9-.3 2 .2 2 .5 0 .1-.3.3-1.6.5M-93.8 374.1c-1.3.1-2.1-.3-2.5-.6-.7-.5-.8-1.1-1.5-1.3-.9-.3-2 .2-2 .5 0 .1.3.3 1.6.5"/><path d="M-88.5 373.6c1.5-.1 2-.8 2.1-1 .7-1.1-.1-3.5-2.7-5.2M-99.3 373.6c-1.5-.1-2-.8-2.1-1-.7-1.1.1-3.5 2.7-5.2"/></g><path fill="none" stroke="#B64E96" stroke-width=".5" stroke-miterlimit="10" d="M-109.2 388.3v9.2M-105.5 392.2v7.6M-107.3 385.9v12.8M-116.5 385.3v5.1M-114.7 381.8v10.8M-112.8 383v11.4M-111 390.1v6.1M-102 396.2v5.5M-103.8 394.7v6.1M-94.7 398.1v5.3M-96.5 397.9v5.1M-98.3 397.6v5M-100.2 397.1v5.3M-78.3 388.3v9.2M-82 392.3v7.5M-80.3 385.9v12.8M-71.2 385.3v5.1M-73 381.8v10.8M-74.8 383.1v11.3M-76.5 390.1v6.1M-85.7 396.3v5.4M-83.8 394.8v6M-92.8 398.1v5.3M-91 398v5M-89.3 397.6v5M-87.5 397.1v5.3M-111.8 318.4v7.4M-110 314.8V327M-97.3 313.7v9.9M-93.7 314.7v8.9M-95.5 313.9v9.7M-106.3 312.8v14.7M-104.5 312.8v17.7M-102.8 313.5v11.4M-101 314.8v8.8M-99.2 314.1v9.2M-108.2 313.4v13.8M-75.5 314.8v10.8M-77.3 314.3v10.5M-90 313.2v14.3M-91.8 316.4v7.1M-81 315.2v9.8M-82.8 313.1v12.8M-84.7 312.1v15.1M-86.5 311.9v19.3M-88.3 312.3v14.4M-79.2 313.9v10.7M-73.8 317.9v9.3M-72 320v11.2M-71 329.5l5.2 3.6M-70 328l5.2 3.6M-73 332.5l5.2 3.6M-72 331l5.2 3.6M-64.7 352.5c.6 0 2.9-4.1 5.7-1.5 2.5 2.4.9 8.7.5 10.1-1.1 4-4.7 9.3-7.2 8.9M-123.3 352.5c-.6 0-2.9-4.1-5.7-1.5-2.5 2.4-.9 8.7-.5 10.1 1.1 4 4.8 9.4 7.3 9M-113.7 314.8v11.3M-115.5 315.9v11.6M-117.3 317.3V331M-72 331.2c0-.2-.8-4.4-4.2-6-3.2-1.5-6.8.2-8.5 2.2-2.4 2.7-1.7 6.6-2.3 6.6-.5 0-1.6-3.1-.8-6.2.8-2.9 3-4.6 3.9-5.3"/><path fill="none" stroke="#B64E96" stroke-width=".5" stroke-linejoin="round" stroke-miterlimit="10" d="M-96.3 324c-1.8-.7-3.9-1.1-5.3-.1-2.5 1.7-2.7 6.9-2.7 6.9s-2.1-4.3-3.2-4.1c-.6.1-1.3 1.7-1.3 1.7s-1.3-2-2.7-2.5c-.9-.3-1.6-.4-3.9 1.7M-80.5 316.7c-.1-.4-1-3.2-3.6-4.3-2.8-1.2-6.5-.1-8.5 3.2"/><path fill="none" stroke="#B64E96" stroke-width=".5" stroke-linejoin="round" stroke-miterlimit="10" d="M-91 319.6c0-.5-.3-3.4-2.6-4.9-2.5-1.7-6.4-1.1-9.1 1.7"/><path fill="none" stroke="#B64E96" stroke-width=".5" stroke-linejoin="round" stroke-miterlimit="10" d="M-100.8 314.9c-.3-.3-2.4-2.4-5.1-2.2-3 .3-5.7 3.2-6 7"/><path fill="none" stroke="#B64E96" stroke-width=".5" stroke-miterlimit="10" d="M-96.3 330.3c3.4-5 2-11.1-1.6-13.2-2.6-1.5-6.9-1.3-9.3 1.7-1.9 2.4-2.7 5.1-1 7.9M-79.3 329.9c3.4-5 2-11.1-1.6-13.2-2.6-1.5-6.9-1.3-9.3 1.7-1.9 2.4-2.7 5.1-1 7.9"/><path fill="none" stroke="#B64E96" stroke-width=".5" stroke-linejoin="round" stroke-miterlimit="10" d="M-90.3 313.9c-.1-.4-1-3.2-3.6-4.3-2.8-1.2-6.5-.1-8.5 3.2"/><path fill="none" stroke="#B64E96" stroke-width=".5" stroke-miterlimit="10" d="M-118.3 329.5l-5 3.6M-119.3 328l-5.2 3.6M-116.3 332.5l-5 3.6M-117.3 331l-5 3.6M-120.3 334.2l-5.2 3.6M-121.3 332.7l-5.2 3.6M-118.3 337.2l-5 3.6M-119.3 335.7l-5.2 3.6M-68.8 334.4l5.1 3.5M-67.8 332.9l5.1 3.5M-70.8 337.3l5 3.6M-69.8 335.8l5.1 3.6M-71 384.6c1.1-1.9 2.6-4.8 3.4-8.6 1-4.9-.1-8-.1-11.6-.1-3.9 1-9.6 6.5-16.8"/><path fill="none" stroke="#B64E96" stroke-width=".5" stroke-miterlimit="10" d="M-70.2 339.7c1 1.8 2.2 4.4 2.9 7.6 1.1 5.2.3 11.2-.3 13.6M-117 384.6c-1.1-1.9-2.6-4.8-3.4-8.6-1-4.9.1-8 .1-11.6.1-3.9-1-9.6-6.5-16.8"/><path fill="none" stroke="#B64E96" stroke-width=".5" stroke-miterlimit="10" d="M-125.8 339.7c1 1.8 4 4.8 4.7 8 1.1 5.2-.1 10.8.6 13.2M-122.3 340v32.1M-65.8 340v32.1M-124 342.3v9.7M-63.7 341.7v9.3"/></svg>