<svg xmlns="http://www.w3.org/2000/svg" viewBox="-94 238.8 91.7 117.5"><path fill="none" stroke="#B64E96" stroke-width=".5" stroke-miterlimit="10" d="M-24.5 340.3h-45.4c-6.6 0-12-5.4-12-12v-57.2c0-6.6 5.4-12 12-12h45.4c6.6 0 12 5.4 12 12v57.2c0 6.6-5.4 12-12 12z"/><path fill="none" stroke="#B64E96" stroke-width=".5" stroke-miterlimit="10" d="M-20.4 259.9l-26.8 14.3-26.8-14.3M-71.5 292.7h11.1c-.1-3.4-9.1-1.3-11.1 0zM-47.2 323.8h-5.4c.4-.1 2.7-1.3 3.4-1.5.7-.2 1.3-.2 2 .5.7-.7 1.4-.7 2-.5.7.2 3 1.4 3.4 1.5h-5.4zM-52.7 323.8c.3.4.9 1.1 1.9 1.6 1.6.9 3.1.7 3.7.8.6 0 2.1.1 3.7-.8.9-.5 1.5-1.2 1.9-1.6M-80.9 333.2h9.7l10.7-6.2 13.3 7.4L-34 327l10.7 6.2h9.7M-77.7 283.6h23.4v2.4h-23.4zM-41.4 283.6H-18v2.4h-23.4zM-24.2 292.7h-11.1c.1-3.4 9.1-1.3 11.1 0zM-79.1 333.2v2.8M-77.3 333.2v4.6M-75.5 333.2v5.7M-70 332.5v7.8M-73.7 333.2v6.5M-71.8 333.2v7M-68.2 331.5v8.8M-66.4 330.5v9.8M-64.6 329.5v10.8M-59.2 327.8v12.5M-62.8 328.4v11.9M-61 327.4v12.9M-50.1 332.8v7.5M-51.9 331.8v8.5M-53.7 330.8v9.5M-55.5 329.7v10.7M-57.3 328.8v11.5M-48.3 333.8v6.5M-15.7 333.4v3M-17.5 333.4v4.5M-19.3 333.4v5.7M-24.7 332.3v7.9M-21.1 333.4v6.5M-22.9 333.4v6.9M-26.5 331.3v9M-28.3 330.3v10M-30.2 329.2v11.1M-35.6 327.9v12.6M-32 328.2v12.1M-33.8 327v13.5M-44.7 332.9v7.6M-42.8 331.9v8.6M-41 330.9v9.6M-39.2 329.8v10.5M-37.4 328.9v11.6M-46.5 334v6.5M-38.1 269.2v-10.1M-40 270.2v-11.1M-41.8 271.2v-12.1M-43.6 272.3v-13.2M-49 273.3v-14.2M-45.4 273.3v-14.2M-47.2 274.2v-15.1M-56.3 269.3v-10.2M-54.5 270.3v-11.2M-52.6 271.4v-12.3M-50.8 272.3v-13.2M-29.1 264.5v-5.4M-30.9 265.5v-6.4M-32.7 266.4v-7.3M-34.5 267.4v-8.3M-36.3 268.2v-9.1M-23.6 261.6v-2.5M-25.5 262.6v-3.5M-27.3 263.5v-4.4M-65.3 264.5v-5.4M-63.5 265.5v-6.4M-61.7 266.4v-7.3M-59.9 267.4v-8.3M-58.1 268.3v-9.2M-70.8 261.6v-2.5M-69 262.6v-3.5M-67.1 263.5v-4.4"/><path fill="#B64E96" d="M-66 291.1h2.5v1.7H-66zM-32.1 290.9h2.5v1.7h-2.5z"/><circle fill="#B64E96" cx="-45.4" cy="316.5" r=".5"/><circle fill="#B64E96" cx="-43.5" cy="318.8" r=".5"/><circle fill="#B64E96" cx="-41.7" cy="316.5" r=".5"/><circle fill="#B64E96" cx="-40" cy="318.8" r=".5"/><circle fill="#B64E96" cx="-38.1" cy="321.1" r=".5"/><circle fill="#B64E96" cx="-36.2" cy="318.8" r=".5"/><circle fill="#B64E96" cx="-34.3" cy="321.1" r=".5"/><circle fill="#B64E96" cx="-32.4" cy="323.4" r=".5"/><circle fill="#B64E96" cx="-30.6" cy="321.1" r=".5"/><circle fill="#B64E96" cx="-47.2" cy="318.8" r=".5"/><circle fill="#B64E96" cx="-49" cy="316.5" r=".5"/><circle fill="#B64E96" cx="-50.9" cy="318.8" r=".5"/><circle fill="#B64E96" cx="-52.7" cy="316.5" r=".5"/><circle fill="#B64E96" cx="-54.5" cy="318.8" r=".5"/><circle fill="#B64E96" cx="-56.3" cy="321.1" r=".5"/><circle fill="#B64E96" cx="-58.2" cy="318.8" r=".5"/><circle fill="#B64E96" cx="-60.1" cy="321.1" r=".5"/><circle fill="#B64E96" cx="-62" cy="323.4" r=".5"/><circle fill="#B64E96" cx="-63.9" cy="321.1" r=".5"/></svg>