<svg xmlns="http://www.w3.org/2000/svg" viewBox="-94 238.8 91.7 117.5"><path fill="none" stroke="#B64E96" stroke-width=".464" stroke-miterlimit="10" d="M-38.1 336.9h-20.1c-6.6 0-12-5.4-12-12l-7.9-57.2c0-6.6 5.4-12 12-12h35.9c6.6 0 12 5.4 12 12l-7.9 57.2c0 6.6-5.4 12-12 12z"/><path fill="none" stroke="#B64E96" stroke-width=".5" stroke-linecap="round" stroke-linejoin="round" stroke-miterlimit="10" d="M-54.9 325.1c1 0 3.4-1.4 5.5-2.4.6.1 1.1.5 1.3.7"/><path fill="none" stroke="#B64E96" stroke-width=".5" stroke-miterlimit="10" d="M-75.1 289.5c4.6-8.8 1.5-27.3 2.4-27.5 7.3-1.9 13.2 8.8 24.6 8.8"/><path fill="none" stroke="#B64E96" stroke-width=".5" stroke-miterlimit="10" d="M-21.2 289.6c-4.6-8.8-1.4-27.3-2.3-27.5-7.3-2-13.2 8.7-24.6 8.7"/><path fill="none" stroke="#B64E96" stroke-width=".5" stroke-linecap="round" stroke-linejoin="round" stroke-miterlimit="10" d="M-44 293.3l11.9-1.2 4.7.8-6.1-2.7c-4 1.8-10.6 1.2-10.6 1.2l.1 1.9zM-41.4 325.1c-1 0-3.4-1.4-5.5-2.4-.6.1-1.1.5-1.3.7M-55.9 325.1h1l2.3.1 4.4.2M-40.1 325.1h-1.3l-2.3.1-4.5.2"/><path fill="none" stroke="#B64E96" stroke-width=".5" stroke-linecap="round" stroke-linejoin="round" stroke-miterlimit="10" d="M-54.5 325.3c.5.5 2.9 3.5 6.4 3.5 3.6 0 5.9-3.1 6.3-3.5"/><path fill="none" stroke="#B64E96" stroke-width=".5" stroke-miterlimit="10" d="M-48.2 336.9v-5.7"/><path fill="none" stroke="#B64E96" stroke-width=".5" stroke-linecap="round" stroke-linejoin="round" stroke-miterlimit="10" d="M-38.3 297c.1.9 1.1 1.3 1.7 1.3.9 0 1.8-.9 1.6-1.8-.1-.4-.1-.6-.4-.8H-38c-.4.4-.4.8-.3 1.3z"/><circle fill="#B64E96" cx="-36.6" cy="296.8" r=".5"/><path fill="none" stroke="#B64E96" stroke-width=".5" stroke-linecap="round" stroke-linejoin="round" stroke-miterlimit="10" d="M-52.6 312.7c-.4 1.9-.3 2.5-.1 2.6.3.1.7-.5 1.3-.5.4.6 1.8 2 3.3 2s3-1.4 3.3-2c.6-.1 1 .6 1.3.5.2-.1.3-.7-.1-2.6M-39.5 298.3h5.9M-40.4 295.7h8.5M-46 293.6c-2 .4-2.1-.3-2.1-1v-4.8M-52.3 293.3l-11.9-1.2-4.7.8 6.1-2.7c4 1.8 10.6 1.2 10.6 1.2v1.9h-.1zM-58 297c-.1.9-1.1 1.3-1.7 1.3-.9 0-1.8-.9-1.6-1.8.1-.4.1-.6.4-.8h2.6c.4.4.4.8.3 1.3z"/><circle fill="#B64E96" cx="-59.7" cy="296.8" r=".5"/><path fill="none" stroke="#B64E96" stroke-width=".5" stroke-linecap="round" stroke-linejoin="round" stroke-miterlimit="10" d="M-56.8 298.3h-5.9M-55.9 295.7h-8.4"/><circle fill="#B64E96" cx="-42.2" cy="257" r=".5"/><circle fill="#B64E96" cx="-54.1" cy="257" r=".5"/><g fill="#B64E96"><circle cx="-54" cy="268.4" r=".5"/><circle cx="-50" cy="268.4" r=".5"/><circle cx="-46.1" cy="268.4" r=".5"/><circle cx="-44.2" cy="265.6" r=".5"/><circle cx="-40.2" cy="265.6" r=".5"/><circle cx="-48.1" cy="265.6" r=".5"/><circle cx="-57.6" cy="262.6" r=".5"/><circle cx="-53.6" cy="262.6" r=".5"/><circle cx="-49.7" cy="262.6" r=".5"/><circle cx="-48.1" cy="259.8" r=".5"/><circle cx="-44.1" cy="259.8" r=".5"/><circle cx="-40.2" cy="259.8" r=".5"/><circle cx="-52" cy="259.8" r=".5"/><circle cx="-50.1" cy="257" r=".5"/><circle cx="-46.1" cy="257" r=".5"/><circle cx="-42.2" cy="257" r=".5"/><circle cx="-54.1" cy="257" r=".5"/><circle cx="-56" cy="259.8" r=".5"/><circle cx="-46.1" cy="262.6" r=".5"/><circle cx="-42.2" cy="262.6" r=".5"/><circle cx="-38.2" cy="262.6" r=".5"/><circle cx="-56.1" cy="265.6" r=".5"/><circle cx="-52" cy="265.6" r=".5"/><circle cx="-42.2" cy="268.4" r=".5"/><circle cx="-34.3" cy="262.6" r=".5"/><circle cx="-38.2" cy="256.8" r=".5"/><circle cx="-34.2" cy="256.8" r=".5"/><circle cx="-30.3" cy="256.8" r=".5"/><circle cx="-36.2" cy="259.7" r=".5"/><circle cx="-32.3" cy="259.7" r=".5"/><circle cx="-28.2" cy="259.7" r=".5"/><circle cx="-36.2" cy="265.6" r=".5"/><circle cx="-30.3" cy="262.6" r=".5"/><circle cx="-24.5" cy="259.7" r=".5"/><circle cx="-26.3" cy="256.8" r=".5"/><circle cx="-22.4" cy="262.6" r=".5"/><circle cx="-20.4" cy="271.5" r=".5"/><circle cx="-20.4" cy="265.6" r=".5"/><circle cx="-22.3" cy="274.5" r=".5"/><circle cx="-22.3" cy="268.5" r=".5"/><circle cx="-20.4" cy="277.4" r=".5"/><circle cx="-22.4" cy="280.4" r=".5"/><circle cx="-22.3" cy="285.8" r=".5"/><circle cx="-62" cy="262.6" r=".5"/><circle cx="-58.2" cy="256.8" r=".5"/><circle cx="-62.1" cy="256.8" r=".5"/><circle cx="-66" cy="256.8" r=".5"/><circle cx="-60.1" cy="259.7" r=".5"/><circle cx="-64" cy="259.7" r=".5"/><circle cx="-68.1" cy="259.7" r=".5"/><circle cx="-60.1" cy="265.6" r=".5"/><circle cx="-66" cy="262.6" r=".5"/><circle cx="-71.8" cy="259.7" r=".5"/><circle cx="-70" cy="256.8" r=".5"/><circle cx="-74" cy="262.6" r=".5"/><circle cx="-75.9" cy="271.5" r=".5"/><circle cx="-75.9" cy="265.6" r=".5"/><circle cx="-74" cy="274.5" r=".5"/><circle cx="-74" cy="268.5" r=".5"/><circle cx="-75.9" cy="277.4" r=".5"/><circle cx="-74" cy="280.4" r=".5"/><circle cx="-74" cy="285.8" r=".5"/></g></svg>