<svg xmlns="http://www.w3.org/2000/svg" viewBox="-139.9 299.5 91.7 117.5"><path fill="none" stroke="#B64E96" stroke-width=".5" stroke-miterlimit="10" d="M-81.7 395.4h3.2c6.6 0 12-5.4 12-12l1.8-28.4-1.8-28.9c0-6.6-5.4-12-12-12h-31.2c-6.6 0-12 5.4-12 12l-1.7 29.6 1.8 27.8c0 6.6 5.4 12 12 12h3"/><path fill="none" stroke="#B64E96" stroke-width=".5" stroke-miterlimit="10" d="M-122.7 366.1l2.6-23.9h5.3l.5-6.8 1.1 6.8h27.7l5.6-17.4.7 17.3h11l2.8 24"/><path fill="none" stroke="#B64E96" stroke-width=".5" stroke-miterlimit="10" d="M-87.6 345.9c-.2-.5 5.1-3.3 11.1-2.6 4.3.5 7.8 2.6 7.7 3s-3.3-.8-8.4-1.1c-6.4-.3-8.8 4.9-10.4.7zM-100.7 345.9c.2-.5-5.1-3.3-11.1-2.6-4.3.5-7.8 2.6-7.7 3s3.3-.8 8.4-1.1c6.5-.3 8.8 4.9 10.4.7zM-84.8 354.7c1.4-3.2 4.5-4.7 6.9-4 1.7.5 3.5 2.1 3.2 3.2 0 0-2.3 1.6-9.5.9"/><circle fill="#B64E96" cx="-79.7" cy="352.7" r="2.1"/><path fill="none" stroke="#B64E96" stroke-width=".5" stroke-miterlimit="10" d="M-82.4 357.1h7M-84.9 351.6c.1-.2 2.4-3.2 6-2.9 2.7.2 4.3 2.1 4.6 2.4M-103.4 354.7c-1.4-3.2-4.5-4.7-6.9-4-1.7.5-3.5 2.1-3.2 3.2 0 0 2.3 1.6 9.5.9"/><circle fill="#B64E96" cx="-108.5" cy="352.7" r="2.1"/><path fill="none" stroke="#B64E96" stroke-width=".5" stroke-miterlimit="10" d="M-105.7 357.1h-7M-103.3 351.6c-.1-.2-2.4-3.2-6-2.9-2.7.2-4.3 2.1-4.6 2.4M-94.1 398.6c-7 .3-12.3-3-14.5-4.5v-11.6c0-2.3-.4-4.7 1-5.7 1.1-.7 2.4-.1 4 .2 2.2.4 5.3.3 9.5-2 4.2 2.3 7.3 2.4 9.5 2 1.6-.3 2.9-.9 4-.2 1.4.9 1 3.3 1 5.7V394c-2.2 1.6-7.5 4.9-14.5 4.6z"/><path fill="none" stroke="#B64E96" stroke-width=".5" stroke-linejoin="round" stroke-miterlimit="10" d="M-94.1 387.2c-.5.7-1.7 2.5-4.2 3.3-4.5 1.4-8.2-2.1-8.4-2.3v-7.8c.1-.7.2-1.5.7-1.7.6-.2 1.5.8 1.9 1.1 1.1 1.1 3.7 1.9 10 .4 6.3 1.5 8.9.7 10-.4.3-.3 1.2-1.4 1.9-1.1.5.2.6 1 .7 1.7v7.8c-.2.2-3.9 3.6-8.4 2.3-2.5-.8-3.7-2.6-4.2-3.3z"/><g fill="none" stroke="#B64E96" stroke-width=".5" stroke-miterlimit="10"><path d="M-121.6 324.6v30.8M-119.8 319.6v22.6M-114.3 315v21.9M-118 317.5v24.7M-116.1 316v26M-112.5 314.4v27.8M-110.7 314.1v28.1M-108.9 314v28.2M-103.5 314v28.2M-107.1 314v28.2M-105.3 314v28.2M-94.4 314v28.2M-96.2 314v28.2M-98 314v28.2M-99.8 314v28.3M-101.6 314v28.2M-92.6 314v28.2M-69 318.7v23.4M-65.4 344.5v19.4M-67.2 322.2v28.2M-70.8 316.9v25.3M-72.6 315.6v26.5M-74.5 314.8v27.3M-79.9 314v11.4M-76.3 314.3v27.8M-78.1 314.1v28.2M-89 314v28.3M-87.1 314v28.3M-85.3 314v27.7M-83.5 314v22M-81.7 314v16.3M-90.8 314v28.3"/></g><g fill="none" stroke="#B64E96" stroke-width=".5" stroke-miterlimit="10"><path d="M-107.8 377v17.6M-106 376.5v2.2M-100.6 377.1v3.9M-104.2 376.9v2.8M-102.4 377.2v3.5M-91.5 376.2v4.5M-93.3 375.4v5M-95.1 375.6v4.8M-97 376.3v4.5M-98.8 376.8v4.2M-89.7 376.8v4.2M-104.2 389.8v6.8M-102.4 390.5v6.8M-86.1 377.2v3.6M-84.3 376.9v3.1M-82.5 376.6v2.1M-80.6 376.9v17.8M-106 388.7v6.9M-87.9 377.1v3.9M-100.6 390.8v7.1M-91.5 389.7v8.8M-93.3 388.2v10.4M-95.1 388.5v10.1M-97 389.9v8.6M-98.8 390.6v7.7M-89.7 390.5v7.8M-86.1 390.6v6.8M-84.3 390v6.7M-82.5 388.9v6.8M-87.9 390.8v7.2"/></g></svg>