<svg xmlns="http://www.w3.org/2000/svg" viewBox="-94 238.8 91.7 117.5"><path fill="none" stroke="#B64E96" stroke-width=".5" stroke-miterlimit="10" d="M-78.5 297.8l7.3 27.5c0 6.6 5.4 12 12 12h23.7c6.6 0 12-5.4 12-12l7.3-28.5"/><path fill="none" stroke="#B64E96" stroke-width=".5" stroke-miterlimit="10" d="M-16.2 268c0 5.5 1.5 11 2.7 13 1.4 2.4 3.5 3.9 3 5.7-.3 1.2-1.7 2-2.8 2.2-1.5.3-3.1-.5-4-1.8-2.3 1.6-3.3 3.7-2.7 5 .5 1.1 2.3 1.7 2.7 1.3.4-.4-1.2-1.9-.7-2.8.7-1.1 3.1-1 4.2.2 1.4 1.4.7 4.3-.8 5.5-2 1.6-5.5.1-7-2-.8-1.1-.9-2.2-1-3-.3-2.8.9-3.5.8-6.3 0-.6 0-4.4-2-5-.8-.3-2-.1-2.3.5-.6 1.2 2.8 2.8 2.7 5.3-.1 1.7-1.8 3.3-3.5 3.7-2.9.7-5.5-2.4-6.3-4.5-.2-.6-.8-2.1-.2-3 .8-1 2.5-.3 3-1.2.7-1.1-1.1-3.7-3.2-5.2-1.4-1-3.2-1.6-3.5-1.2-.4.5 2.3 2 2.3 4.2 0 2.1-2.3 4.8-5 4.5-1.9-.2-3.4-2-3.7-3.7s.9-2.2 1-4.3c.1-1.6-.3-4.2-2.2-5.2-2.5-1.3-6.5 1.2-6.5 3 0 1.1 1.5 2.2 1.8 2s-.5-1.2 0-2c.5-.9 2.6-1.3 3.8-.3s.9 2.8.8 3c-.4 2.1-2.7 4.1-5.3 3.8-2.5-.3-4.2-2.6-4.3-4.5-.2-2.6 2.7-4.9 2.5-5-.1-.1-1.5 2.2-4 3-2.7.8-5.5-.5-5.5-.3 0 .1 1.2.3 2.3 1.1 0 0 .9.7 1.5 1.7 1.4 2.4.2 7.6-3 8.5-2 .6-4.7-.5-5.3-2.2-.4-1.1.3-1.7-.2-2.7-.7-1.6-3.5-2.1-5.5-1.7-1.7.4-4.5 1.7-4.5 3.8 0 2.2 2.9 3.8 3.3 3.5.4-.3-1.1-2-.5-2.8.7-.9 3.6-.6 5.2 1 1.8 1.9 1.9 5.6-.3 7.7-1.7 1.6-4.4 1.8-6.2.8-2.9-1.6-3.4-6.5-3.3-6.5 0 0 .8 2 1.2 3.8.2.9 1.2 6.9-2.7 9.8-2.9 2.2-7.8 2.6-10.2-.2-2-2.3-2.3-6.8.2-8.3 1.9-1.2 5.2-.5 7.3 2.2.7 1.1 1 1.3 1 1.3.2-.1-.5-2.7-2.3-5-1.1-1.4-1.6-1.5-1.7-2.3-.1-1.3 1.1-1.9 3.1-4.6.8-1.1 1.5-2.1 2-3.4.4-1.1 1.3-6.7 1.3-10.1"/><circle fill="#B64E96" cx="-45.5" cy="315.4" r=".5"/><circle fill="#B64E96" cx="-43.7" cy="317.7" r=".5"/><circle fill="#B64E96" cx="-41.8" cy="315.4" r=".5"/><circle fill="#B64E96" cx="-40.1" cy="317.7" r=".5"/><circle fill="#B64E96" cx="-38.2" cy="320" r=".5"/><circle fill="#B64E96" cx="-47.3" cy="317.7" r=".5"/><circle fill="#B64E96" cx="-49.2" cy="315.4" r=".5"/><circle fill="#B64E96" cx="-51" cy="317.7" r=".5"/><circle fill="#B64E96" cx="-52.9" cy="315.4" r=".5"/><circle fill="#B64E96" cx="-54.6" cy="317.7" r=".5"/><circle fill="#B64E96" cx="-56.5" cy="320" r=".5"/><circle fill="#B64E96" cx="-49.3" cy="326.1" r=".5"/><circle fill="#B64E96" cx="-47.4" cy="328.4" r=".5"/><circle fill="#B64E96" cx="-45.5" cy="326.1" r=".5"/><path fill="none" stroke="#B64E96" stroke-width=".5" stroke-miterlimit="10" d="M-58.2 332.2v6.7M-60 331.2v7.6M-56.4 332.9v6M-54.6 333.3v5.6M-52.8 333.5v5.4M-47.3 333.8v5.1M-51 333.7v5.2M-49.2 333.8v5.1M-38.3 332.9v6M-40.1 333.3v5.6M-41.9 333.5v5.4M-43.7 333.7v5.4M-45.5 333.8v5.1M-36.5 332.2v6.7M-34.7 331.2v7.9M-89.5 305.3c1.9 4.7 12.2 4 12.2-2.9M-17.1 300.3c.6 3.7 3.6 6.4 6.8 6.4 3.5 0 5.6-3.2 5.8-3.4"/><circle fill="#B64E96" cx="-35.9" cy="294.4" r="1.1"/><path fill="none" stroke="#B64E96" stroke-width=".5" stroke-miterlimit="10" d="M-39.3 293.3l8.1.6M-54.6 322.3h14.5"/><circle fill="#B64E96" cx="-58.8" cy="294.4" r="1.1"/><path fill="none" stroke="#B64E96" stroke-width=".5" stroke-miterlimit="10" d="M-55.4 293.3l-8.1.6M-31.2 281.1v6.8"/><g fill="none" stroke="#B64E96" stroke-width=".5" stroke-miterlimit="10"><path d="M-16.2 268c0-6.6-5.4-12-12-12h-38.3c-6.6 0-12 5.4-12 12M-89.2 290v8.6M-83.8 290.5v9.7M-87.4 289.4v10.4M-85.6 289.7v10.6M-82 281.7v8.6M-80.1 278.9v20.2M-78.3 265.8v31.8M-72.9 284.7v7.2M-76.5 261.3v28M-74.7 259.3v19.6M-63.8 256v27.5M-65.6 256.1V282M-67.5 283.3v6.4M-69.3 281.9v9.3M-71.1 281.3v10.5M-62 256v27.8M-38.5 256.1v26.8M-40.3 256v27M-42.1 256v25.9M-43.9 256v14.4M-49.3 274.8v4.6M-45.7 272.3v5.5M-47.5 271.9v7M-58.4 256v17.1M-56.6 256v17M-54.8 256v16.4M-53 256.1v21.7M-51.1 256.1V279M-60.2 256v27.7M-36.6 256.1v18.1M-31.2 256.1V278M-34.8 256v18.8M-33 256v20M-29.4 256.1v33M-27.6 256v33.4M-25.8 256.3V280M-20.3 258.9v36.6M-24 256.8v23M-22.1 257.7v24.2M-11.3 284v3.9M-13.1 281.6v7.2M-14.9 277.1v11.7M-16.7 264.4v23.3M-18.5 260.8V288M-83.8 283.9v3.7M-82 292.2v7.7M-74.7 283.6v7.6M-72.9 257.9v19.9M-71.1 256.9v20.4M-69.3 256.3v20.9M-67.5 256.1v21.5M-58.4 274.1v8.4M-49.3 256v14.5M-47.5 256v13.6M-45.7 256v13.5M-36.6 275.1v6.9M-25.8 281.6v7.2M-18.5 293.3v3.1M-16.7 289.8v7M-14.9 290v6.3"/></g><path fill="none" stroke="#B64E96" stroke-width=".5" stroke-miterlimit="10" d="M-84.3 312.1c1.4 1.8 3.8 2.5 5.8 1.7 1.7-.6 2.9-2.2 3.1-4.1M-10.5 312.1c-1.4 1.8-3.8 2.5-5.8 1.7-1.7-.6-2.9-2.2-3.1-4.1"/></svg>