<svg xmlns="http://www.w3.org/2000/svg" viewBox="-139.9 297.5 91.7 117.5"><path fill="none" stroke="#B64E96" stroke-width=".5" stroke-miterlimit="10" d="M-88 395.2c3.2-1 8.7-3.2 10.2-5.6.7-1.2 1.9-2.1 3.2-2.3 5.6-1 9.8-5.9 9.8-11.8v-13.2h2v-33.7c0-6.6-5.4-12-12-12h-38.4c-6.6 0-12 5.4-12 12v33.7h2v13.2c0 5.9 4.3 10.8 9.9 11.8 1.4.2 2.5 1.1 3.3 2.3 1.6 2.4 6.9 4.5 10.1 5.6 1.5.5 1.1.8 2.8.8h6.6c1.4-.1 1.1-.4 2.5-.8z"/><path fill="#B64E96" d="M-79.9 351.3c.1.2.2.5.2.7.1 1.1-.8 2.1-1.9 2.1-1.1.1-2.1-.8-2.1-1.9 0-.2 0-.5.1-.7l.2-.4 1.8-.3 1.7.2v.3z"/><path fill="none" stroke="#B64E96" stroke-width=".5" stroke-miterlimit="10" d="M-86.8 353.8c.2-.3 1.6-2.6 4.3-3 2.3-.3 4.7 1 5.9 3.3"/><path fill="none" stroke="#B64E96" stroke-width=".5" stroke-miterlimit="10" d="M-125.2 362.3h3.3v-19.8l2.5-3.5c-.2-.5-1.9-5.5 1.2-10 2.6-3.7 6.6-4.5 7.3-4.6l-1 2.6h35.8l-1-2.6c.7.1 4.7.8 7.3 4.6 3.1 4.5 1.4 9.5 1.2 10l2.5 3.5v19.8h3.3"/><path fill="#B64E96" d="M-87.5 347l12.9-2c.4-.1.7 0 1 .2l4.9 4.2-6-1.5h-1.1l-12.5 2.2.8-3.1z"/><path fill="none" stroke="#B64E96" stroke-width=".5" stroke-miterlimit="10" d="M-75.2 353.8c-.2-.3-2.6-4-6.8-4-3.6 0-5.8 3-6.3 3.7-2.6 3.6-4.1 8.9-1.3 13.8"/><path fill="none" stroke="#B64E96" stroke-width=".5" stroke-miterlimit="10" d="M-85.4 353.5c.6.3 1.9.9 3.6 1 1.9 0 3.3-.7 3.9-1M-98.6 384.7c.2-.2 1.9-2.3 4.7-2.2 2.6 0 4.2 1.9 4.4 2.1M-104.9 374.6c2.6.9 6.4 1.9 10.8 1.5 5.6-.5 8.9-2.9 9.2-2.3.4.7-4.4 6.4-10.6 5.9-3.4-.3-5.8-2.4-6.7-3.3"/><path fill="#B64E96" d="M-108.1 351.3c-.1.2-.2.5-.2.7-.1 1.1.8 2.1 1.9 2.1s2.1-.8 2.1-1.9c0-.2 0-.5-.1-.7l-.2-.4-1.8-.3-1.7.2v.3z"/><path fill="none" stroke="#B64E96" stroke-width=".5" stroke-miterlimit="10" d="M-101.2 353.8c-.2-.3-1.6-2.6-4.3-3-2.3-.3-4.7 1-5.9 3.3"/><path fill="#B64E96" d="M-100.5 347l-12.9-2c-.4-.1-.7 0-1 .2l-4.9 4.2 6-1.5h1.1l12.5 2.2-.8-3.1z"/><path fill="none" stroke="#B64E96" stroke-width=".5" stroke-miterlimit="10" d="M-112.8 353.8c.2-.3 2.6-4 6.8-4 3.6 0 5.8 3 6.3 3.7 2.6 3.6 4.1 8.9 1.3 13.8"/><path fill="none" stroke="#B64E96" stroke-width=".5" stroke-miterlimit="10" d="M-102.6 353.5c-.6.3-1.9.9-3.6 1-1.9 0-3.3-.7-3.9-1"/><g fill="none" stroke="#B64E96" stroke-width=".5" stroke-miterlimit="10"><path d="M-110.3 316.6v10.2M-108.5 316.6v10.2M-95.8 316.7v10.1M-92.2 316.7v10.1M-94 316.6v10.2M-104.9 316.6v10.2M-103.1 316.6v10.2M-101.2 316.6v10.2M-99.4 316.6v10.2M-97.6 316.7v10.1M-106.7 316.6v10.2M-74.1 316.6v8.6M-75.9 316.6v7.9M-88.6 316.7v10.1M-90.4 316.6v10.2M-79.5 316.6v10.2M-81.3 316.6v10.2M-83.1 316.6v10.2M-84.9 316.6v10.2M-86.7 316.7v10.1M-77.7 316.6v10.2M-123.2 322v40.3M-121.2 319.6v21.8M-117.6 317.4V328M-115.7 316.8v9.5M-113.9 316.6v8.6M-112.1 316.6v7.9M-119.4 318.3V331M-64.8 322v40.3M-66.8 319.6v21.8M-70.4 317.4V328M-72.2 316.8v9.5M-68.6 318.3V331"/></g></svg>