<svg xmlns="http://www.w3.org/2000/svg" viewBox="-139.9 297.5 91.7 117.5"><path fill="none" stroke="#B64E96" stroke-width=".5" stroke-miterlimit="10" d="M-69.8 324.5c-2-3.4-4.3-8.8-9.8-8.8h-35.6c-6.1 0-14.2 5.3-14.2 17.8V397l12.4-8.6"/><path fill="none" stroke="#B64E96" stroke-width=".5" stroke-miterlimit="10" d="M-114.6 315.7v8.6c-5.3 1.9-9.6 6.1-9.6 12.4v38.4c0 3.3 1.1 6.6 3.2 9.1 5.1 6.2 14.2 10.7 14.2 10.7 2.4 1.3 6.6 2 9.3 2 2.7 0 7.3-.5 9.7-1.9 0 0 14.2-8.3 15.8-15.2l1.3-35.9"/><path fill="none" stroke="#B64E96" stroke-width=".5" stroke-miterlimit="10" d="M-69.8 324.5l11.1 72.5h-14.1c1.1-21.2 2.5-37.2 2.3-52.9-.2-17.5-25.7-23.7-43.2-19.8v-8.7"/><path fill="#B64E96" d="M-91.2 351.1l14.3-3.4 5.5 2.9-5.5-1.6-13.3 4.3zM-102.9 351.1l-14.4-3.4-5.5 2.9 5.5-1.6 13.4 4.3z"/><path fill="none" stroke="#B64E96" stroke-width=".5" stroke-linejoin="round" stroke-miterlimit="10" d="M-78.6 357.5c-.3-.5-2.1-2.9-4.9-2.9-4 0-6.4 3.2-6.8 3.7h1.4c1.2.3 3 .6 5.1.3 1.7-.2 3.3-1.1 4.2-1.5"/><path fill="none" stroke="#B64E96" stroke-width=".5" stroke-linejoin="round" stroke-miterlimit="10" d="M-81.3 356.6c0 1.3-1.3 1.7-2.7 1.9-1.5.2-2.7-.6-2.7-1.9s1.2-2.3 2.7-2.3 2.7 1.1 2.7 2.3z"/><circle fill="#B64E96" cx="-84" cy="356.6" r="1"/><path fill="none" stroke="#B64E96" stroke-width=".5" stroke-linejoin="round" stroke-miterlimit="10" d="M-87.7 355.9c.3-.2 3.4-2.9 6.6-1.2 1.4.7 2.4 2 2.8 2.4l1-.6M-116.2 357.5c.3-.5 2.1-2.9 4.9-2.9 4 0 6.4 3.2 6.8 3.7h-1.4c-.8.4-2.7.9-5 .6-2-.2-3.5-1.1-4.3-1.6"/><path fill="none" stroke="#B64E96" stroke-width=".5" stroke-linejoin="round" stroke-miterlimit="10" d="M-113.5 356.6c0 1.3 1.3 2.1 2.6 2.2 1.5.2 2.8-.9 2.8-2.2s-1.2-2.3-2.7-2.3-2.7 1.1-2.7 2.3z"/><circle fill="#B64E96" cx="-110.8" cy="356.6" r="1"/><path fill="none" stroke="#B64E96" stroke-width=".5" stroke-linejoin="round" stroke-miterlimit="10" d="M-107.1 355.9c-.3-.2-3.4-2.9-6.6-1.2-1.4.7-2.4 2-2.8 2.4l-1-.6"/><path fill="none" stroke="#B64E96" stroke-width=".5" stroke-miterlimit="10" d="M-110.6 382.3c.3 0 8.6-.4 10.5-.8.6.1 1.6.2 2.7.7h.2c1.1-.5 2.1-.6 2.7-.7 2 .3 10.2.8 10.5.8M-110.4 382.3l8.4 1.3c.6.1 1.1.1 1.7.1h3-.1 3c.6 0 1.1 0 1.7-.1l8.3-1.3"/><path fill="none" stroke="#B64E96" stroke-width=".5" stroke-miterlimit="10" d="M-109.6 382.3c1.1.7 2.8 2.1 4.6 2.7 3.1 1.1 5.8 1.4 7.7 1.4s4.7-.3 7.7-1.4c1.8-.6 3.4-2 4.6-2.7"/><path fill="none" stroke="#B64E96" stroke-width=".5" stroke-linejoin="round" stroke-miterlimit="10" d="M-88.4 356.4c.3-.2 3.4-2.9 6.6-1.2 1.4.7 2.4 2 2.8 2.4l1-.6M-106.3 356.4c-.3-.2-3.4-2.9-6.6-1.2-1.4.7-2.4 2-2.8 2.4l-1-.6"/><path fill="none" stroke="#B64E96" stroke-width=".5" stroke-miterlimit="10" d="M-91.2 356.6c.5-.5 3.7-3.8 8.5-3.4 2.9.2 4.9 1.6 5.7 2.3M-103.6 356.6c-.5-.5-3.7-3.8-8.5-3.4-2.9.2-4.9 1.6-5.7 2.3M-101.9 372.2c-.5.6-.7 1.5-.4 2.2.2.5.7 1.1 1.3 1.2.5.1.8-.3 1.3-.2.6.2 1.1.7 1.2 1.4h2.8c.1-.7.6-1.2 1.2-1.4.5-.1.7.3 1.3.2.6-.1 1.1-.7 1.3-1.2.3-.7.1-1.6-.4-2.2M-75.7 332.3v-15.4M-77.5 330.7V316M-90.2 324.8v-9.1M-93.8 324v-8.3M-92 324.4v-8.7M-81.1 328.3v-12.6M-82.9 327.4v-11.7M-84.7 326.6v-10.9M-86.5 325.9v-10.2M-88.3 325.3v-9.6M-79.3 329.4v-13.7M-111.9 324v-8.2M-110.1 323.7v-7.9M-97.4 323.5v-7.7M-95.6 323.7v-7.9M-106.5 323.3v-7.5M-104.7 323.3v-7.5M-102.8 323.2v-7.4M-101 323.3v-7.5M-99.2 323.4v-7.6M-108.3 323.5v-7.7M-73.8 318.3v16.1M-72 320.7v16.7M-68.4 333.9V397M-66.6 345.8V397M-64.8 358v39M-63 369.3V397M-61.2 381.6V397M-70.2 323.9V397M-116.4 315.7v9.4M-118.2 316.1v10M-121.8 317.7v11.8M-123.7 319.1v14M-125.5 321v73.3M-127.3 323.8v71.8M-120 316.5v11M-121.8 383v8.8M-123.7 378.9v14.2M-120 385.3v5.3M-118.3 387.1v2.3"/></svg>