<svg xmlns="http://www.w3.org/2000/svg" viewBox="-139.9 297.5 91.7 117.5"><path fill="none" stroke="#B64E96" stroke-width=".5" stroke-miterlimit="10" d="M-83.1 396.2s15.8-9.1 15.8-15.7l2.1-23.5v-28.1c0-6.6-5-12-11.1-12h-35.6c-6.1 0-11.1 5.4-11.1 12v27.9l2 23.7c0 6.6 15.7 15.7 15.7 15.7 2.4 1.3 5.1 2.1 7.9 2.1h6.5c2.8-.1 5.4-.8 7.8-2.1z"/><path fill="none" stroke="#B64E96" stroke-width=".5" stroke-miterlimit="10" d="M-122.9 356.2c.9 3.3 2.4 5.1 3.7 6.1 2.5 2.1 4.9 1.8 8.1 4.1 1.9 1.4 3.2 3 3.9 4.2M-65.1 356.2c-.9 3.3-2.4 5.1-3.7 6.1-2.5 2.1-4.9 1.8-8.1 4.1-1.9 1.4-3.2 3-3.9 4.2"/><path fill="#B64E96" d="M-88.7 341.8l-.9 3.4 18.1.1-.5-2.2zM-99.4 341.8l.9 3.4-18 .1.4-2.2z"/><path fill="none" stroke="#B64E96" stroke-width=".5" stroke-miterlimit="10" d="M-86.6 351.3c.2-.4 1.7-2.7 4.5-3.1 2.8-.5 5.7 1.1 7.2 3.9"/><path fill="#B64E96" d="M-78.5 350c-.2 1.3-1.4 2.2-2.6 2.1-1.2-.2-2.1-1.4-1.9-2.8.2-1.3 1.4-1.3 2.6-1.1 1.2.2 2.1.5 1.9 1.8z"/><path fill="none" stroke="#B64E96" stroke-width=".5" stroke-miterlimit="10" d="M-87.8 350.2c.4-.9 1.3-2.6 3.3-3.6 3.1-1.5 6.4.4 7.4.9 1.8 1 2.9 2.3 3.4 3.1M-85.5 352.1c.8.3 2.1.7 3.7.6 2.8-.1 4.8-1.3 5.6-1.8M-105.9 379.8c-.4-.8 8.1-1.8 8.1-1.8.4-.1.7 0 1.1.1l2.7 1.2 2.7-1.2c.3-.2.7-.2 1.1-.1 0 0 8.1 1 8.1 1.8"/><path fill="none" stroke="#B64E96" stroke-width=".5" stroke-linejoin="round" stroke-miterlimit="10" d="M-81.7 379.8S-89.2 381-94 381s-12.3-1.2-12.3-1.2c1 4.4 23.1 4.4 24.6 0z"/><path fill="none" stroke="#B64E96" stroke-width=".5" stroke-miterlimit="10" d="M-101.4 351.3c-.2-.4-1.7-2.7-4.5-3.1-2.8-.5-5.7 1.1-7.2 3.9"/><path fill="#B64E96" d="M-109.5 350c.2 1.3 1.4 2.2 2.6 2.1s2.1-1.4 1.9-2.8c-.2-1.3-1.4-1.3-2.6-1.1s-2.1.5-1.9 1.8z"/><path fill="none" stroke="#B64E96" stroke-width=".5" stroke-miterlimit="10" d="M-100.2 350.2c-.4-.9-1.3-2.6-3.3-3.6-3.1-1.5-6.4.4-7.4.9-1.8 1-2.9 2.3-3.4 3.1M-102.5 352.1c-.8.3-2.1.7-3.7.6-2.8-.1-4.8-1.3-5.6-1.8"/><path fill="none" stroke="#B64E96" stroke-width=".5" stroke-miterlimit="10" d="M-122.9 349.4c.8-1.9 2.4-4.9 3-8.7.6-3.3.4-4.5.9-6.5.7-2.5 2.4-5.8 7.3-9.3l-3.2 9.8c2.9-2.7 7.6-6.5 14.2-9.3 10.1-4.2 19.2-3.7 23.8-3.2-.1 6.1 1.6 9.1 3.3 10.7 2 1.9 3.6 1.7 4.8 3.9 1.5 2.6.1 4.6.8 8.8.5 2.8 2 5.6 2.8 6.9M-95.8 386.8v-2.4M-94 386.8v-2.4M-92.2 386.8v-2.4M-90.4 389.6v8.6M-86.8 397.7v-3.3c-.1-.7-.4-1.9-1.3-3-2-2.7-5.6-2.5-6-2.5v9.2M-88.6 390.8v7.2M-92.2 389.1v9.1M-68.7 381.5v2.8M-70.5 383.4v3.2M-83.2 392.8v3.4M-85 393.8v3.3M-74.1 386.6v3.4M-75.9 388.1v3.3M-77.7 389.4v3.4M-79.5 390.6v3.4M-81.3 391.7v3.4M-72.3 385.1v3.2M-97.6 389.6v8.6"/><path fill="none" stroke="#B64E96" stroke-width=".5" stroke-miterlimit="10" d="M-101.3 397.7v-3.3c.1-.7.4-1.9 1.3-3 2-2.7 5.6-2.5 6-2.5v9.2M-99.5 390.8v7.2M-95.8 389.1v9.1M-119.4 381.5v2.8M-117.6 383.4v3.2M-104.9 392.8v3.4M-103.1 393.8v3.3M-114 386.6v3.4M-112.1 388.1v3.3M-110.3 389.4v3.4M-108.5 390.6v3.4M-106.7 391.7v3.4M-115.8 385.1v3.2M-85 322.1v-5.3M-86.8 322.2v-5.4M-99.5 325.1v-8.3M-103.1 326.8v-10M-101.3 325.9v-9.1M-90.4 322.7v-5.9M-92.2 323v-6.2M-94 323.4v-6.6M-95.8 323.9v-7.1M-97.6 324.5v-7.7M-88.6 322.5v-5.7M-121.2 345.3v-22.8M-119.4 336.8v-16.6M-106.7 328.6v-11.8M-104.9 327.6v-10.8M-115.8 328.6v-10.9M-114 326.7v-9.6M-112.1 325.3v-8.5M-110.3 331.1v-14.3M-108.5 329.8v-13M-117.6 331v-12.4M-112.1 332.4v-6M-83.1 322.2v-5.4M-81.3 322.1v-5.3M-68.6 337.4v-17.3M-66.8 349.5v-27M-77.7 322.4v-5.6M-75.9 329.4v-12.6M-74.1 332.6v-15.5M-72.3 334.2v-16.5M-70.5 335.3v-16.7M-79.5 322.2v-5.4M-90.5 345v-3.2M-97.4 345v-3.2"/></svg>