<svg xmlns="http://www.w3.org/2000/svg" viewBox="-251 362.4 91.7 117.5"><g fill="#B64E96"><path d="M-205.6 463.2c-14.7 0-26.6-18.9-26.6-42 0-.1.1-.3.3-.3s.3.1.3.3c0 22.9 11.7 41.5 26.1 41.5s26.1-18.6 26.1-41.5c0-6.6-.9-12.8-2.8-18.7 0-.1 0-.3.2-.3.1 0 .3 0 .3.2 1.9 5.9 2.8 12.2 2.8 18.8-.1 23.1-12.1 42-26.7 42z"/><path d="M-200.5 414.7c-.1 0-.1 0-.2-.1s-.1-.2-.1-.2l.1-.9c.2-1.5 1.3-2.7 2.8-3.1l7.9-2c2.1-.5 4.4.2 5.8 1.9l1.7 2c.1.1.1.3 0 .4-.1.1-.2.1-.3 0l-1.5-1.1c-1.4-1.1-3.3-1.3-5-.7l-11.2 3.8c.1 0 .1 0 0 0zm12-5.9c-.4 0-.8.1-1.3.2l-7.9 2c-1.3.3-2.2 1.3-2.4 2.6l-.1.5 10.7-3.6c1.8-.7 3.7-.4 5.3.6l-.3-.3c-1-1.3-2.5-2-4-2zM-210.8 414.7c-.1 0-.1 0 0 0l-11.1-3.8c-1.7-.6-3.6-.4-5 .7l-1.5 1.1c-.1.1-.3.1-.4 0-.1-.1-.1-.2 0-.4l1.7-2c1.4-1.7 3.7-2.5 5.8-1.9l7.9 2c1.5.4 2.5 1.6 2.8 3.1l.1.9c0 .1 0 .2-.1.2-.1.1-.2.1-.2.1zm-13.1-4.6c.7 0 1.4.1 2.1.4l10.6 3.6-.1-.5c-.2-1.3-1.1-2.3-2.4-2.6l-7.9-2c-1.9-.5-4 .2-5.3 1.7l-.3.3c1.1-.6 2.2-.9 3.3-.9zM-216.3 445c.1 0 1.3.6 1.4.6 1.8-.7 5.1-1.5 6-1.6 1.2-.2 2.4.6 3.2 1.3.8-.7 2-1.5 3.2-1.3.9.1 4 .9 5.8 1.6.1 0 1.4-.3 1.5-.3l-.7.7c-4.1-.4-5.8-.1-6.5.4-.1.1-.4.2-.8.4-1 .4-1.9.5-2.4.4-.6 0-1.5 0-2.4-.4-.4-.2-.7-.4-.8-.4-.7-.5-2.4-.8-6.4-.4h-.2M-205.6 450.8H-205.9c-.7 0-2-.1-3.5-.7-1.2-.5-2.1-1.3-2.5-1.8-.1-.1-.1-.3 0-.4.1-.1.3-.1.4 0 .4.5 1.2 1.2 2.3 1.7 1.4.6 2.7.6 3.3.7H-205.6c.8 0 2-.1 3.4-.7 1.1-.4 1.9-1.2 2.3-1.7.1-.1.3-.1.4 0 .1.1.1.3 0 .4-.5.6-1.3 1.3-2.5 1.8-1.6.6-3.1.7-3.6.7zM-198.2 419c-.1 0-.1 0-.2-.1s-.1-.3 0-.4l1.8-2.3c.6-.8 2.2-1.2 3.1-1l6.4 1.5c.1 0 .2.2.2.3s-.2.2-.3.2l-6.4-1.5c-.8-.2-2.1.2-2.6.8l-1.8 2.3c0 .2-.1.2-.2.2z"/><path d="M-189.2 419h-7.5c-.1 0-.3-.1-.3-.3s.1-.3.3-.3h7.5c.1 0 .3.1.3.3s-.2.3-.3.3z"/><path d="M-193.5 419c-1.2 0-2.2-.8-2.2-1.9s1-1.9 2.2-1.9 2.2.8 2.2 1.9-1 1.9-2.2 1.9zm0-3.2c-.9 0-1.7.6-1.7 1.3s.8 1.3 1.7 1.3 1.7-.6 1.7-1.3-.8-1.3-1.7-1.3z"/><path d="M-187.1 418.2c-.1 0-.1 0-.2-.1s-.1-.3 0-.4l1.3-1.4-1.4.7c-.1.1-.2 0-.3 0-.1-.1-.1-.2-.1-.3l.5-1.3-1.3 1c-.1.1-.2.1-.3 0-.1-.1-.1-.2-.1-.3l.3-1.4-1.4 1.3c-.1.1-.2.1-.3 0-.1-.1-.2-.2-.1-.3l.1-1-.9.9c-.1.1-.2.1-.3.1-.1 0-.2-.1-.2-.2l-.2-.8-.8.5c-.1.1-.3.1-.3 0l-.4-.4-.8.7c-.1.1-.3.1-.4 0-.1-.1-.1-.3 0-.4l1-.8c.1-.1.3-.1.4 0l.4.4.9-.6c.1 0 .2-.1.2 0 .1 0 .1.1.2.2l.2.7 1.2-1.1c.1-.1.2-.1.3 0 .1.1.2.2.1.3l-.1 1 1.5-1.4c.1-.1.2-.1.3 0 .1.1.2.2.1.3l-.3 1.5 1.5-1.2c.1-.1.2-.1.3 0 .1.1.1.2.1.3l-.6 1.5 2.1-1.1c.1-.1.3 0 .3.1.1.1.1.2 0 .3l-2.3 2.5c0 .2-.1.2-.2.2zM-189.1 434.4c-2.9 0-5.2-2.3-5.2-5.2s2.3-5.2 5.2-5.2c2.9 0 5.2 2.3 5.2 5.2s-2.3 5.2-5.2 5.2zm0-9.9c-2.6 0-4.7 2.1-4.7 4.7s2.1 4.7 4.7 4.7 4.7-2.1 4.7-4.7-2.1-4.7-4.7-4.7z"/><circle cx="-193.5" cy="417.1" r=".8"/><path d="M-213.7 419c-.1 0-.2 0-.2-.1l-1.8-2.3c-.5-.6-1.9-1-2.6-.8l-6.4 1.5c-.1 0-.3-.1-.3-.2s.1-.3.2-.3l6.4-1.5c1-.2 2.5.2 3.2 1l1.8 2.3c.1.1.1.3 0 .4h-.3z"/><path d="M-215.2 419h-7.5c-.1 0-.3-.1-.3-.3s.1-.3.3-.3h7.5c.1 0 .3.1.3.3s-.2.3-.3.3z"/><path d="M-218.4 419c-1.2 0-2.2-.8-2.2-1.9s1-1.9 2.2-1.9 2.2.8 2.2 1.9-1 1.9-2.2 1.9zm0-3.2c-.9 0-1.7.6-1.7 1.3s.8 1.3 1.7 1.3 1.7-.6 1.7-1.3-.7-1.3-1.7-1.3z"/><path d="M-224.8 418.2c-.1 0-.1 0-.2-.1l-2.3-2.5c-.1-.1-.1-.2 0-.3.1-.1.2-.1.3-.1l2.1 1.1-.6-1.5c0-.1 0-.2.1-.3.1-.1.2-.1.3 0l1.5 1.2-.3-1.5c0-.1 0-.2.1-.3.1-.1.2 0 .3 0l1.5 1.4-.1-1c0-.1 0-.2.1-.3.1-.1.2 0 .3 0l1.2 1.1.2-.7c0-.1.1-.1.2-.2h.2l.9.6.4-.4c.1-.1.3-.1.4 0l1 .8c.1.1.1.3 0 .4-.1.1-.3.1-.4 0l-.8-.7-.4.4c-.1.1-.2.1-.3 0l-.8-.5-.2.8c0 .1-.1.2-.2.2s-.2 0-.3-.1l-.9-.9.1 1c0 .1 0 .2-.1.3-.1.1-.2 0-.3 0l-1.4-1.3.3 1.4c0 .1 0 .2-.1.3-.1.1-.2.1-.3 0l-1.3-1 .5 1.3c0 .1 0 .2-.1.3s-.2.1-.3 0l-1.4-.7 1.3 1.4c.1.1.1.3 0 .4h-.2zM-222.3 434.4c-2.9 0-5.2-2.3-5.2-5.2s2.3-5.2 5.2-5.2 5.2 2.3 5.2 5.2-2.4 5.2-5.2 5.2zm0-9.9c-2.6 0-4.7 2.1-4.7 4.7s2.1 4.7 4.7 4.7 4.7-2.1 4.7-4.7-2.2-4.7-4.7-4.7z"/><circle cx="-218.4" cy="417.1" r=".8"/><path d="M-233.9 464.2l-.3-1c-9.1-26.7-6.2-58.4-3-66.1 4.1-9.7 12.6-17.6 22.9-21.2 8.1-2.8 16.1-2.5 22.1.9 1.9 1.1 3.6 2.5 5.2 4.3 2.9-.4 5.5 0 7.6 1 19 9.3 4.3 70 2.5 76.9l-.2.8-14-3.2.4-1.7 12.3 2.8c1.9-8 15.4-65.7-1.8-74.1-2-1-4.4-1.2-7.1-.8l-.5.1-.3-.4c-1.4-1.8-3.1-3.2-5-4.2-5.6-3.1-13.2-3.4-20.7-.8-9.8 3.4-18 10.9-21.9 20.2-3 7.2-5.7 38.2 2.7 63.8l11.8-7 .9 1.5-13.6 8.2z"/><path d="M-221.5 455.8c-.1-.2-12.1-18-11.6-36.7.1-4.5 3.4-18.9 16.4-25.7 9.5-5 19.2-3.1 23.6-1.9l4-6.7 1.5.9-4.7 7.9-.7-.2c-3.7-1.2-13.5-3.4-22.9 1.6-12.3 6.4-15.3 20-15.5 24.2-.4 15.7 8.8 32.1 11.3 35.6l-1.4 1z"/><path d="M-221.6 379.3h.5v18.2h-.5zM-219.6 379.1h.5v17h-.5zM-206.2 375h.5v16.4h-.5zM-202.4 375h.5v16.2h-.5zM-204.3 375h.5v16h-.5zM-215.8 377.6h.5v16.3h-.5zM-213.9 376.6h.5V393h-.5zM-212 375.8h.5v16.5h-.5zM-210 375.5h.5v16.6h-.5zM-208.1 375.2h.5v16.2h-.5zM-217.7 378h.5v16.8h-.5zM-183.2 381.9h.5v15.2h-.5zM-185.1 381.9h.5V393h-.5zM-198.5 375.5h.5v15.9h-.5zM-200.4 375.1h.5v16h-.5zM-188.9 380.6h.5v5.5h-.5zM-190.9 378.9h.5v10h-.5zM-192.8 377.6h.5v14.7h-.5zM-194.7 376.6h.5v15.5h-.5zM-196.6 376h.5v15.7h-.5zM-187 381.9h.5v8h-.5zM-223.5 451.3h.5v5.6h-.5zM-223.5 380.7h.5v18.6h-.5zM-225.4 447.7h.5v10.2h-.5zM-225.4 382.6h.5v19h-.5zM-229.2 438.5h.5v21.7h-.5zM-229.2 386.5h.5v21.2h-.5zM-231.2 431.6h.5v30.6h-.5zM-231.2 388.7h.5v23.7h-.5zM-233.1 390.7h.5v71.5h-.5zM-235 394.2h.5v64.7h-.5zM-236.9 398.3h.5v52.9h-.5zM-227.3 443.6h.5v15.5h-.5zM-227.3 384.3h.5v19.9h-.5zM-175.5 387.1h.5v60.6h-.5zM-177.4 385h.5v72.2h-.5zM-179.3 383.4h.5v75.1h-.5zM-181.3 382.6h.5v75.5h-.5zM-183.2 442.2h.5v15h-.5zM-173.6 391h.5v47.5h-.5zM-185 446.6h.5v10.6h-.5zM-186.9 450.2h.5v6.6h-.5zM-188.8 452.9h.5v3.5h-.5z"/></g></svg>