<svg xmlns="http://www.w3.org/2000/svg" viewBox="-139.9 297.5 91.7 117.5"><path fill="none" stroke="#B64E96" stroke-width=".5" stroke-miterlimit="10" d="M-87.3 396.9c5.8 0 10.6-4.1 11.8-9.6.4-2.2 1.4-4.2 2.6-6.1l4.3-9.3c1.1-1.8 1.7-3.8 1.7-5.9v-12.3l1.6-2v-24.1c0-6.6-5.4-12-12-12h-33.5c-6.6 0-12 5.4-12 12v24.1l1.8 2.2V366c0 2.1.6 4.2 1.7 5.9l4.1 9.4c1.2 1.9 2.1 3.9 2.6 6.1 1.1 5.5 6 9.6 11.8 9.6h13.5v-.1z"/><path fill="none" stroke="#B64E96" stroke-width=".5" stroke-miterlimit="10" d="M-65.3 351.6l-3.8 4.6v-19h-50v19l-3.7-4.6M-94 380l-1 .4-8.3-.3c-.5 0-1-.2-1.3-.5l-.7-.5 8.2-2.6 2.6 1.6c.3.2.7.2 1 0l2.6-1.6 8.2 2.6-.7.5c-.4.3-.8.5-1.3.5l-8.3.3-1-.4z"/><path fill="none" stroke="#B64E96" stroke-width=".5" stroke-miterlimit="10" d="M-103.8 380c.9.5 2.3 2.6 3.6 3 2.5.8 9.9.8 12.4 0 1.3-.4 3-2.6 3.8-3.1M-101.6 355c-.3-.8-1.6-2.3-2.8-3-4-2.4-8.2 2.9-8.2 2.9.7.2 2.5 1.1 10 .3"/><path fill="none" stroke="#B64E96" stroke-width=".5" stroke-linejoin="round" stroke-miterlimit="10" d="M-100.3 353.8c-.1-2.1-.8-3-1.3-3.4-2.1-1.8-11.1-.8-14.6.1l.9-1.4c.8-1.3 2.2-2.1 3.7-2.1h9.5c1 0 2 .5 2.6 1.2l1.7 2.1c.6.8 1 1.7 1 2.7v12c0 1 .8 1.8 1.8 1.8h1"/><ellipse fill="none" stroke="#B64E96" stroke-width=".5" stroke-miterlimit="10" cx="-107.2" cy="353.4" rx="1.9" ry="2"/><path fill="none" stroke="#B64E96" stroke-width=".5" stroke-linejoin="round" stroke-miterlimit="10" d="M-88.2 353.8c.1-2.1.8-3 1.3-3.4 2.1-1.8 11.1-.8 14.6.1l-.5-1.4c-.8-1.3-2.2-2.1-3.7-2.1h-9.4c-1 0-2 .5-2.6 1.2l-1.7 2.1c-.6.8-1 1.7-1 2.7v12c0 1-.8 1.8-1.8 1.8h-1M-96.6 387.2c.2-.2 1.1-1 2.6-1 1.4 0 2.3.9 2.5 1M-101.8 356.4c-.9.5-3.2 1.5-6.3 1.1-2.3-.3-4-1.3-4.8-1.9"/><circle fill="#B64E96" cx="-107.2" cy="353.4" r=".6"/><path fill="none" stroke="#B64E96" stroke-width=".5" stroke-miterlimit="10" d="M-86.7 355c.3-.8 1.6-2.3 2.8-3 4-2.4 8.2 2.9 8.2 2.9-.7.2-2.5 1.1-10 .3"/><ellipse fill="none" stroke="#B64E96" stroke-width=".5" stroke-miterlimit="10" cx="-81" cy="353.4" rx="1.9" ry="2"/><path fill="none" stroke="#B64E96" stroke-width=".5" stroke-linejoin="round" stroke-miterlimit="10" d="M-86.4 356.4c.9.5 3.2 1.5 6.3 1.1 2.3-.3 4-1.3 4.8-1.9"/><circle fill="#B64E96" cx="-81" cy="353.4" r=".6"/><path fill="none" stroke="#B64E96" stroke-width=".5" stroke-miterlimit="10" d="M-115.4 316.5v20.8M-117.2 317.5v19.8M-119.1 318.9v18.4M-120.9 321v33M-113.6 315.9v21.4M-100.9 315.6v21.6M-97.3 315.6v21.6M-99.1 315.6v21.6M-110 315.6v21.7M-108.2 315.6v21.7M-106.4 315.6v21.6M-104.6 315.6v21.5M-102.7 315.6v21.5M-111.8 315.6v21.8M-90.1 315.6v21.6M-91.9 315.6v21.6M-93.7 315.6v21.6M-95.5 315.6v21.6M-88.2 315.6v21.6M-75.6 315.6v21.6M-71.9 316.8v20.4M-73.7 316.1v21.1M-84.6 315.6v21.6M-82.8 315.6v21.6M-81 315.6v21.5M-79.2 315.6v21.6M-77.4 315.6v21.6M-86.4 315.6v21.7M-88.2 347.9v5.3M-66.5 322.5V353M-68.3 319.7v35.6M-70.1 318v19.2M-86.4 347.2v2.9M-104 347.1v2.5M-102.2 347.1v3M-100.3 347.6v5.4M-84.5 347.2v2.4"/></svg>