<svg xmlns="http://www.w3.org/2000/svg" viewBox="-139.9 297.5 91.7 117.5"><path fill="none" stroke="#B64E96" stroke-width=".5" stroke-miterlimit="10" d="M-86 396.9c6.1 0 14.7-22.8 15.5-26.5 1.3-5.9 2.7-18.6 3.8-28.6.8-7.9 1.4-14.2 1.4-14.2 0-6.6-5-12-11.1-12h-35.4c-6.1 0-11.1 5.4-11.1 12 0 0 .6 6.1 1.4 13.9 1.1 10.3 2.6 23.6 4 29.7.8 3.5 9.4 25.6 15.5 25.6h16v.1zM-94 389.7v7.2"/><path fill="none" stroke="#B64E96" stroke-width=".5" stroke-miterlimit="10" d="M-67.8 352.2c4.1-1 5.2.5 5.4.7 2.7 2.8-.1 11.3-4.6 12.3-1 .2-1.8.1-2.6-.2M-120.3 352.1c-4.1-1-5 .5-5.3.8-2.7 2.8.1 11.3 4.6 12.3 1 .2 1.7.1 2.5-.2"/><path fill="none" stroke="#B64E96" stroke-width=".5" stroke-linecap="round" stroke-linejoin="round" stroke-miterlimit="10" d="M-94 386.9c2.9 0 4.9-1.2 5.3-1.4M-92 354.4c0 1.5.3 3.4 1.5 4 1.1.5 2.4-.2 2.9-.4 2.1-1.1 6-1.8 13.9-.5M-96.2 354.4c0 1.5-.3 3.4-1.5 4-1.1.5-2.4-.2-2.9-.4-2.1-1.1-6-1.8-13.9-.5M-97.5 345.8h7M-99.8 383.9l3.4-1.6c.1 0 .2-.1.3-.1h1c.1 0 .2 0 .3.1l.9.5.9-.5c.1 0 .2-.1.3-.1h.9c.1 0 .2 0 .3.1l3.5 1.6M-94 386.9c-2.9 0-4.9-1.2-5.3-1.4M-94 378.4h1.5c.2 0 .4-.1.6-.2.8-.7 2.8-2.5 2.9-3.6.1-.8-1.3-2.9-1.3-2.9M-97.8 371.6s-1.4 2-1.3 2.9c.1 1.2 2.1 3 2.9 3.6.2.2.4.2.6.2h1.5v-1.8"/><path fill="none" stroke="#B64E96" stroke-width=".5" stroke-miterlimit="10" d="M-94 329.9c9.7 0 15.6-1.9 19.5-3.4 7.5 5.9 2.8 14.9 2.9 16.6.3 3.4 3.5 10.1 3.4 11.7M-94 329.9c-9.7 0-15.6-1.9-19.5-3.4-7.5 5.9-2.8 14.9-2.9 16.6-.3 3.4-3.5 10.1-3.4 11.6"/><path fill="none" stroke="#B64E96" stroke-width=".5" stroke-linecap="round" stroke-linejoin="round" stroke-miterlimit="10" d="M-98.8 389.7h9.5"/><path fill="none" stroke="#B64E96" stroke-width=".5" stroke-miterlimit="10" d="M-94 383.9h5.8l1.9-.7 1 1M-94 383.9h-6l-1.8-.7-1 1"/><path fill="none" stroke="#B64E96" stroke-width=".5" stroke-linecap="round" stroke-linejoin="round" stroke-miterlimit="10" d="M-89.8 376l-1.9-5.6c-.2-.7-.4-1.5-.4-2.3v-9"/><g fill="none" stroke="#B64E96" stroke-width=".5" stroke-miterlimit="10"><path d="M-121.3 321.5v21.6M-119.5 319v33.6M-114 315.9v10.9M-117.7 317.5v30M-115.8 316.5v12.3M-112.2 315.6V327M-110.3 315.6v12.2M-108.5 315.6v12.6M-103.2 315.6v13.6M-106.8 315.6v13M-105 315.6v13.6M-94 315.6v14.2M-95.8 315.6v14.2M-97.7 315.6v14.2M-99.5 315.6v14.1M-101.3 315.6v13.9M-92.3 315.6v14.2M-68.7 318.8v33.8M-66.8 321.4v21.8M-70.5 317.4v30.1M-72.3 316.5v12.3M-74.2 315.9v10.9M-79.5 315.6v12.5M-76 315.6V327M-77.8 315.6v12.1M-88.7 315.6v14.2M-86.8 315.6v13.9M-85 315.6v13.5M-83.2 315.6V329M-81.3 315.6v13M-90.5 315.6V330"/></g><path fill="none" stroke="#B64E96" stroke-width=".5" stroke-linecap="round" stroke-linejoin="round" stroke-miterlimit="10" d="M-96 347.9h4"/><path fill="#B64E96" d="M-77.3 353.2c-2.6 0-9.3.8-11 1.8-2.3 1.3-3.3 1.2-3.3 1.2h-5s-1 .1-3.3-1.2c-1.7-1-8.4-1.8-11-1.8s-10.7.5-11.8.9l.2 3.5s1.6.4 2 2.9c.3 2 1.2 5.9 3.2 8.9.7 1 1.7 1.6 2.9 1.8 2.8.4 6.6.7 10.5-.2.7-.3 2.4-1 3.1-1.7 1.3-1.4 3.5-3.1 4.3-6.9 0 0 .3-2.8 2.5-2.8s2.5 2.8 2.5 2.8c.8 3.8 3 5.5 4.3 6.9.6.7 2.4 1.5 3 1.8 3.1.8 7.1.5 10.2.1 1.5-.2 2.8-1 3.5-2.3 1.8-3 2.6-6.5 2.9-8.4.3-2.4 2-2.9 2-2.9l.2-3.5c-1.1-.4-9.3-.9-11.9-.9z"/></svg>