<svg xmlns="http://www.w3.org/2000/svg" viewBox="-139.9 297.5 91.7 117.5"><path fill="none" stroke="#B64E96" stroke-width=".5" stroke-miterlimit="10" d="M-78.7 404.4c6.6 0 12-5.4 12-12l2.3-25.2v-32.1c0-6.6-5.4-12-12-12h-35.3c-6.6 0-12 5.4-12 12v32.2l2.4 25.2c0 6.6 5.4 12 12 12h30.6v-.1z"/><path fill="none" stroke="#B64E96" stroke-width=".5" stroke-miterlimit="10" d="M-83.6 323.1c.5-.5 4.2-4.6 3.3-9.6-1-5.3-6.9-5.5-13.6-5.5-7 0-12.6.3-13.6 5.5-.9 5 2.8 9.1 3.3 9.6h20.6zM-123.6 354.9c0-19.8 10.7-27.1 29.6-27.1 19 0 29.6 7.3 29.6 27.1"/><path fill="#B64E96" d="M-89.3 357.3v-3.2c1.5-1.1 17.5-3.5 21.3 2.8-5.8-3.9-14.1-1.9-21.3.4zM-98.7 357.3v-3.2c-1.5-1.1-17.5-3.5-21.3 2.8 5.8-3.9 14.1-1.9 21.3.4z"/><path fill="none" stroke="#B64E96" stroke-width=".5" stroke-miterlimit="10" d="M-123.6 367.9c.7 1.6 2.4 5 6.2 7.7 2.8 2 5.5 2.8 7.2 3.1M-64.3 367.9c-.7 1.6-2.4 5-6.2 7.7-2.8 2-5.5 2.8-7.2 3.1M-86 363.6c.2-.5 1.4-3.2 4.3-4.1 2.9-1 6.3.2 8.4 3M-85.3 363.8c.7.4 3 1.6 6 1.1 2.5-.4 4.1-1.6 4.8-2.2"/><ellipse fill="none" stroke="#B64E96" stroke-width=".5" stroke-miterlimit="10" cx="-79.8" cy="362.1" rx="2.7" ry="2.9"/><circle fill="#B64E96" cx="-79.8" cy="362.1" r="1.2"/><path fill="none" stroke="#B64E96" stroke-width=".5" stroke-miterlimit="10" d="M-86.9 362.7c1.6-2.9 4.6-4.8 7.8-4.8 4.5 0 7.1 3.4 7.3 3.8M-101.8 363.6c-.2-.5-1.4-3.2-4.3-4.1-2.9-1-6.3.2-8.4 3M-102.6 363.8c-.7.4-3 1.6-6 1.1-2.5-.4-4.1-1.6-4.8-2.2"/><ellipse fill="none" stroke="#B64E96" stroke-width=".5" stroke-miterlimit="10" cx="-108" cy="362.1" rx="2.7" ry="2.9"/><circle fill="#B64E96" cx="-108" cy="362.1" r="1.2"/><path fill="none" stroke="#B64E96" stroke-width=".5" stroke-miterlimit="10" d="M-101 362.7c-1.6-2.9-4.6-4.8-7.8-4.8-4.5 0-7.1 3.4-7.3 3.8M-93.9 393.3c6.6 0 5.6-1.9 8.2-2.5M-104.3 388.8c3.5.8 5 0 6.1-.6 2.3-1.2 3.8-.4 4.3.6.6-1 2-1.8 4.3-.6 1.1.6 2.6 1.4 6.1.6"/><path fill="none" stroke="#B64E96" stroke-width=".5" stroke-miterlimit="10" d="M-104.3 388.8c.6.5 1.9 1.1 3 1.2.5 0 .9-.1 1-.1.9-.2 2.6.6 6.4.6 3.8 0 5.5-.9 6.4-.6.1 0 .5.1 1 .1 1-.1 2.4-.7 3-1.1M-93.9 393.3c-6.6 0-5.9-1.8-8.2-2.5M-122 329.1v14.4M-120.2 326.8v12.5M-107.5 323.1v6.4M-103.9 309.2v19.4M-105.7 323.1v5.9M-116.6 324.2v10.4M-114.8 323.5v9.6M-113 323.1v8.8M-111.1 323.1v7.8M-109.3 323.1v7M-118.4 325.2v11.3M-100.3 308.3v19.8M-96.6 308v19.8M-98.5 308.1V328M-102.1 308.6v19.7M-80.3 323.1v6.4M-93 308v19.8M-94.8 308v19.8M-84 309v19.6M-85.8 308.6v19.7M-87.6 308.3v19.8M-89.4 308.1V328M-91.2 308v19.9M-82.1 323.1v5.9M-105.7 310.3v10.8M-82.1 310.2v11.1M-65.8 329.4v14.1M-67.6 326.8v12.5M-71.3 324.2v10.4M-73.1 323.5v9.6M-74.9 323.1v8.8M-76.7 323.1v7.8M-78.5 323.1v7M-69.5 325.2v11.3"/></svg>