<svg xmlns="http://www.w3.org/2000/svg" viewBox="-139.9 297.5 91.7 117.5"><path fill="none" stroke="#B64E96" stroke-width=".5" stroke-linecap="round" stroke-miterlimit="10" d="M-126.8 357.1c-1.6 3.3-1.9 6.4-1.5 7.9.8 2.9 2.9 3.4 3.3 6.8.2 1.4-.1 2.5.8 3.8.2.4 1.2 1.8 2.3 1.7.9-.1 1.1-.3 1.2-1.5M-58.6 357.8c1.6 3.3 1.9 5.7 1.5 7.2-.8 2.9-2.9 3.4-3.3 6.8-.2 1.4.1 2.5-.8 3.8-.2.4-1.2 1.8-2.3 1.7-.9-.1-1.1-.3-1.2-1.5"/><path fill="none" stroke="#B64E96" stroke-width=".5" stroke-miterlimit="10" d="M-121.1 345.1c-.3 2.2-.7 6.1-1.1 10.1-.4 3.9-.7 8-1.4 8s-.7-1.6-4-7.5c-.6-1.1-1.1-.6-1.5-1.2-1.4-2.2 1.4-5.1 1.8-9.9.1-1.9-.1-4.8-.3-5.8"/><path fill="none" stroke="#B64E96" stroke-width=".5" stroke-miterlimit="10" d="M-123.2 362.8c1.6 20.4 15.7 44.4 20.1 44.4h20c5.3 0 16.1-18.8 21.2-41.6"/><path fill="none" stroke="#B64E96" stroke-width=".5" stroke-miterlimit="10" d="M-73.9 325.9c10.5 7.9 5.8 18.5 6.6 26.4.3 3.4 1.5 7.6 5.4 13.3l3.7-8.6c-4.7-14.2-4.7-20.5-3.7-23.7.1-.3.5-1.4.6-3 .2-3.5-1.3-7.5-4.3-9.5-1.8-1.2-3.6-1.3-4.2-1.4-9-.8-17.8-10.4-28.8-13.1-8.6-2.2-22.2-1.1-28.8 7.9-5.1 7-4.4 16.8-1.3 23.1.5 1 4.2 8.3 8.3 7.9 3.5-.4 4-6 8.6-11.1 4.6-5.2 10.9-7.2 16-8.1M-73.9 325.9h-21.8"/><path fill="#B64E96" d="M-96.9 352.9c.1-.6-6.3-3.8-13.1-2.2-4.9 1.2-8.6 4.4-8.4 5 .2.5 3.6-1.5 9.5-2.5 7.3-1.2 10.7 5.5 12-.3zM-89.3 352.9c-.1-.6 6.3-3.8 13.1-2.2 4.9 1.2 8.6 4.4 8.4 5-.2.5-3.6-1.5-9.5-2.5-7.3-1.2-10.7 5.5-12-.3zM-109.3 357.9c-.1.3-.2.6-.2.9 0 1.3 1.1 2.4 2.4 2.4s2.4-1.1 2.4-2.4c0-.3 0-.5-.1-.8l-.3-.5-2.1-.3-1.9.4-.2.3z"/><path fill="none" stroke="#B64E96" stroke-width=".5" stroke-miterlimit="10" d="M-101.1 360.3c-.2-.3-2-3-5.3-3.2-2.8-.2-5.4 1.5-6.7 4.2"/><path fill="#B64E96" d="M-77.1 357.9c.1.3.2.6.2.9 0 1.3-1.1 2.4-2.4 2.4s-2.4-1.1-2.4-2.4c0-.3 0-.5.1-.8l.3-.5 2.1-.3 1.9.4.2.3z"/><path fill="none" stroke="#B64E96" stroke-width=".5" stroke-miterlimit="10" d="M-85.3 360.3c.2-.3 2-3 5.3-3.2 2.8-.2 5.4 1.5 6.7 4.2"/><path fill="none" stroke="#B64E96" stroke-width=".5" stroke-linecap="round" stroke-miterlimit="10" d="M-93.1 402.4V399M-95.6 396.4c.1-.1 1-1.2 2.5-1.1 1.3.1 2 1 2.1 1.2M-102.5 388.1c5.3 5.6 15.6 3.8 18.8 0M-93.1 388.1h9.8M-93.1 386.5l1.6-.9c.2-.1.4-.1.6 0l5.4 2.5M-83.9 386.9l1.1 2.2M-93.1 388.1h-9.7M-93.1 386.5l-1.6-.9c-.2-.1-.4-.1-.6 0l-5.4 2.5M-102.3 386.9l-1.1 2.2M-96.3 358.8v5.7c0 .3 0 .6.1.9l.4 3c.2 1.9-.1 3.9-1.1 5.6-1.3 2.3-2.6 3.6-2.1 4.4.1.2.4.5.9.6.6.1 1-.3 1.4-.5s1.4.7 2.5 1.5c.7.5 1.7.5 2.4 0 1.2-.8 2.2-1.7 2.7-1.5s.8.6 1.4.5c.5-.1.8-.5.9-.6.5-.8-.7-2.1-2.1-4.4-1-1.7-1.3-3.6-1.1-5.6l.4-3c0-.3.1-.6.1-.9v-5.7"/><path fill="none" stroke="#B64E96" stroke-width=".5" stroke-miterlimit="10" d="M-110.1 305.4v27.1M-108.3 305.3V331M-95.6 307.2v18.7M-92 308.7v17.2M-93.8 307.8v18.1M-104.7 305.3v23.5M-102.9 305.5v22.4M-101.1 305.7v21.6M-99.3 306.1v20.6M-97.4 306.6v19.6M-106.5 305.3v24.5M-73.9 318.5v7.3M-75.7 317.8v8M-88.4 310.6v15.2M-90.2 309.6v16.2M-79.3 316v9.8M-81.1 315v10.8M-82.9 313.9v11.9M-84.8 312.8v13M-86.6 311.7v14.1M-77.5 316.9v8.9M-111.9 305.7v28.6M-113.8 306v30.8M-126.4 313.1v44.7M-128.3 348.8v6.3M-117.4 307v35.9M-119.2 307.8v37M-121 308.6v36.5M-122.8 309.8v50.6M-124.6 311.2v50.5M-115.6 306.5v33.3M-128.3 315.6v22.2M-130.1 319.8v13.4M-63 323.5v40.3M-66.6 320.2v35.4M-68.4 319.6v12.8M-70.3 319.3v10.1M-72.1 319v8.4M-64.8 321.4v39.2M-61.2 346.2V364M-59.4 353v6.8M-75.7 317.8v8M-79.3 316v9.8M-77.5 316.9v8.9"/></svg>