<svg xmlns="http://www.w3.org/2000/svg" viewBox="-139.9 297.5 91.7 117.5"><path fill="none" stroke="#B64E96" stroke-width=".5" stroke-miterlimit="10" d="M-66.5 349.6c.8-1.1 1.7-2.2 2.6-2.1 1.6.2 2.7 4.9 2.4 8.8-.3 4.3-2.4 9-4 8.9-.6 0-1.7-.7-2.3-3.2M-121.6 349.6c-.8-1.1-1.7-2.2-2.6-2.1-1.6.2-2.7 4.9-2.4 8.8.3 4.3 2.4 9 4 8.9.6 0 1.7-.7 2.3-3.2"/><path fill="none" stroke="#B64E96" stroke-width=".5" stroke-miterlimit="10" d="M-88.2 397c11.8 0 21.2-33.5 21.2-40.7v-6l1.5-2c-.5-9.2-2.7-20.7-2.7-20.7 0-6.6-5-12-11.1-12h-29.5c-6.1 0-11.1 5.4-11.1 12 0 0-2.2 11.6-2.7 20.7l1.5 2v5.9c0 7.2 7 40.7 21.2 40.7 7.5.1 4.3.1 11.7.1z"/><path fill="#B64E96" d="M-81.3 351.2c.1.2.2.5.2.7.1 1.1-.8 2.1-1.9 2.1s-2.1-.8-2.1-1.9c0-.2 0-.5.1-.7l.2-.2 1.8-.3 1.7.3z"/><path fill="none" stroke="#B64E96" stroke-width=".5" stroke-miterlimit="10" d="M-88.1 353.6c.2-.3 1.6-2.2 4.4-2.5 2.3-.3 4.6.6 5.8 2.8"/><path fill="none" stroke="#B64E96" stroke-width=".5" stroke-miterlimit="10" d="M-86.7 353.3c.6.3 1.9.9 3.6 1 1.9 0 3.3-.7 3.9-1M-122.6 348.4l3.1 4c-.3-2.2-.6-5.7.4-9.9 1.1-4.6 2.1-7.9 3.4-9.8 0-1.3 1-5.5 3.9-7.8 3-2.5 7.5-1.5 11.2-.6 2.8.6 5 .5 6.5 1.3 1.5-.8 3.7-.6 6.5-1.3 3.7-.8 8.1-1.8 11.2.6 2.9 2.3 4 6.5 3.9 7.8 1.3 1.8 2.4 5.2 3.4 9.8 1 4.2.7 7.7.4 9.9l3.1-4"/><path fill="none" stroke="#B64E96" stroke-width=".5" stroke-miterlimit="10" d="M-78 352.6c-.1-.3-1.5-2.7-4.5-3.1-3.3-.4-5.4 2.1-5.6 2.3-1.2 1.5-1.3 3-1.4 3.7M-86.3 354.8c.5.3 1.9 1.3 4 1.3 1.7 0 2.9-.8 3.4-1.1"/><path fill="#B64E96" d="M-106.9 351.2c-.1.2-.2.5-.2.7-.1 1.1.8 2.1 1.9 2.1 1.1.1 2.1-.8 2.1-1.9 0-.2 0-.5-.1-.7l-.2-.2-1.8-.3-1.7.3z"/><path fill="none" stroke="#B64E96" stroke-width=".5" stroke-miterlimit="10" d="M-100 353.6c-.2-.3-1.6-2.2-4.4-2.5-2.3-.3-4.6.6-5.8 2.8"/><path fill="none" stroke="#B64E96" stroke-width=".5" stroke-miterlimit="10" d="M-101.4 353.3c-.6.3-1.9.9-3.6 1-1.9 0-3.3-.7-3.9-1"/><path fill="none" stroke="#B64E96" stroke-width=".5" stroke-miterlimit="10" d="M-110.1 352.6c.1-.3 1.5-2.7 4.5-3.1 3.3-.4 5.4 2.1 5.6 2.3 1.2 1.5 1.3 3 1.4 3.7M-101.9 354.8c-.5.3-1.9 1.3-4 1.3-1.7 0-2.9-.8-3.4-1.1M-97.7 386.3h7.3M-101.5 380.4c.3-.2 4.3-.6 5.1-.7.9 0 1.6.3 2 .5.2.1.4.1.6 0 .4-.2 1.1-.5 2-.5.8 0 4.9.5 5.1.7"/><path fill="none" stroke="#B64E96" stroke-width=".5" stroke-miterlimit="10" d="M-102.6 380.3c1.9.1 4.1.5 6.4 1.1.6.2 1.2.3 1.8.5.3.1.5.1.8 0 .6-.2 1.1-.3 1.7-.5 2.3-.6 4.5-.9 6.4-1.1"/><path fill="none" stroke="#B64E96" stroke-width=".5" stroke-miterlimit="10" d="M-86.7 380.4c-.6.6-1.2 1.8-2.5 2.4-1.1.6-3.8 2-6.9 1.3-2-.5-3.4-1.7-4.2-2.5"/><circle fill="#B64E96" cx="-86" cy="378.3" r=".5"/><circle fill="#B64E96" cx="-88.2" cy="375.3" r=".5"/><circle fill="#B64E96" cx="-92.2" cy="375.3" r=".5"/><circle fill="#B64E96" cx="-96.1" cy="375.3" r=".5"/><circle fill="#B64E96" cx="-90.1" cy="378.2" r=".5"/><circle fill="#B64E96" cx="-94" cy="378.2" r=".5"/><circle fill="#B64E96" cx="-98.1" cy="378.2" r=".5"/><circle fill="#B64E96" cx="-101.8" cy="378.2" r=".5"/><circle fill="#B64E96" cx="-100" cy="375.3" r=".5"/><circle fill="#B64E96" cx="-100" cy="395.4" r=".5"/><circle fill="#B64E96" cx="-96" cy="395.4" r=".5"/><circle fill="#B64E96" cx="-92.1" cy="395.4" r=".5"/><circle fill="#B64E96" cx="-90.2" cy="392.6" r=".5"/><circle fill="#B64E96" cx="-86.1" cy="392.6" r=".5"/><circle fill="#B64E96" cx="-94.1" cy="392.6" r=".5"/><circle fill="#B64E96" cx="-99.5" cy="389.6" r=".5"/><circle fill="#B64E96" cx="-95.6" cy="389.6" r=".5"/><circle fill="#B64E96" cx="-94.1" cy="386.8" r=".5"/><circle fill="#B64E96" cx="-92.1" cy="389.6" r=".5"/><circle fill="#B64E96" cx="-88.2" cy="389.6" r=".5"/><circle fill="#B64E96" cx="-102" cy="392.6" r=".5"/><circle fill="#B64E96" cx="-98" cy="392.6" r=".5"/><circle fill="#B64E96" cx="-88.2" cy="395.4" r=".5"/><path fill="none" stroke="#B64E96" stroke-width=".5" stroke-miterlimit="10" d="M-98.6 373.1h9.1c.1-.3.4-1.2 0-2.3-.3-.9-1-1.4-1.2-1.6M-90 347.2c.1-.5.4-.9.9-.9l9.8-1.3c1-.1 1.9.2 2.6.9l5 4.9c.1.1 0 .3-.2.2l-6.9-3.1c-.4-.1-.9-.2-1.3-.1l-9.4 1.6c-.4.1-.8-.3-.8-.8l.3-1.4zM-98.2 347.2c-.1-.5-.4-.9-.9-.9l-9.8-1.3c-1-.1-1.9.2-2.6.9l-5 4.9c-.1.1 0 .3.2.2l6.9-3.1c.4-.1.9-.2 1.3-.1l9.4 1.6c.4.1.8-.3.8-.8l-.3-1.4zM-112.2 316.2v9.1M-110.4 315.8v8.3M-97.7 315.7v9.1M-94 315.7v9.9M-95.9 315.7v9.4M-106.7 315.7v7.7M-104.9 315.7v7.8M-103.1 315.6v8.2M-101.3 315.6v8.6M-99.5 315.8v8.6M-108.5 315.6v8M-75.9 316.2v9.2M-77.7 315.8v8.4M-90.4 315.7v9.1M-92.2 315.7v9.4M-81.4 315.7v7.7M-83.2 315.7v7.8M-85 315.7v8.1M-86.8 315.7v8.7M-88.6 315.8v8.6M-79.5 315.7v7.9M-114 317v10.7M-115.8 318.4V333M-68.7 324.4v20M-70.5 320.4v16.8M-72.3 318.5V333M-74.1 317.2v10.5M-66.9 336.1v14M-119.5 324.4v20M-117.7 320.4v16.8"/></svg>