<svg xmlns="http://www.w3.org/2000/svg" viewBox="-94 238.8 91.7 117.5"><path fill="none" stroke="#B64E96" stroke-width=".5" stroke-miterlimit="10" d="M-35.3 271h3.8c6.6 0 12 5.4 12 12l-6.1 57.3c0 6.6-5.4 12-12 12h-18.6c-6.6 0-12-5.4-12-12l-6.1-57.3c0-6.6 5.4-12 12-12h3.5"/><path fill="none" stroke="#B64E96" stroke-width=".5" stroke-miterlimit="10" d="M-44.9 245h1.8v32.5h-1.8z"/><path fill="none" stroke="#B64E96" stroke-width=".50001" stroke-miterlimit="10" d="M-47.037 281.114l-1.686-.63 11.381-30.443 1.687.63z"/><path fill="none" stroke="#B64E96" stroke-width=".50001" stroke-miterlimit="10" d="M-44.929 276.435l-1.714.548-9.9-30.956 1.715-.549z"/><path fill="none" stroke="#B64E96" stroke-width=".5" stroke-miterlimit="10" d="M-51.6 246.4h1.8v32.5h-1.8z"/><path fill="none" stroke="#B64E96" stroke-width=".5" stroke-miterlimit="10" d="M-56.37 298.732l-1.734-.482 8.7-31.314 1.735.482z"/><path fill="none" stroke="#B64E96" stroke-width=".500005" stroke-miterlimit="10" d="M-43.778 282.186l-1.783.25-4.495-32.189 1.783-.249z"/><path fill="none" stroke="#B64E96" stroke-width=".5" stroke-miterlimit="10" d="M-48.3 241.6h1.8v32.5h-1.8zM-37.576 278.86l-1.73-.499 6.08-21.04 1.73.5z"/><path fill="none" stroke="#B64E96" stroke-width=".50001" stroke-miterlimit="10" d="M-55.408 279.413l-1.77.33-4.012-21.53 1.77-.33z"/><path fill="none" stroke="#B64E96" stroke-width=".500005" stroke-miterlimit="10" d="M-55.352 277.054l-1.8.008-.093-21.9 1.8-.008z"/><path fill="none" stroke="#B64E96" stroke-width=".49998" stroke-miterlimit="10" d="M-38.907 277.05l-1.8.032-.395-21.896 1.8-.032z"/><path fill="none" stroke="#B64E96" stroke-width=".5" stroke-miterlimit="10" d="M-36.005 277.743l-1.794.148-1.805-21.825 1.794-.149zM-52.967 277.556l-1.8.006-.065-21.9 1.8-.006zM-39.3 298.4h14.8M-68.6 298.4h14.8M-57.8 335.7h25.9c-1.1 1.4-2.8 3.2-5.3 4.5-7.3 3.9-15.1.5-16.3 0"/><path fill="#B64E96" d="M-32 300.3c-2.3 0-8.2.7-9.8 1.6-2 1.2-2.9 1.1-2.9 1.1h-4.4s-.9.1-2.9-1.1c-1.5-.9-7.5-1.6-9.8-1.6-2.3 0-11.6.4-12.5.8l.2 3.1s1.5.4 1.7 2.5c.3 2.1 1.4 8.4 4.1 10.2 2.5 1.6 7.1 2.8 12.6.4.6-.3 2.1-1.3 2.7-1.9 1.2-1.3 3.1-3.7 3.8-7.1 0 0 .2-2.5 2.2-2.5 1.9 0 2.2 2.5 2.2 2.5.7 3.4 2.6 5.8 3.8 7.1.6.6 2.1 1.6 2.7 1.9 5.6 2.4 10.2 1.2 12.6-.4 2.7-1.8 3.9-8.1 4.1-10.2.3-2.1 1.7-2.5 1.7-2.5l.2-3.1c-.7-.4-10-.8-12.3-.8z"/><path fill="none" stroke="#B64E96" stroke-width=".5" stroke-miterlimit="10" d="M-57.6 277.5c-1.5.2-6.2.8-9.7 4-4.6 4.2-5.9 10.2-6 11.4M-36.2 277.5c1.5.2 6.2.8 9.7 4 4.6 4.2 5.9 10.2 6 11.4"/><path fill="none" stroke="#B64E96" stroke-width=".500005" stroke-miterlimit="10" d="M-41.287 279.53l-1.785-.23 4.157-32.233 1.785.23z"/></svg>