<svg xmlns="http://www.w3.org/2000/svg" viewBox="-139.9 297.5 91.7 117.5"><path fill="none" stroke="#B64E96" stroke-width=".5" stroke-miterlimit="10" d="M-64.7 325v17.1h-17.2l-12.2-24.4H-77c7.3 0 13.3 5.4 13.3 12L-79.1 387c0 6.6-6 12-13.3 12h-3.7c-7.3 0-13.3-5.4-13.3-12l-15.1-57.3c0-6.6 6-12 13.3-12h16.3l3.3 6.8-9.5 17.6h-10l-11.5.2v-18.5"/><path fill="none" stroke="#B64E96" stroke-width=".5" stroke-miterlimit="10" d="M-98.1 354.7h-18.1c-.5 0-1-.5-1-1v-6.8c0-.5.4-1 1-1h18.1c.5 0 1 .5 1 1v6.8c0 .5-.5 1-1 1zM-71.9 354.7H-90c-.5 0-1-.5-1-1v-6.8c0-.5.5-1 1-1h18.1c.6 0 1 .5 1 1v6.8c0 .5-.5 1-1 1zM-117.2 343.3h20.1v1.9h-20.1zM-91 343.3h20.1v1.9H-91zM-97.1 350.3h6.1M-70.9 350.3h1.7M-117.2 350.3h-1.9"/><path fill="none" stroke="#B64E96" stroke-width=".448" stroke-miterlimit="10" d="M-86.8 351.1l11.7.7c-1-1.7-3.3-2.9-5.9-2.9-2.3 0-4.7.7-5.8 2.2z"/><path fill="#B64E96" d="M-80 351.6l-1.8-.1c-.6-.1-1.1-.5-1-1l.1-.8c.1-.5.6-.9 1.3-.8l1.8.1c.6.1 1.1.5 1 1l-.1.8c-.1.5-.7.8-1.3.8z"/><path fill="none" stroke="#B64E96" stroke-width=".448" stroke-miterlimit="10" d="M-101.3 351l-11.7.7c1-1.7 3.3-2.9 5.9-2.9 2.3 0 4.7.7 5.8 2.2z"/><path fill="#B64E96" d="M-108.1 351.5l1.8-.1c.6-.1 1.1-.5 1-1l-.1-.9c-.1-.5-.6-.9-1.3-.8l-1.8.1c-.6.1-1.1.5-1 1l.1.8c.1.6.7.9 1.3.9z"/><path fill="none" stroke="#B64E96" stroke-width=".448" stroke-miterlimit="10" d="M-75.5 349.4c.9.3 1.3.8 1.5 1.2.2.5.1 1 .4 1.4s1 .5 1.5.5M-113 349.4c-.9.3-1.3.8-1.5 1.2-.2.5-.1 1-.4 1.4s-1 .5-1.5.5"/><g fill="none" stroke="#B64E96" stroke-width=".5" stroke-miterlimit="10"><path d="M-90 325.9v-8.2M-91.9 322.1v-4.4M-93.7 328.4v-8M-95.5 331.7v-14M-100.9 341.8v-24.1M-97.3 335v-17.3M-99.1 338.3v-20.6M-108.2 342v-24.3M-106.4 342v-24.3M-104.5 342v-24.3M-102.7 342v-24.3M-81 342v-24.3M-82.8 340.3v-22.6M-84.6 336.8v-19.1M-86.4 333v-15.3M-88.2 329.4v-11.7M-75.5 342.1v-24.4M-77.4 342v-24.3M-79.2 342v-24.3M-117.2 342v-23M-115.4 342v-23.6M-113.6 342.2v-24.5M-111.8 342.1v-24.4M-110 342v-24.3M-120.9 342.3v-20.9M-119 342v-21.8M-70.1 342v-22.6M-71.9 342.1v-23.7M-73.7 342.1V318M-66.5 342v-19.8M-68.3 342v-21.4"/></g><path fill="none" stroke="#B64E96" stroke-width=".5" stroke-linejoin="round" stroke-miterlimit="10" d="M-93.8 385.2c-1.4 0-5.4-.8-5.4-.8.4-.1 2.7-.7 3.4-.8.7-.2 1.3-.2 2 .5.7-.7 1.4-.7 2-.5.7.2 3 .7 3.4.8 0 0-4.1.8-5.4.8z"/><path fill="none" stroke="#B64E96" stroke-width=".5" stroke-miterlimit="10" d="M-99.4 384.4c.3.4.9 1.1 1.9 1.6 1.6.9 3.1.7 3.7.8.6 0 2.1.1 3.7-.8.9-.5 1.5-1.2 1.9-1.6"/><path fill="none" stroke="#B64E96" stroke-width=".5" stroke-linejoin="round" stroke-miterlimit="10" d="M-87.4 368.1c-.8.9-2.3 1.4-3.2 1.7-3.4 1.1-6.5.2-7.7-.3"/></svg>