<svg xmlns="http://www.w3.org/2000/svg" viewBox="-139.9 297.5 91.7 117.5"><path fill="none" stroke="#B64E96" stroke-width=".5" stroke-miterlimit="10" d="M-68.3 357.7c1.9-3.5 4.7-5.4 6-5 1.4.5 2.2 4.8.6 7.6-1.5 2.6-4.3 2.7-5.1 5.6-.3 1.1-.6 3.3-1.3 3.6-.7.3-.8-.1-1.4-.6M-119.8 357.8c-1.9-3.5-4.7-5.5-5.9-5.1-1.4.5-2.2 4.8-.6 7.6 1.5 2.6 4.3 2.7 5.1 5.6.3 1.1.6 3.3 1.3 3.6.7.3.8-.1 1.4-.6"/><path fill="none" stroke="#B64E96" stroke-width=".5" stroke-miterlimit="10" d="M-86.1 395.3c4.3-2 14.7-16 15.5-19.7 1.3-5.9 2.7-23.7 3.8-33.7.1-2.3-2.8-17.5-8.1-19.2-1.2-.4-2.4-.9-3.4-1.6-2.8-2-8.8-5.3-15.9-5.3-7.8 0-13.4 3.3-16.1 5.3-1 .7-2.1 1.2-3.2 1.6-5.2 1.8-8.2 17-8.1 19 1.1 10.3 2.6 28.7 4 34.8.8 3.5 10 16.2 15.5 18.8 4.4 2 12.5 1.7 16 0zM-94.1 326v4.4M-75.9 328.2v2.1M-77.7 327.8v2.5M-90.4 326v4.3M-92.2 325.9v4.4M-81.4 326.9v3.4M-83.2 326.6v3.7M-85 326.4v3.9M-86.8 326.2v4.1M-88.6 326.1v4.2M-79.6 327.3v3"/><path fill="#B64E96" d="M-89.1 348.9c.7-1 11.5-.7 14.3 0 1.9.5 3.6 1.7 3.5 2s-1.5-.3-3.5-.3c-2.2-.1-2.9-.3-7.8.7-3.6.8-4.5 1.5-5.3 1-1.1-.8-1.8-2.6-1.2-3.4z"/><path fill="none" stroke="#B64E96" stroke-width=".5" stroke-miterlimit="10" d="M-88.1 356c.5-.6.9-1.8 2.8-2.7 2.3-.3 5.4.8 7.3 2.8.4.4 1-.6 1.6-.6"/><path fill="#B64E96" d="M-80.9 355.2c-.1.8-1 1.4-2.2 1.3-1.1-.1-1.9-.8-1.9-1.7 0-2.5 1-1.4 2.2-1.3 1.1.1 2 .9 1.9 1.7z"/><path fill="none" stroke="#B64E96" stroke-width=".5" stroke-miterlimit="10" d="M-86.6 355.5s1.8.6 3.2 1c.8.2 2.3.6 4.2-.5M-86.7 357.5c.6.4 1.6 1 3.1 1.3 2.4.4 4.3-.4 5-.8M-103.9 376.6c1.4-.5 4.9-.2 7-.5.7.1 1.5.3 2.5.8.2.1.4.1.6 0 .9-.4 1.7-.5 2.3-.7 1.7.3 6.1-.1 7.5.4"/><path fill="none" stroke="#B64E96" stroke-width=".5" stroke-miterlimit="10" d="M-106.1 376.4c.2-.4.6-.3.6-.3s3.6 1 7.4 1.8c1.2.2 2.5.3 3.9.2 1.4.1 2.7 0 3.9-.2 3.8-.8 7.4-1.8 7.4-1.8s.4-.1.7.3"/><path fill="none" stroke="#B64E96" stroke-width=".5" stroke-miterlimit="10" d="M-104.4 376.4c1.2 1 4.2 4.4 10.3 4.5 6.2 0 9.2-3.5 10.4-4.5M-82.6 373.4s2-.5 1.8 2c-.1 2.2-2.1 3.6-2.4 3.8M-105.1 373.2s-2.5-.3-2.4 2.2c.1 2.2 2.1 3.6 2.4 3.8"/><path fill="#B64E96" d="M-99 348.9c-.7-1-11.5-.7-14.3 0-1.9.5-3.6 1.7-3.5 2s1.5-.3 3.5-.3c2.2-.1 2.9-.6 7.8.5 3.6.8 4.5 1.8 5.3 1.3 1.1-.9 1.8-2.7 1.2-3.5z"/><path fill="none" stroke="#B64E96" stroke-width=".5" stroke-miterlimit="10" d="M-100 356c-.5-.6-.9-1.8-2.8-2.7-2.3-.3-5.4.8-7.3 2.8-.4.4-.9-.6-1.4-.6"/><path fill="#B64E96" d="M-107.2 355.2c.1.8 1 1.4 2.2 1.3 1.1-.1 1.9-.8 1.9-1.7 0-2.5-1-1.4-2.2-1.3-1.1.1-2 .9-1.9 1.7z"/><path fill="none" stroke="#B64E96" stroke-width=".5" stroke-miterlimit="10" d="M-101.5 355.5s-1.8.6-3.2 1c-.8.2-2.3.6-4.2-.5M-101.4 357.5c-.6.4-1.6 1-3.1 1.3-2.4.4-4.3-.4-5-.8M-112.2 328.2v2.1M-110.4 327.8v2.5M-97.7 326v4.3M-95.9 325.9v4.4M-106.7 326.9v3.4M-104.9 326.6v3.7M-103.1 326.4v3.9M-101.3 326.2v4.1M-99.5 326.1v4.2M-108.6 327.3v3M-105.5 389.1c2.2 4.3 6.7 6.9 11.5 6.9 4.7 0 9-2.7 11.3-6.9M-93.1 372.5c.6-.8 1.4-1.8 2.6-2 1.4-.3 2.4.6 2.9.3.4-.3.4-1.6-1.4-5.3M-74.5 331.6c.8.5 2.7 2 3.8 4.7 1.5 4-.2 7.5-.5 8.1l3 12.4M-89.1 353.1c-.2.1-1.8 1-2.1 2.8-.3 1.7.7 3.5 2.4 4.3M-94.9 372.5c-.6-.8-1.4-1.8-2.6-2-1.4-.3-2.4.6-2.9.3-.4-.3-.4-1.6 1.4-5.3M-99 353.1c.2.1 1.8 1 2.1 2.8.3 1.7-.7 3.5-2.4 4.3"/><circle fill="#B64E96" cx="-92.2" cy="319.6" r=".5"/><circle fill="#B64E96" cx="-90.3" cy="321.8" r=".5"/><circle fill="#B64E96" cx="-88.5" cy="319.6" r=".5"/><circle fill="#B64E96" cx="-86.8" cy="321.8" r=".5"/><circle fill="#B64E96" cx="-83.1" cy="321.8" r=".5"/><circle fill="#B64E96" cx="-94" cy="321.9" r=".5"/><circle fill="#B64E96" cx="-95.8" cy="319.6" r=".5"/><circle fill="#B64E96" cx="-97.7" cy="321.8" r=".5"/><circle fill="#B64E96" cx="-99.6" cy="319.6" r=".5"/><circle fill="#B64E96" cx="-101.3" cy="321.8" r=".5"/><circle fill="#B64E96" cx="-105" cy="321.8" r=".5"/><path fill="none" stroke="#B64E96" stroke-width=".5" stroke-miterlimit="10" d="M-113.6 331.6c-.8.5-2.7 2-3.8 4.7-1.5 4 .2 7.5.5 8.1l-3 12.4"/></svg>