<svg xmlns="http://www.w3.org/2000/svg" viewBox="-139.9 297.5 91.7 117.5"><path fill="none" stroke="#B64E96" stroke-width=".5" stroke-miterlimit="10" d="M-74.8 393c6.6 0 12-5.4 12-12v-50.1c0-6.6-5.4-12-12-12l-1.1-1.9c-.6-1-1.6-1.6-2.7-1.6h-30.7c-1.2 0-2.2.6-2.8 1.7l-1 1.8c-6.6 0-12 1.9-12 8.5V381c0 6.6 5.4 12 12 12 0 0 8.3 3.3 11.2 3.7 3.9.6 11.9.6 15.8 0 2.9-.5 11.3-3.7 11.3-3.7z"/><circle fill="#B64E96" cx="-80.6" cy="356.8" r="1.1"/><path fill="none" stroke="#B64E96" stroke-width=".5" stroke-linejoin="round" stroke-miterlimit="10" d="M-91.7 377.7s-.2 2.3-2.2 2.3c-1.8 0-2.1-2.3-2.1-2.3"/><path fill="none" stroke="#B64E96" stroke-width=".5" stroke-miterlimit="10" d="M-72 352.5h-16.3c-.6 0-1-.4-1-1v-.7c0-.6.4-1 1-1H-72c.6 0 1 .4 1 1v.7c0 .5-.4 1-1 1zM-99.5 352.5h-16.3c-.6 0-1-.4-1-1v-.7c0-.6.4-1 1-1h16.3c.6 0 1 .4 1 1v.7c0 .5-.5 1-1 1zM-94 392.3c-10-.1-17.1-.5-21.1-2.6-7.1-3.7-7.1-23.7-7.1-23.7h-3.1c-.8 0-1.7-.3-2.3-.8-2.3-1.8-7-6.3-6.7-12.4 0-.7.1-1.4.3-2.3.2-.9 1.1-1.6 2-1.6h6.8M-94 392.3c10-.1 17.1-.5 21.1-2.6 7.1-3.7 7.1-23.7 7.1-23.7h3.1c.8 0 1.7-.3 2.3-.8 2.3-1.8 7-6.3 6.7-12.4 0-.7-.1-1.4-.3-2.3s-1.1-1.6-2-1.6h-6.8"/><path fill="none" stroke="#B64E96" stroke-width=".5" stroke-miterlimit="10" d="M-94 384.9h4.7c0 .3.3 4.1-4.8 4.1"/><path fill="none" stroke="#B64E96" stroke-width=".5" stroke-miterlimit="10" d="M-93.9 384.9h-4.7c0 .3-.3 4.1 4.8 4.1M-91.7 374.7v4.3l9.3 3.3h4.3v-3zM-96 374.7v4.3l-9.2 3.3h-4.3v-3z"/><path fill="none" stroke="#B64E96" stroke-width=".5" stroke-miterlimit="10" d="M-100.8 380.7c.9.5 3.6 2.1 6.9 2.1 2.9 0 6.1-1.5 7-2.1M-85.5 357.4c.2-.3 1.2-3.2 4.7-2.8 2.2.3 5.3 2 6.1 3.2"/><path fill="none" stroke="#B64E96" stroke-width=".5" stroke-miterlimit="10" d="M-84.3 357.5c.4.3 2.2 1.5 4.6 1.1 2.1-.3 3.3-1.5 3.7-1.9M-84.5 354.3c.7-.4 1.9-.9 3.5-.9 3.1 0 5.2 2 5.7 2.4"/><path fill="none" stroke="#B64E96" stroke-width=".5" stroke-miterlimit="10" d="M-78.5 356.7c0 1.1-.9 2.1-2.1 2.1s-2.1-.9-2.1-2.1.9-1.9 2.1-1.9 2.1.7 2.1 1.9zM-102.4 357.4c-.2-.3-1.2-3.2-4.7-2.8-2.2.3-5.3 2-6.1 3.2"/><path fill="none" stroke="#B64E96" stroke-width=".5" stroke-miterlimit="10" d="M-103.7 357.5c-.4.3-2.2 1.5-4.6 1.1-2.1-.3-3.3-1.5-3.7-1.9M-103.4 354.3c-.7-.4-1.9-.9-3.5-.9-3.1 0-5.2 2-5.7 2.4"/><path fill="none" stroke="#B64E96" stroke-width=".5" stroke-miterlimit="10" d="M-109.4 356.7c0 1.1.9 2.1 2.1 2.1s2.1-.9 2.1-2.1-.9-1.9-2.1-1.9-2.1.7-2.1 1.9z"/><circle fill="#B64E96" cx="-107.3" cy="356.8" r="1.1"/><g fill="none" stroke="#B64E96" stroke-width=".5" stroke-miterlimit="10"><path d="M-121.2 320.4v22.1M-119.4 319.7v5.8M-114 318.9v8.5M-117.6 319.2v7.1M-115.8 319.1v7.8M-112.2 317v10.7M-110.4 315.4v12.5M-108.5 315.4v12.5M-103.1 315.4v13.1M-106.7 315.4v13M-104.9 315.4v13M-94 315.4v13.1M-95.9 315.4v13.1M-97.7 315.4v13.1M-99.5 315.4v13.2M-101.3 315.4v13M-92.2 315.4v13.1M-68.7 320.5v5M-66.9 321.8v20.3M-70.5 319.6v6.7M-72.3 319.1v7.8M-74.1 319.1v8.2M-79.5 315.4v12.5M-75.9 316.8v10.9M-77.7 315.4v12.5M-88.6 315.4v13.1M-86.8 315.4v13.1M-85 315.4v13M-83.2 315.4v13M-81.4 315.4v13M-90.4 315.4v13.2"/></g><path fill="none" stroke="#B64E96" stroke-width=".5" stroke-miterlimit="10" d="M-65 366v22M-65 323.9v22M-68.7 330.1v8.2M-119.4 329.5v9.3M-123 321.7V346M-123 366v21.6M-104.6 377.6v4.5M-108.2 378.8v3.5M-106.4 378.2v4.1M-102.8 377v4.4M-101 376.4v4.4M-99.1 375.8v4.4M-100.5 349.8v2.7M-97.3 375.1v4.4M-102.3 349.8v2.7M-91.3 384.9v3.6M-93.1 384.9v4.1M-95 384.9v4M-96.8 384.9v3.5M-121.2 376.8v13M-119.4 383.8v7.4M-114 390.2v2.8M-117.6 387.3v4.8M-115.8 389.2v3.5M-112.2 390.8v2.6M-110.4 391.2v2.8M-108.5 391.5v3.2M-103.1 392.1v4.3M-106.7 391.7v3.6M-104.9 392.1v3.8M-94 392.1v5.1M-95.9 392.1v5.1M-97.7 392.1v5M-99.5 392.1v4.9M-101.3 392.1v4.7M-92.2 392.1v5.1M-68.7 384.2v7.1M-66.9 377.8V390M-70.5 387.6v4.6M-72.3 389.4v3.3M-74.1 390.2v2.8M-79.5 391.5v3.2M-75.9 390.9v2.5M-77.7 391.3v2.8M-88.6 392.1v4.9M-86.8 392.1v4.7M-85 392.1v4.4M-83.2 392.1v3.8M-81.4 391.8v3.6M-90.4 392.1v5M-111.4 349.8v2.7M-115 349.8v2.7M-113.2 349.8v2.7M-109.5 349.8v2.7M-107.7 349.8v2.7M-105.9 349.8v2.7M-104.1 349.8v2.7M-83.2 377.6v4.5M-79.5 378.9v3.5M-81.4 378.2v4.2M-85 377v4.5M-86.8 376.4v4.4M-88.6 375.8v4.4M-90.4 375.2v4.3M-72.9 349.8v2.7M-74.7 349.8v2.7M-83.8 349.8v2.7M-87.4 349.8v2.7M-85.6 349.8v2.7M-82 349.8v2.7M-80.1 349.8v2.7M-78.3 349.8v2.7M-76.5 349.8v2.7"/><path fill="none" stroke="#B64E96" stroke-width=".5" stroke-linejoin="round" stroke-miterlimit="10" d="M-99 370.1c.2.8.6 1.4.9 1.8 1.6 1.8 4.3 1 8 .5 1.2-.2 1-1.8.8-1.9"/><path fill="none" stroke="#B64E96" stroke-width=".5" stroke-miterlimit="10" d="M-84.7 358.4c.1.1 1.1 2.4 3.7 2.8 1.8.2 3.6-.7 4.6-2.3M-103.3 358.4c-.1.1-1.1 2.4-3.7 2.8-1.8.2-3.6-.7-4.6-2.3"/><circle fill="none" stroke="#B64E96" stroke-width=".5" stroke-miterlimit="10" cx="-74.1" cy="367.4" r="5.5"/><circle fill="none" stroke="#B64E96" stroke-width=".5" stroke-miterlimit="10" cx="-114" cy="367.4" r="5.5"/><path fill="none" stroke="#B64E96" stroke-width=".5" stroke-miterlimit="10" d="M-94 328.5c-11.6.1-21.5-.1-27.1-4 1.1 2.9 2.6 8.8 3.4 10.6l-7.5 15.3V366M-94 328.5c11.6.1 21.5-.1 27.1-4-1.1 2.9-2.6 8.8-3.4 10.6l7.5 15.3V366"/></svg>