<svg xmlns="http://www.w3.org/2000/svg" viewBox="-139.9 297.5 91.7 117.5"><path fill="none" stroke="#B64E96" stroke-width=".5" stroke-linejoin="round" stroke-miterlimit="10" d="M-64.4 348.2c.2 4.3 2.2 9.5 1.7 12.6-.3 1.8-2.7 3.7-4 3.3-1.1-.3-2-2.2-1.8-4.4M-123.6 348.2c-.2 4.3-2.2 9.5-1.7 12.6.3 1.8 2.7 3.7 4 3.3 1.1-.3 2-2.2 1.8-4.4"/><path fill="none" stroke="#B64E96" stroke-width=".5" stroke-linejoin="round" stroke-miterlimit="10" d="M-66.6 355.8c-1.3-4.1 0-4.9.8-6 .7-.9 1.8-1.6 1.6-2.5-.2-.7-1.1-1.2-1.8-1.1-1.6.3-1.9 4.4-1.9 4.9-.2 3.5 2.5 5.3 1.6 7.2-.4.8-1.1 2-1.7 2.2M-121.4 355.8c1.3-4.1 0-4.9-.8-6-.7-.9-1.8-1.6-1.6-2.5.2-.7 1.1-1.2 1.8-1.1 1.6.3 1.9 4.4 1.9 4.9.2 3.5-2.5 5.3-1.6 7.2.4.8 1.1 2 1.7 2.2M-88 396.9c5.3 0 18.9-14.7 18.9-22.5l.9-23.4v-3.8l-.7-19.6c0-6.6-4.8-12-10.6-12h-29.1c-5.8 0-10.6 5.4-10.6 12l-.6 21v2.5l1.1 23.1c0 8.6 13.4 22.7 18.7 22.7h12z"/><path fill="none" stroke="#B64E96" stroke-width=".5" stroke-linejoin="round" stroke-miterlimit="10" d="M-119.8 351l2.2-8.4c0-.9.5-14 .7-15 1.3-4.9 6.9-6.3 8.5-7.2h28.6c1.5.9 7.6 2.5 8.8 7.5.3 1-.1 13.2-.1 14l2.9 9.1M-88.4 354c.1-.2 1.3-2.9 4-2.9 1.5 0 4.6 1.7 5.1 2.5"/><path fill="#B64E96" d="M-82.3 351.4c.1.2.1.4.1.7 0 1-.8 1.8-1.8 1.9-1 0-1.8-.8-1.9-1.8 0-.2 0-.4.1-.6l.2-.1 1.7-.2 1.6.1z"/><path fill="none" stroke="#B64E96" stroke-width=".5" stroke-linejoin="round" stroke-miterlimit="10" d="M-87.4 353.6c.8.3 2 .6 3.5.5 1.9-.1 3.3-.7 4.1-1.1M-88.5 354.7c.7.6 2.3 1.7 4.6 2 1.9.3 3.5 0 4.4-.3M-89.9 353.2c3-6.3 9.4-2 12.7.4"/><path fill="none" stroke="#B64E96" stroke-width=".5" stroke-linejoin="round" stroke-miterlimit="10" d="M-75.1 349.9h-14c-.8 0-1.4-.6-1.4-1.4v-.2c0-.8.6-1.4 1.4-1.4h14c.8 0 1.4.6 1.4 1.4v.2c0 .8-.7 1.4-1.4 1.4zM-103 380c.3-.2 5.4-2.1 6.5-2 1.3.2 2.1.8 2.5 1.1.3-.3 1.2-1 2.5-1.1 1.1-.2 6.3 1.8 6.5 2"/><path fill="none" stroke="#B64E96" stroke-width=".5" stroke-linejoin="round" stroke-miterlimit="10" d="M-103.5 379.7l.5.3h17.9l.6-.4M-100.1 381.1c.6.3 1.4.7 2.4 1 1.5.4 2.8.5 3.7.4.9 0 2.2 0 3.7-.4 1-.3 1.8-.6 2.4-1"/><circle fill="#B64E96" cx="-83.9" cy="376.4" r=".5"/><circle fill="#B64E96" cx="-86" cy="373.6" r=".5"/><circle fill="#B64E96" cx="-87.9" cy="376.4" r=".5"/><circle fill="#B64E96" cx="-90.1" cy="373.5" r=".5"/><circle fill="#B64E96" cx="-94" cy="373.5" r=".5"/><circle fill="#B64E96" cx="-97.9" cy="373.5" r=".5"/><circle fill="#B64E96" cx="-92" cy="376.3" r=".5"/><circle fill="#B64E96" cx="-95.9" cy="376.3" r=".5"/><circle fill="#B64E96" cx="-100" cy="376.3" r=".5"/><circle fill="#B64E96" cx="-103.7" cy="376.3" r=".5"/><circle fill="#B64E96" cx="-101.9" cy="373.5" r=".5"/><circle fill="#B64E96" cx="-94.1" cy="386.9" r=".5"/><circle fill="#B64E96" cx="-96.1" cy="384.1" r=".5"/><circle fill="#B64E96" cx="-92.2" cy="384.1" r=".5"/><circle fill="#B64E96" cx="-79.8" cy="376.6" r=".5"/><circle fill="#B64E96" cx="-81.8" cy="379.4" r=".5"/><circle fill="#B64E96" cx="-107.8" cy="376.2" r=".5"/><circle fill="#B64E96" cx="-105.7" cy="379.3" r=".5"/><circle fill="#B64E96" cx="-105.7" cy="384.7" r=".5"/><circle fill="#B64E96" cx="-107.6" cy="382.1" r=".5"/><circle fill="#B64E96" cx="-81.8" cy="384.6" r=".5"/><circle fill="#B64E96" cx="-79.8" cy="382" r=".5"/><circle fill="#B64E96" cx="-88" cy="395.3" r=".5"/><circle fill="#B64E96" cx="-90.1" cy="392.3" r=".5"/><circle fill="#B64E96" cx="-94.1" cy="392.3" r=".5"/><circle fill="#B64E96" cx="-98" cy="392.3" r=".5"/><circle fill="#B64E96" cx="-92.1" cy="395.2" r=".5"/><circle fill="#B64E96" cx="-96" cy="395.2" r=".5"/><circle fill="#B64E96" cx="-100" cy="395.2" r=".5"/><circle fill="#B64E96" cx="-81.8" cy="389.8" r=".5"/><circle fill="#B64E96" cx="-79.8" cy="387.2" r=".5"/><circle fill="#B64E96" cx="-105.7" cy="384.7" r=".5"/><circle fill="#B64E96" cx="-105.7" cy="390.2" r=".5"/><circle fill="#B64E96" cx="-107.6" cy="387.6" r=".5"/><circle fill="#B64E96" cx="-102.5" cy="392.3" r=".5"/><circle fill="#B64E96" cx="-85.9" cy="392.3" r=".5"/><path fill="none" stroke="#B64E96" stroke-width=".5" stroke-linejoin="round" stroke-miterlimit="10" d="M-99 349.9h-14c-.8 0-1.4-.6-1.4-1.4v-.2c0-.8.6-1.4 1.4-1.4h14c.8 0 1.4.6 1.4 1.4v.2c0 .8-.6 1.4-1.4 1.4zM-99.8 354c-.1-.2-1.3-2.9-4-2.9-1.5 0-4.6 1.7-5.1 2.5"/><path fill="#B64E96" d="M-105.8 351.4c-.1.2-.1.4-.1.7 0 1 .8 1.8 1.8 1.9 1 0 1.8-.8 1.9-1.8 0-.2 0-.4-.1-.6l-.2-.1-1.7-.2-1.6.1z"/><path fill="none" stroke="#B64E96" stroke-width=".5" stroke-linejoin="round" stroke-miterlimit="10" d="M-100.8 353.6c-.8.3-2 .6-3.5.5-1.9-.1-3.3-.7-4.1-1.1M-99.7 354.7c-.7.6-2.3 1.7-4.6 2-1.9.3-3.5 0-4.4-.3M-98.3 353.2c-3-6.3-9.4-2-12.7.4M-96.1 349.9l4.4-7"/></svg>