<svg xmlns="http://www.w3.org/2000/svg" viewBox="-139.9 297.5 91.7 117.5"><path fill="none" stroke="#B64E96" stroke-width=".5" stroke-linecap="round" stroke-linejoin="round" stroke-miterlimit="10" d="M-71 363.8l4-33.2c0-6.6-5.4-12-12-12l1.4-6.1-33.3 6.1c-6.6 0-12 5.4-12 12l4 33.4s3.9 35.9 17.9 35.9h12.1c13.8 0 17.9-36.1 17.9-36.1zM-97.7 370.5c0 3.3 5.4 3.2 5.4 0"/><path fill="#B64E96" d="M-91.5 354.1l9.9-1.2c.7-.1 1.4-.1 2.1.1l5.8 1.4V353l-8.5-3.6-8 1.8-1.3 2.9z"/><path fill="none" stroke="#B64E96" stroke-width=".5" stroke-linecap="round" stroke-linejoin="round" stroke-miterlimit="10" d="M-95 382.9l1.3-.6 4.6 2.2M-95 382.9l-1.4-.6-4.6 2.2M-119.9 356.3l4.1-21.6 40.7-8.9 5.8 23.2"/><path fill="#B64E96" d="M-98.5 354l-9.9-1.2c-.7-.1-1.4-.1-2.1.1l-5.8 1.4v-1.4l8.5-3.6 8 1.8 1.3 2.9z"/><path fill="none" stroke="#B64E96" stroke-width=".5" stroke-linecap="round" stroke-linejoin="round" stroke-miterlimit="10" d="M-95 385.2l3.8-.7 2.1.1M-95 385.2l-3.8-.7-2.2.1M-95 388c3.3 0 4.1-1.3 4.4-1.6M-95 388c-3.3 0-4.1-1.3-4.4-1.6"/><circle fill="#B64E96" cx="-95" cy="377.2" r=".5"/><circle fill="#B64E96" cx="-91.3" cy="377.2" r=".5"/><circle fill="#B64E96" cx="-89.1" cy="380.1" r=".5"/><circle fill="#B64E96" cx="-87.2" cy="383.1" r=".5"/><circle fill="#B64E96" cx="-93.3" cy="380.1" r=".5"/><circle fill="#B64E96" cx="-98.8" cy="377.2" r=".5"/><circle fill="#B64E96" cx="-100.9" cy="380.1" r=".5"/><circle fill="#B64E96" cx="-102.8" cy="383.1" r=".5"/><circle fill="#B64E96" cx="-96.8" cy="380.1" r=".5"/><circle fill="#B64E96" cx="-96.9" cy="390.1" r=".5"/><circle fill="#B64E96" cx="-95" cy="392.3" r=".5"/><circle fill="#B64E96" cx="-93.2" cy="390.1" r=".5"/><path fill="none" stroke="#B64E96" stroke-width=".5" stroke-miterlimit="10" d="M-105 395.7v3M-103.2 396.4v3.1M-106.8 394.5v3.2M-101.4 396.6v3.4M-92.3 395.6v4.3M-94.1 394.1v5.8M-95.9 394.1v5.8M-97.8 395.8v4.1M-99.6 396.4v3.5M-90.5 396.4v3.5M-86.9 396.4v3.1M-85.1 395.9v2.9M-83.3 394.8v2.8M-88.7 396.6v3.3"/><path fill="none" stroke="#B64E96" stroke-width=".5" stroke-linecap="round" stroke-linejoin="round" stroke-miterlimit="10" d="M-77.7 358.8c-.8-.6-3.1-2-5.2-2.2-3.9-.5-5.9 2.2-6.5 2.7l1.6.1c.8.4 3.1 1.5 6 .8 1.4-.3 2.9-1.3 3.5-1.8"/><path fill="none" stroke="#B64E96" stroke-width=".5" stroke-linecap="round" stroke-linejoin="round" stroke-miterlimit="10" d="M-81.7 356.8c.1.3.2.6.2.9 0 1.3-1.1 2.4-2.4 2.4-1.3 0-2.4-1.1-2.4-2.4 0-.3 0-.5.1-.8"/><path fill="#B64E96" d="M-82.4 357c.1.2.1.4.1.6 0 .9-.7 1.6-1.6 1.6s-1.6-.7-1.6-1.6c0-.2 0-.4.1-.5l.2-.3 1.4-.2 1.3.2.1.2z"/><path fill="none" stroke="#B64E96" stroke-width=".5" stroke-linecap="round" stroke-linejoin="round" stroke-miterlimit="10" d="M-89 357.2c.8-.5 3-1.9 6.1-1.6 1.7.2 4.5 1.1 5.2 2.1M-112.3 358.8c.8-.6 3.1-2 5.2-2.2 3.9-.5 5.9 2.2 6.5 2.7l-1.6.1c-.8.4-3.1 1.5-6 .8-1.4-.3-2.9-1.3-3.5-1.8"/><path fill="none" stroke="#B64E96" stroke-width=".5" stroke-linecap="round" stroke-linejoin="round" stroke-miterlimit="10" d="M-108.4 356.8c-.1.3-.2.6-.2.9 0 1.3 1.1 2.4 2.4 2.4 1.3 0 2.4-1.1 2.4-2.4 0-.3 0-.5-.1-.8"/><path fill="#B64E96" d="M-107.6 357c-.1.2-.1.4-.1.6 0 .9.7 1.6 1.6 1.6s1.6-.7 1.6-1.6c0-.2 0-.4-.1-.5l-.2-.3-1.4-.2-1.3.2-.1.2z"/><path fill="none" stroke="#B64E96" stroke-width=".5" stroke-linecap="round" stroke-linejoin="round" stroke-miterlimit="10" d="M-101 357.2c-.8-.5-3-1.9-6.1-1.6-1.7.2-4.5 1.1-5.2 2.1"/><g fill="none" stroke="#B64E96" stroke-width=".5" stroke-miterlimit="10"><path d="M-121.3 324.3v21.1M-119.4 322v31.7M-114 318.9v15.4M-117.6 320.6v23.5M-115.8 319.6v15.3M-112.2 318.6v15.3M-110.4 318.4v15.1M-108.6 318.1v15M-103.1 317.1v14.8M-106.8 317.8v14.9M-104.9 317.4v15M-94.1 315.5V330M-95.9 315.8v14.6M-97.7 316.1v14.6M-99.5 316.4v14.8M-101.3 316.8v14.7M-92.3 315.2v14.3M-68.7 324.5v19.6M-70.5 322.2v21.9M-72.3 320.7V337M-74.1 319.7v10.1M-79.6 312.8v14M-75.9 319v7M-77.8 318.6v7.7M-88.6 314.5v14.2M-86.8 314.2v14.1M-85 313.9v14M-83.2 313.5v14.1M-81.4 313.2v14M-90.4 314.8v14.4"/></g></svg>