<svg xmlns="http://www.w3.org/2000/svg" viewBox="-94 238.8 91.7 117.5"><path fill="none" stroke="#B64E96" stroke-width=".5" stroke-miterlimit="10" d="M-37.5 337.9c6.1 0 11.1-5.4 11.1-12l7-57.3c0-6.6-5-12-11.1-12h-35.3c-6.1 0-11.1 5.4-11.1 12l7 57.3c0 6.6 5 12 11.1 12h21.3z"/><circle fill="#B64E96" cx="-44.2" cy="266.7" r=".5"/><circle fill="#B64E96" cx="-40.2" cy="266.7" r=".5"/><circle fill="#B64E96" cx="-48.2" cy="266.7" r=".5"/><circle fill="#B64E96" cx="-57.6" cy="263.8" r=".5"/><circle fill="#B64E96" cx="-53.6" cy="263.8" r=".5"/><circle fill="#B64E96" cx="-49.7" cy="263.8" r=".5"/><circle fill="#B64E96" cx="-48.1" cy="260.9" r=".5"/><circle fill="#B64E96" cx="-44.1" cy="260.9" r=".5"/><circle fill="#B64E96" cx="-40.2" cy="260.9" r=".5"/><circle fill="#B64E96" cx="-52.1" cy="260.9" r=".5"/><circle fill="#B64E96" cx="-50.2" cy="258.1" r=".5"/><circle fill="#B64E96" cx="-46.1" cy="258.1" r=".5"/><circle fill="#B64E96" cx="-42.2" cy="258.1" r=".5"/><circle fill="#B64E96" cx="-54.1" cy="258.1" r=".5"/><circle fill="#B64E96" cx="-38.3" cy="258.1" r=".5"/><circle fill="#B64E96" cx="-34.3" cy="258.1" r=".5"/><circle fill="#B64E96" cx="-42.2" cy="258.1" r=".5"/><circle fill="#B64E96" cx="-62" cy="258.1" r=".5"/><circle fill="#B64E96" cx="-58" cy="258.1" r=".5"/><circle fill="#B64E96" cx="-54.1" cy="258.1" r=".5"/><circle fill="#B64E96" cx="-56" cy="260.9" r=".5"/><circle fill="#B64E96" cx="-36.2" cy="260.9" r=".5"/><circle fill="#B64E96" cx="-60" cy="260.9" r=".5"/><circle fill="#B64E96" cx="-46.1" cy="263.8" r=".5"/><circle fill="#B64E96" cx="-42.2" cy="263.8" r=".5"/><circle fill="#B64E96" cx="-38.2" cy="263.8" r=".5"/><circle fill="#B64E96" cx="-56.1" cy="266.7" r=".5"/><circle fill="#B64E96" cx="-52.1" cy="266.7" r=".5"/><path fill="none" stroke="#B64E96" stroke-width=".5" stroke-miterlimit="10" d="M-44.2 285.8c-.2-.5 5.1-3.3 11.1-2.6 4.3.5 7.8 2.6 7.7 3-.1.4-3.3-.8-8.4-1.1-6.5-.3-8.8 4.9-10.4.7zM-29.7 292.8c-.4-1.9-3.9-2.6-6.8-3.1-1.6-.2-3.3.4-4.2 1.7-.6.8-.9 1.6-.9 1.9.8.5 2.6 1.5 5.2 1.5 3 0 5.1-1.3 5.8-1.8"/><path fill="none" stroke="#B64E96" stroke-width=".5" stroke-miterlimit="10" d="M-33.6 291.9c-.2 1-1.2 1.6-2.3 1.4s-1.8-1.1-1.6-2.1-.2-1.7 2.2-1.2c2.1.3 1.9.9 1.7 1.9zM-36.9 287.9c.6-.2 3.1-.8 5.8.6 1.9 1 2.9 2.5 3.2 3.2"/><path fill="#B64E96" d="M-44.6 312.5c-.3-.4-1.1-.4-1.8-.1-.7.3-1 .8-.7 1.2.3.4 1.1.4 1.8.1.7-.3 1-.9.7-1.2zM-51.7 312.5c.3-.4 1.1-.4 1.8-.1.7.3 1 .8.7 1.2-.3.4-1.1.4-1.8.1-.7-.3-1-.9-.7-1.2z"/><path fill="none" stroke="#B64E96" stroke-width=".5" stroke-miterlimit="10" d="M-66.6 292.8c.4-1.9 3.9-2.6 6.8-3.1 1.6-.2 3.3.4 4.2 1.7.6.8.9 1.6.9 1.9-.8.5-2.7 1.5-5.2 1.5-3 0-5.1-1.3-5.8-1.8"/><path fill="none" stroke="#B64E96" stroke-width=".5" stroke-miterlimit="10" d="M-62.7 291.9c.2 1 1.2 1.6 2.3 1.4s1.8-1.1 1.6-2.1.1-1.7-2.2-1.2c-2.1.3-1.9.9-1.7 1.9zM-59.4 287.9c-.6-.2-3.1-.8-5.8.6-1.9 1-2.9 2.5-3.2 3.2M-58 319.8c1.5 1 4.1 2.8 9.8 2.8 5.2 0 8.3-1.7 9.9-2.6"/><path fill="none" stroke="#B64E96" stroke-width=".5" stroke-miterlimit="10" d="M-56.2 320.9c.7 0 1.7.6 2.9.2 1.6-.4 4-1.1 5.1 0 1.2-1.1 3.6-.4 5.1 0 1.2.4 2.3-.2 2.9-.2M-54.8 321.6c.3.4 1.7 3.7 6.6 3.7s6.2-3.3 6.5-3.7M-58.4 316.2c-1.6.3-2.8 1.6-3.1 3.1-.4 2.1 1.2 3.6 1.3 3.7M-38.5 316.2c1.6.3 2.8 1.6 3.1 3.1.4 2.1-1.2 3.6-1.3 3.7M-52.4 285.8c.2-.5-5.1-3.3-11.1-2.6-4.3.5-7.8 2.6-7.7 3 .1.4 3.3-.8 8.4-1.1 6.4-.3 8.8 4.9 10.4.7zM-47.7 269.8c16 0 15.3-12.2 21.7-8.9 9 4.6-3.8 10.5 4.2 27.2M-47.7 269.8c-16 0-15.3-12.2-21.7-8.9-9 4.6 2.8 10.5-5.1 27.2"/><circle fill="#B64E96" cx="-35.5" cy="291.4" r=".6"/><circle fill="#B64E96" cx="-60.8" cy="291.4" r=".6"/></svg>