<svg xmlns="http://www.w3.org/2000/svg" viewBox="-139.9 297.5 91.7 117.5"><path fill="none" stroke="#B64E96" stroke-width=".5" stroke-miterlimit="10" d="M-89.7 397c6 0 15.3-6.6 18.9-10.7 2.5-2.9 3.2-7 3.2-10.9v-22h1.9v-25.8c0-6.6-4.9-12-10.9-12h-34.8c-6 0-10.9 5.4-10.9 12v25.6h2.1v22.3c0 3.7.6 7.8 3 10.6 3.6 4.1 12.9 10.8 18.9 10.8h8.6v.1z"/><path fill="none" stroke="#B64E96" stroke-width=".5" stroke-linejoin="round" stroke-miterlimit="10" d="M-122.3 353.3h4.4v-19.2l2.4 5.7L-105 328l-.6 9.1 24.6-9.2 2.9 8.9.4-10.9 8.2 15.1v12.4h3.8"/><path fill="none" stroke="#B64E96" stroke-width=".5" stroke-linejoin="round" stroke-miterlimit="10" d="M-73.8 359.1h-13.8c-3.1 0-4.1-7.5-4.1-7.5 0-1.4 1.2-2.6 2.6-2.6h18.2c1.4 0 2.6 1.2 2.6 2.6v2c.1 3-2.4 5.5-5.5 5.5z"/><path fill="none" stroke="#B64E96" stroke-width=".5" stroke-linejoin="round" stroke-miterlimit="10" d="M-83.6 353.3c.3-.3.8-.9 3.3-.9 2.2.1 3.6 1.6 4 1.9"/><path fill="#B64E96" d="M-70.4 348.4h-19.3v-1.6l11.5-1.3 7.8 1.3z"/><path fill="none" stroke="#B64E96" stroke-width=".5" stroke-linejoin="round" stroke-miterlimit="10" d="M-114.1 359.1h13.7c3.8 0 4.1-7.5 4.1-7.5 0-1.4-1.2-2.6-2.6-2.6h-18.2c-1.4 0-2.6 1.2-2.6 2.6v1.9c0 3.1 2.5 5.6 5.6 5.6z"/><path fill="none" stroke="#B64E96" stroke-width=".5" stroke-miterlimit="10" d="M-95.9 392.8c1-3 4.6-1.2 4.6-1.2M-77.6 378.3c1.4-.2 2.6.6 2.8 1.6s-.5 1.9-.6 1.9M-96.3 352h4.6M-110.4 378.3c-1.4-.2-2.6.6-2.8 1.6s.5 1.9.6 1.9"/><path fill="#B64E96" d="M-121.1 352h1.4v1.7h-1.4zM-68.2 352h1.4v1.7h-1.4zM-89.7 349.6h19.3v.8h-19.3zM-117.1 349.6h18.8v.8h-18.8zM-81 354.4h1.2c.6 0 1-.5 1-1 0-.6-.5-1-1-1H-81c-.6 0-1 .5-1 1s.5 1 1 1z"/><path fill="none" stroke="#B64E96" stroke-width=".5" stroke-linejoin="round" stroke-miterlimit="10" d="M-76.2 354.4h-7.4M-104.2 352.9c-.3-.3-1-.5-3.6-.4-2.2.1-3.6 1.6-4 1.9"/><path fill="#B64E96" d="M-107 354.4h-1.2c-.6 0-1-.5-1-1 0-.6.5-1 1-1h1.2c.6 0 1 .5 1 1s-.4 1-1 1z"/><path fill="none" stroke="#B64E96" stroke-width=".5" stroke-linejoin="round" stroke-miterlimit="10" d="M-111.8 354.4h7.4"/><path fill="#B64E96" d="M-117.1 348.4h18.8v-1.6l-11.4-1.3-7.4 1.3z"/><circle fill="#B64E96" cx="-92.2" cy="376.2" r=".5"/><circle fill="#B64E96" cx="-90.3" cy="378.5" r=".5"/><circle fill="#B64E96" cx="-88.5" cy="376.2" r=".5"/><circle fill="#B64E96" cx="-86.8" cy="378.5" r=".5"/><circle fill="#B64E96" cx="-83" cy="378.5" r=".5"/><circle fill="#B64E96" cx="-94" cy="378.5" r=".5"/><circle fill="#B64E96" cx="-95.8" cy="376.2" r=".5"/><circle fill="#B64E96" cx="-97.7" cy="378.5" r=".5"/><circle fill="#B64E96" cx="-99.5" cy="376.2" r=".5"/><circle fill="#B64E96" cx="-101.3" cy="378.5" r=".5"/><circle fill="#B64E96" cx="-105" cy="378.5" r=".5"/><path fill="none" stroke="#B64E96" stroke-width=".5" stroke-miterlimit="10" d="M-106 380.8s9 1.7 12 1.8c3.2 0 12.8-1.8 12.8-1.8M-105.7 380.1l-.5 1.5M-81.5 380l.8 1.5M-100.8 383.5c1.2.6 3.8 1.7 7.1 1.5 3-.1 5.3-1.2 6.5-1.8"/><path fill="none" stroke="#B64E96" stroke-width=".5" stroke-miterlimit="10" d="M-100.9 381.7l5.9-.9 1 .8 1-.8 6 1M-97.1 387.4h6.2M-115.5 316.6v23M-117.3 317.6v17.9M-119.1 319.3v30.8M-121 322v31.3M-113.7 316v21.7M-101 315.7v19.7M-97.4 315.7v18.2M-99.2 315.7v19.1M-110.1 315.7v18M-108.3 315.7v16M-106.5 315.7v13.9M-104.6 315.7v21M-102.8 315.7v20.4M-111.9 315.7v20M-90.1 315.7v15.6M-92 315.7V332M-93.8 315.7v17M-95.6 315.7v17.7M-88.3 315.7v15M-75.6 315.7v13.9M-72 316.8v19.5M-73.8 316.1V333M-84.7 315.7v13.6M-82.9 315.7v13.1M-81.1 315.7v12.2M-79.3 315.7v17.5M-77.5 315.7v10.7M-86.5 315.7V330M-70.2 318v21.6M-66.6 323.2v30.2M-68.4 319.8v30.8"/><circle fill="#B64E96" cx="-98.6" cy="390.4" r=".5"/><circle fill="#B64E96" cx="-100.4" cy="392.7" r=".5"/><circle fill="#B64E96" cx="-102.3" cy="390.4" r=".5"/><circle fill="#B64E96" cx="-104" cy="392.7" r=".5"/><circle fill="#B64E96" cx="-84" cy="390.4" r=".5"/><circle fill="#B64E96" cx="-93.3" cy="392.7" r=".5"/><circle fill="#B64E96" cx="-87.7" cy="390.4" r=".5"/><circle fill="#B64E96" cx="-96.8" cy="392.7" r=".5"/><circle fill="#B64E96" cx="-91.7" cy="390.4" r=".5"/><circle fill="#B64E96" cx="-86.1" cy="392.7" r=".5"/><circle fill="#B64E96" cx="-89.7" cy="392.7" r=".5"/><circle fill="#B64E96" cx="-95.1" cy="390.4" r=".5"/><circle fill="#B64E96" cx="-98.6" cy="395.2" r=".5"/><circle fill="#B64E96" cx="-87.7" cy="395.2" r=".5"/><circle fill="#B64E96" cx="-91.7" cy="395.2" r=".5"/><circle fill="#B64E96" cx="-95.1" cy="395.2" r=".5"/><circle fill="#B64E96" cx="-82.6" cy="392.7" r=".5"/><circle fill="#B64E96" cx="-80.4" cy="385.8" r=".5"/><circle fill="#B64E96" cx="-84.1" cy="385.8" r=".5"/><circle fill="#B64E96" cx="-82.6" cy="388.1" r=".5"/><circle fill="#B64E96" cx="-79" cy="388.1" r=".5"/><circle fill="#B64E96" cx="-106.5" cy="385.8" r=".5"/><circle fill="#B64E96" cx="-102.7" cy="385.8" r=".5"/><circle fill="#B64E96" cx="-104.3" cy="388.1" r=".5"/><circle fill="#B64E96" cx="-107.8" cy="388.1" r=".5"/><circle fill="#B64E96" cx="-77.1" cy="390.4" r=".5"/><circle fill="#B64E96" cx="-80.8" cy="390.4" r=".5"/><circle fill="#B64E96" cx="-109.4" cy="390.4" r=".5"/><circle fill="#B64E96" cx="-105.8" cy="390.4" r=".5"/><circle fill="#B64E96" cx="-75.3" cy="388.1" r=".5"/><circle fill="#B64E96" cx="-111.4" cy="388.1" r=".5"/></svg>