<svg xmlns="http://www.w3.org/2000/svg" viewBox="-139.9 298.5 91.7 117.5"><path fill="none" stroke="#B64E96" stroke-width=".5" stroke-linejoin="round" stroke-miterlimit="10" d="M-65.1 354.6c.6-1 1.5-1.7 2.1-1.4 1.9 1 0 1.5-.3 4.2-.3 2.8 1.1 7.8.3 10.3-.1.3-.8 1.6-2 1.8-.8.1-2.2-.4-2.7-1.4M-122.9 354.6c-.6-1-1.5-1.7-2.1-1.4-1.9 1 0 1.5.3 4.2.3 2.8-1.1 7.8-.3 10.3.1.3.8 1.6 2 1.8.8.1 2.2-.4 2.7-1.4"/><path fill="none" stroke="#B64E96" stroke-width=".5" stroke-miterlimit="10" d="M-89.3 399.9c6.6 0 12-5.4 12-12 0 0 10.6-20.8 11.8-28.7 1-7-.3-28.7-.3-28.7 0-6.6-5.6-10.5-12-12-4.2-1-6.9-5.9-16.3-5.9-10.3 0-12.1 4.9-16.3 5.9-6.4 1.5-12 5.4-12 12 0 0-1.4 21.7-.3 28.7 1.2 7.8 11.8 28.7 11.8 28.7 0 6.6 5.4 12 12 12h9.6z"/><path fill="none" stroke="#B64E96" stroke-width=".5" stroke-linejoin="round" stroke-miterlimit="10" d="M-77.1 355.5c-4.5 1.4-7.2.6-8 0"/><path fill="none" stroke="#B64E96" stroke-width=".5" stroke-miterlimit="10" d="M-115.6 320.5v8.8M-117.4 321.7v9.3M-119.2 323.1v22.1M-121 325.5v23.7M-113.8 319.6v8.9M-101.1 313.7V336M-97.5 312.9v23.5M-99.3 313.2v23.1M-110.2 318.5v10.9M-108.3 317.8v13M-106.5 316.6v16.1M-104.7 315.4v19.1M-102.9 314.4v21.1M-112 319v9.6"/><path fill="none" stroke="#B64E96" stroke-width=".5" stroke-linejoin="round" stroke-miterlimit="10" d="M-65.1 351.5c-.8-.7-4.1-3.1-4.5-10.7-.2-5.1.9-8.8-3.3-11.7-3.4-2.3-7.8 2.2-9.1 4-1.5 2 .3 11.7-2.8 4.8-1.7-3.7-9.4-1.6-9.4-1.6-7.5.5-10.7-1.3-12.2-3.3-1.4-1.8-5.8-6.3-9.1-4-4.1 2.9-3 6.6-3.3 11.7-.3 7.6-3.7 10-4.5 10.7"/><path fill="none" stroke="#B64E96" stroke-width=".5" stroke-linejoin="round" stroke-miterlimit="10" d="M-92.2 347c.1 1.8 1.6 5.9 2.9 6.4.8.3 1.5-.2 2.7-.8 3.5-1.6 8.9-2 11.9.1.9.7 1.7 1.6 2.2 1.3.5-.3.4-1.5.1-2.3-1.1-2.9-6.4-3.8-9.8-3.6-1.6.1-4.3.5-7.6 2.6"/><path fill="none" stroke="#B64E96" stroke-width=".5" stroke-miterlimit="10" d="M-89.6 350.6v2.6M-93.8 312.7v23.6M-90.2 313v22.7M-92 312.8v23.1M-95.7 312.7v23.7"/><path fill="none" stroke="#B64E96" stroke-width=".5" stroke-linejoin="round" stroke-miterlimit="10" d="M-96.1 347c-.1 1.8-1.6 5.9-2.9 6.4-.8.3-1.5-.2-2.7-.8-3.5-1.6-8.9-2-11.9.1-.9.7-1.7 1.6-2.2 1.3-.5-.3-.4-1.5-.1-2.3 1.1-2.9 6.4-3.8 9.8-3.6 1.6.1 4.3.5 7.6 2.6"/><path fill="none" stroke="#B64E96" stroke-width=".5" stroke-miterlimit="10" d="M-98.6 350.6v2.6"/><path fill="none" stroke="#B64E96" stroke-width=".5" stroke-linejoin="round" stroke-miterlimit="10" d="M-94.1 382.4s-2.3-.7-3.1-.8c-1.6-.3-6.1.5-6.1.5l6.4-2.6 2.8 1.4 2.8-1.4 6.4 2.6s-4.5-.8-6.1-.5c-.7.1-3.1.8-3.1.8z"/><path fill="none" stroke="#B64E96" stroke-width=".5" stroke-linejoin="round" stroke-miterlimit="10" d="M-102.7 381.9c2.6 1.8 5.7 2.5 8.6 2.5s6-.7 8.6-2.5"/><path fill="none" stroke="#B64E96" stroke-width=".489" stroke-linejoin="round" stroke-miterlimit="10" d="M-80.9 356.1h-1.7c-.6 0-1.1-.5-1.1-1.1v-.1c0-.6.5-1.1 1.1-1.1h1.7c.6 0 1.1.5 1.1 1.1v.1c0 .7-.5 1.1-1.1 1.1z"/><path fill="none" stroke="#B64E96" stroke-width=".5" stroke-linejoin="round" stroke-miterlimit="10" d="M-86 356.6c.7.5 2.3 1.4 4.5 1.5 2.4.1 4.6-1.1 5.3-1.5-.5-.7-1.2-1.9-2.5-2.2-3.9-1-5.9-.3-6.5.2-.4.3-1.6 1-1.6 1"/><path fill="none" stroke="#B64E96" stroke-width=".5" stroke-linejoin="round" stroke-miterlimit="10" d="M-87.2 355c1.3-1.2 2.6-1.8 3.4-2 2.2-.7 5.8-.9 7.8 1.3.7.7 1 1.5 1.1 2.1M-111.1 355.5c4.5 1.4 7.2.6 8 0"/><path fill="none" stroke="#B64E96" stroke-width=".489" stroke-linejoin="round" stroke-miterlimit="10" d="M-107.3 356.1h1.7c.6 0 1.1-.5 1.1-1.1v-.1c0-.6-.5-1.1-1.1-1.1h-1.7c-.6 0-1.1.5-1.1 1.1v.1c.1.7.5 1.1 1.1 1.1z"/><path fill="none" stroke="#B64E96" stroke-width=".5" stroke-linejoin="round" stroke-miterlimit="10" d="M-102.1 356.6c-.7.5-2.3 1.4-4.5 1.5-2.4.1-4.6-1.1-5.3-1.5.5-.7 1.2-1.9 2.5-2.2 3.9-1 5.9-.3 6.5.2.4.3 1.6 1 1.6 1"/><path fill="none" stroke="#B64E96" stroke-width=".5" stroke-linejoin="round" stroke-miterlimit="10" d="M-100.9 355c-1.3-1.2-2.6-1.8-3.4-2-2.2-.7-5.8-.9-7.8 1.3-.7.7-1 1.5-1.1 2.1"/><circle fill="#B64E96" cx="-106.4" cy="355" r=".6"/><circle fill="#5F52CA" cx="-81.7" cy="355" r=".6"/><path fill="none" stroke="#B64E96" stroke-width=".5" stroke-linejoin="round" stroke-miterlimit="10" d="M-91 354.3c-.2.1-.8.7-.9 1.8-.1.9.4 1.9 1.3 2.4M-97.1 354.3c.2.1.8.7.9 1.8.1.9-.4 1.9-1.3 2.4"/><path fill="none" stroke="#B64E96" stroke-width=".5" stroke-miterlimit="10" d="M-72.1 320.8v8.8M-70.3 322v9.9M-68.5 323.6v23.1M-66.7 326.3v23.6M-73.9 319.9v8.6M-86.6 314v22.3M-88.4 313.5v22.3M-77.5 318.8v10.4M-79.3 318.1v12.3M-81.2 316.9v15.3M-83 315.9v24.4M-84.8 314.7v23M-75.7 319.3v9.2"/><circle fill="#B64E96" cx="-81.7" cy="355" r=".6"/></svg>