<svg xmlns="http://www.w3.org/2000/svg" viewBox="-139.9 297.5 91.7 117.5"><path fill="none" stroke="#B64E96" stroke-width=".5" stroke-miterlimit="10" d="M-68.3 357.8c.2-.4 1.9-3.9 3.5-3.8 1.4.1 2.9 3.2 2.5 6-.6 4.2-3.1 6.6-5.3 13.2-.3.9-3.1.8-2.9-3.1M-119.8 357.8c-.2-.4-1.9-3.9-3.5-3.8-1.4.1-2.9 3.2-2.5 6 .6 4.2 3.1 6.6 5.3 13.2.3.9 3.1.8 2.9-3.1"/><path fill="none" stroke="#B64E96" stroke-width=".487" stroke-miterlimit="10" d="M-83.8 396.9c6.3 0 15.2-30.9 15.4-37.2.3-8 0-32.1 0-32.1 0-6.6-5.1-12-11.4-12h-28.6c-6.3 0-11.4 5.4-11.4 12 0 0-.4 24.1 0 32.2.3 6.3 9.2 37.2 15.4 37.2h20.6v-.1z"/><path fill="none" stroke="#B64E96" stroke-width=".5" stroke-miterlimit="10" d="M-119.7 328.4l6.9-.8-2.7 3 17.3-5.1-1.6 2.2h17.5l2.9-2.9h9.5l1.6 4.2"/><path fill="none" stroke="#B64E96" stroke-width=".5" stroke-miterlimit="10" d="M-117.5 328v16.7c-3 .3-2.6 10.3-2.4 11.2M-70.7 324.8v19.9c3.8 1.2 2.6 10.3 2.5 11.3M-71.2 353.2s-4.8-4.2-6.9-4.8c-4.1 1.4-8.2 1.3-12.3 2.7v2.7c2.2-.9 6.4-2.3 10.4-2.2 4.7.2 8.8 1.6 8.8 1.6zM-88 358.2c1.1-2.1 3.3-3.4 5.6-3.3 2.8.1 4.4 2.4 4.6 2.6"/><path fill="none" stroke="#B64E96" stroke-width=".5" stroke-miterlimit="10" d="M-88.8 357.8l1.6-2.6c.5-.7 1.3-1.2 2.1-1.2h5.3c.8 0 1.6.4 2.1 1.1l1 1.5"/><path fill="none" stroke="#B64E96" stroke-width=".5" stroke-miterlimit="10" d="M-80.5 356.5c-.1 1.2-1.1 2.1-2.2 2s-2-1.2-1.9-2.4c.1-1.2 1.1-1.3 2.3-1.2 1.1.2 1.9.4 1.8 1.6z"/><path fill="none" stroke="#B64E96" stroke-width=".5" stroke-miterlimit="10" d="M-86.7 357.8c.6.3 2.1.8 4.2.7 1.9-.1 3.3-.6 3.8-1"/><circle fill="#B64E96" cx="-82.5" cy="356.5" r=".8"/><path fill="none" stroke="#B64E96" stroke-width=".5" stroke-miterlimit="10" d="M-116.8 353.2s4.8-4.2 6.9-4.8c4.1 1.4 8.2 1.3 12.3 2.7v2.7c-2.2-.9-6.4-2.3-10.4-2.2-4.7.2-8.8 1.6-8.8 1.6zM-100.1 358.2c-1.1-2.1-3.3-3.4-5.6-3.3-2.8.1-4.4 2.4-4.6 2.6"/><path fill="none" stroke="#B64E96" stroke-width=".5" stroke-miterlimit="10" d="M-99.3 357.8l-1.6-2.6c-.5-.7-1.3-1.2-2.1-1.2h-5.3c-.8 0-1.6.4-2.1 1.1l-1 1.5"/><path fill="none" stroke="#B64E96" stroke-width=".5" stroke-miterlimit="10" d="M-107.6 356.5c.1 1.2 1.1 2.1 2.2 2s2-1.2 1.9-2.4c-.1-1.2-1.1-1.3-2.3-1.2-1.1.2-1.9.4-1.8 1.6z"/><path fill="none" stroke="#B64E96" stroke-width=".5" stroke-miterlimit="10" d="M-101.4 357.8c-.6.3-2.1.8-4.2.7-1.9-.1-3.3-.6-3.8-1"/><circle fill="#B64E96" cx="-105.6" cy="356.5" r=".8"/><path fill="none" stroke="#B64E96" stroke-width=".5" stroke-miterlimit="10" d="M-103.3 377.9c3.2 0 4.4-.1 5.5.2 1.4.4 2.1 1.2 3.7 1.2 1.4 0 1.4-.6 2.8-.6s1.7.1 3.8.3c.6.1 1.1.1 1.5.1"/><path fill="none" stroke="#B64E96" stroke-width=".5" stroke-miterlimit="10" d="M-103.5 377.9c.5.3 1.3.6 2.3.8 1.3.2 1.6.3 2.7.4 2.1.2 2.4 1 4.4 1.1.9.1 1.4-.2 2.5-.5 1.4-.4 3.5-.8 6.3-.6"/><path fill="none" stroke="#B64E96" stroke-width=".5" stroke-miterlimit="10" d="M-102.2 378.5c.6.6 2.7 3.7 6.9 4.1 4.2.3 7.2-3 7.9-3.5"/><g fill="#B64E96"><circle cx="-87.8" cy="391.6" r=".5"/><circle cx="-83.8" cy="391.6" r=".5"/><circle cx="-86.3" cy="394.5" r=".5"/><circle cx="-92.2" cy="391.6" r=".5"/><circle cx="-90.3" cy="394.5" r=".5"/><circle cx="-96.3" cy="391.6" r=".5"/><circle cx="-104.2" cy="391.6" r=".5"/><circle cx="-100.1" cy="391.6" r=".5"/><circle cx="-98.3" cy="394.5" r=".5"/><circle cx="-102.2" cy="394.5" r=".5"/><circle cx="-94.2" cy="394.5" r=".5"/><circle cx="-96.1" cy="384.1" r=".5"/><circle cx="-92" cy="384.1" r=".5"/><circle cx="-94.1" cy="386.9" r=".5"/><circle cx="-87.9" cy="373.3" r=".5"/><circle cx="-83.8" cy="373.3" r=".5"/><circle cx="-86.4" cy="376.3" r=".5"/><circle cx="-92.3" cy="373.3" r=".5"/><circle cx="-90.4" cy="376.3" r=".5"/><circle cx="-96.3" cy="373.3" r=".5"/><circle cx="-104.2" cy="373.3" r=".5"/><circle cx="-100.2" cy="373.3" r=".5"/><circle cx="-98.3" cy="376.3" r=".5"/><circle cx="-102.2" cy="376.3" r=".5"/><circle cx="-94.3" cy="376.3" r=".5"/></g><g fill="none" stroke="#B64E96" stroke-width=".5" stroke-miterlimit="10"><path d="M-82.4 327.7v-12.1M-84.2 327.7v-12.1M-96.9 327.7v-12.1M-100.5 326.2v-10.6M-98.7 325.8v-10.2M-87.9 327.7v-12.1M-89.7 327.7v-12.1M-91.5 327.7v-12.1M-93.3 327.7v-12.1M-95.1 327.7v-12.1M-86 327.7v-12.1M-118.7 345.5v-23M-116.9 328.1v-8.5M-104.2 327.3v-11.7M-102.4 326.7v-11.1M-113.2 330v-13.3M-111.4 329.4V316M-109.6 328.9v-13.3M-107.8 328.3v-12.7M-106 327.9v-12.3M-115 327.9v-10M-69.7 345.2V322M-73.4 324.8v-7.1M-75.2 324.8v-8.2M-77 324.8v-8.9M-78.8 324.8v-9.2M-80.6 326v-10.4M-71.5 324.8v-5.5"/></g></svg>