<?xml version="1.0" encoding="UTF-8" standalone="no"?>
<svg width="298px" height="289px" viewBox="0 0 298 289" version="1.1" xmlns="http://www.w3.org/2000/svg" xmlns:xlink="http://www.w3.org/1999/xlink" xmlns:sketch="http://www.bohemiancoding.com/sketch/ns">
    <!-- Generator: Sketch 3.5.1 (25234) - http://www.bohemiancoding.com/sketch -->
    <title>friends</title>
    <desc>Created with Sketch.</desc>
    <defs>
        <path d="M119.072781,9.74339712 C135.601128,-2.26514952 162.409275,-2.25759159 178.927219,9.74339712 L276.948163,80.9597818 C293.47651,92.9683285 301.753494,118.466727 295.444201,137.884734 L258.003532,253.115266 C251.690266,272.545502 229.997577,288.296821 209.580275,288.296821 L88.4197248,288.296821 C67.989565,288.296821 46.3057609,272.533273 39.9964678,253.115266 L2.55579864,137.884734 C-3.75746794,118.454498 4.53389309,92.9607705 21.051837,80.9597818 L119.072781,9.74339712 Z" id="path-1"></path>
    </defs>
    <g id="Page-1" stroke="none" stroke-width="1" fill="none" fill-rule="evenodd" sketch:type="MSPage">
        <g id="AB-mobile" sketch:type="MSArtboardGroup" transform="translate(-1202.000000, -1885.000000)">
            <g id="screen-2" sketch:type="MSLayerGroup" transform="translate(1156.000000, 1644.000000)">
                <g id="Group" transform="translate(-636.000000, 70.000000)">
                    <g id="friends" transform="translate(682.000000, 171.000000)">
                        <mask id="mask-2" sketch:name="Mask" fill="white">
                            <use xlink:href="#path-1"></use>
                        </mask>
                        <use id="Mask" fill="#4F484F" sketch:type="MSShapeGroup" xlink:href="#path-1"></use>
                        <g id="Group-3" mask="url(#mask-2)">
                            <g transform="translate(144.236473, 185.984230) rotate(-13.000000) translate(-144.236473, -185.984230) translate(-1.763527, 37.484230)">
                                <g id="girl" transform="translate(218.326501, 201.599705) rotate(13.000000) translate(-218.326501, -201.599705) translate(163.182633, 117.242717)">
                                    <g id="Layer_1" sketch:type="MSShapeGroup">
                                        <g id="Group">
                                            <path d="M110.065709,150.530319 L109.512094,148.629742 C109.244719,147.711632 108.352259,147.148767 107.434404,147.265849 L106.850314,142.874559 L105.640414,133.778912 L105.640414,133.777821 L105.500015,132.721177 C104.864409,127.942645 101.910221,123.791699 97.0455891,121.354073 L91.3447289,118.497207 C90.4214319,118.034698 89.7165337,118.629924 89.0384818,119.385864 L76.5277167,114.77241 C74.1576188,113.980472 72.5588094,111.757375 72.5588094,109.253208 L72.5588094,99.8714022 L85.0608675,94.6503591 C91.5493417,91.9400273 95.7761917,85.5852553 95.7761917,78.5392652 L95.7761917,52.3595101 C95.7761917,44.3266886 89.2790106,31.9974784 81.2646475,31.9974784 L29.0230884,31.9974784 C21.0083625,31.9974784 14.5115442,44.3266886 14.5115442,52.3595101 L14.5115442,78.5392652 C14.5115442,85.5848917 18.7383942,91.9396637 25.227594,94.6499955 L37.7300149,99.8710386 L37.7300149,109.252481 C37.7300149,111.756647 36.1312055,113.979745 33.7611076,114.771683 L21.2503425,119.385137 C20.5722906,118.629197 19.8673924,118.033607 18.9440954,118.49648 L13.2432352,121.353346 C8.37824005,123.791335 5.42441522,127.942281 4.78880959,132.72045 L4.6484104,133.777094 L4.6484104,133.778185 L3.4385104,142.873832 L2.85442074,147.265122 C1.93656557,147.14804 1.04446839,147.710905 0.776730403,148.629014 L0.223114992,150.529592 C-0.0732832982,151.54733 0.50971799,152.6127 1.5251633,152.909768 L2.0820438,153.072664 L1.31583427,158.833665 C0.618554572,164.065616 4.67888464,168.713977 9.94476124,168.713977 L100.342975,168.713977 C105.608851,168.713977 109.669544,164.065616 108.973353,158.834028 L108.207143,153.073028 L108.764024,152.910132 C109.779106,152.613791 110.362108,151.548057 110.065709,150.530319 L110.065709,150.530319 Z" id="Shape" fill="#F6B47B"></path>
                                            <path d="M37.7300149,99.2649046 L37.7300149,109.252845 C37.7300149,111.322863 36.6354817,113.198716 34.9176777,114.234634 C58.0469024,118.239773 71.2665564,100.853143 72.4677494,99.2649046 L37.7300149,99.2649046 L37.7300149,99.2649046 Z" id="Shape" fill="#E2A071"></path>
                                            <path d="M85.0601419,94.6499955 L66.3061478,102.481742 C62.7689589,103.958716 58.9752784,104.719384 55.1435052,104.719384 L55.1435052,104.719384 C51.3117319,104.719384 47.5176887,103.958716 43.9804998,102.481742 L25.227594,94.6503591 C18.7383942,91.9400273 14.5115442,85.5852553 14.5115442,78.5392652 L14.5115442,52.3595101 C14.5115442,44.3270522 21.0087253,31.9974784 29.0230884,31.9974784 L81.2646475,31.9974784 C89.2790106,31.9974784 95.7761917,44.3270522 95.7761917,52.3595101 L95.7761917,78.5392652 C95.7761917,85.5852553 91.5493417,91.9400273 85.0601419,94.6499955 L85.0601419,94.6499955 Z" id="Shape" fill="#FDC88E"></path>
                                            <path d="M34.8277061,69.8126801 L34.8277061,69.8126801 C33.2314362,69.8126801 31.9253972,68.5036924 31.9253972,66.9038185 L31.9253972,63.9949568 C31.9253972,62.3950829 33.2314362,61.0860951 34.8277061,61.0860951 L34.8277061,61.0860951 C36.423976,61.0860951 37.7300149,62.3950829 37.7300149,63.9949568 L37.7300149,66.9038185 C37.7300149,68.5036924 36.423976,69.8126801 34.8277061,69.8126801 L34.8277061,69.8126801 Z" id="Shape" fill="#623F33"></path>
                                            <path d="M75.4600299,69.8126801 L75.4600299,69.8126801 C73.86376,69.8126801 72.557721,68.5036924 72.557721,66.9038185 L72.557721,63.9949568 C72.557721,62.3950829 73.86376,61.0860951 75.4600299,61.0860951 L75.4600299,61.0860951 C77.0562997,61.0860951 78.3623387,62.3950829 78.3623387,63.9949568 L78.3623387,66.9038185 C78.3623387,68.5036924 77.0562997,69.8126801 75.4600299,69.8126801 L75.4600299,69.8126801 Z" id="Shape" fill="#623F33"></path>
                                            <path d="M55.143868,90.2543419 C49.9839256,90.2543419 45.157386,88.981715 41.9020839,86.7618899 C40.5771799,85.8586883 40.2325307,84.0490128 41.1355116,82.7211174 C42.0352273,81.3946765 43.8422773,81.0492492 45.1671813,81.9528143 C47.4487589,83.5079645 51.1785885,84.4369822 55.143868,84.4369822 C59.1091474,84.4369822 62.8389771,83.5079645 65.1205546,81.9528143 C66.4483609,81.0467039 68.2510575,81.3932221 69.1522244,82.7211174 C70.0548424,84.0490128 69.710556,85.8586883 68.3856521,86.7618899 C65.1307127,88.981715 60.3038103,90.2543419 55.143868,90.2543419 L55.143868,90.2543419 Z" id="Shape" fill="#E2A071"></path>
                                            <path d="M14.5115442,55.6828846 L14.5115442,78.5392652 C14.5115442,85.5848917 18.7383942,91.9400273 25.227594,94.6499955 L43.980137,102.481378 C44.8979922,102.864621 45.8347124,103.194777 46.7834046,103.480936 C38.4958617,97.4046875 32.9792981,92.0927425 29.7468517,88.6195617 C27.3952559,86.0924881 26.1207796,82.7578418 26.1207796,79.3021141 L26.1207796,63.0448499 C34.4286386,60.1385334 55.9220495,50.5923766 56.2202618,34.9067037 C56.2485593,33.424275 56.2260664,32.102561 56.1607644,30.9241084 C42.5014107,49.6371792 23.5779942,54.5444288 14.5115442,55.6828846 L14.5115442,55.6828846 Z" id="Shape" fill="#F6B47B"></path>
                                            <path d="M105.39009,96.7531025 C105.39009,90.5895882 100.320119,87.9850662 100.320119,82.7363889 C100.320119,77.4877117 106.907635,76.0758229 106.907635,68.2073521 C106.907635,62.947403 104.569099,58.8637248 103.017815,55.100385 C111.862238,16.6797764 78.684495,0 69.6554122,0 C60.2229084,0 55.143868,2.90886167 55.143868,2.90886167 C55.143868,2.90886167 50.0648275,0 40.6323238,0 C31.603241,0 -1.57450255,16.6797764 7.26992086,55.1000214 C5.71863678,58.8633612 3.38010143,62.9470394 3.38010143,68.2069885 C3.38010143,76.0758229 9.96761692,77.4873481 9.96761692,82.7360253 C9.96761692,87.9847026 4.89764617,90.5895882 4.89764617,96.7527389 C4.89764617,102.916253 9.78078079,105.900745 11.3672554,110.537834 C12.0928326,112.658758 11.2464468,119.020802 11.2464468,119.020802 C11.2464468,119.020802 16.4161844,110.471658 13.6952698,102.618095 C10.9743553,94.764532 14.1306162,93.9195076 16.5975787,90.4899597 C20.3161619,85.3205489 19.8118857,79.5206424 16.7749823,73.8839957 C14.8137471,70.2435553 15.3299953,66.7271051 18.0788446,64.2789344 C20.9720837,61.7024102 21.6504984,57.2558515 21.654489,57.2274901 C35.3947447,53.1958078 55.143868,45.1189898 55.143868,31.9974784 C55.143868,45.1189898 74.8929913,53.1958078 88.6328841,57.2274901 C88.6372376,57.2554879 89.3156523,61.7024102 92.2085286,64.2789344 C94.9573779,66.7271051 95.473626,70.2435553 93.5123908,73.8839957 C90.4754874,79.5206424 89.9712113,85.3209125 93.6897945,90.4899597 C96.156757,93.9195076 99.3130179,94.764532 96.5921033,102.618095 C93.8711888,110.471294 99.0409264,119.020802 99.0409264,119.020802 C99.0409264,119.020802 98.1945406,112.658395 98.9201178,110.537834 C100.506955,105.900745 105.39009,102.916253 105.39009,96.7531025 L105.39009,96.7531025 Z" id="Shape" fill="#6E4439"></path>
                                            <path d="M105.499652,132.720813 C104.864046,127.942281 101.909859,123.791335 97.0452263,121.353709 L91.3443661,118.496844 C90.2904652,117.968885 89.5213534,118.819 88.7518788,119.713111 C73.2840238,137.686604 55.1449563,145.444538 55.1449563,145.444538 L55.1445936,145.444538 L55.1442308,145.444538 C55.1442308,145.444538 37.0051633,137.686604 21.5373083,119.713111 C20.7678337,118.819 19.9983591,117.968885 18.944821,118.496844 L13.2439608,121.353709 C8.37896562,123.791699 5.4251408,127.942645 4.78953516,132.720813 L2.42705577,150.47796 C10.0935046,153.123933 23.2184707,157.07853 23.2184707,157.07853 L23.2184707,168.713977 L87.0692652,168.713977 L87.0692652,157.07853 C87.0692652,157.07853 100.194231,153.123933 107.861769,150.47796 L105.499652,132.720813 L105.499652,132.720813 Z" id="Shape" fill="#FFFFFF"></path>
                                            <path d="M23.1466386,156.189873 C22.969235,152.730873 21.8170183,149.388591 19.7357001,146.606992 L6.11044848,128.398972 C5.45271273,129.756683 4.99052005,131.20166 4.78808401,132.721177 L2.48764147,150.014723 L23.1466386,156.189873 L23.1466386,156.189873 Z" id="Shape" fill="#EAEAEA"></path>
                                            <path d="M0.222026626,150.530319 C-0.074371664,151.548057 0.508629624,152.613791 1.52371214,152.910495 L23.2184707,159.253268 L23.2184707,157.07853 C23.2184707,155.704457 23.0029743,154.358381 22.6884366,153.037758 L3.15009346,147.325481 C2.13501094,147.028777 1.07204033,147.612731 0.776004826,148.630105 L0.222026626,150.530319 L0.222026626,150.530319 Z" id="Shape" fill="#CCCCCC"></path>
                                            <path d="M87.1410974,156.189873 C87.318501,152.730873 88.4707176,149.388591 90.5520358,146.606992 L104.177287,128.398972 C104.835023,129.756683 105.297216,131.20166 105.499652,132.721177 L107.800094,150.014723 L87.1410974,156.189873 L87.1410974,156.189873 Z" id="Shape" fill="#EAEAEA"></path>
                                            <path d="M110.065709,150.530319 C110.362108,151.548057 109.779106,152.613791 108.764024,152.910495 L87.0692652,159.253268 L87.0692652,157.07853 C87.0692652,155.704457 87.2847617,154.358381 87.5992994,153.037758 L107.137642,147.325481 C108.152725,147.028777 109.215696,147.612731 109.511731,148.630105 L110.065709,150.530319 L110.065709,150.530319 Z" id="Shape" fill="#CCCCCC"></path>
                                            <path d="M40.6323238,0 C31.603241,0 -1.57413976,16.6797764 7.26992086,55.1000214 L7.26992086,55.1000214 C5.71863678,58.8633612 3.38010143,62.9470394 3.38010143,68.2069885 C3.38010143,76.0758229 9.96761692,77.4873481 9.96761692,82.7360253 C9.96761692,87.9847026 4.89764617,90.5895882 4.89764617,96.7527389 C4.89764617,102.916253 9.78078079,105.900745 11.3672554,110.537834 C12.0928326,112.658758 11.2464468,119.020802 11.2464468,119.020802 C11.2464468,119.020802 16.4161844,110.471658 13.6952698,102.618095 C10.9743553,94.764532 14.1306162,93.9195076 16.5975787,90.4899597 C20.3161619,85.3205489 19.8118857,79.5206424 16.7749823,73.8839957 C14.8137471,70.2435553 15.3299953,66.7271051 18.0788446,64.2789344 C20.9720837,61.7024102 21.6504984,57.2558515 21.654489,57.2274901 L21.6515867,57.2271265 C21.6526751,57.2267629 21.6534007,57.2263993 21.654489,57.2263993 C13.4554666,19.4050162 46.1438083,2.93904111 55.143868,2.9103161 L55.143868,2.90886167 C55.143868,2.90886167 50.0648275,0 40.6323238,0 L40.6323238,0 Z" id="Shape" fill="#5E342E"></path>
                                        </g>
                                    </g>
                                </g>
                                <g id="boy" transform="translate(116.865494, 144.938417) rotate(15.000000) translate(-116.865494, -144.938417) translate(29.807707, 18.308908)">
                                    <g id="Layer_1" sketch:type="MSShapeGroup">
                                        <g id="Group">
                                            <path d="M174.041032,230.317564 L173.646008,226.757777 C173.489848,225.349875 172.222613,224.33466 170.816085,224.490973 L170.594632,224.515482 L166.771163,193.898917 C165.939217,187.239022 161.361065,181.648806 154.999862,179.526332 L133.753953,172.437258 C130.836429,171.463436 127.635967,172.08324 125.386067,174.002562 L119.1277,171.914401 C115.572478,170.728168 113.175124,167.39822 113.175124,163.647264 L113.175124,149.594384 L131.925739,141.773854 C141.6588,137.715719 147.998239,128.196992 147.998239,117.642899 L147.998239,113.285755 C155.210433,113.285755 161.056907,107.433565 161.056907,100.214321 C161.056907,97.1833829 160.023096,94.3953551 158.293367,92.1781132 C162.07766,82.6228955 170.653396,55.259484 161.056907,21.7857221 C161.056907,21.7857221 159.499117,20.6408824 156.589755,18.9208996 C155.801337,8.87169066 152.351129,4.35714441 152.351129,4.35714441 L136.463626,9.65815523 C122.619806,4.65451952 103.155861,0 78.3525531,0 C78.3525531,0 75.4959694,2.99553678 69.6467743,4.35714441 C69.6467743,4.35714441 54.8197448,1.0892861 39.1765486,0 L30.4707698,21.7857221 C30.4707698,21.7857221 8.70632288,21.6043559 8.70632288,47.9285885 C8.70632288,57.5834759 14.0837736,81.659422 16.381011,91.507113 C14.315565,93.8191227 13.0586682,96.8691238 13.0586682,100.214321 C13.0586682,107.433565 18.9051427,113.285755 26.1173363,113.285755 L26.1173363,117.642899 C26.1173363,128.196447 32.4567756,137.715174 42.1892922,141.774943 L60.9404514,149.595473 L60.9404514,163.647808 C60.9404514,167.398765 58.5425535,170.728713 54.9878752,171.914945 L48.7295085,174.003107 C46.4796088,172.083785 43.2791468,171.463981 40.3616227,172.437803 L19.1157137,179.526877 C12.75451,181.64935 8.1763586,187.239567 7.34441262,193.899462 L3.5209434,224.516026 L3.29949016,224.491518 C1.89241866,224.335205 0.625727849,225.349875 0.469023831,226.758322 L0.0739991196,230.318109 C-0.0821607872,231.726011 0.931518329,232.994485 2.33804571,233.150797 L8.70577877,233.858833 L8.70577877,244.000087 C8.70577877,248.812553 12.6032471,252.714376 17.4115575,252.714376 L156.704018,252.714376 C161.512328,252.714376 165.409797,248.812553 165.409797,244.000087 L165.409797,233.858289 L171.776986,233.150253 C173.183513,232.99394 174.197736,231.725467 174.041032,230.317564 L174.041032,230.317564 Z" id="Shape" fill="#FDC88E"></path>
                                            <path d="M113.175124,149.232196 L60.9404514,149.232196 L60.9404514,163.647808 C60.9404514,166.784408 59.2069132,169.546837 56.5783121,171.087088 C93.0849072,177.483376 113.175124,149.232196 113.175124,149.232196 L113.175124,149.232196 Z" id="Shape" fill="#F5B97A"></path>
                                            <path d="M147.998239,87.1428882 L147.998239,78.4285994 C147.998239,66.3968897 138.253752,56.6428773 126.233792,56.6428773 L47.8817833,56.6428773 C35.8618233,56.6428773 26.1173363,66.3968897 26.1173363,78.4285994 L26.1173363,87.1428882 C18.9051427,87.1428882 13.0586682,92.9950778 13.0586682,100.214321 C13.0586682,107.433565 18.9051427,113.285755 26.1173363,113.285755 L26.1173363,117.642899 C26.1173363,128.196447 32.4567756,137.715174 42.1892922,141.774943 L70.3149428,153.505465 C75.6205709,155.71835 81.3108855,156.857199 87.0577877,156.857199 L87.0577877,156.857199 C92.80469,156.857199 98.4944605,155.717806 103.799544,153.505465 L131.926827,141.774399 C141.6588,137.715719 147.998239,128.196992 147.998239,117.642899 L147.998239,113.285755 C155.210433,113.285755 161.056907,107.433565 161.056907,100.214321 C161.056907,92.9950778 155.210433,87.1428882 147.998239,87.1428882 L147.998239,87.1428882 Z" id="Shape" fill="#FFD7A3"></path>
                                            <path d="M134.939571,230.929198 L171.39502,230.929198 L166.770619,193.899462 C165.938673,187.239567 161.360521,181.64935 154.999318,179.526877 L133.753409,172.437803 C130.053453,171.203097 125.891002,172.521678 123.801071,175.817857 C116.085575,187.987362 102.523604,196.071498 87.0583318,196.071498 C71.59306,196.071498 58.0305449,187.986817 50.3145043,175.817313 C48.2245733,172.521133 44.0621228,171.202552 40.3621668,172.437258 L19.1162579,179.526332 C12.7550541,181.648806 8.17690271,187.239022 7.34495673,193.898917 L3.20481481,227.052429 L39.1765486,227.116152 L39.1765486,252.71492 L134.939571,252.71492 L134.939571,230.929198 Z" id="Shape" fill="#B96BA2"></path>
                                            <path d="M56.5881061,104.571466 L56.5881061,104.571466 C54.194017,104.571466 52.2352168,102.610751 52.2352168,100.214321 L52.2352168,95.857177 C52.2352168,93.4607476 54.194017,91.5000326 56.5881061,91.5000326 L56.5881061,91.5000326 C58.9821953,91.5000326 60.9409955,93.4607476 60.9409955,95.857177 L60.9409955,100.214321 C60.9409955,102.610751 58.9816512,104.571466 56.5881061,104.571466 L56.5881061,104.571466 Z" id="Shape" fill="#623F33"></path>
                                            <path d="M117.528013,104.571466 L117.528013,104.571466 C115.133924,104.571466 113.175124,102.610751 113.175124,100.214321 L113.175124,95.857177 C113.175124,93.4607476 115.133924,91.5000326 117.528013,91.5000326 L117.528013,91.5000326 C119.922103,91.5000326 121.880903,93.4607476 121.880903,95.857177 L121.880903,100.214321 C121.880903,102.610751 119.922103,104.571466 117.528013,104.571466 L117.528013,104.571466 Z" id="Shape" fill="#623F33"></path>
                                            <path d="M87.0583318,135.190754 C79.3194386,135.190754 72.0805836,133.284503 67.198274,129.959457 C65.21118,128.606564 64.6942744,125.895875 66.0485671,123.906839 C67.3979628,121.919981 70.1081806,121.40257 72.0952746,122.756008 C75.5171898,125.085446 81.1111967,126.477009 87.0583318,126.477009 C93.005467,126.477009 98.5994739,125.085446 102.021389,122.756008 C104.012836,121.398758 106.716524,121.917802 108.068097,123.906839 C109.421845,125.895875 108.905484,128.606564 106.91839,129.959457 C102.036624,133.284503 94.7972251,135.190754 87.0583318,135.190754 L87.0583318,135.190754 Z" id="Shape" fill="#E4B07B"></path>
                                            <path d="M48.9683733,132.742038 C45.4414446,128.956769 43.5299821,123.961848 43.5299821,118.78556 L43.5299821,80.3304929 C55.5434127,73.825821 90.6494656,56.6428773 126.233792,56.6428773 L47.8817833,56.6428773 C46.3833011,56.6428773 44.9321566,56.8177078 43.5288939,57.1227079 L43.5288939,57.0818596 C33.5950562,59.1008514 26.1173363,67.8892117 26.1173363,78.4285994 L26.1173363,87.1428882 C18.9051427,87.1428882 13.0586682,92.9950778 13.0586682,100.214321 C13.0586682,107.433565 18.9051427,113.285755 26.1173363,113.285755 L26.1173363,117.642899 C26.1173363,128.196992 32.4567756,137.715719 42.1892922,141.774943 L70.3143987,153.505465 C71.691,154.079519 73.095895,154.574055 74.5187457,155.002689 C62.0890701,145.900615 53.8158597,137.943924 48.9683733,132.742038 L48.9683733,132.742038 Z" id="Shape" fill="#FDC88E"></path>
                                            <path d="M39.1765486,234.218298 L39.1765486,224.356991 C39.1765486,220.164873 37.6671842,216.113818 34.925408,212.945085 L10.9741783,185.270137 C9.04149537,187.719397 7.747599,190.678443 7.34550084,193.898917 L2.79890788,230.306671 C9.72163433,230.722779 28.1365329,232.882288 39.1765486,234.218298 L39.1765486,234.218298 Z" id="Shape" fill="#AC6497"></path>
                                            <path d="M39.1765486,228.481573 L3.30003427,224.491518 C1.89296277,224.335205 0.626271961,225.349875 0.469567943,226.757777 L0.0745432308,230.317564 C-0.081616676,231.725467 0.93206244,232.99394 2.33858982,233.150253 L39.1765486,237.247602 L39.1765486,228.481573 L39.1765486,228.481573 Z" id="Shape" fill="#9B5285"></path>
                                            <path d="M134.939571,234.218298 L134.939571,224.356991 C134.939571,220.164873 136.448935,216.113818 139.190712,212.945085 L163.141941,185.270137 C165.074624,187.719397 166.368521,190.678443 166.770619,193.898917 L171.317212,230.306671 C164.394485,230.722779 145.979043,232.882288 134.939571,234.218298 L134.939571,234.218298 Z" id="Shape" fill="#AC6497"></path>
                                            <path d="M134.939571,228.481573 L170.816085,224.491518 C172.223157,224.335205 173.489848,225.349875 173.646552,226.757777 L174.041576,230.317564 C174.197736,231.725467 173.184057,232.99394 171.77753,233.150253 L134.939571,237.247602 L134.939571,228.481573 L134.939571,228.481573 Z" id="Shape" fill="#9B5285"></path>
                                            <path d="M161.056907,21.7857221 C161.056907,21.7857221 159.499117,20.6408824 156.589755,18.9208996 C155.801337,8.87169066 152.351129,4.35714441 152.351129,4.35714441 L136.463626,9.65815523 C122.619806,4.65451952 103.155861,0 78.3525531,0 C78.3525531,0 75.4959694,2.99553678 69.6467743,4.35714441 C69.6467743,4.35714441 54.8197448,1.0892861 39.1765486,0 L30.4707698,21.7857221 C30.4707698,21.7857221 8.70632288,21.6043559 8.70632288,47.9285885 C8.70632288,57.6019938 14.1044498,81.7531006 16.3946138,91.5653898 C18.7865265,88.8726745 22.2351031,87.1428882 26.1178804,87.1428882 L26.1178804,78.4285994 C26.1178804,66.5047291 35.6964135,56.8471185 47.567287,56.6744666 C44.2253562,63.9312907 43.529438,69.7143106 43.529438,69.7143106 C54.4116614,62.4520401 68.558552,56.6428773 87.0583318,56.6428773 L126.234336,56.6428773 C138.254296,56.6428773 147.998783,66.3968897 147.998783,78.4285994 L147.998783,87.1428882 C152.192792,87.1428882 155.883498,89.1569782 158.27269,92.2331222 C162.045557,82.7258331 170.670808,55.320484 161.056907,21.7857221 L161.056907,21.7857221 Z" id="Shape" fill="#9D6E48"></path>
                                            <path d="M152.351129,4.35714441 L136.463626,9.65815523 C122.619806,4.65451952 103.155861,0 78.3525531,0 C78.3525531,0 75.4959694,2.99553678 69.6467743,4.35714441 C69.6467743,4.35714441 54.8197448,1.0892861 39.1765486,0 L30.4707698,21.7857221 C30.4707698,21.7857221 8.70632288,21.6043559 8.70632288,47.9285885 C8.70632288,57.6019938 14.1044498,81.7531006 16.3946138,91.5653898 C18.7865265,88.8726745 22.2351031,87.1428882 26.1178804,87.1428882 L26.1178804,78.4285994 C26.1178804,67.0559078 34.8557618,57.8252974 45.9605267,56.8367703 C44.7934082,60.0861107 43.529438,64.7161213 43.529438,69.7143106 C60.6689399,47.9285885 85.0135621,40.0688446 104.469889,34.8571553 C123.785836,29.6830463 126.234336,21.7857221 126.234336,21.7857221 C126.234336,21.7857221 145.277683,20.696436 152.351129,4.35714441 L152.351129,4.35714441 Z" id="Shape" fill="#8D5F3D"></path>
                                        </g>
                                    </g>
                                </g>
                            </g>
                        </g>
                    </g>
                </g>
            </g>
        </g>
    </g>
</svg>