<?xml version="1.0" encoding="UTF-8" standalone="no"?>
<svg width="125px" height="170px" viewBox="0 0 125 170" version="1.1" xmlns="http://www.w3.org/2000/svg" xmlns:xlink="http://www.w3.org/1999/xlink" xmlns:sketch="http://www.bohemiancoding.com/sketch/ns">
    <!-- Generator: Sketch 3.5.1 (25234) - http://www.bohemiancoding.com/sketch -->
    <title>Rails</title>
    <desc>Created with Sketch.</desc>
    <defs>
        <path d="M50.8363002,5.76280994 C59.7669649,-0.733610603 74.2440279,-0.735360372 83.1770981,5.76280994 L112.999601,27.4565505 C121.930266,33.952971 126.405587,47.7377263 122.993458,58.2519867 L111.602275,93.3531962 C108.191065,103.864625 96.4799018,112.385823 85.4255003,112.385823 L48.587898,112.385823 C37.5420749,112.385823 25.8232525,103.867457 22.4111234,93.3531962 L11.0199407,58.2519867 C7.60873032,47.7405575 12.0807267,33.9547208 21.0137969,27.4565505 L50.8363002,5.76280994 Z" id="path-1"></path>
    </defs>
    <g id="Page-1" stroke="none" stroke-width="1" fill="none" fill-rule="evenodd" sketch:type="MSPage">
        <g id="AB-mobile" sketch:type="MSArtboardGroup" transform="translate(-2128.000000, -569.000000)">
            <g id="screen-3" sketch:type="MSLayerGroup" transform="translate(2046.000000, 143.000000)">
                <g id="Group" transform="translate(-698.000000, 100.000000)">
                    <g id="service-list" transform="translate(779.000000, 326.000000)">
                        <g id="Rails">
                            <text id="Ruby-on-Rails" opacity="0.7" sketch:type="MSTextLayer" font-family="Helvetica Neue" font-size="19.7320341" font-weight="420" fill="#FFFFFF">
                                <tspan x="0" y="164.463415">Ruby on Rails</tspan>
                            </text>
                            <mask id="mask-2" sketch:name="Mask" fill="white">
                                <use xlink:href="#path-1"></use>
                            </mask>
                            <use id="Mask" fill="#4F484F" sketch:type="MSShapeGroup" xlink:href="#path-1"></use>
                            <path d="M97.3899851,40.9683234 L96.0491885,42.9875066 C96.0491885,42.9875066 92.6971376,39.1739193 86.5536372,39.846462 C80.4085878,40.5194831 69.5727166,46.801094 67.8965124,60.5970713 C66.2207848,74.392929 72.8122898,89.4229779 72.8122898,89.4229779 L43.095768,89.4229779 C43.095768,89.4229779 42.3139048,84.4876487 44.2130389,75.0660698 C46.1118155,65.6442517 48.904814,59.363239 53.7085902,50.3899023 C58.5123665,41.4170441 66.2206657,34.0141699 77.3924212,33.0052363 C88.564415,31.9954652 97.3899851,40.9683234 97.3899851,40.9683234 L97.3899851,40.9683234 Z M37.1746018,74.3930487 L36.5042631,80.0015187 L41.978378,80.674181 L42.9842435,74.8416497 L37.1746018,74.3930487 L37.1746018,74.3930487 Z M47.8995443,57.6809253 L42.760837,55.6616225 L41.0851094,60.372053 L46.3358178,62.0544864 L47.8995443,57.6809253 L47.8995443,57.6809253 Z M56.613709,43.4363469 L52.7033205,40.8564722 L49.575391,44.3328312 L53.5971848,47.0251552 L56.613709,43.4363469 L56.613709,43.4363469 Z M67.8965124,34.2390686 L65.2153959,31.2104732 L61.5290097,33.1172071 L64.2101262,36.3696245 L67.8965124,34.2390686 L67.8965124,34.2390686 Z M79.8507269,32.5566352 L79.4031989,29.6404892 L74.5998993,29.4157102 L75.2697614,32.6692042 L79.8507269,32.5566352 L79.8507269,32.5566352 Z M93.8150042,35.5847521 L90.128618,32.8929066 L90.016736,34.9116113 L93.1447847,36.5940446 L93.8150042,35.5847521 L93.8150042,35.5847521 Z M89.4576836,43.2114483 L92.4742077,43.5477196 L92.4742077,42.2020361 L89.4576836,41.5290149 L89.4576836,43.2114483 L89.4576836,43.2114483 Z M79.8507269,42.9876263 L81.3024522,45.6789932 L83.425112,43.9965599 L82.9781798,42.2021557 L79.8507269,42.9876263 L79.8507269,42.9876263 Z M77.5044223,49.829809 L75.2697614,46.4649423 L72.9240526,48.5960963 L76.1635066,52.1849046 L77.5044223,49.829809 L77.5044223,49.829809 Z M69.3491909,58.6897393 L73.1472208,61.9431137 L74.0410852,58.2414972 L70.8016311,55.7740718 L69.3491909,58.6897393 L69.3491909,58.6897393 Z M69.0139024,69.906799 L73.7061541,71.9255037 L73.4832242,68.2243656 L69.2373089,65.9808819 L69.0139024,69.906799 L69.0139024,69.906799 Z M77.6154702,84.2639463 L75.4932871,79.889189 L70.5779863,79.889189 L71.6953763,83.9275554 L77.6154702,84.2639463 L77.6154702,84.2639463 Z" id="Shape" fill="#B96BA2" sketch:type="MSShapeGroup" mask="url(#mask-2)"></path>
                        </g>
                    </g>
                </g>
            </g>
        </g>
    </g>
</svg>