<?xml version="1.0" encoding="UTF-8" standalone="no"?>
<svg id='active_bridge_mark' width="359px" height="359px" viewBox="0 0 359 359" version="1.1" xmlns="http://www.w3.org/2000/svg" xmlns:xlink="http://www.w3.org/1999/xlink">
    <defs>
        <linearGradient x1="50%" y1="0%" x2="56.0190966%" y2="109.214012%" id="linearGradient-violet">
            <stop stop-color="#CE83BA" offset="0%"></stop>
            <stop stop-color="#9F4B84" offset="100%"></stop>
        </linearGradient>
        <path id="path-2" d="M179.948153,358.948153 C278.807123,358.948153 358.948153,278.807123 358.948153,179.948153 C358.948153,81.0891828 278.807123,0.948153025 179.948153,0.948153025 C81.0891828,0.948153025 0.948153025,81.0891828 0.948153025,179.948153 C0.948153025,278.807123 81.0891828,358.948153 179.948153,358.948153 Z"></path>
        <linearGradient x1="50%" y1="0%" x2="50%" y2="100%" id="linearGradient-light-violet">
            <stop stop-color="#DB9ACA" offset="0%"></stop>
            <stop stop-color="#A5578C" offset="100%"></stop>
        </linearGradient>
        <path d="M126.144201,218.295027 C126.150206,221.938018 126.158302,225.568581 126.169006,229.173866 C126.256485,258.638259 126.25104,285.733907 126.219269,304.429186 C126.198753,316.501481 126.637821,325.626829 125.505536,327.76095 C120.481483,335.260212 114.052862,328.304824 114.146128,325.886879 C115.162303,298.218723 116.522206,258.618796 117.965549,219.46835 C92.765928,223.149346 69.1387921,227.216396 49.1858398,231.351744 C20.5996191,237.276379 0.67714659,243.760166 0.67714659,243.760166 C0.67714659,243.760166 49.119288,225.962583 118.291359,210.678749 C120.71489,145.668233 123.315946,84.4823944 124.890163,84.4100214 C126.513164,84.4760825 126.08523,146.941727 126.133097,208.97656 C173.853956,198.803867 230.551711,190.123007 287.698224,189.184556 C354.024021,186.116309 413.548275,194.362129 456.591982,203.412547 C451.706645,106.299449 446.70177,1.19673604 448.745025,0.897240256 C450.797307,0.801705845 458.169059,100.760779 465.63527,188.976328 C466.113297,194.624353 466.583534,200.205615 467.044162,205.694938 C504.207279,214.114289 526.607126,222.469864 526.607126,222.469864 C526.607126,222.469864 501.598645,176.525808 494.40985,158.192096 C482.737411,128.423665 470.023424,78.1634359 470.023424,78.1634359 C470.023424,78.1634359 491.486789,131.723215 503.728027,156.724888 C518.089994,186.057964 549.833039,241.167681 549.833039,241.167681 C549.833039,241.167681 514.750615,233.736624 468.70007,225.524844 C470.67491,249.288202 472.40453,270.507612 473.717632,286.814165 C474.981726,302.512128 476.453564,314.329906 475.395069,317.224598 C470.488345,327.507285 462.444825,319.145643 462.292907,315.992068 C461.043546,290.898116 459.367544,258.282547 457.609641,223.570276 C401.22032,213.751666 332.124349,203.574057 290.334646,204.07236 C243.701144,204.628422 181.72716,210.464514 126.144201,218.295027 L126.144201,218.295027 Z M366.501458,116.719248 C335.202439,135.328341 294.12747,147.356886 278.918143,149.550513 C167.390151,171.30244 139.786386,128.493258 139.786386,128.493258 C139.786386,128.493258 159.371455,182.019588 281.750287,156.9017 C389.407112,133.878111 433.252859,63.6556511 433.252859,63.6556511 C433.252859,63.6556511 405.088295,93.7771212 366.501458,116.719248 L366.501458,116.719248 Z" id="path-5"></path>
        <linearGradient x1="50%" y1="0%" x2="50%" y2="100%" id="linearGradient-dark-violet">
            <stop stop-color="#9F4B84" offset="0%"></stop>
            <stop stop-color="#9F4B84" offset="100%"></stop>
        </linearGradient>
        <path id="path-7" d="M509.199978,167.711374 C489.556691,129.032007 470.20828,78.3498898 470.20828,78.3498898 C470.20828,78.3498898 510.918747,165.530824 533.73105,201.356485 C552.833138,231.355426 595.951453,275.823694 595.951453,275.823694 C595.951453,275.823694 446.046781,215.923711 312.006242,213.370105 C141.433829,206.688454 1.43723284,242.94644 1.43723284,242.94644 C1.43723284,242.94644 73.1248778,225.843894 150.364992,212.587208 C204.93715,203.221014 268.98311,196.302351 327.814621,198.344472 C424.105517,200.5768 549.641481,241.168277 549.641481,241.168277 C549.641481,241.168277 532.693401,213.319919 509.199978,167.711374 Z"></path>
    </defs>
    <g id="Page-" stroke="none" stroke-width="1" fill="none" fill-rule="evenodd">
        <g id="Artboard-1" transform="translate(-2792.000000, -270.000000)">
            <g id="AB-button" transform="translate(2971.662590, 449.370219) rotate(17.000000) translate(-2971.662590, -449.370219) translate(2792.162590, 269.870219)">
                <mask id="mask-3" fill="white">
                    <use xlink:href="#path-2"></use>
                </mask>
                <use id="Mask-round" fill="url(#linearGradient-violet)" xlink:href="#path-2"></use>
                <g id="Group-6" mask="url(#mask-3)">
                    <g transform="translate(-152.000000, 66.000000)">
                        <g>
                            <use fill="none" xlink:href="#path-5"></use>
                            <use fill-opacity="0.629999995" fill="url(#linearGradient-light-violet)" fill-rule="evenodd" xlink:href="#path-5"></use>
                        </g>
                        <g>
                            <use fill="none" xlink:href="#path-7"></use>
                            <use fill="url(#linearGradient-dark-violet)" fill-rule="evenodd" xlink:href="#path-7"></use>
                        </g>
                    </g>
                </g>
                <g id="Group-3" mask="url(#mask-3)">
                    <g transform="translate(34.234007, 57.869956)">
                        <path d="M63.1333944,152.452208 C63.1493515,143.065806 63.1520863,129.461803 63.1081496,114.668515 C63.0069482,80.5944325 63.3698956,42.0232276 62.4658446,41.9864433 C61.1651439,42.0462201 58.4687041,125.144883 57.0696008,163.225544 C57.0227577,164.43953 60.2515637,167.931645 62.7749187,164.166465 C63.3436144,163.09498 63.1230902,158.513385 63.1333944,152.452208 Z" fill="#FFFFFF"></path>
                        <path d="M237.666138,143.608175 C236.682929,131.402759 235.234772,113.715231 233.606732,94.4864016 C229.856791,50.1957231 226.154293,0.00893419314 225.123524,0.0568994774 C223.652532,0.272436386 229.45474,108.598827 231.928014,158.257623 C232.004315,159.840949 236.044213,164.039107 238.508639,158.876443 C239.040273,157.423095 238.301035,151.489704 237.666138,143.608175 L237.666138,143.608175 Z" fill="#FFFFFF"></path>
                        <path d="M252.739005,78.2938122 C246.590783,65.7411383 235.810704,38.850199 235.810704,38.850199 C235.810704,38.850199 242.196366,64.0845221 248.058905,79.0304583 C251.669512,88.2353272 264.230143,111.302614 264.230143,111.302614 C264.230143,111.302614 211.118514,91.4981107 144.236985,94.5909474 C71.4330332,95.7860906 0.0792529418,121.991908 0.0792529418,121.991908 C0.0792529418,121.991908 10.0854116,118.736571 24.4429801,115.76197 C57.3742861,108.93926 110.232518,102.486826 145.561141,102.065718 C185.677732,101.587537 275.895471,120.69029 275.895471,120.69029 C275.895471,120.69029 259.952372,93.0211688 252.739005,78.2938122 Z" fill="#FFFFFF"></path>
                        <path d="M183.816293,58.2080457 C168.096208,67.551176 147.466105,73.5903883 139.827147,74.6917495 C83.8116702,85.612813 69.9475452,64.1194626 69.9475452,64.1194626 C69.9475452,64.1194626 79.7842414,90.993608 141.249605,78.3825848 C195.320769,66.8230539 217.342508,31.5662266 217.342508,31.5662266 C217.342508,31.5662266 203.196719,46.6894147 183.816293,58.2080457 Z" fill="#FFFFFF"></path>
                        <path d="M255.487319,83.8098347 C245.621382,64.3899543 235.903548,38.9438126 235.903548,38.9438126 C235.903548,38.9438126 256.350579,82.7150386 267.808169,100.702149 C277.402285,115.763818 299.058669,138.090152 299.058669,138.090152 C299.058669,138.090152 223.768318,108.015965 156.445805,106.733867 C70.7749811,103.379188 0.461009957,121.583358 0.461009957,121.583358 C0.461009957,121.583358 36.4664784,112.996625 75.2607012,106.340796 C102.669833,101.638279 134.837228,98.1646026 164.385641,99.1898976 C212.748211,100.31069 275.79926,120.69059 275.79926,120.69059 C275.79926,120.69059 267.287004,106.70867 255.487319,83.8098347 Z" fill="#D7D7D7"></path>
                    </g>
                </g>
                <path d="M92.5471737,281.267466 L96.5177038,281.267466 L98.1362639,277.296935 L105.622104,277.296935 L107.240664,281.267466 L111.312354,281.267466 L103.725354,263.438015 L100.134174,263.438015 L92.5471737,281.267466 Z M99.5272139,273.857495 L101.879184,268.116665 L104.231154,273.857495 L99.5272139,273.857495 Z M119.405155,281.570946 C122.111185,281.570946 123.628585,280.534056 124.943665,279.092526 L122.692855,276.816425 C121.757125,277.701575 120.871975,278.257956 119.582185,278.257956 C117.483115,278.257956 116.142745,276.588815 116.142745,274.515035 C116.142745,272.466545 117.508405,270.772115 119.430445,270.772115 C120.947845,270.772115 121.757125,271.328495 122.591695,272.112485 L124.842505,269.836385 C123.578005,268.420145 122.010025,267.459125 119.455735,267.459125 C115.308175,267.459125 112.349244,270.645665 112.349244,274.515035 C112.349244,278.434986 115.333465,281.570946 119.405155,281.570946 L119.405155,281.570946 Z M132.024865,281.495076 C133.314655,281.495076 134.250385,281.191596 135.059665,280.711086 L135.059665,277.625705 C134.503285,277.929186 133.871035,278.106216 133.162915,278.106216 C132.303055,278.106216 131.923705,277.676285 131.923705,276.791135 L131.923705,270.999725 L135.110245,270.999725 L135.110245,267.712025 L131.923705,267.712025 L131.923705,264.247295 L128.079625,264.247295 L128.079625,267.712025 L126.461065,267.712025 L126.461065,270.999725 L128.079625,270.999725 L128.079625,277.423385 C128.079625,280.559346 129.672895,281.495076 132.024865,281.495076 L132.024865,281.495076 Z M138.018595,266.219915 L142.064995,266.219915 L142.064995,262.805765 L138.018595,262.805765 L138.018595,266.219915 Z M138.119755,281.267466 L141.963835,281.267466 L141.963835,267.712025 L138.119755,267.712025 L138.119755,281.267466 Z M149.702576,281.368626 L153.192596,281.368626 L158.528786,267.712025 L154.532966,267.712025 L151.472876,276.791135 L148.438076,267.712025 L144.366386,267.712025 L149.702576,281.368626 Z M166.419266,281.570946 C168.872396,281.570946 170.693277,280.609926 171.957777,279.041946 L169.757546,277.094615 C168.695366,278.080926 167.759636,278.485566 166.469846,278.485566 C164.750126,278.485566 163.536206,277.575125 163.156856,275.830115 L172.590027,275.830115 C172.615317,275.476055 172.640607,275.121995 172.640607,274.818515 C172.640607,270.974435 170.566827,267.459125 166.039916,267.459125 C162.094676,267.459125 159.338066,270.645665 159.338066,274.515035 C159.338066,278.713176 162.347576,281.570946 166.419266,281.570946 L166.419266,281.570946 Z M163.106276,273.427565 C163.409756,271.682555 164.446646,270.544505 166.039916,270.544505 C167.658476,270.544505 168.670076,271.707845 168.897686,273.427565 L163.106276,273.427565 Z M175.473087,271.758425 L179.570067,271.758425 L179.570067,267.712025 L175.473087,267.712025 L175.473087,271.758425 Z M175.473087,281.267466 L179.570067,281.267466 L179.570067,277.221065 L175.473087,277.221065 L175.473087,281.267466 Z M182.958927,271.758425 L187.055907,271.758425 L187.055907,267.712025 L182.958927,267.712025 L182.958927,271.758425 Z M182.958927,281.267466 L187.055907,281.267466 L187.055907,277.221065 L182.958927,277.221065 L182.958927,281.267466 Z M190.874697,281.267466 L199.296268,281.267466 C203.292088,281.267466 205.922248,279.648906 205.922248,276.411785 C205.922248,273.983945 204.657748,272.795315 202.609258,272.011325 C203.873758,271.303205 204.935938,270.190445 204.935938,268.192535 C204.935938,266.928035 204.531298,265.941725 203.722018,265.132445 C202.710418,264.120845 201.117148,263.564465 199.093948,263.564465 L190.874697,263.564465 L190.874697,281.267466 Z M194.668197,270.721535 L194.668197,266.978615 L198.512278,266.978615 C200.156128,266.978615 201.066568,267.636155 201.066568,268.799495 C201.066568,270.165155 199.979098,270.721535 198.259378,270.721535 L194.668197,270.721535 Z M194.668197,277.853315 L194.668197,273.958655 L199.169818,273.958655 C201.167728,273.958655 202.052878,274.692065 202.052878,275.880695 C202.052878,277.246355 201.015988,277.853315 199.296268,277.853315 L194.668197,277.853315 Z M208.729438,281.267466 L212.573518,281.267466 L212.573518,276.260045 C212.573518,273.022925 214.141498,271.480235 216.695788,271.480235 L216.898108,271.480235 L216.898108,267.459125 C214.622008,267.357965 213.357508,268.571885 212.573518,270.443345 L212.573518,267.712025 L208.729438,267.712025 L208.729438,281.267466 Z M219.376528,266.219915 L223.422928,266.219915 L223.422928,262.805765 L219.376528,262.805765 L219.376528,266.219915 Z M219.477688,281.267466 L223.321768,281.267466 L223.321768,267.712025 L219.477688,267.712025 L219.477688,281.267466 Z M232.502039,281.520366 C234.499949,281.520366 235.789739,280.584636 236.725469,279.320136 L236.725469,281.267466 L240.569549,281.267466 L240.569549,262.805765 L236.725469,262.805765 L236.725469,269.482325 C235.815029,268.394855 234.550529,267.459125 232.502039,267.459125 C229.290209,267.459125 226.331279,269.937545 226.331279,274.464455 C226.331279,279.041946 229.340789,281.520366 232.502039,281.520366 L232.502039,281.520366 Z M233.488349,278.257956 C231.692759,278.257956 230.175359,276.765845 230.175359,274.515035 C230.175359,272.188355 231.692759,270.721535 233.488349,270.721535 C235.283939,270.721535 236.776049,272.213645 236.776049,274.464455 C236.776049,276.765845 235.283939,278.257956 233.488349,278.257956 L233.488349,278.257956 Z M250.078589,285.364446 C252.708749,285.364446 254.65608,284.808066 255.92058,283.543566 C257.05863,282.405516 257.6403,280.635216 257.6403,278.207376 L257.6403,267.712025 L253.79622,267.712025 L253.79622,269.482325 C252.759329,268.344275 251.520119,267.459125 249.421049,267.459125 C246.310379,267.459125 243.402029,269.735225 243.402029,273.781625 C243.402029,277.853315 246.259799,280.154706 249.421049,280.154706 C251.469539,280.154706 252.708749,279.320136 253.8468,277.954476 L253.8468,278.612016 C253.8468,281.039856 252.607589,282.304356 249.977429,282.304356 C248.181839,282.304356 246.790889,281.849136 245.399939,281.065146 L244.084859,283.948206 C245.804579,284.858646 247.878359,285.364446 250.078589,285.364446 L250.078589,285.364446 Z M250.533809,276.968165 C248.662349,276.968165 247.246109,275.703665 247.246109,273.832205 C247.246109,271.935455 248.662349,270.645665 250.533809,270.645665 C252.405269,270.645665 253.8468,271.935455 253.8468,273.781625 C253.8468,275.678375 252.405269,276.968165 250.533809,276.968165 L250.533809,276.968165 Z M267.5034,281.570946 C269.95653,281.570946 271.77741,280.609926 273.04191,279.041946 L270.84168,277.094615 C269.7795,278.080926 268.84377,278.485566 267.55398,278.485566 C265.83426,278.485566 264.62034,277.575125 264.24099,275.830115 L273.67416,275.830115 C273.69945,275.476055 273.72474,275.121995 273.72474,274.818515 C273.72474,270.974435 271.65096,267.459125 267.12405,267.459125 C263.17881,267.459125 260.4222,270.645665 260.4222,274.515035 C260.4222,278.713176 263.43171,281.570946 267.5034,281.570946 L267.5034,281.570946 Z M264.19041,273.427565 C264.49389,271.682555 265.53078,270.544505 267.12405,270.544505 C268.74261,270.544505 269.75421,271.707845 269.98182,273.427565 L264.19041,273.427565 Z" fill="#FFFFFF" mask="url(#mask-3)"></path>
            </g>
        </g>
    </g>
</svg>
