<?xml version="1.0" encoding="UTF-8" standalone="no"?>
<svg width="302px" height="227px" viewBox="0 0 302 227" version="1.1" xmlns="http://www.w3.org/2000/svg" xmlns:xlink="http://www.w3.org/1999/xlink">
    <defs>
        <path id="path-1" d="M0.06743782,16.8648759 L17.6936786,0.0267646572 L73.9374104,0.0267646572 L92.2046054,16.8806499 L46.1360216,63.3672591 L0.06743782,16.8648759 Z"></path>
    </defs>
    <g id="Page-1" stroke="none" stroke-width="1" fill="none" fill-rule="evenodd">
                <g id="title" transform="translate(0.565010, 163.044287)">
                    <g id="grey-ruby" transform="translate(209.250699, 0.275316)">
                        <mask id="mask-2" fill="white">
                            <use xlink:href="#path-1"></use>
                        </mask>
                        <use id="Mask" stroke="#7B7B7B" stroke-width="2" xlink:href="#path-1"></use>
                        <path d="M16.6799262,-1.88128991 L26.427113,16.8855908 L-3.10481405,16.8855908 L16.6799262,-1.88128991 Z" id="Path-312" stroke="#7B7B7B" stroke-width="2" mask="url(#mask-2)"></path>
                        <path d="M74.903996,-1.88128991 L65.1568092,16.8855908 L94.6887363,16.8855908 L74.903996,-1.88128991 L74.903996,-1.88128991 Z" id="Path-312" stroke="#7B7B7B" stroke-width="2" mask="url(#mask-2)"></path>
                        <rect id="Rectangle-8" stroke="#7B7B7B" stroke-width="2" mask="url(#mask-2)" x="-2.30429019" y="16.335504" width="98.8671868" height="49.4047988"></rect>
                        <path d="M26.4645615,16.801342 L46.0779831,63.4561177 L65.0191147,16.801342 L26.4645615,16.801342 Z" id="Path-314" stroke="#7B7B7B" stroke-width="2" mask="url(#mask-2)"></path>
                        <path d="M91.6182544,16.7734645 L65.0513017,16.7734645 L46.1837906,62.727879 L91.6182544,16.7734645 Z" id="Path-315" stroke="#7B7B7B" stroke-width="2" mask="url(#mask-2)"></path>
                        <polygon id="Triangle-1" stroke="#7B7B7B" stroke-width="2" mask="url(#mask-2)" points="45.8155445 0.0267646572 65.1242901 16.8148031 26.5067989 16.8148031 "></polygon>
                    </g>
                    <path d="M8.06898571,47.2275646 C8.06898571,47.6419788 7.98609522,48.0057369 7.82031174,48.3188498 C7.65452827,48.6319628 7.42657942,48.8944212 7.13645835,49.1062328 C6.84633727,49.3180445 6.51017028,49.4792032 6.12794727,49.5897136 C5.74572427,49.7002241 5.33817935,49.7554785 4.90530029,49.7554785 L0.166679772,49.7554785 L0.166679772,39.9477252 L5.41646344,39.9477252 C5.75724057,39.9477252 6.0657774,40.0213978 6.34208319,40.168745 C6.61838897,40.3160923 6.85324537,40.5071804 7.04665942,40.7420151 C7.24007346,40.9768498 7.38973685,41.2439127 7.49565407,41.5432119 C7.60157129,41.842511 7.6545291,42.1441079 7.6545291,42.4480116 C7.6545291,42.9268902 7.53479839,43.3758322 7.29533338,43.794851 C7.05586836,44.2138698 6.70588629,44.5246757 6.24537665,44.7272782 C6.80719841,44.8930439 7.25158355,45.1900363 7.57854539,45.6182643 C7.90550724,46.0464923 8.06898571,46.5829203 8.06898571,47.2275646 L8.06898571,47.2275646 Z M6.1486701,46.8684075 C6.1486701,46.6934326 6.11873743,46.5253671 6.05887117,46.3642061 C5.99900492,46.203045 5.91841694,46.0626067 5.81710482,45.9428871 C5.7157927,45.8231674 5.59606199,45.7287745 5.4579091,45.6597055 C5.3197562,45.5906364 5.1677903,45.5561024 5.00200683,45.5561024 L2.07318016,45.5561024 L2.07318016,48.1392713 L4.90530029,48.1392713 C5.08029395,48.1392713 5.24377242,48.1070395 5.39574061,48.0425751 C5.54770879,47.9781107 5.67895207,47.8883223 5.78947438,47.7732072 C5.89999669,47.6580922 5.98749221,47.5222585 6.05196356,47.365702 C6.11643491,47.2091455 6.1486701,47.0433823 6.1486701,46.8684075 L6.1486701,46.8684075 Z M2.07318016,41.5777462 L2.07318016,44.0504051 L4.61518067,44.0504051 C4.93753741,44.0504051 5.21153654,43.9398963 5.43718627,43.7188754 C5.66283599,43.4978545 5.77565916,43.1939554 5.77565916,42.8071688 C5.77565916,42.4295914 5.67204604,42.1302968 5.46481671,41.9092759 C5.25758737,41.688255 5.00200835,41.5777462 4.69807199,41.5777462 L2.07318016,41.5777462 Z M12.7385301,49.8936159 C12.158288,49.8936159 11.6333149,49.7946184 11.163595,49.5966205 C10.6938752,49.3986226 10.2932378,49.1292574 9.96167087,48.7885169 C9.63010393,48.4477763 9.37452491,48.0517865 9.19492615,47.6005355 C9.01532739,47.1492845 8.92552936,46.6750176 8.92552936,46.1777206 C8.92552936,45.6620052 9.01302488,45.176227 9.18801854,44.7203714 C9.3630122,44.2645158 9.61628871,43.8639214 9.94785565,43.5185762 C10.2794226,43.1732311 10.6823625,42.8992614 11.1566874,42.6966589 C11.6310123,42.4940564 12.162893,42.3927567 12.7523453,42.3927567 C13.3417977,42.3927567 13.8690733,42.4940564 14.3341881,42.6966589 C14.7993028,42.8992614 15.1953351,43.1709288 15.522297,43.5116694 C15.8492588,43.8524099 16.0979303,44.2483998 16.2683189,44.6996508 C16.4387074,45.1509018 16.5239004,45.6205641 16.5239004,46.1086519 C16.5239004,46.2283716 16.5215979,46.3434849 16.5169928,46.4539953 C16.5123877,46.5645058 16.5008752,46.6565965 16.4824548,46.7302701 L10.8872906,46.7302701 C10.9149212,47.0157554 10.9839966,47.2690047 11.0945189,47.4900256 C11.2050412,47.7110465 11.3477971,47.8998324 11.5227907,48.0563888 C11.6977844,48.2129453 11.8958006,48.3326632 12.1168452,48.415546 C12.3378898,48.4984288 12.5681412,48.5398696 12.8076062,48.5398696 C13.1760139,48.5398696 13.5236935,48.4500812 13.8506553,48.2705018 C14.1776172,48.0909223 14.400961,47.8537888 14.5206935,47.5590943 L16.1094438,48.0011339 C15.8423483,48.5536861 15.4163832,49.0072326 14.831536,49.361787 C14.2466887,49.7163413 13.5490271,49.8936159 12.7385301,49.8936159 L12.7385301,49.8936159 Z M14.6174001,45.528475 C14.5713491,44.9851319 14.3710304,44.5500036 14.016438,44.2230768 C13.6618456,43.8961501 13.2312755,43.7326892 12.7247149,43.7326892 C12.4760397,43.7326892 12.2434858,43.7764322 12.0270463,43.8639197 C11.8106068,43.9514071 11.6194981,44.0734272 11.4537146,44.2299837 C11.2879312,44.3865402 11.1520829,44.575326 11.0461657,44.7963469 C10.9402484,45.0173678 10.8780806,45.2614081 10.8596602,45.528475 L14.6174001,45.528475 Z M17.2008462,46.1362794 C17.2008462,45.6297732 17.2883418,45.1509018 17.4633354,44.6996508 C17.6383291,44.2483998 17.8916056,43.8524099 18.2231725,43.5116694 C18.5547395,43.1709288 18.9553768,42.8992614 19.4250967,42.6966589 C19.8948165,42.4940564 20.4243947,42.3927567 21.013847,42.3927567 C21.8059236,42.3927567 22.4805601,42.5631244 23.0377768,42.9038649 C23.5949934,43.2446055 24.0117484,43.6912452 24.2880542,44.2437974 L22.4782603,44.7963469 C22.3216871,44.52928 22.1144608,44.3243783 21.8565754,44.1816356 C21.59869,44.038893 21.3131783,43.9675227 21.0000318,43.9675227 C20.7329362,43.9675227 20.4842647,44.0204748 20.2540099,44.1263807 C20.0237551,44.2322865 19.8234364,44.3796316 19.6530478,44.5684203 C19.4826592,44.7572089 19.3491135,44.9851333 19.2524064,45.2522002 C19.1556994,45.5192672 19.1073466,45.8139573 19.1073466,46.1362794 C19.1073466,46.4586015 19.1580019,46.7532916 19.259314,47.0203586 C19.3606262,47.2874255 19.4964745,47.5176521 19.666863,47.7110454 C19.8372516,47.9044387 20.0375703,48.054086 20.2678251,48.1599919 C20.4980799,48.2658977 20.7421464,48.3188498 21.0000318,48.3188498 C21.3315987,48.3188498 21.637833,48.2359682 21.9187439,48.0702026 C22.1996548,47.9044369 22.3953685,47.7018375 22.5058908,47.4623981 L24.3156846,48.0149476 C24.0670094,48.5674999 23.657162,49.0187441 23.08613,49.3686939 C22.5150981,49.7186436 21.828949,49.8936159 21.0276622,49.8936159 C20.4382099,49.8936159 19.9086317,49.7923161 19.4389119,49.5897136 C18.9691921,49.3871112 18.5685547,49.1131414 18.2369877,48.7677963 C17.9054208,48.4224511 17.6498418,48.0218568 17.470243,47.5660012 C17.2906443,47.1101456 17.2008462,46.6335764 17.2008462,46.1362794 L17.2008462,46.1362794 Z M27.4241092,49.8936159 C27.0741218,49.8936159 26.7471649,49.8360592 26.4432285,49.7209441 C26.1392922,49.6058291 25.8768056,49.4446704 25.655761,49.2374633 C25.4347164,49.0302563 25.2620278,48.7885183 25.1376902,48.5122422 C25.0133526,48.235966 24.9511848,47.9320669 24.9511848,47.6005355 C24.9511848,47.259795 25.0271677,46.9443845 25.1791359,46.6542945 C25.3311041,46.3642046 25.5429353,46.1178621 25.814636,45.9152596 C26.0863367,45.7126571 26.4109911,45.5538007 26.788609,45.4386857 C27.1662269,45.3235706 27.5806794,45.266014 28.0319788,45.266014 C28.3543356,45.266014 28.66978,45.2936412 28.9783214,45.3488964 C29.2868629,45.4041516 29.560862,45.4824287 29.800327,45.5837299 L29.800327,45.1693178 C29.800327,44.6904392 29.6644787,44.3220766 29.392778,44.0642189 C29.1210773,43.8063611 28.7181375,43.6774342 28.1839463,43.6774342 C27.7971182,43.6774342 27.4195059,43.7465022 27.0510982,43.8846403 C26.6826905,44.0227783 26.3050783,44.2253778 25.9182502,44.4924447 L25.3518261,43.3182771 C26.2820556,42.7012604 27.2859516,42.3927567 28.3635441,42.3927567 C29.4042959,42.3927567 30.2124782,42.6483083 30.7881153,43.1594191 C31.3637523,43.6705299 31.6515665,44.4095574 31.6515665,45.3765239 L31.6515665,47.628163 C31.6515665,47.8215563 31.6861042,47.9596923 31.7551807,48.0425751 C31.8242571,48.1254579 31.9370803,48.1715033 32.0936536,48.1807125 L32.0936536,49.7554785 C31.780507,49.8199429 31.5088104,49.8521746 31.2785556,49.8521746 C30.9285683,49.8521746 30.6591742,49.7738976 30.4703652,49.6173411 C30.2815563,49.4607846 30.1641281,49.2535807 30.1180771,48.995723 L30.0766314,48.5951246 C29.7542747,49.018748 29.3628474,49.3410653 28.9023377,49.5620862 C28.4418281,49.7831071 27.9490902,49.8936159 27.4241092,49.8936159 L27.4241092,49.8936159 Z M27.9490875,48.5398696 C28.2622341,48.5398696 28.5592583,48.4846152 28.8401692,48.3741048 C29.1210801,48.2635943 29.3398189,48.1162493 29.4963922,47.9320652 C29.6990164,47.7755087 29.800327,47.6005365 29.800327,47.4071432 L29.800327,46.578319 C29.5792824,46.4954361 29.339821,46.4286704 29.0819356,46.3780198 C28.8240502,46.3273692 28.5753787,46.3020442 28.3359137,46.3020442 C27.8569837,46.3020442 27.4655563,46.4102508 27.16162,46.6266671 C26.8576836,46.8430834 26.7057177,47.1170531 26.7057177,47.4485844 C26.7057177,47.7616973 26.8254484,48.0218535 27.0649134,48.2290606 C27.3043784,48.4362676 27.5991002,48.5398696 27.9490875,48.5398696 L27.9490875,48.5398696 Z M35.5889043,49.8936159 C34.8428787,49.8936159 34.2764603,49.6541801 33.8896322,49.1753015 C33.5028041,48.6964229 33.309393,47.9873249 33.309393,47.047986 L33.309393,42.5170803 L35.1606325,42.5170803 L35.1606325,46.6473877 C35.1606325,47.7617014 35.5612698,48.3188498 36.3625566,48.3188498 C36.7217541,48.3188498 37.0694337,48.2106433 37.4056057,47.994227 C37.7417778,47.7778107 38.0157769,47.4485866 38.2276113,47.0065448 L38.2276113,42.5170803 L40.0788508,42.5170803 L40.0788508,47.628163 C40.0788508,47.8215563 40.1133885,47.9596923 40.182465,48.0425751 C40.2515414,48.1254579 40.3643646,48.1715033 40.5209379,48.1807125 L40.5209379,49.7554785 C40.336734,49.7923153 40.1824656,49.815338 40.058128,49.8245472 C39.9337904,49.8337564 39.8209672,49.8383609 39.7196551,49.8383609 C39.3880882,49.8383609 39.1186941,49.7623861 38.9114647,49.6104342 C38.7042354,49.4584824 38.5822022,49.2489761 38.5453614,48.9819092 L38.5039157,48.4017323 C38.181559,48.8990293 37.7671065,49.2719964 37.2605459,49.520645 C36.7539853,49.7692935 36.196777,49.8936159 35.5889043,49.8936159 L35.5889043,49.8936159 Z M44.6516887,49.8936159 C44.043816,49.8936159 43.4497675,49.7969207 42.8695253,49.6035274 C42.2892832,49.4101341 41.7919402,49.1338621 41.3774815,48.7747032 L42.0682425,47.6143493 C42.5103318,47.9274622 42.9409018,48.1645956 43.3599656,48.3257567 C43.7790294,48.4869178 44.1957844,48.5674971 44.610243,48.5674971 C44.9786508,48.5674971 45.2687675,48.4984291 45.4806019,48.3602911 C45.6924364,48.222153 45.798352,48.0241581 45.798352,47.7663004 C45.798352,47.5084426 45.6740162,47.3196568 45.425341,47.1999371 C45.1766658,47.0802175 44.7714234,46.9420815 44.2096017,46.785525 C43.7398818,46.6565962 43.3392444,46.5322738 43.0076775,46.4125541 C42.6761106,46.2928345 42.409019,46.1570008 42.2063947,46.0050489 C42.0037705,45.853097 41.8564096,45.6781248 41.7643077,45.4801269 C41.6722058,45.282129 41.6261555,45.0449956 41.6261555,44.7687194 C41.6261555,44.4003513 41.6975334,44.0688249 41.8402914,43.7741304 C41.9830494,43.4794358 42.1833681,43.2284888 42.4412535,43.0212817 C42.6991389,42.8140746 43.0007682,42.6552182 43.3461504,42.5447078 C43.6915326,42.4341973 44.0668424,42.3789429 44.4720908,42.3789429 C45.0154922,42.3789429 45.5243477,42.45722 45.9986727,42.6137765 C46.4729976,42.7703329 46.9081727,43.0235823 47.304211,43.373532 L46.5581891,44.4924447 C46.1897814,44.2161686 45.8328918,44.0135691 45.4875095,43.8846403 C45.1421273,43.7557114 44.7990528,43.691248 44.4582756,43.691248 C44.1451291,43.691248 43.8826425,43.7557114 43.6708081,43.8846403 C43.4589736,44.0135691 43.353058,44.2207731 43.353058,44.5062584 C43.353058,44.6351873 43.3783857,44.7410916 43.4290417,44.8239744 C43.4796978,44.9068572 43.5602858,44.9805298 43.6708081,45.0449942 C43.7813304,45.1094586 43.9263888,45.1716198 44.1059875,45.2314796 C44.2855863,45.2913395 44.5089301,45.3535006 44.7760257,45.4179651 C45.2733761,45.5468939 45.6993411,45.6758209 46.0539336,45.8047497 C46.408526,45.9336786 46.6986427,46.0810236 46.9242924,46.2467893 C47.1499421,46.412555 47.3157231,46.6036431 47.4216404,46.8200594 C47.5275576,47.0364757 47.5805154,47.2966318 47.5805154,47.6005355 C47.5805154,48.3096442 47.3180288,48.869095 46.7930478,49.2789046 C46.2680668,49.6887141 45.5542876,49.8936159 44.6516887,49.8936159 L44.6516887,49.8936159 Z M52.139538,49.8936159 C51.5592959,49.8936159 51.0343228,49.7946184 50.5646029,49.5966205 C50.0948831,49.3986226 49.6942457,49.1292574 49.3626788,48.7885169 C49.0311118,48.4477763 48.7755328,48.0517865 48.5959341,47.6005355 C48.4163353,47.1492845 48.3265373,46.6750176 48.3265373,46.1777206 C48.3265373,45.6620052 48.4140328,45.176227 48.5890265,44.7203714 C48.7640201,44.2645158 49.0172966,43.8639214 49.3488636,43.5185762 C49.6804305,43.1732311 50.0833704,42.8992614 50.5576953,42.6966589 C51.0320203,42.4940564 51.5639009,42.3927567 52.1533533,42.3927567 C52.7428056,42.3927567 53.2700812,42.4940564 53.735196,42.6966589 C54.2003107,42.8992614 54.5963431,43.1709288 54.9233049,43.5116694 C55.2502667,43.8524099 55.4989382,44.2483998 55.6693268,44.6996508 C55.8397154,45.1509018 55.9249084,45.6205641 55.9249084,46.1086519 C55.9249084,46.2283716 55.9226058,46.3434849 55.9180008,46.4539953 C55.9133957,46.5645058 55.9018831,46.6565965 55.8834627,46.7302701 L50.2882985,46.7302701 C50.3159291,47.0157554 50.3850045,47.2690047 50.4955268,47.4900256 C50.6060492,47.7110465 50.748805,47.8998324 50.9237987,48.0563888 C51.0987923,48.2129453 51.2968085,48.3326632 51.5178531,48.415546 C51.7388978,48.4984288 51.9691491,48.5398696 52.2086141,48.5398696 C52.5770219,48.5398696 52.9247014,48.4500812 53.2516633,48.2705018 C53.5786251,48.0909223 53.8019689,47.8537888 53.9217014,47.5590943 L55.5104518,48.0011339 C55.2433562,48.5536861 54.8173911,49.0072326 54.2325439,49.361787 C53.6476966,49.7163413 52.950035,49.8936159 52.139538,49.8936159 L52.139538,49.8936159 Z M54.018408,45.528475 C53.972357,44.9851319 53.7720383,44.5500036 53.4174459,44.2230768 C53.0628535,43.8961501 52.6322834,43.7326892 52.1257228,43.7326892 C51.8770476,43.7326892 51.6444937,43.7764322 51.4280542,43.8639197 C51.2116147,43.9514071 51.020506,44.0734272 50.8547226,44.2299837 C50.6889391,44.3865402 50.5530908,44.575326 50.4471736,44.7963469 C50.3412563,45.0173678 50.2790885,45.2614081 50.2606681,45.528475 L54.018408,45.528475 Z M68.9802914,42.5170803 L70.7348244,42.5170803 L67.7092912,49.7554785 L66.1896169,49.7554785 L64.9462471,46.578319 L63.7166925,49.7554785 L62.1970183,49.7554785 L59.1853003,42.5170803 L60.9260181,42.5170803 L63.0811924,48.0149476 L63.9653665,45.6666123 L62.6943662,42.5308941 L64.18641,42.5308941 L64.9462471,44.7549057 L65.7198995,42.5308941 L67.2119432,42.5308941 L65.9547582,45.6666123 L66.8251171,48.0149476 L68.9802914,42.5170803 Z M74.6859773,49.8936159 C74.1057352,49.8936159 73.5807621,49.7946184 73.1110422,49.5966205 C72.6413224,49.3986226 72.240685,49.1292574 71.9091181,48.7885169 C71.5775512,48.4477763 71.3219721,48.0517865 71.1423734,47.6005355 C70.9627746,47.1492845 70.8729766,46.6750176 70.8729766,46.1777206 C70.8729766,45.6620052 70.9604721,45.176227 71.1354658,44.7203714 C71.3104594,44.2645158 71.5637359,43.8639214 71.8953029,43.5185762 C72.2268698,43.1732311 72.6298097,42.8992614 73.1041346,42.6966589 C73.5784596,42.4940564 74.1103402,42.3927567 74.6997926,42.3927567 C75.2892449,42.3927567 75.8165205,42.4940564 76.2816353,42.6966589 C76.74675,42.8992614 77.1427824,43.1709288 77.4697442,43.5116694 C77.7967061,43.8524099 78.0453775,44.2483998 78.2157661,44.6996508 C78.3861547,45.1509018 78.4713477,45.6205641 78.4713477,46.1086519 C78.4713477,46.2283716 78.4690452,46.3434849 78.4644401,46.4539953 C78.459835,46.5645058 78.4483224,46.6565965 78.429902,46.7302701 L72.8347378,46.7302701 C72.8623684,47.0157554 72.9314438,47.2690047 73.0419661,47.4900256 C73.1524885,47.7110465 73.2952443,47.8998324 73.470238,48.0563888 C73.6452316,48.2129453 73.8432478,48.3326632 74.0642924,48.415546 C74.2853371,48.4984288 74.5155884,48.5398696 74.7550534,48.5398696 C75.1234612,48.5398696 75.4711407,48.4500812 75.7981026,48.2705018 C76.1250644,48.0909223 76.3484082,47.8537888 76.4681407,47.5590943 L78.0568911,48.0011339 C77.7897955,48.5536861 77.3638304,49.0072326 76.7789832,49.361787 C76.194136,49.7163413 75.4964743,49.8936159 74.6859773,49.8936159 L74.6859773,49.8936159 Z M76.5648473,45.528475 C76.5187963,44.9851319 76.3184776,44.5500036 75.9638852,44.2230768 C75.6092928,43.8961501 75.1787227,43.7326892 74.6721621,43.7326892 C74.4234869,43.7326892 74.190933,43.7764322 73.9744935,43.8639197 C73.758054,43.9514071 73.5669453,44.0734272 73.4011619,44.2299837 C73.2353784,44.3865402 73.0995301,44.575326 72.9936129,44.7963469 C72.8876957,45.0173678 72.8255278,45.2614081 72.8071074,45.528475 L76.5648473,45.528475 Z M82.9060333,39.6714505 L84.7572728,39.6714505 L84.7572728,47.4347707 C84.7572728,47.7018376 84.8217432,47.9090416 84.9506859,48.0563888 C85.0796286,48.2037361 85.2638297,48.2774086 85.5032947,48.2774086 C85.6138171,48.2774086 85.7358503,48.2589905 85.8693981,48.2221537 C86.0029459,48.1853169 86.1295841,48.1392715 86.2493166,48.0840163 L86.4979906,49.4930175 C86.2493154,49.6127371 85.9591987,49.7048278 85.6276317,49.7692922 C85.2960648,49.8337567 84.996738,49.8659884 84.7296424,49.8659884 C84.1494003,49.8659884 83.7004101,49.7117365 83.3826584,49.4032282 C83.0649068,49.0947199 82.9060333,48.654987 82.9060333,48.0840163 L82.9060333,39.6714505 Z M90.6425566,49.8936159 C90.0531043,49.8936159 89.5235262,49.7923161 89.0538063,49.5897136 C88.5840865,49.3871112 88.1857516,49.1131414 87.8587898,48.7677963 C87.5318279,48.4224511 87.2808539,48.024159 87.1058603,47.572908 C86.9308666,47.121657 86.8433711,46.6473902 86.8433711,46.1500931 C86.8433711,45.6435869 86.9308666,45.1647155 87.1058603,44.7134645 C87.2808539,44.2622135 87.5318279,43.8639214 87.8587898,43.5185762 C88.1857516,43.1732311 88.5840865,42.8992614 89.0538063,42.6966589 C89.5235262,42.4940564 90.0531043,42.3927567 90.6425566,42.3927567 C91.232009,42.3927567 91.7592846,42.4940564 92.2243993,42.6966589 C92.6895141,42.8992614 93.0855464,43.1732311 93.4125083,43.5185762 C93.7394701,43.8639214 93.9904441,44.2622135 94.1654378,44.7134645 C94.3404314,45.1647155 94.427927,45.6435869 94.427927,46.1500931 C94.427927,46.6473902 94.3404314,47.121657 94.1654378,47.572908 C93.9904441,48.024159 93.7417726,48.4224511 93.4194159,48.7677963 C93.0970591,49.1131414 92.7010268,49.3871112 92.231307,49.5897136 C91.7615871,49.7923161 91.232009,49.8936159 90.6425566,49.8936159 L90.6425566,49.8936159 Z M88.7498715,46.1500931 C88.7498715,46.4724153 88.7982243,46.7648031 88.8949313,47.0272654 C88.9916383,47.2897277 89.1251841,47.5176521 89.2955727,47.7110454 C89.4659612,47.9044387 89.6662799,48.054086 89.8965348,48.1599919 C90.1267896,48.2658977 90.375461,48.3188498 90.6425566,48.3188498 C90.9096522,48.3188498 91.1583237,48.2658977 91.3885785,48.1599919 C91.6188333,48.054086 91.819152,47.9044387 91.9895406,47.7110454 C92.1599292,47.5176521 92.293475,47.2874255 92.390182,47.0203586 C92.486889,46.7532916 92.5352418,46.4586015 92.5352418,46.1362794 C92.5352418,45.8231665 92.486889,45.5330809 92.390182,45.266014 C92.293475,44.9989471 92.1599292,44.7687204 91.9895406,44.5753271 C91.819152,44.3819338 91.6188333,44.2322865 91.3885785,44.1263807 C91.1583237,44.0204748 90.9096522,43.9675227 90.6425566,43.9675227 C90.375461,43.9675227 90.1267896,44.0227771 89.8965348,44.1332875 C89.6662799,44.243798 89.4659612,44.3957476 89.2955727,44.5891409 C89.1251841,44.7825341 88.9916383,45.0127608 88.8949313,45.2798277 C88.7982243,45.5468946 88.7498715,45.8369802 88.7498715,46.1500931 L88.7498715,46.1500931 Z M97.3567536,49.7554785 L94.6904161,42.5170803 L96.5969165,42.5170803 L98.4343408,48.2497812 L100.28558,42.5170803 L102.026298,42.5170803 L99.3599606,49.7554785 L97.3567536,49.7554785 Z M106.101788,49.8936159 C105.521546,49.8936159 104.996573,49.7946184 104.526853,49.5966205 C104.057133,49.3986226 103.656496,49.1292574 103.324929,48.7885169 C102.993362,48.4477763 102.737783,48.0517865 102.558184,47.6005355 C102.378585,47.1492845 102.288787,46.6750176 102.288787,46.1777206 C102.288787,45.6620052 102.376283,45.176227 102.551276,44.7203714 C102.72627,44.2645158 102.979547,43.8639214 103.311114,43.5185762 C103.64268,43.1732311 104.04562,42.8992614 104.519945,42.6966589 C104.99427,42.4940564 105.526151,42.3927567 106.115603,42.3927567 C106.705056,42.3927567 107.232331,42.4940564 107.697446,42.6966589 C108.162561,42.8992614 108.558593,43.1709288 108.885555,43.5116694 C109.212517,43.8524099 109.461188,44.2483998 109.631577,44.6996508 C109.801965,45.1509018 109.887158,45.6205641 109.887158,46.1086519 C109.887158,46.2283716 109.884856,46.3434849 109.880251,46.4539953 C109.875646,46.5645058 109.864133,46.6565965 109.845713,46.7302701 L104.250549,46.7302701 C104.278179,47.0157554 104.347254,47.2690047 104.457777,47.4900256 C104.568299,47.7110465 104.711055,47.8998324 104.886049,48.0563888 C105.061042,48.2129453 105.259058,48.3326632 105.480103,48.415546 C105.701148,48.4984288 105.931399,48.5398696 106.170864,48.5398696 C106.539272,48.5398696 106.886951,48.4500812 107.213913,48.2705018 C107.540875,48.0909223 107.764219,47.8537888 107.883951,47.5590943 L109.472702,48.0011339 C109.205606,48.5536861 108.779641,49.0072326 108.194794,49.361787 C107.609947,49.7163413 106.912285,49.8936159 106.101788,49.8936159 L106.101788,49.8936159 Z M107.980658,45.528475 C107.934607,44.9851319 107.734288,44.5500036 107.379696,44.2230768 C107.025103,43.8961501 106.594533,43.7326892 106.087973,43.7326892 C105.839298,43.7326892 105.606744,43.7764322 105.390304,43.8639197 C105.173865,43.9514071 104.982756,44.0734272 104.816973,44.2299837 C104.651189,44.3865402 104.515341,44.575326 104.409424,44.7963469 C104.303506,45.0173678 104.241338,45.2614081 104.222918,45.528475 L107.980658,45.528475 Z M118.673638,49.3825076 C118.424963,49.493018 118.121031,49.6035268 117.761834,49.7140373 C117.402636,49.8245477 117.025024,49.8798021 116.628986,49.8798021 C116.3711,49.8798021 116.129336,49.8475704 115.903687,49.783106 C115.678037,49.7186415 115.480021,49.6150395 115.309632,49.4722969 C115.139244,49.3295542 115.003395,49.1453729 114.902083,48.9197474 C114.800771,48.6941219 114.750116,48.4201522 114.750116,48.09783 L114.750116,43.9398952 L113.796866,43.9398952 L113.796866,42.5170803 L114.750116,42.5170803 L114.750116,40.168745 L116.601355,40.168745 L116.601355,42.5170803 L118.12103,42.5170803 L118.12103,43.9398952 L116.601355,43.9398952 L116.601355,47.4762119 C116.601355,47.7340696 116.668128,47.9159486 116.801676,48.0218545 C116.935224,48.1277603 117.098702,48.1807125 117.292116,48.1807125 C117.48553,48.1807125 117.674337,48.1484807 117.85854,48.0840163 C118.042744,48.0195519 118.190105,47.9642975 118.300627,47.9182515 L118.673638,49.3825076 Z M126.368716,49.7554785 L124.517476,49.7554785 L124.517476,45.6942398 C124.517476,45.1232692 124.411561,44.7019544 124.199726,44.4302829 C123.987892,44.1586114 123.688565,44.0227776 123.301737,44.0227776 C123.135954,44.0227776 122.960963,44.0596139 122.776759,44.1332875 C122.592555,44.2069612 122.417564,44.3105632 122.25178,44.4440966 C122.085997,44.5776301 121.934031,44.7364865 121.795878,44.9206705 C121.657725,45.1048546 121.556415,45.3074541 121.491943,45.528475 L121.491943,49.7554785 L119.640704,49.7554785 L119.640704,39.6714505 L121.491943,39.6714505 L121.491943,43.8570128 C121.759039,43.3873434 122.120534,43.0258876 122.576438,42.7726344 C123.032343,42.5193813 123.536593,42.3927567 124.089205,42.3927567 C124.558924,42.3927567 124.941142,42.473336 125.235868,42.6344971 C125.530594,42.7956581 125.760845,43.0097689 125.926629,43.2768358 C126.092412,43.5439028 126.207538,43.8478019 126.272009,44.1885425 C126.336481,44.529283 126.368716,44.8792275 126.368716,45.2383865 L126.368716,49.7554785 Z M131.342195,49.8936159 C130.761953,49.8936159 130.23698,49.7946184 129.76726,49.5966205 C129.29754,49.3986226 128.896903,49.1292574 128.565336,48.7885169 C128.233769,48.4477763 127.97819,48.0517865 127.798591,47.6005355 C127.618993,47.1492845 127.529194,46.6750176 127.529194,46.1777206 C127.529194,45.6620052 127.61669,45.176227 127.791684,44.7203714 C127.966677,44.2645158 128.219954,43.8639214 128.551521,43.5185762 C128.883088,43.1732311 129.286028,42.8992614 129.760353,42.6966589 C130.234677,42.4940564 130.766558,42.3927567 131.35601,42.3927567 C131.945463,42.3927567 132.472738,42.4940564 132.937853,42.6966589 C133.402968,42.8992614 133.799,43.1709288 134.125962,43.5116694 C134.452924,43.8524099 134.701595,44.2483998 134.871984,44.6996508 C135.042373,45.1509018 135.127566,45.6205641 135.127566,46.1086519 C135.127566,46.2283716 135.125263,46.3434849 135.120658,46.4539953 C135.116053,46.5645058 135.10454,46.6565965 135.08612,46.7302701 L129.490956,46.7302701 C129.518586,47.0157554 129.587662,47.2690047 129.698184,47.4900256 C129.808706,47.7110465 129.951462,47.8998324 130.126456,48.0563888 C130.30145,48.2129453 130.499466,48.3326632 130.72051,48.415546 C130.941555,48.4984288 131.171806,48.5398696 131.411271,48.5398696 C131.779679,48.5398696 132.127359,48.4500812 132.45432,48.2705018 C132.781282,48.0909223 133.004626,47.8537888 133.124359,47.5590943 L134.713109,48.0011339 C134.446013,48.5536861 134.020048,49.0072326 133.435201,49.361787 C132.850354,49.7163413 132.152692,49.8936159 131.342195,49.8936159 L131.342195,49.8936159 Z M133.221065,45.528475 C133.175014,44.9851319 132.974696,44.5500036 132.620103,44.2230768 C132.265511,43.8961501 131.834941,43.7326892 131.32838,43.7326892 C131.079705,43.7326892 130.847151,43.7764322 130.630711,43.8639197 C130.414272,43.9514071 130.223163,44.0734272 130.05738,44.2299837 C129.891596,44.3865402 129.755748,44.575326 129.649831,44.7963469 C129.543914,45.0173678 129.481746,45.2614081 129.463325,45.528475 L133.221065,45.528475 Z M148.182949,42.5170803 L149.937482,42.5170803 L146.911948,49.7554785 L145.392274,49.7554785 L144.148904,46.578319 L142.91935,49.7554785 L141.399676,49.7554785 L138.387958,42.5170803 L140.128675,42.5170803 L142.28385,48.0149476 L143.168024,45.6666123 L141.897023,42.5308941 L143.389067,42.5308941 L144.148904,44.7549057 L144.922557,42.5308941 L146.4146,42.5308941 L145.157415,45.6666123 L146.027774,48.0149476 L148.182949,42.5170803 Z M152.590004,49.8936159 C152.240017,49.8936159 151.91306,49.8360592 151.609123,49.7209441 C151.305187,49.6058291 151.0427,49.4446704 150.821656,49.2374633 C150.600611,49.0302563 150.427923,48.7885183 150.303585,48.5122422 C150.179247,48.235966 150.117079,47.9320669 150.117079,47.6005355 C150.117079,47.259795 150.193062,46.9443845 150.345031,46.6542945 C150.496999,46.3642046 150.70883,46.1178621 150.980531,45.9152596 C151.252231,45.7126571 151.576886,45.5538007 151.954504,45.4386857 C152.332122,45.3235706 152.746574,45.266014 153.197874,45.266014 C153.52023,45.266014 153.835675,45.2936412 154.144216,45.3488964 C154.452758,45.4041516 154.726757,45.4824287 154.966222,45.5837299 L154.966222,45.1693178 C154.966222,44.6904392 154.830373,44.3220766 154.558673,44.0642189 C154.286972,43.8063611 153.884032,43.6774342 153.349841,43.6774342 C152.963013,43.6774342 152.585401,43.7465022 152.216993,43.8846403 C151.848585,44.0227783 151.470973,44.2253778 151.084145,44.4924447 L150.517721,43.3182771 C151.44795,42.7012604 152.451846,42.3927567 153.529439,42.3927567 C154.570191,42.3927567 155.378373,42.6483083 155.95401,43.1594191 C156.529647,43.6705299 156.817461,44.4095574 156.817461,45.3765239 L156.817461,47.628163 C156.817461,47.8215563 156.851999,47.9596923 156.921075,48.0425751 C156.990152,48.1254579 157.102975,48.1715033 157.259548,48.1807125 L157.259548,49.7554785 C156.946402,49.8199429 156.674705,49.8521746 156.44445,49.8521746 C156.094463,49.8521746 155.825069,49.7738976 155.63626,49.6173411 C155.447451,49.4607846 155.330023,49.2535807 155.283972,48.995723 L155.242526,48.5951246 C154.920169,49.018748 154.528742,49.3410653 154.068232,49.5620862 C153.607723,49.7831071 153.114985,49.8936159 152.590004,49.8936159 L152.590004,49.8936159 Z M153.114982,48.5398696 C153.428129,48.5398696 153.725153,48.4846152 154.006064,48.3741048 C154.286975,48.2635943 154.505714,48.1162493 154.662287,47.9320652 C154.864911,47.7755087 154.966222,47.6005365 154.966222,47.4071432 L154.966222,46.578319 C154.745177,46.4954361 154.505716,46.4286704 154.24783,46.3780198 C153.989945,46.3273692 153.741273,46.3020442 153.501808,46.3020442 C153.022878,46.3020442 152.631451,46.4102508 152.327515,46.6266671 C152.023578,46.8430834 151.871612,47.1170531 151.871612,47.4485844 C151.871612,47.7616973 151.991343,48.0218535 152.230808,48.2290606 C152.470273,48.4362676 152.764995,48.5398696 153.114982,48.5398696 L153.114982,48.5398696 Z M158.516733,51.1644797 C158.673307,51.2105257 158.825272,51.2450597 158.972636,51.2680827 C159.119999,51.2911057 159.244334,51.302617 159.345647,51.302617 C159.465379,51.302617 159.5759,51.2795944 159.677212,51.2335483 C159.778524,51.1875023 159.870624,51.106923 159.953516,50.9918079 C160.036408,50.8766929 160.119298,50.7178365 160.20219,50.515234 C160.285082,50.3126315 160.372577,50.0593822 160.464679,49.7554785 L157.604929,42.5170803 L159.511429,42.5170803 L161.47319,48.153085 L163.213908,42.5170803 L164.954626,42.5170803 L161.915277,51.1921071 C161.740284,51.6986134 161.440957,52.1130213 161.017288,52.4353435 C160.593619,52.7576656 160.068646,52.9188243 159.442353,52.9188243 C159.29499,52.9188243 159.145327,52.9073129 158.993358,52.8842899 C158.84139,52.8612669 158.682517,52.8221284 158.516733,52.7668731 L158.516733,51.1644797 Z M177.512661,42.5170803 L179.267194,42.5170803 L176.241661,49.7554785 L174.721987,49.7554785 L173.478617,46.578319 L172.249062,49.7554785 L170.729388,49.7554785 L167.71767,42.5170803 L169.458388,42.5170803 L171.613562,48.0149476 L172.497736,45.6666123 L171.226736,42.5308941 L172.71878,42.5308941 L173.478617,44.7549057 L174.252269,42.5308941 L175.744313,42.5308941 L174.487128,45.6666123 L175.357487,48.0149476 L177.512661,42.5170803 Z M183.218347,49.8936159 C182.638105,49.8936159 182.113132,49.7946184 181.643412,49.5966205 C181.173692,49.3986226 180.773055,49.1292574 180.441488,48.7885169 C180.109921,48.4477763 179.854342,48.0517865 179.674743,47.6005355 C179.495144,47.1492845 179.405346,46.6750176 179.405346,46.1777206 C179.405346,45.6620052 179.492842,45.176227 179.667835,44.7203714 C179.842829,44.2645158 180.096106,43.8639214 180.427672,43.5185762 C180.759239,43.1732311 181.162179,42.8992614 181.636504,42.6966589 C182.110829,42.4940564 182.64271,42.3927567 183.232162,42.3927567 C183.821615,42.3927567 184.34889,42.4940564 184.814005,42.6966589 C185.27912,42.8992614 185.675152,43.1709288 186.002114,43.5116694 C186.329076,43.8524099 186.577747,44.2483998 186.748136,44.6996508 C186.918524,45.1509018 187.003717,45.6205641 187.003717,46.1086519 C187.003717,46.2283716 187.001415,46.3434849 186.99681,46.4539953 C186.992205,46.5645058 186.980692,46.6565965 186.962272,46.7302701 L181.367107,46.7302701 C181.394738,47.0157554 181.463813,47.2690047 181.574336,47.4900256 C181.684858,47.7110465 181.827614,47.8998324 182.002608,48.0563888 C182.177601,48.2129453 182.375617,48.3326632 182.596662,48.415546 C182.817707,48.4984288 183.047958,48.5398696 183.287423,48.5398696 C183.655831,48.5398696 184.00351,48.4500812 184.330472,48.2705018 C184.657434,48.0909223 184.880778,47.8537888 185.00051,47.5590943 L186.589261,48.0011339 C186.322165,48.5536861 185.8962,49.0072326 185.311353,49.361787 C184.726506,49.7163413 184.028844,49.8936159 183.218347,49.8936159 L183.218347,49.8936159 Z M185.097217,45.528475 C185.051166,44.9851319 184.850847,44.5500036 184.496255,44.2230768 C184.141662,43.8961501 183.711092,43.7326892 183.204532,43.7326892 C182.955857,43.7326892 182.723303,43.7764322 182.506863,43.8639197 C182.290424,43.9514071 182.099315,44.0734272 181.933531,44.2299837 C181.767748,44.3865402 181.6319,44.575326 181.525983,44.7963469 C181.420065,45.0173678 181.357897,45.2614081 181.339477,45.528475 L185.097217,45.528475 Z M194.450121,49.8936159 C193.952771,49.8936159 193.492268,49.7969207 193.068599,49.6035274 C192.64493,49.4101341 192.281133,49.1430712 191.977197,48.8023306 C191.67326,48.4615901 191.436101,48.063298 191.265713,47.6074424 C191.095324,47.1515868 191.010131,46.661204 191.010131,46.1362794 C191.010131,45.6113548 191.090719,45.1232743 191.251897,44.6720233 C191.413076,44.2207723 191.63642,43.8247825 191.921936,43.4840419 C192.207452,43.1433014 192.548224,42.8762384 192.944262,42.6828452 C193.3403,42.4894519 193.773173,42.3927567 194.242893,42.3927567 C194.777084,42.3927567 195.258309,42.5216836 195.686583,42.7795413 C196.114857,43.037399 196.448722,43.3735299 196.688187,43.7879441 L196.688187,39.6714505 L198.539426,39.6714505 L198.539426,47.628163 C198.539426,47.8215563 198.571661,47.9596923 198.636133,48.0425751 C198.700604,48.1254579 198.811125,48.1715033 198.967698,48.1807125 L198.967698,49.7554785 C198.645341,49.8199429 198.382855,49.8521746 198.18023,49.8521746 C197.848663,49.8521746 197.576967,49.7692931 197.365132,49.6035274 C197.153298,49.4377617 197.033567,49.2213487 197.005937,48.9542817 L196.964491,48.4984284 C196.697395,48.9588886 196.335901,49.3065309 195.879996,49.5413656 C195.424092,49.7762003 194.947471,49.8936159 194.450121,49.8936159 L194.450121,49.8936159 Z M194.933654,48.3188498 C195.108647,48.3188498 195.288243,48.2889204 195.472447,48.2290606 C195.656651,48.1692007 195.827037,48.0840169 195.98361,47.9735064 C196.140184,47.862996 196.280637,47.734069 196.404975,47.5867218 C196.529312,47.4393745 196.623715,47.2782159 196.688187,47.103241 L196.688187,45.3765239 C196.614505,45.1739214 196.510892,44.9874378 196.377344,44.8170675 C196.243796,44.6466972 196.09183,44.4993522 195.921442,44.3750279 C195.751053,44.2507037 195.571457,44.1517062 195.382648,44.0780326 C195.193839,44.004359 195.007336,43.9675227 194.823132,43.9675227 C194.546826,43.9675227 194.291247,44.0273816 194.056387,44.1471013 C193.821527,44.2668209 193.621209,44.4302818 193.455425,44.6374889 C193.289642,44.844696 193.160701,45.0818295 193.068599,45.3488964 C192.976497,45.6159633 192.930447,45.8922353 192.930447,46.1777206 C192.930447,46.4816243 192.981102,46.7625009 193.082414,47.0203586 C193.183726,47.2782163 193.321877,47.5038384 193.496871,47.6972317 C193.671864,47.890625 193.881393,48.0425745 194.125463,48.153085 C194.369533,48.2635954 194.638928,48.3188498 194.933654,48.3188498 L194.933654,48.3188498 Z M203.706318,49.8936159 C203.116866,49.8936159 202.587288,49.7923161 202.117568,49.5897136 C201.647848,49.3871112 201.249513,49.1131414 200.922552,48.7677963 C200.59559,48.4224511 200.344616,48.024159 200.169622,47.572908 C199.994628,47.121657 199.907133,46.6473902 199.907133,46.1500931 C199.907133,45.6435869 199.994628,45.1647155 200.169622,44.7134645 C200.344616,44.2622135 200.59559,43.8639214 200.922552,43.5185762 C201.249513,43.1732311 201.647848,42.8992614 202.117568,42.6966589 C202.587288,42.4940564 203.116866,42.3927567 203.706318,42.3927567 C204.295771,42.3927567 204.823046,42.4940564 205.288161,42.6966589 C205.753276,42.8992614 206.149308,43.1732311 206.47627,43.5185762 C206.803232,43.8639214 207.054206,44.2622135 207.2292,44.7134645 C207.404193,45.1647155 207.491689,45.6435869 207.491689,46.1500931 C207.491689,46.6473902 207.404193,47.121657 207.2292,47.572908 C207.054206,48.024159 206.805534,48.4224511 206.483178,48.7677963 C206.160821,49.1131414 205.764789,49.3871112 205.295069,49.5897136 C204.825349,49.7923161 204.295771,49.8936159 203.706318,49.8936159 L203.706318,49.8936159 Z M201.813633,46.1500931 C201.813633,46.4724153 201.861986,46.7648031 201.958693,47.0272654 C202.0554,47.2897277 202.188946,47.5176521 202.359335,47.7110454 C202.529723,47.9044387 202.730042,48.054086 202.960297,48.1599919 C203.190551,48.2658977 203.439223,48.3188498 203.706318,48.3188498 C203.973414,48.3188498 204.222086,48.2658977 204.45234,48.1599919 C204.682595,48.054086 204.882914,47.9044387 205.053302,47.7110454 C205.223691,47.5176521 205.357237,47.2874255 205.453944,47.0203586 C205.550651,46.7532916 205.599004,46.4586015 205.599004,46.1362794 C205.599004,45.8231665 205.550651,45.5330809 205.453944,45.266014 C205.357237,44.9989471 205.223691,44.7687204 205.053302,44.5753271 C204.882914,44.3819338 204.682595,44.2322865 204.45234,44.1263807 C204.222086,44.0204748 203.973414,43.9675227 203.706318,43.9675227 C203.439223,43.9675227 203.190551,44.0227771 202.960297,44.1332875 C202.730042,44.243798 202.529723,44.3957476 202.359335,44.5891409 C202.188946,44.7825341 202.0554,45.0127608 201.958693,45.2798277 C201.861986,45.5468946 201.813633,45.8369802 201.813633,46.1500931 L201.813633,46.1500931 Z" id="-Because-we-love-the" fill="#666666"></path>
                    <g id="Active-bridge" transform="translate(1.749509, 5.156842)">
                        <path d="M10.7627658,0.789356398 L15.5783568,0.789356398 L26.2358124,28.8115085 L20.6307802,28.8115085 L18.0256244,21.8257044 L8.23655409,21.8257044 L5.67087034,28.8115085 L0.0658381586,28.8115085 L10.7627658,0.789356398 Z M17.0388229,17.9973259 L13.1705613,6.98580412 L9.14441141,17.9973259 L17.0388229,17.9973259 Z M26.9463094,18.4709397 C26.9463094,17.0237791 27.1962966,15.655575 27.6962785,14.3662864 C28.1962604,13.0769979 28.9199075,11.9455984 29.8672417,10.9720539 C30.8145758,9.99850951 31.959254,9.22231681 33.3013107,8.64345256 C34.6433673,8.06458831 36.1564478,7.77516052 37.8405973,7.77516052 C40.1036733,7.77516052 42.0312061,8.26192543 43.6232537,9.23546986 C45.2153014,10.2090143 46.4060299,11.4851277 47.195475,13.0638484 L42.0246354,14.6425612 C41.5772832,13.8795129 40.9852082,13.2940794 40.2483928,12.8862432 C39.5115774,12.478407 38.6958297,12.274492 37.8011252,12.274492 C37.037995,12.274492 36.327505,12.4257838 35.6696341,12.7283719 C35.0117632,13.0309601 34.4394241,13.4519459 33.9525996,13.9913422 C33.4657751,14.5307384 33.0842157,15.1819509 32.80791,15.9449992 C32.5316042,16.7080476 32.3934533,17.5500193 32.3934533,18.4709397 C32.3934533,19.3918601 32.5381828,20.2338319 32.827646,20.9968802 C33.1171092,21.7599285 33.5052472,22.4177189 33.9920717,22.9702712 C34.4788962,23.5228234 35.0512353,23.9503872 35.7091062,24.2529753 C36.3669771,24.5555635 37.0643098,24.7068553 37.8011252,24.7068553 C38.7484594,24.7068553 39.6234146,24.4700507 40.4260171,23.9964345 C41.2286196,23.5228183 41.7878015,22.9439627 42.1035795,22.2598504 L47.2744191,23.8385632 C46.5639185,25.4172839 45.3929258,26.7065531 43.7614059,27.7064096 C42.1298861,28.706266 40.1694601,29.2061867 37.8800694,29.2061867 C36.1959198,29.2061867 34.6828394,28.916759 33.3407827,28.3378947 C31.9987261,27.7590304 30.8540478,26.9762598 29.9067137,25.9895594 C28.9593796,25.002859 28.2291538,23.8583037 27.7160145,22.5558591 C27.2028752,21.2534145 26.9463094,19.8917883 26.9463094,18.4709397 L26.9463094,18.4709397 Z M62.9053539,27.7458774 C62.1948533,28.0616215 61.3264767,28.3773609 60.3001981,28.6931051 C59.2739195,29.0088492 58.1950273,29.1667189 57.0634894,29.1667189 C56.3266739,29.1667189 55.6359198,29.0746283 54.9912063,28.8904442 C54.3464928,28.7062601 53.7807323,28.4102544 53.2939079,28.0024182 C52.8070834,27.5945821 52.4189454,27.0683497 52.1294822,26.4237054 C51.840019,25.7790612 51.6952895,24.9962906 51.6952895,24.0753701 L51.6952895,12.1955564 L48.9717175,12.1955564 L48.9717175,8.1303709 L51.6952895,8.1303709 L51.6952895,1.42084152 L56.9845452,1.42084152 L56.9845452,8.1303709 L61.3264716,8.1303709 L61.3264716,12.1955564 L56.9845452,12.1955564 L56.9845452,22.2993183 C56.9845452,23.0360546 57.1753249,23.555709 57.5568901,23.8582971 C57.9384552,24.1608853 58.4055366,24.3121771 58.9581481,24.3121771 C59.5107597,24.3121771 60.0502058,24.2200864 60.5765025,24.0359023 C61.1027992,23.8517182 61.5238303,23.6938485 61.8396083,23.5622885 L62.9053539,27.7458774 Z M65.6683979,28.8115085 L65.6683979,8.1303709 L70.9576536,8.1303709 L70.9576536,28.8115085 L65.6683979,28.8115085 Z M65.6683979,5.24922005 L65.6683979,0 L70.9576536,0 L70.9576536,5.24922005 L65.6683979,5.24922005 Z M81.2993327,28.8115085 L73.6812256,8.1303709 L79.1283696,8.1303709 L84.3781532,24.5095162 L89.667409,8.1303709 L94.6408882,8.1303709 L87.0227811,28.8115085 L81.2993327,28.8115085 Z M106.285145,29.2061867 C104.62731,29.2061867 103.127387,28.9233369 101.785331,28.3576286 C100.443274,27.7919204 99.2985957,27.0223056 98.3512616,26.0487611 C97.4039275,25.0752167 96.6737017,23.9438172 96.1605624,22.6545286 C95.6474231,21.3652401 95.3908573,20.0101918 95.3908573,18.5893432 C95.3908573,17.1158705 95.6408445,15.7279327 96.1408264,14.4254882 C96.6408083,13.1230436 97.3644554,11.9784883 98.3117896,10.9917878 C99.2591237,10.0050874 100.410381,9.22231681 101.765595,8.64345256 C103.120809,8.06458831 104.640468,7.77516052 106.324617,7.77516052 C108.008767,7.77516052 109.515269,8.06458831 110.844168,8.64345256 C112.173067,9.22231681 113.304588,9.99850951 114.238765,10.9720539 C115.172942,11.9455984 115.883431,13.0769979 116.370256,14.3662864 C116.85708,15.655575 117.100489,16.9974675 117.100489,18.3920041 C117.100489,18.7340602 117.09391,19.0629554 117.080753,19.3786996 C117.067596,19.6944437 117.034702,19.9575599 116.982073,20.168056 L100.995889,20.168056 C101.074834,20.9837283 101.272192,21.7072978 101.58797,22.3387861 C101.903748,22.9702743 102.311622,23.5096625 102.811604,23.9569667 C103.311586,24.4042709 103.877347,24.7463219 104.508903,24.98313 C105.140459,25.2199381 105.79832,25.3383404 106.482505,25.3383404 C107.535099,25.3383404 108.528469,25.0818021 109.462646,24.5687179 C110.396823,24.0556337 111.034948,23.3781095 111.377041,22.5361252 L115.916327,23.7990954 C115.153197,25.3778161 113.936154,26.6736632 112.265162,27.6866757 C110.59417,28.6996881 108.600851,29.2061867 106.285145,29.2061867 L106.285145,29.2061867 Z M111.653345,16.7343556 C111.521771,15.181947 110.949432,13.9387231 109.936311,13.0046467 C108.923189,12.0705703 107.692989,11.6035391 106.245673,11.6035391 C105.535173,11.6035391 104.870733,11.7285192 104.252334,11.9784833 C103.633936,12.2284475 103.087911,12.5770764 102.614244,13.0243806 C102.140577,13.4716848 101.752439,14.0110729 101.449818,14.6425612 C101.147198,15.2740495 100.969575,15.9713073 100.916945,16.7343556 L111.653345,16.7343556 Z M165.361555,21.5888975 C165.361555,22.772938 165.124725,23.8122469 164.651058,24.7068553 C164.177391,25.6014637 163.526109,26.3513447 162.697191,26.956521 C161.868274,27.5616973 160.907797,28.0221506 159.815731,28.3378947 C158.723665,28.6536388 157.559251,28.8115085 156.322454,28.8115085 L142.783538,28.8115085 L142.783538,0.789356398 L157.78292,0.789356398 C158.756569,0.789356398 159.638103,0.999849333 160.427548,1.42084152 C161.216993,1.8418337 161.888011,2.38779975 162.440623,3.05875604 C162.993235,3.72971234 163.420844,4.49274922 163.723465,5.3478896 C164.026086,6.20302997 164.177394,7.06473542 164.177394,7.9330318 C164.177394,9.3012564 163.835306,10.5839477 163.15112,11.7811442 C162.466934,12.9783408 161.466986,13.8663578 160.151244,14.4452221 C161.756449,14.9188383 163.026121,15.7673879 163.960297,16.9908965 C164.894474,18.214405 165.361555,19.7470567 165.361555,21.5888975 L165.361555,21.5888975 Z M159.874939,20.5627342 C159.874939,20.062806 159.789417,19.5826189 159.618371,19.1221587 C159.447324,18.6616985 159.217073,18.2604464 158.92761,17.9183902 C158.638147,17.5763341 158.296059,17.30664 157.901336,17.1092999 C157.506614,16.9119598 157.072426,16.8132913 156.598759,16.8132913 L148.230682,16.8132913 L148.230682,24.1937736 L156.322454,24.1937736 C156.822436,24.1937736 157.289517,24.1016829 157.723712,23.9174989 C158.157907,23.7333148 158.532888,23.4767765 158.848666,23.1478764 C159.164444,22.8189762 159.414431,22.4308799 159.598635,21.9835757 C159.782839,21.5362715 159.874939,21.0626624 159.874939,20.5627342 L159.874939,20.5627342 Z M148.230682,5.44655915 L148.230682,12.5112989 L155.493541,12.5112989 C156.41456,12.5112989 157.197415,12.1955595 157.842128,11.5640712 C158.486842,10.932583 158.809194,10.0642996 158.809194,8.95919512 C158.809194,7.88040265 158.513156,7.0252751 157.921072,6.39378683 C157.328989,5.76229855 156.598763,5.44655915 155.730373,5.44655915 L148.230682,5.44655915 Z M181.426683,12.708638 C179.821478,12.73495 178.387341,13.0441115 177.124228,13.6361318 C175.861116,14.228152 174.953268,15.1161691 174.400657,16.3002096 L174.400657,28.8115085 L169.111401,28.8115085 L169.111401,8.1303709 L173.966464,8.1303709 L173.966464,12.5507667 C174.334872,11.8403424 174.76906,11.2022857 175.269042,10.6365775 C175.769024,10.0708692 176.30847,9.5775264 176.887396,9.15653422 C177.466323,8.73554204 178.051819,8.41322473 178.643903,8.18957263 C179.235987,7.96592053 179.808326,7.85409616 180.360937,7.85409616 L181.012226,7.85409616 C181.156958,7.85409616 181.295109,7.86725197 181.426683,7.89356398 L181.426683,12.708638 Z M184.387087,28.8115085 L184.387087,8.1303709 L189.676343,8.1303709 L189.676343,28.8115085 L184.387087,28.8115085 Z M184.387087,5.24922005 L184.387087,0 L189.676343,0 L189.676343,5.24922005 L184.387087,5.24922005 Z M203.017898,29.2061867 C201.596897,29.2061867 200.281175,28.9299148 199.070693,28.3773625 C197.86021,27.8248103 196.82079,27.0617734 195.9524,26.088229 C195.08401,25.1146845 194.406413,23.9767071 193.919589,22.6742625 C193.432765,21.371818 193.189356,19.9707244 193.189356,18.4709397 C193.189356,16.9711551 193.419607,15.5766394 193.880117,14.2873508 C194.340627,12.9980622 194.978752,11.8666627 195.794512,10.8931183 C196.610272,9.91957387 197.583906,9.15653698 198.715444,8.60398474 C199.846982,8.0514325 201.083761,7.77516052 202.425817,7.77516052 C203.952078,7.77516052 205.327008,8.14352316 206.550647,8.88025948 C207.774287,9.6169958 208.728186,10.5773698 209.412372,11.7614103 L209.412372,0 L214.701627,0 L214.701627,22.7334643 C214.701627,23.2860165 214.793728,23.6806908 214.977932,23.9174989 C215.162136,24.154307 215.477909,24.2858651 215.925261,24.3121771 L215.925261,28.8115085 C215.004242,28.9956926 214.25428,29.0877833 213.675354,29.0877833 C212.72802,29.0877833 211.951744,28.8509787 211.346502,28.3773625 C210.741261,27.9037463 210.399173,27.2854233 210.320229,26.522375 L210.201813,25.2199369 C209.438683,26.5355375 208.405841,27.528801 207.103256,28.1997573 C205.800672,28.8707136 204.438899,29.2061867 203.017898,29.2061867 L203.017898,29.2061867 Z M204.39942,24.7068553 C204.899402,24.7068553 205.412534,24.6213425 205.938831,24.4503144 C206.465127,24.2792864 206.951944,24.0359039 207.399297,23.7201598 C207.846649,23.4044156 208.247944,23.036053 208.603194,22.6150608 C208.958445,22.1940686 209.228168,21.7336153 209.412372,21.2336871 L209.412372,16.3002096 C209.201853,15.7213454 208.905815,15.1885351 208.52425,14.7017629 C208.142685,14.2149907 207.708497,13.7940048 207.221672,13.4387927 C206.734848,13.0835805 206.221716,12.8007306 205.682262,12.5902346 C205.142808,12.3797385 204.609941,12.274492 204.083644,12.274492 C203.294199,12.274492 202.563973,12.4455175 201.892945,12.7875737 C201.221916,13.1296298 200.649577,13.596661 200.17591,14.1886813 C199.702243,14.7807015 199.333841,15.4582257 199.070693,16.221274 C198.807544,16.9843223 198.675972,17.7736708 198.675972,18.5893432 C198.675972,19.4576396 198.820701,20.2601439 199.110165,20.9968802 C199.399628,21.7336165 199.794344,22.3782511 200.294326,22.9308034 C200.794308,23.4833556 201.392962,23.9174973 202.090305,24.2332414 C202.787648,24.5489856 203.557346,24.7068553 204.39942,24.7068553 L204.39942,24.7068553 Z M228.003711,28.929912 C226.609024,28.929912 225.345931,28.65364 224.214393,28.1010878 C223.082855,27.5485355 222.102642,26.7920766 221.273725,25.8316881 C220.444808,24.8712997 219.806682,23.7596339 219.35933,22.4966574 C218.911978,21.2336808 218.688305,19.8917883 218.688305,18.4709397 C218.688305,16.9711551 218.925135,15.5766394 219.398802,14.2873508 C219.872469,12.9980622 220.53033,11.8666627 221.372405,10.8931183 C222.21448,9.91957387 223.227586,9.15653698 224.411754,8.60398474 C225.595921,8.0514325 226.898486,7.77516052 228.319487,7.77516052 C229.924692,7.77516052 231.332515,8.13694525 232.542997,8.86052557 C233.75348,9.58410589 234.753429,10.5510578 235.542874,11.7614103 L235.542874,8.1303709 L240.161105,8.1303709 L240.161105,27.824813 C240.161105,29.3509097 239.871646,30.7191138 239.292719,31.9294663 C238.713793,33.1398188 237.917781,34.1659719 236.90466,35.0079563 C235.891539,35.8499406 234.681074,36.4945752 233.27323,36.9418794 C231.865387,37.3891836 230.33257,37.6128324 228.674736,37.6128324 C226.41166,37.6128324 224.510441,37.2378918 222.971023,36.4879995 C221.431605,35.7381072 220.109305,34.6790646 219.004082,33.31084 L221.885542,30.5086248 C222.674987,31.4821692 223.668357,32.2452061 224.865682,32.7977583 C226.063007,33.3503106 227.332679,33.6265826 228.674736,33.6265826 C229.490496,33.6265826 230.27335,33.5147582 231.023323,33.2911061 C231.773296,33.067454 232.437736,32.7188251 233.016662,32.2452089 C233.595588,31.7715927 234.049513,31.1664255 234.378448,30.4296892 C234.707384,29.6929528 234.871849,28.8246695 234.871849,27.824813 L234.871849,25.2199369 C234.187663,26.4039774 233.227186,27.3183061 231.990389,27.9629504 C230.753591,28.6075947 229.424712,28.929912 228.003711,28.929912 L228.003711,28.929912 Z M229.779953,24.7068553 C230.35888,24.7068553 230.911483,24.6147646 231.43778,24.4305805 C231.964077,24.2463964 232.450894,23.9964361 232.898246,23.6806919 C233.345598,23.3649478 233.740315,22.9965852 234.082408,22.575593 C234.424501,22.1546008 234.687645,21.7073033 234.871849,21.2336871 L234.871849,16.3002096 C234.398182,15.0898571 233.654799,14.1163273 232.641678,13.379591 C231.628556,12.6428546 230.5694,12.274492 229.464177,12.274492 C228.648417,12.274492 227.911613,12.4520954 227.253742,12.8073076 C226.595871,13.1625197 226.03011,13.6361288 225.556443,14.2281491 C225.082776,14.8201693 224.720953,15.4976935 224.470962,16.2607418 C224.220971,17.0237901 224.095977,17.8131386 224.095977,18.628811 C224.095977,19.4707954 224.240706,20.2601439 224.53017,20.9968802 C224.819633,21.7336165 225.220928,22.3782511 225.734067,22.9308034 C226.247207,23.4833556 226.84586,23.9174973 227.530046,24.2332414 C228.214232,24.5489856 228.964193,24.7068553 229.779953,24.7068553 L229.779953,24.7068553 Z M254.528933,29.2061867 C252.871099,29.2061867 251.371176,28.9233369 250.029119,28.3576286 C248.687062,27.7919204 247.542384,27.0223056 246.59505,26.0487611 C245.647716,25.0752167 244.91749,23.9438172 244.404351,22.6545286 C243.891211,21.3652401 243.634646,20.0101918 243.634646,18.5893432 C243.634646,17.1158705 243.884633,15.7279327 244.384615,14.4254882 C244.884597,13.1230436 245.608244,11.9784883 246.555578,10.9917878 C247.502912,10.0050874 248.654169,9.22231681 250.009383,8.64345256 C251.364597,8.06458831 252.884256,7.77516052 254.568406,7.77516052 C256.252555,7.77516052 257.759057,8.06458831 259.087956,8.64345256 C260.416855,9.22231681 261.548376,9.99850951 262.482553,10.9720539 C263.41673,11.9455984 264.12722,13.0769979 264.614044,14.3662864 C265.100869,15.655575 265.344277,16.9974675 265.344277,18.3920041 C265.344277,18.7340602 265.337699,19.0629554 265.324541,19.3786996 C265.311384,19.6944437 265.278491,19.9575599 265.225861,20.168056 L249.239678,20.168056 C249.318622,20.9837283 249.515981,21.7072978 249.831759,22.3387861 C250.147537,22.9702743 250.555411,23.5096625 251.055392,23.9569667 C251.555374,24.4042709 252.121135,24.7463219 252.752691,24.98313 C253.384247,25.2199381 254.042108,25.3383404 254.726294,25.3383404 C255.778887,25.3383404 256.772257,25.0818021 257.706434,24.5687179 C258.640611,24.0556337 259.278736,23.3781095 259.620829,22.5361252 L264.160116,23.7990954 C263.396985,25.3778161 262.179942,26.6736632 260.50895,27.6866757 C258.837958,28.6996881 256.844639,29.2061867 254.528933,29.2061867 L254.528933,29.2061867 Z M259.897133,16.7343556 C259.765559,15.181947 259.19322,13.9387231 258.180099,13.0046467 C257.166978,12.0705703 255.936777,11.6035391 254.489461,11.6035391 C253.778961,11.6035391 253.114521,11.7285192 252.496123,11.9784833 C251.877724,12.2284475 251.331699,12.5770764 250.858032,13.0243806 C250.384365,13.4716848 249.996227,14.0110729 249.693606,14.6425612 C249.390986,15.2740495 249.213363,15.9713073 249.160734,16.7343556 L259.897133,16.7343556 Z" id="Active::Bridge" fill="#FFFFFF"></path>
                        <path d="M134.388942,15.2637168 C136.123554,15.2637168 137.49197,13.8761763 137.49197,12.161022 C137.49197,10.4265963 136.123554,9.05832718 134.388942,9.05832718 C132.65433,9.05832718 131.285914,10.4265963 131.285914,12.161022 C131.285914,13.8761763 132.65433,15.2637168 134.388942,15.2637168 Z M134.388942,29.0427653 C136.123554,29.0427653 137.49197,27.6552248 137.49197,25.9400705 C137.49197,24.2056448 136.123554,22.8373756 134.388942,22.8373756 C132.65433,22.8373756 131.285914,24.2056448 131.285914,25.9400705 C131.285914,27.6552248 132.65433,29.0427653 134.388942,29.0427653 Z M123.42234,15.2637168 C125.156952,15.2637168 126.525368,13.8761763 126.525368,12.161022 C126.525368,10.4265963 125.156952,9.05832718 123.42234,9.05832718 C121.687728,9.05832718 120.319312,10.4265963 120.319312,12.161022 C120.319312,13.8761763 121.687728,15.2637168 123.42234,15.2637168 Z M123.42234,29.0427653 C125.156952,29.0427653 126.525368,27.6552248 126.525368,25.9400705 C126.525368,24.2056448 125.156952,22.8373756 123.42234,22.8373756 C121.687728,22.8373756 120.319312,24.2056448 120.319312,25.9400705 C120.319312,27.6552248 121.687728,29.0427653 123.42234,29.0427653 Z" id="Path" fill="#A35EE0"></path>
                    </g>
                </g>
                <g id="logo" transform="translate(15.192253, 0.423757)">
                    <path d="M50.2577278,121.615138 C50.2704306,114.127359 50.2726076,103.275087 50.2376316,91.4740922 C50.1570696,64.2922998 50.4459961,33.5230346 49.7263207,33.4936908 C48.6908899,33.5413763 46.5443724,99.8313667 45.4306076,130.209312 C45.3933178,131.177741 47.9636287,133.963493 49.972361,130.95991 C50.4250748,130.105158 50.2495251,126.450299 50.2577278,121.615138 L50.2577278,121.615138 Z" id="Path-1" fill="#FFFFFF"></path>
                    <path d="M189.195594,114.560021 C188.412905,104.823439 187.26009,90.7136325 185.964079,75.3742892 C182.978916,40.0424493 180.031519,0.00712704099 179.210969,0.0453902106 C178.039977,0.217329675 182.65886,86.6321423 184.627725,126.246271 C184.688465,127.509332 187.904451,130.858313 189.866272,126.73992 C190.289483,125.580546 189.701008,120.847324 189.195594,114.560021 L189.195594,114.560021 L189.195594,114.560021 Z" id="Path-1" fill="#FFFFFF"></path>
                    <path d="M187.718565,30.9918262 C187.718565,30.9918262 195.468282,55.08092 200.135192,67.0036867 C203.009438,74.3466529 209.052117,88.2032219 209.052117,88.2032219 C209.052117,88.2032219 168.062195,72.9904509 114.820741,75.4576881 C56.8647065,76.4110853 0.0630897929,97.3161555 0.0630897929,97.3161555 C0.0630897929,97.3161555 8.02855408,94.7192875 19.457985,92.34637 C45.6731542,86.9037147 87.7512755,81.7564383 115.874844,81.4205094 C147.809903,81.0390518 219.628291,96.2778206 219.628291,96.2778206 C219.628291,96.2778206 206.936688,74.2054344 201.194443,62.4570345 C196.300113,52.4434362 187.718565,30.9918262 187.718565,30.9918262 Z" id="Path-3" fill="#FFFFFF"></path>
                    <path d="M146.328093,46.4340899 C133.814023,53.8873509 117.391302,58.7049895 111.310262,59.5835743 C66.7187968,68.295594 55.6821746,51.1497828 55.6821746,51.1497828 C55.6821746,51.1497828 63.5127372,72.5879958 112.442619,62.5278507 C155.486302,53.3065087 173.016843,25.1812097 173.016843,25.1812097 C173.016843,25.1812097 161.756001,37.2453749 146.328093,46.4340899 L146.328093,46.4340899 Z" id="Path-5" fill="#FFFFFF"></path>
                    <path d="M187.792474,31.0665042 C187.792474,31.0665042 201.123006,56.2188498 215.369113,79.1263906 C222.96239,91.0719789 238.067497,110.158148 238.067497,110.158148 C238.067497,110.158148 178.132149,86.167178 124.539648,85.1444147 C56.34086,82.4682989 0.366989818,96.9902444 0.366989818,96.9902444 C0.366989818,96.9902444 29.0293649,90.1403815 59.9117452,84.8308516 C81.7309535,81.07953 107.338007,78.3084869 130.860203,79.1263917 C169.359525,80.0204773 219.551701,96.2780599 219.551701,96.2780599 C219.551701,96.2780599 212.775467,85.1243144 203.382255,66.8573108 C195.528415,51.3655611 187.792474,31.0665042 187.792474,31.0665042 Z" id="Path-4" fill="#A35EE0"></path>
                </g>
    </g>
</svg>
