<?xml version="1.0" encoding="utf-8"?>
<!-- Generator: Adobe Illustrator 19.0.0, SVG Export Plug-In . SVG Version: 6.00 Build 0)  -->
<svg version="1.1" id="_x31_" xmlns="http://www.w3.org/2000/svg" xmlns:xlink="http://www.w3.org/1999/xlink" x="0px" y="0px"
	 viewBox="0 0 580.9 326.6" enable-background="new 0 0 580.9 326.6" xml:space="preserve">
<g id="XMLID_2524_">
	<path id="XMLID_2487_" fill-rule="evenodd" clip-rule="evenodd" fill="#100220" d="M115.4,215c0,3.6,0,7.2,0,10.8
		c0.1,29.1,0.1,55.9,0.1,74.4c0,11.9,0.4,21-0.7,23.1c-5,7.4-11.3,0.5-11.2-1.9c1-27.4,2.4-66.5,3.8-105.2
		c-24.9,3.6-48.3,7.7-68.1,11.8c-17,3.5-30.8,7.2-39.2,9.6v-0.4c16.8-5.7,56.5-18.4,107.6-29.7c2.4-64.3,5-124.8,6.5-124.9
		c1.6,0.1,1.2,61.8,1.2,123.2c47.2-10.1,103.4-18.6,159.9-19.6c66.5-3.1,125.2,5,167.2,13.7c-4.8-95.9-9.8-199.6-7.7-199.9
		c2-0.1,9.3,98.8,16.7,186c0.5,5.4,0.9,10.8,1.4,16.1c35,7.9,55.8,15.6,55.8,15.6s-15-34.2-22.1-52.3
		c-11.6-29.4-30.7-88.9-30.7-88.9s21.2,53,33.4,77.7c14.2,29,47.7,85.7,47.7,85.7s-36.8-9.6-82.3-17.7c2,23.5,3.7,44.5,5,60.6
		c1.3,15.5,3.1,36.1,2.1,38.9c-4.9,10.2-12.8,1.9-13-1.2c-1.2-24.8-3.3-65.9-5-100.2c-55.8-9.7-124.2-19.8-165.6-19.3
		C231.8,201.5,170.4,207.2,115.4,215L115.4,215z M353.3,114.5c-31,18.4-71.6,30.3-86.7,32.5c-110.4,21.5-137.7-20.8-137.7-20.8
		s19.4,52.9,140.5,28.1c106.6-22.8,150-92.2,150-92.2S391.5,91.8,353.3,114.5z"/>
	<linearGradient id="XMLID_2_" gradientUnits="userSpaceOnUse" x1="268.5933" y1="192.2224" x2="509.4788" y2="397.8956">
		<stop  offset="0" style="stop-color:#B64E96"/>
		<stop  offset="0.1294" style="stop-color:#A24FA2"/>
		<stop  offset="0.3524" style="stop-color:#8550B4"/>
		<stop  offset="0.574" style="stop-color:#7051C0"/>
		<stop  offset="0.7915" style="stop-color:#6352C7"/>
		<stop  offset="1" style="stop-color:#5F52CA"/>
	</linearGradient>
	<path id="XMLID_2479_" fill-rule="evenodd" clip-rule="evenodd" fill="url(#XMLID_2_)" d="M456.5,78.1c0,0,33,62.1,68.3,118.7
		c18.8,29.5,56.2,76.6,56.2,76.6s-148.4-59.2-281.1-61.8c-144.9-5.7-268.4,17.9-299.8,25.9L0,237.4c37.9-11.1,71.3-17.1,139-28.1
		c54.1-8.8,118.3-14.5,176.5-12.5c95.3,2.2,219.6,42.3,219.6,42.3s-16.8-27.5-40-72.6C475.6,128.2,456.5,78.1,456.5,78.1z"/>
</g>
</svg>
