<svg xmlns="http://www.w3.org/2000/svg" width="94" height="175" xmlns:xlink="http://www.w3.org/1999/xlink">
  <defs>
    <linearGradient id="a" x1="0%" y1="38.485%" y2="100%">
      <stop stop-color="#E1E1E1" offset="0%"/>
      <stop stop-color="#D1D1D1" offset="100%"/>
    </linearGradient>
    <path id="c" d="M89.894 87.392c.07-.452.106-.915.106-1.386V71.658c0-2.207-1.04-4.285-2.808-5.606L0 .86v36.104l67.18 49.933-.01.006 1.678 1.235 6.823 5.07c.25.18.5.347.75.5l10.98 8.08c.35.248.65.55.91.897.95 1.306.86 3.053.11 4.374l.24-.31c.93-1.21 1.35-2.46 1.35-4.02V88.78c0-.473-.03-.936-.1-1.388z"/>
    <filter id="b" width="115.6%" height="113.2%" x="-7.8%" y="-4.7%" filterUnits="objectBoundingBox">
      <feOffset dy="2" in="SourceAlpha" result="shadowOffsetOuter1"/>
      <feGaussianBlur stdDeviation="2" in="shadowOffsetOuter1" result="shadowBlurOuter1"/>
      <feColorMatrix values="0 0 0 0 0 0 0 0 0 0 0 0 0 0 0 0 0 0 0.2 0" in="shadowBlurOuter1"/>
    </filter>
  </defs>
  <g fill="none" fill-rule="evenodd" opacity=".7">
    <path fill="url(#a)" d="M0 74.993l87.192 65.192c1.767 1.32 2.808 3.4 2.808 5.606v24.61c0 1.66-1.343 3-3 3-.648 0-1.278-.21-1.796-.59L0 109.1V74.992z" transform="rotate(180 47 124.696)"/>
    <g transform="matrix(-1 0 0 1 94 1)">
      <use fill="#000" filter="url(#b)" xlink:href="#c"/>
      <use fill="#F2F2F2" xlink:href="#c"/>
    </g>
    <path fill="#8F8F8F" d="M20.592 99.48l-.566.764 1.402 1.038-2.765 3.736.868.642 2.77-3.736 1.4 1.037.57-.76-3.67-2.71zm5.155 10.78l-.984-.73.207-1.906c-.056-.03-.108-.07-.166-.112l-1.016-.752-.98 1.325-.862-.638 3.33-4.5 1.88 1.388c1.163.86 1.41 1.91.68 2.9-.525.71-1.216.984-1.976.8l-.113 2.224zm-.165-5.924L24.35 106l1.016.753c.643.476 1.208.466 1.626-.1.41-.553.25-1.09-.394-1.566l-1.016-.75zm3.577 5.542l1.94-2.624-.86-.637-1.95 2.624c-.88 1.19-.65 2.49.58 3.4 1.22.91 2.51.73 3.39-.45l1.94-2.62-.86-.63-1.94 2.63c-.54.72-1.28.83-1.96.32-.69-.5-.82-1.27-.29-1.98zm8.42 4.006l.9-.49c-.22-.6-.68-1.236-1.28-1.68-1.01-.746-2.06-.744-2.64.04-1.19 1.602 1.63 2.857.93 3.796-.24.315-.66.28-1.14-.076-.49-.357-.91-1.06-1.07-1.814l-.9.46c.16.788.65 1.596 1.37 2.13.99.732 2.08.786 2.71-.057 1.2-1.61-1.59-2.903-.91-3.816.2-.277.58-.23.98.07.34.257.76.79 1.02 1.437zm1.98-.363l-.57.77 1.4 1.04-2.77 3.74.87.65 2.76-3.73 1.4 1.04.56-.76-3.68-2.72zm4.68 3.47l-3.33 4.5 3.37 2.5.55-.75-2.52-1.86.84-1.13 2.18 1.62.56-.75-2.19-1.62.82-1.11 2.43 1.81.55-.75-3.3-2.44zm6.52 4.83c1.36 1.01 1.65 2.67.68 3.99-.97 1.31-2.66 1.52-4.05.49l-1.84-1.36 3.33-4.5 1.87 1.39zm-2.75 3.76c.83.62 1.9.46 2.54-.41.65-.88.47-1.97-.37-2.59l-1-.74-2.2 2.98 1.03.77zm10.42 1.93c1.13.84 1.37 1.88.63 2.87-.77 1.03-1.86 1.15-2.99.31l-.98-.73-.98 1.33-.86-.63 3.33-4.5 1.84 1.37zm-1.83 2.39c.64.48 1.21.47 1.63-.09.41-.55.24-1.09-.4-1.57l-.94-.69-1.23 1.67.94.7zm4.43 6.51l.3-1.24-2.2-1.62-1.1.66-.9-.66 5.3-3.04.89.66-1.38 5.95-.93-.69zM60 133.02l1.582 1.17.61-2.47-2.196 1.3zm6.713 7.586l-.984-.73.21-1.905c-.06-.03-.11-.07-.17-.11l-1.02-.75-.98 1.33-.86-.64 3.33-4.5 1.88 1.39c1.16.86 1.41 1.91.68 2.9-.53.71-1.22.99-1.98.8l-.12 2.23zm-.165-5.924l-1.232 1.666 1.018.755c.64.473 1.204.463 1.622-.1.41-.556.25-1.09-.393-1.57l-1.018-.75zm4.245 1.977l-.568.76 1.403 1.03-2.764 3.73.87.64 2.764-3.74 1.403 1.03.57-.77-3.67-2.72zm4.683 3.47l-3.33 4.5.84.62 2.277-3.08.04 4.78.814.6 3.33-4.51-.837-.62-2.28 3.08-.04-4.8-.818-.61zm5.48 4.05l-3.33 4.5 3.376 2.5.56-.75-2.518-1.86.836-1.14 2.188 1.62.557-.75-2.185-1.62.823-1.12 2.44 1.8.556-.76-3.3-2.44zm5.124 10.76l-.984-.73.21-1.91c-.058-.04-.11-.07-.167-.12l-1.02-.75-.98 1.32-.86-.64 3.33-4.5 1.88 1.39c1.16.86 1.41 1.91.67 2.9-.52.71-1.21.98-1.97.8l-.12 2.22zm-.16-5.93l-1.232 1.66 1.01.75c.644.47 1.21.46 1.627-.1.41-.55.25-1.09-.394-1.57l-1-.77z"/>
    <path fill="#4A4A4A" d="M51.896 45.886l1.307-.9 2.598 3.78.93-.635-2.6-3.78 1.19-.81-.31-.98-3.66 2.52.56.81zm7.04-4.838l-.31-.98-2.595 1.782 3.16 4.59 2.6-1.782-.55-.8-1.65 1.138-.76-1.116 1.42-.976-.55-.8-1.42.976-.73-1.063 1.41-.97zm2.35-2.84l1.42 5.813.957-.65-.355-1.4 1.523-1.04 1.2.82 1-.69-5-3.35-.74.51zm1.77 2.797l-.26-.953c-.107-.42-.165-.66-.243-.84l.01-.007c.15.13.332.284.676.543l.79.585-.98.672zm5.665-7.876l.09 2.35c.02.33.04.6.07.84l-.01.01c-.22-.11-.45-.22-.75-.32l-2.29-.87-.84.58 3.15 4.58.94-.65-1.71-2.5c-.1-.15-.24-.36-.36-.51l.01-.01c.22.11.43.17.61.24l1.81.68.42-.29-.06-1.82c0-.16-.01-.55-.03-.72l.01-.01c.1.17.24.38.37.56l1.7 2.47.94-.65-3.15-4.59-.85.58z"/>
    <path fill="#F27023" d="M49.778 48.278c-.676.185-1.056.912-.847 1.59 0 0 .05.137.11.376.08.242.18.573.3.987.13.41.29.88.44 1.39.17.51.35 1.05.52 1.59.09.28.2.57.28.85-.15.26-.35.59-.57.97-.14.24-.3.49-.46.76-.04.08-.08.14-.12.21-.02.03-.04.08-.06.11l-.03.06-.01.03-.01.01c-.01.01-.02.04-.03.04l-.01.01.01-.01-.01.01-.01.01s-.01.01 0 0h.01l-.03.02-.05.04-.01.01-.01.01.05-.04-.02.02c-.02 0-.03.01-.05 0-.03.01-.06 0-.09-.01-.05-.03-.08-.05-.09-.09l.01.01-.01-.01v-.01l-.01-.01-.03-.1c-.05-.15-.09-.31-.15-.45-.11-.36-.22-.7-.32-1.03-.1-.33-.2-.67-.3-.97-.1-.3-.19-.59-.27-.86-.17-.53-.33-.98-.42-1.29l-.18-.5c-.02-.05-.04-.11-.06-.16-.16-.4-.51-.72-.96-.8-.68-.12-1.32.33-1.43 1.01l-.02.12-.04.23c-.01.07-.02.17-.04.27-.01.06-.03.1-.05.16 0 .04-.02.06-.01.09-.01.04-.02.06-.03.09-.02.06-.05.13-.07.19 0 .04-.03.07-.03.1-.01.03-.03.07-.05.1-.03.07-.06.14-.1.21-.03.07-.07.13-.12.2s-.09.14-.13.2c-.04.06-.1.13-.15.2l-.07.1-.07.07c-.05.05-.1.1-.15.16-.08.08-.17.14-.26.21l-.12.11-.01.01-.05.04c-.07.05-.13.1-.21.13-.08.04-.14.09-.21.12-.14.07-.28.14-.43.17-.13.07-.27.09-.4.12-.06.02-.12.02-.17.03l-.15.03c-.01.01-.03.01-.04.01-.1-.01-.19-.01-.29-.02-.56-.02-1.19.06-1.82.29-.64.22-1.29.61-1.84 1.19-.07.06-.12.15-.19.22l-.1.12-.04.06-.07.1c-.09.14-.15.22-.28.46l-.16.31c-.04.1-.08.2-.11.3-.04.1-.07.21-.09.3-.03.12-.07.21-.08.32-.1.43-.13.88-.09 1.33.04.46.14.9.3 1.35.13.32.29.64.48.92-.11.19-.25.43-.42.7-.19.3-.41.67-.65 1.07-.18-.55-.35-1.08-.5-1.58-.24-.77-.46-1.47-.66-2.09-.2-.62-.37-1.16-.51-1.61-.29-.88-.45-1.39-.45-1.39-.22-.67-.93-1.07-1.61-.87-.68.21-1.05.92-.84 1.6l.44 1.41c.14.45.3.99.5 1.61.13.44.3.91.45 1.43-.02.05-.06.09-.09.14-.14.24-.31.52-.5.83-.2.33-.42.69-.66 1.08-.25.39-.51.82-.8 1.26l-.05.09-.02.03c0 .02-.01.02-.02.03l.01-.01-.02.02-.01.01.01-.01-.08.06h-.01l.05-.03-.01.008c-.04.02-.1.01-.14-.01-.04-.02-.08-.05-.08-.08l-.01-.01v-.02l-.01-.02c-.01-.01 0 0 0 0l-.03-.09-.01-.01-.006-.03c-.17-.59-.355-1.2-.53-1.8-.176-.61-.37-1.2-.55-1.79l-.28-.88-.02-.05-.01-.04-.03-.06c-.03-.09-.07-.17-.12-.26l-.026-.06-.03-.03-.02-.02-.03-.046-.07-.09-.08-.11-.03-.04-.05-.083c-.04-.06-.09-.11-.14-.16-.1-.1-.21-.19-.32-.29-.46-.33-.99-.52-1.53-.53-.26 0-.52.04-.77.12-.06.02-.12.04-.18.07-.06.025-.103.04-.183.08-.07.03-.14.065-.2.11l-.03.02-.02.01-.05.03-.09.07-.07.05-.15.12c-.05.05-.1.08-.13.12-.05.05-.09.11-.15.163l-.07.08-.03.04-.03.04-.016.027-.05.08-.01.007c-.04.06-.065.11-.1.16l-.38.62c-.24.4-.46.77-.66 1.09-.2.33-.38.6-.52.84-.29.46-.46.72-.46.72 0 .02-.02.03-.035.058-.32.55-.13 1.27.42 1.6.55.34 1.26.16 1.58-.39l.44-.73c.14-.23.32-.51.51-.83.2-.32.424-.68.67-1.06.13-.2.25-.41.39-.61.02-.05.05-.08.07-.13l.035-.04.03-.04v.01l-.02.02h.01l.01-.01h.01l-.04.027h.01l.02-.01.04-.03.02-.01.01-.01-.03.02c-.01.01 0 0 0 0s.01 0 .02.01c.02.01.04.01.046.02 0 0 0 .01.01 0l.01.01.01.01.01.01.05.11.03.04c.01.01 0 0 0 0v-.01l-.01-.01-.03-.05.02.05c.08.3.17.58.255.88.18.59.35 1.2.54 1.8.18.6.37 1.2.565 1.797l.01.03.01.01.03.09.02.046.043.11c.06.13.16.31.235.43.15.25.358.45.58.64.23.18.48.32.74.42.26.1.525.15.805.16.27.02.53-.02.78-.09.25-.08.49-.17.71-.32l.08-.06.04-.03.01-.003.06-.043h.01l.07-.07.02-.02.04-.022.08-.07.08-.083.044-.05.04-.04c.07-.1.15-.2.2-.28l.08-.14.05-.08c.28-.45.54-.88.78-1.273.08-.13.155-.26.23-.376.155.487.31.98.48 1.49-.29.46-.58.94-.893 1.436-.24.38-.48.78-.73 1.18-.12.196-.25.41-.385.61l-.09.16-.118.19-.01.04-.03.063-.07.14c-.04.093-.06.17-.11.25-.27.67-.33 1.47-.115 2.24.02.094.06.193.09.28.04.1.08.18.12.28.05.09.1.186.14.267l.08.133.04.066.07.095.13.16c.08.09.15.18.24.26.15.16.292.28.462.39.66.48 1.48.72 2.29.66.4-.03.8-.13 1.17-.29.09-.044.19-.08.27-.14l.13-.07.06-.04.02-.02.056-.034.02-.02.08-.05.04-.03c.01-.01.05-.04.06-.06l.13-.12.06-.06.05-.05c.57-.58.94-1.37.99-2.2.03-.41-.01-.83-.12-1.23l-.07-.23-.06-.19-.12-.38c-.31-1.01-.62-1.99-.92-2.947l-.22-.72c.29-.46.56-.91.81-1.32.34-.55.64-1.01.88-1.41.09-.14.17-.27.24-.38l.03.01.18.09.09.04.09.03.32.12c.446.14.895.22 1.345.24h.33c.11 0 .22-.01.33-.027.22-.01.44-.07.66-.11.42-.12.83-.26 1.19-.477.36-.22.71-.47.99-.76.15-.14.28-.3.4-.45l.02-.03.01-.01.01-.01c-.01.01.03-.05.05-.06l.037-.04.06-.09.06-.09c.03-.03.04-.05.08-.11l.16-.29.07-.14.06-.13c.03-.09.07-.18.1-.26.04-.09.06-.18.09-.28.11-.35.15-.72.18-1.066.03-.7-.11-1.35-.31-1.88-.06-.13-.11-.26-.17-.38l-.19-.33c-.06-.12-.14-.2-.2-.3l-.1-.14c-.03-.04-.07-.08-.09-.12-.07-.08-.136-.15-.2-.22-.02-.03-.043-.046-.08-.07h.01l.08-.057.02-.01.01-.003.057-.03.03-.02.12-.11c.09-.06.18-.14.27-.2.11-.11.226-.2.33-.31l.17-.16c.06-.05.09-.11.14-.15l.02-.01c.05.19.12.38.19.58.1.33.22.68.34 1.03l.09.26.05.14.01.07.03.09.01.01.01.04.06.13c.04.09.08.19.15.283.05.1.09.16.14.24.05.07.1.15.17.21l.18.2c.07.06.14.12.2.18.14.1.29.2.45.28.313.15.65.24.98.26.33.02.67-.02.98-.11.15-.05.3-.12.45-.19.07-.03.14-.08.2-.12l.05-.038.01-.01.05-.04.01-.01.06-.034.06-.05c.04-.03.07-.07.11-.11.03-.04.07-.07.11-.11.03-.04.04-.06.08-.08.05-.06.1-.115.14-.17l.11-.17c.08-.146.18-.29.25-.43.15-.28.31-.54.45-.78.01-.01.01-.03.02-.034.61.28 1.3.2 1.784-.11l.05-.03.02-.01.01-.01c.22-.16.06-.04.106-.09l.03-.02c.02-.01.04-.04.06-.05l.02-.02.042-.04c.02-.03.055-.07.09-.09l.15-.195.025-.05.01-.02.02-.03c.01-.02.02-.04.04-.05.01-.05.04-.08.05-.12.08-.15.15-.29.21-.39.11-.212.17-.35.17-.35l.01-.02c.23-.48.094-1.09-.35-1.43-.47-.373-1.13-.32-1.54.08-.065-.23-.144-.46-.213-.69-.17-.55-.34-1.083-.5-1.59-.16-.51-.31-.98-.45-1.38-.13-.4-.25-.74-.32-.98l-.13-.37-.01-.01c-.18-.73-.88-1.1-1.53-.91zm-23.255 14.03c.008.01.008.01-.003.017l.007.01-.057-.084c.032.03.046.05.053.06zm9.4 10.126c.027.105.05.228.05.338-.005.235-.107.46-.264.63l-.02.014-.01.007-.02.008-.01.01-.04.03-.09.06-.01.01-.04.03c-.02.02-.05.04-.08.04-.1.05-.22.09-.34.11-.24.04-.5-.03-.69-.16-.05-.02-.11-.08-.14-.11-.01-.01-.01-.02-.03-.02l-.12-.15-.01-.01-.02-.03c-.02-.02-.04-.05-.04-.08l-.04-.08c-.01-.03-.02-.05-.03-.09-.06-.22-.06-.48.03-.73.01-.02.03-.07.03-.08.01 0 0-.02.01-.02v-.01l.01-.04.05-.08.01-.02.01-.02.09-.15c.13-.21.25-.4.37-.61.2-.32.39-.66.59-.96.16.5.32 1 .48 1.52.11.23.19.48.26.72zm7.2-13.134c.095.246.18.544.176.87-.01.163-.02.336-.06.52-.02.04-.02.087-.03.13l-.05.126-.02.06c0 .017-.01.024-.03.05-.02.024-.03.066-.04.1 0 .012-.03.05-.04.075l-.06.1-.06.1-.02.03c-.07.08-.11.17-.19.24-.14.16-.29.28-.48.39-.04.03-.09.05-.14.08-.04.03-.1.04-.15.07l-.07.04-.08.02c-.05.02-.1.04-.15.05-.21.05-.44.07-.66.05-.23-.01-.44-.08-.65-.16-.05-.03-.1-.05-.15-.06l-.05-.02-.03-.01c-.02 0-.03-.02-.05-.03-.02 0-.03-.02-.05-.03 0 0-.01-.01-.02 0l-.02-.01-.06-.03-.21-.15c.1.07.02.01.05.03l-.01-.01-.01-.02-.04-.02-.07-.05c-.04-.03-.09-.08-.12-.12-.03-.04-.08-.07-.12-.12-.03-.04-.07-.09-.11-.13-.12-.18-.22-.37-.3-.57-.07-.19-.13-.4-.15-.62-.01-.05 0-.11 0-.15v-.2c.01-.05 0-.11 0-.15.01-.05.01-.1.01-.15-.01-.04.02-.09.03-.15.01-.05.02-.1.03-.14.02-.04.03-.09.05-.14.02-.04.03-.06.05-.11 0-.04.11-.21.19-.32l.01-.03.01-.01.03-.06c.03-.04.05-.08.08-.12.24-.29.55-.5.85-.63.08-.03.16-.05.24-.07.08-.02.16-.04.23-.04.07-.01.15-.02.22-.01.01-.01.01 0 .02-.01.04.01.07.01.11 0l.03.01c.02 0 .03-.01.05 0 .27.01.51.1.68.17l.12.05c.04.01.06.04.08.05.02.01.05.03.06.03 0 0 .03.02.05.03.02.01.03.02.052.04.06.05.12.08.15.11l.12.1c.01.02.04.03.07.06.01.02.04.04.07.07.02.03.05.05.07.09l.08.11c.13.16.25.36.34.6zm10.222-4.002l-.015-.02.015.02z"/>
  </g>
</svg>
