<svg xmlns="http://www.w3.org/2000/svg" viewBox="0 0 304 1077.3"><a><path fill="none" stroke="#5F52CA" stroke-miterlimit="10" d="M70.3 1.1L1.2 40.9v79.5l69.1 39.8 69-39.9V40.5l-69-39.4h0z"/><g fill="#5F52CA"><path d="M56.8 76.9c-3.1-.3-5.6-.6-5.6-2.2 0-.4.1-.8.5-1 .9-.9 3.1-1.3 4.8-1.3 2.3 0 4.2.8 5.5 1.9l.1.1 1.5-1.3-.1-.1c-1.8-1.5-4.4-2.6-7.2-2.6-1.9 0-3.7.4-5 1-1.4.8-2.2 1.9-2.2 3.2 0 1.4.8 3.5 7.3 4 3.9.3 5.6.8 5.6 2.2 0 1.7-1.9 2.6-5.1 2.6-2.8 0-5-.8-6.9-2.6l-.1-.1-1.4 1.5.1.1c2.1 1.8 5 3 8.2 3 4.4 0 7.3-1.8 7.3-4.6 0-2.7-3.6-3.5-7.3-3.8zM101.6 72.3c2.4 0 4.4.9 5.3 2.6l.1.1 1.9-.9-.1-.1c-1.4-2.2-4-3.5-7.2-3.5-5.3 0-8.6 2.8-8.6 7.4s3.2 7.4 8.5 7.4c3.2 0 5.8-1.3 7.2-3.5l.1-.1-1.9-.9-.1.1c-1 1.7-2.8 2.6-5.3 2.6-4.1 0-6.5-2.1-6.5-5.6.1-3.5 2.5-5.6 6.6-5.6zM119.2 76.4l7.2-5.6h-3l-10.2 7.9v-7.9h-2.1V85h2.1v-4l4.3-3.4 6.6 7.4h2.5zM65 70.8v1.8h6.6v12.3h2V72.6h5.7l1-1.8zM83 70.8l4.7 8.6h-7.3l-1 1.8h9.4l2 3.8h2.3l-7.8-14.2zM21.4 85.8c4.6 0 7.6-2.8 7.6-7.2V71h-2.2v7.4c0 3.2-1.9 5.3-5.4 5.3-3.3 0-5.4-1.9-5.4-5.3V71h-2.2v7.6c0 4.5 2.9 7.2 7.6 7.2zM13.9 90.9h31.2v-2H13.9zM41 71h-9.5v2.2h9.4c2.2 0 3.5.9 3.5 2.6s-1.3 2.6-3.5 2.6h-9.4v7.2h2.2v-5H41c3.5 0 5.6-1.8 5.6-4.6s-2.1-5-5.6-5z"/></g></a><a><path fill="none" stroke="#5F52CA" stroke-miterlimit="10" d="M234 1.1l-69.1 39.8v79.5l69.1 39.8 69-39.9V40.5L234 1.1h0z"/><g fill="#5F52CA"><path d="M211.4 79c0 1.9-1 3-2.7 3h-1v3.2h-1.3v-9h2.3c1.7-.2 2.7.9 2.7 2.8zm-1.3 0c0-1.2-.5-1.7-1.4-1.7h-1v3.3h1c.9.1 1.4-.6 1.4-1.6zM220.8 81.7h-.8v3.2h-1.3v-9h2.3c1.7 0 2.7 1 2.7 2.8 0 1.4-.6 2.3-1.7 2.7l1.9 3.5h-1.4l-1.7-3.2zm-.8-1.2h1c.9 0 1.4-.6 1.4-1.7 0-1-.5-1.5-1.4-1.5h-1v3.2zM235.9 83.7v1.2h-4.5v-9h4.4v1.2h-3.1v2.6h2.8v1.2h-2.8v2.7h3.2v.1zM248 83.7v1.2h-4.5v-9h4.4v1.2h-3.1v2.6h2.8v1.2h-2.8v2.7h3.2v.1zM259.7 84.3v.7h-4.1v-9h.8v8.2h3.3zM267.8 76v9h-.8v-9h.8zM280.9 76v9h-.8l-2.4-5.3c-.3-.6-.8-1.7-.9-2.2v7.4h-.8v-9h.8l2.4 5.3c.3.6.8 1.7 1 2.2 0-.6-.1-1.8-.1-2.6V76h.8zM293.3 84.3v.7h-4.4v-9h4.2v.8h-3.3v3.3h3.2v.8h-3.2v3.5h3.5v-.1z"/></g></a><path fill="#5F52CA" d="M186.3 88.5l-6.9-7.5-3.2 3.2-.9-.9 3.2-3.2c-.7-.7-1.9-2.1-2-3.8-.1-.9.2-1.8.9-2.5.6-.7 1.3-1.1 2.2-1.1h.1c2.2 0 4.5 2.4 4.6 2.5l.4.5-4.3 4.4 2.7 2.9 9.8-10.3.4.1c1.7.4 2.4 1.5 2.6 2.3.5 1.8-.4 4-1.5 5.2l-8.1 8.2zm-2.5-4.6l2.5 2.7 7-7.3c.9-.9 1.6-2.6 1.2-3.9-.2-.6-.6-1.1-1.3-1.3l-9.4 9.8zm-4.2-9.9c-.5 0-1 .2-1.3.6-.4.5-.6 1-.6 1.6.1 1.2 1.1 2.4 1.6 2.9l3.4-3.5c-.7-.7-2-1.6-3.1-1.6z"/><a><path fill="#5F52CA" d="M151.9 175.9c-9.6 0-17.5 7.8-17.5 17.5s7.8 17.5 17.5 17.5 17.5-7.8 17.5-17.5-7.8-17.5-17.5-17.5zm10.6 19.9l-.9 2.1c-.1.3-.3.4-.5.4h-2.7c-.4 0-.8.5-.5.9l4.4 6.5c.1.3.1.6-.1.8l-2.1 1.3c-.3.1-.6.1-.8-.1l-6-8.9c-.1-.1-.3-.3-.5-.3H151c-.1 0-.4.1-.5.3l-6.5 8.9c-.1.3-.5.3-.8.1l-1.8-1.4c-.3-.1-.3-.5-.1-.8l4.5-6.3c.3-.4 0-.9-.5-.9h-3.2c-.3 0-.5-.3-.5-.5v-17.3c0-.3.1-.4.3-.5l2.1-1.3c.4-.3.9 0 .9.5v15.2c0 .3.3.5.5.5H162c.3.1.7.4.5.8z"/><g fill="#5F52CA"><path d="M104.7 229c0 3 1.6 4.9 4 4.9 2.7 0 4.6-1.5 4.6-1.5l1 1.4s-2.5 2.3-5.8 2.3c-4.4 0-6.6-2.9-6.6-7.4 0-4.4 2.7-7.6 6.7-7.6s5.7 2.3 5.7 6.4c0 .7-.1 1.4-.1 1.5h-9.5zm6.7-2.1c0-2-.8-3.7-3-3.7s-3.4 1.7-3.6 3.7h6.6zM122.7 233.3l3.3-10-1.9-.4v-1.5l6.1-.1v1.6l-1.5.3-4.6 12.6h-3l-4.5-12.4-1.4-.4v-1.5l6.1-.1v1.6l-1.9.3 3.3 10zM133.7 229c0 3 1.6 4.9 4 4.9 2.7 0 4.6-1.5 4.6-1.5l1 1.4s-2.5 2.3-5.8 2.3c-4.4 0-6.6-2.9-6.6-7.4 0-4.4 2.7-7.6 6.7-7.6s5.7 2.3 5.7 6.4c0 .7-.1 1.4-.1 1.5h-9.5zm6.6-2.1c0-2-.8-3.7-3-3.7s-3.4 1.7-3.6 3.7h6.6zM150.3 223.3c.7-.8 2.3-2.3 4.1-2.3 1.4 0 2.5.4 2.5.4l-.1 4H155l-.4-2c-2 0-3.4 1.3-4 2.1v8.1l2.7.7v1.5h-7.8v-1.5l2.3-.7v-10.1l-2.3-.5v-1.5l4.5-.1.3 1.9zM160.6 233.8s.8.2 2.3.2c1.6 0 3.1-.5 3.1-2.2 0-3-7.6-1.6-7.6-6.6 0-2.8 2.2-4.3 5-4.3 2.2 0 4.7.8 4.7.8l-.1 3.7h-1.8l-.4-2.1s-.8-.3-2.2-.3c-1.4 0-2.4.4-2.4 1.8 0 2.9 7.6 1.8 7.6 6.5 0 3.1-2.7 4.7-6 4.7-2.5 0-4.3-.6-4.3-.6v-4h1.9l.2 2.4zM173.9 229c0 3 1.6 4.9 4 4.9 2.7 0 4.6-1.5 4.6-1.5l1 1.4s-2.5 2.3-5.8 2.3c-4.4 0-6.6-2.9-6.6-7.4 0-4.4 2.7-7.6 6.7-7.6s5.7 2.3 5.7 6.4c0 .7-.1 1.4-.1 1.5h-9.5zm6.7-2.1c0-2-.8-3.7-3-3.7s-3.4 1.7-3.6 3.7h6.6zM186.8 222.1s3-1.1 5.3-1.1c3.2 0 5.1 1.1 5.1 4.2v8.3l2.2.5v1.5l-4.2.1-.6-1.9c-.9.9-2.6 2.2-4.5 2.2-2.6 0-4.1-1.5-4.1-4.1 0-3.1 2.5-4.2 6.3-4.2h2.2v-2.2c0-1.6-1-2.5-2.6-2.5s-2.8.4-2.8.4l-.4 2h-1.8l-.1-3.2zm5.7 7.4c-2.7 0-3.8.7-3.8 2.3 0 1.2.8 2 2 2 2 0 3.7-2.2 3.7-2.2v-2.2h-1.9zM210.1 223.5h-4v8.8c0 1.3.6 1.7 1.4 1.7.7 0 1.4-.3 2.1-.7l.7 1.4c-1.2.9-2.5 1.4-3.8 1.4-1.6 0-3.1-.9-3.1-4v-8.6h-2.7v-1.8l2.7-.3V218l2.7-.5v4h4v2z"/></g><path fill="none" stroke="#5F52CA" stroke-miterlimit="10" d="M152.2 130.2L83.1 170v79.5l69.1 39.8 69-39.9v-79.7l-69-39.5h0z"/></a><a><path fill="#5F52CA" d="M23.3 328.5c-7.6 0-13.7 6.2-13.7 13.7S15.7 356 23.3 356 37 349.8 37 342.3s-6.1-13.8-13.7-13.8zm9 17.1c-.4 0-.8-.1-1-.1-.1.3-.1.4-.3.6 1.2.5 1.9 1.7 1.9 3 0 1.8-1.4 3.2-3.2 3.2-1.3 0-2.4-.8-3-1.9-.1 0-.3.1-.4.1.1.4.3.6.3 1 0 1.8-1.4 3.2-3.2 3.2s-3.2-1.4-3.2-3.2c0-.4.1-.8.3-1-.1-.1-.4-.1-.5-.3-.5 1-1.5 1.7-2.8 1.7-1.8 0-3.2-1.4-3.2-3.2 0-1.3.8-2.3 1.8-2.8 0-.1-.1-.3-.1-.4-.4.1-.6.1-1 .1-1.8 0-3.2-1.4-3.2-3.2s1.4-3.2 3.2-3.2c.4 0 .8.1 1 .1 0-.1.1-.4.3-.5-1-.5-1.8-1.7-1.8-2.8 0-1.8 1.4-3.2 3.2-3.2 1.3 0 2.4.8 3 1.8.1-.1.4-.1.5-.3-.1-.4-.3-.8-.3-1.2 0-1.8 1.4-3.2 3.2-3.2 1.8 0 3.2 1.4 3.2 3.2 0 .4-.1.8-.3 1.2.1 0 .3.1.5.1.5-1 1.7-1.8 3-1.8 1.8 0 3.2 1.4 3.2 3.2 0 1.3-.8 2.3-1.8 3 .1.1.1.3.3.5.4-.1.6-.3 1-.3 1.8 0 3.2 1.4 3.2 3.2s-2 3.4-3.8 3.4z"/><circle fill="#5F52CA" cx="23.3" cy="342.3" r="3.2"/><g fill="#5F52CA"><path d="M41.2 348.4h2.2v-11.5h-2.2v-1.4h5.3c5.2 0 8.8 1.2 8.8 7.1 0 5.9-3.6 7.2-8.8 7.2h-5.3v-1.4zm4.1 0h1.2c4 0 6.8-1.1 6.8-5.7s-2.7-5.7-6.8-5.7h-1.2v11.4zM64.4 347.8c-.5 1.6-1.8 2.3-3.4 2.3-2 0-3.9-.9-3.9-3.1 0-3 3-3.2 5.4-3.2h1.9v-.6c0-1.6-.8-2.1-2.4-2.1-1.4 0-2.5.3-2.6 1.7h-1.9c.1-2.3 2.1-3.1 4.3-3.1 2.4 0 4.4.5 4.4 3.1v5.7H68v1.4h-3.5v-2.1zm-3.1.8c2.2 0 3.2-1.6 3.2-3.5H63c-1.3 0-3.9 0-3.9 1.8 0 1.4 1.1 1.7 2.2 1.7zM69 348.4h1.7v-7.2H69v-1.4h3.5v8.6h1.7v1.4H69v-1.4zm3.5-10.8h-2.1v-2.1h2.1v2.1zM75.6 349.8v-3.5H77c0 1 .4 1.5 1 1.9.6.3 1.4.4 2.2.4.9 0 2.1-.5 2.1-1.5 0-1.4-1.5-1.3-2.6-1.5-1.8-.3-4.1-.5-4.1-2.8 0-2.1 2-3.1 3.9-3.1 1.3 0 2.5.4 3 1.4v-1.2h1.4v3.3h-1.4c0-.9-.3-1.4-.8-1.7-.5-.3-1.2-.4-1.9-.4-1 0-2.4.3-2.4 1.5 0 1.1 1.7 1.2 3 1.4 1.8.3 3.8.6 3.8 2.8 0 2.3-2.1 3.2-4.1 3.2-1.2 0-2.6-.5-3-1.6v1.4h-1.5zM97.2 341.2h-1.1l-4.1 9.5c-.7 1.7-1.2 2.9-3.2 2.9-.5 0-.9-.1-1.4-.1v-1.4c.3 0 .7.1 1 .1 1.5 0 1.6-1.2 2.2-2.4l-3.9-8.6h-1.1v-1.4h5v1.4h-1.9l2.9 6.7 2.8-6.7h-1.9v-1.4h4.7v1.4zM98.1 348.4h2.2v-11.5h-2.2v-1.4h6.5c2.4 0 5.5.1 5.5 3.8 0 1.5-1.1 2.9-2.8 3.1 2 0 3.3 1.2 3.3 3.3 0 3.5-2.8 4-6 4h-6.5v-1.3zm4.2-6.5h2.3c1.8 0 3.5-.3 3.5-2.6 0-2.4-2.1-2.4-3.5-2.4h-2.3v5zm0 6.5h2.3c2 0 3.9-.3 3.9-2.6 0-2.2-1.8-2.5-3.9-2.5h-2.3v5.1zM112.7 348.4h1.7v-7.2h-1.7v-1.4h3.5v8.6h1.7v1.4h-5.2v-1.4zm3.5-10.8h-2.1v-2.1h2.1v2.1zM118.8 348.4h1.7v-11.5h-1.7v-1.4h3.5v12.9h1.7v1.4h-5.2v-1.4zM124.8 348.4h1.7v-11.5h-1.7v-1.4h3.5v12.9h1.7v1.4h-5.2v-1.4z"/></g><path fill="none" stroke="#5F52CA" stroke-miterlimit="10" d="M70.5 262.5l-69 39.8v79.5l69.1 39.8 69-39.9V302l-69.1-39.5h0z"/></a><a><path fill="#5F52CA" d="M258.5 328.9c-.8-12.1-10.5-22.1-22.7-23-4.9-.4-9.6.6-13.9 2.8l-9.5-8.3c-.6-.5-1.5-.8-2.3-.4-.8.4-1.3 1.2-1.3 2.1v29.1c.1 6.5 2.8 12.6 7.4 17.2s10.9 7.2 17.5 7.2c6.8 0 13.5-2.8 18.2-8 4.7-5.1 7.1-11.8 6.6-18.7zm-7.6 17.9c-4.5 4.8-10.7 7.4-17.2 7.4-6.2 0-12.1-2.4-16.6-6.8-4.2-4.1-6.7-9.8-6.9-15.7h6.7c1.2 0 2.2-.9 2.2-1.9V327c0-.3.4-.5.9-.5s.9.3.9.5v10.9c0 1 1 1.9 2.2 1.9 1.2 0 2.2-.9 2.2-1.9v-13.6c0-.3.4-.5.9-.5s.9.3.9.5v15c0 1 1 1.9 2.2 1.9 1.2 0 2.2-.9 2.2-1.9v-18.7c0-.3.4-.5.9-.5s.9.3.9.5v17.3c0 1 1 1.9 2.2 1.9 1.2 0 2.2-.9 2.2-1.9v-15c0-.3.4-.5.9-.5s.9.3.9.5v15c0 1 1 1.9 2.2 1.9s2.2-.9 2.2-1.9v-13.6c0-.3.4-.5.9-.5s.9.3.9.5v10.9c0 1 1 1.9 2.2 1.9s2.2-.9 2.2-1.9v-2.8c0-.3.4-.5.9-.5h6.5c-.5 5.5-2.7 10.8-6.6 14.9zm-2.5-14.4v2.8c0 .3-.4.5-.9.5s-.9-.3-.9-.5v-10.9c0-1-1-1.9-2.2-1.9s-2.1.9-2.1 1.9v13.6c0 .3-.4.5-.9.5s-.9-.3-.9-.5v-15c0-1-1-1.9-2.2-1.9s-2.2.9-2.2 1.9v15c0 .3-.4.5-.9.5s-.9-.3-.9-.5v-17.3c0-1-1-1.9-2.2-1.9-1.2 0-2.2.9-2.2 1.9v18.7c0 .3-.4.5-.9.5s-.9-.3-.9-.5v-15c0-1-1-1.9-2.2-1.9-1.2 0-2.2.9-2.2 1.9v13.6c0 .3-.4.5-.9.5s-.9-.3-.9-.5V327c0-1-1-1.9-2.2-1.9-1.2 0-2.2.9-2.2 1.9v2.8c0 .3-.4.5-.9.5H210v-28.2c0-.4.1-.6.5-.8.4-.1.6-.1.9.1l9.8 8.6c.3.1.5.3.8.1 4.1-2.3 8.7-3.3 13.5-3 11.4.9 20.7 10.3 21.4 21.8v1.4h-6.5c-1 .2-2 1.1-2 2.1z"/><g fill="#5F52CA"><path d="M190.4 371.9c0 2-1.8 3.4-4.5 3.4h-4.4c-.3 0-.4-.3-.4-.6v-9.8c0-.3.2-.4.4-.4h4.2c2.6 0 4.2 1.2 4.2 3 0 .9-.4 1.6-1.2 2 1.1.4 1.7 1.3 1.7 2.4zm-6.7-5.6v2.6h2.3c.9 0 1.6-.5 1.6-1.3s-.7-1.3-1.7-1.3h-2.2zm4.2 5.6c0-.9-.8-1.3-1.9-1.3h-2.4v2.9h2.4c1.2 0 1.9-.7 1.9-1.6zM200.9 373.7l-.2 1.3c0 .2-.1.3-.3.3h-7.5c-.3 0-.4-.2-.4-.4v-10c0-.3.2-.4.4-.4H200c.2 0 .3.1.3.3l.1 1.3c0 .3-.1.4-.4.4h-4.9v2.3h4c.2 0 .3.1.3.3v1.5c0 .2-.1.3-.3.3h-4v2.4h5.4c.3 0 .4.1.4.4zM212.3 375.3l-1.5.2c-.3 0-.5-.1-.6-.4l-.7-2H205l-.7 1.8c-.1.3-.3.4-.5.4h-1.5c-.4 0-.5-.2-.4-.6l3.7-9.9c.1-.3.3-.4.6-.4h2c.3 0 .5.1.6.4l3.9 9.9c.1.3 0 .5-.4.6zm-3.4-4.1l-1.6-4.4-1.6 4.4h3.2zM222.4 364.7v1.6c0 .2-.1.3-.3.3h-3.7v8.4c0 .2-.1.3-.3.3h-2c-.2 0-.3-.1-.3-.3v-8.4h-3.6c-.3 0-.4-.2-.4-.5l.1-1.4c0-.2.1-.3.3-.3h9.8c.3 0 .4.1.4.3z"/></g><g fill="#5F52CA"><path d="M233.8 364.5v.2c0 .1 0 .1-.1.1h-4.8v10.4s0 .1-.1.1h-.2s-.1 0-.1-.1v-10.4h-4.8c-.1 0-.2 0-.1-.2v-.1c0-.1.1-.1.1-.1h5.1l5 .1c0-.1 0 0 0 0zM244.7 364.5v10.7s0 .1-.1.1h-.2s-.1 0-.1-.1v-5.1H236v5.1s0 .1-.1.1h-.2c-.1 0-.1 0-.1-.1v-10.7c0-.1 0-.1.1-.1h.2s.1 0 .1.1v5.3h8.3v-5.3c0-.1 0-.1.1-.1l.3.1c0-.1 0 0 0 0zM256.7 375.3h-.2s-.1 0-.2-.1l-2.4-4.5c-.5.1-1.2.2-1.8.2H249v4.3s0 .1-.1.1h-.2c-.1 0-.1 0-.1-.1v-10.6c0-.1.1-.1.1-.1h3.6c2.6 0 4.1 1 4.1 3.2 0 1.6-.8 2.6-2.3 3l2.5 4.5c.2 0 .2.1.1.1zm-4.6-4.7c2.6 0 4.1-.8 4.1-2.9 0-2.1-1.4-2.9-3.8-2.9H249v5.8h3.1zM267.4 375v.2s0 .1-.1.1h-7.4c-.1 0-.2-.1-.2-.2v-10.5c0-.1.1-.2.2-.2h6.9s.1 0 .1.1v.1c0 .1 0 .1-.1.1H260v4.8h5.6s.1 0 .1.1v.2c0 .1 0 .1-.1.1H260v5l7.4.1c-.1 0 0 0 0 0zM278 375.3h-.1s-.1 0-.1-.1l-1.4-3.1h-6.6l-1.4 3.1-.1.1h-.1c-.1 0-.1-.1-.1-.2l4.8-10.6c0-.1.1-.1.2-.1h.1c.1 0 .1 0 .2.1l4.8 10.6c-.1.1-.1.2-.2.2zm-1.7-3.5l-3.2-6.9-3.1 6.9h6.3zM280.2 375.3c-.1 0-.1-.1-.1-.1v-10.6l.1-.1h3.5c3.6 0 5.8 2.2 5.8 5.5 0 3.5-2.1 5.3-6.1 5.3h-3.2zm3.2-.3c3.8 0 5.8-1.7 5.8-5 0-3.2-2-5.2-5.4-5.2h-3.3V375h2.9z"/></g><path fill="none" stroke="#5F52CA" stroke-miterlimit="10" d="M233.7 262.5l-69.1 39.8v79.5l69.1 39.8 69-39.9V302l-69-39.5h0z"/></a><a><path fill="#5F52CA" d="M165.2 450.5c-13 0-23.2 10.7-23.4 23.8 0 13.2 10.5 24 23.4 23.9 12.7 0 23.2-10.9 23.1-23.9.2-13.2-10.2-23.8-23.1-23.8zm0 40.9c-9.1 0-16.6-7.7-16.6-17.1 0-9.5 7.4-17.1 16.7-17.1 9 0 16.3 7.7 16.3 17.1.1 9.4-7.4 17.1-16.4 17.1z"/><path fill="#5F52CA" d="M139.9 474.5c0-8 3.6-15.2 9.1-19.9.3-.5.4-1 .4-1.2-2.7 0-5.3.1-7.8 0-1.5-.1-2.2.5-2.7 1.8-2.8 6.9-5.9 13.7-8.9 20.8-.3-.6-.5-1.2-.8-1.5l-8.1-18.9c-.6-1.5-1.3-2.3-3.1-2.2-2.4.1-4.9 0-7.6 0 .3.6.5 1.2.6 1.7 4.6 10.8 9.1 21.4 13.7 32.2.6 1.4.9 3.5 2.1 4.2 1.2.9 5.9 1.3 6.7-.8 2.1-4.9 4.1-9.9 6.3-14.8.1-.4.1-.9.1-1.4z"/><path fill="none" stroke="#5F52CA" stroke-miterlimit="10" d="M152.3 394l-69.1 39.8v79.5l69.1 39.8 69-39.9v-79.7l-69-39.5h0z"/></a><a><g fill="#5F52CA"><path d="M18 593.7c3.8.2 6.3 1.3 8.4 3.4.3.3.5.7.5.7l-1.8 1.8-1.4-1.4.4-.5s-.4-.3-.7-.6c-3-2-7.2-2-10.2-.1-.8.5-.8.7-.8.7 4.4 4.3 9.3 9.4 13.7 13.7l.7.8c-2.3 5.1-12.4 5.2-16.6.9-.2-.2-.6-.7-.6-.7l1.7-1.9 1.5 1.4-.5.6s.4.3.7.5c3.3 2 9.9 1.7 11.1-.7 0 0-10.3-10.2-14.6-14.5 0 0 0-.5.8-1.2 2.6-2 5.4-3 7.7-2.9zM55.2 593.6l1.9.1v21h12.3v-.9h1.7v2.8H55.2zM42.6 593.8c-3.4-.2-11.1-.1-11.1-.1v1.8h.8v21.2h1.8v-7.1h8c4.4-.1 7.7-3.5 7.9-7.8.1-4.1-3.2-7.7-7.4-8zm-.8 13.9c-2.3.1-7.7 0-7.7 0v-12.3h1c2.2.1 4.4 0 6.7.1 3.6.1 6.3 2.7 6.3 6s-2.7 6-6.3 6.2zM119.7 593.7c-6.3 0-11.4 5.1-11.4 11.5 0 6.3 5.2 11.5 11.5 11.4 6.3 0 11.3-5.1 11.3-11.4 0-6.4-5.1-11.5-11.4-11.5zm0 21.4c-5.4-.1-9.9-4.6-9.9-10s4.6-9.9 10-9.9 9.9 4.6 9.9 10c-.1 5.4-4.7 10-10 9.9z"/><path d="M112.6 605.9s-.5-7.5 7.9-7.5v2.5h-1.4v-1.2c-5 .8-4.9 4.6-4.9 4.6h4.9v1.5h-6.5zM76.3 593.7h1.9v22.9h-1.9zM92.2 593.7h1.9v22.9h-1.9z"/><path d="M102.8 596.5v-2.8H83.4v2.8h2.1l-.1-.9h15.4v.9zM126.9 604.4s.5 7.5-7.9 7.5v-2.5h1.4v1.2c5-.8 4.9-4.6 4.9-4.6h-4.9v-1.5h6.5z"/></g><path fill="none" stroke="#5F52CA" stroke-miterlimit="10" d="M70.5 525.6L1.4 565.4v79.5l69.1 39.8 69-39.9V565l-69-39.4h0z"/></a><a><g fill="#5F52CA"><path d="M217.2 606.2h-7.1c.1.4.2.7.4.9.4.5.9.7 1.6.7.6 0 1.1-.2 1.4-.7h3.6c-.2.8-.7 1.5-1.3 2-.5.4-1.1.7-1.8.9-.7.2-1.3.3-2 .3-1.1 0-2-.2-2.9-.7-.9-.5-1.6-1.3-2.1-2.4-.3-.7-.4-1.4-.4-2.1 0-1.6.6-2.9 1.8-3.9.9-.8 2.1-1.2 3.4-1.2 1.4 0 2.6.4 3.5 1.2 1.3 1.2 1.9 2.8 1.9 5zm-3.7-2.1c0-.4-.1-.7-.3-.9-.3-.4-.7-.6-1.3-.6-.6 0-1 .2-1.3.6-.2.2-.3.6-.4 1h3.3z"/><path d="M227 596.6V610h-3.4v-1.1c-.3.4-.6.7-1 .9-.5.3-1.2.5-2 .5-1.4 0-2.4-.5-3.2-1.4-.8-1-1.1-2.2-1.1-3.7s.4-2.7 1.1-3.7c.8-1 1.8-1.5 3.1-1.5 1.2 0 2.1.4 2.8 1.3v-4.7h3.7zm-5.4 6.2c-.6 0-1 .2-1.3.7-.2.4-.4.9-.4 1.6 0 .7.2 1.3.5 1.7.3.4.7.6 1.2.6.6 0 1.1-.3 1.4-.8.2-.4.4-.9.4-1.6 0-.6-.1-1.2-.4-1.5-.3-.4-.8-.7-1.4-.7zM231.3 596.6v2.6h-3.7v-2.6h3.7zm0 3.8v9.6h-3.7v-9.6h3.7zM235.5 600.4v1.2c.3-.4.6-.7.9-.9.6-.4 1.2-.6 2-.6 1.3 0 2.3.5 3.1 1.4.8.9 1.2 2.2 1.2 3.8 0 1.5-.3 2.6-1 3.5-.8 1-1.9 1.5-3.3 1.5-.7 0-1.3-.2-1.9-.5-.3-.2-.6-.4-.9-.8v4.1H232v-12.8h3.5zm1.8 2.7c-.5 0-.9.2-1.2.6-.3.4-.5 1-.5 1.7s.1 1.2.4 1.6c.3.5.8.7 1.3.7.6 0 1.1-.3 1.3-.8.2-.4.3-.9.3-1.5 0-.8-.2-1.4-.5-1.8-.2-.3-.6-.5-1.1-.5z"/><path d="M245.5 600.4v1.4c.7-1 1.7-1.6 2.9-1.6.3 0 .6 0 1 .1v3c-.4-.1-.7-.1-1-.1-1 0-1.8.3-2.2 1-.3.4-.4 1-.4 1.8v4h-3.7v-9.6h3.4z"/><path d="M253 600.1c1 0 1.9.2 2.8.7.9.5 1.6 1.2 2 2.1.3.7.5 1.5.5 2.3 0 1.5-.5 2.7-1.5 3.7-.5.5-1.1.9-1.9 1.1-.6.2-1.3.3-2 .3-1 0-2-.2-2.8-.7-.9-.5-1.6-1.2-2-2.1-.3-.7-.5-1.5-.5-2.3 0-1.5.5-2.7 1.5-3.7 1-.9 2.3-1.4 3.9-1.4zm-.1 2.5c-1.1 0-1.7.9-1.7 2.6 0 1.7.6 2.6 1.7 2.6s1.7-.9 1.7-2.6c0-1.7-.5-2.6-1.7-2.6z"/><path d="M264.3 606.1l3.5.1c0 1.1-.4 2-1.2 2.8-.5.5-1.1.9-1.8 1.1-.6.2-1.3.3-2 .3-1.7 0-3-.6-4.1-1.8-.8-.9-1.2-2.1-1.2-3.4 0-1.1.3-2.1.9-3 .5-.7 1.2-1.3 2.1-1.7.7-.3 1.5-.5 2.4-.5 1.7 0 3 .5 3.9 1.6.5.6.9 1.4 1 2.3l-3.5.1c-.2-.9-.6-1.4-1.5-1.4-.6 0-1 .2-1.2.7-.3.5-.4 1.1-.4 1.9 0 .7.1 1.2.3 1.7.3.6.7.9 1.4.9.6 0 1-.3 1.2-.8.1-.3.2-.6.2-.9z"/><path d="M271.2 596.6v2.6h-3.7v-2.6h3.7zm0 3.8v9.6h-3.7v-9.6h3.7z"/><path d="M276 597.3v3.1h1.7v2.2H276v3.6c0 .5.1.8.3.9.2.1.4.2.6.2.2 0 .4 0 .8-.1v2.8c-.9.2-1.7.2-2.5.2-1.3 0-2.2-.4-2.6-1.3-.2-.3-.3-.7-.3-1.3v-5.2H271v-2.2h1.3v-3.1h3.7z"/><path d="M287 600.4l-3 8.8c-.6 1.6-1.2 2.7-1.9 3.3-.5.4-1.2.6-2 .6h-2.8v-2.8h.9c.8 0 1.1-.2 1.1-.7 0-.2-.1-.6-.2-1l-3.1-8.2h3.8l1.7 6 1.7-6h3.8z"/></g><path fill="#5F52CA" d="M193.2 600.4v1.4c.7-1.1 1.7-1.7 3-1.7 1.4 0 2.4.6 3 1.7.3-.4.6-.8.8-1 .6-.5 1.4-.7 2.4-.7s1.8.3 2.4.8c.6.5.9 1.2 1.1 2 .1.4.1.8.1 1.3v5.9s0 1.8 1.7 1.8 2-1.3 2-1.3c.9.6 3.1.8 4.2 0 0 0-1.5 5-6.2 5-5.3 0-5.3-5.5-5.3-5.5v-5c0-.6 0-1-.1-1.2-.2-.5-.5-.7-1.1-.7-1 0-1.4.7-1.4 2.1v4.8h-3.7v-5c0-.6 0-1-.1-1.2-.2-.5-.5-.7-1.1-.7-1 0-1.4.7-1.4 2.1v4.8h-3.7v-9.6h3.4z"/><path fill="#5F52CA" d="M207.3 616.3h-3c-1.9 1.1-4.1 1.7-6.4 1.7-7.2 0-13-5.8-13-13s5.8-13 13-13c5.3 0 9.8 3.2 11.9 7.7 0 0 2.2-.9 4.2.1-1.9-6.9-8.7-11.5-16-11.5-9.2 0-16.7 7.5-16.7 16.7s7.5 16.7 16.7 16.7c3.5 0 6.8-1.1 9.5-2.9l-.2-2.5z"/><path fill="none" stroke="#5F52CA" stroke-miterlimit="10" d="M234.2 525.6l-69.1 39.8v79.5l69.1 39.8 69-39.9V565l-69-39.4h0z"/></a><path fill="none" stroke="#5F52CA" stroke-miterlimit="10" d="M152.1 656.1l-69 39.8v79.5l69 39.8 69-39.9v-79.7l-69-39.5z"/><path fill="#5F52CA" d="M98.9 725.6v19.8h6.4v-19.8h-6.4m8.3 3.9v16h6.4v-19.8l-6.4 3.8m11.5-3.9v16.7l6.4 3.2v-19.8h-6.4m8.4-.1v19.8l6.4-3.2v-16.7h-6.4m11.5.1v19.8h6.4v-19.8h-6.4m7.8 3.2v16.7h6.4v-19.8l-6.4 3.1m8.3 0v16.7h6.4v-19.8l-6.4 3.1m11.6 0v13.5l6.4 3.2v-19.8l-6.4 3.1m7.6-3.2v19.8h6.4v-19.8h-6.4m16.1.4h1.9v10.4h3.2v1.7h-5L190 726zm12 12.1h-1.9l-.3-2.2h-2.3l-.3 2.2h-1.7l1.9-12.1h2.8l1.8 12.1zm-4.3-3.9h1.9l-.9-6.1h-.1l-.9 6.1zm10.9-5.4v.5c0 1.2-.4 2-1.2 2.4v.1c1 .4 1.4 1.3 1.4 2.6v1c0 1.9-1 2.9-2.9 2.9h-3v-12.1h2.9c1.9-.2 2.8.7 2.8 2.6zm-3.8-1.1v3.2h.8c.7 0 1.2-.3 1.2-1.3v-.6c0-.8-.3-1.2-1-1.2l-1-.1zm0 4.9v3.7h1.1c.6 0 1-.3 1-1.2v-1c0-1.1-.4-1.5-1.2-1.5h-.9z"/><path fill="none" stroke="#5F52CA" stroke-miterlimit="10" d="M70.1 787.1L1 826.9v79.5l69.1 39.8 68.9-39.9v-79.8l-68.9-39.4z"/><g fill="#5F52CA"><path d="M88.6 869.5c0 2.2-.8 4.1-4.5 4.1H65c-.4-1.8.8-5.7 2.5-6.9 1.4-1.2 3.3-1.2 4.9-1 4.5.4 5.3-2.6 5.5-5.9.4-3.7-2-4.7-5.1-4.5-2.5 0-4.7-.4-4.7-3.3 0-3 2.5-3.7 4.9-3.5 4.7.6 7.1-1.4 7.3-6.1.4-2 1.4-3 3.5-3h4.9l-.1 30.1z"/><path d="M52.6 844.4s-.4-4.9 5.1-5.1h17.9c0 1.8-.2 4.1-1.2 5.3-1.4 1.8-3.5 2-5.5 1.8-4.7-.4-5.5 2.9-5.7 6.1-.2 3.7 2.5 4.3 5.5 4.1 2.5-.2 4.3.6 4.3 3.3 0 2.9-1.8 3.9-4.5 3.5-4.9-.6-7.7 1.2-8 6.3-.2 4.3-7.7 3.5-7.7 3.5l-.2-28.8z"/></g><g fill="#5F52CA"><path d="M28.1 879.6c-1.5-.1-2.2.5-2.2 1.8v.2h2.2v1.9h-2.2v7.3h-2V881.4c0-1.3.4-2.2 1.1-2.9.7-.6 1.8-.9 3.1-.9v2z"/><path d="M32.1 891c-1.3 0-2.5-.5-3.5-1.4-.9-.9-1.4-2-1.4-3.5 0-1.3.5-2.5 1.4-3.5.9-.9 2.1-1.4 3.5-1.4 1.3 0 2.5.5 3.5 1.4.9.9 1.4 2 1.4 3.5 0 1.3-.5 2.5-1.4 3.5-.9 1-2.1 1.4-3.5 1.4zm-1.9-2.7c.5.5 1.2.8 2 .8s1.5-.3 2-.8.8-1.2.8-2-.3-1.5-.8-2-1.2-.8-2-.8-1.5.3-2 .8-.8 1.2-.8 2c-.1.8.2 1.5.8 2zM44.1 881.6h2v9.2h-2v-1.2c-.6.9-1.5 1.4-2.9 1.4-1.1 0-1.9-.4-2.6-1-.6-.6-1-1.6-1-2.7v-5.6h2v5.4c0 .7.2 1.2.5 1.6.4.4.9.5 1.5.5.7 0 1.3-.2 1.7-.6.4-.4.6-1.1.6-2l.2-5zM52.3 881.4c1.1 0 1.9.4 2.6 1 .6.6 1 1.6 1 2.7v5.6h-2v-5.4c0-.7-.2-1.2-.5-1.6-.4-.4-.9-.5-1.5-.5-.7 0-1.3.2-1.7.6-.4.4-.6 1.1-.6 2v4.9h-2v-9.1h2v1.2c.4-.9 1.4-1.4 2.7-1.4zM64.3 878h2v12.8h-2v-1.3c-.8 1.1-1.8 1.6-3.2 1.6-1.3 0-2.3-.5-3.2-1.4s-1.3-2-1.3-3.4.5-2.5 1.3-3.5 2-1.4 3.2-1.4c1.4 0 2.5.5 3.2 1.5V878zm-5 10.4c.5.6 1.2.8 2 .8s1.5-.3 2-.8.8-1.2.8-2.1-.3-1.5-.8-2.1c-.5-.6-1.2-.8-2-.8s-1.5.3-2 .8-.8 1.2-.8 2.1.2 1.5.8 2.1zM69.2 887.1c.1.7.5 1.2 1 1.6.5.4 1.2.6 1.9.6 1.1 0 1.8-.4 2.3-1.1l1.6.9c-.9 1.3-2.2 2-4 2-1.5 0-2.7-.5-3.6-1.3-.9-.9-1.4-2-1.4-3.5 0-1.3.5-2.5 1.3-3.5.9-.9 2-1.4 3.5-1.4 1.3 0 2.5.5 3.3 1.4s1.3 2.1 1.3 3.5c0 .2 0 .5-.1.8h-7.1zm0-1.6h5.4c-.1-.8-.5-1.3-.9-1.7-.5-.4-1.1-.6-1.7-.6-.8 0-1.3.2-1.8.6-.6.4-.9 1-1 1.7zM79.3 883.2c.5-1.1 1.5-1.7 2.8-1.7v2.2c-.8-.1-1.4.1-2 .5-.6.4-.8 1.1-.8 2v4.6h-2v-9.2h2v1.6zM83.6 884c0 .5.2.8.6 1.1.4.2.8.5 1.4.6.5.1 1.1.3 1.6.4.5.1 1 .4 1.4.8s.6.9.6 1.5c0 .8-.3 1.4-.9 1.9-.6.5-1.4.8-2.4.8-.9 0-1.6-.2-2.2-.6-.6-.4-1.1-.9-1.2-1.5l.8-.5c.2.5.5.9.9 1.2.5.3 1.1.4 1.8.4s1.2-.2 1.7-.5.6-.7.6-1.3c0-.5-.2-.8-.6-1.1-.4-.3-.8-.5-1.4-.6-.5-.1-1.1-.3-1.6-.4-.5-.1-1-.4-1.4-.8-.4-.4-.6-.9-.6-1.5 0-.8.3-1.3.9-1.9.6-.5 1.3-.8 2.2-.8.8 0 1.3.2 1.9.5.5.4.9.8 1.2 1.3l-.8.5c-.2-.5-.5-.8-.9-1.1-.4-.2-.9-.4-1.4-.4-.6 0-1.2.2-1.6.5-.4.6-.6 1-.6 1.5zM96.9 881.6h.9v9.2h-.9V889c-.6 1.3-1.8 1.9-3.3 1.9-1.1 0-1.9-.4-2.6-1-.6-.6-.9-1.6-.9-2.7v-5.7h.9v5.7c0 .9.2 1.5.7 2 .5.5 1.1.8 2 .8.9 0 1.7-.3 2.3-.9.6-.6.9-1.5.9-2.7v-4.8zM100.7 879.2c-.2.1-.3.2-.5.2s-.4-.1-.5-.2c-.2-.1-.2-.3-.2-.5s.1-.4.2-.5c.2-.1.3-.2.5-.2s.4.1.5.2c.2.1.2.3.2.5.1.2 0 .4-.2.5zm-1 11.6v-9.2h.9v9.2h-.9zM107.3 882.6h-2.7v6c0 .5.1.9.3 1.1.2.2.5.4.9.4s.9 0 1.5-.1v.8c-1.2.2-2.2.1-2.7-.2-.6-.4-.9-1.1-.9-2v-6h-2v-.9h2v-2.3l.9-.3v2.6h2.7v.9z"/><path d="M112.1 881.5c1.3 0 2.5.5 3.3 1.4s1.2 2.1 1.2 3.4v.4h-8.3c.1 1.1.5 1.9 1.2 2.5.7.6 1.6.9 2.6.9.8 0 1.4-.2 1.9-.5s.9-.7 1.2-1.2l.8.5c-.4.6-.9 1.1-1.6 1.5-.7.4-1.5.6-2.4.6-1.4 0-2.6-.5-3.5-1.3-.9-.9-1.3-2-1.3-3.5 0-1.3.5-2.5 1.3-3.4 1.1-.9 2.2-1.3 3.6-1.3zm0 .8c-1.1 0-1.9.4-2.6 1-.7.6-1.1 1.5-1.2 2.5h7.4c-.1-1.1-.5-1.9-1.2-2.6-.7-.6-1.4-.9-2.4-.9z"/></g><g><path fill="none" stroke="#5F52CA" stroke-miterlimit="10" d="M234.2 787.1l-69.1 39.8v79.5l69.1 39.8 68.9-39.9v-79.8l-68.9-39.4z"/><g fill="#5F52CA"><circle cx="247.2" cy="880.7" r="10.1"/><path d="M216.8 890.1c-2.4 0-4.8-.8-6.8-2.5-4.4-3.8-4.8-10.4-1.1-14.7l27.3-31.6c3.8-4.4 10.4-4.8 14.7-1.1 4.4 3.8 4.8 10.4 1.1 14.7l-27.3 31.6c-2.1 2.4-5 3.6-7.9 3.6z"/><path d="M244.7 857H216c-5.4 0-9.7-4.4-9.7-9.7s4.4-9.7 9.7-9.7h28.7c5.4 0 9.7 4.4 9.7 9.7s-4.3 9.7-9.7 9.7z"/></g></g><g><path fill="none" stroke="#5F52CA" stroke-miterlimit="10" d="M152.1 917.4l-69 39.8v79.5l69 39.8 69-39.9v-79.8l-69-39.4z"/><path fill="#5F52CA" d="M197.5 987.8c0-.5.2-.9.6-1.1.2-.1.5-.1.6.1.3.5.3.9.1 1.3-.5 1-1.2 2.7-1.4 2.9-.2.2-.1-2.3.1-3.2zm3.2 1.2c.3-.5.6-.6 1.2-.5.2.1.5.2.5.5 0 .5-.2.9-.6 1.1-1 .5-2.5 1.5-2.8 1.6-.3 0 1.2-2 1.7-2.7zm1.5 3.1c.5-.2.9-.2 1.3.1.2.2.3.5.2.6-.2.5-.6.6-1.1.6-1.1 0-2.9.2-3.2.1-.2 0 2-1.1 2.8-1.4zM109.6 1001.7c0 .1-.1.2-.2.3-.1.2-.2.3-.4.4l-.6.3c-.2.1-.5.2-.7.2-.4 0-.7-.1-1-.4-.3-.2-.6-.6-.8-1-.2-.5-.5-1-.7-1.6-.2-.6-.4-1.3-.6-2l-.6.4-.3 4.2c0 .1-.1.2-.1.2s-.1.1-.2.1h-.9c-.6 0-1-.1-1.3-.3-.2-.2-.4-.6-.4-1.1v-.7s.1-.7.1-1.1c.1-.4.1-.9.1-1.4.1-.5.1-1 .1-1.5.1-1 .1-1.8.2-2.5.1-.6.1-1.1.1-1.4 0-.3.1-.6.1-.8v-.5c0-.2.1-.2.3-.2h.9c.3 0 .6.1.9.1.2.1.4.2.5.3s.2.3.2.5c.1.2.1.4.1.6s0 .6-.1 1.2c0 .6-.1 1.2-.1 1.9.3-.5.8-1 1.3-1.7s1.1-1.5 1.9-2.5c.1-.1.1-.1.1-.2l.2-.2c.1-.1.2-.1.2-.2.1-.1.2-.1.2-.1.1 0 .3.1.5.2l.5.5s.3.4.4.6.2.4.2.6c0 .3-.3.8-.9 1.4-.6.6-1.4 1.3-2.4 2.1.2.3.4.6.6 1 .2.3.5.7.7 1.1s.5.7.7 1.1c.2.3.4.7.6.9.2.2.3.5.4.7.1.3.2.4.2.5zm6.5-.4c0-.2 0-.6.1-.9.1-.4.1-.8.1-1.2.1-.4.1-.9.1-1.3.1-.4.1-.7.1-1s-.1-.5-.2-.7c-.1-.2-.4-.3-.8-.3s-.7.1-.9.3c-.2.2-.5.5-.6 1-.2.5-.3 1.1-.4 2-.1.9-.2 1.9-.3 3.3 0 .1-.1.2-.1.3-.1.1-.1.1-.3.1h-.6c-.3 0-.6-.1-.8-.1-.2-.1-.4-.2-.5-.3s-.2-.3-.3-.5c-.1-.2-.1-.4-.1-.6v-.7c0-.3.1-.7.1-1.2.1-.5.1-1.2.2-2s.1-1.8.2-3c0-.2.1-.4.1-.4.1-.1.1-.1.3-.1h.6c.3 0 .6.1.8.1.2.1.4.2.5.3s.2.3.3.5c.1.2.1.3.1.5.3-.6.7-1 1.1-1.2.5-.2 1-.3 1.6-.3.5 0 .9.1 1.2.2.3.1.6.3.9.5s.4.5.5.9c.1.4.2.9.2 1.4 0 .2 0 .4-.1.7 0 .3-.1.7-.1 1.1s-.1.8-.1 1.2c-.1.4-.1.8-.1 1.1-.1.3-.1.7-.1.9 0 .3-.1.5-.1.5 0 .2 0 .4-.1.4s-.2.1-.3.1h-.3c-.3 0-.6-.1-.9-.1-.2-.1-.4-.2-.5-.3s-.2-.3-.2-.5c-.3-.3-.3-.5-.3-.7zm8.2 1.6c-.7 0-1.4-.1-1.8-.3-.5-.2-.9-.5-1.1-.9-.3-.3-.5-.8-.6-1.3-.1-.5-.2-1-.2-1.6 0-.6.1-1.3.2-1.9.2-.6.4-1.1.8-1.7.4-.5.9-.9 1.5-1.1.6-.3 1.4-.5 2.3-.5 1.4 0 2.3.3 2.9 1 .6.6.9 1.6.9 2.8 0 .3 0 .7-.1 1.1s-.1.8-.3 1.2c-.2.4-.3.8-.6 1.1-.2.4-.5.7-.9 1-.3.3-.8.5-1.3.7-.5.3-1.1.4-1.7.4zm.7-7.1c-.4 0-.7.1-1 .3-.2.2-.4.5-.6.7-.1.3-.2.6-.2.9s-.1.6-.1.9c0 .7.1 1.3.3 1.5.2.3.6.5 1 .5s.7-.1.9-.3c.2-.2.5-.5.6-.9.1-.3.2-.7.3-1 .1-.3.1-.7.1-.9 0-.5-.1-1-.3-1.3-.2-.2-.5-.4-1-.4zm9.4 4.9c.3 0 .6-.1.8-.1.2-.1.5-.2.6-.3.2-.1.3-.2.5-.3.1-.1.2-.1.3-.1.2 0 .4.2.4.5 0 .1 0 .2-.1.3-.1.2-.1.3-.1.4-.1.2-.1.3-.2.4-.1.1-.1.2-.2.3-.1.1-.2.1-.3.3-.1.1-.3.2-.5.3-.2.1-.5.2-.8.3s-.6.1-1 .1-.9-.1-1.3-.2c-.5-.1-.9-.3-1.2-.6-.3-.3-.6-.7-.9-1.3s-.3-1.2-.3-1.9c0-.3 0-.6.1-1s.1-.7.2-1.1c.1-.4.3-.7.5-1.1.2-.3.5-.7.8-1 .3-.3.7-.5 1.2-.7.5-.2 1-.3 1.7-.3.5 0 1 .1 1.4.2.4.1.7.3 1 .5.2.2.5.5.6.7.1.3.2.6.2.9 0 .6-.2 1-.6 1.3-.4.2-.9.4-1.5.4-.2 0-.3 0-.3-.1-.1 0-.1-.1-.1-.2v-.7c0-.2-.1-.4-.1-.5s-.1-.2-.2-.3c-.1-.1-.2-.1-.4-.1-.3 0-.6.1-.8.3s-.3.5-.5.8c-.1.3-.2.6-.2 1s-.1.6-.1.8c0 .7.1 1.3.3 1.6.2.3.5.5 1.1.5zm11.8.7c0 .1 0 .2-.1.3-.1.2-.1.3-.3.5-.1.2-.3.3-.5.5s-.4.2-.6.2c-.3 0-.6-.1-.9-.3s-.6-.5-.9-.8-.6-.7-.9-1.2l-.9-1.5c-.1.6-.1 1.1-.1 1.7s-.1 1.1-.1 1.6c0 .1-.1.2-.1.3-.1.1-.1.1-.3.1h-.6c-.3 0-.6-.1-.8-.1-.2-.1-.4-.2-.5-.3-.1-.1-.2-.3-.2-.5-.1-.2-.1-.4-.1-.7v-.4c0-.1 0-.3.1-.6.1-.2.1-.6.1-1 .1-.5.1-1 .1-1.7.1-.7.1-1.5.2-2.6.1-1 .2-2.2.2-3.7 0-.2.1-.4.1-.4.1-.1.1-.1.3-.1h.6c.3 0 .6.1.8.1.2.1.4.2.5.3.1.1.2.3.3.5.1.2.1.3.1.5v.5c0 .2-.1.6-.1.9 0 .3-.1.7-.1 1.2-.1.5-.1.9-.1 1.4l2.6-2.3c.1-.1.2-.2.3-.2.1-.1.2-.1.2-.1.1 0 .2.1.4.2.1.2.3.3.4.5l.3.6c.1.2.1.4.1.5 0 .3-.2.6-.7 1s-1.3.7-2.3 1.1c.5.5.9 1 1.3 1.4.4.4.7.8 1.1 1.1.3.3.6.6.7.8.3.5.4.6.4.7zm13.5.3c0 .1-.1.2-.2.3-.1.1-.2.3-.4.4l-.6.3c-.2.1-.5.2-.7.2-.4 0-.7-.1-1-.4s-.6-.6-.8-1-.5-1-.7-1.6c-.2-.6-.4-1.3-.6-2l-.6.4-.3 4.2c0 .1-.1.2-.1.2s-.1.1-.2.1h-.9c-.6 0-1-.1-1.3-.3-.2-.2-.4-.6-.4-1.1v-.7s.1-.7.1-1.1c.1-.4.1-.9.1-1.4.1-.5.1-1 .1-1.5.1-1 .1-1.8.2-2.5.1-.6.1-1.1.1-1.4 0-.3.1-.6.1-.8v-.5c0-.2.1-.2.3-.2h.9c.3 0 .6.1.9.1.2.1.4.2.5.3.1.1.2.3.2.5s.1.4.1.6 0 .6-.1 1.2c0 .6-.1 1.2-.1 1.9.3-.5.8-1 1.3-1.7s1.1-1.5 1.9-2.5c.1-.1.1-.1.1-.2s.1-.1.2-.2.2-.1.2-.2c.1-.1.2-.1.2-.1.1 0 .3.1.5.2l.5.5c.2.2.3.4.4.6s.2.4.2.6c0 .3-.3.8-.9 1.4-.6.6-1.4 1.3-2.4 2.1.2.3.4.6.6 1 .2.3.5.7.7 1.1.2.4.5.7.7 1.1.2.3.4.7.6.9.2.3.3.5.4.7.1.3.2.4.2.5zm6.6-.4c0-.2 0-.6.1-.9.1-.4.1-.8.1-1.2.1-.4.1-.9.1-1.3s.1-.7.1-1-.1-.5-.2-.7c-.2-.2-.4-.3-.8-.3s-.7.1-.9.3-.5.5-.6 1c-.2.5-.3 1.1-.4 2-.1.9-.2 1.9-.3 3.3 0 .1-.1.2-.1.3-.1.1-.1.1-.3.1h-.6c-.3 0-.6-.1-.8-.1-.2-.1-.4-.2-.5-.3-.1-.1-.2-.3-.3-.5-.1-.2-.1-.4-.1-.6v-.7c0-.3.1-.7.1-1.2s.1-1.2.2-2 .1-1.8.2-3c0-.2.1-.4.1-.4.1-.1.1-.1.3-.1h.6c.3 0 .6.1.8.1.2.1.4.2.5.3.1.1.2.3.3.5.1.2.1.3.1.5.3-.6.7-1 1.1-1.2.5-.2 1-.3 1.6-.3.5 0 .9.1 1.2.2s.6.3.9.5c.2.2.4.5.5.9.1.4.2.9.2 1.4 0 .2 0 .4-.1.7 0 .3-.1.7-.1 1.1s-.1.8-.1 1.2c-.1.4-.1.8-.1 1.1-.1.3-.1.7-.1.9 0 .3-.1.5-.1.5 0 .2 0 .4-.1.4-.1.1-.2.1-.3.1h-.5c-.3 0-.6-.1-.9-.1-.2-.1-.4-.2-.5-.3-.1-.1-.2-.3-.2-.5-.1-.3-.1-.5-.1-.7zm8.1 1.6c-.7 0-1.4-.1-1.8-.3-.5-.2-.9-.5-1.1-.9-.3-.3-.5-.8-.6-1.3-.1-.5-.2-1-.2-1.6 0-.6.1-1.3.2-1.9.2-.6.4-1.1.8-1.7.4-.5.9-.9 1.5-1.1.6-.3 1.4-.5 2.3-.5 1.4 0 2.3.3 2.9 1 .6.6.9 1.6.9 2.8 0 .3 0 .7-.1 1.1-.1.4-.1.8-.3 1.2-.1.4-.3.8-.6 1.1-.2.4-.5.7-.9 1-.3.3-.8.5-1.3.7-.5.3-1 .4-1.7.4zm.7-7.1c-.4 0-.7.1-1 .3-.2.2-.4.5-.6.7-.1.3-.2.6-.2.9-.1.3-.1.6-.1.9 0 .7.1 1.3.3 1.5.2.3.6.5 1 .5s.7-.1.9-.3.5-.5.6-.9c.1-.3.2-.7.3-1 .1-.3.1-.7.1-.9 0-.5-.1-1-.3-1.3-.1-.2-.6-.4-1-.4zm9.4 4.9c.3 0 .6-.1.8-.1.2-.1.5-.2.6-.3.2-.1.3-.2.5-.3.1-.1.2-.1.3-.1.2 0 .4.2.4.5 0 .1 0 .2-.1.3-.1.2-.1.3-.1.4-.1.2-.1.3-.2.4-.1.1-.1.2-.2.3-.1.1-.2.1-.3.3-.1.1-.3.2-.5.3-.2.1-.5.2-.8.3s-.6.1-1 .1-.9-.1-1.3-.2c-.5-.1-.9-.3-1.2-.6s-.6-.7-.9-1.3-.3-1.2-.3-1.9c0-.3 0-.6.1-1s.1-.7.2-1.1c.1-.4.3-.7.5-1.1.2-.3.5-.7.8-1 .3-.3.7-.5 1.2-.7.5-.2 1-.3 1.7-.3.5 0 1 .1 1.4.2.4.1.7.3 1 .5.2.2.5.5.6.7s.2.6.2.9c0 .6-.2 1-.6 1.3-.4.2-.9.4-1.5.4-.2 0-.3 0-.3-.1-.1 0-.1-.1-.1-.2v-.7c0-.2-.1-.4-.1-.5s-.1-.2-.2-.3c-.1-.1-.2-.1-.4-.1-.3 0-.6.1-.8.3s-.3.5-.5.8c-.1.3-.2.6-.2 1s-.1.6-.1.8c0 .7.1 1.3.3 1.6.2.3.5.5 1.1.5zm11.8.7c0 .1 0 .2-.1.3-.1.2-.1.3-.3.5-.1.2-.3.3-.5.5-.2.1-.4.2-.6.2-.3 0-.6-.1-.9-.3s-.6-.5-.9-.8c-.3-.3-.6-.7-.9-1.2l-.9-1.5c-.1.6-.1 1.1-.1 1.7s-.1 1.1-.1 1.6c0 .1-.1.2-.1.3-.1.1-.1.1-.3.1h-.6c-.3 0-.6-.1-.8-.1-.2-.1-.4-.2-.5-.3-.1-.1-.2-.3-.2-.5-.1-.2-.1-.4-.1-.7v-.4c0-.1 0-.3.1-.6 0-.3.1-.6.1-1 .1-.4.1-1 .1-1.7.1-.7.1-1.5.2-2.6.1-1 .2-2.2.2-3.7 0-.2.1-.4.1-.4.1-.1.1-.1.3-.1h.6c.3 0 .6.1.8.1.2.1.4.2.5.3.1.1.2.3.3.5.1.2.1.3.1.5v.5c0 .2-.1.6-.1.9 0 .3-.1.7-.1 1.2-.1.5-.1.9-.1 1.4l2.6-2.3c.1-.1.2-.2.3-.2.1 0 .1-.1.2-.1s.2.1.4.2c.1.2.3.3.4.5l.3.6c.1.2.1.4.1.5 0 .3-.2.6-.7 1s-1.3.7-2.3 1.1c.5.5.9 1 1.3 1.4.4.4.7.8 1.1 1.1.3.3.6.6.7.8.3.5.4.6.4.7z"/></g></svg>