<?xml version="1.0" encoding="utf-8"?>
<!-- Generator: Adobe Illustrator 19.0.0, SVG Export Plug-In . SVG Version: 6.00 Build 0)  -->
<svg version="1.1" id="Слой_1" xmlns="http://www.w3.org/2000/svg" xmlns:xlink="http://www.w3.org/1999/xlink" x="0px" y="0px"
	 viewBox="0 0 304 1077.3" enable-background="new 0 0 304 1077.3" xml:space="preserve">
<g id="XMLID_5185_">
	<g id="Upstack">
        <a href="#upstack">
            <path id="XMLID_7995_" fill="#FFFFFF" fill-opacity="0" stroke="#5F52CA" stroke-miterlimit="10" d="M70.3,2.5 M70.3,1.1L1.2,40.9
                v79.5l69.1,39.8l69-39.9V40.5L70.3,1.1L70.3,1.1z"/>
                <g id="Layer_1_2_">
                    <g id="XMLID_7986_">
                        <path id="XMLID_7994_" fill="#5F52CA" d="M56.8,76.9c-3.1-0.3-5.6-0.6-5.6-2.2c0-0.4,0.1-0.8,0.5-1c0.9-0.9,3.1-1.3,4.8-1.3
                            c2.3,0,4.2,0.8,5.5,1.9l0.1,0.1l1.5-1.3l-0.1-0.1c-1.8-1.5-4.4-2.6-7.2-2.6c-1.9,0-3.7,0.4-5,1c-1.4,0.8-2.2,1.9-2.2,3.2
                            c0,1.4,0.8,3.5,7.3,4c3.9,0.3,5.6,0.8,5.6,2.2c0,1.7-1.9,2.6-5.1,2.6c-2.8,0-5-0.8-6.9-2.6l-0.1-0.1l-1.4,1.5l0.1,0.1
                            c2.1,1.8,5,3,8.2,3c4.4,0,7.3-1.8,7.3-4.6C64.1,78,60.5,77.2,56.8,76.9z"/>
                        <path id="XMLID_7993_" fill="#5F52CA" d="M101.6,72.3c2.4,0,4.4,0.9,5.3,2.6L107,75l1.9-0.9l-0.1-0.1c-1.4-2.2-4-3.5-7.2-3.5
                            c-5.3,0-8.6,2.8-8.6,7.4s3.2,7.4,8.5,7.4c3.2,0,5.8-1.3,7.2-3.5l0.1-0.1l-1.9-0.9l-0.1,0.1c-1,1.7-2.8,2.6-5.3,2.6
                            c-4.1,0-6.5-2.1-6.5-5.6C95.1,74.4,97.5,72.3,101.6,72.3z"/>
                        <polygon id="XMLID_7992_" fill="#5F52CA" points="119.2,76.4 126.4,70.8 123.4,70.8 113.2,78.7 113.2,70.8 111.1,70.8 111.1,85
                            113.2,85 113.2,81 117.5,77.6 124.1,85 126.6,85 				"/>
                        <polygon id="XMLID_7991_" fill="#5F52CA" points="65,70.8 65,72.6 71.6,72.6 71.6,84.9 73.6,84.9 73.6,72.6 79.3,72.6
                            80.3,70.8 				"/>
                        <polygon id="XMLID_7990_" fill="#5F52CA" points="83,70.8 87.7,79.4 80.4,79.4 79.4,81.2 88.8,81.2 90.8,85 93.1,85 85.3,70.8
                                            "/>
                        <path id="XMLID_7989_" fill="#5F52CA" d="M21.4,85.8c4.6,0,7.6-2.8,7.6-7.2V71h-2.2v7.4c0,3.2-1.9,5.3-5.4,5.3
                            c-3.3,0-5.4-1.9-5.4-5.3V71h-2.2v7.6C13.8,83.1,16.7,85.8,21.4,85.8z"/>
                        <polygon id="XMLID_7988_" fill="#5F52CA" points="13.9,90.9 45.1,90.9 45.1,88.9 13.9,88.9 				"/>
                        <path id="XMLID_7987_" fill="#5F52CA" d="M41,71h-9.5v2.2h9.4c2.2,0,3.5,0.9,3.5,2.6s-1.3,2.6-3.5,2.6h-9.4v7.2h2.2v-5H41
                            c3.5,0,5.6-1.8,5.6-4.6S44.5,71,41,71z"/>
                    </g>
                </g>
        </a>
	</g>
	<g id="Preeline">
        <a href="#preeline">
            <path id="XMLID_7962_" fill="#FFFFFF" fill-opacity="0" stroke="#5F52CA" stroke-miterlimit="10" d="M234,2.5 M234,1.1l-69.1,39.8
                v79.5l69.1,39.8l69-39.9V40.5L234,1.1L234,1.1z"/>
            <g id="XMLID_7973_">
                <path id="XMLID_7983_" fill="#5F52CA" d="M211.4,79c0,1.9-1,3-2.7,3h-1v3.2h-1.3v-9h2.3C210.4,76,211.4,77.1,211.4,79z M210.1,79
                    c0-1.2-0.5-1.7-1.4-1.7h-1v3.3h1C209.6,80.7,210.1,80,210.1,79z"/>
                <path id="XMLID_7980_" fill="#5F52CA" d="M220.8,81.7H220v3.2h-1.3v-9h2.3c1.7,0,2.7,1,2.7,2.8c0,1.4-0.6,2.3-1.7,2.7l1.9,3.5
                    h-1.4L220.8,81.7z M220,80.5h1c0.9,0,1.4-0.6,1.4-1.7c0-1-0.5-1.5-1.4-1.5h-1V80.5z"/>
                <path id="XMLID_7979_" fill="#5F52CA" d="M235.9,83.7v1.2h-4.5v-9h4.4v1.2h-3.1v2.6h2.8v1.2h-2.8v2.7h3.2V83.7z"/>
                <path id="XMLID_7978_" fill="#5F52CA" d="M248,83.7v1.2h-4.5v-9h4.4v1.2h-3.1v2.6h2.8v1.2h-2.8v2.7h3.2V83.7z"/>
                <path id="XMLID_7977_" fill="#5F52CA" d="M259.7,84.3V85h-4.1v-9h0.8v8.2H259.7z"/>
                <path id="XMLID_7976_" fill="#5F52CA" d="M267.8,76v9H267v-9H267.8z"/>
                <path id="XMLID_7975_" fill="#5F52CA" d="M280.9,76v9h-0.8l-2.4-5.3c-0.3-0.6-0.8-1.7-0.9-2.2l0,0c0,0.6,0,1.7,0,2.4v5H276v-9
                    h0.8l2.4,5.3c0.3,0.6,0.8,1.7,1,2.2l0,0c0-0.6-0.1-1.8-0.1-2.6V76H280.9z"/>
                <path id="XMLID_7974_" fill="#5F52CA" d="M293.3,84.3V85h-4.4v-9h4.2v0.8h-3.3v3.3h3.2v0.8h-3.2v3.5h3.5V84.3z"/>
            </g>
        </a>
		<path id="XMLID_5188_" fill="#5F52CA" d="M186.3,88.5l-6.9-7.5l-3.2,3.2l-0.9-0.9l3.2-3.2c-0.7-0.7-1.9-2.1-2-3.8
			c-0.1-0.9,0.2-1.8,0.9-2.5c0.6-0.7,1.3-1.1,2.2-1.1c0,0,0,0,0.1,0c2.2,0,4.5,2.4,4.6,2.5l0.4,0.5l-4.3,4.4l2.7,2.9l9.8-10.3
			l0.4,0.1c1.7,0.4,2.4,1.5,2.6,2.3c0.5,1.8-0.4,4-1.5,5.2L186.3,88.5z M183.8,83.9l2.5,2.7l7-7.3c0.9-0.9,1.6-2.6,1.2-3.9
			c-0.2-0.6-0.6-1.1-1.3-1.3L183.8,83.9z M179.6,74C179.6,74,179.6,74,179.6,74c-0.5,0-1,0.2-1.3,0.6c-0.4,0.5-0.6,1-0.6,1.6
			c0.1,1.2,1.1,2.4,1.6,2.9l3.4-3.5C182,74.9,180.7,74,179.6,74z"/>
	</g>
	<g id="Everseat">
        <a href="#preeline">
            <path id="XMLID_8038_" fill="#5F52CA" d="M151.9,175.9c-9.6,0-17.5,7.8-17.5,17.5s7.8,17.5,17.5,17.5s17.5-7.8,17.5-17.5
                S161.6,175.9,151.9,175.9z M162.5,195.8l-0.9,2.1c-0.1,0.3-0.3,0.4-0.5,0.4h-2.7c-0.4,0-0.8,0.5-0.5,0.9l4.4,6.5
                c0.1,0.3,0.1,0.6-0.1,0.8l-2.1,1.3c-0.3,0.1-0.6,0.1-0.8-0.1l-6-8.9c-0.1-0.1-0.3-0.3-0.5-0.3h-1.8c-0.1,0-0.4,0.1-0.5,0.3
                l-6.5,8.9c-0.1,0.3-0.5,0.3-0.8,0.1l-1.8-1.4c-0.3-0.1-0.3-0.5-0.1-0.8l4.5-6.3c0.3-0.4,0-0.9-0.5-0.9h-3.2
                c-0.3,0-0.5-0.3-0.5-0.5v-17.3c0-0.3,0.1-0.4,0.3-0.5l2.1-1.3c0.4-0.3,0.9,0,0.9,0.5v15.2c0,0.3,0.3,0.5,0.5,0.5h16.6
                C162.3,195.1,162.7,195.4,162.5,195.8z"/>
            <g id="XMLID_7999_">
                <path id="XMLID_8035_" fill="#5F52CA" d="M104.7,229c0,3,1.6,4.9,4,4.9c2.7,0,4.6-1.5,4.6-1.5l1,1.4c0,0-2.5,2.3-5.8,2.3
                    c-4.4,0-6.6-2.9-6.6-7.4c0-4.4,2.7-7.6,6.7-7.6c4,0,5.7,2.3,5.7,6.4c0,0.7-0.1,1.4-0.1,1.5H104.7z M111.4,226.9
                    c0-2-0.8-3.7-3-3.7c-2.2,0-3.4,1.7-3.6,3.7H111.4z"/>
                <path id="XMLID_8033_" fill="#5F52CA" d="M122.7,233.3l3.3-10l-1.9-0.4v-1.5l6.1-0.1v1.6l-1.5,0.3l-4.6,12.6h-3l-4.5-12.4
                    l-1.4-0.4v-1.5l6.1-0.1v1.6l-1.9,0.3L122.7,233.3z"/>
                <path id="XMLID_8030_" fill="#5F52CA" d="M133.7,229c0,3,1.6,4.9,4,4.9c2.7,0,4.6-1.5,4.6-1.5l1,1.4c0,0-2.5,2.3-5.8,2.3
                    c-4.4,0-6.6-2.9-6.6-7.4c0-4.4,2.7-7.6,6.7-7.6c4,0,5.7,2.3,5.7,6.4c0,0.7-0.1,1.4-0.1,1.5H133.7z M140.3,226.9
                    c0-2-0.8-3.7-3-3.7c-2.2,0-3.4,1.7-3.6,3.7H140.3z"/>
                <path id="XMLID_8028_" fill="#5F52CA" d="M150.3,223.3c0.7-0.8,2.3-2.3,4.1-2.3c1.4,0,2.5,0.4,2.5,0.4l-0.1,4H155l-0.4-2
                    c-2,0-3.4,1.3-4,2.1v8.1l2.7,0.7v1.5h-7.8v-1.5l2.3-0.7v-10.1l-2.3-0.5v-1.5l4.5-0.1L150.3,223.3z"/>
                <path id="XMLID_8026_" fill="#5F52CA" d="M160.6,233.8c0,0,0.8,0.2,2.3,0.2c1.6,0,3.1-0.5,3.1-2.2c0-3-7.6-1.6-7.6-6.6
                    c0-2.8,2.2-4.3,5-4.3c2.2,0,4.7,0.8,4.7,0.8l-0.1,3.7h-1.8l-0.4-2.1c0,0-0.8-0.3-2.2-0.3c-1.4,0-2.4,0.4-2.4,1.8
                    c0,2.9,7.6,1.8,7.6,6.5c0,3.1-2.7,4.7-6,4.7c-2.5,0-4.3-0.6-4.3-0.6v-4h1.9L160.6,233.8z"/>
                <path id="XMLID_8007_" fill="#5F52CA" d="M173.9,229c0,3,1.6,4.9,4,4.9c2.7,0,4.6-1.5,4.6-1.5l1,1.4c0,0-2.5,2.3-5.8,2.3
                    c-4.4,0-6.6-2.9-6.6-7.4c0-4.4,2.7-7.6,6.7-7.6c4,0,5.7,2.3,5.7,6.4c0,0.7-0.1,1.4-0.1,1.5H173.9z M180.6,226.9
                    c0-2-0.8-3.7-3-3.7c-2.2,0-3.4,1.7-3.6,3.7H180.6z"/>
                <path id="XMLID_8002_" fill="#5F52CA" d="M186.8,222.1c0,0,3-1.1,5.3-1.1c3.2,0,5.1,1.1,5.1,4.2v8.3l2.2,0.5v1.5l-4.2,0.1
                    l-0.6-1.9c-0.9,0.9-2.6,2.2-4.5,2.2c-2.6,0-4.1-1.5-4.1-4.1c0-3.1,2.5-4.2,6.3-4.2h2.2v-2.2c0-1.6-1-2.5-2.6-2.5
                    c-1.6,0-2.8,0.4-2.8,0.4l-0.4,2h-1.8L186.8,222.1z M192.5,229.5c-2.7,0-3.8,0.7-3.8,2.3c0,1.2,0.8,2,2,2c2,0,3.7-2.2,3.7-2.2
                    v-2.2H192.5z"/>
                <path id="XMLID_8000_" fill="#5F52CA" d="M210.1,223.5h-4v8.8c0,1.3,0.6,1.7,1.4,1.7c0.7,0,1.4-0.3,2.1-0.7l0.7,1.4
                    c-1.2,0.9-2.5,1.4-3.8,1.4c-1.6,0-3.1-0.9-3.1-4v-8.6h-2.7v-1.8l2.7-0.3V218l2.7-0.5v4h4V223.5z"/>
            </g>
            <path id="XMLID_7963_" fill="#FFFFFF" fill-opacity="0" stroke="#5F52CA" stroke-miterlimit="10" d="M152.2,131.6 M152.2,130.2
                L83.1,170v79.5l69.1,39.8l69-39.9v-79.7L152.2,130.2L152.2,130.2z"/>
        </a>
    </g>
	<g id="Daisy_Bill">
      <a href="#daisybill">
		<path id="XMLID_8078_" fill="#5F52CA" d="M23.3,328.5c-7.6,0-13.7,6.2-13.7,13.7S15.7,356,23.3,356S37,349.8,37,342.3
			S30.9,328.5,23.3,328.5z M32.3,345.6c-0.4,0-0.8-0.1-1-0.1c-0.1,0.3-0.1,0.4-0.3,0.6c1.2,0.5,1.9,1.7,1.9,3c0,1.8-1.4,3.2-3.2,3.2
			c-1.3,0-2.4-0.8-3-1.9c-0.1,0-0.3,0.1-0.4,0.1c0.1,0.4,0.3,0.6,0.3,1c0,1.8-1.4,3.2-3.2,3.2s-3.2-1.4-3.2-3.2c0-0.4,0.1-0.8,0.3-1
			c-0.1-0.1-0.4-0.1-0.5-0.3c-0.5,1-1.5,1.7-2.8,1.7c-1.8,0-3.2-1.4-3.2-3.2c0-1.3,0.8-2.3,1.8-2.8c0-0.1-0.1-0.3-0.1-0.4
			c-0.4,0.1-0.6,0.1-1,0.1c-1.8,0-3.2-1.4-3.2-3.2s1.4-3.2,3.2-3.2c0.4,0,0.8,0.1,1,0.1c0-0.1,0.1-0.4,0.3-0.5
			c-1-0.5-1.8-1.7-1.8-2.8c0-1.8,1.4-3.2,3.2-3.2c1.3,0,2.4,0.8,3,1.8c0.1-0.1,0.4-0.1,0.5-0.3c-0.1-0.4-0.3-0.8-0.3-1.2
			c0-1.8,1.4-3.2,3.2-3.2c1.8,0,3.2,1.4,3.2,3.2c0,0.4-0.1,0.8-0.3,1.2c0.1,0,0.3,0.1,0.5,0.1c0.5-1,1.7-1.8,3-1.8
			c1.8,0,3.2,1.4,3.2,3.2c0,1.3-0.8,2.3-1.8,3c0.1,0.1,0.1,0.3,0.3,0.5c0.4-0.1,0.6-0.3,1-0.3c1.8,0,3.2,1.4,3.2,3.2
			S34.1,345.6,32.3,345.6z"/>
		<circle id="XMLID_8077_" fill="#5F52CA" cx="23.3" cy="342.3" r="3.2"/>
		<g id="XMLID_8044_">
			<path id="XMLID_8074_" fill="#5F52CA" d="M41.2,348.4h2.2v-11.5h-2.2v-1.4h5.3c5.2,0,8.8,1.2,8.8,7.1c0,5.9-3.6,7.2-8.8,7.2h-5.3
				V348.4z M45.3,348.4h1.2c4,0,6.8-1.1,6.8-5.7s-2.7-5.7-6.8-5.7h-1.2V348.4z"/>
			<path id="XMLID_8071_" fill="#5F52CA" d="M64.4,347.8L64.4,347.8c-0.5,1.6-1.8,2.3-3.4,2.3c-2,0-3.9-0.9-3.9-3.1
				c0-3,3-3.2,5.4-3.2h1.9v-0.6c0-1.6-0.8-2.1-2.4-2.1c-1.4,0-2.5,0.3-2.6,1.7h-1.9c0.1-2.3,2.1-3.1,4.3-3.1c2.4,0,4.4,0.5,4.4,3.1
				v5.7H68v1.4h-3.5V347.8z M61.3,348.6c2.2,0,3.2-1.6,3.2-3.5h-1.5c-1.3,0-3.9,0-3.9,1.8C59.1,348.3,60.2,348.6,61.3,348.6z"/>
			<path id="XMLID_8068_" fill="#5F52CA" d="M69,348.4h1.7v-7.2H69v-1.4h3.5v8.6h1.7v1.4H69V348.4z M72.5,337.6h-2.1v-2.1h2.1V337.6
				z"/>
			<path id="XMLID_8066_" fill="#5F52CA" d="M75.6,349.8v-3.5H77c0,1,0.4,1.5,1,1.9c0.6,0.3,1.4,0.4,2.2,0.4c0.9,0,2.1-0.5,2.1-1.5
				c0-1.4-1.5-1.3-2.6-1.5c-1.8-0.3-4.1-0.5-4.1-2.8c0-2.1,2-3.1,3.9-3.1c1.3,0,2.5,0.4,3,1.4h0v-1.2h1.4v3.3h-1.4
				c0-0.9-0.3-1.4-0.8-1.7c-0.5-0.3-1.2-0.4-1.9-0.4c-1,0-2.4,0.3-2.4,1.5c0,1.1,1.7,1.2,3,1.4c1.8,0.3,3.8,0.6,3.8,2.8
				c0,2.3-2.1,3.2-4.1,3.2c-1.2,0-2.6-0.5-3-1.6h0v1.4H75.6z"/>
			<path id="XMLID_8064_" fill="#5F52CA" d="M97.2,341.2h-1.1l-4.1,9.5c-0.7,1.7-1.2,2.9-3.2,2.9c-0.5,0-0.9-0.1-1.4-0.1v-1.4
				c0.3,0,0.7,0.1,1,0.1c1.5,0,1.6-1.2,2.2-2.4l-3.9-8.6h-1.1v-1.4h5v1.4h-1.9l2.9,6.7l2.8-6.7h-1.9v-1.4h4.7V341.2z"/>
			<path id="XMLID_8060_" fill="#5F52CA" d="M98.1,348.4h2.2v-11.5h-2.2v-1.4h6.5c2.4,0,5.5,0.1,5.5,3.8c0,1.5-1.1,2.9-2.8,3.1v0
				c2,0,3.3,1.2,3.3,3.3c0,3.5-2.8,4-6,4h-6.5V348.4z M102.3,341.9h2.3c1.8,0,3.5-0.3,3.5-2.6c0-2.4-2.1-2.4-3.5-2.4h-2.3V341.9z
				 M102.3,348.4h2.3c2,0,3.9-0.3,3.9-2.6c0-2.2-1.8-2.5-3.9-2.5h-2.3V348.4z"/>
			<path id="XMLID_8049_" fill="#5F52CA" d="M112.7,348.4h1.7v-7.2h-1.7v-1.4h3.5v8.6h1.7v1.4h-5.2V348.4z M116.2,337.6h-2.1v-2.1
				h2.1V337.6z"/>
			<path id="XMLID_8047_" fill="#5F52CA" d="M118.8,348.4h1.7v-11.5h-1.7v-1.4h3.5v12.9h1.7v1.4h-5.2V348.4z"/>
			<path id="XMLID_8045_" fill="#5F52CA" d="M124.8,348.4h1.7v-11.5h-1.7v-1.4h3.5v12.9h1.7v1.4h-5.2V348.4z"/>
		</g>
		<path id="XMLID_7964_" fill="#FFFFFF" fill-opacity="0" stroke="#5F52CA" stroke-miterlimit="10" d="M70.5,263.9 M70.5,262.5
			L1.5,302.3v79.5l69.1,39.8l69-39.9V302L70.5,262.5L70.5,262.5z"/>
	  </a>
    </g>
	<g id="Beatthread">
      <a href="#beatthread">
		<path id="XMLID_8121_" fill="#5F52CA" d="M258.5,328.9c-0.8-12.1-10.5-22.1-22.7-23c-4.9-0.4-9.6,0.6-13.9,2.8l-9.5-8.3
			c-0.6-0.5-1.5-0.8-2.3-0.4c-0.8,0.4-1.3,1.2-1.3,2.1v29c0,0,0,0,0,0.1c0.1,6.5,2.8,12.6,7.4,17.2s10.9,7.2,17.5,7.2
			c6.8,0,13.5-2.8,18.2-8C256.6,342.5,259,335.8,258.5,328.9z M250.9,346.8c-4.5,4.8-10.7,7.4-17.2,7.4c-6.2,0-12.1-2.4-16.6-6.8
			c-4.2-4.1-6.7-9.8-6.9-15.7h6.7c1.2,0,2.2-0.9,2.2-1.9V327c0-0.3,0.4-0.5,0.9-0.5s0.9,0.3,0.9,0.5v10.9c0,1,1,1.9,2.2,1.9
			c1.2,0,2.2-0.9,2.2-1.9v-13.6c0-0.3,0.4-0.5,0.9-0.5s0.9,0.3,0.9,0.5v15c0,1,1,1.9,2.2,1.9c1.2,0,2.2-0.9,2.2-1.9v-18.7
			c0-0.3,0.4-0.5,0.9-0.5s0.9,0.3,0.9,0.5v17.3c0,1,1,1.9,2.2,1.9c1.2,0,2.2-0.9,2.2-1.9v-15c0-0.3,0.4-0.5,0.9-0.5s0.9,0.3,0.9,0.5
			v15c0,1,1,1.9,2.2,1.9s2.2-0.9,2.2-1.9v-13.6c0-0.3,0.4-0.5,0.9-0.5c0.5,0,0.9,0.3,0.9,0.5v10.9c0,1,1,1.9,2.2,1.9
			s2.2-0.9,2.2-1.9v-2.8c0-0.3,0.4-0.5,0.9-0.5h6.5C257,337.4,254.8,342.7,250.9,346.8z M248.4,332.4v2.8c0,0.3-0.4,0.5-0.9,0.5
			c-0.5,0-0.9-0.3-0.9-0.5v-10.9c0-1-1-1.9-2.2-1.9s-2.1,0.9-2.1,1.9v13.6c0,0.3-0.4,0.5-0.9,0.5c-0.5,0-0.9-0.3-0.9-0.5v-15
			c0-1-1-1.9-2.2-1.9s-2.2,0.9-2.2,1.9v15c0,0.3-0.4,0.5-0.9,0.5s-0.9-0.3-0.9-0.5v-17.3c0-1-1-1.9-2.2-1.9c-1.2,0-2.2,0.9-2.2,1.9
			v18.7c0,0.3-0.4,0.5-0.9,0.5s-0.9-0.3-0.9-0.5v-15c0-1-1-1.9-2.2-1.9c-1.2,0-2.2,0.9-2.2,1.9v13.6c0,0.3-0.4,0.5-0.9,0.5
			s-0.9-0.3-0.9-0.5V327c0-1-1-1.9-2.2-1.9c-1.2,0-2.2,0.9-2.2,1.9v2.8c0,0.3-0.4,0.5-0.9,0.5H210v-28.2c0-0.4,0.1-0.6,0.5-0.8
			c0.4-0.1,0.6-0.1,0.9,0.1l9.8,8.6c0.3,0.1,0.5,0.3,0.8,0.1c4.1-2.3,8.7-3.3,13.5-3c11.4,0.9,20.7,10.3,21.4,21.8
			c0,0.4,0,0.9,0,1.4h-6.5C249.4,330.5,248.4,331.4,248.4,332.4z"/>
		<g id="XMLID_8109_" enable-background="new    ">
			<path id="XMLID_8117_" fill="#5F52CA" d="M190.4,371.9c0,2-1.8,3.4-4.5,3.4l-4.4,0c-0.3,0-0.4-0.3-0.4-0.6v-9.8
				c0-0.3,0.2-0.4,0.4-0.4h4.2c2.6,0,4.2,1.2,4.2,3c0,0.9-0.4,1.6-1.2,2C189.8,369.9,190.4,370.8,190.4,371.9z M183.7,366.3v2.6h2.3
				c0.9,0,1.6-0.5,1.6-1.3c0-0.8-0.7-1.3-1.7-1.3H183.7z M187.9,371.9c0-0.9-0.8-1.3-1.9-1.3h-2.4v2.9l2.4,0
				C187.2,373.5,187.9,372.8,187.9,371.9z"/>
			<path id="XMLID_8115_" fill="#5F52CA" d="M200.9,373.7l-0.2,1.3c0,0.2-0.1,0.3-0.3,0.3h-5.7h-1.8c-0.3,0-0.4-0.2-0.4-0.4v-10
				c0-0.3,0.2-0.4,0.4-0.4h2.2h4.9c0.2,0,0.3,0.1,0.3,0.3l0.1,1.3c0,0.3-0.1,0.4-0.4,0.4h-4.9v2.3h4c0.2,0,0.3,0.1,0.3,0.3v1.5
				c0,0.2-0.1,0.3-0.3,0.3h-4v2.4h5.4C200.8,373.3,200.9,373.4,200.9,373.7z"/>
			<path id="XMLID_8112_" fill="#5F52CA" d="M212.3,375.3l-1.5,0.2c-0.3,0-0.5-0.1-0.6-0.4l-0.7-2H205l-0.7,1.8
				c-0.1,0.3-0.3,0.4-0.5,0.4h-1.5c-0.4,0-0.5-0.2-0.4-0.6l3.7-9.9c0.1-0.3,0.3-0.4,0.6-0.4h2c0.3,0,0.5,0.1,0.6,0.4l3.9,9.9
				C212.8,375,212.7,375.2,212.3,375.3z M208.9,371.2l-1.6-4.4l-1.6,4.4H208.9z"/>
			<path id="XMLID_8110_" fill="#5F52CA" d="M222.4,364.7v1.6c0,0.2-0.1,0.3-0.3,0.3h-3.7v8.4c0,0.2-0.1,0.3-0.3,0.3h-2
				c-0.2,0-0.3-0.1-0.3-0.3v-8.4h-3.6c-0.3,0-0.4-0.2-0.4-0.5l0.1-1.4c0-0.2,0.1-0.3,0.3-0.3h6.1h3.7
				C222.3,364.4,222.4,364.5,222.4,364.7z"/>
		</g>
		<g id="XMLID_8085_" enable-background="new    ">
			<path id="XMLID_8107_" fill="#5F52CA" d="M233.8,364.5v0.2c0,0.1,0,0.1-0.1,0.1h-4.8v10.4c0,0,0,0.1-0.1,0.1h-0.2
				c0,0-0.1,0-0.1-0.1v-10.4h-4.8c-0.1,0-0.2,0-0.1-0.2l0-0.1c0-0.1,0.1-0.1,0.1-0.1h5.1L233.8,364.5
				C233.8,364.4,233.8,364.5,233.8,364.5z"/>
			<path id="XMLID_8105_" fill="#5F52CA" d="M244.7,364.5v10.7c0,0,0,0.1-0.1,0.1h-0.2c0,0-0.1,0-0.1-0.1v-5.1h-8.3v5.1
				c0,0,0,0.1-0.1,0.1h-0.2c-0.1,0-0.1,0-0.1-0.1v-10.7c0-0.1,0-0.1,0.1-0.1h0.2c0,0,0.1,0,0.1,0.1v5.3h8.3v-5.3
				c0-0.1,0-0.1,0.1-0.1L244.7,364.5C244.7,364.4,244.7,364.5,244.7,364.5z"/>
			<path id="XMLID_8102_" fill="#5F52CA" d="M256.7,375.3h-0.2c0,0-0.1,0-0.2-0.1l-2.4-4.5c-0.5,0.1-1.2,0.2-1.8,0.2h-3.1v4.3
				c0,0,0,0.1-0.1,0.1h-0.2c-0.1,0-0.1,0-0.1-0.1v-10.6c0-0.1,0.1-0.1,0.1-0.1h3.6c2.6,0,4.1,1,4.1,3.2c0,1.6-0.8,2.6-2.3,3l2.5,4.5
				C256.8,375.2,256.8,375.3,256.7,375.3z M252.1,370.6c2.6,0,4.1-0.8,4.1-2.9c0-2.1-1.4-2.9-3.8-2.9l-3.4,0v5.8H252.1z"/>
			<path id="XMLID_8100_" fill="#5F52CA" d="M267.4,375l0,0.2c0,0,0,0.1-0.1,0.1h-7.4h0c-0.1,0-0.2-0.1-0.2-0.2v-10.5
				c0-0.1,0.1-0.2,0.2-0.2h6.9c0,0,0.1,0,0.1,0.1l0,0.1c0,0.1,0,0.1-0.1,0.1H260v4.8h5.6c0,0,0.1,0,0.1,0.1v0.2c0,0.1,0,0.1-0.1,0.1
				H260v5L267.4,375C267.3,375,267.4,375,267.4,375z"/>
			<path id="XMLID_8089_" fill="#5F52CA" d="M278,375.3h-0.1c0,0-0.1,0-0.1-0.1l-1.4-3.1h-6.6l-1.4,3.1c0,0-0.1,0.1-0.1,0.1h-0.1
				c-0.1,0-0.1-0.1-0.1-0.2l4.8-10.6c0-0.1,0.1-0.1,0.2-0.1h0.1c0.1,0,0.1,0,0.2,0.1l4.8,10.6C278.1,375.2,278.1,375.3,278,375.3z
				 M276.3,371.8l-3.2-6.9l-3.1,6.9H276.3z"/>
			<path id="XMLID_8086_" fill="#5F52CA" d="M280.2,375.3c-0.1,0-0.1-0.1-0.1-0.1v-10.6c0,0,0.1-0.1,0.1-0.1h3.5
				c3.6,0,5.8,2.2,5.8,5.5c0,3.5-2.1,5.3-6.1,5.3L280.2,375.3z M283.4,375c3.8,0,5.8-1.7,5.8-5c0-3.2-2-5.2-5.4-5.2l-3.3,0v10.2
				L283.4,375z"/>
		</g>
		<path id="XMLID_7965_" fill="#FFFFFF" fill-opacity="0" stroke="#5F52CA" stroke-miterlimit="10" d="M233.7,263.9 M233.7,262.5
			l-69.1,39.8v79.5l69.1,39.8l69-39.9V302L233.7,262.5L233.7,262.5z"/>
      </a>
    </g>
	<g id="Invoyis">
      <a href="#invoyis">
		<path id="XMLID_8129_" fill="#5F52CA" d="M165.2,450.5c-13,0-23.2,10.7-23.4,23.8c0,13.2,10.5,24,23.4,23.9
			c12.7,0,23.2-10.9,23.1-23.9C188.5,461.1,178.1,450.5,165.2,450.5z M165.2,491.4c-9.1,0-16.6-7.7-16.6-17.1
			c0-9.5,7.4-17.1,16.7-17.1c9,0,16.3,7.7,16.3,17.1C181.7,483.7,174.2,491.4,165.2,491.4z"/>
		<path id="XMLID_8128_" fill="#5F52CA" d="M139.9,474.5c0-8,3.6-15.2,9.1-19.9c0.3-0.5,0.4-1,0.4-1.2c-2.7,0-5.3,0.1-7.8,0
			c-1.5-0.1-2.2,0.5-2.7,1.8c-2.8,6.9-5.9,13.7-8.9,20.8c-0.3-0.6-0.5-1.2-0.8-1.5c-2.7-6.3-5.4-12.6-8.1-18.9
			c-0.6-1.5-1.3-2.3-3.1-2.2c-2.4,0.1-4.9,0-7.6,0c0.3,0.6,0.5,1.2,0.6,1.7c4.6,10.8,9.1,21.4,13.7,32.2c0.6,1.4,0.9,3.5,2.1,4.2
			c1.2,0.9,5.9,1.3,6.7-0.8c2.1-4.9,4.1-9.9,6.3-14.8C139.9,475.5,139.9,475,139.9,474.5z"/>
		<path id="XMLID_7966_" fill="#FFFFFF" fill-opacity="0" stroke="#5F52CA" stroke-miterlimit="10" d="M152.3,395.4 M152.3,394
			l-69.1,39.8v79.5l69.1,39.8l69-39.9v-79.7L152.3,394L152.3,394z"/>
	  </a>
    </g>
	<g id="SPLIT">
      <a href="#split">
		<g id="XMLID_8195_">
			<path id="XMLID_8208_" fill="#5F52CA" d="M18,593.7c3.8,0.2,6.3,1.3,8.4,3.4c0.3,0.3,0.5,0.7,0.5,0.7l-1.8,1.8l-1.4-1.4l0.4-0.5
				c0,0-0.4-0.3-0.7-0.6c-3-2-7.2-2-10.2-0.1c-0.8,0.5-0.8,0.7-0.8,0.7c4.4,4.3,9.3,9.4,13.7,13.7l0.7,0.8
				c-2.3,5.1-12.4,5.2-16.6,0.9c-0.2-0.2-0.6-0.7-0.6-0.7l1.7-1.9l1.5,1.4l-0.5,0.6c0,0,0.4,0.3,0.7,0.5c3.3,2,9.9,1.7,11.1-0.7
				c0,0-10.3-10.2-14.6-14.5c0,0,0-0.5,0.8-1.2C12.9,594.6,15.7,593.6,18,593.7z"/>
			<polygon id="XMLID_8207_" fill="#5F52CA" points="55.2,593.6 57.1,593.7 57.1,614.7 69.4,614.7 69.4,613.8 71.1,613.8
				71.1,616.6 55.2,616.6 			"/>
			<path id="XMLID_8204_" fill="#5F52CA" d="M42.6,593.8c-3.4-0.2-11.1-0.1-11.1-0.1v1.8h0.8l0,21.2h1.8l0-7.1c0,0,5.7,0,8,0
				c4.4-0.1,7.7-3.5,7.9-7.8C50.1,597.7,46.8,594.1,42.6,593.8z M41.8,607.7c-2.3,0.1-7.7,0-7.7,0l0-12.3c0,0,0.2,0,1,0
				c2.2,0.1,4.4,0,6.7,0.1c3.6,0.1,6.3,2.7,6.3,6C48.1,604.8,45.4,607.5,41.8,607.7z"/>
			<path id="XMLID_8201_" fill="#5F52CA" d="M119.7,593.7c-6.3,0-11.4,5.1-11.4,11.5c0,6.3,5.2,11.5,11.5,11.4
				c6.3,0,11.3-5.1,11.3-11.4C131.1,598.8,126,593.7,119.7,593.7z M119.7,615.1c-5.4-0.1-9.9-4.6-9.9-10c0-5.4,4.6-9.9,10-9.9
				c5.4,0,9.9,4.6,9.9,10C129.6,610.6,125,615.2,119.7,615.1z"/>
			<path id="XMLID_8200_" fill="#5F52CA" d="M112.6,605.9c0,0-0.5-7.5,7.9-7.5l0,2.5h-1.4l0-1.2c-5,0.8-4.9,4.6-4.9,4.6h4.9v1.5
				H112.6z"/>
			<rect id="XMLID_8199_" x="76.3" y="593.7" fill="#5F52CA" width="1.9" height="22.9"/>
			<rect id="XMLID_8198_" x="92.2" y="593.7" fill="#5F52CA" width="1.9" height="22.9"/>
			<polygon id="XMLID_8197_" fill="#5F52CA" points="102.8,596.5 102.8,593.7 83.4,593.7 83.4,596.5 85.5,596.5 85.4,595.6
				100.8,595.6 100.8,596.5 			"/>
			<path id="XMLID_8196_" fill="#5F52CA" d="M126.9,604.4c0,0,0.5,7.5-7.9,7.5l0-2.5h1.4l0,1.2c5-0.8,4.9-4.6,4.9-4.6h-4.9v-1.5
				H126.9z"/>
		</g>
		<path id="XMLID_8184_" fill="#FFFFFF" fill-opacity="0" stroke="#5F52CA" stroke-miterlimit="10" d="M70.5,527 M70.5,525.6
			L1.4,565.4v79.5l69.1,39.8l69-39.9V565L70.5,525.6L70.5,525.6z"/>
	  </a>
    </g>
	<g id="Mediprocity">
      <a href="#mediprocity">
		<g id="XMLID_8135_">
			<g id="XMLID_8149_">
				<path id="XMLID_8181_" fill="#5F52CA" d="M217.2,606.2h-7.1c0.1,0.4,0.2,0.7,0.4,0.9c0.4,0.5,0.9,0.7,1.6,0.7
					c0.6,0,1.1-0.2,1.4-0.7h3.6c-0.2,0.8-0.7,1.5-1.3,2c-0.5,0.4-1.1,0.7-1.8,0.9c-0.7,0.2-1.3,0.3-2,0.3c-1.1,0-2-0.2-2.9-0.7
					c-0.9-0.5-1.6-1.3-2.1-2.4c-0.3-0.7-0.4-1.4-0.4-2.1c0-1.6,0.6-2.9,1.8-3.9c0.9-0.8,2.1-1.2,3.4-1.2c1.4,0,2.6,0.4,3.5,1.2
					C216.6,602.4,217.2,604,217.2,606.2z M213.5,604.1c0-0.4-0.1-0.7-0.3-0.9c-0.3-0.4-0.7-0.6-1.3-0.6c-0.6,0-1,0.2-1.3,0.6
					c-0.2,0.2-0.3,0.6-0.4,1H213.5z"/>
				<path id="XMLID_8178_" fill="#5F52CA" d="M227,596.6V610h-3.4v-1.1c-0.3,0.4-0.6,0.7-1,0.9c-0.5,0.3-1.2,0.5-2,0.5
					c-1.4,0-2.4-0.5-3.2-1.4c-0.8-1-1.1-2.2-1.1-3.7c0-1.5,0.4-2.7,1.1-3.7c0.8-1,1.8-1.5,3.1-1.5c1.2,0,2.1,0.4,2.8,1.3v-4.7H227z
					 M221.6,602.8c-0.6,0-1,0.2-1.3,0.7c-0.2,0.4-0.4,0.9-0.4,1.6c0,0.7,0.2,1.3,0.5,1.7c0.3,0.4,0.7,0.6,1.2,0.6
					c0.6,0,1.1-0.3,1.4-0.8c0.2-0.4,0.4-0.9,0.4-1.6c0-0.6-0.1-1.2-0.4-1.5C222.7,603.1,222.2,602.8,221.6,602.8z"/>
				<path id="XMLID_8175_" fill="#5F52CA" d="M231.3,596.6v2.6h-3.7v-2.6H231.3z M231.3,600.4v9.6h-3.7v-9.6H231.3z"/>
				<path id="XMLID_8172_" fill="#5F52CA" d="M235.5,600.4v1.2c0.3-0.4,0.6-0.7,0.9-0.9c0.6-0.4,1.2-0.6,2-0.6
					c1.3,0,2.3,0.5,3.1,1.4c0.8,0.9,1.2,2.2,1.2,3.8c0,1.5-0.3,2.6-1,3.5c-0.8,1-1.9,1.5-3.3,1.5c-0.7,0-1.3-0.2-1.9-0.5
					c-0.3-0.2-0.6-0.4-0.9-0.8v4.1H232v-12.8H235.5z M237.3,603.1c-0.5,0-0.9,0.2-1.2,0.6c-0.3,0.4-0.5,1-0.5,1.7
					c0,0.7,0.1,1.2,0.4,1.6c0.3,0.5,0.8,0.7,1.3,0.7c0.6,0,1.1-0.3,1.3-0.8c0.2-0.4,0.3-0.9,0.3-1.5c0-0.8-0.2-1.4-0.5-1.8
					C238.2,603.3,237.8,603.1,237.3,603.1z"/>
				<path id="XMLID_8170_" fill="#5F52CA" d="M245.5,600.4v1.4c0.7-1,1.7-1.6,2.9-1.6c0.3,0,0.6,0,1,0.1v3c-0.4-0.1-0.7-0.1-1-0.1
					c-1,0-1.8,0.3-2.2,1c-0.3,0.4-0.4,1-0.4,1.8v4h-3.7v-9.6H245.5z"/>
				<path id="XMLID_8167_" fill="#5F52CA" d="M253,600.1c1,0,1.9,0.2,2.8,0.7c0.9,0.5,1.6,1.2,2,2.1c0.3,0.7,0.5,1.5,0.5,2.3
					c0,1.5-0.5,2.7-1.5,3.7c-0.5,0.5-1.1,0.9-1.9,1.1c-0.6,0.2-1.3,0.3-2,0.3c-1,0-2-0.2-2.8-0.7c-0.9-0.5-1.6-1.2-2-2.1
					c-0.3-0.7-0.5-1.5-0.5-2.3c0-1.5,0.5-2.7,1.5-3.7C250.1,600.6,251.4,600.1,253,600.1z M252.9,602.6c-1.1,0-1.7,0.9-1.7,2.6
					c0,1.7,0.6,2.6,1.7,2.6c1.1,0,1.7-0.9,1.7-2.6C254.6,603.5,254.1,602.6,252.9,602.6z"/>
				<path id="XMLID_8165_" fill="#5F52CA" d="M264.3,606.1l3.5,0.1c0,1.1-0.4,2-1.2,2.8c-0.5,0.5-1.1,0.9-1.8,1.1
					c-0.6,0.2-1.3,0.3-2,0.3c-1.7,0-3-0.6-4.1-1.8c-0.8-0.9-1.2-2.1-1.2-3.4c0-1.1,0.3-2.1,0.9-3c0.5-0.7,1.2-1.3,2.1-1.7
					c0.7-0.3,1.5-0.5,2.4-0.5c1.7,0,3,0.5,3.9,1.6c0.5,0.6,0.9,1.4,1,2.3l-3.5,0.1c-0.2-0.9-0.6-1.4-1.5-1.4c-0.6,0-1,0.2-1.2,0.7
					c-0.3,0.5-0.4,1.1-0.4,1.9c0,0.7,0.1,1.2,0.3,1.7c0.3,0.6,0.7,0.9,1.4,0.9c0.6,0,1-0.3,1.2-0.8
					C264.2,606.7,264.3,606.4,264.3,606.1z"/>
				<path id="XMLID_8162_" fill="#5F52CA" d="M271.2,596.6v2.6h-3.7v-2.6H271.2z M271.2,600.4v9.6h-3.7v-9.6H271.2z"/>
				<path id="XMLID_8160_" fill="#5F52CA" d="M276,597.3v3.1h1.7v2.2H276v3.6c0,0.5,0.1,0.8,0.3,0.9c0.2,0.1,0.4,0.2,0.6,0.2
					c0.2,0,0.4,0,0.8-0.1v2.8c-0.9,0.2-1.7,0.2-2.5,0.2c-1.3,0-2.2-0.4-2.6-1.3c-0.2-0.3-0.3-0.7-0.3-1.3c0-0.2,0-0.6,0-1.3v-3.9
					H271v-2.2h1.3v-3.1H276z"/>
				<path id="XMLID_8158_" fill="#5F52CA" d="M287,600.4l-3,8.8c-0.6,1.6-1.2,2.7-1.9,3.3c-0.5,0.4-1.2,0.6-2,0.6
					c-0.2,0-0.5,0-0.9,0h-1.9v-2.8c0.6,0,0.9,0,0.9,0c0.8,0,1.1-0.2,1.1-0.7c0-0.2-0.1-0.6-0.2-1l-3.1-8.2h3.8l1.7,6l1.7-6H287z"/>
			</g>
			<g id="XMLID_8146_">
				<path id="XMLID_8147_" fill="#5F52CA" d="M193.2,600.4v1.4c0.7-1.1,1.7-1.7,3-1.7c1.4,0,2.4,0.6,3,1.7c0.3-0.4,0.6-0.8,0.8-1
					c0.6-0.5,1.4-0.7,2.4-0.7c1,0,1.8,0.3,2.4,0.8c0.6,0.5,0.9,1.2,1.1,2c0.1,0.4,0.1,0.8,0.1,1.3v5.9c0,0,0,1.8,1.7,1.8
					c1.7,0,2-1.3,2-1.3c0.9,0.6,3.1,0.8,4.2,0c0,0-1.5,5-6.2,5c-5.3,0-5.3-5.5-5.3-5.5v-5c0-0.6,0-1-0.1-1.2
					c-0.2-0.5-0.5-0.7-1.1-0.7c-1,0-1.4,0.7-1.4,2.1v4.8h-3.7v-5c0-0.6,0-1-0.1-1.2c-0.2-0.5-0.5-0.7-1.1-0.7c-1,0-1.4,0.7-1.4,2.1
					v4.8h-3.7v-9.6H193.2z"/>
			</g>
			<path id="XMLID_8144_" fill="#5F52CA" d="M207.3,616.3l-3,0c-1.9,1.1-4.1,1.7-6.4,1.7c-7.2,0-13-5.8-13-13c0-7.2,5.8-13,13-13
				c5.3,0,9.8,3.2,11.9,7.7c0,0,2.2-0.9,4.2,0.1c-1.9-6.9-8.7-11.5-16-11.5c-9.2,0-16.7,7.5-16.7,16.7c0,9.2,7.5,16.7,16.7,16.7
				c3.5,0,6.8-1.1,9.5-2.9L207.3,616.3z"/>
		</g>
		<path id="XMLID_7968_" fill="#FFFFFF" fill-opacity="0" stroke="#5F52CA" stroke-miterlimit="10" d="M234.2,527 M234.2,525.6
			l-69.1,39.8v79.5l69.1,39.8l69-39.9V565L234.2,525.6L234.2,525.6z"/>
	  </a>
    </g>
	<g id="XMLID_7961_">
		<polygon id="XMLID_8227_" fill="#FFFFFF" fill-opacity="0" stroke="#5F52CA" stroke-miterlimit="10" points="152.1,656.1
			83.1,695.9 83.1,775.4 152.1,815.2 221.1,775.3 221.1,695.6 152.1,656.1 		"/>
		<path id="XMLID_7969_" fill="#5F52CA" d="M98.9,725.6v19.8h6.4v-19.8H98.9 M107.2,729.5v16h6.4v-19.8L107.2,729.5 M118.7,725.6
			v16.7l6.4,3.2v-19.8H118.7 M127.1,725.6v19.8l6.4-3.2v-16.7H127.1 M138.6,725.6v19.8h6.4v-19.8H138.6 M146.4,728.8v16.7h6.4v-19.8
			L146.4,728.8 M154.7,728.8v16.7h6.4v-19.8L154.7,728.8 M166.3,728.8v13.5l6.4,3.2v-19.8L166.3,728.8 M173.9,725.6v19.8h6.4v-19.8
			H173.9 M190,726h1.9v10.4h3.2v1.7h-5L190,726L190,726z M202,738.1h-1.9l-0.3-2.2h-2.3l-0.3,2.2h-1.7l1.9-12.1h2.8L202,738.1
			L202,738.1z M197.7,734.2h1.9l-0.9-6.1h-0.1L197.7,734.2z M208.6,728.8v0.5c0,1.2-0.4,2-1.2,2.4v0.1c1,0.4,1.4,1.3,1.4,2.6v1
			c0,1.9-1,2.9-2.9,2.9h-3v-12.1h2.9C207.7,726,208.6,726.9,208.6,728.8L208.6,728.8z M204.8,727.7v3.2h0.8c0.7,0,1.2-0.3,1.2-1.3
			V729c0-0.8-0.3-1.2-1-1.2L204.8,727.7L204.8,727.7z M204.8,732.6v3.7h1.1c0.6,0,1-0.3,1-1.2v-1c0-1.1-0.4-1.5-1.2-1.5H204.8
			L204.8,732.6z"/>
	</g>
	<g id="Founder_suite">
		<polygon id="XMLID_8269_" fill="#FFFFFF" fill-opacity="0" stroke="#5F52CA" stroke-miterlimit="10" points="70.1,787.1 1,826.9
			1,906.4 70.1,946.2 139,906.3 139,826.5 70.1,787.1 		"/>
		<g id="XMLID_8266_">
			<path id="XMLID_8268_" fill="#5F52CA" d="M88.6,869.5c0,2.2-0.8,4.1-4.5,4.1H65c-0.4-1.8,0.8-5.7,2.5-6.9c1.4-1.2,3.3-1.2,4.9-1
				c4.5,0.4,5.3-2.6,5.5-5.9c0.4-3.7-2-4.7-5.1-4.5c-2.5,0-4.7-0.4-4.7-3.3c0-3,2.5-3.7,4.9-3.5c4.7,0.6,7.1-1.4,7.3-6.1
				c0.4-2,1.4-3,3.5-3h4.9L88.6,869.5L88.6,869.5z"/>
			<path id="XMLID_8267_" fill="#5F52CA" d="M52.6,844.4c0,0-0.4-4.9,5.1-5.1h17.9c0,1.8-0.2,4.1-1.2,5.3c-1.4,1.8-3.5,2-5.5,1.8
				c-4.7-0.4-5.5,2.9-5.7,6.1c-0.2,3.7,2.5,4.3,5.5,4.1c2.5-0.2,4.3,0.6,4.3,3.3c0,2.9-1.8,3.9-4.5,3.5c-4.9-0.6-7.7,1.2-8,6.3
				c-0.2,4.3-7.7,3.5-7.7,3.5L52.6,844.4z"/>
		</g>
		<g id="XMLID_8243_">
			<path id="XMLID_8265_" fill="#5F52CA" d="M28.1,879.6c-1.5-0.1-2.2,0.5-2.2,1.8v0.2h2.2v1.9h-2.2v7.3h-2v-7.3v-1.9v-0.2
				c0-1.3,0.4-2.2,1.1-2.9c0.7-0.6,1.8-0.9,3.1-0.9L28.1,879.6L28.1,879.6z"/>
			<path id="XMLID_8262_" fill="#5F52CA" d="M32.1,891c-1.3,0-2.5-0.5-3.5-1.4c-0.9-0.9-1.4-2-1.4-3.5c0-1.3,0.5-2.5,1.4-3.5
				c0.9-0.9,2.1-1.4,3.5-1.4c1.3,0,2.5,0.5,3.5,1.4c0.9,0.9,1.4,2,1.4,3.5c0,1.3-0.5,2.5-1.4,3.5C34.7,890.6,33.5,891,32.1,891z
				 M30.2,888.3c0.5,0.5,1.2,0.8,2,0.8c0.8,0,1.5-0.3,2-0.8c0.5-0.5,0.8-1.2,0.8-2s-0.3-1.5-0.8-2s-1.2-0.8-2-0.8
				c-0.8,0-1.5,0.3-2,0.8c-0.5,0.5-0.8,1.2-0.8,2C29.3,887.1,29.6,887.8,30.2,888.3z"/>
			<path id="XMLID_8261_" fill="#5F52CA" d="M44.1,881.6h2v9.2h-2v-1.2c-0.6,0.9-1.5,1.4-2.9,1.4c-1.1,0-1.9-0.4-2.6-1
				c-0.6-0.6-1-1.6-1-2.7v-5.6h2v5.4c0,0.7,0.2,1.2,0.5,1.6c0.4,0.4,0.9,0.5,1.5,0.5c0.7,0,1.3-0.2,1.7-0.6c0.4-0.4,0.6-1.1,0.6-2
				L44.1,881.6L44.1,881.6z"/>
			<path id="XMLID_8260_" fill="#5F52CA" d="M52.3,881.4c1.1,0,1.9,0.4,2.6,1c0.6,0.6,1,1.6,1,2.7v5.6h-2v-5.4
				c0-0.7-0.2-1.2-0.5-1.6c-0.4-0.4-0.9-0.5-1.5-0.5c-0.7,0-1.3,0.2-1.7,0.6c-0.4,0.4-0.6,1.1-0.6,2v4.9h-2v-9.1h2v1.2
				C50,881.9,51,881.4,52.3,881.4z"/>
			<path id="XMLID_8257_" fill="#5F52CA" d="M64.3,878h2v12.8h-2v-1.3c-0.8,1.1-1.8,1.6-3.2,1.6c-1.3,0-2.3-0.5-3.2-1.4
				s-1.3-2-1.3-3.4s0.5-2.5,1.3-3.5s2-1.4,3.2-1.4c1.4,0,2.5,0.5,3.2,1.5V878z M59.3,888.4c0.5,0.6,1.2,0.8,2,0.8s1.5-0.3,2-0.8
				s0.8-1.2,0.8-2.1s-0.3-1.5-0.8-2.1c-0.5-0.6-1.2-0.8-2-0.8s-1.5,0.3-2,0.8c-0.5,0.5-0.8,1.2-0.8,2.1S58.7,887.8,59.3,888.4z"/>
			<path id="XMLID_8254_" fill="#5F52CA" d="M69.2,887.1c0.1,0.7,0.5,1.2,1,1.6c0.5,0.4,1.2,0.6,1.9,0.6c1.1,0,1.8-0.4,2.3-1.1
				l1.6,0.9c-0.9,1.3-2.2,2-4,2c-1.5,0-2.7-0.5-3.6-1.3c-0.9-0.9-1.4-2-1.4-3.5c0-1.3,0.5-2.5,1.3-3.5c0.9-0.9,2-1.4,3.5-1.4
				c1.3,0,2.5,0.5,3.3,1.4s1.3,2.1,1.3,3.5c0,0.2,0,0.5-0.1,0.8H69.2z M69.2,885.5h5.4c-0.1-0.8-0.5-1.3-0.9-1.7
				c-0.5-0.4-1.1-0.6-1.7-0.6c-0.8,0-1.3,0.2-1.8,0.6C69.6,884.2,69.3,884.8,69.2,885.5z"/>
			<path id="XMLID_8253_" fill="#5F52CA" d="M79.3,883.2c0.5-1.1,1.5-1.7,2.8-1.7v2.2c-0.8-0.1-1.4,0.1-2,0.5
				c-0.6,0.4-0.8,1.1-0.8,2v4.6h-2v-9.2h2V883.2z"/>
			<path id="XMLID_8252_" fill="#5F52CA" d="M83.6,884c0,0.5,0.2,0.8,0.6,1.1c0.4,0.2,0.8,0.5,1.4,0.6c0.5,0.1,1.1,0.3,1.6,0.4
				c0.5,0.1,1,0.4,1.4,0.8s0.6,0.9,0.6,1.5c0,0.8-0.3,1.4-0.9,1.9c-0.6,0.5-1.4,0.8-2.4,0.8c-0.9,0-1.6-0.2-2.2-0.6
				c-0.6-0.4-1.1-0.9-1.2-1.5l0.8-0.5c0.2,0.5,0.5,0.9,0.9,1.2c0.5,0.3,1.1,0.4,1.8,0.4s1.2-0.2,1.7-0.5c0.5-0.3,0.6-0.7,0.6-1.3
				c0-0.5-0.2-0.8-0.6-1.1c-0.4-0.3-0.8-0.5-1.4-0.6c-0.5-0.1-1.1-0.3-1.6-0.4c-0.5-0.1-1-0.4-1.4-0.8c-0.4-0.4-0.6-0.9-0.6-1.5
				c0-0.8,0.3-1.3,0.9-1.9c0.6-0.5,1.3-0.8,2.2-0.8c0.8,0,1.3,0.2,1.9,0.5c0.5,0.4,0.9,0.8,1.2,1.3l-0.8,0.5
				c-0.2-0.5-0.5-0.8-0.9-1.1c-0.4-0.2-0.9-0.4-1.4-0.4c-0.6,0-1.2,0.2-1.6,0.5C83.8,883.1,83.6,883.5,83.6,884z"/>
			<path id="XMLID_8251_" fill="#5F52CA" d="M96.9,881.6h0.9v9.2h-0.9v-1.8c-0.6,1.3-1.8,1.9-3.3,1.9c-1.1,0-1.9-0.4-2.6-1
				c-0.6-0.6-0.9-1.6-0.9-2.7v-5.7h0.9v5.7c0,0.9,0.2,1.5,0.7,2c0.5,0.5,1.1,0.8,2,0.8c0.9,0,1.7-0.3,2.3-0.9
				c0.6-0.6,0.9-1.5,0.9-2.7V881.6z"/>
			<path id="XMLID_8248_" fill="#5F52CA" d="M100.7,879.2c-0.2,0.1-0.3,0.2-0.5,0.2c-0.2,0-0.4-0.1-0.5-0.2
				c-0.2-0.1-0.2-0.3-0.2-0.5c0-0.2,0.1-0.4,0.2-0.5c0.2-0.1,0.3-0.2,0.5-0.2c0.2,0,0.4,0.1,0.5,0.2c0.2,0.1,0.2,0.3,0.2,0.5
				C101,878.9,100.9,879.1,100.7,879.2z M99.7,890.8v-9.2h0.9v9.2H99.7z"/>
			<path id="XMLID_8247_" fill="#5F52CA" d="M107.3,882.6h-2.7v6c0,0.5,0.1,0.9,0.3,1.1c0.2,0.2,0.5,0.4,0.9,0.4s0.9,0,1.5-0.1v0.8
				c-1.2,0.2-2.2,0.1-2.7-0.2c-0.6-0.4-0.9-1.1-0.9-2v-6h-2v-0.9h2v-2.3l0.9-0.3v2.6h2.7L107.3,882.6L107.3,882.6z"/>
			<path id="XMLID_8244_" fill="#5F52CA" d="M112.1,881.5c1.3,0,2.5,0.5,3.3,1.4s1.2,2.1,1.2,3.4c0,0.1,0,0.1,0,0.2
				c0,0.1,0,0.2,0,0.2h-8.3c0.1,1.1,0.5,1.9,1.2,2.5c0.7,0.6,1.6,0.9,2.6,0.9c0.8,0,1.4-0.2,1.9-0.5c0.5-0.3,0.9-0.7,1.2-1.2
				l0.8,0.5c-0.4,0.6-0.9,1.1-1.6,1.5c-0.7,0.4-1.5,0.6-2.4,0.6c-1.4,0-2.6-0.5-3.5-1.3c-0.9-0.9-1.3-2-1.3-3.5
				c0-1.3,0.5-2.5,1.3-3.4C109.6,881.9,110.7,881.5,112.1,881.5z M112.1,882.3c-1.1,0-1.9,0.4-2.6,1c-0.7,0.6-1.1,1.5-1.2,2.5h7.4
				c-0.1-1.1-0.5-1.9-1.2-2.6C113.8,882.6,113.1,882.3,112.1,882.3z"/>
		</g>
	</g>
	<g id="XMLID_8233_">
		<polygon id="XMLID_8238_" fill="#FFFFFF" fill-opacity="0" stroke="#5F52CA" stroke-miterlimit="10" points="234.2,787.1
			165.1,826.9 165.1,906.4 234.2,946.2 303.1,906.3 303.1,826.5 234.2,787.1 		"/>
		<g id="XMLID_8234_">
			<circle id="XMLID_8237_" fill="#5F52CA" cx="247.2" cy="880.7" r="10.1"/>
			<path id="XMLID_5217_" fill="#5F52CA" d="M216.8,890.1c-2.4,0-4.8-0.8-6.8-2.5c-4.4-3.8-4.8-10.4-1.1-14.7l27.3-31.6
				c3.8-4.4,10.4-4.8,14.7-1.1c4.4,3.8,4.8,10.4,1.1,14.7l-27.3,31.6C222.6,888.9,219.7,890.1,216.8,890.1z"/>
			<path id="XMLID_5214_" fill="#5F52CA" d="M244.7,857h-28.7c-5.4,0-9.7-4.4-9.7-9.7s4.4-9.7,9.7-9.7h28.7c5.4,0,9.7,4.4,9.7,9.7
				S250.1,857,244.7,857z"/>
		</g>
	</g>

	<g id="Knockknockcity">
		<polygon id="XMLID_8292_" fill="#FFFFFF" fill-opacity="0" stroke="#5F52CA" stroke-miterlimit="10" points="152.1,917.4
			83.1,957.2 83.1,1036.7 152.1,1076.5 221.1,1036.6 221.1,956.8 152.1,917.4 		"/>
		<path id="XMLID_8288_" fill="#5F52CA" d="M197.5,987.8c0-0.5,0.2-0.9,0.6-1.1c0.2-0.1,0.5-0.1,0.6,0.1c0.3,0.5,0.3,0.9,0.1,1.3
			c-0.5,1-1.2,2.7-1.4,2.9C197.2,991.2,197.3,988.7,197.5,987.8L197.5,987.8z M200.7,989c0.3-0.5,0.6-0.6,1.2-0.5
			c0.2,0.1,0.5,0.2,0.5,0.5c0,0.5-0.2,0.9-0.6,1.1c-1,0.5-2.5,1.5-2.8,1.6C198.7,991.7,200.2,989.7,200.7,989z M202.2,992.1
			c0.5-0.2,0.9-0.2,1.3,0.1c0.2,0.2,0.3,0.5,0.2,0.6c-0.2,0.5-0.6,0.6-1.1,0.6c-1.1,0-2.9,0.2-3.2,0.1
			C199.2,993.5,201.4,992.4,202.2,992.1z"/>
		<path id="XMLID_8275_" fill="#5F52CA" d="M109.6,1001.7c0,0.1-0.1,0.2-0.2,0.3c-0.1,0.2-0.2,0.3-0.4,0.4c-0.2,0.1-0.4,0.2-0.6,0.3
			c-0.2,0.1-0.5,0.2-0.7,0.2c-0.4,0-0.7-0.1-1-0.4c-0.3-0.2-0.6-0.6-0.8-1c-0.2-0.5-0.5-1-0.7-1.6c-0.2-0.6-0.4-1.3-0.6-2l-0.6,0.4
			l-0.3,4.2c0,0.1-0.1,0.2-0.1,0.2s-0.1,0.1-0.2,0.1h-0.9c-0.6,0-1-0.1-1.3-0.3c-0.2-0.2-0.4-0.6-0.4-1.1v-0.7c0,0,0.1-0.7,0.1-1.1
			c0.1-0.4,0.1-0.9,0.1-1.4c0.1-0.5,0.1-1,0.1-1.5c0.1-1,0.1-1.8,0.2-2.5c0.1-0.6,0.1-1.1,0.1-1.4c0-0.3,0.1-0.6,0.1-0.8v-0.5
			c0-0.2,0.1-0.2,0.3-0.2h0.9c0.3,0,0.6,0.1,0.9,0.1c0.2,0.1,0.4,0.2,0.5,0.3s0.2,0.3,0.2,0.5c0.1,0.2,0.1,0.4,0.1,0.6
			s0,0.6-0.1,1.2c0,0.6-0.1,1.2-0.1,1.9c0.3-0.5,0.8-1,1.3-1.7c0.5-0.7,1.1-1.5,1.9-2.5c0.1-0.1,0.1-0.1,0.1-0.2
			c0.1-0.1,0.1-0.1,0.2-0.2c0.1-0.1,0.2-0.1,0.2-0.2c0.1-0.1,0.2-0.1,0.2-0.1c0.1,0,0.3,0.1,0.5,0.2l0.5,0.5c0,0,0.3,0.4,0.4,0.6
			s0.2,0.4,0.2,0.6c0,0.3-0.3,0.8-0.9,1.4c-0.6,0.6-1.4,1.3-2.4,2.1c0.2,0.3,0.4,0.6,0.6,1c0.2,0.3,0.5,0.7,0.7,1.1s0.5,0.7,0.7,1.1
			c0.2,0.3,0.4,0.7,0.6,0.9c0.2,0.2,0.3,0.5,0.4,0.7C109.5,1001.5,109.6,1001.6,109.6,1001.7L109.6,1001.7z M116.1,1001.3
			c0-0.2,0-0.6,0.1-0.9c0.1-0.4,0.1-0.8,0.1-1.2c0.1-0.4,0.1-0.9,0.1-1.3c0.1-0.4,0.1-0.7,0.1-1s-0.1-0.5-0.2-0.7
			c-0.1-0.2-0.4-0.3-0.8-0.3s-0.7,0.1-0.9,0.3c-0.2,0.2-0.5,0.5-0.6,1c-0.2,0.5-0.3,1.1-0.4,2c-0.1,0.9-0.2,1.9-0.3,3.3
			c0,0.1-0.1,0.2-0.1,0.3c-0.1,0.1-0.1,0.1-0.3,0.1h-0.6c-0.3,0-0.6-0.1-0.8-0.1c-0.2-0.1-0.4-0.2-0.5-0.3s-0.2-0.3-0.3-0.5
			c-0.1-0.2-0.1-0.4-0.1-0.6v-0.7c0-0.3,0.1-0.7,0.1-1.2c0.1-0.5,0.1-1.2,0.2-2c0.1-0.8,0.1-1.8,0.2-3c0-0.2,0.1-0.4,0.1-0.4
			c0.1-0.1,0.1-0.1,0.3-0.1h0.6c0.3,0,0.6,0.1,0.8,0.1c0.2,0.1,0.4,0.2,0.5,0.3s0.2,0.3,0.3,0.5c0.1,0.2,0.1,0.3,0.1,0.5
			c0.3-0.6,0.7-1,1.1-1.2c0.5-0.2,1-0.3,1.6-0.3c0.5,0,0.9,0.1,1.2,0.2c0.3,0.1,0.6,0.3,0.9,0.5s0.4,0.5,0.5,0.9
			c0.1,0.4,0.2,0.9,0.2,1.4c0,0.2,0,0.4-0.1,0.7c0,0.3-0.1,0.7-0.1,1.1s-0.1,0.8-0.1,1.2c-0.1,0.4-0.1,0.8-0.1,1.1
			c-0.1,0.3-0.1,0.7-0.1,0.9c0,0.3-0.1,0.5-0.1,0.5c0,0.2,0,0.4-0.1,0.4c-0.1,0-0.2,0.1-0.3,0.1H118c-0.3,0-0.6-0.1-0.9-0.1
			c-0.2-0.1-0.4-0.2-0.5-0.3s-0.2-0.3-0.2-0.5C116.1,1001.7,116.1,1001.5,116.1,1001.3L116.1,1001.3z M124.3,1002.9
			c-0.7,0-1.4-0.1-1.8-0.3c-0.5-0.2-0.9-0.5-1.1-0.9c-0.3-0.3-0.5-0.8-0.6-1.3c-0.1-0.5-0.2-1-0.2-1.6c0-0.6,0.1-1.3,0.2-1.9
			c0.2-0.6,0.4-1.1,0.8-1.7c0.4-0.5,0.9-0.9,1.5-1.1c0.6-0.3,1.4-0.5,2.3-0.5c1.4,0,2.3,0.3,2.9,1c0.6,0.6,0.9,1.6,0.9,2.8
			c0,0.3,0,0.7-0.1,1.1s-0.1,0.8-0.3,1.2c-0.2,0.4-0.3,0.8-0.6,1.1c-0.2,0.4-0.5,0.7-0.9,1c-0.3,0.3-0.8,0.5-1.3,0.7
			C125.5,1002.8,124.9,1002.9,124.3,1002.9L124.3,1002.9z M125,995.8c-0.4,0-0.7,0.1-1,0.3c-0.2,0.2-0.4,0.5-0.6,0.7
			c-0.1,0.3-0.2,0.6-0.2,0.9s-0.1,0.6-0.1,0.9c0,0.7,0.1,1.3,0.3,1.5c0.2,0.3,0.6,0.5,1,0.5s0.7-0.1,0.9-0.3
			c0.2-0.2,0.5-0.5,0.6-0.9c0.1-0.3,0.2-0.7,0.3-1c0.1-0.3,0.1-0.7,0.1-0.9c0-0.5-0.1-1-0.3-1.3C125.8,996,125.5,995.8,125,995.8
			L125,995.8z M134.4,1000.7c0.3,0,0.6-0.1,0.8-0.1c0.2-0.1,0.5-0.2,0.6-0.3c0.2-0.1,0.3-0.2,0.5-0.3c0.1-0.1,0.2-0.1,0.3-0.1
			c0.2,0,0.4,0.2,0.4,0.5c0,0.1,0,0.2-0.1,0.3c-0.1,0.2-0.1,0.3-0.1,0.4c-0.1,0.2-0.1,0.3-0.2,0.4c-0.1,0.1-0.1,0.2-0.2,0.3
			c-0.1,0.1-0.2,0.1-0.3,0.3c-0.1,0.1-0.3,0.2-0.5,0.3c-0.2,0.1-0.5,0.2-0.8,0.3s-0.6,0.1-1,0.1c-0.4,0-0.9-0.1-1.3-0.2
			c-0.5-0.1-0.9-0.3-1.2-0.6c-0.3-0.3-0.6-0.7-0.9-1.3s-0.3-1.2-0.3-1.9c0-0.3,0-0.6,0.1-1s0.1-0.7,0.2-1.1c0.1-0.4,0.3-0.7,0.5-1.1
			c0.2-0.3,0.5-0.7,0.8-1c0.3-0.3,0.7-0.5,1.2-0.7c0.5-0.2,1-0.3,1.7-0.3c0.5,0,1,0.1,1.4,0.2c0.4,0.1,0.7,0.3,1,0.5
			c0.2,0.2,0.5,0.5,0.6,0.7c0.1,0.3,0.2,0.6,0.2,0.9c0,0.6-0.2,1-0.6,1.3c-0.4,0.2-0.9,0.4-1.5,0.4c-0.2,0-0.3,0-0.3-0.1
			c-0.1,0-0.1-0.1-0.1-0.2v-0.7c0-0.2-0.1-0.4-0.1-0.5s-0.1-0.2-0.2-0.3c-0.1-0.1-0.2-0.1-0.4-0.1c-0.3,0-0.6,0.1-0.8,0.3
			s-0.3,0.5-0.5,0.8c-0.1,0.3-0.2,0.6-0.2,1s-0.1,0.6-0.1,0.8c0,0.7,0.1,1.3,0.3,1.6C133.5,1000.5,133.8,1000.7,134.4,1000.7z
			 M146.2,1001.4c0,0.1,0,0.2-0.1,0.3c-0.1,0.2-0.1,0.3-0.3,0.5c-0.1,0.2-0.3,0.3-0.5,0.5s-0.4,0.2-0.6,0.2c-0.3,0-0.6-0.1-0.9-0.3
			s-0.6-0.5-0.9-0.8s-0.6-0.7-0.9-1.2c-0.3-0.5-0.6-1-0.9-1.5c-0.1,0.6-0.1,1.1-0.1,1.7s-0.1,1.1-0.1,1.6c0,0.1-0.1,0.2-0.1,0.3
			c-0.1,0.1-0.1,0.1-0.3,0.1h-0.6c-0.3,0-0.6-0.1-0.8-0.1c-0.2-0.1-0.4-0.2-0.5-0.3c-0.1-0.1-0.2-0.3-0.2-0.5
			c-0.1-0.2-0.1-0.4-0.1-0.7v-0.4c0-0.1,0-0.3,0.1-0.6c0.1-0.2,0.1-0.6,0.1-1c0.1-0.5,0.1-1,0.1-1.7c0.1-0.7,0.1-1.5,0.2-2.6
			c0.1-1,0.2-2.2,0.2-3.7c0-0.2,0.1-0.4,0.1-0.4c0.1-0.1,0.1-0.1,0.3-0.1h0.6c0.3,0,0.6,0.1,0.8,0.1c0.2,0.1,0.4,0.2,0.5,0.3
			c0.1,0.1,0.2,0.3,0.3,0.5c0.1,0.2,0.1,0.3,0.1,0.5v0.5c0,0.2-0.1,0.6-0.1,0.9c0,0.3-0.1,0.7-0.1,1.2c-0.1,0.5-0.1,0.9-0.1,1.4
			l2.6-2.3c0.1-0.1,0.2-0.2,0.3-0.2c0.1-0.1,0.2-0.1,0.2-0.1c0.1,0,0.2,0.1,0.4,0.2c0.1,0.2,0.3,0.3,0.4,0.5
			c0.1,0.2,0.2,0.4,0.3,0.6c0.1,0.2,0.1,0.4,0.1,0.5c0,0.3-0.2,0.6-0.7,1s-1.3,0.7-2.3,1.1c0.5,0.5,0.9,1,1.3,1.4
			c0.4,0.4,0.7,0.8,1.1,1.1c0.3,0.3,0.6,0.6,0.7,0.8C146.1,1001.2,146.2,1001.3,146.2,1001.4L146.2,1001.4z M159.7,1001.7
			c0,0.1-0.1,0.2-0.2,0.3c-0.1,0.1-0.2,0.3-0.4,0.4c-0.2,0.1-0.4,0.2-0.6,0.3s-0.5,0.2-0.7,0.2c-0.4,0-0.7-0.1-1-0.4s-0.6-0.6-0.8-1
			s-0.5-1-0.7-1.6c-0.2-0.6-0.4-1.3-0.6-2l-0.6,0.4l-0.3,4.2c0,0.1-0.1,0.2-0.1,0.2s-0.1,0.1-0.2,0.1h-0.9c-0.6,0-1-0.1-1.3-0.3
			c-0.2-0.2-0.4-0.6-0.4-1.1v-0.7c0,0,0.1-0.7,0.1-1.1c0.1-0.4,0.1-0.9,0.1-1.4c0.1-0.5,0.1-1,0.1-1.5c0.1-1,0.1-1.8,0.2-2.5
			c0.1-0.6,0.1-1.1,0.1-1.4c0-0.3,0.1-0.6,0.1-0.8v-0.5c0-0.2,0.1-0.2,0.3-0.2h0.9c0.3,0,0.6,0.1,0.9,0.1c0.2,0.1,0.4,0.2,0.5,0.3
			c0.1,0.1,0.2,0.3,0.2,0.5s0.1,0.4,0.1,0.6s0,0.6-0.1,1.2c0,0.6-0.1,1.2-0.1,1.9c0.3-0.5,0.8-1,1.3-1.7c0.5-0.7,1.1-1.5,1.9-2.5
			c0.1-0.1,0.1-0.1,0.1-0.2s0.1-0.1,0.2-0.2c0.1-0.1,0.2-0.1,0.2-0.2c0.1-0.1,0.2-0.1,0.2-0.1c0.1,0,0.3,0.1,0.5,0.2l0.5,0.5
			c0.2,0.2,0.3,0.4,0.4,0.6s0.2,0.4,0.2,0.6c0,0.3-0.3,0.8-0.9,1.4c-0.6,0.6-1.4,1.3-2.4,2.1c0.2,0.3,0.4,0.6,0.6,1
			c0.2,0.3,0.5,0.7,0.7,1.1c0.2,0.4,0.5,0.7,0.7,1.1c0.2,0.3,0.4,0.7,0.6,0.9c0.2,0.3,0.3,0.5,0.4,0.7
			C159.6,1001.5,159.7,1001.6,159.7,1001.7L159.7,1001.7z M166.3,1001.3c0-0.2,0-0.6,0.1-0.9c0.1-0.4,0.1-0.8,0.1-1.2
			c0.1-0.4,0.1-0.9,0.1-1.3s0.1-0.7,0.1-1s-0.1-0.5-0.2-0.7c-0.2-0.2-0.4-0.3-0.8-0.3c-0.4,0-0.7,0.1-0.9,0.3s-0.5,0.5-0.6,1
			c-0.2,0.5-0.3,1.1-0.4,2c-0.1,0.9-0.2,1.9-0.3,3.3c0,0.1-0.1,0.2-0.1,0.3c-0.1,0.1-0.1,0.1-0.3,0.1h-0.6c-0.3,0-0.6-0.1-0.8-0.1
			c-0.2-0.1-0.4-0.2-0.5-0.3c-0.1-0.1-0.2-0.3-0.3-0.5c-0.1-0.2-0.1-0.4-0.1-0.6v-0.7c0-0.3,0.1-0.7,0.1-1.2s0.1-1.2,0.2-2
			c0.1-0.8,0.1-1.8,0.2-3c0-0.2,0.1-0.4,0.1-0.4c0.1-0.1,0.1-0.1,0.3-0.1h0.6c0.3,0,0.6,0.1,0.8,0.1c0.2,0.1,0.4,0.2,0.5,0.3
			c0.1,0.1,0.2,0.3,0.3,0.5c0.1,0.2,0.1,0.3,0.1,0.5c0.3-0.6,0.7-1,1.1-1.2c0.5-0.2,1-0.3,1.6-0.3c0.5,0,0.9,0.1,1.2,0.2
			s0.6,0.3,0.9,0.5c0.2,0.2,0.4,0.5,0.5,0.9c0.1,0.4,0.2,0.9,0.2,1.4c0,0.2,0,0.4-0.1,0.7c0,0.3-0.1,0.7-0.1,1.1s-0.1,0.8-0.1,1.2
			c-0.1,0.4-0.1,0.8-0.1,1.1c-0.1,0.3-0.1,0.7-0.1,0.9c0,0.3-0.1,0.5-0.1,0.5c0,0.2,0,0.4-0.1,0.4c-0.1,0.1-0.2,0.1-0.3,0.1h-0.5
			c-0.3,0-0.6-0.1-0.9-0.1c-0.2-0.1-0.4-0.2-0.5-0.3c-0.1-0.1-0.2-0.3-0.2-0.5C166.3,1001.7,166.3,1001.5,166.3,1001.3L166.3,1001.3
			z M174.4,1002.9c-0.7,0-1.4-0.1-1.8-0.3c-0.5-0.2-0.9-0.5-1.1-0.9c-0.3-0.3-0.5-0.8-0.6-1.3c-0.1-0.5-0.2-1-0.2-1.6
			c0-0.6,0.1-1.3,0.2-1.9c0.2-0.6,0.4-1.1,0.8-1.7c0.4-0.5,0.9-0.9,1.5-1.1c0.6-0.3,1.4-0.5,2.3-0.5c1.4,0,2.3,0.3,2.9,1
			c0.6,0.6,0.9,1.6,0.9,2.8c0,0.3,0,0.7-0.1,1.1c-0.1,0.4-0.1,0.8-0.3,1.2c-0.1,0.4-0.3,0.8-0.6,1.1c-0.2,0.4-0.5,0.7-0.9,1
			c-0.3,0.3-0.8,0.5-1.3,0.7C175.6,1002.8,175.1,1002.9,174.4,1002.9L174.4,1002.9z M175.1,995.8c-0.4,0-0.7,0.1-1,0.3
			c-0.2,0.2-0.4,0.5-0.6,0.7c-0.1,0.3-0.2,0.6-0.2,0.9c-0.1,0.3-0.1,0.6-0.1,0.9c0,0.7,0.1,1.3,0.3,1.5c0.2,0.3,0.6,0.5,1,0.5
			c0.4,0,0.7-0.1,0.9-0.3s0.5-0.5,0.6-0.9c0.1-0.3,0.2-0.7,0.3-1c0.1-0.3,0.1-0.7,0.1-0.9c0-0.5-0.1-1-0.3-1.3
			C176,996,175.5,995.8,175.1,995.8L175.1,995.8z M184.5,1000.7c0.3,0,0.6-0.1,0.8-0.1c0.2-0.1,0.5-0.2,0.6-0.3
			c0.2-0.1,0.3-0.2,0.5-0.3c0.1-0.1,0.2-0.1,0.3-0.1c0.2,0,0.4,0.2,0.4,0.5c0,0.1,0,0.2-0.1,0.3c-0.1,0.2-0.1,0.3-0.1,0.4
			c-0.1,0.2-0.1,0.3-0.2,0.4c-0.1,0.1-0.1,0.2-0.2,0.3c-0.1,0.1-0.2,0.1-0.3,0.3c-0.1,0.1-0.3,0.2-0.5,0.3c-0.2,0.1-0.5,0.2-0.8,0.3
			s-0.6,0.1-1,0.1c-0.4,0-0.9-0.1-1.3-0.2c-0.5-0.1-0.9-0.3-1.2-0.6s-0.6-0.7-0.9-1.3s-0.3-1.2-0.3-1.9c0-0.3,0-0.6,0.1-1
			s0.1-0.7,0.2-1.1c0.1-0.4,0.3-0.7,0.5-1.1c0.2-0.3,0.5-0.7,0.8-1c0.3-0.3,0.7-0.5,1.2-0.7c0.5-0.2,1-0.3,1.7-0.3
			c0.5,0,1,0.1,1.4,0.2c0.4,0.1,0.7,0.3,1,0.5c0.2,0.2,0.5,0.5,0.6,0.7s0.2,0.6,0.2,0.9c0,0.6-0.2,1-0.6,1.3
			c-0.4,0.2-0.9,0.4-1.5,0.4c-0.2,0-0.3,0-0.3-0.1c-0.1,0-0.1-0.1-0.1-0.2v-0.7c0-0.2-0.1-0.4-0.1-0.5s-0.1-0.2-0.2-0.3
			c-0.1-0.1-0.2-0.1-0.4-0.1c-0.3,0-0.6,0.1-0.8,0.3s-0.3,0.5-0.5,0.8c-0.1,0.3-0.2,0.6-0.2,1s-0.1,0.6-0.1,0.8
			c0,0.7,0.1,1.3,0.3,1.6C183.6,1000.5,183.9,1000.7,184.5,1000.7z M196.3,1001.4c0,0.1,0,0.2-0.1,0.3c-0.1,0.2-0.1,0.3-0.3,0.5
			c-0.1,0.2-0.3,0.3-0.5,0.5c-0.2,0.1-0.4,0.2-0.6,0.2c-0.3,0-0.6-0.1-0.9-0.3s-0.6-0.5-0.9-0.8c-0.3-0.3-0.6-0.7-0.9-1.2
			c-0.3-0.5-0.6-1-0.9-1.5c-0.1,0.6-0.1,1.1-0.1,1.7s-0.1,1.1-0.1,1.6c0,0.1-0.1,0.2-0.1,0.3c-0.1,0.1-0.1,0.1-0.3,0.1h-0.6
			c-0.3,0-0.6-0.1-0.8-0.1c-0.2-0.1-0.4-0.2-0.5-0.3c-0.1-0.1-0.2-0.3-0.2-0.5c-0.1-0.2-0.1-0.4-0.1-0.7v-0.4c0-0.1,0-0.3,0.1-0.6
			c0-0.3,0.1-0.6,0.1-1c0.1-0.4,0.1-1,0.1-1.7c0.1-0.7,0.1-1.5,0.2-2.6c0.1-1,0.2-2.2,0.2-3.7c0-0.2,0.1-0.4,0.1-0.4
			c0.1-0.1,0.1-0.1,0.3-0.1h0.6c0.3,0,0.6,0.1,0.8,0.1c0.2,0.1,0.4,0.2,0.5,0.3c0.1,0.1,0.2,0.3,0.3,0.5c0.1,0.2,0.1,0.3,0.1,0.5
			v0.5c0,0.2-0.1,0.6-0.1,0.9c0,0.3-0.1,0.7-0.1,1.2c-0.1,0.5-0.1,0.9-0.1,1.4l2.6-2.3c0.1-0.1,0.2-0.2,0.3-0.2
			c0.1,0,0.1-0.1,0.2-0.1c0.1,0,0.2,0.1,0.4,0.2c0.1,0.2,0.3,0.3,0.4,0.5c0.1,0.2,0.2,0.4,0.3,0.6c0.1,0.2,0.1,0.4,0.1,0.5
			c0,0.3-0.2,0.6-0.7,1s-1.3,0.7-2.3,1.1c0.5,0.5,0.9,1,1.3,1.4c0.4,0.4,0.7,0.8,1.1,1.1c0.3,0.3,0.6,0.6,0.7,0.8
			C196.2,1001.2,196.3,1001.3,196.3,1001.4L196.3,1001.4z"/>
	</g>
</g>
</svg>
