<svg xmlns="http://www.w3.org/2000/svg" id="Слой_1" viewBox="188 162.5 1219.3 867.1" class="portfolio-background">
  <style>
    .st0 {
      fill:#FFFFFF;
    }
    .st1 {
      font-family:Arial;
      font-weight:600
    }
    .st2 {
      font-size:18px;
    }
    .st3 {
      opacity:0.2;
      fill:#FFFFFF;
      enable-background:new;
    }
    .st4 {
      fill:#4D6E9D;
      stroke:#FFFFFF;
      stroke-width:1.8;
      stroke-miterlimit:10;
      stroke-opacity:0.5;
    }
    .st5 {
      enable-background:new;
    }
    .st6 {
      fill:#53AD71;
      stroke:#FFFFFF;
      stroke-width:1.8;
      stroke-miterlimit:10;
      stroke-opacity:0.5;
    }
    .st7 {
      fill:#6DB7D5;
      stroke:#FFFFFF;
      stroke-width:1.8;
      stroke-miterlimit:10;
      stroke-opacity:0.5;
    }
    .st8 {
      fill:#FBFDFD;
    }
    .st9 {
      fill:#79BDA0;
      stroke:#FFFFFF;
      stroke-width:1.8;
      stroke-miterlimit:10;
      stroke-opacity:0.5;
    }
    .st10 {
      fill:#469ECB;
      stroke:#FFFFFF;
      stroke-width:1.8;
      stroke-miterlimit:10;
      stroke-opacity:0.5;
    }
    .st11 {
      fill:#FFFFFF;
      stroke:#FFFFFF;
      stroke-width:0.9415;
      stroke-linecap:round;
      stroke-linejoin:round;
      stroke-miterlimit:10;
    }
    .st12 {
      fill:none;
      stroke:#FFFFFF;
      stroke-width:2.1842;
      stroke-linecap:round;
      stroke-linejoin:round;
      stroke-miterlimit:10;
    }
    .st13 {
      fill:#5E5E5E;
      stroke:#FFFFFF;
      stroke-width:1.8;
      stroke-miterlimit:10;
      stroke-opacity:0.5;
    }
    .st14 {
      fill:none;
      stroke:#FFFFFF;
      stroke-width:2.8385;
      stroke-miterlimit:10;
    }
    .st15 {
      fill:none;
      stroke:#FFFFFF;
      stroke-width:2.8385;
      stroke-linecap:round;
      stroke-miterlimit:10;
    }
    .st16 {
      fill:#7891CA;
      stroke:#FFFFFF;
      stroke-width:1.8;
      stroke-miterlimit:10;
      stroke-opacity:0.5;
    }
    .st17 {
      fill:#47A1C8;
      stroke:#FFFFFF;
      stroke-width:1.8;
      stroke-miterlimit:10;
      stroke-opacity:0.5;
    }
    .st18 {
      fill:#1C1C1C;
      stroke:#FFFFFF;
      stroke-width:1.8;
      stroke-miterlimit:10;
      stroke-opacity:0.5;
    }
    .st19 {
      fill:none;
      stroke:#FFFFFF;
      stroke-width:3.7659;
      stroke-linecap:round;
      stroke-miterlimit:10;
    }
    .st20 {
      fill:#D44D5C;
      stroke:#FFFFFF;
      stroke-width:1.8;
      stroke-miterlimit:10;
      stroke-opacity:0.5;
    }
    .st21 {
      fill:#8DBB5B;
      stroke:#FFFFFF;
      stroke-width:1.8;
      stroke-miterlimit:10;
      stroke-opacity:0.5;
    }
    .st22 {
      fill:#4C79AE;
      stroke:#FFFFFF;
      stroke-width:1.8;
      stroke-miterlimit:10;
      stroke-opacity:0.5;
    }
    .st23 {
      fill:#3B566A;
      stroke:#FFFFFF;
      stroke-width:1.8;
      stroke-miterlimit:10;
      stroke-opacity:0.5;
    }
    .st24 {
      fill:#332E44;
      stroke:#FFFFFF;
      stroke-width:1.8;
      stroke-miterlimit:10;
      stroke-opacity:0.5;
    }
    .st25 {
      fill:#4BAAB9;
      stroke:#FFFFFF;
      stroke-width:1.8;
      stroke-miterlimit:10;
      stroke-opacity:0.5;
    }
    .st26 {
      fill:#44715A;
      stroke:#FFFFFF;
      stroke-width:1.8;
      stroke-miterlimit:10;
      stroke-opacity:0.5;
    }
    .st27 {
      fill:white;
      stroke:#FFFFFF;
      stroke-width:2.1718;
      stroke-miterlimit:10;
    }
    .st28 {
      fill:#42304A;
      stroke:#FFFFFF;
      stroke-width:1.8;
      stroke-miterlimit:10;
      stroke-opacity:0.5;
    }
    .st29 {
      fill:#43A7DC;
      stroke:#FFFFFF;
      stroke-width:1.8;
      stroke-miterlimit:10;
      stroke-opacity:0.5;
    }
    .st30 {
      opacity:0.2;
      fill:none;
      stroke:#FFFFFF;
      stroke-width:3;
      stroke-miterlimit:10;
      enable-background:new;
    }
  </style>
  <a href="#" class="rails">
    <g class="rails">
      <path id="XMLID_5_" class="st3" d="M369.2 226.9H225.5c-3.8 0-6.8-3.1-6.8-6.8v-29c0-3.8 3.1-6.8 6.8-6.8h143.7c3.8 0 6.8 3.1 6.8 6.8v29c0 3.8-3.1 6.8-6.8 6.8z"></path>
      <text transform="translate(228.937 211.954)" class="st0 st1 st2">Ruby on Rails</text>
    </g>
  </a>
  <a href="#" class="angular">
    <g>
      <path id="XMLID_15_" class="st3" d="M369.2 278.8H225.5c-3.8 0-6.8-3.1-6.8-6.8v-29c0-3.8 3.1-6.8 6.8-6.8h143.7c3.8 0 6.8 3.1 6.8 6.8v29c0 3.7-3.1 6.8-6.8 6.8z"></path>
      <text transform="translate(228.937 263.454)" class="st0 st1 st2">AngularJS</text>
    </g>
  </a>
  <a href="#" class="react">
    <g>
      <path id="XMLID_17_" class="st3" d="M369.2 330.2H225.5c-3.8 0-6.8-3.1-6.8-6.8v-29c0-3.8 3.1-6.8 6.8-6.8h143.7c3.8 0 6.8 3.1 6.8 6.8v29c0 3.8-3.1 6.8-6.8 6.8z"></path>
      <text transform="translate(228.937 313.954)" class="st0 st1 st2">ReactJS</text>
    </g>
  </a>
  <a href='#' class="backbone">
    <g>
      <path id="XMLID_21_" class="st3" d="M369.2 381.7H225.5c-3.8 0-6.8-3.1-6.8-6.8v-29c0-3.8 3.1-6.8 6.8-6.8h143.7c3.8 0 6.8 3.1 6.8 6.8v29c0 3.7-3.1 6.8-6.8 6.8z"></path>
      <text transform="translate(228.937 366.33)" class="st0 st1 st2">Backbone.js</text>
    </g>
  </a>
  <a href='#' class="android">
    <g>
      <path id="XMLID_20_" class="st3" d="M369.2 433.5H225.5c-3.8 0-6.8-3.1-6.8-6.8v-29c0-3.8 3.1-6.8 6.8-6.8h143.7c3.8 0 6.8 3.1 6.8 6.8v29c0 3.7-3.1 6.8-6.8 6.8z"></path>
      <text transform="translate(228.937 417.58)" class="st0 st1 st2">Android</text>
    </g>
  </a>
  <a href='#' class="ios">
    <g>
      <path id="XMLID_1_" class="st3" d="M369.2 485H225.5c-3.8 0-6.8-3.1-6.8-6.8v-29c0-3.8 3.1-6.8 6.8-6.8h143.7c3.8 0 6.8 3.1 6.8 6.8v29c0 3.7-3.1 6.8-6.8 6.8z"></path>
      <text transform="translate(228.937 470.33)" class="st0 st1 st2">iOS</text>
    </g>
  </a>
  <g class="technologies" id="technologies">
    <a href="#ach_payments" data-rails="true">
      <path class="st4 background" d="M1272.6 998.6l-100.8-58.2V824l100.8-58.2 100.8 58.2v116.4l-100.8 58.2z"></path>
      <path class="st0" d="M1231 874.1h4.2l-4.9 16.9h-4.3l-3.2-10.3-3.2 10.3h-4.3l-5-16.9h4.6l2.9 10.4 3.1-10.4h4.1l3.1 10.4 2.9-10.4zM1247.5 873.7c1.9 0 3.4.6 4.6 1.9 1.2 1.2 1.8 3 1.8 5.2v10.4h-4.4v-10c0-1.1-.3-2-.9-2.6s-1.4-.9-2.4-.9c-1.1 0-2 .4-2.7 1.1s-1 1.8-1 3.2v9.2h-4.4v-23.7h4.4v8.7c1-1.7 2.7-2.5 5-2.5zM1272 889c-1.7 1.7-3.9 2.6-6.4 2.6s-4.6-.9-6.4-2.6-2.6-3.8-2.6-6.4c0-2.5.9-4.6 2.6-6.4s3.8-2.6 6.4-2.6c2.5 0 4.6.9 6.4 2.6s2.6 3.8 2.6 6.4c.1 2.4-.8 4.5-2.6 6.4zm-9.6-3c.9.9 2 1.3 3.3 1.3s2.4-.4 3.3-1.3c.9-.9 1.3-2 1.3-3.4s-.4-2.5-1.3-3.4-2-1.3-3.3-1.3-2.4.4-3.3 1.3c-.9.9-1.3 2-1.3 3.4s.4 2.4 1.3 3.4zM1276 891.1v-3.5l8.1-8.3c1.8-1.9 2.7-3.5 2.7-4.7 0-.9-.3-1.7-.9-2.2-.6-.6-1.3-.8-2.2-.8-1.8 0-3.1.9-4 2.8l-3.9-2.3c.7-1.6 1.8-2.9 3.2-3.7 1.4-.9 2.9-1.3 4.6-1.3 2.1 0 4 .7 5.5 2s2.3 3.2 2.3 5.4c0 2.5-1.3 5-3.9 7.6l-4.7 4.7h8.9v4.5H1276v-.2zM1304.8 878.3h-3.8v7c0 .6.1 1 .4 1.3s.7.4 1.3.5h2.1v4c-3 .3-5.1.1-6.4-.8s-1.8-2.5-1.8-4.8v-7h-2.9v-4.2h2.9v-3.4l4.4-1.3v4.7h3.8v4zM1312.5 877.1c.4-1.1 1.1-1.9 2-2.4s2-.8 3.1-.8v4.9c-1.3-.2-2.5.1-3.6.8s-1.6 1.9-1.6 3.5v8.1h-4.4v-16.9h4.4l.1 2.8zM1331.6 874.1h4.7l-6.2 17c-.9 2.4-2 4.2-3.5 5.3s-3.3 1.6-5.4 1.5v-4.1c1.2 0 2.1-.2 2.8-.7.7-.5 1.2-1.4 1.6-2.5l-6.9-16.4h4.8l4.4 11.4 3.7-11.5z"></path>
    </a>
    <a href="#beatthread" data-rails="true">
      <path class="st6 background" d="M1060.2 998.6l-100.8-58.2V824l100.8-58.2L1161 824v116.4l-100.8 58.2z"></path>
      <path class="st0" d="M1096.8 860.9c-1.1-17.7-15.4-32.4-33.3-33.7-7.2-.6-14.1.9-20.3 4.1l-14-12.2c-.9-.8-2.3-1.1-3.4-.6-1.1.6-1.9 1.7-1.9 3v42.8c.2 9.6 4.1 18.5 10.9 25.2 6.8 6.8 16 10.5 25.6 10.5 10 0 19.8-4.1 26.7-11.7 6.8-7.5 10.4-17.3 9.7-27.4zm-11.1 26.2c-6.6 7-15.6 10.9-25.2 10.9-9 0-17.7-3.6-24.3-10-6.2-6-9.8-14.3-10.2-23h9.8c1.7 0 3.2-1.3 3.2-2.8v-4.1c0-.4.6-.8 1.3-.8.8 0 1.3.4 1.3.8v16c0 1.5 1.5 2.8 3.2 2.8 1.7 0 3.2-1.3 3.2-2.8v-20c0-.4.6-.8 1.3-.8.8 0 1.3.4 1.3.8v22c0 1.5 1.5 2.8 3.2 2.8 1.7 0 3.2-1.3 3.2-2.8v-27.5c0-.4.6-.8 1.3-.8.7 0 1.3.4 1.3.8V874c0 1.5 1.5 2.8 3.2 2.8 1.7 0 3.2-1.3 3.2-2.8v-22c0-.4.6-.8 1.3-.8.8 0 1.3.4 1.3.8v22c0 1.5 1.5 2.8 3.2 2.8 1.7 0 3.2-1.3 3.2-2.8v-20c0-.4.6-.8 1.3-.8.7 0 1.3.4 1.3.8v16c0 1.5 1.5 2.8 3.2 2.8s3.2-1.3 3.2-2.8v-4.1c0-.4.6-.8 1.3-.8h9.6c-.4 8.3-3.6 16-9.2 22zm-3.8-21.1v4.1c0 .4-.6.8-1.3.8-.8 0-1.3-.4-1.3-.8v-16c0-1.5-1.5-2.8-3.2-2.8-1.7 0-3 1.3-3 2.8v20c0 .4-.6.8-1.3.8-.8 0-1.3-.4-1.3-.8v-22c0-1.5-1.5-2.8-3.2-2.8-1.7 0-3.2 1.3-3.2 2.8v22c0 .4-.6.8-1.3.8-.8 0-1.3-.4-1.3-.8v-25.4c0-1.5-1.5-2.8-3.2-2.8-1.7 0-3.2 1.3-3.2 2.8v27.5c0 .4-.6.8-1.3.8-.7 0-1.3-.4-1.3-.8v-22c0-1.5-1.5-2.8-3.2-2.8-1.7 0-3.2 1.3-3.2 2.8v20c0 .4-.6.8-1.3.8-.8 0-1.3-.4-1.3-.8v-16c0-1.5-1.5-2.8-3.2-2.8-1.7 0-3.2 1.3-3.2 2.8v4.1c0 .4-.6.8-1.3.8h-10v-41.4c0-.6.2-.9.8-1.1.6-.2.9-.2 1.3.2l14.3 12.6c.4.2.8.4 1.1.2 6-3.4 12.8-4.9 19.8-4.3 16.8 1.3 30.3 15.1 31.4 32v2.1h-9.6c-1.5-.3-3 1-3 2.6z"></path>
      <path class="st0" d="M996.9 924.1c0 2.9-2.6 4.9-6.6 4.9h-6.5c-.4 0-.6-.4-.6-.8v-14.4c0-.4.2-.6.6-.6h6.2c3.8 0 6.2 1.8 6.2 4.4 0 1.3-.6 2.4-1.8 3 1.7.5 2.5 1.8 2.5 3.5zm-9.9-8.2v3.7h3.3c1.3 0 2.3-.7 2.3-1.9 0-1.1-1-1.9-2.4-1.9H987v.1zm6.3 8.2c0-1.3-1.1-2-2.8-2H987v4.2h3.5c1.7 0 2.8-.9 2.8-2.2zM1012.3 926.7l-.3 2c0 .2-.1.4-.4.4h-11c-.4 0-.6-.2-.6-.6v-14.6c0-.4.2-.6.6-.6h10.4c.2 0 .4.1.4.4l.1 2c0 .4-.2.6-.6.6h-7.1v3.4h5.9c.3 0 .4.1.4.4v2.2c0 .2-.1.4-.4.4h-5.9v3.5h7.9c.4-.1.6.1.6.5zM1029.1 929l-2.2.3c-.4 0-.7-.1-.8-.5l-1.1-2.9h-6.7l-1 2.6c-.1.4-.4.6-.8.6h-2.3c-.5 0-.7-.3-.5-.8l5.4-14.5c.1-.4.4-.6.8-.6h3c.4 0 .7.1.9.5l5.7 14.5c.3.3.1.6-.4.8zm-5.1-6l-2.4-6.5-2.3 6.5h4.7zM1043.8 913.5v2.3c0 .3-.1.4-.4.4h-5.4v12.4c0 .3-.1.4-.4.4h-2.9c-.3 0-.4-.1-.4-.4v-12.4h-5.2c-.4 0-.6-.2-.6-.7l.2-2.1c0-.2.2-.4.4-.4h14.3c.3 0 .4.3.4.5z"></path>
      <path class="st0" d="M1060.5 913.2v.2c0 .1 0 .1-.1.1h-7.1v15.3c0 .1 0 .1-.1.1h-.2c-.1 0-.1 0-.1-.1v-15.3h-7c-.1 0-.2-.1-.2-.2v-.1c0-.1.1-.1.2-.1l14.6.1zM1076.6 913.2v15.7c0 .1 0 .1-.1.1h-.2c-.1 0-.1 0-.1-.1v-7.4h-12.1v7.4c0 .1 0 .1-.1.1h-.2c-.1 0-.1 0-.1-.1v-15.7c0-.1 0-.1.1-.1h.2c.1 0 .1 0 .1.1v7.7h12.1v-7.7c0-.1 0-.1.1-.1l.3.1zM1094.1 929h-.3c-.1 0-.2 0-.2-.1l-3.5-6.5c-.8.2-1.7.3-2.7.3h-4.5v6.3c0 .1 0 .1-.1.1h-.2c-.1 0-.1 0-.1-.1v-15.6c0-.1.1-.2.2-.2h5.3c3.7 0 6 1.4 6 4.7 0 2.4-1.2 3.8-3.4 4.4l3.6 6.7c.1-.1 0 0-.1 0zm-6.6-7c3.7 0 6-1.2 6-4.3 0-3-2.1-4.2-5.5-4.2h-5v8.5h4.5zM1109.8 928.6v.2c0 .1-.1.1-.1.1h-10.8c-.1 0-.2-.1-.2-.2v-15.4c0-.1.1-.2.2-.2h10.2c.1 0 .1 0 .1.1v.2c0 .1 0 .1-.1.1h-9.9v7.1h8.3c.1 0 .1 0 .1.1v.2c0 .1 0 .1-.1.1h-8.3v7.4h10.7c-.2 0-.1.1-.1.2zM1125.4 929c-.1 0-.2 0-.2-.1l-2.1-4.6h-9.7l-2.1 4.6-.1.1h-.1c-.1 0-.2-.1-.1-.2l7-15.5c.1-.1.1-.2.3-.2h.1c.1 0 .2 0 .3.2l7 15.5c-.1 0-.2.2-.3.2zm-2.6-5.1l-4.6-10.2-4.6 10.2h9.2zM1128.7 929c-.1 0-.2-.1-.2-.2v-15.5c0-.1.1-.2.2-.2h5.2c5.3 0 8.5 3.2 8.5 8.1 0 5.1-3.1 7.8-9 7.8h-4.7zm4.6-.5c5.6 0 8.5-2.5 8.5-7.3 0-4.6-2.9-7.6-8-7.6h-4.9v14.9h4.4z"></path>
    </a>
    <a href="#knockknock_city" data-rails="true">
      <path class="st7 background" d="M848 998.6l-100.8-58.2V824L848 765.8 948.8 824v116.4L848 998.6z"></path>
      <path class="st8" d="M930.3 861.3c0-.9.4-1.5 1.1-1.9.4-.2.9-.2 1.1.2.6.8.6 1.5.2 2.3-.8 1.7-2.1 4.7-2.4 5.1-.4.2-.2-4.1 0-5.7zM936 863.4c.6-.8 1.1-1.1 2.1-.9.4.2.9.4.9.9 0 .9-.4 1.5-1.1 1.9-1.7.9-4.3 2.6-4.9 2.8-.6 0 2-3.4 3-4.7zM938.6 868.8c.8-.4 1.5-.4 2.3.2.4.4.6.8.4 1.1-.4.8-1.1 1.1-1.9 1.1-1.9 0-5.1.4-5.6.2s3.3-2.1 4.8-2.6z"></path>
      <path class="st0" d="M776.5 885.6c0 .2-.1.3-.3.6s-.4.5-.7.7-.7.4-1.1.6c-.4.2-.8.3-1.3.3-.7 0-1.3-.2-1.8-.7-.5-.4-1-1.1-1.4-1.8-.4-.8-.8-1.7-1.2-2.8s-.7-2.2-1.1-3.5l-1.1.7-.5 7.3c0 .2-.1.3-.1.3s-.2.1-.3.1H764c-1.1 0-1.8-.2-2.3-.6-.4-.4-.7-1.1-.7-1.9v-1.2s.1-1.2.1-1.9c.1-.7.1-1.5.2-2.4.1-.9.1-1.8.2-2.7.1-1.8.2-3.2.3-4.3s.1-1.9.2-2.5c0-.6.1-1.1.1-1.4v-.8c0-.3.2-.4.5-.4h1.6c.6 0 1.1.1 1.5.2.4.1.7.3.9.5s.3.5.4.8c.1.3.1.7.1 1.1s0 1.1-.1 2.1c0 1-.1 2.1-.2 3.3.6-.8 1.4-1.8 2.3-2.9.9-1.2 2-2.6 3.3-4.3.1-.1.1-.2.2-.3.1-.1.2-.2.3-.4.1-.1.3-.2.4-.3.1-.1.3-.1.4-.1.2 0 .5.1.8.4l.9.9s.5.7.7 1.1c.2.4.3.7.3 1 0 .5-.5 1.4-1.5 2.4s-2.4 2.3-4.2 3.7c.3.5.7 1.1 1.1 1.8.4.6.8 1.3 1.2 1.9s.8 1.3 1.2 1.9c.4.6.7 1.2 1.1 1.6s.6.9.7 1.2c.4.4.5.5.5.7zM788 884.9c0-.4 0-1 .1-1.6.1-.7.1-1.4.2-2.1.1-.7.1-1.5.2-2.2.1-.7.1-1.3.1-1.8s-.1-.9-.4-1.3c-.2-.4-.7-.6-1.4-.6s-1.2.2-1.6.5c-.4.3-.8.9-1.1 1.8-.3.8-.5 2-.7 3.5s-.4 3.4-.5 5.7c0 .2-.1.4-.1.5-.1.1-.2.1-.5.1h-1c-.6 0-1.1-.1-1.4-.2-.4-.1-.7-.3-.9-.5s-.4-.5-.5-.8-.1-.7-.1-1.1v-1.2c0-.5.1-1.2.2-2.1.1-.9.2-2.1.3-3.5s.2-3.1.4-5.2c0-.4.1-.7.1-.7.1-.1.2-.1.5-.1h1.1c.6 0 1 .1 1.4.2s.7.3.9.5.4.5.5.8.2.6.2.9c.6-1 1.3-1.7 2-2.1.8-.4 1.7-.6 2.8-.6.8 0 1.5.1 2.1.3s1.1.5 1.5.9.7.9.9 1.6c.2.7.3 1.5.3 2.4 0 .3 0 .7-.1 1.3 0 .6-.1 1.2-.1 1.9s-.1 1.4-.2 2.1-.1 1.4-.2 2-.1 1.2-.1 1.6c0 .5-.1.8-.1.9 0 .4 0 .7-.1.7s-.3.1-.6.1h-.9c-.6 0-1.1-.1-1.5-.2-.4-.1-.7-.3-.9-.5s-.4-.5-.4-.8c-.4-.3-.4-.7-.4-1.1zM802.2 887.7c-1.3 0-2.4-.2-3.2-.6-.9-.4-1.5-.9-2-1.5s-.9-1.4-1.1-2.2c-.2-.9-.3-1.8-.3-2.8 0-1.1.1-2.2.4-3.3.3-1.1.7-2 1.4-2.9.7-.8 1.5-1.5 2.6-2s2.4-.8 4.1-.8c2.4 0 4.1.6 5.1 1.7s1.5 2.8 1.5 4.9c0 .6 0 1.2-.1 1.9s-.2 1.4-.5 2.1-.6 1.4-1 2c-.4.7-.9 1.2-1.5 1.8-.6.5-1.4.9-2.2 1.2-1 .3-2 .5-3.2.5zm1.3-12.4c-.7 0-1.3.2-1.7.6-.4.4-.7.8-1 1.3-.2.5-.4 1.1-.4 1.6s-.1 1.1-.1 1.5c0 1.2.2 2.2.6 2.7.4.6 1 .9 1.7.9s1.2-.2 1.6-.6c.4-.4.8-.9 1-1.5s.4-1.2.5-1.8.1-1.2.1-1.6c0-.9-.2-1.7-.5-2.2-.4-.6-1-.9-1.8-.9zM819.9 883.9c.5 0 1-.1 1.4-.2.4-.2.8-.3 1.1-.5s.6-.4.8-.5c.2-.2.4-.2.6-.2.4 0 .7.3.7.8 0 .1 0 .3-.1.6s-.1.5-.2.7c-.1.3-.2.5-.3.7s-.2.4-.3.5-.3.2-.5.5c-.2.2-.6.4-.9.6-.4.2-.9.4-1.4.6-.5.2-1.1.2-1.8.2s-1.5-.1-2.2-.3c-.8-.2-1.5-.6-2.1-1.1s-1.1-1.3-1.5-2.2-.6-2.1-.6-3.4c0-.5 0-1.1.1-1.7.1-.6.2-1.3.4-2s.5-1.3.8-2c.3-.6.8-1.2 1.4-1.7s1.3-.9 2.1-1.2 1.8-.5 2.9-.5c.9 0 1.7.1 2.4.3s1.2.5 1.7.9c.4.4.8.8 1 1.3s.3 1 .3 1.6c0 1-.3 1.8-1 2.2s-1.5.7-2.7.7c-.3 0-.5 0-.6-.1-.1 0-.2-.2-.2-.3V877c0-.4-.1-.7-.2-.9s-.2-.4-.4-.6c-.2-.1-.4-.2-.7-.2-.6 0-1.1.2-1.4.6-.3.4-.6.8-.8 1.4-.2.5-.3 1.1-.3 1.7 0 .6-.1 1-.1 1.4 0 1.3.2 2.3.6 2.8.4.4 1 .6 2 .7zM840.5 885.1c0 .1 0 .3-.1.6s-.2.6-.5.9c-.2.3-.5.6-.8.8s-.7.3-1.1.3c-.5 0-1-.2-1.5-.5s-1-.8-1.5-1.4-1-1.3-1.5-2.1-1-1.7-1.5-2.6c-.1 1-.2 2-.2 2.9s-.2 1.9-.2 2.8c0 .2-.1.4-.1.5-.1.1-.2.1-.5.1h-1c-.6 0-1.1-.1-1.4-.2-.4-.1-.7-.3-.9-.5s-.4-.5-.4-.9c-.1-.3-.1-.7-.1-1.2v-.7c0-.2 0-.6.1-1s.1-1 .2-1.8.1-1.7.2-2.9.2-2.7.3-4.5.3-3.9.4-6.4c0-.4.1-.7.1-.7.1-.1.2-.1.5-.1h1.1c.6 0 1.1.1 1.4.2.4.1.7.3.9.5s.4.5.5.8.1.6.1.9v.9c0 .4-.1 1-.1 1.6s-.1 1.3-.2 2.1-.1 1.6-.2 2.5l4.5-4.1c.2-.2.3-.3.5-.3.1-.1.3-.1.3-.1.2 0 .4.1.7.4.2.3.5.6.7.9s.4.7.5 1.1c.1.4.2.7.2.9 0 .5-.4 1.1-1.3 1.7-.9.6-2.2 1.3-4 2 .8.9 1.5 1.7 2.3 2.4.7.7 1.3 1.4 1.9 2s1 1 1.3 1.4c.3.5.4.7.4.8zM864.2 885.6c0 .2-.1.3-.3.6-.2.2-.4.5-.7.7s-.7.4-1.1.6-.8.3-1.3.3c-.7 0-1.3-.2-1.8-.7s-1-1.1-1.4-1.8-.8-1.7-1.2-2.8-.7-2.2-1.1-3.5l-1.1.7-.5 7.3c0 .2-.1.3-.1.3s-.2.1-.3.1h-1.6c-1.1 0-1.8-.2-2.3-.6-.4-.4-.7-1.1-.7-1.9v-1.2s.1-1.2.1-1.9c.1-.7.1-1.5.2-2.4.1-.9.1-1.8.2-2.7.1-1.8.2-3.2.3-4.3s.1-1.9.2-2.5c0-.6.1-1.1.1-1.4v-.8c0-.3.2-.4.5-.4h1.6c.6 0 1.1.1 1.5.2.4.1.7.3.9.5s.3.5.4.8c.1.3.1.7.1 1.1s0 1.1-.1 2.1c0 1-.1 2.1-.2 3.3.6-.8 1.4-1.8 2.3-2.9.9-1.2 2-2.6 3.3-4.3.1-.1.1-.2.2-.3.1-.1.2-.2.3-.4.1-.1.3-.2.4-.3s.3-.1.4-.1c.2 0 .5.1.8.4l.9.9c.3.4.5.7.7 1.1.2.4.3.7.3 1 0 .5-.5 1.4-1.5 2.4-1 1.1-2.4 2.3-4.2 3.7.3.5.7 1.1 1.1 1.8.4.6.8 1.3 1.2 1.9.4.7.8 1.3 1.2 1.9.4.6.7 1.2 1.1 1.6.3.5.6.9.7 1.2.4.4.5.5.5.7zM875.7 884.9c0-.4 0-1 .1-1.6.1-.7.1-1.4.2-2.1.1-.7.1-1.5.2-2.2.1-.7.1-1.3.1-1.8s-.1-.9-.4-1.3-.7-.6-1.4-.6-1.2.2-1.6.5c-.4.3-.8.9-1.1 1.8-.3.8-.5 2-.7 3.5s-.4 3.4-.5 5.7c0 .2-.1.4-.1.5-.1.1-.2.1-.5.1h-1c-.6 0-1.1-.1-1.4-.2-.4-.1-.7-.3-.9-.5s-.4-.5-.5-.8-.1-.7-.1-1.1v-1.2c0-.5.1-1.2.2-2.1.1-.9.2-2.1.3-3.5s.2-3.1.4-5.2c0-.4.1-.7.1-.7.1-.1.2-.1.5-.1h1.1c.6 0 1 .1 1.4.2.4.1.7.3.9.5s.4.5.5.8.2.6.2.9c.6-1 1.3-1.7 2-2.1.8-.4 1.7-.6 2.8-.6.8 0 1.5.1 2.1.3s1.1.5 1.5.9.7.9.9 1.6.3 1.5.3 2.4c0 .3 0 .7-.1 1.3 0 .6-.1 1.2-.1 1.9s-.1 1.4-.2 2.1c-.1.7-.1 1.4-.2 2s-.1 1.2-.1 1.6c0 .5-.1.8-.1.9 0 .4 0 .7-.1.7-.1.1-.3.1-.6.1h-.9c-.6 0-1.1-.1-1.5-.2-.4-.1-.7-.3-.9-.5s-.4-.5-.4-.8c-.4-.3-.4-.7-.4-1.1zM889.9 887.7c-1.3 0-2.4-.2-3.2-.6s-1.5-.9-2-1.5-.9-1.4-1.1-2.2-.3-1.8-.3-2.8c0-1.1.1-2.2.4-3.3.3-1.1.7-2 1.4-2.9.7-.8 1.5-1.5 2.6-2s2.4-.8 4.1-.8c2.4 0 4.1.6 5.1 1.7s1.5 2.8 1.5 4.9c0 .6 0 1.2-.1 1.9s-.2 1.4-.5 2.1c-.2.7-.6 1.4-1 2-.4.7-.9 1.2-1.5 1.8-.6.5-1.4.9-2.2 1.2-1 .3-2 .5-3.2.5zm1.3-12.4c-.7 0-1.3.2-1.7.6-.4.4-.7.8-1 1.3-.2.5-.4 1.1-.4 1.6-.1.6-.1 1.1-.1 1.5 0 1.2.2 2.2.6 2.7.4.6 1 .9 1.7.9s1.2-.2 1.6-.6c.4-.4.8-.9 1-1.5s.4-1.2.5-1.8.1-1.2.1-1.6c0-.9-.2-1.7-.5-2.2s-1-.9-1.8-.9zM907.6 883.9c.5 0 1-.1 1.4-.2.4-.2.8-.3 1.1-.5s.6-.4.8-.5c.2-.2.4-.2.6-.2.4 0 .7.3.7.8 0 .1 0 .3-.1.6s-.1.5-.2.7c-.1.3-.2.5-.3.7s-.2.4-.3.5-.3.2-.5.5c-.2.2-.6.4-.9.6-.4.2-.9.4-1.4.6-.5.2-1.1.2-1.8.2s-1.5-.1-2.2-.3c-.8-.2-1.5-.6-2.1-1.1s-1.1-1.3-1.5-2.2-.6-2.1-.6-3.4c0-.5 0-1.1.1-1.7.1-.6.2-1.3.4-2s.5-1.3.8-2c.3-.6.8-1.2 1.4-1.7s1.3-.9 2.1-1.2 1.8-.5 2.9-.5c.9 0 1.7.1 2.4.3s1.2.5 1.7.9c.4.4.8.8 1 1.3s.3 1 .3 1.6c0 1-.3 1.8-1 2.2s-1.5.7-2.7.7c-.3 0-.5 0-.6-.1-.1 0-.2-.2-.2-.3V877c0-.4-.1-.7-.2-.9s-.2-.4-.4-.6c-.2-.1-.4-.2-.7-.2-.6 0-1.1.2-1.4.6-.3.4-.6.8-.8 1.4-.2.5-.3 1.1-.3 1.7 0 .6-.1 1-.1 1.4 0 1.3.2 2.3.6 2.8.4.4 1 .6 2 .7zM928.2 885.1c0 .1 0 .3-.1.6s-.2.6-.5.9c-.2.3-.5.6-.8.8s-.7.3-1.1.3c-.5 0-1-.2-1.5-.5s-1-.8-1.5-1.4c-.5-.6-1-1.3-1.5-2.1s-1-1.7-1.5-2.6c-.1 1-.2 2-.2 2.9s-.2 1.9-.2 2.8c0 .2-.1.4-.1.5-.1.1-.2.1-.5.1h-1c-.6 0-1.1-.1-1.4-.2-.4-.1-.7-.3-.9-.5s-.4-.5-.4-.9c-.1-.3-.1-.7-.1-1.2v-.7c0-.2 0-.6.1-1 0-.5.1-1 .2-1.8.1-.7.1-1.7.2-2.9s.2-2.7.3-4.5.3-3.9.4-6.4c0-.4.1-.7.1-.7.1-.1.2-.1.5-.1h1.1c.6 0 1.1.1 1.4.2s.7.3.9.5.4.5.5.8.1.6.1.9v.9c0 .4-.1 1-.1 1.6s-.1 1.3-.2 2.1-.1 1.6-.2 2.5l4.5-4.1c.2-.2.3-.3.5-.3s.2-.1.3-.1c.2 0 .4.1.7.4.2.3.5.6.7.9s.4.7.5 1.1c.1.4.2.7.2.9 0 .5-.4 1.1-1.3 1.7-.9.6-2.2 1.3-4 2 .8.9 1.5 1.7 2.3 2.4.7.7 1.3 1.4 1.9 2s1 1 1.3 1.4c.3.5.4.7.4.8z"></path>
    </a>
    <a href="#freestak" data-rails="true">
      <path class="st9 background" d="M635.6 998.6l-100.8-58.2V824l100.8-58.2L736.4 824v116.4l-100.8 58.2z"></path>
      <path class="st0" d="M620.9 870.3h-10v4.9h9.8v3.4h-9.8v9.4h-4v-21.1h13.9l.1 3.4zM634.1 874.3l-2.1 3.2c-.8-.8-1.7-1.5-2.6-1.5-.9 0-2.4.8-2.4 3.4v8.7h-3.8v-15.3h3.8v1.7c.9-1.3 2.1-2.1 3.4-2.1 1.3-.2 2.6.8 3.7 1.9zM651.1 880.3c0 .6 0 .9-.2 1.5h-12.2c.6 1.9 2.1 3.2 4.3 3.2 1.3 0 2.8-.6 3.8-1.3l2.4 2.4c-2.1 1.5-4.1 2.1-6.2 2.1-4.5 0-8.1-3.6-8.1-8.1s3.6-8.1 8.1-8.1c4.3.2 8.1 3.6 8.1 8.3zm-4-1.5c-.6-1.9-2.3-3.2-4.1-3.2s-3.6 1.3-4.1 3.2h8.2zM669.2 880.3c0 .6 0 .9-.2 1.5h-12.2c.6 1.9 2.1 3.2 4.3 3.2 1.3 0 2.8-.6 3.8-1.3l2.4 2.4c-2.1 1.5-4.1 2.1-6.2 2.1-4.5 0-8.1-3.6-8.1-8.1s3.6-8.1 8.1-8.1c4.3.2 8.1 3.6 8.1 8.3zm-4-1.5c-.6-1.9-2.3-3.2-4.1-3.2s-3.6 1.3-4.1 3.2h8.2zM682.7 883.7c0 3-3.2 4.7-5.8 4.7-2.3 0-4.3-.8-5.8-2.6l2.3-2.3c.9 1.1 2.1 1.9 3.6 1.9 1.1 0 2.1-.4 2.1-1.3s-1.1-1.5-3.2-2.1c-2.4-.8-4.7-2.1-4.7-4.7 0-3 3-4.7 5.8-4.7 2.3 0 4.1.9 5.6 2.6l-2.1 2.1c-.9-1.1-2.1-1.7-3.4-1.7-.9 0-2.3.6-2.3 1.5 0 .8 1.1 1.3 3.2 1.9 2.6.6 4.7 2.3 4.7 4.7zM693.6 887.7c-.8.6-1.9.8-2.8.8-3.6 0-4.7-1.7-4.7-5.6v-6.6H684v-1.5c2.4-1.3 4.3-3.4 4.7-6.4h1.1v4.3h3.8v3.4h-3.8v7c0 1.5.8 1.9 1.7 1.9.6 0 1.5-.2 2.1-.8v3.5zM708.3 888h-3.8v-.8c-1.3.9-2.8 1.1-4.5 1.1-3 0-4.9-1.9-4.9-4.7 0-3.4 3.2-5.1 7.2-5.1h2.3c0-1.9-1.1-3-3.4-3-1.1 0-2.3.4-3.4 1.3l-2.3-2.3c1.7-1.5 3.8-2.4 6-2.4 2.1 0 3.8.8 4.9 1.9 1.3 1.3 1.9 2.8 1.9 5.5v8.5zm-3.9-4v-2.8h-1.7c-2.1 0-3.8.6-3.8 2.1 0 1.1.9 1.9 2.3 1.9.9 0 2-.4 3.2-1.2zM725.6 888h-4.5l-6.2-6.8v6.8h-4v-22h4v13l5.3-6.4h4.5l-6.2 7.5 7.1 7.9zM561.3 888.4v-22.8l12.8-7.7-5.1-3-19.2 11.5v22.8l19.6 11.1 19.2-11.3-13 7.5-14.3-8.1z"></path>
      <path class="st0" d="M580.3 854.1l-6.2 3.8 14.5 8.7V889l-13 7.5-14.3-8.1 19.4 11.1 19.2-11.3V866l-19.6-11.9z"></path>
    </a>
    <a href="#zigloop" data-rails="true" data-ios="true" data-android="true">
      <path class="st10 background" d="M423.4 998.6l-100.8-58.2V824l100.8-58.2L524.2 824v116.4l-100.8 58.2z"></path>
      <path class="st11" d="M421 866.6h-4.1v18.8h4.1v.4h-8.8v-.4h4.1v-18.8h-4.1v-.4h8.8v.4z"></path>
      <path class="st11" d="M439.2 872c-1.3-3.6-4.7-5.6-8.5-5.6-2.6 0-4.9 1.1-6.6 2.8s-2.6 4.1-2.6 6.8c0 2.6 1.1 5.1 2.6 6.8 1.7 1.7 4 2.8 6.6 2.8 4 0 8.1-3.2 8.8-7.3h-8.7v-.4h9.2c0 .8-.2 1.3-.6 1.9-1.3 3.6-5.5 6.2-9 6.2-2.6 0-5.1-1.1-6.8-3s-2.8-4.3-2.8-7.2c0-2.8 1.1-5.3 2.8-7.2 1.7-1.9 4.1-3 6.8-3 4 0 7.5 2.3 8.8 6v.4zM443 885.4h10.5v.4h-11.1v-19.6h.4v19.2h.2zM455.6 868.8c1.9-1.9 4.3-3 7.2-3 2.8 0 5.3 1.1 7.2 3s3 4.3 3 7.2-1.1 5.3-3 7.2c-1.9 1.9-4.3 3-7.2 3-2.8 0-5.3-1.1-7.2-3s-3-4.3-3-7.2 1.1-5.3 3-7.2zm14 .4c-1.7-1.7-4.1-2.8-6.8-2.8s-5.1 1.1-6.8 2.8c-1.7 1.7-2.8 4.1-2.8 6.8 0 2.6 1.1 5.1 2.8 6.8s4.1 2.8 6.8 2.8c2.6 0 5.1-1.1 6.8-2.8s2.8-4.1 2.8-6.8c0-2.6-1.1-5.1-2.8-6.8zM476.9 868.8c1.9-1.9 4.3-3 7.2-3s5.3 1.1 7.2 3 3 4.3 3 7.2-1.1 5.3-3 7.2c-1.9 1.9-4.3 3-7.2 3s-5.3-1.1-7.2-3c-1.9-1.9-3-4.3-3-7.2.2-2.8 1.3-5.3 3-7.2zm13.9.4c-1.7-1.7-4.1-2.8-6.8-2.8-2.6 0-5.1 1.1-6.8 2.8-1.7 1.7-2.8 4.1-2.8 6.8 0 2.6 1.1 5.1 2.8 6.8s4.1 2.8 6.8 2.8c2.6 0 5.1-1.1 6.8-2.8s2.8-4.1 2.8-6.8c.1-2.6-.9-5.1-2.8-6.8zM496.1 866.2h6.8c7.9 0 7.9 12.2 0 12.2h-6.4v7.5h-.4v-19.7zm6.8 11.7c7.3 0 7.3-11.3 0-11.3h-6.4v11.3h6.4z"></path>
      <path class="st12" d="M364.6 861.6h23.5l-24.6 33h24.3c.4 0 .8-.1 1.2-.3 10.9-5.5 18.6-17.9 16.3-28.9-3.5-17.2-26.5-26.2-42.8-18-.1 0-.2.1-.2.1-7.2 3.6-17.6 12.5-19 26.6-1.6 15.9 9.3 27.3 15.3 31.1.9.6 2 1.1 2 1.2 7.6 4.1 15.5 4.3 19.5 3.9 10-.9 20.2-7.8 26.4-18.5"></path>
    </a>
    <a href="#total_adventure_zazmic" data-rails="true">
      <path class="st13 background" d="M1166.4 814.7l-100.8-58.3V640l100.8-58.2 100.8 58.2v116.4l-100.8 58.3z"></path>
      <path class="st0" d="M1107.3 697.5c0-.2.1-.3.3-.3h3.4c.2 0 .3.1.3.3v.3c0 .2-.1.3-.3.3h-1c-.3 0-.3 0-.3.3v7.8c0 .2-.1.3-.3.3h-.4c-.2 0-.3-.1-.3-.3v-7.8c0-.3 0-.3-.2-.3h-1c-.2 0-.3-.1-.3-.3v-.3h.1zM1119.4 704.2c0 1.5-.8 2.2-2 2.2s-2-.7-2-2.2v-4.8c0-1.5.8-2.2 2-2.2s2 .7 2 2.2v4.8zm-.8-4.6c0-1.2-.3-1.6-1.1-1.6s-1.1.5-1.1 1.6v4.4c0 1.2.3 1.6 1.1 1.6s1.1-.5 1.1-1.6v-4.4zM1123.8 697.5c0-.2.1-.3.3-.3h3.4c.2 0 .3.1.3.3v.3c0 .2-.1.3-.3.3h-1c-.3 0-.3 0-.3.3v7.8c0 .2-.1.3-.3.3h-.4c-.2 0-.3-.1-.3-.3v-7.8c0-.3 0-.3-.2-.3h-1c-.2 0-.3-.1-.3-.3v-.3h.1zM1135.2 706.4c-.2 0-.3 0-.3-.2l-.2-.9c-.1-.3-.1-.3-.3-.3h-1.6c-.3 0-.2 0-.3.3l-.2.9c0 .2-.1.2-.3.2h-.4c-.1 0-.2 0-.2-.2l1.6-8.7c0-.2.1-.2.3-.2h.5c.2 0 .2 0 .3.2l1.6 8.7c0 .2-.1.2-.2.2h-.3zm-2.4-2.5c0 .3 0 .3.2.3h1.3c.3 0 .3 0 .2-.3l-.8-4.7c0-.1-.1-.1-.1 0l-.8 4.7zM1140.8 706.4c-.2 0-.3-.1-.3-.3v-8.7c0-.2.1-.3.3-.3h.4c.2 0 .3.1.3.3v7.8c0 .3 0 .3.3.3h1.9c.2 0 .3.1.3.3v.3c0 .2-.1.3-.3.3h-2.9zM1158.1 706.4c-.2 0-.3 0-.3-.2l-.2-.9c-.1-.3-.1-.3-.3-.3h-1.6c-.3 0-.2 0-.3.3l-.2.9c0 .2-.1.2-.3.2h-.4c-.1 0-.2 0-.2-.2l1.6-8.7c0-.2.1-.2.3-.2h.5c.2 0 .2 0 .3.2l1.6 8.7c0 .2-.1.2-.2.2h-.3zm-2.4-2.5c0 .3 0 .3.2.3h1.3c.3 0 .3 0 .2-.3l-.8-4.7c0-.1-.1-.1-.1 0l-.8 4.7zM1167.4 704.2c0 1.5-.8 2.2-2 2.2h-1.9c-.2 0-.3-.1-.3-.3v-8.7c0-.2.1-.3.3-.3h1.9c1.2 0 2 .7 2 2.2v4.9zm-3.2 1.1c0 .3 0 .3.3.3h1c.7 0 1.1-.5 1.1-1.6v-4.3c0-1.2-.3-1.6-1.1-1.6h-1c-.3 0-.3 0-.3.3v6.9zM1175.9 697.2c.1 0 .2 0 .2.2l-1.7 8.7c0 .2-.1.2-.3.2h-.4c-.2 0-.2 0-.3-.2l-1.7-8.7c0-.2.1-.2.2-.2h.4c.2 0 .3 0 .3.2l1.2 6.9c0 .1.1.1.1 0l1.2-6.9c0-.2.1-.2.3-.2h.5zM1181 706.4c-.2 0-.3-.1-.3-.3v-8.7c0-.2.1-.3.3-.3h2.6c.2 0 .3.1.3.3v.3c0 .2-.1.3-.3.3h-1.7c-.3 0-.3 0-.3.3v2.6c0 .3 0 .3.3.3h1.7c.2 0 .3.1.3.3v.3c0 .2-.1.3-.3.3h-1.7c-.3 0-.3 0-.3.3v3.1c0 .3 0 .3.3.3h1.7c.2 0 .3.1.3.3v.3c0 .2-.1.3-.3.3h-2.6v-.3zM1192 706.4c-.1 0-.2-.1-.3-.2l-2.1-5.8c0-.1-.1-.1-.1 0v5.7c0 .2-.1.3-.3.3h-.4c-.2 0-.3-.1-.3-.3v-8.7c0-.2.1-.3.3-.3h.3c.1 0 .2.1.3.2l2.1 5.8c0 .1.1.1.1 0v-5.8c0-.2.1-.3.3-.3h.4c.2 0 .3.1.3.3v8.7c0 .2-.1.3-.3.3l-.3.1zM1197 697.5c0-.2.1-.3.3-.3h3.4c.2 0 .3.1.3.3v.3c0 .2-.1.3-.3.3h-1c-.3 0-.3 0-.3.3v7.8c0 .2-.1.3-.3.3h-.4c-.2 0-.3-.1-.3-.3v-7.8c0-.3 0-.3-.2-.3h-1c-.2 0-.3-.1-.3-.3v-.3h.1zM1209.2 704.2c0 1.5-.8 2.2-2 2.2s-2-.7-2-2.2v-6.7c0-.2.1-.3.3-.3h.4c.2 0 .3.1.3.3v6.5c0 1.2.3 1.6 1.1 1.6.7 0 1.1-.5 1.1-1.6v-6.5c0-.2.1-.3.3-.3h.4c.2 0 .3.1.3.3v6.7h-.2zM1214.4 706.4c-.2 0-.3-.1-.3-.3v-8.7c0-.2.1-.3.3-.3h1.5c1.2 0 2 .7 2 2.2v.7c0 .9-.3 1.6-.8 1.9l.8 4.1c0 .2-.1.2-.2.2h-.4c-.2 0-.3 0-.3-.2l-.7-3.6c0-.2-.1-.2-.2-.2h-.7c-.3 0-.3 0-.3.3v3.5c0 .2-.1.3-.3.3l-.4.1zm.6-5.1c0 .3 0 .3.3.3h.6c.7 0 1.1-.5 1.1-1.6v-.3c0-1.2-.3-1.6-1.1-1.6h-.6c-.3 0-.3 0-.3.3v2.9zM1222.9 706.4c-.2 0-.3-.1-.3-.3v-8.7c0-.2.1-.3.3-.3h2.6c.2 0 .3.1.3.3v.3c0 .2-.1.3-.3.3h-1.7c-.3 0-.3 0-.3.3v2.6c0 .3 0 .3.3.3h1.7c.2 0 .3.1.3.3v.3c0 .2-.1.3-.3.3h-1.7c-.3 0-.3 0-.3.3v3.1c0 .3 0 .3.3.3h1.7c.2 0 .3.1.3.3v.3c0 .2-.1.3-.3.3h-2.6v-.3zM1144.6 664.5l-16.6 28.3h31.8l-15.2-28.3zM1190.2 664.7l-16.8 28.3h32l-15.2-28.3z"></path>
      <path class="st14" d="M1212.2 693c-1.7-23.5-21.3-40.9-45.2-40.9s-43.5 17.3-45.2 40.9h90.4zM1123.5 711.2c5.5 18.8 22.8 31.4 43.5 31.4 20.5 0 37.8-12.8 43.5-31.4h-87z"></path>
      <path class="st15" d="M1106.6 693h120.3M1106 711.2h120.3"></path>
      <path class="st0" d="M1186.8 694.1l-19.4-30.5-19.6 30.5h39zm-9.1-10.4l-5.3 4.1-7.9-4-6.6 5.8-3.6-2.4 13-20 10.4 16.5zM1197.1 710.1h-59.7l-7.7 11.9c-.4.4-.2 1.1.2 1.5l1.1 1.5c.2.4.6.4.9.4l69.9-.6c.4 0 .4 0 .8-.4l1.9-1.7c.4-.4.4-.9 0-1.3l-7.4-11.3z"></path>
    </a>
    <a href="#classly" data-client="classly" data-rails="true" data-angular="true">
      <path class="st16 background" d="M954.2 814.7l-100.8-58.3V640l100.8-58.2L1055 640v116.4l-100.8 58.3z"></path>
      <path class="st0" d="M960.1 708.4c0 .8-.2.8-1.5.4.3-.2 1.1.2 1.5-.4z"></path>
      <path class="st0" d="M964.2 699c1.3-.6 2.3-1.5 3.2-2.8 2.6-4.1 1.1-8.1-3.6-9-2.1-.4-4.3-.4-6.4.4-4.3 1.5-6.6 5.5-5.5 9.8.6 2.4 2.3 4 4 5.6 1.7 1.7 3.4 3.2 4.3 5.5-.4.6-.4.6-1.5.4-3.8-.4-5.6-2.6-6.6-6-.2-.9-.6-2.3-1.9-2.4-1.3-.2-2.1.8-2.6 1.7-.2.4-.4.6-.6.9-.6 1.7-1.9 2.6-3.2 3.6-1.5 1.1-2.1.9-2.4-1.1v-.8c-.6-4.1-.9-8.5 1.7-12.2.6-.9.4-1.9-.2-2.6-.9-1.1-1.9-2.3-3.4-2.8-.9-.4-1.9-.4-2.6.6-.4.8-.9.6-1.5.4-1.9-.6-3.8-.8-5.8-.4-6.4 1.3-11.5 6.8-12.8 13.4-.2.9 0 1.9-.6 2.6-1.3 1.5-2.8 2.8-4.7 3.6-2.8.9-4.9.4-6.2-1.5s-1.3-5.8 0-7.3c3.2-3.8 6.6-7.3 9.8-11.1 2.1-2.3 3.8-4.9 4.3-7.9.6-3.2-.9-5.8-4-6.2-.9-.2-1.9-.2-2.8 0-4.7.9-7.9 4-10.4 7.9-3.6 5.8-5.5 12.4-5.8 19.4 0 .9-.2 1.7-.9 2.4-2.8 3-6.2 4.9-10.4 5.3-4.5.6-7.9-1.7-8.8-6-1.1-6 .2-11.7 3-16.9.4-.6.6-.8 1.1-.4 1.9.8 3.8 1.1 5.8 1.3 3 .4 6 .2 8.7-1.5 2.4-1.5 3.6-4 2.8-7-.6-2.6-2.3-4.1-4.9-4.9-1.1-.4-3.8-.4-3.8-.4-4.1-.2-7.7 1.1-11.1 3.6-.8.6-1.1.4-1.9-.2-.8-.8-1.5-1.7-2.4-2.3-.6-.4-1.3-.6-2.1-.2-.8.4-.8 1.1-.6 1.9.2 1.7.9 3 1.7 4.3.4.6.6 1.1 0 1.9-3 4.1-5.3 9.2-5.6 14.9v2.6c0 1.3.4 4.7.6 5.1 1.1 4.7 4.1 7.7 8.7 9 7.9 2.3 15.1 1.3 20.9-5.1.8.9 1.3 1.9 2.1 2.8 3.6 3.4 11.5 5.1 16.9-.6.6-.6.9-.9 1.5.2 1.5 2.4 4 3.6 6.8 3.8 4.3.2 7.9-1.3 10.4-5.1.2.6.4 1.1.4 1.5.9 3 2.4 4 5.6 3.2 1.9-.4 3.6-1.3 5.1-2.4.4-.2.6-.8 1.1-.2 5.1 4.5 10.7 4 16.2 1.7 4-1.7 5.1-6.2 2.6-9.8-.6-.8-1.3-1.7-1.9-2.4-.5-1.1-.7-1.5.2-1.8zm-55-18.6c.6-.9 1.3-1.7 2.4-2.3 1.1-.6 1.7 0 1.7 1.1s-.4 2.3-1.1 3c-2.3 3-4.7 5.8-6.8 8.8 0 0-.2.2-.6.2 1-3.7 2-7.5 4.4-10.8zm-26.1-.8c1.9-1.7 4.1-2.4 6.6-2.3 1.1 0 1.9.6 1.9 1.9 0 1.1-.8 1.7-1.7 1.9-.6.2-1.3.2-2.1.2-1.5 0-3-.4-4.5-.6-.8-.2-.8-.5-.2-1.1zm52.1 12.6c-.6 3-.6 6-.9 9-.4 3-2.1 5.5-4.9 6.6-2.8 1.1-4.9-.6-4.9-4 0-5.6 4.3-11.1 9.8-12.4.7-.4 1.1-.1.9.8zm27.7 2.1c-.4.9-1.1 2.4-1.9 2.4-.9 0-1.5-1.3-1.9-2.3-1.1-2.4-.6-2.4 2.1-2.8 1.5.1 2.3 1.4 1.7 2.7zM1045.9 701.8c0-.4-.2-.9-.6-1.1-.4-.2-.8.2-1.1.4-.6.6-1.1 1.1-1.5 1.7-2.3 2.8-4.7 5.5-7.9 7.9.2-.6.2-.9.4-1.3 1.5-4.9 2.8-9.8 4-14.9.6-2.6.2-5.1-1.5-7.2-.8-.8-1.5-1.5-2.8-1.3-1.1.2-1.7 1.1-2.1 2.3-.9 3.4-1.9 6.8-3 10-.8 2.4-.9 4.9-2.4 7.2-.9 1.3-2.1 1.9-3.8 1.9s-2.3-.6-2.3-2.3c0-2.6.8-5.1 1.5-7.5.8-2.6 1.3-5.3.8-8.1-.2-1.3-.8-2.4-2.1-2.6-1.9-.2-3.8-.2-5.3 1.5-.2.2-.2.4-.2.8-.4 3.2-.8 6.4-1.1 9.6-.4 4.3-3.4 7.7-7.5 8.7-2.3.6-4.3-.2-5.3-1.9-1.3-2.1-1.3-5.6 0-7.2 2.8-3.6 6-6.8 9-10.4 2.1-2.4 4.3-4.9 5.1-8.3.9-4.5-.8-7.3-5.5-7-3.8.2-6.8 2.1-9 4.9-3 3.4-4.9 7.5-6.2 11.9-1.5 4.7-2.3 9.6-2.1 14.5.2 3.4 1.5 6.2 4.5 8.1 4.7 3 10.5 2.4 14.7-1.1.6-.6.9-.8 1.7.2.9 1.3 2.4 2.1 4.1 2.3 3.8.8 7.2.2 10.2-3-.2.9-.4 1.5-.4 2.1-.2 1.7-.9 2.3-2.6 2.6-3.2.6-6.4 1.1-9.4 2.3-4 1.5-4.9 4.7-2.4 8.1 2.6 3.8 9.8 4.9 13.9 1.9 2.6-1.9 3.8-4.5 4.5-7.5.4-1.1.9-1.9 2.1-2.6 4.7-2.6 8.7-6.2 11.1-11.3.3-1.5.5-2.8.5-4.3zm-39-22.3c.4-.6.9-.9 1.5-1.3s1.1-.6 1.7 0c.4.4.4.9.4 1.5-.2 1.1-.8 2.3-1.5 3.2-2.1 2.8-4.5 5.5-6.4 8.3 0 .2-.2.2-.6.4 1-4.5 2.1-8.6 4.9-12.1zm12.3 44.5c-.4-.2-.8-.4-1.1-.8-.9-.9-.8-1.9.6-2.3.4-.2.8-.2 1.1-.2 1.9-.2 3.8-.6 5.6-.8-.9 3.6-3.6 5.3-6.2 4.1z"></path>
      <path class="st0" d="M986.2 699c2.4-1.1 3.8-3 4.3-5.6.6-2.8-.8-4.9-3.4-5.8-2.6-.9-5.3-.8-7.9.2-5.6 2.1-7.3 8.7-3.4 13.2.9 1.1 2.3 2.3 3.2 3.4 1.1 1.1 2.3 2.4 2.8 4 .2.4.6.8-.4.8-3.2.2-5.8-1.5-7-4.5-.4-.9-.6-1.7-.9-2.6-.8-1.7-1.9-1.9-3.2-.8-3.8 2.8-3.4 9 .6 11.5 2.3 1.3 4.7 1.7 7.3 1.7 2.1 0 4.3-.2 6.4-1.1 4.5-1.9 5.8-6.6 3-10.5-.6-.8-1.1-1.5-1.9-2.3-.2-1-.2-1.2.5-1.6zm-2.8-2.5c-.4.4-.6 0-.8-.2-.6-.6-1.1-1.3-1.3-2.1-.4-.8-1.1-1.5-.2-2.3.9-.8 3.2-.6 3.8 0 .4.4.4.8.4 1.1-.4 1.7-1.1 2.5-1.9 3.5z"></path>
    </a>
    <a href="#moozen_apps" data-rails="true" data-angular="true">
      <path class="st17 background" d="M742 814.7l-100.8-58.3V640L742 581.8 842.8 640v116.4L742 814.7z"></path>
      <path id="XMLID_780_" class="st0" d="M761 663.2c-19 0-34.1 15.6-34.3 34.8 0 19.4 15.4 35.2 34.3 35 18.6 0 34.1-16 33.9-35 .2-19.2-15-34.8-33.9-34.8zm0 60.1c-13.4 0-24.3-11.3-24.3-25 0-13.9 10.9-25 24.5-25 13.2 0 23.9 11.3 23.9 25s-10.9 25-24.1 25z"></path>
      <path class="st0" d="M723.9 698.4c0-11.7 5.3-22.2 13.4-29.2.4-.8.6-1.5.6-1.7-4 0-7.7.2-11.5 0-2.3-.2-3.2.8-4 2.6-4.1 10.2-8.7 20.1-13 30.5-.4-.9-.8-1.7-1.1-2.3-4-9.2-7.9-18.5-11.9-27.7-.9-2.3-1.9-3.4-4.5-3.2-3.6.2-7.2 0-11.1 0 .4.9.8 1.7.9 2.4 6.8 15.8 13.4 31.4 20.1 47.3.9 2.1 1.3 5.1 3 6.2 1.7 1.3 8.7 1.9 9.8-1.1 3-7.2 6-14.5 9.2-21.7.1-.6.1-1.3.1-2.1z"></path>
    </a>
    <a href="#somasoft_inc" data-rails="true">
      <path class="st18 background" d="M529.6 814.7l-100.8-58.3V640l100.8-58.2L630.4 640v116.4l-100.8 58.3z"></path>
      <path class="st0" d="M530.6 702.9l.7-.8c.2-.3.6-.4.9-.1.4.4 2 1.9 4.6 1.9 2.7 0 4.9-1.8 4.9-4 0-2-1.9-3-4.6-4.2-2.7-1.3-4.9-2.8-4.9-5.5s2.1-5.9 6.8-5.9c2.5 0 4.2 1 5.1 1.7.3.2.4.6.1.9l-.5.7c-.3.4-.6.4-.9.2-.4-.3-2-1.3-4-1.3-3.1 0-4.4 2.1-4.4 3.6 0 1.8 1.6 2.8 3.8 3.9 3 1.4 5.6 2.6 5.6 5.8 0 3.7-3.2 6.3-7.4 6.3-3.1 0-5-1.5-5.9-2.3 0-.3-.1-.6.1-.9zM548.9 685.5c-.1-.4.1-.8.5-.8h1.1c.3 0 .5.2.6.5l5.2 17.6h.1l9.6-17.6c.2-.3.5-.5.7-.5h1.1c.5 0 .6.4.4.8l-19.5 35c-.2.3-.4.4-.7.4h-1.1c-.4 0-.6-.3-.4-.7l8.3-15-5.9-19.7zM573.8 686.7h-2.3c-.5 0-.6-.3-.5-.7l.1-.8c.1-.4.3-.5.7-.5h2.2l.8-5.6c.1-.4.4-.7.8-.7l.9-.1c.4 0 .6.3.6.7l-.8 5.7h6.3c.4 0 .6.3.6.7l-.1.7c-.1.4-.4.7-.7.7h-6.3l-1.9 13.2c-.3 2.4-.3 3.8 1.6 3.8 1.7 0 3.7-1 4.4-1.5.4-.3.6-.1.8.2l.4.7c.2.4.1.6-.3.9-.8.6-3.1 1.9-5.6 1.9-3.6 0-3.9-2.5-3.4-5.9l1.7-13.4zM597.2 684.2c3.6 0 6.5 2.1 6.5 5.3 0 7.7-15 6.2-15 6.2-.4 4.5 1.9 8.1 6 8.1 2.4 0 4.7-1.3 5.6-2 .5-.3.6-.3.8.1l.5.8c.2.3.2.5-.2.8-.7.6-3.7 2.4-7.3 2.4-4.8 0-7.8-4.1-7.8-9.2 0-6.8 4.5-12.6 10.9-12.5zm4.2 5.4c0-1.8-1.9-3.3-4.5-3.3-3.9 0-7.2 3.2-8 7.4 5.6.5 12.5-.2 12.5-4.1zM607.1 702.9l.7-.8c.2-.3.6-.4.9-.1.4.4 2 1.9 4.6 1.9 2.7 0 4.9-1.8 4.9-4 0-2-1.9-3-4.6-4.2-2.7-1.3-4.9-2.8-4.9-5.5s2.1-5.9 6.8-5.9c2.5 0 4.2 1 5.1 1.7.3.2.4.6.1.9l-.5.7c-.3.4-.6.4-.9.2-.4-.3-2-1.3-4-1.3-3.1 0-4.4 2.1-4.4 3.6 0 1.8 1.6 2.8 3.8 3.9 3 1.4 5.6 2.6 5.6 5.8 0 3.7-3.2 6.3-7.4 6.3-3.1 0-5-1.5-5.9-2.3.1-.3-.1-.6.1-.9z"></path>
      <path class="st0" d="M439.5 686.5c0-.5.4-.9.9-.9h1.7c.4 0 .7.2.8.5l.6 1.7c.8-.9 2.9-2.7 6.1-2.7 2.6 0 4.4 1 6 2.8.8-.8 3.2-2.8 6.5-2.8 5.9 0 8 4.4 8 9.2v8.8c0 .5-.4.9-.9.9h-3.7c-.5 0-.9-.4-.9-.9V694c0-2.4-1.1-3.9-3.4-3.9-2.7 0-3.9 1.9-3.9 1.9v11c0 .5-.4.9-.9.9H453c-.5 0-.9-.4-.9-.9v-9.1c0-2.4-1.1-3.9-3.4-3.9s-3.4 1.7-3.9 2.9V703c0 .5-.4.9-.9.9h-3.7c-.5 0-.9-.4-.9-.9v-16.5h.2zM472.9 686.9c-.3-.6.1-1.2.8-1.2h4.1c.4 0 .6.2.8.5l4.6 10.4 4.6-10.4c.2-.5.6-.5 1.1-.5h3.7c.7 0 1.1.6.8 1.2l-14 30.3c-.1.3-.4.5-.8.5h-3.9c-.7 0-1.1-.6-.8-1.2l6.5-13.8-7.5-15.8z"></path>
      <path class="st19" d="M510.4 688.1c0-.8.2-3.8 2.6-6 1.9-1.7 4.1-3.4 7.9-2.1 3.6 1.1 4.1 5.8 4.3 6.8.9 6.2-3.4 13.6-9.8 15.3-2.6.8-4.9.4-6.2.2"></path>
      <path class="st19" d="M511.4 709.2c0 .8-.4 3.8-3 6-1.9 1.7-4.3 3.2-8.1 1.7-3.6-1.3-3.8-6-4-7.2-.8-6.2 4.1-13.4 10.5-14.9 2.6-.6 4.9-.2 6.2.2"></path>
    </a>
    <a href="#daisybill" data-rails="true">
      <path class="st20 background" d="M317.2 814.7l-100.8-58.3V640l100.8-58.2L418 640v116.4l-100.8 58.3z"></path>
      <path class="st0" d="M247.9 677.5c-11.1 0-20.1 9-20.1 20.1s9 20.1 20.1 20.1c11.1 0 20.1-9 20.1-20.1.1-11.1-8.9-20.1-20.1-20.1zm13.2 25c-.6 0-1.1-.2-1.5-.2-.2.4-.2.6-.4.9 1.7.8 2.8 2.4 2.8 4.3 0 2.6-2.1 4.7-4.7 4.7-1.9 0-3.6-1.1-4.3-2.8-.2 0-.4.2-.6.2.2.6.4.9.4 1.5 0 2.6-2.1 4.7-4.7 4.7s-4.7-2.1-4.7-4.7c0-.6.2-1.1.4-1.5-.2-.2-.6-.2-.8-.4-.8 1.5-2.3 2.4-4.1 2.4-2.6 0-4.7-2.1-4.7-4.7 0-1.9 1.1-3.4 2.6-4.1 0-.2-.2-.4-.2-.6-.6.2-.9.2-1.5.2-2.6 0-4.7-2.1-4.7-4.7s2.1-4.7 4.7-4.7c.6 0 1.1.2 1.5.2 0-.2.2-.6.4-.8-1.5-.8-2.6-2.4-2.6-4.1 0-2.6 2.1-4.7 4.7-4.7 1.9 0 3.6 1.1 4.3 2.6.2-.2.6-.2.8-.4-.2-.6-.4-1.1-.4-1.7 0-2.6 2.1-4.7 4.7-4.7s4.7 2.1 4.7 4.7c0 .6-.2 1.1-.4 1.7.2 0 .4.2.8.2.8-1.5 2.4-2.6 4.3-2.6 2.6 0 4.7 2.1 4.7 4.7 0 1.9-1.1 3.4-2.6 4.3.2.2.2.4.4.8.6-.2.9-.4 1.5-.4 2.6 0 4.7 2.1 4.7 4.7 0 2.8-2.8 5.1-5.5 5z"></path>
      <circle class="st0" cx="247.9" cy="697.7" r="4.7"></circle>
      <path class="st0" d="M274.2 706.7h3.2v-16.8h-3.2v-2h7.7c7.6 0 13 1.7 13 10.4s-5.3 10.5-13 10.5h-7.7v-2.1zm6 0h1.7c5.9 0 10-1.6 10-8.4 0-6.8-4-8.4-10-8.4h-1.7v16.8zM308.4 705.7c-.7 2.3-2.6 3.3-5 3.3-2.9 0-5.7-1.2-5.7-4.5 0-4.5 4.4-4.7 7.9-4.7h2.8v-.9c0-2.3-1.2-3.1-3.5-3.1-2 0-3.6.4-3.8 2.5h-2.8c.2-3.4 3.1-4.5 6.3-4.5 3.5 0 6.5.7 6.5 4.5v8.4h2.6v2h-5.2v-3h-.1zm-4.7 1.3c3.2 0 4.6-2.3 4.6-5.1h-2.2c-1.9 0-5.7 0-5.7 2.7.1 1.8 1.8 2.4 3.3 2.4zM315.1 706.7h2.5v-10.5h-2.5v-2h5.2v12.5h2.5v2h-7.7v-2zm5.1-15.9h-3v-3h3v3zM324.8 708.7v-5.1h2c0 1.4.6 2.2 1.5 2.7s2.1.6 3.3.6 3-.7 3-2.3c0-2-2.1-2-3.7-2.2-2.7-.4-6-.8-6-4.2 0-3.1 3-4.6 5.7-4.6 1.9 0 3.6.6 4.4 2.1h.1v-1.8h2v4.8h-2c0-1.3-.4-2-1.2-2.5-.7-.4-1.7-.6-2.8-.6-1.5 0-3.6.4-3.6 2.3 0 1.7 2.5 1.7 4.4 2 2.6.4 5.5.9 5.5 4.2 0 3.4-3.1 4.7-6.1 4.7-1.7 0-3.8-.7-4.4-2.3h-.1v2h-2v.2zM356.5 696.2h-1.6l-6 13.9c-1.1 2.5-1.8 4.2-4.7 4.2-.7 0-1.3-.1-2-.2v-2c.5 0 1 .1 1.5.1 2.2 0 2.3-1.8 3.2-3.6l-5.7-12.5h-1.6v-2h7.3v2h-2.8l4.2 9.8 4.1-9.8h-2.8v-2h6.9v2.1zM357.8 706.7h3.2v-16.8h-3.2v-2h9.5c3.5 0 8.1.1 8.1 5.6 0 2.2-1.6 4.2-4.2 4.6v.1c3 0 4.8 1.7 4.8 4.8 0 5.2-4.2 5.9-8.8 5.9h-9.4v-2.2zm6.1-9.6h3.4c2.7 0 5.2-.5 5.2-3.8 0-3.5-3-3.5-5.1-3.5H364v7.3h-.1zm0 9.6h3.4c3 0 5.8-.5 5.8-3.8 0-3.2-2.7-3.6-5.8-3.6h-3.4v7.4zM379.1 706.7h2.5v-10.5h-2.5v-2h5.2v12.5h2.5v2h-7.7v-2zm5.2-15.9h-3v-3h3v3zM388 706.7h2.5v-16.8H388v-2h5.2v18.9h2.5v2H388v-2.1zM396.9 706.7h2.5v-16.8h-2.5v-2h5.2v18.9h2.5v2h-7.7v-2.1z"></path>
    </a>
    <a href="#myschool" data-rails="true">
      <path class="st21 background" d="M1272.6 630.4l-100.8-58.3V455.7l100.8-58.2 100.8 58.2v116.4l-100.8 58.3z"></path>
      <path class="st0" d="M1245.4 517h5.5c.1.9.4 1.6 1.1 2 .6.4 1.5.7 2.7.7.9 0 1.6-.2 2.1-.5s.8-.8.8-1.3c0-.7-.3-1.2-.8-1.6-.5-.4-2-.7-4.4-1.1-2.3-.3-4-.9-5-1.8s-1.5-2-1.5-3.5c0-1.7.7-3 2.1-3.9s3.5-1.4 6.3-1.4c2.7 0 4.7.5 6.1 1.5 1.3 1 2 2.3 2.1 3.9h-4.9c-.1-.6-.3-1.1-.8-1.5-.4-.3-1.2-.5-2.2-.5s-1.8.1-2.3.4c-.6.3-.8.6-.8 1.1 0 .7.3 1.2.8 1.5.5.4 1.8.7 3.8 1 3 .4 4.9 1.1 5.8 1.9.9.9 1.4 2 1.4 3.4 0 1.8-.7 3.3-2.1 4.3s-3.6 1.5-6.6 1.5c-2.8 0-5-.5-6.6-1.6-1.7-1.2-2.5-2.7-2.6-4.5zM1279.1 515.9h5.3c-.2 2-1 3.7-2.5 5.1-1.5 1.4-3.7 2-6.5 2-3 0-5.4-.8-7.1-2.4-1.7-1.6-2.6-3.9-2.6-6.8 0-2.8.8-5.1 2.5-6.8 1.7-1.7 4.2-2.5 7.5-2.5 2.6 0 4.6.6 6 1.8 1.4 1.2 2.3 2.9 2.5 5h-5.2c-.2-1.2-.5-2-1.1-2.6-.6-.5-1.4-.8-2.4-.8-1.3 0-2.4.5-3.1 1.4s-1.1 2.3-1.1 4.2c0 2.1.4 3.6 1.1 4.6s1.8 1.6 3 1.6c1.1 0 1.9-.3 2.6-1s1.1-1.7 1.1-2.8zM1293.4 498.6v8.4c.7-.8 1.6-1.4 2.6-1.9 1-.4 2.2-.7 3.5-.7 2 0 3.5.6 4.5 1.7s1.5 2.9 1.5 5.3v10.8h-5.5v-10c0-1.5-.3-2.6-.8-3.4-.5-.7-1.3-1.1-2.3-1.1-1.1 0-2 .4-2.7 1.2-.7.8-1 2-1 3.5v9.7h-5.5v-23.7h5.7v.2zM1319.1 523c-3 0-5.4-.8-7.2-2.3-1.8-1.6-2.8-3.9-2.8-6.9 0-2.9.9-5.1 2.6-6.8 1.7-1.6 4.2-2.5 7.4-2.5 3 0 5.4.8 7.2 2.3s2.7 3.9 2.7 6.9c0 3.1-.9 5.4-2.8 6.9-1.7 1.6-4.1 2.4-7.1 2.4zm0-3.4c1.4 0 2.5-.5 3.2-1.4.7-1 1.1-2.5 1.1-4.5s-.4-3.5-1.1-4.4-1.8-1.4-3.2-1.4c-1.4 0-2.5.5-3.2 1.4-.8 1-1.1 2.4-1.1 4.4s.4 3.5 1.1 4.4c.7.9 1.8 1.5 3.2 1.5zM1341.8 523c-3 0-5.4-.8-7.2-2.3-1.8-1.6-2.8-3.9-2.8-6.9 0-2.9.9-5.1 2.6-6.8 1.7-1.6 4.2-2.5 7.4-2.5 3 0 5.4.8 7.2 2.3s2.7 3.9 2.7 6.9c0 3.1-.9 5.4-2.8 6.9-1.7 1.6-4.1 2.4-7.1 2.4zm0-3.4c1.4 0 2.5-.5 3.2-1.4.7-1 1.1-2.5 1.1-4.5s-.4-3.5-1.1-4.4-1.8-1.4-3.2-1.4c-1.4 0-2.5.5-3.2 1.4-.8 1-1.1 2.4-1.1 4.4s.4 3.5 1.1 4.4c.7.9 1.8 1.5 3.2 1.5zM1355.3 498.6h5.5v23.7h-5.5v-23.7z"></path>
      <path class="st0" d="M1215.8 488.5c-15.8 0-28.6 11.1-28.6 24.9 0 13.8 12.8 24.9 28.6 24.9s28.6-11.1 28.6-24.9c0-13.9-12.8-24.9-28.6-24.9zm3 33.9h-5.1v-10.2c0-1.5-.2-2.6-.6-3.2-.4-.8-1.1-.9-1.9-.9-.9 0-1.7.4-2.3 1.1-.6.8-.9 1.9-.9 3.4v10h-5.1v-10.2c0-1.5-.2-2.6-.6-3.4-.4-.6-1.1-.9-1.9-.9-.9 0-1.7.4-2.3 1.1-.6.8-.9 1.9-.9 3.4v10h-5.1v-17.1h4.9v2.4c.8-1.1 1.7-1.9 2.4-2.4.9-.6 1.9-.8 2.8-.8 1.3 0 2.4.4 3.2.9.9.6 1.5 1.5 1.9 2.4.8-1.1 1.7-2.1 2.6-2.6s2.1-.8 3.2-.8c2.1 0 3.4.6 4.3 1.9s1.5 3 1.5 5.5l-.1 10.4zm14.7.9c-.8 2.4-1.7 4-2.6 4.5-.9.6-2.1 1.1-3.6 1.1h-1.9c-.6 0-1.1-.2-1.7-.2v-3.4c.2 0 .4.2.8.2h.9c.6 0 1.1-.2 1.5-.6.4-.4.8-.9.9-1.9l.2-.8-7.5-16.9h6.4l4 11.3 3-11.3h5.5l-5.9 18z"></path>
    </a>
    <a href="#etutorcloud" data-rails="true" data-angular="true">
      <path class="st22 background" d="M1060.2 630.4l-100.8-58.3V455.7l100.8-58.2 100.8 58.2v116.4l-100.8 58.3z"></path>
      <path class="st0" d="M987.5 519c-1.1 0-2-.2-2.9-.6-.9-.4-1.7-1-2.3-1.7s-1.2-1.5-1.5-2.4c-.3-.9-.5-1.9-.5-2.9s.2-2 .5-2.9c.4-.9.9-1.7 1.5-2.4.7-.7 1.4-1.2 2.3-1.6.9-.4 1.9-.6 2.9-.6s2 .2 2.9.6 1.6.9 2.3 1.6 1.1 1.5 1.5 2.4.5 1.9.5 2.9v.7h-12.5c.1.8.2 1.5.5 2.2s.7 1.2 1.2 1.7 1 .9 1.7 1.1c.6.3 1.3.4 2 .4.5 0 1-.1 1.4-.2.5-.1.9-.3 1.3-.5s.7-.5 1.1-.8.5-.7.7-1.1l1.7.4c-.2.5-.5 1-1 1.5-.4.4-.9.8-1.4 1.1s-1.1.6-1.8.8c-.8.3-1.4.3-2.1.3zm5.3-8.3c-.1-.8-.2-1.5-.5-2.1s-.7-1.2-1.2-1.7-1-.8-1.7-1.1c-.6-.3-1.3-.4-2-.4s-1.4.1-2 .4-1.2.6-1.7 1.1-.9 1-1.1 1.7c-.3.7-.5 1.4-.5 2.1h10.7zM1009.3 500.6h-7.1v18.2h-2v-18.2h-7.1v-1.7h16.1l.1 1.7zM1013.7 519c-1.5 0-2.7-.5-3.5-1.6-.8-1.1-1.2-2.6-1.2-4.7v-8.5h1.9v8.2c0 3.3 1.1 5 3.4 5 .6 0 1.1-.1 1.7-.3.5-.2 1-.5 1.5-.8.5-.4.9-.8 1.2-1.3s.7-1 .9-1.7v-9.1h1.9v12.1c0 .5.2.8.7.8v1.7c-.4.1-.6.1-.8.1-.4 0-.8-.1-1.1-.4s-.5-.6-.5-1v-2c-.7 1.1-1.5 2-2.6 2.6-1 .6-2.2.9-3.5.9zM1032.9 518.1c-.1.1-.3.1-.5.2s-.5.2-.7.3c-.2.1-.6.2-1 .3s-.7.1-1.1.1c-.4 0-.8-.1-1.2-.2-.4-.1-.7-.3-1-.5-.3-.2-.5-.5-.7-.9-.2-.4-.3-.8-.3-1.2v-10.5h-2v-1.5h2v-5h1.9v4.9h3.4v1.5h-3.4v9.9c0 .5.2.9.6 1.2.3.3.7.4 1.2.4s1-.1 1.4-.3c.4-.2.7-.3.8-.4l.6 1.7zM1041.1 519c-1.1 0-2-.2-2.9-.6-.9-.4-1.7-.9-2.3-1.6s-1.1-1.5-1.5-2.4c-.4-.9-.5-1.9-.5-2.9s.2-2 .5-2.9c.4-.9.9-1.7 1.5-2.4s1.4-1.2 2.3-1.7c.9-.4 1.9-.6 2.9-.6s2 .2 2.9.6 1.7 1 2.3 1.7 1.2 1.5 1.5 2.4c.4.9.5 1.9.5 2.9s-.2 2-.5 2.9c-.4.9-.9 1.7-1.5 2.4s-1.4 1.2-2.3 1.6c-.9.4-1.9.6-2.9.6zm-5.3-7.5c0 .8.1 1.6.4 2.3.3.7.6 1.3 1.1 1.9.5.5 1 .9 1.7 1.2.6.3 1.3.4 2.1.4.7 0 1.4-.2 2.1-.5.6-.3 1.2-.7 1.7-1.3.5-.5.9-1.2 1.1-1.9.3-.7.4-1.5.4-2.3 0-.8-.1-1.6-.4-2.3s-.7-1.3-1.1-1.9c-.5-.5-1-1-1.7-1.3-.6-.3-1.3-.5-2-.5s-1.4.2-2.1.5c-.6.3-1.2.7-1.7 1.3-.5.5-.9 1.2-1.1 1.9-.4.9-.5 1.7-.5 2.5zM1058.8 505.8c-1.3 0-2.4.4-3.4 1.1s-1.6 1.6-2 2.8v9.1h-1.9v-14.6h1.8v3.5c.5-1 1.2-1.9 2-2.6.8-.7 1.7-1 2.7-1h.9l-.1 1.7zM1131.9 508.1c-.5-.3-.9-.6-1.5-.8-.5-.2-1-.3-1.5-.3-.8 0-1.5.2-2.1.5s-1.2.8-1.6 1.3c-.4.6-.8 1.2-1.1 1.9-.3.7-.4 1.4-.4 2.2s.1 1.5.4 2.2.7 1.3 1.1 1.9c.5.5 1.1 1 1.7 1.3.7.3 1.4.5 2.1.5.5 0 1-.1 1.5-.3.5-.2 1-.4 1.5-.8.5-.3.9-.7 1.2-1.1.3-.4.5-.9.6-1.4v-4.5c-.2-.5-.5-1-.8-1.4-.2-.5-.6-.9-1.1-1.2z"></path>
      <path class="st0" d="M1128.9 491.6c-1.7-.6-3-1.2-4-3-5.4-9.9-17.2-11.4-25.1-3.3-1.2 1.2-2.1 1.7-3.8 1.4-7.5-1.3-13.4 1.4-17.7 7.6-1.1 1.6-2.2 2.3-4.2 2.4-7.4.5-13.2 5.1-15.5 12-2.2 6.8-.2 14.4 5.3 18.9 5.9 4.9 12.6 5.8 19.4 2.3 2.1-1.1 3.3-1.2 5.1.7 6.7 6.9 16.7 7.4 24 1.2 1.8-1.5 3.2-1.8 5.4-1.2 12.8 3 24.8-6.4 24.9-19.4.2-9.1-5.1-16.6-13.8-19.6zm-50.1 26.1c-.6.6-1.2 1.1-1.9 1.4-.7.4-1.5.7-2.3.9-.8.2-1.6.3-2.3.3-1.4 0-2.6-.3-3.8-.9-1.1-.6-2.1-1.4-2.9-2.3-.8-1-1.5-2.1-1.9-3.3-.5-1.2-.7-2.5-.7-3.7s.2-2.4.6-3.6c.4-1.2 1-2.2 1.8-3.2.8-.9 1.8-1.7 3-2.3 1.2-.6 2.5-.9 4-.9 1.8 0 3.3.4 4.5 1.2 1.3.8 2.2 1.8 2.8 3.1l-1.6 1c-.3-.7-.7-1.2-1.1-1.7-.4-.4-.9-.8-1.5-1.1-.5-.3-1.1-.5-1.6-.6-.6-.1-1.1-.2-1.7-.2-1.2 0-2.3.2-3.2.7s-1.7 1.1-2.3 1.9-1.1 1.7-1.4 2.6c-.3 1-.5 2-.5 3 0 1.1.2 2.2.6 3.2s.9 1.9 1.6 2.7 1.4 1.4 2.4 1.8c.9.5 1.9.7 3 .7.6 0 1.1-.1 1.7-.2.6-.1 1.2-.4 1.7-.7.6-.3 1.1-.7 1.5-1.1.5-.5.9-1 1.2-1.7l1.6.8c-.2 1-.7 1.7-1.3 2.2zm8.3 2.6c-.5.1-1 .1-1.3.1-.9 0-1.6-.2-2.1-.7s-.8-1.2-.8-2.1v-17.8h1.9V517c0 .5.1 1 .4 1.3s.7.5 1.3.5c.2 0 .4 0 .7-.1.3-.1.5-.1.8-.2l.3 1.5c-.3-.1-.7.1-1.2.3zm15.9-4.5c-.4.9-.9 1.7-1.5 2.4s-1.4 1.2-2.3 1.6c-.9.4-1.9.6-2.9.6-1.1 0-2-.2-2.9-.6-.9-.4-1.7-.9-2.3-1.6s-1.1-1.5-1.5-2.4c-.4-.9-.5-1.9-.5-2.9s.2-2 .5-2.9c.4-.9.9-1.7 1.5-2.4s1.4-1.2 2.3-1.7c.9-.4 1.9-.6 2.9-.6s2 .2 2.9.6 1.7 1 2.3 1.7 1.1 1.5 1.5 2.4.5 1.9.5 2.9c0 1.1-.2 1.9-.5 2.9zm16.4 4.4c-.4.1-.6.1-.8.1-.4 0-.8-.1-1.1-.4-.3-.3-.5-.6-.5-1v-2c-.7 1.1-1.5 2-2.6 2.6-1.1.6-2.3.9-3.6.9-1.5 0-2.7-.5-3.5-1.6-.8-1.1-1.2-2.6-1.2-4.7v-8.6h1.9v8.2c0 3.3 1.1 5 3.4 5 .6 0 1.1-.1 1.7-.3s1-.5 1.5-.8c.5-.4.9-.8 1.2-1.3.4-.5.7-1 .9-1.7v-9.2h1.9v12.1c0 .5.2.8.7.8l.1 1.9zm17.2 0c-.3.1-.6.1-.8.1-.5 0-.9-.1-1.1-.4-.3-.3-.4-.6-.4-1v-1.5c-.6 1-1.4 1.7-2.4 2.3s-2 .8-3.1.8c-1 0-1.9-.2-2.8-.6-.9-.4-1.6-1-2.2-1.7s-1.1-1.5-1.5-2.4c-.3-.9-.5-1.9-.5-2.8 0-1 .2-2 .5-2.9s.8-1.7 1.4-2.4c.6-.7 1.3-1.2 2.1-1.6.8-.4 1.7-.6 2.7-.6 1.2 0 2.3.3 3.3 1 1 .6 1.7 1.4 2.3 2.3v-8.9h1.9v18c0 .5.2.8.7.8l-.1 1.5z"></path>
      <path class="st0" d="M1100 508.8c-.5-.5-1-1-1.7-1.3-.6-.3-1.3-.5-2-.5s-1.4.2-2.1.5c-.6.3-1.2.7-1.7 1.3-.5.5-.9 1.2-1.1 1.9-.3.7-.4 1.5-.4 2.3s.1 1.6.4 2.3c.3.7.6 1.3 1.1 1.8s1 .9 1.7 1.2c.6.3 1.3.4 2.1.4.7 0 1.4-.2 2.1-.5.6-.3 1.2-.7 1.7-1.3.5-.5.9-1.2 1.1-1.9.3-.7.4-1.5.4-2.3s-.1-1.6-.4-2.3c-.4-.5-.7-1.1-1.2-1.6z"></path>
    </a>
    <a href="#everseat" data-rails="true" data-backbone="true">
      <path class="st23 background" d="M848 630.4l-100.8-58.3V455.7L848 397.5l100.8 58.2v116.4L848 630.4z"></path>
      <path class="st0" d="M847.7 463.3c-14.1 0-25.6 11.5-25.6 25.6s11.5 25.6 25.6 25.6 25.6-11.5 25.6-25.6-11.5-25.6-25.6-25.6zm15.4 29.1l-1.3 3c-.2.4-.4.6-.8.6h-4c-.6 0-1.1.8-.8 1.3l6.4 9.6c.2.4.2.9-.2 1.1l-3 1.9c-.4.2-.9.2-1.1-.2l-8.8-13c-.2-.2-.4-.4-.8-.4h-2.6c-.2 0-.6.2-.8.4l-9.6 13c-.2.4-.8.4-1.1.2l-2.6-2.1c-.4-.2-.4-.8-.2-1.1l6.6-9.2c.4-.6 0-1.3-.8-1.3h-4.7c-.4 0-.8-.4-.8-.8V470c0-.4.2-.6.4-.8l3-1.9c.6-.4 1.3 0 1.3.8v22.2c0 .4.4.8.8.8h24.3c1 .2 1.6.8 1.2 1.3z"></path>
      <path class="st0" d="M778.4 541.1c0 4.4 2.4 7.2 5.8 7.2 4 0 6.7-2.2 6.7-2.2l1.4 2.1s-3.7 3.3-8.5 3.3c-6.4 0-9.6-4.2-9.6-10.8 0-6.4 4-11.2 9.8-11.2s8.4 3.4 8.4 9.4c0 1-.2 2.1-.2 2.2h-13.8zm9.8-3c0-3-1.2-5.5-4.4-5.5s-5 2.5-5.2 5.5h9.6zM804.8 547.5l4.8-14.6-2.8-.6v-2.2l9-.2v2.4l-2.2.4-6.8 18.4h-4.4l-6.6-18.2-2-.6v-2.2l9-.2v2.4l-2.8.4 4.8 14.8zM820.8 541.1c0 4.4 2.4 7.2 5.8 7.2 4 0 6.7-2.2 6.7-2.2l1.4 2.1s-3.7 3.3-8.5 3.3c-6.4 0-9.6-4.2-9.6-10.8 0-6.4 4-11.2 9.8-11.2s8.4 3.4 8.4 9.4c0 1-.2 2.1-.2 2.2h-13.8zm9.8-3c0-3-1.2-5.5-4.4-5.5s-5 2.5-5.2 5.5h9.6zM845.2 532.8c1-1.1 3.3-3.3 6-3.3 2 0 3.6.6 3.6.6l-.2 5.8H852l-.6-3c-3 0-4.9 2-5.8 3.1v11.9l4 1v2.2h-11.4v-2.2l3.4-1V533l-3.4-.8V530l6.6-.2.4 3zM860.4 548.1s1.2.4 3.4.4c2.4 0 4.5-.7 4.5-3.2 0-4.3-11.2-2.3-11.2-9.6 0-4.2 3.2-6.2 7.3-6.2 3.2 0 6.8 1.2 6.8 1.2l-.1 5.4h-2.6l-.6-3.1s-1.2-.5-3.2-.5-3.6.6-3.6 2.7c0 4.3 11.2 2.6 11.2 9.5 0 4.6-4 6.8-8.8 6.8-3.7 0-6.3-.9-6.3-.9v-5.9h2.8l.4 3.4zM879.9 541.1c0 4.4 2.4 7.2 5.8 7.2 4 0 6.7-2.2 6.7-2.2l1.4 2.1s-3.7 3.3-8.5 3.3c-6.4 0-9.6-4.2-9.6-10.8 0-6.4 4-11.2 9.8-11.2s8.4 3.4 8.4 9.4c0 1-.2 2.1-.2 2.2h-13.8zm9.7-3c0-3-1.2-5.5-4.4-5.5s-5 2.5-5.2 5.5h9.6zM898.7 531.1s4.4-1.6 7.8-1.6c4.6 0 7.4 1.6 7.4 6.2v12.2l3.2.8v2.2l-6.2.2-.8-2.8c-1.4 1.4-3.8 3.2-6.6 3.2-3.8 0-6-2.2-6-6 0-4.6 3.6-6.2 9.2-6.2h3.2v-3.2c0-2.4-1.4-3.6-3.8-3.6s-4 .6-4 .6l-.6 3h-2.6l-.2-5zm8.4 10.8c-4 0-5.5 1-5.5 3.4 0 1.8 1.1 3 2.9 3 3 0 5.4-3.2 5.4-3.2v-3.2h-2.8zM932.9 533.1h-5.8V546c0 1.8.9 2.4 2 2.4 1 0 2.1-.4 3.1-1l1.1 2.1c-1.8 1.3-3.6 2-5.6 2-2.4 0-4.6-1.3-4.6-5.8v-12.6h-4v-2.6l4-.4v-5l4-.8v5.8h5.8v3z"></path>
    </a>
    <a href="#def_method" data-rails="true">
      <path class="st24 background" d="M635.6 630.4l-100.8-58.3V455.7l100.8-58.2 100.8 58.2v116.4l-100.8 58.3z"></path>
      <path class="st0" d="M602.5 510.7c0 2.8-1.5 4.3-4 4.3H597v4.7h-1.8v-13.2h3.4c2.4-.1 3.9 1.4 3.9 4.2zm-1.9 0c0-1.7-.8-2.4-2.1-2.4H597v4.9h1.5c1.4 0 2.1-1 2.1-2.5zM616.2 514.7h-1.1v4.7h-1.9v-13.2h3.4c2.4 0 4 1.5 4 4.1 0 2.1-.9 3.4-2.4 4l2.8 5.1h-2.1l-2.7-4.7zm-1.1-1.7h1.5c1.3 0 2.1-.9 2.1-2.4s-.8-2.3-2.1-2.3h-1.5v4.7zM638.5 517.7v1.7h-6.6v-13.2h6.4v1.7h-4.5v3.8h4.1v1.7h-4.1v4h4.7v.3zM656.2 517.7v1.7h-6.6v-13.2h6.4v1.7h-4.5v3.8h4.1v1.7h-4.1v4h4.7v.3zM673.3 518.4v1.1h-6v-13.2h1.1v12.1h4.9zM685.2 506.4v13.2h-1.1v-13.2h1.1zM704.4 506.4v13.2h-1.2l-3.6-7.7c-.4-.9-1.1-2.4-1.3-3.2v10.9h-1.1v-13.2h1.1l3.6 7.7c.4.9 1.1 2.4 1.5 3.2 0-.9-.2-2.6-.2-3.8v-7.2l1.2.1zM722.6 518.4v1.1h-6.4v-13.2h6.2v1.1h-4.9v4.9h4.7v1.1h-4.7v5.1l5.1-.1z"></path>
      <path id="XMLID_191_" class="st0" d="M574.8 503c0-.4.6-.6.8-.9 1.3.2 2.1.9 2.8 2.1 1.5 2.3 1.5 4.5.2 6.8-.4.6-.8 1.3-1.3 1.7l-10.5 10.5c-.2.2-.2.2-.4.2-.4-.4-.8-.6-1.1-.9.2-.2.4-.6.8-.8 3-3 5.8-6 8.8-8.8.9-.9 1.9-1.7 2.4-2.8 1.7-2.6.2-5.5-1.9-6.6-.2-.3-.6-.3-.6-.5z"></path>
      <path id="XMLID_72_" class="st0" d="M575.2 501.9c-.8-.2-1.1-.2-1.7.4-4.5 4.5-9 9.2-13.4 13.7-.4.4-.6.4-.8 0-.8-.9-1.7-1.7-2.6-2.6-.4-.4-.4-.6 0-.8l5.6-5.6c.4-.4.4-1.1 0-1.5-.8-.8-1.5-1.7-2.3-2.4-2.1-1.9-5.3-2.1-7.3-.4-1.7 1.5-3 4.3-.9 7.3.6.9 1.3 1.7 2.3 2.4.4.4.4.6 0 .9-1.5 1.3-2.8 2.8-4.3 4.3-.6.4-.2.6.2.9.4.4.6.4.8 0l4.3-4.3c.2-.2.4-.4.6 0 1.3 1.3 2.4 2.6 3.8 3.8 1.9 1.9 3.8 4 5.8 5.8.2.2.2.4.4.2.4-.2.8-.4.8-.9-.2-.6-.6-.8-.9-1.1-1.3-1.5-2.8-2.8-4.3-4.3-.2-.2-.4-.4 0-.8.2-.4.6-.6.9-.9 4-4 7.9-8.1 11.9-12.1.4-.4.6-.8 1.1-1.1.2-.4.8-.6.8-.9h-.8zm-20 10.1c-.8-.8-1.7-1.5-2.3-2.4-.6-.8-.8-1.5-.8-2.6.2-1.5.9-2.8 2.6-3.6 1.7-.8 3.4-.2 4.7.9l1.7 1.7c.2.2.2.4 0 .6-1.9 1.7-3.6 3.6-5.5 5.3-.2.1-.2.3-.4.1z"></path>
    </a>
    <a href="#numa" data-rails="true" data-angular="true">
      <path class="st25 background" d="M1166.4 445.1l-100.8-58.2V270.5l100.8-58.2 100.8 58.2v116.4l-100.8 58.2z"></path>
      <path class="st0" d="M1081.1 312.1v30.8h10v-30.8h-10M1094.1 318.1v24.8h10v-30.8l-10 6M1112 312.1V338l10 4.9v-30.8h-10M1125 312.1v30.8l10-4.9v-25.9h-10M1142.9 312.1v30.8h10v-30.8h-10M1154.9 317v25.9h10v-30.8l-10 4.9M1167.8 317v25.9h9.9v-30.8l-9.9 4.9M1185.8 317v21l10 4.9v-30.8l-10 4.9M1197.7 312.1v30.8h10v-30.8h-10M1222.6 312.7h3v16.1h4.9v2.7h-7.8l-.1-18.8zM1241.3 331.5h-3l-.5-3.4h-3.6l-.5 3.4h-2.7l3-18.8h4.3l3 18.8zm-6.7-6h2.9l-1.4-9.5h-.1l-1.4 9.5zM1251.6 317v.7c0 1.9-.6 3.1-1.9 3.8v.1c1.6.6 2.2 2 2.2 4v1.5c0 2.9-1.5 4.5-4.5 4.5h-4.7v-18.8h4.5c3-.1 4.4 1.3 4.4 4.2zm-5.9-1.6v5h1.2c1.1 0 1.8-.5 1.8-2v-1c0-1.3-.5-1.9-1.5-1.9h-1.5v-.1zm0 7.6v5.8h1.7c1 0 1.5-.5 1.5-1.9v-1.6c0-1.7-.6-2.3-1.9-2.3h-1.3z"></path>
    </a>
    <a href="#quick_quack" data-rails="true" data-angular="true">
      <path class="st26 background" d="M954.2 445.1l-100.8-58.2V270.5l100.8-58.2 100.8 58.2v116.4l-100.8 58.2z"></path>
      <path class="st0" d="M968 308.5c-.2-.6-.4-1.1-.4-1.7-.6-.9-5.8-1.9-6.8-1.9-.2 0-8.8-.8-9.4.4-.8 1.5-.8 5.8-.6 7 .6-.9 4.7-3.6 5.8-4 .9-.4 5.5-2.1 8.3 2.8 0 .2.2.4-.2.4s-.6 0-.6-.4c0-.8-1.3-1.3-1.7-1.5-1.1-.4-2.4-.6-3.6-.2-4.3 1.1-7 5.8-7.3 7-.6 1.5-2.4 7 3 11.7.8.8 1.5 1.1 2.4 1.5 2.4.9 7 1.5 9 .4.2 0 .2-.2 0-.4-.2-.4-6-1.7-8.3-2.8-1.9-.9-1.9-8.1-.8-10.2.2-.6-.8-.2-1.7.4-.8.4-1.5.8-1.5.8-.2-.2.4-.8.6-.8 2.4-2.3 5.8-.9 6.4-.8.8.4 1.5.6 1.5.8 0 .2-.2.2-.4.2 0 0-2.8-.9-3.4-.8-1.1.6-.4 6.6-.4 6.8.2 1.1.6 1.7.9 1.9 4.1 2.3 18.6-.4 19.8-1.3-4.2-2.3-8.4-8-10.6-15.3z"></path>
      <path class="st0" d="M1036.5 322c-.2-.2-2.6-3.8-6.8-3.8-.9 0-2.1.2-2.8.6-2.3.9-4.9 1.9-5.1 3.8.4.6 1.3 1.1 5.1 2.3-1.3.6-15.4-3.8-16.6-8.8-4.7-.2-9.4-1.7-13-8.3 0 14.3-20.1 19-30.9 19.8 9.8 4.3 20.3 17.5 21.8 18.5 4.9 2.8 20.9 1.1 21.1.9 18.2-1.4 31.9-19.3 27.2-25zm-48.9 13.2c16 8.5 36.9-.6 41.2-11.5-4.3 16.4-33.5 19.8-41.2 11.5zM998.7 280.2c-4-4.5-10.9-5.1-10.9-5.3-.9-2.3 4.9-8.3 6.6-10 .2-.2 0-.4-.2-.2-.2 0-14.7 1.7-19.6 7.9-.4-2.3.9-5.5 2.4-7.7 0-.4-.4-.2-.6-.2-13.6 3-24.5 27.3-24.5 37.3 1.1.8 10 .6 15.4 2.8-1.5-9 1.1-16.9 6.6-18.6 4.3-1.3 9.4 1.9 13 7.7.6-1.9 1.7-3.2 3.2-3.8.9-.2 2.1-.2 3 .4.3-5.1 2.2-9 5.6-10.3z"></path>
      <path class="st0" d="M1001.9 283.6c3.4 0 8.1 4.1 10.5 11.9 1.3 4 1.5 7.9.9 11.1-.6 2.8-1.9 4.7-3.6 5.3-.4.2-.8.2-1.1.2-3.4 0-8.1-4.1-10.5-11.9-2.6-8.3-.8-15.3 2.8-16.4.2 0 .6-.2 1-.2m0-2c-.6 0-1.1 0-1.9.2-5.1 1.7-7 10.2-4.1 19 2.4 7.9 7.9 13.4 12.6 13.4.6 0 1.1 0 1.9-.2 5.1-1.7 7-10.2 4.1-19-2.5-8-7.9-13.4-12.6-13.4zM975.9 290.4c3.4 0 8.1 4.1 10.5 11.9 2.6 8.3.8 15.3-2.8 16.4h-1.1c-3.4 0-8.1-4.1-10.5-11.9-1.3-4-1.5-7.9-.9-11.1.6-2.8 1.9-4.7 3.6-5.3h1.2m0-2.3c-.6 0-1.1 0-1.9.2-5.1 1.7-7 10.2-4.1 19 2.4 7.9 7.9 13.4 12.6 13.4.6 0 1.1 0 1.9-.2 5.1-1.7 7-10.2 4.1-19-2.5-7.9-7.9-13.4-12.6-13.4z"></path>
      <path class="st27" d="M987.2 301.1c-.2-2.3 1.1-7.5 3.4-8.5 2.1-.9 3.6.4 5.3 1.9"></path>
      <path class="st0" d="M973.2 333.7c.9 1.9 1.9 3.6 3.2 5.1 1.1 1.7 2.4 3.2 4 4.5 2.8 2.8 6.2 4.9 10 6.2 3.8 1.3 7.7 1.9 11.7 1.5 4-.2 7.9-1.3 11.7-2.8.2 0 .4 0 .4.2s0 .4-.2.4c-3.6 2.3-7.5 3.6-11.9 4.1-4.1.6-8.7.2-12.6-1.3-4-1.5-7.7-3.8-10.7-7-2.8-3.2-5.1-6.8-6.2-10.9 0-.2 0-.4.2-.4.3.2.4.2.4.4z"></path>
      <path class="st0" d="M881.3 334.4c.6 0 1.3.1 2 .4.9.4 1.6 1 2.1 1.9.5.8.7 1.7.7 2.5 0 1-.3 1.9-.9 2.6-.3.4-.6.7-1 1s-.8.5-1.2.6c-.1 0-.2.1-.2.1 0 .2.2.3.6.4.4.1.8.2 1.3.2.3 0 .6-.1.9-.2h.2c.1 0 .1.1.2.2s.1.2.1.3c0 .2-.1.5-.4.7-.3.3-.7.5-1.1.6-.5.1-.9.2-1.4.2-.6 0-1.2-.1-1.8-.3-.7-.2-1.6-.6-2.9-1.2-.2-.1-.5-.2-.8-.3s-.5-.1-.7-.1H876.7c-.1 0-.2 0-.2-.1-.1-.1-.1-.2-.1-.3 0-.2.1-.4.2-.5.2-.2.5-.3.8-.3h.4c.1 0 .1 0 .1-.1s-.1-.2-.3-.4c-.4-.5-.7-.9-.9-1.3-.3-.6-.4-1.3-.4-2 0-.9.2-1.7.7-2.5.5-.7 1.2-1.3 2.1-1.7.7-.2 1.5-.4 2.2-.4zm-.7 1.9c-.3 0-.6.1-.8.4-.2.2-.3.6-.3 1 0 .5.1 1 .2 1.6.2.6.4 1.1.6 1.6.4.7.8 1 1.3 1 .3 0 .6-.1.9-.4.2-.2.3-.5.3-.9 0-.5-.1-1-.3-1.7-.2-.6-.4-1.2-.7-1.7-.1-.5-.6-.8-1.2-.9zM890.4 337.4v3.6c0 .8.3 1.1.8 1.1.1 0 .3 0 .4-.1l.3-.3c.1-.2.1-.7.1-1.4s0-1.2-.1-1.5c0-.1 0-.2-.1-.2 0 0-.1-.1-.3-.2s-.4-.3-.4-.5c0-.3.2-.5.6-.6.8-.2 1.6-.3 2.4-.3.4 0 .7.2.7.7v4c0 .1.1.3.4.4.2.1.3.3.3.5 0 .4-.5.7-1.4.9-.5.1-1.1.2-1.6.2-.2 0-.4 0-.4-.1-.1 0-.1-.1-.1-.3 0-.3-.1-.4-.2-.4h-.1s-.2.1-.4.3c-.4.3-.9.5-1.4.5-.8 0-1.4-.2-1.8-.7-.3-.4-.4-1.1-.4-2.1v-1.2c0-.4 0-.7-.1-.8-.1-.2-.2-.3-.4-.4s-.3-.2-.3-.2c0-.1-.1-.1-.1-.2 0-.3.3-.6.8-.7.9-.2 1.7-.3 2.6-.3 0 0 .2.1.2.3zM899.5 337.5v3.8c0 .3 0 .5.1.7.1.1.2.3.3.4s.2.2.3.2c0 .1.1.2.1.3 0 .6-.7.8-2.1.8-.8 0-1.4-.1-1.8-.2-.2 0-.3-.1-.4-.2-.1-.1-.1-.2-.1-.4 0-.1 0-.2.1-.3 0-.1.2-.2.4-.3.1-.1.2-.3.3-.5s.1-.6.1-1v-1.5c0-.2-.1-.3-.4-.4-.3-.1-.4-.3-.4-.5 0-.3.2-.5.5-.6.5-.2 1-.3 1.6-.5.6-.1 1-.2 1.3-.2 0-.1.1 0 .1.4zm-1.3-2.9c.4 0 .7.1.9.2s.3.3.3.6-.2.6-.5.8c-.5.3-1.2.5-1.9.5-.3 0-.6-.1-.8-.2-.3-.2-.4-.4-.4-.7 0-.4.3-.7.8-.9.6-.3 1.2-.3 1.6-.3zM904.4 337c.8 0 1.5.2 2.1.6s.8.8.8 1.4c0 .4-.1.7-.4.9-.2.2-.5.3-.9.3s-.6-.1-.8-.4c-.1-.1-.1-.3-.3-.6-.1-.4-.3-.6-.7-.6-.2 0-.4.1-.6.3-.2.2-.2.5-.2.8 0 .5.2 1 .6 1.4.3.3.7.5 1.2.5.2 0 .4 0 .6-.1s.3-.1.6-.2h.2c.1 0 .3.1.4.2.1.1.2.3.2.5s-.1.4-.2.6-.4.4-.6.6c-.6.4-1.2.5-2 .5-.9 0-1.7-.3-2.3-.8-.8-.7-1.2-1.5-1.2-2.5s.4-1.8 1.1-2.5c.5-.7 1.4-1 2.4-.9zM911.5 334.9l-.1 2.1v1.7c0 .2.1.3.3.3.1 0 .3-.1.6-.3.3-.2.4-.3.4-.4 0 0 0-.1-.1-.3-.1-.1-.1-.2-.1-.3 0-.5.6-.7 1.7-.7.6 0 1.1.1 1.4.2.1 0 .3.1.3.3.1.1.1.2.1.4s-.1.3-.3.4c0 0-.2 0-.4.1-.2 0-.4.2-.8.4s-.5.4-.5.4c0 .1.2.3.6.9s.7 1 1 1.3l.5.5s.3.2.5.3c.3.2.5.4.5.6s-.1.4-.3.5-.5.2-.8.2h-2.1c-.3 0-.5-.1-.6-.3l-1.1-1.4c-.3-.4-.5-.6-.5-.7s-.1-.1-.2-.1-.1 0-.1.1v.4c0 .2 0 .3.1.4 0 .1.1.2.3.3.1.1.2.2.2.4 0 .3-.2.5-.5.7s-.9.2-1.6.2c-.9 0-1.4 0-1.7-.1-.1 0-.3-.1-.4-.3-.1-.1-.2-.3-.2-.4 0-.2.1-.3.3-.4s.3-.2.3-.2.1-.1.1-.3c.1-.6.1-1.6.1-2.8v-1.4c0-.5 0-.8-.1-.9s-.2-.2-.4-.2c-.4 0-.5-.2-.5-.4s.1-.3.2-.5c.2-.1.4-.3.8-.4 1.1-.4 2-.6 2.6-.6.4 0 .5.1.5.3zM926 334.4c.6 0 1.3.1 2 .4.9.4 1.6 1 2.1 1.9.5.8.7 1.7.7 2.5 0 1-.3 1.9-.9 2.6-.3.4-.6.7-1 1s-.8.5-1.2.6c-.1 0-.2.1-.2.1 0 .2.2.3.6.4.4.1.8.2 1.3.2.3 0 .6-.1.9-.2h.2c.1 0 .1.1.2.2s.1.2.1.3c0 .2-.1.5-.4.7-.3.3-.7.5-1.1.6-.5.1-.9.2-1.4.2-.6 0-1.2-.1-1.8-.3-.7-.2-1.6-.6-2.9-1.2-.2-.1-.5-.2-.8-.3s-.5-.1-.7-.1H921.4c-.1 0-.2 0-.2-.1-.1-.1-.1-.2-.1-.3 0-.2.1-.4.2-.5.2-.2.5-.3.8-.3h.4c.1 0 .1 0 .1-.1s-.1-.2-.3-.4c-.4-.5-.7-.9-.9-1.3-.3-.6-.4-1.3-.4-2 0-.9.2-1.7.7-2.5.5-.7 1.2-1.3 2.1-1.7.7-.2 1.5-.4 2.2-.4zm-.7 1.9c-.3 0-.6.1-.8.4-.2.2-.3.6-.3 1 0 .5.1 1 .2 1.6.2.6.4 1.1.6 1.6.4.7.8 1 1.3 1 .3 0 .6-.1.9-.4.2-.2.3-.5.3-.9 0-.5-.1-1-.3-1.7-.2-.6-.4-1.2-.7-1.7-.1-.5-.6-.8-1.2-.9zM935.1 337.4v3.6c0 .8.3 1.1.8 1.1.1 0 .3 0 .4-.1l.3-.3c.1-.2.1-.7.1-1.4s0-1.2-.1-1.5c0-.1 0-.2-.1-.2 0 0-.1-.1-.3-.2-.3-.1-.4-.3-.4-.5 0-.3.2-.5.6-.6.8-.2 1.6-.3 2.4-.3.4 0 .7.2.7.7v4c0 .1.1.3.4.4.2.1.3.3.3.5 0 .4-.5.7-1.4.9-.5.1-1.1.2-1.6.2-.2 0-.4 0-.4-.1-.1 0-.1-.1-.1-.3 0-.3-.1-.4-.3-.4h-.1s-.2.1-.4.3c-.4.3-.9.5-1.4.5-.8 0-1.4-.2-1.8-.7-.3-.4-.4-1.1-.4-2.1v-1.2c0-.4 0-.7-.1-.8-.1-.2-.2-.3-.4-.4s-.3-.2-.3-.2c0-.1-.1-.1-.1-.2 0-.3.3-.6.8-.7.9-.2 1.7-.3 2.6-.3.1 0 .3.1.3.3zM944.3 337c.8 0 1.4.2 1.9.6.3.2.5.4.6.7.1.3.2.6.2 1.1v1c0 .7 0 1.1.1 1.3 0 .1.1.2.1.2s.1 0 .3.1c.1 0 .2.1.2.3 0 .2-.1.4-.3.7-.2.2-.4.4-.7.6s-.7.3-1 .3c-.5 0-.8-.2-1.1-.5-.1-.1-.2-.2-.3-.2s-.2.1-.3.2c-.4.3-.9.5-1.5.5s-1-.1-1.4-.4l-.6-.6s-.2-.5-.2-.8c0-.5.2-.9.6-1.2.6-.6 1.4-.8 2.6-.8.3 0 .4 0 .5-.1s.1-.2.1-.4c0-.5 0-.8-.1-1s-.3-.3-.5-.3c-.1 0-.2 0-.4.1l-.4.4c-.4.6-.8.8-1.2.8-.2 0-.4-.1-.5-.2s-.2-.3-.2-.5.1-.4.3-.6.4-.4.7-.6c.8-.5 1.7-.7 2.5-.7zm-.4 3.8c-.2 0-.4.1-.5.2-.1.2-.2.3-.2.6 0 .2.1.4.2.5s.2.2.4.2c.4 0 .5-.3.5-.9 0-.2 0-.4-.1-.5-.1 0-.2-.1-.3-.1zM952 337c.8 0 1.5.2 2.1.6s.8.8.8 1.4c0 .4-.1.7-.4.9-.2.2-.5.3-.9.3s-.6-.1-.8-.4c-.1-.1-.1-.3-.3-.6-.1-.4-.3-.6-.7-.6-.2 0-.4.1-.6.3-.2.2-.2.5-.2.8 0 .5.2 1 .6 1.4.3.3.7.5 1.2.5.2 0 .4 0 .6-.1s.3-.1.6-.2h.2c.1 0 .3.1.4.2.1.1.2.3.2.5s-.1.4-.2.6-.4.4-.6.6c-.6.4-1.2.5-2 .5-.9 0-1.7-.3-2.3-.8-.8-.7-1.2-1.5-1.2-2.5s.4-1.8 1.1-2.5c.4-.7 1.3-1 2.4-.9zM959 334.9l-.1 2.1v1.7c0 .2.1.3.3.3.1 0 .3-.1.6-.3.3-.2.4-.3.4-.4 0 0 0-.1-.1-.3-.1-.1-.1-.2-.1-.3 0-.5.6-.7 1.7-.7.6 0 1.1.1 1.4.2.1 0 .3.1.3.3.1.1.1.2.1.4s-.1.3-.3.4c0 0-.2 0-.4.1-.2 0-.4.2-.8.4s-.5.4-.5.4c0 .1.2.3.6.9s.7 1 1 1.3l.5.5s.3.2.5.3c.3.2.5.4.5.6s-.1.4-.3.5-.5.2-.8.2h-2.1c-.3 0-.5-.1-.6-.3l-1.1-1.4c-.3-.4-.5-.6-.5-.7s-.1-.1-.2-.1-.1 0-.1.1v.4c0 .2 0 .3.1.4 0 .1.1.2.3.3.1.1.2.2.2.4 0 .3-.2.5-.5.7s-.9.2-1.6.2c-.9 0-1.4 0-1.7-.1-.1 0-.3-.1-.4-.3-.1-.1-.2-.3-.2-.4 0-.2.1-.3.3-.4s.3-.2.3-.2.1-.1.1-.3c.1-.6.1-1.6.1-2.8v-1.4c0-.5 0-.8-.1-.9s-.2-.2-.4-.2c-.4 0-.5-.2-.5-.4s.1-.3.2-.5c.2-.1.4-.3.8-.4 1.1-.4 2-.6 2.6-.6.4 0 .5.1.5.3z"></path>
      <path class="st0" d="M875.3 364.8l3-14.9c0-1.5 1.1-2.6 2.6-2.6h-1.7c-1.5 0-2.6 1.1-2.6 2.6l-3 14.9c0 1.5 1.1 2.6 2.6 2.6h1.7c-1.2 0-2.6-1.1-2.6-2.6z"></path>
      <path class="st0" d="M871.8 364.8l3-14.9c0-1.5 1.1-2.6 2.6-2.6h-1.7c-1.5 0-2.6 1.1-2.6 2.6l-3 14.9c0 1.5 1.1 2.6 2.6 2.6h1.7c-1.5 0-2.6-1.1-2.6-2.6z"></path>
      <path class="st0" d="M909.4 354.4h-1.7l-.4 2.3h1.7c.6 0 1.1-.4 1.1-1.1.3-.8.1-1.2-.7-1.2zM935.4 354.8v-.4h-.2c-.2.8-.4 1.7-.8 2.4l-.9 2.1h1.9l-.2-2.1c0-.7 0-1.4.2-2zM899.2 354.8v-.4h-.2c-.2.8-.4 1.7-.8 2.4l-.9 2.1h1.9l-.2-2.1c.1-.7.1-1.4.2-2z"></path>
      <path class="st0" d="M964.2 347.3h-82.3c-1.1 0-2.1 1.1-2.1 2.6l-2.4 14.9c0 1.5.9 2.6 2.1 2.6h82.3c1.1 0 2.1-1.1 2.1-2.6l2.4-14.9c0-1.5-1-2.6-2.1-2.6zM887.9 364c-1.5 0-2.4-.4-3.2-1.3s-.9-2.1-.8-3.8l.6-3.2c.4-3 2.4-4.7 5.3-4.7 2.3 0 3.4 1.1 3.8 3.2.2.6 0 .8-.6.9l-1.5.6c-.6.2-.6 0-.8-.6-.2-.8-.6-1.1-1.3-1.1-1.1 0-1.7.6-1.9 1.9l-.6 3.2c-.2 1.3.2 1.9 1.3 1.9.8 0 1.3-.4 1.7-1.1.4-.6.4-.8.9-.6l1.5.8c.4.2.6.6.2.9-.6 2.1-2.1 3-4.6 3zm14.5-.2h-1.5c-.8 0-.9-.2-.9-.8l-.2-1.3h-3.2l-.6 1.3c-.2.6-.6.8-1.1.8h-1.7c-.4 0-.6-.2-.4-.8l5.1-11.1c.2-.6.4-.6.9-.6h1.7c.4 0 .6.2.8.6l1.9 11.1c-.2.5-.4.8-.8.8zm11-8.1c-.2 1.7-.9 2.8-2.1 3.4 0 .2.2.4.4.8l.9 3c.2.6 0 .9-.6.9h-1.7c-.8 0-1.1-.2-1.3-.8l-.6-2.4c-.2-.8-.4-.9-.9-.9h-.3l-.6 3.4c-.2.6-.2.8-.8.8h-1.7c-.6 0-.6-.2-.6-.8l1.7-10.9c.2-.6.2-.8.8-.8h4.3c2.3-.2 3.4 1.5 3.1 4.3zm12.6 8.1h-1.9c-.4 0-.8-.2-.8-.6l-.2-4.1c0-1.1 0-2.1.2-3.2h-.1c-.2 1.1-.4 2.1-.8 3.2l-1.5 4.1c-.2.6-.4.6-.9.6h-1.9c-.4 0-.8-.2-.8-.6l-.6-11.1c0-.6 0-.8.6-.8h1.9c.6 0 .8.2.8.6v4.5c0 .9-.2 2.1-.2 3.2h.2c.2-1.1.4-2.3.8-3.2l1.7-4.5c.2-.6.4-.6.9-.6h1.7c.6 0 .8.2.8.6l.2 4.5c0 .8 0 1.9-.2 3.2h.2c.2-.9.4-1.9.8-3.2l1.3-4.5c.2-.6.4-.6.9-.6h1.7c.4 0 .6.2.4.8l-4 11.1c-.5.4-.8.6-1.2.6zm12.6 0h-1.5c-.8 0-.9-.2-.9-.8l-.2-1.3h-3.2l-.6 1.3c-.2.6-.6.8-1.1.8h-1.9c-.4 0-.6-.2-.4-.8l5.1-11.1c.2-.6.4-.6.9-.6h1.9c.4 0 .6.2.8.6l1.9 11.1c-.2.5-.4.8-.8.8zm6.6-7.9c1.7.4 4 1.1 3.4 4.3-.4 2.4-2.1 3.8-5.1 3.8-2.3 0-3.8-.9-4.1-2.6 0-.6.2-.8.6-.9l1.5-.6c.6-.2.8-.2.8.4.2.6.8.9 1.5.9 1.1 0 1.7-.4 1.7-.9.2-.6-.4-.8-1.7-1.1-.8-.2-1.3-.2-2.1-.8-.4-.2-.8-.4-.9-.8-.4-.6-.8-1.7-.6-3 .4-2.3 2.1-3.6 4.9-3.6 2.1 0 3.2.9 3.8 2.6.2.6 0 .8-.4.9l-1.5.8c-.4.2-.6.2-.8-.4s-.6-.9-1.3-.9c-.9 0-1.5.4-1.5.9-.1.7.5.7 1.8 1zm14.5-3.9l-1.7 10.9c-.2.6-.2.8-.8.8h-1.7c-.6 0-.6-.2-.6-.8l.6-4h-3l-.6 4c0 .6-.2.8-.8.8h-1.7c-.6 0-.6-.2-.6-.8l1.7-10.9c.2-.6.2-.8.8-.8h1.7c.6 0 .6.2.6.8l-.6 4h3l.6-4c0-.6.4-.8.8-.8h1.7c.6 0 .8.2.6.8z"></path>
    </a>
    <a href="#twadlock" data-rails="true" data-react="true">
      <path class="st28 background" d="M742 445.1l-100.8-58.2V270.5L742 212.3l100.8 58.2v116.4L742 445.1z"></path>
      <path class="st0" d="M676 317.4c1.1 0 2.6-.3 3.1-.5v4.6h-.3v-.3c0-1.6-1-2.7-2.6-2.7h-3.5V334c0 .9.8 1.6 1.7 1.6h.3v.3h-8v-.3h.3c.9 0 1.6-.7 1.7-1.6v-15.5h-5.2c-2.9 0-4.6 2.2-2.9 4.9l-.3.1c-2.7-2.7-.8-6.2 3.2-6.2H676v.1zM703.1 318c.9-3.3 3.7-7.5 9.2-7v.3c-4.3.3-6.3 3.8-7.3 6.7l-5 15.5s-.5 1.6-.5 2.9h-.2l-5.7-12.7-4.7 11.1c-1 2.6-3.9 6.6-7.9 5.7v-.3c3.4-.2 5.6-4.2 6.5-6.4l-5.4-14.6c-.5-1.1-1.5-1.5-2.3-1.5h-.2v-.3h8v.3h-.2c-.7 0-1.4.6-1 1.7l3.2 9.1 4.8-11.5h.2l5.2 11.6 3.3-10.6z"></path>
      <path class="st0" d="M729.2 340.7c-4.6 2.3-10.3 0-13.3-7.8l-.8-2.2h-6.3l-1.4 3.3c-.4 1.1.3 1.7 1 1.7h.2v.3h-5.7v-.3h.2c.7 0 1.6-.4 2.2-1.4l5.9-13.4c-1.1-2.6-2.8-4.7-5.7-3.7l-.1-.3c5.4-2.8 8.5.7 10.5 5.5l3.8 9.4c1.7 4.3 4.5 9.8 9.3 8.7l.2.2zm-14.5-11.1l-1.8-4.9c-.2-.6-.4-1.2-.7-1.9l-2.8 6.8h5.3z"></path>
      <path class="st0" d="M719.7 322.4c.9-3.6 3.7-5 8.1-5h6c6.2 0 10.1 3.5 10.1 9.2s-3.9 9.2-10.1 9.2h-9.6v-.3h.3c.9 0 1.6-.7 1.7-1.6v-15.4c-4.1.3-5.4 2-6.3 3.9h-.2zm10.5 12.4h3.3c3.8 0 6.1-3.1 6.1-8.1s-2.4-8.1-6.1-8.1h-3.3v16.2zM771.7 338.7c-5.3 7.4-14.5 1.4-19.8-1.1-1.7-.8-3.7-1.7-6.3-1.7v-.3h.3c.9 0 1.7-.7 1.7-1.7v-14.6c0-.9-.8-1.7-1.7-1.7h-.3v-.3h8v.3h-.3c-1 0-1.7.7-1.8 1.7v15.3c0 .9.3 1.4 1.1 1.7 8.4 2.7 15.2 4.4 18.8 2.2l.3.2z"></path>
      <path class="st0" d="M764.3 324.1c-1.2-2.7-.1-6.6 4.4-7 4.7-.5 10.6 2.9 10.6 9.4 0 5.9-4.7 9.8-11.4 9.8-6.8 0-11.5-3.9-11.5-9.7 0-4.4 2.7-7.8 6.9-9l.2.3c-1.9 1.6-2.7 4.8-2.7 8 0 5.8 2.9 9.3 7.2 9.3 4.2 0 7.1-3.4 7.1-8.7 0-4.7-2.3-8.5-6.3-8.3-3.4.2-4.8 3.2-4.1 5.9h-.4zM802.1 325.6c.7 7-3.3 10.7-9.1 10.7-7.3 0-11.6-4-11.6-9.5 0-5.7 4.6-9.7 11.5-9.7 2.8 0 5.2.6 6.8 1.4l.1 4.5h-.2c-1-3.5-3.7-4.8-6.5-4.8-4.5 0-7.3 3.4-7.3 8.3 0 5 2.8 8.5 7.7 8.6 5 0 8.6-3.4 8.4-9.6l.2.1zM809.5 334c0 .9.8 1.7 1.7 1.7h.3v.3h-8v-.3h.3c.9 0 1.7-.7 1.7-1.7v-14.6c0-.9-.8-1.6-1.7-1.6h-.3v-.3h8v.3h-.3c-.9 0-1.7.7-1.7 1.6V334zm20.5 6.4c-4.3 2.2-8.4.8-12.7-4.6l-7-8.5 6.3-8.3c.4-.6.1-1.3-.6-1.3h-.3v-.2h6v.2h-.1c-1.2 0-2.2.5-2.9 1.3l-5.1 6.1 7.2 8.9c3.2 4.2 5.7 6 9.2 6.2v.2z"></path>
    </a>
    <a href="#zozi" class='project-button' data-rails="true">
      <path class="st29 background" d="M529.5 445.2L428.7 387V270.5l100.8-58.2 100.8 58.2V387l-100.8 58.2z"></path>
      <path id="XMLID_57_" class="st0" d="M467.9 311.5h-18.1c-1.3 0-1.7-.2-1.7-1.5.2-3.2 0-6.6 0-9.8 0-.9.2-1.1 1.1-1.1h39c.9 0 1.3.2 1.3 1.1 0 1.1-.2 2.1-.8 3-6.4 11.5-12.6 23-19 34.5-.2.4-.4.8-.6 1.1.6.4 1.1.2 1.7.2h16.6c1.1 0 1.5.2 1.5 1.5v10.7c0 .9-.2 1.3-1.3 1.3-13.2.2-26.4.2-39.5.2-1.3 0-1.7-1.7-.9-3.4 1.1-2.1 2.3-4.3 3.6-6.4 5.5-10 11.1-20 16.6-29.9.1-.6.3-.9.5-1.5z"></path>
      <path id="XMLID_56_" class="st0" d="M591.8 325.8v-25.2c0-1.3.4-1.7 1.7-1.5h14.1c.9 0 1.3.2 1.3 1.1v51.2c0 .9-.2 1.3-1.3 1.3h-14.1c-1.1 0-1.5-.4-1.5-1.5-.2-8.5-.2-16.9-.2-25.4z"></path>
      <path id="XMLID_52_" class="st0" d="M538.7 316.8c-.2-7.3-3.4-13-10-16.4-6.6-3.2-13.4-3.6-20.3-1.9-9 2.3-15.1 9.2-14.7 19 .2 5.8 0 11.7 0 17.5 0 7.2 3.2 12.6 9.6 16 7.5 4 15.6 4.1 23.5 1.1 7-2.6 11.1-7.5 11.9-15.3.4-3.6.2-10.7.2-10.7-.2-3.5 0-6.3-.2-9.3zm-17.4 19c0 3.4-1.9 5.5-5.3 5.5-3.2 0-5.3-2.1-5.3-5.5V316c0-3.4 1.9-5.5 5.3-5.5s5.3 1.9 5.3 5.5c.2 6.6.2 13.2 0 19.8z"></path>
      <path id="XMLID_18_" class="st0" d="M563.9 311.5h-18.1c-1.3 0-1.7-.2-1.7-1.5.2-3.2 0-6.6 0-9.8 0-.9.2-1.1 1.1-1.1h39c.9 0 1.3.2 1.3 1.1 0 1.1-.2 2.1-.8 3-6.4 11.5-12.6 23-19 34.5-.2.4-.4.8-.6 1.1.6.4 1.1.2 1.7.2h16.6c1.1 0 1.5.2 1.5 1.5v10.7c0 .9-.2 1.3-1.3 1.3-13.2.2-26.4.2-39.5.2-1.3 0-1.7-1.7-.9-3.4 1.1-2.1 2.3-4.3 3.6-6.4 5.5-10 11.1-20 16.6-29.9.1-.6.3-.9.5-1.5z"></path>
    </a>
  </g>
  <g id="dots">
    <circle id="XMLID_39_" class="st0" cx="1394.2" cy="267.6" r="13.1">
      <animate xmlns:xlink="http://www.w3.org/1999/xlink" xlink:href="#XMLID_39_" attributeType="XML" attributeName="fill-opacity" values=".25;.25;1;.25;.25" dur="2.5s" begin="0s" repeatCount="indefinite"></animate>
    </circle>
    <circle id="XMLID_40_" class="st3" cx="1349.2" cy="267.6" r="13.1"></circle>
    <circle id="XMLID_41_" class="st3" cx="1394.2" cy="312.6" r="13.1"></circle>
    <circle id="XMLID_36_" class="st3" cx="1316.9" cy="652.2" r="10.7"></circle>
    <circle id="XMLID_43_" class="st3" cx="238.9" cy="974.2" r="10.7"></circle>
    <circle id="XMLID_44_" class="st3" cx="271.9" cy="974.2" r="10.7"></circle>
    <circle id="XMLID_45_" class="st3" cx="238.9" cy="942.2" r="10.7"></circle>
  </g>
  <g id="lines">
    <path id="XMLID_22_" class="st30" d="M376 208l84.3-.2v-43.6h494v49.5"></path>
    <path id="XMLID_25_" class="st30" d="M375.8 258.2h40.7l-.2 315h-225v436h657v-10.5"></path>
    <path id="XMLID_32_" class="st30" d="M375.8 309.2h18.5v196h141.5"></path>
    <path id="XMLID_42_" class="st30" d="M375.8 361.2h27.5v159h-199v508h934v-38h60v39h201v-341h-27v60h-34v-119h-42v64h-30.5"></path>
    <path id="XMLID_26_" class="st30" d="M375.8 412.2h9.5v-223h887v208.5"></path>
    <path id="XMLID_37_" class="st30" d="M375.8 464.2h7.5v82h-66v35.5"></path>
  </g>
</svg>
