<?xml version="1.0" encoding="utf-8"?>
<!-- Generator: Adobe Illustrator 19.0.0, SVG Export Plug-In . SVG Version: 6.00 Build 0)  -->
<svg version="1.1" id="Слой_1" xmlns="http://www.w3.org/2000/svg" xmlns:xlink="http://www.w3.org/1999/xlink" x="0px" y="0px"
	 viewBox="0 0 794.3 288.1" enable-background="new 0 0 794.3 288.1" xml:space="preserve">
<g id="Upstack">
  <a href="#upstack">
  	<path id="XMLID_2545_" class="bg" fill="#FFFFFF" fill-opacity="0" stroke="#5F52CA" stroke-miterlimit="10" d="M151.8,2 M151.8,0.6L82.7,40.4
  		v79.5l69.1,39.8l69-39.9V40L151.8,0.6L151.8,0.6z" class="bg"/>
  	<g id="Layer_1">
  		<g id="XMLID_2534_">
  			<path id="XMLID_2542_" fill="#5F52CA" d="M138.3,76.5c-3.1-0.3-5.6-0.6-5.6-2.2c0-0.4,0.1-0.8,0.5-1c0.9-0.9,3.1-1.3,4.8-1.3
  				c2.3,0,4.2,0.8,5.5,1.9l0.1,0.1l1.5-1.3l-0.1-0.1c-1.8-1.5-4.4-2.6-7.2-2.6c-1.9,0-3.7,0.4-5,1c-1.4,0.8-2.2,1.9-2.2,3.2
  				c0,1.4,0.8,3.5,7.3,4c3.9,0.3,5.6,0.8,5.6,2.2c0,1.7-1.9,2.6-5.1,2.6c-2.8,0-5-0.8-6.9-2.6l-0.1-0.1l-1.4,1.5l0.1,0.1
  				c2.1,1.8,5,3,8.2,3c4.4,0,7.3-1.8,7.3-4.6C145.6,77.5,142,76.7,138.3,76.5z"/>
  			<path id="XMLID_2541_" fill="#5F52CA" d="M183.1,71.9c2.4,0,4.4,0.9,5.3,2.6l0.1,0.1l1.9-0.9l-0.1-0.1c-1.4-2.2-4-3.5-7.2-3.5
  				c-5.3,0-8.6,2.8-8.6,7.4s3.2,7.4,8.5,7.4c3.2,0,5.8-1.3,7.2-3.5l0.1-0.1l-1.9-0.9l-0.1,0.1c-1,1.7-2.8,2.6-5.3,2.6
  				c-4.1,0-6.5-2.1-6.5-5.6C176.6,73.9,179,71.9,183.1,71.9z"/>
  			<polygon id="XMLID_2540_" fill="#5F52CA" points="200.7,76 207.9,70.3 205,70.3 194.7,78.3 194.7,70.3 192.6,70.3 192.6,84.6 
  				194.7,84.6 194.7,80.6 199.1,77.1 205.6,84.6 208.2,84.6 			"/>
  			<polygon id="XMLID_2539_" fill="#5F52CA" points="146.5,70.3 146.5,72.1 153.1,72.1 153.1,84.5 155.1,84.5 155.1,72.1 
  				160.8,72.1 161.8,70.3 			"/>
  			<polygon id="XMLID_2538_" fill="#5F52CA" points="164.5,70.3 169.3,78.9 161.9,78.9 160.9,80.7 170.3,80.7 172.3,84.6 
  				174.7,84.6 166.8,70.3 			"/>
  			<path id="XMLID_2537_" fill="#5F52CA" d="M102.9,85.4c4.6,0,7.6-2.8,7.6-7.2v-7.6h-2.2V78c0,3.2-1.9,5.3-5.4,5.3
  				c-3.3,0-5.4-1.9-5.4-5.3v-7.4h-2.2v7.6C95.3,82.7,98.3,85.4,102.9,85.4z"/>
  			<polygon id="XMLID_2536_" fill="#5F52CA" points="95.4,90.5 126.6,90.5 126.6,88.4 95.4,88.4 			"/>
  			<path id="XMLID_2535_" fill="#5F52CA" d="M122.5,70.6H113v2.2h9.4c2.2,0,3.5,0.9,3.5,2.6c0,1.7-1.3,2.6-3.5,2.6H113v7.2h2.2v-5
  				h7.3c3.5,0,5.6-1.8,5.6-4.6C128.2,72.6,126,70.6,122.5,70.6z"/>
  		</g>
  	</g>
  </a>
</g>
<g id="Preeline">
  <a href="#preeline">
  	<g id="XMLID_2554_">
  		<path id="XMLID_2564_" fill="#5F52CA" d="M292.9,78.5c0,1.9-1,3-2.7,3h-1v3.2h-1.3v-9h2.3C291.9,75.6,292.9,76.6,292.9,78.5z
  			 M291.6,78.5c0-1.2-0.5-1.7-1.4-1.7h-1v3.3h1C291.1,80.2,291.6,79.6,291.6,78.5z"/>
  		<path id="XMLID_2561_" fill="#5F52CA" d="M302.3,81.2h-0.8v3.2h-1.3v-9h2.3c1.7,0,2.7,1,2.7,2.8c0,1.4-0.6,2.3-1.7,2.7l1.9,3.5
  			h-1.4L302.3,81.2z M301.5,80.1h1c0.9,0,1.4-0.6,1.4-1.7s-0.5-1.5-1.4-1.5h-1V80.1z"/>
  		<path id="XMLID_2560_" fill="#5F52CA" d="M317.4,83.3v1.2h-4.5v-9h4.4v1.2h-3.1v2.6h2.8v1.2h-2.8V83h3.2V83.3z"/>
  		<path id="XMLID_2559_" fill="#5F52CA" d="M329.5,83.3v1.2H325v-9h4.4v1.2h-3.1v2.6h2.8v1.2h-2.8V83h3.2V83.3z"/>
  		<path id="XMLID_2558_" fill="#5F52CA" d="M341.2,83.8v0.8h-4.1v-9h0.8v8.2H341.2z"/>
  		<path id="XMLID_2557_" fill="#5F52CA" d="M349.3,75.6v9h-0.8v-9L349.3,75.6z"/>
  		<path id="XMLID_2556_" fill="#5F52CA" d="M362.4,75.6v9h-0.8l-2.4-5.3c-0.3-0.6-0.8-1.7-0.9-2.2l0,0c0,0.6,0,1.7,0,2.4v5h-0.8v-9
  			h0.8l2.4,5.3c0.3,0.6,0.8,1.7,1,2.2l0,0c0-0.6-0.1-1.8-0.1-2.6v-4.9H362.4z"/>
  		<path id="XMLID_2555_" fill="#5F52CA" d="M374.8,83.8v0.8h-4.4v-9h4.2v0.8h-3.3v3.3h3.2v0.8h-3.2v3.5h3.5V83.8z"/>
  	</g>
  	<path id="XMLID_2549_" fill="none" stroke="#5F52CA" stroke-width="1.284" stroke-miterlimit="10" d="M264.5,83.4l10-10.5
  		c3.3,0.8,2.4,4.8,0.8,6.4l-7.4,7.8l-6.9-7.6c0,0-3.9-3.2-1.5-5.8c2.2-2.6,5.9,1.4,5.9,1.4l-8,8.1"/>
  	<path id="XMLID_2532_" class='bg' fill="#FFFFFF" fill-opacity="0" stroke="#5F52CA" stroke-miterlimit="10" d="M315.5,2 M315.5,0.6
  		l-69.1,39.8v79.5l69.1,39.8l69-39.9V40L315.5,0.6L315.5,0.6z"/>
  </a>
</g>
<g id="Everseat">
  <a href="#everseat">
  	<path id="XMLID_2631_" fill="#5F52CA" d="M479,46.3c-9.6,0-17.5,7.8-17.5,17.5s7.8,17.5,17.5,17.5s17.5-7.8,17.5-17.5
  		S488.6,46.3,479,46.3z M489.5,66.2l-0.9,2.1c-0.1,0.3-0.3,0.4-0.5,0.4h-2.7c-0.4,0-0.8,0.5-0.5,0.9l4.4,6.5
  		c0.1,0.3,0.1,0.6-0.1,0.8l-2.1,1.3c-0.3,0.1-0.6,0.1-0.8-0.1l-6-8.9c-0.1-0.1-0.3-0.3-0.5-0.3h-1.8c-0.1,0-0.4,0.1-0.5,0.3
  		l-6.5,8.9c-0.1,0.3-0.5,0.3-0.8,0.1l-1.8-1.4c-0.3-0.1-0.3-0.5-0.1-0.8l4.5-6.3c0.3-0.4,0-0.9-0.5-0.9H469c-0.3,0-0.5-0.3-0.5-0.5
  		V50.9c0-0.3,0.1-0.4,0.3-0.5l2.1-1.3c0.4-0.3,0.9,0,0.9,0.5v15.2c0,0.3,0.3,0.5,0.5,0.5h16.6C489.4,65.4,489.8,65.8,489.5,66.2z"/>
  	<g id="XMLID_2543_">
  		<path id="XMLID_2550_" fill="#5F52CA" d="M431.8,99.3c0,3,1.6,4.9,4,4.9c2.7,0,4.6-1.5,4.6-1.5l1,1.4c0,0-2.5,2.3-5.8,2.3
  			c-4.4,0-6.6-2.9-6.6-7.4c0-4.4,2.7-7.6,6.7-7.6c4,0,5.7,2.3,5.7,6.4c0,0.7-0.1,1.4-0.1,1.5H431.8z M438.4,97.3c0-2-0.8-3.7-3-3.7
  			s-3.4,1.7-3.6,3.7H438.4z"/>
  		<path id="XMLID_2553_" fill="#5F52CA" d="M449.8,103.7l3.3-10l-1.9-0.4v-1.5l6.1-0.1v1.6l-1.5,0.3l-4.6,12.6h-3l-4.5-12.4
  			l-1.4-0.4v-1.5l6.1-0.1v1.6l-1.9,0.3L449.8,103.7z"/>
  		<path id="XMLID_2594_" fill="#5F52CA" d="M460.7,99.3c0,3,1.6,4.9,4,4.9c2.7,0,4.6-1.5,4.6-1.5l1,1.4c0,0-2.5,2.3-5.8,2.3
  			c-4.4,0-6.6-2.9-6.6-7.4c0-4.4,2.7-7.6,6.7-7.6c4,0,5.7,2.3,5.7,6.4c0,0.7-0.1,1.4-0.1,1.5H460.7z M467.4,97.3c0-2-0.8-3.7-3-3.7
  			s-3.4,1.7-3.6,3.7H467.4z"/>
  		<path id="XMLID_2597_" fill="#5F52CA" d="M477.3,93.7c0.7-0.8,2.3-2.3,4.1-2.3c1.4,0,2.5,0.4,2.5,0.4l-0.1,4H482l-0.4-2
  			c-2,0-3.4,1.3-4,2.1v8.1l2.7,0.7v1.5h-7.8v-1.5l2.3-0.7V93.9l-2.3-0.5v-1.5l4.5-0.1L477.3,93.7z"/>
  		<path id="XMLID_2599_" fill="#5F52CA" d="M487.6,104.2c0,0,0.8,0.2,2.3,0.2c1.6,0,3.1-0.5,3.1-2.2c0-3-7.6-1.6-7.6-6.6
  			c0-2.8,2.2-4.3,5-4.3c2.2,0,4.7,0.8,4.7,0.8l-0.1,3.7h-1.8l-0.4-2.1c0,0-0.8-0.3-2.2-0.3c-1.4,0-2.4,0.4-2.4,1.8
  			c0,2.9,7.6,1.8,7.6,6.5c0,3.1-2.7,4.7-6,4.7c-2.5,0-4.3-0.6-4.3-0.6v-4h1.9L487.6,104.2z"/>
  		<path id="XMLID_2601_" fill="#5F52CA" d="M501,99.3c0,3,1.6,4.9,4,4.9c2.7,0,4.6-1.5,4.6-1.5l1,1.4c0,0-2.5,2.3-5.8,2.3
  			c-4.4,0-6.6-2.9-6.6-7.4c0-4.4,2.7-7.6,6.7-7.6s5.7,2.3,5.7,6.4c0,0.7-0.1,1.4-0.1,1.5H501z M507.6,97.3c0-2-0.8-3.7-3-3.7
  			c-2.2,0-3.4,1.7-3.6,3.7H507.6z"/>
  		<path id="XMLID_2604_" fill="#5F52CA" d="M513.8,92.5c0,0,3-1.1,5.3-1.1c3.2,0,5.1,1.1,5.1,4.2v8.3l2.2,0.5v1.5l-4.2,0.1l-0.6-1.9
  			c-0.9,0.9-2.6,2.2-4.5,2.2c-2.6,0-4.1-1.5-4.1-4.1c0-3.1,2.5-4.2,6.3-4.2h2.2v-2.2c0-1.6-1-2.5-2.6-2.5c-1.6,0-2.8,0.4-2.8,0.4
  			l-0.4,2h-1.8L513.8,92.5z M519.5,99.9c-2.7,0-3.8,0.7-3.8,2.3c0,1.2,0.8,2,2,2c2,0,3.7-2.2,3.7-2.2v-2.2H519.5z"/>
  		<path id="XMLID_2607_" fill="#5F52CA" d="M537.1,93.9h-4v8.8c0,1.3,0.6,1.7,1.4,1.7c0.7,0,1.4-0.3,2.1-0.7l0.7,1.4
  			c-1.2,0.9-2.5,1.4-3.8,1.4c-1.6,0-3.1-0.9-3.1-4v-8.6h-2.7v-1.8l2.7-0.3v-3.4l2.7-0.5v4h4V93.9z"/>
  	</g>
  	<path id="XMLID_2548_" class='bg' fill="#FFFFFF" fill-opacity="0" stroke="#5F52CA" stroke-miterlimit="10" d="M479.2,2 M479.2,0.6
  		l-69.1,39.8v79.5l69.1,39.8l69-39.9V40L479.2,0.6L479.2,0.6z"/>
  </a>
</g>
<g id="Daisy_Bill">
  <a href="#daisybill">
  	<path id="XMLID_2669_" fill="#5F52CA" d="M595.7,66.6c-7.6,0-13.7,6.2-13.7,13.7s6.2,13.7,13.7,13.7c7.6,0,13.7-6.2,13.7-13.7
  		S603.3,66.6,595.7,66.6z M604.7,83.7c-0.4,0-0.8-0.1-1-0.1c-0.1,0.3-0.1,0.4-0.3,0.6c1.2,0.5,1.9,1.7,1.9,3c0,1.8-1.4,3.2-3.2,3.2
  		c-1.3,0-2.4-0.8-3-1.9c-0.1,0-0.3,0.1-0.4,0.1c0.1,0.4,0.3,0.6,0.3,1c0,1.8-1.4,3.2-3.2,3.2c-1.8,0-3.2-1.4-3.2-3.2
  		c0-0.4,0.1-0.8,0.3-1c-0.1-0.1-0.4-0.1-0.5-0.3c-0.5,1-1.5,1.7-2.8,1.7c-1.8,0-3.2-1.4-3.2-3.2c0-1.3,0.8-2.3,1.8-2.8
  		c0-0.1-0.1-0.3-0.1-0.4c-0.4,0.1-0.6,0.1-1,0.1c-1.8,0-3.2-1.4-3.2-3.2s1.4-3.2,3.2-3.2c0.4,0,0.8,0.1,1,0.1c0-0.1,0.1-0.4,0.3-0.5
  		c-1-0.5-1.8-1.7-1.8-2.8c0-1.8,1.4-3.2,3.2-3.2c1.3,0,2.4,0.8,3,1.8c0.1-0.1,0.4-0.1,0.5-0.3c-0.1-0.4-0.3-0.8-0.3-1.2
  		c0-1.8,1.4-3.2,3.2-3.2c1.8,0,3.2,1.4,3.2,3.2c0,0.4-0.1,0.8-0.3,1.2c0.1,0,0.3,0.1,0.5,0.1c0.5-1,1.7-1.8,3-1.8
  		c1.8,0,3.2,1.4,3.2,3.2c0,1.3-0.8,2.3-1.8,3c0.1,0.1,0.1,0.3,0.3,0.5c0.4-0.1,0.6-0.3,1-0.3c1.8,0,3.2,1.4,3.2,3.2
  		C608.4,82.1,606.5,83.7,604.7,83.7z"/>
  	<circle id="XMLID_2668_" fill="#5F52CA" cx="595.7" cy="80.3" r="3.2"/>
  	<g id="XMLID_2610_">
  		<path id="XMLID_2611_" fill="#5F52CA" d="M613.6,86.5h2.2V75h-2.2v-1.4h5.3c5.2,0,8.8,1.2,8.8,7.1c0,5.9-3.6,7.2-8.8,7.2h-5.3
  			V86.5z M617.7,86.5h1.2c4,0,6.8-1.1,6.8-5.7c0-4.6-2.7-5.7-6.8-5.7h-1.2V86.5z"/>
  		<path id="XMLID_2614_" fill="#5F52CA" d="M636.9,85.8L636.9,85.8c-0.5,1.6-1.8,2.3-3.4,2.3c-2,0-3.9-0.9-3.9-3.1
  			c0-3,3-3.2,5.4-3.2h1.9v-0.6c0-1.6-0.8-2.1-2.4-2.1c-1.4,0-2.5,0.3-2.6,1.7h-1.9c0.1-2.3,2.1-3.1,4.3-3.1c2.4,0,4.4,0.5,4.4,3.1
  			v5.7h1.7v1.4h-3.5V85.8z M633.7,86.7c2.2,0,3.2-1.6,3.2-3.5h-1.5c-1.3,0-3.9,0-3.9,1.8C631.5,86.3,632.6,86.7,633.7,86.7z"/>
  		<path id="XMLID_2617_" fill="#5F52CA" d="M641.4,86.5h1.7v-7.2h-1.7v-1.4h3.5v8.6h1.7v1.4h-5.2V86.5z M644.9,75.7h-2.1v-2.1h2.1
  			V75.7z"/>
  		<path id="XMLID_2620_" fill="#5F52CA" d="M648.1,87.9v-3.5h1.4c0,1,0.4,1.5,1,1.9c0.6,0.3,1.4,0.4,2.2,0.4c0.9,0,2.1-0.5,2.1-1.5
  			c0-1.4-1.5-1.3-2.6-1.5c-1.8-0.3-4.1-0.5-4.1-2.8c0-2.1,2-3.1,3.9-3.1c1.3,0,2.5,0.4,3,1.4h0v-1.2h1.4v3.3h-1.4
  			c0-0.9-0.3-1.4-0.8-1.7c-0.5-0.3-1.2-0.4-1.9-0.4c-1,0-2.4,0.3-2.4,1.5c0,1.1,1.7,1.2,3,1.4c1.8,0.3,3.8,0.6,3.8,2.8
  			c0,2.3-2.1,3.2-4.1,3.2c-1.2,0-2.6-0.5-3-1.6h0v1.4H648.1z"/>
  		<path id="XMLID_2622_" fill="#5F52CA" d="M669.7,79.3h-1.1l-4.1,9.5c-0.7,1.7-1.2,2.9-3.2,2.9c-0.5,0-0.9-0.1-1.4-0.1v-1.4
  			c0.3,0,0.7,0.1,1,0.1c1.5,0,1.6-1.2,2.2-2.4l-3.9-8.6h-1.1v-1.4h5v1.4h-1.9l2.9,6.7l2.8-6.7H665v-1.4h4.7V79.3z"/>
  		<path id="XMLID_2624_" fill="#5F52CA" d="M670.6,86.5h2.2V75h-2.2v-1.4h6.5c2.4,0,5.5,0.1,5.5,3.8c0,1.5-1.1,2.9-2.8,3.1v0
  			c2,0,3.3,1.2,3.3,3.3c0,3.5-2.8,4-6,4h-6.5V86.5z M674.7,80h2.3c1.8,0,3.5-0.3,3.5-2.6c0-2.4-2.1-2.4-3.5-2.4h-2.3V80z
  			 M674.7,86.5h2.3c2,0,3.9-0.3,3.9-2.6c0-2.2-1.8-2.5-3.9-2.5h-2.3V86.5z"/>
  		<path id="XMLID_2628_" fill="#5F52CA" d="M685.1,86.5h1.7v-7.2h-1.7v-1.4h3.5v8.6h1.7v1.4h-5.2V86.5z M688.6,75.7h-2.1v-2.1h2.1
  			V75.7z"/>
  		<path id="XMLID_2634_" fill="#5F52CA" d="M691.2,86.5h1.7V75h-1.7v-1.4h3.5v12.9h1.7v1.4h-5.2V86.5z"/>
  		<path id="XMLID_2640_" fill="#5F52CA" d="M697.2,86.5h1.7V75h-1.7v-1.4h3.5v12.9h1.7v1.4h-5.2V86.5z"/>
  	</g>
  	<path id="XMLID_2533_" class='bg' fill="#FFFFFF" fill-opacity="0" stroke="#5F52CA" stroke-miterlimit="10" d="M642.9,2 M642.9,0.6
  		l-69.1,39.8v79.5l69.1,39.8l69-39.9V40L642.9,0.6L642.9,0.6z"/>
  </a>
</g>
<g id="Invoyis">
  <a href="#invoyis">
	<path id="XMLID_2642_" fill="#5F52CA" d="M410.3,184.7c-13,0-23.2,10.7-23.4,23.8c0,13.2,10.5,24,23.4,23.9
		c12.7,0,23.2-10.9,23.1-23.9C433.6,195.3,423.2,184.7,410.3,184.7z M410.3,225.6c-9.1,0-16.6-7.7-16.6-17.1
		c0-9.5,7.4-17.1,16.7-17.1c9,0,16.3,7.7,16.3,17.1S419.3,225.6,410.3,225.6z"/>
	<path id="XMLID_2645_" fill="#5F52CA" d="M385,208.7c0-8,3.6-15.2,9.1-19.9c0.3-0.5,0.4-1,0.4-1.2c-2.7,0-5.3,0.1-7.8,0
		c-1.5-0.1-2.2,0.5-2.7,1.8c-2.8,6.9-5.9,13.7-8.9,20.8c-0.3-0.6-0.5-1.2-0.8-1.5c-2.7-6.3-5.4-12.6-8.1-18.9
		c-0.6-1.5-1.3-2.3-3.1-2.2c-2.4,0.1-4.9,0-7.6,0c0.3,0.6,0.5,1.2,0.6,1.7c4.6,10.8,9.1,21.4,13.7,32.2c0.6,1.4,0.9,3.5,2.1,4.2
		c1.2,0.9,5.9,1.3,6.7-0.8c2.1-4.9,4.1-9.9,6.3-14.8C385,209.7,385,209.2,385,208.7z"/>
	<path id="XMLID_2646_" class='bg' fill="#FFFFFF" fill-opacity="0" stroke="#5F52CA" stroke-miterlimit="10" d="M397.4,129.6 M397.4,128.2
		L328.3,168v79.5l69.1,39.8l69-39.9v-79.7L397.4,128.2L397.4,128.2z"/>
  </a>
</g>
<g id="Freestak">
  <a href="#freestak">
	<g id="XMLID_2655_">
		<path id="XMLID_2677_" fill="#5F52CA" d="M59.8,200.6H53v3.3h6.7v2.3H53v6.4h-2.7v-14.4h9.5V200.6z"/>
		<path id="XMLID_2672_" fill="#5F52CA" d="M68.8,203.3l-1.4,2.2c-0.5-0.5-1.2-1-1.8-1s-1.7,0.5-1.7,2.3v5.9h-2.6v-10.4h2.6v1.2
			c0.6-0.9,1.4-1.4,2.3-1.4C67.1,201.9,68,202.5,68.8,203.3z"/>
		<path id="XMLID_2665_" fill="#5F52CA" d="M80.3,207.4c0,0.4,0,0.6-0.1,1h-8.3c0.4,1.3,1.4,2.2,3,2.2c0.9,0,1.9-0.4,2.6-0.9
			l1.7,1.7c-1.4,1-2.8,1.4-4.2,1.4c-3.1,0-5.5-2.4-5.5-5.5s2.4-5.5,5.5-5.5C77.8,201.9,80.3,204.2,80.3,207.4z M77.7,206.4
			c-0.4-1.3-1.5-2.2-2.8-2.2c-1.3,0-2.4,0.9-2.8,2.2H77.7z"/>
		<path id="XMLID_2662_" fill="#5F52CA" d="M92.7,207.4c0,0.4,0,0.6-0.1,1h-8.3c0.4,1.3,1.4,2.2,3,2.2c0.9,0,1.9-0.4,2.6-0.9
			l1.7,1.7c-1.4,1-2.8,1.4-4.2,1.4c-3.1,0-5.5-2.4-5.5-5.5s2.4-5.5,5.5-5.5C90.1,201.9,92.7,204.2,92.7,207.4z M90,206.4
			c-0.4-1.3-1.5-2.2-2.8-2.2s-2.4,0.9-2.8,2.2H90z"/>
		<path id="XMLID_2661_" fill="#5F52CA" d="M101.9,209.7c0,2.1-2.2,3.2-4,3.2c-1.5,0-3-0.5-4-1.8l1.5-1.5c0.6,0.8,1.4,1.3,2.4,1.3
			c0.8,0,1.4-0.3,1.4-0.9s-0.8-1-2.2-1.4c-1.7-0.5-3.2-1.4-3.2-3.2c0-2.1,2.1-3.2,4-3.2c1.5,0,2.8,0.6,3.9,1.8l-1.4,1.4
			c-0.6-0.8-1.4-1.2-2.3-1.2c-0.6,0-1.5,0.4-1.5,1c0,0.5,0.8,0.9,2.2,1.3C100.5,206.9,101.9,208,101.9,209.7z"/>
		<path id="XMLID_2660_" fill="#5F52CA" d="M109.4,212.4c-0.5,0.4-1.3,0.5-1.9,0.5c-2.4,0-3.2-1.2-3.2-3.9v-4.5h-1.4v-1
			c1.7-0.9,3-2.3,3.2-4.4h0.8v3h2.6v2.3h-2.6v4.8c0,1,0.5,1.3,1.2,1.3c0.4,0,1-0.1,1.4-0.5V212.4z"/>
		<path id="XMLID_2657_" fill="#5F52CA" d="M119.4,212.7h-2.6v-0.5c-0.9,0.6-1.9,0.8-3.1,0.8c-2.1,0-3.3-1.3-3.3-3.2
			c0-2.3,2.2-3.5,4.9-3.5h1.5c0-1.3-0.8-2.1-2.3-2.1c-0.8,0-1.5,0.3-2.3,0.9l-1.5-1.5c1.2-1,2.6-1.7,4.1-1.7c1.4,0,2.6,0.5,3.3,1.3
			c0.9,0.9,1.3,1.9,1.3,3.7L119.4,212.7z M116.7,210V208h-1.2c-1.4,0-2.6,0.4-2.6,1.4c0,0.8,0.6,1.3,1.5,1.3
			C115.1,210.7,115.9,210.5,116.7,210z"/>
		<path id="XMLID_2656_" fill="#5F52CA" d="M131.2,212.7h-3.1l-4.2-4.6v4.6h-2.7v-15h2.7v8.9l3.6-4.4h3.1l-4.2,5.1L131.2,212.7z"/>
	</g>
	<polygon id="XMLID_2654_" fill="#5F52CA" points="19.1,212.9 19.1,197.4 27.8,192.1 24.4,190.1 11.3,197.9 11.3,213.4 24.6,221 
		37.7,213.3 37.7,213.3 28.9,218.4 	"/>
	<polygon id="XMLID_2649_" fill="#5F52CA" points="32.1,189.6 27.8,192.1 37.7,198 37.7,213.3 28.9,218.4 19.1,212.9 19.1,212.9 
		32.3,220.5 45.4,212.8 45.4,197.6 	"/>
	<path id="XMLID_2609_" class='bg' fill="#FFFFFF" fill-opacity="0" stroke="#5F52CA" stroke-miterlimit="10" d="M69.9,129.6 M69.9,128.2
		L0.9,168v79.5l69.1,39.8l69-39.9v-79.7L69.9,128.2L69.9,128.2z"/>
  </a>
</g>
<g id="Beatthread">
  <a href="#beatthread">
	<path id="XMLID_2686_" fill="#5F52CA" d="M258.4,194.6c-0.8-12.1-10.5-22.1-22.7-23c-4.9-0.4-9.6,0.6-13.9,2.8l-9.5-8.3
		c-0.6-0.5-1.5-0.8-2.3-0.4s-1.3,1.2-1.3,2.1v29c0,0,0,0,0,0.1c0.1,6.5,2.8,12.6,7.4,17.2c4.6,4.6,10.9,7.2,17.5,7.2
		c6.8,0,13.5-2.8,18.2-8C256.5,208.2,259,201.5,258.4,194.6z M250.9,212.4c-4.5,4.8-10.7,7.4-17.2,7.4c-6.2,0-12.1-2.4-16.6-6.8
		c-4.2-4.1-6.7-9.8-6.9-15.7h6.7c1.2,0,2.2-0.9,2.2-1.9v-2.8c0-0.3,0.4-0.5,0.9-0.5c0.5,0,0.9,0.3,0.9,0.5v10.9c0,1,1,1.9,2.2,1.9
		s2.2-0.9,2.2-1.9v-13.6c0-0.3,0.4-0.5,0.9-0.5s0.9,0.3,0.9,0.5v15c0,1,1,1.9,2.2,1.9c1.2,0,2.2-0.9,2.2-1.9v-18.7
		c0-0.3,0.4-0.5,0.9-0.5s0.9,0.3,0.9,0.5v17.3c0,1,1,1.9,2.2,1.9c1.2,0,2.2-0.9,2.2-1.9v-15c0-0.3,0.4-0.5,0.9-0.5s0.9,0.3,0.9,0.5
		v15c0,1,1,1.9,2.2,1.9c1.2,0,2.2-0.9,2.2-1.9v-13.6c0-0.3,0.4-0.5,0.9-0.5s0.9,0.3,0.9,0.5v10.9c0,1,1,1.9,2.2,1.9s2.2-0.9,2.2-1.9
		V198c0-0.3,0.4-0.5,0.9-0.5h6.5C256.9,203,254.7,208.3,250.9,212.4z M248.3,198v2.8c0,0.3-0.4,0.5-0.9,0.5c-0.5,0-0.9-0.3-0.9-0.5
		v-10.9c0-1-1-1.9-2.2-1.9c-1.2,0-2.1,0.9-2.1,1.9v13.6c0,0.3-0.4,0.5-0.9,0.5s-0.9-0.3-0.9-0.5v-15c0-1-1-1.9-2.2-1.9
		c-1.2,0-2.2,0.9-2.2,1.9v15c0,0.3-0.4,0.5-0.9,0.5s-0.9-0.3-0.9-0.5v-17.3c0-1-1-1.9-2.2-1.9c-1.2,0-2.2,0.9-2.2,1.9V205
		c0,0.3-0.4,0.5-0.9,0.5s-0.9-0.3-0.9-0.5v-15c0-1-1-1.9-2.2-1.9c-1.2,0-2.2,0.9-2.2,1.9v13.6c0,0.3-0.4,0.5-0.9,0.5
		s-0.9-0.3-0.9-0.5v-10.9c0-1-1-1.9-2.2-1.9s-2.2,0.9-2.2,1.9v2.8c0,0.3-0.4,0.5-0.9,0.5h-6.8v-28.2c0-0.4,0.1-0.6,0.5-0.8
		c0.4-0.1,0.6-0.1,0.9,0.1l9.8,8.6c0.3,0.1,0.5,0.3,0.8,0.1c4.1-2.3,8.7-3.3,13.5-3c11.4,0.9,20.7,10.3,21.4,21.8c0,0.4,0,0.9,0,1.4
		h-6.5C249.3,196.1,248.3,197,248.3,198z"/>
	<g id="XMLID_2997_" enable-background="new    ">
		<path id="XMLID_2998_" fill="#5F52CA" d="M190.3,237.6c0,2-1.8,3.4-4.5,3.4l-4.4,0c-0.3,0-0.4-0.3-0.4-0.6v-9.8
			c0-0.3,0.2-0.4,0.4-0.4h4.2c2.6,0,4.2,1.2,4.2,3c0,0.9-0.4,1.6-1.2,2C189.8,235.5,190.3,236.4,190.3,237.6z M183.6,232v2.6h2.3
			c0.9,0,1.6-0.5,1.6-1.3c0-0.8-0.7-1.3-1.7-1.3H183.6z M187.9,237.6c0-0.9-0.8-1.3-1.9-1.3h-2.4v2.9l2.4,0
			C187.1,239.1,187.9,238.5,187.9,237.6z"/>
		<path id="XMLID_3017_" fill="#5F52CA" d="M200.8,239.3l-0.2,1.3c0,0.2-0.1,0.3-0.3,0.3h-5.7h-1.8c-0.3,0-0.4-0.2-0.4-0.4v-10
			c0-0.3,0.2-0.4,0.4-0.4h2.2h4.9c0.2,0,0.3,0.1,0.3,0.3l0.1,1.3c0,0.3-0.1,0.4-0.4,0.4h-4.9v2.3h4c0.2,0,0.3,0.1,0.3,0.3v1.5
			c0,0.2-0.1,0.3-0.3,0.3h-4v2.4h5.4C200.7,238.9,200.8,239.1,200.8,239.3z"/>
		<path id="XMLID_3019_" fill="#5F52CA" d="M212.3,240.9l-1.5,0.2c-0.3,0-0.5-0.1-0.6-0.4l-0.7-2h-4.6l-0.7,1.8
			c-0.1,0.3-0.3,0.4-0.5,0.4h-1.5c-0.4,0-0.5-0.2-0.4-0.6l3.7-9.9c0.1-0.3,0.3-0.4,0.6-0.4h2c0.3,0,0.5,0.1,0.6,0.4l3.9,9.9
			C212.8,240.7,212.6,240.9,212.3,240.9z M208.8,236.9l-1.6-4.4l-1.6,4.4H208.8z"/>
		<path id="XMLID_3022_" fill="#5F52CA" d="M222.3,230.4v1.6c0,0.2-0.1,0.3-0.3,0.3h-3.7v8.4c0,0.2-0.1,0.3-0.3,0.3h-2
			c-0.2,0-0.3-0.1-0.3-0.3v-8.4h-3.6c-0.3,0-0.4-0.2-0.4-0.5l0.1-1.4c0-0.2,0.1-0.3,0.3-0.3h6.1h3.7
			C222.2,230.1,222.3,230.2,222.3,230.4z"/>
	</g>
	<g id="XMLID_2685_" enable-background="new    ">
		<path id="XMLID_3024_" fill="#5F52CA" d="M233.7,230.2v0.2c0,0.1,0,0.1-0.1,0.1h-4.8v10.4c0,0,0,0.1-0.1,0.1h-0.2
			c0,0-0.1,0-0.1-0.1v-10.4h-4.8c-0.1,0-0.2,0-0.1-0.2l0-0.1c0-0.1,0.1-0.1,0.1-0.1h5.1L233.7,230.2
			C233.7,230.1,233.7,230.1,233.7,230.2z"/>
		<path id="XMLID_3026_" fill="#5F52CA" d="M244.7,230.2v10.7c0,0,0,0.1-0.1,0.1h-0.2c0,0-0.1,0-0.1-0.1v-5.1h-8.3v5.1
			c0,0,0,0.1-0.1,0.1h-0.2c-0.1,0-0.1,0-0.1-0.1v-10.7c0-0.1,0-0.1,0.1-0.1h0.2c0,0,0.1,0,0.1,0.1v5.3h8.3v-5.3c0-0.1,0-0.1,0.1-0.1
			L244.7,230.2C244.6,230.1,244.7,230.1,244.7,230.2z"/>
		<path id="XMLID_3028_" fill="#5F52CA" d="M256.6,240.9h-0.2c0,0-0.1,0-0.2-0.1l-2.4-4.5c-0.5,0.1-1.2,0.2-1.8,0.2H249v4.3
			c0,0,0,0.1-0.1,0.1h-0.2c-0.1,0-0.1,0-0.1-0.1v-10.6c0-0.1,0.1-0.1,0.1-0.1h3.6c2.6,0,4.1,1,4.1,3.2c0,1.6-0.8,2.6-2.3,3l2.5,4.5
			C256.7,240.9,256.7,240.9,256.6,240.9z M252.1,236.2c2.6,0,4.1-0.8,4.1-2.9c0-2.1-1.4-2.9-3.8-2.9l-3.4,0v5.8H252.1z"/>
		<path id="XMLID_3033_" fill="#5F52CA" d="M267.3,240.7l0,0.2c0,0,0,0.1-0.1,0.1h-7.4h0c-0.1,0-0.2-0.1-0.2-0.2v-10.5
			c0-0.1,0.1-0.2,0.2-0.2h6.9c0,0,0.1,0,0.1,0.1l0,0.1c0,0.1,0,0.1-0.1,0.1h-6.8v4.8h5.6c0,0,0.1,0,0.1,0.1v0.2c0,0.1,0,0.1-0.1,0.1
			h-5.6v5L267.3,240.7C267.3,240.6,267.3,240.6,267.3,240.7z"/>
		<path id="XMLID_3039_" fill="#5F52CA" d="M277.9,240.9h-0.1c0,0-0.1,0-0.1-0.1l-1.4-3.1h-6.6l-1.4,3.1c0,0-0.1,0.1-0.1,0.1h-0.1
			c-0.1,0-0.1-0.1-0.1-0.2l4.8-10.6c0-0.1,0.1-0.1,0.2-0.1h0.1c0.1,0,0.1,0,0.2,0.1l4.8,10.6C278.1,240.9,278,240.9,277.9,240.9z
			 M276.2,237.4l-3.2-6.9l-3.1,6.9H276.2z"/>
		<path id="XMLID_3042_" fill="#5F52CA" d="M280.2,240.9c-0.1,0-0.1-0.1-0.1-0.1v-10.6c0,0,0.1-0.1,0.1-0.1h3.5
			c3.6,0,5.8,2.2,5.8,5.5c0,3.5-2.1,5.3-6.1,5.3L280.2,240.9z M283.3,240.6c3.8,0,5.8-1.7,5.8-5c0-3.2-2-5.2-5.4-5.2l-3.3,0v10.2
			L283.3,240.6z"/>
	</g>
	<path id="XMLID_2644_" class='bg' fill="#FFFFFF" fill-opacity="0" stroke="#5F52CA" stroke-miterlimit="10" d="M233.7,129.6 M233.7,128.2
		L164.6,168v79.5l69.1,39.8l69-39.9v-79.7L233.7,128.2L233.7,128.2z"/>
</a>
</g>
<g id="SPLIT">
  <a href="#split">
	<g id="XMLID_2706_">
		<path id="XMLID_2725_" fill="#5F52CA" d="M508.6,196.3c3.8,0.2,6.3,1.3,8.4,3.4c0.3,0.3,0.5,0.7,0.5,0.7l-1.8,1.8l-1.4-1.4
			l0.4-0.5c0,0-0.4-0.3-0.7-0.6c-3-2-7.2-2-10.2-0.1c-0.8,0.5-0.8,0.7-0.8,0.7c4.4,4.3,9.3,9.4,13.7,13.7l0.7,0.8
			c-2.3,5.1-12.4,5.2-16.6,0.9c-0.2-0.2-0.6-0.7-0.6-0.7l1.7-1.9l1.5,1.4l-0.5,0.6c0,0,0.4,0.3,0.7,0.5c3.3,2,9.9,1.7,11.1-0.7
			c0,0-10.3-10.2-14.6-14.5c0,0,0-0.5,0.8-1.2C503.5,197.2,506.3,196.2,508.6,196.3z"/>
		<polygon id="XMLID_2722_" fill="#5F52CA" points="545.8,196.2 547.7,196.3 547.7,217.3 560,217.3 560,216.4 561.7,216.4 
			561.7,219.2 545.8,219.2 		"/>
		<path id="XMLID_2704_" fill="#5F52CA" d="M533.2,196.4c-3.4-0.2-11.1-0.1-11.1-0.1v1.8h0.8l0,21.2h1.8l0-7.1c0,0,5.7,0,8,0
			c4.4-0.1,7.7-3.5,7.9-7.8C540.7,200.3,537.5,196.7,533.2,196.4z M532.4,210.3c-2.3,0.1-7.7,0-7.7,0l0-12.3c0,0,0.2,0,1,0
			c2.2,0.1,4.4,0,6.7,0.1c3.6,0.1,6.3,2.7,6.3,6C538.7,207.4,536,210.1,532.4,210.3z"/>
		<path id="XMLID_2701_" fill="#5F52CA" d="M610.3,196.3c-6.3,0-11.4,5.1-11.4,11.5c0,6.3,5.2,11.5,11.5,11.4
			c6.3,0,11.3-5.1,11.3-11.4C621.7,201.4,616.7,196.2,610.3,196.3z M610.3,217.7c-5.4-0.1-9.9-4.6-9.9-10c0-5.4,4.6-9.9,10-9.9
			c5.4,0,9.9,4.6,9.9,10C620.3,213.1,615.6,217.8,610.3,217.7z"/>
		<path id="XMLID_2718_" fill="#5F52CA" d="M603.2,208.5c0,0-0.5-7.5,7.9-7.5l0,2.5h-1.4l0-1.2c-5,0.8-4.9,4.6-4.9,4.6h4.9v1.5
			H603.2z"/>
		<rect id="XMLID_2696_" x="566.9" y="196.3" fill="#5F52CA" width="1.9" height="22.9"/>
		<rect id="XMLID_2699_" x="582.8" y="196.3" fill="#5F52CA" width="1.9" height="22.9"/>
		<polygon id="XMLID_2702_" fill="#5F52CA" points="593.5,199 593.5,196.3 574,196.3 574,199 576.1,199 576.1,198.1 591.4,198.1 
			591.4,199 		"/>
		<path id="XMLID_2705_" fill="#5F52CA" d="M617.5,207c0,0,0.5,7.5-7.9,7.5l0-2.5h1.4l0,1.2c5-0.8,4.9-4.6,4.9-4.6h-4.9V207H617.5z"
			/>
	</g>
	<path id="XMLID_2643_" class='bg' fill="#FFFFFF" fill-opacity="0" stroke="#5F52CA" stroke-miterlimit="10" d="M561.1,129.6 M561.1,128.2
		L492,168v79.5l69.1,39.8l69-39.9v-79.7L561.1,128.2L561.1,128.2z"/>
</a>
</g>
<g id="Mediprocity">
  <a href="#mediprocity">
	<g id="XMLID_2678_">
		<g id="XMLID_2756_">
			<path id="XMLID_2780_" fill="#5F52CA" d="M707.9,208.7h-7.1c0.1,0.4,0.2,0.7,0.4,0.9c0.4,0.5,0.9,0.7,1.6,0.7
				c0.6,0,1.1-0.2,1.4-0.7h3.6c-0.2,0.8-0.7,1.5-1.3,2c-0.5,0.4-1.1,0.7-1.8,0.9c-0.7,0.2-1.3,0.3-2,0.3c-1.1,0-2-0.2-2.9-0.7
				c-0.9-0.5-1.6-1.3-2.1-2.4c-0.3-0.7-0.4-1.4-0.4-2.1c0-1.6,0.6-2.9,1.8-3.9c0.9-0.8,2.1-1.2,3.4-1.2c1.4,0,2.6,0.4,3.5,1.2
				C707.2,205,707.9,206.6,707.9,208.7z M704.1,206.7c0-0.4-0.1-0.7-0.3-0.9c-0.3-0.4-0.7-0.6-1.3-0.6c-0.6,0-1,0.2-1.3,0.6
				c-0.2,0.2-0.3,0.6-0.4,1H704.1z"/>
			<path id="XMLID_2777_" fill="#5F52CA" d="M717.6,199.2v13.4h-3.4v-1.1c-0.3,0.4-0.6,0.7-1,0.9c-0.5,0.3-1.2,0.5-2,0.5
				c-1.4,0-2.4-0.5-3.2-1.4c-0.8-1-1.1-2.2-1.1-3.7c0-1.5,0.4-2.7,1.1-3.7c0.8-1,1.8-1.5,3.1-1.5c1.2,0,2.1,0.4,2.8,1.3v-4.7H717.6z
				 M712.2,205.4c-0.6,0-1,0.2-1.3,0.7c-0.2,0.4-0.4,0.9-0.4,1.6c0,0.7,0.2,1.3,0.5,1.7c0.3,0.4,0.7,0.6,1.2,0.6
				c0.6,0,1.1-0.3,1.4-0.8c0.2-0.4,0.4-0.9,0.4-1.6c0-0.6-0.1-1.2-0.4-1.5C713.3,205.7,712.8,205.4,712.2,205.4z"/>
			<path id="XMLID_2774_" fill="#5F52CA" d="M721.9,199.2v2.6h-3.7v-2.6H721.9z M721.9,203v9.6h-3.7V203H721.9z"/>
			<path id="XMLID_2771_" fill="#5F52CA" d="M726.1,203v1.2c0.3-0.4,0.6-0.7,0.9-0.9c0.6-0.4,1.2-0.6,2-0.6c1.3,0,2.3,0.5,3.1,1.4
				c0.8,0.9,1.2,2.2,1.2,3.8c0,1.5-0.3,2.6-1,3.5c-0.8,1-1.9,1.5-3.3,1.5c-0.7,0-1.3-0.2-1.9-0.5c-0.3-0.2-0.6-0.4-0.9-0.8v4.1h-3.7
				V203H726.1z M727.9,205.7c-0.5,0-0.9,0.2-1.2,0.6c-0.3,0.4-0.5,1-0.5,1.7c0,0.7,0.1,1.2,0.4,1.6c0.3,0.5,0.8,0.7,1.3,0.7
				c0.6,0,1.1-0.3,1.3-0.8c0.2-0.4,0.3-0.9,0.3-1.5c0-0.8-0.2-1.4-0.5-1.8C728.8,205.8,728.4,205.7,727.9,205.7z"/>
			<path id="XMLID_2769_" fill="#5F52CA" d="M736.1,203v1.4c0.7-1,1.7-1.6,2.9-1.6c0.3,0,0.6,0,1,0.1v3c-0.4-0.1-0.7-0.1-1-0.1
				c-1,0-1.8,0.3-2.2,1c-0.3,0.4-0.4,1-0.4,1.8v4h-3.7V203H736.1z"/>
			<path id="XMLID_2766_" fill="#5F52CA" d="M743.6,202.7c1,0,1.9,0.2,2.8,0.7c0.9,0.5,1.6,1.2,2,2.1c0.3,0.7,0.5,1.5,0.5,2.3
				c0,1.5-0.5,2.7-1.5,3.7c-0.5,0.5-1.1,0.9-1.9,1.1c-0.6,0.2-1.3,0.3-2,0.3c-1,0-2-0.2-2.8-0.7c-0.9-0.5-1.6-1.2-2-2.1
				c-0.3-0.7-0.5-1.5-0.5-2.3c0-1.5,0.5-2.7,1.5-3.7C740.7,203.2,742,202.7,743.6,202.7z M743.6,205.2c-1.1,0-1.7,0.9-1.7,2.6
				c0,1.7,0.6,2.6,1.7,2.6c1.1,0,1.7-0.9,1.7-2.6C745.3,206.1,744.7,205.2,743.6,205.2z"/>
			<path id="XMLID_2764_" fill="#5F52CA" d="M754.9,208.6l3.5,0.1c0,1.1-0.4,2-1.2,2.8c-0.5,0.5-1.1,0.9-1.8,1.1
				c-0.6,0.2-1.3,0.3-2,0.3c-1.7,0-3-0.6-4.1-1.8c-0.8-0.9-1.2-2.1-1.2-3.4c0-1.1,0.3-2.1,0.9-3c0.5-0.7,1.2-1.3,2.1-1.7
				c0.7-0.3,1.5-0.5,2.4-0.5c1.7,0,3,0.5,3.9,1.6c0.5,0.6,0.9,1.4,1,2.3l-3.5,0.1c-0.2-0.9-0.6-1.4-1.5-1.4c-0.6,0-1,0.2-1.2,0.7
				c-0.3,0.5-0.4,1.1-0.4,1.9c0,0.7,0.1,1.2,0.3,1.7c0.3,0.6,0.7,0.9,1.4,0.9c0.6,0,1-0.3,1.2-0.8
				C754.8,209.3,754.9,209,754.9,208.6z"/>
			<path id="XMLID_2761_" fill="#5F52CA" d="M761.8,199.2v2.6h-3.7v-2.6H761.8z M761.8,203v9.6h-3.7V203H761.8z"/>
			<path id="XMLID_2759_" fill="#5F52CA" d="M766.6,199.9v3.1h1.7v2.2h-1.7v3.6c0,0.5,0.1,0.8,0.3,0.9c0.2,0.1,0.4,0.2,0.6,0.2
				c0.2,0,0.4,0,0.8-0.1v2.8c-0.9,0.2-1.7,0.2-2.5,0.2c-1.3,0-2.2-0.4-2.6-1.3c-0.2-0.3-0.3-0.7-0.3-1.3c0-0.2,0-0.6,0-1.3v-3.9
				h-1.3V203h1.3v-3.1H766.6z"/>
			<path id="XMLID_2757_" fill="#5F52CA" d="M777.6,203l-3,8.8c-0.6,1.6-1.2,2.7-1.9,3.3c-0.5,0.4-1.2,0.6-2,0.6c-0.2,0-0.5,0-0.9,0
				h-1.9v-2.8c0.6,0,0.9,0,0.9,0c0.8,0,1.1-0.2,1.1-0.7c0-0.2-0.1-0.6-0.2-1l-3.1-8.2h3.8l1.7,6l1.7-6H777.6z"/>
		</g>
		<g id="XMLID_2753_">
			<path id="XMLID_2754_" fill="#5F52CA" d="M683.8,203v1.4c0.7-1.1,1.7-1.7,3-1.7c1.4,0,2.4,0.6,3,1.7c0.3-0.4,0.6-0.8,0.8-1
				c0.6-0.5,1.4-0.7,2.4-0.7c1,0,1.8,0.3,2.4,0.8c0.6,0.5,0.9,1.2,1.1,2c0.1,0.4,0.1,0.8,0.1,1.3v5.9c0,0,0,1.8,1.7,1.8
				c1.7,0,2-1.3,2-1.3c0.9,0.6,3.1,0.8,4.2,0c0,0-1.5,5-6.2,5c-5.3,0-5.3-5.5-5.3-5.5v-5c0-0.6,0-1-0.1-1.2
				c-0.2-0.5-0.5-0.7-1.1-0.7c-1,0-1.4,0.7-1.4,2.1v4.8h-3.7v-5c0-0.6,0-1-0.1-1.2c-0.2-0.5-0.5-0.7-1.1-0.7c-1,0-1.4,0.7-1.4,2.1
				v4.8h-3.7V203H683.8z"/>
		</g>
		<path id="XMLID_2690_"  fill="#5F52CA" d="M697.9,218.9l-3,0c-1.9,1.1-4.1,1.7-6.4,1.7c-7.2,0-13-5.8-13-13c0-7.2,5.8-13,13-13
			c5.3,0,9.8,3.2,11.9,7.7c0,0,2.2-0.9,4.2,0.1c-1.9-6.9-8.7-11.5-16-11.5c-9.2,0-16.7,7.5-16.7,16.7c0,9.2,7.5,16.7,16.7,16.7
			c3.5,0,6.8-1.1,9.5-2.9L697.9,218.9z"/>
  </g>
	<path id="XMLID_2707_" class='bg' fill="#FFFFFF" fill-opacity="0" stroke="#5F52CA" stroke-miterlimit="10" d="M724.8,129.6 M724.8,128.2
		L655.7,168v79.5l69.1,39.8l69-39.9v-79.7L724.8,128.2L724.8,128.2z"/>
  </a>
</g>
</svg>
