<svg xmlns="http://www.w3.org/2000/svg" viewBox="0 0 794.3 288.1"><a><path class="bg" fill="none" stroke="#5F52CA" stroke-miterlimit="10" d="M151.8.6000000000000001L82.7 40.4v79.5l69.1 39.8 69-39.9V40L151.8.6h0z"/><g fill="#5F52CA"><path d="M138.3 76.5c-3.1-.3-5.6-.6-5.6-2.2 0-.4.1-.8.5-1 .9-.9 3.1-1.3 4.8-1.3 2.3 0 4.2.8 5.5 1.9l.1.1 1.5-1.3-.1-.1c-1.8-1.5-4.4-2.6-7.2-2.6-1.9 0-3.7.4-5 1-1.4.8-2.2 1.9-2.2 3.2 0 1.4.8 3.5 7.3 4 3.9.3 5.6.8 5.6 2.2 0 1.7-1.9 2.6-5.1 2.6-2.8 0-5-.8-6.9-2.6l-.1-.1-1.4 1.5.1.1c2.1 1.8 5 3 8.2 3 4.4 0 7.3-1.8 7.3-4.6s-3.6-3.6-7.3-3.8zM183.1 71.9c2.4 0 4.4.9 5.3 2.6l.1.1 1.9-.9-.1-.1c-1.4-2.2-4-3.5-7.2-3.5-5.3 0-8.6 2.8-8.6 7.4s3.2 7.4 8.5 7.4c3.2 0 5.8-1.3 7.2-3.5l.1-.1-1.9-.9-.1.1c-1 1.7-2.8 2.6-5.3 2.6-4.1 0-6.5-2.1-6.5-5.6.1-3.6 2.5-5.6 6.6-5.6zM200.7 76l7.2-5.7H205l-10.3 8v-8h-2.1v14.3h2.1v-4l4.4-3.5 6.5 7.5h2.6zM146.5 70.3v1.8h6.6v12.4h2V72.1h5.7l1-1.8zM164.5 70.3l4.8 8.6h-7.4l-1 1.8h9.4l2 3.9h2.4l-7.9-14.3zM102.9 85.4c4.6 0 7.6-2.8 7.6-7.2v-7.6h-2.2V78c0 3.2-1.9 5.3-5.4 5.3-3.3 0-5.4-1.9-5.4-5.3v-7.4h-2.2v7.6c0 4.5 3 7.2 7.6 7.2zM95.4 90.5h31.2v-2.1H95.4zM122.5 70.6H113v2.2h9.4c2.2 0 3.5.9 3.5 2.6 0 1.7-1.3 2.6-3.5 2.6H113v7.2h2.2v-5h7.3c3.5 0 5.6-1.8 5.6-4.6.1-3-2.1-5-5.6-5z"/></g></a><a><g fill="#5F52CA"><path d="M292.9 78.5c0 1.9-1 3-2.7 3h-1v3.2h-1.3v-9h2.3c1.7-.1 2.7.9 2.7 2.8zm-1.3 0c0-1.2-.5-1.7-1.4-1.7h-1v3.3h1c.9.1 1.4-.5 1.4-1.6zM302.3 81.2h-.8v3.2h-1.3v-9h2.3c1.7 0 2.7 1 2.7 2.8 0 1.4-.6 2.3-1.7 2.7l1.9 3.5H304l-1.7-3.2zm-.8-1.1h1c.9 0 1.4-.6 1.4-1.7s-.5-1.5-1.4-1.5h-1v3.2zM317.4 83.3v1.2h-4.5v-9h4.4v1.2h-3.1v2.6h2.8v1.2h-2.8V83h3.2v.3zM329.5 83.3v1.2H325v-9h4.4v1.2h-3.1v2.6h2.8v1.2h-2.8V83h3.2v.3zM341.2 83.8v.8h-4.1v-9h.8v8.2h3.3zM349.3 75.6v9h-.8v-9h.8zM362.4 75.6v9h-.8l-2.4-5.3c-.3-.6-.8-1.7-.9-2.2v7.4h-.8v-9h.8l2.4 5.3c.3.6.8 1.7 1 2.2 0-.6-.1-1.8-.1-2.6v-4.9h.8zM374.8 83.8v.8h-4.4v-9h4.2v.8h-3.3v3.3h3.2v.8h-3.2V84h3.5v-.2z"/></g><path fill="none" stroke="#5F52CA" stroke-width="1.284" stroke-miterlimit="10" d="M264.5 83.4l10-10.5c3.3.8 2.4 4.8.8 6.4l-7.4 7.8-6.9-7.6s-3.9-3.2-1.5-5.8c2.2-2.6 5.9 1.4 5.9 1.4l-8 8.1"/><path class="bg" fill="none" stroke="#5F52CA" stroke-miterlimit="10" d="M315.5.6000000000000001l-69.1 39.8v79.5l69.1 39.8 69-39.9V40L315.5.6h0z"/></a><a><path fill="#5F52CA" d="M479 46.3c-9.6 0-17.5 7.8-17.5 17.5s7.8 17.5 17.5 17.5 17.5-7.8 17.5-17.5-7.9-17.5-17.5-17.5zm10.5 19.9l-.9 2.1c-.1.3-.3.4-.5.4h-2.7c-.4 0-.8.5-.5.9l4.4 6.5c.1.3.1.6-.1.8l-2.1 1.3c-.3.1-.6.1-.8-.1l-6-8.9c-.1-.1-.3-.3-.5-.3H478c-.1 0-.4.1-.5.3l-6.5 8.9c-.1.3-.5.3-.8.1l-1.8-1.4c-.3-.1-.3-.5-.1-.8l4.5-6.3c.3-.4 0-.9-.5-.9H469c-.3 0-.5-.3-.5-.5V50.9c0-.3.1-.4.3-.5l2.1-1.3c.4-.3.9 0 .9.5v15.2c0 .3.3.5.5.5h16.6c.5.1.9.5.6.9z"/><g fill="#5F52CA"><path d="M431.8 99.3c0 3 1.6 4.9 4 4.9 2.7 0 4.6-1.5 4.6-1.5l1 1.4s-2.5 2.3-5.8 2.3c-4.4 0-6.6-2.9-6.6-7.4 0-4.4 2.7-7.6 6.7-7.6s5.7 2.3 5.7 6.4c0 .7-.1 1.4-.1 1.5h-9.5zm6.6-2c0-2-.8-3.7-3-3.7s-3.4 1.7-3.6 3.7h6.6zM449.8 103.7l3.3-10-1.9-.4v-1.5l6.1-.1v1.6l-1.5.3-4.6 12.6h-3l-4.5-12.4-1.4-.4v-1.5l6.1-.1v1.6l-1.9.3 3.3 10zM460.7 99.3c0 3 1.6 4.9 4 4.9 2.7 0 4.6-1.5 4.6-1.5l1 1.4s-2.5 2.3-5.8 2.3c-4.4 0-6.6-2.9-6.6-7.4 0-4.4 2.7-7.6 6.7-7.6s5.7 2.3 5.7 6.4c0 .7-.1 1.4-.1 1.5h-9.5zm6.7-2c0-2-.8-3.7-3-3.7s-3.4 1.7-3.6 3.7h6.6zM477.3 93.7c.7-.8 2.3-2.3 4.1-2.3 1.4 0 2.5.4 2.5.4l-.1 4H482l-.4-2c-2 0-3.4 1.3-4 2.1v8.1l2.7.7v1.5h-7.8v-1.5l2.3-.7V93.9l-2.3-.5v-1.5l4.5-.1.3 1.9zM487.6 104.2s.8.2 2.3.2c1.6 0 3.1-.5 3.1-2.2 0-3-7.6-1.6-7.6-6.6 0-2.8 2.2-4.3 5-4.3 2.2 0 4.7.8 4.7.8l-.1 3.7h-1.8l-.4-2.1s-.8-.3-2.2-.3c-1.4 0-2.4.4-2.4 1.8 0 2.9 7.6 1.8 7.6 6.5 0 3.1-2.7 4.7-6 4.7-2.5 0-4.3-.6-4.3-.6v-4h1.9l.2 2.4zM501 99.3c0 3 1.6 4.9 4 4.9 2.7 0 4.6-1.5 4.6-1.5l1 1.4s-2.5 2.3-5.8 2.3c-4.4 0-6.6-2.9-6.6-7.4 0-4.4 2.7-7.6 6.7-7.6s5.7 2.3 5.7 6.4c0 .7-.1 1.4-.1 1.5H501zm6.6-2c0-2-.8-3.7-3-3.7s-3.4 1.7-3.6 3.7h6.6zM513.8 92.5s3-1.1 5.3-1.1c3.2 0 5.1 1.1 5.1 4.2v8.3l2.2.5v1.5l-4.2.1-.6-1.9c-.9.9-2.6 2.2-4.5 2.2-2.6 0-4.1-1.5-4.1-4.1 0-3.1 2.5-4.2 6.3-4.2h2.2v-2.2c0-1.6-1-2.5-2.6-2.5s-2.8.4-2.8.4l-.4 2h-1.8l-.1-3.2zm5.7 7.4c-2.7 0-3.8.7-3.8 2.3 0 1.2.8 2 2 2 2 0 3.7-2.2 3.7-2.2v-2.2h-1.9zM537.1 93.9h-4v8.8c0 1.3.6 1.7 1.4 1.7.7 0 1.4-.3 2.1-.7l.7 1.4c-1.2.9-2.5 1.4-3.8 1.4-1.6 0-3.1-.9-3.1-4v-8.6h-2.7v-1.8l2.7-.3v-3.4l2.7-.5v4h4v2z"/></g><path class="bg" fill="none" stroke="#5F52CA" stroke-miterlimit="10" d="M479.2.6000000000000001l-69.1 39.8v79.5l69.1 39.8 69-39.9V40L479.2.6h0z"/></a><a><path fill="#5F52CA" d="M595.7 66.6c-7.6 0-13.7 6.2-13.7 13.7S588.2 94 595.7 94c7.6 0 13.7-6.2 13.7-13.7s-6.1-13.7-13.7-13.7zm9 17.1c-.4 0-.8-.1-1-.1-.1.3-.1.4-.3.6 1.2.5 1.9 1.7 1.9 3 0 1.8-1.4 3.2-3.2 3.2-1.3 0-2.4-.8-3-1.9-.1 0-.3.1-.4.1.1.4.3.6.3 1 0 1.8-1.4 3.2-3.2 3.2-1.8 0-3.2-1.4-3.2-3.2 0-.4.1-.8.3-1-.1-.1-.4-.1-.5-.3-.5 1-1.5 1.7-2.8 1.7-1.8 0-3.2-1.4-3.2-3.2 0-1.3.8-2.3 1.8-2.8 0-.1-.1-.3-.1-.4-.4.1-.6.1-1 .1-1.8 0-3.2-1.4-3.2-3.2s1.4-3.2 3.2-3.2c.4 0 .8.1 1 .1 0-.1.1-.4.3-.5-1-.5-1.8-1.7-1.8-2.8 0-1.8 1.4-3.2 3.2-3.2 1.3 0 2.4.8 3 1.8.1-.1.4-.1.5-.3-.1-.4-.3-.8-.3-1.2 0-1.8 1.4-3.2 3.2-3.2 1.8 0 3.2 1.4 3.2 3.2 0 .4-.1.8-.3 1.2.1 0 .3.1.5.1.5-1 1.7-1.8 3-1.8 1.8 0 3.2 1.4 3.2 3.2 0 1.3-.8 2.3-1.8 3 .1.1.1.3.3.5.4-.1.6-.3 1-.3 1.8 0 3.2 1.4 3.2 3.2-.1 1.8-2 3.4-3.8 3.4z"/><circle fill="#5F52CA" cx="595.7" cy="80.3" r="3.2"/><g fill="#5F52CA"><path d="M613.6 86.5h2.2V75h-2.2v-1.4h5.3c5.2 0 8.8 1.2 8.8 7.1 0 5.9-3.6 7.2-8.8 7.2h-5.3v-1.4zm4.1 0h1.2c4 0 6.8-1.1 6.8-5.7s-2.7-5.7-6.8-5.7h-1.2v11.4zM636.9 85.8c-.5 1.6-1.8 2.3-3.4 2.3-2 0-3.9-.9-3.9-3.1 0-3 3-3.2 5.4-3.2h1.9v-.6c0-1.6-.8-2.1-2.4-2.1-1.4 0-2.5.3-2.6 1.7H630c.1-2.3 2.1-3.1 4.3-3.1 2.4 0 4.4.5 4.4 3.1v5.7h1.7v1.4h-3.5v-2.1zm-3.2.9c2.2 0 3.2-1.6 3.2-3.5h-1.5c-1.3 0-3.9 0-3.9 1.8 0 1.3 1.1 1.7 2.2 1.7zM641.4 86.5h1.7v-7.2h-1.7v-1.4h3.5v8.6h1.7v1.4h-5.2v-1.4zm3.5-10.8h-2.1v-2.1h2.1v2.1zM648.1 87.9v-3.5h1.4c0 1 .4 1.5 1 1.9.6.3 1.4.4 2.2.4.9 0 2.1-.5 2.1-1.5 0-1.4-1.5-1.3-2.6-1.5-1.8-.3-4.1-.5-4.1-2.8 0-2.1 2-3.1 3.9-3.1 1.3 0 2.5.4 3 1.4V78h1.4v3.3H655c0-.9-.3-1.4-.8-1.7-.5-.3-1.2-.4-1.9-.4-1 0-2.4.3-2.4 1.5 0 1.1 1.7 1.2 3 1.4 1.8.3 3.8.6 3.8 2.8 0 2.3-2.1 3.2-4.1 3.2-1.2 0-2.6-.5-3-1.6v1.4h-1.5zM669.7 79.3h-1.1l-4.1 9.5c-.7 1.7-1.2 2.9-3.2 2.9-.5 0-.9-.1-1.4-.1v-1.4c.3 0 .7.1 1 .1 1.5 0 1.6-1.2 2.2-2.4l-3.9-8.6h-1.1v-1.4h5v1.4h-1.9l2.9 6.7 2.8-6.7H665v-1.4h4.7v1.4zM670.6 86.5h2.2V75h-2.2v-1.4h6.5c2.4 0 5.5.1 5.5 3.8 0 1.5-1.1 2.9-2.8 3.1 2 0 3.3 1.2 3.3 3.3 0 3.5-2.8 4-6 4h-6.5v-1.3zm4.1-6.5h2.3c1.8 0 3.5-.3 3.5-2.6 0-2.4-2.1-2.4-3.5-2.4h-2.3v5zm0 6.5h2.3c2 0 3.9-.3 3.9-2.6 0-2.2-1.8-2.5-3.9-2.5h-2.3v5.1zM685.1 86.5h1.7v-7.2h-1.7v-1.4h3.5v8.6h1.7v1.4h-5.2v-1.4zm3.5-10.8h-2.1v-2.1h2.1v2.1zM691.2 86.5h1.7V75h-1.7v-1.4h3.5v12.9h1.7v1.4h-5.2v-1.4zM697.2 86.5h1.7V75h-1.7v-1.4h3.5v12.9h1.7v1.4h-5.2v-1.4z"/></g><path class="bg" fill="none" stroke="#5F52CA" stroke-miterlimit="10" d="M642.9.6000000000000001l-69.1 39.8v79.5l69.1 39.8 69-39.9V40L642.9.6h0z"/></a><a><path fill="#5F52CA" d="M410.3 184.7c-13 0-23.2 10.7-23.4 23.8 0 13.2 10.5 24 23.4 23.9 12.7 0 23.2-10.9 23.1-23.9.2-13.2-10.2-23.8-23.1-23.8zm0 40.9c-9.1 0-16.6-7.7-16.6-17.1 0-9.5 7.4-17.1 16.7-17.1 9 0 16.3 7.7 16.3 17.1s-7.4 17.1-16.4 17.1z"/><path fill="#5F52CA" d="M385 208.7c0-8 3.6-15.2 9.1-19.9.3-.5.4-1 .4-1.2-2.7 0-5.3.1-7.8 0-1.5-.1-2.2.5-2.7 1.8-2.8 6.9-5.9 13.7-8.9 20.8-.3-.6-.5-1.2-.8-1.5l-8.1-18.9c-.6-1.5-1.3-2.3-3.1-2.2-2.4.1-4.9 0-7.6 0 .3.6.5 1.2.6 1.7 4.6 10.8 9.1 21.4 13.7 32.2.6 1.4.9 3.5 2.1 4.2 1.2.9 5.9 1.3 6.7-.8 2.1-4.9 4.1-9.9 6.3-14.8.1-.4.1-.9.1-1.4z"/><path class="bg" fill="none" stroke="#5F52CA" stroke-miterlimit="10" d="M397.4 128.2L328.3 168v79.5l69.1 39.8 69-39.9v-79.7l-69-39.5h0z"/></a><a><g fill="#5F52CA"><path d="M59.8 200.6H53v3.3h6.7v2.3H53v6.4h-2.7v-14.4h9.5v2.4zM68.8 203.3l-1.4 2.2c-.5-.5-1.2-1-1.8-1s-1.7.5-1.7 2.3v5.9h-2.6v-10.4h2.6v1.2c.6-.9 1.4-1.4 2.3-1.4.9-.2 1.8.4 2.6 1.2zM80.3 207.4c0 .4 0 .6-.1 1h-8.3c.4 1.3 1.4 2.2 3 2.2.9 0 1.9-.4 2.6-.9l1.7 1.7c-1.4 1-2.8 1.4-4.2 1.4-3.1 0-5.5-2.4-5.5-5.5s2.4-5.5 5.5-5.5c2.8.1 5.3 2.4 5.3 5.6zm-2.6-1c-.4-1.3-1.5-2.2-2.8-2.2-1.3 0-2.4.9-2.8 2.2h5.6zM92.7 207.4c0 .4 0 .6-.1 1h-8.3c.4 1.3 1.4 2.2 3 2.2.9 0 1.9-.4 2.6-.9l1.7 1.7c-1.4 1-2.8 1.4-4.2 1.4-3.1 0-5.5-2.4-5.5-5.5s2.4-5.5 5.5-5.5c2.7.1 5.3 2.4 5.3 5.6zm-2.7-1c-.4-1.3-1.5-2.2-2.8-2.2s-2.4.9-2.8 2.2H90zM101.9 209.7c0 2.1-2.2 3.2-4 3.2-1.5 0-3-.5-4-1.8l1.5-1.5c.6.8 1.4 1.3 2.4 1.3.8 0 1.4-.3 1.4-.9s-.8-1-2.2-1.4c-1.7-.5-3.2-1.4-3.2-3.2 0-2.1 2.1-3.2 4-3.2 1.5 0 2.8.6 3.9 1.8l-1.4 1.4c-.6-.8-1.4-1.2-2.3-1.2-.6 0-1.5.4-1.5 1 0 .5.8.9 2.2 1.3 1.8.4 3.2 1.5 3.2 3.2zM109.4 212.4c-.5.4-1.3.5-1.9.5-2.4 0-3.2-1.2-3.2-3.9v-4.5h-1.4v-1c1.7-.9 3-2.3 3.2-4.4h.8v3h2.6v2.3h-2.6v4.8c0 1 .5 1.3 1.2 1.3.4 0 1-.1 1.4-.5v2.4zM119.4 212.7h-2.6v-.5c-.9.6-1.9.8-3.1.8-2.1 0-3.3-1.3-3.3-3.2 0-2.3 2.2-3.5 4.9-3.5h1.5c0-1.3-.8-2.1-2.3-2.1-.8 0-1.5.3-2.3.9l-1.5-1.5c1.2-1 2.6-1.7 4.1-1.7 1.4 0 2.6.5 3.3 1.3.9.9 1.3 1.9 1.3 3.7v5.8zm-2.7-2.7v-2h-1.2c-1.4 0-2.6.4-2.6 1.4 0 .8.6 1.3 1.5 1.3.7 0 1.5-.2 2.3-.7zM131.2 212.7h-3.1l-4.2-4.6v4.6h-2.7v-15h2.7v8.9l3.6-4.4h3.1l-4.2 5.1 4.8 5.4z"/></g><path fill="#5F52CA" d="M19.1 212.9v-15.5l8.7-5.3-3.4-2-13.1 7.8v15.5l13.3 7.6 13.1-7.7-8.8 5.1z"/><path fill="#5F52CA" d="M32.1 189.6l-4.3 2.5 9.9 5.9v15.3l-8.8 5.1-9.8-5.5 13.2 7.6 13.1-7.7v-15.2z"/><path class="bg" fill="none" stroke="#5F52CA" stroke-miterlimit="10" d="M69.9 128.2L.9 168v79.5L70 287.3l69-39.9v-79.7l-69.1-39.5h0z"/></a><a><path fill="#5F52CA" d="M258.4 194.6c-.8-12.1-10.5-22.1-22.7-23-4.9-.4-9.6.6-13.9 2.8l-9.5-8.3c-.6-.5-1.5-.8-2.3-.4s-1.3 1.2-1.3 2.1v29.1c.1 6.5 2.8 12.6 7.4 17.2 4.6 4.6 10.9 7.2 17.5 7.2 6.8 0 13.5-2.8 18.2-8 4.7-5.1 7.2-11.8 6.6-18.7zm-7.5 17.8c-4.5 4.8-10.7 7.4-17.2 7.4-6.2 0-12.1-2.4-16.6-6.8-4.2-4.1-6.7-9.8-6.9-15.7h6.7c1.2 0 2.2-.9 2.2-1.9v-2.8c0-.3.4-.5.9-.5s.9.3.9.5v10.9c0 1 1 1.9 2.2 1.9s2.2-.9 2.2-1.9v-13.6c0-.3.4-.5.9-.5s.9.3.9.5v15c0 1 1 1.9 2.2 1.9 1.2 0 2.2-.9 2.2-1.9v-18.7c0-.3.4-.5.9-.5s.9.3.9.5v17.3c0 1 1 1.9 2.2 1.9 1.2 0 2.2-.9 2.2-1.9v-15c0-.3.4-.5.9-.5s.9.3.9.5v15c0 1 1 1.9 2.2 1.9 1.2 0 2.2-.9 2.2-1.9v-13.6c0-.3.4-.5.9-.5s.9.3.9.5v10.9c0 1 1 1.9 2.2 1.9s2.2-.9 2.2-1.9V198c0-.3.4-.5.9-.5h6.5c-.6 5.5-2.8 10.8-6.6 14.9zm-2.6-14.4v2.8c0 .3-.4.5-.9.5s-.9-.3-.9-.5v-10.9c0-1-1-1.9-2.2-1.9-1.2 0-2.1.9-2.1 1.9v13.6c0 .3-.4.5-.9.5s-.9-.3-.9-.5v-15c0-1-1-1.9-2.2-1.9-1.2 0-2.2.9-2.2 1.9v15c0 .3-.4.5-.9.5s-.9-.3-.9-.5v-17.3c0-1-1-1.9-2.2-1.9-1.2 0-2.2.9-2.2 1.9V205c0 .3-.4.5-.9.5s-.9-.3-.9-.5v-15c0-1-1-1.9-2.2-1.9-1.2 0-2.2.9-2.2 1.9v13.6c0 .3-.4.5-.9.5s-.9-.3-.9-.5v-10.9c0-1-1-1.9-2.2-1.9s-2.2.9-2.2 1.9v2.8c0 .3-.4.5-.9.5h-6.8v-28.2c0-.4.1-.6.5-.8.4-.1.6-.1.9.1l9.8 8.6c.3.1.5.3.8.1 4.1-2.3 8.7-3.3 13.5-3 11.4.9 20.7 10.3 21.4 21.8v1.4h-6.5c-.8.1-1.8 1-1.8 2z"/><g fill="#5F52CA"><path d="M190.3 237.6c0 2-1.8 3.4-4.5 3.4h-4.4c-.3 0-.4-.3-.4-.6v-9.8c0-.3.2-.4.4-.4h4.2c2.6 0 4.2 1.2 4.2 3 0 .9-.4 1.6-1.2 2 1.2.3 1.7 1.2 1.7 2.4zm-6.7-5.6v2.6h2.3c.9 0 1.6-.5 1.6-1.3s-.7-1.3-1.7-1.3h-2.2zm4.3 5.6c0-.9-.8-1.3-1.9-1.3h-2.4v2.9h2.4c1.1-.1 1.9-.7 1.9-1.6zM200.8 239.3l-.2 1.3c0 .2-.1.3-.3.3h-7.5c-.3 0-.4-.2-.4-.4v-10c0-.3.2-.4.4-.4H199.9c.2 0 .3.1.3.3l.1 1.3c0 .3-.1.4-.4.4H195v2.3h4c.2 0 .3.1.3.3v1.5c0 .2-.1.3-.3.3h-4v2.4h5.4c.3 0 .4.2.4.4zM212.3 240.9l-1.5.2c-.3 0-.5-.1-.6-.4l-.7-2h-4.6l-.7 1.8c-.1.3-.3.4-.5.4h-1.5c-.4 0-.5-.2-.4-.6l3.7-9.9c.1-.3.3-.4.6-.4h2c.3 0 .5.1.6.4l3.9 9.9c.2.4 0 .6-.3.6zm-3.5-4l-1.6-4.4-1.6 4.4h3.2zM222.3 230.4v1.6c0 .2-.1.3-.3.3h-3.7v8.4c0 .2-.1.3-.3.3h-2c-.2 0-.3-.1-.3-.3v-8.4h-3.6c-.3 0-.4-.2-.4-.5l.1-1.4c0-.2.1-.3.3-.3h9.8c.3 0 .4.1.4.3z"/></g><g fill="#5F52CA"><path d="M233.7 230.2v.2c0 .1 0 .1-.1.1h-4.8v10.4s0 .1-.1.1h-.2s-.1 0-.1-.1v-10.4h-4.8c-.1 0-.2 0-.1-.2v-.1c0-.1.1-.1.1-.1h5.1l5 .1c0-.1 0-.1 0 0zM244.7 230.2v10.7s0 .1-.1.1h-.2s-.1 0-.1-.1v-5.1H236v5.1s0 .1-.1.1h-.2c-.1 0-.1 0-.1-.1v-10.7c0-.1 0-.1.1-.1h.2s.1 0 .1.1v5.3h8.3v-5.3c0-.1 0-.1.1-.1l.3.1c-.1-.1 0-.1 0 0zM256.6 240.9h-.2s-.1 0-.2-.1l-2.4-4.5c-.5.1-1.2.2-1.8.2h-3v4.3s0 .1-.1.1h-.2c-.1 0-.1 0-.1-.1v-10.6c0-.1.1-.1.1-.1h3.6c2.6 0 4.1 1 4.1 3.2 0 1.6-.8 2.6-2.3 3l2.5 4.5c.1.1.1.1 0 .1zm-4.5-4.7c2.6 0 4.1-.8 4.1-2.9 0-2.1-1.4-2.9-3.8-2.9H249v5.8h3.1zM267.3 240.7v.2s0 .1-.1.1h-7.4c-.1 0-.2-.1-.2-.2v-10.5c0-.1.1-.2.2-.2h6.9s.1 0 .1.1v.1c0 .1 0 .1-.1.1h-6.8v4.8h5.6s.1 0 .1.1v.2c0 .1 0 .1-.1.1h-5.6v5l7.4.1c0-.1 0-.1 0 0zM277.9 240.9h-.1s-.1 0-.1-.1l-1.4-3.1h-6.6l-1.4 3.1-.1.1h-.1c-.1 0-.1-.1-.1-.2l4.8-10.6c0-.1.1-.1.2-.1h.1c.1 0 .1 0 .2.1l4.8 10.6c0 .2-.1.2-.2.2zm-1.7-3.5l-3.2-6.9-3.1 6.9h6.3zM280.2 240.9c-.1 0-.1-.1-.1-.1v-10.6l.1-.1h3.5c3.6 0 5.8 2.2 5.8 5.5 0 3.5-2.1 5.3-6.1 5.3h-3.2zm3.1-.3c3.8 0 5.8-1.7 5.8-5 0-3.2-2-5.2-5.4-5.2h-3.3v10.2h2.9z"/></g><path class="bg" fill="none" stroke="#5F52CA" stroke-miterlimit="10" d="M233.7 128.2L164.6 168v79.5l69.1 39.8 69-39.9v-79.7l-69-39.5h0z"/></a><a><g fill="#5F52CA"><path d="M508.6 196.3c3.8.2 6.3 1.3 8.4 3.4.3.3.5.7.5.7l-1.8 1.8-1.4-1.4.4-.5s-.4-.3-.7-.6c-3-2-7.2-2-10.2-.1-.8.5-.8.7-.8.7 4.4 4.3 9.3 9.4 13.7 13.7l.7.8c-2.3 5.1-12.4 5.2-16.6.9-.2-.2-.6-.7-.6-.7l1.7-1.9 1.5 1.4-.5.6s.4.3.7.5c3.3 2 9.9 1.7 11.1-.7 0 0-10.3-10.2-14.6-14.5 0 0 0-.5.8-1.2 2.6-2 5.4-3 7.7-2.9zM545.8 196.2l1.9.1v21H560v-.9h1.7v2.8h-15.9zM533.2 196.4c-3.4-.2-11.1-.1-11.1-.1v1.8h.8v21.2h1.8v-7.1h8c4.4-.1 7.7-3.5 7.9-7.8.1-4.1-3.1-7.7-7.4-8zm-.8 13.9c-2.3.1-7.7 0-7.7 0V198h1c2.2.1 4.4 0 6.7.1 3.6.1 6.3 2.7 6.3 6s-2.7 6-6.3 6.2zM610.3 196.3c-6.3 0-11.4 5.1-11.4 11.5 0 6.3 5.2 11.5 11.5 11.4 6.3 0 11.3-5.1 11.3-11.4 0-6.4-5-11.6-11.4-11.5zm0 21.4c-5.4-.1-9.9-4.6-9.9-10s4.6-9.9 10-9.9 9.9 4.6 9.9 10c0 5.3-4.7 10-10 9.9z"/><path d="M603.2 208.5s-.5-7.5 7.9-7.5v2.5h-1.4v-1.2c-5 .8-4.9 4.6-4.9 4.6h4.9v1.5h-6.5zM566.9 196.3h1.9v22.9h-1.9zM582.8 196.3h1.9v22.9h-1.9z"/><path d="M593.5 199v-2.7H574v2.7h2.1v-.9h15.3v.9zM617.5 207s.5 7.5-7.9 7.5V212h1.4v1.2c5-.8 4.9-4.6 4.9-4.6H611V207h6.5z"/></g><path class="bg" fill="none" stroke="#5F52CA" stroke-miterlimit="10" d="M561.1 128.2L492 168v79.5l69.1 39.8 69-39.9v-79.7l-69-39.5h0z"/></a><a><g fill="#5F52CA"><path d="M707.9 208.7h-7.1c.1.4.2.7.4.9.4.5.9.7 1.6.7.6 0 1.1-.2 1.4-.7h3.6c-.2.8-.7 1.5-1.3 2-.5.4-1.1.7-1.8.9-.7.2-1.3.3-2 .3-1.1 0-2-.2-2.9-.7-.9-.5-1.6-1.3-2.1-2.4-.3-.7-.4-1.4-.4-2.1 0-1.6.6-2.9 1.8-3.9.9-.8 2.1-1.2 3.4-1.2 1.4 0 2.6.4 3.5 1.2 1.2 1.3 1.9 2.9 1.9 5zm-3.8-2c0-.4-.1-.7-.3-.9-.3-.4-.7-.6-1.3-.6-.6 0-1 .2-1.3.6-.2.2-.3.6-.4 1h3.3z"/><path d="M717.6 199.2v13.4h-3.4v-1.1c-.3.4-.6.7-1 .9-.5.3-1.2.5-2 .5-1.4 0-2.4-.5-3.2-1.4-.8-1-1.1-2.2-1.1-3.7s.4-2.7 1.1-3.7c.8-1 1.8-1.5 3.1-1.5 1.2 0 2.1.4 2.8 1.3v-4.7h3.7zm-5.4 6.2c-.6 0-1 .2-1.3.7-.2.4-.4.9-.4 1.6 0 .7.2 1.3.5 1.7.3.4.7.6 1.2.6.6 0 1.1-.3 1.4-.8.2-.4.4-.9.4-1.6 0-.6-.1-1.2-.4-1.5-.3-.4-.8-.7-1.4-.7zM721.9 199.2v2.6h-3.7v-2.6h3.7zm0 3.8v9.6h-3.7V203h3.7zM726.1 203v1.2c.3-.4.6-.7.9-.9.6-.4 1.2-.6 2-.6 1.3 0 2.3.5 3.1 1.4.8.9 1.2 2.2 1.2 3.8 0 1.5-.3 2.6-1 3.5-.8 1-1.9 1.5-3.3 1.5-.7 0-1.3-.2-1.9-.5-.3-.2-.6-.4-.9-.8v4.1h-3.7V203h3.6zm1.8 2.7c-.5 0-.9.2-1.2.6-.3.4-.5 1-.5 1.7s.1 1.2.4 1.6c.3.5.8.7 1.3.7.6 0 1.1-.3 1.3-.8.2-.4.3-.9.3-1.5 0-.8-.2-1.4-.5-1.8-.2-.4-.6-.5-1.1-.5z"/><path d="M736.1 203v1.4c.7-1 1.7-1.6 2.9-1.6.3 0 .6 0 1 .1v3c-.4-.1-.7-.1-1-.1-1 0-1.8.3-2.2 1-.3.4-.4 1-.4 1.8v4h-3.7V203h3.4z"/><path d="M743.6 202.7c1 0 1.9.2 2.8.7.9.5 1.6 1.2 2 2.1.3.7.5 1.5.5 2.3 0 1.5-.5 2.7-1.5 3.7-.5.5-1.1.9-1.9 1.1-.6.2-1.3.3-2 .3-1 0-2-.2-2.8-.7-.9-.5-1.6-1.2-2-2.1-.3-.7-.5-1.5-.5-2.3 0-1.5.5-2.7 1.5-3.7 1-.9 2.3-1.4 3.9-1.4zm0 2.5c-1.1 0-1.7.9-1.7 2.6 0 1.7.6 2.6 1.7 2.6s1.7-.9 1.7-2.6c0-1.7-.6-2.6-1.7-2.6z"/><path d="M754.9 208.6l3.5.1c0 1.1-.4 2-1.2 2.8-.5.5-1.1.9-1.8 1.1-.6.2-1.3.3-2 .3-1.7 0-3-.6-4.1-1.8-.8-.9-1.2-2.1-1.2-3.4 0-1.1.3-2.1.9-3 .5-.7 1.2-1.3 2.1-1.7.7-.3 1.5-.5 2.4-.5 1.7 0 3 .5 3.9 1.6.5.6.9 1.4 1 2.3l-3.5.1c-.2-.9-.6-1.4-1.5-1.4-.6 0-1 .2-1.2.7-.3.5-.4 1.1-.4 1.9 0 .7.1 1.2.3 1.7.3.6.7.9 1.4.9.6 0 1-.3 1.2-.8.1-.2.2-.5.2-.9z"/><path d="M761.8 199.2v2.6h-3.7v-2.6h3.7zm0 3.8v9.6h-3.7V203h3.7z"/><path d="M766.6 199.9v3.1h1.7v2.2h-1.7v3.6c0 .5.1.8.3.9.2.1.4.2.6.2.2 0 .4 0 .8-.1v2.8c-.9.2-1.7.2-2.5.2-1.3 0-2.2-.4-2.6-1.3-.2-.3-.3-.7-.3-1.3V205h-1.3v-2h1.3v-3.1h3.7z"/><path d="M777.6 203l-3 8.8c-.6 1.6-1.2 2.7-1.9 3.3-.5.4-1.2.6-2 .6h-2.8v-2.8h.9c.8 0 1.1-.2 1.1-.7 0-.2-.1-.6-.2-1l-3.1-8.2h3.8l1.7 6 1.7-6h3.8z"/></g><path fill="#5F52CA" d="M683.8 203v1.4c.7-1.1 1.7-1.7 3-1.7 1.4 0 2.4.6 3 1.7.3-.4.6-.8.8-1 .6-.5 1.4-.7 2.4-.7s1.8.3 2.4.8c.6.5.9 1.2 1.1 2 .1.4.1.8.1 1.3v5.9s0 1.8 1.7 1.8 2-1.3 2-1.3c.9.6 3.1.8 4.2 0 0 0-1.5 5-6.2 5-5.3 0-5.3-5.5-5.3-5.5v-5c0-.6 0-1-.1-1.2-.2-.5-.5-.7-1.1-.7-1 0-1.4.7-1.4 2.1v4.8h-3.7v-5c0-.6 0-1-.1-1.2-.2-.5-.5-.7-1.1-.7-1 0-1.4.7-1.4 2.1v4.8h-3.7V203h3.4z"/><path fill="#5F52CA" d="M697.9 218.9h-3c-1.9 1.1-4.1 1.7-6.4 1.7-7.2 0-13-5.8-13-13s5.8-13 13-13c5.3 0 9.8 3.2 11.9 7.7 0 0 2.2-.9 4.2.1-1.9-6.9-8.7-11.5-16-11.5-9.2 0-16.7 7.5-16.7 16.7s7.5 16.7 16.7 16.7c3.5 0 6.8-1.1 9.5-2.9l-.2-2.5z"/><path class="bg" fill="none" stroke="#5F52CA" stroke-miterlimit="10" d="M724.8 128.2L655.7 168v79.5l69.1 39.8 69-39.9v-79.7l-69-39.5h0z"/></a></svg>