<svg version="1.1" id="Слой_1" xmlns="http://www.w3.org/2000/svg" xmlns:xlink="http://www.w3.org/1999/xlink" x="0px" y="0px"
	 viewBox="461 -224.6 1219.3 867.1" enable-background="new 461 -224.6 1219.3 867.1" xml:space="preserve">
  <style>
    .st0 {
      fill:#FFFFFF;
    }
    .technology-bg {
      opacity: 0.2;
      fill: #FFFFFF;
      enable-background:new;
    }
    .technology-link {
      fill: #FFFFFF;
      font-family:Arial;
      font-weight:600
      font-size:18px;
    }
    .cablook-bg {
      stroke:#FFFFFF;
      stroke-width:1.8;
      stroke-miterlimit:10;
      stroke-opacity:0.5;
    }
    .st5 {
      enable-background:new;
    }
    .beatthread-bg {
      fill:#53AD71;
      stroke:#FFFFFF;
      stroke-width:1.8;
      stroke-miterlimit:10;
      stroke-opacity:0.5;
    }
    .knockknock-bg {
      fill:#6DB7D5;
      stroke:#FFFFFF;
      stroke-width:1.8;
      stroke-miterlimit:10;
      stroke-opacity:0.5;
    }
    .st8 {
      fill:#FBFDFD;
    }
    .freestak-bg {
      fill:#79BDA0;
      stroke:#FFFFFF;
      stroke-width:1.8;
      stroke-miterlimit:10;
      stroke-opacity:0.5;
    }
    .zigloop-bg {
      stroke:#FFFFFF;
      stroke-width:1.8;
      stroke-miterlimit:10;
      stroke-opacity:0.5;
    }
    .st11 {
      fill:#FFFFFF;
      stroke:#FFFFFF;
      stroke-width:0.9415;
      stroke-linecap:round;
      stroke-linejoin:round;
      stroke-miterlimit:10;
    }
    .st12 {
      fill:none;
      stroke:#FFFFFF;
      stroke-width:2.1842;
      stroke-linecap:round;
      stroke-linejoin:round;
      stroke-miterlimit:10;
    }
    .total-adventure-bg {
      fill:#5E5E5E;
      stroke:#FFFFFF;
      stroke-width:1.8;
      stroke-miterlimit:10;
      stroke-opacity:0.5;
    }
    .st14 {
      fill:none;
      stroke:#FFFFFF;
      stroke-width:2.8385;
      stroke-miterlimit:10;
    }
    .st15 {
      fill:none;
      stroke:#FFFFFF;
      stroke-width:2.8385;
      stroke-linecap:round;
      stroke-miterlimit:10;
    }
    .classly-bg {
      fill:#7891CA;
      stroke:#FFFFFF;
      stroke-width:1.8;
      stroke-miterlimit:10;
      stroke-opacity:0.5;
    }
    .moozen-apps-bg {
      fill:#47A1C8;
      stroke:#FFFFFF;
      stroke-width:1.8;
      stroke-miterlimit:10;
      stroke-opacity:0.5;
    }
    .somasoft-bg {
      fill:#1C1C1C;
      stroke:#FFFFFF;
      stroke-width:1.8;
      stroke-miterlimit:10;
      stroke-opacity:0.5;
    }
    .st19 {
      fill:none;
      stroke:#FFFFFF;
      stroke-width:3.7659;
      stroke-linecap:round;
      stroke-miterlimit:10;
    }
    .daisybill {
      fill:#D44D5C;
      stroke:#FFFFFF;
      stroke-width:1.8;
      stroke-miterlimit:10;
      stroke-opacity:0.5;
    }
    .myschool-bg {
      fill:#8DBB5B;
      stroke:#FFFFFF;
      stroke-width:1.8;
      stroke-miterlimit:10;
      stroke-opacity:0.5;
    }
    .foundersuite-bg {
      fill:#4C79AE;
      stroke:#FFFFFF;
      stroke-width:1.8;
      stroke-miterlimit:10;
      stroke-opacity:0.5;
    }
    .everseat-bg {
      fill:#3B566A;
      stroke:#FFFFFF;
      stroke-width:1.8;
      stroke-miterlimit:10;
      stroke-opacity:0.5;
    }
    .def-method-bg {
      fill:#332E44;
      stroke:#FFFFFF;
      stroke-width:1.8;
      stroke-miterlimit:10;
      stroke-opacity:0.5;
    }
    .numa-bg {
      fill:#4BAAB9;
      stroke:#FFFFFF;
      stroke-width:1.8;
      stroke-miterlimit:10;
      stroke-opacity:0.5;
    }
    .quick-quack-bg {
      fill:#44715A;
      stroke:#FFFFFF;
      stroke-width:1.8;
      stroke-miterlimit:10;
      stroke-opacity:0.5;
    }
    .st27 {
      fill:white;
      stroke:#FFFFFF;
      stroke-width:2.1718;
      stroke-miterlimit:10;
    }
    .twadlock-bg {
      fill:#42304A;
      stroke:#FFFFFF;
      stroke-width:1.8;
      stroke-miterlimit:10;
      stroke-opacity:0.5;
    }
    .upstack-bg {
      stroke:#FFFFFF;
      stroke-width:1.8;
      stroke-miterlimit:10;
      stroke-opacity:0.5;
    }
    .st30 {
      opacity:0.2;
      fill:none;
      stroke:#FFFFFF;
      stroke-width:3;
      stroke-miterlimit:10;
      enable-background:new;
    }
  </style>
  <a href="#" class="rails">
    <g class="rails">
      <path id="XMLID_5_" class="technology-bg" d="M642.5-162.4H498.8c-3.8,0-6.8-3.1-6.8-6.8v-29
        c0-3.8,3.1-6.8,6.8-6.8h143.7c3.8,0,6.8,3.1,6.8,6.8v29C649.3-165.4,646.2-162.4,642.5-162.4z"/>
      <text transform="matrix(1 0 0 1 502.2754 -177.3158)" class="technology-link">Ruby on Rails</text>
    </g>
  </a>
  <a href="#" class="angular">
    <g>
      <path id="XMLID_15_" class="technology-bg" d="M642.5-110.5H498.8c-3.8,0-6.8-3.1-6.8-6.8v-29
        c0-3.8,3.1-6.8,6.8-6.8h143.7c3.8,0,6.8,3.1,6.8,6.8v29C649.3-113.6,646.2-110.5,642.5-110.5z"/>
      <text transform="matrix(1 0 0 1 502.2754 -125.8158)" class="technology-link">AngularJS</text>
    </g>
  </a>
  <a href="#" class="react">
    <g>
      <path id="XMLID_17_" class="technology-bg" d="M642.5-59.1H498.8c-3.8,0-6.8-3.1-6.8-6.8v-29
        c0-3.8,3.1-6.8,6.8-6.8h143.7c3.8,0,6.8,3.1,6.8,6.8v29C649.3-62.1,646.2-59.1,642.5-59.1z"/>
      <text transform="matrix(1 0 0 1 502.2754 -75.3158)" class="technology-link">ReactJS</text>
    </g>
  </a>
  <a href='#' class="backbone">
    <g>
      <path id="XMLID_21_" class="technology-bg" d="M642.5-7.6H498.8c-3.8,0-6.8-3.1-6.8-6.8v-29
        c0-3.8,3.1-6.8,6.8-6.8h143.7c3.8,0,6.8,3.1,6.8,6.8v29C649.3-10.7,646.2-7.6,642.5-7.6z"/>
      <text transform="matrix(1 0 0 1 502.2754 -22.9398)" class="technology-link">Backbone.js</text>
    </g>
  </a>
  <a href='#' class="android">
    <g>
      <path id="XMLID_20_" class="technology-bg" d="M642.5,44.2H498.8c-3.8,0-6.8-3.1-6.8-6.8v-29
        c0-3.8,3.1-6.8,6.8-6.8h143.7c3.8,0,6.8,3.1,6.8,6.8v29C649.3,41.1,646.2,44.2,642.5,44.2z"/>
      <text transform="matrix(1 0 0 1 502.2754 28.3102)" class="technology-link">Android</text>
    </g>
  </a>
  <a href='#' class="ios">
    <g>
      <path id="XMLID_1_" class="technology-bg" d="M642.5,95.7H498.8c-3.8,0-6.8-3.1-6.8-6.8v-29
        c0-3.8,3.1-6.8,6.8-6.8h143.7c3.8,0,6.8,3.1,6.8,6.8v29C649.3,92.6,646.2,95.7,642.5,95.7z"/>
      <text transform="matrix(1 0 0 1 502.2754 81.0602)" class="technology-link">iOS</text>
    </g>
  </a>
  <g class="technologies" id="technologies">
    <a href="#cablook_taxi" data-technologies="rails ios android">
      <path class="background cablook-bg" d="M1545.9,609.3
        l-100.8-58.2V434.7l100.8-58.2l100.8,58.2v116.4L1545.9,609.3L1545.9,609.3z" />
      <path stroke="#FFFFFF" stroke-width="1.8" stroke-miterlimit="10" stroke-opacity="0.5" />
      <g id="XMLID_2_">
        <path id="XMLID_34_" fill="#FFFFFF" d="M1594.6,499.6l-0.1-0.1l-18.2-9.4l-1.1,1.5c-0.3,0.2-2.1,1.7-6.9,2.6
          c-3.8,0.7-10-0.5-20.3-19.3c-2.9-5.2-5.9-9.5-8.9-13c0.3,2.3,0.3,4.9,0.1,7.4c-0.4,4.3-2.3,10.5-4.7,17.1c1.2,1.2,2.7,3,4.3,5.3
          c3,4.3,5.7,9.4,7.5,12.8l0.5,0.9c1.8,3.4,4.9,5.6,8.8,6.3c1.2,0.2,2.2,0.3,3.1,0.3c1,0,1.8-0.1,2.1-0.1l34.7-2.8l0.6-0.5
          c1.2-0.9,1.4-2.8,1.4-4.1C1597.4,501.6,1594.9,499.8,1594.6,499.6z"/>
        <path id="XMLID_95_" fill="#FFFFFF" d="M1533.6,459.4c-0.9-2.6-4.1-9.7-13.2-9.7s-12.2,7.2-13.2,9.7c-0.9,2.6-1.6,7-1.2,11.3
          c1,11.6,14.3,39.8,14.3,39.8s13.3-28.2,14.3-39.8C1535.1,466.5,1534.5,462,1533.6,459.4z"/>
        <path id="XMLID_33_" fill="#FFFFFF" d="M1547.6,512.3l-4.4-4.3c-0.8-0.8-1.2-1.7-2.2-1.7l-12.1,0.1h-2.6
          c-3.4,7.4-6.1,12.9-6.1,12.9s-2.7-5.5-6.1-12.9h-2.8h-16.1c-1,0-2,0.7-2.2,1.7l-2.1,7.3l46.8,8.6l9.7-8
          C1548.5,515,1548.6,513.3,1547.6,512.3z"/>
        <path id="XMLID_215_" fill="#FFFFFF" d="M1551.6,516.4l-23.4,19.7h24.5c0.7,0,20,0,20,0l-16-19.2
          C1555.3,515.4,1553.1,515.2,1551.6,516.4z"/>
        <path id="XMLID_214_" fill="#FFFFFF" d="M1497.1,519.8l-7.1-1.3l-4.2,14.7c-0.2,0.7-0.1,1.5,0.4,2c0.4,0.6,1.1,0.9,1.9,0.9h9.1
          v-16.3H1497.1z"/>
        <polygon id="XMLID_213_" fill="#FFFFFF" points="1500.4,520.4 1500.4,536.1 1523.1,536.1 1534.5,526.6 			"/>
        <path id="XMLID_236_" fill="#FFFFFF" d="M1561,515.6l7.2,8.3l27.6-9.8c0.5-0.2,0.3-0.9-0.2-0.9L1561,515.6z"/>
        <path id="XMLID_235_" fill="#FFFFFF" d="M1569.9,527.3l27.5-10.9l8.7,18.6c0.2,0.5-0.1,1.1-0.7,1.1H1577L1569.9,527.3z"/>
      </g>
    </a>
    <a href="#beatthread" data-technologies="rails">
      <path class="background beatthread-bg" d="M1333.5,609.3
        l-100.8-58.2V434.7l100.8-58.2l100.8,58.2v116.4L1333.5,609.3L1333.5,609.3z"/>
      <path fill="#FFFFFF" d="M1370.1,471.6c-1.1-17.7-15.4-32.4-33.3-33.7c-7.2-0.6-14.1,0.9-20.3,4.1l-14-12.2
        c-0.9-0.8-2.3-1.1-3.4-0.6c-1.1,0.6-1.9,1.7-1.9,3V475c0.2,9.6,4.1,18.5,10.9,25.2c6.8,6.8,16,10.5,25.6,10.5
        c10,0,19.8-4.1,26.7-11.7C1367.2,491.5,1370.8,481.7,1370.1,471.6L1370.1,471.6z M1359,497.8c-6.6,7-15.6,10.9-25.2,10.9
        c-9,0-17.7-3.6-24.3-10c-6.2-6-9.8-14.3-10.2-23h9.8c1.7,0,3.2-1.3,3.2-2.8v-4.1c0-0.4,0.6-0.8,1.3-0.8c0.8,0,1.3,0.4,1.3,0.8v16
        c0,1.5,1.5,2.8,3.2,2.8s3.2-1.3,3.2-2.8v-20c0-0.4,0.6-0.8,1.3-0.8c0.8,0,1.3,0.4,1.3,0.8v22c0,1.5,1.5,2.8,3.2,2.8
        s3.2-1.3,3.2-2.8v-27.5c0-0.4,0.6-0.8,1.3-0.8c0.7,0,1.3,0.4,1.3,0.8v25.4c0,1.5,1.5,2.8,3.2,2.8s3.2-1.3,3.2-2.8v-22
        c0-0.4,0.6-0.8,1.3-0.8c0.8,0,1.3,0.4,1.3,0.8v22c0,1.5,1.5,2.8,3.2,2.8s3.2-1.3,3.2-2.8v-20c0-0.4,0.6-0.8,1.3-0.8
        c0.7,0,1.3,0.4,1.3,0.8v16c0,1.5,1.5,2.8,3.2,2.8s3.2-1.3,3.2-2.8v-4.1c0-0.4,0.6-0.8,1.3-0.8h9.6
        C1367.8,484.1,1364.6,491.8,1359,497.8L1359,497.8z M1355.2,476.7v4.1c0,0.4-0.6,0.8-1.3,0.8c-0.8,0-1.3-0.4-1.3-0.8v-16
        c0-1.5-1.5-2.8-3.2-2.8s-3,1.3-3,2.8v20c0,0.4-0.6,0.8-1.3,0.8c-0.8,0-1.3-0.4-1.3-0.8v-22c0-1.5-1.5-2.8-3.2-2.8
        s-3.2,1.3-3.2,2.8v22c0,0.4-0.6,0.8-1.3,0.8c-0.8,0-1.3-0.4-1.3-0.8v-25.4c0-1.5-1.5-2.8-3.2-2.8s-3.2,1.3-3.2,2.8v27.5
        c0,0.4-0.6,0.8-1.3,0.8c-0.7,0-1.3-0.4-1.3-0.8v-22c0-1.5-1.5-2.8-3.2-2.8s-3.2,1.3-3.2,2.8v20c0,0.4-0.6,0.8-1.3,0.8
        c-0.8,0-1.3-0.4-1.3-0.8v-16c0-1.5-1.5-2.8-3.2-2.8s-3.2,1.3-3.2,2.8v4.1c0,0.4-0.6,0.8-1.3,0.8h-10v-41.4c0-0.6,0.2-0.9,0.8-1.1
        c0.6-0.2,0.9-0.2,1.3,0.2l14.3,12.6c0.4,0.2,0.8,0.4,1.1,0.2c6-3.4,12.8-4.9,19.8-4.3c16.8,1.3,30.3,15.1,31.4,32v2.1h-9.6
        C1356.7,473.8,1355.2,475.1,1355.2,476.7L1355.2,476.7z"/>
      <path fill="#FFFFFF" d="M1270.2,534.8c0,2.9-2.6,4.9-6.6,4.9h-6.5c-0.4,0-0.6-0.4-0.6-0.8v-14.4c0-0.4,0.2-0.6,0.6-0.6h6.2
        c3.8,0,6.2,1.8,6.2,4.4c0,1.3-0.6,2.4-1.8,3C1269.4,531.8,1270.2,533.1,1270.2,534.8L1270.2,534.8z M1260.3,526.6v3.7h3.3
        c1.3,0,2.3-0.7,2.3-1.9c0-1.1-1-1.9-2.4-1.9h-3.2V526.6L1260.3,526.6z M1266.6,534.8c0-1.3-1.1-2-2.8-2h-3.5v4.2h3.5
        C1265.5,537,1266.6,536.1,1266.6,534.8z M1285.6,537.4l-0.3,2c0,0.2-0.1,0.4-0.4,0.4h-11c-0.4,0-0.6-0.2-0.6-0.6v-14.6
        c0-0.4,0.2-0.6,0.6-0.6h10.4c0.2,0,0.4,0.1,0.4,0.4l0.1,2c0,0.4-0.2,0.6-0.6,0.6h-7.1v3.4h5.9c0.3,0,0.4,0.1,0.4,0.4v2.2
        c0,0.2-0.1,0.4-0.4,0.4h-5.9v3.5h7.9C1285.4,536.8,1285.6,537,1285.6,537.4L1285.6,537.4z M1302.4,539.7l-2.2,0.3
        c-0.4,0-0.7-0.1-0.8-0.5l-1.1-2.9h-6.7l-1,2.6c-0.1,0.4-0.4,0.6-0.8,0.6h-2.3c-0.5,0-0.7-0.3-0.5-0.8l5.4-14.5
        c0.1-0.4,0.4-0.6,0.8-0.6h3c0.4,0,0.7,0.1,0.9,0.5l5.7,14.5C1303.1,539.2,1302.9,539.5,1302.4,539.7L1302.4,539.7z M1297.3,533.7
        l-2.4-6.5l-2.3,6.5H1297.3z M1317.1,524.2v2.3c0,0.3-0.1,0.4-0.4,0.4h-5.4v12.4c0,0.3-0.1,0.4-0.4,0.4h-2.9
        c-0.3,0-0.4-0.1-0.4-0.4v-12.4h-5.2c-0.4,0-0.6-0.2-0.6-0.7l0.2-2.1c0-0.2,0.2-0.4,0.4-0.4h14.3
        C1317,523.7,1317.1,524,1317.1,524.2z"/>
      <path fill="#FFFFFF" d="M1333.8,523.9v0.2c0,0.1,0,0.1-0.1,0.1h-7.1v15.3c0,0.1,0,0.1-0.1,0.1h-0.2c-0.1,0-0.1,0-0.1-0.1v-15.3h-7
        c-0.1,0-0.2-0.1-0.2-0.2v-0.1c0-0.1,0.1-0.1,0.2-0.1L1333.8,523.9L1333.8,523.9z M1349.9,523.9v15.7c0,0.1,0,0.1-0.1,0.1h-0.2
        c-0.1,0-0.1,0-0.1-0.1v-7.4h-12.1v7.4c0,0.1,0,0.1-0.1,0.1h-0.2c-0.1,0-0.1,0-0.1-0.1v-15.7c0-0.1,0-0.1,0.1-0.1h0.2
        c0.1,0,0.1,0,0.1,0.1v7.7h12.1v-7.7c0-0.1,0-0.1,0.1-0.1L1349.9,523.9L1349.9,523.9z M1367.4,539.7h-0.3c-0.1,0-0.2,0-0.2-0.1
        l-3.5-6.5c-0.8,0.2-1.7,0.3-2.7,0.3h-4.5v6.3c0,0.1,0,0.1-0.1,0.1h-0.2c-0.1,0-0.1,0-0.1-0.1v-15.6c0-0.1,0.1-0.2,0.2-0.2h5.3
        c3.7,0,6,1.4,6,4.7c0,2.4-1.2,3.8-3.4,4.4l3.6,6.7C1367.6,539.6,1367.5,539.7,1367.4,539.7L1367.4,539.7z M1360.8,532.7
        c3.7,0,6-1.2,6-4.3c0-3-2.1-4.2-5.5-4.2h-5v8.5H1360.8z M1383.1,539.3v0.2c0,0.1-0.1,0.1-0.1,0.1h-10.8c-0.1,0-0.2-0.1-0.2-0.2
        V524c0-0.1,0.1-0.2,0.2-0.2h10.2c0.1,0,0.1,0,0.1,0.1v0.2c0,0.1,0,0.1-0.1,0.1h-9.9v7.1h8.3c0.1,0,0.1,0,0.1,0.1v0.2
        c0,0.1,0,0.1-0.1,0.1h-8.3v7.4h10.7C1383,539.1,1383.1,539.2,1383.1,539.3L1383.1,539.3z M1398.7,539.7c-0.1,0-0.2,0-0.2-0.1
        l-2.1-4.6h-9.7l-2.1,4.6l-0.1,0.1h-0.1c-0.1,0-0.2-0.1-0.1-0.2l7-15.5c0.1-0.1,0.1-0.2,0.3-0.2h0.1c0.1,0,0.2,0,0.3,0.2l7,15.5
        C1398.9,539.5,1398.8,539.7,1398.7,539.7L1398.7,539.7z M1396.1,534.6l-4.6-10.2l-4.6,10.2H1396.1z M1402,539.7
        c-0.1,0-0.2-0.1-0.2-0.2V524c0-0.1,0.1-0.2,0.2-0.2h5.2c5.3,0,8.5,3.2,8.5,8.1c0,5.1-3.1,7.8-9,7.8L1402,539.7L1402,539.7z
         M1406.6,539.2c5.6,0,8.5-2.5,8.5-7.3c0-4.6-2.9-7.6-8-7.6h-4.9v14.9L1406.6,539.2L1406.6,539.2z"/>
    </a>
    <a href="#knockknock_city" data-technologies="rails">
      <path class="background knockknock-bg" d="M1121.3,609.3
        l-100.8-58.2V434.7l100.8-58.2l100.8,58.2v116.4L1121.3,609.3z" />
      <path fill="#FBFDFD" d="M1203.6,472c0-0.9,0.4-1.5,1.1-1.9c0.4-0.2,0.9-0.2,1.1,0.2c0.6,0.8,0.6,1.5,0.2,2.3
        c-0.8,1.7-2.1,4.7-2.4,5.1C1203.2,477.9,1203.4,473.6,1203.6,472L1203.6,472z M1209.3,474.1c0.6-0.8,1.1-1.1,2.1-0.9
        c0.4,0.2,0.9,0.4,0.9,0.9c0,0.9-0.4,1.5-1.1,1.9c-1.7,0.9-4.3,2.6-4.9,2.8C1205.7,478.8,1208.3,475.4,1209.3,474.1z M1211.9,479.5
        c0.8-0.4,1.5-0.4,2.3,0.2c0.4,0.4,0.6,0.8,0.4,1.1c-0.4,0.8-1.1,1.1-1.9,1.1c-1.9,0-5.1,0.4-5.6,0.2S1210.4,480,1211.9,479.5z"/>
      <path fill="#FFFFFF" d="M1049.8,496.3c0,0.2-0.1,0.3-0.3,0.6c-0.2,0.3-0.4,0.5-0.7,0.7c-0.3,0.2-0.7,0.4-1.1,0.6
        c-0.4,0.2-0.8,0.3-1.3,0.3c-0.7,0-1.3-0.2-1.8-0.7c-0.5-0.4-1-1.1-1.4-1.8c-0.4-0.8-0.8-1.7-1.2-2.8s-0.7-2.2-1.1-3.5l-1.1,0.7
        l-0.5,7.3c0,0.2-0.1,0.3-0.1,0.3s-0.2,0.1-0.3,0.1h-1.6c-1.1,0-1.8-0.2-2.3-0.6c-0.4-0.4-0.7-1.1-0.7-1.9v-1.2
        c0,0,0.1-1.2,0.1-1.9c0.1-0.7,0.1-1.5,0.2-2.4c0.1-0.9,0.1-1.8,0.2-2.7c0.1-1.8,0.2-3.2,0.3-4.3s0.1-1.9,0.2-2.5
        c0-0.6,0.1-1.1,0.1-1.4v-0.8c0-0.3,0.2-0.4,0.5-0.4h1.6c0.6,0,1.1,0.1,1.5,0.2c0.4,0.1,0.7,0.3,0.9,0.5c0.2,0.2,0.3,0.5,0.4,0.8
        s0.1,0.7,0.1,1.1s0,1.1-0.1,2.1c0,1-0.1,2.1-0.2,3.3c0.6-0.8,1.4-1.8,2.3-2.9c0.9-1.2,2-2.6,3.3-4.3c0.1-0.1,0.1-0.2,0.2-0.3
        s0.2-0.2,0.3-0.4c0.1-0.1,0.3-0.2,0.4-0.3c0.1-0.1,0.3-0.1,0.4-0.1c0.2,0,0.5,0.1,0.8,0.4l0.9,0.9c0,0,0.5,0.7,0.7,1.1
        c0.2,0.4,0.3,0.7,0.3,1c0,0.5-0.5,1.4-1.5,2.4s-2.4,2.3-4.2,3.7c0.3,0.5,0.7,1.1,1.1,1.8c0.4,0.6,0.8,1.3,1.2,1.9s0.8,1.3,1.2,1.9
        c0.4,0.6,0.7,1.2,1.1,1.6c0.4,0.4,0.6,0.9,0.7,1.2C1049.7,496,1049.8,496.1,1049.8,496.3L1049.8,496.3z M1061.3,495.6
        c0-0.4,0-1,0.1-1.6c0.1-0.7,0.1-1.4,0.2-2.1c0.1-0.7,0.1-1.5,0.2-2.2s0.1-1.3,0.1-1.8s-0.1-0.9-0.4-1.3c-0.2-0.4-0.7-0.6-1.4-0.6
        c-0.7,0-1.2,0.2-1.6,0.5s-0.8,0.9-1.1,1.8c-0.3,0.8-0.5,2-0.7,3.5c-0.2,1.5-0.4,3.4-0.5,5.7c0,0.2-0.1,0.4-0.1,0.5
        c-0.1,0.1-0.2,0.1-0.5,0.1h-1c-0.6,0-1.1-0.1-1.4-0.2c-0.4-0.1-0.7-0.3-0.9-0.5c-0.2-0.2-0.4-0.5-0.5-0.8s-0.1-0.7-0.1-1.1v-1.2
        c0-0.5,0.1-1.2,0.2-2.1c0.1-0.9,0.2-2.1,0.3-3.5s0.2-3.1,0.4-5.2c0-0.4,0.1-0.7,0.1-0.7c0.1-0.1,0.2-0.1,0.5-0.1h1.1
        c0.6,0,1,0.1,1.4,0.2s0.7,0.3,0.9,0.5c0.2,0.2,0.4,0.5,0.5,0.8s0.2,0.6,0.2,0.9c0.6-1,1.3-1.7,2-2.1c0.8-0.4,1.7-0.6,2.8-0.6
        c0.8,0,1.5,0.1,2.1,0.3s1.1,0.5,1.5,0.9s0.7,0.9,0.9,1.6c0.2,0.7,0.3,1.5,0.3,2.4c0,0.3,0,0.7-0.1,1.3c0,0.6-0.1,1.2-0.1,1.9
        s-0.1,1.4-0.2,2.1c-0.1,0.7-0.1,1.4-0.2,2c-0.1,0.6-0.1,1.2-0.1,1.6c0,0.5-0.1,0.8-0.1,0.9c0,0.4,0,0.7-0.1,0.7s-0.3,0.1-0.6,0.1
        h-0.9c-0.6,0-1.1-0.1-1.5-0.2c-0.4-0.1-0.7-0.3-0.9-0.5c-0.2-0.2-0.4-0.5-0.4-0.8C1061.3,496.4,1061.3,496,1061.3,495.6
        L1061.3,495.6z M1075.5,498.4c-1.3,0-2.4-0.2-3.2-0.6c-0.9-0.4-1.5-0.9-2-1.5s-0.9-1.4-1.1-2.2c-0.2-0.9-0.3-1.8-0.3-2.8
        c0-1.1,0.1-2.2,0.4-3.3c0.3-1.1,0.7-2,1.4-2.9c0.7-0.8,1.5-1.5,2.6-2s2.4-0.8,4.1-0.8c2.4,0,4.1,0.6,5.1,1.7s1.5,2.8,1.5,4.9
        c0,0.6,0,1.2-0.1,1.9s-0.2,1.4-0.5,2.1c-0.3,0.7-0.6,1.4-1,2c-0.4,0.7-0.9,1.2-1.5,1.8c-0.6,0.5-1.4,0.9-2.2,1.2
        C1077.7,498.2,1076.7,498.4,1075.5,498.4L1075.5,498.4z M1076.8,486c-0.7,0-1.3,0.2-1.7,0.6c-0.4,0.4-0.7,0.8-1,1.3
        c-0.2,0.5-0.4,1.1-0.4,1.6s-0.1,1.1-0.1,1.5c0,1.2,0.2,2.2,0.6,2.7c0.4,0.6,1,0.9,1.7,0.9c0.7,0,1.2-0.2,1.6-0.6
        c0.4-0.4,0.8-0.9,1-1.5c0.2-0.6,0.4-1.2,0.5-1.8s0.1-1.2,0.1-1.6c0-0.9-0.2-1.7-0.5-2.2C1078.2,486.3,1077.6,486,1076.8,486
        L1076.8,486z M1093.2,494.6c0.5,0,1-0.1,1.4-0.2c0.4-0.2,0.8-0.3,1.1-0.5c0.3-0.2,0.6-0.4,0.8-0.5c0.2-0.2,0.4-0.2,0.6-0.2
        c0.4,0,0.7,0.3,0.7,0.8c0,0.1,0,0.3-0.1,0.6s-0.1,0.5-0.2,0.7c-0.1,0.3-0.2,0.5-0.3,0.7s-0.2,0.4-0.3,0.5s-0.3,0.2-0.5,0.5
        c-0.2,0.2-0.6,0.4-0.9,0.6c-0.4,0.2-0.9,0.4-1.4,0.6c-0.5,0.2-1.1,0.2-1.8,0.2c-0.7,0-1.5-0.1-2.2-0.3c-0.8-0.2-1.5-0.6-2.1-1.1
        s-1.1-1.3-1.5-2.2s-0.6-2.1-0.6-3.4c0-0.5,0-1.1,0.1-1.7c0.1-0.6,0.2-1.3,0.4-2c0.2-0.7,0.5-1.3,0.8-2c0.3-0.6,0.8-1.2,1.4-1.7
        c0.6-0.5,1.3-0.9,2.1-1.2c0.8-0.3,1.8-0.5,2.9-0.5c0.9,0,1.7,0.1,2.4,0.3c0.7,0.2,1.2,0.5,1.7,0.9c0.4,0.4,0.8,0.8,1,1.3
        c0.2,0.5,0.3,1,0.3,1.6c0,1-0.3,1.8-1,2.2c-0.7,0.4-1.5,0.7-2.7,0.7c-0.3,0-0.5,0-0.6-0.1c-0.1,0-0.2-0.2-0.2-0.3v-1.2
        c0-0.4-0.1-0.7-0.2-0.9c-0.1-0.2-0.2-0.4-0.4-0.6c-0.2-0.1-0.4-0.2-0.7-0.2c-0.6,0-1.1,0.2-1.4,0.6c-0.3,0.4-0.6,0.8-0.8,1.4
        c-0.2,0.5-0.3,1.1-0.3,1.7c0,0.6-0.1,1-0.1,1.4c0,1.3,0.2,2.3,0.6,2.8C1091.6,494.3,1092.2,494.5,1093.2,494.6z M1113.8,495.8
        c0,0.1,0,0.3-0.1,0.6s-0.2,0.6-0.5,0.9c-0.2,0.3-0.5,0.6-0.8,0.8c-0.3,0.2-0.7,0.3-1.1,0.3c-0.5,0-1-0.2-1.5-0.5s-1-0.8-1.5-1.4
        s-1-1.3-1.5-2.1s-1-1.7-1.5-2.6c-0.1,1-0.2,2-0.2,2.9s-0.2,1.9-0.2,2.8c0,0.2-0.1,0.4-0.1,0.5c-0.1,0.1-0.2,0.1-0.5,0.1h-1
        c-0.6,0-1.1-0.1-1.4-0.2c-0.4-0.1-0.7-0.3-0.9-0.5c-0.2-0.2-0.4-0.5-0.4-0.9c-0.1-0.3-0.1-0.7-0.1-1.2v-0.7c0-0.2,0-0.6,0.1-1
        s0.1-1,0.2-1.8c0.1-0.8,0.1-1.7,0.2-2.9c0.1-1.2,0.2-2.7,0.3-4.5s0.3-3.9,0.4-6.4c0-0.4,0.1-0.7,0.1-0.7c0.1-0.1,0.2-0.1,0.5-0.1
        h1.1c0.6,0,1.1,0.1,1.4,0.2c0.4,0.1,0.7,0.3,0.9,0.5c0.2,0.2,0.4,0.5,0.5,0.8s0.1,0.6,0.1,0.9v0.9c0,0.4-0.1,1-0.1,1.6
        s-0.1,1.3-0.2,2.1c-0.1,0.8-0.1,1.6-0.2,2.5l4.5-4.1c0.2-0.2,0.3-0.3,0.5-0.3c0.1-0.1,0.3-0.1,0.3-0.1c0.2,0,0.4,0.1,0.7,0.4
        c0.2,0.3,0.5,0.6,0.7,0.9c0.2,0.3,0.4,0.7,0.5,1.1c0.1,0.4,0.2,0.7,0.2,0.9c0,0.5-0.4,1.1-1.3,1.7c-0.9,0.6-2.2,1.3-4,2
        c0.8,0.9,1.5,1.7,2.3,2.4c0.7,0.7,1.3,1.4,1.9,2c0.6,0.6,1,1,1.3,1.4C1113.7,495.5,1113.8,495.7,1113.8,495.8L1113.8,495.8z
         M1137.5,496.3c0,0.2-0.1,0.3-0.3,0.6c-0.2,0.2-0.4,0.5-0.7,0.7c-0.3,0.2-0.7,0.4-1.1,0.6c-0.4,0.2-0.8,0.3-1.3,0.3
        c-0.7,0-1.3-0.2-1.8-0.7s-1-1.1-1.4-1.8s-0.8-1.7-1.2-2.8s-0.7-2.2-1.1-3.5l-1.1,0.7l-0.5,7.3c0,0.2-0.1,0.3-0.1,0.3
        s-0.2,0.1-0.3,0.1h-1.6c-1.1,0-1.8-0.2-2.3-0.6c-0.4-0.4-0.7-1.1-0.7-1.9v-1.2c0,0,0.1-1.2,0.1-1.9c0.1-0.7,0.1-1.5,0.2-2.4
        s0.1-1.8,0.2-2.7c0.1-1.8,0.2-3.2,0.3-4.3s0.1-1.9,0.2-2.5c0-0.6,0.1-1.1,0.1-1.4v-0.8c0-0.3,0.2-0.4,0.5-0.4h1.6
        c0.6,0,1.1,0.1,1.5,0.2c0.4,0.1,0.7,0.3,0.9,0.5c0.2,0.2,0.3,0.5,0.4,0.8c0.1,0.3,0.1,0.7,0.1,1.1s0,1.1-0.1,2.1
        c0,1-0.1,2.1-0.2,3.3c0.6-0.8,1.4-1.8,2.3-2.9c0.9-1.2,2-2.6,3.3-4.3c0.1-0.1,0.1-0.2,0.2-0.3c0.1-0.1,0.2-0.2,0.3-0.4
        c0.1-0.1,0.3-0.2,0.4-0.3c0.1-0.1,0.3-0.1,0.4-0.1c0.2,0,0.5,0.1,0.8,0.4l0.9,0.9c0.3,0.4,0.5,0.7,0.7,1.1c0.2,0.4,0.3,0.7,0.3,1
        c0,0.5-0.5,1.4-1.5,2.4c-1,1.1-2.4,2.3-4.2,3.7c0.3,0.5,0.7,1.1,1.1,1.8c0.4,0.6,0.8,1.3,1.2,1.9c0.4,0.7,0.8,1.3,1.2,1.9
        c0.4,0.6,0.7,1.2,1.1,1.6c0.3,0.5,0.6,0.9,0.7,1.2C1137.4,496,1137.5,496.1,1137.5,496.3L1137.5,496.3z M1149,495.6
        c0-0.4,0-1,0.1-1.6c0.1-0.7,0.1-1.4,0.2-2.1c0.1-0.7,0.1-1.5,0.2-2.2c0.1-0.7,0.1-1.3,0.1-1.8s-0.1-0.9-0.4-1.3s-0.7-0.6-1.4-0.6
        c-0.7,0-1.2,0.2-1.6,0.5c-0.4,0.3-0.8,0.9-1.1,1.8c-0.3,0.8-0.5,2-0.7,3.5c-0.2,1.5-0.4,3.4-0.5,5.7c0,0.2-0.1,0.4-0.1,0.5
        c-0.1,0.1-0.2,0.1-0.5,0.1h-1c-0.6,0-1.1-0.1-1.4-0.2c-0.4-0.1-0.7-0.3-0.9-0.5c-0.2-0.2-0.4-0.5-0.5-0.8s-0.1-0.7-0.1-1.1v-1.2
        c0-0.5,0.1-1.2,0.2-2.1c0.1-0.9,0.2-2.1,0.3-3.5s0.2-3.1,0.4-5.2c0-0.4,0.1-0.7,0.1-0.7c0.1-0.1,0.2-0.1,0.5-0.1h1.1
        c0.6,0,1,0.1,1.4,0.2c0.4,0.1,0.7,0.3,0.9,0.5c0.2,0.2,0.4,0.5,0.5,0.8s0.2,0.6,0.2,0.9c0.6-1,1.3-1.7,2-2.1
        c0.8-0.4,1.7-0.6,2.8-0.6c0.8,0,1.5,0.1,2.1,0.3s1.1,0.5,1.5,0.9s0.7,0.9,0.9,1.6c0.2,0.7,0.3,1.5,0.3,2.4c0,0.3,0,0.7-0.1,1.3
        c0,0.6-0.1,1.2-0.1,1.9s-0.1,1.4-0.2,2.1c-0.1,0.7-0.1,1.4-0.2,2c-0.1,0.6-0.1,1.2-0.1,1.6c0,0.5-0.1,0.8-0.1,0.9
        c0,0.4,0,0.7-0.1,0.7c-0.1,0.1-0.3,0.1-0.6,0.1h-0.9c-0.6,0-1.1-0.1-1.5-0.2c-0.4-0.1-0.7-0.3-0.9-0.5c-0.2-0.2-0.4-0.5-0.4-0.8
        C1149,496.4,1149,496,1149,495.6L1149,495.6z M1163.2,498.4c-1.3,0-2.4-0.2-3.2-0.6c-0.8-0.4-1.5-0.9-2-1.5s-0.9-1.4-1.1-2.2
        s-0.3-1.8-0.3-2.8c0-1.1,0.1-2.2,0.4-3.3s0.7-2,1.4-2.9c0.7-0.8,1.5-1.5,2.6-2s2.4-0.8,4.1-0.8c2.4,0,4.1,0.6,5.1,1.7
        s1.5,2.8,1.5,4.9c0,0.6,0,1.2-0.1,1.9s-0.2,1.4-0.5,2.1c-0.2,0.7-0.6,1.4-1,2c-0.4,0.7-0.9,1.2-1.5,1.8c-0.6,0.5-1.4,0.9-2.2,1.2
        C1165.4,498.2,1164.4,498.4,1163.2,498.4L1163.2,498.4z M1164.5,486c-0.7,0-1.3,0.2-1.7,0.6c-0.4,0.4-0.7,0.8-1,1.3
        c-0.2,0.5-0.4,1.1-0.4,1.6c-0.1,0.6-0.1,1.1-0.1,1.5c0,1.2,0.2,2.2,0.6,2.7c0.4,0.6,1,0.9,1.7,0.9c0.7,0,1.2-0.2,1.6-0.6
        c0.4-0.4,0.8-0.9,1-1.5c0.2-0.6,0.4-1.2,0.5-1.8s0.1-1.2,0.1-1.6c0-0.9-0.2-1.7-0.5-2.2C1166,486.4,1165.3,486,1164.5,486
        L1164.5,486z M1180.9,494.6c0.5,0,1-0.1,1.4-0.2c0.4-0.2,0.8-0.3,1.1-0.5c0.3-0.2,0.6-0.4,0.8-0.5c0.2-0.2,0.4-0.2,0.6-0.2
        c0.4,0,0.7,0.3,0.7,0.8c0,0.1,0,0.3-0.1,0.6s-0.1,0.5-0.2,0.7c-0.1,0.3-0.2,0.5-0.3,0.7s-0.2,0.4-0.3,0.5s-0.3,0.2-0.5,0.5
        c-0.2,0.2-0.6,0.4-0.9,0.6c-0.4,0.2-0.9,0.4-1.4,0.6c-0.5,0.2-1.1,0.2-1.8,0.2c-0.7,0-1.5-0.1-2.2-0.3c-0.8-0.2-1.5-0.6-2.1-1.1
        s-1.1-1.3-1.5-2.2s-0.6-2.1-0.6-3.4c0-0.5,0-1.1,0.1-1.7c0.1-0.6,0.2-1.3,0.4-2c0.2-0.7,0.5-1.3,0.8-2c0.3-0.6,0.8-1.2,1.4-1.7
        c0.6-0.5,1.3-0.9,2.1-1.2c0.8-0.3,1.8-0.5,2.9-0.5c0.9,0,1.7,0.1,2.4,0.3c0.7,0.2,1.2,0.5,1.7,0.9c0.4,0.4,0.8,0.8,1,1.3
        c0.2,0.5,0.3,1,0.3,1.6c0,1-0.3,1.8-1,2.2c-0.7,0.4-1.5,0.7-2.7,0.7c-0.3,0-0.5,0-0.6-0.1c-0.1,0-0.2-0.2-0.2-0.3v-1.2
        c0-0.4-0.1-0.7-0.2-0.9c-0.1-0.2-0.2-0.4-0.4-0.6c-0.2-0.1-0.4-0.2-0.7-0.2c-0.6,0-1.1,0.2-1.4,0.6c-0.3,0.4-0.6,0.8-0.8,1.4
        c-0.2,0.5-0.3,1.1-0.3,1.7c0,0.6-0.1,1-0.1,1.4c0,1.3,0.2,2.3,0.6,2.8C1179.3,494.3,1179.9,494.5,1180.9,494.6z M1201.5,495.8
        c0,0.1,0,0.3-0.1,0.6s-0.2,0.6-0.5,0.9c-0.2,0.3-0.5,0.6-0.8,0.8c-0.3,0.2-0.7,0.3-1.1,0.3c-0.5,0-1-0.2-1.5-0.5s-1-0.8-1.5-1.4
        c-0.5-0.6-1-1.3-1.5-2.1s-1-1.7-1.5-2.6c-0.1,1-0.2,2-0.2,2.9s-0.2,1.9-0.2,2.8c0,0.2-0.1,0.4-0.1,0.5c-0.1,0.1-0.2,0.1-0.5,0.1
        h-1c-0.6,0-1.1-0.1-1.4-0.2c-0.4-0.1-0.7-0.3-0.9-0.5c-0.2-0.2-0.4-0.5-0.4-0.9c-0.1-0.3-0.1-0.7-0.1-1.2v-0.7c0-0.2,0-0.6,0.1-1
        c0-0.5,0.1-1,0.2-1.8c0.1-0.7,0.1-1.7,0.2-2.9c0.1-1.2,0.2-2.7,0.3-4.5s0.3-3.9,0.4-6.4c0-0.4,0.1-0.7,0.1-0.7
        c0.1-0.1,0.2-0.1,0.5-0.1h1.1c0.6,0,1.1,0.1,1.4,0.2s0.7,0.3,0.9,0.5c0.2,0.2,0.4,0.5,0.5,0.8s0.1,0.6,0.1,0.9v0.9
        c0,0.4-0.1,1-0.1,1.6s-0.1,1.3-0.2,2.1c-0.1,0.8-0.1,1.6-0.2,2.5l4.5-4.1c0.2-0.2,0.3-0.3,0.5-0.3c0.2,0,0.2-0.1,0.3-0.1
        c0.2,0,0.4,0.1,0.7,0.4c0.2,0.3,0.5,0.6,0.7,0.9c0.2,0.3,0.4,0.7,0.5,1.1c0.1,0.4,0.2,0.7,0.2,0.9c0,0.5-0.4,1.1-1.3,1.7
        c-0.9,0.6-2.2,1.3-4,2c0.8,0.9,1.5,1.7,2.3,2.4c0.7,0.7,1.3,1.4,1.9,2c0.6,0.6,1,1,1.3,1.4
        C1201.4,495.5,1201.5,495.7,1201.5,495.8L1201.5,495.8z"/>
    </a>
    <a href="#freestak" data-technologies="rails">
      <path class="background freestak-bg" d="M908.9,609.3
        l-100.8-58.2V434.7l100.8-58.2l100.8,58.2v116.4L908.9,609.3L908.9,609.3z"/>
      <path fill="#FFFFFF" d="M894.2,481h-10v4.9h9.8v3.4h-9.8v9.4h-4v-21.1h13.9L894.2,481L894.2,481z M907.4,485l-2.1,3.2
        c-0.8-0.8-1.7-1.5-2.6-1.5c-0.9,0-2.4,0.8-2.4,3.4v8.7h-3.8v-15.3h3.8v1.7c0.9-1.3,2.1-2.1,3.4-2.1
        C905,482.9,906.3,483.9,907.4,485L907.4,485z M924.4,491c0,0.6,0,0.9-0.2,1.5H912c0.6,1.9,2.1,3.2,4.3,3.2c1.3,0,2.8-0.6,3.8-1.3
        l2.4,2.4c-2.1,1.5-4.1,2.1-6.2,2.1c-4.5,0-8.1-3.6-8.1-8.1s3.6-8.1,8.1-8.1C920.6,482.9,924.4,486.3,924.4,491L924.4,491z
         M920.4,489.5c-0.6-1.9-2.3-3.2-4.1-3.2s-3.6,1.3-4.1,3.2H920.4L920.4,489.5z M942.5,491c0,0.6,0,0.9-0.2,1.5h-12.2
        c0.6,1.9,2.1,3.2,4.3,3.2c1.3,0,2.8-0.6,3.8-1.3l2.4,2.4c-2.1,1.5-4.1,2.1-6.2,2.1c-4.5,0-8.1-3.6-8.1-8.1s3.6-8.1,8.1-8.1
        C938.7,482.9,942.5,486.3,942.5,491L942.5,491z M938.5,489.5c-0.6-1.9-2.3-3.2-4.1-3.2s-3.6,1.3-4.1,3.2H938.5L938.5,489.5z
         M956,494.4c0,3-3.2,4.7-5.8,4.7c-2.3,0-4.3-0.8-5.8-2.6l2.3-2.3c0.9,1.1,2.1,1.9,3.6,1.9c1.1,0,2.1-0.4,2.1-1.3s-1.1-1.5-3.2-2.1
        c-2.4-0.8-4.7-2.1-4.7-4.7c0-3,3-4.7,5.8-4.7c2.3,0,4.1,0.9,5.6,2.6l-2.1,2.1c-0.9-1.1-2.1-1.7-3.4-1.7c-0.9,0-2.3,0.6-2.3,1.5
        c0,0.8,1.1,1.3,3.2,1.9C953.9,490.3,956,492,956,494.4L956,494.4z M966.9,498.4c-0.8,0.6-1.9,0.8-2.8,0.8c-3.6,0-4.7-1.7-4.7-5.6
        V487h-2.1v-1.5c2.4-1.3,4.3-3.4,4.7-6.4h1.1v4.3h3.8v3.4h-3.8v7c0,1.5,0.8,1.9,1.7,1.9c0.6,0,1.5-0.2,2.1-0.8V498.4L966.9,498.4z
         M981.6,498.7h-3.8v-0.8c-1.3,0.9-2.8,1.1-4.5,1.1c-3,0-4.9-1.9-4.9-4.7c0-3.4,3.2-5.1,7.2-5.1h2.3c0-1.9-1.1-3-3.4-3
        c-1.1,0-2.3,0.4-3.4,1.3l-2.3-2.3c1.7-1.5,3.8-2.4,6-2.4c2.1,0,3.8,0.8,4.9,1.9c1.3,1.3,1.9,2.8,1.9,5.5V498.7z M977.7,494.7v-2.8
        H976c-2.1,0-3.8,0.6-3.8,2.1c0,1.1,0.9,1.9,2.3,1.9C975.4,495.9,976.5,495.5,977.7,494.7z M998.9,498.7h-4.5l-6.2-6.8v6.8h-4v-22
        h4v13l5.3-6.4h4.5l-6.2,7.5L998.9,498.7L998.9,498.7z M834.6,499.1v-22.8l12.8-7.7l-5.1-3l-19.2,11.5v22.8l19.6,11.1l19.2-11.3
        l-13,7.5L834.6,499.1z"/>
      <path fill="#FFFFFF" d="M853.6,464.8l-6.2,3.8l14.5,8.7v22.4l-13,7.5l-14.3-8.1l19.4,11.1l19.2-11.3v-22.2L853.6,464.8
        L853.6,464.8z"/>
    </a>
    <a href="#zigloop" data-technologies="rails ios android">
      <path class='background zigloop-bg' d="M696.7,609.3
        l-100.8-58.2V434.7l100.8-58.2l100.8,58.2v116.4L696.7,609.3L696.7,609.3z"/>
      <g>
        <circle class="st0" cx="722.9" cy="517.7" r="16.3"/>

        <line class="st13" stroke="#FFFFFF" stroke-width="33.5513" stroke-linecap="round" stroke-linejoin="round" stroke-miterlimit="10" x1="717.9" y1="465.2" x2="673.9" y2="516.1"/>

        <line class="st13" stroke="#FFFFFF" stroke-width="31.2767" stroke-linecap="round" stroke-linejoin="round" stroke-miterlimit="10" x1="672.8" y1="463.9" x2="718.9" y2="463.9"/>
      </g>
    </a>
    <a href="#total_adventure_zazmic" data-technologies="rails">
      <path class="background total-adventure-bg" d="M1439.7,425.4
        l-100.8-58.3V250.7l100.8-58.2l100.8,58.2v116.4L1439.7,425.4z"/>
      <path class="st0" fill="#FFFFFF" d="M1380.6,308.2c0-0.2,0.1-0.3,0.3-0.3h3.4c0.2,0,0.3,0.1,0.3,0.3v0.3c0,0.2-0.1,0.3-0.3,0.3h-1
        c-0.3,0-0.3,0-0.3,0.3v7.8c0,0.2-0.1,0.3-0.3,0.3h-0.4c-0.2,0-0.3-0.1-0.3-0.3v-7.8c0-0.3,0-0.3-0.2-0.3h-1
        c-0.2,0-0.3-0.1-0.3-0.3v-0.3H1380.6L1380.6,308.2z M1392.7,314.9c0,1.5-0.8,2.2-2,2.2s-2-0.7-2-2.2v-4.8c0-1.5,0.8-2.2,2-2.2
        s2,0.7,2,2.2V314.9z M1391.9,310.3c0-1.2-0.3-1.6-1.1-1.6s-1.1,0.5-1.1,1.6v4.4c0,1.2,0.3,1.6,1.1,1.6s1.1-0.5,1.1-1.6V310.3z
         M1397.1,308.2c0-0.2,0.1-0.3,0.3-0.3h3.4c0.2,0,0.3,0.1,0.3,0.3v0.3c0,0.2-0.1,0.3-0.3,0.3h-1c-0.3,0-0.3,0-0.3,0.3v7.8
        c0,0.2-0.1,0.3-0.3,0.3h-0.4c-0.2,0-0.3-0.1-0.3-0.3v-7.8c0-0.3,0-0.3-0.2-0.3h-1c-0.2,0-0.3-0.1-0.3-0.3v-0.3H1397.1
        L1397.1,308.2z M1408.5,317.1c-0.2,0-0.3,0-0.3-0.2l-0.2-0.9c-0.1-0.3-0.1-0.3-0.3-0.3h-1.6c-0.3,0-0.2,0-0.3,0.3l-0.2,0.9
        c0,0.2-0.1,0.2-0.3,0.2h-0.4c-0.1,0-0.2,0-0.2-0.2l1.6-8.7c0-0.2,0.1-0.2,0.3-0.2h0.5c0.2,0,0.2,0,0.3,0.2l1.6,8.7
        c0,0.2-0.1,0.2-0.2,0.2H1408.5z M1406.1,314.6c0,0.3,0,0.3,0.2,0.3h1.3c0.3,0,0.3,0,0.2-0.3l-0.8-4.7c0-0.1-0.1-0.1-0.1,0
        L1406.1,314.6L1406.1,314.6z M1414.1,317.1c-0.2,0-0.3-0.1-0.3-0.3v-8.7c0-0.2,0.1-0.3,0.3-0.3h0.4c0.2,0,0.3,0.1,0.3,0.3v7.8
        c0,0.3,0,0.3,0.3,0.3h1.9c0.2,0,0.3,0.1,0.3,0.3v0.3c0,0.2-0.1,0.3-0.3,0.3L1414.1,317.1L1414.1,317.1z M1431.4,317.1
        c-0.2,0-0.3,0-0.3-0.2l-0.2-0.9c-0.1-0.3-0.1-0.3-0.3-0.3h-1.6c-0.3,0-0.2,0-0.3,0.3l-0.2,0.9c0,0.2-0.1,0.2-0.3,0.2h-0.4
        c-0.1,0-0.2,0-0.2-0.2l1.6-8.7c0-0.2,0.1-0.2,0.3-0.2h0.5c0.2,0,0.2,0,0.3,0.2l1.6,8.7c0,0.2-0.1,0.2-0.2,0.2H1431.4z M1429,314.6
        c0,0.3,0,0.3,0.2,0.3h1.3c0.3,0,0.3,0,0.2-0.3l-0.8-4.7c0-0.1-0.1-0.1-0.1,0L1429,314.6L1429,314.6z M1440.7,314.9
        c0,1.5-0.8,2.2-2,2.2h-1.9c-0.2,0-0.3-0.1-0.3-0.3v-8.7c0-0.2,0.1-0.3,0.3-0.3h1.9c1.2,0,2,0.7,2,2.2V314.9L1440.7,314.9z
         M1437.5,316c0,0.3,0,0.3,0.3,0.3h1c0.7,0,1.1-0.5,1.1-1.6v-4.3c0-1.2-0.3-1.6-1.1-1.6h-1c-0.3,0-0.3,0-0.3,0.3V316L1437.5,316z
         M1449.2,307.9c0.1,0,0.2,0,0.2,0.2l-1.7,8.7c0,0.2-0.1,0.2-0.3,0.2h-0.4c-0.2,0-0.2,0-0.3-0.2l-1.7-8.7c0-0.2,0.1-0.2,0.2-0.2
        h0.4c0.2,0,0.3,0,0.3,0.2l1.2,6.9c0,0.1,0.1,0.1,0.1,0l1.2-6.9c0-0.2,0.1-0.2,0.3-0.2H1449.2L1449.2,307.9z M1454.3,317.1
        c-0.2,0-0.3-0.1-0.3-0.3v-8.7c0-0.2,0.1-0.3,0.3-0.3h2.6c0.2,0,0.3,0.1,0.3,0.3v0.3c0,0.2-0.1,0.3-0.3,0.3h-1.7
        c-0.3,0-0.3,0-0.3,0.3v2.6c0,0.3,0,0.3,0.3,0.3h1.7c0.2,0,0.3,0.1,0.3,0.3v0.3c0,0.2-0.1,0.3-0.3,0.3h-1.7c-0.3,0-0.3,0-0.3,0.3
        v3.1c0,0.3,0,0.3,0.3,0.3h1.7c0.2,0,0.3,0.1,0.3,0.3v0.3c0,0.2-0.1,0.3-0.3,0.3h-2.6V317.1L1454.3,317.1z M1465.3,317.1
        c-0.1,0-0.2-0.1-0.3-0.2l-2.1-5.8c0-0.1-0.1-0.1-0.1,0v5.7c0,0.2-0.1,0.3-0.3,0.3h-0.4c-0.2,0-0.3-0.1-0.3-0.3v-8.7
        c0-0.2,0.1-0.3,0.3-0.3h0.3c0.1,0,0.2,0.1,0.3,0.2l2.1,5.8c0,0.1,0.1,0.1,0.1,0V308c0-0.2,0.1-0.3,0.3-0.3h0.4
        c0.2,0,0.3,0.1,0.3,0.3v8.7c0,0.2-0.1,0.3-0.3,0.3L1465.3,317.1z M1470.3,308.2c0-0.2,0.1-0.3,0.3-0.3h3.4c0.2,0,0.3,0.1,0.3,0.3
        v0.3c0,0.2-0.1,0.3-0.3,0.3h-1c-0.3,0-0.3,0-0.3,0.3v7.8c0,0.2-0.1,0.3-0.3,0.3h-0.4c-0.2,0-0.3-0.1-0.3-0.3v-7.8
        c0-0.3,0-0.3-0.2-0.3h-1c-0.2,0-0.3-0.1-0.3-0.3v-0.3H1470.3L1470.3,308.2z M1482.5,314.9c0,1.5-0.8,2.2-2,2.2s-2-0.7-2-2.2v-6.7
        c0-0.2,0.1-0.3,0.3-0.3h0.4c0.2,0,0.3,0.1,0.3,0.3v6.5c0,1.2,0.3,1.6,1.1,1.6c0.7,0,1.1-0.5,1.1-1.6v-6.5c0-0.2,0.1-0.3,0.3-0.3
        h0.4c0.2,0,0.3,0.1,0.3,0.3v6.7H1482.5L1482.5,314.9z M1487.7,317.1c-0.2,0-0.3-0.1-0.3-0.3v-8.7c0-0.2,0.1-0.3,0.3-0.3h1.5
        c1.2,0,2,0.7,2,2.2v0.7c0,0.9-0.3,1.6-0.8,1.9l0.8,4.1c0,0.2-0.1,0.2-0.2,0.2h-0.4c-0.2,0-0.3,0-0.3-0.2l-0.7-3.6
        c0-0.2-0.1-0.2-0.2-0.2h-0.7c-0.3,0-0.3,0-0.3,0.3v3.5c0,0.2-0.1,0.3-0.3,0.3L1487.7,317.1z M1488.3,312c0,0.3,0,0.3,0.3,0.3h0.6
        c0.7,0,1.1-0.5,1.1-1.6v-0.3c0-1.2-0.3-1.6-1.1-1.6h-0.6c-0.3,0-0.3,0-0.3,0.3V312L1488.3,312z M1496.2,317.1
        c-0.2,0-0.3-0.1-0.3-0.3v-8.7c0-0.2,0.1-0.3,0.3-0.3h2.6c0.2,0,0.3,0.1,0.3,0.3v0.3c0,0.2-0.1,0.3-0.3,0.3h-1.7
        c-0.3,0-0.3,0-0.3,0.3v2.6c0,0.3,0,0.3,0.3,0.3h1.7c0.2,0,0.3,0.1,0.3,0.3v0.3c0,0.2-0.1,0.3-0.3,0.3h-1.7c-0.3,0-0.3,0-0.3,0.3
        v3.1c0,0.3,0,0.3,0.3,0.3h1.7c0.2,0,0.3,0.1,0.3,0.3v0.3c0,0.2-0.1,0.3-0.3,0.3h-2.6V317.1L1496.2,317.1z M1417.9,275.2
        l-16.6,28.3h31.8L1417.9,275.2L1417.9,275.2z M1463.5,275.4l-16.8,28.3h32L1463.5,275.4z"/>
      <path class="st14" fill="none" stroke="#FFFFFF" stroke-width="2.8385" stroke-miterlimit="10" d="M1485.5,303.7c-1.7-23.5-21.3-40.9-45.2-40.9
        s-43.5,17.3-45.2,40.9H1485.5L1485.5,303.7z M1396.8,321.9c5.5,18.8,22.8,31.4,43.5,31.4c20.5,0,37.8-12.8,43.5-31.4H1396.8z"/>
      <path class="st15" fill="none" stroke="#FFFFFF" stroke-width="2.8385" stroke-linecap="round" stroke-miterlimit="10" d="M1379.9,303.7h120.3
         M1379.3,321.9h120.3"/>
      <path class="st0" fill="#FFFFFF" d="M1460.1,304.8l-19.4-30.5l-19.6,30.5H1460.1z M1451,294.4l-5.3,4.1l-7.9-4l-6.6,5.8l-3.6-2.4l13-20
        L1451,294.4L1451,294.4z M1470.4,320.8h-59.7l-7.7,11.9c-0.4,0.4-0.2,1.1,0.2,1.5l1.1,1.5c0.2,0.4,0.6,0.4,0.9,0.4l69.9-0.6
        c0.4,0,0.4,0,0.8-0.4l1.9-1.7c0.4-0.4,0.4-0.9,0-1.3L1470.4,320.8L1470.4,320.8z"/>
    </a>
    <a href="#classly" data-client="classly" data-technologies="rails angular">
      <path class="background classly-bg" d="M1227.5,425.4l-100.8-58.3V250.7l100.8-58.2l100.8,58.2v116.4L1227.5,425.4z"/>
      <path fill="#FFFFFF" d="M1233.4,319.1c0,0.8-0.2,0.8-1.5,0.4C1232.2,319.3,1233,319.7,1233.4,319.1z"/>
      <path fill="#FFFFFF" d="M1237.5,309.7c1.3-0.6,2.3-1.5,3.2-2.8c2.6-4.1,1.1-8.1-3.6-9c-2.1-0.4-4.3-0.4-6.4,0.4
        c-4.3,1.5-6.6,5.5-5.5,9.8c0.6,2.4,2.3,4,4,5.6c1.7,1.7,3.4,3.2,4.3,5.5c-0.4,0.6-0.4,0.6-1.5,0.4c-3.8-0.4-5.6-2.6-6.6-6
        c-0.2-0.9-0.6-2.3-1.9-2.4c-1.3-0.2-2.1,0.8-2.6,1.7c-0.2,0.4-0.4,0.6-0.6,0.9c-0.6,1.7-1.9,2.6-3.2,3.6c-1.5,1.1-2.1,0.9-2.4-1.1
        v-0.8c-0.6-4.1-0.9-8.5,1.7-12.2c0.6-0.9,0.4-1.9-0.2-2.6c-0.9-1.1-1.9-2.3-3.4-2.8c-0.9-0.4-1.9-0.4-2.6,0.6
        c-0.4,0.8-0.9,0.6-1.5,0.4c-1.9-0.6-3.8-0.8-5.8-0.4c-6.4,1.3-11.5,6.8-12.8,13.4c-0.2,0.9,0,1.9-0.6,2.6
        c-1.3,1.5-2.8,2.8-4.7,3.6c-2.8,0.9-4.9,0.4-6.2-1.5c-1.3-1.9-1.3-5.8,0-7.3c3.2-3.8,6.6-7.3,9.8-11.1c2.1-2.3,3.8-4.9,4.3-7.9
        c0.6-3.2-0.9-5.8-4-6.2c-0.9-0.2-1.9-0.2-2.8,0c-4.7,0.9-7.9,4-10.4,7.9c-3.6,5.8-5.5,12.4-5.8,19.4c0,0.9-0.2,1.7-0.9,2.4
        c-2.8,3-6.2,4.9-10.4,5.3c-4.5,0.6-7.9-1.7-8.8-6c-1.1-6,0.2-11.7,3-16.9c0.4-0.6,0.6-0.8,1.1-0.4c1.9,0.8,3.8,1.1,5.8,1.3
        c3,0.4,6,0.2,8.7-1.5c2.4-1.5,3.6-4,2.8-7c-0.6-2.6-2.3-4.1-4.9-4.9c-1.1-0.4-3.8-0.4-3.8-0.4c-4.1-0.2-7.7,1.1-11.1,3.6
        c-0.8,0.6-1.1,0.4-1.9-0.2c-0.8-0.8-1.5-1.7-2.4-2.3c-0.6-0.4-1.3-0.6-2.1-0.2c-0.8,0.4-0.8,1.1-0.6,1.9c0.2,1.7,0.9,3,1.7,4.3
        c0.4,0.6,0.6,1.1,0,1.9c-3,4.1-5.3,9.2-5.6,14.9v2.6c0,1.3,0.4,4.7,0.6,5.1c1.1,4.7,4.1,7.7,8.7,9c7.9,2.3,15.1,1.3,20.9-5.1
        c0.8,0.9,1.3,1.9,2.1,2.8c3.6,3.4,11.5,5.1,16.9-0.6c0.6-0.6,0.9-0.9,1.5,0.2c1.5,2.4,4,3.6,6.8,3.8c4.3,0.2,7.9-1.3,10.4-5.1
        c0.2,0.6,0.4,1.1,0.4,1.5c0.9,3,2.4,4,5.6,3.2c1.9-0.4,3.6-1.3,5.1-2.4c0.4-0.2,0.6-0.8,1.1-0.2c5.1,4.5,10.7,4,16.2,1.7
        c4-1.7,5.1-6.2,2.6-9.8c-0.6-0.8-1.3-1.7-1.9-2.4C1236.8,310.4,1236.6,310,1237.5,309.7L1237.5,309.7z M1182.5,291.1
        c0.6-0.9,1.3-1.7,2.4-2.3c1.1-0.6,1.7,0,1.7,1.1s-0.4,2.3-1.1,3c-2.3,3-4.7,5.8-6.8,8.8c0,0-0.2,0.2-0.6,0.2
        C1179.1,298.2,1180.1,294.4,1182.5,291.1L1182.5,291.1z M1156.4,290.3c1.9-1.7,4.1-2.4,6.6-2.3c1.1,0,1.9,0.6,1.9,1.9
        c0,1.1-0.8,1.7-1.7,1.9c-0.6,0.2-1.3,0.2-2.1,0.2c-1.5,0-3-0.4-4.5-0.6C1155.8,291.2,1155.8,290.9,1156.4,290.3L1156.4,290.3z
         M1208.5,302.9c-0.6,3-0.6,6-0.9,9c-0.4,3-2.1,5.5-4.9,6.6s-4.9-0.6-4.9-4c0-5.6,4.3-11.1,9.8-12.4
        C1208.3,301.7,1208.7,302,1208.5,302.9L1208.5,302.9z M1236.2,305c-0.4,0.9-1.1,2.4-1.9,2.4c-0.9,0-1.5-1.3-1.9-2.3
        c-1.1-2.4-0.6-2.4,2.1-2.8C1236,302.4,1236.8,303.7,1236.2,305L1236.2,305z M1319.2,312.5c0-0.4-0.2-0.9-0.6-1.1
        c-0.4-0.2-0.8,0.2-1.1,0.4c-0.6,0.6-1.1,1.1-1.5,1.7c-2.3,2.8-4.7,5.5-7.9,7.9c0.2-0.6,0.2-0.9,0.4-1.3c1.5-4.9,2.8-9.8,4-14.9
        c0.6-2.6,0.2-5.1-1.5-7.2c-0.8-0.8-1.5-1.5-2.8-1.3c-1.1,0.2-1.7,1.1-2.1,2.3c-0.9,3.4-1.9,6.8-3,10c-0.8,2.4-0.9,4.9-2.4,7.2
        c-0.9,1.3-2.1,1.9-3.8,1.9c-1.7,0-2.3-0.6-2.3-2.3c0-2.6,0.8-5.1,1.5-7.5c0.8-2.6,1.3-5.3,0.8-8.1c-0.2-1.3-0.8-2.4-2.1-2.6
        c-1.9-0.2-3.8-0.2-5.3,1.5c-0.2,0.2-0.2,0.4-0.2,0.8c-0.4,3.2-0.8,6.4-1.1,9.6c-0.4,4.3-3.4,7.7-7.5,8.7c-2.3,0.6-4.3-0.2-5.3-1.9
        c-1.3-2.1-1.3-5.6,0-7.2c2.8-3.6,6-6.8,9-10.4c2.1-2.4,4.3-4.9,5.1-8.3c0.9-4.5-0.8-7.3-5.5-7c-3.8,0.2-6.8,2.1-9,4.9
        c-3,3.4-4.9,7.5-6.2,11.9c-1.5,4.7-2.3,9.6-2.1,14.5c0.2,3.4,1.5,6.2,4.5,8.1c4.7,3,10.5,2.4,14.7-1.1c0.6-0.6,0.9-0.8,1.7,0.2
        c0.9,1.3,2.4,2.1,4.1,2.3c3.8,0.8,7.2,0.2,10.2-3c-0.2,0.9-0.4,1.5-0.4,2.1c-0.2,1.7-0.9,2.3-2.6,2.6c-3.2,0.6-6.4,1.1-9.4,2.3
        c-4,1.5-4.9,4.7-2.4,8.1c2.6,3.8,9.8,4.9,13.9,1.9c2.6-1.9,3.8-4.5,4.5-7.5c0.4-1.1,0.9-1.9,2.1-2.6c4.7-2.6,8.7-6.2,11.1-11.3
        C1319,315.3,1319.2,314,1319.2,312.5L1319.2,312.5z M1280.2,290.2c0.4-0.6,0.9-0.9,1.5-1.3s1.1-0.6,1.7,0c0.4,0.4,0.4,0.9,0.4,1.5
        c-0.2,1.1-0.8,2.3-1.5,3.2c-2.1,2.8-4.5,5.5-6.4,8.3c0,0.2-0.2,0.2-0.6,0.4C1276.3,297.8,1277.4,293.7,1280.2,290.2L1280.2,290.2z
         M1292.5,334.7c-0.4-0.2-0.8-0.4-1.1-0.8c-0.9-0.9-0.8-1.9,0.6-2.3c0.4-0.2,0.8-0.2,1.1-0.2c1.9-0.2,3.8-0.6,5.6-0.8
        C1297.8,334.2,1295.1,335.9,1292.5,334.7z"/>
      <path fill="#FFFFFF" d="M1259.5,309.7c2.4-1.1,3.8-3,4.3-5.6c0.6-2.8-0.8-4.9-3.4-5.8c-2.6-0.9-5.3-0.8-7.9,0.2
        c-5.6,2.1-7.3,8.7-3.4,13.2c0.9,1.1,2.3,2.3,3.2,3.4c1.1,1.1,2.3,2.4,2.8,4c0.2,0.4,0.6,0.8-0.4,0.8c-3.2,0.2-5.8-1.5-7-4.5
        c-0.4-0.9-0.6-1.7-0.9-2.6c-0.8-1.7-1.9-1.9-3.2-0.8c-3.8,2.8-3.4,9,0.6,11.5c2.3,1.3,4.7,1.7,7.3,1.7c2.1,0,4.3-0.2,6.4-1.1
        c4.5-1.9,5.8-6.6,3-10.5c-0.6-0.8-1.1-1.5-1.9-2.3C1258.8,310.3,1258.8,310.1,1259.5,309.7L1259.5,309.7z M1256.7,307.2
        c-0.4,0.4-0.6,0-0.8-0.2c-0.6-0.6-1.1-1.3-1.3-2.1c-0.4-0.8-1.1-1.5-0.2-2.3s3.2-0.6,3.8,0c0.4,0.4,0.4,0.8,0.4,1.1
        C1258.2,305.4,1257.5,306.2,1256.7,307.2z"/>
    </a>
    <a href="#moozen_apps" data-technologies="rails angular">
      <path class="background moozen-apps-bg" d="M1015.3,425.4l-100.8-58.3V250.7l100.8-58.2l100.8,58.2v116.4L1015.3,425.4z"/>
      <path id="XMLID_780_" fill="#FFFFFF" d="M1034.3,273.9c-19,0-34.1,15.6-34.3,34.8c0,19.4,15.4,35.2,34.3,35
        c18.6,0,34.1-16,33.9-35C1068.4,289.5,1053.2,273.9,1034.3,273.9z M1034.3,334c-13.4,0-24.3-11.3-24.3-25c0-13.9,10.9-25,24.5-25
        c13.2,0,23.9,11.3,23.9,25S1047.5,334,1034.3,334L1034.3,334z"/>
      <path fill="#FFFFFF" d="M997.2,309.1c0-11.7,5.3-22.2,13.4-29.2c0.4-0.8,0.6-1.5,0.6-1.7c-4,0-7.7,0.2-11.5,0
        c-2.3-0.2-3.2,0.8-4,2.6c-4.1,10.2-8.7,20.1-13,30.5c-0.4-0.9-0.8-1.7-1.1-2.3c-4-9.2-7.9-18.5-11.9-27.7
        c-0.9-2.3-1.9-3.4-4.5-3.2c-3.6,0.2-7.2,0-11.1,0c0.4,0.9,0.8,1.7,0.9,2.4c6.8,15.8,13.4,31.4,20.1,47.3c0.9,2.1,1.3,5.1,3,6.2
        c1.7,1.3,8.7,1.9,9.8-1.1c3-7.2,6-14.5,9.2-21.7C997.2,310.6,997.2,309.9,997.2,309.1z"/>
    </a>
    <a href="#somasoft_inc" data-technologies="rails">
      <path class="background somasoft-bg" d="M802.9,425.4
        l-100.8-58.3V250.7l100.8-58.2l100.8,58.2v116.4L802.9,425.4L802.9,425.4z"/>
      <path class="st0" fill="#FFFFFF" d="M803.9,313.6l0.7-0.8c0.2-0.3,0.6-0.4,0.9-0.1c0.4,0.4,2,1.9,4.6,1.9c2.7,0,4.9-1.8,4.9-4
        c0-2-1.9-3-4.6-4.2c-2.7-1.3-4.9-2.8-4.9-5.5s2.1-5.9,6.8-5.9c2.5,0,4.2,1,5.1,1.7c0.3,0.2,0.4,0.6,0.1,0.9l-0.5,0.7
        c-0.3,0.4-0.6,0.4-0.9,0.2c-0.4-0.3-2-1.3-4-1.3c-3.1,0-4.4,2.1-4.4,3.6c0,1.8,1.6,2.8,3.8,3.9c3,1.4,5.6,2.6,5.6,5.8
        c0,3.7-3.2,6.3-7.4,6.3c-3.1,0-5-1.5-5.9-2.3C803.8,314.2,803.7,313.9,803.9,313.6L803.9,313.6z M822.2,296.2
        c-0.1-0.4,0.1-0.8,0.5-0.8h1.1c0.3,0,0.5,0.2,0.6,0.5l5.2,17.6h0.1l9.6-17.6c0.2-0.3,0.5-0.5,0.7-0.5h1.1c0.5,0,0.6,0.4,0.4,0.8
        l-19.5,35c-0.2,0.3-0.4,0.4-0.7,0.4h-1.1c-0.4,0-0.6-0.3-0.4-0.7l8.3-15L822.2,296.2L822.2,296.2z M847.1,297.4h-2.3
        c-0.5,0-0.6-0.3-0.5-0.7l0.1-0.8c0.1-0.4,0.3-0.5,0.7-0.5h2.2l0.8-5.6c0.1-0.4,0.4-0.7,0.8-0.7l0.9-0.1c0.4,0,0.6,0.3,0.6,0.7
        l-0.8,5.7h6.3c0.4,0,0.6,0.3,0.6,0.7l-0.1,0.7c-0.1,0.4-0.4,0.7-0.7,0.7h-6.3l-1.9,13.2c-0.3,2.4-0.3,3.8,1.6,3.8
        c1.7,0,3.7-1,4.4-1.5c0.4-0.3,0.6-0.1,0.8,0.2l0.4,0.7c0.2,0.4,0.1,0.6-0.3,0.9c-0.8,0.6-3.1,1.9-5.6,1.9c-3.6,0-3.9-2.5-3.4-5.9
        L847.1,297.4L847.1,297.4z M870.5,294.9c3.6,0,6.5,2.1,6.5,5.3c0,7.7-15,6.2-15,6.2c-0.4,4.5,1.9,8.1,6,8.1c2.4,0,4.7-1.3,5.6-2
        c0.5-0.3,0.6-0.3,0.8,0.1l0.5,0.8c0.2,0.3,0.2,0.5-0.2,0.8c-0.7,0.6-3.7,2.4-7.3,2.4c-4.8,0-7.8-4.1-7.8-9.2
        C859.6,300.6,864.1,294.8,870.5,294.9L870.5,294.9z M874.7,300.3c0-1.8-1.9-3.3-4.5-3.3c-3.9,0-7.2,3.2-8,7.4
        C867.8,304.9,874.7,304.2,874.7,300.3L874.7,300.3z M880.4,313.6l0.7-0.8c0.2-0.3,0.6-0.4,0.9-0.1c0.4,0.4,2,1.9,4.6,1.9
        c2.7,0,4.9-1.8,4.9-4c0-2-1.9-3-4.6-4.2c-2.7-1.3-4.9-2.8-4.9-5.5s2.1-5.9,6.8-5.9c2.5,0,4.2,1,5.1,1.7c0.3,0.2,0.4,0.6,0.1,0.9
        l-0.5,0.7c-0.3,0.4-0.6,0.4-0.9,0.2c-0.4-0.3-2-1.3-4-1.3c-3.1,0-4.4,2.1-4.4,3.6c0,1.8,1.6,2.8,3.8,3.9c3,1.4,5.6,2.6,5.6,5.8
        c0,3.7-3.2,6.3-7.4,6.3c-3.1,0-5-1.5-5.9-2.3C880.4,314.2,880.2,313.9,880.4,313.6L880.4,313.6z"/>
      <path class="st0" fill="#FFFFFF" d="M712.8,297.2c0-0.5,0.4-0.9,0.9-0.9h1.7c0.4,0,0.7,0.2,0.8,0.5l0.6,1.7c0.8-0.9,2.9-2.7,6.1-2.7
        c2.6,0,4.4,1,6,2.8c0.8-0.8,3.2-2.8,6.5-2.8c5.9,0,8,4.4,8,9.2v8.8c0,0.5-0.4,0.9-0.9,0.9h-3.7c-0.5,0-0.9-0.4-0.9-0.9v-9.1
        c0-2.4-1.1-3.9-3.4-3.9c-2.7,0-3.9,1.9-3.9,1.9v11c0,0.5-0.4,0.9-0.9,0.9h-3.4c-0.5,0-0.9-0.4-0.9-0.9v-9.1c0-2.4-1.1-3.9-3.4-3.9
        s-3.4,1.7-3.9,2.9v10.1c0,0.5-0.4,0.9-0.9,0.9h-3.7c-0.5,0-0.9-0.4-0.9-0.9v-16.5H712.8L712.8,297.2z M746.2,297.6
        c-0.3-0.6,0.1-1.2,0.8-1.2h4.1c0.4,0,0.6,0.2,0.8,0.5l4.6,10.4l4.6-10.4c0.2-0.5,0.6-0.5,1.1-0.5h3.7c0.7,0,1.1,0.6,0.8,1.2
        l-14,30.3c-0.1,0.3-0.4,0.5-0.8,0.5H748c-0.7,0-1.1-0.6-0.8-1.2l6.5-13.8L746.2,297.6L746.2,297.6z"/>
      <path class="st19" fill="none" stroke="#FFFFFF" stroke-width="3.7659" stroke-linecap="round" stroke-miterlimit="10" d="M783.7,298.8
        c0-0.8,0.2-3.8,2.6-6c1.9-1.7,4.1-3.4,7.9-2.1c3.6,1.1,4.1,5.8,4.3,6.8c0.9,6.2-3.4,13.6-9.8,15.3c-2.6,0.8-4.9,0.4-6.2,0.2"/>
      <path class="st19" fill="none" stroke="#FFFFFF" stroke-width="3.7659" stroke-linecap="round" stroke-miterlimit="10" d="M784.7,319.9
        c0,0.8-0.4,3.8-3,6c-1.9,1.7-4.3,3.2-8.1,1.7c-3.6-1.3-3.8-6-4-7.2c-0.8-6.2,4.1-13.4,10.5-14.9c2.6-0.6,4.9-0.2,6.2,0.2"/>
    </a>
    <a href="#daisybill" data-technologies="rails">
      <path class="background daisybill" d="M590.5,425.4
        l-100.8-58.3V250.7l100.8-58.2l100.8,58.2v116.4L590.5,425.4z"/>
      <path class="st0" fill="#FFFFFF" d="M521.2,288.2c-11.1,0-20.1,9-20.1,20.1s9,20.1,20.1,20.1c11.1,0,20.1-9,20.1-20.1
        C541.4,297.2,532.4,288.2,521.2,288.2z M534.4,313.2c-0.6,0-1.1-0.2-1.5-0.2c-0.2,0.4-0.2,0.6-0.4,0.9c1.7,0.8,2.8,2.4,2.8,4.3
        c0,2.6-2.1,4.7-4.7,4.7c-1.9,0-3.6-1.1-4.3-2.8c-0.2,0-0.4,0.2-0.6,0.2c0.2,0.6,0.4,0.9,0.4,1.5c0,2.6-2.1,4.7-4.7,4.7
        c-2.6,0-4.7-2.1-4.7-4.7c0-0.6,0.2-1.1,0.4-1.5c-0.2-0.2-0.6-0.2-0.8-0.4c-0.8,1.5-2.3,2.4-4.1,2.4c-2.6,0-4.7-2.1-4.7-4.7
        c0-1.9,1.1-3.4,2.6-4.1c0-0.2-0.2-0.4-0.2-0.6c-0.6,0.2-0.9,0.2-1.5,0.2c-2.6,0-4.7-2.1-4.7-4.7s2.1-4.7,4.7-4.7
        c0.6,0,1.1,0.2,1.5,0.2c0-0.2,0.2-0.6,0.4-0.8c-1.5-0.8-2.6-2.4-2.6-4.1c0-2.6,2.1-4.7,4.7-4.7c1.9,0,3.6,1.1,4.3,2.6
        c0.2-0.2,0.6-0.2,0.8-0.4c-0.2-0.6-0.4-1.1-0.4-1.7c0-2.6,2.1-4.7,4.7-4.7s4.7,2.1,4.7,4.7c0,0.6-0.2,1.1-0.4,1.7
        c0.2,0,0.4,0.2,0.8,0.2c0.8-1.5,2.4-2.6,4.3-2.6c2.6,0,4.7,2.1,4.7,4.7c0,1.9-1.1,3.4-2.6,4.3c0.2,0.2,0.2,0.4,0.4,0.8
        c0.6-0.2,0.9-0.4,1.5-0.4c2.6,0,4.7,2.1,4.7,4.7C539.9,311,537.1,313.3,534.4,313.2L534.4,313.2z"/>
      <circle class="st0" fill="#FFFFFF" cx="521.2" cy="308.4" r="4.7"/>
      <path class="st0" fill="#FFFFFF" d="M547.5,317.4h3.2v-16.8h-3.2v-2h7.7c7.6,0,13,1.7,13,10.4s-5.3,10.5-13,10.5h-7.7V317.4L547.5,317.4z
         M553.5,317.4h1.7c5.9,0,10-1.6,10-8.4c0-6.8-4-8.4-10-8.4h-1.7V317.4L553.5,317.4z M581.7,316.4c-0.7,2.3-2.6,3.3-5,3.3
        c-2.9,0-5.7-1.2-5.7-4.5c0-4.5,4.4-4.7,7.9-4.7h2.8v-0.9c0-2.3-1.2-3.1-3.5-3.1c-2,0-3.6,0.4-3.8,2.5h-2.8
        c0.2-3.4,3.1-4.5,6.3-4.5c3.5,0,6.5,0.7,6.5,4.5v8.4h2.6v2h-5.2L581.7,316.4L581.7,316.4L581.7,316.4z M577,317.7
        c3.2,0,4.6-2.3,4.6-5.1h-2.2c-1.9,0-5.7,0-5.7,2.7C573.8,317.1,575.5,317.7,577,317.7L577,317.7z M588.4,317.4h2.5v-10.5h-2.5v-2
        h5.2v12.5h2.5v2h-7.7V317.4z M593.5,301.5h-3v-3h3V301.5z M598.1,319.4v-5.1h2c0,1.4,0.6,2.2,1.5,2.7c0.9,0.5,2.1,0.6,3.3,0.6
        c1.2,0,3-0.7,3-2.3c0-2-2.1-2-3.7-2.2c-2.7-0.4-6-0.8-6-4.2c0-3.1,3-4.6,5.7-4.6c1.9,0,3.6,0.6,4.4,2.1h0.1v-1.8h2v4.8h-2
        c0-1.3-0.4-2-1.2-2.5c-0.7-0.4-1.7-0.6-2.8-0.6c-1.5,0-3.6,0.4-3.6,2.3c0,1.7,2.5,1.7,4.4,2c2.6,0.4,5.5,0.9,5.5,4.2
        c0,3.4-3.1,4.7-6.1,4.7c-1.7,0-3.8-0.7-4.4-2.3h-0.1v2h-2V319.4L598.1,319.4z M629.8,306.9h-1.6l-6,13.9c-1.1,2.5-1.8,4.2-4.7,4.2
        c-0.7,0-1.3-0.1-2-0.2v-2c0.5,0,1,0.1,1.5,0.1c2.2,0,2.3-1.8,3.2-3.6l-5.7-12.5h-1.6v-2h7.3v2h-2.8l4.2,9.8l4.1-9.8h-2.8v-2h6.9
        V306.9z M631.1,317.4h3.2v-16.8h-3.2v-2h9.5c3.5,0,8.1,0.1,8.1,5.6c0,2.2-1.6,4.2-4.2,4.6v0.1c3,0,4.8,1.7,4.8,4.8
        c0,5.2-4.2,5.9-8.8,5.9h-9.4V317.4L631.1,317.4z M637.2,307.8h3.4c2.7,0,5.2-0.5,5.2-3.8c0-3.5-3-3.5-5.1-3.5h-3.4L637.2,307.8
        L637.2,307.8z M637.2,317.4h3.4c3,0,5.8-0.5,5.8-3.8c0-3.2-2.7-3.6-5.8-3.6h-3.4V317.4L637.2,317.4z M652.4,317.4h2.5v-10.5h-2.5
        v-2h5.2v12.5h2.5v2h-7.7V317.4z M657.6,301.5h-3v-3h3V301.5z M661.3,317.4h2.5v-16.8h-2.5v-2h5.2v18.9h2.5v2h-7.7V317.4
        L661.3,317.4z M670.2,317.4h2.5v-16.8h-2.5v-2h5.2v18.9h2.5v2h-7.7V317.4L670.2,317.4z"/>
    </a>
    <a href="#myschool" data-technologies="rails">
      <path class="background myschool-bg" d="M1545.9,241.1
        l-100.8-58.3V66.4l100.8-58.2l100.8,58.2v116.4L1545.9,241.1z"/>
      <path class="st0" fill="#FFFFFF" d="M1518.7,127.7h5.5c0.1,0.9,0.4,1.6,1.1,2c0.6,0.4,1.5,0.7,2.7,0.7c0.9,0,1.6-0.2,2.1-0.5s0.8-0.8,0.8-1.3
        c0-0.7-0.3-1.2-0.8-1.6c-0.5-0.4-2-0.7-4.4-1.1c-2.3-0.3-4-0.9-5-1.8s-1.5-2-1.5-3.5c0-1.7,0.7-3,2.1-3.9s3.5-1.4,6.3-1.4
        c2.7,0,4.7,0.5,6.1,1.5c1.3,1,2,2.3,2.1,3.9h-4.9c-0.1-0.6-0.3-1.1-0.8-1.5c-0.4-0.3-1.2-0.5-2.2-0.5s-1.8,0.1-2.3,0.4
        c-0.6,0.3-0.8,0.6-0.8,1.1c0,0.7,0.3,1.2,0.8,1.5c0.5,0.4,1.8,0.7,3.8,1c3,0.4,4.9,1.1,5.8,1.9c0.9,0.9,1.4,2,1.4,3.4
        c0,1.8-0.7,3.3-2.1,4.3s-3.6,1.5-6.6,1.5c-2.8,0-5-0.5-6.6-1.6C1519.6,131,1518.8,129.5,1518.7,127.7L1518.7,127.7z M1552.4,126.6
        h5.3c-0.2,2-1,3.7-2.5,5.1c-1.5,1.4-3.7,2-6.5,2c-3,0-5.4-0.8-7.1-2.4c-1.7-1.6-2.6-3.9-2.6-6.8c0-2.8,0.8-5.1,2.5-6.8
        c1.7-1.7,4.2-2.5,7.5-2.5c2.6,0,4.6,0.6,6,1.8c1.4,1.2,2.3,2.9,2.5,5h-5.2c-0.2-1.2-0.5-2-1.1-2.6c-0.6-0.5-1.4-0.8-2.4-0.8
        c-1.3,0-2.4,0.5-3.1,1.4s-1.1,2.3-1.1,4.2c0,2.1,0.4,3.6,1.1,4.6s1.8,1.6,3,1.6c1.1,0,1.9-0.3,2.6-1S1552.4,127.7,1552.4,126.6
        L1552.4,126.6z M1566.7,109.3v8.4c0.7-0.8,1.6-1.4,2.6-1.9c1-0.4,2.2-0.7,3.5-0.7c2,0,3.5,0.6,4.5,1.7s1.5,2.9,1.5,5.3v10.8h-5.5
        v-10c0-1.5-0.3-2.6-0.8-3.4c-0.5-0.7-1.3-1.1-2.3-1.1c-1.1,0-2,0.4-2.7,1.2c-0.7,0.8-1,2-1,3.5v9.7h-5.5v-23.7h5.7L1566.7,109.3
        L1566.7,109.3z M1592.4,133.7c-3,0-5.4-0.8-7.2-2.3c-1.8-1.6-2.8-3.9-2.8-6.9c0-2.9,0.9-5.1,2.6-6.8c1.7-1.6,4.2-2.5,7.4-2.5
        c3,0,5.4,0.8,7.2,2.3s2.7,3.9,2.7,6.9c0,3.1-0.9,5.4-2.8,6.9C1597.8,132.9,1595.4,133.7,1592.4,133.7L1592.4,133.7z M1592.4,130.3
        c1.4,0,2.5-0.5,3.2-1.4c0.7-1,1.1-2.5,1.1-4.5s-0.4-3.5-1.1-4.4s-1.8-1.4-3.2-1.4c-1.4,0-2.5,0.5-3.2,1.4c-0.8,1-1.1,2.4-1.1,4.4
        s0.4,3.5,1.1,4.4S1591,130.3,1592.4,130.3z M1615.1,133.7c-3,0-5.4-0.8-7.2-2.3c-1.8-1.6-2.8-3.9-2.8-6.9c0-2.9,0.9-5.1,2.6-6.8
        c1.7-1.6,4.2-2.5,7.4-2.5c3,0,5.4,0.8,7.2,2.3s2.7,3.9,2.7,6.9c0,3.1-0.9,5.4-2.8,6.9C1620.5,132.9,1618.1,133.7,1615.1,133.7
        L1615.1,133.7z M1615.1,130.3c1.4,0,2.5-0.5,3.2-1.4c0.7-1,1.1-2.5,1.1-4.5s-0.4-3.5-1.1-4.4s-1.8-1.4-3.2-1.4
        c-1.4,0-2.5,0.5-3.2,1.4c-0.8,1-1.1,2.4-1.1,4.4s0.4,3.5,1.1,4.4S1613.7,130.3,1615.1,130.3z M1628.6,109.3h5.5V133h-5.5V109.3
        L1628.6,109.3z"/>
      <path class="st0" fill="#FFFFFF" d="M1489.1,99.2c-15.8,0-28.6,11.1-28.6,24.9c0,13.8,12.8,24.9,28.6,24.9s28.6-11.1,28.6-24.9
        C1517.7,110.2,1504.9,99.2,1489.1,99.2L1489.1,99.2z M1492.1,133.1h-5.1v-10.2c0-1.5-0.2-2.6-0.6-3.2c-0.4-0.8-1.1-0.9-1.9-0.9
        c-0.9,0-1.7,0.4-2.3,1.1c-0.6,0.8-0.9,1.9-0.9,3.4v10h-5.1v-10.2c0-1.5-0.2-2.6-0.6-3.4c-0.4-0.6-1.1-0.9-1.9-0.9
        c-0.9,0-1.7,0.4-2.3,1.1c-0.6,0.8-0.9,1.9-0.9,3.4v10h-5.1v-17.1h4.9v2.4c0.8-1.1,1.7-1.9,2.4-2.4c0.9-0.6,1.9-0.8,2.8-0.8
        c1.3,0,2.4,0.4,3.2,0.9c0.9,0.6,1.5,1.5,1.9,2.4c0.8-1.1,1.7-2.1,2.6-2.6s2.1-0.8,3.2-0.8c2.1,0,3.4,0.6,4.3,1.9s1.5,3,1.5,5.5
        L1492.1,133.1z M1506.8,134c-0.8,2.4-1.7,4-2.6,4.5c-0.9,0.6-2.1,1.1-3.6,1.1h-1.9c-0.6,0-1.1-0.2-1.7-0.2V136
        c0.2,0,0.4,0.2,0.8,0.2h0.9c0.6,0,1.1-0.2,1.5-0.6c0.4-0.4,0.8-0.9,0.9-1.9l0.2-0.8l-7.5-16.9h6.4l4,11.3l3-11.3h5.5L1506.8,134
        L1506.8,134z"/>
    </a>
    <a href="#foundersuite" data-technologies="rails backbone">
      <path class="background foundersuite-bg" d="M1333.5,241.1l-100.8-58.3V66.4l100.8-58.2l100.8,58.2v116.4L1333.5,241.1z"/>
      <g id="XMLID_38_">
        <path id="XMLID_54_" fill="#FFFFFF" d="M1365.2,128.7c0,3.8-1.4,7-7.7,7h-32.7c-0.7-3.1,1.4-9.7,4.2-11.8
          c2.4-2.1,5.6-2.1,8.4-1.7c7.7,0.7,9.1-4.5,9.4-10.1c0.7-6.3-3.5-8-8.7-7.7c-4.2,0-8-0.7-8-5.6c0-5.2,4.2-6.3,8.4-5.9
          c8,1,12.2-2.4,12.5-10.4c0.7-3.5,2.4-5.2,5.9-5.2h8.4v51.4H1365.2z"/>
        <path id="XMLID_53_" fill="#FFFFFF" d="M1303.6,85.9c0,0-0.7-8.4,8.7-8.7h30.6c0,3.1-0.3,7-2.1,9.1c-2.4,3.1-5.9,3.5-9.4,3.1
          c-8-0.7-9.4,4.9-9.7,10.4c-0.3,6.3,4.2,7.3,9.4,7c4.2-0.3,7.3,1,7.3,5.6c0,4.9-3.1,6.6-7.7,5.9c-8.4-1-13.2,2.1-13.6,10.8
          c-0.3,7.3-13.2,5.9-13.2,5.9L1303.6,85.9z"/>
      </g>
      <g>
        <path fill="#FFFFFF" d="M1261.6,146.1c-2.5-0.2-3.7,0.8-3.7,3.1v0.3h3.7v3.3h-3.7v12.4h-3.4v-12.4v-3.3v-0.3
          c0-2.2,0.6-3.8,1.8-4.9c1.2-1.1,3-1.6,5.3-1.5L1261.6,146.1L1261.6,146.1z"/>
        <path fill="#FFFFFF" d="M1268.6,165.6c-2.3,0-4.3-0.8-5.9-2.4c-1.6-1.6-2.4-3.5-2.4-5.9c0-2.3,0.8-4.3,2.4-5.9
          c1.6-1.6,3.6-2.4,5.9-2.4s4.3,0.8,5.9,2.4c1.6,1.6,2.4,3.5,2.4,5.9c0,2.3-0.8,4.3-2.4,5.9C1272.9,164.8,1271,165.6,1268.6,165.6z
           M1265.2,160.9c0.9,0.9,2.1,1.4,3.5,1.4s2.5-0.5,3.5-1.4c0.9-0.9,1.4-2.1,1.4-3.5c0-1.4-0.5-2.6-1.4-3.5
          c-0.9-0.9-2.1-1.4-3.5-1.4s-2.5,0.5-3.5,1.4c-0.9,0.9-1.4,2.1-1.4,3.5C1263.8,158.8,1264.2,160,1265.2,160.9z"/>
        <path fill="#FFFFFF" d="M1289,149.5h3.4v15.7h-3.4v-2c-1,1.6-2.6,2.4-4.9,2.4c-1.8,0-3.2-0.6-4.4-1.7c-1.1-1.1-1.7-2.7-1.7-4.7
          v-9.6h3.4v9.2c0,1.2,0.3,2.1,0.9,2.7c0.6,0.6,1.5,0.9,2.6,0.9c1.2,0,2.2-0.4,2.9-1.1c0.7-0.7,1.1-1.9,1.1-3.4L1289,149.5
          L1289,149.5z"/>
        <path fill="#FFFFFF" d="M1303,149.1c1.8,0,3.2,0.6,4.4,1.7c1.1,1.1,1.7,2.7,1.7,4.7v9.6h-3.4v-9.3c0-1.2-0.3-2.1-0.9-2.7
          c-0.6-0.6-1.5-0.9-2.6-0.9c-1.2,0-2.2,0.4-2.9,1.1s-1.1,1.9-1.1,3.4v8.4h-3.4v-15.6h3.4v2C1299.2,149.9,1300.8,149.1,1303,149.1z
          "/>
        <path fill="#FFFFFF" d="M1323.5,143.3h3.4v21.9h-3.4v-2.3c-1.3,1.8-3.1,2.7-5.5,2.7c-2.2,0-4-0.8-5.5-2.4
          c-1.5-1.6-2.3-3.5-2.3-5.8s0.8-4.3,2.3-5.9c1.5-1.6,3.4-2.4,5.5-2.4c2.4,0,4.2,0.9,5.5,2.6V143.3z M1315,161
          c0.9,1,2.1,1.4,3.5,1.4s2.6-0.5,3.5-1.4c0.9-0.9,1.4-2.1,1.4-3.6s-0.5-2.6-1.4-3.6s-2.1-1.4-3.5-1.4s-2.6,0.5-3.5,1.4
          c-0.9,0.9-1.4,2.1-1.4,3.6S1314,160,1315,161z"/>
        <path fill="#FFFFFF" d="M1331.9,158.8c0.2,1.2,0.8,2.1,1.7,2.7c0.9,0.6,2,1,3.3,1c1.8,0,3.1-0.6,4-1.9l2.8,1.6
          c-1.6,2.3-3.8,3.4-6.9,3.4c-2.6,0-4.6-0.8-6.2-2.3c-1.6-1.6-2.4-3.5-2.4-5.9c0-2.3,0.8-4.3,2.3-5.9c1.5-1.6,3.5-2.4,6-2.4
          c2.3,0,4.2,0.8,5.7,2.4c1.5,1.6,2.2,3.6,2.2,5.9c0,0.4,0,0.8-0.1,1.4C1344.3,158.8,1331.9,158.8,1331.9,158.8z M1331.9,156.1h9.2
          c-0.2-1.3-0.8-2.2-1.6-2.9c-0.8-0.6-1.8-1-2.9-1c-1.3,0-2.3,0.3-3.1,1C1332.6,153.9,1332.1,154.9,1331.9,156.1z"/>
        <path fill="#FFFFFF" d="M1349.3,152.2c0.9-1.9,2.5-2.9,4.8-2.9v3.7c-1.3-0.1-2.4,0.2-3.4,0.9c-1,0.7-1.4,1.9-1.4,3.5v7.9h-3.4
          v-15.8h3.4V152.2z"/>
        <path fill="#FFFFFF" d="M1356.6,153.6c0,0.8,0.3,1.4,1,1.8c0.7,0.4,1.4,0.8,2.4,1c0.9,0.2,1.9,0.5,2.8,0.7s1.7,0.7,2.4,1.3
          s1,1.5,1,2.6c0,1.3-0.5,2.4-1.6,3.2c-1,0.8-2.4,1.3-4.1,1.3c-1.5,0-2.8-0.3-3.8-1c-1-0.6-1.8-1.5-2.1-2.5l1.3-0.8
          c0.3,0.9,0.8,1.5,1.6,2c0.8,0.5,1.8,0.7,3,0.7s2.1-0.3,2.9-0.8s1.1-1.2,1.1-2.2c0-0.8-0.3-1.4-1-1.8c-0.6-0.5-1.4-0.8-2.4-1.1
          c-0.9-0.2-1.9-0.5-2.8-0.7s-1.7-0.7-2.4-1.3c-0.6-0.6-1-1.5-1-2.5c0-1.3,0.5-2.3,1.5-3.2s2.3-1.3,3.8-1.3c1.3,0,2.3,0.3,3.3,0.8
          c0.9,0.6,1.6,1.3,2.1,2.3l-1.3,0.8c-0.3-0.8-0.8-1.4-1.6-1.8c-0.7-0.4-1.5-0.6-2.4-0.6c-1.1,0-2,0.3-2.7,0.8
          C1356.9,152,1356.6,152.7,1356.6,153.6z"/>
        <path fill="#FFFFFF" d="M1379.4,149.5h1.6v15.7h-1.6v-3c-1.1,2.2-3,3.3-5.6,3.3c-1.9,0-3.3-0.6-4.4-1.7c-1.1-1.1-1.6-2.7-1.6-4.6
          v-9.7h1.6v9.7c0,1.5,0.4,2.6,1.2,3.5c0.8,0.9,1.9,1.3,3.4,1.3c1.6,0,2.9-0.5,3.9-1.6c1-1.1,1.5-2.6,1.5-4.6V149.5z"/>
        <path fill="#FFFFFF" d="M1385.9,145.4c-0.3,0.2-0.5,0.4-0.9,0.4c-0.3,0-0.6-0.1-0.9-0.4c-0.3-0.2-0.4-0.5-0.4-0.9
          c0-0.3,0.1-0.6,0.4-0.9c0.3-0.2,0.5-0.4,0.9-0.4c0.3,0,0.6,0.1,0.9,0.4c0.3,0.2,0.4,0.5,0.4,0.9
          C1386.3,144.8,1386.1,145.1,1385.9,145.4z M1384.2,165.2v-15.7h1.6v15.7C1385.8,165.2,1384.2,165.2,1384.2,165.2z"/>
        <path fill="#FFFFFF" d="M1397.1,151.1h-4.7v10.2c0,0.9,0.2,1.5,0.5,1.9c0.3,0.4,0.8,0.6,1.5,0.7c0.7,0.1,1.6,0,2.6-0.1v1.4
          c-2.1,0.3-3.7,0.2-4.7-0.4c-1-0.6-1.6-1.8-1.6-3.5v-10.2h-3.4v-1.5h3.4v-3.9l1.6-0.5v4.4h4.7L1397.1,151.1L1397.1,151.1z"/>
        <path fill="#FFFFFF" d="M1405.4,149.2c2.3,0,4.2,0.8,5.6,2.4c1.4,1.6,2.1,3.6,2.1,5.8c0,0.1,0,0.2,0,0.4c0,0.2,0,0.3,0,0.4h-14.2
          c0.2,1.8,0.9,3.2,2.1,4.2c1.2,1.1,2.7,1.6,4.5,1.6c1.3,0,2.4-0.3,3.3-0.8s1.6-1.2,2.1-2.1l1.4,0.8c-0.6,1.1-1.6,1.9-2.8,2.6
          c-1.2,0.6-2.5,1-4.1,1c-2.4,0-4.4-0.8-5.9-2.3s-2.3-3.5-2.3-5.9c0-2.3,0.8-4.3,2.3-5.8S1403,149.2,1405.4,149.2z M1405.4,150.7
          c-1.8,0-3.3,0.6-4.4,1.7c-1.2,1.1-1.9,2.5-2,4.3h12.6c-0.2-1.9-0.8-3.3-2-4.4C1408.3,151.2,1407,150.7,1405.4,150.7z"/>
      </g>
    </a>
    <a href="#everseat" data-technologies="rails backbone">
      <path class="background everseat-bg" d="M1121.3,241.1
        l-100.8-58.3V66.4l100.8-58.2l100.8,58.2v116.4L1121.3,241.1z"/>
      <path fill="#FFFFFF" d="M1121,74c-14.1,0-25.6,11.5-25.6,25.6s11.5,25.6,25.6,25.6s25.6-11.5,25.6-25.6S1135.1,74,1121,74z
         M1136.4,103.1l-1.3,3c-0.2,0.4-0.4,0.6-0.8,0.6h-4c-0.6,0-1.1,0.8-0.8,1.3l6.4,9.6c0.2,0.4,0.2,0.9-0.2,1.1l-3,1.9
        c-0.4,0.2-0.9,0.2-1.1-0.2l-8.8-13c-0.2-0.2-0.4-0.4-0.8-0.4h-2.6c-0.2,0-0.6,0.2-0.8,0.4l-9.6,13c-0.2,0.4-0.8,0.4-1.1,0.2
        l-2.6-2.1c-0.4-0.2-0.4-0.8-0.2-1.1l6.6-9.2c0.4-0.6,0-1.3-0.8-1.3h-4.7c-0.4,0-0.8-0.4-0.8-0.8V80.7c0-0.4,0.2-0.6,0.4-0.8l3-1.9
        c0.6-0.4,1.3,0,1.3,0.8V101c0,0.4,0.4,0.8,0.8,0.8h24.3C1136.2,102,1136.8,102.6,1136.4,103.1L1136.4,103.1z"/>
      <path fill="#FFFFFF" d="M1051.7,151.8c0,4.4,2.4,7.2,5.8,7.2c4,0,6.7-2.2,6.7-2.2l1.4,2.1c0,0-3.7,3.3-8.5,3.3
        c-6.4,0-9.6-4.2-9.6-10.8c0-6.4,4-11.2,9.8-11.2c5.8,0,8.4,3.4,8.4,9.4c0,1-0.2,2.1-0.2,2.2H1051.7L1051.7,151.8z M1061.5,148.8
        c0-3-1.2-5.5-4.4-5.5c-3.2,0-5,2.5-5.2,5.5H1061.5L1061.5,148.8z M1078.1,158.2l4.8-14.6l-2.8-0.6v-2.2l9-0.2v2.4l-2.2,0.4
        l-6.8,18.4h-4.4l-6.6-18.2l-2-0.6v-2.2l9-0.2v2.4l-2.8,0.4L1078.1,158.2L1078.1,158.2z M1094.1,151.8c0,4.4,2.4,7.2,5.8,7.2
        c4,0,6.7-2.2,6.7-2.2l1.4,2.1c0,0-3.7,3.3-8.5,3.3c-6.4,0-9.6-4.2-9.6-10.8c0-6.4,4-11.2,9.8-11.2c5.8,0,8.4,3.4,8.4,9.4
        c0,1-0.2,2.1-0.2,2.2H1094.1L1094.1,151.8z M1103.9,148.8c0-3-1.2-5.5-4.4-5.5c-3.2,0-5,2.5-5.2,5.5H1103.9L1103.9,148.8z
         M1118.5,143.5c1-1.1,3.3-3.3,6-3.3c2,0,3.6,0.6,3.6,0.6l-0.2,5.8h-2.6l-0.6-3c-3,0-4.9,2-5.8,3.1v11.9l4,1v2.2h-11.4v-2.2l3.4-1
        v-14.9l-3.4-0.8v-2.2l6.6-0.2L1118.5,143.5z M1133.7,158.8c0,0,1.2,0.4,3.4,0.4c2.4,0,4.5-0.7,4.5-3.2c0-4.3-11.2-2.3-11.2-9.6
        c0-4.2,3.2-6.2,7.3-6.2c3.2,0,6.8,1.2,6.8,1.2l-0.1,5.4h-2.6l-0.6-3.1c0,0-1.2-0.5-3.2-0.5s-3.6,0.6-3.6,2.7
        c0,4.3,11.2,2.6,11.2,9.5c0,4.6-4,6.8-8.8,6.8c-3.7,0-6.3-0.9-6.3-0.9v-5.9h2.8L1133.7,158.8L1133.7,158.8z M1153.2,151.8
        c0,4.4,2.4,7.2,5.8,7.2c4,0,6.7-2.2,6.7-2.2l1.4,2.1c0,0-3.7,3.3-8.5,3.3c-6.4,0-9.6-4.2-9.6-10.8c0-6.4,4-11.2,9.8-11.2
        c5.8,0,8.4,3.4,8.4,9.4c0,1-0.2,2.1-0.2,2.2H1153.2L1153.2,151.8z M1162.9,148.8c0-3-1.2-5.5-4.4-5.5c-3.2,0-5,2.5-5.2,5.5H1162.9
        L1162.9,148.8z M1172,141.8c0,0,4.4-1.6,7.8-1.6c4.6,0,7.4,1.6,7.4,6.2v12.2l3.2,0.8v2.2l-6.2,0.2l-0.8-2.8
        c-1.4,1.4-3.8,3.2-6.6,3.2c-3.8,0-6-2.2-6-6c0-4.6,3.6-6.2,9.2-6.2h3.2v-3.2c0-2.4-1.4-3.6-3.8-3.6c-2.4,0-4,0.6-4,0.6l-0.6,3
        h-2.6L1172,141.8L1172,141.8z M1180.4,152.6c-4,0-5.5,1-5.5,3.4c0,1.8,1.1,3,2.9,3c3,0,5.4-3.2,5.4-3.2v-3.2H1180.4L1180.4,152.6z
         M1206.2,143.8h-5.8v12.9c0,1.8,0.9,2.4,2,2.4c1,0,2.1-0.4,3.1-1l1.1,2.1c-1.8,1.3-3.6,2-5.6,2c-2.4,0-4.6-1.3-4.6-5.8v-12.6h-4
        v-2.6l4-0.4v-5l4-0.8v5.8h5.8V143.8L1206.2,143.8z"/>
    </a>
    <a href="#def_method" data-technologies="rails">
      <path class="background def-method-bg" d="M908.9,241.1
        l-100.8-58.3V66.4L908.9,8.2l100.8,58.2v116.4L908.9,241.1z"/>
      <path fill="#FFFFFF" d="M875.8,121.4c0,2.8-1.5,4.3-4,4.3h-1.5v4.7h-1.8v-13.2h3.4C874.3,117.1,875.8,118.6,875.8,121.4
        L875.8,121.4z M873.9,121.4c0-1.7-0.8-2.4-2.1-2.4h-1.5v4.9h1.5C873.2,123.9,873.9,122.9,873.9,121.4z M889.5,125.4h-1.1v4.7h-1.9
        v-13.2h3.4c2.4,0,4,1.5,4,4.1c0,2.1-0.9,3.4-2.4,4l2.8,5.1h-2.1L889.5,125.4z M888.4,123.7h1.5c1.3,0,2.1-0.9,2.1-2.4
        s-0.8-2.3-2.1-2.3h-1.5V123.7z M911.8,128.4v1.7h-6.6v-13.2h6.4v1.7h-4.5v3.8h4.1v1.7h-4.1v4h4.7L911.8,128.4L911.8,128.4z
         M929.5,128.4v1.7h-6.6v-13.2h6.4v1.7h-4.5v3.8h4.1v1.7h-4.1v4h4.7L929.5,128.4L929.5,128.4z M946.6,129.1v1.1h-6V117h1.1v12.1
        L946.6,129.1L946.6,129.1z M958.5,117.1v13.2h-1.1v-13.2L958.5,117.1L958.5,117.1z M977.7,117.1v13.2h-1.2l-3.6-7.7
        c-0.4-0.9-1.1-2.4-1.3-3.2v10.9h-1.1v-13.2h1.1l3.6,7.7c0.4,0.9,1.1,2.4,1.5,3.2c0-0.9-0.2-2.6-0.2-3.8V117L977.7,117.1z
         M995.9,129.1v1.1h-6.4V117h6.2v1.1h-4.9v4.9h4.7v1.1h-4.7v5.1L995.9,129.1L995.9,129.1z"/>
      <path id="XMLID_191_" fill="#FFFFFF" d="M848.1,113.7c0-0.4,0.6-0.6,0.8-0.9c1.3,0.2,2.1,0.9,2.8,2.1c1.5,2.3,1.5,4.5,0.2,6.8
        c-0.4,0.6-0.8,1.3-1.3,1.7l-10.5,10.5c-0.2,0.2-0.2,0.2-0.4,0.2c-0.4-0.4-0.8-0.6-1.1-0.9c0.2-0.2,0.4-0.6,0.8-0.8
        c3-3,5.8-6,8.8-8.8c0.9-0.9,1.9-1.7,2.4-2.8c1.7-2.6,0.2-5.5-1.9-6.6C848.5,113.9,848.1,113.9,848.1,113.7L848.1,113.7z"/>
      <path id="XMLID_72_" fill="#FFFFFF" d="M848.5,112.6c-0.8-0.2-1.1-0.2-1.7,0.4c-4.5,4.5-9,9.2-13.4,13.7c-0.4,0.4-0.6,0.4-0.8,0
        c-0.8-0.9-1.7-1.7-2.6-2.6c-0.4-0.4-0.4-0.6,0-0.8l5.6-5.6c0.4-0.4,0.4-1.1,0-1.5c-0.8-0.8-1.5-1.7-2.3-2.4
        c-2.1-1.9-5.3-2.1-7.3-0.4c-1.7,1.5-3,4.3-0.9,7.3c0.6,0.9,1.3,1.7,2.3,2.4c0.4,0.4,0.4,0.6,0,0.9c-1.5,1.3-2.8,2.8-4.3,4.3
        c-0.6,0.4-0.2,0.6,0.2,0.9c0.4,0.4,0.6,0.4,0.8,0l4.3-4.3c0.2-0.2,0.4-0.4,0.6,0c1.3,1.3,2.4,2.6,3.8,3.8c1.9,1.9,3.8,4,5.8,5.8
        c0.2,0.2,0.2,0.4,0.4,0.2c0.4-0.2,0.8-0.4,0.8-0.9c-0.2-0.6-0.6-0.8-0.9-1.1c-1.3-1.5-2.8-2.8-4.3-4.3c-0.2-0.2-0.4-0.4,0-0.8
        c0.2-0.4,0.6-0.6,0.9-0.9c4-4,7.9-8.1,11.9-12.1c0.4-0.4,0.6-0.8,1.1-1.1c0.2-0.4,0.8-0.6,0.8-0.9L848.5,112.6L848.5,112.6z
         M828.5,122.7c-0.8-0.8-1.7-1.5-2.3-2.4c-0.6-0.8-0.8-1.5-0.8-2.6c0.2-1.5,0.9-2.8,2.6-3.6c1.7-0.8,3.4-0.2,4.7,0.9l1.7,1.7
        c0.2,0.2,0.2,0.4,0,0.6c-1.9,1.7-3.6,3.6-5.5,5.3C828.7,122.7,828.7,122.9,828.5,122.7z"/>
    </a>
    <a href="#numa" data-technologies="rails angular">
      <path class="background numa-bg" d="M1439.7,55.8
        L1338.9-2.4v-116.4l100.8-58.2l100.8,58.2V-2.4L1439.7,55.8z"/>
      <path fill="#FFFFFF" d="M1354.4-77.2v30.8h10v-30.8H1354.4 M1367.4-71.2v24.8h10v-30.8L1367.4-71.2 M1385.3-77.2v25.9l10,4.9
        v-30.8H1385.3 M1398.3-77.2v30.8l10-4.9v-25.9H1398.3 M1416.2-77.2v30.8h10v-30.8H1416.2 M1428.2-72.3v25.9h10v-30.8L1428.2-72.3
         M1441.1-72.3v25.9h9.9v-30.8L1441.1-72.3 M1459.1-72.3v21l10,4.9v-30.8L1459.1-72.3 M1471-77.2v30.8h10v-30.8H1471 M1495.9-76.6
        h3v16.1h4.9v2.7h-7.8L1495.9-76.6L1495.9-76.6z M1514.6-57.8h-3l-0.5-3.4h-3.6l-0.5,3.4h-2.7l3-18.8h4.3L1514.6-57.8L1514.6-57.8z
         M1507.9-63.8h2.9l-1.4-9.5h-0.1L1507.9-63.8z M1524.9-72.3v0.7c0,1.9-0.6,3.1-1.9,3.8v0.1c1.6,0.6,2.2,2,2.2,4v1.5
        c0,2.9-1.5,4.5-4.5,4.5h-4.7v-18.8h4.5C1523.5-76.6,1524.9-75.2,1524.9-72.3L1524.9-72.3z M1519-73.9v5h1.2c1.1,0,1.8-0.5,1.8-2
        v-1c0-1.3-0.5-1.9-1.5-1.9h-1.5V-73.9z M1519-66.3v5.8h1.7c1,0,1.5-0.5,1.5-1.9V-64c0-1.7-0.6-2.3-1.9-2.3H1519L1519-66.3z"/>
    </a>
    <a href="#quick_quack" data-technologies="rails angular">
      <path class="background quick-quack-bg" d="M1227.5,55.8
        L1126.7-2.4v-116.4l100.8-58.2l100.8,58.2V-2.4L1227.5,55.8z"/>
      <path fill="#FFFFFF" d="M1241.3-80.8c-0.2-0.6-0.4-1.1-0.4-1.7c-0.6-0.9-5.8-1.9-6.8-1.9c-0.2,0-8.8-0.8-9.4,0.4
        c-0.8,1.5-0.8,5.8-0.6,7c0.6-0.9,4.7-3.6,5.8-4c0.9-0.4,5.5-2.1,8.3,2.8c0,0.2,0.2,0.4-0.2,0.4s-0.6,0-0.6-0.4
        c0-0.8-1.3-1.3-1.7-1.5c-1.1-0.4-2.4-0.6-3.6-0.2c-4.3,1.1-7,5.8-7.3,7c-0.6,1.5-2.4,7,3,11.7c0.8,0.8,1.5,1.1,2.4,1.5
        c2.4,0.9,7,1.5,9,0.4c0.2,0,0.2-0.2,0-0.4c-0.2-0.4-6-1.7-8.3-2.8c-1.9-0.9-1.9-8.1-0.8-10.2c0.2-0.6-0.8-0.2-1.7,0.4
        c-0.8,0.4-1.5,0.8-1.5,0.8c-0.2-0.2,0.4-0.8,0.6-0.8c2.4-2.3,5.8-0.9,6.4-0.8c0.8,0.4,1.5,0.6,1.5,0.8c0,0.2-0.2,0.2-0.4,0.2
        c0,0-2.8-0.9-3.4-0.8c-1.1,0.6-0.4,6.6-0.4,6.8c0.2,1.1,0.6,1.7,0.9,1.9c4.1,2.3,18.6-0.4,19.8-1.3
        C1247.7-67.8,1243.5-73.5,1241.3-80.8z"/>
      <path fill="#FFFFFF" d="M1309.8-67.3c-0.2-0.2-2.6-3.8-6.8-3.8c-0.9,0-2.1,0.2-2.8,0.6c-2.3,0.9-4.9,1.9-5.1,3.8
        c0.4,0.6,1.3,1.1,5.1,2.3c-1.3,0.6-15.4-3.8-16.6-8.8c-4.7-0.2-9.4-1.7-13-8.3c0,14.3-20.1,19-30.9,19.8
        c9.8,4.3,20.3,17.5,21.8,18.5c4.9,2.8,20.9,1.1,21.1,0.9C1300.8-43.7,1314.5-61.6,1309.8-67.3L1309.8-67.3z M1260.9-54.1
        c16,8.5,36.9-0.6,41.2-11.5C1297.8-49.2,1268.6-45.8,1260.9-54.1L1260.9-54.1z M1272-109.1c-4-4.5-10.9-5.1-10.9-5.3
        c-0.9-2.3,4.9-8.3,6.6-10c0.2-0.2,0-0.4-0.2-0.2c-0.2,0-14.7,1.7-19.6,7.9c-0.4-2.3,0.9-5.5,2.4-7.7c0-0.4-0.4-0.2-0.6-0.2
        c-13.6,3-24.5,27.3-24.5,37.3c1.1,0.8,10,0.6,15.4,2.8c-1.5-9,1.1-16.9,6.6-18.6c4.3-1.3,9.4,1.9,13,7.7c0.6-1.9,1.7-3.2,3.2-3.8
        c0.9-0.2,2.1-0.2,3,0.4C1266.7-103.9,1268.6-107.8,1272-109.1L1272-109.1z"/>
      <path fill="#FFFFFF" d="M1275.2-105.7c3.4,0,8.1,4.1,10.5,11.9c1.3,4,1.5,7.9,0.9,11.1c-0.6,2.8-1.9,4.7-3.6,5.3
        c-0.4,0.2-0.8,0.2-1.1,0.2c-3.4,0-8.1-4.1-10.5-11.9c-2.6-8.3-0.8-15.3,2.8-16.4C1274.4-105.5,1274.8-105.7,1275.2-105.7
         M1275.2-107.7c-0.6,0-1.1,0-1.9,0.2c-5.1,1.7-7,10.2-4.1,19c2.4,7.9,7.9,13.4,12.6,13.4c0.6,0,1.1,0,1.9-0.2
        c5.1-1.7,7-10.2,4.1-19C1285.3-102.3,1279.9-107.7,1275.2-107.7z M1249.2-98.9c3.4,0,8.1,4.1,10.5,11.9c2.6,8.3,0.8,15.3-2.8,16.4
        h-1.1c-3.4,0-8.1-4.1-10.5-11.9c-1.3-4-1.5-7.9-0.9-11.1c0.6-2.8,1.9-4.7,3.6-5.3H1249.2 M1249.2-101.2c-0.6,0-1.1,0-1.9,0.2
        c-5.1,1.7-7,10.2-4.1,19c2.4,7.9,7.9,13.4,12.6,13.4c0.6,0,1.1,0,1.9-0.2c5.1-1.7,7-10.2,4.1-19
        C1259.3-95.7,1253.9-101.2,1249.2-101.2z"/>
      <path fill="#FFFFFF" stroke="#FFFFFF" stroke-width="2.1718" stroke-miterlimit="10" d="M1260.5-88.2c-0.2-2.3,1.1-7.5,3.4-8.5
        c2.1-0.9,3.6,0.4,5.3,1.9"/>
      <path fill="#FFFFFF" d="M1246.5-55.6c0.9,1.9,1.9,3.6,3.2,5.1c1.1,1.7,2.4,3.2,4,4.5c2.8,2.8,6.2,4.9,10,6.2
        c3.8,1.3,7.7,1.9,11.7,1.5c4-0.2,7.9-1.3,11.7-2.8c0.2,0,0.4,0,0.4,0.2s0,0.4-0.2,0.4c-3.6,2.3-7.5,3.6-11.9,4.1
        c-4.1,0.6-8.7,0.2-12.6-1.3c-4-1.5-7.7-3.8-10.7-7c-2.8-3.2-5.1-6.8-6.2-10.9c0-0.2,0-0.4,0.2-0.4
        C1246.4-55.8,1246.5-55.8,1246.5-55.6L1246.5-55.6z"/>
      <path fill="#FFFFFF" d="M1154.6-54.9c0.6,0,1.3,0.1,2,0.4c0.9,0.4,1.6,1,2.1,1.9c0.5,0.8,0.7,1.7,0.7,2.5c0,1-0.3,1.9-0.9,2.6
        c-0.3,0.4-0.6,0.7-1,1s-0.8,0.5-1.2,0.6c-0.1,0-0.2,0.1-0.2,0.1c0,0.2,0.2,0.3,0.6,0.4c0.4,0.1,0.8,0.2,1.3,0.2
        c0.3,0,0.6-0.1,0.9-0.2h0.2c0.1,0,0.1,0.1,0.2,0.2c0.1,0.1,0.1,0.2,0.1,0.3c0,0.2-0.1,0.5-0.4,0.7c-0.3,0.3-0.7,0.5-1.1,0.6
        c-0.5,0.1-0.9,0.2-1.4,0.2c-0.6,0-1.2-0.1-1.8-0.3c-0.7-0.2-1.6-0.6-2.9-1.2c-0.2-0.1-0.5-0.2-0.8-0.3c-0.3-0.1-0.5-0.1-0.7-0.1
        h-0.3c-0.1,0-0.2,0-0.2-0.1c-0.1-0.1-0.1-0.2-0.1-0.3c0-0.2,0.1-0.4,0.2-0.5c0.2-0.2,0.5-0.3,0.8-0.3h0.4c0.1,0,0.1,0,0.1-0.1
        s-0.1-0.2-0.3-0.4c-0.4-0.5-0.7-0.9-0.9-1.3c-0.3-0.6-0.4-1.3-0.4-2c0-0.9,0.2-1.7,0.7-2.5c0.5-0.7,1.2-1.3,2.1-1.7
        C1153.1-54.7,1153.9-54.9,1154.6-54.9L1154.6-54.9z M1153.9-53c-0.3,0-0.6,0.1-0.8,0.4c-0.2,0.2-0.3,0.6-0.3,1
        c0,0.5,0.1,1,0.2,1.6c0.2,0.6,0.4,1.1,0.6,1.6c0.4,0.7,0.8,1,1.3,1c0.3,0,0.6-0.1,0.9-0.4c0.2-0.2,0.3-0.5,0.3-0.9
        c0-0.5-0.1-1-0.3-1.7c-0.2-0.6-0.4-1.2-0.7-1.7C1155-52.6,1154.5-52.9,1153.9-53z M1163.7-51.9v3.6c0,0.8,0.3,1.1,0.8,1.1
        c0.1,0,0.3,0,0.4-0.1l0.3-0.3c0.1-0.2,0.1-0.7,0.1-1.4s0-1.2-0.1-1.5c0-0.1,0-0.2-0.1-0.2c0,0-0.1-0.1-0.3-0.2
        c-0.2-0.1-0.4-0.3-0.4-0.5c0-0.3,0.2-0.5,0.6-0.6c0.8-0.2,1.6-0.3,2.4-0.3c0.4,0,0.7,0.2,0.7,0.7v4c0,0.1,0.1,0.3,0.4,0.4
        c0.2,0.1,0.3,0.3,0.3,0.5c0,0.4-0.5,0.7-1.4,0.9c-0.5,0.1-1.1,0.2-1.6,0.2c-0.2,0-0.4,0-0.4-0.1c-0.1,0-0.1-0.1-0.1-0.3
        c0-0.3-0.1-0.4-0.2-0.4h-0.1c0,0-0.2,0.1-0.4,0.3c-0.4,0.3-0.9,0.5-1.4,0.5c-0.8,0-1.4-0.2-1.8-0.7c-0.3-0.4-0.4-1.1-0.4-2.1v-1.2
        c0-0.4,0-0.7-0.1-0.8c-0.1-0.2-0.2-0.3-0.4-0.4c-0.2-0.1-0.3-0.2-0.3-0.2c0-0.1-0.1-0.1-0.1-0.2c0-0.3,0.3-0.6,0.8-0.7
        c0.9-0.2,1.7-0.3,2.6-0.3C1163.5-52.2,1163.7-52.1,1163.7-51.9L1163.7-51.9z M1172.8-51.8v3.8c0,0.3,0,0.5,0.1,0.7
        c0.1,0.1,0.2,0.3,0.3,0.4s0.2,0.2,0.3,0.2c0,0.1,0.1,0.2,0.1,0.3c0,0.6-0.7,0.8-2.1,0.8c-0.8,0-1.4-0.1-1.8-0.2
        c-0.2,0-0.3-0.1-0.4-0.2s-0.1-0.2-0.1-0.4c0-0.1,0-0.2,0.1-0.3c0-0.1,0.2-0.2,0.4-0.3c0.1-0.1,0.2-0.3,0.3-0.5s0.1-0.6,0.1-1V-50
        c0-0.2-0.1-0.3-0.4-0.4c-0.3-0.1-0.4-0.3-0.4-0.5c0-0.3,0.2-0.5,0.5-0.6c0.5-0.2,1-0.3,1.6-0.5c0.6-0.1,1-0.2,1.3-0.2
        C1172.7-52.3,1172.8-52.2,1172.8-51.8L1172.8-51.8z M1171.5-54.7c0.4,0,0.7,0.1,0.9,0.2c0.2,0.1,0.3,0.3,0.3,0.6s-0.2,0.6-0.5,0.8
        c-0.5,0.3-1.2,0.5-1.9,0.5c-0.3,0-0.6-0.1-0.8-0.2c-0.3-0.2-0.4-0.4-0.4-0.7c0-0.4,0.3-0.7,0.8-0.9
        C1170.5-54.7,1171.1-54.7,1171.5-54.7L1171.5-54.7z M1177.7-52.3c0.8,0,1.5,0.2,2.1,0.6s0.8,0.8,0.8,1.4c0,0.4-0.1,0.7-0.4,0.9
        c-0.2,0.2-0.5,0.3-0.9,0.3s-0.6-0.1-0.8-0.4c-0.1-0.1-0.1-0.3-0.3-0.6c-0.1-0.4-0.3-0.6-0.7-0.6c-0.2,0-0.4,0.1-0.6,0.3
        c-0.2,0.2-0.2,0.5-0.2,0.8c0,0.5,0.2,1,0.6,1.4c0.3,0.3,0.7,0.5,1.2,0.5c0.2,0,0.4,0,0.6-0.1s0.3-0.1,0.6-0.2h0.2
        c0.1,0,0.3,0.1,0.4,0.2c0.1,0.1,0.2,0.3,0.2,0.5s-0.1,0.4-0.2,0.6c-0.1,0.2-0.4,0.4-0.6,0.6c-0.6,0.4-1.2,0.5-2,0.5
        c-0.9,0-1.7-0.3-2.3-0.8c-0.8-0.7-1.2-1.5-1.2-2.5s0.4-1.8,1.1-2.5C1175.8-52.1,1176.7-52.4,1177.7-52.3L1177.7-52.3z
         M1184.8-54.4l-0.1,2.1v1.7c0,0.2,0.1,0.3,0.3,0.3c0.1,0,0.3-0.1,0.6-0.3c0.3-0.2,0.4-0.3,0.4-0.4c0,0,0-0.1-0.1-0.3
        c-0.1-0.1-0.1-0.2-0.1-0.3c0-0.5,0.6-0.7,1.7-0.7c0.6,0,1.1,0.1,1.4,0.2c0.1,0,0.3,0.1,0.3,0.3c0.1,0.1,0.1,0.2,0.1,0.4
        s-0.1,0.3-0.3,0.4c0,0-0.2,0-0.4,0.1c-0.2,0-0.4,0.2-0.8,0.4c-0.4,0.2-0.5,0.4-0.5,0.4c0,0.1,0.2,0.3,0.6,0.9c0.4,0.6,0.7,1,1,1.3
        l0.5,0.5c0,0,0.3,0.2,0.5,0.3c0.3,0.2,0.5,0.4,0.5,0.6s-0.1,0.4-0.3,0.5c-0.2,0.1-0.5,0.2-0.8,0.2h-2.1c-0.3,0-0.5-0.1-0.6-0.3
        l-1.1-1.4c-0.3-0.4-0.5-0.6-0.5-0.7s-0.1-0.1-0.2-0.1c-0.1,0-0.1,0-0.1,0.1v0.4c0,0.2,0,0.3,0.1,0.4c0,0.1,0.1,0.2,0.3,0.3
        c0.1,0.1,0.2,0.2,0.2,0.4c0,0.3-0.2,0.5-0.5,0.7c-0.3,0.2-0.9,0.2-1.6,0.2c-0.9,0-1.4,0-1.7-0.1c-0.1,0-0.3-0.1-0.4-0.3
        c-0.1-0.1-0.2-0.3-0.2-0.4c0-0.2,0.1-0.3,0.3-0.4c0.2-0.1,0.3-0.2,0.3-0.2s0.1-0.1,0.1-0.3c0.1-0.6,0.1-1.6,0.1-2.8v-1.4
        c0-0.5,0-0.8-0.1-0.9s-0.2-0.2-0.4-0.2c-0.4,0-0.5-0.2-0.5-0.4s0.1-0.3,0.2-0.5c0.2-0.1,0.4-0.3,0.8-0.4c1.1-0.4,2-0.6,2.6-0.6
        C1184.7-54.7,1184.8-54.6,1184.8-54.4L1184.8-54.4z M1199.3-54.9c0.6,0,1.3,0.1,2,0.4c0.9,0.4,1.6,1,2.1,1.9
        c0.5,0.8,0.7,1.7,0.7,2.5c0,1-0.3,1.9-0.9,2.6c-0.3,0.4-0.6,0.7-1,1s-0.8,0.5-1.2,0.6c-0.1,0-0.2,0.1-0.2,0.1
        c0,0.2,0.2,0.3,0.6,0.4s0.8,0.2,1.3,0.2c0.3,0,0.6-0.1,0.9-0.2h0.2c0.1,0,0.1,0.1,0.2,0.2c0.1,0.1,0.1,0.2,0.1,0.3
        c0,0.2-0.1,0.5-0.4,0.7c-0.3,0.3-0.7,0.5-1.1,0.6c-0.5,0.1-0.9,0.2-1.4,0.2c-0.6,0-1.2-0.1-1.8-0.3c-0.7-0.2-1.6-0.6-2.9-1.2
        c-0.2-0.1-0.5-0.2-0.8-0.3c-0.3-0.1-0.5-0.1-0.7-0.1h-0.3c-0.1,0-0.2,0-0.2-0.1c-0.1-0.1-0.1-0.2-0.1-0.3c0-0.2,0.1-0.4,0.2-0.5
        c0.2-0.2,0.5-0.3,0.8-0.3h0.4c0.1,0,0.1,0,0.1-0.1s-0.1-0.2-0.3-0.4c-0.4-0.5-0.7-0.9-0.9-1.3c-0.3-0.6-0.4-1.3-0.4-2
        c0-0.9,0.2-1.7,0.7-2.5c0.5-0.7,1.2-1.3,2.1-1.7C1197.8-54.7,1198.6-54.9,1199.3-54.9L1199.3-54.9z M1198.6-53
        c-0.3,0-0.6,0.1-0.8,0.4c-0.2,0.2-0.3,0.6-0.3,1c0,0.5,0.1,1,0.2,1.6c0.2,0.6,0.4,1.1,0.6,1.6c0.4,0.7,0.8,1,1.3,1
        c0.3,0,0.6-0.1,0.9-0.4c0.2-0.2,0.3-0.5,0.3-0.9c0-0.5-0.1-1-0.3-1.7c-0.2-0.6-0.4-1.2-0.7-1.7C1199.7-52.6,1199.2-52.9,1198.6-53
        z M1208.4-51.9v3.6c0,0.8,0.3,1.1,0.8,1.1c0.1,0,0.3,0,0.4-0.1l0.3-0.3c0.1-0.2,0.1-0.7,0.1-1.4s0-1.2-0.1-1.5
        c0-0.1,0-0.2-0.1-0.2c0,0-0.1-0.1-0.3-0.2c-0.3-0.1-0.4-0.3-0.4-0.5c0-0.3,0.2-0.5,0.6-0.6c0.8-0.2,1.6-0.3,2.4-0.3
        c0.4,0,0.7,0.2,0.7,0.7v4c0,0.1,0.1,0.3,0.4,0.4c0.2,0.1,0.3,0.3,0.3,0.5c0,0.4-0.5,0.7-1.4,0.9c-0.5,0.1-1.1,0.2-1.6,0.2
        c-0.2,0-0.4,0-0.4-0.1c-0.1,0-0.1-0.1-0.1-0.3c0-0.3-0.1-0.4-0.3-0.4h-0.1c0,0-0.2,0.1-0.4,0.3c-0.4,0.3-0.9,0.5-1.4,0.5
        c-0.8,0-1.4-0.2-1.8-0.7c-0.3-0.4-0.4-1.1-0.4-2.1v-1.2c0-0.4,0-0.7-0.1-0.8c-0.1-0.2-0.2-0.3-0.4-0.4c-0.2-0.1-0.3-0.2-0.3-0.2
        c0-0.1-0.1-0.1-0.1-0.2c0-0.3,0.3-0.6,0.8-0.7c0.9-0.2,1.7-0.3,2.6-0.3C1208.2-52.2,1208.4-52.1,1208.4-51.9L1208.4-51.9z
         M1217.6-52.3c0.8,0,1.4,0.2,1.9,0.6c0.3,0.2,0.5,0.4,0.6,0.7c0.1,0.3,0.2,0.6,0.2,1.1v1c0,0.7,0,1.1,0.1,1.3
        c0,0.1,0.1,0.2,0.1,0.2s0.1,0,0.3,0.1c0.1,0,0.2,0.1,0.2,0.3c0,0.2-0.1,0.4-0.3,0.7c-0.2,0.2-0.4,0.4-0.7,0.6
        c-0.3,0.2-0.7,0.3-1,0.3c-0.5,0-0.8-0.2-1.1-0.5c-0.1-0.1-0.2-0.2-0.3-0.2s-0.2,0.1-0.3,0.2c-0.4,0.3-0.9,0.5-1.5,0.5
        s-1-0.1-1.4-0.4l-0.6-0.6c0,0-0.2-0.5-0.2-0.8c0-0.5,0.2-0.9,0.6-1.2c0.6-0.6,1.4-0.8,2.6-0.8c0.3,0,0.4,0,0.5-0.1
        s0.1-0.2,0.1-0.4c0-0.5,0-0.8-0.1-1s-0.3-0.3-0.5-0.3c-0.1,0-0.2,0-0.4,0.1l-0.4,0.4c-0.4,0.6-0.8,0.8-1.2,0.8
        c-0.2,0-0.4-0.1-0.5-0.2s-0.2-0.3-0.2-0.5s0.1-0.4,0.3-0.6c0.2-0.2,0.4-0.4,0.7-0.6C1215.9-52.1,1216.8-52.3,1217.6-52.3
        L1217.6-52.3z M1217.2-48.5c-0.2,0-0.4,0.1-0.5,0.2c-0.1,0.2-0.2,0.3-0.2,0.6c0,0.2,0.1,0.4,0.2,0.5c0.1,0.1,0.2,0.2,0.4,0.2
        c0.4,0,0.5-0.3,0.5-0.9c0-0.2,0-0.4-0.1-0.5C1217.4-48.4,1217.3-48.5,1217.2-48.5L1217.2-48.5z M1225.3-52.3
        c0.8,0,1.5,0.2,2.1,0.6s0.8,0.8,0.8,1.4c0,0.4-0.1,0.7-0.4,0.9c-0.2,0.2-0.5,0.3-0.9,0.3s-0.6-0.1-0.8-0.4
        c-0.1-0.1-0.1-0.3-0.3-0.6c-0.1-0.4-0.3-0.6-0.7-0.6c-0.2,0-0.4,0.1-0.6,0.3c-0.2,0.2-0.2,0.5-0.2,0.8c0,0.5,0.2,1,0.6,1.4
        c0.3,0.3,0.7,0.5,1.2,0.5c0.2,0,0.4,0,0.6-0.1s0.3-0.1,0.6-0.2h0.2c0.1,0,0.3,0.1,0.4,0.2c0.1,0.1,0.2,0.3,0.2,0.5
        s-0.1,0.4-0.2,0.6c-0.1,0.2-0.4,0.4-0.6,0.6c-0.6,0.4-1.2,0.5-2,0.5c-0.9,0-1.7-0.3-2.3-0.8c-0.8-0.7-1.2-1.5-1.2-2.5
        s0.4-1.8,1.1-2.5C1223.3-52.1,1224.2-52.4,1225.3-52.3L1225.3-52.3z M1232.3-54.4l-0.1,2.1v1.7c0,0.2,0.1,0.3,0.3,0.3
        c0.1,0,0.3-0.1,0.6-0.3c0.3-0.2,0.4-0.3,0.4-0.4c0,0,0-0.1-0.1-0.3c-0.1-0.1-0.1-0.2-0.1-0.3c0-0.5,0.6-0.7,1.7-0.7
        c0.6,0,1.1,0.1,1.4,0.2c0.1,0,0.3,0.1,0.3,0.3c0.1,0.1,0.1,0.2,0.1,0.4s-0.1,0.3-0.3,0.4c0,0-0.2,0-0.4,0.1
        c-0.2,0-0.4,0.2-0.8,0.4c-0.4,0.2-0.5,0.4-0.5,0.4c0,0.1,0.2,0.3,0.6,0.9c0.4,0.6,0.7,1,1,1.3l0.5,0.5c0,0,0.3,0.2,0.5,0.3
        c0.3,0.2,0.5,0.4,0.5,0.6s-0.1,0.4-0.3,0.5c-0.2,0.1-0.5,0.2-0.8,0.2h-2.1c-0.3,0-0.5-0.1-0.6-0.3l-1.1-1.4
        c-0.3-0.4-0.5-0.6-0.5-0.7s-0.1-0.1-0.2-0.1c-0.1,0-0.1,0-0.1,0.1v0.4c0,0.2,0,0.3,0.1,0.4c0,0.1,0.1,0.2,0.3,0.3
        c0.1,0.1,0.2,0.2,0.2,0.4c0,0.3-0.2,0.5-0.5,0.7c-0.3,0.2-0.9,0.2-1.6,0.2c-0.9,0-1.4,0-1.7-0.1c-0.1,0-0.3-0.1-0.4-0.3
        c-0.1-0.1-0.2-0.3-0.2-0.4c0-0.2,0.1-0.3,0.3-0.4c0.2-0.1,0.3-0.2,0.3-0.2s0.1-0.1,0.1-0.3c0.1-0.6,0.1-1.6,0.1-2.8v-1.4
        c0-0.5,0-0.8-0.1-0.9s-0.2-0.2-0.4-0.2c-0.4,0-0.5-0.2-0.5-0.4s0.1-0.3,0.2-0.5c0.2-0.1,0.4-0.3,0.8-0.4c1.1-0.4,2-0.6,2.6-0.6
        C1232.2-54.7,1232.3-54.6,1232.3-54.4L1232.3-54.4z"/>
      <path fill="#FFFFFF" d="M1148.6-24.5l3-14.9c0-1.5,1.1-2.6,2.6-2.6h-1.7c-1.5,0-2.6,1.1-2.6,2.6l-3,14.9c0,1.5,1.1,2.6,2.6,2.6
        h1.7C1150-21.9,1148.6-23,1148.6-24.5z"/>
      <path fill="#FFFFFF" d="M1145.1-24.5l3-14.9c0-1.5,1.1-2.6,2.6-2.6h-1.7c-1.5,0-2.6,1.1-2.6,2.6l-3,14.9c0,1.5,1.1,2.6,2.6,2.6
        h1.7C1146.2-21.9,1145.1-23,1145.1-24.5z"/>
      <path fill="#FFFFFF" d="M1182.7-34.9h-1.7l-0.4,2.3h1.7c0.6,0,1.1-0.4,1.1-1.1C1183.7-34.5,1183.5-34.9,1182.7-34.9L1182.7-34.9z
         M1208.7-34.5v-0.4h-0.2c-0.2,0.8-0.4,1.7-0.8,2.4l-0.9,2.1h1.9l-0.2-2.1C1208.5-33.2,1208.5-33.9,1208.7-34.5z M1172.5-34.5v-0.4
        h-0.2c-0.2,0.8-0.4,1.7-0.8,2.4l-0.9,2.1h1.9l-0.2-2.1C1172.4-33.2,1172.4-33.9,1172.5-34.5z"/>
      <path fill="#FFFFFF" d="M1237.5-42h-82.3c-1.1,0-2.1,1.1-2.1,2.6l-2.4,14.9c0,1.5,0.9,2.6,2.1,2.6h82.3c1.1,0,2.1-1.1,2.1-2.6
        l2.4-14.9C1239.6-40.9,1238.6-42,1237.5-42z M1161.2-25.3c-1.5,0-2.4-0.4-3.2-1.3c-0.8-0.9-0.9-2.1-0.8-3.8l0.6-3.2
        c0.4-3,2.4-4.7,5.3-4.7c2.3,0,3.4,1.1,3.8,3.2c0.2,0.6,0,0.8-0.6,0.9l-1.5,0.6c-0.6,0.2-0.6,0-0.8-0.6c-0.2-0.8-0.6-1.1-1.3-1.1
        c-1.1,0-1.7,0.6-1.9,1.9l-0.6,3.2c-0.2,1.3,0.2,1.9,1.3,1.9c0.8,0,1.3-0.4,1.7-1.1c0.4-0.6,0.4-0.8,0.9-0.6l1.5,0.8
        c0.4,0.2,0.6,0.6,0.2,0.9C1165.2-26.2,1163.7-25.3,1161.2-25.3L1161.2-25.3z M1175.7-25.5h-1.5c-0.8,0-0.9-0.2-0.9-0.8l-0.2-1.3
        h-3.2l-0.6,1.3c-0.2,0.6-0.6,0.8-1.1,0.8h-1.7c-0.4,0-0.6-0.2-0.4-0.8l5.1-11.1c0.2-0.6,0.4-0.6,0.9-0.6h1.7
        c0.4,0,0.6,0.2,0.8,0.6l1.9,11.1C1176.3-25.8,1176.1-25.5,1175.7-25.5z M1186.7-33.6c-0.2,1.7-0.9,2.8-2.1,3.4
        c0,0.2,0.2,0.4,0.4,0.8l0.9,3c0.2,0.6,0,0.9-0.6,0.9h-1.7c-0.8,0-1.1-0.2-1.3-0.8l-0.6-2.4c-0.2-0.8-0.4-0.9-0.9-0.9h-0.3
        l-0.6,3.4c-0.2,0.6-0.2,0.8-0.8,0.8h-1.7c-0.6,0-0.6-0.2-0.6-0.8l1.7-10.9c0.2-0.6,0.2-0.8,0.8-0.8h4.3
        C1185.9-38.1,1187-36.4,1186.7-33.6L1186.7-33.6z M1199.3-25.5h-1.9c-0.4,0-0.8-0.2-0.8-0.6l-0.2-4.1c0-1.1,0-2.1,0.2-3.2h-0.1
        c-0.2,1.1-0.4,2.1-0.8,3.2l-1.5,4.1c-0.2,0.6-0.4,0.6-0.9,0.6h-1.9c-0.4,0-0.8-0.2-0.8-0.6l-0.6-11.1c0-0.6,0-0.8,0.6-0.8h1.9
        c0.6,0,0.8,0.2,0.8,0.6v4.5c0,0.9-0.2,2.1-0.2,3.2h0.2c0.2-1.1,0.4-2.3,0.8-3.2l1.7-4.5c0.2-0.6,0.4-0.6,0.9-0.6h1.7
        c0.6,0,0.8,0.2,0.8,0.6l0.2,4.5c0,0.8,0,1.9-0.2,3.2h0.2c0.2-0.9,0.4-1.9,0.8-3.2l1.3-4.5c0.2-0.6,0.4-0.6,0.9-0.6h1.7
        c0.4,0,0.6,0.2,0.4,0.8l-4,11.1C1200-25.7,1199.7-25.5,1199.3-25.5L1199.3-25.5z M1211.9-25.5h-1.5c-0.8,0-0.9-0.2-0.9-0.8
        l-0.2-1.3h-3.2l-0.6,1.3c-0.2,0.6-0.6,0.8-1.1,0.8h-1.9c-0.4,0-0.6-0.2-0.4-0.8l5.1-11.1c0.2-0.6,0.4-0.6,0.9-0.6h1.9
        c0.4,0,0.6,0.2,0.8,0.6l1.9,11.1C1212.5-25.8,1212.3-25.5,1211.9-25.5z M1218.5-33.4c1.7,0.4,4,1.1,3.4,4.3
        c-0.4,2.4-2.1,3.8-5.1,3.8c-2.3,0-3.8-0.9-4.1-2.6c0-0.6,0.2-0.8,0.6-0.9l1.5-0.6c0.6-0.2,0.8-0.2,0.8,0.4
        c0.2,0.6,0.8,0.9,1.5,0.9c1.1,0,1.7-0.4,1.7-0.9c0.2-0.6-0.4-0.8-1.7-1.1c-0.8-0.2-1.3-0.2-2.1-0.8c-0.4-0.2-0.8-0.4-0.9-0.8
        c-0.4-0.6-0.8-1.7-0.6-3c0.4-2.3,2.1-3.6,4.9-3.6c2.1,0,3.2,0.9,3.8,2.6c0.2,0.6,0,0.8-0.4,0.9l-1.5,0.8c-0.4,0.2-0.6,0.2-0.8-0.4
        c-0.2-0.6-0.6-0.9-1.3-0.9c-0.9,0-1.5,0.4-1.5,0.9C1216.6-33.7,1217.2-33.7,1218.5-33.4L1218.5-33.4z M1233-37.3l-1.7,10.9
        c-0.2,0.6-0.2,0.8-0.8,0.8h-1.7c-0.6,0-0.6-0.2-0.6-0.8l0.6-4h-3l-0.6,4c0,0.6-0.2,0.8-0.8,0.8h-1.7c-0.6,0-0.6-0.2-0.6-0.8
        l1.7-10.9c0.2-0.6,0.2-0.8,0.8-0.8h1.7c0.6,0,0.6,0.2,0.6,0.8l-0.6,4h3l0.6-4c0-0.6,0.4-0.8,0.8-0.8h1.7
        C1233-38.1,1233.2-37.9,1233-37.3z"/>
    </a>
    <a href="#twadlock" data-technologies="rails react">
      <path class="background twadlock-bg" d="M1015.3,55.8L914.5-2.4
        v-116.4l100.8-58.2l100.8,58.2V-2.4L1015.3,55.8z"/>
      <path fill="#FFFFFF" d="M949.3-71.9c1.1,0,2.6-0.3,3.1-0.5v4.6h-0.3v-0.3c0-1.6-1-2.7-2.6-2.7H946v15.5c0,0.9,0.8,1.6,1.7,1.6h0.3
        v0.3h-8v-0.3h0.3c0.9,0,1.6-0.7,1.7-1.6v-15.5h-5.2c-2.9,0-4.6,2.2-2.9,4.9l-0.3,0.1c-2.7-2.7-0.8-6.2,3.2-6.2h12.5V-71.9z
         M976.4-71.3c0.9-3.3,3.7-7.5,9.2-7v0.3c-4.3,0.3-6.3,3.8-7.3,6.7l-5,15.5c0,0-0.5,1.6-0.5,2.9h-0.2l-5.7-12.7l-4.7,11.1
        c-1,2.6-3.9,6.6-7.9,5.7v-0.3c3.4-0.2,5.6-4.2,6.5-6.4l-5.4-14.6c-0.5-1.1-1.5-1.5-2.3-1.5h-0.2v-0.3h8v0.3h-0.2
        c-0.7,0-1.4,0.6-1,1.7l3.2,9.1l4.8-11.5h0.2l5.2,11.6L976.4-71.3L976.4-71.3z"/>
      <path fill="#FFFFFF" d="M1002.5-48.6c-4.6,2.3-10.3,0-13.3-7.8l-0.8-2.2h-6.3l-1.4,3.3c-0.4,1.1,0.3,1.7,1,1.7h0.2v0.3h-5.7v-0.3
        h0.2c0.7,0,1.6-0.4,2.2-1.4l5.9-13.4c-1.1-2.6-2.8-4.7-5.7-3.7l-0.1-0.3c5.4-2.8,8.5,0.7,10.5,5.5l3.8,9.4
        c1.7,4.3,4.5,9.8,9.3,8.7L1002.5-48.6L1002.5-48.6z M988-59.7l-1.8-4.9c-0.2-0.6-0.4-1.2-0.7-1.9l-2.8,6.8H988z"/>
      <path fill="#FFFFFF" d="M993-66.9c0.9-3.6,3.7-5,8.1-5h6c6.2,0,10.1,3.5,10.1,9.2s-3.9,9.2-10.1,9.2h-9.6v-0.3h0.3
        c0.9,0,1.6-0.7,1.7-1.6v-15.4c-4.1,0.3-5.4,2-6.3,3.9L993-66.9L993-66.9z M1003.5-54.5h3.3c3.8,0,6.1-3.1,6.1-8.1
        s-2.4-8.1-6.1-8.1h-3.3V-54.5z M1045-50.6c-5.3,7.4-14.5,1.4-19.8-1.1c-1.7-0.8-3.7-1.7-6.3-1.7v-0.3h0.3c0.9,0,1.7-0.7,1.7-1.7
        V-70c0-0.9-0.8-1.7-1.7-1.7h-0.3V-72h8v0.3h-0.3c-1,0-1.7,0.7-1.8,1.7v15.3c0,0.9,0.3,1.4,1.1,1.7c8.4,2.7,15.2,4.4,18.8,2.2
        L1045-50.6z"/>
      <path fill="#FFFFFF" d="M1037.6-65.2c-1.2-2.7-0.1-6.6,4.4-7c4.7-0.5,10.6,2.9,10.6,9.4c0,5.9-4.7,9.8-11.4,9.8
        c-6.8,0-11.5-3.9-11.5-9.7c0-4.4,2.7-7.8,6.9-9l0.2,0.3c-1.9,1.6-2.7,4.8-2.7,8c0,5.8,2.9,9.3,7.2,9.3c4.2,0,7.1-3.4,7.1-8.7
        c0-4.7-2.3-8.5-6.3-8.3c-3.4,0.2-4.8,3.2-4.1,5.9L1037.6-65.2L1037.6-65.2z M1075.4-63.7c0.7,7-3.3,10.7-9.1,10.7
        c-7.3,0-11.6-4-11.6-9.5c0-5.7,4.6-9.7,11.5-9.7c2.8,0,5.2,0.6,6.8,1.4l0.1,4.5h-0.2c-1-3.5-3.7-4.8-6.5-4.8
        c-4.5,0-7.3,3.4-7.3,8.3c0,5,2.8,8.5,7.7,8.6c5,0,8.6-3.4,8.4-9.6L1075.4-63.7L1075.4-63.7z M1082.8-55.3c0,0.9,0.8,1.7,1.7,1.7
        h0.3v0.3h-8v-0.3h0.3c0.9,0,1.7-0.7,1.7-1.7v-14.6c0-0.9-0.8-1.6-1.7-1.6h-0.3v-0.3h8v0.3h-0.3c-0.9,0-1.7,0.7-1.7,1.6V-55.3z
         M1103.3-48.9c-4.3,2.2-8.4,0.8-12.7-4.6l-7-8.5l6.3-8.3c0.4-0.6,0.1-1.3-0.6-1.3h-0.3v-0.2h6v0.2h-0.1c-1.2,0-2.2,0.5-2.9,1.3
        l-5.1,6.1l7.2,8.9c3.2,4.2,5.7,6,9.2,6.2L1103.3-48.9L1103.3-48.9z"/>
    </a>
    <a href="#upstack" class="project-button" data-technologies="rails react">
      <path class="background upstack-bg" d="M802.8,55.9L702-2.3
        v-116.5L802.8-177l100.8,58.2V-2.3L802.8,55.9z"/>
      <g id="Layer_1">
        <g>
          <path class="st0" d="M780.9-59.4c-4.1-0.3-7.5-0.8-7.5-2.8c0-0.5,0.2-1,0.6-1.4c1.3-1.2,4-1.7,6.2-1.6c3,0,5.6,0.9,7.3,2.6
            l0.2,0.1l2.1-1.8l-0.2-0.2c-2.4-2.1-5.8-3.3-9.4-3.3c-2.5,0-4.8,0.5-6.5,1.4c-1.9,1-2.9,2.5-2.9,4.2c0,1.9,1,4.5,9.7,5.3
            c5,0.4,7.4,1,7.4,2.9c0,2.1-2.5,3.4-6.7,3.4c-3.6,0-6.5-1.1-9.1-3.3l-0.2-0.1l-1.8,2l0.2,0.2c2.8,2.4,6.6,3.8,10.8,3.8
            c5.8,0,9.5-2.4,9.5-6C790.5-58.1,785.9-59,780.9-59.4z"/>
          <path class="st0" d="M839.8-65.5c3.3,0,5.7,1.2,7,3.4l0.1,0.2l2.5-1.2l-0.1-0.2c-1.9-2.9-5.2-4.6-9.4-4.6
            c-6.9,0-11.2,3.8-11.2,9.8c0,6.1,4.3,9.8,11.1,9.8c4.3,0,7.6-1.6,9.5-4.6l0.1-0.2l-2.5-1.2l-0.1,0.2c-1.3,2.2-3.7,3.4-7,3.4
            c-5.4,0-8.5-2.7-8.5-7.4C831.2-62.9,834.3-65.5,839.8-65.5z"/>
          <polygon class="st0" points="862.9,-60.1 872.3,-67.5 868.5,-67.5 855,-57.1 855,-67.5 852.3,-67.5 852.3,-48.9 855,-48.9
            855,-54 860.8,-58.5 869.3,-48.9 872.7,-48.9" />
          <polygon class="st0" points="791.8,-67.5 791.8,-65.1 800.4,-65.1 800.4,-48.9 803,-48.9 803,-65.1 810.4,-65.1 811.7,-67.5
                    "/>
          <polygon class="st0" points="815.4,-67.5 821.6,-56.2 811.9,-56.2 810.7,-53.8 822.9,-53.8 825.6,-48.9 828.6,-48.9
            818.3,-67.5" />
          <path class="st0" d="M734.4-47.7c6.2,0,10-3.6,10-9.5v-10h-2.9v9.8c0,4.3-2.6,6.8-7,6.8c-4.5,0-7-2.5-7-6.8v-9.8h-2.9v10
            C724.4-51.4,728.3-47.7,734.4-47.7z"/>
          <polygon class="st0" points="724.6,-41 765.6,-41 765.6,-43.7 724.6,-43.7" />
          <path class="st0" d="M760.2-67.2h-12.5v2.8h12.4c2.9,0,4.5,1.2,4.5,3.4s-1.6,3.4-4.5,3.4h-12.4v9.4h2.9v-6.6h9.6
            c4.5,0,7.3-2.4,7.3-6.2C767.6-64.9,764.8-67.2,760.2-67.2z"/>
        </g>
      </g>
    </a>
  </g>
  <g id="dots">
    <circle id="XMLID_39_" fill="#FFFFFF" cx="1667.5" cy="-121.7" r="13.1">

      <animate  fill="remove" values=".25;.25;1;.25;.25" attributeName="fill-opacity" dur="2.5s" additive="replace" begin="0s" calcMode="linear" restart="always" accumulate="none" attributeType="XML" xlink:href="#XMLID_39_" xmlns:xlink="http://www.w3.org/1999/xlink" repeatCount="indefinite">
      </animate>
    </circle>
    <circle id="XMLID_40_" opacity="0.2" fill="#FFFFFF" enable-background="new    " cx="1622.5" cy="-121.7" r="13.1"/>
    <circle id="XMLID_41_" opacity="0.2" fill="#FFFFFF" enable-background="new    " cx="1667.5" cy="-76.7" r="13.1"/>
    <circle id="XMLID_36_" opacity="0.2" fill="#FFFFFF" enable-background="new    " cx="1590.2" cy="262.9" r="10.7"/>
    <circle id="XMLID_43_" opacity="0.2" fill="#FFFFFF" enable-background="new    " cx="512.2" cy="584.9" r="10.7"/>
    <circle id="XMLID_44_" opacity="0.2" fill="#FFFFFF" enable-background="new    " cx="545.2" cy="584.9" r="10.7"/>
    <circle id="XMLID_45_" opacity="0.2" fill="#FFFFFF" enable-background="new    " cx="512.2" cy="552.9" r="10.7"/>
  </g>
  <g id="lines">

      <path id="XMLID_22_" opacity="0.2" fill="none" stroke="#FFFFFF" stroke-width="3" stroke-miterlimit="10" enable-background="new    " d="
      M649.3-181.3l84.3-0.2v-43.6h494v49.5"/>

      <path id="XMLID_25_" opacity="0.2" fill="none" stroke="#FFFFFF" stroke-width="3" stroke-miterlimit="10" enable-background="new    " d="
      M649.1-131.1h40.7l-0.2,315h-225v436h657v-10.5"/>

      <path id="XMLID_32_" opacity="0.2" fill="none" stroke="#FFFFFF" stroke-width="3" stroke-miterlimit="10" enable-background="new    " d="
      M649.1-80.1h18.5v196h141.5"/>

      <path id="XMLID_42_" opacity="0.2" fill="none" stroke="#FFFFFF" stroke-width="3" stroke-miterlimit="10" enable-background="new    " d="
      M649.1-28.1h27.5v159h-199v508h934v-38h60v39h201v-341h-27v60h-34v-119h-42v64h-30.5"/>

      <path id="XMLID_26_" opacity="0.2" fill="none" stroke="#FFFFFF" stroke-width="3" stroke-miterlimit="10" enable-background="new    " d="
      M649.1,22.9h9.5v-223h887V8.4"/>

      <path id="XMLID_37_" opacity="0.2" fill="none" stroke="#FFFFFF" stroke-width="3" stroke-miterlimit="10" enable-background="new    " d="
      M649.1,74.9h7.5v82h-66v35.5"/>
  </g>
</svg>
