<svg xmlns="http://www.w3.org/2000/svg" viewBox="0 0 68 100.7"><g><path fill="#AE95C9" d="M64.2 0l-3.8 2.2v4.3l3.8 2.2L68 6.5V2.2"/><path fill="none" stroke="#AE95C9" stroke-width="2" stroke-miterlimit="10" d="M68 4.3H12.8c-3.6 0-6.4 2.9-6.4 6.4V43.5c0 3.5-2.9 6.9-6.4 6.9"/></g><g><path fill="#AE95C9" d="M64.2 23l-3.8 2.2v4.3l3.8 2.2 3.8-2.2v-4.3"/><path fill="none" stroke="#AE95C9" stroke-width="2" stroke-miterlimit="10" d="M68 27.4H12.8c-3.6 0-6.4 2.9-6.4 6.4v9.8c0 3.5-2.9 6.9-6.4 6.9"/></g><g><path fill="#AE95C9" d="M64.2 46l-3.8 2.2v4.3l3.8 2.2 3.8-2.2v-4.3"/><path fill="none" stroke="#AE95C9" stroke-width="2" stroke-miterlimit="10" d="M0 50.4h68"/></g><g><path fill="#AE95C9" d="M64.2 69l-3.8 2.2v4.3l3.8 2.2 3.8-2.2v-4.3"/><path fill="none" stroke="#AE95C9" stroke-width="2" stroke-miterlimit="10" d="M0 50.4c3.5 0 6.4 3.4 6.4 6.9v9.8c0 3.5 2.8 6.4 6.4 6.4H68"/></g><g><path fill="#AE95C9" d="M64.2 92l-3.8 2.2v4.3l3.8 2.2 3.8-2.2v-4.3"/><path fill="none" stroke="#AE95C9" stroke-width="2" stroke-miterlimit="10" d="M0 50.5c3.5 0 6.4 3.4 6.4 6.9V90.2c0 3.5 2.8 6.4 6.4 6.4H68"/></g></svg>
