<svg xmlns="http://www.w3.org/2000/svg" xmlns:xlink="http://www.w3.org/1999/xlink" viewBox="397 -292.6 1219.3 867.1"><a><g fill="#FFF"><path opacity=".2" d="M576.6-228.9H432.9c-3.8 0-6.8-3.1-6.8-6.8v-29c0-3.8 3.1-6.8 6.8-6.8h143.7c3.8 0 6.8 3.1 6.8 6.8v29c0 3.8-3.1 6.8-6.8 6.8z"/><text transform="translate(436.287 -243.836)" font-family="'Arial-BoldMT'" font-size="18">Ruby on Rails</text></g></a><a><g fill="#FFF"><path opacity=".2" d="M576.6-177H432.9c-3.8 0-6.8-3.1-6.8-6.8v-29c0-3.8 3.1-6.8 6.8-6.8h143.7c3.8 0 6.8 3.1 6.8 6.8v29c0 3.7-3.1 6.8-6.8 6.8z"/><text transform="translate(436.287 -192.336)" font-family="'Arial-BoldMT'" font-size="18">AngularJS</text></g></a><a><g fill="#FFF"><path opacity=".2" d="M576.6-125.6H432.9c-3.8 0-6.8-3.1-6.8-6.8v-29c0-3.8 3.1-6.8 6.8-6.8h143.7c3.8 0 6.8 3.1 6.8 6.8v29c0 3.8-3.1 6.8-6.8 6.8z"/><text transform="translate(436.287 -141.836)" font-family="'Arial-BoldMT'" font-size="18">ReactJS</text></g></a><a><g fill="#FFF"><path opacity=".2" d="M576.6-74.1H432.9c-3.8 0-6.8-3.1-6.8-6.8v-29c0-3.8 3.1-6.8 6.8-6.8h143.7c3.8 0 6.8 3.1 6.8 6.8v29c0 3.7-3.1 6.8-6.8 6.8z"/><text transform="translate(436.287 -89.46)" font-family="'Arial-BoldMT'" font-size="18">Backbone.js</text></g></a><a><g fill="#FFF"><path opacity=".2" d="M576.6-22.3H432.9c-3.8 0-6.8-3.1-6.8-6.8v-29c0-3.8 3.1-6.8 6.8-6.8h143.7c3.8 0 6.8 3.1 6.8 6.8v29c0 3.7-3.1 6.8-6.8 6.8z"/><text transform="translate(436.287 -38.21)" font-family="'Arial-BoldMT'" font-size="18">Android</text></g></a><a><g fill="#FFF"><path opacity=".2" d="M576.6 29.2H432.9c-3.8 0-6.8-3.1-6.8-6.8v-29c0-3.8 3.1-6.8 6.8-6.8h143.7c3.8 0 6.8 3.1 6.8 6.8v29c0 3.7-3.1 6.8-6.8 6.8z"/><text transform="translate(436.287 14.54)" font-family="'Arial-BoldMT'" font-size="18">iOS</text></g></a><a><path fill="#19A160" stroke="#FFF" stroke-width="1.8" stroke-miterlimit="10" stroke-opacity=".5" d="M1480 542.8l-100.8-58.2V368.2L1480 310l100.8 58.2v116.4L1480 542.8h0z"/><g fill="#FFF"><path d="M1528.6 427.9l-.1-.1-18.2-9.4-1.1 1.5c-.3.2-2.1 1.7-6.9 2.6-3.8.7-10-.5-20.3-19.3-2.9-5.2-5.9-9.5-8.9-13 .3 2.3.3 4.9.1 7.4-.4 4.3-2.3 10.5-4.7 17.1 1.2 1.2 2.7 3 4.3 5.3 3 4.3 5.7 9.4 7.5 12.8l.5.9c1.8 3.4 4.9 5.6 8.8 6.3 1.2.2 2.2.3 3.1.3 1 0 1.8-.1 2.1-.1l34.7-2.8.6-.5c1.2-.9 1.4-2.8 1.4-4.1-.1-2.9-2.6-4.7-2.9-4.9zM1467.6 387.7c-.9-2.6-4.1-9.7-13.2-9.7s-12.2 7.2-13.2 9.7c-.9 2.6-1.6 7-1.2 11.3 1 11.6 14.3 39.8 14.3 39.8s13.3-28.2 14.3-39.8c.5-4.2-.1-8.7-1-11.3z"/><path d="M1481.6 440.6l-4.4-4.3c-.8-.8-1.2-1.7-2.2-1.7l-12.1.1h-2.6c-3.4 7.4-6.1 12.9-6.1 12.9s-2.7-5.5-6.1-12.9H1429.2c-1 0-2 .7-2.2 1.7l-2.1 7.3 46.8 8.6 9.7-8c1.1-1 1.2-2.7.2-3.7zM1485.6 444.7l-23.4 19.7h44.5l-16-19.2c-1.4-1.5-3.6-1.7-5.1-.5zM1431.1 448.1l-7.1-1.3-4.2 14.7c-.2.7-.1 1.5.4 2 .4.6 1.1.9 1.9.9h9.1v-16.3zM1434.4 448.7v15.7h22.7l11.4-9.5zM1495 443.9l7.2 8.3 27.6-9.8c.5-.2.3-.9-.2-.9l-34.6 2.4zM1503.9 455.6l27.5-10.9 8.7 18.6c.2.5-.1 1.1-.7 1.1H1511l-7.1-8.8z"/></g></a><a><path fill="#2BB673" stroke="#FFF" stroke-width="1.8" stroke-miterlimit="10" stroke-opacity=".5" d="M1267.6 542.8l-100.8-58.2V368.2l100.8-58.2 100.8 58.2v116.4l-100.8 58.2h0z"/><path fill="#FFF" d="M1304.2 405.1c-1.1-17.7-15.4-32.4-33.3-33.7-7.2-.6-14.1.9-20.3 4.1l-14-12.2c-.9-.8-2.3-1.1-3.4-.6-1.1.6-1.9 1.7-1.9 3v42.8c.2 9.6 4.1 18.5 10.9 25.2 6.8 6.8 16 10.5 25.6 10.5 10 0 19.8-4.1 26.7-11.7 6.8-7.5 10.3-17.3 9.7-27.4zm-11.1 26.2c-6.6 7-15.6 10.9-25.2 10.9-9 0-17.7-3.6-24.3-10-6.2-6-9.8-14.3-10.2-23h9.8c1.7 0 3.2-1.3 3.2-2.8v-4.1c0-.4.6-.8 1.3-.8.8 0 1.3.4 1.3.8v16c0 1.5 1.5 2.8 3.2 2.8s3.2-1.3 3.2-2.8v-20c0-.4.6-.8 1.3-.8.8 0 1.3.4 1.3.8v22c0 1.5 1.5 2.8 3.2 2.8s3.2-1.3 3.2-2.8v-27.5c0-.4.6-.8 1.3-.8.7 0 1.3.4 1.3.8v25.4c0 1.5 1.5 2.8 3.2 2.8s3.2-1.3 3.2-2.8v-22c0-.4.6-.8 1.3-.8.8 0 1.3.4 1.3.8v22c0 1.5 1.5 2.8 3.2 2.8s3.2-1.3 3.2-2.8v-20c0-.4.6-.8 1.3-.8.7 0 1.3.4 1.3.8v16c0 1.5 1.5 2.8 3.2 2.8s3.2-1.3 3.2-2.8v-4.1c0-.4.6-.8 1.3-.8h9.6c-.4 8.3-3.6 16-9.2 22zm-3.8-21.1v4.1c0 .4-.6.8-1.3.8-.8 0-1.3-.4-1.3-.8v-16c0-1.5-1.5-2.8-3.2-2.8s-3 1.3-3 2.8v20c0 .4-.6.8-1.3.8-.8 0-1.3-.4-1.3-.8v-22c0-1.5-1.5-2.8-3.2-2.8s-3.2 1.3-3.2 2.8v22c0 .4-.6.8-1.3.8-.8 0-1.3-.4-1.3-.8v-25.4c0-1.5-1.5-2.8-3.2-2.8s-3.2 1.3-3.2 2.8v27.5c0 .4-.6.8-1.3.8-.7 0-1.3-.4-1.3-.8v-22c0-1.5-1.5-2.8-3.2-2.8s-3.2 1.3-3.2 2.8v20c0 .4-.6.8-1.3.8-.8 0-1.3-.4-1.3-.8v-16c0-1.5-1.5-2.8-3.2-2.8s-3.2 1.3-3.2 2.8v4.1c0 .4-.6.8-1.3.8h-10v-41.4c0-.6.2-.9.8-1.1.6-.2.9-.2 1.3.2l14.3 12.6c.4.2.8.4 1.1.2 6-3.4 12.8-4.9 19.8-4.3 16.8 1.3 30.3 15.1 31.4 32v2.1h-9.6c-1.5-.3-3 1-3 2.6zM1204.3 468.3c0 2.9-2.6 4.9-6.6 4.9h-6.5c-.4 0-.6-.4-.6-.8V458c0-.4.2-.6.6-.6h6.2c3.8 0 6.2 1.8 6.2 4.4 0 1.3-.6 2.4-1.8 3 1.7.5 2.5 1.8 2.5 3.5zm-9.9-8.2v3.7h3.3c1.3 0 2.3-.7 2.3-1.9 0-1.1-1-1.9-2.4-1.9h-3.2v.1zm6.3 8.2c0-1.3-1.1-2-2.8-2h-3.5v4.2h3.5c1.7 0 2.8-.9 2.8-2.2zm19 2.6l-.3 2c0 .2-.1.4-.4.4h-11c-.4 0-.6-.2-.6-.6v-14.6c0-.4.2-.6.6-.6h10.4c.2 0 .4.1.4.4l.1 2c0 .4-.2.6-.6.6h-7.1v3.4h5.9c.3 0 .4.1.4.4v2.2c0 .2-.1.4-.4.4h-5.9v3.5h7.9c.4-.1.6.1.6.5zm16.8 2.3l-2.2.3c-.4 0-.7-.1-.8-.5l-1.1-2.9h-6.7l-1 2.6c-.1.4-.4.6-.8.6h-2.3c-.5 0-.7-.3-.5-.8l5.4-14.5c.1-.4.4-.6.8-.6h3c.4 0 .7.1.9.5l5.7 14.5c.3.3.1.6-.4.8zm-5.1-6l-2.4-6.5-2.3 6.5h4.7zm19.8-9.5v2.3c0 .3-.1.4-.4.4h-5.4v12.4c0 .3-.1.4-.4.4h-2.9c-.3 0-.4-.1-.4-.4v-12.4h-5.2c-.4 0-.6-.2-.6-.7l.2-2.1c0-.2.2-.4.4-.4h14.3c.3 0 .4.3.4.5zM1267.9 457.4v.2c0 .1 0 .1-.1.1h-7.1V473c0 .1 0 .1-.1.1h-.2c-.1 0-.1 0-.1-.1v-15.3h-7c-.1 0-.2-.1-.2-.2v-.1c0-.1.1-.1.2-.1l14.6.1zm16.1 0v15.7c0 .1 0 .1-.1.1h-.2c-.1 0-.1 0-.1-.1v-7.4h-12.1v7.4c0 .1 0 .1-.1.1h-.2c-.1 0-.1 0-.1-.1v-15.7c0-.1 0-.1.1-.1h.2c.1 0 .1 0 .1.1v7.7h12.1v-7.7c0-.1 0-.1.1-.1l.3.1zm17.5 15.8h-.3c-.1 0-.2 0-.2-.1l-3.5-6.5c-.8.2-1.7.3-2.7.3h-4.5v6.3c0 .1 0 .1-.1.1h-.2c-.1 0-.1 0-.1-.1v-15.6c0-.1.1-.2.2-.2h5.3c3.7 0 6 1.4 6 4.7 0 2.4-1.2 3.8-3.4 4.4l3.6 6.7c.1-.1 0 0-.1 0zm-6.6-7c3.7 0 6-1.2 6-4.3 0-3-2.1-4.2-5.5-4.2h-5v8.5h4.5zm22.3 6.6v.2c0 .1-.1.1-.1.1h-10.8c-.1 0-.2-.1-.2-.2v-15.4c0-.1.1-.2.2-.2h10.2c.1 0 .1 0 .1.1v.2c0 .1 0 .1-.1.1h-9.9v7.1h8.3c.1 0 .1 0 .1.1v.2c0 .1 0 .1-.1.1h-8.3v7.4h10.7c-.2 0-.1.1-.1.2zm15.6.4c-.1 0-.2 0-.2-.1l-2.1-4.6h-9.7l-2.1 4.6-.1.1h-.1c-.1 0-.2-.1-.1-.2l7-15.5c.1-.1.1-.2.3-.2h.1c.1 0 .2 0 .3.2l7 15.5c-.1 0-.2.2-.3.2zm-2.6-5.1l-4.6-10.2-4.6 10.2h9.2zm5.9 5.1c-.1 0-.2-.1-.2-.2v-15.5c0-.1.1-.2.2-.2h5.2c5.3 0 8.5 3.2 8.5 8.1 0 5.1-3.1 7.8-9 7.8h-4.7zm4.6-.5c5.6 0 8.5-2.5 8.5-7.3 0-4.6-2.9-7.6-8-7.6h-4.9v14.9h4.4z"/></a><a><path fill="#9229CA" stroke="#FFF" stroke-width="1.8" stroke-miterlimit="10" stroke-opacity=".5" d="M1055.4 542.8l-100.8-58.2V368.2l100.8-58.2 100.8 58.2v116.4l-100.8 58.2z"/><path fill="#FBFDFD" d="M1137.7 405.5c0-.9.4-1.5 1.1-1.9.4-.2.9-.2 1.1.2.6.8.6 1.5.2 2.3-.8 1.7-2.1 4.7-2.4 5.1-.4.2-.3-4.1 0-5.7zm5.7 2.1c.6-.8 1.1-1.1 2.1-.9.4.2.9.4.9.9 0 .9-.4 1.5-1.1 1.9-1.7.9-4.3 2.6-4.9 2.8-.6 0 2-3.4 3-4.7zm2.6 5.4c.8-.4 1.5-.4 2.3.2.4.4.6.8.4 1.1-.4.8-1.1 1.1-1.9 1.1-1.9 0-5.1.4-5.6.2s3.3-2.1 4.8-2.6z"/><path fill="#FFF" d="M983.9 429.8c0 .2-.1.3-.3.6-.2.3-.4.5-.7.7-.3.2-.7.4-1.1.6-.4.2-.8.3-1.3.3-.7 0-1.3-.2-1.8-.7-.5-.4-1-1.1-1.4-1.8-.4-.8-.8-1.7-1.2-2.8s-.7-2.2-1.1-3.5l-1.1.7-.5 7.3c0 .2-.1.3-.1.3s-.2.1-.3.1h-1.6c-1.1 0-1.8-.2-2.3-.6-.4-.4-.7-1.1-.7-1.9v-1.2s.1-1.2.1-1.9c.1-.7.1-1.5.2-2.4s.1-1.8.2-2.7c.1-1.8.2-3.2.3-4.3s.1-1.9.2-2.5c0-.6.1-1.1.1-1.4v-.8c0-.3.2-.4.5-.4h1.6c.6 0 1.1.1 1.5.2.4.1.7.3.9.5.2.2.3.5.4.8.1.3.1.7.1 1.1s0 1.1-.1 2.1c0 1-.1 2.1-.2 3.3.6-.8 1.4-1.8 2.3-2.9.9-1.2 2-2.6 3.3-4.3.1-.1.1-.2.2-.3.1-.1.2-.2.3-.4.1-.1.3-.2.4-.3s.3-.1.4-.1c.2 0 .5.1.8.4l.9.9s.5.7.7 1.1c.2.4.3.7.3 1 0 .5-.5 1.4-1.5 2.4s-2.4 2.3-4.2 3.7c.3.5.7 1.1 1.1 1.8.4.6.8 1.3 1.2 1.9s.8 1.3 1.2 1.9c.4.6.7 1.2 1.1 1.6.4.4.6.9.7 1.2.4.4.5.5.5.7zm11.5-.7c0-.4 0-1 .1-1.6.1-.7.1-1.4.2-2.1.1-.7.1-1.5.2-2.2.1-.7.1-1.3.1-1.8s-.1-.9-.4-1.3c-.2-.4-.7-.6-1.4-.6s-1.2.2-1.6.5c-.4.3-.8.9-1.1 1.8-.3.8-.5 2-.7 3.5-.2 1.5-.4 3.4-.5 5.7 0 .2-.1.4-.1.5-.1.1-.2.1-.5.1h-1c-.6 0-1.1-.1-1.4-.2-.4-.1-.7-.3-.9-.5-.2-.2-.4-.5-.5-.8s-.1-.7-.1-1.1v-1.2c0-.5.1-1.2.2-2.1.1-.9.2-2.1.3-3.5s.2-3.1.4-5.2c0-.4.1-.7.1-.7.1-.1.2-.1.5-.1h1.1c.6 0 1 .1 1.4.2s.7.3.9.5c.2.2.4.5.5.8s.2.6.2.9c.6-1 1.3-1.7 2-2.1.8-.4 1.7-.6 2.8-.6.8 0 1.5.1 2.1.3s1.1.5 1.5.9.7.9.9 1.6c.2.7.3 1.5.3 2.4 0 .3 0 .7-.1 1.3 0 .6-.1 1.2-.1 1.9s-.1 1.4-.2 2.1c-.1.7-.1 1.4-.2 2-.1.6-.1 1.2-.1 1.6 0 .5-.1.8-.1.9 0 .4 0 .7-.1.7s-.3.1-.6.1h-.9c-.6 0-1.1-.1-1.5-.2-.4-.1-.7-.3-.9-.5-.2-.2-.4-.5-.4-.8-.4-.3-.4-.7-.4-1.1zm14.2 2.8c-1.3 0-2.4-.2-3.2-.6-.9-.4-1.5-.9-2-1.5s-.9-1.4-1.1-2.2c-.2-.9-.3-1.8-.3-2.8 0-1.1.1-2.2.4-3.3s.7-2 1.4-2.9c.7-.8 1.5-1.5 2.6-2s2.4-.8 4.1-.8c2.4 0 4.1.6 5.1 1.7s1.5 2.8 1.5 4.9c0 .6 0 1.2-.1 1.9s-.2 1.4-.5 2.1c-.3.7-.6 1.4-1 2-.4.7-.9 1.2-1.5 1.8-.6.5-1.4.9-2.2 1.2-1 .3-2 .5-3.2.5zm1.3-12.4c-.7 0-1.3.2-1.7.6-.4.4-.7.8-1 1.3-.2.5-.4 1.1-.4 1.6s-.1 1.1-.1 1.5c0 1.2.2 2.2.6 2.7.4.6 1 .9 1.7.9s1.2-.2 1.6-.6c.4-.4.8-.9 1-1.5.2-.6.4-1.2.5-1.8s.1-1.2.1-1.6c0-.9-.2-1.7-.5-2.2-.4-.6-1-.9-1.8-.9zm16.4 8.6c.5 0 1-.1 1.4-.2.4-.2.8-.3 1.1-.5.3-.2.6-.4.8-.5.2-.2.4-.2.6-.2.4 0 .7.3.7.8 0 .1 0 .3-.1.6s-.1.5-.2.7c-.1.3-.2.5-.3.7s-.2.4-.3.5-.3.2-.5.5c-.2.2-.6.4-.9.6-.4.2-.9.4-1.4.6-.5.2-1.1.2-1.8.2s-1.5-.1-2.2-.3c-.8-.2-1.5-.6-2.1-1.1s-1.1-1.3-1.5-2.2-.6-2.1-.6-3.4c0-.5 0-1.1.1-1.7.1-.6.2-1.3.4-2s.5-1.3.8-2c.3-.6.8-1.2 1.4-1.7.6-.5 1.3-.9 2.1-1.2.8-.3 1.8-.5 2.9-.5.9 0 1.7.1 2.4.3.7.2 1.2.5 1.7.9.4.4.8.8 1 1.3.2.5.3 1 .3 1.6 0 1-.3 1.8-1 2.2-.7.4-1.5.7-2.7.7-.3 0-.5 0-.6-.1-.1 0-.2-.2-.2-.3v-1.2c0-.4-.1-.7-.2-.9-.1-.2-.2-.4-.4-.6-.2-.1-.4-.2-.7-.2-.6 0-1.1.2-1.4.6-.3.4-.6.8-.8 1.4-.2.5-.3 1.1-.3 1.7 0 .6-.1 1-.1 1.4 0 1.3.2 2.3.6 2.8.4.4 1 .6 2 .7zm20.6 1.2c0 .1 0 .3-.1.6s-.2.6-.5.9c-.2.3-.5.6-.8.8-.3.2-.7.3-1.1.3-.5 0-1-.2-1.5-.5s-1-.8-1.5-1.4-1-1.3-1.5-2.1-1-1.7-1.5-2.6c-.1 1-.2 2-.2 2.9s-.2 1.9-.2 2.8c0 .2-.1.4-.1.5-.1.1-.2.1-.5.1h-1c-.6 0-1.1-.1-1.4-.2-.4-.1-.7-.3-.9-.5-.2-.2-.4-.5-.4-.9-.1-.3-.1-.7-.1-1.2v-.7c0-.2 0-.6.1-1s.1-1 .2-1.8.1-1.7.2-2.9.2-2.7.3-4.5.3-3.9.4-6.4c0-.4.1-.7.1-.7.1-.1.2-.1.5-.1h1.1c.6 0 1.1.1 1.4.2.4.1.7.3.9.5.2.2.4.5.5.8s.1.6.1.9v.9c0 .4-.1 1-.1 1.6s-.1 1.3-.2 2.1-.1 1.6-.2 2.5l4.5-4.1c.2-.2.3-.3.5-.3.1-.1.3-.1.3-.1.2 0 .4.1.7.4.2.3.5.6.7.9.2.3.4.7.5 1.1.1.4.2.7.2.9 0 .5-.4 1.1-1.3 1.7-.9.6-2.2 1.3-4 2 .8.9 1.5 1.7 2.3 2.4.7.7 1.3 1.4 1.9 2 .6.6 1 1 1.3 1.4.3.5.4.7.4.8zm23.7.5c0 .2-.1.3-.3.6-.2.2-.4.5-.7.7-.3.2-.7.4-1.1.6-.4.2-.8.3-1.3.3-.7 0-1.3-.2-1.8-.7s-1-1.1-1.4-1.8-.8-1.7-1.2-2.8-.7-2.2-1.1-3.5l-1.1.7-.5 7.3c0 .2-.1.3-.1.3s-.2.1-.3.1h-1.6c-1.1 0-1.8-.2-2.3-.6-.4-.4-.7-1.1-.7-1.9v-1.2s.1-1.2.1-1.9c.1-.7.1-1.5.2-2.4.1-.9.1-1.8.2-2.7.1-1.8.2-3.2.3-4.3s.1-1.9.2-2.5c0-.6.1-1.1.1-1.4v-.8c0-.3.2-.4.5-.4h1.6c.6 0 1.1.1 1.5.2.4.1.7.3.9.5.2.2.3.5.4.8s.1.7.1 1.1 0 1.1-.1 2.1c0 1-.1 2.1-.2 3.3.6-.8 1.4-1.8 2.3-2.9.9-1.2 2-2.6 3.3-4.3.1-.1.1-.2.2-.3s.2-.2.3-.4c.1-.1.3-.2.4-.3.1-.1.3-.1.4-.1.2 0 .5.1.8.4l.9.9c.3.4.5.7.7 1.1.2.4.3.7.3 1 0 .5-.5 1.4-1.5 2.4-1 1.1-2.4 2.3-4.2 3.7.3.5.7 1.1 1.1 1.8.4.6.8 1.3 1.2 1.9.4.7.8 1.3 1.2 1.9.4.6.7 1.2 1.1 1.6.3.5.6.9.7 1.2.4.4.5.5.5.7zm11.5-.7c0-.4 0-1 .1-1.6.1-.7.1-1.4.2-2.1.1-.7.1-1.5.2-2.2s.1-1.3.1-1.8-.1-.9-.4-1.3-.7-.6-1.4-.6-1.2.2-1.6.5-.8.9-1.1 1.8c-.3.8-.5 2-.7 3.5-.2 1.5-.4 3.4-.5 5.7 0 .2-.1.4-.1.5-.1.1-.2.1-.5.1h-1c-.6 0-1.1-.1-1.4-.2-.4-.1-.7-.3-.9-.5-.2-.2-.4-.5-.5-.8s-.1-.7-.1-1.1v-1.2c0-.5.1-1.2.2-2.1.1-.9.2-2.1.3-3.5s.2-3.1.4-5.2c0-.4.1-.7.1-.7.1-.1.2-.1.5-.1h1.1c.6 0 1 .1 1.4.2.4.1.7.3.9.5.2.2.4.5.5.8s.2.6.2.9c.6-1 1.3-1.7 2-2.1.8-.4 1.7-.6 2.8-.6.8 0 1.5.1 2.1.3s1.1.5 1.5.9.7.9.9 1.6c.2.7.3 1.5.3 2.4 0 .3 0 .7-.1 1.3 0 .6-.1 1.2-.1 1.9s-.1 1.4-.2 2.1c-.1.7-.1 1.4-.2 2-.1.6-.1 1.2-.1 1.6 0 .5-.1.8-.1.9 0 .4 0 .7-.1.7-.1.1-.3.1-.6.1h-.9c-.6 0-1.1-.1-1.5-.2-.4-.1-.7-.3-.9-.5-.2-.2-.4-.5-.4-.8-.4-.3-.4-.7-.4-1.1zm14.2 2.8c-1.3 0-2.4-.2-3.2-.6-.8-.4-1.5-.9-2-1.5s-.9-1.4-1.1-2.2-.3-1.8-.3-2.8c0-1.1.1-2.2.4-3.3.3-1.1.7-2 1.4-2.9.7-.8 1.5-1.5 2.6-2s2.4-.8 4.1-.8c2.4 0 4.1.6 5.1 1.7s1.5 2.8 1.5 4.9c0 .6 0 1.2-.1 1.9s-.2 1.4-.5 2.1c-.2.7-.6 1.4-1 2-.4.7-.9 1.2-1.5 1.8-.6.5-1.4.9-2.2 1.2-1 .3-2 .5-3.2.5zm1.3-12.4c-.7 0-1.3.2-1.7.6-.4.4-.7.8-1 1.3-.2.5-.4 1.1-.4 1.6-.1.6-.1 1.1-.1 1.5 0 1.2.2 2.2.6 2.7.4.6 1 .9 1.7.9s1.2-.2 1.6-.6c.4-.4.8-.9 1-1.5.2-.6.4-1.2.5-1.8s.1-1.2.1-1.6c0-.9-.2-1.7-.5-2.2-.3-.5-1.1-.9-1.8-.9zm16.4 8.6c.5 0 1-.1 1.4-.2.4-.2.8-.3 1.1-.5.3-.2.6-.4.8-.5.2-.2.4-.2.6-.2.4 0 .7.3.7.8 0 .1 0 .3-.1.6s-.1.5-.2.7c-.1.3-.2.5-.3.7s-.2.4-.3.5-.3.2-.5.5c-.2.2-.6.4-.9.6-.4.2-.9.4-1.4.6-.5.2-1.1.2-1.8.2s-1.5-.1-2.2-.3c-.8-.2-1.5-.6-2.1-1.1s-1.1-1.3-1.5-2.2-.6-2.1-.6-3.4c0-.5 0-1.1.1-1.7.1-.6.2-1.3.4-2s.5-1.3.8-2c.3-.6.8-1.2 1.4-1.7.6-.5 1.3-.9 2.1-1.2.8-.3 1.8-.5 2.9-.5.9 0 1.7.1 2.4.3.7.2 1.2.5 1.7.9.4.4.8.8 1 1.3.2.5.3 1 .3 1.6 0 1-.3 1.8-1 2.2-.7.4-1.5.7-2.7.7-.3 0-.5 0-.6-.1-.1 0-.2-.2-.2-.3v-1.2c0-.4-.1-.7-.2-.9-.1-.2-.2-.4-.4-.6-.2-.1-.4-.2-.7-.2-.6 0-1.1.2-1.4.6-.3.4-.6.8-.8 1.4-.2.5-.3 1.1-.3 1.7 0 .6-.1 1-.1 1.4 0 1.3.2 2.3.6 2.8.4.4 1 .6 2 .7zm20.6 1.2c0 .1 0 .3-.1.6s-.2.6-.5.9c-.2.3-.5.6-.8.8-.3.2-.7.3-1.1.3-.5 0-1-.2-1.5-.5s-1-.8-1.5-1.4c-.5-.6-1-1.3-1.5-2.1s-1-1.7-1.5-2.6c-.1 1-.2 2-.2 2.9s-.2 1.9-.2 2.8c0 .2-.1.4-.1.5-.1.1-.2.1-.5.1h-1c-.6 0-1.1-.1-1.4-.2-.4-.1-.7-.3-.9-.5-.2-.2-.4-.5-.4-.9-.1-.3-.1-.7-.1-1.2v-.7c0-.2 0-.6.1-1 0-.5.1-1 .2-1.8.1-.7.1-1.7.2-2.9s.2-2.7.3-4.5.3-3.9.4-6.4c0-.4.1-.7.1-.7.1-.1.2-.1.5-.1h1.1c.6 0 1.1.1 1.4.2s.7.3.9.5c.2.2.4.5.5.8s.1.6.1.9v.9c0 .4-.1 1-.1 1.6s-.1 1.3-.2 2.1-.1 1.6-.2 2.5l4.5-4.1c.2-.2.3-.3.5-.3s.2-.1.3-.1c.2 0 .4.1.7.4.2.3.5.6.7.9.2.3.4.7.5 1.1.1.4.2.7.2.9 0 .5-.4 1.1-1.3 1.7-.9.6-2.2 1.3-4 2 .8.9 1.5 1.7 2.3 2.4.7.7 1.3 1.4 1.9 2 .6.6 1 1 1.3 1.4.3.5.4.7.4.8z"/></a><a><path fill="#5DD19C" stroke="#FFF" stroke-width="1.8" stroke-miterlimit="10" stroke-opacity=".5" d="M843 542.8l-100.8-58.2V368.2L843 310l100.8 58.2v116.4L843 542.8h0z"/><path fill="#FFF" d="M828.3 414.5h-10v4.9h9.8v3.4h-9.8v9.4h-4v-21.1h13.9l.1 3.4zm13.2 4l-2.1 3.2c-.8-.8-1.7-1.5-2.6-1.5-.9 0-2.4.8-2.4 3.4v8.7h-3.8V417h3.8v1.7c.9-1.3 2.1-2.1 3.4-2.1 1.3-.2 2.6.8 3.7 1.9zm17 6c0 .6 0 .9-.2 1.5h-12.2c.6 1.9 2.1 3.2 4.3 3.2 1.3 0 2.8-.6 3.8-1.3l2.4 2.4c-2.1 1.5-4.1 2.1-6.2 2.1-4.5 0-8.1-3.6-8.1-8.1s3.6-8.1 8.1-8.1c4.3.2 8 3.6 8.1 8.3zm-4-1.5c-.6-1.9-2.3-3.2-4.1-3.2-1.8 0-3.6 1.3-4.1 3.2h8.2zm22.1 1.5c0 .6 0 .9-.2 1.5h-12.2c.6 1.9 2.1 3.2 4.3 3.2 1.3 0 2.8-.6 3.8-1.3l2.4 2.4c-2.1 1.5-4.1 2.1-6.2 2.1-4.5 0-8.1-3.6-8.1-8.1s3.6-8.1 8.1-8.1c4.3.2 8.1 3.6 8.1 8.3zm-4-1.5c-.6-1.9-2.3-3.2-4.1-3.2-1.8 0-3.6 1.3-4.1 3.2h8.2zm17.5 4.9c0 3-3.2 4.7-5.8 4.7-2.3 0-4.3-.8-5.8-2.6l2.3-2.3c.9 1.1 2.1 1.9 3.6 1.9 1.1 0 2.1-.4 2.1-1.3s-1.1-1.5-3.2-2.1c-2.4-.8-4.7-2.1-4.7-4.7 0-3 3-4.7 5.8-4.7 2.3 0 4.1.9 5.6 2.6l-2.1 2.1c-.9-1.1-2.1-1.7-3.4-1.7-.9 0-2.3.6-2.3 1.5 0 .8 1.1 1.3 3.2 1.9 2.5.6 4.7 2.3 4.7 4.7zm10.9 4c-.8.6-1.9.8-2.8.8-3.6 0-4.7-1.7-4.7-5.6v-6.6h-2.1V419c2.4-1.3 4.3-3.4 4.7-6.4h1.1v4.3h3.8v3.4h-3.8v7c0 1.5.8 1.9 1.7 1.9.6 0 1.5-.2 2.1-.8v3.5zm14.7.3h-3.8v-.8c-1.3.9-2.8 1.1-4.5 1.1-3 0-4.9-1.9-4.9-4.7 0-3.4 3.2-5.1 7.2-5.1h2.3c0-1.9-1.1-3-3.4-3-1.1 0-2.3.4-3.4 1.3l-2.3-2.3c1.7-1.5 3.8-2.4 6-2.4 2.1 0 3.8.8 4.9 1.9 1.3 1.3 1.9 2.8 1.9 5.5v8.5zm-3.9-4v-2.8h-1.7c-2.1 0-3.8.6-3.8 2.1 0 1.1.9 1.9 2.3 1.9.9 0 2-.4 3.2-1.2zm21.2 4h-4.5l-6.2-6.8v6.8h-4v-22h4v13l5.3-6.4h4.5l-6.2 7.5 7.1 7.9zm-164.3.4v-22.8l12.8-7.7-5.1-3-19.2 11.5v22.8l19.6 11.1 19.2-11.3-13 7.5-14.3-8.1z"/><path fill="#FFF" d="M787.7 398.3l-6.2 3.8 14.5 8.7v22.4l-13 7.5-14.3-8.1 19.4 11.1 19.2-11.3v-22.2l-19.6-11.9z"/></a><a><path fill="#F8921F" stroke="#FFF" stroke-width="1.8" stroke-miterlimit="10" stroke-opacity=".5" d="M630.8 542.8L530 484.6V368.2L630.8 310l100.8 58.2v116.4l-100.8 58.2h0z"/><circle fill="#FEFEFE" cx="655.5" cy="454.7" r="16.3"/><path fill="none" stroke="#FFF" stroke-width="33.551" stroke-linecap="round" stroke-linejoin="round" stroke-miterlimit="10" d="M650.5 402.2l-44 50.9"/><path fill="none" stroke="#FFF" stroke-width="31.277" stroke-linecap="round" stroke-linejoin="round" stroke-miterlimit="10" d="M605.4 400.9h46.1"/></a><a><path fill="#5E5E5E" stroke="#FFF" stroke-width="1.8" stroke-miterlimit="10" stroke-opacity=".5" d="M1373.8 358.9L1273 300.6V184.2l100.8-58.2 100.8 58.2v116.4l-100.8 58.3z"/><path fill="#FFF" d="M1314.7 241.7c0-.2.1-.3.3-.3h3.4c.2 0 .3.1.3.3v.3c0 .2-.1.3-.3.3h-1c-.3 0-.3 0-.3.3v7.8c0 .2-.1.3-.3.3h-.4c-.2 0-.3-.1-.3-.3v-7.8c0-.3 0-.3-.2-.3h-1c-.2 0-.3-.1-.3-.3v-.3h.1zm12.1 6.7c0 1.5-.8 2.2-2 2.2s-2-.7-2-2.2v-4.8c0-1.5.8-2.2 2-2.2s2 .7 2 2.2v4.8zm-.8-4.6c0-1.2-.3-1.6-1.1-1.6s-1.1.5-1.1 1.6v4.4c0 1.2.3 1.6 1.1 1.6s1.1-.5 1.1-1.6v-4.4zm5.2-2.1c0-.2.1-.3.3-.3h3.4c.2 0 .3.1.3.3v.3c0 .2-.1.3-.3.3h-1c-.3 0-.3 0-.3.3v7.8c0 .2-.1.3-.3.3h-.4c-.2 0-.3-.1-.3-.3v-7.8c0-.3 0-.3-.2-.3h-1c-.2 0-.3-.1-.3-.3v-.3h.1zm11.4 8.9c-.2 0-.3 0-.3-.2l-.2-.9c-.1-.3-.1-.3-.3-.3h-1.6c-.3 0-.2 0-.3.3l-.2.9c0 .2-.1.2-.3.2h-.4c-.1 0-.2 0-.2-.2l1.6-8.7c0-.2.1-.2.3-.2h.5c.2 0 .2 0 .3.2l1.6 8.7c0 .2-.1.2-.2.2h-.3zm-2.4-2.5c0 .3 0 .3.2.3h1.3c.3 0 .3 0 .2-.3l-.8-4.7c0-.1-.1-.1-.1 0l-.8 4.7zm8 2.5c-.2 0-.3-.1-.3-.3v-8.7c0-.2.1-.3.3-.3h.4c.2 0 .3.1.3.3v7.8c0 .3 0 .3.3.3h1.9c.2 0 .3.1.3.3v.3c0 .2-.1.3-.3.3h-2.9zm17.3 0c-.2 0-.3 0-.3-.2l-.2-.9c-.1-.3-.1-.3-.3-.3h-1.6c-.3 0-.2 0-.3.3l-.2.9c0 .2-.1.2-.3.2h-.4c-.1 0-.2 0-.2-.2l1.6-8.7c0-.2.1-.2.3-.2h.5c.2 0 .2 0 .3.2l1.6 8.7c0 .2-.1.2-.2.2h-.3zm-2.4-2.5c0 .3 0 .3.2.3h1.3c.3 0 .3 0 .2-.3l-.8-4.7c0-.1-.1-.1-.1 0l-.8 4.7zm11.7.3c0 1.5-.8 2.2-2 2.2h-1.9c-.2 0-.3-.1-.3-.3v-8.7c0-.2.1-.3.3-.3h1.9c1.2 0 2 .7 2 2.2v4.9zm-3.2 1.1c0 .3 0 .3.3.3h1c.7 0 1.1-.5 1.1-1.6v-4.3c0-1.2-.3-1.6-1.1-1.6h-1c-.3 0-.3 0-.3.3v6.9zm11.7-8.1c.1 0 .2 0 .2.2l-1.7 8.7c0 .2-.1.2-.3.2h-.4c-.2 0-.2 0-.3-.2l-1.7-8.7c0-.2.1-.2.2-.2h.4c.2 0 .3 0 .3.2l1.2 6.9c0 .1.1.1.1 0l1.2-6.9c0-.2.1-.2.3-.2h.5zm5.1 9.2c-.2 0-.3-.1-.3-.3v-8.7c0-.2.1-.3.3-.3h2.6c.2 0 .3.1.3.3v.3c0 .2-.1.3-.3.3h-1.7c-.3 0-.3 0-.3.3v2.6c0 .3 0 .3.3.3h1.7c.2 0 .3.1.3.3v.3c0 .2-.1.3-.3.3h-1.7c-.3 0-.3 0-.3.3v3.1c0 .3 0 .3.3.3h1.7c.2 0 .3.1.3.3v.3c0 .2-.1.3-.3.3h-2.6v-.3zm11 0c-.1 0-.2-.1-.3-.2l-2.1-5.8c0-.1-.1-.1-.1 0v5.7c0 .2-.1.3-.3.3h-.4c-.2 0-.3-.1-.3-.3v-8.7c0-.2.1-.3.3-.3h.3c.1 0 .2.1.3.2l2.1 5.8c0 .1.1.1.1 0v-5.8c0-.2.1-.3.3-.3h.4c.2 0 .3.1.3.3v8.7c0 .2-.1.3-.3.3l-.3.1zm5-8.9c0-.2.1-.3.3-.3h3.4c.2 0 .3.1.3.3v.3c0 .2-.1.3-.3.3h-1c-.3 0-.3 0-.3.3v7.8c0 .2-.1.3-.3.3h-.4c-.2 0-.3-.1-.3-.3v-7.8c0-.3 0-.3-.2-.3h-1c-.2 0-.3-.1-.3-.3v-.3h.1zm12.2 6.7c0 1.5-.8 2.2-2 2.2s-2-.7-2-2.2v-6.7c0-.2.1-.3.3-.3h.4c.2 0 .3.1.3.3v6.5c0 1.2.3 1.6 1.1 1.6.7 0 1.1-.5 1.1-1.6v-6.5c0-.2.1-.3.3-.3h.4c.2 0 .3.1.3.3v6.7h-.2zm5.2 2.2c-.2 0-.3-.1-.3-.3v-8.7c0-.2.1-.3.3-.3h1.5c1.2 0 2 .7 2 2.2v.7c0 .9-.3 1.6-.8 1.9l.8 4.1c0 .2-.1.2-.2.2h-.4c-.2 0-.3 0-.3-.2l-.7-3.6c0-.2-.1-.2-.2-.2h-.7c-.3 0-.3 0-.3.3v3.5c0 .2-.1.3-.3.3l-.4.1zm.6-5.1c0 .3 0 .3.3.3h.6c.7 0 1.1-.5 1.1-1.6v-.3c0-1.2-.3-1.6-1.1-1.6h-.6c-.3 0-.3 0-.3.3v2.9zm7.9 5.1c-.2 0-.3-.1-.3-.3v-8.7c0-.2.1-.3.3-.3h2.6c.2 0 .3.1.3.3v.3c0 .2-.1.3-.3.3h-1.7c-.3 0-.3 0-.3.3v2.6c0 .3 0 .3.3.3h1.7c.2 0 .3.1.3.3v.3c0 .2-.1.3-.3.3h-1.7c-.3 0-.3 0-.3.3v3.1c0 .3 0 .3.3.3h1.7c.2 0 .3.1.3.3v.3c0 .2-.1.3-.3.3h-2.6v-.3zm-78.3-41.9l-16.6 28.3h31.8l-15.2-28.3zm45.6.2l-16.8 28.3h32l-15.2-28.3z"/><path fill="none" stroke="#FFF" stroke-width="2.838" stroke-miterlimit="10" d="M1419.6 237.2c-1.7-23.5-21.3-40.9-45.2-40.9s-43.5 17.3-45.2 40.9h90.4zm-88.7 18.2c5.5 18.8 22.8 31.4 43.5 31.4 20.5 0 37.8-12.8 43.5-31.4h-87z"/><path fill="none" stroke="#FFF" stroke-width="2.838" stroke-linecap="round" stroke-miterlimit="10" d="M1314 237.2h120.3m-120.9 18.2h120.3"/><path fill="#FFF" d="M1394.2 238.3l-19.4-30.5-19.6 30.5h39zm-9.1-10.4l-5.3 4.1-7.9-4-6.6 5.8-3.6-2.4 13-20 10.4 16.5zm19.4 26.4h-59.7l-7.7 11.9c-.4.4-.2 1.1.2 1.5l1.1 1.5c.2.4.6.4.9.4l69.9-.6c.4 0 .4 0 .8-.4l1.9-1.7c.4-.4.4-.9 0-1.3l-7.4-11.3z"/></a><a><path fill="#7599FB" d="M1161.6 358.9l-100.8-58.3V184.2l100.8-58.2 100.8 58.2v116.4l-100.8 58.3z"/><path fill="#FFF" d="M1167.5 252.6c0 .8-.2.8-1.5.4.3-.2 1.1.2 1.5-.4z"/><path fill="#FFF" d="M1171.6 243.2c1.3-.6 2.3-1.5 3.2-2.8 2.6-4.1 1.1-8.1-3.6-9-2.1-.4-4.3-.4-6.4.4-4.3 1.5-6.6 5.5-5.5 9.8.6 2.4 2.3 4 4 5.6 1.7 1.7 3.4 3.2 4.3 5.5-.4.6-.4.6-1.5.4-3.8-.4-5.6-2.6-6.6-6-.2-.9-.6-2.3-1.9-2.4-1.3-.2-2.1.8-2.6 1.7-.2.4-.4.6-.6.9-.6 1.7-1.9 2.6-3.2 3.6-1.5 1.1-2.1.9-2.4-1.1v-.8c-.6-4.1-.9-8.5 1.7-12.2.6-.9.4-1.9-.2-2.6-.9-1.1-1.9-2.3-3.4-2.8-.9-.4-1.9-.4-2.6.6-.4.8-.9.6-1.5.4-1.9-.6-3.8-.8-5.8-.4-6.4 1.3-11.5 6.8-12.8 13.4-.2.9 0 1.9-.6 2.6-1.3 1.5-2.8 2.8-4.7 3.6-2.8.9-4.9.4-6.2-1.5-1.3-1.9-1.3-5.8 0-7.3 3.2-3.8 6.6-7.3 9.8-11.1 2.1-2.3 3.8-4.9 4.3-7.9.6-3.2-.9-5.8-4-6.2-.9-.2-1.9-.2-2.8 0-4.7.9-7.9 4-10.4 7.9-3.6 5.8-5.5 12.4-5.8 19.4 0 .9-.2 1.7-.9 2.4-2.8 3-6.2 4.9-10.4 5.3-4.5.6-7.9-1.7-8.8-6-1.1-6 .2-11.7 3-16.9.4-.6.6-.8 1.1-.4 1.9.8 3.8 1.1 5.8 1.3 3 .4 6 .2 8.7-1.5 2.4-1.5 3.6-4 2.8-7-.6-2.6-2.3-4.1-4.9-4.9-1.1-.4-3.8-.4-3.8-.4-4.1-.2-7.7 1.1-11.1 3.6-.8.6-1.1.4-1.9-.2-.8-.8-1.5-1.7-2.4-2.3-.6-.4-1.3-.6-2.1-.2-.8.4-.8 1.1-.6 1.9.2 1.7.9 3 1.7 4.3.4.6.6 1.1 0 1.9-3 4.1-5.3 9.2-5.6 14.9v2.6c0 1.3.4 4.7.6 5.1 1.1 4.7 4.1 7.7 8.7 9 7.9 2.3 15.1 1.3 20.9-5.1.8.9 1.3 1.9 2.1 2.8 3.6 3.4 11.5 5.1 16.9-.6.6-.6.9-.9 1.5.2 1.5 2.4 4 3.6 6.8 3.8 4.3.2 7.9-1.3 10.4-5.1.2.6.4 1.1.4 1.5.9 3 2.4 4 5.6 3.2 1.9-.4 3.6-1.3 5.1-2.4.4-.2.6-.8 1.1-.2 5.1 4.5 10.7 4 16.2 1.7 4-1.7 5.1-6.2 2.6-9.8-.6-.8-1.3-1.7-1.9-2.4-.6-1.1-.7-1.5.2-1.8zm-55-18.6c.6-.9 1.3-1.7 2.4-2.3s1.7 0 1.7 1.1-.4 2.3-1.1 3c-2.3 3-4.7 5.8-6.8 8.8 0 0-.2.2-.6.2 1-3.7 2-7.5 4.4-10.8zm-26.1-.8c1.9-1.7 4.1-2.4 6.6-2.3 1.1 0 1.9.6 1.9 1.9 0 1.1-.8 1.7-1.7 1.9-.6.2-1.3.2-2.1.2-1.5 0-3-.4-4.5-.6-.8-.2-.8-.5-.2-1.1zm52.1 12.6c-.6 3-.6 6-.9 9-.4 3-2.1 5.5-4.9 6.6-2.8 1.1-4.9-.6-4.9-4 0-5.6 4.3-11.1 9.8-12.4.6-.4 1.1-.1.9.8zm27.7 2.1c-.4.9-1.1 2.4-1.9 2.4-.9 0-1.5-1.3-1.9-2.3-1.1-2.4-.6-2.4 2.1-2.8 1.5.1 2.2 1.4 1.7 2.7zm83 7.5c0-.4-.2-.9-.6-1.1-.4-.2-.8.2-1.1.4-.6.6-1.1 1.1-1.5 1.7-2.3 2.8-4.7 5.5-7.9 7.9.2-.6.2-.9.4-1.3 1.5-4.9 2.8-9.8 4-14.9.6-2.6.2-5.1-1.5-7.2-.8-.8-1.5-1.5-2.8-1.3-1.1.2-1.7 1.1-2.1 2.3-.9 3.4-1.9 6.8-3 10-.8 2.4-.9 4.9-2.4 7.2-.9 1.3-2.1 1.9-3.8 1.9-1.7 0-2.3-.6-2.3-2.3 0-2.6.8-5.1 1.5-7.5.8-2.6 1.3-5.3.8-8.1-.2-1.3-.8-2.4-2.1-2.6-1.9-.2-3.8-.2-5.3 1.5-.2.2-.2.4-.2.8-.4 3.2-.8 6.4-1.1 9.6-.4 4.3-3.4 7.7-7.5 8.7-2.3.6-4.3-.2-5.3-1.9-1.3-2.1-1.3-5.6 0-7.2 2.8-3.6 6-6.8 9-10.4 2.1-2.4 4.3-4.9 5.1-8.3.9-4.5-.8-7.3-5.5-7-3.8.2-6.8 2.1-9 4.9-3 3.4-4.9 7.5-6.2 11.9-1.5 4.7-2.3 9.6-2.1 14.5.2 3.4 1.5 6.2 4.5 8.1 4.7 3 10.5 2.4 14.7-1.1.6-.6.9-.8 1.7.2.9 1.3 2.4 2.1 4.1 2.3 3.8.8 7.2.2 10.2-3-.2.9-.4 1.5-.4 2.1-.2 1.7-.9 2.3-2.6 2.6-3.2.6-6.4 1.1-9.4 2.3-4 1.5-4.9 4.7-2.4 8.1 2.6 3.8 9.8 4.9 13.9 1.9 2.6-1.9 3.8-4.5 4.5-7.5.4-1.1.9-1.9 2.1-2.6 4.7-2.6 8.7-6.2 11.1-11.3.3-1.5.5-2.8.5-4.3zm-39-22.3c.4-.6.9-.9 1.5-1.3s1.1-.6 1.7 0c.4.4.4.9.4 1.5-.2 1.1-.8 2.3-1.5 3.2-2.1 2.8-4.5 5.5-6.4 8.3 0 .2-.2.2-.6.4 1-4.5 2.1-8.6 4.9-12.1zm12.3 44.5c-.4-.2-.8-.4-1.1-.8-.9-.9-.8-1.9.6-2.3.4-.2.8-.2 1.1-.2 1.9-.2 3.8-.6 5.6-.8-.9 3.6-3.6 5.3-6.2 4.1z"/><path fill="#FFF" d="M1193.6 243.2c2.4-1.1 3.8-3 4.3-5.6.6-2.8-.8-4.9-3.4-5.8-2.6-.9-5.3-.8-7.9.2-5.6 2.1-7.3 8.7-3.4 13.2.9 1.1 2.3 2.3 3.2 3.4 1.1 1.1 2.3 2.4 2.8 4 .2.4.6.8-.4.8-3.2.2-5.8-1.5-7-4.5-.4-.9-.6-1.7-.9-2.6-.8-1.7-1.9-1.9-3.2-.8-3.8 2.8-3.4 9 .6 11.5 2.3 1.3 4.7 1.7 7.3 1.7 2.1 0 4.3-.2 6.4-1.1 4.5-1.9 5.8-6.6 3-10.5-.6-.8-1.1-1.5-1.9-2.3-.3-1-.3-1.2.5-1.6zm-2.8-2.5c-.4.4-.6 0-.8-.2-.6-.6-1.1-1.3-1.3-2.1-.4-.8-1.1-1.5-.2-2.3.9-.8 3.2-.6 3.8 0 .4.4.4.8.4 1.1-.4 1.7-1.1 2.5-1.9 3.5z"/></a><a><path fill="#33A8D7" d="M949.4 358.9l-100.8-58.3V184.2L949.4 126l100.8 58.2v116.4l-100.8 58.3z"/><path fill="#FFF" d="M968.4 207.4c-19 0-34.1 15.6-34.3 34.8 0 19.4 15.4 35.2 34.3 35 18.6 0 34.1-16 33.9-35 .2-19.2-15-34.8-33.9-34.8zm0 60.1c-13.4 0-24.3-11.3-24.3-25 0-13.9 10.9-25 24.5-25 13.2 0 23.9 11.3 23.9 25s-10.9 25-24.1 25z"/><path fill="#FFF" d="M931.3 242.6c0-11.7 5.3-22.2 13.4-29.2.4-.8.6-1.5.6-1.7-4 0-7.7.2-11.5 0-2.3-.2-3.2.8-4 2.6-4.1 10.2-8.7 20.1-13 30.5-.4-.9-.8-1.7-1.1-2.3-4-9.2-7.9-18.5-11.9-27.7-.9-2.3-1.9-3.4-4.5-3.2-3.6.2-7.2 0-11.1 0 .4.9.8 1.7.9 2.4 6.8 15.8 13.4 31.4 20.1 47.3.9 2.1 1.3 5.1 3 6.2 1.7 1.3 8.7 1.9 9.8-1.1 3-7.2 6-14.5 9.2-21.7.1-.6.1-1.3.1-2.1z"/></a><a><path fill="#1C1C1C" stroke="#FFF" stroke-width="1.8" stroke-miterlimit="10" stroke-opacity=".5" d="M737 358.9l-100.8-58.3V184.2L737 126l100.8 58.2v116.4L737 358.9h0z"/><path fill="#FFF" d="M738 247.1l.7-.8c.2-.3.6-.4.9-.1.4.4 2 1.9 4.6 1.9 2.7 0 4.9-1.8 4.9-4 0-2-1.9-3-4.6-4.2-2.7-1.3-4.9-2.8-4.9-5.5s2.1-5.9 6.8-5.9c2.5 0 4.2 1 5.1 1.7.3.2.4.6.1.9l-.5.7c-.3.4-.6.4-.9.2-.4-.3-2-1.3-4-1.3-3.1 0-4.4 2.1-4.4 3.6 0 1.8 1.6 2.8 3.8 3.9 3 1.4 5.6 2.6 5.6 5.8 0 3.7-3.2 6.3-7.4 6.3-3.1 0-5-1.5-5.9-2.3-.1-.3-.2-.6.1-.9zm18.3-17.4c-.1-.4.1-.8.5-.8h1.1c.3 0 .5.2.6.5l5.2 17.6h.1l9.6-17.6c.2-.3.5-.5.7-.5h1.1c.5 0 .6.4.4.8l-19.5 35c-.2.3-.4.4-.7.4h-1.1c-.4 0-.6-.3-.4-.7l8.3-15-5.9-19.7zm24.9 1.2h-2.3c-.5 0-.6-.3-.5-.7l.1-.8c.1-.4.3-.5.7-.5h2.2l.8-5.6c.1-.4.4-.7.8-.7l.9-.1c.4 0 .6.3.6.7l-.8 5.7h6.3c.4 0 .6.3.6.7l-.1.7c-.1.4-.4.7-.7.7h-6.3l-1.9 13.2c-.3 2.4-.3 3.8 1.6 3.8 1.7 0 3.7-1 4.4-1.5.4-.3.6-.1.8.2l.4.7c.2.4.1.6-.3.9-.8.6-3.1 1.9-5.6 1.9-3.6 0-3.9-2.5-3.4-5.9l1.7-13.4zm23.4-2.5c3.6 0 6.5 2.1 6.5 5.3 0 7.7-15 6.2-15 6.2-.4 4.5 1.9 8.1 6 8.1 2.4 0 4.7-1.3 5.6-2 .5-.3.6-.3.8.1l.5.8c.2.3.2.5-.2.8-.7.6-3.7 2.4-7.3 2.4-4.8 0-7.8-4.1-7.8-9.2 0-6.8 4.5-12.6 10.9-12.5zm4.2 5.4c0-1.8-1.9-3.3-4.5-3.3-3.9 0-7.2 3.2-8 7.4 5.6.5 12.5-.2 12.5-4.1zm5.7 13.3l.7-.8c.2-.3.6-.4.9-.1.4.4 2 1.9 4.6 1.9 2.7 0 4.9-1.8 4.9-4 0-2-1.9-3-4.6-4.2-2.7-1.3-4.9-2.8-4.9-5.5s2.1-5.9 6.8-5.9c2.5 0 4.2 1 5.1 1.7.3.2.4.6.1.9l-.5.7c-.3.4-.6.4-.9.2-.4-.3-2-1.3-4-1.3-3.1 0-4.4 2.1-4.4 3.6 0 1.8 1.6 2.8 3.8 3.9 3 1.4 5.6 2.6 5.6 5.8 0 3.7-3.2 6.3-7.4 6.3-3.1 0-5-1.5-5.9-2.3 0-.3-.2-.6.1-.9zM646.9 230.7c0-.5.4-.9.9-.9h1.7c.4 0 .7.2.8.5l.6 1.7c.8-.9 2.9-2.7 6.1-2.7 2.6 0 4.4 1 6 2.8.8-.8 3.2-2.8 6.5-2.8 5.9 0 8 4.4 8 9.2v8.8c0 .5-.4.9-.9.9h-3.7c-.5 0-.9-.4-.9-.9v-9.1c0-2.4-1.1-3.9-3.4-3.9-2.7 0-3.9 1.9-3.9 1.9v11c0 .5-.4.9-.9.9h-3.4c-.5 0-.9-.4-.9-.9v-9.1c0-2.4-1.1-3.9-3.4-3.9s-3.4 1.7-3.9 2.9v10.1c0 .5-.4.9-.9.9h-3.7c-.5 0-.9-.4-.9-.9v-16.5h.2zm33.4.4c-.3-.6.1-1.2.8-1.2h4.1c.4 0 .6.2.8.5l4.6 10.4 4.6-10.4c.2-.5.6-.5 1.1-.5h3.7c.7 0 1.1.6.8 1.2l-14 30.3c-.1.3-.4.5-.8.5h-3.9c-.7 0-1.1-.6-.8-1.2l6.5-13.8-7.5-15.8z"/><path fill="none" stroke="#FFF" stroke-width="3.766" stroke-linecap="round" stroke-miterlimit="10" d="M717.8 232.3c0-.8.2-3.8 2.6-6 1.9-1.7 4.1-3.4 7.9-2.1 3.6 1.1 4.1 5.8 4.3 6.8.9 6.2-3.4 13.6-9.8 15.3-2.6.8-4.9.4-6.2.2"/><path fill="none" stroke="#FFF" stroke-width="3.766" stroke-linecap="round" stroke-miterlimit="10" d="M718.8 253.4c0 .8-.4 3.8-3 6-1.9 1.7-4.3 3.2-8.1 1.7-3.6-1.3-3.8-6-4-7.2-.8-6.2 4.1-13.4 10.5-14.9 2.6-.6 4.9-.2 6.2.2"/></a><a><path fill="#EB194F" stroke="#FFF" stroke-width="1.8" stroke-miterlimit="10" stroke-opacity=".5" d="M524.6 358.9l-100.8-58.3V184.2L524.6 126l100.8 58.2v116.4l-100.8 58.3z"/><path fill="#FFF" d="M455.3 221.7c-11.1 0-20.1 9-20.1 20.1s9 20.1 20.1 20.1 20.1-9 20.1-20.1c.1-11.1-8.9-20.1-20.1-20.1zm13.2 25c-.6 0-1.1-.2-1.5-.2-.2.4-.2.6-.4.9 1.7.8 2.8 2.4 2.8 4.3 0 2.6-2.1 4.7-4.7 4.7-1.9 0-3.6-1.1-4.3-2.8-.2 0-.4.2-.6.2.2.6.4.9.4 1.5 0 2.6-2.1 4.7-4.7 4.7s-4.7-2.1-4.7-4.7c0-.6.2-1.1.4-1.5-.2-.2-.6-.2-.8-.4-.8 1.5-2.3 2.4-4.1 2.4-2.6 0-4.7-2.1-4.7-4.7 0-1.9 1.1-3.4 2.6-4.1 0-.2-.2-.4-.2-.6-.6.2-.9.2-1.5.2-2.6 0-4.7-2.1-4.7-4.7s2.1-4.7 4.7-4.7c.6 0 1.1.2 1.5.2 0-.2.2-.6.4-.8-1.5-.8-2.6-2.4-2.6-4.1 0-2.6 2.1-4.7 4.7-4.7 1.9 0 3.6 1.1 4.3 2.6.2-.2.6-.2.8-.4-.2-.6-.4-1.1-.4-1.7 0-2.6 2.1-4.7 4.7-4.7s4.7 2.1 4.7 4.7c0 .6-.2 1.1-.4 1.7.2 0 .4.2.8.2.8-1.5 2.4-2.6 4.3-2.6 2.6 0 4.7 2.1 4.7 4.7 0 1.9-1.1 3.4-2.6 4.3.2.2.2.4.4.8.6-.2.9-.4 1.5-.4 2.6 0 4.7 2.1 4.7 4.7 0 2.8-2.8 5.1-5.5 5z"/><circle fill="#FFF" cx="455.3" cy="241.9" r="4.7"/><path fill="#FFF" d="M481.6 250.9h3.2v-16.8h-3.2v-2h7.7c7.6 0 13 1.7 13 10.4s-5.3 10.5-13 10.5h-7.7v-2.1zm6 0h1.7c5.9 0 10-1.6 10-8.4 0-6.8-4-8.4-10-8.4h-1.7v16.8zm28.2-1c-.7 2.3-2.6 3.3-5 3.3-2.9 0-5.7-1.2-5.7-4.5 0-4.5 4.4-4.7 7.9-4.7h2.8v-.9c0-2.3-1.2-3.1-3.5-3.1-2 0-3.6.4-3.8 2.5h-2.8c.2-3.4 3.1-4.5 6.3-4.5 3.5 0 6.5.7 6.5 4.5v8.4h2.6v2h-5.2l-.1-3zm-4.7 1.3c3.2 0 4.6-2.3 4.6-5.1h-2.2c-1.9 0-5.7 0-5.7 2.7.1 1.8 1.8 2.4 3.3 2.4zm11.4-.3h2.5v-10.5h-2.5v-2h5.2v12.5h2.5v2h-7.7v-2zm5.1-15.9h-3v-3h3v3zm4.6 17.9v-5.1h2c0 1.4.6 2.2 1.5 2.7s2.1.6 3.3.6c1.2 0 3-.7 3-2.3 0-2-2.1-2-3.7-2.2-2.7-.4-6-.8-6-4.2 0-3.1 3-4.6 5.7-4.6 1.9 0 3.6.6 4.4 2.1h.1v-1.8h2v4.8h-2c0-1.3-.4-2-1.2-2.5-.7-.4-1.7-.6-2.8-.6-1.5 0-3.6.4-3.6 2.3 0 1.7 2.5 1.7 4.4 2 2.6.4 5.5.9 5.5 4.2 0 3.4-3.1 4.7-6.1 4.7-1.7 0-3.8-.7-4.4-2.3h-.1v2h-2v.2zm31.7-12.5h-1.6l-6 13.9c-1.1 2.5-1.8 4.2-4.7 4.2-.7 0-1.3-.1-2-.2v-2c.5 0 1 .1 1.5.1 2.2 0 2.3-1.8 3.2-3.6l-5.7-12.5H547v-2h7.3v2h-2.8l4.2 9.8 4.1-9.8H557v-2h6.9v2.1zm1.3 10.5h3.2v-16.8h-3.2v-2h9.5c3.5 0 8.1.1 8.1 5.6 0 2.2-1.6 4.2-4.2 4.6v.1c3 0 4.8 1.7 4.8 4.8 0 5.2-4.2 5.9-8.8 5.9h-9.4v-2.2zm6.1-9.6h3.4c2.7 0 5.2-.5 5.2-3.8 0-3.5-3-3.5-5.1-3.5h-3.4v7.3h-.1zm0 9.6h3.4c3 0 5.8-.5 5.8-3.8 0-3.2-2.7-3.6-5.8-3.6h-3.4v7.4zm15.2 0h2.5v-10.5h-2.5v-2h5.2v12.5h2.5v2h-7.7v-2zm5.2-15.9h-3v-3h3v3zm3.7 15.9h2.5v-16.8h-2.5v-2h5.2V251h2.5v2h-7.7v-2.1zm8.9 0h2.5v-16.8h-2.5v-2h5.2V251h2.5v2h-7.7v-2.1z"/></a><a><path fill="#91C447" stroke="#FFF" stroke-width="1.8" stroke-miterlimit="10" stroke-opacity=".5" d="M1480 174.6l-100.8-58.3V-.1L1480-58.3 1580.8-.1v116.4L1480 174.6z"/><path fill="#FFF" d="M1452.8 61.2h5.5c.1.9.4 1.6 1.1 2 .6.4 1.5.7 2.7.7.9 0 1.6-.2 2.1-.5s.8-.8.8-1.3c0-.7-.3-1.2-.8-1.6-.5-.4-2-.7-4.4-1.1-2.3-.3-4-.9-5-1.8s-1.5-2-1.5-3.5c0-1.7.7-3 2.1-3.9s3.5-1.4 6.3-1.4c2.7 0 4.7.5 6.1 1.5 1.3 1 2 2.3 2.1 3.9h-4.9c-.1-.6-.3-1.1-.8-1.5-.4-.3-1.2-.5-2.2-.5s-1.8.1-2.3.4c-.6.3-.8.6-.8 1.1 0 .7.3 1.2.8 1.5.5.4 1.8.7 3.8 1 3 .4 4.9 1.1 5.8 1.9.9.9 1.4 2 1.4 3.4 0 1.8-.7 3.3-2.1 4.3s-3.6 1.5-6.6 1.5c-2.8 0-5-.5-6.6-1.6-1.7-1.2-2.5-2.7-2.6-4.5zm33.7-1.1h5.3c-.2 2-1 3.7-2.5 5.1-1.5 1.4-3.7 2-6.5 2-3 0-5.4-.8-7.1-2.4-1.7-1.6-2.6-3.9-2.6-6.8 0-2.8.8-5.1 2.5-6.8 1.7-1.7 4.2-2.5 7.5-2.5 2.6 0 4.6.6 6 1.8 1.4 1.2 2.3 2.9 2.5 5h-5.2c-.2-1.2-.5-2-1.1-2.6-.6-.5-1.4-.8-2.4-.8-1.3 0-2.4.5-3.1 1.4s-1.1 2.3-1.1 4.2c0 2.1.4 3.6 1.1 4.6s1.8 1.6 3 1.6c1.1 0 1.9-.3 2.6-1s1.1-1.7 1.1-2.8zm14.3-17.3v8.4c.7-.8 1.6-1.4 2.6-1.9 1-.4 2.2-.7 3.5-.7 2 0 3.5.6 4.5 1.7s1.5 2.9 1.5 5.3v10.8h-5.5v-10c0-1.5-.3-2.6-.8-3.4-.5-.7-1.3-1.1-2.3-1.1-1.1 0-2 .4-2.7 1.2-.7.8-1 2-1 3.5v9.7h-5.5V42.6h5.7v.2zm25.7 24.4c-3 0-5.4-.8-7.2-2.3-1.8-1.6-2.8-3.9-2.8-6.9 0-2.9.9-5.1 2.6-6.8 1.7-1.6 4.2-2.5 7.4-2.5 3 0 5.4.8 7.2 2.3s2.7 3.9 2.7 6.9c0 3.1-.9 5.4-2.8 6.9-1.8 1.6-4.2 2.4-7.1 2.4zm0-3.4c1.4 0 2.5-.5 3.2-1.4.7-1 1.1-2.5 1.1-4.5s-.4-3.5-1.1-4.4-1.8-1.4-3.2-1.4c-1.4 0-2.5.5-3.2 1.4-.8 1-1.1 2.4-1.1 4.4s.4 3.5 1.1 4.4 1.8 1.5 3.2 1.5zm22.7 3.4c-3 0-5.4-.8-7.2-2.3-1.8-1.6-2.8-3.9-2.8-6.9 0-2.9.9-5.1 2.6-6.8 1.7-1.6 4.2-2.5 7.4-2.5 3 0 5.4.8 7.2 2.3s2.7 3.9 2.7 6.9c0 3.1-.9 5.4-2.8 6.9-1.7 1.6-4.1 2.4-7.1 2.4zm0-3.4c1.4 0 2.5-.5 3.2-1.4.7-1 1.1-2.5 1.1-4.5s-.4-3.5-1.1-4.4-1.8-1.4-3.2-1.4c-1.4 0-2.5.5-3.2 1.4-.8 1-1.1 2.4-1.1 4.4s.4 3.5 1.1 4.4 1.8 1.5 3.2 1.5zm13.5-21h5.5v23.7h-5.5V42.8zM1423.2 32.7c-15.8 0-28.6 11.1-28.6 24.9 0 13.8 12.8 24.9 28.6 24.9s28.6-11.1 28.6-24.9c0-13.9-12.8-24.9-28.6-24.9zm3 33.9h-5.1V56.4c0-1.5-.2-2.6-.6-3.2-.4-.8-1.1-.9-1.9-.9-.9 0-1.7.4-2.3 1.1-.6.8-.9 1.9-.9 3.4v10h-5.1V56.6c0-1.5-.2-2.6-.6-3.4-.4-.6-1.1-.9-1.9-.9-.9 0-1.7.4-2.3 1.1-.6.8-.9 1.9-.9 3.4v10h-5.1V49.7h4.9v2.4c.8-1.1 1.7-1.9 2.4-2.4.9-.6 1.9-.8 2.8-.8 1.3 0 2.4.4 3.2.9.9.6 1.5 1.5 1.9 2.4.8-1.1 1.7-2.1 2.6-2.6s2.1-.8 3.2-.8c2.1 0 3.4.6 4.3 1.9s1.5 3 1.5 5.5l-.1 10.4zm14.7.9c-.8 2.4-1.7 4-2.6 4.5-.9.6-2.1 1.1-3.6 1.1h-1.9c-.6 0-1.1-.2-1.7-.2v-3.4c.2 0 .4.2.8.2h.9c.6 0 1.1-.2 1.5-.6.4-.4.8-.9.9-1.9l.2-.8-7.5-16.9h6.4l4 11.3 3-11.3h5.5l-5.9 18z"/></a><a><path fill="#F48420" d="M1267.6 174.6l-100.8-58.3V-.1l100.8-58.2L1368.4-.1v116.4l-100.8 58.3z"/><g fill="#FFF"><path d="M1299.2 64.9c0 3.8-1.4 7-7.7 7h-32.7c-.7-3.1 1.4-9.7 4.2-11.8 2.4-2.1 5.6-2.1 8.4-1.7 7.7.7 9.1-4.5 9.4-10.1.7-6.3-3.5-8-8.7-7.7-4.2 0-8-.7-8-5.6 0-5.2 4.2-6.3 8.4-5.9 8 1 12.2-2.4 12.5-10.4.7-3.5 2.4-5.2 5.9-5.2h8.4v51.4z"/><path d="M1237.6 22.1s-.7-8.4 8.7-8.7h30.6c0 3.1-.3 7-2.1 9.1-2.4 3.1-5.9 3.5-9.4 3.1-8-.7-9.4 4.9-9.7 10.4-.3 6.3 4.2 7.3 9.4 7 4.2-.3 7.3 1 7.3 5.6 0 4.9-3.1 6.6-7.7 5.9-8.4-1-13.2 2.1-13.6 10.8-.3 7.3-13.2 5.9-13.2 5.9l-.3-49.1z"/></g><g fill="#FFF"><path d="M1195.6 82.3c-2.5-.2-3.7.8-3.7 3.1v.3h3.7V89h-3.7v12.4h-3.4v-16c0-2.2.6-3.8 1.8-4.9 1.2-1.1 3-1.6 5.3-1.5v3.3z"/><path d="M1202.6 101.8c-2.3 0-4.3-.8-5.9-2.4-1.6-1.6-2.4-3.5-2.4-5.9 0-2.3.8-4.3 2.4-5.9 1.6-1.6 3.6-2.4 5.9-2.4 2.3 0 4.3.8 5.9 2.4 1.6 1.6 2.4 3.5 2.4 5.9 0 2.3-.8 4.3-2.4 5.9-1.6 1.6-3.5 2.4-5.9 2.4zm-3.4-4.7c.9.9 2.1 1.4 3.5 1.4s2.5-.5 3.5-1.4c.9-.9 1.4-2.1 1.4-3.5s-.5-2.6-1.4-3.5c-.9-.9-2.1-1.4-3.5-1.4s-2.5.5-3.5 1.4c-.9.9-1.4 2.1-1.4 3.5s.4 2.6 1.4 3.5zM1223 85.7h3.4v15.7h-3.4v-2c-1 1.6-2.6 2.4-4.9 2.4-1.8 0-3.2-.6-4.4-1.7-1.1-1.1-1.7-2.7-1.7-4.7v-9.6h3.4V95c0 1.2.3 2.1.9 2.7.6.6 1.5.9 2.6.9 1.2 0 2.2-.4 2.9-1.1.7-.7 1.1-1.9 1.1-3.4v-8.4zM1237 85.3c1.8 0 3.2.6 4.4 1.7 1.1 1.1 1.7 2.7 1.7 4.7v9.6h-3.4V92c0-1.2-.3-2.1-.9-2.7-.6-.6-1.5-.9-2.6-.9-1.2 0-2.2.4-2.9 1.1s-1.1 1.9-1.1 3.4v8.4h-3.4V85.7h3.4v2c1-1.6 2.6-2.4 4.8-2.4zM1257.5 79.5h3.4v21.9h-3.4v-2.3c-1.3 1.8-3.1 2.7-5.5 2.7-2.2 0-4-.8-5.5-2.4-1.5-1.6-2.3-3.5-2.3-5.8s.8-4.3 2.3-5.9c1.5-1.6 3.4-2.4 5.5-2.4 2.4 0 4.2.9 5.5 2.6v-8.4zm-8.5 17.7c.9 1 2.1 1.4 3.5 1.4s2.6-.5 3.5-1.4c.9-.9 1.4-2.1 1.4-3.6s-.5-2.6-1.4-3.6c-.9-1-2.1-1.4-3.5-1.4s-2.6.5-3.5 1.4c-.9.9-1.4 2.1-1.4 3.6s.4 2.6 1.4 3.6zM1265.9 95c.2 1.2.8 2.1 1.7 2.7.9.6 2 1 3.3 1 1.8 0 3.1-.6 4-1.9l2.8 1.6c-1.6 2.3-3.8 3.4-6.9 3.4-2.6 0-4.6-.8-6.2-2.3-1.6-1.6-2.4-3.5-2.4-5.9 0-2.3.8-4.3 2.3-5.9 1.5-1.6 3.5-2.4 6-2.4 2.3 0 4.2.8 5.7 2.4 1.5 1.6 2.2 3.6 2.2 5.9 0 .4 0 .8-.1 1.4h-12.4zm0-2.7h9.2c-.2-1.3-.8-2.2-1.6-2.9-.8-.6-1.8-1-2.9-1-1.3 0-2.3.3-3.1 1-.9.7-1.4 1.7-1.6 2.9zM1283.3 88.4c.9-1.9 2.5-2.9 4.8-2.9v3.7c-1.3-.1-2.4.2-3.4.9s-1.4 1.9-1.4 3.5v7.9h-3.4V85.7h3.4v2.7zM1290.6 89.8c0 .8.3 1.4 1 1.8.7.4 1.4.8 2.4 1 .9.2 1.9.5 2.8.7.9.2 1.7.7 2.4 1.3s1 1.5 1 2.6c0 1.3-.5 2.4-1.6 3.2-1 .8-2.4 1.3-4.1 1.3-1.5 0-2.8-.3-3.8-1-1-.6-1.8-1.5-2.1-2.5l1.3-.8c.3.9.8 1.5 1.6 2s1.8.7 3 .7 2.1-.3 2.9-.8c.8-.5 1.1-1.2 1.1-2.2 0-.8-.3-1.4-1-1.8-.6-.5-1.4-.8-2.4-1.1-.9-.2-1.9-.5-2.8-.7s-1.7-.7-2.4-1.3c-.6-.6-1-1.5-1-2.5 0-1.3.5-2.3 1.5-3.2 1-.9 2.3-1.3 3.8-1.3 1.3 0 2.3.3 3.3.8.9.6 1.6 1.3 2.1 2.3l-1.3.8c-.3-.8-.8-1.4-1.6-1.8-.7-.4-1.5-.6-2.4-.6-1.1 0-2 .3-2.7.8-.7.7-1 1.4-1 2.3zM1313.4 85.7h1.6v15.7h-1.6v-3c-1.1 2.2-3 3.3-5.6 3.3-1.9 0-3.3-.6-4.4-1.7-1.1-1.1-1.6-2.7-1.6-4.6v-9.7h1.6v9.7c0 1.5.4 2.6 1.2 3.5.8.9 1.9 1.3 3.4 1.3 1.6 0 2.9-.5 3.9-1.6s1.5-2.6 1.5-4.6v-8.3zM1319.9 81.6c-.3.2-.5.4-.9.4-.3 0-.6-.1-.9-.4-.3-.2-.4-.5-.4-.9 0-.3.1-.6.4-.9.3-.2.5-.4.9-.4.3 0 .6.1.9.4.3.2.4.5.4.9 0 .3-.2.6-.4.9zm-1.7 19.8V85.7h1.6v15.7h-1.6zM1331.1 87.3h-4.7v10.2c0 .9.2 1.5.5 1.9.3.4.8.6 1.5.7.7.1 1.6 0 2.6-.1v1.4c-2.1.3-3.7.2-4.7-.4-1-.6-1.6-1.8-1.6-3.5V87.3h-3.4v-1.5h3.4v-3.9l1.6-.5v4.4h4.7v1.5zM1339.4 85.4c2.3 0 4.2.8 5.6 2.4 1.4 1.6 2.1 3.6 2.1 5.8v.8h-14.2c.2 1.8.9 3.2 2.1 4.2 1.2 1.1 2.7 1.6 4.5 1.6 1.3 0 2.4-.3 3.3-.8.9-.5 1.6-1.2 2.1-2.1l1.4.8c-.6 1.1-1.6 1.9-2.8 2.6-1.2.6-2.5 1-4.1 1-2.4 0-4.4-.8-5.9-2.3-1.5-1.5-2.3-3.5-2.3-5.9 0-2.3.8-4.3 2.3-5.8 1.5-1.5 3.5-2.3 5.9-2.3zm0 1.5c-1.8 0-3.3.6-4.4 1.7-1.2 1.1-1.9 2.5-2 4.3h12.6c-.2-1.9-.8-3.3-2-4.4-1.3-1.1-2.6-1.6-4.2-1.6z"/></g></a><a><path fill="#00546E" stroke="#FFF" stroke-width="1.8" stroke-miterlimit="10" stroke-opacity=".5" d="M1055.4 174.6l-100.8-58.3V-.1l100.8-58.2L1156.2-.1v116.4l-100.8 58.3z"/><path fill="#FFF" d="M1055.1 7.5c-14.1 0-25.6 11.5-25.6 25.6s11.5 25.6 25.6 25.6 25.6-11.5 25.6-25.6-11.5-25.6-25.6-25.6zm15.4 29.1l-1.3 3c-.2.4-.4.6-.8.6h-4c-.6 0-1.1.8-.8 1.3l6.4 9.6c.2.4.2.9-.2 1.1l-3 1.9c-.4.2-.9.2-1.1-.2l-8.8-13c-.2-.2-.4-.4-.8-.4h-2.6c-.2 0-.6.2-.8.4l-9.6 13c-.2.4-.8.4-1.1.2l-2.6-2.1c-.4-.2-.4-.8-.2-1.1l6.6-9.2c.4-.6 0-1.3-.8-1.3h-4.7c-.4 0-.8-.4-.8-.8V14.2c0-.4.2-.6.4-.8l3-1.9c.6-.4 1.3 0 1.3.8v22.2c0 .4.4.8.8.8h24.3c1 .2 1.6.8 1.2 1.3zM985.8 85.3c0 4.4 2.4 7.2 5.8 7.2 4 0 6.7-2.2 6.7-2.2l1.4 2.1s-3.7 3.3-8.5 3.3c-6.4 0-9.6-4.2-9.6-10.8 0-6.4 4-11.2 9.8-11.2 5.8 0 8.4 3.4 8.4 9.4 0 1-.2 2.1-.2 2.2h-13.8zm9.8-3c0-3-1.2-5.5-4.4-5.5s-5 2.5-5.2 5.5h9.6zm16.6 9.4l4.8-14.6-2.8-.6v-2.2l9-.2v2.4l-2.2.4-6.8 18.4h-4.4l-6.6-18.2-2-.6v-2.2l9-.2v2.4l-2.8.4 4.8 14.8zm16-6.4c0 4.4 2.4 7.2 5.8 7.2 4 0 6.7-2.2 6.7-2.2l1.4 2.1s-3.7 3.3-8.5 3.3c-6.4 0-9.6-4.2-9.6-10.8 0-6.4 4-11.2 9.8-11.2 5.8 0 8.4 3.4 8.4 9.4 0 1-.2 2.1-.2 2.2h-13.8zm9.8-3c0-3-1.2-5.5-4.4-5.5s-5 2.5-5.2 5.5h9.6zm14.6-5.3c1-1.1 3.3-3.3 6-3.3 2 0 3.6.6 3.6.6l-.2 5.8h-2.6l-.6-3c-3 0-4.9 2-5.8 3.1v11.9l4 1v2.2h-11.4v-2.2l3.4-1V77.2l-3.4-.8v-2.2l6.6-.2.4 3zm15.2 15.3s1.2.4 3.4.4c2.4 0 4.5-.7 4.5-3.2 0-4.3-11.2-2.3-11.2-9.6 0-4.2 3.2-6.2 7.3-6.2 3.2 0 6.8 1.2 6.8 1.2l-.1 5.4h-2.6l-.6-3.1s-1.2-.5-3.2-.5-3.6.6-3.6 2.7c0 4.3 11.2 2.6 11.2 9.5 0 4.6-4 6.8-8.8 6.8-3.7 0-6.3-.9-6.3-.9v-5.9h2.8l.4 3.4zm19.5-7c0 4.4 2.4 7.2 5.8 7.2 4 0 6.7-2.2 6.7-2.2l1.4 2.1s-3.7 3.3-8.5 3.3c-6.4 0-9.6-4.2-9.6-10.8 0-6.4 4-11.2 9.8-11.2 5.8 0 8.4 3.4 8.4 9.4 0 1-.2 2.1-.2 2.2h-13.8zm9.7-3c0-3-1.2-5.5-4.4-5.5s-5 2.5-5.2 5.5h9.6zm9.1-7s4.4-1.6 7.8-1.6c4.6 0 7.4 1.6 7.4 6.2v12.2l3.2.8v2.2l-6.2.2-.8-2.8c-1.4 1.4-3.8 3.2-6.6 3.2-3.8 0-6-2.2-6-6 0-4.6 3.6-6.2 9.2-6.2h3.2v-3.2c0-2.4-1.4-3.6-3.8-3.6s-4 .6-4 .6l-.6 3h-2.6l-.2-5zm8.4 10.8c-4 0-5.5 1-5.5 3.4 0 1.8 1.1 3 2.9 3 3 0 5.4-3.2 5.4-3.2v-3.2h-2.8zm25.8-8.8h-5.8v12.9c0 1.8.9 2.4 2 2.4 1 0 2.1-.4 3.1-1l1.1 2.1c-1.8 1.3-3.6 2-5.6 2-2.4 0-4.6-1.3-4.6-5.8V77.3h-4v-2.6l4-.4v-5l4-.8v5.8h5.8v3z"/></a><a><path fill="#2D1946" stroke="#FFF" stroke-width="1.8" stroke-miterlimit="10" stroke-opacity=".5" d="M843 174.6l-100.8-58.3V-.1L843-58.3 943.8-.1v116.4L843 174.6z"/><path fill="#FFF" d="M802.8 54.9c0 2.8-1.5 4.3-4 4.3h-1.5v4.7h-1.8V50.7h3.4c2.4-.1 3.9 1.4 3.9 4.2zm-1.9 0c0-1.7-.8-2.4-2.1-2.4h-1.5v4.9h1.5c1.4 0 2.1-1 2.1-2.5zm15.6 4h-1.1v4.7h-1.9V50.4h3.4c2.4 0 4 1.5 4 4.1 0 2.1-.9 3.4-2.4 4l2.8 5.1h-2.1l-2.7-4.7zm-1.1-1.7h1.5c1.3 0 2.1-.9 2.1-2.4s-.8-2.3-2.1-2.3h-1.5v4.7zm23.4 4.7v1.7h-6.6V50.4h6.4v1.7h-4.5v3.8h4.1v1.7h-4.1v4h4.7v.3zm17.7 0v1.7h-6.6V50.4h6.4v1.7h-4.5v3.8h4.1v1.7h-4.1v4h4.7v.3zm17.1.7v1.1h-6V50.5h1.1v12.1h4.9zm11.9-12v13.2h-1.1V50.6h1.1zm19.2 0v13.2h-1.2l-3.6-7.7c-.4-.9-1.1-2.4-1.3-3.2v10.9h-1.1V50.6h1.1l3.6 7.7c.4.9 1.1 2.4 1.5 3.2 0-.9-.2-2.6-.2-3.8v-7.2l1.2.1zm18.2 12v1.1h-6.4V50.5h6.2v1.1h-4.9v4.9h4.7v1.1h-4.7v5.1l5.1-.1z"/><path fill="none" stroke="#FFF" stroke-width="1.262" stroke-linecap="round" stroke-linejoin="round" stroke-miterlimit="10" d="M774 64.4l7.8-8.1c1.7-1.7 2.7-5.9-.8-6.7M763 60.5l8.3-8.4s-3.9-4.1-6.2-1.5c-2.4 2.7 1.6 6 1.6 6l7.2 7.9M770.4 60.6l10.5-11"/></a><a><path fill="#302683" stroke="#FFF" stroke-width="1.8" stroke-miterlimit="10" stroke-opacity=".5" d="M1373.8-10.7L1273-68.9v-116.4l100.8-58.2 100.8 58.2v116.4l-100.8 58.2z"/><path fill="#FFF" d="M1288.5-143.7v30.8h10v-30.8h-10m13 6v24.8h10v-30.8l-10 6m17.9-6v25.9l10 4.9v-30.8h-10m13 0v30.8l10-4.9v-25.9h-10m17.9 0v30.8h10v-30.8h-10m12 4.9v25.9h10v-30.8l-10 4.9m12.9 0v25.9h9.9v-30.8l-9.9 4.9m18 0v21l10 4.9v-30.8l-10 4.9m11.9-4.9v30.8h10v-30.8h-10m24.9.6h3v16.1h4.9v2.7h-7.8l-.1-18.8zm18.7 18.8h-3l-.5-3.4h-3.6l-.5 3.4h-2.7l3-18.8h4.3l3 18.8zm-6.7-6h2.9l-1.4-9.5h-.1l-1.4 9.5zm17-8.5v.7c0 1.9-.6 3.1-1.9 3.8v.1c1.6.6 2.2 2 2.2 4v1.5c0 2.9-1.5 4.5-4.5 4.5h-4.7V-143h4.5c3-.1 4.4 1.3 4.4 4.2zm-5.9-1.6v5h1.2c1.1 0 1.8-.5 1.8-2v-1c0-1.3-.5-1.9-1.5-1.9h-1.5v-.1zm0 7.6v5.8h1.7c1 0 1.5-.5 1.5-1.9v-1.6c0-1.7-.6-2.3-1.9-2.3h-1.3z"/></a><a><path fill="#007550" stroke="#FFF" stroke-width="1.8" stroke-miterlimit="10" stroke-opacity=".5" d="M1161.6-10.7l-100.8-58.2v-116.4l100.8-58.2 100.8 58.2v116.4l-100.8 58.2z"/><path fill="#FFF" d="M1175.4-147.3c-.2-.6-.4-1.1-.4-1.7-.6-.9-5.8-1.9-6.8-1.9-.2 0-8.8-.8-9.4.4-.8 1.5-.8 5.8-.6 7 .6-.9 4.7-3.6 5.8-4 .9-.4 5.5-2.1 8.3 2.8 0 .2.2.4-.2.4s-.6 0-.6-.4c0-.8-1.3-1.3-1.7-1.5-1.1-.4-2.4-.6-3.6-.2-4.3 1.1-7 5.8-7.3 7-.6 1.5-2.4 7 3 11.7.8.8 1.5 1.1 2.4 1.5 2.4.9 7 1.5 9 .4.2 0 .2-.2 0-.4-.2-.4-6-1.7-8.3-2.8-1.9-.9-1.9-8.1-.8-10.2.2-.6-.8-.2-1.7.4-.8.4-1.5.8-1.5.8-.2-.2.4-.8.6-.8 2.4-2.3 5.8-.9 6.4-.8.8.4 1.5.6 1.5.8 0 .2-.2.2-.4.2 0 0-2.8-.9-3.4-.8-1.1.6-.4 6.6-.4 6.8.2 1.1.6 1.7.9 1.9 4.1 2.3 18.6-.4 19.8-1.3-4.2-2.3-8.4-8-10.6-15.3z"/><path fill="#FFF" d="M1243.9-133.8c-.2-.2-2.6-3.8-6.8-3.8-.9 0-2.1.2-2.8.6-2.3.9-4.9 1.9-5.1 3.8.4.6 1.3 1.1 5.1 2.3-1.3.6-15.4-3.8-16.6-8.8-4.7-.2-9.4-1.7-13-8.3 0 14.3-20.1 19-30.9 19.8 9.8 4.3 20.3 17.5 21.8 18.5 4.9 2.8 20.9 1.1 21.1.9 18.1-1.4 31.8-19.3 27.2-25zm-48.9 13.2c16 8.5 36.9-.6 41.2-11.5-4.4 16.4-33.5 19.8-41.2 11.5zm11.1-55c-4-4.5-10.9-5.1-10.9-5.3-.9-2.3 4.9-8.3 6.6-10 .2-.2 0-.4-.2-.2-.2 0-14.7 1.7-19.6 7.9-.4-2.3.9-5.5 2.4-7.7 0-.4-.4-.2-.6-.2-13.6 3-24.5 27.3-24.5 37.3 1.1.8 10 .6 15.4 2.8-1.5-9 1.1-16.9 6.6-18.6 4.3-1.3 9.4 1.9 13 7.7.6-1.9 1.7-3.2 3.2-3.8.9-.2 2.1-.2 3 .4.3-5.1 2.2-9 5.6-10.3z"/><path fill="#FFF" d="M1209.3-172.2c3.4 0 8.1 4.1 10.5 11.9 1.3 4 1.5 7.9.9 11.1-.6 2.8-1.9 4.7-3.6 5.3-.4.2-.8.2-1.1.2-3.4 0-8.1-4.1-10.5-11.9-2.6-8.3-.8-15.3 2.8-16.4.2 0 .6-.2 1-.2m0-2c-.6 0-1.1 0-1.9.2-5.1 1.7-7 10.2-4.1 19 2.4 7.9 7.9 13.4 12.6 13.4.6 0 1.1 0 1.9-.2 5.1-1.7 7-10.2 4.1-19-2.5-8-7.9-13.4-12.6-13.4zm-26 8.8c3.4 0 8.1 4.1 10.5 11.9 2.6 8.3.8 15.3-2.8 16.4h-1.1c-3.4 0-8.1-4.1-10.5-11.9-1.3-4-1.5-7.9-.9-11.1.6-2.8 1.9-4.7 3.6-5.3h1.2m0-2.3c-.6 0-1.1 0-1.9.2-5.1 1.7-7 10.2-4.1 19 2.4 7.9 7.9 13.4 12.6 13.4.6 0 1.1 0 1.9-.2 5.1-1.7 7-10.2 4.1-19-2.5-7.9-7.9-13.4-12.6-13.4z"/><path fill="#FFF" stroke="#FFF" stroke-width="2.172" stroke-miterlimit="10" d="M1194.6-154.7c-.2-2.3 1.1-7.5 3.4-8.5 2.1-.9 3.6.4 5.3 1.9"/><path fill="#FFF" d="M1180.6-122.1c.9 1.9 1.9 3.6 3.2 5.1 1.1 1.7 2.4 3.2 4 4.5 2.8 2.8 6.2 4.9 10 6.2 3.8 1.3 7.7 1.9 11.7 1.5 4-.2 7.9-1.3 11.7-2.8.2 0 .4 0 .4.2s0 .4-.2.4c-3.6 2.3-7.5 3.6-11.9 4.1-4.1.6-8.7.2-12.6-1.3-4-1.5-7.7-3.8-10.7-7-2.8-3.2-5.1-6.8-6.2-10.9 0-.2 0-.4.2-.4.3.2.4.2.4.4zM1088.7-121.4c.6 0 1.3.1 2 .4.9.4 1.6 1 2.1 1.9.5.8.7 1.7.7 2.5 0 1-.3 1.9-.9 2.6-.3.4-.6.7-1 1s-.8.5-1.2.6c-.1 0-.2.1-.2.1 0 .2.2.3.6.4s.8.2 1.3.2c.3 0 .6-.1.9-.2h.2c.1 0 .1.1.2.2s.1.2.1.3c0 .2-.1.5-.4.7-.3.3-.7.5-1.1.6-.5.1-.9.2-1.4.2-.6 0-1.2-.1-1.8-.3-.7-.2-1.6-.6-2.9-1.2-.2-.1-.5-.2-.8-.3-.3-.1-.5-.1-.7-.1h-.3c-.1 0-.2 0-.2-.1-.1-.1-.1-.2-.1-.3 0-.2.1-.4.2-.5.2-.2.5-.3.8-.3h.4c.1 0 .1 0 .1-.1s-.1-.2-.3-.4c-.4-.5-.7-.9-.9-1.3-.3-.6-.4-1.3-.4-2 0-.9.2-1.7.7-2.5.5-.7 1.2-1.3 2.1-1.7.7-.2 1.5-.4 2.2-.4zm-.7 1.9c-.3 0-.6.1-.8.4-.2.2-.3.6-.3 1 0 .5.1 1 .2 1.6.2.6.4 1.1.6 1.6.4.7.8 1 1.3 1 .3 0 .6-.1.9-.4.2-.2.3-.5.3-.9 0-.5-.1-1-.3-1.7-.2-.6-.4-1.2-.7-1.7-.1-.5-.6-.8-1.2-.9zm9.8 1.1v3.6c0 .8.3 1.1.8 1.1.1 0 .3 0 .4-.1l.3-.3c.1-.2.1-.7.1-1.4s0-1.2-.1-1.5c0-.1 0-.2-.1-.2 0 0-.1-.1-.3-.2-.2-.1-.4-.3-.4-.5 0-.3.2-.5.6-.6.8-.2 1.6-.3 2.4-.3.4 0 .7.2.7.7v4c0 .1.1.3.4.4.2.1.3.3.3.5 0 .4-.5.7-1.4.9-.5.1-1.1.2-1.6.2-.2 0-.4 0-.4-.1-.1 0-.1-.1-.1-.3 0-.3-.1-.4-.2-.4h-.1s-.2.1-.4.3c-.4.3-.9.5-1.4.5-.8 0-1.4-.2-1.8-.7-.3-.4-.4-1.1-.4-2.1v-1.2c0-.4 0-.7-.1-.8-.1-.2-.2-.3-.4-.4-.2-.1-.3-.2-.3-.2 0-.1-.1-.1-.1-.2 0-.3.3-.6.8-.7.9-.2 1.7-.3 2.6-.3 0 0 .2.1.2.3zm9.1.1v3.8c0 .3 0 .5.1.7.1.1.2.3.3.4s.2.2.3.2c0 .1.1.2.1.3 0 .6-.7.8-2.1.8-.8 0-1.4-.1-1.8-.2-.2 0-.3-.1-.4-.2-.1-.1-.1-.2-.1-.4 0-.1 0-.2.1-.3 0-.1.2-.2.4-.3.1-.1.2-.3.3-.5s.1-.6.1-1v-1.5c0-.2-.1-.3-.4-.4s-.4-.3-.4-.5c0-.3.2-.5.5-.6.5-.2 1-.3 1.6-.5.6-.1 1-.2 1.3-.2-.1-.1 0 0 .1.4zm-1.3-2.9c.4 0 .7.1.9.2.2.1.3.3.3.6s-.2.6-.5.8c-.5.3-1.2.5-1.9.5-.3 0-.6-.1-.8-.2-.3-.2-.4-.4-.4-.7 0-.4.3-.7.8-.9.6-.3 1.2-.3 1.6-.3zm6.2 2.4c.8 0 1.5.2 2.1.6s.8.8.8 1.4c0 .4-.1.7-.4.9-.2.2-.5.3-.9.3s-.6-.1-.8-.4c-.1-.1-.1-.3-.3-.6-.1-.4-.3-.6-.7-.6-.2 0-.4.1-.6.3-.2.2-.2.5-.2.8 0 .5.2 1 .6 1.4.3.3.7.5 1.2.5.2 0 .4 0 .6-.1s.3-.1.6-.2h.2c.1 0 .3.1.4.2s.2.3.2.5-.1.4-.2.6c-.1.2-.4.4-.6.6-.6.4-1.2.5-2 .5-.9 0-1.7-.3-2.3-.8-.8-.7-1.2-1.5-1.2-2.5s.4-1.8 1.1-2.5c.4-.7 1.4-1 2.4-.9zm7.1-2.1l-.1 2.1v1.7c0 .2.1.3.3.3.1 0 .3-.1.6-.3.3-.2.4-.3.4-.4 0 0 0-.1-.1-.3-.1-.1-.1-.2-.1-.3 0-.5.6-.7 1.7-.7.6 0 1.1.1 1.4.2.1 0 .3.1.3.3.1.1.1.2.1.4s-.1.3-.3.4c0 0-.2 0-.4.1-.2 0-.4.2-.8.4s-.5.4-.5.4c0 .1.2.3.6.9.4.6.7 1 1 1.3l.5.5s.3.2.5.3c.3.2.5.4.5.6s-.1.4-.3.5c-.2.1-.5.2-.8.2h-2.1c-.3 0-.5-.1-.6-.3l-1.1-1.4c-.3-.4-.5-.6-.5-.7s-.1-.1-.2-.1-.1 0-.1.1v.4c0 .2 0 .3.1.4 0 .1.1.2.3.3.1.1.2.2.2.4 0 .3-.2.5-.5.7-.3.2-.9.2-1.6.2-.9 0-1.4 0-1.7-.1-.1 0-.3-.1-.4-.3-.1-.1-.2-.3-.2-.4 0-.2.1-.3.3-.4.2-.1.3-.2.3-.2s.1-.1.1-.3c.1-.6.1-1.6.1-2.8v-1.4c0-.5 0-.8-.1-.9s-.2-.2-.4-.2c-.4 0-.5-.2-.5-.4s.1-.3.2-.5c.2-.1.4-.3.8-.4 1.1-.4 2-.6 2.6-.6.4 0 .5.1.5.3zm14.5-.5c.6 0 1.3.1 2 .4.9.4 1.6 1 2.1 1.9.5.8.7 1.7.7 2.5 0 1-.3 1.9-.9 2.6-.3.4-.6.7-1 1s-.8.5-1.2.6c-.1 0-.2.1-.2.1 0 .2.2.3.6.4.4.1.8.2 1.3.2.3 0 .6-.1.9-.2h.2c.1 0 .1.1.2.2s.1.2.1.3c0 .2-.1.5-.4.7-.3.3-.7.5-1.1.6-.5.1-.9.2-1.4.2-.6 0-1.2-.1-1.8-.3-.7-.2-1.6-.6-2.9-1.2-.2-.1-.5-.2-.8-.3-.3-.1-.5-.1-.7-.1h-.3c-.1 0-.2 0-.2-.1-.1-.1-.1-.2-.1-.3 0-.2.1-.4.2-.5.2-.2.5-.3.8-.3h.4c.1 0 .1 0 .1-.1s-.1-.2-.3-.4c-.4-.5-.7-.9-.9-1.3-.3-.6-.4-1.3-.4-2 0-.9.2-1.7.7-2.5.5-.7 1.2-1.3 2.1-1.7.7-.2 1.5-.4 2.2-.4zm-.7 1.9c-.3 0-.6.1-.8.4-.2.2-.3.6-.3 1 0 .5.1 1 .2 1.6.2.6.4 1.1.6 1.6.4.7.8 1 1.3 1 .3 0 .6-.1.9-.4.2-.2.3-.5.3-.9 0-.5-.1-1-.3-1.7-.2-.6-.4-1.2-.7-1.7-.1-.5-.6-.8-1.2-.9zm9.8 1.1v3.6c0 .8.3 1.1.8 1.1.1 0 .3 0 .4-.1l.3-.3c.1-.2.1-.7.1-1.4s0-1.2-.1-1.5c0-.1 0-.2-.1-.2 0 0-.1-.1-.3-.2-.3-.1-.4-.3-.4-.5 0-.3.2-.5.6-.6.8-.2 1.6-.3 2.4-.3.4 0 .7.2.7.7v4c0 .1.1.3.4.4.2.1.3.3.3.5 0 .4-.5.7-1.4.9-.5.1-1.1.2-1.6.2-.2 0-.4 0-.4-.1-.1 0-.1-.1-.1-.3 0-.3-.1-.4-.3-.4h-.1s-.2.1-.4.3c-.4.3-.9.5-1.4.5-.8 0-1.4-.2-1.8-.7-.3-.4-.4-1.1-.4-2.1v-1.2c0-.4 0-.7-.1-.8-.1-.2-.2-.3-.4-.4-.2-.1-.3-.2-.3-.2 0-.1-.1-.1-.1-.2 0-.3.3-.6.8-.7.9-.2 1.7-.3 2.6-.3.1 0 .3.1.3.3zm9.2-.4c.8 0 1.4.2 1.9.6.3.2.5.4.6.7.1.3.2.6.2 1.1v1c0 .7 0 1.1.1 1.3 0 .1.1.2.1.2s.1 0 .3.1c.1 0 .2.1.2.3 0 .2-.1.4-.3.7-.2.2-.4.4-.7.6-.3.2-.7.3-1 .3-.5 0-.8-.2-1.1-.5-.1-.1-.2-.2-.3-.2s-.2.1-.3.2c-.4.3-.9.5-1.5.5s-1-.1-1.4-.4l-.6-.6s-.2-.5-.2-.8c0-.5.2-.9.6-1.2.6-.6 1.4-.8 2.6-.8.3 0 .4 0 .5-.1s.1-.2.1-.4c0-.5 0-.8-.1-1s-.3-.3-.5-.3c-.1 0-.2 0-.4.1l-.4.4c-.4.6-.8.8-1.2.8-.2 0-.4-.1-.5-.2s-.2-.3-.2-.5.1-.4.3-.6c.2-.2.4-.4.7-.6.7-.5 1.6-.7 2.5-.7zm-.4 3.8c-.2 0-.4.1-.5.2-.1.2-.2.3-.2.6 0 .2.1.4.2.5.1.1.2.2.4.2.4 0 .5-.3.5-.9 0-.2 0-.4-.1-.5-.1 0-.2-.1-.3-.1zm8.1-3.8c.8 0 1.5.2 2.1.6s.8.8.8 1.4c0 .4-.1.7-.4.9-.2.2-.5.3-.9.3s-.6-.1-.8-.4c-.1-.1-.1-.3-.3-.6-.1-.4-.3-.6-.7-.6-.2 0-.4.1-.6.3-.2.2-.2.5-.2.8 0 .5.2 1 .6 1.4.3.3.7.5 1.2.5.2 0 .4 0 .6-.1s.3-.1.6-.2h.2c.1 0 .3.1.4.2s.2.3.2.5-.1.4-.2.6c-.1.2-.4.4-.6.6-.6.4-1.2.5-2 .5-.9 0-1.7-.3-2.3-.8-.8-.7-1.2-1.5-1.2-2.5s.4-1.8 1.1-2.5c.3-.7 1.3-1 2.4-.9zm7-2.1l-.1 2.1v1.7c0 .2.1.3.3.3.1 0 .3-.1.6-.3.3-.2.4-.3.4-.4 0 0 0-.1-.1-.3-.1-.1-.1-.2-.1-.3 0-.5.6-.7 1.7-.7.6 0 1.1.1 1.4.2.1 0 .3.1.3.3.1.1.1.2.1.4s-.1.3-.3.4c0 0-.2 0-.4.1-.2 0-.4.2-.8.4s-.5.4-.5.4c0 .1.2.3.6.9.4.6.7 1 1 1.3l.5.5s.3.2.5.3c.3.2.5.4.5.6s-.1.4-.3.5c-.2.1-.5.2-.8.2h-2.1c-.3 0-.5-.1-.6-.3l-1.1-1.4c-.3-.4-.5-.6-.5-.7s-.1-.1-.2-.1-.1 0-.1.1v.4c0 .2 0 .3.1.4 0 .1.1.2.3.3.1.1.2.2.2.4 0 .3-.2.5-.5.7-.3.2-.9.2-1.6.2-.9 0-1.4 0-1.7-.1-.1 0-.3-.1-.4-.3-.1-.1-.2-.3-.2-.4 0-.2.1-.3.3-.4.2-.1.3-.2.3-.2s.1-.1.1-.3c.1-.6.1-1.6.1-2.8v-1.4c0-.5 0-.8-.1-.9s-.2-.2-.4-.2c-.4 0-.5-.2-.5-.4s.1-.3.2-.5c.2-.1.4-.3.8-.4 1.1-.4 2-.6 2.6-.6.4 0 .5.1.5.3zM1082.7-91l3-14.9c0-1.5 1.1-2.6 2.6-2.6h-1.7c-1.5 0-2.6 1.1-2.6 2.6l-3 14.9c0 1.5 1.1 2.6 2.6 2.6h1.7c-1.2 0-2.6-1.1-2.6-2.6z"/><path fill="#FFF" d="M1079.2-91l3-14.9c0-1.5 1.1-2.6 2.6-2.6h-1.7c-1.5 0-2.6 1.1-2.6 2.6l-3 14.9c0 1.5 1.1 2.6 2.6 2.6h1.7c-1.5 0-2.6-1.1-2.6-2.6zM1116.8-101.4h-1.7l-.4 2.3h1.7c.6 0 1.1-.4 1.1-1.1.3-.8.1-1.2-.7-1.2zm26 .4v-.4h-.2c-.2.8-.4 1.7-.8 2.4l-.9 2.1h1.9l-.2-2.1c0-.7 0-1.4.2-2zm-36.2 0v-.4h-.2c-.2.8-.4 1.7-.8 2.4l-.9 2.1h1.9l-.2-2.1c.1-.7.1-1.4.2-2z"/><path fill="#FFF" d="M1171.6-108.5h-82.3c-1.1 0-2.1 1.1-2.1 2.6l-2.4 14.9c0 1.5.9 2.6 2.1 2.6h82.3c1.1 0 2.1-1.1 2.1-2.6l2.4-14.9c0-1.5-1-2.6-2.1-2.6zm-76.3 16.7c-1.5 0-2.4-.4-3.2-1.3-.8-.9-.9-2.1-.8-3.8l.6-3.2c.4-3 2.4-4.7 5.3-4.7 2.3 0 3.4 1.1 3.8 3.2.2.6 0 .8-.6.9l-1.5.6c-.6.2-.6 0-.8-.6-.2-.8-.6-1.1-1.3-1.1-1.1 0-1.7.6-1.9 1.9l-.6 3.2c-.2 1.3.2 1.9 1.3 1.9.8 0 1.3-.4 1.7-1.1.4-.6.4-.8.9-.6l1.5.8c.4.2.6.6.2.9-.6 2.1-2.1 3-4.6 3zm14.5-.2h-1.5c-.8 0-.9-.2-.9-.8l-.2-1.3h-3.2l-.6 1.3c-.2.6-.6.8-1.1.8h-1.7c-.4 0-.6-.2-.4-.8l5.1-11.1c.2-.6.4-.6.9-.6h1.7c.4 0 .6.2.8.6l1.9 11.1c-.2.5-.4.8-.8.8zm11-8.1c-.2 1.7-.9 2.8-2.1 3.4 0 .2.2.4.4.8l.9 3c.2.6 0 .9-.6.9h-1.7c-.8 0-1.1-.2-1.3-.8l-.6-2.4c-.2-.8-.4-.9-.9-.9h-.3l-.6 3.4c-.2.6-.2.8-.8.8h-1.7c-.6 0-.6-.2-.6-.8l1.7-10.9c.2-.6.2-.8.8-.8h4.3c2.3-.2 3.4 1.5 3.1 4.3zm12.6 8.1h-1.9c-.4 0-.8-.2-.8-.6l-.2-4.1c0-1.1 0-2.1.2-3.2h-.1c-.2 1.1-.4 2.1-.8 3.2l-1.5 4.1c-.2.6-.4.6-.9.6h-1.9c-.4 0-.8-.2-.8-.6l-.6-11.1c0-.6 0-.8.6-.8h1.9c.6 0 .8.2.8.6v4.5c0 .9-.2 2.1-.2 3.2h.2c.2-1.1.4-2.3.8-3.2l1.7-4.5c.2-.6.4-.6.9-.6h1.7c.6 0 .8.2.8.6l.2 4.5c0 .8 0 1.9-.2 3.2h.2c.2-.9.4-1.9.8-3.2l1.3-4.5c.2-.6.4-.6.9-.6h1.7c.4 0 .6.2.4.8l-4 11.1c-.5.4-.8.6-1.2.6zm12.6 0h-1.5c-.8 0-.9-.2-.9-.8l-.2-1.3h-3.2l-.6 1.3c-.2.6-.6.8-1.1.8h-1.9c-.4 0-.6-.2-.4-.8l5.1-11.1c.2-.6.4-.6.9-.6h1.9c.4 0 .6.2.8.6l1.9 11.1c-.2.5-.5.8-.8.8zm6.6-7.9c1.7.4 4 1.1 3.4 4.3-.4 2.4-2.1 3.8-5.1 3.8-2.3 0-3.8-.9-4.1-2.6 0-.6.2-.8.6-.9l1.5-.6c.6-.2.8-.2.8.4.2.6.8.9 1.5.9 1.1 0 1.7-.4 1.7-.9.2-.6-.4-.8-1.7-1.1-.8-.2-1.3-.2-2.1-.8-.4-.2-.8-.4-.9-.8-.4-.6-.8-1.7-.6-3 .4-2.3 2.1-3.6 4.9-3.6 2.1 0 3.2.9 3.8 2.6.2.6 0 .8-.4.9l-1.5.8c-.4.2-.6.2-.8-.4-.2-.6-.6-.9-1.3-.9-.9 0-1.5.4-1.5.9-.1.7.5.7 1.8 1zm14.5-3.9l-1.7 10.9c-.2.6-.2.8-.8.8h-1.7c-.6 0-.6-.2-.6-.8l.6-4h-3l-.6 4c0 .6-.2.8-.8.8h-1.7c-.6 0-.6-.2-.6-.8l1.7-10.9c.2-.6.2-.8.8-.8h1.7c.6 0 .6.2.6.8l-.6 4h3l.6-4c0-.6.4-.8.8-.8h1.7c.6 0 .8.2.6.8z"/></a><a><path fill="#473056" stroke="#FFF" stroke-width="1.8" stroke-miterlimit="10" stroke-opacity=".5" d="M949.4-10.7L848.6-68.9v-116.4l100.8-58.2 100.8 58.2v116.4L949.4-10.7z"/><path fill="#FFF" d="M883.4-138.4c1.1 0 2.6-.3 3.1-.5v4.6h-.3v-.3c0-1.6-1-2.7-2.6-2.7h-3.5v15.5c0 .9.8 1.6 1.7 1.6h.3v.3h-8v-.3h.3c.9 0 1.6-.7 1.7-1.6v-15.5h-5.2c-2.9 0-4.6 2.2-2.9 4.9l-.3.1c-2.7-2.7-.8-6.2 3.2-6.2h12.5v.1zm27.1.6c.9-3.3 3.7-7.5 9.2-7v.3c-4.3.3-6.3 3.8-7.3 6.7l-5 15.5s-.5 1.6-.5 2.9h-.2l-5.7-12.7-4.7 11.1c-1 2.6-3.9 6.6-7.9 5.7v-.3c3.4-.2 5.6-4.2 6.5-6.4l-5.4-14.6c-.5-1.1-1.5-1.5-2.3-1.5h-.2v-.3h8v.3h-.2c-.7 0-1.4.6-1 1.7l3.2 9.1 4.8-11.5h.2l5.2 11.6 3.3-10.6z"/><path fill="#FFF" d="M936.6-115.1c-4.6 2.3-10.3 0-13.3-7.8l-.8-2.2h-6.3l-1.4 3.3c-.4 1.1.3 1.7 1 1.7h.2v.3h-5.7v-.3h.2c.7 0 1.6-.4 2.2-1.4l5.9-13.4c-1.1-2.6-2.8-4.7-5.7-3.7l-.1-.3c5.4-2.8 8.5.7 10.5 5.5l3.8 9.4c1.7 4.3 4.5 9.8 9.3 8.7l.2.2zm-14.5-11.1l-1.8-4.9c-.2-.6-.4-1.2-.7-1.9l-2.8 6.8h5.3z"/><path fill="#FFF" d="M927.1-133.4c.9-3.6 3.7-5 8.1-5h6c6.2 0 10.1 3.5 10.1 9.2s-3.9 9.2-10.1 9.2h-9.6v-.3h.3c.9 0 1.6-.7 1.7-1.6v-15.4c-4.1.3-5.4 2-6.3 3.9h-.2zm10.5 12.4h3.3c3.8 0 6.1-3.1 6.1-8.1s-2.4-8.1-6.1-8.1h-3.3v16.2zm41.5 3.9c-5.3 7.4-14.5 1.4-19.8-1.1-1.7-.8-3.7-1.7-6.3-1.7v-.3h.3c.9 0 1.7-.7 1.7-1.7v-14.6c0-.9-.8-1.7-1.7-1.7h-.3v-.3h8v.3h-.3c-1 0-1.7.7-1.8 1.7v15.3c0 .9.3 1.4 1.1 1.7 8.4 2.7 15.2 4.4 18.8 2.2l.3.2z"/><path fill="#FFF" d="M971.7-131.7c-1.2-2.7-.1-6.6 4.4-7 4.7-.5 10.6 2.9 10.6 9.4 0 5.9-4.7 9.8-11.4 9.8-6.8 0-11.5-3.9-11.5-9.7 0-4.4 2.7-7.8 6.9-9l.2.3c-1.9 1.6-2.7 4.8-2.7 8 0 5.8 2.9 9.3 7.2 9.3 4.2 0 7.1-3.4 7.1-8.7 0-4.7-2.3-8.5-6.3-8.3-3.4.2-4.8 3.2-4.1 5.9h-.4zm37.8 1.5c.7 7-3.3 10.7-9.1 10.7-7.3 0-11.6-4-11.6-9.5 0-5.7 4.6-9.7 11.5-9.7 2.8 0 5.2.6 6.8 1.4l.1 4.5h-.2c-1-3.5-3.7-4.8-6.5-4.8-4.5 0-7.3 3.4-7.3 8.3 0 5 2.8 8.5 7.7 8.6 5 0 8.6-3.4 8.4-9.6l.2.1zm7.4 8.4c0 .9.8 1.7 1.7 1.7h.3v.3h-8v-.3h.3c.9 0 1.7-.7 1.7-1.7v-14.6c0-.9-.8-1.6-1.7-1.6h-.3v-.3h8v.3h-.3c-.9 0-1.7.7-1.7 1.6v14.6zm20.5 6.4c-4.3 2.2-8.4.8-12.7-4.6l-7-8.5 6.3-8.3c.4-.6.1-1.3-.6-1.3h-.3v-.2h6v.2h-.1c-1.2 0-2.2.5-2.9 1.3l-5.1 6.1 7.2 8.9c3.2 4.2 5.7 6 9.2 6.2v.2z"/></a><a><path fill="#57B16D" stroke="#FFF" stroke-width="1.8" stroke-miterlimit="10" stroke-opacity=".5" d="M736.9-10.6L636.1-68.8v-116.5l100.8-58.2 100.8 58.2v116.5L736.9-10.6z"/><g fill="#FFF"><path d="M719.2-132c-4.1-.3-7.5-.8-7.5-2.8 0-.5.2-1 .6-1.4 1.3-1.2 4-1.7 6.2-1.6 3 0 5.6.9 7.3 2.6l.2.1 2.1-1.8-.2-.2c-2.4-2.1-5.8-3.3-9.4-3.3-2.5 0-4.8.5-6.5 1.4-1.9 1-2.9 2.5-2.9 4.2 0 1.9 1 4.5 9.7 5.3 5 .4 7.4 1 7.4 2.9 0 2.1-2.5 3.4-6.7 3.4-3.6 0-6.5-1.1-9.1-3.3l-.2-.1-1.8 2 .2.2c2.8 2.4 6.6 3.8 10.8 3.8 5.8 0 9.5-2.4 9.5-6-.1-4.1-4.7-5-9.7-5.4zM778.1-138.1c3.3 0 5.7 1.2 7 3.4l.1.2 2.5-1.2-.1-.2c-1.9-2.9-5.2-4.6-9.4-4.6-6.9 0-11.2 3.8-11.2 9.8 0 6.1 4.3 9.8 11.1 9.8 4.3 0 7.6-1.6 9.5-4.6l.1-.2-2.5-1.2-.1.2c-1.3 2.2-3.7 3.4-7 3.4-5.4 0-8.5-2.7-8.5-7.4-.1-4.8 3-7.4 8.5-7.4zM801.2-132.7l9.4-7.4h-3.8l-13.5 10.4v-10.4h-2.7v18.6h2.7v-5.1l5.8-4.5 8.5 9.6h3.4zM730.1-140.1v2.4h8.6v16.2h2.6v-16.2h7.4l1.3-2.4zM753.7-140.1l6.2 11.3h-9.7l-1.2 2.4h12.2l2.7 4.9h3l-10.3-18.6zM672.7-120.3c6.2 0 10-3.6 10-9.5v-10h-2.9v9.8c0 4.3-2.6 6.8-7 6.8-4.5 0-7-2.5-7-6.8v-9.8h-2.9v10c-.2 5.8 3.7 9.5 9.8 9.5zM662.9-113.6h41v-2.7h-41zM698.5-139.8H686v2.8h12.4c2.9 0 4.5 1.2 4.5 3.4s-1.6 3.4-4.5 3.4H686v9.4h2.9v-6.6h9.6c4.5 0 7.3-2.4 7.3-6.2.1-3.9-2.7-6.2-7.3-6.2z"/></g></a><g fill="#FFF"><circle id="a" cx="1601.6" cy="-188.2" r="13.1"><animate fill="remove" values=".25;.25;1;.25;.25" attributeName="fill-opacity" dur="2.5s" additive="replace" begin="0s" calcMode="linear" restart="always" accumulate="none" attributeType="XML" xlink:href="#a" xmlns:xlink="http://www.w3.org/1999/xlink" repeatCount="indefinite"/></circle><circle opacity=".2" cx="1556.6" cy="-188.2" r="13.1"/><circle opacity=".2" cx="1601.6" cy="-143.2" r="13.1"/><circle opacity=".2" cx="1524.3" cy="196.4" r="10.7"/><circle opacity=".2" cx="446.3" cy="518.4" r="10.7"/><circle opacity=".2" cx="479.3" cy="518.4" r="10.7"/><circle opacity=".2" cx="446.3" cy="486.4" r="10.7"/></g><g fill="none" stroke="#FFF" stroke-width="3" stroke-miterlimit="10"><path opacity=".2" d="M583.4-247.8l84.3-.2v-43.6h494v49.5M583.2-197.6h40.7l-.2 315h-225v436h657v-10.5"/><path opacity=".2" d="M583.2-146.6h18.5v196h141.5"/><path opacity=".2" d="M583.2-94.6h27.5v159h-199v508h934v-38h60v39h201v-341h-27v60h-34v-119h-42v64h-30.5"/><path opacity=".2" d="M583.2-43.6h9.5v-223h887v208.5M583.2 8.4h7.5v82h-66v35.5"/></g></svg>