<?xml version="1.0" encoding="utf-8"?>
<!-- Generator: Adobe Illustrator 19.0.0, SVG Export Plug-In . SVG Version: 6.00 Build 0)  -->
<svg version="1.1" id="Слой_1" xmlns="http://www.w3.org/2000/svg" xmlns:xlink="http://www.w3.org/1999/xlink" x="0px" y="0px"
	 viewBox="397 -292.6 1219.3 867.1" enable-background="new 397 -292.6 1219.3 867.1" xml:space="preserve">
<a>
	<g>
		<path id="XMLID_5_" opacity="0.2" fill="#FFFFFF" enable-background="new    " d="M576.6-228.9H432.9c-3.8,0-6.8-3.1-6.8-6.8v-29
			c0-3.8,3.1-6.8,6.8-6.8h143.7c3.8,0,6.8,3.1,6.8,6.8v29C583.4-231.9,580.3-228.9,576.6-228.9z"/>
		<text transform="matrix(1 0 0 1 436.287 -243.836)" fill="#FFFFFF" font-family="'Arial-BoldMT'" font-size="18px">Ruby on Rails</text>
	</g>
</a>
<a>
	<g>
		<path id="XMLID_15_" opacity="0.2" fill="#FFFFFF" enable-background="new    " d="M576.6-177H432.9c-3.8,0-6.8-3.1-6.8-6.8v-29
			c0-3.8,3.1-6.8,6.8-6.8h143.7c3.8,0,6.8,3.1,6.8,6.8v29C583.4-180.1,580.3-177,576.6-177z"/>
		<text transform="matrix(1 0 0 1 436.287 -192.3359)" fill="#FFFFFF" font-family="'Arial-BoldMT'" font-size="18px">AngularJS</text>
	</g>
</a>
<a>
	<g>
		<path id="XMLID_17_" opacity="0.2" fill="#FFFFFF" enable-background="new    " d="M576.6-125.6H432.9c-3.8,0-6.8-3.1-6.8-6.8v-29
			c0-3.8,3.1-6.8,6.8-6.8h143.7c3.8,0,6.8,3.1,6.8,6.8v29C583.4-128.6,580.3-125.6,576.6-125.6z"/>
		<text transform="matrix(1 0 0 1 436.287 -141.8359)" fill="#FFFFFF" font-family="'Arial-BoldMT'" font-size="18px">ReactJS</text>
	</g>
</a>
<a>
	<g>
		<path id="XMLID_21_" opacity="0.2" fill="#FFFFFF" enable-background="new    " d="M576.6-74.1H432.9c-3.8,0-6.8-3.1-6.8-6.8v-29
			c0-3.8,3.1-6.8,6.8-6.8h143.7c3.8,0,6.8,3.1,6.8,6.8v29C583.4-77.2,580.3-74.1,576.6-74.1z"/>
		<text transform="matrix(1 0 0 1 436.287 -89.46)" fill="#FFFFFF" font-family="'Arial-BoldMT'" font-size="18px">Backbone.js</text>
	</g>
</a>
<a>
	<g>
		<path id="XMLID_20_" opacity="0.2" fill="#FFFFFF" enable-background="new    " d="M576.6-22.3H432.9c-3.8,0-6.8-3.1-6.8-6.8v-29
			c0-3.8,3.1-6.8,6.8-6.8h143.7c3.8,0,6.8,3.1,6.8,6.8v29C583.4-25.4,580.3-22.3,576.6-22.3z"/>
		<text transform="matrix(1 0 0 1 436.287 -38.21)" fill="#FFFFFF" font-family="'Arial-BoldMT'" font-size="18px">Android</text>
	</g>
</a>
<a>
	<g>
		<path id="XMLID_1_" opacity="0.2" fill="#FFFFFF" enable-background="new    " d="M576.6,29.2H432.9c-3.8,0-6.8-3.1-6.8-6.8v-29
			c0-3.8,3.1-6.8,6.8-6.8h143.7c3.8,0,6.8,3.1,6.8,6.8v29C583.4,26.1,580.3,29.2,576.6,29.2z"/>
		<text transform="matrix(1 0 0 1 436.287 14.54)" fill="#FFFFFF" font-family="'Arial-BoldMT'" font-size="18px">iOS</text>
	</g>
</a>
<g id="technologies">
	<a>
		<path fill="#19A160" stroke="#FFFFFF" stroke-width="1.8" stroke-miterlimit="10" stroke-opacity="0.5" d="M1480,542.8
			l-100.8-58.2V368.2L1480,310l100.8,58.2v116.4L1480,542.8L1480,542.8z"/>
		<g id="XMLID_2_">
			<path id="XMLID_34_" fill="#FFFFFF" d="M1528.6,427.9l-0.1-0.1l-18.2-9.4l-1.1,1.5c-0.3,0.2-2.1,1.7-6.9,2.6
				c-3.8,0.7-10-0.5-20.3-19.3c-2.9-5.2-5.9-9.5-8.9-13c0.3,2.3,0.3,4.9,0.1,7.4c-0.4,4.3-2.3,10.5-4.7,17.1c1.2,1.2,2.7,3,4.3,5.3
				c3,4.3,5.7,9.4,7.5,12.8l0.5,0.9c1.8,3.4,4.9,5.6,8.8,6.3c1.2,0.2,2.2,0.3,3.1,0.3c1,0,1.8-0.1,2.1-0.1l34.7-2.8l0.6-0.5
				c1.2-0.9,1.4-2.8,1.4-4.1C1531.4,429.9,1528.9,428.1,1528.6,427.9z"/>
			<path id="XMLID_95_" fill="#FFFFFF" d="M1467.6,387.7c-0.9-2.6-4.1-9.7-13.2-9.7c-9.1,0-12.2,7.2-13.2,9.7
				c-0.9,2.6-1.6,7-1.2,11.3c1,11.6,14.3,39.8,14.3,39.8s13.3-28.2,14.3-39.8C1469.1,394.8,1468.5,390.3,1467.6,387.7z"/>
			<path id="XMLID_33_" fill="#FFFFFF" d="M1481.6,440.6l-4.4-4.3c-0.8-0.8-1.2-1.7-2.2-1.7l-12.1,0.1l-2.6,0
				c-3.4,7.4-6.1,12.9-6.1,12.9s-2.7-5.5-6.1-12.9l-2.8,0h-16.1c-1,0-2,0.7-2.2,1.7l-2.1,7.3l46.8,8.6l9.7-8
				C1482.5,443.3,1482.6,441.6,1481.6,440.6z"/>
			<path id="XMLID_215_" fill="#FFFFFF" d="M1485.6,444.7l-23.4,19.7h24.5c0.7,0,20,0,20,0l-16-19.2
				C1489.3,443.7,1487.1,443.5,1485.6,444.7z"/>
			<path id="XMLID_214_" fill="#FFFFFF" d="M1431.1,448.1l-7.1-1.3l-4.2,14.7c-0.2,0.7-0.1,1.5,0.4,2c0.4,0.6,1.1,0.9,1.9,0.9h9.1
				V448.1z"/>
			<polygon id="XMLID_213_" fill="#FFFFFF" points="1434.4,448.7 1434.4,464.4 1457.1,464.4 1468.5,454.9 			"/>
			<path id="XMLID_236_" fill="#FFFFFF" d="M1495,443.9l7.2,8.3l27.6-9.8c0.5-0.2,0.3-0.9-0.2-0.9L1495,443.9z"/>
			<path id="XMLID_235_" fill="#FFFFFF" d="M1503.9,455.6l27.5-10.9l8.7,18.6c0.2,0.5-0.1,1.1-0.7,1.1H1511L1503.9,455.6z"/>
		</g>
	</a>
	<a>
		<path fill="#2BB673" stroke="#FFFFFF" stroke-width="1.8" stroke-miterlimit="10" stroke-opacity="0.5" d="M1267.6,542.8
			l-100.8-58.2V368.2l100.8-58.2l100.8,58.2v116.4L1267.6,542.8L1267.6,542.8z"/>
		<path fill="#FFFFFF" d="M1304.2,405.1c-1.1-17.7-15.4-32.4-33.3-33.7c-7.2-0.6-14.1,0.9-20.3,4.1l-14-12.2
			c-0.9-0.8-2.3-1.1-3.4-0.6c-1.1,0.6-1.9,1.7-1.9,3v42.8c0.2,9.6,4.1,18.5,10.9,25.2c6.8,6.8,16,10.5,25.6,10.5
			c10,0,19.8-4.1,26.7-11.7C1301.3,425,1304.8,415.2,1304.2,405.1L1304.2,405.1z M1293.1,431.3c-6.6,7-15.6,10.9-25.2,10.9
			c-9,0-17.7-3.6-24.3-10c-6.2-6-9.8-14.3-10.2-23h9.8c1.7,0,3.2-1.3,3.2-2.8v-4.1c0-0.4,0.6-0.8,1.3-0.8c0.8,0,1.3,0.4,1.3,0.8v16
			c0,1.5,1.5,2.8,3.2,2.8s3.2-1.3,3.2-2.8v-20c0-0.4,0.6-0.8,1.3-0.8c0.8,0,1.3,0.4,1.3,0.8v22c0,1.5,1.5,2.8,3.2,2.8
			s3.2-1.3,3.2-2.8v-27.5c0-0.4,0.6-0.8,1.3-0.8c0.7,0,1.3,0.4,1.3,0.8v25.4c0,1.5,1.5,2.8,3.2,2.8s3.2-1.3,3.2-2.8v-22
			c0-0.4,0.6-0.8,1.3-0.8c0.8,0,1.3,0.4,1.3,0.8v22c0,1.5,1.5,2.8,3.2,2.8s3.2-1.3,3.2-2.8v-20c0-0.4,0.6-0.8,1.3-0.8
			c0.7,0,1.3,0.4,1.3,0.8v16c0,1.5,1.5,2.8,3.2,2.8s3.2-1.3,3.2-2.8v-4.1c0-0.4,0.6-0.8,1.3-0.8h9.6
			C1301.9,417.6,1298.7,425.3,1293.1,431.3L1293.1,431.3z M1289.3,410.2v4.1c0,0.4-0.6,0.8-1.3,0.8c-0.8,0-1.3-0.4-1.3-0.8v-16
			c0-1.5-1.5-2.8-3.2-2.8s-3,1.3-3,2.8v20c0,0.4-0.6,0.8-1.3,0.8c-0.8,0-1.3-0.4-1.3-0.8v-22c0-1.5-1.5-2.8-3.2-2.8
			s-3.2,1.3-3.2,2.8v22c0,0.4-0.6,0.8-1.3,0.8c-0.8,0-1.3-0.4-1.3-0.8v-25.4c0-1.5-1.5-2.8-3.2-2.8s-3.2,1.3-3.2,2.8v27.5
			c0,0.4-0.6,0.8-1.3,0.8c-0.7,0-1.3-0.4-1.3-0.8v-22c0-1.5-1.5-2.8-3.2-2.8s-3.2,1.3-3.2,2.8v20c0,0.4-0.6,0.8-1.3,0.8
			c-0.8,0-1.3-0.4-1.3-0.8v-16c0-1.5-1.5-2.8-3.2-2.8s-3.2,1.3-3.2,2.8v4.1c0,0.4-0.6,0.8-1.3,0.8h-10v-41.4c0-0.6,0.2-0.9,0.8-1.1
			c0.6-0.2,0.9-0.2,1.3,0.2l14.3,12.6c0.4,0.2,0.8,0.4,1.1,0.2c6-3.4,12.8-4.9,19.8-4.3c16.8,1.3,30.3,15.1,31.4,32v2.1h-9.6
			C1290.8,407.3,1289.3,408.6,1289.3,410.2L1289.3,410.2z"/>
		<path fill="#FFFFFF" d="M1204.3,468.3c0,2.9-2.6,4.9-6.6,4.9h-6.5c-0.4,0-0.6-0.4-0.6-0.8V458c0-0.4,0.2-0.6,0.6-0.6h6.2
			c3.8,0,6.2,1.8,6.2,4.4c0,1.3-0.6,2.4-1.8,3C1203.5,465.3,1204.3,466.6,1204.3,468.3L1204.3,468.3z M1194.4,460.1v3.7h3.3
			c1.3,0,2.3-0.7,2.3-1.9c0-1.1-1-1.9-2.4-1.9h-3.2V460.1L1194.4,460.1z M1200.7,468.3c0-1.3-1.1-2-2.8-2h-3.5v4.2h3.5
			C1199.6,470.5,1200.7,469.6,1200.7,468.3z M1219.7,470.9l-0.3,2c0,0.2-0.1,0.4-0.4,0.4h-11c-0.4,0-0.6-0.2-0.6-0.6v-14.6
			c0-0.4,0.2-0.6,0.6-0.6h10.4c0.2,0,0.4,0.1,0.4,0.4l0.1,2c0,0.4-0.2,0.6-0.6,0.6h-7.1v3.4h5.9c0.3,0,0.4,0.1,0.4,0.4v2.2
			c0,0.2-0.1,0.4-0.4,0.4h-5.9v3.5h7.9C1219.5,470.3,1219.7,470.5,1219.7,470.9L1219.7,470.9z M1236.5,473.2l-2.2,0.3
			c-0.4,0-0.7-0.1-0.8-0.5l-1.1-2.9h-6.7l-1,2.6c-0.1,0.4-0.4,0.6-0.8,0.6h-2.3c-0.5,0-0.7-0.3-0.5-0.8l5.4-14.5
			c0.1-0.4,0.4-0.6,0.8-0.6h3c0.4,0,0.7,0.1,0.9,0.5l5.7,14.5C1237.2,472.7,1237,473,1236.5,473.2L1236.5,473.2z M1231.4,467.2
			l-2.4-6.5l-2.3,6.5H1231.4z M1251.2,457.7v2.3c0,0.3-0.1,0.4-0.4,0.4h-5.4v12.4c0,0.3-0.1,0.4-0.4,0.4h-2.9
			c-0.3,0-0.4-0.1-0.4-0.4v-12.4h-5.2c-0.4,0-0.6-0.2-0.6-0.7l0.2-2.1c0-0.2,0.2-0.4,0.4-0.4h14.3
			C1251.1,457.2,1251.2,457.5,1251.2,457.7z"/>
		<path fill="#FFFFFF" d="M1267.9,457.4v0.2c0,0.1,0,0.1-0.1,0.1h-7.1V473c0,0.1,0,0.1-0.1,0.1h-0.2c-0.1,0-0.1,0-0.1-0.1v-15.3h-7
			c-0.1,0-0.2-0.1-0.2-0.2v-0.1c0-0.1,0.1-0.1,0.2-0.1L1267.9,457.4L1267.9,457.4z M1284,457.4v15.7c0,0.1,0,0.1-0.1,0.1h-0.2
			c-0.1,0-0.1,0-0.1-0.1v-7.4h-12.1v7.4c0,0.1,0,0.1-0.1,0.1h-0.2c-0.1,0-0.1,0-0.1-0.1v-15.7c0-0.1,0-0.1,0.1-0.1h0.2
			c0.1,0,0.1,0,0.1,0.1v7.7h12.1v-7.7c0-0.1,0-0.1,0.1-0.1L1284,457.4L1284,457.4z M1301.5,473.2h-0.3c-0.1,0-0.2,0-0.2-0.1
			l-3.5-6.5c-0.8,0.2-1.7,0.3-2.7,0.3h-4.5v6.3c0,0.1,0,0.1-0.1,0.1h-0.2c-0.1,0-0.1,0-0.1-0.1v-15.6c0-0.1,0.1-0.2,0.2-0.2h5.3
			c3.7,0,6,1.4,6,4.7c0,2.4-1.2,3.8-3.4,4.4l3.6,6.7C1301.7,473.1,1301.6,473.2,1301.5,473.2L1301.5,473.2z M1294.9,466.2
			c3.7,0,6-1.2,6-4.3c0-3-2.1-4.2-5.5-4.2h-5v8.5H1294.9z M1317.2,472.8v0.2c0,0.1-0.1,0.1-0.1,0.1h-10.8c-0.1,0-0.2-0.1-0.2-0.2
			v-15.4c0-0.1,0.1-0.2,0.2-0.2h10.2c0.1,0,0.1,0,0.1,0.1v0.2c0,0.1,0,0.1-0.1,0.1h-9.9v7.1h8.3c0.1,0,0.1,0,0.1,0.1v0.2
			c0,0.1,0,0.1-0.1,0.1h-8.3v7.4h10.7C1317.1,472.6,1317.2,472.7,1317.2,472.8L1317.2,472.8z M1332.8,473.2c-0.1,0-0.2,0-0.2-0.1
			l-2.1-4.6h-9.7l-2.1,4.6l-0.1,0.1h-0.1c-0.1,0-0.2-0.1-0.1-0.2l7-15.5c0.1-0.1,0.1-0.2,0.3-0.2h0.1c0.1,0,0.2,0,0.3,0.2l7,15.5
			C1333,473,1332.9,473.2,1332.8,473.2L1332.8,473.2z M1330.2,468.1l-4.6-10.2l-4.6,10.2H1330.2z M1336.1,473.2
			c-0.1,0-0.2-0.1-0.2-0.2v-15.5c0-0.1,0.1-0.2,0.2-0.2h5.2c5.3,0,8.5,3.2,8.5,8.1c0,5.1-3.1,7.8-9,7.8L1336.1,473.2L1336.1,473.2z
			 M1340.7,472.7c5.6,0,8.5-2.5,8.5-7.3c0-4.6-2.9-7.6-8-7.6h-4.9v14.9L1340.7,472.7L1340.7,472.7z"/>
	</a>
	<a>
		<path fill="#9229CA" stroke="#FFFFFF" stroke-width="1.8" stroke-miterlimit="10" stroke-opacity="0.5" d="M1055.4,542.8
			l-100.8-58.2V368.2l100.8-58.2l100.8,58.2v116.4L1055.4,542.8z"/>
		<path fill="#FBFDFD" d="M1137.7,405.5c0-0.9,0.4-1.5,1.1-1.9c0.4-0.2,0.9-0.2,1.1,0.2c0.6,0.8,0.6,1.5,0.2,2.3
			c-0.8,1.7-2.1,4.7-2.4,5.1C1137.3,411.4,1137.4,407.1,1137.7,405.5L1137.7,405.5z M1143.4,407.6c0.6-0.8,1.1-1.1,2.1-0.9
			c0.4,0.2,0.9,0.4,0.9,0.9c0,0.9-0.4,1.5-1.1,1.9c-1.7,0.9-4.3,2.6-4.9,2.8C1139.8,412.3,1142.4,408.9,1143.4,407.6z M1146,413
			c0.8-0.4,1.5-0.4,2.3,0.2c0.4,0.4,0.6,0.8,0.4,1.1c-0.4,0.8-1.1,1.1-1.9,1.1c-1.9,0-5.1,0.4-5.6,0.2S1144.5,413.5,1146,413z"/>
		<path fill="#FFFFFF" d="M983.9,429.8c0,0.2-0.1,0.3-0.3,0.6c-0.2,0.3-0.4,0.5-0.7,0.7c-0.3,0.2-0.7,0.4-1.1,0.6
			c-0.4,0.2-0.8,0.3-1.3,0.3c-0.7,0-1.3-0.2-1.8-0.7c-0.5-0.4-1-1.1-1.4-1.8c-0.4-0.8-0.8-1.7-1.2-2.8s-0.7-2.2-1.1-3.5l-1.1,0.7
			l-0.5,7.3c0,0.2-0.1,0.3-0.1,0.3s-0.2,0.1-0.3,0.1h-1.6c-1.1,0-1.8-0.2-2.3-0.6c-0.4-0.4-0.7-1.1-0.7-1.9v-1.2
			c0,0,0.1-1.2,0.1-1.9c0.1-0.7,0.1-1.5,0.2-2.4s0.1-1.8,0.2-2.7c0.1-1.8,0.2-3.2,0.3-4.3s0.1-1.9,0.2-2.5c0-0.6,0.1-1.1,0.1-1.4
			v-0.8c0-0.3,0.2-0.4,0.5-0.4h1.6c0.6,0,1.1,0.1,1.5,0.2c0.4,0.1,0.7,0.3,0.9,0.5c0.2,0.2,0.3,0.5,0.4,0.8c0.1,0.3,0.1,0.7,0.1,1.1
			s0,1.1-0.1,2.1c0,1-0.1,2.1-0.2,3.3c0.6-0.8,1.4-1.8,2.3-2.9c0.9-1.2,2-2.6,3.3-4.3c0.1-0.1,0.1-0.2,0.2-0.3
			c0.1-0.1,0.2-0.2,0.3-0.4c0.1-0.1,0.3-0.2,0.4-0.3s0.3-0.1,0.4-0.1c0.2,0,0.5,0.1,0.8,0.4l0.9,0.9c0,0,0.5,0.7,0.7,1.1
			c0.2,0.4,0.3,0.7,0.3,1c0,0.5-0.5,1.4-1.5,2.4s-2.4,2.3-4.2,3.7c0.3,0.5,0.7,1.1,1.1,1.8c0.4,0.6,0.8,1.3,1.2,1.9s0.8,1.3,1.2,1.9
			c0.4,0.6,0.7,1.2,1.1,1.6c0.4,0.4,0.6,0.9,0.7,1.2C983.8,429.5,983.9,429.6,983.9,429.8L983.9,429.8z M995.4,429.1
			c0-0.4,0-1,0.1-1.6c0.1-0.7,0.1-1.4,0.2-2.1c0.1-0.7,0.1-1.5,0.2-2.2c0.1-0.7,0.1-1.3,0.1-1.8s-0.1-0.9-0.4-1.3
			c-0.2-0.4-0.7-0.6-1.4-0.6c-0.7,0-1.2,0.2-1.6,0.5c-0.4,0.3-0.8,0.9-1.1,1.8c-0.3,0.8-0.5,2-0.7,3.5c-0.2,1.5-0.4,3.4-0.5,5.7
			c0,0.2-0.1,0.4-0.1,0.5c-0.1,0.1-0.2,0.1-0.5,0.1h-1c-0.6,0-1.1-0.1-1.4-0.2c-0.4-0.1-0.7-0.3-0.9-0.5c-0.2-0.2-0.4-0.5-0.5-0.8
			s-0.1-0.7-0.1-1.1v-1.2c0-0.5,0.1-1.2,0.2-2.1c0.1-0.9,0.2-2.1,0.3-3.5s0.2-3.1,0.4-5.2c0-0.4,0.1-0.7,0.1-0.7
			c0.1-0.1,0.2-0.1,0.5-0.1h1.1c0.6,0,1,0.1,1.4,0.2s0.7,0.3,0.9,0.5c0.2,0.2,0.4,0.5,0.5,0.8s0.2,0.6,0.2,0.9c0.6-1,1.3-1.7,2-2.1
			c0.8-0.4,1.7-0.6,2.8-0.6c0.8,0,1.5,0.1,2.1,0.3s1.1,0.5,1.5,0.9s0.7,0.9,0.9,1.6c0.2,0.7,0.3,1.5,0.3,2.4c0,0.3,0,0.7-0.1,1.3
			c0,0.6-0.1,1.2-0.1,1.9s-0.1,1.4-0.2,2.1c-0.1,0.7-0.1,1.4-0.2,2c-0.1,0.6-0.1,1.2-0.1,1.6c0,0.5-0.1,0.8-0.1,0.9
			c0,0.4,0,0.7-0.1,0.7s-0.3,0.1-0.6,0.1h-0.9c-0.6,0-1.1-0.1-1.5-0.2c-0.4-0.1-0.7-0.3-0.9-0.5c-0.2-0.2-0.4-0.5-0.4-0.8
			C995.4,429.9,995.4,429.5,995.4,429.1L995.4,429.1z M1009.6,431.9c-1.3,0-2.4-0.2-3.2-0.6c-0.9-0.4-1.5-0.9-2-1.5
			s-0.9-1.4-1.1-2.2c-0.2-0.9-0.3-1.8-0.3-2.8c0-1.1,0.1-2.2,0.4-3.3s0.7-2,1.4-2.9c0.7-0.8,1.5-1.5,2.6-2s2.4-0.8,4.1-0.8
			c2.4,0,4.1,0.6,5.1,1.7s1.5,2.8,1.5,4.9c0,0.6,0,1.2-0.1,1.9s-0.2,1.4-0.5,2.1c-0.3,0.7-0.6,1.4-1,2c-0.4,0.7-0.9,1.2-1.5,1.8
			c-0.6,0.5-1.4,0.9-2.2,1.2C1011.8,431.7,1010.8,431.9,1009.6,431.9L1009.6,431.9z M1010.9,419.5c-0.7,0-1.3,0.2-1.7,0.6
			c-0.4,0.4-0.7,0.8-1,1.3c-0.2,0.5-0.4,1.1-0.4,1.6s-0.1,1.1-0.1,1.5c0,1.2,0.2,2.2,0.6,2.7c0.4,0.6,1,0.9,1.7,0.9
			c0.7,0,1.2-0.2,1.6-0.6c0.4-0.4,0.8-0.9,1-1.5c0.2-0.6,0.4-1.2,0.5-1.8s0.1-1.2,0.1-1.6c0-0.9-0.2-1.7-0.5-2.2
			C1012.3,419.8,1011.7,419.5,1010.9,419.5L1010.9,419.5z M1027.3,428.1c0.5,0,1-0.1,1.4-0.2c0.4-0.2,0.8-0.3,1.1-0.5
			c0.3-0.2,0.6-0.4,0.8-0.5c0.2-0.2,0.4-0.2,0.6-0.2c0.4,0,0.7,0.3,0.7,0.8c0,0.1,0,0.3-0.1,0.6s-0.1,0.5-0.2,0.7
			c-0.1,0.3-0.2,0.5-0.3,0.7s-0.2,0.4-0.3,0.5s-0.3,0.2-0.5,0.5c-0.2,0.2-0.6,0.4-0.9,0.6c-0.4,0.2-0.9,0.4-1.4,0.6
			c-0.5,0.2-1.1,0.2-1.8,0.2c-0.7,0-1.5-0.1-2.2-0.3c-0.8-0.2-1.5-0.6-2.1-1.1s-1.1-1.3-1.5-2.2s-0.6-2.1-0.6-3.4
			c0-0.5,0-1.1,0.1-1.7c0.1-0.6,0.2-1.3,0.4-2c0.2-0.7,0.5-1.3,0.8-2c0.3-0.6,0.8-1.2,1.4-1.7c0.6-0.5,1.3-0.9,2.1-1.2
			c0.8-0.3,1.8-0.5,2.9-0.5c0.9,0,1.7,0.1,2.4,0.3c0.7,0.2,1.2,0.5,1.7,0.9c0.4,0.4,0.8,0.8,1,1.3c0.2,0.5,0.3,1,0.3,1.6
			c0,1-0.3,1.8-1,2.2c-0.7,0.4-1.5,0.7-2.7,0.7c-0.3,0-0.5,0-0.6-0.1c-0.1,0-0.2-0.2-0.2-0.3v-1.2c0-0.4-0.1-0.7-0.2-0.9
			c-0.1-0.2-0.2-0.4-0.4-0.6c-0.2-0.1-0.4-0.2-0.7-0.2c-0.6,0-1.1,0.2-1.4,0.6c-0.3,0.4-0.6,0.8-0.8,1.4c-0.2,0.5-0.3,1.1-0.3,1.7
			c0,0.6-0.1,1-0.1,1.4c0,1.3,0.2,2.3,0.6,2.8C1025.7,427.8,1026.3,428,1027.3,428.1z M1047.9,429.3c0,0.1,0,0.3-0.1,0.6
			s-0.2,0.6-0.5,0.9c-0.2,0.3-0.5,0.6-0.8,0.8c-0.3,0.2-0.7,0.3-1.1,0.3c-0.5,0-1-0.2-1.5-0.5s-1-0.8-1.5-1.4s-1-1.3-1.5-2.1
			s-1-1.7-1.5-2.6c-0.1,1-0.2,2-0.2,2.9s-0.2,1.9-0.2,2.8c0,0.2-0.1,0.4-0.1,0.5c-0.1,0.1-0.2,0.1-0.5,0.1h-1
			c-0.6,0-1.1-0.1-1.4-0.2c-0.4-0.1-0.7-0.3-0.9-0.5c-0.2-0.2-0.4-0.5-0.4-0.9c-0.1-0.3-0.1-0.7-0.1-1.2v-0.7c0-0.2,0-0.6,0.1-1
			s0.1-1,0.2-1.8c0.1-0.8,0.1-1.7,0.2-2.9c0.1-1.2,0.2-2.7,0.3-4.5s0.3-3.9,0.4-6.4c0-0.4,0.1-0.7,0.1-0.7c0.1-0.1,0.2-0.1,0.5-0.1
			h1.1c0.6,0,1.1,0.1,1.4,0.2c0.4,0.1,0.7,0.3,0.9,0.5c0.2,0.2,0.4,0.5,0.5,0.8s0.1,0.6,0.1,0.9v0.9c0,0.4-0.1,1-0.1,1.6
			s-0.1,1.3-0.2,2.1c-0.1,0.8-0.1,1.6-0.2,2.5l4.5-4.1c0.2-0.2,0.3-0.3,0.5-0.3c0.1-0.1,0.3-0.1,0.3-0.1c0.2,0,0.4,0.1,0.7,0.4
			c0.2,0.3,0.5,0.6,0.7,0.9c0.2,0.3,0.4,0.7,0.5,1.1c0.1,0.4,0.2,0.7,0.2,0.9c0,0.5-0.4,1.1-1.3,1.7c-0.9,0.6-2.2,1.3-4,2
			c0.8,0.9,1.5,1.7,2.3,2.4c0.7,0.7,1.3,1.4,1.9,2c0.6,0.6,1,1,1.3,1.4C1047.8,429,1047.9,429.2,1047.9,429.3L1047.9,429.3z
			 M1071.6,429.8c0,0.2-0.1,0.3-0.3,0.6c-0.2,0.2-0.4,0.5-0.7,0.7c-0.3,0.2-0.7,0.4-1.1,0.6c-0.4,0.2-0.8,0.3-1.3,0.3
			c-0.7,0-1.3-0.2-1.8-0.7s-1-1.1-1.4-1.8s-0.8-1.7-1.2-2.8s-0.7-2.2-1.1-3.5l-1.1,0.7l-0.5,7.3c0,0.2-0.1,0.3-0.1,0.3
			s-0.2,0.1-0.3,0.1h-1.6c-1.1,0-1.8-0.2-2.3-0.6c-0.4-0.4-0.7-1.1-0.7-1.9v-1.2c0,0,0.1-1.2,0.1-1.9c0.1-0.7,0.1-1.5,0.2-2.4
			c0.1-0.9,0.1-1.8,0.2-2.7c0.1-1.8,0.2-3.2,0.3-4.3s0.1-1.9,0.2-2.5c0-0.6,0.1-1.1,0.1-1.4v-0.8c0-0.3,0.2-0.4,0.5-0.4h1.6
			c0.6,0,1.1,0.1,1.5,0.2c0.4,0.1,0.7,0.3,0.9,0.5c0.2,0.2,0.3,0.5,0.4,0.8s0.1,0.7,0.1,1.1s0,1.1-0.1,2.1c0,1-0.1,2.1-0.2,3.3
			c0.6-0.8,1.4-1.8,2.3-2.9c0.9-1.2,2-2.6,3.3-4.3c0.1-0.1,0.1-0.2,0.2-0.3s0.2-0.2,0.3-0.4c0.1-0.1,0.3-0.2,0.4-0.3
			c0.1-0.1,0.3-0.1,0.4-0.1c0.2,0,0.5,0.1,0.8,0.4l0.9,0.9c0.3,0.4,0.5,0.7,0.7,1.1c0.2,0.4,0.3,0.7,0.3,1c0,0.5-0.5,1.4-1.5,2.4
			c-1,1.1-2.4,2.3-4.2,3.7c0.3,0.5,0.7,1.1,1.1,1.8c0.4,0.6,0.8,1.3,1.2,1.9c0.4,0.7,0.8,1.3,1.2,1.9c0.4,0.6,0.7,1.2,1.1,1.6
			c0.3,0.5,0.6,0.9,0.7,1.2C1071.5,429.5,1071.6,429.6,1071.6,429.8L1071.6,429.8z M1083.1,429.1c0-0.4,0-1,0.1-1.6
			c0.1-0.7,0.1-1.4,0.2-2.1c0.1-0.7,0.1-1.5,0.2-2.2s0.1-1.3,0.1-1.8s-0.1-0.9-0.4-1.3s-0.7-0.6-1.4-0.6c-0.7,0-1.2,0.2-1.6,0.5
			s-0.8,0.9-1.1,1.8c-0.3,0.8-0.5,2-0.7,3.5c-0.2,1.5-0.4,3.4-0.5,5.7c0,0.2-0.1,0.4-0.1,0.5c-0.1,0.1-0.2,0.1-0.5,0.1h-1
			c-0.6,0-1.1-0.1-1.4-0.2c-0.4-0.1-0.7-0.3-0.9-0.5c-0.2-0.2-0.4-0.5-0.5-0.8s-0.1-0.7-0.1-1.1v-1.2c0-0.5,0.1-1.2,0.2-2.1
			c0.1-0.9,0.2-2.1,0.3-3.5s0.2-3.1,0.4-5.2c0-0.4,0.1-0.7,0.1-0.7c0.1-0.1,0.2-0.1,0.5-0.1h1.1c0.6,0,1,0.1,1.4,0.2
			c0.4,0.1,0.7,0.3,0.9,0.5c0.2,0.2,0.4,0.5,0.5,0.8s0.2,0.6,0.2,0.9c0.6-1,1.3-1.7,2-2.1c0.8-0.4,1.7-0.6,2.8-0.6
			c0.8,0,1.5,0.1,2.1,0.3s1.1,0.5,1.5,0.9s0.7,0.9,0.9,1.6c0.2,0.7,0.3,1.5,0.3,2.4c0,0.3,0,0.7-0.1,1.3c0,0.6-0.1,1.2-0.1,1.9
			s-0.1,1.4-0.2,2.1c-0.1,0.7-0.1,1.4-0.2,2c-0.1,0.6-0.1,1.2-0.1,1.6c0,0.5-0.1,0.8-0.1,0.9c0,0.4,0,0.7-0.1,0.7
			c-0.1,0.1-0.3,0.1-0.6,0.1h-0.9c-0.6,0-1.1-0.1-1.5-0.2c-0.4-0.1-0.7-0.3-0.9-0.5c-0.2-0.2-0.4-0.5-0.4-0.8
			C1083.1,429.9,1083.1,429.5,1083.1,429.1L1083.1,429.1z M1097.3,431.9c-1.3,0-2.4-0.2-3.2-0.6c-0.8-0.4-1.5-0.9-2-1.5
			s-0.9-1.4-1.1-2.2s-0.3-1.8-0.3-2.8c0-1.1,0.1-2.2,0.4-3.3c0.3-1.1,0.7-2,1.4-2.9c0.7-0.8,1.5-1.5,2.6-2s2.4-0.8,4.1-0.8
			c2.4,0,4.1,0.6,5.1,1.7s1.5,2.8,1.5,4.9c0,0.6,0,1.2-0.1,1.9s-0.2,1.4-0.5,2.1c-0.2,0.7-0.6,1.4-1,2c-0.4,0.7-0.9,1.2-1.5,1.8
			c-0.6,0.5-1.4,0.9-2.2,1.2C1099.5,431.7,1098.5,431.9,1097.3,431.9L1097.3,431.9z M1098.6,419.5c-0.7,0-1.3,0.2-1.7,0.6
			c-0.4,0.4-0.7,0.8-1,1.3c-0.2,0.5-0.4,1.1-0.4,1.6c-0.1,0.6-0.1,1.1-0.1,1.5c0,1.2,0.2,2.2,0.6,2.7c0.4,0.6,1,0.9,1.7,0.9
			c0.7,0,1.2-0.2,1.6-0.6c0.4-0.4,0.8-0.9,1-1.5c0.2-0.6,0.4-1.2,0.5-1.8s0.1-1.2,0.1-1.6c0-0.9-0.2-1.7-0.5-2.2
			C1100.1,419.9,1099.3,419.5,1098.6,419.5L1098.6,419.5z M1115,428.1c0.5,0,1-0.1,1.4-0.2c0.4-0.2,0.8-0.3,1.1-0.5
			c0.3-0.2,0.6-0.4,0.8-0.5c0.2-0.2,0.4-0.2,0.6-0.2c0.4,0,0.7,0.3,0.7,0.8c0,0.1,0,0.3-0.1,0.6s-0.1,0.5-0.2,0.7
			c-0.1,0.3-0.2,0.5-0.3,0.7s-0.2,0.4-0.3,0.5s-0.3,0.2-0.5,0.5c-0.2,0.2-0.6,0.4-0.9,0.6c-0.4,0.2-0.9,0.4-1.4,0.6
			c-0.5,0.2-1.1,0.2-1.8,0.2c-0.7,0-1.5-0.1-2.2-0.3c-0.8-0.2-1.5-0.6-2.1-1.1s-1.1-1.3-1.5-2.2s-0.6-2.1-0.6-3.4
			c0-0.5,0-1.1,0.1-1.7c0.1-0.6,0.2-1.3,0.4-2c0.2-0.7,0.5-1.3,0.8-2c0.3-0.6,0.8-1.2,1.4-1.7c0.6-0.5,1.3-0.9,2.1-1.2
			c0.8-0.3,1.8-0.5,2.9-0.5c0.9,0,1.7,0.1,2.4,0.3c0.7,0.2,1.2,0.5,1.7,0.9c0.4,0.4,0.8,0.8,1,1.3c0.2,0.5,0.3,1,0.3,1.6
			c0,1-0.3,1.8-1,2.2c-0.7,0.4-1.5,0.7-2.7,0.7c-0.3,0-0.5,0-0.6-0.1c-0.1,0-0.2-0.2-0.2-0.3v-1.2c0-0.4-0.1-0.7-0.2-0.9
			c-0.1-0.2-0.2-0.4-0.4-0.6c-0.2-0.1-0.4-0.2-0.7-0.2c-0.6,0-1.1,0.2-1.4,0.6c-0.3,0.4-0.6,0.8-0.8,1.4c-0.2,0.5-0.3,1.1-0.3,1.7
			c0,0.6-0.1,1-0.1,1.4c0,1.3,0.2,2.3,0.6,2.8C1113.4,427.8,1114,428,1115,428.1z M1135.6,429.3c0,0.1,0,0.3-0.1,0.6
			s-0.2,0.6-0.5,0.9c-0.2,0.3-0.5,0.6-0.8,0.8c-0.3,0.2-0.7,0.3-1.1,0.3c-0.5,0-1-0.2-1.5-0.5s-1-0.8-1.5-1.4
			c-0.5-0.6-1-1.3-1.5-2.1s-1-1.7-1.5-2.6c-0.1,1-0.2,2-0.2,2.9s-0.2,1.9-0.2,2.8c0,0.2-0.1,0.4-0.1,0.5c-0.1,0.1-0.2,0.1-0.5,0.1
			h-1c-0.6,0-1.1-0.1-1.4-0.2c-0.4-0.1-0.7-0.3-0.9-0.5c-0.2-0.2-0.4-0.5-0.4-0.9c-0.1-0.3-0.1-0.7-0.1-1.2v-0.7c0-0.2,0-0.6,0.1-1
			c0-0.5,0.1-1,0.2-1.8c0.1-0.7,0.1-1.7,0.2-2.9c0.1-1.2,0.2-2.7,0.3-4.5s0.3-3.9,0.4-6.4c0-0.4,0.1-0.7,0.1-0.7
			c0.1-0.1,0.2-0.1,0.5-0.1h1.1c0.6,0,1.1,0.1,1.4,0.2s0.7,0.3,0.9,0.5c0.2,0.2,0.4,0.5,0.5,0.8s0.1,0.6,0.1,0.9v0.9
			c0,0.4-0.1,1-0.1,1.6s-0.1,1.3-0.2,2.1c-0.1,0.8-0.1,1.6-0.2,2.5l4.5-4.1c0.2-0.2,0.3-0.3,0.5-0.3c0.2,0,0.2-0.1,0.3-0.1
			c0.2,0,0.4,0.1,0.7,0.4c0.2,0.3,0.5,0.6,0.7,0.9c0.2,0.3,0.4,0.7,0.5,1.1c0.1,0.4,0.2,0.7,0.2,0.9c0,0.5-0.4,1.1-1.3,1.7
			c-0.9,0.6-2.2,1.3-4,2c0.8,0.9,1.5,1.7,2.3,2.4c0.7,0.7,1.3,1.4,1.9,2c0.6,0.6,1,1,1.3,1.4C1135.5,429,1135.6,429.2,1135.6,429.3
			L1135.6,429.3z"/>
	</a>
	<a>
		<path fill="#5DD19C" stroke="#FFFFFF" stroke-width="1.8" stroke-miterlimit="10" stroke-opacity="0.5" d="M843,542.8l-100.8-58.2
			V368.2L843,310l100.8,58.2v116.4L843,542.8L843,542.8z"/>
		<path fill="#FFFFFF" d="M828.3,414.5h-10v4.9h9.8v3.4h-9.8v9.4h-4v-21.1h13.9L828.3,414.5L828.3,414.5z M841.5,418.5l-2.1,3.2
			c-0.8-0.8-1.7-1.5-2.6-1.5c-0.9,0-2.4,0.8-2.4,3.4v8.7h-3.8V417h3.8v1.7c0.9-1.3,2.1-2.1,3.4-2.1
			C839.1,416.4,840.4,417.4,841.5,418.5L841.5,418.5z M858.5,424.5c0,0.6,0,0.9-0.2,1.5h-12.2c0.6,1.9,2.1,3.2,4.3,3.2
			c1.3,0,2.8-0.6,3.8-1.3l2.4,2.4c-2.1,1.5-4.1,2.1-6.2,2.1c-4.5,0-8.1-3.6-8.1-8.1s3.6-8.1,8.1-8.1
			C854.7,416.4,858.4,419.8,858.5,424.5L858.5,424.5z M854.5,423c-0.6-1.9-2.3-3.2-4.1-3.2c-1.8,0-3.6,1.3-4.1,3.2H854.5L854.5,423z
			 M876.6,424.5c0,0.6,0,0.9-0.2,1.5h-12.2c0.6,1.9,2.1,3.2,4.3,3.2c1.3,0,2.8-0.6,3.8-1.3l2.4,2.4c-2.1,1.5-4.1,2.1-6.2,2.1
			c-4.5,0-8.1-3.6-8.1-8.1s3.6-8.1,8.1-8.1C872.8,416.4,876.6,419.8,876.6,424.5L876.6,424.5z M872.6,423c-0.6-1.9-2.3-3.2-4.1-3.2
			c-1.8,0-3.6,1.3-4.1,3.2H872.6L872.6,423z M890.1,427.9c0,3-3.2,4.7-5.8,4.7c-2.3,0-4.3-0.8-5.8-2.6l2.3-2.3
			c0.9,1.1,2.1,1.9,3.6,1.9c1.1,0,2.1-0.4,2.1-1.3s-1.1-1.5-3.2-2.1c-2.4-0.8-4.7-2.1-4.7-4.7c0-3,3-4.7,5.8-4.7
			c2.3,0,4.1,0.9,5.6,2.6l-2.1,2.1c-0.9-1.1-2.1-1.7-3.4-1.7c-0.9,0-2.3,0.6-2.3,1.5c0,0.8,1.1,1.3,3.2,1.9
			C887.9,423.8,890.1,425.5,890.1,427.9L890.1,427.9z M901,431.9c-0.8,0.6-1.9,0.8-2.8,0.8c-3.6,0-4.7-1.7-4.7-5.6v-6.6h-2.1V419
			c2.4-1.3,4.3-3.4,4.7-6.4h1.1v4.3h3.8v3.4h-3.8v7c0,1.5,0.8,1.9,1.7,1.9c0.6,0,1.5-0.2,2.1-0.8V431.9L901,431.9z M915.7,432.2
			h-3.8v-0.8c-1.3,0.9-2.8,1.1-4.5,1.1c-3,0-4.9-1.9-4.9-4.7c0-3.4,3.2-5.1,7.2-5.1h2.3c0-1.9-1.1-3-3.4-3c-1.1,0-2.3,0.4-3.4,1.3
			l-2.3-2.3c1.7-1.5,3.8-2.4,6-2.4c2.1,0,3.8,0.8,4.9,1.9c1.3,1.3,1.9,2.8,1.9,5.5V432.2z M911.8,428.2v-2.8h-1.7
			c-2.1,0-3.8,0.6-3.8,2.1c0,1.1,0.9,1.9,2.3,1.9C909.5,429.4,910.6,429,911.8,428.2z M933,432.2h-4.5l-6.2-6.8v6.8h-4v-22h4v13
			l5.3-6.4h4.5l-6.2,7.5L933,432.2L933,432.2z M768.7,432.6v-22.8l12.8-7.7l-5.1-3l-19.2,11.5v22.8l19.6,11.1l19.2-11.3l-13,7.5
			L768.7,432.6z"/>
		<path fill="#FFFFFF" d="M787.7,398.3l-6.2,3.8l14.5,8.7v22.4l-13,7.5l-14.3-8.1l19.4,11.1l19.2-11.3v-22.2L787.7,398.3
			L787.7,398.3z"/>
	</a>
	<a>
		<path fill="#F8921F" stroke="#FFFFFF" stroke-width="1.8" stroke-miterlimit="10" stroke-opacity="0.5" d="M630.8,542.8L530,484.6
			V368.2L630.8,310l100.8,58.2v116.4L630.8,542.8L630.8,542.8z"/>
		<g>
			<circle fill="#FEFEFE" cx="655.5" cy="454.7" r="16.3"/>
			
				<line fill="none" stroke="#FFFFFF" stroke-width="33.5513" stroke-linecap="round" stroke-linejoin="round" stroke-miterlimit="10" x1="650.5" y1="402.2" x2="606.5" y2="453.1"/>
			
				<line fill="none" stroke="#FFFFFF" stroke-width="31.2767" stroke-linecap="round" stroke-linejoin="round" stroke-miterlimit="10" x1="605.4" y1="400.9" x2="651.5" y2="400.9"/>
		</g>
	</a>
	<a>
		<path fill="#5E5E5E" stroke="#FFFFFF" stroke-width="1.8" stroke-miterlimit="10" stroke-opacity="0.5" d="M1373.8,358.9
			L1273,300.6V184.2l100.8-58.2l100.8,58.2v116.4L1373.8,358.9z"/>
		<path fill="#FFFFFF" d="M1314.7,241.7c0-0.2,0.1-0.3,0.3-0.3h3.4c0.2,0,0.3,0.1,0.3,0.3v0.3c0,0.2-0.1,0.3-0.3,0.3h-1
			c-0.3,0-0.3,0-0.3,0.3v7.8c0,0.2-0.1,0.3-0.3,0.3h-0.4c-0.2,0-0.3-0.1-0.3-0.3v-7.8c0-0.3,0-0.3-0.2-0.3h-1
			c-0.2,0-0.3-0.1-0.3-0.3v-0.3H1314.7L1314.7,241.7z M1326.8,248.4c0,1.5-0.8,2.2-2,2.2s-2-0.7-2-2.2v-4.8c0-1.5,0.8-2.2,2-2.2
			s2,0.7,2,2.2V248.4z M1326,243.8c0-1.2-0.3-1.6-1.1-1.6s-1.1,0.5-1.1,1.6v4.4c0,1.2,0.3,1.6,1.1,1.6s1.1-0.5,1.1-1.6V243.8z
			 M1331.2,241.7c0-0.2,0.1-0.3,0.3-0.3h3.4c0.2,0,0.3,0.1,0.3,0.3v0.3c0,0.2-0.1,0.3-0.3,0.3h-1c-0.3,0-0.3,0-0.3,0.3v7.8
			c0,0.2-0.1,0.3-0.3,0.3h-0.4c-0.2,0-0.3-0.1-0.3-0.3v-7.8c0-0.3,0-0.3-0.2-0.3h-1c-0.2,0-0.3-0.1-0.3-0.3v-0.3H1331.2
			L1331.2,241.7z M1342.6,250.6c-0.2,0-0.3,0-0.3-0.2l-0.2-0.9c-0.1-0.3-0.1-0.3-0.3-0.3h-1.6c-0.3,0-0.2,0-0.3,0.3l-0.2,0.9
			c0,0.2-0.1,0.2-0.3,0.2h-0.4c-0.1,0-0.2,0-0.2-0.2l1.6-8.7c0-0.2,0.1-0.2,0.3-0.2h0.5c0.2,0,0.2,0,0.3,0.2l1.6,8.7
			c0,0.2-0.1,0.2-0.2,0.2H1342.6z M1340.2,248.1c0,0.3,0,0.3,0.2,0.3h1.3c0.3,0,0.3,0,0.2-0.3l-0.8-4.7c0-0.1-0.1-0.1-0.1,0
			L1340.2,248.1L1340.2,248.1z M1348.2,250.6c-0.2,0-0.3-0.1-0.3-0.3v-8.7c0-0.2,0.1-0.3,0.3-0.3h0.4c0.2,0,0.3,0.1,0.3,0.3v7.8
			c0,0.3,0,0.3,0.3,0.3h1.9c0.2,0,0.3,0.1,0.3,0.3v0.3c0,0.2-0.1,0.3-0.3,0.3L1348.2,250.6L1348.2,250.6z M1365.5,250.6
			c-0.2,0-0.3,0-0.3-0.2l-0.2-0.9c-0.1-0.3-0.1-0.3-0.3-0.3h-1.6c-0.3,0-0.2,0-0.3,0.3l-0.2,0.9c0,0.2-0.1,0.2-0.3,0.2h-0.4
			c-0.1,0-0.2,0-0.2-0.2l1.6-8.7c0-0.2,0.1-0.2,0.3-0.2h0.5c0.2,0,0.2,0,0.3,0.2l1.6,8.7c0,0.2-0.1,0.2-0.2,0.2H1365.5z
			 M1363.1,248.1c0,0.3,0,0.3,0.2,0.3h1.3c0.3,0,0.3,0,0.2-0.3l-0.8-4.7c0-0.1-0.1-0.1-0.1,0L1363.1,248.1L1363.1,248.1z
			 M1374.8,248.4c0,1.5-0.8,2.2-2,2.2h-1.9c-0.2,0-0.3-0.1-0.3-0.3v-8.7c0-0.2,0.1-0.3,0.3-0.3h1.9c1.2,0,2,0.7,2,2.2V248.4
			L1374.8,248.4z M1371.6,249.5c0,0.3,0,0.3,0.3,0.3h1c0.7,0,1.1-0.5,1.1-1.6v-4.3c0-1.2-0.3-1.6-1.1-1.6h-1c-0.3,0-0.3,0-0.3,0.3
			V249.5L1371.6,249.5z M1383.3,241.4c0.1,0,0.2,0,0.2,0.2l-1.7,8.7c0,0.2-0.1,0.2-0.3,0.2h-0.4c-0.2,0-0.2,0-0.3-0.2l-1.7-8.7
			c0-0.2,0.1-0.2,0.2-0.2h0.4c0.2,0,0.3,0,0.3,0.2l1.2,6.9c0,0.1,0.1,0.1,0.1,0l1.2-6.9c0-0.2,0.1-0.2,0.3-0.2H1383.3L1383.3,241.4z
			 M1388.4,250.6c-0.2,0-0.3-0.1-0.3-0.3v-8.7c0-0.2,0.1-0.3,0.3-0.3h2.6c0.2,0,0.3,0.1,0.3,0.3v0.3c0,0.2-0.1,0.3-0.3,0.3h-1.7
			c-0.3,0-0.3,0-0.3,0.3v2.6c0,0.3,0,0.3,0.3,0.3h1.7c0.2,0,0.3,0.1,0.3,0.3v0.3c0,0.2-0.1,0.3-0.3,0.3h-1.7c-0.3,0-0.3,0-0.3,0.3
			v3.1c0,0.3,0,0.3,0.3,0.3h1.7c0.2,0,0.3,0.1,0.3,0.3v0.3c0,0.2-0.1,0.3-0.3,0.3h-2.6V250.6L1388.4,250.6z M1399.4,250.6
			c-0.1,0-0.2-0.1-0.3-0.2l-2.1-5.8c0-0.1-0.1-0.1-0.1,0v5.7c0,0.2-0.1,0.3-0.3,0.3h-0.4c-0.2,0-0.3-0.1-0.3-0.3v-8.7
			c0-0.2,0.1-0.3,0.3-0.3h0.3c0.1,0,0.2,0.1,0.3,0.2l2.1,5.8c0,0.1,0.1,0.1,0.1,0v-5.8c0-0.2,0.1-0.3,0.3-0.3h0.4
			c0.2,0,0.3,0.1,0.3,0.3v8.7c0,0.2-0.1,0.3-0.3,0.3L1399.4,250.6z M1404.4,241.7c0-0.2,0.1-0.3,0.3-0.3h3.4c0.2,0,0.3,0.1,0.3,0.3
			v0.3c0,0.2-0.1,0.3-0.3,0.3h-1c-0.3,0-0.3,0-0.3,0.3v7.8c0,0.2-0.1,0.3-0.3,0.3h-0.4c-0.2,0-0.3-0.1-0.3-0.3v-7.8
			c0-0.3,0-0.3-0.2-0.3h-1c-0.2,0-0.3-0.1-0.3-0.3v-0.3H1404.4L1404.4,241.7z M1416.6,248.4c0,1.5-0.8,2.2-2,2.2s-2-0.7-2-2.2v-6.7
			c0-0.2,0.1-0.3,0.3-0.3h0.4c0.2,0,0.3,0.1,0.3,0.3v6.5c0,1.2,0.3,1.6,1.1,1.6c0.7,0,1.1-0.5,1.1-1.6v-6.5c0-0.2,0.1-0.3,0.3-0.3
			h0.4c0.2,0,0.3,0.1,0.3,0.3v6.7H1416.6L1416.6,248.4z M1421.8,250.6c-0.2,0-0.3-0.1-0.3-0.3v-8.7c0-0.2,0.1-0.3,0.3-0.3h1.5
			c1.2,0,2,0.7,2,2.2v0.7c0,0.9-0.3,1.6-0.8,1.9l0.8,4.1c0,0.2-0.1,0.2-0.2,0.2h-0.4c-0.2,0-0.3,0-0.3-0.2l-0.7-3.6
			c0-0.2-0.1-0.2-0.2-0.2h-0.7c-0.3,0-0.3,0-0.3,0.3v3.5c0,0.2-0.1,0.3-0.3,0.3L1421.8,250.6z M1422.4,245.5c0,0.3,0,0.3,0.3,0.3
			h0.6c0.7,0,1.1-0.5,1.1-1.6v-0.3c0-1.2-0.3-1.6-1.1-1.6h-0.6c-0.3,0-0.3,0-0.3,0.3V245.5L1422.4,245.5z M1430.3,250.6
			c-0.2,0-0.3-0.1-0.3-0.3v-8.7c0-0.2,0.1-0.3,0.3-0.3h2.6c0.2,0,0.3,0.1,0.3,0.3v0.3c0,0.2-0.1,0.3-0.3,0.3h-1.7
			c-0.3,0-0.3,0-0.3,0.3v2.6c0,0.3,0,0.3,0.3,0.3h1.7c0.2,0,0.3,0.1,0.3,0.3v0.3c0,0.2-0.1,0.3-0.3,0.3h-1.7c-0.3,0-0.3,0-0.3,0.3
			v3.1c0,0.3,0,0.3,0.3,0.3h1.7c0.2,0,0.3,0.1,0.3,0.3v0.3c0,0.2-0.1,0.3-0.3,0.3h-2.6V250.6L1430.3,250.6z M1352,208.7l-16.6,28.3
			h31.8L1352,208.7L1352,208.7z M1397.6,208.9l-16.8,28.3h32L1397.6,208.9z"/>
		<path fill="none" stroke="#FFFFFF" stroke-width="2.8385" stroke-miterlimit="10" d="M1419.6,237.2c-1.7-23.5-21.3-40.9-45.2-40.9
			s-43.5,17.3-45.2,40.9H1419.6L1419.6,237.2z M1330.9,255.4c5.5,18.8,22.8,31.4,43.5,31.4c20.5,0,37.8-12.8,43.5-31.4H1330.9z"/>
		<path fill="none" stroke="#FFFFFF" stroke-width="2.8385" stroke-linecap="round" stroke-miterlimit="10" d="M1314,237.2h120.3
			 M1313.4,255.4h120.3"/>
		<path fill="#FFFFFF" d="M1394.2,238.3l-19.4-30.5l-19.6,30.5H1394.2z M1385.1,227.9l-5.3,4.1l-7.9-4l-6.6,5.8l-3.6-2.4l13-20
			L1385.1,227.9L1385.1,227.9z M1404.5,254.3h-59.7l-7.7,11.9c-0.4,0.4-0.2,1.1,0.2,1.5l1.1,1.5c0.2,0.4,0.6,0.4,0.9,0.4l69.9-0.6
			c0.4,0,0.4,0,0.8-0.4l1.9-1.7c0.4-0.4,0.4-0.9,0-1.3L1404.5,254.3L1404.5,254.3z"/>
	</a>
	<a>
		<path fill="#7599FB" d="M1161.6,358.9l-100.8-58.3V184.2l100.8-58.2l100.8,58.2v116.4L1161.6,358.9z"/>
		<path fill="#FFFFFF" d="M1167.5,252.6c0,0.8-0.2,0.8-1.5,0.4C1166.3,252.8,1167.1,253.2,1167.5,252.6z"/>
		<path fill="#FFFFFF" d="M1171.6,243.2c1.3-0.6,2.3-1.5,3.2-2.8c2.6-4.1,1.1-8.1-3.6-9c-2.1-0.4-4.3-0.4-6.4,0.4
			c-4.3,1.5-6.6,5.5-5.5,9.8c0.6,2.4,2.3,4,4,5.6c1.7,1.7,3.4,3.2,4.3,5.5c-0.4,0.6-0.4,0.6-1.5,0.4c-3.8-0.4-5.6-2.6-6.6-6
			c-0.2-0.9-0.6-2.3-1.9-2.4c-1.3-0.2-2.1,0.8-2.6,1.7c-0.2,0.4-0.4,0.6-0.6,0.9c-0.6,1.7-1.9,2.6-3.2,3.6c-1.5,1.1-2.1,0.9-2.4-1.1
			V249c-0.6-4.1-0.9-8.5,1.7-12.2c0.6-0.9,0.4-1.9-0.2-2.6c-0.9-1.1-1.9-2.3-3.4-2.8c-0.9-0.4-1.9-0.4-2.6,0.6
			c-0.4,0.8-0.9,0.6-1.5,0.4c-1.9-0.6-3.8-0.8-5.8-0.4c-6.4,1.3-11.5,6.8-12.8,13.4c-0.2,0.9,0,1.9-0.6,2.6
			c-1.3,1.5-2.8,2.8-4.7,3.6c-2.8,0.9-4.9,0.4-6.2-1.5c-1.3-1.9-1.3-5.8,0-7.3c3.2-3.8,6.6-7.3,9.8-11.1c2.1-2.3,3.8-4.9,4.3-7.9
			c0.6-3.2-0.9-5.8-4-6.2c-0.9-0.2-1.9-0.2-2.8,0c-4.7,0.9-7.9,4-10.4,7.9c-3.6,5.8-5.5,12.4-5.8,19.4c0,0.9-0.2,1.7-0.9,2.4
			c-2.8,3-6.2,4.9-10.4,5.3c-4.5,0.6-7.9-1.7-8.8-6c-1.1-6,0.2-11.7,3-16.9c0.4-0.6,0.6-0.8,1.1-0.4c1.9,0.8,3.8,1.1,5.8,1.3
			c3,0.4,6,0.2,8.7-1.5c2.4-1.5,3.6-4,2.8-7c-0.6-2.6-2.3-4.1-4.9-4.9c-1.1-0.4-3.8-0.4-3.8-0.4c-4.1-0.2-7.7,1.1-11.1,3.6
			c-0.8,0.6-1.1,0.4-1.9-0.2c-0.8-0.8-1.5-1.7-2.4-2.3c-0.6-0.4-1.3-0.6-2.1-0.2c-0.8,0.4-0.8,1.1-0.6,1.9c0.2,1.7,0.9,3,1.7,4.3
			c0.4,0.6,0.6,1.1,0,1.9c-3,4.1-5.3,9.2-5.6,14.9v2.6c0,1.3,0.4,4.7,0.6,5.1c1.1,4.7,4.1,7.7,8.7,9c7.9,2.3,15.1,1.3,20.9-5.1
			c0.8,0.9,1.3,1.9,2.1,2.8c3.6,3.4,11.5,5.1,16.9-0.6c0.6-0.6,0.9-0.9,1.5,0.2c1.5,2.4,4,3.6,6.8,3.8c4.3,0.2,7.9-1.3,10.4-5.1
			c0.2,0.6,0.4,1.1,0.4,1.5c0.9,3,2.4,4,5.6,3.2c1.9-0.4,3.6-1.3,5.1-2.4c0.4-0.2,0.6-0.8,1.1-0.2c5.1,4.5,10.7,4,16.2,1.7
			c4-1.7,5.1-6.2,2.6-9.8c-0.6-0.8-1.3-1.7-1.9-2.4C1170.8,243.9,1170.7,243.5,1171.6,243.2L1171.6,243.2z M1116.6,224.6
			c0.6-0.9,1.3-1.7,2.4-2.3s1.7,0,1.7,1.1s-0.4,2.3-1.1,3c-2.3,3-4.7,5.8-6.8,8.8c0,0-0.2,0.2-0.6,0.2
			C1113.2,231.7,1114.2,227.9,1116.6,224.6L1116.6,224.6z M1090.5,223.8c1.9-1.7,4.1-2.4,6.6-2.3c1.1,0,1.9,0.6,1.9,1.9
			c0,1.1-0.8,1.7-1.7,1.9c-0.6,0.2-1.3,0.2-2.1,0.2c-1.5,0-3-0.4-4.5-0.6C1089.9,224.7,1089.9,224.4,1090.5,223.8L1090.5,223.8z
			 M1142.6,236.4c-0.6,3-0.6,6-0.9,9c-0.4,3-2.1,5.5-4.9,6.6c-2.8,1.1-4.9-0.6-4.9-4c0-5.6,4.3-11.1,9.8-12.4
			C1142.3,235.2,1142.8,235.5,1142.6,236.4L1142.6,236.4z M1170.3,238.5c-0.4,0.9-1.1,2.4-1.9,2.4c-0.9,0-1.5-1.3-1.9-2.3
			c-1.1-2.4-0.6-2.4,2.1-2.8C1170.1,235.9,1170.8,237.2,1170.3,238.5L1170.3,238.5z M1253.3,246c0-0.4-0.2-0.9-0.6-1.1
			c-0.4-0.2-0.8,0.2-1.1,0.4c-0.6,0.6-1.1,1.1-1.5,1.7c-2.3,2.8-4.7,5.5-7.9,7.9c0.2-0.6,0.2-0.9,0.4-1.3c1.5-4.9,2.8-9.8,4-14.9
			c0.6-2.6,0.2-5.1-1.5-7.2c-0.8-0.8-1.5-1.5-2.8-1.3c-1.1,0.2-1.7,1.1-2.1,2.3c-0.9,3.4-1.9,6.8-3,10c-0.8,2.4-0.9,4.9-2.4,7.2
			c-0.9,1.3-2.1,1.9-3.8,1.9c-1.7,0-2.3-0.6-2.3-2.3c0-2.6,0.8-5.1,1.5-7.5c0.8-2.6,1.3-5.3,0.8-8.1c-0.2-1.3-0.8-2.4-2.1-2.6
			c-1.9-0.2-3.8-0.2-5.3,1.5c-0.2,0.2-0.2,0.4-0.2,0.8c-0.4,3.2-0.8,6.4-1.1,9.6c-0.4,4.3-3.4,7.7-7.5,8.7c-2.3,0.6-4.3-0.2-5.3-1.9
			c-1.3-2.1-1.3-5.6,0-7.2c2.8-3.6,6-6.8,9-10.4c2.1-2.4,4.3-4.9,5.1-8.3c0.9-4.5-0.8-7.3-5.5-7c-3.8,0.2-6.8,2.1-9,4.9
			c-3,3.4-4.9,7.5-6.2,11.9c-1.5,4.7-2.3,9.6-2.1,14.5c0.2,3.4,1.5,6.2,4.5,8.1c4.7,3,10.5,2.4,14.7-1.1c0.6-0.6,0.9-0.8,1.7,0.2
			c0.9,1.3,2.4,2.1,4.1,2.3c3.8,0.8,7.2,0.2,10.2-3c-0.2,0.9-0.4,1.5-0.4,2.1c-0.2,1.7-0.9,2.3-2.6,2.6c-3.2,0.6-6.4,1.1-9.4,2.3
			c-4,1.5-4.9,4.7-2.4,8.1c2.6,3.8,9.8,4.9,13.9,1.9c2.6-1.9,3.8-4.5,4.5-7.5c0.4-1.1,0.9-1.9,2.1-2.6c4.7-2.6,8.7-6.2,11.1-11.3
			C1253.1,248.8,1253.3,247.5,1253.3,246L1253.3,246z M1214.3,223.7c0.4-0.6,0.9-0.9,1.5-1.3s1.1-0.6,1.7,0c0.4,0.4,0.4,0.9,0.4,1.5
			c-0.2,1.1-0.8,2.3-1.5,3.2c-2.1,2.8-4.5,5.5-6.4,8.3c0,0.2-0.2,0.2-0.6,0.4C1210.4,231.3,1211.5,227.2,1214.3,223.7L1214.3,223.7z
			 M1226.6,268.2c-0.4-0.2-0.8-0.4-1.1-0.8c-0.9-0.9-0.8-1.9,0.6-2.3c0.4-0.2,0.8-0.2,1.1-0.2c1.9-0.2,3.8-0.6,5.6-0.8
			C1231.9,267.7,1229.2,269.4,1226.6,268.2z"/>
		<path fill="#FFFFFF" d="M1193.6,243.2c2.4-1.1,3.8-3,4.3-5.6c0.6-2.8-0.8-4.9-3.4-5.8c-2.6-0.9-5.3-0.8-7.9,0.2
			c-5.6,2.1-7.3,8.7-3.4,13.2c0.9,1.1,2.3,2.3,3.2,3.4c1.1,1.1,2.3,2.4,2.8,4c0.2,0.4,0.6,0.8-0.4,0.8c-3.2,0.2-5.8-1.5-7-4.5
			c-0.4-0.9-0.6-1.7-0.9-2.6c-0.8-1.7-1.9-1.9-3.2-0.8c-3.8,2.8-3.4,9,0.6,11.5c2.3,1.3,4.7,1.7,7.3,1.7c2.1,0,4.3-0.2,6.4-1.1
			c4.5-1.9,5.8-6.6,3-10.5c-0.6-0.8-1.1-1.5-1.9-2.3C1192.8,243.8,1192.8,243.6,1193.6,243.2L1193.6,243.2z M1190.8,240.7
			c-0.4,0.4-0.6,0-0.8-0.2c-0.6-0.6-1.1-1.3-1.3-2.1c-0.4-0.8-1.1-1.5-0.2-2.3c0.9-0.8,3.2-0.6,3.8,0c0.4,0.4,0.4,0.8,0.4,1.1
			C1192.3,238.9,1191.6,239.7,1190.8,240.7z"/>
	</a>
	<a>
		<path fill="#33A8D7" d="M949.4,358.9l-100.8-58.3V184.2L949.4,126l100.8,58.2v116.4L949.4,358.9z"/>
		<path id="XMLID_780_" fill="#FFFFFF" d="M968.4,207.4c-19,0-34.1,15.6-34.3,34.8c0,19.4,15.4,35.2,34.3,35c18.6,0,34.1-16,33.9-35
			C1002.5,223,987.3,207.4,968.4,207.4z M968.4,267.5c-13.4,0-24.3-11.3-24.3-25c0-13.9,10.9-25,24.5-25c13.2,0,23.9,11.3,23.9,25
			S981.6,267.5,968.4,267.5L968.4,267.5z"/>
		<path fill="#FFFFFF" d="M931.3,242.6c0-11.7,5.3-22.2,13.4-29.2c0.4-0.8,0.6-1.5,0.6-1.7c-4,0-7.7,0.2-11.5,0
			c-2.3-0.2-3.2,0.8-4,2.6c-4.1,10.2-8.7,20.1-13,30.5c-0.4-0.9-0.8-1.7-1.1-2.3c-4-9.2-7.9-18.5-11.9-27.7
			c-0.9-2.3-1.9-3.4-4.5-3.2c-3.6,0.2-7.2,0-11.1,0c0.4,0.9,0.8,1.7,0.9,2.4c6.8,15.8,13.4,31.4,20.1,47.3c0.9,2.1,1.3,5.1,3,6.2
			c1.7,1.3,8.7,1.9,9.8-1.1c3-7.2,6-14.5,9.2-21.7C931.3,244.1,931.3,243.4,931.3,242.6z"/>
	</a>
	<a>
		<path fill="#1C1C1C" stroke="#FFFFFF" stroke-width="1.8" stroke-miterlimit="10" stroke-opacity="0.5" d="M737,358.9l-100.8-58.3
			V184.2L737,126l100.8,58.2v116.4L737,358.9L737,358.9z"/>
		<path fill="#FFFFFF" d="M738,247.1l0.7-0.8c0.2-0.3,0.6-0.4,0.9-0.1c0.4,0.4,2,1.9,4.6,1.9c2.7,0,4.9-1.8,4.9-4c0-2-1.9-3-4.6-4.2
			c-2.7-1.3-4.9-2.8-4.9-5.5s2.1-5.9,6.8-5.9c2.5,0,4.2,1,5.1,1.7c0.3,0.2,0.4,0.6,0.1,0.9l-0.5,0.7c-0.3,0.4-0.6,0.4-0.9,0.2
			c-0.4-0.3-2-1.3-4-1.3c-3.1,0-4.4,2.1-4.4,3.6c0,1.8,1.6,2.8,3.8,3.9c3,1.4,5.6,2.6,5.6,5.8c0,3.7-3.2,6.3-7.4,6.3
			c-3.1,0-5-1.5-5.9-2.3C737.8,247.7,737.7,247.4,738,247.1L738,247.1z M756.3,229.7c-0.1-0.4,0.1-0.8,0.5-0.8h1.1
			c0.3,0,0.5,0.2,0.6,0.5l5.2,17.6h0.1l9.6-17.6c0.2-0.3,0.5-0.5,0.7-0.5h1.1c0.5,0,0.6,0.4,0.4,0.8l-19.5,35
			c-0.2,0.3-0.4,0.4-0.7,0.4h-1.1c-0.4,0-0.6-0.3-0.4-0.7l8.3-15L756.3,229.7L756.3,229.7z M781.2,230.9h-2.3
			c-0.5,0-0.6-0.3-0.5-0.7l0.1-0.8c0.1-0.4,0.3-0.5,0.7-0.5h2.2l0.8-5.6c0.1-0.4,0.4-0.7,0.8-0.7l0.9-0.1c0.4,0,0.6,0.3,0.6,0.7
			l-0.8,5.7h6.3c0.4,0,0.6,0.3,0.6,0.7l-0.1,0.7c-0.1,0.4-0.4,0.7-0.7,0.7h-6.3l-1.9,13.2c-0.3,2.4-0.3,3.8,1.6,3.8
			c1.7,0,3.7-1,4.4-1.5c0.4-0.3,0.6-0.1,0.8,0.2l0.4,0.7c0.2,0.4,0.1,0.6-0.3,0.9c-0.8,0.6-3.1,1.9-5.6,1.9c-3.6,0-3.9-2.5-3.4-5.9
			L781.2,230.9L781.2,230.9z M804.6,228.4c3.6,0,6.5,2.1,6.5,5.3c0,7.7-15,6.2-15,6.2c-0.4,4.5,1.9,8.1,6,8.1c2.4,0,4.7-1.3,5.6-2
			c0.5-0.3,0.6-0.3,0.8,0.1l0.5,0.8c0.2,0.3,0.2,0.5-0.2,0.8c-0.7,0.6-3.7,2.4-7.3,2.4c-4.8,0-7.8-4.1-7.8-9.2
			C793.7,234.1,798.2,228.3,804.6,228.4L804.6,228.4z M808.8,233.8c0-1.8-1.9-3.3-4.5-3.3c-3.9,0-7.2,3.2-8,7.4
			C801.9,238.4,808.8,237.7,808.8,233.8L808.8,233.8z M814.5,247.1l0.7-0.8c0.2-0.3,0.6-0.4,0.9-0.1c0.4,0.4,2,1.9,4.6,1.9
			c2.7,0,4.9-1.8,4.9-4c0-2-1.9-3-4.6-4.2c-2.7-1.3-4.9-2.8-4.9-5.5s2.1-5.9,6.8-5.9c2.5,0,4.2,1,5.1,1.7c0.3,0.2,0.4,0.6,0.1,0.9
			l-0.5,0.7c-0.3,0.4-0.6,0.4-0.9,0.2c-0.4-0.3-2-1.3-4-1.3c-3.1,0-4.4,2.1-4.4,3.6c0,1.8,1.6,2.8,3.8,3.9c3,1.4,5.6,2.6,5.6,5.8
			c0,3.7-3.2,6.3-7.4,6.3c-3.1,0-5-1.5-5.9-2.3C814.4,247.7,814.2,247.4,814.5,247.1L814.5,247.1z"/>
		<path fill="#FFFFFF" d="M646.9,230.7c0-0.5,0.4-0.9,0.9-0.9h1.7c0.4,0,0.7,0.2,0.8,0.5l0.6,1.7c0.8-0.9,2.9-2.7,6.1-2.7
			c2.6,0,4.4,1,6,2.8c0.8-0.8,3.2-2.8,6.5-2.8c5.9,0,8,4.4,8,9.2v8.8c0,0.5-0.4,0.9-0.9,0.9h-3.7c-0.5,0-0.9-0.4-0.9-0.9v-9.1
			c0-2.4-1.1-3.9-3.4-3.9c-2.7,0-3.9,1.9-3.9,1.9v11c0,0.5-0.4,0.9-0.9,0.9h-3.4c-0.5,0-0.9-0.4-0.9-0.9v-9.1c0-2.4-1.1-3.9-3.4-3.9
			c-2.3,0-3.4,1.7-3.9,2.9v10.1c0,0.5-0.4,0.9-0.9,0.9h-3.7c-0.5,0-0.9-0.4-0.9-0.9v-16.5H646.9L646.9,230.7z M680.3,231.1
			c-0.3-0.6,0.1-1.2,0.8-1.2h4.1c0.4,0,0.6,0.2,0.8,0.5l4.6,10.4l4.6-10.4c0.2-0.5,0.6-0.5,1.1-0.5h3.7c0.7,0,1.1,0.6,0.8,1.2
			l-14,30.3c-0.1,0.3-0.4,0.5-0.8,0.5h-3.9c-0.7,0-1.1-0.6-0.8-1.2l6.5-13.8L680.3,231.1L680.3,231.1z"/>
		<path fill="none" stroke="#FFFFFF" stroke-width="3.7659" stroke-linecap="round" stroke-miterlimit="10" d="M717.8,232.3
			c0-0.8,0.2-3.8,2.6-6c1.9-1.7,4.1-3.4,7.9-2.1c3.6,1.1,4.1,5.8,4.3,6.8c0.9,6.2-3.4,13.6-9.8,15.3c-2.6,0.8-4.9,0.4-6.2,0.2"/>
		<path fill="none" stroke="#FFFFFF" stroke-width="3.7659" stroke-linecap="round" stroke-miterlimit="10" d="M718.8,253.4
			c0,0.8-0.4,3.8-3,6c-1.9,1.7-4.3,3.2-8.1,1.7c-3.6-1.3-3.8-6-4-7.2c-0.8-6.2,4.1-13.4,10.5-14.9c2.6-0.6,4.9-0.2,6.2,0.2"/>
	</a>
	<a>
		<path fill="#EB194F" stroke="#FFFFFF" stroke-width="1.8" stroke-miterlimit="10" stroke-opacity="0.5" d="M524.6,358.9
			l-100.8-58.3V184.2L524.6,126l100.8,58.2v116.4L524.6,358.9z"/>
		<path fill="#FFFFFF" d="M455.3,221.7c-11.1,0-20.1,9-20.1,20.1s9,20.1,20.1,20.1s20.1-9,20.1-20.1
			C475.5,230.7,466.5,221.7,455.3,221.7z M468.5,246.7c-0.6,0-1.1-0.2-1.5-0.2c-0.2,0.4-0.2,0.6-0.4,0.9c1.7,0.8,2.8,2.4,2.8,4.3
			c0,2.6-2.1,4.7-4.7,4.7c-1.9,0-3.6-1.1-4.3-2.8c-0.2,0-0.4,0.2-0.6,0.2c0.2,0.6,0.4,0.9,0.4,1.5c0,2.6-2.1,4.7-4.7,4.7
			s-4.7-2.1-4.7-4.7c0-0.6,0.2-1.1,0.4-1.5c-0.2-0.2-0.6-0.2-0.8-0.4c-0.8,1.5-2.3,2.4-4.1,2.4c-2.6,0-4.7-2.1-4.7-4.7
			c0-1.9,1.1-3.4,2.6-4.1c0-0.2-0.2-0.4-0.2-0.6c-0.6,0.2-0.9,0.2-1.5,0.2c-2.6,0-4.7-2.1-4.7-4.7s2.1-4.7,4.7-4.7
			c0.6,0,1.1,0.2,1.5,0.2c0-0.2,0.2-0.6,0.4-0.8c-1.5-0.8-2.6-2.4-2.6-4.1c0-2.6,2.1-4.7,4.7-4.7c1.9,0,3.6,1.1,4.3,2.6
			c0.2-0.2,0.6-0.2,0.8-0.4c-0.2-0.6-0.4-1.1-0.4-1.7c0-2.6,2.1-4.7,4.7-4.7s4.7,2.1,4.7,4.7c0,0.6-0.2,1.1-0.4,1.7
			c0.2,0,0.4,0.2,0.8,0.2c0.8-1.5,2.4-2.6,4.3-2.6c2.6,0,4.7,2.1,4.7,4.7c0,1.9-1.1,3.4-2.6,4.3c0.2,0.2,0.2,0.4,0.4,0.8
			c0.6-0.2,0.9-0.4,1.5-0.4c2.6,0,4.7,2.1,4.7,4.7C474,244.5,471.2,246.8,468.5,246.7L468.5,246.7z"/>
		<circle fill="#FFFFFF" cx="455.3" cy="241.9" r="4.7"/>
		<path fill="#FFFFFF" d="M481.6,250.9h3.2v-16.8h-3.2v-2h7.7c7.6,0,13,1.7,13,10.4s-5.3,10.5-13,10.5h-7.7V250.9L481.6,250.9z
			 M487.6,250.9h1.7c5.9,0,10-1.6,10-8.4c0-6.8-4-8.4-10-8.4h-1.7V250.9L487.6,250.9z M515.8,249.9c-0.7,2.3-2.6,3.3-5,3.3
			c-2.9,0-5.7-1.2-5.7-4.5c0-4.5,4.4-4.7,7.9-4.7h2.8v-0.9c0-2.3-1.2-3.1-3.5-3.1c-2,0-3.6,0.4-3.8,2.5h-2.8
			c0.2-3.4,3.1-4.5,6.3-4.5c3.5,0,6.5,0.7,6.5,4.5v8.4h2.6v2h-5.2L515.8,249.9L515.8,249.9L515.8,249.9z M511.1,251.2
			c3.2,0,4.6-2.3,4.6-5.1h-2.2c-1.9,0-5.7,0-5.7,2.7C507.9,250.6,509.6,251.2,511.1,251.2L511.1,251.2z M522.5,250.9h2.5v-10.5h-2.5
			v-2h5.2v12.5h2.5v2h-7.7V250.9z M527.6,235h-3v-3h3V235z M532.2,252.9v-5.1h2c0,1.4,0.6,2.2,1.5,2.7c0.9,0.5,2.1,0.6,3.3,0.6
			c1.2,0,3-0.7,3-2.3c0-2-2.1-2-3.7-2.2c-2.7-0.4-6-0.8-6-4.2c0-3.1,3-4.6,5.7-4.6c1.9,0,3.6,0.6,4.4,2.1h0.1v-1.8h2v4.8h-2
			c0-1.3-0.4-2-1.2-2.5c-0.7-0.4-1.7-0.6-2.8-0.6c-1.5,0-3.6,0.4-3.6,2.3c0,1.7,2.5,1.7,4.4,2c2.6,0.4,5.5,0.9,5.5,4.2
			c0,3.4-3.1,4.7-6.1,4.7c-1.7,0-3.8-0.7-4.4-2.3h-0.1v2h-2V252.9L532.2,252.9z M563.9,240.4h-1.6l-6,13.9c-1.1,2.5-1.8,4.2-4.7,4.2
			c-0.7,0-1.3-0.1-2-0.2v-2c0.5,0,1,0.1,1.5,0.1c2.2,0,2.3-1.8,3.2-3.6l-5.7-12.5H547v-2h7.3v2h-2.8l4.2,9.8l4.1-9.8H557v-2h6.9
			V240.4z M565.2,250.9h3.2v-16.8h-3.2v-2h9.5c3.5,0,8.1,0.1,8.1,5.6c0,2.2-1.6,4.2-4.2,4.6v0.1c3,0,4.8,1.7,4.8,4.8
			c0,5.2-4.2,5.9-8.8,5.9h-9.4V250.9L565.2,250.9z M571.3,241.3h3.4c2.7,0,5.2-0.5,5.2-3.8c0-3.5-3-3.5-5.1-3.5h-3.4v7.3H571.3z
			 M571.3,250.9h3.4c3,0,5.8-0.5,5.8-3.8c0-3.2-2.7-3.6-5.8-3.6h-3.4V250.9L571.3,250.9z M586.5,250.9h2.5v-10.5h-2.5v-2h5.2v12.5
			h2.5v2h-7.7V250.9z M591.7,235h-3v-3h3V235z M595.4,250.9h2.5v-16.8h-2.5v-2h5.2V251h2.5v2h-7.7V250.9L595.4,250.9z M604.3,250.9
			h2.5v-16.8h-2.5v-2h5.2V251h2.5v2h-7.7V250.9L604.3,250.9z"/>
	</a>
	<a>
		<path fill="#91C447" stroke="#FFFFFF" stroke-width="1.8" stroke-miterlimit="10" stroke-opacity="0.5" d="M1480,174.6
			l-100.8-58.3V-0.1L1480-58.3l100.8,58.2v116.4L1480,174.6z"/>
		<path fill="#FFFFFF" d="M1452.8,61.2h5.5c0.1,0.9,0.4,1.6,1.1,2c0.6,0.4,1.5,0.7,2.7,0.7c0.9,0,1.6-0.2,2.1-0.5s0.8-0.8,0.8-1.3
			c0-0.7-0.3-1.2-0.8-1.6c-0.5-0.4-2-0.7-4.4-1.1c-2.3-0.3-4-0.9-5-1.8s-1.5-2-1.5-3.5c0-1.7,0.7-3,2.1-3.9s3.5-1.4,6.3-1.4
			c2.7,0,4.7,0.5,6.1,1.5c1.3,1,2,2.3,2.1,3.9h-4.9c-0.1-0.6-0.3-1.1-0.8-1.5c-0.4-0.3-1.2-0.5-2.2-0.5s-1.8,0.1-2.3,0.4
			c-0.6,0.3-0.8,0.6-0.8,1.1c0,0.7,0.3,1.2,0.8,1.5c0.5,0.4,1.8,0.7,3.8,1c3,0.4,4.9,1.1,5.8,1.9c0.9,0.9,1.4,2,1.4,3.4
			c0,1.8-0.7,3.3-2.1,4.3s-3.6,1.5-6.6,1.5c-2.8,0-5-0.5-6.6-1.6C1453.7,64.5,1452.9,63,1452.8,61.2L1452.8,61.2z M1486.5,60.1h5.3
			c-0.2,2-1,3.7-2.5,5.1c-1.5,1.4-3.7,2-6.5,2c-3,0-5.4-0.8-7.1-2.4c-1.7-1.6-2.6-3.9-2.6-6.8c0-2.8,0.8-5.1,2.5-6.8
			c1.7-1.7,4.2-2.5,7.5-2.5c2.6,0,4.6,0.6,6,1.8c1.4,1.2,2.3,2.9,2.5,5h-5.2c-0.2-1.2-0.5-2-1.1-2.6c-0.6-0.5-1.4-0.8-2.4-0.8
			c-1.3,0-2.4,0.5-3.1,1.4s-1.1,2.3-1.1,4.2c0,2.1,0.4,3.6,1.1,4.6s1.8,1.6,3,1.6c1.1,0,1.9-0.3,2.6-1S1486.5,61.2,1486.5,60.1
			L1486.5,60.1z M1500.8,42.8v8.4c0.7-0.8,1.6-1.4,2.6-1.9c1-0.4,2.2-0.7,3.5-0.7c2,0,3.5,0.6,4.5,1.7s1.5,2.9,1.5,5.3v10.8h-5.5
			v-10c0-1.5-0.3-2.6-0.8-3.4c-0.5-0.7-1.3-1.1-2.3-1.1c-1.1,0-2,0.4-2.7,1.2c-0.7,0.8-1,2-1,3.5v9.7h-5.5V42.6h5.7L1500.8,42.8
			L1500.8,42.8z M1526.5,67.2c-3,0-5.4-0.8-7.2-2.3c-1.8-1.6-2.8-3.9-2.8-6.9c0-2.9,0.9-5.1,2.6-6.8c1.7-1.6,4.2-2.5,7.4-2.5
			c3,0,5.4,0.8,7.2,2.3s2.7,3.9,2.7,6.9c0,3.1-0.9,5.4-2.8,6.9C1531.8,66.4,1529.4,67.2,1526.5,67.2L1526.5,67.2z M1526.5,63.8
			c1.4,0,2.5-0.5,3.2-1.4c0.7-1,1.1-2.5,1.1-4.5s-0.4-3.5-1.1-4.4s-1.8-1.4-3.2-1.4c-1.4,0-2.5,0.5-3.2,1.4c-0.8,1-1.1,2.4-1.1,4.4
			s0.4,3.5,1.1,4.4S1525.1,63.8,1526.5,63.8z M1549.2,67.2c-3,0-5.4-0.8-7.2-2.3c-1.8-1.6-2.8-3.9-2.8-6.9c0-2.9,0.9-5.1,2.6-6.8
			c1.7-1.6,4.2-2.5,7.4-2.5c3,0,5.4,0.8,7.2,2.3s2.7,3.9,2.7,6.9c0,3.1-0.9,5.4-2.8,6.9C1554.6,66.4,1552.2,67.2,1549.2,67.2
			L1549.2,67.2z M1549.2,63.8c1.4,0,2.5-0.5,3.2-1.4c0.7-1,1.1-2.5,1.1-4.5s-0.4-3.5-1.1-4.4s-1.8-1.4-3.2-1.4
			c-1.4,0-2.5,0.5-3.2,1.4c-0.8,1-1.1,2.4-1.1,4.4s0.4,3.5,1.1,4.4S1547.8,63.8,1549.2,63.8z M1562.7,42.8h5.5v23.7h-5.5V42.8
			L1562.7,42.8z"/>
		<path fill="#FFFFFF" d="M1423.2,32.7c-15.8,0-28.6,11.1-28.6,24.9c0,13.8,12.8,24.9,28.6,24.9s28.6-11.1,28.6-24.9
			C1451.8,43.7,1439,32.7,1423.2,32.7L1423.2,32.7z M1426.2,66.6h-5.1V56.4c0-1.5-0.2-2.6-0.6-3.2c-0.4-0.8-1.1-0.9-1.9-0.9
			c-0.9,0-1.7,0.4-2.3,1.1c-0.6,0.8-0.9,1.9-0.9,3.4v10h-5.1V56.6c0-1.5-0.2-2.6-0.6-3.4c-0.4-0.6-1.1-0.9-1.9-0.9
			c-0.9,0-1.7,0.4-2.3,1.1c-0.6,0.8-0.9,1.9-0.9,3.4v10h-5.1V49.7h4.9v2.4c0.8-1.1,1.7-1.9,2.4-2.4c0.9-0.6,1.9-0.8,2.8-0.8
			c1.3,0,2.4,0.4,3.2,0.9c0.9,0.6,1.5,1.5,1.9,2.4c0.8-1.1,1.7-2.1,2.6-2.6s2.1-0.8,3.2-0.8c2.1,0,3.4,0.6,4.3,1.9s1.5,3,1.5,5.5
			L1426.2,66.6z M1440.9,67.5c-0.8,2.4-1.7,4-2.6,4.5c-0.9,0.6-2.1,1.1-3.6,1.1h-1.9c-0.6,0-1.1-0.2-1.7-0.2v-3.4
			c0.2,0,0.4,0.2,0.8,0.2h0.9c0.6,0,1.1-0.2,1.5-0.6c0.4-0.4,0.8-0.9,0.9-1.9l0.2-0.8l-7.5-16.9h6.4l4,11.3l3-11.3h5.5L1440.9,67.5
			L1440.9,67.5z"/>
	</a>
	<a>
		<path fill="#F48420" d="M1267.6,174.6l-100.8-58.3V-0.1l100.8-58.2l100.8,58.2v116.4L1267.6,174.6z"/>
		<g id="XMLID_38_">
			<path id="XMLID_54_" fill="#FFFFFF" d="M1299.2,64.9c0,3.8-1.4,7-7.7,7h-32.7c-0.7-3.1,1.4-9.7,4.2-11.8c2.4-2.1,5.6-2.1,8.4-1.7
				c7.7,0.7,9.1-4.5,9.4-10.1c0.7-6.3-3.5-8-8.7-7.7c-4.2,0-8-0.7-8-5.6c0-5.2,4.2-6.3,8.4-5.9c8,1,12.2-2.4,12.5-10.4
				c0.7-3.5,2.4-5.2,5.9-5.2l8.4,0V64.9z"/>
			<path id="XMLID_53_" fill="#FFFFFF" d="M1237.6,22.1c0,0-0.7-8.4,8.7-8.7h30.6c0,3.1-0.3,7-2.1,9.1c-2.4,3.1-5.9,3.5-9.4,3.1
				c-8-0.7-9.4,4.9-9.7,10.4c-0.3,6.3,4.2,7.3,9.4,7c4.2-0.3,7.3,1,7.3,5.6c0,4.9-3.1,6.6-7.7,5.9c-8.4-1-13.2,2.1-13.6,10.8
				c-0.3,7.3-13.2,5.9-13.2,5.9L1237.6,22.1z"/>
		</g>
		<g>
			<path fill="#FFFFFF" d="M1195.6,82.3c-2.5-0.2-3.7,0.8-3.7,3.1v0.3h3.7V89h-3.7v12.4h-3.4V89v-3.3v-0.3c0-2.2,0.6-3.8,1.8-4.9
				c1.2-1.1,3-1.6,5.3-1.5V82.3z"/>
			<path fill="#FFFFFF" d="M1202.6,101.8c-2.3,0-4.3-0.8-5.9-2.4c-1.6-1.6-2.4-3.5-2.4-5.9c0-2.3,0.8-4.3,2.4-5.9
				c1.6-1.6,3.6-2.4,5.9-2.4c2.3,0,4.3,0.8,5.9,2.4c1.6,1.6,2.4,3.5,2.4,5.9c0,2.3-0.8,4.3-2.4,5.9
				C1206.9,101,1205,101.8,1202.6,101.8z M1199.2,97.1c0.9,0.9,2.1,1.4,3.5,1.4c1.4,0,2.5-0.5,3.5-1.4c0.9-0.9,1.4-2.1,1.4-3.5
				c0-1.4-0.5-2.6-1.4-3.5c-0.9-0.9-2.1-1.4-3.5-1.4c-1.4,0-2.5,0.5-3.5,1.4c-0.9,0.9-1.4,2.1-1.4,3.5
				C1197.8,95,1198.2,96.2,1199.2,97.1z"/>
			<path fill="#FFFFFF" d="M1223,85.7h3.4v15.7h-3.4v-2c-1,1.6-2.6,2.4-4.9,2.4c-1.8,0-3.2-0.6-4.4-1.7c-1.1-1.1-1.7-2.7-1.7-4.7
				v-9.6h3.4V95c0,1.2,0.3,2.1,0.9,2.7c0.6,0.6,1.5,0.9,2.6,0.9c1.2,0,2.2-0.4,2.9-1.1c0.7-0.7,1.1-1.9,1.1-3.4V85.7z"/>
			<path fill="#FFFFFF" d="M1237,85.3c1.8,0,3.2,0.6,4.4,1.7c1.1,1.1,1.7,2.7,1.7,4.7v9.6h-3.4v-9.3c0-1.2-0.3-2.1-0.9-2.7
				c-0.6-0.6-1.5-0.9-2.6-0.9c-1.2,0-2.2,0.4-2.9,1.1s-1.1,1.9-1.1,3.4v8.4h-3.4V85.7h3.4v2C1233.2,86.1,1234.8,85.3,1237,85.3z"/>
			<path fill="#FFFFFF" d="M1257.5,79.5h3.4v21.9h-3.4v-2.3c-1.3,1.8-3.1,2.7-5.5,2.7c-2.2,0-4-0.8-5.5-2.4
				c-1.5-1.6-2.3-3.5-2.3-5.8c0-2.3,0.8-4.3,2.3-5.9c1.5-1.6,3.4-2.4,5.5-2.4c2.4,0,4.2,0.9,5.5,2.6V79.5z M1249,97.2
				c0.9,1,2.1,1.4,3.5,1.4c1.4,0,2.6-0.5,3.5-1.4c0.9-0.9,1.4-2.1,1.4-3.6s-0.5-2.6-1.4-3.6c-0.9-1-2.1-1.4-3.5-1.4
				c-1.4,0-2.6,0.5-3.5,1.4c-0.9,0.9-1.4,2.1-1.4,3.6S1248,96.2,1249,97.2z"/>
			<path fill="#FFFFFF" d="M1265.9,95c0.2,1.2,0.8,2.1,1.7,2.7c0.9,0.6,2,1,3.3,1c1.8,0,3.1-0.6,4-1.9l2.8,1.6
				c-1.6,2.3-3.8,3.4-6.9,3.4c-2.6,0-4.6-0.8-6.2-2.3c-1.6-1.6-2.4-3.5-2.4-5.9c0-2.3,0.8-4.3,2.3-5.9c1.5-1.6,3.5-2.4,6-2.4
				c2.3,0,4.2,0.8,5.7,2.4c1.5,1.6,2.2,3.6,2.2,5.9c0,0.4,0,0.8-0.1,1.4H1265.9z M1265.9,92.3h9.2c-0.2-1.3-0.8-2.2-1.6-2.9
				c-0.8-0.6-1.8-1-2.9-1c-1.3,0-2.3,0.3-3.1,1C1266.6,90.1,1266.1,91.1,1265.9,92.3z"/>
			<path fill="#FFFFFF" d="M1283.3,88.4c0.9-1.9,2.5-2.9,4.8-2.9v3.7c-1.3-0.1-2.4,0.2-3.4,0.9c-1,0.7-1.4,1.9-1.4,3.5v7.9h-3.4
				V85.7h3.4V88.4z"/>
			<path fill="#FFFFFF" d="M1290.6,89.8c0,0.8,0.3,1.4,1,1.8c0.7,0.4,1.4,0.8,2.4,1c0.9,0.2,1.9,0.5,2.8,0.7
				c0.9,0.2,1.7,0.7,2.4,1.3s1,1.5,1,2.6c0,1.3-0.5,2.4-1.6,3.2c-1,0.8-2.4,1.3-4.1,1.3c-1.5,0-2.8-0.3-3.8-1
				c-1-0.6-1.8-1.5-2.1-2.5l1.3-0.8c0.3,0.9,0.8,1.5,1.6,2c0.8,0.5,1.8,0.7,3,0.7s2.1-0.3,2.9-0.8c0.8-0.5,1.1-1.2,1.1-2.2
				c0-0.8-0.3-1.4-1-1.8c-0.6-0.5-1.4-0.8-2.4-1.1c-0.9-0.2-1.9-0.5-2.8-0.7s-1.7-0.7-2.4-1.3c-0.6-0.6-1-1.5-1-2.5
				c0-1.3,0.5-2.3,1.5-3.2c1-0.9,2.3-1.3,3.8-1.3c1.3,0,2.3,0.3,3.3,0.8c0.9,0.6,1.6,1.3,2.1,2.3l-1.3,0.8c-0.3-0.8-0.8-1.4-1.6-1.8
				c-0.7-0.4-1.5-0.6-2.4-0.6c-1.1,0-2,0.3-2.7,0.8C1290.9,88.2,1290.6,88.9,1290.6,89.8z"/>
			<path fill="#FFFFFF" d="M1313.4,85.7h1.6v15.7h-1.6v-3c-1.1,2.2-3,3.3-5.6,3.3c-1.9,0-3.3-0.6-4.4-1.7c-1.1-1.1-1.6-2.7-1.6-4.6
				v-9.7h1.6v9.7c0,1.5,0.4,2.6,1.2,3.5c0.8,0.9,1.9,1.3,3.4,1.3c1.6,0,2.9-0.5,3.9-1.6c1-1.1,1.5-2.6,1.5-4.6V85.7z"/>
			<path fill="#FFFFFF" d="M1319.9,81.6c-0.3,0.2-0.5,0.4-0.9,0.4c-0.3,0-0.6-0.1-0.9-0.4c-0.3-0.2-0.4-0.5-0.4-0.9
				c0-0.3,0.1-0.6,0.4-0.9c0.3-0.2,0.5-0.4,0.9-0.4c0.3,0,0.6,0.1,0.9,0.4c0.3,0.2,0.4,0.5,0.4,0.9
				C1320.3,81,1320.1,81.3,1319.9,81.6z M1318.2,101.4V85.7h1.6v15.7H1318.2z"/>
			<path fill="#FFFFFF" d="M1331.1,87.3h-4.7v10.2c0,0.9,0.2,1.5,0.5,1.9c0.3,0.4,0.8,0.6,1.5,0.7c0.7,0.1,1.6,0,2.6-0.1v1.4
				c-2.1,0.3-3.7,0.2-4.7-0.4c-1-0.6-1.6-1.8-1.6-3.5V87.3h-3.4v-1.5h3.4v-3.9l1.6-0.5v4.4h4.7V87.3z"/>
			<path fill="#FFFFFF" d="M1339.4,85.4c2.3,0,4.2,0.8,5.6,2.4c1.4,1.6,2.1,3.6,2.1,5.8c0,0.1,0,0.2,0,0.4c0,0.2,0,0.3,0,0.4h-14.2
				c0.2,1.8,0.9,3.2,2.1,4.2c1.2,1.1,2.7,1.6,4.5,1.6c1.3,0,2.4-0.3,3.3-0.8c0.9-0.5,1.6-1.2,2.1-2.1l1.4,0.8
				c-0.6,1.1-1.6,1.9-2.8,2.6c-1.2,0.6-2.5,1-4.1,1c-2.4,0-4.4-0.8-5.9-2.3c-1.5-1.5-2.3-3.5-2.3-5.9c0-2.3,0.8-4.3,2.3-5.8
				C1335,86.2,1337,85.4,1339.4,85.4z M1339.4,86.9c-1.8,0-3.3,0.6-4.4,1.7c-1.2,1.1-1.9,2.5-2,4.3h12.6c-0.2-1.9-0.8-3.3-2-4.4
				C1342.3,87.4,1341,86.9,1339.4,86.9z"/>
		</g>
	</a>
	<a>
		<path fill="#00546E" stroke="#FFFFFF" stroke-width="1.8" stroke-miterlimit="10" stroke-opacity="0.5" d="M1055.4,174.6
			l-100.8-58.3V-0.1l100.8-58.2l100.8,58.2v116.4L1055.4,174.6z"/>
		<path fill="#FFFFFF" d="M1055.1,7.5c-14.1,0-25.6,11.5-25.6,25.6s11.5,25.6,25.6,25.6s25.6-11.5,25.6-25.6S1069.2,7.5,1055.1,7.5z
			 M1070.5,36.6l-1.3,3c-0.2,0.4-0.4,0.6-0.8,0.6h-4c-0.6,0-1.1,0.8-0.8,1.3l6.4,9.6c0.2,0.4,0.2,0.9-0.2,1.1l-3,1.9
			c-0.4,0.2-0.9,0.2-1.1-0.2l-8.8-13c-0.2-0.2-0.4-0.4-0.8-0.4h-2.6c-0.2,0-0.6,0.2-0.8,0.4l-9.6,13c-0.2,0.4-0.8,0.4-1.1,0.2
			l-2.6-2.1c-0.4-0.2-0.4-0.8-0.2-1.1l6.6-9.2c0.4-0.6,0-1.3-0.8-1.3h-4.7c-0.4,0-0.8-0.4-0.8-0.8V14.2c0-0.4,0.2-0.6,0.4-0.8l3-1.9
			c0.6-0.4,1.3,0,1.3,0.8v22.2c0,0.4,0.4,0.8,0.8,0.8h24.3C1070.3,35.5,1070.9,36.1,1070.5,36.6L1070.5,36.6z"/>
		<path fill="#FFFFFF" d="M985.8,85.3c0,4.4,2.4,7.2,5.8,7.2c4,0,6.7-2.2,6.7-2.2l1.4,2.1c0,0-3.7,3.3-8.5,3.3
			c-6.4,0-9.6-4.2-9.6-10.8c0-6.4,4-11.2,9.8-11.2c5.8,0,8.4,3.4,8.4,9.4c0,1-0.2,2.1-0.2,2.2H985.8L985.8,85.3z M995.6,82.3
			c0-3-1.2-5.5-4.4-5.5c-3.2,0-5,2.5-5.2,5.5H995.6L995.6,82.3z M1012.2,91.7l4.8-14.6l-2.8-0.6v-2.2l9-0.2v2.4l-2.2,0.4l-6.8,18.4
			h-4.4l-6.6-18.2l-2-0.6v-2.2l9-0.2v2.4l-2.8,0.4L1012.2,91.7L1012.2,91.7z M1028.2,85.3c0,4.4,2.4,7.2,5.8,7.2
			c4,0,6.7-2.2,6.7-2.2l1.4,2.1c0,0-3.7,3.3-8.5,3.3c-6.4,0-9.6-4.2-9.6-10.8c0-6.4,4-11.2,9.8-11.2c5.8,0,8.4,3.4,8.4,9.4
			c0,1-0.2,2.1-0.2,2.2H1028.2L1028.2,85.3z M1038,82.3c0-3-1.2-5.5-4.4-5.5c-3.2,0-5,2.5-5.2,5.5H1038L1038,82.3z M1052.6,77
			c1-1.1,3.3-3.3,6-3.3c2,0,3.6,0.6,3.6,0.6l-0.2,5.8h-2.6l-0.6-3c-3,0-4.9,2-5.8,3.1v11.9l4,1v2.2h-11.4v-2.2l3.4-1V77.2l-3.4-0.8
			v-2.2l6.6-0.2L1052.6,77z M1067.8,92.3c0,0,1.2,0.4,3.4,0.4c2.4,0,4.5-0.7,4.5-3.2c0-4.3-11.2-2.3-11.2-9.6c0-4.2,3.2-6.2,7.3-6.2
			c3.2,0,6.8,1.2,6.8,1.2l-0.1,5.4h-2.6l-0.6-3.1c0,0-1.2-0.5-3.2-0.5s-3.6,0.6-3.6,2.7c0,4.3,11.2,2.6,11.2,9.5
			c0,4.6-4,6.8-8.8,6.8c-3.7,0-6.3-0.9-6.3-0.9v-5.9h2.8L1067.8,92.3L1067.8,92.3z M1087.3,85.3c0,4.4,2.4,7.2,5.8,7.2
			c4,0,6.7-2.2,6.7-2.2l1.4,2.1c0,0-3.7,3.3-8.5,3.3c-6.4,0-9.6-4.2-9.6-10.8c0-6.4,4-11.2,9.8-11.2c5.8,0,8.4,3.4,8.4,9.4
			c0,1-0.2,2.1-0.2,2.2H1087.3L1087.3,85.3z M1097,82.3c0-3-1.2-5.5-4.4-5.5c-3.2,0-5,2.5-5.2,5.5H1097L1097,82.3z M1106.1,75.3
			c0,0,4.4-1.6,7.8-1.6c4.6,0,7.4,1.6,7.4,6.2v12.2l3.2,0.8v2.2l-6.2,0.2l-0.8-2.8c-1.4,1.4-3.8,3.2-6.6,3.2c-3.8,0-6-2.2-6-6
			c0-4.6,3.6-6.2,9.2-6.2h3.2v-3.2c0-2.4-1.4-3.6-3.8-3.6c-2.4,0-4,0.6-4,0.6l-0.6,3h-2.6L1106.1,75.3L1106.1,75.3z M1114.5,86.1
			c-4,0-5.5,1-5.5,3.4c0,1.8,1.1,3,2.9,3c3,0,5.4-3.2,5.4-3.2v-3.2H1114.5L1114.5,86.1z M1140.3,77.3h-5.8v12.9c0,1.8,0.9,2.4,2,2.4
			c1,0,2.1-0.4,3.1-1l1.1,2.1c-1.8,1.3-3.6,2-5.6,2c-2.4,0-4.6-1.3-4.6-5.8V77.3h-4v-2.6l4-0.4v-5l4-0.8v5.8h5.8V77.3L1140.3,77.3z"
			/>
	</a>
	<a>
		<path fill="#2D1946" stroke="#FFFFFF" stroke-width="1.8" stroke-miterlimit="10" stroke-opacity="0.5" d="M843,174.6l-100.8-58.3
			V-0.1L843-58.3L943.8-0.1v116.4L843,174.6z"/>
		<path fill="#FFFFFF" d="M802.8,54.9c0,2.8-1.5,4.3-4,4.3h-1.5v4.7h-1.8V50.7h3.4C801.3,50.6,802.8,52.1,802.8,54.9L802.8,54.9z
			 M800.9,54.9c0-1.7-0.8-2.4-2.1-2.4h-1.5v4.9h1.5C800.2,57.4,800.9,56.4,800.9,54.9z M816.5,58.9h-1.1v4.7h-1.9V50.4h3.4
			c2.4,0,4,1.5,4,4.1c0,2.1-0.9,3.4-2.4,4l2.8,5.1h-2.1L816.5,58.9z M815.4,57.2h1.5c1.3,0,2.1-0.9,2.1-2.4s-0.8-2.3-2.1-2.3h-1.5
			V57.2z M838.8,61.9v1.7h-6.6V50.4h6.4v1.7h-4.5v3.8h4.1v1.7h-4.1v4h4.7L838.8,61.9L838.8,61.9z M856.5,61.9v1.7h-6.6V50.4h6.4v1.7
			h-4.5v3.8h4.1v1.7h-4.1v4h4.7L856.5,61.9L856.5,61.9z M873.6,62.6v1.1h-6V50.5h1.1v12.1L873.6,62.6L873.6,62.6z M885.5,50.6v13.2
			h-1.1V50.6L885.5,50.6L885.5,50.6z M904.7,50.6v13.2h-1.2l-3.6-7.7c-0.4-0.9-1.1-2.4-1.3-3.2v10.9h-1.1V50.6h1.1l3.6,7.7
			c0.4,0.9,1.1,2.4,1.5,3.2c0-0.9-0.2-2.6-0.2-3.8v-7.2L904.7,50.6z M922.9,62.6v1.1h-6.4V50.5h6.2v1.1h-4.9v4.9h4.7v1.1h-4.7v5.1
			L922.9,62.6L922.9,62.6z"/>
		
			<path fill="none" stroke="#FFFFFF" stroke-width="1.2616" stroke-linecap="round" stroke-linejoin="round" stroke-miterlimit="10" d="
			M774,64.4l7.8-8.1c1.7-1.7,2.7-5.9-0.8-6.7"/>
		
			<path fill="none" stroke="#FFFFFF" stroke-width="1.2616" stroke-linecap="round" stroke-linejoin="round" stroke-miterlimit="10" d="
			M763,60.5l8.3-8.4c0,0-3.9-4.1-6.2-1.5c-2.4,2.7,1.6,6,1.6,6l7.2,7.9"/>
		
			<line fill="none" stroke="#FFFFFF" stroke-width="1.2616" stroke-linecap="round" stroke-linejoin="round" stroke-miterlimit="10" x1="770.4" y1="60.6" x2="780.9" y2="49.6"/>
	</a>
	<a>
		<path fill="#302683" stroke="#FFFFFF" stroke-width="1.8" stroke-miterlimit="10" stroke-opacity="0.5" d="M1373.8-10.7L1273-68.9
			v-116.4l100.8-58.2l100.8,58.2v116.4L1373.8-10.7z"/>
		<path fill="#FFFFFF" d="M1288.5-143.7v30.8h10v-30.8H1288.5 M1301.5-137.7v24.8h10v-30.8L1301.5-137.7 M1319.4-143.7v25.9l10,4.9
			v-30.8H1319.4 M1332.4-143.7v30.8l10-4.9v-25.9H1332.4 M1350.3-143.7v30.8h10v-30.8H1350.3 M1362.3-138.8v25.9h10v-30.8
			L1362.3-138.8 M1375.2-138.8v25.9h9.9v-30.8L1375.2-138.8 M1393.2-138.8v21l10,4.9v-30.8L1393.2-138.8 M1405.1-143.7v30.8h10
			v-30.8H1405.1 M1430-143.1h3v16.1h4.9v2.7h-7.8L1430-143.1L1430-143.1z M1448.7-124.3h-3l-0.5-3.4h-3.6l-0.5,3.4h-2.7l3-18.8h4.3
			L1448.7-124.3L1448.7-124.3z M1442-130.3h2.9l-1.4-9.5h-0.1L1442-130.3z M1459-138.8v0.7c0,1.9-0.6,3.1-1.9,3.8v0.1
			c1.6,0.6,2.2,2,2.2,4v1.5c0,2.9-1.5,4.5-4.5,4.5h-4.7V-143h4.5C1457.6-143.1,1459-141.7,1459-138.8L1459-138.8z M1453.1-140.4v5
			h1.2c1.1,0,1.8-0.5,1.8-2v-1c0-1.3-0.5-1.9-1.5-1.9h-1.5V-140.4z M1453.1-132.8v5.8h1.7c1,0,1.5-0.5,1.5-1.9v-1.6
			c0-1.7-0.6-2.3-1.9-2.3H1453.1L1453.1-132.8z"/>
	</a>
	<a>
		<path fill="#007550" stroke="#FFFFFF" stroke-width="1.8" stroke-miterlimit="10" stroke-opacity="0.5" d="M1161.6-10.7
			l-100.8-58.2v-116.4l100.8-58.2l100.8,58.2v116.4L1161.6-10.7z"/>
		<path fill="#FFFFFF" d="M1175.4-147.3c-0.2-0.6-0.4-1.1-0.4-1.7c-0.6-0.9-5.8-1.9-6.8-1.9c-0.2,0-8.8-0.8-9.4,0.4
			c-0.8,1.5-0.8,5.8-0.6,7c0.6-0.9,4.7-3.6,5.8-4c0.9-0.4,5.5-2.1,8.3,2.8c0,0.2,0.2,0.4-0.2,0.4s-0.6,0-0.6-0.4
			c0-0.8-1.3-1.3-1.7-1.5c-1.1-0.4-2.4-0.6-3.6-0.2c-4.3,1.1-7,5.8-7.3,7c-0.6,1.5-2.4,7,3,11.7c0.8,0.8,1.5,1.1,2.4,1.5
			c2.4,0.9,7,1.5,9,0.4c0.2,0,0.2-0.2,0-0.4c-0.2-0.4-6-1.7-8.3-2.8c-1.9-0.9-1.9-8.1-0.8-10.2c0.2-0.6-0.8-0.2-1.7,0.4
			c-0.8,0.4-1.5,0.8-1.5,0.8c-0.2-0.2,0.4-0.8,0.6-0.8c2.4-2.3,5.8-0.9,6.4-0.8c0.8,0.4,1.5,0.6,1.5,0.8c0,0.2-0.2,0.2-0.4,0.2
			c0,0-2.8-0.9-3.4-0.8c-1.1,0.6-0.4,6.6-0.4,6.8c0.2,1.1,0.6,1.7,0.9,1.9c4.1,2.3,18.6-0.4,19.8-1.3
			C1181.8-134.3,1177.6-140,1175.4-147.3z"/>
		<path fill="#FFFFFF" d="M1243.9-133.8c-0.2-0.2-2.6-3.8-6.8-3.8c-0.9,0-2.1,0.2-2.8,0.6c-2.3,0.9-4.9,1.9-5.1,3.8
			c0.4,0.6,1.3,1.1,5.1,2.3c-1.3,0.6-15.4-3.8-16.6-8.8c-4.7-0.2-9.4-1.7-13-8.3c0,14.3-20.1,19-30.9,19.8
			c9.8,4.3,20.3,17.5,21.8,18.5c4.9,2.8,20.9,1.1,21.1,0.9C1234.8-110.2,1248.5-128.1,1243.9-133.8L1243.9-133.8z M1195-120.6
			c16,8.5,36.9-0.6,41.2-11.5C1231.8-115.7,1202.7-112.3,1195-120.6L1195-120.6z M1206.1-175.6c-4-4.5-10.9-5.1-10.9-5.3
			c-0.9-2.3,4.9-8.3,6.6-10c0.2-0.2,0-0.4-0.2-0.2c-0.2,0-14.7,1.7-19.6,7.9c-0.4-2.3,0.9-5.5,2.4-7.7c0-0.4-0.4-0.2-0.6-0.2
			c-13.6,3-24.5,27.3-24.5,37.3c1.1,0.8,10,0.6,15.4,2.8c-1.5-9,1.1-16.9,6.6-18.6c4.3-1.3,9.4,1.9,13,7.7c0.6-1.9,1.7-3.2,3.2-3.8
			c0.9-0.2,2.1-0.2,3,0.4C1200.8-170.4,1202.7-174.3,1206.1-175.6L1206.1-175.6z"/>
		<path fill="#FFFFFF" d="M1209.3-172.2c3.4,0,8.1,4.1,10.5,11.9c1.3,4,1.5,7.9,0.9,11.1c-0.6,2.8-1.9,4.7-3.6,5.3
			c-0.4,0.2-0.8,0.2-1.1,0.2c-3.4,0-8.1-4.1-10.5-11.9c-2.6-8.3-0.8-15.3,2.8-16.4C1208.5-172,1208.9-172.2,1209.3-172.2
			 M1209.3-174.2c-0.6,0-1.1,0-1.9,0.2c-5.1,1.7-7,10.2-4.1,19c2.4,7.9,7.9,13.4,12.6,13.4c0.6,0,1.1,0,1.9-0.2
			c5.1-1.7,7-10.2,4.1-19C1219.4-168.8,1214-174.2,1209.3-174.2z M1183.3-165.4c3.4,0,8.1,4.1,10.5,11.9c2.6,8.3,0.8,15.3-2.8,16.4
			h-1.1c-3.4,0-8.1-4.1-10.5-11.9c-1.3-4-1.5-7.9-0.9-11.1c0.6-2.8,1.9-4.7,3.6-5.3H1183.3 M1183.3-167.7c-0.6,0-1.1,0-1.9,0.2
			c-5.1,1.7-7,10.2-4.1,19c2.4,7.9,7.9,13.4,12.6,13.4c0.6,0,1.1,0,1.9-0.2c5.1-1.7,7-10.2,4.1-19
			C1193.4-162.2,1188-167.7,1183.3-167.7z"/>
		<path fill="#FFFFFF" stroke="#FFFFFF" stroke-width="2.1718" stroke-miterlimit="10" d="M1194.6-154.7c-0.2-2.3,1.1-7.5,3.4-8.5
			c2.1-0.9,3.6,0.4,5.3,1.9"/>
		<path fill="#FFFFFF" d="M1180.6-122.1c0.9,1.9,1.9,3.6,3.2,5.1c1.1,1.7,2.4,3.2,4,4.5c2.8,2.8,6.2,4.9,10,6.2
			c3.8,1.3,7.7,1.9,11.7,1.5c4-0.2,7.9-1.3,11.7-2.8c0.2,0,0.4,0,0.4,0.2s0,0.4-0.2,0.4c-3.6,2.3-7.5,3.6-11.9,4.1
			c-4.1,0.6-8.7,0.2-12.6-1.3c-4-1.5-7.7-3.8-10.7-7c-2.8-3.2-5.1-6.8-6.2-10.9c0-0.2,0-0.4,0.2-0.4
			C1180.5-122.3,1180.6-122.3,1180.6-122.1L1180.6-122.1z"/>
		<path fill="#FFFFFF" d="M1088.7-121.4c0.6,0,1.3,0.1,2,0.4c0.9,0.4,1.6,1,2.1,1.9c0.5,0.8,0.7,1.7,0.7,2.5c0,1-0.3,1.9-0.9,2.6
			c-0.3,0.4-0.6,0.7-1,1s-0.8,0.5-1.2,0.6c-0.1,0-0.2,0.1-0.2,0.1c0,0.2,0.2,0.3,0.6,0.4s0.8,0.2,1.3,0.2c0.3,0,0.6-0.1,0.9-0.2h0.2
			c0.1,0,0.1,0.1,0.2,0.2c0.1,0.1,0.1,0.2,0.1,0.3c0,0.2-0.1,0.5-0.4,0.7c-0.3,0.3-0.7,0.5-1.1,0.6c-0.5,0.1-0.9,0.2-1.4,0.2
			c-0.6,0-1.2-0.1-1.8-0.3c-0.7-0.2-1.6-0.6-2.9-1.2c-0.2-0.1-0.5-0.2-0.8-0.3c-0.3-0.1-0.5-0.1-0.7-0.1h-0.3c-0.1,0-0.2,0-0.2-0.1
			c-0.1-0.1-0.1-0.2-0.1-0.3c0-0.2,0.1-0.4,0.2-0.5c0.2-0.2,0.5-0.3,0.8-0.3h0.4c0.1,0,0.1,0,0.1-0.1s-0.1-0.2-0.3-0.4
			c-0.4-0.5-0.7-0.9-0.9-1.3c-0.3-0.6-0.4-1.3-0.4-2c0-0.9,0.2-1.7,0.7-2.5c0.5-0.7,1.2-1.3,2.1-1.7
			C1087.2-121.2,1088-121.4,1088.7-121.4L1088.7-121.4z M1088-119.5c-0.3,0-0.6,0.1-0.8,0.4c-0.2,0.2-0.3,0.6-0.3,1
			c0,0.5,0.1,1,0.2,1.6c0.2,0.6,0.4,1.1,0.6,1.6c0.4,0.7,0.8,1,1.3,1c0.3,0,0.6-0.1,0.9-0.4c0.2-0.2,0.3-0.5,0.3-0.9
			c0-0.5-0.1-1-0.3-1.7c-0.2-0.6-0.4-1.2-0.7-1.7C1089.1-119.1,1088.6-119.4,1088-119.5z M1097.8-118.4v3.6c0,0.8,0.3,1.1,0.8,1.1
			c0.1,0,0.3,0,0.4-0.1l0.3-0.3c0.1-0.2,0.1-0.7,0.1-1.4s0-1.2-0.1-1.5c0-0.1,0-0.2-0.1-0.2c0,0-0.1-0.1-0.3-0.2
			c-0.2-0.1-0.4-0.3-0.4-0.5c0-0.3,0.2-0.5,0.6-0.6c0.8-0.2,1.6-0.3,2.4-0.3c0.4,0,0.7,0.2,0.7,0.7v4c0,0.1,0.1,0.3,0.4,0.4
			c0.2,0.1,0.3,0.3,0.3,0.5c0,0.4-0.5,0.7-1.4,0.9c-0.5,0.1-1.1,0.2-1.6,0.2c-0.2,0-0.4,0-0.4-0.1c-0.1,0-0.1-0.1-0.1-0.3
			c0-0.3-0.1-0.4-0.2-0.4h-0.1c0,0-0.2,0.1-0.4,0.3c-0.4,0.3-0.9,0.5-1.4,0.5c-0.8,0-1.4-0.2-1.8-0.7c-0.3-0.4-0.4-1.1-0.4-2.1v-1.2
			c0-0.4,0-0.7-0.1-0.8c-0.1-0.2-0.2-0.3-0.4-0.4c-0.2-0.1-0.3-0.2-0.3-0.2c0-0.1-0.1-0.1-0.1-0.2c0-0.3,0.3-0.6,0.8-0.7
			c0.9-0.2,1.7-0.3,2.6-0.3C1097.6-118.7,1097.8-118.6,1097.8-118.4L1097.8-118.4z M1106.9-118.3v3.8c0,0.3,0,0.5,0.1,0.7
			c0.1,0.1,0.2,0.3,0.3,0.4s0.2,0.2,0.3,0.2c0,0.1,0.1,0.2,0.1,0.3c0,0.6-0.7,0.8-2.1,0.8c-0.8,0-1.4-0.1-1.8-0.2
			c-0.2,0-0.3-0.1-0.4-0.2c-0.1-0.1-0.1-0.2-0.1-0.4c0-0.1,0-0.2,0.1-0.3c0-0.1,0.2-0.2,0.4-0.3c0.1-0.1,0.2-0.3,0.3-0.5
			s0.1-0.6,0.1-1v-1.5c0-0.2-0.1-0.3-0.4-0.4s-0.4-0.3-0.4-0.5c0-0.3,0.2-0.5,0.5-0.6c0.5-0.2,1-0.3,1.6-0.5c0.6-0.1,1-0.2,1.3-0.2
			C1106.7-118.8,1106.8-118.7,1106.9-118.3L1106.9-118.3z M1105.6-121.2c0.4,0,0.7,0.1,0.9,0.2c0.2,0.1,0.3,0.3,0.3,0.6
			s-0.2,0.6-0.5,0.8c-0.5,0.3-1.2,0.5-1.9,0.5c-0.3,0-0.6-0.1-0.8-0.2c-0.3-0.2-0.4-0.4-0.4-0.7c0-0.4,0.3-0.7,0.8-0.9
			C1104.6-121.2,1105.2-121.2,1105.6-121.2L1105.6-121.2z M1111.8-118.8c0.8,0,1.5,0.2,2.1,0.6s0.8,0.8,0.8,1.4
			c0,0.4-0.1,0.7-0.4,0.9c-0.2,0.2-0.5,0.3-0.9,0.3s-0.6-0.1-0.8-0.4c-0.1-0.1-0.1-0.3-0.3-0.6c-0.1-0.4-0.3-0.6-0.7-0.6
			c-0.2,0-0.4,0.1-0.6,0.3c-0.2,0.2-0.2,0.5-0.2,0.8c0,0.5,0.2,1,0.6,1.4c0.3,0.3,0.7,0.5,1.2,0.5c0.2,0,0.4,0,0.6-0.1
			s0.3-0.1,0.6-0.2h0.2c0.1,0,0.3,0.1,0.4,0.2s0.2,0.3,0.2,0.5s-0.1,0.4-0.2,0.6c-0.1,0.2-0.4,0.4-0.6,0.6c-0.6,0.4-1.2,0.5-2,0.5
			c-0.9,0-1.7-0.3-2.3-0.8c-0.8-0.7-1.2-1.5-1.2-2.5s0.4-1.8,1.1-2.5C1109.8-118.6,1110.8-118.9,1111.8-118.8L1111.8-118.8z
			 M1118.9-120.9l-0.1,2.1v1.7c0,0.2,0.1,0.3,0.3,0.3c0.1,0,0.3-0.1,0.6-0.3c0.3-0.2,0.4-0.3,0.4-0.4c0,0,0-0.1-0.1-0.3
			c-0.1-0.1-0.1-0.2-0.1-0.3c0-0.5,0.6-0.7,1.7-0.7c0.6,0,1.1,0.1,1.4,0.2c0.1,0,0.3,0.1,0.3,0.3c0.1,0.1,0.1,0.2,0.1,0.4
			s-0.1,0.3-0.3,0.4c0,0-0.2,0-0.4,0.1c-0.2,0-0.4,0.2-0.8,0.4c-0.4,0.2-0.5,0.4-0.5,0.4c0,0.1,0.2,0.3,0.6,0.9c0.4,0.6,0.7,1,1,1.3
			l0.5,0.5c0,0,0.3,0.2,0.5,0.3c0.3,0.2,0.5,0.4,0.5,0.6s-0.1,0.4-0.3,0.5c-0.2,0.1-0.5,0.2-0.8,0.2h-2.1c-0.3,0-0.5-0.1-0.6-0.3
			l-1.1-1.4c-0.3-0.4-0.5-0.6-0.5-0.7s-0.1-0.1-0.2-0.1c-0.1,0-0.1,0-0.1,0.1v0.4c0,0.2,0,0.3,0.1,0.4c0,0.1,0.1,0.2,0.3,0.3
			c0.1,0.1,0.2,0.2,0.2,0.4c0,0.3-0.2,0.5-0.5,0.7c-0.3,0.2-0.9,0.2-1.6,0.2c-0.9,0-1.4,0-1.7-0.1c-0.1,0-0.3-0.1-0.4-0.3
			c-0.1-0.1-0.2-0.3-0.2-0.4c0-0.2,0.1-0.3,0.3-0.4c0.2-0.1,0.3-0.2,0.3-0.2s0.1-0.1,0.1-0.3c0.1-0.6,0.1-1.6,0.1-2.8v-1.4
			c0-0.5,0-0.8-0.1-0.9s-0.2-0.2-0.4-0.2c-0.4,0-0.5-0.2-0.5-0.4s0.1-0.3,0.2-0.5c0.2-0.1,0.4-0.3,0.8-0.4c1.1-0.4,2-0.6,2.6-0.6
			C1118.8-121.2,1118.9-121.1,1118.9-120.9L1118.9-120.9z M1133.4-121.4c0.6,0,1.3,0.1,2,0.4c0.9,0.4,1.6,1,2.1,1.9
			c0.5,0.8,0.7,1.7,0.7,2.5c0,1-0.3,1.9-0.9,2.6c-0.3,0.4-0.6,0.7-1,1s-0.8,0.5-1.2,0.6c-0.1,0-0.2,0.1-0.2,0.1
			c0,0.2,0.2,0.3,0.6,0.4c0.4,0.1,0.8,0.2,1.3,0.2c0.3,0,0.6-0.1,0.9-0.2h0.2c0.1,0,0.1,0.1,0.2,0.2c0.1,0.1,0.1,0.2,0.1,0.3
			c0,0.2-0.1,0.5-0.4,0.7c-0.3,0.3-0.7,0.5-1.1,0.6c-0.5,0.1-0.9,0.2-1.4,0.2c-0.6,0-1.2-0.1-1.8-0.3c-0.7-0.2-1.6-0.6-2.9-1.2
			c-0.2-0.1-0.5-0.2-0.8-0.3c-0.3-0.1-0.5-0.1-0.7-0.1h-0.3c-0.1,0-0.2,0-0.2-0.1c-0.1-0.1-0.1-0.2-0.1-0.3c0-0.2,0.1-0.4,0.2-0.5
			c0.2-0.2,0.5-0.3,0.8-0.3h0.4c0.1,0,0.1,0,0.1-0.1s-0.1-0.2-0.3-0.4c-0.4-0.5-0.7-0.9-0.9-1.3c-0.3-0.6-0.4-1.3-0.4-2
			c0-0.9,0.2-1.7,0.7-2.5c0.5-0.7,1.2-1.3,2.1-1.7C1131.9-121.2,1132.7-121.4,1133.4-121.4L1133.4-121.4z M1132.7-119.5
			c-0.3,0-0.6,0.1-0.8,0.4c-0.2,0.2-0.3,0.6-0.3,1c0,0.5,0.1,1,0.2,1.6c0.2,0.6,0.4,1.1,0.6,1.6c0.4,0.7,0.8,1,1.3,1
			c0.3,0,0.6-0.1,0.9-0.4c0.2-0.2,0.3-0.5,0.3-0.9c0-0.5-0.1-1-0.3-1.7c-0.2-0.6-0.4-1.2-0.7-1.7
			C1133.8-119.1,1133.3-119.4,1132.7-119.5z M1142.5-118.4v3.6c0,0.8,0.3,1.1,0.8,1.1c0.1,0,0.3,0,0.4-0.1l0.3-0.3
			c0.1-0.2,0.1-0.7,0.1-1.4s0-1.2-0.1-1.5c0-0.1,0-0.2-0.1-0.2c0,0-0.1-0.1-0.3-0.2c-0.3-0.1-0.4-0.3-0.4-0.5c0-0.3,0.2-0.5,0.6-0.6
			c0.8-0.2,1.6-0.3,2.4-0.3c0.4,0,0.7,0.2,0.7,0.7v4c0,0.1,0.1,0.3,0.4,0.4c0.2,0.1,0.3,0.3,0.3,0.5c0,0.4-0.5,0.7-1.4,0.9
			c-0.5,0.1-1.1,0.2-1.6,0.2c-0.2,0-0.4,0-0.4-0.1c-0.1,0-0.1-0.1-0.1-0.3c0-0.3-0.1-0.4-0.3-0.4h-0.1c0,0-0.2,0.1-0.4,0.3
			c-0.4,0.3-0.9,0.5-1.4,0.5c-0.8,0-1.4-0.2-1.8-0.7c-0.3-0.4-0.4-1.1-0.4-2.1v-1.2c0-0.4,0-0.7-0.1-0.8c-0.1-0.2-0.2-0.3-0.4-0.4
			c-0.2-0.1-0.3-0.2-0.3-0.2c0-0.1-0.1-0.1-0.1-0.2c0-0.3,0.3-0.6,0.8-0.7c0.9-0.2,1.7-0.3,2.6-0.3
			C1142.3-118.7,1142.5-118.6,1142.5-118.4L1142.5-118.4z M1151.7-118.8c0.8,0,1.4,0.2,1.9,0.6c0.3,0.2,0.5,0.4,0.6,0.7
			c0.1,0.3,0.2,0.6,0.2,1.1v1c0,0.7,0,1.1,0.1,1.3c0,0.1,0.1,0.2,0.1,0.2s0.1,0,0.3,0.1c0.1,0,0.2,0.1,0.2,0.3
			c0,0.2-0.1,0.4-0.3,0.7c-0.2,0.2-0.4,0.4-0.7,0.6c-0.3,0.2-0.7,0.3-1,0.3c-0.5,0-0.8-0.2-1.1-0.5c-0.1-0.1-0.2-0.2-0.3-0.2
			s-0.2,0.1-0.3,0.2c-0.4,0.3-0.9,0.5-1.5,0.5s-1-0.1-1.4-0.4l-0.6-0.6c0,0-0.2-0.5-0.2-0.8c0-0.5,0.2-0.9,0.6-1.2
			c0.6-0.6,1.4-0.8,2.6-0.8c0.3,0,0.4,0,0.5-0.1s0.1-0.2,0.1-0.4c0-0.5,0-0.8-0.1-1s-0.3-0.3-0.5-0.3c-0.1,0-0.2,0-0.4,0.1l-0.4,0.4
			c-0.4,0.6-0.8,0.8-1.2,0.8c-0.2,0-0.4-0.1-0.5-0.2s-0.2-0.3-0.2-0.5s0.1-0.4,0.3-0.6c0.2-0.2,0.4-0.4,0.7-0.6
			C1149.9-118.6,1150.8-118.8,1151.7-118.8L1151.7-118.8z M1151.3-115c-0.2,0-0.4,0.1-0.5,0.2c-0.1,0.2-0.2,0.3-0.2,0.6
			c0,0.2,0.1,0.4,0.2,0.5c0.1,0.1,0.2,0.2,0.4,0.2c0.4,0,0.5-0.3,0.5-0.9c0-0.2,0-0.4-0.1-0.5C1151.5-114.9,1151.4-115,1151.3-115
			L1151.3-115z M1159.4-118.8c0.8,0,1.5,0.2,2.1,0.6s0.8,0.8,0.8,1.4c0,0.4-0.1,0.7-0.4,0.9c-0.2,0.2-0.5,0.3-0.9,0.3
			s-0.6-0.1-0.8-0.4c-0.1-0.1-0.1-0.3-0.3-0.6c-0.1-0.4-0.3-0.6-0.7-0.6c-0.2,0-0.4,0.1-0.6,0.3c-0.2,0.2-0.2,0.5-0.2,0.8
			c0,0.5,0.2,1,0.6,1.4c0.3,0.3,0.7,0.5,1.2,0.5c0.2,0,0.4,0,0.6-0.1s0.3-0.1,0.6-0.2h0.2c0.1,0,0.3,0.1,0.4,0.2s0.2,0.3,0.2,0.5
			s-0.1,0.4-0.2,0.6c-0.1,0.2-0.4,0.4-0.6,0.6c-0.6,0.4-1.2,0.5-2,0.5c-0.9,0-1.7-0.3-2.3-0.8c-0.8-0.7-1.2-1.5-1.2-2.5
			s0.4-1.8,1.1-2.5C1157.3-118.6,1158.3-118.9,1159.4-118.8L1159.4-118.8z M1166.4-120.9l-0.1,2.1v1.7c0,0.2,0.1,0.3,0.3,0.3
			c0.1,0,0.3-0.1,0.6-0.3c0.3-0.2,0.4-0.3,0.4-0.4c0,0,0-0.1-0.1-0.3c-0.1-0.1-0.1-0.2-0.1-0.3c0-0.5,0.6-0.7,1.7-0.7
			c0.6,0,1.1,0.1,1.4,0.2c0.1,0,0.3,0.1,0.3,0.3c0.1,0.1,0.1,0.2,0.1,0.4s-0.1,0.3-0.3,0.4c0,0-0.2,0-0.4,0.1
			c-0.2,0-0.4,0.2-0.8,0.4c-0.4,0.2-0.5,0.4-0.5,0.4c0,0.1,0.2,0.3,0.6,0.9c0.4,0.6,0.7,1,1,1.3l0.5,0.5c0,0,0.3,0.2,0.5,0.3
			c0.3,0.2,0.5,0.4,0.5,0.6s-0.1,0.4-0.3,0.5c-0.2,0.1-0.5,0.2-0.8,0.2h-2.1c-0.3,0-0.5-0.1-0.6-0.3l-1.1-1.4
			c-0.3-0.4-0.5-0.6-0.5-0.7s-0.1-0.1-0.2-0.1c-0.1,0-0.1,0-0.1,0.1v0.4c0,0.2,0,0.3,0.1,0.4c0,0.1,0.1,0.2,0.3,0.3
			c0.1,0.1,0.2,0.2,0.2,0.4c0,0.3-0.2,0.5-0.5,0.7c-0.3,0.2-0.9,0.2-1.6,0.2c-0.9,0-1.4,0-1.7-0.1c-0.1,0-0.3-0.1-0.4-0.3
			c-0.1-0.1-0.2-0.3-0.2-0.4c0-0.2,0.1-0.3,0.3-0.4c0.2-0.1,0.3-0.2,0.3-0.2s0.1-0.1,0.1-0.3c0.1-0.6,0.1-1.6,0.1-2.8v-1.4
			c0-0.5,0-0.8-0.1-0.9s-0.2-0.2-0.4-0.2c-0.4,0-0.5-0.2-0.5-0.4s0.1-0.3,0.2-0.5c0.2-0.1,0.4-0.3,0.8-0.4c1.1-0.4,2-0.6,2.6-0.6
			C1166.3-121.2,1166.4-121.1,1166.4-120.9L1166.4-120.9z"/>
		<path fill="#FFFFFF" d="M1082.7-91l3-14.9c0-1.5,1.1-2.6,2.6-2.6h-1.7c-1.5,0-2.6,1.1-2.6,2.6l-3,14.9c0,1.5,1.1,2.6,2.6,2.6h1.7
			C1084.1-88.4,1082.7-89.5,1082.7-91z"/>
		<path fill="#FFFFFF" d="M1079.2-91l3-14.9c0-1.5,1.1-2.6,2.6-2.6h-1.7c-1.5,0-2.6,1.1-2.6,2.6l-3,14.9c0,1.5,1.1,2.6,2.6,2.6h1.7
			C1080.3-88.4,1079.2-89.5,1079.2-91z"/>
		<path fill="#FFFFFF" d="M1116.8-101.4h-1.7l-0.4,2.3h1.7c0.6,0,1.1-0.4,1.1-1.1C1117.8-101,1117.6-101.4,1116.8-101.4
			L1116.8-101.4z M1142.8-101v-0.4h-0.2c-0.2,0.8-0.4,1.7-0.8,2.4l-0.9,2.1h1.9l-0.2-2.1C1142.6-99.7,1142.6-100.4,1142.8-101z
			 M1106.6-101v-0.4h-0.2c-0.2,0.8-0.4,1.7-0.8,2.4l-0.9,2.1h1.9l-0.2-2.1C1106.5-99.7,1106.5-100.4,1106.6-101z"/>
		<path fill="#FFFFFF" d="M1171.6-108.5h-82.3c-1.1,0-2.1,1.1-2.1,2.6l-2.4,14.9c0,1.5,0.9,2.6,2.1,2.6h82.3c1.1,0,2.1-1.1,2.1-2.6
			l2.4-14.9C1173.7-107.4,1172.7-108.5,1171.6-108.5z M1095.3-91.8c-1.5,0-2.4-0.4-3.2-1.3c-0.8-0.9-0.9-2.1-0.8-3.8l0.6-3.2
			c0.4-3,2.4-4.7,5.3-4.7c2.3,0,3.4,1.1,3.8,3.2c0.2,0.6,0,0.8-0.6,0.9l-1.5,0.6c-0.6,0.2-0.6,0-0.8-0.6c-0.2-0.8-0.6-1.1-1.3-1.1
			c-1.1,0-1.7,0.6-1.9,1.9l-0.6,3.2c-0.2,1.3,0.2,1.9,1.3,1.9c0.8,0,1.3-0.4,1.7-1.1c0.4-0.6,0.4-0.8,0.9-0.6l1.5,0.8
			c0.4,0.2,0.6,0.6,0.2,0.9C1099.3-92.7,1097.8-91.8,1095.3-91.8L1095.3-91.8z M1109.8-92h-1.5c-0.8,0-0.9-0.2-0.9-0.8l-0.2-1.3
			h-3.2l-0.6,1.3c-0.2,0.6-0.6,0.8-1.1,0.8h-1.7c-0.4,0-0.6-0.2-0.4-0.8l5.1-11.1c0.2-0.6,0.4-0.6,0.9-0.6h1.7
			c0.4,0,0.6,0.2,0.8,0.6l1.9,11.1C1110.4-92.3,1110.2-92,1109.8-92z M1120.8-100.1c-0.2,1.7-0.9,2.8-2.1,3.4c0,0.2,0.2,0.4,0.4,0.8
			l0.9,3c0.2,0.6,0,0.9-0.6,0.9h-1.7c-0.8,0-1.1-0.2-1.3-0.8l-0.6-2.4c-0.2-0.8-0.4-0.9-0.9-0.9h-0.3l-0.6,3.4
			c-0.2,0.6-0.2,0.8-0.8,0.8h-1.7c-0.6,0-0.6-0.2-0.6-0.8l1.7-10.9c0.2-0.6,0.2-0.8,0.8-0.8h4.3
			C1120-104.6,1121.1-102.9,1120.8-100.1L1120.8-100.1z M1133.4-92h-1.9c-0.4,0-0.8-0.2-0.8-0.6l-0.2-4.1c0-1.1,0-2.1,0.2-3.2h-0.1
			c-0.2,1.1-0.4,2.1-0.8,3.2l-1.5,4.1c-0.2,0.6-0.4,0.6-0.9,0.6h-1.9c-0.4,0-0.8-0.2-0.8-0.6l-0.6-11.1c0-0.6,0-0.8,0.6-0.8h1.9
			c0.6,0,0.8,0.2,0.8,0.6v4.5c0,0.9-0.2,2.1-0.2,3.2h0.2c0.2-1.1,0.4-2.3,0.8-3.2l1.7-4.5c0.2-0.6,0.4-0.6,0.9-0.6h1.7
			c0.6,0,0.8,0.2,0.8,0.6l0.2,4.5c0,0.8,0,1.9-0.2,3.2h0.2c0.2-0.9,0.4-1.9,0.8-3.2l1.3-4.5c0.2-0.6,0.4-0.6,0.9-0.6h1.7
			c0.4,0,0.6,0.2,0.4,0.8l-4,11.1C1134.1-92.2,1133.8-92,1133.4-92L1133.4-92z M1146-92h-1.5c-0.8,0-0.9-0.2-0.9-0.8l-0.2-1.3h-3.2
			l-0.6,1.3c-0.2,0.6-0.6,0.8-1.1,0.8h-1.9c-0.4,0-0.6-0.2-0.4-0.8l5.1-11.1c0.2-0.6,0.4-0.6,0.9-0.6h1.9c0.4,0,0.6,0.2,0.8,0.6
			l1.9,11.1C1146.6-92.3,1146.3-92,1146-92z M1152.6-99.9c1.7,0.4,4,1.1,3.4,4.3c-0.4,2.4-2.1,3.8-5.1,3.8c-2.3,0-3.8-0.9-4.1-2.6
			c0-0.6,0.2-0.8,0.6-0.9l1.5-0.6c0.6-0.2,0.8-0.2,0.8,0.4c0.2,0.6,0.8,0.9,1.5,0.9c1.1,0,1.7-0.4,1.7-0.9c0.2-0.6-0.4-0.8-1.7-1.1
			c-0.8-0.2-1.3-0.2-2.1-0.8c-0.4-0.2-0.8-0.4-0.9-0.8c-0.4-0.6-0.8-1.7-0.6-3c0.4-2.3,2.1-3.6,4.9-3.6c2.1,0,3.2,0.9,3.8,2.6
			c0.2,0.6,0,0.8-0.4,0.9l-1.5,0.8c-0.4,0.2-0.6,0.2-0.8-0.4c-0.2-0.6-0.6-0.9-1.3-0.9c-0.9,0-1.5,0.4-1.5,0.9
			C1150.7-100.2,1151.3-100.2,1152.6-99.9L1152.6-99.9z M1167.1-103.8l-1.7,10.9c-0.2,0.6-0.2,0.8-0.8,0.8h-1.7
			c-0.6,0-0.6-0.2-0.6-0.8l0.6-4h-3l-0.6,4c0,0.6-0.2,0.8-0.8,0.8h-1.7c-0.6,0-0.6-0.2-0.6-0.8l1.7-10.9c0.2-0.6,0.2-0.8,0.8-0.8
			h1.7c0.6,0,0.6,0.2,0.6,0.8l-0.6,4h3l0.6-4c0-0.6,0.4-0.8,0.8-0.8h1.7C1167.1-104.6,1167.3-104.4,1167.1-103.8z"/>
	</a>
	<a>
		<path fill="#473056" stroke="#FFFFFF" stroke-width="1.8" stroke-miterlimit="10" stroke-opacity="0.5" d="M949.4-10.7L848.6-68.9
			v-116.4l100.8-58.2l100.8,58.2v116.4L949.4-10.7z"/>
		<path fill="#FFFFFF" d="M883.4-138.4c1.1,0,2.6-0.3,3.1-0.5v4.6h-0.3v-0.3c0-1.6-1-2.7-2.6-2.7h-3.5v15.5c0,0.9,0.8,1.6,1.7,1.6
			h0.3v0.3h-8v-0.3h0.3c0.9,0,1.6-0.7,1.7-1.6v-15.5h-5.2c-2.9,0-4.6,2.2-2.9,4.9l-0.3,0.1c-2.7-2.7-0.8-6.2,3.2-6.2h12.5V-138.4z
			 M910.5-137.8c0.9-3.3,3.7-7.5,9.2-7v0.3c-4.3,0.3-6.3,3.8-7.3,6.7l-5,15.5c0,0-0.5,1.6-0.5,2.9h-0.2l-5.7-12.7l-4.7,11.1
			c-1,2.6-3.9,6.6-7.9,5.7v-0.3c3.4-0.2,5.6-4.2,6.5-6.4l-5.4-14.6c-0.5-1.1-1.5-1.5-2.3-1.5h-0.2v-0.3h8v0.3h-0.2
			c-0.7,0-1.4,0.6-1,1.7l3.2,9.1l4.8-11.5h0.2l5.2,11.6L910.5-137.8L910.5-137.8z"/>
		<path fill="#FFFFFF" d="M936.6-115.1c-4.6,2.3-10.3,0-13.3-7.8l-0.8-2.2h-6.3l-1.4,3.3c-0.4,1.1,0.3,1.7,1,1.7h0.2v0.3h-5.7v-0.3
			h0.2c0.7,0,1.6-0.4,2.2-1.4l5.9-13.4c-1.1-2.6-2.8-4.7-5.7-3.7l-0.1-0.3c5.4-2.8,8.5,0.7,10.5,5.5l3.8,9.4
			c1.7,4.3,4.5,9.8,9.3,8.7L936.6-115.1L936.6-115.1z M922.1-126.2l-1.8-4.9c-0.2-0.6-0.4-1.2-0.7-1.9l-2.8,6.8H922.1z"/>
		<path fill="#FFFFFF" d="M927.1-133.4c0.9-3.6,3.7-5,8.1-5h6c6.2,0,10.1,3.5,10.1,9.2s-3.9,9.2-10.1,9.2h-9.6v-0.3h0.3
			c0.9,0,1.6-0.7,1.7-1.6v-15.4c-4.1,0.3-5.4,2-6.3,3.9L927.1-133.4L927.1-133.4z M937.6-121h3.3c3.8,0,6.1-3.1,6.1-8.1
			s-2.4-8.1-6.1-8.1h-3.3V-121z M979.1-117.1c-5.3,7.4-14.5,1.4-19.8-1.1c-1.7-0.8-3.7-1.7-6.3-1.7v-0.3h0.3c0.9,0,1.7-0.7,1.7-1.7
			v-14.6c0-0.9-0.8-1.7-1.7-1.7H953v-0.3h8v0.3h-0.3c-1,0-1.7,0.7-1.8,1.7v15.3c0,0.9,0.3,1.4,1.1,1.7c8.4,2.7,15.2,4.4,18.8,2.2
			L979.1-117.1z"/>
		<path fill="#FFFFFF" d="M971.7-131.7c-1.2-2.7-0.1-6.6,4.4-7c4.7-0.5,10.6,2.9,10.6,9.4c0,5.9-4.7,9.8-11.4,9.8
			c-6.8,0-11.5-3.9-11.5-9.7c0-4.4,2.7-7.8,6.9-9l0.2,0.3c-1.9,1.6-2.7,4.8-2.7,8c0,5.8,2.9,9.3,7.2,9.3c4.2,0,7.1-3.4,7.1-8.7
			c0-4.7-2.3-8.5-6.3-8.3c-3.4,0.2-4.8,3.2-4.1,5.9L971.7-131.7L971.7-131.7z M1009.5-130.2c0.7,7-3.3,10.7-9.1,10.7
			c-7.3,0-11.6-4-11.6-9.5c0-5.7,4.6-9.7,11.5-9.7c2.8,0,5.2,0.6,6.8,1.4l0.1,4.5h-0.2c-1-3.5-3.7-4.8-6.5-4.8
			c-4.5,0-7.3,3.4-7.3,8.3c0,5,2.8,8.5,7.7,8.6c5,0,8.6-3.4,8.4-9.6L1009.5-130.2L1009.5-130.2z M1016.9-121.8
			c0,0.9,0.8,1.7,1.7,1.7h0.3v0.3h-8v-0.3h0.3c0.9,0,1.7-0.7,1.7-1.7v-14.6c0-0.9-0.8-1.6-1.7-1.6h-0.3v-0.3h8v0.3h-0.3
			c-0.9,0-1.7,0.7-1.7,1.6V-121.8z M1037.4-115.4c-4.3,2.2-8.4,0.8-12.7-4.6l-7-8.5l6.3-8.3c0.4-0.6,0.1-1.3-0.6-1.3h-0.3v-0.2h6
			v0.2h-0.1c-1.2,0-2.2,0.5-2.9,1.3l-5.1,6.1l7.2,8.9c3.2,4.2,5.7,6,9.2,6.2V-115.4L1037.4-115.4z"/>
	</a>
	<a>
		<path fill="#57B16D" stroke="#FFFFFF" stroke-width="1.8" stroke-miterlimit="10" stroke-opacity="0.5" d="M736.9-10.6L636.1-68.8
			v-116.5l100.8-58.2l100.8,58.2v116.5L736.9-10.6z"/>
		<g id="Layer_1">
			<g>
				<path fill="#FFFFFF" d="M719.2-132c-4.1-0.3-7.5-0.8-7.5-2.8c0-0.5,0.2-1,0.6-1.4c1.3-1.2,4-1.7,6.2-1.6c3,0,5.6,0.9,7.3,2.6
					l0.2,0.1l2.1-1.8l-0.2-0.2c-2.4-2.1-5.8-3.3-9.4-3.3c-2.5,0-4.8,0.5-6.5,1.4c-1.9,1-2.9,2.5-2.9,4.2c0,1.9,1,4.5,9.7,5.3
					c5,0.4,7.4,1,7.4,2.9c0,2.1-2.5,3.4-6.7,3.4c-3.6,0-6.5-1.1-9.1-3.3l-0.2-0.1l-1.8,2l0.2,0.2c2.8,2.4,6.6,3.8,10.8,3.8
					c5.8,0,9.5-2.4,9.5-6C728.8-130.7,724.2-131.6,719.2-132z"/>
				<path fill="#FFFFFF" d="M778.1-138.1c3.3,0,5.7,1.2,7,3.4l0.1,0.2l2.5-1.2l-0.1-0.2c-1.9-2.9-5.2-4.6-9.4-4.6
					c-6.9,0-11.2,3.8-11.2,9.8c0,6.1,4.3,9.8,11.1,9.8c4.3,0,7.6-1.6,9.5-4.6l0.1-0.2l-2.5-1.2l-0.1,0.2c-1.3,2.2-3.7,3.4-7,3.4
					c-5.4,0-8.5-2.7-8.5-7.4C769.5-135.5,772.6-138.1,778.1-138.1z"/>
				<polygon fill="#FFFFFF" points="801.2,-132.7 810.6,-140.1 806.8,-140.1 793.3,-129.7 793.3,-140.1 790.6,-140.1 790.6,-121.5 
					793.3,-121.5 793.3,-126.6 799.1,-131.1 807.6,-121.5 811,-121.5 				"/>
				<polygon fill="#FFFFFF" points="730.1,-140.1 730.1,-137.7 738.7,-137.7 738.7,-121.5 741.3,-121.5 741.3,-137.7 748.7,-137.7 
					750,-140.1 				"/>
				<polygon fill="#FFFFFF" points="753.7,-140.1 759.9,-128.8 750.2,-128.8 749,-126.4 761.2,-126.4 763.9,-121.5 766.9,-121.5 
					756.6,-140.1 				"/>
				<path fill="#FFFFFF" d="M672.7-120.3c6.2,0,10-3.6,10-9.5v-10h-2.9v9.8c0,4.3-2.6,6.8-7,6.8c-4.5,0-7-2.5-7-6.8v-9.8h-2.9v10
					C662.7-124,666.6-120.3,672.7-120.3z"/>
				<polygon fill="#FFFFFF" points="662.9,-113.6 703.9,-113.6 703.9,-116.3 662.9,-116.3 				"/>
				<path fill="#FFFFFF" d="M698.5-139.8H686v2.8h12.4c2.9,0,4.5,1.2,4.5,3.4s-1.6,3.4-4.5,3.4H686v9.4h2.9v-6.6h9.6
					c4.5,0,7.3-2.4,7.3-6.2C705.9-137.5,703.1-139.8,698.5-139.8z"/>
			</g>
		</g>
	</a>
</g>
<g id="dots">
	<circle id="XMLID_39_" fill="#FFFFFF" cx="1601.6" cy="-188.2" r="13.1">
	
		<animate  fill="remove" values=".25;.25;1;.25;.25" attributeName="fill-opacity" dur="2.5s" additive="replace" begin="0s" calcMode="linear" restart="always" accumulate="none" attributeType="XML" xlink:href="#XMLID_39_" xmlns:xlink="http://www.w3.org/1999/xlink" repeatCount="indefinite">
		</animate>
	</circle>
	<circle id="XMLID_40_" opacity="0.2" fill="#FFFFFF" enable-background="new    " cx="1556.6" cy="-188.2" r="13.1"/>
	<circle id="XMLID_41_" opacity="0.2" fill="#FFFFFF" enable-background="new    " cx="1601.6" cy="-143.2" r="13.1"/>
	<circle id="XMLID_36_" opacity="0.2" fill="#FFFFFF" enable-background="new    " cx="1524.3" cy="196.4" r="10.7"/>
	<circle id="XMLID_43_" opacity="0.2" fill="#FFFFFF" enable-background="new    " cx="446.3" cy="518.4" r="10.7"/>
	<circle id="XMLID_44_" opacity="0.2" fill="#FFFFFF" enable-background="new    " cx="479.3" cy="518.4" r="10.7"/>
	<circle id="XMLID_45_" opacity="0.2" fill="#FFFFFF" enable-background="new    " cx="446.3" cy="486.4" r="10.7"/>
</g>
<g id="lines">
	
		<path id="XMLID_22_" opacity="0.2" fill="none" stroke="#FFFFFF" stroke-width="3" stroke-miterlimit="10" enable-background="new    " d="
		M583.4-247.8l84.3-0.2v-43.6h494v49.5"/>
	
		<path id="XMLID_25_" opacity="0.2" fill="none" stroke="#FFFFFF" stroke-width="3" stroke-miterlimit="10" enable-background="new    " d="
		M583.2-197.6h40.7l-0.2,315h-225v436h657v-10.5"/>
	
		<path id="XMLID_32_" opacity="0.2" fill="none" stroke="#FFFFFF" stroke-width="3" stroke-miterlimit="10" enable-background="new    " d="
		M583.2-146.6h18.5v196h141.5"/>
	
		<path id="XMLID_42_" opacity="0.2" fill="none" stroke="#FFFFFF" stroke-width="3" stroke-miterlimit="10" enable-background="new    " d="
		M583.2-94.6h27.5v159h-199v508h934v-38h60v39h201v-341h-27v60h-34v-119h-42v64h-30.5"/>
	
		<path id="XMLID_26_" opacity="0.2" fill="none" stroke="#FFFFFF" stroke-width="3" stroke-miterlimit="10" enable-background="new    " d="
		M583.2-43.6h9.5v-223h887v208.5"/>
	
		<path id="XMLID_37_" opacity="0.2" fill="none" stroke="#FFFFFF" stroke-width="3" stroke-miterlimit="10" enable-background="new    " d="
		M583.2,8.4h7.5v82h-66v35.5"/>
</g>
</svg>
