<svg xmlns="http://www.w3.org/2000/svg" viewBox="-265 178.1 66.9 16.5"><path fill="#4A89BD" d="M-254 182h2.2l-2.6 9h-2.3l-1.7-5.5-1.7 5.5h-2.3l-2.6-9h2.5l1.5 5.5 1.6-5.5h2.2l1.6 5.5 1.6-5.5z"/><path fill="#4A89BD" d="M-245.3 181.7c1 0 1.8.3 2.4 1 .6.7 1 1.6 1 2.7v5.5h-2.3v-5.2c0-.6-.2-1.1-.5-1.4-.3-.3-.8-.5-1.3-.5-.6 0-1.1.2-1.4.6-.4.4-.5.9-.5 1.7v4.9h-2.3v-12.6h2.3v4.6c.5-.9 1.4-1.3 2.6-1.3z"/><path fill="#4A89BD" d="M-232.2 189.8c-.9.9-2.1 1.4-3.4 1.4s-2.5-.5-3.4-1.4-1.4-2-1.4-3.4c0-1.3.5-2.5 1.4-3.4s2-1.4 3.4-1.4 2.5.5 3.4 1.4c.9.9 1.4 2 1.4 3.4s-.5 2.5-1.4 3.4zm-5.1-1.6c.5.5 1 .7 1.7.7s1.3-.2 1.7-.7c.5-.5.7-1.1.7-1.8s-.2-1.3-.7-1.8c-.5-.5-1-.7-1.7-.7s-1.3.2-1.7.7-.7 1.1-.7 1.8.2 1.4.7 1.8z"/><path fill="#232323" d="M-230.1 191v-1.9l4.3-4.4c1-1 1.4-1.8 1.4-2.5 0-.5-.2-.9-.5-1.2-.3-.3-.7-.5-1.2-.5-.9 0-1.6.5-2.1 1.5l-2.1-1.2c.4-.9 1-1.5 1.7-2s1.6-.7 2.4-.7c1.1 0 2.1.4 2.9 1.1.8.7 1.2 1.7 1.2 2.9 0 1.3-.7 2.6-2.1 4l-2.5 2.5h4.7v2.4h-8.1z"/><path fill="#4A89BD" d="M-214.9 184.2h-2v3.7c0 .3.1.5.2.7.2.1.4.2.7.2h1.1v2.1c-1.6.2-2.7 0-3.4-.5-.7-.5-1-1.3-1-2.6v-3.7h-1.6V182h1.6v-1.8l2.3-.7v2.5h2v2.2z"/><path fill="#4A89BD" d="M-210.7 183.5c.2-.6.6-1 1.1-1.3.5-.3 1.1-.4 1.7-.4v2.6c-.7-.1-1.3.1-1.9.4-.6.4-.8 1-.8 1.9v4.3h-2.3v-9h2.3v1.5z"/><path fill="#4A89BD" d="M-200.6 182h2.5l-3.3 9c-.5 1.3-1.1 2.2-1.9 2.8-.8.6-1.7.8-2.9.8v-2.2c.6 0 1.1-.1 1.5-.4.4-.3.7-.7.9-1.3l-3.7-8.7h2.5l2.3 6 2.1-6z"/></svg>