<svg xmlns="http://www.w3.org/2000/svg" viewBox="-277 207.7 84.5 66.3"><g fill="#161616"><path d="M-269.7 271.4c0 1.6-1.4 2.6-3.5 2.6h-3.4c-.2 0-.3-.2-.3-.4v-7.7c0-.2.1-.3.3-.3h3.3c2 0 3.3.9 3.3 2.4 0 .7-.3 1.3-.9 1.6.7.2 1.2.9 1.2 1.8zm-5.3-4.4v2h1.8c.7 0 1.2-.4 1.2-1s-.5-1-1.3-1h-1.7zm3.4 4.4c0-.7-.6-1-1.5-1h-1.8v2.2h1.8c.9 0 1.5-.5 1.5-1.2z"/><path d="M-261.6 272.8l-.1 1c0 .1-.1.2-.2.2H-267.7c-.2 0-.3-.1-.3-.3v-7.8c0-.2.1-.3.3-.3h5.5c.1 0 .2.1.2.2l.1 1c0 .2-.1.3-.3.3h-3.8v1.8h3.1c.1 0 .2.1.2.2v1.2c0 .1-.1.2-.2.2h-3.1v1.9h4.2c.1 0 .3.2.2.4z"/><path d="M-252.6 274l-1.2.1c-.2 0-.4-.1-.4-.3l-.6-1.5h-3.6l-.5 1.4c-.1.2-.2.3-.4.3h-1.2c-.3 0-.4-.2-.3-.4l2.9-7.7c.1-.2.2-.3.4-.3h1.6c.2 0 .4.1.5.3l3 7.7c.2.2 0 .3-.2.4zm-2.7-3.2l-1.3-3.4-1.2 3.4h2.5z"/><path d="M-244.8 265.8v1.2c0 .1-.1.2-.2.2h-2.9v6.6c0 .1-.1.2-.2.2h-1.5c-.1 0-.2-.1-.2-.2v-6.6h-2.8c-.2 0-.3-.1-.3-.4l.1-1.1c0-.1.1-.2.2-.2h7.6c.1 0 .2.1.2.3z"/></g><g fill="#161616"><path d="M-235.9 265.6v.1s0 .1-.1.1h-3.8v8.1s0 .1-.1.1h-.1s-.1 0-.1-.1v-8.1h-3.7c-.1 0-.1 0-.1-.1v-.1c0-.1.1-.1.1-.1h4l3.9.1c-.1-.1 0 0 0 0z"/><path d="M-227.4 265.6v8.3s0 .1-.1.1h-.1s-.1 0-.1-.1v-4h-6.4v4s0 .1-.1.1h-.1s-.1 0-.1-.1v-8.3s0-.1.1-.1h.1s.1 0 .1.1v4.1h6.4v-4.1s0-.1.1-.1l.2.1c0-.1 0 0 0 0z"/><path d="M-218.1 274h-.1s-.1 0-.1-.1l-1.9-3.5c-.4.1-.9.1-1.4.1h-2.4v3.3s0 .1-.1.1h-.1s-.1 0-.1-.1v-8.3c0-.1 0-.1.1-.1h2.8c2 0 3.2.7 3.2 2.5 0 1.3-.7 2-1.8 2.3l1.9 3.8c.1 0 .1 0 0 0zm-3.5-3.7c2 0 3.2-.7 3.2-2.3 0-1.6-1.1-2.2-2.9-2.2h-2.7v4.5h2.4z"/><path d="M-209.8 273.8v.1s0 .1-.1.1h-5.8c-.1 0-.1-.1-.1-.1v-8.2c0-.1.1-.1.1-.1h5.4s.1 0 .1.1v.1c0 .1 0 .1-.1.1h-5.3v3.8h4.4s.1 0 .1.1v.1s0 .1-.1.1h-4.4v3.9l5.8-.1c0-.1 0 0 0 0z"/><path d="M-201.5 274c-.1 0-.1 0-.2-.1l-1.1-2.4h-5.1l-1.1 2.4-.1.1h-.1c-.1 0-.1-.1-.1-.1l3.7-8.2c0-.1.1-.1.1-.1h.1c.1 0 .1 0 .1.1l3.7 8.2c.2 0 .2.1.1.1zm-1.4-2.7l-2.5-5.4-2.4 5.4h4.9z"/><path d="M-199.8 274c-.1 0-.1-.1-.1-.1v-8.2s0-.1.1-.1h2.7c2.8 0 4.5 1.7 4.5 4.3 0 2.7-1.6 4.1-4.8 4.1h-2.4zm2.5-.3c3 0 4.5-1.3 4.5-3.9 0-2.5-1.6-4-4.2-4.1h-2.6v7.9l2.3.1z"/></g><path fill="#2BB673" d="M-213.1 233.4c-.7-10.7-9.4-19.5-20.1-20.4-4.3-.4-8.6.5-12.3 2.5l-8.4-7.4c-.6-.5-1.4-.6-2.1-.3-.7.3-1.1 1-1.1 1.8v25.8c.1 5.8 2.4 11.2 6.6 15.3 4.1 4.1 9.6 6.3 15.5 6.3 6.1 0 12-2.6 16.1-7 4.2-4.5 6.3-10.4 5.8-16.6zm-6.7 15.8c-3.9 4.2-9.5 6.6-15.2 6.6-5.5 0-10.7-2.1-14.6-6-3.7-3.7-5.9-8.6-6.2-13.8h5.9c1.1 0 1.9-.7 1.9-1.7v-2.5c0-.2.3-.5.8-.5.4 0 .8.2.8.5v9.7c0 .9.9 1.7 1.9 1.7 1.1 0 1.9-.7 1.9-1.7v-12.1c0-.2.3-.5.8-.5.4 0 .8.2.8.5v13.3c0 .9.9 1.7 1.9 1.7 1.1 0 1.9-.7 1.9-1.7V226c0-.2.3-.5.8-.5.4 0 .8.2.8.5v15.4c0 .9.9 1.7 1.9 1.7 1.1 0 1.9-.7 1.9-1.7v-13.3c0-.2.3-.5.8-.5.4 0 .8.2.8.5v13.3c0 .9.9 1.7 1.9 1.7s1.9-.7 1.9-1.7v-12.1c0-.2.3-.5.8-.5s.8.2.8.5v9.7c0 .9.9 1.7 1.9 1.7 1.1 0 1.9-.7 1.9-1.7v-2.5c0-.2.3-.5.8-.5h5.8c-.1 4.9-2 9.5-5.4 13.2zm-2.2-12.8v2.5c0 .2-.3.5-.8.5-.4 0-.8-.2-.8-.5v-9.7c0-.9-.9-1.7-1.9-1.7s-1.9.7-1.9 1.7v12.1c0 .2-.3.5-.8.5-.4 0-.8-.2-.8-.5V228c0-.9-.9-1.7-1.9-1.7-1.1 0-1.9.7-1.9 1.7v13.3c0 .2-.3.5-.8.5-.4 0-.8-.2-.8-.5V226c0-.9-.9-1.7-1.9-1.7-1.1 0-1.9.7-1.9 1.7v16.6c0 .2-.3.5-.8.5s-.8-.2-.8-.5v-13.3c0-.9-.9-1.7-1.9-1.7-1.1 0-1.9.7-1.9 1.7v12.1c0 .2-.3.5-.8.5s-.8-.2-.8-.5v-9.7c0-.9-.9-1.7-1.9-1.7-1.1 0-1.9.7-1.9 1.7v2.5c0 .2-.3.5-.8.5h-6v-25.1c0-.3.2-.6.4-.7.3-.1.6-.1.8.1l8.7 7.6c.2.2.5.2.7.1 3.6-2 7.8-2.9 12-2.6 10.1.8 18.3 9.1 19 19.3v1.3h-5.8c-1.1.1-2 .8-2 1.7z"/></svg>