<svg version="1.1" id="Слой_1" xmlns="http://www.w3.org/2000/svg" xmlns:xlink="http://www.w3.org/1999/xlink" x="0px" y="0px"
	 viewBox="-124.3 114.2 50.5 45" enable-background="new -124.3 114.2 50.5 45" xml:space="preserve">
<g id="Layer_2">
</g>
<g id="XMLID_2_">
	<path id="XMLID_34_" fill="#111111" d="M-78.7,135.1L-78.7,135.1l-7.7-4l-0.5,0.6c-0.1,0.1-0.9,0.7-2.9,1.1
		c-1.6,0.3-4.2-0.2-8.5-8.1c-1.2-2.2-2.5-4-3.7-5.5c0.1,1,0.1,2.1,0,3.1c-0.2,1.8-1,4.4-2,7.2c0.5,0.5,1.1,1.2,1.8,2.2
		c1.3,1.8,2.4,3.9,3.2,5.4l0.2,0.4c0.8,1.4,2,2.3,3.7,2.7c0.5,0.1,0.9,0.1,1.3,0.1c0.4,0,0.7,0,0.9-0.1l14.6-1.2l0.2-0.2
		c0.5-0.4,0.6-1.2,0.6-1.7C-77.5,136-78.5,135.2-78.7,135.1z"/>
	<path id="XMLID_95_" fill="#19A160" d="M-104.3,118.3c-0.4-1.1-1.7-4.1-5.5-4.1c-3.8,0-5.1,3-5.5,4.1c-0.4,1.1-0.7,2.9-0.5,4.7
		c0.4,4.8,6,16.7,6,16.7s5.6-11.8,6-16.7C-103.6,121.2-103.9,119.4-104.3,118.3z"/>
	<path id="XMLID_33_" fill="#111111" d="M-98.4,140.4l-1.8-1.8c-0.3-0.3-0.5-0.7-0.9-0.7l-5.1,0.1l-1.1,0c-1.4,3.1-2.5,5.4-2.5,5.4
		s-1.1-2.3-2.6-5.4l-1.2,0h-6.7c-0.4,0-0.8,0.3-0.9,0.7l-0.9,3.1l19.6,3.6l4.1-3.4C-98,141.6-97.9,140.9-98.4,140.4z"/>
	<path id="XMLID_215_" fill="#111111" d="M-96.7,142.2l-9.8,8.3h10.3c0.3,0,8.4,0,8.4,0l-6.7-8.1C-95.1,141.7-96.1,141.7-96.7,142.2
		z"/>
	<path id="XMLID_214_" fill="#111111" d="M-119.5,143.6l-3-0.5l-1.8,6.2c-0.1,0.3,0,0.6,0.2,0.9c0.2,0.2,0.5,0.4,0.8,0.4h3.8V143.6z
		"/>
	<polygon id="XMLID_213_" fill="#111111" points="-118.2,143.8 -118.2,150.5 -108.6,150.5 -103.9,146.5 	"/>
	<path id="XMLID_236_" fill="#111111" d="M-92.8,141.8l3,3.5l11.6-4.1c0.2-0.1,0.1-0.4-0.1-0.4L-92.8,141.8z"/>
	<path id="XMLID_235_" fill="#111111" d="M-89,146.7l11.5-4.6l3.6,7.8c0.1,0.2-0.1,0.5-0.3,0.5H-86L-89,146.7z"/>
</g>
<g>
	<path fill="#19A160" d="M-121.4,159.2c-0.8,0-1.4-0.3-1.9-0.8s-0.8-1.2-0.8-1.9c0-0.8,0.3-1.4,0.8-1.9c0.5-0.5,1.2-0.8,1.9-0.8
		c0.5,0,0.9,0.1,1.3,0.3c0.4,0.2,0.7,0.5,0.9,0.9l-0.9,0.5c-0.1-0.2-0.3-0.4-0.6-0.5c-0.2-0.1-0.5-0.2-0.8-0.2
		c-0.5,0-0.9,0.2-1.2,0.5c-0.3,0.3-0.5,0.7-0.5,1.2c0,0.5,0.2,0.9,0.5,1.2c0.3,0.3,0.7,0.5,1.2,0.5c0.3,0,0.6-0.1,0.8-0.2
		c0.2-0.1,0.4-0.3,0.5-0.5l0.9,0.5c-0.2,0.4-0.5,0.7-0.9,0.9C-120.4,159.1-120.9,159.2-121.4,159.2z"/>
	<path fill="#19A160" d="M-115.1,159.1l-0.3-0.9h-2.1l-0.3,0.9h-1.1l1.8-5.2h1.3l1.8,5.2H-115.1z M-117.2,157.2h1.5l-0.8-2.1
		L-117.2,157.2z"/>
	<path fill="#19A160" d="M-110.4,156.4c0.5,0.3,0.7,0.7,0.7,1.2c0,0.4-0.2,0.8-0.5,1.1s-0.7,0.4-1.2,0.4h-2.2v-5.2h2.1
		c0.4,0,0.8,0.1,1.1,0.4c0.3,0.3,0.5,0.6,0.5,1.1C-109.9,155.8-110.1,156.1-110.4,156.4z M-111.5,154.8h-1v1.1h1
		c0.2,0,0.3-0.1,0.4-0.2c0.1-0.1,0.2-0.2,0.2-0.4c0-0.2-0.1-0.3-0.2-0.4C-111.2,154.9-111.3,154.8-111.5,154.8z M-111.3,158.1
		c0.2,0,0.3-0.1,0.4-0.2c0.1-0.1,0.2-0.3,0.2-0.4c0-0.2-0.1-0.3-0.2-0.4c-0.1-0.1-0.3-0.2-0.4-0.2h-1.2v1.2H-111.3z"/>
	<path fill="#19A160" d="M-108.5,158.7h2.5v0.4h-2.9v-5.2h0.4V158.7z"/>
	<path fill="#19A160" d="M-101.3,158.4c-0.5,0.5-1.2,0.8-1.9,0.8c-0.8,0-1.4-0.3-1.9-0.8c-0.5-0.5-0.8-1.2-0.8-1.9s0.3-1.4,0.8-1.9
		c0.5-0.5,1.2-0.8,1.9-0.8c0.7,0,1.4,0.3,1.9,0.8c0.5,0.5,0.8,1.2,0.8,1.9S-100.7,157.9-101.3,158.4z M-104.8,158.1
		c0.4,0.5,1,0.7,1.6,0.7c0.6,0,1.2-0.2,1.6-0.7c0.4-0.4,0.7-1,0.7-1.6s-0.2-1.2-0.7-1.6c-0.4-0.4-1-0.7-1.6-0.7
		c-0.6,0-1.2,0.2-1.6,0.7c-0.4,0.5-0.7,1-0.7,1.6S-105.2,157.7-104.8,158.1z"/>
	<path fill="#19A160" d="M-95.2,158.4c-0.5,0.5-1.2,0.8-1.9,0.8c-0.8,0-1.4-0.3-1.9-0.8c-0.5-0.5-0.8-1.2-0.8-1.9s0.3-1.4,0.8-1.9
		c0.5-0.5,1.2-0.8,1.9-0.8c0.7,0,1.4,0.3,1.9,0.8c0.5,0.5,0.8,1.2,0.8,1.9S-94.7,157.9-95.2,158.4z M-98.7,158.1
		c0.4,0.5,1,0.7,1.6,0.7c0.6,0,1.2-0.2,1.6-0.7c0.4-0.4,0.7-1,0.7-1.6s-0.2-1.2-0.7-1.6c-0.4-0.4-1-0.7-1.6-0.7
		c-0.6,0-1.2,0.2-1.6,0.7c-0.4,0.5-0.7,1-0.7,1.6S-99.2,157.7-98.7,158.1z"/>
	<path fill="#19A160" d="M-89.9,159.1h-0.5l-2.6-2.6v2.6h-0.4v-5.2h0.4v2.4l2.5-2.4h0.5l-2.6,2.5L-89.9,159.1z"/>
	<path fill="#19A160" d="M-88.8,159.1c-0.1,0.1-0.1,0.1-0.2,0.1c-0.1,0-0.2,0-0.2-0.1s-0.1-0.1-0.1-0.2s0-0.2,0.1-0.2
		s0.1-0.1,0.2-0.1c0.1,0,0.2,0,0.2,0.1s0.1,0.1,0.1,0.2S-88.7,159-88.8,159.1z"/>
	<path fill="#19A160" d="M-84.3,153.9v1h-1.4v4.2h-1v-4.2h-1.4v-1H-84.3z"/>
	<path fill="#19A160" d="M-80.6,159.1l-0.3-0.9h-2.1l-0.3,0.9h-1.1l1.8-5.2h1.3l1.8,5.2H-80.6z M-82.8,157.2h1.5l-0.8-2.1
		L-82.8,157.2z"/>
	<path fill="#19A160" d="M-75.1,159.1h-1.2l-1-1.7l-1,1.7h-1.2l1.6-2.7l-1.5-2.5h1.2l0.9,1.6l0.9-1.6h1.2l-1.5,2.5L-75.1,159.1z"/>
	<path fill="#19A160" d="M-74.6,153.9h1v5.2h-1V153.9z"/>
</g>
</svg>
