<svg xmlns="http://www.w3.org/2000/svg" viewBox="-124.3 114.2 50.5 45"><path fill="#111" d="M-78.7 135.1l-7.7-4-.5.6c-.1.1-.9.7-2.9 1.1-1.6.3-4.2-.2-8.5-8.1-1.2-2.2-2.5-4-3.7-5.5.1 1 .1 2.1 0 3.1-.2 1.8-1 4.4-2 7.2.5.5 1.1 1.2 1.8 2.2 1.3 1.8 2.4 3.9 3.2 5.4l.2.4c.8 1.4 2 2.3 3.7 2.7.5.1.9.1 1.3.1s.7 0 .9-.1l14.6-1.2.2-.2c.5-.4.6-1.2.6-1.7 0-1.1-1-1.9-1.2-2z"/><path fill="#19A160" d="M-104.3 118.3c-.4-1.1-1.7-4.1-5.5-4.1s-5.1 3-5.5 4.1c-.4 1.1-.7 2.9-.5 4.7.4 4.8 6 16.7 6 16.7s5.6-11.8 6-16.7c.2-1.8-.1-3.6-.5-4.7z"/><path fill="#111" d="M-98.4 140.4l-1.8-1.8c-.3-.3-.5-.7-.9-.7l-5.1.1h-1.1c-1.4 3.1-2.5 5.4-2.5 5.4s-1.1-2.3-2.6-5.4h-7.9c-.4 0-.8.3-.9.7l-.9 3.1 19.6 3.6 4.1-3.4c.4-.4.5-1.1 0-1.6zM-96.7 142.2l-9.8 8.3H-87.8l-6.7-8.1c-.6-.7-1.6-.7-2.2-.2zM-119.5 143.6l-3-.5-1.8 6.2c-.1.3 0 .6.2.9.2.2.5.4.8.4h3.8v-7zM-118.2 143.8v6.7h9.6l4.7-4zM-92.8 141.8l3 3.5 11.6-4.1c.2-.1.1-.4-.1-.4l-14.5 1zM-89 146.7l11.5-4.6 3.6 7.8c.1.2-.1.5-.3.5H-86l-3-3.7z"/><g fill="#19A160"><path d="M-121.4 159.2c-.8 0-1.4-.3-1.9-.8s-.8-1.2-.8-1.9c0-.8.3-1.4.8-1.9s1.2-.8 1.9-.8c.5 0 .9.1 1.3.3.4.2.7.5.9.9l-.9.5c-.1-.2-.3-.4-.6-.5-.2-.1-.5-.2-.8-.2-.5 0-.9.2-1.2.5-.3.3-.5.7-.5 1.2s.2.9.5 1.2c.3.3.7.5 1.2.5.3 0 .6-.1.8-.2.2-.1.4-.3.5-.5l.9.5c-.2.4-.5.7-.9.9-.2.2-.7.3-1.2.3zM-115.1 159.1l-.3-.9h-2.1l-.3.9h-1.1l1.8-5.2h1.3l1.8 5.2h-1.1zm-2.1-1.9h1.5l-.8-2.1-.7 2.1zM-110.4 156.4c.5.3.7.7.7 1.2 0 .4-.2.8-.5 1.1s-.7.4-1.2.4h-2.2v-5.2h2.1c.4 0 .8.1 1.1.4.3.3.5.6.5 1.1 0 .4-.2.7-.5 1zm-1.1-1.6h-1v1.1h1c.2 0 .3-.1.4-.2.1-.1.2-.2.2-.4s-.1-.3-.2-.4c-.1 0-.2-.1-.4-.1zm.2 3.3c.2 0 .3-.1.4-.2.1-.1.2-.3.2-.4 0-.2-.1-.3-.2-.4-.1-.1-.3-.2-.4-.2h-1.2v1.2h1.2zM-108.5 158.7h2.5v.4h-2.9v-5.2h.4v4.8zM-101.3 158.4c-.5.5-1.2.8-1.9.8-.8 0-1.4-.3-1.9-.8s-.8-1.2-.8-1.9a2.732 2.732 0 012.7-2.7 2.732 2.732 0 012.7 2.7c0 .7-.2 1.4-.8 1.9zm-3.5-.3c.4.5 1 .7 1.6.7.6 0 1.2-.2 1.6-.7.4-.4.7-1 .7-1.6s-.2-1.2-.7-1.6c-.4-.4-1-.7-1.6-.7-.6 0-1.2.2-1.6.7-.4.5-.7 1-.7 1.6s.3 1.2.7 1.6zM-95.2 158.4c-.5.5-1.2.8-1.9.8-.8 0-1.4-.3-1.9-.8s-.8-1.2-.8-1.9a2.732 2.732 0 012.7-2.7 2.732 2.732 0 012.7 2.7c0 .7-.3 1.4-.8 1.9zm-3.5-.3c.4.5 1 .7 1.6.7.6 0 1.2-.2 1.6-.7.4-.4.7-1 .7-1.6s-.2-1.2-.7-1.6c-.4-.4-1-.7-1.6-.7-.6 0-1.2.2-1.6.7-.4.5-.7 1-.7 1.6s.2 1.2.7 1.6zM-89.9 159.1h-.5l-2.6-2.6v2.6h-.4v-5.2h.4v2.4l2.5-2.4h.5l-2.6 2.5 2.7 2.7zM-88.8 159.1c-.1.1-.1.1-.2.1s-.2 0-.2-.1-.1-.1-.1-.2 0-.2.1-.2.1-.1.2-.1.2 0 .2.1.1.1.1.2 0 .1-.1.2zM-84.3 153.9v1h-1.4v4.2h-1v-4.2h-1.4v-1h3.8zM-80.6 159.1l-.3-.9H-83l-.3.9h-1.1l1.8-5.2h1.3l1.8 5.2h-1.1zm-2.2-1.9h1.5l-.8-2.1-.7 2.1zM-75.1 159.1h-1.2l-1-1.7-1 1.7h-1.2l1.6-2.7-1.5-2.5h1.2l.9 1.6.9-1.6h1.2l-1.5 2.5 1.6 2.7zM-74.6 153.9h1v5.2h-1v-5.2z"/></g></svg>