<svg xmlns="http://www.w3.org/2000/svg" viewBox="-257 227.4 95 30.1"><g fill="#7599FB"><path d="M-205.4 241.6c.7-.3 1.2-.8 1.7-1.5 1.4-2.2.6-4.3-1.9-4.8-1.1-.2-2.3-.2-3.4.2-2.3.8-3.5 2.9-2.9 5.2.3 1.3 1.2 2.1 2.1 3 .9.9 2.4 1.6 2.3 2.9 0 .4-.2.3-.8.2-2-.2-3-1.4-3.5-3.2-.1-.5-.3-1.2-1-1.3s-1.1.4-1.4.9c-.1.2-.2.3-.3.5-.3.9-1 1.4-1.7 1.9-.8.6-1.1.5-1.3-.6v-.4c-.3-2.2-.5-4.5.9-6.5.3-.5.2-1-.1-1.4-.5-.6-1-1.2-1.8-1.5-.5-.2-1-.2-1.4.3-.2.4-.5.3-.8.2-1-.3-2-.4-3.1-.2-3.4.7-6.1 3.6-6.8 7.1-.1.5 0 1-.3 1.4-.7.8-1.5 1.5-2.5 1.9-1.5.5-2.6.2-3.3-.8s-.7-3.1 0-3.9c1.7-2 3.5-3.9 5.2-5.9 1.1-1.2 2-2.6 2.3-4.2.3-1.7-.5-3.1-2.1-3.3-.5-.1-1-.1-1.5 0-2.5.5-4.2 2.1-5.5 4.2-1.9 3.1-2.9 6.6-3.1 10.3 0 .5-.1.9-.5 1.3-1.5 1.6-3.3 2.6-5.5 2.8-2.4.3-4.2-.9-4.7-3.2-.6-3.2.1-6.2 1.6-9 .2-.3.3-.4.6-.2 1 .4 2 .6 3.1.7 1.6.2 3.2.1 4.6-.8 1.3-.8 1.9-2.1 1.5-3.7-.3-1.4-1.2-2.2-2.6-2.6-.6-.2-2-.2-2-.2-2.2-.1-4.1.6-5.9 1.9-.4.3-.6.2-1-.1-.4-.4-.8-.9-1.3-1.2-.3-.2-.7-.3-1.1-.1s-.4.6-.3 1c.1.9.5 1.6.9 2.3.2.3.3.6 0 1-1.6 2.2-2.8 4.9-3 7.9v1.4c0 .7.2 2.5.3 2.7.6 2.5 2.2 4.1 4.6 4.8 4.2 1.2 8 .7 11.1-2.7.4.5.7 1 1.1 1.5 1.9 1.8 6.1 2.7 9-.3.3-.3.5-.5.8.1.8 1.3 2.1 1.9 3.6 2 2.3.1 4.2-.7 5.5-2.7.1.3.2.6.2.8.5 1.6 1.3 2.1 3 1.7 1-.2 1.9-.7 2.7-1.3.2-.1.3-.4.6-.1 2.7 2.4 5.7 2.1 8.6.9 2.1-.9 2.7-3.3 1.4-5.2l-1-1.3c-.3-.4-.4-.6.1-.8zm-29.2-9.9c.3-.5.7-.9 1.3-1.2.6-.3.9 0 .9.6s-.2 1.2-.6 1.6c-1.2 1.6-2.5 3.1-3.6 4.7 0 0-.1.1-.3.1.5-2 1-4 2.3-5.8zm-13.9-.4c1-.9 2.2-1.3 3.5-1.2.6 0 1 .3 1 1 0 .6-.4.9-.9 1-.3.1-.7.1-1.1.1-.8 0-1.6-.2-2.4-.3-.4-.1-.4-.3-.1-.6zm27.7 6.7c-.3 1.6-.3 3.2-.5 4.8-.2 1.6-1.1 2.9-2.6 3.5-1.5.6-2.6-.3-2.6-2.1 0-3 2.3-5.9 5.2-6.6.4-.2.6-.1.5.4zm14.7 1.1c-.2.5-.6 1.3-1 1.3-.5 0-.8-.7-1-1.2-.6-1.3-.3-1.3 1.1-1.5.8 0 1.2.7.9 1.4z"/><path d="M-162 243.1c0-.2-.1-.5-.3-.6-.3-.2-1.2.8-1.4 1.1-1.2 1.5-2.5 2.9-4.2 4.2.1-.3 1.7-5.9 2.3-8.6.3-1.4.1-2.7-.8-3.8-.4-.4-.8-.8-1.5-.7-.6.1-.9.6-1.1 1.2-.5 1.8-1 3.6-1.6 5.3-.4 1.3-.5 2.6-1.3 3.8-.5.7-1.1 1-2 1s-1.2-.3-1.2-1.2c0-1.4.4-2.7.8-4 .4-1.4.7-2.8.4-4.3-.1-.7-.4-1.3-1.1-1.4-1-.1-2-.1-2.8.8 0 .1-.1.2-.1.4l-.6 5.1c-.2 2.3-1.8 4.1-4 4.6-1.2.3-2.3-.1-2.8-1-.7-1.1-.7-3 0-3.8 1.5-1.9 3.2-3.6 4.8-5.5 1.1-1.3 2.3-2.6 2.7-4.4.5-2.4-.4-3.9-2.9-3.7-2 .1-3.6 1.1-4.8 2.6-1.6 1.8-2.6 4-3.3 6.3-.8 2.5-1.2 5.1-1.1 7.7.1 1.8.8 3.3 2.4 4.3 2.5 1.6 5.6 1.3 7.8-.6.3-.3.5-.4.9.1.5.7 1.3 1.1 2.2 1.2 2 .4 3.8.1 5.4-1.6-.1.5-.3 2.3-1.6 2.5-1.7.3-3.4.6-5 1.2-2.1.8-2.6 2.5-1.3 4.3 1.4 2 5.2 2.6 7.4 1 1.4-1 2-2.4 2.4-4 .2-.6.5-1 1.1-1.4 2.5-1.4 4.6-3.3 5.9-6 .2-.6.3-1.3.3-2.1zm-20.7-11.8c.2-.3.5-.5.8-.7.3-.2.6-.3.9 0 .2.2.2.5.2.8-.1.6-.4 1.2-.8 1.7-1.1 1.5-2.4 2.9-3.4 4.4-.1.1-.1.1-.3.2.5-2.4 1.1-4.6 2.6-6.4zm6.5 23.6c-.2-.1-.4-.2-.6-.4-.5-.5-.4-1 .3-1.2.2-.1 2.6-.4 3.6-.5-.5 1.8-1.9 2.7-3.3 2.1z"/><path d="M-193.7 241.6c1.3-.6 2-1.6 2.3-3 .3-1.5-.4-2.6-1.8-3.1s-2.8-.4-4.2.1c-3 1.1-3.9 4.6-1.8 7 .5.6 1.2 1.2 1.7 1.8.6.6 1.2 1.3 1.5 2.1.1.1.3.4-.2.4-1.7.1-3.1-.8-3.7-2.4-.2-.5-.3-.9-.5-1.4-.4-.9-1-1-1.7-.4-2 1.5-1.8 4.8.3 6.1 1.2.7 2.5.9 3.9.9 1.1 0 2.3-.1 3.4-.6 2.4-1 3.1-3.5 1.6-5.6-.3-.4-.6-.8-1-1.2-.2-.2-.2-.5.2-.7zm-1.5-1.3c-.2.2-.3 0-.4-.1-.3-.3-1.7-1.7-.8-2.3.5-.4 1.7-.3 2 0 .2.2.2.4.2.6-.2.8-.6 1.3-1 1.8z"/></g></svg>