<svg xmlns="http://www.w3.org/2000/svg" viewBox="-359.2 585.4 93.9 21.4"><style>.st0{fill:#EA1D50;} .st1{fill:#FED900;} .st2{fill:#231F20;}</style><path d="M-348.5 585.4c-5.9 0-10.7 4.8-10.7 10.7 0 5.9 4.8 10.7 10.7 10.7 5.9 0 10.7-4.8 10.7-10.7 0-5.9-4.8-10.7-10.7-10.7zm7 13.3c-.3 0-.6-.1-.8-.1-.1.2-.1.3-.2.5.9.4 1.5 1.3 1.5 2.3 0 1.4-1.1 2.5-2.5 2.5-1 0-1.9-.6-2.3-1.5-.1 0-.2.1-.3.1.1.3.2.5.2.8 0 1.4-1.1 2.5-2.5 2.5s-2.5-1.1-2.5-2.5c0-.3.1-.6.2-.8-.1-.1-.3-.1-.4-.2-.4.8-1.2 1.3-2.2 1.3-1.4 0-2.5-1.1-2.5-2.5 0-1 .6-1.8 1.4-2.2 0-.1-.1-.2-.1-.3-.3.1-.5.1-.8.1-1.4 0-2.5-1.1-2.5-2.5s1.1-2.5 2.5-2.5c.3 0 .6.1.8.1 0-.1.1-.3.2-.4-.8-.4-1.4-1.3-1.4-2.2 0-1.4 1.1-2.5 2.5-2.5 1 0 1.9.6 2.3 1.4.1-.1.3-.1.4-.2-.1-.3-.2-.6-.2-.9 0-1.4 1.1-2.5 2.5-2.5s2.5 1.1 2.5 2.5c0 .3-.1.6-.2.9.1 0 .2.1.4.1.4-.8 1.3-1.4 2.3-1.4 1.4 0 2.5 1.1 2.5 2.5 0 1-.6 1.8-1.4 2.3.1.1.1.2.2.4.3-.1.5-.2.8-.2 1.4 0 2.5 1.1 2.5 2.5s-1.5 2.6-2.9 2.6z" class="st0"/><circle cx="-348.5" cy="596.1" r="2.5" class="st1"/><path d="M-334.6 600.9h1.7V592h-1.7v-1.1h4.1c4 0 6.9.9 6.9 5.5s-2.8 5.6-6.9 5.6h-4.1v-1.1zm3.2 0h.9c3.1 0 5.3-.9 5.3-4.5s-2.1-4.5-5.3-4.5h-.9v9z" class="st2"/><path d="M-316.4 600.4c-.4 1.2-1.4 1.8-2.6 1.8-1.5 0-3-.7-3-2.4 0-2.4 2.3-2.5 4.2-2.5h1.5v-.5c0-1.2-.6-1.6-1.9-1.6-1.1 0-1.9.2-2 1.3h-1.5c.1-1.8 1.7-2.4 3.3-2.4 1.8 0 3.5.4 3.5 2.4v4.4h1.4v1.1h-2.8v-1.6zm-2.5.7c1.7 0 2.5-1.2 2.5-2.7h-1.2c-1 0-3 0-3 1.4 0 1 .9 1.3 1.7 1.3z" class="st2"/><path d="M-312.9 600.9h1.3v-5.6h-1.3v-1.1h2.7v6.7h1.3v1.1h-4.1v-1.1zm2.7-8.4h-1.6v-1.6h1.6v1.6z" class="st2"/><path d="M-307.7 602v-2.7h1.1c0 .7.3 1.2.8 1.4.5.3 1.1.3 1.7.3.7 0 1.6-.4 1.6-1.2 0-1.1-1.1-1-2-1.2-1.4-.2-3.2-.4-3.2-2.2 0-1.6 1.6-2.4 3-2.4 1 0 1.9.3 2.4 1.1v-.9h1.1v2.5h-1.1c0-.7-.2-1.1-.6-1.3-.4-.2-.9-.3-1.5-.3-.8 0-1.9.2-1.9 1.2 0 .9 1.3.9 2.3 1.1 1.4.2 2.9.5 2.9 2.2 0 1.8-1.6 2.5-3.2 2.5-.9 0-2-.4-2.4-1.2v1.1h-1z" class="st2"/><path d="M-290.9 595.4h-.9l-3.2 7.4c-.6 1.3-.9 2.2-2.5 2.2-.4 0-.7-.1-1.1-.1v-1.1c.3 0 .5.1.8.1 1.2 0 1.2-1 1.7-1.9l-3-6.7h-.8v-1.1h3.9v1.1h-1.5l2.2 5.2 2.2-5.2h-1.5v-1.1h3.7v1.2z" class="st2"/><path d="M-290.2 600.9h1.7V592h-1.7v-1.1h5c1.8 0 4.3.1 4.3 3 0 1.2-.8 2.2-2.2 2.4 1.6 0 2.5.9 2.5 2.6 0 2.7-2.2 3.1-4.7 3.1h-5v-1.1zm3.2-5h1.8c1.4 0 2.8-.3 2.8-2 0-1.8-1.6-1.9-2.7-1.9h-1.8v3.9zm0 5h1.8c1.6 0 3.1-.3 3.1-2s-1.4-1.9-3.1-1.9h-1.8v3.9z" class="st2"/><path d="M-278.9 600.9h1.3v-5.6h-1.3v-1.1h2.7v6.7h1.3v1.1h-4.1v-1.1zm2.8-8.4h-1.6v-1.6h1.6v1.6z" class="st2"/><path d="M-274.1 600.9h1.3V592h-1.3v-1.1h2.7v10h1.3v1.1h-4.1v-1.1z" class="st2"/><path d="M-269.4 600.9h1.3V592h-1.3v-1.1h2.7v10h1.3v1.1h-4.1v-1.1z" class="st2"/></svg>
