<svg xmlns="http://www.w3.org/2000/svg" viewBox="-357.5 589.8 92 12.1"><style>.st0{fill:#2D1A46;} .st1{fill:#918A91;} .st2{fill:#4D4159;}</style><path d="M-329.3 594.7c0 1.5-.8 2.3-2.1 2.3h-.8v2.5h-1v-7h1.8c1.3-.1 2.1.7 2.1 2.2zm-1 0c0-.9-.4-1.3-1.1-1.3h-.8v2.6h.8c.7 0 1.1-.5 1.1-1.3z" class="st0"/><path d="M-322 596.8h-.6v2.5h-1v-7h1.8c1.3 0 2.1.8 2.1 2.2 0 1.1-.5 1.8-1.3 2.1l1.5 2.7h-1.1l-1.4-2.5zm-.6-.9h.8c.7 0 1.1-.5 1.1-1.3s-.4-1.2-1.1-1.2h-.8v2.5z" class="st0"/><path d="M-310.2 598.4v.9h-3.5v-7h3.4v.9h-2.4v2h2.2v.9h-2.2v2.1h2.5v.2z" class="st0"/><path d="M-300.8 598.4v.9h-3.5v-7h3.4v.9h-2.4v2h2.2v.9h-2.2v2.1h2.5v.2z" class="st0"/><path d="M-291.7 598.8v.6h-3.2v-7h.6v6.4h2.6z" class="st0"/><path d="M-285.4 592.4v7h-.6v-7h.6z" class="st0"/><path d="M-275.2 592.4v7h-.6l-1.9-4.1c-.2-.5-.6-1.3-.7-1.7v5.8h-.6v-7h.6l1.9 4.1c.2.5.6 1.3.8 1.7 0-.5-.1-1.4-.1-2v-3.8h.6z" class="st0"/><path d="M-265.5 598.8v.6h-3.4v-7h3.3v.6h-2.6v2.6h2.5v.6h-2.5v2.7h2.7v-.1z" class="st0"/><path id="XMLID_191_" d="M-344 590.7l.5-.6c.3.2 1 .6 1.4 1.2.8 1.2.8 2.4.1 3.6-.6 1.1-4.4 4.6-6.3 6.5-.1.1-.5.5-.6.5-.2-.2 0-.7-.2-.9.1-.1 3.5-3.6 5.1-5.1.5-.6 3.4-3.1 0-5.2z" class="st1"/><path id="XMLID_72_" d="M-344.7 590.2c-2.4 2.4-4.8 4.9-7.1 7.3-.2.2-.3.1-.4 0l-1.4-1.4c-.2-.2-.1-.3 0-.4l3-3c.2-.2.2-.6 0-.8-.4-.4-.8-.9-1.2-1.3-1.1-1-2.8-1.1-3.9-.2-.9.8-1.6 2.3-.5 3.9.3.5.7.9 1.2 1.3.2.2.2.3 0 .5-.8.7-1.5 1.5-2.3 2.3-.2.2-.1.3.1.5s.2.2.4 0l2.3-2.3c.1-.1.2-.1.3 0 .7.7 4.9 5 5.3 5.2.2-.1.4-.2.5-.4-.1-.2-.4-.5-.6-.7-.7-.8-1.5-1.5-2.3-2.3-.1-.1-.2-.2 0-.4 0 0 7.8-7.8 7.8-8-.4-.2-.9-.1-1.2.2zm-9.8 5.2c-.4-.4-.8-.7-1.1-1.2-.3-.4-.4-.8-.4-1.4.1-.8.5-1.5 1.4-1.9.9-.4 1.8-.1 2.5.5l.9.9c.1.1.1.2 0 .3-1 .9-1.6 1.6-2.6 2.5-.3.3-.5.5-.7.3z" class="st2"/></svg>
