<svg xmlns="http://www.w3.org/2000/svg" viewBox="-354.8 579.2 86.9 30"><style>.st0{fill:#2173BD;} .st1{fill:#FFFFFF;}</style><path d="M-350.9 599.9c-.6 0-1.1-.1-1.6-.3s-.9-.5-1.2-.9-.6-.8-.8-1.3c-.2-.5-.3-1-.3-1.6 0-.5.1-1.1.3-1.6s.5-.9.8-1.3c.4-.4.8-.7 1.2-.9.5-.2 1-.3 1.6-.3s1.1.1 1.6.3c.5.2.9.5 1.2.9.3.4.6.8.8 1.3.2.5.3 1 .3 1.5v.4h-6.7c0 .4.1.8.3 1.2.2.4.4.7.6.9s.5.5.9.6c.3.1.7.2 1.1.2.3 0 .5 0 .8-.1.3-.1.5-.2.7-.3.2-.1.4-.3.6-.4.2-.2.3-.4.4-.6l.9.2c-.1.3-.3.6-.5.8-.2.2-.5.4-.8.6-.3.2-.6.3-1 .4-.4.3-.8.3-1.2.3zm2.9-4.4c0-.4-.1-.8-.3-1.1l-.6-.9-.9-.6c-.3-.1-.7-.2-1.1-.2-.4 0-.7.1-1.1.2-.3.1-.6.3-.9.6-.3.3-.5.6-.6.9-.2.4-.2.7-.3 1.1h5.8z" class="st0"/><path d="M-339.2 590.1h-3.8v9.7h-1v-9.7h-3.8v-.9h8.6v.9z" class="st0"/><path d="M-336.8 599.9c-.8 0-1.4-.3-1.9-.8-.4-.6-.6-1.4-.6-2.5V592h1v4.4c0 1.8.6 2.7 1.8 2.7.3 0 .6 0 .9-.2.3-.1.6-.2.8-.4.2-.2.5-.4.7-.7.2-.3.4-.6.5-.9V592h1v6.5c0 .3.1.4.4.4v.9h-.4c-.2 0-.4-.1-.6-.2-.2-.1-.2-.3-.2-.5V598c-.4.6-.8 1.1-1.4 1.4-.7.4-1.3.5-2 .5z" class="st0"/><path d="M-326.6 599.4c-.1 0-.1.1-.3.1-.1 0-.2.1-.4.1-.1.1-.3.1-.5.1s-.4.1-.6.1c-.2 0-.4 0-.6-.1-.2-.1-.4-.2-.5-.3-.2-.1-.3-.3-.4-.5-.1-.2-.1-.4-.1-.7v-5.6h-1.1v-.6h1.1v-2.6h1v2.6h1.8v.8h-1.8v5.3c0 .3.1.5.3.6.2.1.4.2.6.2.3 0 .5 0 .8-.1l.4-.2.3.8z" class="st0"/><path d="M-322.2 599.9c-.6 0-1.1-.1-1.6-.3s-.9-.5-1.2-.9c-.3-.4-.6-.8-.8-1.3-.2-.5-.3-1-.3-1.5s.1-1.1.3-1.6c.2-.5.5-.9.8-1.3.3-.4.8-.7 1.2-.9s1-.3 1.6-.3c.6 0 1.1.1 1.6.3s.9.5 1.2.9c.3.4.6.8.8 1.3.2.5.3 1 .3 1.6 0 .5-.1 1.1-.3 1.5s-.5.9-.8 1.3c-.3.4-.8.7-1.2.9s-1 .3-1.6.3zm-2.8-4c0 .4.1.8.2 1.2s.3.7.6 1c.3.3.6.5.9.7.3.2.7.2 1.1.2s.8-.1 1.1-.2c.3-.2.6-.4.9-.7.3-.3.5-.6.6-1s.2-.8.2-1.2c0-.4-.1-.8-.2-1.2-.1-.4-.4-.7-.6-1-.3-.3-.6-.5-.9-.7s-.7-.2-1.1-.2c-.4 0-.8.1-1.1.2-.3.2-.6.4-.9.7-.3.3-.5.6-.6 1s-.2.8-.2 1.2z" class="st0"/><path d="M-312.7 592.9c-.7 0-1.3.2-1.8.6-.5.4-.9.9-1.1 1.5v4.9h-1V592h1v1.9c.3-.5.6-1 1.1-1.4.4-.4.9-.5 1.4-.5h.5v.9z" class="st0"/><g><path d="M-275.2 585.3c-.9-.3-1.6-.6-2.1-1.6-2.9-5.3-9.2-6.1-13.4-1.8-.6.6-1.1.9-2 .8-4-.7-7.2.8-9.5 4.1-.6.9-1.2 1.2-2.3 1.3-3.9.2-7.1 2.7-8.3 6.4-1.2 3.6-.1 7.7 2.8 10.1 3.2 2.6 6.7 3.1 10.4 1.2 1.1-.6 1.7-.6 2.7.4 3.6 3.7 8.9 4 12.8.6 1-.8 1.7-.9 2.9-.7 6.8 1.6 13.3-3.4 13.3-10.4.2-4.8-2.6-8.8-7.3-10.4z" class="st0"/></g><g><path d="M-310.3 594.4c0-.6.1-1.3.3-1.9.2-.6.6-1.2 1-1.7s1-.9 1.6-1.2 1.3-.5 2.1-.5c.9 0 1.8.2 2.4.6s1.2 1 1.5 1.7l-.8.5-.6-.9s-.5-.4-.8-.6c-.3-.2-.6-.3-.9-.3-.3-.1-.6-.1-.9-.1-.6 0-1.2.1-1.7.4-.5.3-.9.6-1.2 1-.3.4-.6.9-.8 1.4-.2.5-.3 1.1-.3 1.6 0 .6.1 1.2.3 1.7.2.5.5 1 .8 1.4.4.4.8.7 1.3 1 .5.2 1 .4 1.6.4.3 0 .6 0 .9-.1.3-.1.6-.2.9-.4s.6-.4.8-.6.5-.5.6-.9l.9.5c-.2.4-.4.8-.7 1.1-.3.3-.7.6-1 .8-.4.2-.8.4-1.2.5-.4.1-.8.2-1.3.2-.7 0-1.4-.2-2-.5-.6-.3-1.1-.7-1.6-1.3-.4-.5-.8-1.1-1-1.8-.1-.7-.2-1.3-.2-2z" class="st1"/><path d="M-299.5 588.8h1v9.2c0 .3.1.5.2.7s.4.2.7.2h.4c.2 0 .3-.1.4-.1l.2.8c-.2.1-.4.1-.7.2-.3 0-.5.1-.7.1-.5 0-.8-.1-1.1-.4-.3-.3-.4-.6-.4-1.1v-9.6z" class="st1"/><path d="M-292.3 599.9c-.6 0-1.1-.1-1.6-.3s-.9-.5-1.2-.9c-.3-.4-.6-.8-.8-1.3s-.3-1-.3-1.5.1-1.1.3-1.6c.2-.5.5-.9.8-1.3s.8-.7 1.2-.9c.5-.2 1-.3 1.6-.3.6 0 1.1.1 1.6.3.5.2.9.5 1.2.9.3.4.6.8.8 1.3.2.5.3 1 .3 1.6 0 .5-.1 1.1-.3 1.5s-.5.9-.8 1.3c-.3.4-.8.7-1.2.9s-1 .3-1.6.3zm-2.8-4c0 .4.1.8.2 1.2s.3.7.6 1c.3.3.6.5.9.7.3.2.7.2 1.1.2s.8-.1 1.1-.2.6-.4.9-.7c.3-.3.5-.6.6-1s.2-.8.2-1.2c0-.4-.1-.8-.2-1.2s-.4-.7-.6-1-.6-.5-.9-.7c-.3-.2-.7-.2-1.1-.2-.4 0-.8.1-1.1.2-.3.2-.6.4-.9.7-.3.3-.5.6-.6 1-.1.4-.2.8-.2 1.2z" class="st1"/><path d="M-284.3 599.9c-.8 0-1.4-.3-1.9-.8-.4-.6-.6-1.4-.6-2.5V592h1v4.4c0 1.8.6 2.7 1.8 2.7.3 0 .6 0 .9-.1.3-.1.6-.2.8-.4.2-.2.5-.4.7-.7s.4-.6.5-.9v-5h1v6.5c0 .3.1.4.4.4v.9h-.4c-.2 0-.4-.1-.6-.2-.2-.1-.2-.3-.2-.5V598c-.3.6-.8 1.1-1.4 1.4s-1.3.5-2 .5z" class="st1"/><path d="M-274.6 599.9c-.5 0-1-.1-1.5-.3-.5-.2-.9-.5-1.2-.9-.3-.4-.6-.8-.8-1.3s-.3-1-.3-1.5.1-1.1.3-1.6c.2-.5.4-.9.7-1.3.3-.4.7-.7 1.1-.9s.9-.3 1.4-.3c.7 0 1.2.2 1.8.5.5.3.9.8 1.2 1.3v-4.8h1v9.6c0 .3.1.4.4.4v.9h-.4c-.3 0-.5-.1-.6-.2-.2-.1-.2-.3-.2-.5v-.8c-.3.5-.7.9-1.3 1.2s-1 .5-1.6.5zm.3-.9c.3 0 .5 0 .8-.1.3-.1.5-.2.8-.4.2-.2.5-.4.6-.6.2-.2.3-.5.3-.8v-2.4c-.1-.3-.2-.5-.4-.8-.2-.2-.4-.4-.7-.6-.2-.2-.5-.3-.8-.4-.3-.1-.5-.2-.8-.2-.4 0-.8.1-1.1.3-.3.2-.6.4-.9.7-.2.3-.4.6-.6 1-.1.4-.2.8-.2 1.2 0 .4.1.8.2 1.2.1.4.4.7.6 1 .3.3.6.5.9.7s.8.2 1.3.2z" class="st1"/></g></svg>
