<svg xmlns="http://www.w3.org/2000/svg" viewBox="-350.9 569.6 84.5 46.8"><style>.st0{fill:#00546E;} .st1{fill:#37BFB6;}</style><path d="M-311.9 569.6c-7.5 0-13.6 6.1-13.6 13.6s6.1 13.6 13.6 13.6 13.6-6.1 13.6-13.6-6.1-13.6-13.6-13.6zm8.2 15.5l-.7 1.6c-.1.2-.2.3-.4.3h-2.1c-.3 0-.6.4-.4.7l3.4 5.1c.1.2.1.5-.1.6l-1.6 1c-.2.1-.5.1-.6-.1l-4.7-6.9c-.1-.1-.2-.2-.4-.2h-1.4c-.1 0-.3.1-.4.2l-5.1 6.9c-.1.2-.4.2-.6.1l-1.4-1.1c-.2-.1-.2-.4-.1-.6l3.5-4.9c.2-.3 0-.7-.4-.7h-2.5c-.2 0-.4-.2-.4-.4v-13.5c0-.2.1-.3.2-.4l1.6-1c.3-.2.7 0 .7.4V584c0 .2.2.4.4.4h12.9c.5.1.8.4.6.7z" class="st0"/><path d="M-348.7 611c0 2.3 1.3 3.8 3.1 3.8 2.1 0 3.6-1.2 3.6-1.2l.7 1.1s-2 1.8-4.5 1.8c-3.4 0-5.1-2.2-5.1-5.7 0-3.4 2.1-6 5.2-6s4.5 1.8 4.5 5c0 .5-.1 1.1-.1 1.2h-7.4zm5.2-1.6c0-1.6-.6-2.9-2.3-2.9-1.7 0-2.7 1.3-2.8 2.9h5.1z" class="st0"/><path d="M-334.6 614.4l2.6-7.8-1.5-.3v-1.2l4.8-.1v1.3l-1.2.2-3.6 9.8h-2.3l-3.5-9.7-1.1-.3v-1.2l4.8-.1v1.3l-1.5.2 2.5 7.9z" class="st0"/><path d="M-326.1 611c0 2.3 1.3 3.8 3.1 3.8 2.1 0 3.6-1.2 3.6-1.2l.7 1.1s-2 1.8-4.5 1.8c-3.4 0-5.1-2.2-5.1-5.7 0-3.4 2.1-6 5.2-6s4.5 1.8 4.5 5c0 .5-.1 1.1-.1 1.2h-7.4zm5.2-1.6c0-1.6-.6-2.9-2.3-2.9-1.7 0-2.7 1.3-2.8 2.9h5.1z" class="st0"/><path d="M-313.2 606.5c.5-.6 1.8-1.8 3.2-1.8 1.1 0 1.9.3 1.9.3l-.1 3.1h-1.4l-.3-1.6c-1.6 0-2.6 1-3.1 1.7v6.3l2.1.5v1.2h-6.1V615l1.8-.5v-7.9l-1.8-.4V605l3.5-.1.3 1.6z" class="st0"/><path d="M-305.1 614.7s.6.2 1.8.2c1.3 0 2.4-.4 2.4-1.7 0-2.3-5.9-1.2-5.9-5.1 0-2.2 1.7-3.3 3.9-3.3 1.7 0 3.6.6 3.6.6l-.1 2.9h-1.4l-.3-1.7s-.7-.3-1.7-.3c-1.1 0-1.9.3-1.9 1.4 0 2.3 5.9 1.4 5.9 5 0 2.4-2.1 3.6-4.7 3.6-2 0-3.4-.5-3.4-.5v-3.1h1.5l.3 2z" class="st1"/><path d="M-294.8 611c0 2.3 1.3 3.8 3.1 3.8 2.1 0 3.6-1.2 3.6-1.2l.7 1.1s-2 1.8-4.5 1.8c-3.4 0-5.1-2.2-5.1-5.7 0-3.4 2.1-6 5.2-6s4.5 1.8 4.5 5c0 .5-.1 1.1-.1 1.2h-7.4zm5.2-1.6c0-1.6-.6-2.9-2.3-2.9-1.7 0-2.7 1.3-2.8 2.9h5.1z" class="st1"/><path d="M-284.8 605.6s2.3-.9 4.1-.9c2.5 0 3.9.9 3.9 3.3v6.5l1.7.4v1.2l-3.3.1-.4-1.5c-.7.7-2 1.7-3.5 1.7-2 0-3.2-1.2-3.2-3.2 0-2.4 1.9-3.3 4.9-3.3h1.7v-1.7c0-1.3-.7-1.9-2-1.9s-2.1.3-2.1.3l-.3 1.6h-1.4l-.1-2.6zm4.5 5.8c-2.1 0-2.9.5-2.9 1.8 0 1 .6 1.6 1.6 1.6 1.6 0 2.9-1.7 2.9-1.7v-1.7h-1.6z" class="st1"/><path d="M-266.6 606.7h-3.1v6.8c0 1 .5 1.3 1.1 1.3.5 0 1.1-.2 1.7-.5l.6 1.1c-1 .7-1.9 1.1-3 1.1-1.3 0-2.4-.7-2.4-3.1v-6.7h-2.1v-1.4l2.1-.2v-2.7l2.1-.4v3.1h3.1v1.6z" class="st1"/></svg>
