<svg xmlns="http://www.w3.org/2000/svg" viewBox="-189 129.1 45.8 25.4"><path fill="#F48420" d="M-157.1 143.9c0 1.1-.4 2-2.2 2h-9.4c-.2-.9.4-2.8 1.2-3.4.7-.6 1.6-.6 2.4-.5 2.2.2 2.6-1.3 2.7-2.9.2-1.8-1-2.3-2.5-2.2-1.2 0-2.3-.2-2.3-1.6 0-1.5 1.2-1.8 2.4-1.7 2.3.3 3.5-.7 3.6-3 .2-1 .7-1.5 1.7-1.5h2.4v14.8z"/><path fill="#E66425" d="M-174.8 131.6s-.2-2.4 2.5-2.5h8.8c0 .9-.1 2-.6 2.6-.7.9-1.7 1-2.7.9-2.3-.2-2.7 1.4-2.8 3-.1 1.8 1.2 2.1 2.7 2 1.2-.1 2.1.3 2.1 1.6 0 1.4-.9 1.9-2.2 1.7-2.4-.3-3.8.6-3.9 3.1-.1 2.1-3.8 1.7-3.8 1.7l-.1-14.1z"/><g fill="#1C1C1C"><path d="M-186.9 148.9c-.7-.1-1.1.2-1.1.9v.1h1.1v.9h-1.1v3.6h-1v-4.6c0-.6.2-1.1.5-1.4.3-.3.9-.5 1.5-.4v.9z"/><path d="M-184.8 154.5c-.7 0-1.2-.2-1.7-.7-.5-.5-.7-1-.7-1.7s.2-1.2.7-1.7 1-.7 1.7-.7 1.2.2 1.7.7.7 1 .7 1.7-.2 1.2-.7 1.7c-.5.4-1.1.7-1.7.7zm-1-1.4c.3.3.6.4 1 .4s.7-.1 1-.4c.3-.3.4-.6.4-1s-.1-.7-.4-1c-.3-.3-.6-.4-1-.4s-.7.1-1 .4c-.3.3-.4.6-.4 1s.1.7.4 1zM-179 149.8h1v4.5h-1v-.6c-.3.5-.8.7-1.4.7-.5 0-.9-.2-1.3-.5-.3-.3-.5-.8-.5-1.4v-2.8h1v2.7c0 .3.1.6.3.8.2.2.4.3.7.3.3 0 .6-.1.8-.3.2-.2.3-.5.3-1v-2.4zM-175 149.7c.5 0 .9.2 1.3.5.3.3.5.8.5 1.4v2.8h-1v-2.7c0-.3-.1-.6-.3-.8-.2-.2-.4-.3-.7-.3-.3 0-.6.1-.8.3s-.3.5-.3 1v2.4h-1v-4.5h1v.6c.2-.5.7-.7 1.3-.7zM-169.1 148h1v6.3h-1v-.6c-.4.5-.9.8-1.6.8-.6 0-1.1-.2-1.6-.7-.4-.5-.7-1-.7-1.7s.2-1.2.7-1.7c.4-.5 1-.7 1.6-.7.7 0 1.2.3 1.6.8V148zm-2.4 5.1c.3.3.6.4 1 .4s.7-.1 1-.4c.3-.3.4-.6.4-1s-.1-.8-.4-1c-.3-.3-.6-.4-1-.4s-.7.1-1 .4c-.3.3-.4.6-.4 1s.1.7.4 1zM-166.7 152.5c.1.3.2.6.5.8.3.2.6.3.9.3.5 0 .9-.2 1.2-.6l.8.5c-.4.7-1.1 1-2 1-.7 0-1.3-.2-1.8-.7-.5-.4-.7-1-.7-1.7s.2-1.2.7-1.7 1-.7 1.7-.7 1.2.2 1.6.7c.4.5.6 1 .6 1.7v.4h-3.5zm0-.8h2.6c-.1-.4-.2-.6-.5-.8-.2-.2-.5-.3-.8-.3-.4 0-.7.1-.9.3-.1.2-.3.5-.4.8zM-161.7 150.6c.2-.6.7-.8 1.4-.8v1.1c-.4 0-.7.1-1 .3-.3.2-.4.5-.4 1v2.3h-1V150h1v.6zM-159.6 151c0 .2.1.4.3.5s.4.2.7.3.5.1.8.2c.3.1.5.2.7.4s.3.4.3.8-.1.7-.4.9-.7.4-1.2.4c-.4 0-.8-.1-1.1-.3-.3-.2-.5-.4-.6-.7l.4-.2c.1.2.2.4.5.6.2.1.5.2.9.2s.6-.1.8-.2c.2-.1.3-.4.3-.6 0-.2-.1-.4-.3-.5-.2-.1-.4-.2-.7-.3-.3-.1-.5-.1-.8-.2s-.5-.2-.7-.4c-.2-.2-.3-.4-.3-.7 0-.4.1-.7.4-.9.3-.2.7-.4 1.1-.4.4 0 .7.1.9.2.3.2.5.4.6.7l-.4.2c-.1-.2-.2-.4-.5-.5s-.4-.2-.7-.2c-.3 0-.6.1-.8.2s-.2.2-.2.5zM-153 149.8h.5v4.5h-.5v-.9c-.3.6-.9 1-1.6 1-.5 0-1-.2-1.3-.5-.3-.3-.5-.8-.5-1.3v-2.8h.5v2.8c0 .4.1.8.3 1 .2.2.6.4 1 .4.5 0 .8-.2 1.1-.5s.4-.8.4-1.3v-2.4zM-151.2 148.6c-.1.1-.2.1-.3.1s-.2 0-.3-.1-.1-.2-.1-.3c0-.1 0-.2.1-.2.1-.1.2-.1.3-.1s.2 0 .3.1c.1.1.1.2.1.2.1.2 0 .3-.1.3zm-.4 5.7v-4.5h.4v4.5h-.4zM-147.9 150.3h-1.3v2.9c0 .3 0 .4.1.6.1.1.2.2.4.2h.8v.4c-.6.1-1.1 0-1.4-.1s-.4-.5-.4-1v-2.9h-1v-.4h1v-1.1l.5-.1v1.3h1.3v.2z"/><path d="M-145.6 149.7c.7 0 1.2.2 1.6.7.4.5.6 1 .6 1.7v.2h-4.1c.1.5.3.9.6 1.2.4.3.8.5 1.3.5.4 0 .7-.1.9-.2.3-.2.5-.3.6-.6l.4.2c-.2.3-.5.6-.8.7-.3.2-.7.3-1.2.3-.7 0-1.3-.2-1.7-.7-.4-.4-.7-1-.7-1.7s.2-1.2.7-1.7c.6-.3 1.2-.6 1.8-.6zm0 .5c-.5 0-.9.2-1.3.5-.3.3-.5.7-.6 1.2h3.6c0-.5-.2-1-.6-1.3-.2-.3-.6-.4-1.1-.4z"/></g></svg>