<svg version="1.1" id="Слой_1" xmlns="http://www.w3.org/2000/svg" xmlns:xlink="http://www.w3.org/1999/xlink" x="0px" y="0px"
	 viewBox="-189 129.1 45.8 25.4" enable-background="new -189 129.1 45.8 25.4" xml:space="preserve">
<g id="XMLID_38_">
	<path id="XMLID_54_" fill="#F48420" d="M-157.1,143.9c0,1.1-0.4,2-2.2,2h-9.4c-0.2-0.9,0.4-2.8,1.2-3.4c0.7-0.6,1.6-0.6,2.4-0.5
		c2.2,0.2,2.6-1.3,2.7-2.9c0.2-1.8-1-2.3-2.5-2.2c-1.2,0-2.3-0.2-2.3-1.6c0-1.5,1.2-1.8,2.4-1.7c2.3,0.3,3.5-0.7,3.6-3
		c0.2-1,0.7-1.5,1.7-1.5l2.4,0V143.9z"/>
	<path id="XMLID_53_" fill="#E66425" d="M-174.8,131.6c0,0-0.2-2.4,2.5-2.5h8.8c0,0.9-0.1,2-0.6,2.6c-0.7,0.9-1.7,1-2.7,0.9
		c-2.3-0.2-2.7,1.4-2.8,3c-0.1,1.8,1.2,2.1,2.7,2c1.2-0.1,2.1,0.3,2.1,1.6c0,1.4-0.9,1.9-2.2,1.7c-2.4-0.3-3.8,0.6-3.9,3.1
		c-0.1,2.1-3.8,1.7-3.8,1.7L-174.8,131.6z"/>
</g>
<g>
	<path fill="#1C1C1C" d="M-186.9,148.9c-0.7-0.1-1.1,0.2-1.1,0.9v0.1h1.1v0.9h-1.1v3.6h-1v-3.6v-0.9v-0.1c0-0.6,0.2-1.1,0.5-1.4
		c0.3-0.3,0.9-0.5,1.5-0.4V148.9z"/>
	<path fill="#1C1C1C" d="M-184.8,154.5c-0.7,0-1.2-0.2-1.7-0.7c-0.5-0.5-0.7-1-0.7-1.7s0.2-1.2,0.7-1.7s1-0.7,1.7-0.7
		c0.7,0,1.2,0.2,1.7,0.7s0.7,1,0.7,1.7s-0.2,1.2-0.7,1.7C-183.6,154.2-184.2,154.5-184.8,154.5z M-185.8,153.1
		c0.3,0.3,0.6,0.4,1,0.4s0.7-0.1,1-0.4c0.3-0.3,0.4-0.6,0.4-1s-0.1-0.7-0.4-1c-0.3-0.3-0.6-0.4-1-0.4s-0.7,0.1-1,0.4
		c-0.3,0.3-0.4,0.6-0.4,1S-186.1,152.8-185.8,153.1z"/>
	<path fill="#1C1C1C" d="M-179,149.8h1v4.5h-1v-0.6c-0.3,0.5-0.8,0.7-1.4,0.7c-0.5,0-0.9-0.2-1.3-0.5c-0.3-0.3-0.5-0.8-0.5-1.4v-2.8
		h1v2.7c0,0.3,0.1,0.6,0.3,0.8c0.2,0.2,0.4,0.3,0.7,0.3c0.3,0,0.6-0.1,0.8-0.3c0.2-0.2,0.3-0.5,0.3-1V149.8z"/>
	<path fill="#1C1C1C" d="M-175,149.7c0.5,0,0.9,0.2,1.3,0.5c0.3,0.3,0.5,0.8,0.5,1.4v2.8h-1v-2.7c0-0.3-0.1-0.6-0.3-0.8
		c-0.2-0.2-0.4-0.3-0.7-0.3c-0.3,0-0.6,0.1-0.8,0.3s-0.3,0.5-0.3,1v2.4h-1v-4.5h1v0.6C-176.1,149.9-175.6,149.7-175,149.7z"/>
	<path fill="#1C1C1C" d="M-169.1,148h1v6.3h-1v-0.6c-0.4,0.5-0.9,0.8-1.6,0.8c-0.6,0-1.1-0.2-1.6-0.7c-0.4-0.5-0.7-1-0.7-1.7
		c0-0.7,0.2-1.2,0.7-1.7c0.4-0.5,1-0.7,1.6-0.7c0.7,0,1.2,0.3,1.6,0.8V148z M-171.5,153.1c0.3,0.3,0.6,0.4,1,0.4s0.7-0.1,1-0.4
		c0.3-0.3,0.4-0.6,0.4-1s-0.1-0.8-0.4-1c-0.3-0.3-0.6-0.4-1-0.4s-0.7,0.1-1,0.4c-0.3,0.3-0.4,0.6-0.4,1S-171.8,152.8-171.5,153.1z"
		/>
	<path fill="#1C1C1C" d="M-166.7,152.5c0.1,0.3,0.2,0.6,0.5,0.8c0.3,0.2,0.6,0.3,0.9,0.3c0.5,0,0.9-0.2,1.2-0.6l0.8,0.5
		c-0.4,0.7-1.1,1-2,1c-0.7,0-1.3-0.2-1.8-0.7c-0.5-0.4-0.7-1-0.7-1.7c0-0.7,0.2-1.2,0.7-1.7s1-0.7,1.7-0.7c0.7,0,1.2,0.2,1.6,0.7
		c0.4,0.5,0.6,1,0.6,1.7c0,0.1,0,0.2,0,0.4H-166.7z M-166.7,151.7h2.6c-0.1-0.4-0.2-0.6-0.5-0.8c-0.2-0.2-0.5-0.3-0.8-0.3
		c-0.4,0-0.7,0.1-0.9,0.3C-166.4,151.1-166.6,151.4-166.7,151.7z"/>
	<path fill="#1C1C1C" d="M-161.7,150.6c0.2-0.6,0.7-0.8,1.4-0.8v1.1c-0.4,0-0.7,0.1-1,0.3c-0.3,0.2-0.4,0.5-0.4,1v2.3h-1v-4.5h1
		V150.6z"/>
	<path fill="#1C1C1C" d="M-159.6,151c0,0.2,0.1,0.4,0.3,0.5s0.4,0.2,0.7,0.3s0.5,0.1,0.8,0.2c0.3,0.1,0.5,0.2,0.7,0.4
		s0.3,0.4,0.3,0.8c0,0.4-0.1,0.7-0.4,0.9s-0.7,0.4-1.2,0.4c-0.4,0-0.8-0.1-1.1-0.3c-0.3-0.2-0.5-0.4-0.6-0.7l0.4-0.2
		c0.1,0.2,0.2,0.4,0.5,0.6c0.2,0.1,0.5,0.2,0.9,0.2s0.6-0.1,0.8-0.2c0.2-0.1,0.3-0.4,0.3-0.6c0-0.2-0.1-0.4-0.3-0.5
		c-0.2-0.1-0.4-0.2-0.7-0.3c-0.3-0.1-0.5-0.1-0.8-0.2s-0.5-0.2-0.7-0.4c-0.2-0.2-0.3-0.4-0.3-0.7c0-0.4,0.1-0.7,0.4-0.9
		c0.3-0.2,0.7-0.4,1.1-0.4c0.4,0,0.7,0.1,0.9,0.2c0.3,0.2,0.5,0.4,0.6,0.7l-0.4,0.2c-0.1-0.2-0.2-0.4-0.5-0.5s-0.4-0.2-0.7-0.2
		c-0.3,0-0.6,0.1-0.8,0.2S-159.6,150.7-159.6,151z"/>
	<path fill="#1C1C1C" d="M-153,149.8h0.5v4.5h-0.5v-0.9c-0.3,0.6-0.9,1-1.6,1c-0.5,0-1-0.2-1.3-0.5c-0.3-0.3-0.5-0.8-0.5-1.3v-2.8
		h0.5v2.8c0,0.4,0.1,0.8,0.3,1c0.2,0.2,0.6,0.4,1,0.4c0.5,0,0.8-0.2,1.1-0.5s0.4-0.8,0.4-1.3V149.8z"/>
	<path fill="#1C1C1C" d="M-151.2,148.6c-0.1,0.1-0.2,0.1-0.3,0.1s-0.2,0-0.3-0.1s-0.1-0.2-0.1-0.3c0-0.1,0-0.2,0.1-0.2
		c0.1-0.1,0.2-0.1,0.3-0.1s0.2,0,0.3,0.1c0.1,0.1,0.1,0.2,0.1,0.2C-151,148.5-151.1,148.6-151.2,148.6z M-151.6,154.3v-4.5h0.4v4.5
		H-151.6z"/>
	<path fill="#1C1C1C" d="M-147.9,150.3h-1.3v2.9c0,0.3,0,0.4,0.1,0.6c0.1,0.1,0.2,0.2,0.4,0.2c0.2,0,0.5,0,0.8,0v0.4
		c-0.6,0.1-1.1,0-1.4-0.1s-0.4-0.5-0.4-1v-2.9h-1v-0.4h1v-1.1l0.5-0.1v1.3h1.3V150.3z"/>
	<path fill="#1C1C1C" d="M-145.6,149.7c0.7,0,1.2,0.2,1.6,0.7c0.4,0.5,0.6,1,0.6,1.7c0,0,0,0.1,0,0.1s0,0.1,0,0.1h-4.1
		c0.1,0.5,0.3,0.9,0.6,1.2c0.4,0.3,0.8,0.5,1.3,0.5c0.4,0,0.7-0.1,0.9-0.2c0.3-0.2,0.5-0.3,0.6-0.6l0.4,0.2
		c-0.2,0.3-0.5,0.6-0.8,0.7c-0.3,0.2-0.7,0.3-1.2,0.3c-0.7,0-1.3-0.2-1.7-0.7c-0.4-0.4-0.7-1-0.7-1.7c0-0.7,0.2-1.2,0.7-1.7
		C-146.8,150-146.2,149.7-145.6,149.7z M-145.6,150.2c-0.5,0-0.9,0.2-1.3,0.5c-0.3,0.3-0.5,0.7-0.6,1.2h3.6c0-0.5-0.2-1-0.6-1.3
		C-144.7,150.3-145.1,150.2-145.6,150.2z"/>
</g>
</svg>
