<svg xmlns="http://www.w3.org/2000/svg" viewBox="-256.4 226.3 93.4 23.8"><path d="M-218.6 234.9h-5.3v2.6h5.2v1.8h-5.2v5h-2.1v-11.2h7.4v1.8z"/><path d="M-211.6 237l-1.1 1.7c-.4-.4-.9-.8-1.4-.8s-1.3.4-1.3 1.8v4.6h-2v-8.1h2v.9c.5-.7 1.1-1.1 1.8-1.1.7-.1 1.4.4 2 1z"/><path d="M-202.6 240.2c0 .3 0 .5-.1.8h-6.5c.3 1 1.1 1.7 2.3 1.7.7 0 1.5-.3 2-.7l1.3 1.3c-1.1.8-2.2 1.1-3.3 1.1-2.4 0-4.3-1.9-4.3-4.3s1.9-4.3 4.3-4.3c2.3.1 4.3 1.9 4.3 4.4zm-2.1-.8c-.3-1-1.2-1.7-2.2-1.7s-1.9.7-2.2 1.7h4.4z"/><path d="M-193 240.2c0 .3 0 .5-.1.8h-6.5c.3 1 1.1 1.7 2.3 1.7.7 0 1.5-.3 2-.7l1.3 1.3c-1.1.8-2.2 1.1-3.3 1.1-2.4 0-4.3-1.9-4.3-4.3s1.9-4.3 4.3-4.3c2.3.1 4.3 1.9 4.3 4.4zm-2.1-.8c-.3-1-1.2-1.7-2.2-1.7s-1.9.7-2.2 1.7h4.4z"/><path d="M-185.8 242c0 1.6-1.7 2.5-3.1 2.5-1.2 0-2.3-.4-3.1-1.4l1.2-1.2c.5.6 1.1 1 1.9 1 .6 0 1.1-.2 1.1-.7s-.6-.8-1.7-1.1c-1.3-.4-2.5-1.1-2.5-2.5 0-1.6 1.6-2.5 3.1-2.5 1.2 0 2.2.5 3 1.4l-1.1 1.1c-.5-.6-1.1-.9-1.8-.9-.5 0-1.2.3-1.2.8 0 .4.6.7 1.7 1 1.4.3 2.5 1.2 2.5 2.5z"/><path d="M-180 244.1c-.4.3-1 .4-1.5.4-1.9 0-2.5-.9-2.5-3V238h-1.1v-.8c1.3-.7 2.3-1.8 2.5-3.4h.6v2.3h2v1.8h-2v3.7c0 .8.4 1 .9 1 .3 0 .8-.1 1.1-.4v1.9z"/><path d="M-172.2 244.3h-2v-.4c-.7.5-1.5.6-2.4.6-1.6 0-2.6-1-2.6-2.5 0-1.8 1.7-2.7 3.8-2.7h1.2c0-1-.6-1.6-1.8-1.6-.6 0-1.2.2-1.8.7l-1.2-1.2c.9-.8 2-1.3 3.2-1.3 1.1 0 2 .4 2.6 1 .7.7 1 1.5 1 2.9v4.5zm-2.1-2.1v-1.5h-.9c-1.1 0-2 .3-2 1.1 0 .6.5 1 1.2 1 .5 0 1.1-.2 1.7-.6z"/><path d="M-163 244.3h-2.4l-3.3-3.6v3.6h-2.1v-11.7h2.1v6.9l2.8-3.4h2.4l-3.3 4 3.8 4.2z"/><path fill="#4790CD" d="M-228.8 232.3v11.9l-10.3 5.9-10.3-5.9v-11.9l10.3-6"/><path fill="#7AC9A8" d="M-235.8 232.3v11.9l-10.3 5.9-10.3-5.9v-11.9l10.3-6"/><path d="M-249.4 232.3v11.9l6.8 3.9 6.8-3.9v-11.9l-6.8-4"/></svg>