<svg xmlns="http://www.w3.org/2000/svg" viewBox="-850.3 284.4 60.6 37.1"><path fill="#2DA9D8" d="M-807.7 284.4c-10.1 0-18.1 8.3-18.2 18.5 0 10.3 8.2 18.7 18.2 18.6 9.9 0 18.1-8.5 18-18.6.1-10.2-8-18.5-18-18.5zm0 31.9c-7.1 0-12.9-6-12.9-13.3 0-7.4 5.8-13.3 13-13.3 7 0 12.7 6 12.7 13.3 0 7.3-5.8 13.3-12.8 13.3z"/><path fill="#212932" d="M-827.4 303.1c0-6.2 2.8-11.8 7.1-15.5.2-.4.3-.8.3-.9-2.1 0-4.1.1-6.1 0-1.2-.1-1.7.4-2.1 1.4-2.2 5.4-4.6 10.7-6.9 16.2-.2-.5-.4-.9-.6-1.2l-6.3-14.7c-.5-1.2-1-1.8-2.4-1.7-1.9.1-3.8 0-5.9 0 .2.5.4.9.5 1.3 3.6 8.4 7.1 16.7 10.7 25.1.5 1.1.7 2.7 1.6 3.3.9.7 4.6 1 5.2-.6 1.6-3.8 3.2-7.7 4.9-11.5v-1.2z"/></svg>