<svg xmlns="http://www.w3.org/2000/svg" viewBox="-265 178.1 95.7 15"><g fill="#69C3E2"><path d="M-175.1 179.2c0-.5.2-.8.6-1 .2-.1.5-.1.6.1.3.4.3.8.1 1.2-.4.9-1.1 2.5-1.3 2.7-.2.2-.1-2.1 0-3z"/><path d="M-172.1 180.3c.3-.4.6-.6 1.1-.5.2.1.5.2.5.5 0 .5-.2.8-.6 1-.9.5-2.3 1.4-2.6 1.5-.3 0 1.1-1.8 1.6-2.5z"/><path d="M-170.7 183.2c.4-.2.8-.2 1.2.1.2.2.3.4.2.6-.2.4-.6.6-1 .6-1 0-2.7.2-3 .1-.3-.1 1.8-1.1 2.6-1.4z"/><path d="M-256.8 192c0 .1 0 .2-.1.3l-.4.4-.6.3c-.2.1-.4.1-.7.1-.4 0-.7-.1-1-.4-.3-.2-.5-.6-.8-1-.2-.4-.4-.9-.6-1.5l-.6-1.8-.6.4-.3 3.9c0 .1 0 .1-.1.2 0 0-.1.1-.2.1h-.8c-.6 0-1-.1-1.2-.3-.2-.2-.4-.6-.4-1v-.6c0-.3 0-.6.1-1 0-.4.1-.8.1-1.3s.1-.9.1-1.4c.1-1 .1-1.7.2-2.3s.1-1 .1-1.3v-.7-.4c0-.1.1-.2.2-.2h.8c.3 0 .6 0 .8.1.2.1.3.2.5.3.1.1.2.3.2.4 0 .2.1.4.1.6v1.1c0 .5-.1 1.1-.1 1.7.3-.4.7-.9 1.2-1.6.5-.6 1.1-1.4 1.7-2.3 0 0 .1-.1.1-.2l.2-.2.2-.2s.1-.1.2-.1.3.1.5.2.3.3.5.5.3.4.4.6c.1.2.2.4.2.5 0 .3-.3.7-.8 1.3-.5.6-1.3 1.2-2.2 2l.6.9c.2.3.4.7.7 1 .2.3.4.7.6 1l.6.9c.2.3.3.5.4.6s.2.4.2.4z"/><path d="M-250.7 191.7c0-.2 0-.5.1-.9s.1-.7.1-1.1.1-.8.1-1.1c0-.4.1-.7.1-.9 0-.3-.1-.5-.2-.7-.1-.2-.4-.3-.7-.3-.4 0-.6.1-.9.3-.2.2-.4.5-.6.9s-.3 1.1-.4 1.9c-.1.8-.2 1.8-.3 3 0 .1 0 .2-.1.2 0 0-.1.1-.3.1h-.5c-.3 0-.6 0-.8-.1-.2-.1-.4-.2-.5-.3s-.2-.3-.2-.4c0-.2-.1-.4-.1-.6v-.6s0-.7.1-1.1c0-.5.1-1.1.1-1.8.1-.7.1-1.7.2-2.8 0-.2 0-.4.1-.4h.8c.3 0 .5 0 .7.1.2.1.4.2.5.3s.2.3.3.4c0 .2.1.3.1.5.3-.5.7-.9 1.1-1.1.4-.2.9-.3 1.5-.3.4 0 .8 0 1.1.1.3.1.6.2.8.5.2.2.4.5.5.8.1.3.1.8.1 1.3v.7c0 .3 0 .6-.1 1 0 .4-.1.7-.1 1.1s-.1.7-.1 1.1c0 .3-.1.6-.1.9v.5c0 .2 0 .4-.1.4s-.2.1-.3.1h-.5c-.3 0-.6 0-.8-.1-.2-.1-.4-.1-.5-.3-.1-.1-.2-.2-.2-.4v-.9z"/><path d="M-243.1 193.1c-.7 0-1.3-.1-1.7-.3-.5-.2-.8-.5-1.1-.8-.3-.3-.5-.7-.6-1.2-.1-.5-.2-.9-.2-1.5s.1-1.2.2-1.8c.1-.6.4-1.1.7-1.5.4-.5.8-.8 1.4-1.1s1.3-.4 2.2-.4c1.3 0 2.2.3 2.7.9.5.6.8 1.5.8 2.6 0 .3 0 .7-.1 1 0 .4-.1.7-.3 1.1-.1.4-.3.7-.5 1.1-.2.4-.5.7-.8.9-.3.3-.7.5-1.2.6s-.9.4-1.5.4zm.7-6.5c-.4 0-.7.1-.9.3-.2.2-.4.4-.5.7s-.2.6-.2.9c0 .3-.1.6-.1.8 0 .7.1 1.1.3 1.5.2.3.5.5.9.5s.6-.1.9-.3c.2-.2.4-.5.5-.8.1-.3.2-.6.3-1 0-.3.1-.6.1-.9 0-.5-.1-.9-.3-1.2-.3-.4-.6-.5-1-.5z"/><path d="M-233.7 191.1c.3 0 .5 0 .8-.1l.6-.3c.2-.1.3-.2.4-.3.1-.1.2-.1.3-.1.2 0 .3.2.3.5v.3c0 .1-.1.3-.1.4-.1.1-.1.3-.2.4s-.1.2-.2.3c-.1 0-.1.1-.3.2s-.3.2-.5.3c-.2.1-.5.2-.7.3s-.6.1-.9.1c-.4 0-.8-.1-1.2-.2s-.8-.3-1.1-.6c-.3-.3-.6-.7-.8-1.2-.2-.5-.3-1.1-.3-1.8 0-.3 0-.6.1-.9 0-.3.1-.7.2-1 .1-.4.3-.7.4-1.1s.4-.7.7-.9c.3-.3.7-.5 1.1-.7.4-.2 1-.2 1.6-.2.5 0 .9.1 1.3.2s.6.3.9.5c.2.2.4.4.5.7.1.3.2.5.2.8 0 .5-.2.9-.5 1.2-.3.3-.8.4-1.4.4h-.3c-.1 0-.1-.1-.1-.2v-.6c0-.2 0-.4-.1-.5s-.1-.2-.2-.3c-.1-.1-.2-.1-.4-.1-.3 0-.6.1-.7.3-.2.2-.3.4-.4.7s-.2.6-.2.9v.8c0 .7.1 1.2.3 1.5 0 .2.4.3.9.3z"/><path d="M-222.8 191.8s0 .1-.1.3-.1.3-.2.5-.2.3-.4.4c-.2.1-.4.2-.6.2-.3 0-.5-.1-.8-.3s-.5-.4-.8-.7c-.3-.3-.5-.7-.8-1.1-.3-.4-.5-.9-.8-1.4 0 .5-.1 1.1-.1 1.6s-.1 1-.1 1.5c0 .1 0 .2-.1.2 0 0-.1.1-.3.1h-.5c-.3 0-.6 0-.8-.1-.2-.1-.4-.2-.5-.3-.1-.1-.2-.3-.2-.5s-.1-.4-.1-.6v-.4-.6s0-.6.1-.9c0-.4.1-.9.1-1.5s.1-1.4.2-2.4c.1-.9.1-2.1.2-3.4 0-.2 0-.3.1-.4h.8c.3 0 .6 0 .8.1s.4.2.5.3.2.3.2.4c0 .2.1.3.1.5v.5s0 .5-.1.9c0 .3 0 .7-.1 1.1 0 .4-.1.9-.1 1.3l2.4-2.2c.1-.1.2-.1.2-.2h.2c.1 0 .2.1.4.2.1.1.3.3.4.5l.3.6c.1.2.1.4.1.5 0 .3-.2.6-.7.9-.5.3-1.2.7-2.1 1.1.4.5.8.9 1.2 1.3l1 1 .7.7c.3.1.3.2.3.3z"/><path d="M-210.2 192c0 .1 0 .2-.1.3l-.4.4-.6.3c-.2.1-.4.1-.7.1-.4 0-.7-.1-1-.4-.3-.2-.5-.6-.8-1-.2-.4-.4-.9-.6-1.5l-.6-1.8-.6.4-.3 3.9c0 .1 0 .1-.1.2 0 0-.1.1-.2.1h-.8c-.6 0-1-.1-1.2-.3-.2-.2-.4-.6-.4-1v-.6c0-.3 0-.6.1-1 0-.4.1-.8.1-1.3s.1-.9.1-1.4c.1-1 .1-1.7.2-2.3s.1-1 .1-1.3v-.7-.4c0-.1.1-.2.2-.2h.8c.3 0 .6 0 .8.1.2.1.3.2.5.3s.2.3.2.4c0 .2.1.4.1.6v1.1s-.1 1.1-.1 1.7c.3-.4.7-.9 1.2-1.6.5-.6 1.1-1.4 1.7-2.3 0 0 .1-.1.1-.2l.2-.2.2-.2c.1 0 .1-.1.2-.1s.3.1.4.2c.2.1.3.3.5.5s.3.4.4.6c.1.2.2.4.2.5 0 .3-.3.7-.8 1.3-.5.6-1.3 1.2-2.2 2l.6.9c.2.3.4.7.7 1 .2.3.4.7.6 1l.6.9c.2.3.3.5.4.6s.3.4.3.4z"/><path d="M-204.1 191.7c0-.2 0-.5.1-.9s.1-.7.1-1.1.1-.8.1-1.1c0-.4.1-.7.1-.9 0-.3-.1-.5-.2-.7-.1-.2-.4-.3-.7-.3-.4 0-.6.1-.9.3-.2.2-.4.5-.6.9-.2.5-.3 1.1-.4 1.9-.1.8-.2 1.8-.3 3 0 .1 0 .2-.1.2 0 0-.1.1-.3.1h-.5c-.3 0-.6 0-.8-.1-.2-.1-.4-.2-.5-.3s-.2-.3-.2-.4c0-.2-.1-.4-.1-.6v-.6c0-.3 0-.7.1-1.1 0-.5.1-1.1.1-1.8.1-.7.1-1.7.2-2.8 0-.2 0-.4.1-.4h.8c.3 0 .5 0 .7.1.2.1.4.2.5.3.1.1.2.3.3.4 0 .2.1.3.1.5.3-.5.7-.9 1.1-1.1s.9-.3 1.5-.3c.4 0 .8 0 1.1.1.3.1.6.2.8.5.2.2.4.5.5.8.1.3.2.8.2 1.3v.7c0 .3 0 .6-.1 1 0 .4-.1.7-.1 1.1s-.1.7-.1 1.1c0 .3-.1.6-.1.9v.5c0 .2 0 .4-.1.4s-.2.1-.3.1h-.5c-.3 0-.6 0-.8-.1-.2-.1-.4-.1-.5-.3-.1-.1-.2-.2-.2-.4-.1-.5-.1-.7-.1-.9z"/><path d="M-196.6 193.1c-.7 0-1.3-.1-1.7-.3s-.8-.5-1.1-.8c-.3-.3-.5-.7-.6-1.2-.1-.5-.2-.9-.2-1.5s.1-1.2.2-1.8c.1-.6.4-1.1.7-1.5.3-.5.8-.8 1.4-1.1s1.3-.4 2.2-.4c1.3 0 2.2.3 2.7.9.5.6.8 1.5.8 2.6 0 .3 0 .7-.1 1s-.1.7-.3 1.1c-.1.4-.3.7-.5 1.1-.2.4-.5.7-.8.9-.3.3-.7.5-1.2.6s-.8.4-1.5.4zm.7-6.5c-.4 0-.7.1-.9.3s-.4.4-.5.7-.2.6-.2.9c0 .3-.1.6-.1.8 0 .7.1 1.1.3 1.5.2.3.5.5.9.5s.6-.1.9-.3c.2-.2.4-.5.5-.8.1-.3.2-.6.3-1 0-.3.1-.6.1-.9 0-.5-.1-.9-.3-1.2-.2-.4-.5-.5-1-.5z"/><path d="M-187.2 191.1c.3 0 .5 0 .8-.1l.6-.3c.2-.1.3-.2.4-.3.1-.1.2-.1.3-.1.2 0 .3.2.3.5v.3c0 .1-.1.3-.1.4 0 .1-.1.3-.2.4-.1.1-.1.2-.2.3-.1 0-.1.1-.3.2s-.3.2-.5.3c-.2.1-.5.2-.7.3-.3.1-.6.1-.9.1-.4 0-.8-.1-1.2-.2-.4-.1-.8-.3-1.1-.6s-.6-.7-.8-1.2-.3-1.1-.3-1.8c0-.3 0-.6.1-.9 0-.3.1-.7.2-1 .1-.4.3-.7.4-1.1s.4-.7.7-.9c.3-.3.7-.5 1.1-.7.4-.2 1-.2 1.6-.2.5 0 .9.1 1.3.2s.6.3.9.5c.2.2.4.4.5.7.1.3.2.5.2.8 0 .5-.2.9-.5 1.2-.3.3-.8.4-1.4.4h-.3s-.1-.1-.1-.2v-.6s0-.4-.1-.5-.1-.2-.2-.3c-.1-.1-.2-.1-.4-.1-.3 0-.6.1-.7.3-.2.2-.3.4-.4.7-.1.3-.2.6-.2.9v.8c0 .7.1 1.2.3 1.5.1.2.4.3.9.3z"/><path d="M-176.2 191.8s0 .1-.1.3-.1.3-.2.5-.2.3-.4.4c-.2.1-.4.2-.6.2-.3 0-.5-.1-.8-.3-.3-.2-.5-.4-.8-.7-.3-.3-.5-.7-.8-1.1-.3-.4-.5-.9-.8-1.4 0 .5-.1 1.1-.1 1.6s-.1 1-.1 1.5c0 .1 0 .2-.1.2 0 0-.1.1-.3.1h-.5c-.3 0-.6 0-.8-.1-.2-.1-.4-.2-.5-.3s-.2-.3-.2-.5-.1-.4-.1-.6v-.4-.6s0-.6.1-.9c0-.4.1-.9.1-1.5.1-.6.1-1.4.2-2.4.1-.9.1-2.1.2-3.4 0-.2 0-.3.1-.4h.8c.3 0 .6 0 .8.1.2.1.4.2.5.3.1.1.2.3.2.4s.1.3.1.5v.5c0 .2 0 .5-.1.9 0 .3 0 .7-.1 1.1 0 .4-.1.9-.1 1.3l2.4-2.2c.1-.1.2-.1.2-.2h.2c.1 0 .2.1.4.2.1.1.3.3.4.5l.3.6c.1.2.1.4.1.5 0 .3-.2.6-.7.9s-1.2.7-2.1 1.1c.4.5.8.9 1.2 1.3l1 1 .7.7c.2.1.3.2.3.3z"/></g></svg>