<svg xmlns="http://www.w3.org/2000/svg" viewBox="0 0 182.9 98.6"><path fill="#00AE6B" d="M.2 28.7h5.7v29.8h12.3v4.8H.2V28.7zM26.7 34.3h-5.6v-5.6h5.6v5.6zm-5.4 3.4h5.3v25.6h-5.3V37.7zM38.7 37.7h4.6V42h-4.6v21.4h-5.2V42h-3.4v-4.3h3.4c.1-3 .3-5.1.8-6.3.5-1.2 1.2-2.1 2.3-2.7s2.5-1 4.4-1c1.1 0 2.1.1 3.1.3v4.2c-.7-.1-1.4-.2-2-.2-1 0-1.8.2-2.3.6-.5.4-.8.9-.9 1.5-.1.6-.2 1.8-.2 3.6zM64.8 51.3H50.3c0 3.5.5 5.8 1.4 6.9.9 1.2 2.1 1.7 3.5 1.7 2.4 0 3.9-1.6 4.5-4.8l4.8.6c-1.3 5.4-4.4 8.2-9.5 8.2-3.1 0-5.6-1.1-7.4-3.3-1.8-2.2-2.8-5.5-2.8-9.8 0-4.4.9-7.8 2.8-10.2 1.9-2.4 4.3-3.6 7.5-3.6 2.2 0 4 .6 5.5 1.8 1.5 1.2 2.5 2.8 3.1 4.7s1.1 4.7 1.1 7.8zm-5.4-3.5c0-4.5-1.5-6.8-4.4-6.8-2.8 0-4.3 2.3-4.5 6.8h8.9z"/><path fill="#0077B9" d="M69.4 28.7h5.7v29.8h12.3v4.8h-18V28.7zM95.9 34.3h-5.6v-5.6h5.6v5.6zm-5.4 3.4h5.3v25.6h-5.3V37.7zM102 37.7h4.9v4c1.2-3 3.3-4.6 6.4-4.6 1.7 0 3.1.4 4.2 1.2 1.1.8 1.7 1.8 2 3 .3 1.2.4 3 .4 5.5v16.5h-5.3V47.1c0-2.2-.2-3.7-.6-4.6-.4-.8-1.2-1.2-2.5-1.2s-2.4.5-3.1 1.5c-.7 1-1.1 3.1-1.1 6.1v14.4H102V37.7zM125.9 28.7h5.3v20.5l8.3-11.5h5.2l-6.6 8.8 7.4 16.8h-5.7l-5.1-12.9-3.4 4.7v8.2H126V28.7zM166.5 51.3H152c0 3.5.5 5.8 1.4 6.9.9 1.2 2.1 1.7 3.5 1.7 2.4 0 3.9-1.6 4.5-4.8l4.8.6c-1.3 5.4-4.4 8.2-9.5 8.2-3.1 0-5.6-1.1-7.4-3.3-1.8-2.2-2.8-5.5-2.8-9.8 0-4.4.9-7.8 2.8-10.2 1.9-2.4 4.3-3.6 7.5-3.6 2.2 0 4 .6 5.5 1.8 1.5 1.2 2.5 2.8 3.1 4.7s1 4.7 1.1 7.8zm-5.4-3.5c0-4.5-1.5-6.8-4.4-6.8-2.8 0-4.3 2.3-4.5 6.8h8.9zM170.9 37.7h4.6v5.7c1.4-4.2 3.6-6.3 6.4-6.3.3 0 .6 0 1 .1v5.5c-.4-.1-.8-.1-1.1-.1-3.8 0-5.7 2.5-5.7 7.6v13.1h-5.3V37.7z"/><g><path fill="#A4A2A3" d="M29.4 21.1s.4-.4 1.1-1.2c.4-.4 1-.9 1.6-1.4.6-.5 1.4-1 2.2-1.6 1.7-1.1 3.7-2.3 6.2-3.6 1.2-.7 2.5-1.2 3.9-1.9 1.4-.6 2.9-1.3 4.4-1.9C52 8.3 55.4 7.1 59.1 6c3.7-1.1 7.6-2.2 11.7-3 2.1-.5 4.2-.8 6.3-1.2 1.1-.2 2.2-.3 3.2-.5 1.1-.2 2.2-.3 3.3-.4l3.3-.3C88 .5 89.1.5 90.3.4c2.2-.2 4.5-.1 6.8-.1 4.5.1 9.1.4 13.5 1.1 2.2.3 4.4.8 6.5 1.2 1.1.2 2.1.5 3.2.8 1 .3 2.1.6 3.1.9 1 .3 2 .7 3 1 1 .3 2 .7 2.9 1.1 1 .4 1.9.8 2.8 1.2.5.2.9.4 1.4.6.4.2.9.4 1.3.7 1.8.9 3.5 1.7 5.1 2.7 1.6 1 3.2 1.8 4.5 2.9 1.4 1 2.8 1.9 4 2.9 1.2 1 2.4 2 3.4 2.9.6.4 1 .9 1.5 1.4.5.5.9.9 1.4 1.3.9.8 1.7 1.6 2.4 2.3 2.7 3 4.2 4.7 4.2 4.7l-5 4s-1.4-1.6-3.8-4.5l-2.2-2.2-1.2-1.2c-.4-.4-.9-.9-1.4-1.3-1-.9-2-1.8-3.1-2.7-1.1-.9-2.4-1.8-3.6-2.8-1.2-1-2.7-1.8-4.1-2.8-1.4-1-3-1.7-4.6-2.6-.4-.2-.8-.4-1.2-.7-.4-.2-.8-.4-1.3-.6-.9-.4-1.7-.8-2.6-1.2-.9-.4-1.8-.7-2.7-1.1-.9-.3-1.9-.7-2.8-1-1-.3-1.9-.6-2.9-.9-1-.3-2-.6-3-.8-2-.5-4-1-6.1-1.3-4.2-.8-8.5-1.1-12.8-1.4-2.2 0-4.3-.1-6.5 0-1.1 0-2.2.1-3.2.1-1.1.1-2.1.2-3.2.2-1 .1-2 .2-3.1.4-1.1.1-2.1.2-3.1.4-2.1.3-4.1.6-6.1 1-4 .7-7.8 1.7-11.5 2.7-3.6 1-7 2.1-10 3.3-1.5.6-3 1.2-4.3 1.7-1.3.6-2.7 1.2-3.8 1.8-2.4 1.1-4.4 2.3-6 3.3-.8.5-1.4 1-2 1.4-.5.4-1 .8-1.3 1l-1.1 1.1-2.3-2.2z"/></g><g><path fill="#A4A2A3" d="M157.3 72.6s-.3.4-1 1.3c-.4.4-.9 1-1.5 1.6-.6.5-1.3 1.2-2.1 1.8-1.6 1.3-3.5 2.7-5.9 4.2-2.3 1.5-5.1 3-8.1 4.6-3 1.6-6.4 3-10 4.5-3.6 1.4-7.5 2.7-11.6 3.9-4.1 1.1-8.4 2.1-12.8 2.8-2.2.4-4.5.6-6.7.9-1.1.1-2.3.2-3.4.3l-1.7.1h-1.7l-3.4.1c-1.1 0-2.3-.1-3.4-.1l-1.7-.1c-.6 0-1.1-.1-1.7-.1-1.1-.1-2.3-.2-3.4-.3-1.1-.1-2.2-.3-3.3-.5-1.1-.2-2.2-.3-3.3-.5-2.2-.5-4.3-.8-6.4-1.4-1-.3-2.1-.6-3.1-.8-1-.3-2-.7-3-1-1-.3-2-.7-2.9-1-.9-.4-1.9-.8-2.8-1.2-.9-.4-1.8-.7-2.7-1.2-.9-.4-1.7-.9-2.5-1.3s-1.7-.8-2.5-1.2c-.8-.5-1.5-.9-2.3-1.4-3-1.7-5.6-3.6-7.9-5.2-2.2-1.7-4.1-3.3-5.7-4.6-3-2.7-4.7-4.3-4.7-4.3l4.5-4.5s1.6 1.5 4.3 4.1c1.4 1.2 3.2 2.7 5.2 4.4 2.1 1.5 4.5 3.4 7.2 5 .7.4 1.4.9 2.1 1.3.7.4 1.5.8 2.3 1.2.8.4 1.5.8 2.3 1.3.8.4 1.6.8 2.5 1.1.8.4 1.7.8 2.6 1.2.9.4 1.8.7 2.7 1 .9.3 1.8.7 2.8 1 1 .3 1.9.6 2.9.9 1.9.6 4 1 6 1.5 1 .3 2.1.4 3.1.6 1 .2 2.1.4 3.1.5 1.1.1 2.1.2 3.2.3.5.1 1.1.1 1.6.2l1.6.1c1.1.1 2.2.1 3.2.2h4.9l1.6-.1c1.1-.1 2.2-.1 3.3-.2 2.2-.2 4.3-.3 6.5-.7 4.3-.5 8.4-1.4 12.4-2.4s7.8-2.2 11.3-3.5c3.5-1.3 6.8-2.7 9.8-4.1 3-1.4 5.6-2.8 7.9-4.2 2.3-1.4 4.2-2.7 5.7-3.8.8-.6 1.4-1.1 1.9-1.6l1.2-1.2c.7-.8 1-1.2 1-1.2l2.5 1.7z"/></g></svg>