<svg xmlns="http://www.w3.org/2000/svg" viewBox="-895.5 272.9 105.8 33.3"><g fill="#0F3347"><path d="M-859.5 290.6h-7.1c.1.4.2.7.4.9.4.5.9.7 1.6.7.6 0 1.1-.2 1.4-.7h3.6c-.2.8-.7 1.5-1.3 2-.5.4-1.1.7-1.8.9-.7.2-1.3.3-2 .3-1.1 0-2-.2-2.9-.7-.9-.5-1.6-1.3-2.1-2.4-.3-.7-.4-1.4-.4-2.1 0-1.6.6-2.9 1.8-3.9.9-.8 2.1-1.2 3.4-1.2 1.4 0 2.6.4 3.5 1.2 1.3 1.3 1.9 2.9 1.9 5zm-3.7-2c0-.4-.1-.7-.3-.9-.3-.4-.7-.6-1.3-.6-.6 0-1 .2-1.3.6-.2.2-.3.6-.4 1h3.3z"/><path d="M-849.8 281.1v13.4h-3.4v-1.1c-.3.4-.6.7-1 .9-.5.3-1.2.5-2 .5-1.4 0-2.4-.5-3.2-1.4-.8-1-1.1-2.2-1.1-3.7s.4-2.7 1.1-3.7c.8-1 1.8-1.5 3.1-1.5 1.2 0 2.1.4 2.8 1.3v-4.7h3.7zm-5.3 6.2c-.6 0-1 .2-1.3.7-.2.4-.4.9-.4 1.6 0 .7.2 1.3.5 1.7.3.4.7.6 1.2.6.6 0 1.1-.3 1.4-.8.2-.4.4-.9.4-1.6 0-.6-.1-1.2-.4-1.5-.3-.4-.8-.7-1.4-.7zM-845.4 281.1v2.6h-3.7v-2.6h3.7zm0 3.8v9.6h-3.7v-9.6h3.7zM-841.2 284.9v1.2c.3-.4.6-.7.9-.9.6-.4 1.2-.6 2-.6 1.3 0 2.3.5 3.1 1.4.8.9 1.2 2.2 1.2 3.8 0 1.5-.3 2.6-1 3.5-.8 1-1.9 1.5-3.3 1.5-.7 0-1.3-.2-1.9-.5-.3-.2-.6-.4-.9-.8v4.1h-3.7v-12.8h3.6zm1.7 2.7c-.5 0-.9.2-1.2.6-.3.4-.5 1-.5 1.7s.1 1.2.4 1.6c.3.5.8.7 1.3.7.6 0 1.1-.3 1.3-.8.2-.4.3-.9.3-1.5 0-.8-.2-1.4-.5-1.8-.2-.4-.6-.5-1.1-.5z"/><path d="M-831.2 284.9v1.4c.7-1 1.7-1.6 2.9-1.6.3 0 .6 0 1 .1v3c-.4-.1-.7-.1-1-.1-1 0-1.8.3-2.2 1-.3.4-.4 1-.4 1.8v4h-3.7v-9.6h3.4z"/><path d="M-823.7 284.6c1 0 1.9.2 2.8.7.9.5 1.6 1.2 2 2.1.3.7.5 1.5.5 2.3 0 1.5-.5 2.7-1.5 3.7-.5.5-1.1.9-1.9 1.1-.6.2-1.3.3-2 .3-1 0-2-.2-2.8-.7-.9-.5-1.6-1.2-2-2.1-.3-.7-.5-1.5-.5-2.3 0-1.5.5-2.7 1.5-3.7 1-.9 2.3-1.4 3.9-1.4zm-.1 2.5c-1.1 0-1.7.9-1.7 2.6 0 1.7.6 2.6 1.7 2.6s1.7-.9 1.7-2.6c0-1.7-.6-2.6-1.7-2.6z"/><path d="M-812.4 290.5l3.5.1c0 1.1-.4 2-1.2 2.8-.5.5-1.1.9-1.8 1.1-.6.2-1.3.3-2 .3-1.7 0-3-.6-4.1-1.8-.8-.9-1.2-2.1-1.2-3.4 0-1.1.3-2.1.9-3 .5-.7 1.2-1.3 2.1-1.7.7-.3 1.5-.5 2.4-.5 1.7 0 3 .5 3.9 1.6.5.6.9 1.4 1 2.3l-3.5.1c-.2-.9-.6-1.4-1.5-1.4-.6 0-1 .2-1.2.7-.3.5-.4 1.1-.4 1.9 0 .7.1 1.2.3 1.7.3.6.7.9 1.4.9.6 0 1-.3 1.2-.8.1-.2.1-.5.2-.9z"/><path d="M-805.5 281.1v2.6h-3.7v-2.6h3.7zm0 3.8v9.6h-3.7v-9.6h3.7z"/><path d="M-800.7 281.8v3.1h1.7v2.2h-1.7v3.6c0 .5.1.8.3.9.2.1.4.2.6.2.2 0 .4 0 .8-.1v2.8c-.9.2-1.7.2-2.5.2-1.3 0-2.2-.4-2.6-1.3-.2-.3-.3-.7-.3-1.3V287h-1.3v-2.2h1.3v-3.1h3.7z"/><path d="M-789.7 284.9l-3 8.8c-.6 1.6-1.2 2.7-1.9 3.3-.5.4-1.2.6-2 .6h-2.8v-2.8h.9c.8 0 1.1-.2 1.1-.7 0-.2-.1-.6-.2-1l-3.1-8.2h3.8l1.7 6 1.7-6h3.8z"/></g><path fill="#0F3347" d="M-883.5 284.9v1.4c.7-1.1 1.7-1.7 3-1.7 1.4 0 2.4.6 3 1.7.3-.4.6-.8.8-1 .6-.5 1.4-.7 2.4-.7s1.8.3 2.4.8c.6.5.9 1.2 1.1 2 .1.4.1.8.1 1.3v5.9s0 1.8 1.7 1.8 2-1.3 2-1.3c.9.6 3.1.8 4.2 0 0 0-1.5 5-6.2 5-5.3 0-5.3-5.5-5.3-5.5v-5c0-.6 0-1-.1-1.2-.2-.5-.5-.7-1.1-.7-1 0-1.4.7-1.4 2.1v4.8h-3.7v-5c0-.6 0-1-.1-1.2-.2-.5-.5-.7-1.1-.7-1 0-1.4.7-1.4 2.1v4.8h-3.7V285h3.4z"/><path fill="#0F3347" d="M-869.5 300.8h-3c-1.9 1.1-4.1 1.7-6.4 1.7-7.2 0-13-5.8-13-13s5.8-13 13-13c5.3 0 9.8 3.2 11.9 7.7 0 0 2.2-.9 4.2.1-1.9-6.9-8.7-11.5-16-11.5-9.2 0-16.7 7.5-16.7 16.7s7.5 16.7 16.7 16.7c3.5 0 6.8-1.1 9.5-2.9l-.2-2.5z"/></svg>