<svg xmlns="http://www.w3.org/2000/svg" viewBox="-398.9 301 133.7 68"><path d="M-280.4 301c4.6 0 15.2 1.6 15.2 12.7 0 2.8-.5 5.7-1.3 10-.6 3.2-1.2 7-1.8 10.4s-1.3 7-2 10.4c-1.6 8.5-2.2 14.2-2.4 17.7-.2 3.9-4.6 6.8-9.4 6.8h-1c-4.5.1-7.4-3.2-6.7-6.2.7-2.3 1.6-6.3 2.4-10.6.6-3.5 1.3-7.2 2-10.9.6-3.7 1.2-7.2 1.8-10.6.7-4.1 1.5-9 1.5-11.5 0-6.2-.9-7.7-2.6-7.7-4.8 0-11.8 4.5-16.5 16.6-3.1 9.8-5.6 27.6-6.2 34.4-.4 3.7-4.8 6.3-9.5 6.3-4.5 0-8.2-3-7.4-6.2 1.1-3.8 2.1-9.3 3.7-18.2.5-2.7 1-5.9 1.5-8.4 1.3-7.6 2.2-13.8 2.2-16.8 0-5.6-.1-7.8-3-7.8-5.6 0-11.7 6-15.5 15.7-2.7 8.2-5.7 27.4-6.5 35.3-.2 3.7-4.5 6.5-9.3 6.5h-1c-4.1.1-7.3-3-6.7-6 .7-2.8 6.5-34.9 7.6-41.4 1-5.1 1.2-8.4 1.1-10.7-.1-3.2 1.3-6.2 5.6-7 .4-.1 3.1-.4 3.6-.4 4-.6 9 1.6 8.3 5.1-.1.5-.2 1.1-.4 1.7.9-1.2 2-2.3 3.2-3.5 1.3-1.4 6.6-5.7 14-5.7 10.1 0 13.8 7.8 14.9 13.9 1.8-2.8 4.1-5.9 6.6-8.3 1.3-1.3 6.4-5.6 14-5.6z"/><path fill="#C00216" d="M-375.6 344.3h-5.8l1.9-13.5h-5.4c-.6 4.4-1.3 9.1-1.9 13.5h-5.9l2-13.5h-8.2v-4.5h8.8c.3-2.1.6-4.2.9-6.4h-8.3v-4.5h8.9c.6-4 1.2-8.6 1.8-12.6h5.9l-1.8 12.6h5.3c.6-4 1.3-8.6 1.9-12.6h5.8l-1.7 12.6h8.1v4.5h-8.7c-.3 2.1-.6 4.2-.9 6.4h8.2v4.5h-8.9l-2 13.5zm-3.2-18l.9-6.4h-5.3c-.3 2.1-.7 4.2-1 6.4h5.4z"/></svg>