<svg xmlns="http://www.w3.org/2000/svg" viewBox="-252 412.5 90.6 16.4"><style>.st0{fill:#00b1c5}</style><path class="st0" d="M-252 412.5v16.4h5.3v-16.4h-5.3M-245.1 415.7v13.2h5.3v-16.4l-5.3 3.2M-235.6 412.5v13.8l5.3 2.6v-16.4h-5.3M-228.7 412.5v16.4l5.3-2.6v-13.8h-5.3M-219.2 412.5v16.4h5.3v-16.4h-5.3M-212.8 415.1v13.8h5.3v-16.4l-5.3 2.6M-206 415.1v13.8h5.3v-16.4l-5.3 2.6M-196.4 415.1v11.2l5.3 2.6v-16.4l-5.3 2.6M-190.1 412.5v16.4h5.3v-16.4h-5.3M-176.9 412.5h1.6v8.6h2.6v1.4h-4.2v-10zM-167 422.5h-1.6l-.3-1.8h-1.9l-.3 1.8h-1.4l1.6-10h2.3l1.6 10zm-3.6-3.1h1.5l-.7-5.1-.8 5.1zM-161.5 414.8v.4c0 1-.3 1.7-1 2 .8.3 1.2 1.1 1.2 2.1v.8c0 1.5-.8 2.4-2.4 2.4h-2.5v-10h2.4c1.6 0 2.3.8 2.3 2.3zm-3.2-.8v2.6h.6c.6 0 .9-.3.9-1.1v-.5c0-.7-.2-1-.8-1h-.7zm0 4v3.1h.9c.5 0 .8-.2.8-1v-.9c0-.9-.3-1.2-1-1.2h-.7z"/></svg>
