<svg xmlns="http://www.w3.org/2000/svg" id="Слой_1" viewBox="-357 587.2 90.6 16.4"><style>.st0{fill:#00B1C5;} .st1{font-family:&apos;BebasNeue&apos;;} .st2{font-size:14.2902px;}</style><path d="M-357 587.2v16.4h5.3v-16.4h-5.3" class="st0"/><path d="M-350.1 590.4v13.2h5.3v-16.4l-5.3 3.2" class="st0"/><path d="M-340.6 587.2V601l5.3 2.6v-16.4h-5.3" class="st0"/><path d="M-333.7 587.2v16.4l5.3-2.6v-13.8h-5.3" class="st0"/><path d="M-324.2 587.2v16.4h5.3v-16.4h-5.3" class="st0"/><path d="M-317.8 589.8v13.8h5.3v-16.4l-5.3 2.6" class="st0"/><path d="M-311 589.8v13.8h5.3v-16.4l-5.3 2.6" class="st0"/><path d="M-301.4 589.8V601l5.3 2.6v-16.4l-5.3 2.6" class="st0"/><path d="M-295.1 587.2v16.4h5.3v-16.4h-5.3" class="st0"/><text transform="translate(-282.474 597.255)" class="st0 st1 st2">LAB</text></svg>