<?xml version="1.0" encoding="utf-8"?>
<!-- Generator: Adobe Illustrator 19.0.0, SVG Export Plug-In . SVG Version: 6.00 Build 0)  -->
<svg version="1.1" id="Слой_2" xmlns="http://www.w3.org/2000/svg" xmlns:xlink="http://www.w3.org/1999/xlink" x="0px" y="0px"
	 viewBox="0 0 384.5 105.9" enable-background="new 0 0 384.5 105.9" xml:space="preserve">
<g id="XMLID_57_">
	<path id="XMLID_78_" fill="#56C7DC" d="M18.1,28.3c0,23.6,0.1,77.1,0.1,77.1H0V0h21.8c0,0,1.9,3,8.4,13.3
		C44.7,36,60.7,57.7,76.1,79.8c3.6,5.3,8.1,8.7,14.9,7.8c7.5-1,10.2-3.8,10.2-11.4L101.4,0h17.7l0.1,77.3
		c0,15.6-10.4,26.7-25.8,28.2C80,106.8,69.7,102.1,62,91.1C47.7,70.6,33.3,50,18.1,28.3z"/>
	<path id="XMLID_77_" fill="#56C7DC" d="M231.2,64.7c-4.5,24.4-26.7,41.4-52.4,41c-24.5-0.4-45.9-18.2-49.7-42.1
		c-1.3-7.4-1.1-63.6-1.1-63.6h18c0,0,0,37.5,0.2,54.1c0.2,14.5,7.1,25.2,20.2,31.2c13.3,6.1,25.8,3.7,36.6-5.7
		c7.3-6.4,11.2-14.7,11.1-24.6c0-16.8,0-54.9,0-54.9h18.3C232.3,0,233.2,53.8,231.2,64.7z"/>
	<path id="XMLID_76_" fill="#56C7DC" d="M360.9,0c-17.1,25-33.9,49.4-50.4,73.5c-4.6,6.7-9.1,13.5-14,20
		c-9.8,12.9-29.8,16.3-43.1,7.5c-7.9-5.2-12.2-12.8-12.3-22.2L241,0h18.1l-0.1,74.4c0,7.7,1.6,10.9,6.4,12.6
		c6.4,2.2,13.3,0.3,17.3-5.3c10.2-14.4,20.2-28.9,30.3-43.3c8.2-11.7,18.4-26.6,26.5-38.4H360.9z"/>
	<rect id="XMLID_61_" x="366.4" y="0" fill="#56C7DC" width="18.1" height="105.4"/>
</g>
</svg>
