<svg version="1.1" id="Слой_1" xmlns="http://www.w3.org/2000/svg" xmlns:xlink="http://www.w3.org/1999/xlink" x="0px" y="0px"
	 viewBox="-164.8 136.4 90.8 12.1" enable-background="new -164.8 136.4 90.8 12.1" xml:space="preserve">
<g>
	<g>
		<path fill="#2D1A46" d="M-137.8,141.4c0,1.5-0.8,2.3-2.1,2.3h-0.8v2.5h-1v-7h1.8C-138.6,139.1-137.8,139.9-137.8,141.4z
			 M-138.8,141.4c0-0.9-0.4-1.3-1.1-1.3h-0.8v2.6h0.8C-139.2,142.7-138.8,142.2-138.8,141.4z"/>
		<path fill="#2D1A46" d="M-130.5,143.5h-0.6v2.5h-1v-7h1.8c1.3,0,2.1,0.8,2.1,2.2c0,1.1-0.5,1.8-1.3,2.1l1.5,2.7h-1.1L-130.5,143.5
			z M-131.1,142.6h0.8c0.7,0,1.1-0.5,1.1-1.3s-0.4-1.2-1.1-1.2h-0.8V142.6z"/>
		<path fill="#2D1A46" d="M-118.7,145.1v0.9h-3.5v-7h3.4v0.9h-2.4v2h2.2v0.9h-2.2v2.1h2.5V145.1z"/>
		<path fill="#2D1A46" d="M-109.3,145.1v0.9h-3.5v-7h3.4v0.9h-2.4v2h2.2v0.9h-2.2v2.1h2.5V145.1z"/>
		<path fill="#2D1A46" d="M-100.2,145.5v0.6h-3.2v-7h0.6v6.4H-100.2z"/>
		<path fill="#2D1A46" d="M-93.9,139.1v7h-0.6v-7H-93.9z"/>
		<path fill="#2D1A46" d="M-83.7,139.1v7h-0.6l-1.9-4.1c-0.2-0.5-0.6-1.3-0.7-1.7l0,0c0,0.5,0,1.3,0,1.9v3.9h-0.6v-7h0.6l1.9,4.1
			c0.2,0.5,0.6,1.3,0.8,1.7l0,0c0-0.5-0.1-1.4-0.1-2v-3.8L-83.7,139.1L-83.7,139.1z"/>
		<path fill="#2D1A46" d="M-74,145.5v0.6h-3.4v-7h3.3v0.6h-2.6v2.6h2.5v0.6h-2.5v2.7L-74,145.5L-74,145.5z"/>
	</g>
</g>
<path fill="none" stroke="#918A91" stroke-width="0.9469" stroke-linecap="round" stroke-linejoin="round" stroke-miterlimit="10" d="
	M-156.1,148l5.8-6.1c1.3-1.3,2-4.4-0.6-5"/>
<path fill="none" stroke="#4D4159" stroke-width="0.9469" stroke-linecap="round" stroke-linejoin="round" stroke-miterlimit="10" d="
	M-164.3,145l6.2-6.3c0,0-2.9-3.1-4.6-1.1c-1.8,2,1.2,4.5,1.2,4.5l5.4,5.9"/>
<line fill="none" stroke="#4D4159" stroke-width="0.9469" stroke-linecap="round" stroke-linejoin="round" stroke-miterlimit="10" x1="-158.7" y1="145.1" x2="-150.8" y2="136.9"/>
</svg>
