<svg xmlns="http://www.w3.org/2000/svg" viewBox="-256 405.7 82.2 30.2"><style>.st0{fill:#f7e05d}.st1{fill:#df9143}.st2{fill:#427454}.st3{fill:#27200f}</style><path class="st0" d="M-197.6 420.7l-.1-.6c-.2-.3-2-.6-2.3-.6-.1 0-3-.3-3.2.1a5 5 0 0 0-.2 2.4c.2-.3 1.6-1.2 2-1.4.3-.1 1.9-.7 2.8 1 0 .1.1.1-.1.1l-.2-.1c0-.3-.5-.5-.6-.5-.4-.1-.8-.2-1.2-.1-1.5.4-2.4 2-2.5 2.4-.2.5-.8 2.4 1 4l.8.5c.8.3 2.4.5 3.1.1.1 0 .1-.1 0-.1-.1-.1-2.1-.6-2.8-1-.6-.3-.6-2.8-.3-3.5.1-.2-.3-.1-.6.1l-.5.3c-.1-.1.1-.3.2-.3.8-.8 2-.3 2.2-.3l.5.3-.1.1-1.2-.3c-.4.2-.1 2.3-.1 2.3l.3.6c1.4.8 6.4-.1 6.8-.5-1.5-.6-2.9-2.5-3.7-5z"/><path class="st1" d="M-174.1 425.3c-.1-.1-.9-1.3-2.3-1.3l-1 .2c-.8.3-1.7.6-1.7 1.3.1.2.5.4 1.7.8-.5.2-5.3-1.3-5.7-3a4.9 4.9 0 0 1-4.4-2.8c0 4.9-6.9 6.5-10.6 6.8 3.3 1.5 7 6 7.5 6.3 1.7 1 7.1.4 7.2.3 6.2-.6 10.9-6.7 9.3-8.6zm-16.8 4.5c5.5 2.9 12.6-.2 14.1-3.9-1.5 5.6-11.4 6.7-14.1 3.9z"/><path class="st0" d="M-187.1 411c-1.4-1.5-3.7-1.7-3.7-1.8-.3-.8 1.7-2.8 2.3-3.4.1-.1 0-.1-.1-.1s-5 .6-6.7 2.7c-.1-.8.3-1.9.8-2.6l-.2-.1c-4.6 1-8.4 9.3-8.4 12.7.4.3 3.4.2 5.3 1-.5-3.1.4-5.8 2.3-6.4 1.5-.5 3.2.6 4.4 2.6a2 2 0 0 1 1.1-1.3c.3-.1.7-.1 1 .1.1-1.6.8-3 1.9-3.4z"/><ellipse transform="scale(-1) rotate(70.3 595.4 275)" class="st3" cx="-193.7" cy="419.3" rx="5.8" ry="3.3"/><ellipse transform="scale(-1) rotate(70.3 592.1 262.4)" class="st3" cx="-184.8" cy="417" rx="5.8" ry="3.3"/><path d="M-191 418.1c-.1-.8.4-2.6 1.2-2.9.7-.3 1.2.1 1.8.6" fill="none" stroke="#27200f" stroke-miterlimit="10"/><path class="st1" d="M-195.8 429.3c.3.6.6 1.2 1.1 1.7a5 5 0 0 0 1.4 1.5c1 1 2.1 1.7 3.4 2.1s2.6.6 4 .5 2.7-.5 4-1l.1.1-.1.1a9.5 9.5 0 0 1-4.1 1.4c-1.4.2-3 .1-4.3-.5s-2.6-1.3-3.7-2.4a9.1 9.1 0 0 1-2.1-3.7l.1-.1.2.3z"/><g><path class="st2" d="M-250.1 414l1.1.2c.5.2.9.5 1.1 1 .3.4.4.9.4 1.3 0 .5-.2 1-.5 1.4l-.5.5-.6.3-.1.1c0 .1.1.2.3.2l.7.1.5-.1h.1l.1.1.1.2-.2.4-.6.3-.7.1-1-.2-1.5-.6-.4-.1-.4-.1h-.1-.1l-.1-.1v-.1l.1-.3.4-.2h.2l.1-.1-.1-.2a3 3 0 0 1-.5-.7c-.2-.3-.2-.7-.2-1.1 0-.5.1-.9.4-1.3.3-.4.6-.7 1.1-.9l.9-.1zm-.3 1l-.4.2-.2.5.1.8.3.9c.2.4.4.5.7.5l.5-.2.2-.5-.1-.9-.4-.9c-.2-.2-.4-.4-.7-.4zM-245.2 415.6v1.9c0 .4.1.6.4.6l.2-.1.1-.1.1-.7v-.8-.1l-.1-.1-.2-.3.3-.3 1.3-.2c.2 0 .4.1.4.4v2.1l.2.2.2.2c0 .2-.2.4-.7.5l-.8.1h-.2l-.1-.2-.1-.2h-.1l-.2.1c-.2.2-.5.2-.8.2-.4 0-.8-.1-.9-.4-.2-.2-.2-.6-.2-1.1v-.5-.2l-.1-.4-.2-.2-.2-.1v-.1c0-.2.1-.3.4-.4l1.4-.2c-.2.2-.1.2-.1.4z"/><path class="st2" d="M-240.4 415.6v2.4l.2.2.1.1v.1c0 .3-.4.5-1.1.5l-1-.1-.2-.1-.1-.2v-.1l.2-.2.2-.3v-.5-.4-.4l-.2-.2-.2-.3c0-.1.1-.3.3-.3l.8-.3.7-.1c.3 0 .3.1.3.2zm-.7-1.5l.5.1.2.3c0 .2-.1.3-.3.4-.3.2-.6.2-1 .2l-.4-.1-.2-.3c0-.2.1-.4.4-.5l.8-.1zM-237.8 415.4c.4 0 .8.1 1.1.3.3.2.5.4.5.7l-.2.5-.5.2-.4-.2-.1-.3c-.1-.2-.2-.3-.4-.3l-.3.2-.1.4c0 .3.1.5.3.7l.6.3h.3l.3-.1h.1l.2.1.1.3-.1.3-.3.3a2 2 0 0 1-1.1.3c-.5 0-.9-.1-1.2-.4-.4-.4-.6-.8-.6-1.4 0-.5.2-1 .6-1.3.2-.5.7-.6 1.2-.6zM-234 414.2v2l.1.1.3-.1.2-.2-.1-.1-.1-.1c0-.3.3-.4.9-.4l.8.1.2.1.1.2-.1.2h-.2l-.4.2-.2.2.3.5.6.7.3.3.3.2.3.3-.2.3-.4.1h-1.1l-.3-.2-.6-.7-.3-.3-.1-.1-.1.1c-.1.1 0 .1 0 .2v.2l.2.2.1.2c0 .2-.1.3-.3.4l-.9.1-.9-.1-.2-.1-.1-.2.1-.2.2-.1.1-.1.1-1.5v-.8-.5l-.2-.1c-.2 0-.3-.1-.3-.2l.1-.2.4-.2a5 5 0 0 1 1.4-.3c-.1-.2 0-.2 0-.1zM-226.3 414l1.1.2c.5.2.9.5 1.1 1 .3.4.4.9.4 1.3 0 .5-.2 1-.5 1.4l-.5.5-.6.3-.1.1c0 .1.1.2.3.2l.7.1.5-.1h.1l.1.1.1.2-.2.4-.6.3-.7.1-1-.2-1.5-.6-.4-.1-.4-.1h-.1-.1l-.1-.1v-.1l.1-.3.4-.2h.2l.1-.1-.1-.2a3 3 0 0 1-.5-.7c-.2-.3-.2-.7-.2-1.1 0-.5.1-.9.4-1.3.3-.4.6-.7 1.1-.9l.9-.1zm-.4 1l-.4.2-.2.5.1.8.3.9c.2.4.4.5.7.5l.5-.2.2-.5-.1-.9-.4-.9a.8.8 0 0 0-.7-.4zM-221.5 415.6v1.9c0 .4.1.6.4.6l.2-.1.1-.1.1-.7v-.8-.1l-.1-.1-.2-.3.3-.3 1.3-.2c.2 0 .4.1.4.4v2.1l.2.2.2.2c0 .2-.2.4-.7.5l-.8.1h-.2l-.1-.2-.1-.2h-.1l-.2.1c-.2.2-.5.2-.8.2-.4 0-.8-.1-.9-.4-.2-.2-.2-.6-.2-1.1v-.5-.2l-.1-.4-.2-.2-.2-.1v-.1c0-.2.1-.3.4-.4l1.4-.2c-.2.2-.1.2-.1.4zM-216.6 415.4c.4 0 .7.1 1 .3.1.1.3.2.3.4l.1.6v.5l.1.7.1.1h.1l.1.1-.1.3-.3.3-.5.2-.6-.3-.1-.1-.2.1c-.2.2-.5.3-.8.3l-.7-.2-.3-.3-.1-.4c0-.2.1-.5.3-.6.3-.3.8-.4 1.4-.4h.3l.1-.2-.1-.5c-.1-.1-.1-.2-.3-.2l-.2.1-.2.2c-.2.3-.4.4-.6.4l-.3-.1-.1-.3.1-.3.4-.3c.2-.3.7-.4 1.1-.4zm-.2 2l-.3.1-.1.3.1.3.2.1c.2 0 .3-.2.3-.5v-.3c0-.1-.1 0-.2 0zM-212.5 415.4c.4 0 .8.1 1.1.3.3.2.5.4.5.7l-.2.5-.5.2-.4-.2-.1-.3c-.1-.2-.2-.3-.4-.3l-.3.2-.1.4c0 .3.1.5.3.7l.6.3h.3l.3-.1h.1l.2.1.1.3-.1.3-.3.3a2 2 0 0 1-1.1.3c-.5 0-.9-.1-1.2-.4-.4-.4-.6-.8-.6-1.4 0-.5.2-1 .6-1.3.2-.5.6-.6 1.2-.6zM-208.8 414.2v2l.1.1.3-.1.2-.2-.1-.1-.1-.1c0-.3.3-.4.9-.4l.8.1.2.1.1.2c0 .1 0 .2-.2.2h-.2l-.4.2-.2.2.3.5.5.7.3.3.3.2.3.3-.2.3-.4.1h-1.1l-.3-.2-.6-.7-.3-.3-.1-.1-.1.1v.4l.2.2.1.2c0 .2-.1.3-.3.4l-.9.1-.9-.1-.2-.1-.1-.2.1-.2.2-.1.1-.1.1-1.5v-.8-.5l-.2-.1c-.2 0-.3-.1-.3-.2l.1-.2.4-.2a5 5 0 0 1 1.4-.3l.2-.1z"/></g><path class="st2" d="M-253.2 430.1l1.6-7.9c0-.8.6-1.4 1.4-1.4h-.9c-.8 0-1.4.6-1.4 1.4l-1.6 7.9c0 .8.6 1.4 1.4 1.4h.9c-.7 0-1.4-.6-1.4-1.4z"/><path class="st2" d="M-255.1 430.1l1.6-7.9c0-.8.6-1.4 1.4-1.4h-.9c-.8 0-1.4.6-1.4 1.4l-1.6 7.9c0 .8.6 1.4 1.4 1.4h.9c-.8 0-1.4-.6-1.4-1.4z"/><g><path class="st2" d="M-235.1 424.6h-.9l-.2 1.2h.9c.3 0 .6-.2.6-.6.1-.4 0-.6-.4-.6zM-221.3 424.8v-.2h-.1l-.4 1.3-.5 1.1h1l-.1-1.1.1-1.1zM-240.5 424.8v-.2h-.1l-.4 1.3-.5 1.1h1l-.1-1.1.1-1.1z"/><path class="st2" d="M-206 420.8h-43.7c-.6 0-1.1.6-1.1 1.4l-1.3 7.9c0 .8.5 1.4 1.1 1.4h43.7c.6 0 1.1-.6 1.1-1.4l1.3-7.9c0-.8-.5-1.4-1.1-1.4zm-40.5 8.9c-.8 0-1.3-.2-1.7-.7-.4-.5-.5-1.1-.4-2l.3-1.7c.2-1.6 1.3-2.5 2.8-2.5 1.2 0 1.8.6 2 1.7.1.3 0 .4-.3.5l-.8.3c-.3.1-.3 0-.4-.3-.1-.4-.3-.6-.7-.6-.6 0-.9.3-1 1l-.3 1.7c-.1.7.1 1 .7 1 .4 0 .7-.2.9-.6.2-.3.2-.4.5-.3l.8.4c.2.1.3.3.1.5-.4 1.1-1.2 1.6-2.5 1.6zm7.7-.1h-.8c-.4 0-.5-.1-.5-.4l-.1-.7h-1.7l-.3.7c-.1.3-.3.4-.6.4h-.9c-.2 0-.3-.1-.2-.4l2.7-5.9c.1-.3.2-.3.5-.3h.9c.2 0 .3.1.4.3l1 5.9c-.1.2-.2.4-.4.4zm5.8-4.3c-.1.9-.5 1.5-1.1 1.8l.2.4.5 1.6c.1.3 0 .5-.3.5h-.9c-.4 0-.6-.1-.7-.4l-.3-1.3c-.1-.4-.2-.5-.5-.5h-.2l-.3 1.8c-.1.3-.1.4-.4.4h-.9c-.3 0-.3-.1-.3-.4l.9-5.8c.1-.3.1-.4.4-.4h2.3c1.2-.1 1.8.8 1.6 2.3zm6.7 4.3h-1c-.2 0-.4-.1-.4-.3l-.1-2.2.1-1.7h-.1l-.4 1.7-.8 2.2c-.1.3-.2.3-.5.3h-1c-.2 0-.4-.1-.4-.3l-.3-5.9c0-.3 0-.4.3-.4h1c.3 0 .4.1.4.3v2.4l-.1 1.7h.1l.4-1.7.9-2.4c.1-.3.2-.3.5-.3h.9c.3 0 .4.1.4.3l.1 2.4-.1 1.7h.1l.4-1.7.7-2.4c.1-.3.2-.3.5-.3h.9c.2 0 .3.1.2.4l-2.1 5.9-.6.3zm6.7 0h-.8c-.4 0-.5-.1-.5-.4l-.1-.7h-1.7l-.3.7c-.1.3-.3.4-.6.4h-1c-.2 0-.3-.1-.2-.4l2.7-5.9c.1-.3.2-.3.5-.3h1c.2 0 .3.1.4.3l1 5.9c-.1.2-.2.4-.4.4zm3.5-4.2c.9.2 2.1.6 1.8 2.3-.2 1.3-1.1 2-2.7 2-1.2 0-2-.5-2.2-1.4 0-.3.1-.4.3-.5l.8-.3c.3-.1.4-.1.4.2.1.3.4.5.8.5.6 0 .9-.2.9-.5.1-.3-.2-.4-.9-.6-.4-.1-.7-.1-1.1-.4l-.5-.4c-.2-.3-.4-.9-.3-1.6.2-1.2 1.1-1.9 2.6-1.9 1.1 0 1.7.5 2 1.4.1.3 0 .4-.2.5l-.8.4c-.2.1-.3.1-.4-.2s-.3-.5-.7-.5c-.5 0-.8.2-.8.5s.3.4 1 .5zm7.7-2.1l-.9 5.8c-.1.3-.1.4-.4.4h-.9c-.3 0-.3-.1-.3-.4l.3-2.1h-1.6l-.3 2.1c0 .3-.1.4-.4.4h-.9c-.3 0-.3-.1-.3-.4l.9-5.8c.1-.3.1-.4.4-.4h.9c.3 0 .3.1.3.4l-.3 2.1h1.6l.3-2.1c0-.3.2-.4.4-.4h.9c.3 0 .4.1.3.4z"/></g></svg>
