<svg xmlns="http://www.w3.org/2000/svg" id="Слой_1" viewBox="-356.4 575.2 82.2 30.2"><style>.st0{fill:#F7E05D;} .st1{fill:#DF9143;} .st2{fill:#427454;} .st3{fill:#27200F;} .st4{fill:none;stroke:#27200F;stroke-miterlimit:10;} .st5{font-family:&apos;CooperBlack&apos;;} .st6{font-size:7.1509px;}</style><path d="M-298 590.2c-.1-.2-.1-.4-.1-.6-.2-.3-2-.6-2.3-.6-.1 0-3-.3-3.2.1-.3.5-.3 2-.2 2.4.2-.3 1.6-1.2 2-1.4.3-.1 1.9-.7 2.8 1 0 .1.1.1-.1.1-.1 0-.2 0-.2-.1 0-.3-.5-.5-.6-.5-.4-.1-.8-.2-1.2-.1-1.5.4-2.4 2-2.5 2.4-.2.5-.8 2.4 1 4 .3.3.5.4.8.5.8.3 2.4.5 3.1.1.1 0 .1-.1 0-.1-.1-.1-2.1-.6-2.8-1-.6-.3-.6-2.8-.3-3.5.1-.2-.3-.1-.6.1-.3.1-.5.3-.5.3-.1-.1.1-.3.2-.3.8-.8 2-.3 2.2-.3.3.1.5.2.5.3s-.1.1-.1.1-1-.3-1.2-.3c-.4.2-.1 2.3-.1 2.3.1.4.2.6.3.6 1.4.8 6.4-.1 6.8-.5-1.5-.6-2.9-2.5-3.7-5z" class="st0"/><path d="M-274.5 594.8c-.1-.1-.9-1.3-2.3-1.3-.3 0-.7.1-1 .2-.8.3-1.7.6-1.7 1.3.1.2.5.4 1.7.8-.5.2-5.3-1.3-5.7-3-1.6-.1-3.2-.6-4.4-2.8 0 4.9-6.9 6.5-10.6 6.8 3.3 1.5 7 6 7.5 6.3 1.7 1 7.1.4 7.2.3 6.2-.6 10.9-6.7 9.3-8.6zm-16.8 4.5c5.5 2.9 12.6-.2 14.1-3.9-1.5 5.6-11.4 6.7-14.1 3.9z" class="st1"/><path d="M-287.5 580.5c-1.4-1.5-3.7-1.7-3.7-1.8-.3-.8 1.7-2.8 2.3-3.4.1-.1 0-.1-.1-.1s-5 .6-6.7 2.7c-.1-.8.3-1.9.8-2.6 0-.1-.1-.1-.2-.1-4.6 1-8.4 9.3-8.4 12.7.4.3 3.4.2 5.3 1-.5-3.1.4-5.8 2.3-6.4 1.5-.5 3.2.6 4.4 2.6.2-.6.6-1.1 1.1-1.3.3-.1.7-.1 1 .1.1-1.6.8-3 1.9-3.4z" class="st0"/><ellipse cx="-294.1" cy="588.8" transform="rotate(-20 -294.166 588.836)" class="st3" rx="3.3" ry="5.8"/><ellipse cx="-285.2" cy="586.5" transform="rotate(-20 -285.243 586.567)" class="st3" rx="3.3" ry="5.8"/><path d="M-291.4 587.6c-.1-.8.4-2.6 1.2-2.9.7-.3 1.2.1 1.8.6" class="st4"/><path d="M-296.2 598.8c.3.6.6 1.2 1.1 1.7.4.6.8 1.1 1.4 1.5 1 1 2.1 1.7 3.4 2.1s2.6.6 4 .5c1.4-.1 2.7-.5 4-1 .1 0 .1 0 .1.1s0 .1-.1.1c-1.2.8-2.6 1.2-4.1 1.4-1.4.2-3 .1-4.3-.5s-2.6-1.3-3.7-2.4c-1-1.1-1.7-2.3-2.1-3.7 0-.1 0-.1.1-.1.2.2.2.2.2.3z" class="st1"/><text transform="translate(-353.272 588.302)" class="st2 st5 st6">Quick Quack</text><path d="M-353.6 599.6l1.6-7.9c0-.8.6-1.4 1.4-1.4h-.9c-.8 0-1.4.6-1.4 1.4l-1.6 7.9c0 .8.6 1.4 1.4 1.4h.9c-.7 0-1.4-.6-1.4-1.4z" class="st2"/><path d="M-355.5 599.6l1.6-7.9c0-.8.6-1.4 1.4-1.4h-.9c-.8 0-1.4.6-1.4 1.4l-1.6 7.9c0 .8.6 1.4 1.4 1.4h.9c-.8 0-1.4-.6-1.4-1.4z" class="st2"/><g><path d="M-335.5 594.1h-.9l-.2 1.2h.9c.3 0 .6-.2.6-.6.1-.4 0-.6-.4-.6z" class="st2"/><path d="M-321.7 594.3v-.2h-.1c-.1.4-.2.9-.4 1.3l-.5 1.1h1l-.1-1.1c0-.4 0-.8.1-1.1z" class="st2"/><path d="M-340.9 594.3v-.2h-.1c-.1.4-.2.9-.4 1.3l-.5 1.1h1l-.1-1.1c0-.4 0-.8.1-1.1z" class="st2"/><path d="M-306.4 590.3h-43.7c-.6 0-1.1.6-1.1 1.4l-1.3 7.9c0 .8.5 1.4 1.1 1.4h43.7c.6 0 1.1-.6 1.1-1.4l1.3-7.9c0-.8-.5-1.4-1.1-1.4zm-40.5 8.9c-.8 0-1.3-.2-1.7-.7-.4-.5-.5-1.1-.4-2l.3-1.7c.2-1.6 1.3-2.5 2.8-2.5 1.2 0 1.8.6 2 1.7.1.3 0 .4-.3.5l-.8.3c-.3.1-.3 0-.4-.3-.1-.4-.3-.6-.7-.6-.6 0-.9.3-1 1l-.3 1.7c-.1.7.1 1 .7 1 .4 0 .7-.2.9-.6.2-.3.2-.4.5-.3l.8.4c.2.1.3.3.1.5-.4 1.1-1.2 1.6-2.5 1.6zm7.7-.1h-.8c-.4 0-.5-.1-.5-.4l-.1-.7h-1.7l-.3.7c-.1.3-.3.4-.6.4h-.9c-.2 0-.3-.1-.2-.4l2.7-5.9c.1-.3.2-.3.5-.3h.9c.2 0 .3.1.4.3l1 5.9c-.1.2-.2.4-.4.4zm5.8-4.3c-.1.9-.5 1.5-1.1 1.8 0 .1.1.2.2.4l.5 1.6c.1.3 0 .5-.3.5h-.9c-.4 0-.6-.1-.7-.4l-.3-1.3c-.1-.4-.2-.5-.5-.5h-.2l-.3 1.8c-.1.3-.1.4-.4.4h-.9c-.3 0-.3-.1-.3-.4l.9-5.8c.1-.3.1-.4.4-.4h2.3c1.2-.1 1.8.8 1.6 2.3zm6.7 4.3h-1c-.2 0-.4-.1-.4-.3l-.1-2.2c0-.6 0-1.1.1-1.7h-.1c-.1.6-.2 1.1-.4 1.7l-.8 2.2c-.1.3-.2.3-.5.3h-1c-.2 0-.4-.1-.4-.3l-.3-5.9c0-.3 0-.4.3-.4h1c.3 0 .4.1.4.3v2.4c0 .5-.1 1.1-.1 1.7h.1c.1-.6.2-1.2.4-1.7l.9-2.4c.1-.3.2-.3.5-.3h.9c.3 0 .4.1.4.3l.1 2.4c0 .4 0 1-.1 1.7h.1c.1-.5.2-1 .4-1.7l.7-2.4c.1-.3.2-.3.5-.3h.9c.2 0 .3.1.2.4l-2.1 5.9c-.2.2-.4.3-.6.3zm6.7 0h-.8c-.4 0-.5-.1-.5-.4l-.1-.7h-1.7l-.3.7c-.1.3-.3.4-.6.4h-1c-.2 0-.3-.1-.2-.4l2.7-5.9c.1-.3.2-.3.5-.3h1c.2 0 .3.1.4.3l1 5.9c-.1.2-.2.4-.4.4zm3.5-4.2c.9.2 2.1.6 1.8 2.3-.2 1.3-1.1 2-2.7 2-1.2 0-2-.5-2.2-1.4 0-.3.1-.4.3-.5l.8-.3c.3-.1.4-.1.4.2.1.3.4.5.8.5.6 0 .9-.2.9-.5.1-.3-.2-.4-.9-.6-.4-.1-.7-.1-1.1-.4-.2-.1-.4-.2-.5-.4-.2-.3-.4-.9-.3-1.6.2-1.2 1.1-1.9 2.6-1.9 1.1 0 1.7.5 2 1.4.1.3 0 .4-.2.5l-.8.4c-.2.1-.3.1-.4-.2s-.3-.5-.7-.5c-.5 0-.8.2-.8.5s.3.4 1 .5zm7.7-2.1l-.9 5.8c-.1.3-.1.4-.4.4h-.9c-.3 0-.3-.1-.3-.4l.3-2.1h-1.6l-.3 2.1c0 .3-.1.4-.4.4h-.9c-.3 0-.3-.1-.3-.4l.9-5.8c.1-.3.1-.4.4-.4h.9c.3 0 .3.1.3.4l-.3 2.1h1.6l.3-2.1c0-.3.2-.4.4-.4h.9c.3 0 .4.1.3.4z" class="st2"/></g></svg>