<svg xmlns="http://www.w3.org/2000/svg" id="Слой_1" viewBox="-359.7 585.8 96.5 22.8"><style>.st0{fill:#050708;} .st1{fill:none;stroke:#EC242C;stroke-width:1.5;stroke-miterlimit:10;}</style><path d="M-311.2 599l.4-.4c.1-.1.3-.2.5 0s1.1 1 2.4 1c1.5 0 2.6-.9 2.6-2.1 0-1.1-1-1.6-2.4-2.3-1.4-.7-2.6-1.5-2.6-2.9s1.1-3.1 3.6-3.1c1.3 0 2.2.5 2.7.9.2.1.2.3.1.5l-.2.4c-.1.2-.3.2-.5.1s-1.1-.7-2.1-.7c-1.6 0-2.3 1.1-2.3 1.9 0 .9.8 1.5 2 2.1 1.6.7 3 1.4 3 3.1 0 2-1.7 3.4-3.9 3.4-1.7 0-2.6-.8-3.1-1.2-.2-.4-.3-.5-.2-.7z" class="st0"/><path d="M-301.5 589.8c-.1-.2 0-.4.3-.4h.6c.1 0 .2.1.3.2l2.8 9.3h.1l5.1-9.3c.1-.2.2-.2.4-.2h.6c.2 0 .3.2.2.4l-10.3 18.6c-.1.1-.2.2-.4.2h-.6c-.2 0-.3-.1-.2-.4l4.4-8-3.3-10.4z" class="st0"/><path d="M-288.3 590.4h-1.2c-.3 0-.3-.1-.2-.4l.1-.4c0-.2.2-.3.4-.3h1.2l.4-3c0-.2.2-.4.4-.4h.5c.2 0 .3.2.3.4l-.4 3h3.3c.2 0 .3.2.3.4l-.1.4c0 .2-.2.4-.4.4h-3.4l-1 7c-.2 1.3-.1 2 .9 2 .9 0 2-.5 2.3-.8.2-.1.3 0 .4.1l.2.4c.1.2.1.3-.1.5-.4.3-1.6 1-3 1-1.9 0-2.1-1.3-1.8-3.1l.9-7.2z" class="st0"/><path d="M-275.8 589.1c1.9 0 3.4 1.1 3.4 2.8 0 4.1-8 3.3-8 3.3-.2 2.4 1 4.3 3.2 4.3 1.3 0 2.5-.7 3-1.1.2-.2.3-.1.4.1l.2.4c.1.1.1.3-.1.4-.4.3-2 1.3-3.9 1.3-2.6 0-4.1-2.2-4.1-4.9.1-3.5 2.5-6.6 5.9-6.6zm2.2 2.9c0-1-1-1.7-2.4-1.7-2.1 0-3.8 1.7-4.3 3.9 3.1.2 6.7-.1 6.7-2.2z" class="st0"/><path d="M-270.5 599l.4-.4c.1-.1.3-.2.5 0s1.1 1 2.4 1c1.5 0 2.6-.9 2.6-2.1 0-1.1-1-1.6-2.4-2.3-1.4-.7-2.6-1.5-2.6-2.9s1.1-3.1 3.6-3.1c1.3 0 2.2.5 2.7.9.2.1.2.3.1.5l-.2.4c-.1.2-.3.2-.5.1s-1.1-.7-2.1-.7c-1.6 0-2.3 1.1-2.3 1.9 0 .9.8 1.5 2 2.1 1.6.7 3 1.4 3 3.1 0 2-1.7 3.4-3.9 3.4-1.7 0-2.6-.8-3.1-1.2-.3-.4-.4-.5-.2-.7z" class="st0"/><g><path d="M-359.7 590.3c0-.3.2-.5.5-.5h1.1c.2 0 .3.1.4.3l.4 1c.6-.6 1.7-1.5 3.3-1.5 1.4 0 2.3.5 3.2 1.5.6-.6 1.7-1.5 3.4-1.5 3 0 4.5 2.3 4.5 5.1v4.4c0 .2-.2.5-.5.5h-2.6c-.3 0-.5-.2-.5-.5v-4.6c0-1-.5-1.8-1.6-1.8-.9 0-1.6.7-1.6 1.7v4.7c0 .2-.2.5-.5.5h-2.3c-.3 0-.5-.2-.5-.5v-4.6c0-1-.4-1.8-1.5-1.8-1 0-1.7.7-1.7 1.7v4.7c0 .2-.2.5-.5.5h-2.6c-.3 0-.5-.2-.5-.5v-8.8z" class="st0"/><path d="M-341.7 590.5c-.1-.3 0-.6.4-.6h2.8c.2 0 .3.1.4.3l1.9 4.5 1.9-4.5c0-.1.2-.3.4-.3h2.8c.4 0 .6.3.4.6l-7.4 16.1c-.1.1-.2.3-.4.3h-2.7c-.4 0-.6-.3-.4-.7l3.6-7.6-3.7-8.1z" class="st0"/></g><path d="M-321.9 591.1c0-.4.1-2 1.4-3.2 1-.9 2.2-1.8 4.2-1.1 1.9.6 2.2 3.1 2.3 3.6.5 3.3-1.8 7.2-5.2 8.1-1.4.4-2.6.2-3.3.1" class="st1"/><path d="M-321.4 602.3c0 .4-.2 2-1.6 3.2-1 .9-2.3 1.7-4.3.9-1.9-.7-2.1-3.2-2.1-3.8-.4-3.3 2.2-7.1 5.6-7.9 1.4-.3 2.6-.1 3.3.1" class="st1"/></svg>