<svg xmlns="http://www.w3.org/2000/svg" viewBox="-911 272.9 121.3 23"><g fill="#292929"><path d="M-902.7 272.9c3.8.2 6.3 1.3 8.4 3.4.3.3.5.7.5.7l-1.8 1.8-1.4-1.4.4-.5s-.4-.3-.7-.6c-3-2-7.2-2-10.2-.1-.8.5-.8.7-.8.7 4.4 4.3 9.3 9.4 13.7 13.7l.7.8c-2.3 5.1-12.4 5.2-16.6.9-.2-.2-.6-.7-.6-.7l1.7-1.9 1.5 1.4-.5.6s.4.3.7.5c3.3 2 9.9 1.7 11.1-.7 0 0-10.3-10.2-14.6-14.5 0 0 0-.5.8-1.2 2.6-1.9 5.4-2.9 7.7-2.9zM-865.5 272.9h1.9V294h12.3v-.9l1.7-.1v2.9h-15.9zM-878.1 273.1c-3.4-.2-11.1-.1-11.1-.1v1.8h.8V296h1.8v-7.1h8c4.4-.1 7.7-3.5 7.9-7.8.1-4.2-3.2-7.8-7.4-8zm-.8 13.8c-2.3.1-7.7 0-7.7 0v-12.3h1c2.2.1 4.4 0 6.7.1 3.6.1 6.3 2.7 6.3 6 0 3.4-2.7 6.1-6.3 6.2zM-801 272.9c-6.3 0-11.4 5.1-11.4 11.5 0 6.3 5.2 11.5 11.5 11.4 6.3 0 11.3-5.1 11.3-11.4 0-6.4-5.1-11.5-11.4-11.5zm0 21.5c-5.4-.1-9.9-4.6-9.9-10s4.6-9.9 10-9.9 9.9 4.6 9.9 10c-.1 5.3-4.7 9.9-10 9.9z"/><path d="M-808.1 285.1s-.5-7.5 7.9-7.5v2.5h-1.4v-1.2c-5 .8-4.9 4.6-4.9 4.6h4.9v1.5h-6.5zM-844.4 272.9h1.9v22.9h-1.9zM-828.5 272.9h1.9v22.9h-1.9z"/><path d="M-817.9 275.7v-2.8h-19.4v2.8h2v-.9h15.4v.9zM-793.8 283.7s.5 7.5-7.9 7.5v-2.5h1.4v1.2c5-.8 4.9-4.6 4.9-4.6h-4.9v-1.5h6.5z"/></g></svg>