<svg xmlns="http://www.w3.org/2000/svg" viewBox="-264.9 178.1 65.6 49.7"><path fill="#BFBFBF" d="M-243.8 185.5l-8.9 14.9h17"/><path fill="#BFBFBF" d="M-219.6 185.6l-8.9 15h17"/><g fill="none" stroke="#7F7F7F" stroke-width="1.51" stroke-miterlimit="10"><path d="M-207.9 200.6c-.9-12.5-11.3-21.7-24-21.7s-23.1 9.2-24 21.7h48z"/><path d="M-255 210.3c2.9 10 12.1 16.7 23.1 16.7 10.9 0 20.1-6.8 23.1-16.7H-255z"/></g><g fill="#7F7F7F"><path d="M-263.7 202.9c0-.1 0-.1.1-.1h1.8c.1 0 .1 0 .1.1v.2c0 .1 0 .1-.1.1h-.5c-.1 0-.1 0-.1.1v4.1c0 .1 0 .1-.1.1h-.2c-.1 0-.1 0-.1-.1v-4.1c0-.1 0-.1-.1-.1h-.5c-.1 0-.1 0-.1-.1v-.2z"/><path d="M-257.2 206.5c0 .8-.4 1.2-1 1.2s-1-.4-1-1.2V204c0-.8.4-1.2 1-1.2s1 .4 1 1.2v2.5zm-.5-2.4c0-.6-.2-.9-.6-.9s-.6.2-.6.9v2.3c0 .6.2.9.6.9s.6-.2.6-.9v-2.3z"/><path d="M-254.9 202.9c0-.1 0-.1.1-.1h1.8c.1 0 .1 0 .1.1v.2c0 .1 0 .1-.1.1h-.5c-.1 0-.1 0-.1.1v4.1c0 .1 0 .1-.1.1h-.2c-.1 0-.1 0-.1-.1v-4.1c0-.1 0-.1-.1-.1h-.5c-.1 0-.1 0-.1-.1v-.2z"/><path d="M-248.8 207.7c-.1 0-.1 0-.2-.1l-.1-.5c0-.1 0-.1-.2-.1h-.9c-.1 0-.1 0-.2.1l-.1.5c0 .1-.1.1-.2.1h-.2c-.1 0-.1 0-.1-.1l.9-4.6c0-.1 0-.1.2-.1h.3c.1 0 .1 0 .2.1l.9 4.6c0 .1 0 .1-.1.1h-.2zm-1.3-1.3c0 .1 0 .1.1.1h.7c.1 0 .1 0 .1-.1l-.4-2.5h-.1l-.4 2.5z"/><path d="M-245.9 207.7c-.1 0-.1 0-.1-.1V203c0-.1 0-.1.1-.1h.2c.1 0 .1 0 .1.1v4.1c0 .1 0 .1.1.1h1c.1 0 .1 0 .1.1v.2c0 .1 0 .1-.1.1h-1.4z"/><path d="M-236.7 207.7c-.1 0-.1 0-.2-.1l-.1-.5c0-.1 0-.1-.2-.1h-.9c-.1 0-.1 0-.2.1l-.1.5c0 .1-.1.1-.2.1h-.2c-.1 0-.1 0-.1-.1l.9-4.6c0-.1 0-.1.2-.1h.3c.1 0 .1 0 .2.1l.9 4.6c0 .1 0 .1-.1.1h-.2zm-1.3-1.3c0 .1 0 .1.1.1h.7c.1 0 .1 0 .1-.1l-.4-2.5h-.1l-.4 2.5z"/><path d="M-231.7 206.5c0 .8-.4 1.2-1 1.2h-1c-.1 0-.1 0-.1-.1V203c0-.1 0-.1.1-.1h1c.6 0 1 .4 1 1.2v2.4zm-1.7.6c0 .1 0 .1.1.1h.5c.4 0 .6-.2.6-.9V204c0-.6-.2-.9-.6-.9h-.5c-.1 0-.1 0-.1.1v3.9z"/><path d="M-227.2 202.8c.1 0 .1 0 .1.1l-.9 4.6c0 .1 0 .1-.2.1h-.2c-.1 0-.1 0-.2-.1l-.9-4.6c0-.1 0-.1.1-.1h.2c.1 0 .1 0 .2.1l.6 3.7h.1l.6-3.7c0-.1.1-.1.2-.1h.3z"/><path d="M-224.5 207.7c-.1 0-.1 0-.1-.1V203c0-.1 0-.1.1-.1h1.4c.1 0 .1 0 .1.1v.2c0 .1 0 .1-.1.1h-.9c-.1 0-.1 0-.1.1v1.4c0 .1 0 .1.1.1h.9c.1 0 .1 0 .1.1v.2c0 .1 0 .1-.1.1h-.9c-.1 0-.1 0-.1.1v1.6c0 .1 0 .1.1.1h.9c.1 0 .1 0 .1.1v.2c0 .1 0 .1-.1.1h-1.4z"/><path d="M-218.7 207.7c-.1 0-.1 0-.1-.1l-1.1-3.1h-.1v3c0 .1 0 .1-.1.1h-.2c-.1 0-.1 0-.1-.1v-4.6c0-.1 0-.1.1-.1h.1c.1 0 .1 0 .1.1l1.1 3.1h.1v-3.1c0-.1 0-.1.1-.1h.2c.1 0 .1 0 .1.1v4.6c0 .1 0 .1-.1.1h-.1z"/><path d="M-216 202.9c0-.1 0-.1.1-.1h1.8c.1 0 .1 0 .1.1v.2c0 .1 0 .1-.1.1h-.5c-.1 0-.1 0-.1.1v4.1c0 .1 0 .1-.1.1h-.2c-.1 0-.1 0-.1-.1v-4.1c0-.1 0-.1-.1-.1h-.5c-.1 0-.1 0-.1-.1v-.2z"/><path d="M-209.5 206.5c0 .8-.4 1.2-1 1.2s-1-.4-1-1.2v-3.6c0-.1 0-.1.1-.1h.2c.1 0 .1 0 .1.1v3.5c0 .6.2.9.6.9s.6-.2.6-.9v-3.5c0-.1 0-.1.1-.1h.2c.1 0 .1 0 .1.1v3.6z"/><path d="M-206.8 207.7c-.1 0-.1 0-.1-.1V203c0-.1 0-.1.1-.1h.8c.6 0 1 .4 1 1.2v.4c0 .5-.1.8-.4 1l.4 2.2c0 .1 0 .1-.1.1h-.2c-.1 0-.1 0-.2-.1l-.4-1.9c0-.1 0-.1-.1-.1h-.4c-.1 0-.1 0-.1.1v1.8c0 .1 0 .1-.1.1h-.2zm.3-2.7c0 .1 0 .1.1.1h.3c.4 0 .6-.2.6-.9v-.1c0-.6-.2-.9-.6-.9h-.3c-.1 0-.1 0-.1.1v1.7z"/><path d="M-202.3 207.7c-.1 0-.1 0-.1-.1V203c0-.1 0-.1.1-.1h1.4c.1 0 .1 0 .1.1v.2c0 .1 0 .1-.1.1h-.9c-.1 0-.1 0-.1.1v1.4c0 .1 0 .1.1.1h.9c.1 0 .1 0 .1.1v.2c0 .1 0 .1-.1.1h-.9c-.1 0-.1 0-.1.1v1.6c0 .1 0 .1.1.1h.9c.1 0 .1 0 .1.1v.2c0 .1 0 .1-.1.1h-1.4z"/></g><path fill="none" stroke="#7F7F7F" stroke-width="1.51" stroke-miterlimit="10" d="M-264.1 200.6h64" stroke-linecap="round"/><path fill="none" stroke="#7F7F7F" stroke-width="1.51" stroke-miterlimit="10" d="M-264.1 210.3h64" stroke-linecap="round"/><g fill="#7F7F7F"><path d="M-221.4 201.2l-10.3-16.2-10.5 16.2h20.8zm-4.8-5.5l-2.8 2.2-4.2-2.1-3.5 3.1-1.9-1.3 6.9-10.6 5.5 8.7z"/><path d="M-216 209.7h-31.6l-4.1 6.3c-.2.2-.1.6.1.8l.6.8c.1.2.3.2.5.2h37.1c.2 0 .1-.3.3-.5l1-.9c.2-.2.2-.5 0-.7l-3.9-6z"/></g></svg>