<svg xmlns="http://www.w3.org/2000/svg" viewBox="-362.4 541.7 90.8 16.7"><style>.st0{fill:#401F48;}</style><path d="M-353.4 545.2c.6 0 1.4-.1 1.7-.3v2.4h-.1v-.2c0-.9-.5-1.4-1.4-1.4h-1.9v8.2c0 .5.4.9.9.9h.2v.1h-4.3v-.1h.2c.5 0 .9-.4.9-.9v-8.2h-2.7c-1.5 0-2.4 1.2-1.6 2.6l-.1.1c-1.5-1.4-.4-3.3 1.7-3.3h6.5z" class="st0"/><path d="M-339 545.5c.5-1.8 1.9-4 4.9-3.7v.1c-2.3.1-3.4 2-3.9 3.6l-2.6 8.2s-.3.9-.2 1.6h-.1l-3.1-6.8-2.5 5.9c-.5 1.4-2.1 3.5-4.2 3v-.1c1.8-.1 3-2.2 3.5-3.4l-2.8-7.7c-.3-.6-.8-.8-1.2-.8h-.1v-.1h4.3v.1h-.1c-.4 0-.7.3-.5.9l1.7 4.9 2.5-6.1h.1l2.8 6.2 1.5-5.8z" class="st0"/><path d="M-325.1 557.5c-2.4 1.2-5.5 0-7.1-4.2l-.4-1.2h-3.3l-.7 1.8c-.2.6.2.9.5.9h.1v.1h-3v-.1h.1c.4 0 .9-.2 1.2-.8l3.1-7.1c-.6-1.4-1.5-2.5-3-1.9v-.1c2.9-1.5 4.5.4 5.6 2.9l2 5c.9 2.3 2.4 5.2 4.9 4.6v.1zm-7.8-5.9l-1-2.6c-.1-.3-.2-.7-.4-1l-1.5 3.6h2.9z" class="st0"/><path d="M-330.2 547.8c.5-1.9 2-2.6 4.3-2.7h3.2c3.3 0 5.4 1.9 5.4 4.9 0 3-2.1 4.9-5.4 4.9h-5.1v-.1h.2c.5 0 .9-.4.9-.8v-8.2c-2.2.2-2.9 1-3.3 2.1l-.2-.1zm5.6 6.6h1.7c2 0 3.3-1.6 3.3-4.3 0-2.7-1.3-4.3-3.3-4.3h-1.7v8.6z" class="st0"/><path d="M-302.6 556.5c-2.8 3.9-7.7.8-10.5-.6-.9-.4-1.9-.9-3.3-.9v-.1h.2c.5 0 .9-.4.9-.9v-7.8c0-.5-.4-.9-.9-.9h-.2v-.1h4.3v.1h-.1c-.5 0-.9.4-.9.9v8.1c0 .5.1.7.6.9 4.5 1.5 8.1 2.4 10 1.1l-.1.2z" class="st0"/><path d="M-306.5 548.7c-.7-1.4 0-3.5 2.4-3.7 2.5-.3 5.6 1.6 5.6 5 0 3.1-2.5 5.2-6.1 5.2-3.6 0-6.1-2.1-6.1-5.2 0-2.3 1.4-4.2 3.7-4.8l.1.1c-1 .8-1.4 2.6-1.4 4.3 0 3.1 1.6 5 3.8 5 2.2 0 3.8-1.8 3.8-4.6 0-2.5-1.2-4.5-3.3-4.4-1.8.1-2.5 1.7-2.2 3.1h-.3z" class="st0"/><path d="M-286.4 549.5c.4 3.7-1.7 5.7-4.8 5.7-3.9 0-6.2-2.1-6.2-5.1 0-3.1 2.4-5.1 6.1-5.1 1.5 0 2.8.3 3.6.8v2.4h-.1c-.5-1.9-2-2.6-3.5-2.6-2.4 0-3.9 1.8-3.9 4.4 0 2.6 1.5 4.5 4.1 4.6 2.7 0 4.6-1.8 4.5-5.1h.2z" class="st0"/><path d="M-282.5 554c0 .5.4.9.9.9h.2v.1h-4.3v-.1h.2c.5 0 .9-.4.9-.9v-7.8c0-.5-.4-.9-.9-.9h-.2v-.1h4.3v.1h-.2c-.5 0-.9.4-.9.9v7.8zm10.9 3.4c-2.3 1.2-4.5.4-6.8-2.5l-3.7-4.5 3.3-4.4c.2-.3.1-.7-.3-.7h-.1v-.1h3.2v.1h-.1c-.6 0-1.2.3-1.5.7l-2.7 3.2 3.8 4.7c1.7 2.2 3 3.2 4.9 3.3v.2z" class="st0"/></svg>
