<svg version="1.1" id="Слой_1" xmlns="http://www.w3.org/2000/svg" xmlns:xlink="http://www.w3.org/1999/xlink" x="0px" y="0px"
	 viewBox="-166 138.6 92.2 16.8" enable-background="new -166 138.6 92.2 16.8" xml:space="preserve">
<g id="Layer_1">
	<g>
		<path fill="#231F20" d="M-130.8,144c-2.6-0.2-4.7-0.5-4.7-1.8c0-0.3,0.1-0.6,0.4-0.9c0.8-0.8,2.5-1,3.9-1c1.9,0,3.5,0.6,4.6,1.6
			l0.1,0.1l1.3-1.1l-0.1-0.1c-1.5-1.3-3.6-2.1-5.9-2.1c-1.6,0-3,0.3-4,0.9c-1.2,0.6-1.8,1.5-1.8,2.6c0,1.2,0.6,2.8,6,3.3
			c3.1,0.3,4.6,0.6,4.6,1.8c0,1.3-1.6,2.1-4.2,2.1c-2.3,0-4.1-0.7-5.7-2.1l-0.1-0.1l-1.1,1.2l0.1,0.1c1.7,1.5,4.1,2.4,6.7,2.4
			c3.6,0,5.9-1.5,5.9-3.8C-124.9,144.8-127.7,144.2-130.8,144z"/>
		<path fill="#231F20" d="M-94.2,140.2c2,0,3.5,0.7,4.4,2.1l0.1,0.1l1.5-0.8l-0.1-0.1c-1.2-1.8-3.2-2.8-5.9-2.8c-4.3,0-7,2.4-7,6.1
			s2.7,6.1,6.9,6.1c2.7,0,4.8-1,5.9-2.8l0.1-0.1l-1.5-0.8l-0.1,0.1c-0.8,1.4-2.3,2.1-4.4,2.1c-3.4,0-5.3-1.7-5.3-4.6
			C-99.5,141.8-97.6,140.2-94.2,140.2z"/>
		<polygon fill="#231F20" points="-79.8,143.6 -73.9,138.9 -76.3,138.9 -84.7,145.5 -84.7,138.9 -86.4,138.9 -86.4,150.6
			-84.7,150.6 -84.7,147.4 -81.1,144.5 -75.8,150.6 -73.7,150.6 		"/>
		<polygon fill="#231F20" points="-124.1,138.9 -124.1,140.5 -118.7,140.5 -118.7,150.5 -117.1,150.5 -117.1,140.5 -112.5,140.5
			-111.7,138.9 		"/>
		<polygon fill="#231F20" points="-109.4,138.9 -105.5,146 -111.5,146 -112.3,147.5 -104.7,147.5 -103,150.6 -101.1,150.6
			-107.5,138.9 		"/>
		<path fill="#231F20" d="M-159.8,151.3c3.8,0,6.2-2.3,6.2-5.9v-6.2h-1.8v6.1c0,2.7-1.6,4.3-4.4,4.3c-2.8,0-4.4-1.5-4.4-4.3v-6.1
			h-1.8v6.2C-166,149-163.6,151.3-159.8,151.3z"/>
		<polygon fill="#231F20" points="-165.9,155.5 -140.3,155.5 -140.3,153.7 -165.9,153.7 		"/>
		<path fill="#231F20" d="M-143.7,139.1h-7.8v1.7h7.7c1.8,0,2.8,0.7,2.8,2.1c0,1.4-1,2.1-2.8,2.1h-7.7v5.9h1.8v-4.1h6
			c2.8,0,4.6-1.5,4.6-3.8S-140.9,139.1-143.7,139.1z"/>
	</g>
</g>
<g id="Layer_2">
</g>
</svg>
