<svg xmlns="http://www.w3.org/2000/svg" viewBox="-166 138.6 92.2 16.8"><g fill="#231F20"><path d="M-130.8 144c-2.6-.2-4.7-.5-4.7-1.8 0-.3.1-.6.4-.9.8-.8 2.5-1 3.9-1 1.9 0 3.5.6 4.6 1.6l.1.1 1.3-1.1-.1-.1c-1.5-1.3-3.6-2.1-5.9-2.1-1.6 0-3 .3-4 .9-1.2.6-1.8 1.5-1.8 2.6 0 1.2.6 2.8 6 3.3 3.1.3 4.6.6 4.6 1.8 0 1.3-1.6 2.1-4.2 2.1-2.3 0-4.1-.7-5.7-2.1l-.1-.1-1.1 1.2.1.1c1.7 1.5 4.1 2.4 6.7 2.4 3.6 0 5.9-1.5 5.9-3.8-.1-2.3-2.9-2.9-6-3.1zM-94.2 140.2c2 0 3.5.7 4.4 2.1l.1.1 1.5-.8-.1-.1c-1.2-1.8-3.2-2.8-5.9-2.8-4.3 0-7 2.4-7 6.1s2.7 6.1 6.9 6.1c2.7 0 4.8-1 5.9-2.8l.1-.1-1.5-.8-.1.1c-.8 1.4-2.3 2.1-4.4 2.1-3.4 0-5.3-1.7-5.3-4.6.1-3 2-4.6 5.4-4.6zM-79.8 143.6l5.9-4.7h-2.4l-8.4 6.6v-6.6h-1.7v11.7h1.7v-3.2l3.6-2.9 5.3 6.1h2.1zM-124.1 138.9v1.6h5.4v10h1.6v-10h4.6l.8-1.6zM-109.4 138.9l3.9 7.1h-6l-.8 1.5h7.6l1.7 3.1h1.9l-6.4-11.7zM-159.8 151.3c3.8 0 6.2-2.3 6.2-5.9v-6.2h-1.8v6.1c0 2.7-1.6 4.3-4.4 4.3-2.8 0-4.4-1.5-4.4-4.3v-6.1h-1.8v6.2c0 3.6 2.4 5.9 6.2 5.9zM-165.9 155.5h25.6v-1.8h-25.6zM-143.7 139.1h-7.8v1.7h7.7c1.8 0 2.8.7 2.8 2.1 0 1.4-1 2.1-2.8 2.1h-7.7v5.9h1.8v-4.1h6c2.8 0 4.6-1.5 4.6-3.8s-1.8-3.9-4.6-3.9z"/></g></svg>