<svg xmlns="http://www.w3.org/2000/svg" id="Слой_1" viewBox="-265 178.1 108.1 43.2"><style>.st0{fill:none;stroke:url(#SVGID_1_);stroke-width:1.3773;stroke-linecap:round;stroke-linejoin:round;stroke-miterlimit:10;} .st1{stroke:#000000;stroke-width:0.6292;stroke-linecap:round;stroke-linejoin:round;stroke-miterlimit:10;}</style><linearGradient id="SVGID_1_" x1="-253.97" x2="-232.5" y1="218.36" y2="181.18" gradientUnits="userSpaceOnUse"><stop offset="0" stop-color="#04161D"/><stop offset=".85" stop-color="#20A6DE"/></linearGradient><path d="M-250.7 189.7h14.8l-15.5 20.8h15.3c.3 0 .5-.1.8-.2 6.9-3.5 11.7-11.3 10.3-18.2-2.2-10.8-16.7-16.5-27-11.4-.1 0-.1.1-.1.1-4.5 2.3-11.1 7.9-12 16.8-1 10 5.9 17.2 9.6 19.6.6.4 1.3.7 1.3.8 4.8 2.6 9.8 2.7 12.3 2.5 6.3-.6 12.7-4.9 16.6-11.7" class="st0"/><g><path d="M-214.3 193.3h-2.7v12.3h2.7v.3h-5.7v-.3h2.7v-12.3h-2.7v-.3h5.7v.3z" class="st1"/><path d="M-202.4 196.8c-.9-2.3-3.1-3.7-5.4-3.7-1.7 0-3.1.7-4.2 1.8s-1.7 2.7-1.7 4.4.7 3.3 1.7 4.4c1.1 1.2 2.6 1.8 4.2 1.8 2.6 0 5.3-2 5.8-4.7h-5.7v-.3h6c0 .4-.1.9-.3 1.3-.8 2.3-3.5 4.1-5.8 4.1-1.7 0-3.3-.8-4.4-1.9-1.1-1.2-1.8-2.8-1.8-4.6 0-1.8.7-3.4 1.8-4.6 1.1-1.2 2.7-1.9 4.4-1.9 2.5 0 4.9 1.5 5.7 4h-.3z" class="st1"/><path d="M-200.1 205.5h6.9v.3h-7.2V193h.3v12.5z" class="st1"/><path d="M-191.9 194.7c1.2-1.2 2.8-1.9 4.6-1.9 1.8 0 3.4.7 4.6 1.9 1.2 1.2 1.9 2.8 1.9 4.6s-.8 3.5-1.9 4.6c-1.2 1.2-2.8 1.9-4.6 1.9-1.8 0-3.4-.7-4.6-1.9-1.2-1.2-1.9-2.8-1.9-4.6s.7-3.4 1.9-4.6zm9 .3c-1.1-1.2-2.7-1.9-4.4-1.9s-3.3.7-4.4 1.9c-1.1 1.1-1.8 2.7-1.8 4.4 0 1.7.7 3.3 1.8 4.4 1.1 1.2 2.7 1.9 4.4 1.9s3.3-.7 4.4-1.9c1.1-1.1 1.8-2.7 1.8-4.4 0-1.7-.7-3.3-1.8-4.4z" class="st1"/><path d="M-178 194.7c1.2-1.2 2.8-1.9 4.6-1.9 1.8 0 3.4.7 4.6 1.9 1.2 1.2 1.9 2.8 1.9 4.6s-.8 3.5-1.9 4.6c-1.2 1.2-2.8 1.9-4.6 1.9-1.8 0-3.4-.7-4.6-1.9-1.2-1.2-1.9-2.8-1.9-4.6s.7-3.4 1.9-4.6zm9 .3c-1.1-1.2-2.7-1.9-4.4-1.9s-3.3.7-4.4 1.9c-1.1 1.1-1.8 2.7-1.8 4.4 0 1.7.7 3.3 1.8 4.4 1.1 1.2 2.7 1.9 4.4 1.9s3.3-.7 4.4-1.9c1.1-1.1 1.8-2.7 1.8-4.4 0-1.7-.7-3.3-1.8-4.4z" class="st1"/><path d="M-165.6 193H-161.2c5.1 0 5.1 7.9 0 7.9h-4.1v4.9h-.3V193zm4.4 7.7c4.8 0 4.8-7.4 0-7.4h-4.1v7.4h4.1z" class="st1"/></g></svg>