<svg xmlns="http://www.w3.org/2000/svg" viewBox="-416.5 568.4 146.9 52"><style>.st0{fill:#111111;} .st1{fill:#F4821F;}</style><g id="XMLID_1_"><g id="XMLID_51_"><path id="XMLID_57_" d="M-344.5 586.7h-9.6c-.7 0-.9-.1-.9-.8.1-1.7 0-3.5 0-5.2 0-.5.1-.6.6-.6h20.7c.5 0 .7.1.7.6 0 .6-.1 1.1-.4 1.6-3.4 6.1-6.7 12.2-10.1 18.3l-.3.6c.3.2.6.1.9.1h8.8c.6 0 .8.1.8.8v5.7c0 .5-.1.7-.7.7-7 .1-14 .1-21 .1-.7 0-.9-.9-.5-1.8.6-1.1 1.2-2.3 1.9-3.4 2.9-5.3 5.9-10.6 8.8-15.9.1-.3.2-.5.3-.8z" class="st0"/><path id="XMLID_56_" d="M-278.7 594.3v-13.4c0-.7.2-.9.9-.8h7.5c.5 0 .7.1.7.6v27.2c0 .5-.1.7-.7.7h-7.5c-.6 0-.8-.2-.8-.8-.1-4.5-.1-9-.1-13.5z" class="st0"/><path id="XMLID_52_" d="M-306.9 589.5c-.1-3.9-1.8-6.9-5.3-8.7-3.5-1.7-7.1-1.9-10.8-1-4.8 1.2-8 4.9-7.8 10.1.1 3.1 0 6.2 0 9.3 0 3.8 1.7 6.7 5.1 8.5 4 2.1 8.3 2.2 12.5.6 3.7-1.4 5.9-4 6.3-8.1.2-1.9.1-5.7.1-5.7-.1-1.9 0-3.4-.1-5zm-9.2 10.1c0 1.8-1 2.9-2.8 2.9-1.7 0-2.8-1.1-2.8-2.9v-5.3-5.2c0-1.8 1-2.9 2.8-2.9s2.8 1 2.8 2.9c.1 3.5.1 7 0 10.5z" class="st0"/></g></g><path id="XMLID_3_" d="M-293.5 586.7h-9.6c-.7 0-.9-.1-.9-.8.1-1.7 0-3.5 0-5.2 0-.5.1-.6.6-.6h20.7c.5 0 .7.1.7.6 0 .6-.1 1.1-.4 1.6-3.4 6.1-6.7 12.2-10.1 18.3l-.3.6c.3.2.6.1.9.1h8.8c.6 0 .8.1.8.8v5.7c0 .5-.1.7-.7.7-7 .1-14 .1-21 .1-.7 0-.9-.9-.5-1.8.6-1.1 1.2-2.3 1.9-3.4 2.9-5.3 5.9-10.6 8.8-15.9.1-.3.2-.5.3-.8z" class="st0"/><path d="M-368.2 568.4h-44.6c-2.2 0-3.7 1.5-3.7 3.7v44.6c0 2.2 1.5 3.7 3.7 3.7h44.6c2.3 0 3.8-1.5 3.8-3.8v-44.4c0-2.3-1.5-3.8-3.8-3.8zm-5.9 31.2H-407c-.7 0-.9-.2-.9-.9V590v-.8c1.5.7 2.8 1.4 4.2 2.1 3 1.5 6 2.9 8.9 4.4.6.3.7.2.7-.4v-5.4c0-.5 0-.7.6-.4 7.5 3.3 15 6.7 22.5 10 .1 0 .1.1.3.2-1.1-.1-2.3-.1-3.4-.1z" class="st1"/></svg>
