<svg xmlns="http://www.w3.org/2000/svg" width="3125" height="26">
  <path fill="#F7941E" fill-rule="evenodd" d="M2354.5 10.058c-.515.105-1.415.39-2.81 1.142-1.717.928-4.833 3.18-6.05 4-1.487 1.002-5.758 4.904-10.25 6.6-5.006 1.89-10.216 1.516-10.69 1.2-.8-2.1-8.7-15.7-15-17.9-1.8-.6-3-.3-3.8.1-2.1 1-5.4 3.2-9.2 5.8-4.6 3.2-13.3 9.2-15 8.8-.6-.4-1.7-1.7-2.8-3.1-4.2-5-11.2-13.4-19.5-11.9-5.7 1-11.3 6.2-15.8 10.4-1.9 1.9-4.6 4.3-5.6 4.6-.3-.7-.9-1.7-1.5-2.9-3.9-7.7-7.9-14.5-12.4-13.8-2.3.4-6.5 3.4-13 8.2-4.5 3.3-12.8 9.4-14.5 9-1.2-.8-2.7-3.4-4-5.8-2.6-4.5-4.9-8.7-8.4-7.9-2 .4-3.9 2.5-6.1 5-3.6 4-6.6 7-9.4 5.8-2.5-1.1-4.6-3.4-6.6-5.7-2.9-3.3-5.9-6.7-10-5.4-2.9.8-12.6 3.4-18.8-.4-1.1-.7-1.9-1.4-2.8-2.2-4.2-3.7-7.7-5.5-20.5 1.2-13.3 6.9-18 4.3-23 1.6-.8-.5-1.7-1-2.7-1.4-3.7-1.8-7.4 0-10.7 1.6-3.1 1.5-5.8 2.8-8.4 1.6-1.4-.6-2.5-1.5-3.6-2.3-1.9-1.4-3.6-2.6-5.8-2.3-2.5.4-5 2.9-8.6 8.6-2.6 4.3-5 6.5-7 6.6-2.5.2-5.2-2.9-8.4-6.5-1-1.1-2.1-2.3-3.2-3.5-1.6-1.8-3.4-2.7-5.5-2.7-3.7 0-7.1 3.1-10.3 6.1-2.6 2.4-5.3 4.9-7.6 5.1-3 .2-4.1-1.2-5.6-3.5-1.2-1.7-2.5-3.8-5.4-4.3-3-.6-5.6 1.7-8.1 3.9-3.3 2.9-4.9 4-6.6 2.6-1.6-1.3-2.4-3.1-3.3-4.9-1.1-2.3-2.1-4.4-4.5-5.1-1.6-.5-3.6-.1-6.1 1.2-8.3 4.3-13.6 1.3-17.2-.7-2.1-1.2-4.4-1.6-6.6-1.1-3 .6-5.8 2.9-8.2 6.8-.6 1-1.1 1.9-1.6 2.7-1.3 2.2-2.7 4.5-3.5 4.5-.5 0-1.6-.6-4.2-4.1-3.3-4.4-5.9-7.1-9.5-7.5-3.6-.4-7.7 1.5-14 6.2-11.1 8.4-15.9 4.3-23.3-1.8l-.3-.2c-1-.7-1.8-1.5-2.7-2.3-3.5-3.2-6.9-6.2-11.2-5.9-3.6.2-7.2 2.7-11.4 7.7-5.6 6.7-10.1 10-14.8 10.6-4.3.6-9.2-1-15.8-5.2-2.2-1.4-4.1-2.7-5.8-3.8-8.5-5.6-11.3-7.5-22.3-4.2-2.1.7-4.9 1.7-8.2 2.8-15.4 5.3-43.9 15.2-54.9 8-4.5-3-6.8-5.8-8.6-8-4-4.9-6.2-6.7-19.4-2.9-20.6 5.9-34.1 8.8-48.2-.6-9.5-6.3-13.2-2.4-15.9.4-2.2 2.3-3.5 3.5-6.6 2-2.6-1.2-4.5-2.4-6.2-3.5-4.3-2.8-7.1-4.6-14.2-.3-4 2.5-17.9 9.8-26 .4-2.3-2.7-4.5-4-7-4.1-3.8-.2-6.8 2.6-9.4 5.1-.7.7-1.4 1.3-2 1.8-2.765 2.32-12.293 2.25-17.3 1.926v-.03c-.137 0-.272 0-.406.002-.443-.03-.844-.065-1.194-.098l-.018.12c-5.42.168-8.25 1.172-11.082 2.177-2.5.9-5 1.9-9.6 2.2-4.9.3-7.4-.5-10.5-1.5-3.3-1.1-6.9-2.3-14.1-2.5-4-.1-7.2-.3-10-.4-6.9-.4-11.5-.6-18.5.4-5.7.8-8.2.4-13.6-.4-3.4-.6-8.1-1.3-15.4-1.9-10.6-.9-12.5-.3-15.5.8-2.2.8-5.1 1.8-13.7 2.6-11.8 1.1-17.8-.5-23.1-1.9-3.4-.9-6.6-1.7-10.8-1.7-5.4 0-8.5 1.1-11.5 2.1s-5.8 2-11 2c-5.3 0-8.6-1.3-11.8-2.5-3.2-1.2-6.4-2.4-11.1-2.4-6.6 0-9.9 1.1-13.3 2.2-1.6.6-3.2 1.1-5.3 1.6-6.4 1.6-12.4 2.3-31.6-1.6-13.6-2.8-17.8-.7-21.9 1.3-1.8.9-3.4 1.7-5.9 2.2-3.9.7-4.1.4-4.9-.7-.9-1.2-2.2-2.9-6.6-4.3-5.7-1.9-10.4-1.2-15.3-.4-3 .5-6.2.9-9.7.8-4.9-.2-8.5 1.5-12 3.1-3.4 1.6-6.7 3.1-11.2 2.9-4-.2-5.6-1.2-7.6-2.5-2.6-1.7-5.9-3.8-14.9-4.5-8-.6-12.7.9-17.7 2.6-5.1 1.7-10.4 3.4-20.3 3.4-8.8-.1-15.7-1.8-22.4-3.4-8.5-2.1-16.5-4.1-27.5-2.6-4.5.6-7.9 1.2-10.9 1.8-9.7 1.9-15 2.9-41.7-.9-18.5-2.6-23.7-.7-29.8 1.4-5.6 2-12.1 4.2-31.2 3.7-26.3-.8-33.1-3.2-38-4.9-2.5-.9-4.7-1.7-8.8-1.9-11.9-.7-31.8 3.6-37.4 5.7-5.1 2-19.2 3.5-25.7.1-6.5-3.3-11-5.3-18.1-3.6-1.8.4-3.2.9-4.5 1.4-3.5 1.3-5.8 2.2-11.4-.6-5.5-2.7-9.4-1.5-13.5-.3-2.6.8-5.3 1.6-8.9 1.7-9.2.3-18.7-3-18.8-3l-.2-.1h-18.9v-.3H.5v2h760v.3h28.4c1.6.5 10.5 3.3 19.6 3.1 3.9-.1 6.9-1 9.6-1.8 4.1-1.3 7.1-2.1 11.6.1 6.6 3.2 9.9 2.1 13.6.7 1.3-.5 2.6-.9 4.2-1.3 6-1.4 9.5 0 16.2 3.4 7.3 3.8 22.2 2.2 27.9.1 5.2-1.9 24.9-6.1 36.3-5.5 3.7.2 5.5.8 8.1 1.7 5.1 1.8 12.1 4.2 38.8 5 19.6.5 26.3-1.8 32.2-3.9 5.9-2.1 10.6-3.7 28.4-1.2 27.2 3.8 32.6 2.8 42.6.9 2.9-.6 6.3-1.2 10.7-1.8 10.4-1.4 18.2.5 26.5 2.5 6.8 1.7 13.9 3.4 23.5 3.5 10.1 0 15.7-1.9 20.7-3.6 4.9-1.7 9.1-3.1 16.6-2.5 8.4.6 11.2 2.5 13.7 4.1 2.2 1.4 4.2 2.7 8.9 2.9 5.2.2 8.9-1.5 12.5-3.2 3.4-1.5 6.5-3 10.8-2.8 3.8.2 7.1-.3 10.3-.8 4.8-.7 9-1.3 14.1.3 3.7 1.2 4.6 2.5 5.4 3.5 1.3 1.8 2.4 2.5 7.4 1.6 2.9-.5 4.8-1.5 6.6-2.4 3.8-1.9 7.5-3.7 20.1-1.1 19.8 4 26.3 3.2 32.8 1.6 2.2-.5 3.9-1.1 5.5-1.6 3.3-1.1 6.2-2.1 12.4-2.1 4.2 0 7.1 1.1 10.1 2.2 3.4 1.3 7 2.7 12.8 2.7 5.6 0 8.8-1.1 11.9-2.2 2.9-1 5.7-2 10.6-2 3.9 0 6.8.7 10.1 1.6 5.5 1.5 11.8 3.1 24.1 2 8.9-.8 12.1-1.9 14.4-2.7 2.7-.9 4.3-1.5 14.4-.6 7.3.6 11.9 1.3 15.3 1.8 5.5.8 8.3 1.3 14.4.4 6.8-1 11-.7 18-.4 2.9.1 6.1.3 10.1.4 6.8.2 10.2 1.3 13.3 2.3 2.6.9 5.1 1.7 9.1 1.7.7 0 1.6 0 2.1.1 5-.4 7.7-1.3 10.4-2.3 2.837-1.076 5.578-2.057 11.312-2.1 4.244.252 15.46.65 19.288-2.497.7-.6 1.4-1.2 2.1-1.9 2.3-2.2 4.9-4.6 7.6-4.5 1.6.1 3.4 1.2 5.2 3.3 6.3 7.4 17.3 7.4 29.3.1 5.6-3.4 7.2-2.4 11.4.3 1.7 1.1 3.7 2.4 6.5 3.7 4.9 2.3 7.5-.3 9.6-2.5 2.7-2.8 5-5.2 12.6-.1 14.9 10 29.7 6.9 50.4.9 12-3.5 13.3-1.9 16.7 2.2 1.8 2.2 4.3 5.2 9.1 8.4 12 8 40.3-1.8 57.2-7.7 3.2-1.1 6-2.1 8.1-2.7 9.7-2.9 11.7-1.6 20 3.9 1.7 1.1 3.6 2.4 5.9 3.8 7.2 4.6 12.6 6.3 17.6 5.6 5.4-.7 10.4-4.2 16.4-11.4 3.7-4.4 6.8-6.6 9.6-6.8 3.2-.2 6 2.4 9.3 5.3l2.7 2.4.3.2c7.4 6.2 13.8 11.5 26.5 1.9 5.6-4.3 9.4-6 12.1-5.7 2.7.3 4.9 2.7 7.8 6.6 2.7 3.7 4.4 5.1 6.3 5 2.2-.1 3.5-2.2 5.5-5.6.5-.8 1-1.7 1.6-2.6 2.1-3.3 4.3-5.3 6.7-5.8 1.5-.3 3.1 0 4.7.9 3.5 2 10.2 5.8 19.7.8 1.8-.9 3.2-1.3 4.1-1 1.3.4 2.1 2.2 3 4 .9 1.9 1.9 4.1 3.8 5.6 3.6 2.9 7.1-.2 9.9-2.7 2-1.8 4.1-3.6 5.9-3.3 1.8.3 2.7 1.7 3.8 3.3 1.4 2.2 3.2 4.9 7.9 4.6 3.3-.2 6.1-2.9 9.2-5.8 2.9-2.7 5.9-5.6 8.6-5.5 1.3 0 2.4.6 3.6 1.9 1.1 1.2 2.1 2.4 3.1 3.5 3.6 4.1 6.7 7.6 10.5 7.4 3-.2 5.7-2.6 8.9-7.7 3-4.8 5.3-7.2 7-7.5 1.1-.2 2.2.6 3.8 1.8 1.1.9 2.4 1.9 4 2.6 3.7 1.8 7.4 0 10.7-1.6 3.1-1.5 5.8-2.8 8.4-1.6.9.5 1.8.9 2.6 1.4 5.4 3 11 6 25.6-1.6 12.1-6.3 14.4-4.3 17.5-1.5.8.8 1.8 1.7 3.1 2.5 6.9 4.2 17 1.8 21 .6 2.3-.7 4.3 1.3 7.3 4.7 2.2 2.5 4.4 5 7.4 6.3 4.8 2 9-2.6 12.3-6.4 1.7-1.9 3.6-4 4.8-4.3 1.6-.4 4 3.9 5.6 6.8 1.6 2.8 3.1 5.4 4.8 6.5 2.6 1.6 7.3-1.5 17.5-9.1 4.7-3.5 10.1-7.4 11.9-7.7 3.1-.5 7.9 8.7 9.9 12.6.7 1.3 1.3 2.4 1.7 3.1.3.6.9.9 1.6 1 1.8.2 3.8-1.5 7.8-5.2 4.1-3.8 9.6-8.9 14.6-9.8 6.8-1.2 13.2 6.5 17.1 11.1 1.4 1.7 2.4 2.9 3.2 3.5 2.4 1.7 7.6-1.5 18.1-8.7 3.5-2.5 6.9-4.8 10.5-5.7 5.1 1.8 13 14.6 13.6 16.6.4 1.3 2.5 1.8 5.3 1.8 1.214 0 5.974-.63 9.446-2.34 4.535-2.23 7.977-5.786 9.672-6.96 1.295-.898 3.7-2.637 5.262-3.5 1.834-1.013 2.833-1.182 2.96-1.2h769.46v-2h-769.447c-.027-.002-.07-.004-.143 0h-.41v.058z"/>
</svg>
