<svg xmlns="http://www.w3.org/2000/svg" viewBox="0 0 100 100">
  <g>
    <path fill="white" d="M62.162 0c6.696 0 10.043 4.567 10.043 9.79 0 6.52-5.814 12.554-13.39 12.554-6.345 0-10.046-3.752-9.87-9.947C48.945 7.177 53.35 0 62.162 0zm-20.62 100c-5.286 0-9.163-3.262-5.462-17.615l6.07-25.457c1.057-4.077 1.23-5.707 0-5.707-1.588 0-8.45 2.818-12.51 5.59L27 52.408C39.863 41.48 54.662 35.072 61.004 35.072c5.285 0 6.168 6.36 3.525 16.148l-6.95 26.76c-1.235 4.73-.704 6.36.526 6.36 1.586 0 6.787-1.964 11.896-6.042L73 82.378C60.488 95.1 46.83 100 41.543 100z"/>
  </g>
</svg>
