<svg xmlns="http://www.w3.org/2000/svg" viewBox="-79 347.9 25.4 25.4"><linearGradient id="svg-tech" gradientUnits="userSpaceOnUse" x1="-79" y1="347.89" x2="-53.64" y2="373.25"><stop offset="0" stop-color="#b64e96"/><stop offset="1" stop-color="#5f52ca"/></linearGradient><path fill="url(#svg-tech)" d="M-79 347.9h25.4v25.4H-79z"/><g fill="#FFF"><path d="M-66.3 356.9c-2 0-3.7 1.7-3.7 3.7s1.7 3.7 3.7 3.7 3.7-1.7 3.7-3.7c0-2.1-1.7-3.7-3.7-3.7z"/><circle cx="-61" cy="355.5" r="1.7"/><path d="M-58.9 357.2l-.1-.2-.1.1c-.3.3-.6.6-1 .7h-.1v.1c1.4 3.4-.2 7.3-3.6 8.7-3.4 1.4-7.3-.2-8.7-3.6-1.4-3.4.2-7.3 3.6-8.7 1.7-.7 3.7-.7 5.4.1h.1v-.1c.2-.4.4-.7.7-1l.1-.1-.2-.1c-1.2-.6-2.4-.9-3.7-.9-4.5 0-8.1 3.6-8.1 8.1s3.6 8.1 8.1 8.1 8.1-3.6 8.1-8.1c.2-.9 0-2-.5-3.1z"/></g></svg>