<svg xmlns="http://www.w3.org/2000/svg" viewBox="-225.4 176.6 244.7 244.7"><linearGradient id="gradient" gradientUnits="userSpaceOnUse" x1="-19.512" y1="443.642" x2="-186.622" y2="154.198"><stop offset="0" stop-color="#b64e96"/><stop offset="1" stop-color="#5f52ca"/></linearGradient><path fill="url(#gradient)" d="M-225.4 176.6H19.3v244.7h-244.7z"/><path fill="none" stroke="#FFF" stroke-width=".5" stroke-miterlimit="10" d="M-95 332.7v15.5h-43.9v-74.9h18.8v-4H-137c-3.3 0-6.1 2.7-6.1 6.1v77.9c0 3.3 2.7 6.1 6.1 6.1h40.2c3.3 0 6.1-2.7 6.1-6.1v-20.7l-4.3.1zm-30.9 22.3h-5.1c-.9 0-1.7-.8-1.7-1.7 0-.9.8-1.7 1.7-1.7h5.1c.9 0 1.7.8 1.7 1.7 0 1-.8 1.7-1.7 1.7zm8.9 1.4c-1.7 0-3-1.4-3-3 0-1.7 1.4-3 3-3s3 1.4 3 3-1.3 3-3 3zm14.1-1.4h-5.1c-.9 0-1.7-.8-1.7-1.7 0-.9.8-1.7 1.7-1.7h5.1c.9 0 1.7.8 1.7 1.7 0 1-.7 1.7-1.7 1.7zm33.8-116.6h-40.2c-3.3 0-6.1 2.7-6.1 6.1v77.9c0 3.3 2.7 6.1 6.1 6.1h40.2c3.3 0 6.1-2.7 6.1-6.1v-77.9c0-3.3-2.8-6.1-6.1-6.1zm-26.5 4.4h12.8c.4 0 .7.3.7.7s-.3.7-.7.7h-12.8c-.4 0-.7-.3-.7-.7-.1-.4.3-.7.7-.7zm6.4 82.7c-1.7 0-3-1.4-3-3 0-1.7 1.4-3 3-3 1.7 0 3 1.4 3 3 .1 1.6-1.3 3-3 3zm22-8.2h-43.9v-69.2h43.9v69.2z"/><g fill="#FFF"><path d="M-102.2 282.7l5.8-5.8.1-.1s.1-.1.2-.1.2 0 .2.1c.1.1.1.2.1.2 0 .1 0 .2-.1.2l-5.4 5.4 5.3 5.3.1.1s.1.1.1.2 0 .2-.1.2c-.1.1-.2.1-.2.1-.1 0-.2 0-.2-.1l-5.9-5.7zM-86.1 270.4c0-.1.1-.2.2-.2h.3c.2.1.3.2.2.5l-7.6 19.5c-.1.2-.3.3-.5.1-.3-.1-.3-.2-.2-.5l7.6-19.4zM-81.7 288.6c-.1.1-.1.1-.2.1s-.2 0-.2-.1c-.1-.1-.1-.1-.1-.2s0-.1.1-.2l.1-.1 5.3-5.3-5.4-5.4c-.1-.1-.1-.1-.1-.2s0-.2.1-.2.2-.1.2-.1c.1 0 .1 0 .2.1l.1.1 5.8 5.8-5.9 5.7z"/></g></svg>