<svg xmlns="http://www.w3.org/2000/svg" viewBox="-79 347.9 25.4 25.4"><linearGradient id="svg-tech" gradientUnits="userSpaceOnUse" x1="-79" y1="347.89" x2="-53.64" y2="373.25"><stop offset="0" stop-color="#b64e96"/><stop offset="1" stop-color="#5f52ca"/></linearGradient><path fill="url(#svg-tech)" d="M-79 347.9h25.4v25.4H-79z"/><path fill="#FFF" d="M-61.7 351.5c.2 0 .4 0 .5.1.6.4.9 1.7.7 3.5-.1.4-.1.9-.2 1.4-.9-.2-1.9-.4-2.9-.5-.6-.9-1.3-1.6-1.9-2.3 1.4-1.4 2.8-2.2 3.8-2.2zm-9.2 0c1 0 2.4.8 3.9 2.1-.6.7-1.3 1.4-1.9 2.3-1 .1-2 .3-2.9.5-.1-.5-.2-.9-.2-1.3-.2-1.8.1-3.1.7-3.5 0 0 .2-.1.4-.1zm0-1c-.4 0-.7.1-1 .3-1.3.7-1.6 3.1-.9 6-2.9.9-4.7 2.3-4.7 3.8s1.9 2.9 4.8 3.8c-.7 2.9-.4 5.3.9 6 .3.2.6.3 1 .3 1.3 0 2.9-.9 4.6-2.5 1.7 1.6 3.3 2.5 4.6 2.5.4 0 .7-.1 1-.3 1.3-.7 1.6-3.1.9-6 2.9-.9 4.7-2.3 4.7-3.8s-1.9-2.9-4.8-3.8c.7-2.9.4-5.3-.9-6-.3-.2-.6-.3-1-.3-1.3 0-2.9.9-4.6 2.5-1.7-1.6-3.4-2.5-4.6-2.5zm9.9 7l-.6 1.8c-.2-.4-.4-.7-.6-1.1-.2-.4-.4-.7-.7-1.1.6.1 1.3.3 1.9.4zm-2.1 4.9c-.4.6-.7 1.2-1.1 1.8-.7.1-1.4.1-2.1.1-.7 0-1.4 0-2.1-.1-.4-.5-.8-1.1-1.1-1.8-.4-.6-.7-1.2-1-1.8.3-.6.6-1.2 1-1.8.4-.6.7-1.2 1.1-1.8.7-.1 1.4-.1 2.1-.1.7 0 1.4 0 2.1.1.4.5.8 1.1 1.1 1.8.4.6.7 1.2 1 1.8-.4.6-.7 1.2-1 1.8zm1.5-.6c.2.6.5 1.2.6 1.8-.6.1-1.2.3-1.9.4.2-.4.5-.7.7-1.1.2-.4.4-.7.6-1.1zm-4.7 4.9c-.4-.4-.9-.9-1.3-1.5h2.6c-.5.6-.9 1.1-1.3 1.5zm-3.4-2.7c-.7-.1-1.3-.2-1.9-.4l.6-1.8c.2.4.4.7.6 1.1.2.4.4.8.7 1.1zm3.4-9.6c.4.4.9.9 1.3 1.5h-2.6c.4-.5.8-1 1.3-1.5zm-3.4 2.7c-.2.4-.5.7-.7 1.1-.2.4-.4.7-.6 1.1-.2-.6-.5-1.2-.6-1.8.6-.1 1.2-.3 1.9-.4zm-4.2 5.8c-1.6-.7-2.7-1.6-2.7-2.3 0-.7 1.1-1.6 2.7-2.3.4-.2.8-.3 1.3-.5.3.9.6 1.8 1 2.8-.4 1-.8 1.9-1 2.8-.5-.2-.9-.3-1.3-.5zm2.5 6.6c-.6-.4-.9-1.7-.7-3.5.1-.4.1-.9.2-1.4.9.2 1.9.4 2.9.5.6.9 1.3 1.6 1.9 2.3-1.5 1.4-2.9 2.2-3.9 2.2-.1 0-.3 0-.4-.1zm10.9-3.5c.2 1.8-.1 3.1-.7 3.5-.1.1-.3.1-.5.1-1 0-2.4-.8-3.9-2.1.6-.7 1.3-1.4 1.9-2.3 1-.1 2-.3 2.9-.5.2.4.2.8.3 1.3zm1.8-3.1c-.4.2-.8.3-1.3.5-.3-.9-.6-1.8-1-2.8.4-1 .8-1.9 1-2.8.5.1.9.3 1.3.5 1.6.7 2.7 1.6 2.7 2.3 0 .7-1.1 1.6-2.7 2.3z"/><circle fill="#FFF" cx="-66.3" cy="360.6" r="2.1"/></svg>