<svg xmlns="http://www.w3.org/2000/svg" viewBox="-79 347.9 25.4 25.4"><linearGradient id="svg-tech" gradientUnits="userSpaceOnUse" x1="-79" y1="347.89" x2="-53.64" y2="373.25"><stop offset="0" stop-color="#b64e96"/><stop offset="1" stop-color="#5f52ca"/></linearGradient><path fill="url(#svg-tech)" d="M-79 347.9h25.4v25.4H-79z"/><path fill="#FFF" d="M-74.7 370.3h9.6c-4.2-9.8.4-18.5 7.5-15h.1l.4-.6c-7.4-5.9-16.7-.4-17.6 15.6z"/><path fill="#FFF" d="M-64.3 352c.5-.1 1-.1 1.5-.1l-.1-1.2c-.6 0-1.1 0-1.7.1l.3 1.2zM-71.4 356.6c.3-.4.7-.8 1-1.2l-1.2-.9c-.4.4-.7.8-1 1.2l1.2.9zM-74.9 365.7c-.1.6-.2 1.3-.2 1.9h-1.8c.1-.7.1-1.4.2-2l1.8.1zM-73.9 361.5l.6-1.5-1.5-.6-.6 1.5 1.5.6zM-67.8 353.3c.4-.3.9-.5 1.3-.7l-.8-1.1c-.5.2-.9.4-1.4.7l.9 1.1zM-59.7 352.6c.4.2.8.4 1.2.7l.5-.7c-.4-.3-.9-.6-1.4-.9l-.3.9zM-64.1 367.3c.2.7.5 1.3.8 1.7h-1.8c-.2-.6-.3-1.1-.5-1.7h1.5zM-59.8 354.9c.4.1.9.2 1.3.3l-.2.6c-.4-.1-.9-.2-1.3-.2l.2-.7zM-61.5 355.8c-.3.1-.6.2-.9.4l-.4-.8c.3-.2.6-.3 1-.4l.3.8zM-63.6 357.4c-.2.3-.3.6-.5.9l-.8-.8c.2-.3.4-.6.7-.9l.6.8zM-64.7 360.2c-.1.4-.1.9-.2 1.3l-1.1-1c.1-.4.1-.8.2-1.1l1.1.8zM-64.8 363.5c0 .5.1.9.1 1.4l-1.4-.5s-.1-1.1-.1-1.5l1.4.6z"/></svg>