<?xml version="1.0" encoding="UTF-8" standalone="no"?>
<svg width="2553px" height="1856px" viewBox="0 0 2553 1856" version="1.1" xmlns="http://www.w3.org/2000/svg" xmlns:xlink="http://www.w3.org/1999/xlink" xmlns:sketch="http://www.bohemiancoding.com/sketch/ns">
    <!-- Generator: Sketch 3.5.1 (25234) - http://www.bohemiancoding.com/sketch -->
    <title>services-bg</title>
    <desc>Created with Sketch.</desc>
    <defs></defs>
    <g id="Page-1" stroke="none" stroke-width="1" fill="none" fill-rule="evenodd" sketch:type="MSPage">
        <g id="Artboard-9" sketch:type="MSArtboardGroup" transform="translate(-259.000000, -41.000000)">
            <g id="services-bg" sketch:type="MSLayerGroup" transform="translate(264.000000, 42.000000)">
                <g id="graph" transform="translate(185.000000, 370.000000)" fill="#7F5B7C" sketch:type="MSShapeGroup">
                    <path d="M342.171875,0.431034483 C332.892566,0.431034483 325.34375,7.97257543 325.34375,17.2413793 C325.34375,17.9439116 325.392131,18.6352371 325.476271,19.3153556 L263.255682,50.3927802 C258.116793,43.8619612 250.14517,39.6551724 241.203125,39.6551724 C225.738078,39.6551724 213.15625,52.2237069 213.15625,67.6724138 C213.15625,73.8095905 215.146877,79.4879849 218.510398,84.1087284 L186.583939,118.901239 C186.418463,119.08195 186.271918,119.272468 186.134488,119.467188 C184.097584,118.590948 181.855236,118.103448 179.5,118.103448 C176.308266,118.103448 173.321273,118.995797 170.77602,120.54375 L133.627934,90.1814655 C134.272311,88.4009698 134.625,86.4824892 134.625,84.4827586 C134.625,75.2139547 127.076184,67.6724138 117.796875,67.6724138 C108.517566,67.6724138 100.96875,75.2139547 100.96875,84.4827586 C100.96875,89.1700431 102.90118,93.4132543 106.008773,96.4650323 L80.1565664,151.803987 C79.6215723,151.752856 79.0795664,151.724138 78.53125,151.724138 C69.2519414,151.724138 61.703125,159.265679 61.703125,168.534483 C61.703125,169.442942 61.7781504,170.33389 61.9176836,171.204526 L28.0615996,189.651778 C25.0802168,186.976131 21.1417344,185.344828 16.828125,185.344828 C7.54881641,185.344828 0,192.886369 0,202.155172 C0,211.423976 7.54881641,218.965517 16.828125,218.965517 C26.1074336,218.965517 33.65625,211.423976 33.65625,202.155172 C33.65625,201.246713 33.5812246,200.355765 33.4416914,199.485129 L67.2977754,181.037877 C70.2791582,183.713524 74.2169395,185.344127 78.53125,185.344127 C87.8105586,185.344127 95.359375,177.802586 95.359375,168.533782 C95.359375,163.846498 93.4269453,159.603287 90.3193516,156.551509 L116.171559,101.212554 C116.706553,101.263685 117.248559,101.292403 117.797576,101.292403 C120.989311,101.292403 123.976303,100.400054 126.521557,98.8521013 L163.669643,129.214386 C163.024564,130.995582 162.671875,132.914063 162.671875,134.913793 C162.671875,144.182597 170.220691,151.724138 179.5,151.724138 C188.779309,151.724138 196.328125,144.182597 196.328125,134.913793 C196.328125,132.043427 195.602412,129.339063 194.327682,126.973006 C194.510688,126.818912 194.688084,126.656412 194.854262,126.4757 L226.775812,91.6887931 C230.993361,94.2264547 235.930313,95.6896552 241.203125,95.6896552 C256.668172,95.6896552 269.25,83.1211207 269.25,67.6724138 C269.25,65.1606681 268.912035,62.7266703 268.288693,60.408944 L330.50157,29.3350216 C333.52923,32.2523168 337.643006,34.0517241 342.171875,34.0517241 C351.451184,34.0517241 359,26.5101832 359,17.2413793 C359,7.97257543 351.451184,0.431034483 342.171875,0.431034483 L342.171875,0.431034483 Z M16.828125,207.758621 C13.7352559,207.758621 11.21875,205.244774 11.21875,202.155172 C11.21875,199.065571 13.7352559,196.551724 16.828125,196.551724 C19.9209941,196.551724 22.4375,199.065571 22.4375,202.155172 C22.4375,205.244774 19.9209941,207.758621 16.828125,207.758621 L16.828125,207.758621 Z M78.53125,174.137931 C75.4383809,174.137931 72.921875,171.624084 72.921875,168.534483 C72.921875,165.444881 75.4383809,162.931034 78.53125,162.931034 C81.6241191,162.931034 84.140625,165.444881 84.140625,168.534483 C84.140625,171.624084 81.6241191,174.137931 78.53125,174.137931 L78.53125,174.137931 Z M117.796875,90.0862069 C114.704006,90.0862069 112.1875,87.5723599 112.1875,84.4827586 C112.1875,81.3931573 114.704006,78.8793103 117.796875,78.8793103 C120.889744,78.8793103 123.40625,81.3931573 123.40625,84.4827586 C123.40625,87.5723599 120.889744,90.0862069 117.796875,90.0862069 L117.796875,90.0862069 Z M179.5,140.517241 C176.407131,140.517241 173.890625,138.003394 173.890625,134.913793 C173.890625,131.824192 176.407131,129.310345 179.5,129.310345 C182.592869,129.310345 185.109375,131.824192 185.109375,134.913793 C185.109375,138.003394 182.592869,140.517241 179.5,140.517241 L179.5,140.517241 Z M241.203125,84.4827586 C231.924518,84.4827586 224.375,76.9412177 224.375,67.6724138 C224.375,58.4036099 231.924518,50.862069 241.203125,50.862069 C250.481732,50.862069 258.03125,58.4036099 258.03125,67.6724138 C258.03125,76.9412177 250.481732,84.4827586 241.203125,84.4827586 L241.203125,84.4827586 Z M342.171875,22.8448276 C339.079006,22.8448276 336.5625,20.3309806 336.5625,17.2413793 C336.5625,14.151778 339.079006,11.637931 342.171875,11.637931 C345.264744,11.637931 347.78125,14.151778 347.78125,17.2413793 C347.78125,20.3309806 345.264744,22.8448276 342.171875,22.8448276 L342.171875,22.8448276 Z" id="Shape"></path>
                </g>
                <g id="light-bulb" transform="translate(2317.479013, 1257.642697) rotate(43.000000) translate(-2317.479013, -1257.642697) translate(2202.979013, 1099.642697)" fill="#7F5B7C" sketch:type="MSShapeGroup">
                    <g id="Group" transform="translate(-0.000000, -0.000000)">
                        <path d="M192.56526,31.311535 C169.645461,9.56302494 139.584208,-1.49884055 107.922649,0.16343559 C79.375899,1.66159516 52.509812,14.0173257 32.2737621,34.9527438 C12.0465649,55.8793091 0.593134994,83.1505801 0.0238343568,111.742275 C-0.409950937,133.52211 5.31233764,154.807552 16.5716878,173.296885 C27.5014429,191.244836 43.1388239,205.823972 61.7915915,215.457819 C70.7226655,220.070107 76.2706228,229.347801 76.2706228,239.671482 L76.2706228,268.155582 C76.2706228,281.735717 82.8264329,292.475478 92.827329,296.836485 C94.2873536,307.253461 103.252477,315.296535 114.065103,315.296535 C124.861386,315.296535 133.815613,307.277976 135.296748,296.884834 C145.012994,292.825503 151.859583,283.225024 151.859583,272.054202 L151.859583,239.696679 C151.859583,229.367549 157.440908,220.062617 166.425099,215.412874 C204.485843,195.7148 228.129525,156.881141 228.129525,114.066465 C228.128844,82.4627887 215.498678,53.0729838 192.56526,31.311535 L192.56526,31.311535 Z M141.644178,239.696679 L141.644178,245.155427 L86.4846662,245.155427 L86.4846662,239.671482 C86.4846662,237.605384 86.3164637,235.56993 85.9998073,233.57874 L142.135165,233.57874 C141.813742,235.578102 141.644178,237.621728 141.644178,239.696679 L141.644178,239.696679 Z M141.644178,266.963864 C141.531135,266.956373 141.418773,266.946839 141.303687,266.946839 L86.825157,266.946839 C86.7100711,266.946839 86.5977091,266.956373 86.4846662,266.963864 L86.4846662,255.370152 L141.644178,255.370152 L141.644178,266.963864 L141.644178,266.963864 Z M114.064422,305.08181 C109.708863,305.08181 105.932139,302.585332 104.068293,298.952976 L124.05987,298.952976 C122.196704,302.585332 118.41998,305.08181 114.064422,305.08181 L114.064422,305.08181 Z M124.960128,288.738251 L103.168716,288.738251 C95.8849365,288.738251 90.3499179,284.328895 87.8888503,277.161564 L140.8413,277.161564 C138.679184,283.869914 132.378742,288.738251 124.960128,288.738251 L124.960128,288.738251 Z M161.72905,206.341518 C154.404411,210.132542 148.720939,216.151058 145.297644,223.364015 L82.8509482,223.364015 C79.4419542,216.157187 73.7782301,210.152291 66.4774261,206.381696 C49.4903395,197.608609 35.2496518,184.33083 25.2943814,167.983866 C15.0476509,151.157491 9.84018446,131.779478 10.2351538,111.945888 C10.7533808,85.9405619 21.1873812,61.1187817 39.6167869,42.0526582 C58.0516405,22.9804059 82.4995617,11.7265036 108.456538,10.3645403 C110.352391,10.265117 112.236667,10.2154053 114.117538,10.2154053 C140.859006,10.2154053 166.03762,20.2231113 185.532762,38.7212961 C206.413021,58.5344564 217.912758,85.2929483 217.912758,114.066465 C217.914119,153.047215 196.385566,188.405143 161.72905,206.341518 L161.72905,206.341518 Z" id="Shape"></path>
                        <path d="M179.438658,98.0633967 L177.066799,98.0633967 C175.532547,91.9679302 173.147069,86.194568 169.942369,80.820261 L171.607369,79.155261 C173.596516,77.1661136 174.692216,74.5157332 174.692216,71.6917024 C174.692216,68.8676716 173.596516,66.2172911 171.607369,64.2281438 L163.902743,56.5235177 C159.787571,52.4090267 153.091479,52.4090267 148.975626,56.5235177 L147.310626,58.1885178 C141.936319,54.9838182 136.162957,52.5983396 130.068171,51.064088 L130.068171,48.692229 C130.068171,42.8718791 125.333306,38.1370139 119.512956,38.1370139 L108.61725,38.1370139 C102.7969,38.1370139 98.0620348,42.8718791 98.0620348,48.692229 L98.0620348,51.064088 C91.9665682,52.5983396 86.193206,54.9838182 80.81958,58.1885178 L79.15458,56.5235177 C75.039408,52.4090267 68.3433157,52.4090267 64.2274628,56.5235177 L56.5235177,64.2281438 C54.5343704,66.2172911 53.4386709,68.8676716 53.4386709,71.6917024 C53.4386709,74.5157332 54.5343704,77.1661136 56.5235177,79.155261 L58.1885178,80.820261 C54.9831373,86.194568 52.5983396,91.9679302 51.064088,98.0633967 L48.692229,98.0633967 C42.8718791,98.0633967 38.1370139,102.798262 38.1370139,108.618612 L38.1370139,119.514318 C38.1370139,125.334668 42.8718791,130.069533 48.692229,130.069533 L51.064088,130.069533 C52.5983396,136.165 54.9838182,141.938362 58.1885178,147.311988 L56.5235177,148.976988 C54.5343704,150.966135 53.4386709,153.616516 53.4386709,156.440546 C53.4386709,159.263896 54.5343704,161.914958 56.5235177,163.904105 L64.2274628,171.60805 C66.2166101,173.597197 68.8669906,174.692897 71.6910214,174.692897 C74.5150522,174.692897 77.1654327,173.597197 79.15458,171.60805 L80.81958,169.94305 C86.193887,173.148431 91.9672492,175.533228 98.0620348,177.06748 L98.0620348,179.439339 C98.0620348,185.259689 102.7969,189.994554 108.61725,189.994554 L119.512956,189.994554 C125.333306,189.994554 130.068171,185.259689 130.068171,179.439339 L130.068171,177.06748 C136.163638,175.533228 141.937,173.14775 147.310626,169.94305 L148.975626,171.60805 C150.964773,173.597197 153.615154,174.692897 156.439184,174.692897 C159.262534,174.692897 161.913596,173.597197 163.902743,171.60805 L171.606688,163.904105 C173.595835,161.914958 174.691535,159.264577 174.691535,156.440546 C174.691535,153.616516 173.595835,150.966135 171.606688,148.976988 L169.941688,147.311988 C173.147069,141.937681 175.531866,136.164319 177.066118,130.069533 L179.437977,130.069533 C185.258327,130.069533 189.993192,125.334668 189.993192,119.514318 L189.993192,108.618612 C189.993873,102.798262 185.259008,98.0633967 179.438658,98.0633967 L179.438658,98.0633967 Z M179.779149,119.514318 C179.779149,119.68933 179.61367,119.854809 179.438658,119.854809 L172.95367,119.854809 C170.489197,119.854809 168.376792,121.614465 167.930749,124.038079 C166.525203,131.678012 163.593577,138.770435 159.218951,145.119227 C157.820215,147.147871 158.070135,149.886098 159.812767,151.62873 L164.384197,156.20016 C164.446166,156.262129 164.477492,156.343166 164.477492,156.441227 C164.477492,156.539289 164.446166,156.620326 164.384197,156.682295 L156.680252,164.38624 C156.556313,164.510179 156.322056,164.510179 156.198117,164.38624 L151.626687,159.81481 C149.884055,158.072178 147.145828,157.822939 145.117184,159.220994 C138.769073,163.596301 131.675969,166.527246 124.036036,167.932792 C121.612422,168.378835 119.852766,170.49124 119.852766,172.955713 L119.852766,179.440701 C119.852766,179.615713 119.687287,179.781192 119.512275,179.781192 L108.616569,179.781192 C108.441557,179.781192 108.276078,179.615713 108.276078,179.440701 L108.276078,172.955713 C108.276078,170.49124 106.516422,168.378835 104.092808,167.932792 C96.4528752,166.527246 89.3604516,163.59562 83.0116599,159.220994 C82.1331936,158.614921 81.1212549,158.318694 80.1154451,158.318694 C78.7984266,158.318694 77.4902609,158.826706 76.5021566,159.81481 L71.9307269,164.38624 C71.8074692,164.510179 71.5732116,164.510179 71.4485919,164.38624 L63.7446468,156.682295 C63.6826775,156.620326 63.6513523,156.539289 63.6513523,156.441227 C63.6513523,156.343166 63.6826775,156.262129 63.7446468,156.20016 L68.3160765,151.62873 C70.0587084,149.886098 70.3086287,147.147871 68.9098924,145.119227 C64.5345855,138.771116 61.6036406,131.678012 60.1980945,124.038079 C59.7520516,121.614465 57.6396466,119.854809 55.1751741,119.854809 L48.6901861,119.854809 C48.5151738,119.854809 48.3496953,119.68933 48.3496953,119.514318 L48.3496953,108.618612 C48.3496953,108.4436 48.5151738,108.278121 48.6901861,108.278121 L55.1751741,108.278121 C57.6396466,108.278121 59.7520516,106.518465 60.1980945,104.094851 C61.6036406,96.4549181 64.5352665,89.3618135 68.9098924,83.0137028 C70.3086287,80.9850586 70.0587084,78.2468315 68.3160765,76.5041995 L63.7446468,71.9327699 C63.6826775,71.8708005 63.6513523,71.7897637 63.6513523,71.6917024 C63.6513523,71.593641 63.6826775,71.5126042 63.7446468,71.4506349 L71.4485919,63.7466898 C71.5732116,63.6234321 71.8067883,63.6220701 71.9307269,63.7466898 L76.5021566,68.3181194 C78.2447885,70.0607514 80.9830156,70.3106716 83.0116599,68.9119354 C89.3597706,64.5373094 96.4521942,61.6056835 104.092808,60.2001375 C106.516422,59.7540945 108.276078,57.6416895 108.276078,55.177217 L108.276078,48.692229 C108.276078,48.5172167 108.441557,48.3517382 108.616569,48.3517382 L119.512275,48.3517382 C119.687287,48.3517382 119.852766,48.5172167 119.852766,48.692229 L119.852766,55.177217 C119.852766,57.6416895 121.612422,59.7540945 124.036036,60.2001375 C131.67665,61.6056835 138.769073,64.5373094 145.117184,68.9119354 C147.145828,70.3106716 149.884055,70.0607514 151.626687,68.3181194 L156.198117,63.7466898 C156.322056,63.6234321 156.556313,63.6220701 156.680252,63.7466898 L164.384197,71.4513159 C164.446166,71.5132852 164.477492,71.594322 164.477492,71.6923834 C164.477492,71.7904447 164.446166,71.8714815 164.384197,71.9334508 L159.812767,76.5048805 C158.070135,78.2475125 157.820215,80.9857396 159.218951,83.0143838 C163.593577,89.3624945 166.525203,96.4555991 167.930749,104.095532 C168.376792,106.519146 170.489197,108.278802 172.95367,108.278802 L179.438658,108.278802 C179.61367,108.278802 179.779149,108.444281 179.779149,108.619293 L179.779149,119.514318 L179.779149,119.514318 Z" id="Shape"></path>
                        <path d="M114.064422,70.8241318 C90.2205314,70.8241318 70.8220888,90.2225743 70.8220888,114.066465 C70.8220888,137.910355 90.2205314,157.308798 114.064422,157.308798 C137.908312,157.308798 157.306755,137.910355 157.306755,114.066465 C157.306755,90.2225743 137.908312,70.8241318 114.064422,70.8241318 L114.064422,70.8241318 Z M114.064422,147.094074 C95.8529304,147.094074 81.0368132,132.277956 81.0368132,114.066465 C81.0368132,95.8549733 95.8529304,81.0388561 114.064422,81.0388561 C132.275913,81.0388561 147.092031,95.8549733 147.092031,114.066465 C147.092031,132.277956 132.275913,147.094074 114.064422,147.094074 L114.064422,147.094074 Z" id="Shape"></path>
                        <path d="M114.064422,92.6155437 C102.236452,92.6155437 92.6135008,102.238495 92.6135008,114.066465 C92.6135008,125.894435 102.236452,135.517386 114.064422,135.517386 C125.892392,135.517386 135.515343,125.894435 135.515343,114.066465 C135.515343,102.238495 125.892392,92.6155437 114.064422,92.6155437 L114.064422,92.6155437 Z M114.064422,125.302662 C107.868851,125.302662 102.828225,120.262036 102.828225,114.066465 C102.828225,107.870894 107.868851,102.830268 114.064422,102.830268 C120.259993,102.830268 125.300619,107.870894 125.300619,114.066465 C125.300619,120.262036 120.259993,125.302662 114.064422,125.302662 L114.064422,125.302662 Z" id="Shape"></path>
                    </g>
                </g>
                <g id="list" transform="translate(757.069436, 1763.343660) rotate(-22.000000) translate(-757.069436, -1763.343660) translate(619.069436, 1586.843660)" fill="#7F5B7C" sketch:type="MSShapeGroup">
                    <g id="Group" transform="translate(-0.000000, -0.000000)">
                        <path d="M248.4,22.0625 L193.19931,22.0625 C193.19448,22.0625 193.19034,22.0631895 193.18551,22.0631895 C188.14506,15.3692891 180.13071,11.03125 171.12,11.03125 L157.0509,11.03125 C153.15654,4.30356641 145.92189,-1.13686838e-12 138,-1.13686838e-12 C130.07811,-1.13686838e-12 122.84346,4.30356641 118.9491,11.03125 L104.88,11.03125 C95.86929,11.03125 87.85494,15.3692891 82.81449,22.0631895 C82.80966,22.0631895 82.80483,22.0625 82.8,22.0625 L27.6,22.0625 C12.38136,22.0625 2.27373675e-13,34.4340469 2.27373675e-13,49.640625 L2.27373675e-13,325.421875 C2.27373675e-13,340.628453 12.38136,353 27.6,353 L248.4,353 C263.61864,353 276,340.628453 276,325.421875 L276,49.640625 C276,34.4340469 263.61864,22.0625 248.4,22.0625 L248.4,22.0625 Z M88.32,38.609375 C88.32,29.4858418 95.74923,22.0625 104.88,22.0625 L122.4543,22.0625 C124.78995,22.0625 126.87306,20.5932754 127.65552,18.3946094 C129.22182,13.9903828 133.37907,11.03125 138,11.03125 C142.62093,11.03125 146.77818,13.9903828 148.34448,18.3946094 C149.12694,20.5932754 151.21005,22.0625 153.5457,22.0625 L171.12,22.0625 C180.25077,22.0625 187.68,29.4858418 187.68,38.609375 L187.68,55.15625 L88.32,55.15625 L88.32,38.609375 L88.32,38.609375 Z M264.96,325.421875 C264.96,334.545408 257.53077,341.96875 248.4,341.96875 L27.6,341.96875 C18.46923,341.96875 11.04,334.545408 11.04,325.421875 L11.04,49.640625 C11.04,40.5170918 18.46923,33.09375 27.6,33.09375 L77.83545,33.09375 C77.47182,34.8766758 77.28,36.7209629 77.28,38.609375 L77.28,60.671875 C77.28,63.7178789 79.75158,66.1875 82.8,66.1875 L193.2,66.1875 C196.24842,66.1875 198.72,63.7178789 198.72,60.671875 L198.72,38.609375 C198.72,36.7209629 198.52818,34.8766758 198.16455,33.09375 L248.4,33.09375 C257.53077,33.09375 264.96,40.5170918 264.96,49.640625 L264.96,325.421875 L264.96,325.421875 Z" id="Shape"></path>
                        <path d="M248.4,44.125 L215.28,44.125 C212.23158,44.125 209.76,46.5946211 209.76,49.640625 C209.76,52.6866289 212.23158,55.15625 215.28,55.15625 L242.88,55.15625 L242.88,319.90625 L33.12,319.90625 L33.12,55.15625 L60.72,55.15625 C63.76842,55.15625 66.24,52.6866289 66.24,49.640625 C66.24,46.5946211 63.76842,44.125 60.72,44.125 L27.6,44.125 C24.55158,44.125 22.08,46.5946211 22.08,49.640625 L22.08,325.421875 C22.08,328.467879 24.55158,330.9375 27.6,330.9375 L248.4,330.9375 C251.44842,330.9375 253.92,328.467879 253.92,325.421875 L253.92,49.640625 C253.92,46.5946211 251.44842,44.125 248.4,44.125 L248.4,44.125 Z" id="Shape"></path>
                        <path d="M138,22.0625 C136.5441,22.0625 135.1227,22.6485352 134.0946,23.6758203 C133.0665,24.7031055 132.48,26.1233789 132.48,27.578125 C132.48,29.0259766 133.0665,30.4531445 134.0946,31.4804297 C135.1227,32.5077148 136.5441,33.09375 138,33.09375 C139.449,33.09375 140.8773,32.5077148 141.9054,31.4804297 C142.9335,30.4531445 143.52,29.0328711 143.52,27.578125 C143.52,26.1233789 142.9335,24.7031055 141.9054,23.6758203 C140.8773,22.6478457 139.449,22.0625 138,22.0625 L138,22.0625 Z" id="Shape"></path>
                        <path d="M51.29667,128.474764 C49.14042,130.628615 49.14042,134.120695 51.29667,136.274547 L67.85667,152.821422 C68.93445,153.898348 70.34688,154.436811 71.76,154.436811 C73.17312,154.436811 74.58555,153.898348 75.66333,152.821422 L103.26333,125.243297 C105.41958,123.089445 105.41958,119.597365 103.26333,117.443514 C101.10777,115.289662 97.61292,115.289662 95.45736,117.443514 L71.76,141.121402 L59.10333,128.474764 C56.94777,126.320912 53.45223,126.320912 51.29667,128.474764 L51.29667,128.474764 Z" id="Shape"></path>
                        <path d="M103.26333,178.115389 C101.10777,175.961537 97.61292,175.961537 95.45736,178.115389 L71.76,201.793277 L59.10333,189.146639 C56.94777,186.992787 53.45292,186.992787 51.29736,189.146639 C49.14111,191.30049 49.14111,194.79257 51.29736,196.946422 L67.85736,213.493297 C68.93514,214.570223 70.34757,215.108686 71.76069,215.108686 C73.17381,215.108686 74.58624,214.570223 75.66402,213.493297 L103.26402,185.915172 C105.41889,183.76201 105.41889,180.26924 103.26333,178.115389 L103.26333,178.115389 Z" id="Shape"></path>
                        <path d="M95.45667,238.787264 L71.76,262.465152 L59.10333,249.818514 C56.94777,247.664662 53.45292,247.664662 51.29736,249.818514 C49.14111,251.972365 49.14111,255.464445 51.29736,257.618297 L67.85736,274.165172 C68.93514,275.242098 70.34757,275.780561 71.76069,275.780561 C73.17381,275.780561 74.58624,275.242098 75.66402,274.165172 L103.26402,246.587047 C105.42027,244.433195 105.42027,240.941115 103.26402,238.787264 C101.10777,236.633412 97.61223,236.633412 95.45667,238.787264 L95.45667,238.787264 Z" id="Shape"></path>
                        <path d="M126.96,137.890625 L220.8,137.890625 C223.84842,137.890625 226.32,135.421004 226.32,132.375 C226.32,129.328996 223.84842,126.859375 220.8,126.859375 L126.96,126.859375 C123.91158,126.859375 121.44,129.328996 121.44,132.375 C121.44,135.421004 123.91158,137.890625 126.96,137.890625 L126.96,137.890625 Z" id="Shape"></path>
                        <path d="M126.96,198.5625 L220.8,198.5625 C223.84842,198.5625 226.32,196.092879 226.32,193.046875 C226.32,190.000871 223.84842,187.53125 220.8,187.53125 L126.96,187.53125 C123.91158,187.53125 121.44,190.000871 121.44,193.046875 C121.44,196.092879 123.91158,198.5625 126.96,198.5625 L126.96,198.5625 Z" id="Shape"></path>
                        <path d="M126.96,259.234375 L220.8,259.234375 C223.84842,259.234375 226.32,256.764754 226.32,253.71875 C226.32,250.672746 223.84842,248.203125 220.8,248.203125 L126.96,248.203125 C123.91158,248.203125 121.44,250.672746 121.44,253.71875 C121.44,256.764754 123.91158,259.234375 126.96,259.234375 L126.96,259.234375 Z" id="Shape"></path>
                    </g>
                </g>
                <g id="task" transform="translate(2178.000000, 281.000000)" fill="#7F5B7C" sketch:type="MSShapeGroup">
                    <g id="Group">
                        <path d="M43.0853132,0 C19.3281317,0 0,19.3281317 0,43.0853132 C0,66.8424946 19.3281317,86.1706263 43.0853132,86.1706263 C66.8424946,86.1706263 86.1706263,66.8424946 86.1706263,43.0853132 C86.1706263,19.3281317 66.8424946,0 43.0853132,0 L43.0853132,0 Z M43.0853132,77.1317495 C24.3121685,77.1317495 9.03887689,61.8584579 9.03887689,43.0853132 C9.03887689,24.3121685 24.3121685,9.03887689 43.0853132,9.03887689 C61.8584579,9.03887689 77.1317495,24.3121685 77.1317495,43.0853132 C77.1317495,61.8584579 61.8584579,77.1317495 43.0853132,77.1317495 L43.0853132,77.1317495 Z" id="Shape"></path>
                        <path d="M43.0853132,96.4146868 C19.3281317,96.4146868 0,115.742819 0,139.5 C0,163.257181 19.3281317,182.585313 43.0853132,182.585313 C66.8424946,182.585313 86.1706263,163.257181 86.1706263,139.5 C86.1706263,115.742819 66.8424946,96.4146868 43.0853132,96.4146868 L43.0853132,96.4146868 Z M43.0853132,173.546436 C24.3121685,173.546436 9.03887689,158.273145 9.03887689,139.5 C9.03887689,120.726855 24.3121685,105.453564 43.0853132,105.453564 C61.8584579,105.453564 77.1317495,120.726855 77.1317495,139.5 C77.1317495,158.273145 61.8584579,173.546436 43.0853132,173.546436 L43.0853132,173.546436 Z" id="Shape"></path>
                        <path d="M43.0853132,192.829374 C19.3281317,192.829374 0,212.157505 0,235.914687 C0,259.671868 19.3281317,279 43.0853132,279 C66.8424946,279 86.1706263,259.671868 86.1706263,235.914687 C86.1706263,212.157505 66.8424946,192.829374 43.0853132,192.829374 L43.0853132,192.829374 Z M43.0853132,269.961123 C24.3121685,269.961123 9.03887689,254.687832 9.03887689,235.914687 C9.03887689,217.141542 24.3121685,201.868251 43.0853132,201.868251 C61.8584579,201.868251 77.1317495,217.141542 77.1317495,235.914687 C77.1317495,254.687832 61.8584579,269.961123 43.0853132,269.961123 L43.0853132,269.961123 Z" id="Shape"></path>
                        <path d="M54.3513693,30.2483002 L38.2645788,46.3356933 L31.819257,39.8897689 C30.0536631,38.1247775 27.1925572,38.1247775 25.4275659,39.8897689 C23.6625745,41.6547603 23.6625745,44.5164687 25.4275659,46.2808575 L35.0690346,55.9223261 C35.9512289,56.8051231 37.1082052,57.2462203 38.2645788,57.2462203 C39.4209525,57.2462203 40.5779287,56.8051231 41.4607257,55.9223261 L60.7436631,36.6393888 C62.5086544,34.8743974 62.5086544,32.012689 60.7436631,30.2483002 C58.9780691,28.4833089 56.1169633,28.4833089 54.3513693,30.2483002 L54.3513693,30.2483002 Z" id="Shape"></path>
                        <path d="M54.3513693,126.662987 L38.2645788,142.75038 L31.819257,136.304456 C30.0536631,134.539464 27.1925572,134.539464 25.4275659,136.304456 C23.6625745,138.069447 23.6625745,140.931156 25.4275659,142.695544 L35.0690346,152.337013 C35.9512289,153.21981 37.1082052,153.660907 38.2645788,153.660907 C39.4209525,153.660907 40.5779287,153.21981 41.4607257,152.337013 L60.7436631,133.054076 C62.5086544,131.289084 62.5086544,128.427376 60.7436631,126.662987 C58.9780691,124.897996 56.1169633,124.897996 54.3513693,126.662987 L54.3513693,126.662987 Z" id="Shape"></path>
                        <path d="M105.75486,33.1425486 L192.528078,33.1425486 C195.024616,33.1425486 197.047516,31.1190454 197.047516,28.6231102 C197.047516,26.1271749 195.024616,24.1036717 192.528078,24.1036717 L105.75486,24.1036717 C103.258322,24.1036717 101.235421,26.1271749 101.235421,28.6231102 C101.235421,31.1190454 103.258322,33.1425486 105.75486,33.1425486 L105.75486,33.1425486 Z" id="Shape"></path>
                        <path d="M105.75486,62.0669546 L274.480562,62.0669546 C276.977099,62.0669546 279,60.0434514 279,57.5475162 C279,55.051581 276.977099,53.0280778 274.480562,53.0280778 L105.75486,53.0280778 C103.258322,53.0280778 101.235421,55.051581 101.235421,57.5475162 C101.235421,60.0434514 103.258322,62.0669546 105.75486,62.0669546 L105.75486,62.0669546 Z" id="Shape"></path>
                        <path d="M105.75486,129.557235 L192.528078,129.557235 C195.024616,129.557235 197.047516,127.533732 197.047516,125.037797 C197.047516,122.541862 195.024616,120.518359 192.528078,120.518359 L105.75486,120.518359 C103.258322,120.518359 101.235421,122.541862 101.235421,125.037797 C101.235421,127.533732 103.258322,129.557235 105.75486,129.557235 L105.75486,129.557235 Z" id="Shape"></path>
                        <path d="M274.480562,149.442765 L105.75486,149.442765 C103.258322,149.442765 101.235421,151.466268 101.235421,153.962203 C101.235421,156.458138 103.258322,158.481641 105.75486,158.481641 L274.480562,158.481641 C276.977099,158.481641 279,156.458138 279,153.962203 C279,151.466268 276.977099,149.442765 274.480562,149.442765 L274.480562,149.442765 Z" id="Shape"></path>
                        <path d="M105.75486,225.971922 L192.528078,225.971922 C195.024616,225.971922 197.047516,223.948419 197.047516,221.452484 C197.047516,218.956549 195.024616,216.933045 192.528078,216.933045 L105.75486,216.933045 C103.258322,216.933045 101.235421,218.956549 101.235421,221.452484 C101.235421,223.948419 103.258322,225.971922 105.75486,225.971922 L105.75486,225.971922 Z" id="Shape"></path>
                        <path d="M274.480562,245.857451 L105.75486,245.857451 C103.258322,245.857451 101.235421,247.880955 101.235421,250.37689 C101.235421,252.872825 103.258322,254.896328 105.75486,254.896328 L274.480562,254.896328 C276.977099,254.896328 279,252.872825 279,250.37689 C279,247.880955 276.977099,245.857451 274.480562,245.857451 L274.480562,245.857451 Z" id="Shape"></path>
                    </g>
                </g>
                <path d="M367.236412,662.587032 C367.236412,662.587032 367.236412,707.363484 367.236412,762.591254 L367.236412,1080.85182 C367.236412,1136.08263 412.012107,1180.85604 467.236932,1180.85604 L1758.26571,1180.85604 C1813.49447,1180.85604 1903.04399,1180.85604 1958.2583,1180.85604 L2015.23637,1180.85604 C2070.46047,1180.85604 2115.22844,1136.07489 2115.22844,1080.85745 L2115.22844,727.55219 C2115.22844,672.324492 2160.00956,627.553598 2215.22236,627.553598 L2442.15981,627.553598 C2497.38493,627.553598 2542.15373,672.333889 2542.15373,727.558896 L2542.15373,1589.92209 C2542.15373,1645.1535 2497.37921,1689.92739 2442.1487,1689.92739 L1771.75988,1689.92739 C1716.52862,1689.92739 1671.75484,1734.69815 1671.75484,1789.92271 L1671.75483,2038.26771 L593.669853,2112.40542 C538.576493,2116.19408 493.914496,2074.49594 493.914492,2019.26496 L493.914474,1789.92782 C493.91447,1734.69911 449.143511,1689.92739 393.918709,1689.92739 L100.600198,1689.92739 C45.3740666,1689.92739 0.604441196,1645.16016 0.604441196,1589.918 L0.604441196,0.366954355" id="Path-1980" stroke="#7F5A7C" stroke-width="10" stroke-linecap="round" stroke-dasharray="25" sketch:type="MSShapeGroup"></path>
            </g>
        </g>
    </g>
</svg>
