<svg xmlns="http://www.w3.org/2000/svg" width="823" height="70" xmlns:xlink="http://www.w3.org/1999/xlink">
  <defs>
    <path id="waves-a" d="M0 0h823v70H0z"/>
  </defs>
  <g fill="none" fill-rule="evenodd">
    <mask id="waves-b" fill="#fff">
      <use xlink:href="#waves-a"/>
    </mask>
    <use fill="white" opacity=".1" xlink:href="#waves-a"/>
    <path fill="#00ABDF" d="M51.958 26.922h2.29V49.53h-2.29V26.922zm5.722-6.33h2.29v35.043h-2.29V20.59zm5.722-4.975h2.29V60.61H63.4V15.616zm5.722 2.487h2.29v40.018h-2.29V18.104zm5.723 4.974h2.29v30.07h-2.29v-30.07zm5.722 5.426h2.28v19.218h-2.29V28.504zm5.72 3.166h2.29v12.887h-2.29V31.67zm5.49 0h2.29v12.887h-2.29V31.67zm5.72 0h2.29v12.887H97.5V31.67zm5.72-1.583h2.29v16.278h-2.29V30.087zm5.72-4.296h2.29v24.65h-2.29V25.79zm5.72-2.71h2.29v30.07h-2.29V23.08zm5.72-9.27h2.29v48.61h-2.29V13.81zm5.72 6.33h2.29v36.18h-2.29V20.14zm5.72 4.75h2.29v26.68h-2.29V24.89zm5.72-3.84h2.29v34.14h-2.29V21.05zm5.72-7.23h2.29v48.6h-2.29V13.81zm5.73 5.42h2.29v37.98H149V19.24zm5.72 6.11H157v25.54h-2.29V25.34zm5.72 3.17h2.29v19.21h-2.29V28.51zm5.72-11.53h2.29v42.5h-2.29V16.98zm5.72 4.07h2.29V55.2h-2.29V21.05zm5.72 3.85h2.29v26.67h-2.29v-26.7zm5.72 5.42h2.29v15.83h-2.29V30.31zm5.72 0h2.29v15.6h-2.29v-15.6zm6.41-3.39h2.28v22.61h-2.29V26.92zm5.49 3.84h2.29V45.7h-2.29V30.77zm5.72-2.26h2.29v19.22h-2.29V28.51zm5.72 1.13h2.29v17.19h-2.29v-17.2zm5.72 2.04h2.29v12.88h-2.29v-12.9zm5.72-3.17h2.29v19.22h-2.29V28.5zm5.72 3.17h2.29v12.88h-2.29v-12.9zm5.72 0h2.29v12.88h-2.29v-12.9zm5.72 0h2.29v12.88H241v-12.9zm5.72-1.584h2.3v16.28h-2.29V30.09zm5.72-4.292h2.29v24.64h-2.29V25.79zm5.72-2.71h2.29v30.07h-2.29v-30.1zm5.72-9.27h2.29v48.61h-2.29V13.8zm5.72 6.33h2.29v36.18h-2.29v-36.2zm5.726 4.75h2.29v26.68h-2.29v-26.7zM0 31.67h2.29v12.887H0V31.67zm5.722 0h2.29v12.887H5.72V31.67zm5.722 0h2.29v12.887h-2.29V31.67zm5.723-1.583h2.29v16.278h-2.29V30.087zm5.722-4.296h2.28v24.65h-2.29V25.79zm5.72-2.71h2.29v30.07h-2.29V23.08zm5.72-9.27h2.29v48.61h-2.29V13.81zm5.72 6.33h2.29v36.18h-2.29V20.14zm5.72 4.75h2.29v26.68h-2.29V24.89zm235.3-3.84h2.29v34.14h-2.29V21.05zm5.72-7.23h2.29v48.6h-2.29V13.81zm5.72 5.43h2.29v37.98h-2.29V19.24zm5.72 6.11h2.29V50.9h-2.29V25.34zm5.72 3.17h2.29v19.21h-2.29V28.51zM309.67 17h2.29v42.5h-2.29V16.98zm5.72 4.07h2.29V55.2h-2.29V21.05zm5.72 3.842h2.29v26.67h-2.29V24.89zm5.72 5.425h2.29v15.82h-2.29V30.32zm5.72 0h2.283v15.6h-2.288v-15.6zm288.49 19.08h-2.29V26.79h2.29V49.4zm-5.716 6.33h-2.29V20.69h2.29v35.04zm-5.71 4.976h-2.29v-45h2.29V60.7zm-5.71-2.49h-2.29V18.2h2.29v40.015zm-5.71-4.974h-2.29V23.17h2.29v30.07zm-5.714-5.43h-2.29V28.6h2.29v19.217zm-5.71-3.17h-2.29v-12.9h2.29v12.89zm-5.715 0h-2.29v-12.9h2.29v12.89zm-5.71 0h-2.29v-12.9h2.29v12.89zm-5.71 1.58h-2.29V29.95h2.29v16.28zm-5.71 4.29h-2.29V25.89h2.29v24.64zm-5.715 2.71h-2.285V23.17h2.29v30.07zm-5.71 9.27h-2.29V13.9h2.29v48.61zm-5.71-6.33h-2.29V20.01h2.29v36.17zm-5.71-4.748h-2.29V24.75h2.29v26.68zm-5.71 3.84h-2.29V21.13h2.29v34.14zm-5.71 7.24h-2.29V13.9h2.29v48.61zm-5.71-5.43h-2.29V19.1h2.29v37.98zm-5.713-6.1h-2.29V25.43h2.29v25.548zm-5.71-3.168h-2.288V28.59h2.29v19.22zm-5.71 11.53h-2.29v-42.5h2.29v42.51zm-5.714-4.07h-2.29V21.13h2.29v34.14zm-5.71-3.84h-2.29V24.75h2.29v26.68zm-5.71-5.427h-2.29V30.18h2.29v15.825zm-5.713 0h-2.29v-15.6h2.29v15.6zm-6.35 3.39h-2.29V26.79h2.29V49.4zm-5.71-3.844h-2.29V30.63h2.288v14.922zm-5.71 2.26h-2.29V28.59h2.29v19.22zm-5.715-1.13h-2.29V29.5h2.29v17.18zm-5.71-2.034h-2.29v-12.9h2.29v12.89zm-5.714 3.16h-2.29V28.59h2.29v19.22zm-5.71-3.164h-2.29v-12.9h2.29v12.89zm-5.71 0h-2.29v-12.9h2.29v12.89zm-5.71 0h-2.29v-12.9h2.29v12.89zm-5.71 1.58h-2.29V29.95h2.29v16.28zm-5.71 4.29h-2.29V25.89h2.29v24.642zm-5.71 2.715h-2.29V23.17h2.29v30.07zm-5.71 9.27h-2.29V13.9h2.29v48.61zm-5.71-6.33h-2.29V20h2.29v36.18zm-5.71-4.75h-2.29V24.75h2.29v26.68zm-5.71 3.84h-2.29V21.13h2.29v34.14zm-5.71 7.238h-2.29V13.9h2.29v48.61zm-5.714-5.426h-2.29V19.1h2.29v37.98zm-5.716-6.104h-2.29V25.43h2.29v25.548zm-5.71-3.164h-2.29V28.59h2.29v19.22zm-5.71 11.53h-2.29v-42.5h2.286v42.51zm-5.71-4.07h-2.29V21.13h2.29v34.14zm-5.71-3.845h-2.29V24.75h2.29v26.68zM346.25 46h-2.285V30.17h2.29V46zm-5.71 0h-2.29V30.4h2.29V46zm284.8-19.09h2.29v22.61h-2.29v-22.6zm5.723-6.33h2.29v35.05h-2.29V20.59zm5.723-4.975h2.28v45h-2.29v-44.99zm5.72 2.488h2.29V58.12h-2.29V18.104zm5.72 4.974h2.29v30.07h-2.29V23.07zm5.72 5.42h2.29v19.23h-2.29V28.5zm5.72 3.162h2.29v12.89h-2.29V31.67zm5.72 0h2.29v12.89h-2.29V31.67zm5.72 0h2.29v12.89h-2.29V31.67zm5.724-1.59h2.29v16.28h-2.29V30.08zm5.722-4.3h2.29V50.4h-2.29V25.79zm5.722-2.72h2.29v30.07h-2.29V23.07zM694 13.8h2.29v48.61H694V13.8zm5.724 6.33h2.29v36.18h-2.29V20.14zm5.723 4.75h2.29v26.68h-2.288V24.888zm5.723-3.846h2.29v34.14h-2.29V21.04zm5.72-7.234h2.29v48.61h-2.29v-48.6zm5.723 5.424h2.29V57.21h-2.29V19.23zm5.72 6.104h2.29V50.88h-2.29V25.34zm5.724 3.164h2.29v19.22h-2.29v-19.21zm5.724-11.53h2.29v42.504h-2.29v-42.5zm5.72 4.07h2.29v34.14h-2.29V21.04zm5.73 3.843h2.29v26.68h-2.29V24.888zm5.72 5.427h2.29v15.83h-2.28V30.31zm5.72 0h2.29v15.6h-2.29v-15.6zm6.18-3.39h2.29v22.61h-2.29V26.92zm5.73 3.84h2.29V45.68h-2.29V30.76zm5.72-2.26h2.29v19.22h-2.29V28.504zm5.72 1.13h2.29V46.81h-2.29V29.63zm5.73 2.036h2.29V44.55h-2.29V31.67zm5.72-3.166h2.29v19.22h-2.29V28.505zm5.72 3.17h2.29v12.886h-2.29V31.67zm5.73 0h2.29v12.886h-2.29V31.67zm5.72 0h2.29v12.886h-2.29V31.67zm5.72-1.584h2.29V46.36h-2.29V30.088z" opacity=".3" mask="url(#waves-b)"/>
  </g>
</svg>
