<svg xmlns="http://www.w3.org/2000/svg" viewBox="-225.4 176.6 244.7 244.7"><linearGradient id="a" gradientUnits="userSpaceOnUse" x1="-19.512" y1="443.642" x2="-186.622" y2="154.198"><stop offset="0" stop-color="#b64e96"/><stop offset="1" stop-color="#5f52ca"/></linearGradient><path fill="url(#a)" d="M-225.4 176.6H19.3v244.7h-244.7z"/><g fill="none" stroke="#FFF" stroke-width=".5" stroke-miterlimit="10"><path d="M-32.3 328.9c0 2.1-1.7 3.7-3.7 3.7h-134.1c-2.1 0-3.7-1.7-3.7-3.7v-77.3c0-2.1 1.7-3.7 3.7-3.7H-36c2.1 0 3.7 1.7 3.7 3.7v77.3z"/><path d="M-168.2 253.9h130.5v72.7h-130.5z"/><circle cx="-103.1" cy="250.9" r="1.6"/><path d="M-20.7 347.7c.3.4-2.4.6-4.8.6h-155.2c-2.4 0-5-.3-4.8-.7l11.1-14.3c.3-.4 2.2-.7 4.2-.7H-36c2.1 0 4 .3 4.2.7l11.1 14.4z"/><path d="M-20.4 349.5c0 .9-1.7 1.7-3.8 1.7H-182c-2.1 0-3.8-.7-3.8-1.7v-1.1c0-.9 1.7-1.7 3.8-1.7h157.8c2.1 0 3.8.7 3.8 1.7v1.1zM-169.8 334.5l-1.3 1.8h136.6l-1.3-1.8zM-171.6 337.3l-1.2 1.8h140.4l-1.3-1.8zM-173.1 340l-1.2 1.8h143.7l-1.1-1.8z"/></g><g fill="#FFF"><path d="M-116.1 291.4l5.8-5.8.1-.1s.1-.1.2-.1.2 0 .2.1c.1.1.1.2.1.2 0 .1 0 .2-.1.2l-5.4 5.4 5.3 5.3.1.1s.1.1.1.2 0 .2-.1.2c-.1.1-.2.1-.2.1-.1 0-.2 0-.2-.1l-5.9-5.7zM-99.9 279c0-.1.1-.2.2-.2h.3c.2.1.3.2.2.5l-7.6 19.5c-.1.2-.3.3-.5.1-.3-.1-.3-.2-.2-.5l7.6-19.4zM-95.6 297.3c-.1.1-.1.1-.2.1s-.2 0-.2-.1c-.1-.1-.1-.1-.1-.2s0-.1.1-.2l.1-.1 5.3-5.3-5.4-5.4c-.1-.1-.1-.1-.1-.2s0-.2.1-.2.2-.1.2-.1c.1 0 .1 0 .2.1l.1.1 5.8 5.8-5.9 5.7z"/></g></svg>