<svg xmlns="http://www.w3.org/2000/svg" xmlns:xlink="http://www.w3.org/1999/xlink" width="400" height="372" class="about-desc-pics" viewBox="0 0 400 510"><defs><rect id="a" width="296" height="296" x="10.321" y="64" rx="6"/></defs><g fill="none" fill-rule="evenodd"><g transform="rotate(-15 255.983 -148.657)"><use xlink:href="#a" fill="#a77dc3" stroke="#FFF" stroke-width="10"/><use xlink:href="#a"/></g><path fill="#000" fill-opacity=".05" d="M147.26 229.067c-7.868 6.507-10.543 18.376-5.82 28.984 5.59 12.554 19.423 18.588 30.899 13.48l.2-.091c21.575 40.818 70.749 58.751 112.738 40.057 36.238-16.135 55.783-54.502 50.237-92.573a21.075 21.075 0 0 0 1.888-.735c11.476-5.11 16.248-19.428 10.658-31.982-1.966-4.417-4.954-8.027-8.5-10.629-1.188-3.635-22.664-68.835-41.445-89.056-19.39-20.876-39.996-29.108-39.996-29.108s-4.229 6.816-5.363 10.125c-1.477 4.31-2.472 12.733-2.472 12.733S233.68 67.31 222.99 61.624c-7.368-3.918-26.876-10.16-26.876-10.16s-4.893 9.999-6.228 15.357c-1.675 6.72-2.804 20.88-2.804 20.88s-3.795-5.223-6.247-7.309c-3.84-3.266-12.63-8.748-12.63-8.748s-5.376 11.508-7.067 17.518c-1.904 6.77-3.721 20.825-3.721 20.825l-12.83-6.468s-11.668 28.519-11.673 62.299c-.005 28.438 12.453 58.799 14.346 63.25Z"/><g transform="rotate(-31 247.422 -53.775)"><path fill="#F1D2A7" d="M109.944 274.678c47.871 0 86.679-39.752 86.679-88.79 0-49.037-38.808-88.79-86.679-88.79-47.87 0-86.678 39.753-86.678 88.79 0 49.038 38.808 88.79 86.678 88.79Z"/><ellipse cx="23.251" cy="167.087" fill="#F1D2A7" rx="22.685" ry="24.93"/><ellipse cx="195.283" cy="185.64" fill="#F1D2A7" rx="22.685" ry="24.93"/><path fill="#333" d="M158.404 112.852c-10.827-7.946-23.462 2.82-41.943 1.261-14.95-1.261-26.765-17.197-45.743-7.422-18.978 9.775-41.633 55.646-41.633 55.646s3.215-11.23-.927-15.9c-4.142-4.669-10.598-2.849-10.598-2.849s.104-36.178 12.594-64.347c13.708-30.916 35.909-52.265 35.909-52.265l9.066 11.149S82.485 26 86.968 20.58c3.979-4.812 13.544-13.154 13.544-13.154s5.786 8.6 7.96 13.154c1.388 2.908 2.727 9.235 2.727 9.235s6.772-12.5 11.025-17.968c3.39-4.36 11.905-11.52 11.905-11.52s15.243 13.665 20.366 20.253c7.434 9.56 17.306 28.193 17.306 28.193s4.322-7.305 7.417-10.648c2.376-2.566 8.994-7.081 8.994-7.081s15.436 15.932 24.634 42.94c9.166 26.916 1.618 98.57 1.618 98.57s-4.575-8.572-12.583-6.858c-8.009 1.714-9.058 8.114-9.058 8.114s-4.141-38.736-34.419-60.958Z"/><path fill="#FFF" d="M82.987 225.71s8.506 3.492 25.914 4.906c17.409 1.415 27.986 0 27.986 0s-1.151 27.553-29.572 24.677c-28.42-2.876-24.328-29.582-24.328-29.582Z"/></g></g></svg>