<?xml version="1.0" encoding="UTF-8" standalone="no"?>
<svg width="1818px" height="1446px" viewBox="0 0 1818 1446" version="1.1" xmlns="http://www.w3.org/2000/svg" xmlns:xlink="http://www.w3.org/1999/xlink">
    <g id="Page-1" stroke="none" stroke-width="1" fill="none" fill-rule="evenodd">
        <g id="About-bg" transform="translate(-405.000000, -106.000000)">
            <g id="about-bg-pattern" transform="translate(1314.213094, 831.133027) rotate(3.000000) translate(-1314.213094, -831.133027) translate(422.713094, 72.633027)">
                <path d="M737.5,1393.5 L349.466612,1393.5 C294.242431,1393.5 249.474386,1348.72446 249.474386,1293.50694 L249.474386,1292.51333 C249.474386,1237.28868 294.246135,1192.52026 349.473681,1192.52026 L1333.01516,1192.52026 C1388.24324,1192.52026 1433.01445,1147.74716 1433.01445,1092.51232 L1433.01445,1087.13483 C1433.01445,1031.90197 1388.24083,987.126893 1333.02265,987.126893 L973.821929,987.126893" id="Line-1" stroke="#FFFFFF" stroke-width="10" stroke-linecap="round" stroke-linejoin="round" stroke-dasharray="26"></path>
                <path d="M737.5,1393.5 L349.466612,1393.5 C294.242431,1393.5 249.474386,1348.72446 249.474386,1293.50694 L249.474386,1292.51333 C249.474386,1237.28868 294.246135,1192.52026 349.473681,1192.52026 L1333.01516,1192.52026 C1388.24324,1192.52026 1433.01445,1147.74716 1433.01445,1092.51232 L1433.01445,1087.13483 C1433.01445,1031.90197 1388.24083,987.126893 1333.02265,987.126893 L973.821929,987.126893" id="Line-2" stroke="#FFFFFF" stroke-width="10" stroke-linecap="round" stroke-linejoin="round" stroke-dasharray="26"></path>
                <path d="M1142.31616,269.578713 L1683.38498,209.545009 C1738.27716,203.454507 1777.07534,242.923732 1770.04296,297.703422 L1732.82855,587.590178" id="Path-743" stroke="#FFFFFF" stroke-width="10" stroke-linecap="round" stroke-dasharray="22"></path>
                <polygon id="Star-1" stroke="#FFFFFF" stroke-width="10" points="43.4919005 1075.51539 18.5110273 1081.76237 16.7327488 1056.07373 3.07199857 1034.24593 26.9538353 1024.61646 43.4919005 1004.87915 60.0299658 1024.61646 83.9118025 1034.24593 70.2510522 1056.07373 68.4727737 1081.76237 "></polygon>
                <circle id="Oval-32" stroke="#FFFFFF" stroke-width="10" cx="1618.5" cy="20.5" r="20.5"></circle>
                <g id="head" transform="translate(820.000000, 1274.000000)">
                    <path d="M140.985882,231.846202 L140.985882,201.991297 C140.985882,201.991297 166.374756,201.155752 172.246279,193.066839 C180.251748,182.038091 182.616858,144.638314 182.616858,144.638314 L194.248275,143.757773 C200.306491,143.299144 203.227233,138.420735 200.820069,132.842384 C200.820069,132.842384 198.407764,127.73058 196.29969,121.489143 C193.86758,114.288321 189.329094,95.8856408 189.329094,95.8856408 C189.329094,95.8856408 194.920191,0.417857853 98.5262354,0.417851127 C63.9442591,0.417848714 41.2991815,13.4864824 22.0983828,35.1294218 C-2.38641109,60.345398 0.604116807,101.554726 0.604116807,101.554726 C0.604116807,101.554726 -0.836308613,142.539826 37.6530285,172.347614 C47.6896983,190.022682 45.3547955,242.560432 45.3547955,242.560432 L140.985882,231.846202 Z" id="Path-726" stroke="#FFFFFF" stroke-width="12"></path>
                    <path d="M22.5898928,85.7811104 C23.8192901,94.7882303 22.6669496,107.61345 28.4590101,115.016165 C35.9197474,124.551583 50.2546291,133.885293 57.5225452,139.890621 C69.540679,149.820956 69.6603266,163.366096 74.2592168,166.499084 C78.5744423,169.438826 88.3818107,163.207357 88.3818107,144.437776 C88.3818107,134.065656 121.692871,134.239787 126.671691,137.357066 C131.65051,140.474345 149.363322,128.817051 153.086396,118.739239 C154.090682,116.020787 169.054638,108.179892 171.704223,97.7938703 C176.842608,77.6520793 168.107787,46.7246507 155.715602,39.0462849 C136.933444,27.408605 139.643591,30.383635 123.166896,25.8708164 C106.6902,21.3579978 94.8881979,12.6536524 78.436029,22.5916647 C61.9838601,32.5296771 55.847407,32.0980164 40.1604553,43.1274436 C33.1673515,48.0442643 20.3272047,69.2036361 22.5898928,85.7811104 Z" id="Path-728" stroke="#FFFFFF" stroke-width="10"></path>
                    <ellipse id="Oval-28" opacity="0.169892724" fill="#FFFFFF" cx="95.4641786" cy="79.3425938" rx="35.4118514" ry="35.4118514"></ellipse>
                    <path d="M76.7924751,81.1075512 L91.3112981,95.6263742 L116.165065,66.4655569" id="Line-3" stroke="#FFFFFF" stroke-width="10" stroke-linecap="round" stroke-linejoin="round"></path>
                </g>
                <g id="lamp" transform="translate(715.879870, 897.408130)" stroke="#FFFFFF" stroke-width="10" fill="#744A71">
                    <path d="M99.023045,135.642737 C111.488477,147.106969 126.184114,198.715597 144.454836,198.715597 C163.094308,198.715597 180.032217,144.084239 192.576444,132.205841 C206.050066,119.447379 214.454836,101.389958 214.454836,81.3694975 C214.454836,42.709565 183.114769,11.3694975 144.454836,11.3694975 C105.794904,11.3694975 74.4548363,42.709565 74.4548363,81.3694975 C74.4548363,101.758708 85.112248,122.849228 99.023045,135.642737 Z" id="Oval-29"></path>
                    <path d="M144.454836,74.8694975 L144.454836,148.869498" id="Line-4" stroke-linecap="square"></path>
                    <circle id="Oval-30" cx="163.454836" cy="79.3694975" r="18"></circle>
                    <circle id="Oval-31" cx="126.454836" cy="79.3694975" r="18"></circle>
                    <path d="M54.9548363,140.869498 L34.4304605,161.393873" id="Line-5" stroke-linecap="round"></path>
                    <path d="M248.954836,140.869498 L228.430461,161.393873" id="Line-6" stroke-linecap="round" transform="translate(238.454836, 151.369498) scale(-1, 1) translate(-238.454836, -151.369498) "></path>
                    <path d="M54.9548363,0.869497535 L34.4304605,21.3938735" id="Line-7" stroke-linecap="round" transform="translate(44.454836, 11.369498) scale(1, -1) translate(-44.454836, -11.369498) "></path>
                    <path d="M29.3040787,81.3694975 L0.27822801,81.3694975" id="Line-8" stroke-linecap="round"></path>
                    <path d="M248.954836,0.869497535 L228.430461,21.3938735" id="Line-9" stroke-linecap="round" transform="translate(238.454836, 11.369498) scale(-1, -1) translate(-238.454836, -11.369498) "></path>
                    <rect id="Rectangle-133" x="110.454836" y="151.369498" width="69" height="59" rx="63"></rect>
                    <rect id="Rectangle-134" x="106.454836" y="155.369498" width="76" height="11" rx="63"></rect>
                    <path d="M167.304079,186.369498 L152.791153,186.369498" id="Line-10" stroke-linecap="round"></path>
                </g>
            </g>
        </g>
    </g>
</svg>
