<svg xmlns="http://www.w3.org/2000/svg" xmlns:xlink="http://www.w3.org/1999/xlink" width="400px" height="372px" viewBox="0 0 400 510" version="1.1" class="about-desc-pics">
    <defs>
        <path d="M114.133229,6.0257277 L348.141026,120.158957 L234.007798,354.166754 L-9.9475983e-13,240.033525 L114.133229,6.0257277 L114.133229,6.0257277 Z"></path>
        <rect id="path-3" x="10.321459" y="64.0000538" width="296" height="296" rx="6"></rect>
    </defs>
    <g stroke="none" stroke-width="1" fill="none" fill-rule="evenodd">
        <g id="About-pics" transform="translate(-488, -759)">
            <g id="about-pics" transform="translate(535.000000, 740.000000)">
                <g id="about-pic-1" transform="translate(195.054692, 214.325870) rotate(-15.000000) translate(-195.054692, -214.325870) translate(41.554692, 34.325870)">
                    <g id="Rectangle-20">
                        <use stroke="#FFFFFF" stroke-width="10" fill="#967593" fill-rule="evenodd" xlink:href="#path-3"></use>
                        <use stroke="none" fill="none" xlink:href="#path-3"></use>
                    </g>
                    <path d="M53.2016687,188.05701 C43.9186909,192.306057 38.2627563,203.077603 40.0792753,214.546653 C42.2289619,228.11924 54.0294717,237.52899 66.4364517,235.563917 C66.5088813,235.552445 66.5811715,235.540611 66.653321,235.528417 C76.9284365,280.53931 119.78554,310.589079 165.181922,303.398998 C204.36138,297.193582 233.17035,265.191803 237.666763,226.982694 C238.335505,226.941911 239.007484,226.868742 239.681251,226.762028 C252.088231,224.796955 260.40341,212.201193 258.253723,198.628606 C257.497288,193.852664 255.545883,189.592167 252.793571,186.161342 C252.587071,182.342797 248.718472,113.805464 235.810378,89.4125079 C222.484625,64.2302821 204.71094,50.9455069 204.71094,50.9455069 C204.71094,50.9455069 198.862236,56.4343907 196.910579,59.3366752 C194.367706,63.1181504 191.227351,70.996786 191.227351,70.996786 C191.227351,70.996786 178.542579,54.1771066 169.688402,45.9192188 C163.586027,40.2278123 146.357697,29.1489031 146.357697,29.1489031 C146.357697,29.1489031 139.043917,37.5414631 136.367191,42.3712617 C133.009618,48.4295597 128.254801,61.8131929 128.254801,61.8131929 C128.254801,61.8131929 125.940762,55.7864119 124.11235,53.1377562 C121.247886,48.9882648 114.176171,41.4187516 114.176171,41.4187516 C114.176171,41.4187516 106.005982,51.1429069 102.817168,56.5105817 C99.2248153,62.5575268 93.8326718,75.6626113 93.8326718,75.6626113 L83.1141445,66.0943206 C83.1141445,66.0943206 64.4622844,90.6218002 55.7141431,123.249087 C48.349282,150.717257 52.5245171,183.268091 53.2016687,188.05701 Z" id="Oval-4" fill-opacity="0.05" fill="#000000"></path>
                    <g id="user" transform="translate(142.819236, 162.795572) rotate(-16.000000) translate(-142.819236, -162.795572) translate(33.819236, 25.295572)">
                        <path d="M109.944491,274.678369 C157.815436,274.678369 196.622504,234.925605 196.622504,185.888087 C196.622504,136.850568 157.815436,97.0978045 109.944491,97.0978045 C62.0735459,97.0978045 23.2664775,136.850568 23.2664775,185.888087 C23.2664775,234.925605 62.0735459,274.678369 109.944491,274.678369 Z" id="Oval-5" fill="#F1D2A7"></path>
                        <ellipse id="Oval-6" fill="#F1D2A7" cx="23.2511447" cy="167.086819" rx="22.6852613" ry="24.9295792"></ellipse>
                        <ellipse id="Oval-7" fill="#F1D2A7" cx="195.282504" cy="185.639735" rx="22.6852613" ry="24.9295792"></ellipse>
                        <path d="M158.404025,112.851984 C147.57706,104.905713 134.941944,115.672592 116.461135,114.113339 C101.511068,112.85198 89.695798,96.9159955 70.7179748,106.690787 C51.7401515,116.465578 29.0851459,162.337484 29.0851459,162.337484 C29.0851459,162.337484 32.2999989,151.107459 28.1581832,146.437894 C24.0163674,141.76833 17.5598555,143.588276 17.5598555,143.588276 C17.5598555,143.588276 17.6636638,107.409981 30.1537169,79.2413498 C43.8621767,48.3248647 66.063027,26.9761319 66.063027,26.9761319 L75.1289664,38.12479 C75.1289664,38.12479 82.4854863,26.0012729 86.9677877,20.5803274 C90.9465797,15.7683318 100.512247,7.42596666 100.512247,7.42596666 C100.512247,7.42596666 106.297567,16.0250694 108.47193,20.5803274 C109.859844,23.4879874 111.199079,29.8147207 111.199079,29.8147207 C111.199079,29.8147207 117.971229,17.315663 122.22402,11.8466844 C125.614432,7.48670323 134.128687,0.327841227 134.128687,0.327841227 C134.128687,0.327841227 149.371744,13.99171 154.495198,20.5803274 C161.929019,30.140014 171.800513,48.772753 171.800513,48.772753 C171.800513,48.772753 176.12334,41.4683411 179.218329,38.1247906 C181.593736,35.5586135 188.211698,31.0435703 188.211698,31.0435703 C188.211698,31.0435703 203.647815,46.9758181 212.845977,73.9845124 C222.01248,100.900248 214.463713,172.553982 214.463713,172.553982 C214.463713,172.553982 209.889384,163.982033 201.880722,165.696011 C193.872059,167.409988 192.82336,173.809673 192.82336,173.809673 C192.82336,173.809673 188.681538,135.073663 158.404025,112.851984 Z" fill="#333333"></path>
                        <path d="M82.9867427,225.710872 C82.9867427,225.710872 91.4929536,229.201757 108.901451,230.61625 C126.309948,232.030742 136.887243,230.61625 136.887243,230.61625 C136.887243,230.61625 135.735926,258.169468 107.315012,255.29332 C78.8940978,252.417171 82.9867427,225.710872 82.9867427,225.710872 Z" fill="#FFFFFF"></path>
                    </g>
                </g>
            </g>
        </g>
    </g>
</svg>
