<svg xmlns="http://www.w3.org/2000/svg" width="1818" height="1446"><g fill="none" fill-rule="evenodd" transform="rotate(3 1537.473 1080.034)"><path stroke="#FFF" stroke-dasharray="26" stroke-linecap="round" stroke-linejoin="round" stroke-width="10" d="M737.5 1393.5H349.467c-55.225 0-99.993-44.776-99.993-99.993v-.994c0-55.224 44.772-99.993 100-99.993h983.541c55.228 0 100-44.773 100-100.008v-5.377c0-55.233-44.774-100.008-99.992-100.008H973.822"/><path stroke="#FFF" stroke-dasharray="26" stroke-linecap="round" stroke-linejoin="round" stroke-width="10" d="M737.5 1393.5H349.467c-55.225 0-99.993-44.776-99.993-99.993v-.994c0-55.224 44.772-99.993 100-99.993h983.541c55.228 0 100-44.773 100-100.008v-5.377c0-55.233-44.774-100.008-99.992-100.008H973.822"/><path stroke="#FFF" stroke-dasharray="22" stroke-linecap="round" stroke-width="10" d="m1142.316 269.579 541.069-60.034c54.892-6.09 93.69 33.379 86.658 88.158l-37.214 289.887"/><path stroke="#FFF" stroke-width="10" d="m43.492 1075.515-24.981 6.247-1.778-25.688-13.661-21.828 23.882-9.63 16.538-19.737 16.538 19.737 23.882 9.63-13.661 21.828-1.778 25.688z"/><circle cx="1618.5" cy="20.5" r="20.5" stroke="#FFF" stroke-width="10"/><g transform="translate(820 1274)"><path stroke="#FFF" stroke-width="12" d="M140.986 231.846v-29.855s25.389-.835 31.26-8.924c8.006-11.029 10.37-48.429 10.37-48.429l11.632-.88c6.058-.459 8.98-5.337 6.572-10.916 0 0-2.412-5.111-4.52-11.353-2.432-7.2-6.97-25.603-6.97-25.603S194.92.418 98.525.418C63.944.418 41.3 13.486 22.098 35.129-2.386 60.345.604 101.555.604 101.555s-1.44 40.985 37.049 70.793c10.037 17.675 7.702 70.212 7.702 70.212l95.63-10.714Z"/><path stroke="#FFF" stroke-width="10" d="M22.59 85.781c1.23 9.007.077 21.832 5.869 29.235 7.46 9.536 21.796 18.87 29.064 24.875 12.018 9.93 12.137 23.475 16.736 26.608 4.315 2.94 14.123-3.292 14.123-22.061 0-10.372 33.31-10.198 38.29-7.08 4.979 3.116 22.691-8.54 26.414-18.619 1.005-2.718 15.969-10.56 18.618-20.945 5.139-20.142-3.596-51.07-15.988-58.748-18.783-11.637-16.072-8.662-32.55-13.175-16.476-4.513-28.278-13.217-44.73-3.28-16.452 9.939-22.589 9.507-38.276 20.536-6.993 4.917-19.833 26.077-17.57 42.654Z"/><circle cx="95.464" cy="79.343" r="35.412" fill="#FFF" opacity=".17"/><path stroke="#FFF" stroke-linecap="round" stroke-linejoin="round" stroke-width="10" d="m76.792 81.108 14.52 14.518 24.853-29.16"/></g><g fill="#744A71" stroke="#FFF" stroke-width="10" transform="translate(715.88 897.408)"><path d="M99.023 135.643c12.465 11.464 27.161 63.073 45.432 63.073 18.64 0 35.577-54.632 48.121-66.51 13.474-12.759 21.879-30.816 21.879-50.837 0-38.66-31.34-70-70-70s-70 31.34-70 70c0 20.39 10.657 41.48 24.568 54.274Z"/><path stroke-linecap="square" d="M144.455 74.87v74"/><circle cx="163.455" cy="79.369" r="18"/><circle cx="126.455" cy="79.369" r="18"/><path stroke-linecap="round" d="M54.955 140.87 34.43 161.393M227.955 140.87l20.524 20.524M54.955 21.87 34.43 1.344M29.304 81.37H.278M227.955 21.87l20.524-20.525"/><rect width="69" height="59" x="110.455" y="151.369" rx="63"/><rect width="76" height="11" x="106.455" y="155.369" rx="63"/><path stroke-linecap="round" d="M167.304 186.37h-14.513"/></g></g></svg>