<?xml version="1.0" encoding="UTF-8" standalone="no"?>
<svg width="366px" height="95px" viewBox="0 0 366 95" version="1.1" xmlns="http://www.w3.org/2000/svg" xmlns:xlink="http://www.w3.org/1999/xlink">
    <defs>
        <rect id="path-1" x="6.18398163" y="24.4312622" width="455.759248" height="124"></rect>
    </defs>
    <g id="Page-1" stroke="none" stroke-width="1" fill="none" fill-rule="evenodd">
        <g id="Artboard-6" transform="translate(-447.000000, -193.000000)">
            <g id="About-us" transform="translate(406.000000, 157.000000)">
                <mask id="mask-2" fill="white">
                    <use xlink:href="#path-1"></use>
                </mask>
                <use id="Slide-mask" transform="translate(234.063606, 86.431262) rotate(-6.000000) translate(-234.063606, -86.431262) " xlink:href="#path-1"></use>
                <path d="M76.0014648,111 L87.7568359,111 L69.3730469,58.1557617 L56.3725586,58.1557617 L38.0253906,111 L49.3779297,111 L53.40625,98.1826172 L71.9731445,98.1826172 L76.0014648,111 Z M62.5615234,68.2631836 L62.8178711,68.2631836 L69.5927734,89.90625 L55.7866211,89.90625 L62.5615234,68.2631836 Z M116.907227,111 C128.186523,111 135.181152,105.177246 135.181152,95.8754883 C135.181152,88.8808594 129.907715,83.644043 122.72998,83.0947266 L122.72998,82.8017578 C128.333008,81.9594727 132.654297,77.1254883 132.654297,71.3393555 C132.654297,63.2460938 126.428711,58.1557617 116.504395,58.1557617 L93.1767578,58.1557617 L93.1767578,111 L116.907227,111 Z M104.236328,66.3955078 L113.647949,66.3955078 C118.811523,66.3955078 121.777832,68.8125 121.777832,73.0605469 C121.777832,77.5283203 118.408691,80.128418 112.512695,80.128418 L104.236328,80.128418 L104.236328,66.3955078 Z M104.236328,102.760254 L104.236328,87.4160156 L113.831055,87.4160156 C120.349609,87.4160156 123.901855,90.0527344 123.901855,94.996582 C123.901855,100.050293 120.459473,102.760254 114.087402,102.760254 L104.236328,102.760254 Z M165.356934,57.2402344 C149.683105,57.2402344 139.868652,67.7504883 139.868652,84.5961914 C139.868652,101.405273 149.683105,111.915527 165.356934,111.915527 C180.994141,111.915527 190.845215,101.405273 190.845215,84.5961914 C190.845215,67.7504883 180.994141,57.2402344 165.356934,57.2402344 L165.356934,57.2402344 Z M165.356934,66.46875 C173.999512,66.46875 179.529297,73.5 179.529297,84.5961914 C179.529297,95.6557617 173.999512,102.650391 165.356934,102.650391 C156.677734,102.650391 151.147949,95.6557617 151.147949,84.5961914 C151.147949,73.5 156.714355,66.46875 165.356934,66.46875 L165.356934,66.46875 Z M209.045898,58.1557617 L197.986328,58.1557617 L197.986328,92.3232422 C197.986328,103.96875 206.592285,111.915527 220.14209,111.915527 C233.655273,111.915527 242.26123,103.96875 242.26123,92.3232422 L242.26123,58.1557617 L231.20166,58.1557617 L231.20166,91.2246094 C231.20166,97.9995117 227.209961,102.430664 220.14209,102.430664 C213.037598,102.430664 209.045898,97.9995117 209.045898,91.2246094 L209.045898,58.1557617 Z M274.963867,111 L274.963867,67.2744141 L290.45459,67.2744141 L290.45459,58.1557617 L248.450195,58.1557617 L248.450195,67.2744141 L263.904297,67.2744141 L263.904297,111 L274.963867,111 Z M323.816406,58.1557617 L312.756836,58.1557617 L312.756836,92.3232422 C312.756836,103.96875 321.362793,111.915527 334.912598,111.915527 C348.425781,111.915527 357.031738,103.96875 357.031738,92.3232422 L357.031738,58.1557617 L345.972168,58.1557617 L345.972168,91.2246094 C345.972168,97.9995117 341.980469,102.430664 334.912598,102.430664 C327.808105,102.430664 323.816406,97.9995117 323.816406,91.2246094 L323.816406,58.1557617 Z M363.879883,95.9487305 C364.209473,105.873047 372.302734,111.915527 385.010254,111.915527 C398.120605,111.915527 406.433594,105.433594 406.433594,95.1796875 C406.433594,87.1230469 401.819336,82.5820312 391.23584,80.3115234 L384.827148,78.956543 C378.748047,77.5649414 376.18457,75.7338867 376.18457,72.4746094 C376.18457,68.5561523 379.84668,65.9560547 385.303223,65.9560547 C390.833008,65.9560547 394.751465,68.6660156 395.117676,73.1337891 L405.481445,73.1337891 C405.29834,63.5756836 397.571289,57.2402344 385.266602,57.2402344 C373.474609,57.2402344 365.051758,63.6855469 365.051758,73.4267578 C365.051758,81.1538086 369.849121,86.0976562 379.590332,88.1850586 L386.475098,89.6865234 C392.847168,91.1147461 395.374023,93.019043 395.374023,96.4614258 C395.374023,100.343262 391.345703,103.163086 385.449707,103.163086 C379.590332,103.163086 375.049316,100.306641 374.536621,95.9487305 L363.879883,95.9487305 Z" id="ABOUT-US" fill="#5B3D59" mask="url(#mask-2)">
                    <g transform="translate(223.419678, 84.577881) rotate(-6.000000) translate(-223.419678, -84.577881)"></g>
                </path>
                <path d="M76.0014648,107 L87.7568359,107 L69.3730469,54.1557617 L56.3725586,54.1557617 L38.0253906,107 L49.3779297,107 L53.40625,94.1826172 L71.9731445,94.1826172 L76.0014648,107 Z M62.5615234,64.2631836 L62.8178711,64.2631836 L69.5927734,85.90625 L55.7866211,85.90625 L62.5615234,64.2631836 Z M116.907227,107 C128.186523,107 135.181152,101.177246 135.181152,91.8754883 C135.181152,84.8808594 129.907715,79.644043 122.72998,79.0947266 L122.72998,78.8017578 C128.333008,77.9594727 132.654297,73.1254883 132.654297,67.3393555 C132.654297,59.2460938 126.428711,54.1557617 116.504395,54.1557617 L93.1767578,54.1557617 L93.1767578,107 L116.907227,107 Z M104.236328,62.3955078 L113.647949,62.3955078 C118.811523,62.3955078 121.777832,64.8125 121.777832,69.0605469 C121.777832,73.5283203 118.408691,76.128418 112.512695,76.128418 L104.236328,76.128418 L104.236328,62.3955078 Z M104.236328,98.7602539 L104.236328,83.4160156 L113.831055,83.4160156 C120.349609,83.4160156 123.901855,86.0527344 123.901855,90.996582 C123.901855,96.050293 120.459473,98.7602539 114.087402,98.7602539 L104.236328,98.7602539 Z M165.356934,53.2402344 C149.683105,53.2402344 139.868652,63.7504883 139.868652,80.5961914 C139.868652,97.4052734 149.683105,107.915527 165.356934,107.915527 C180.994141,107.915527 190.845215,97.4052734 190.845215,80.5961914 C190.845215,63.7504883 180.994141,53.2402344 165.356934,53.2402344 L165.356934,53.2402344 Z M165.356934,62.46875 C173.999512,62.46875 179.529297,69.5 179.529297,80.5961914 C179.529297,91.6557617 173.999512,98.6503906 165.356934,98.6503906 C156.677734,98.6503906 151.147949,91.6557617 151.147949,80.5961914 C151.147949,69.5 156.714355,62.46875 165.356934,62.46875 L165.356934,62.46875 Z M209.045898,54.1557617 L197.986328,54.1557617 L197.986328,88.3232422 C197.986328,99.96875 206.592285,107.915527 220.14209,107.915527 C233.655273,107.915527 242.26123,99.96875 242.26123,88.3232422 L242.26123,54.1557617 L231.20166,54.1557617 L231.20166,87.2246094 C231.20166,93.9995117 227.209961,98.4306641 220.14209,98.4306641 C213.037598,98.4306641 209.045898,93.9995117 209.045898,87.2246094 L209.045898,54.1557617 Z M274.963867,107 L274.963867,63.2744141 L290.45459,63.2744141 L290.45459,54.1557617 L248.450195,54.1557617 L248.450195,63.2744141 L263.904297,63.2744141 L263.904297,107 L274.963867,107 Z M323.816406,54.1557617 L312.756836,54.1557617 L312.756836,88.3232422 C312.756836,99.96875 321.362793,107.915527 334.912598,107.915527 C348.425781,107.915527 357.031738,99.96875 357.031738,88.3232422 L357.031738,54.1557617 L345.972168,54.1557617 L345.972168,87.2246094 C345.972168,93.9995117 341.980469,98.4306641 334.912598,98.4306641 C327.808105,98.4306641 323.816406,93.9995117 323.816406,87.2246094 L323.816406,54.1557617 Z M363.879883,91.9487305 C364.209473,101.873047 372.302734,107.915527 385.010254,107.915527 C398.120605,107.915527 406.433594,101.433594 406.433594,91.1796875 C406.433594,83.1230469 401.819336,78.5820312 391.23584,76.3115234 L384.827148,74.956543 C378.748047,73.5649414 376.18457,71.7338867 376.18457,68.4746094 C376.18457,64.5561523 379.84668,61.9560547 385.303223,61.9560547 C390.833008,61.9560547 394.751465,64.6660156 395.117676,69.1337891 L405.481445,69.1337891 C405.29834,59.5756836 397.571289,53.2402344 385.266602,53.2402344 C373.474609,53.2402344 365.051758,59.6855469 365.051758,69.4267578 C365.051758,77.1538086 369.849121,82.0976562 379.590332,84.1850586 L386.475098,85.6865234 C392.847168,87.1147461 395.374023,89.019043 395.374023,92.4614258 C395.374023,96.3432617 391.345703,99.1630859 385.449707,99.1630859 C379.590332,99.1630859 375.049316,96.3066406 374.536621,91.9487305 L363.879883,91.9487305 Z" id="ABOUT-US" fill="#FFFFFF"  mask="url(#mask-2)">
                    <g transform="translate(223.419678, 80.577881) rotate(-6.000000) translate(-223.419678, -80.577881) "></g>
                </path>
            </g>
        </g>
    </g>
</svg>
