<svg xmlns="http://www.w3.org/2000/svg" xmlns:xlink="http://www.w3.org/1999/xlink" width="380" height="95" viewBox="0 0 366 95"><defs><path id="a" d="M6.184 24.431h455.759v124H6.184z"/></defs><g fill="none" fill-rule="evenodd" transform="translate(-41 -36)"><mask id="b" fill="#fff"><use xlink:href="#a"/></mask><use xlink:href="#a" transform="rotate(-6 234.064 86.431)"/><path fill="rgba(0,0,0,.4)" d="M76.001 111h11.756L69.373 58.156h-13L38.025 111h11.353l4.028-12.817h18.567L76.001 111Zm-13.44-42.737h.257l6.775 21.643H55.787l6.775-21.643ZM116.908 111c11.28 0 18.274-5.823 18.274-15.125 0-6.994-5.273-12.231-12.451-12.78v-.293c5.603-.843 9.924-5.677 9.924-11.463 0-8.093-6.225-13.183-16.15-13.183H93.177V111h23.73Zm-12.67-44.604h9.41c5.165 0 8.13 2.416 8.13 6.665 0 4.467-3.368 7.067-9.264 7.067h-8.277V66.396Zm0 36.364V87.416h9.594c6.519 0 10.07 2.637 10.07 7.58 0 5.054-3.442 7.764-9.814 7.764h-9.85Zm61.12-45.52c-15.674 0-25.488 10.51-25.488 27.356 0 16.81 9.814 27.32 25.488 27.32 15.637 0 25.488-10.51 25.488-27.32 0-16.846-9.85-27.356-25.488-27.356Zm0 9.229c8.643 0 14.172 7.031 14.172 18.127 0 11.06-5.53 18.054-14.172 18.054-8.68 0-14.21-6.994-14.21-18.054 0-11.096 5.567-18.127 14.21-18.127Zm43.689-8.313h-11.06v34.167c0 11.646 8.606 19.593 22.156 19.593 13.513 0 22.12-7.947 22.12-19.593V58.156h-11.06v33.069c0 6.775-3.992 11.206-11.06 11.206-7.104 0-11.096-4.431-11.096-11.206v-33.07ZM274.964 111V67.274h15.49v-9.118H248.45v9.118h15.454V111h11.06Zm48.852-52.844h-11.06v34.167c0 11.646 8.607 19.593 22.157 19.593 13.513 0 22.119-7.947 22.119-19.593V58.156h-11.06v33.069c0 6.775-3.992 11.206-11.06 11.206-7.104 0-11.096-4.431-11.096-11.206v-33.07Zm40.064 37.793c.33 9.924 8.423 15.967 21.13 15.967 13.11 0 21.424-6.482 21.424-16.736 0-8.057-4.615-12.598-15.198-14.868l-6.409-1.355c-6.079-1.392-8.642-3.223-8.642-6.482 0-3.919 3.662-6.519 9.118-6.519 5.53 0 9.448 2.71 9.815 7.178h10.363c-.183-9.558-7.91-15.894-20.214-15.894-11.792 0-20.215 6.446-20.215 16.187 0 7.727 4.797 12.67 14.538 14.758l6.885 1.502c6.372 1.428 8.899 3.332 8.899 6.774 0 3.882-4.028 6.702-9.924 6.702-5.86 0-10.4-2.856-10.913-7.214H363.88Z" mask="url(#b)"/><path fill="#FFF" d="M76.001 107h11.756L69.373 54.156h-13L38.025 107h11.353l4.028-12.817h18.567L76.001 107Zm-13.44-42.737h.257l6.775 21.643H55.787l6.775-21.643ZM116.908 107c11.28 0 18.274-5.823 18.274-15.125 0-6.994-5.273-12.231-12.451-12.78v-.293c5.603-.843 9.924-5.677 9.924-11.463 0-8.093-6.225-13.183-16.15-13.183H93.177V107h23.73Zm-12.67-44.604h9.41c5.165 0 8.13 2.416 8.13 6.665 0 4.467-3.368 7.067-9.264 7.067h-8.277V62.396Zm0 36.364V83.416h9.594c6.519 0 10.07 2.637 10.07 7.58 0 5.054-3.442 7.764-9.814 7.764h-9.85Zm61.12-45.52c-15.674 0-25.488 10.51-25.488 27.356 0 16.81 9.814 27.32 25.488 27.32 15.637 0 25.488-10.51 25.488-27.32 0-16.846-9.85-27.356-25.488-27.356Zm0 9.229c8.643 0 14.172 7.031 14.172 18.127 0 11.06-5.53 18.054-14.172 18.054-8.68 0-14.21-6.994-14.21-18.054 0-11.096 5.567-18.127 14.21-18.127Zm43.689-8.313h-11.06v34.167c0 11.646 8.606 19.593 22.156 19.593 13.513 0 22.12-7.947 22.12-19.593V54.156h-11.06v33.069c0 6.775-3.992 11.206-11.06 11.206-7.104 0-11.096-4.431-11.096-11.206v-33.07ZM274.964 107V63.274h15.49v-9.118H248.45v9.118h15.454V107h11.06Zm48.852-52.844h-11.06v34.167c0 11.646 8.607 19.593 22.157 19.593 13.513 0 22.119-7.947 22.119-19.593V54.156h-11.06v33.069c0 6.775-3.992 11.206-11.06 11.206-7.104 0-11.096-4.431-11.096-11.206v-33.07Zm40.064 37.793c.33 9.924 8.423 15.967 21.13 15.967 13.11 0 21.424-6.482 21.424-16.736 0-8.057-4.615-12.598-15.198-14.868l-6.409-1.355c-6.079-1.392-8.642-3.223-8.642-6.482 0-3.919 3.662-6.519 9.118-6.519 5.53 0 9.448 2.71 9.815 7.178h10.363c-.183-9.558-7.91-15.894-20.214-15.894-11.792 0-20.215 6.446-20.215 16.187 0 7.727 4.797 12.67 14.538 14.758l6.885 1.502c6.372 1.428 8.899 3.332 8.899 6.774 0 3.882-4.028 6.702-9.924 6.702-5.86 0-10.4-2.856-10.913-7.214H363.88Z" mask="url(#b)"/></g></svg>