<svg xmlns="http://www.w3.org/2000/svg" xml:space="preserve" viewBox="0 0 30 30"><path fill="#FFF" d="M15 28.1C7.8 28.1 1.9 22.2 1.9 15 1.9 7.8 7.8 1.9 15 1.9c7.2 0 13.1 5.8 13.1 13.1 0 7.2-5.9 13.1-13.1 13.1z" opacity=".25"/><path fill="#FFF" d="M15 26.4C8.7 26.4 3.6 21.3 3.6 15 3.6 8.8 8.7 3.7 15 3.7c6.3 0 11.4 5.1 11.4 11.4 0 6.2-5.1 11.3-11.4 11.3z"/><linearGradient id="a" x1="15.838" x2="23.976" y1="11.983" y2="20.121" gradientUnits="userSpaceOnUse"><stop offset="0" style="stop-color:#aa30be"/><stop offset="1" style="stop-color:#5723b5"/></linearGradient><path fill="none" stroke="url(#a)" stroke-miterlimit="10" stroke-width=".149" d="m18.8 17.5.1 1.1m-1.2-.6c.9-.2 1.7-.8 1.8-1.7l.2-2.5c0-.5-.4-1-.9-1h-1.7m.2-2.3s.7.7 1.4.7.8.5.8.5c.1.4-.2.8-.6.8h-1.8m2.6 6.3c.2-.2.6-.3.9-.2l.7.2c.3.1.6.3.7.7l.7 1.8h-1.6"/><linearGradient id="b" x1="57.749" x2="65.887" y1="11.983" y2="20.121" gradientTransform="matrix(-1 0 0 1 71.911 0)" gradientUnits="userSpaceOnUse"><stop offset="0" style="stop-color:#aa30be"/><stop offset="1" style="stop-color:#5723b5"/></linearGradient><path fill="none" stroke="url(#b)" stroke-miterlimit="10" stroke-width=".149" d="m11.1 18.5.1-1.1m1.7-4.7h-1.7c-.5 0-.9.5-.9 1l.2 2.5c.1.9.9 1.5 1.8 1.7m.6-5.4h-1.8c-.4 0-.7-.4-.6-.8 0 0 .1-.5.8-.5.7 0 1.4-.7 1.4-.7M8.9 21.2H7.3l.7-1.8c.1-.3.4-.6.7-.7l.7-.2c.3-.1.6 0 .9.2"/><linearGradient id="c" x1="9.66" x2="20.154" y1="12.096" y2="22.59" gradientUnits="userSpaceOnUse"><stop offset="0" style="stop-color:#aa30be"/><stop offset="1" style="stop-color:#5723b5"/></linearGradient><path fill="url(#c)" d="M14.2 17.8c-1-.2-1.7-1.1-1.8-2.1l-.3-2.8c-.1-.6.4-1.1 1-1.1h3.8c.6 0 1 .5 1 1.1l-.3 2.8c-.1 1-.8 1.8-1.8 2.1-.5.1-1.1.1-1.6 0zm-.1-10.1s0 2.5-.8 2.5-.4-.9-.4-.9l-.5 1.4c-.1.4.2.9.6.9h4c.4 0 .8-.4.6-.9l-.5-1.4s.3.9-.4.9c-.8 0-2.6-2.5-2.6-2.5zm.9 12.4-.5.6-2.3-2.1c-.3-.2-.6-.3-1-.2l-.8.2c-.4.1-.7.4-.8.7l-.9 2.3h12.6l-.9-2.3c-.1-.4-.4-.6-.8-.7l-.8-.2c-.3-.1-.7 0-1 .2l-2.3 2.1-.5-.6zm2.7-1.8-2.1 1.9-.6-1.4-.6 1.5-2.1-1.9c-.2-.2-.2-.5-.1-.7l.4-.5c.7 1.1 2.4 1.5 2.4 1.5s1.9-.5 2.4-1.5l.4.5c.1.1.1.4-.1.6zm-3.3 1.3c0-.1-.1-.1-.1-.1-.1 0-.1.1-.1.1 0 .1.1.1.1.1.1 0 .1-.1.1-.1zm1.4 0c0-.1-.1-.1-.1-.1l-.1.1c0 .1.1.1.1.1l.1-.1z"/></svg>