<svg xmlns="http://www.w3.org/2000/svg" xml:space="preserve" viewBox="0 0 30 30"><path fill="#FFF" d="M15 28.1C7.8 28.1 1.9 22.2 1.9 15 1.9 7.8 7.8 1.9 15 1.9c7.2 0 13.1 5.8 13.1 13.1 0 7.2-5.9 13.1-13.1 13.1z" opacity=".25"/><path fill="#FFF" d="M15 26.4C8.7 26.4 3.6 21.3 3.6 15 3.6 8.8 8.7 3.7 15 3.7c6.3 0 11.4 5.1 11.4 11.4 0 6.2-5.1 11.3-11.4 11.3z"/><linearGradient id="a" x1="9.998" x2="20.002" y1="9.215" y2="19.219" gradientUnits="userSpaceOnUse"><stop offset="0" style="stop-color:#aa30be"/><stop offset="1" style="stop-color:#5723b5"/></linearGradient><path fill="url(#a)" d="M15 14.3c.1-.1 1.9-.9 3.4 0 1.4.8 1.6 2.5 1.6 3 .2 2.2-2.4 4.6-5 6-2.6-1.5-5.2-3.8-5-6 0-.5.2-2.2 1.6-3 1.5-.9 3.3-.1 3.4 0m0-5.7s-.5 0-.5.3c0 0-.1-.3-.3-.4-1.5-.3-2.9 0-2.9 0l-.8.2-.2.4v.2s.1-.3.2-.4c.1-.1.7-.1.6 0-.1.4-.1.9.1 1.3.1.2.3.4.5.6.7.4 2.1-.1 2.6-1.5 0 0 .1-.3.5-.4.4.1.5.4.5.4.6 1.4 1.9 1.9 2.6 1.5.2-.1.4-.3.5-.6.2-.4.2-.9.1-1.3 0-.1.6 0 .6 0 .1.1.2.4.2.4v-.2l-.2-.4-.8-.2s-1.4-.3-2.9 0c-.2.1-.3.4-.3.4.4-.3-.1-.3-.1-.3m0 3.9c-.2-.1-.9-.5-1.9-.4-.6.1-.9.7-1.6.7-.3 0-.5-.1-.7-.2.2.3.6.5.8.6 1.4.8 3.1-.1 3.3-.2.2.1 1.9 1 3.3.2.2-.1.5-.3.8-.6-.1.1-.4.2-.7.2-.7 0-1-.6-1.6-.7-.8-.1-1.5.3-1.7.4z"/></svg>