<svg xmlns="http://www.w3.org/2000/svg" xml:space="preserve" viewBox="0 0 30 30"><path fill="#FFF" d="M15 28.1C7.8 28.1 1.9 22.2 1.9 15 1.9 7.8 7.8 1.9 15 1.9c7.2 0 13.1 5.8 13.1 13.1 0 7.2-5.9 13.1-13.1 13.1z" opacity=".25"/><path fill="#FFF" d="M15 26.4C8.7 26.4 3.6 21.3 3.6 15 3.6 8.8 8.7 3.7 15 3.7c6.3 0 11.4 5.1 11.4 11.4 0 6.2-5.1 11.3-11.4 11.3z"/><linearGradient id="a" x1="11.888" x2="21.429" y1="13.723" y2="23.264" gradientUnits="userSpaceOnUse"><stop offset="0" style="stop-color:#aa30be"/><stop offset="1" style="stop-color:#5723b5"/></linearGradient><path fill="url(#a)" d="M20.9 15h-10c-.4 0-.8.4-.8.8v4c0 .4.4.8.8.8h8c1.5 0 2.2 1 2.7 2.4V15.8c.1-.4-.2-.8-.7-.8zm-5.5 4h-4.1c-.1 0-.2-.1-.2-.2s.1-.2.2-.2h4.1c.1 0 .2.1.2.2s-.1.2-.2.2zm1.4-1.1h-5.4c-.1 0-.2-.1-.2-.2s.1-.2.2-.2h5.4c.1 0 .2.1.2.2s-.1.2-.2.2zm3.1-1.2h-8.5c-.1 0-.2-.1-.2-.2s.1-.2.2-.2h8.5c.1 0 .2.1.2.2-.1.2-.1.2-.2.2z"/><linearGradient id="b" x1="8.527" x2="15.068" y1="8.636" y2="15.177" gradientUnits="userSpaceOnUse"><stop offset="0" style="stop-color:#aa30be"/><stop offset="1" style="stop-color:#5723b5"/></linearGradient><path fill="url(#b)" d="M16 8.4H9.1c-.4 0-.8.4-.8.8V16.4C8.8 14.9 9.5 14 11 14h5c.4 0 .8-.4.8-.8v-4c0-.4-.4-.8-.8-.8zM9.8 9.9h3.8c.1 0 .2.1.2.2s-.1.2-.2.2H9.8c-.1 0-.2-.1-.2-.2s.1-.2.2-.2zm1.1 2.7H9.8c-.1 0-.2-.1-.2-.2s.1-.2.2-.2h1.1c.1 0 .2.1.2.2s-.1.2-.2.2zm4.4 0h-2.1c-.1 0-.2-.1-.2-.2s.1-.2.2-.2h2.1c.1 0 .2.1.2.2l-.2.2zm0-1.2H9.8c-.1 0-.2-.1-.2-.2s.1-.2.2-.2h5.4c.1 0 .2.1.2.2s-.1.2-.1.2z" opacity=".6"/></svg>