<svg xmlns="http://www.w3.org/2000/svg" xml:space="preserve" viewBox="0 0 30 30"><path fill="#FFF" d="M15 28.1C7.8 28.1 1.9 22.2 1.9 15 1.9 7.8 7.8 1.9 15 1.9c7.2 0 13.1 5.8 13.1 13.1 0 7.2-5.9 13.1-13.1 13.1z" opacity=".25"/><path fill="#FFF" d="M15 26.4C8.7 26.4 3.6 21.3 3.6 15 3.6 8.8 8.7 3.7 15 3.7c6.3 0 11.4 5.1 11.4 11.4 0 6.2-5.1 11.3-11.4 11.3z"/><linearGradient id="a" x1="10.081" x2="19.919" y1="10.808" y2="20.645" gradientUnits="userSpaceOnUse"><stop offset="0" style="stop-color:#aa30be"/><stop offset="1" style="stop-color:#5723b5"/></linearGradient><path fill="url(#a)" d="M18.9 12.4h-7.7c-.4 0-.7.3-.7.7v7.5c0 .4.3.7.7.7h7.7c.4 0 .7-.3.7-.7v-7.5c0-.4-.3-.7-.7-.7zm-1.3 4.5c-.5 1-1.2 1.6-2.6 2.6-1.4-1-2.1-1.6-2.6-2.6-.3-.7-.5-2 .5-2.5.6-.3 1.6-.1 2.1.8.5-.9 1.5-1.1 2.1-.8 1 .5.8 1.8.5 2.5zm2.9-5.5c.2.2.1.5-.2.5H9.7c-.3 0-.4-.3-.2-.5L15 8.1l5.5 3.3z"/></svg>