<svg xmlns="http://www.w3.org/2000/svg" xml:space="preserve" viewBox="0 0 30 30"><path fill="#FFF" d="M15 28.1C7.8 28.1 1.9 22.2 1.9 15 1.9 7.8 7.8 1.9 15 1.9c7.2 0 13.1 5.8 13.1 13.1 0 7.2-5.9 13.1-13.1 13.1z" opacity=".25"/><path fill="#FFF" d="M15 26.4C8.7 26.4 3.6 21.3 3.6 15 3.6 8.8 8.7 3.7 15 3.7c6.3 0 11.4 5.1 11.4 11.4 0 6.2-5.1 11.3-11.4 11.3z"/><linearGradient id="a" x1="12.742" x2="17.258" y1="9.262" y2="13.778" gradientUnits="userSpaceOnUse"><stop offset="0" style="stop-color:#aa30be"/><stop offset="1" style="stop-color:#5723b5"/></linearGradient><path fill="url(#a)" d="M15 14.3c-1.8 0-3.3-.8-3.3-2.6s1.5-3.3 3.3-3.3 3.3 1.5 3.3 3.3c0 1.8-1.5 2.6-3.3 2.6zm0-5.8c-1.8 0-3.2 1.4-3.2 3.2 0 1.8 1.4 2.5 3.2 2.5s3.2-.7 3.2-2.5-1.4-3.2-3.2-3.2zm0 5.5c-1.6 0-2.9-.7-2.9-2.3s1.3-2.9 2.9-2.9 2.9 1.3 2.9 2.9S16.6 14 15 14zm0-5c-1.5 0-2.7 1.2-2.7 2.7s1.2 2 2.7 2 2.7-.6 2.7-2S16.5 9 15 9zm-.2 4.6v-.5c-.3 0-.6-.1-.7-.2l.1-.3c.2.1.4.2.7.2.3 0 .6-.2.6-.5s-.2-.4-.5-.6c-.5-.2-.8-.4-.8-.8s.3-.7.7-.8v-.3h.3v.5c.3 0 .5.1.6.2l-.1.3c-.1-.1-.3-.2-.6-.2-.4 0-.5.2-.5.4s.2.4.6.5c.5.2.7.4.7.9 0 .4-.3.7-.7.8v.5h-.4z"/><linearGradient id="b" x1="10.968" x2="19.032" y1="11.832" y2="19.895" gradientUnits="userSpaceOnUse"><stop offset="0" style="stop-color:#aa30be"/><stop offset="1" style="stop-color:#5723b5"/></linearGradient><path fill="url(#b)" d="M15.4 21.7h-.9c-2.3 0-4.2-1.9-4.2-4.2v-2.8h9.3v2.8c.1 2.3-1.8 4.2-4.2 4.2zm4.3-9.2h-9.3v2h9.3v-2z"/></svg>