<svg xmlns="http://www.w3.org/2000/svg" viewBox="-251 362.4 91.7 117.5"><ellipse fill="#FFF" cx="-204.9" cy="416.8" rx="30.3" ry="41.2"/><circle fill="#5F52CA" cx="-191.3" cy="417.9" r=".9"/><path fill="#5F52CA" d="M-182.4 413.4s-5.5-2.5-6.7-2.8c0 0-7.5.8-9.3 1.4l-.1 2.4 8.9-2.1h1.2l6 1.1zM-198.4 442.3c-1.6-.3-2.7-.6-3.2-1.1l-2 .8-2-.8c-.5.4-1.6.7-3.2 1.1-2.2.4-4-.3-4-.3.7.4 1.5 1.4 3.3 1.6 1.6.2 2.6-.2 3.4-.4l2.6.8 2-.8c.7.2 2.3.6 3.9.4 1.8-.2 2.6-1.2 3.3-1.6 0-.1-1.9.7-4.1.3z"/><path fill="#5F52CA" d="M-212.5 442.1c.3.5 3.7 4.8 8.9 4.9 5.4.1 8.4-4.3 8.7-4.7 0 0-6.8 2.6-8.7 2.7-2.1 0-8.9-2.9-8.9-2.9z"/><path fill="none" stroke="#5F52CA" stroke-width=".5" stroke-linejoin="round" stroke-miterlimit="10" d="M-229 415.7c1.5 10.8 3.2 24.7 3.2 24.7 0 6.6 15.4 17.5 18 17.5h8.3c2.1 0 18.1-11.1 18.1-17.7 0 0 2-24.3 1.9-32.6"/><path fill="#FFF" stroke="#5F52CA" stroke-width=".5" stroke-linejoin="round" stroke-miterlimit="10" d="M-166.9 413.7c.8 2.4 1.6 5.7 1.3 11.3-.5 8.9-8.5 13.8-6.1 21.4 1.3 4.2 4.8 7.7 3.8 8.7-.8.8-3.6-.8-4.6-1.3-2.2-1.2-6.6-5.3-9.6-10.8"/><path fill="#FFF" stroke="#5F52CA" stroke-width=".5" stroke-linejoin="round" stroke-miterlimit="10" d="M-207.2 379.1c1-1.3 2.4-2.3 3.5-2.7 8.5-3.8 22.5 7.8 25 12.3 2 5.3-2 6.5-.8 8.2 1.4 1.9 3.8.8 7.3 2.8 3.1 1.8 5.3 5 5.8 8.3.5 3.3-.6 6.7-1.6 6.8-.9 0-.7-3.2-2.9-5.4-3.7-3.8-9.3.1-13.1-2.8-4.8-3.7.6-12.5-5.2-18.4-1.3-1.3-4.7-4-9-4.3-3.5-.2-6.8 1.2-8.3-.5-.4-.9-.7-3.7-.7-4.3M-239.1 398.5c-.8 1.5-.8 3.7 0 5.2 1.2 2.1 4.6 1.1 5.7 3.1 1.2 2.1-.6 6.7-3.4 6.9-1.6.1-3.4-1.3-4.3-3.5.6 4.8 3.4 8.2 6.5 8.5 3 .3 5.3-2.5 6.8-4.3 2.3-2.8 4.5-7.6 2.8-11.4-.5-1.2-1-1.2-1.5-2.3-1.3-2.8-2.6-8.1 4.3-12.9 1.4-1 3.2-1.2 4.8-.6.6.2 1.3.3 2.2.3 3.2-.3 7.9-3.6 7.3-8.2-.6-.6-2.5-1.9-4.8-2.4-5.8-1.4-11.4 3.9-14.9 7.3-2 1.9-21.3 20.7-16.1 39.8 2.5 9 8.7 11.8 7.9 20-.6 5.7-4.1 10.1-7.1 12.9 7-.1 13.1-3.6 15.8-9.3 2.1-4.3 1.5-7.8 1.2-9.5"/><path fill="none" stroke="#5F52CA" stroke-width=".5" stroke-linejoin="round" stroke-miterlimit="10" d="M-189 416.6c.1.3.2.6.2.9 0 1.3-1 2.5-2.4 2.5-1.3 0-2.5-1-2.5-2.4 0-.3.4-.7.4-.7s1.3-.7 2.1-.7 2.2.4 2.2.4z"/><path fill="none" stroke="#5F52CA" stroke-width=".5" stroke-linejoin="round" stroke-miterlimit="10" d="M-186.5 418.9c-.1-.2-1.6-2.7-4.6-2.6-2.2 0-3.9 2.1-5.5 3.8l2.1-.2c.9.2 2 .3 3.4.2 1.7-.2 3.7-.8 4.6-1.2"/><path fill="none" stroke="#5F52CA" stroke-width=".5" stroke-linejoin="round" stroke-miterlimit="10" d="M-194.9 416.9c.9-1.1 1.8-1.4 2.3-1.5 2.3-.6 5.1.7 7 3.5M-194.6 420.8c.7.3 1.9.9 3.6.9 1.5 0 2.7-.3 3.4-.6M-209 436.4c.5.9.8 1.1.9 1.1.2 0 .3-.4.9-1 .2-.2.4-.3.5-.4.8-.2 1.9 1.7 2.1 1.9h2c.1-.2 1.3-2.2 2.1-1.9.1 0 .3.2.5.4.6.6.6 1 .9 1 .2 0 .5-.1.9-1.1M-206.8 382.2c.4 4.4 2.5 7.6 5.4 11.4 6.9 9.3 15.2 14.4 20.6 17.1-4.4-2.5-11.2-7.1-16.9-15.2-2.9-4.1-4.7-8-5.9-11.3M-208.9 383.3c-.9 5-11.6 11.8-12.7 11-.3-.2-.9-1.1-2-1.2-.8-.1-1.6.3-2.1.7"/><circle fill="#5F52CA" cx="-215.9" cy="417.9" r=".9"/><path fill="#5F52CA" d="M-225 413.4s5.5-2.5 6.7-2.8c0 0 7.5.8 9.3 1.4l.1 2.4-8.9-2.1h-1.2l-6 1.1z"/><path fill="none" stroke="#5F52CA" stroke-width=".5" stroke-linejoin="round" stroke-miterlimit="10" d="M-218.1 416.6c-.1.3-.2.6-.2.9 0 1.3 1 2.5 2.4 2.5 1.3 0 2.5-1 2.5-2.4 0-.3-.4-.7-.4-.7s-1.3-.7-2.1-.7c-.9 0-2.2.4-2.2.4z"/><path fill="none" stroke="#5F52CA" stroke-width=".5" stroke-linejoin="round" stroke-miterlimit="10" d="M-220.6 418.9c.1-.2 1.6-2.7 4.6-2.6 2.2 0 3.9 2.1 5.5 3.8l-2.1-.2c-.9.2-2 .3-3.4.2-1.8-.2-3.7-.8-4.6-1.2"/><path fill="none" stroke="#5F52CA" stroke-width=".5" stroke-linejoin="round" stroke-miterlimit="10" d="M-212.2 416.9c-.9-1.1-1.8-1.4-2.3-1.5-2.3-.6-5.1.7-7 3.5M-212.6 420.8c-.7.3-1.9.9-3.6.9-1.5 0-2.7-.3-3.4-.6M-209.3 414c.5.4 2.4 2.6 3 4.8.5 1.8.1 3.3-.1 4M-197.9 414c-.5.4-2.4 2.6-3 4.8-.5 1.8-.1 3.3.1 4M-203.7 384.2c2.6 4.8 6.1 6.9 8.2 7.4 2.6.6 4.7-.3 7.1 1.1 1.9 1.1 4.3 5.2 4.9 6.7"/></svg>