<svg xmlns="http://www.w3.org/2000/svg" viewBox="-250 361.4 91.7 117.5"><path fill="#FFF" stroke="#5F52CA" stroke-width=".5" stroke-miterlimit="10" d="M-197 460.4c5 0 17.3-24.3 17.3-24.3 1.8-3 2.6-15.1 2.6-18.6 0 0 1.1-17.9 1.1-23.9-7.3-14.5-20.1-18.4-28.4-18.4-8.7 0-19.4 3.6-28.5 18.4 0 7.4 1.4 23.9 1.4 23.9 0 3.5 1.1 16 2.9 19 0 0 11.7 23.9 16.7 23.9h14.9z"/><circle fill="#5F52CA" cx="-191.6" cy="416.3" r=".5"/><path fill="none" stroke="#5F52CA" stroke-width=".5" stroke-miterlimit="10" d="M-177.1 417.5h-1l-3.4-22.2h-45.2l-3.6 22.2h-1"/><path fill="none" stroke="#5F52CA" stroke-width=".5" stroke-miterlimit="10" d="M-181 411l-3.9-1.7c-3.5.8-6.9 1.6-10.4 2.4-.4.1-5.2.9-6.5 4.5-1.4 3.9 2.3 7.5 2.5 7.8M-189.2 407.5l4.5-1.1 3.7 3"/><path fill="none" stroke="#5F52CA" stroke-width=".5" stroke-linejoin="round" stroke-miterlimit="10" d="M-186.2 417.7c-.5-.5-2.2-2.1-4.9-2.4-3-.3-5.2 1.1-5.7 1.5 1.4.5 3.1.9 5.2 1.1 1.8.1 4.1-.1 5.4-.2"/><path fill="none" stroke="#5F52CA" stroke-width=".5" stroke-linejoin="round" stroke-miterlimit="10" d="M-193.8 415.4c.1 1.3 1 2.6 2.5 2.4 1.1-.1 1.9-1 2-2.2"/><path fill="none" stroke="#5F52CA" stroke-width=".5" stroke-linejoin="round" stroke-miterlimit="10" d="M-198.3 416.7c.4-.4 3.8-3.5 8.3-2.7 2.1.4 3.6 1.5 4.3 2.2M-207.6 432.5c.2 1.6 1.5 2.8 3.1 2.8 1.6.1 3.1-1.2 3.3-2.9M-200.5 433.9c.2-.5.6-1 1.1-1.1.6-.1 1 .5 1.4.3.6-.2 1.5-3.2-.7-4.5"/><circle fill="#5F52CA" cx="-217.2" cy="416.3" r=".5"/><path fill="none" stroke="#5F52CA" stroke-width=".5" stroke-miterlimit="10" d="M-227.9 411l3.9-1.7c3.5.8 6.9 1.6 10.4 2.4.4.1 5.2.9 6.5 4.5 1.4 3.9-2.3 7.5-2.5 7.8M-219.6 407.5l-4.5-1.1-3.8 3"/><path fill="none" stroke="#5F52CA" stroke-width=".5" stroke-linejoin="round" stroke-miterlimit="10" d="M-222.6 417.7c.5-.5 2.2-2.1 4.9-2.4 3-.3 5.2 1.1 5.7 1.5-1.4.5-3.1.9-5.2 1.1-1.8.1-4.1-.1-5.4-.2"/><path fill="none" stroke="#5F52CA" stroke-width=".5" stroke-linejoin="round" stroke-miterlimit="10" d="M-215.1 415.4c-.1 1.3-1 2.6-2.5 2.4-1.1-.1-1.9-1-2-2.2"/><path fill="none" stroke="#5F52CA" stroke-width=".5" stroke-linejoin="round" stroke-miterlimit="10" d="M-210.5 416.7c-.4-.4-3.8-3.5-8.3-2.7-2.1.4-3.6 1.5-4.3 2.2M-208.3 433.9c-.2-.5-.6-1-1.1-1.1-.6-.1-1 .5-1.4.3-.6-.2-1.5-3.2.7-4.5"/><path fill="none" stroke="#5F52CA" stroke-width=".5" stroke-linecap="round" stroke-linejoin="round" stroke-miterlimit="10" d="M-215.9 442.3l1-.7c.6.3 3.1 1.8 6.1.9 1.2-.4 2.1-1 2.7-1.5l1.7 1.8 1.7-1.8c.6.5 1.5 1.1 2.7 1.5 3 .8 5.5-.6 6.1-.9l1 .7"/><path fill="none" stroke="#5F52CA" stroke-width=".5" stroke-miterlimit="10" d="M-214.9 441.6c.7.9 4.3 5.9 10.5 5.9s9.8-5 10.5-5.9M-214.6 441.9c6 2.8 14 2.8 20.5-.2M-222.6 381.7v13.6M-224.4 383.1v12.2M-226.2 385v10.3M-228 387v16.3M-220.8 380.3v15M-208.1 375.5v19.8M-204.4 375.2v20.1M-206.3 375.3v20M-217.1 378.2v17.1M-215.3 377.3v18M-213.5 376.7v18.6M-211.7 376.2v19.1M-209.9 375.7v19.6M-218.9 379.2v16.1M-229.8 389.2v25.4M-231.6 391.8v22.1M-186.3 381.1v14.1M-184.5 382.6v12.6M-182.7 384.2v11M-180.9 386.2v13.3M-188.1 379.9v15.3M-200.8 375.4v19.8M-202.6 375.2v20M-191.8 378.1v17.1M-193.6 377.3v17.9M-195.4 376.6v18.6M-197.2 376.1v19.1M-199 375.7v19.5M-189.9 378.9v16.3M-179.1 388.5v22.9M-177.3 391.2v26.3"/></svg>