<svg xmlns="http://www.w3.org/2000/svg" viewBox="-251 360.4 91.7 117.5"><path fill="#FFF" stroke="#5F52CA" stroke-width=".5" stroke-miterlimit="10" d="M-183.8 460.6c6.6 0 12-5.4 12-12l-2.2-57.3c0-6.6-5.4-12-12-12h-38.4c-6.6 0-12 5.4-12 12l-2.2 57.3c0 6.6 5.4 12 12 12h42.8z"/><path fill="none" stroke="#5F52CA" stroke-width=".5" stroke-miterlimit="10" d="M-199.5 405.6v3.3M-197.7 407.9V405M-195.9 404.6v2.5M-194.1 406.4v-1.9M-190.5 405.9v-1.5M-188.7 404.7v1.3M-185 406v1.4M-205.2 394.2v-14.9M-203.4 379.3v15.5M-201.5 394.4v-15.1M-199.7 379.3v14.8M-197.9 393.8v-14.5M-196.1 379.3v14.1M-194.3 393.1v-13.8M-192.5 379.3v13.5M-190.7 392.5v-13.1M-188.9 379.4v12.7M-187 391.8v-12.5M-185.2 379.3v12.2M-183.4 391.1v-11.5M-181.6 380.1v9.7M-179.8 389.4V381M-205.2 395v-15.6M-207 379.4v15.3M-208.8 394.4v-15.1M-210.6 379.3v14.8M-212.4 393.8v-14.5M-214.2 379.4v14M-216 393.1v-13.7M-217.9 379.4v13.4M-219.7 392.5v-13M-221.5 379.5v12.6M-223.3 391.8v-12.4M-225.1 379.4v12.1M-226.9 391.1v-11.4M-228.7 380.1v9.6M-230.5 389.4V381M-232.4 382.3v7.5M-237.3 414.9l3.7-18.9c-1.5-2.1-.8-5 1.1-6.1 1.7-1 4.1-.5 5.5 1.3l21.8 4 21.8-4c1.3-1.8 3.7-2.3 5.5-1.3 2 1.2 2.6 4 1.1 6.1l3.7 18.4M-218.8 441.6c2.3-1.7 7-2.4 13-2.6 4.3-.1 11 1 11.3 1.8-1.2 2.7-4.5 5.9-8.9 7-5.3 1.3-9.8-.8-11.4-1.6"/><path fill="none" stroke="#5F52CA" stroke-width=".5" stroke-miterlimit="10" d="M-196.3 413.3c0-.5 3.6-2.1 6.8-.8 2.4 1 4 3.4 3.7 3.8-.2.3-1.6-1-4.5-1.9-3.6-1.2-6-.7-6-1.1z"/><ellipse transform="rotate(14.725 -190.333 413.223)" fill="#5F52CA" cx="-190.4" cy="413.3" rx="1.7" ry="1.2"/><path fill="none" stroke="#5F52CA" stroke-width=".5" stroke-miterlimit="10" d="M-197.2 414.7c1 .9 2.8 2.1 5.3 2.9 2.2.7 4 .8 5.3.8"/><path fill="none" stroke="#5F52CA" stroke-width=".5" stroke-linecap="round" stroke-linejoin="round" stroke-miterlimit="10" d="M-196.9 411.9c.4-.2 3.8-2.4 7.7-.9 2.9 1.1 4.2 3.6 4.5 4.2"/><path fill="none" stroke="#5F52CA" stroke-width=".5" stroke-miterlimit="10" d="M-214.5 413.3c0-.5-3.6-2.1-6.8-.8-2.4 1-4 3.4-3.7 3.8.2.3 1.6-1 4.5-1.9 3.6-1.2 5.9-.7 6-1.1z"/><ellipse transform="scale(-1) rotate(-14.725 -3198.147 -1706.182)" fill="#5F52CA" cx="-220.5" cy="413.3" rx="1.7" ry="1.2"/><path fill="none" stroke="#5F52CA" stroke-width=".5" stroke-miterlimit="10" d="M-213.6 414.7c-1 .9-2.8 2.1-5.3 2.9-2.2.7-4 .8-5.3.8"/><path fill="none" stroke="#5F52CA" stroke-width=".5" stroke-linecap="round" stroke-linejoin="round" stroke-miterlimit="10" d="M-214 411.9c-.4-.2-3.8-2.4-7.7-.9-2.9 1.1-4.2 3.6-4.5 4.2"/><path fill="none" stroke="#5F52CA" stroke-width=".5" stroke-miterlimit="10" d="M-234.2 392.3v-7.9M-236 388.3v20.3M-178 382.2v7.5M-176.1 392.2v-7.9M-174.3 388.2v19.9M-192.3 406v-1.7M-186.9 405.1v1.4M-183.2 407.3v1.6M-181.4 410.7v-1.3M-210.8 405.6v3.3M-212.6 407.9V405M-214.4 404.6v2.5M-216.2 406.4v-1.9M-219.9 405.9v-1.5M-221.7 404.7v1.3M-225.3 406v1.4M-218.1 406v-1.7M-223.5 405.1v1.4M-227.1 407.3v1.6M-228.9 410.7v-1.3M-201.4 406.5v3.6M-209 406.5v3.6"/></svg>