<svg xmlns="http://www.w3.org/2000/svg" viewBox="-251 362.4 91.7 117.5"><path fill="#FFF" stroke="#5F52CA" stroke-width=".5" stroke-miterlimit="10" d="M-182.6 461H-228c-6.6 0-12-5.4-12-12v-57.2c0-6.6 5.4-12 12-12h45.4c6.6 0 12 5.4 12 12V449c0 6.6-5.4 12-12 12z"/><circle fill="#5F52CA" cx="-211.5" cy="394.1" r=".5"/><circle fill="#5F52CA" cx="-207.5" cy="394.1" r=".5"/><circle fill="#5F52CA" cx="-203.6" cy="394.1" r=".5"/><circle fill="#5F52CA" cx="-201.7" cy="391.3" r=".5"/><circle fill="#5F52CA" cx="-197.6" cy="391.3" r=".5"/><circle fill="#5F52CA" cx="-205.6" cy="391.3" r=".5"/><circle fill="#5F52CA" cx="-215.1" cy="388.3" r=".5"/><circle fill="#5F52CA" cx="-211" cy="388.3" r=".5"/><circle fill="#5F52CA" cx="-207.1" cy="388.3" r=".5"/><circle fill="#5F52CA" cx="-205.6" cy="385.5" r=".5"/><circle fill="#5F52CA" cx="-201.6" cy="385.5" r=".5"/><circle fill="#5F52CA" cx="-197.6" cy="385.5" r=".5"/><circle fill="#5F52CA" cx="-209.5" cy="385.5" r=".5"/><circle fill="#5F52CA" cx="-207.6" cy="382.7" r=".5"/><circle fill="#5F52CA" cx="-203.6" cy="382.7" r=".5"/><circle fill="#5F52CA" cx="-199.7" cy="382.7" r=".5"/><circle fill="#5F52CA" cx="-211.5" cy="382.7" r=".5"/><circle fill="#5F52CA" cx="-199.7" cy="382.7" r=".5"/><circle fill="#5F52CA" cx="-211.5" cy="382.7" r=".5"/><circle fill="#5F52CA" cx="-213.5" cy="385.5" r=".5"/><circle fill="#5F52CA" cx="-203.6" cy="388.3" r=".5"/><circle fill="#5F52CA" cx="-199.7" cy="388.3" r=".5"/><circle fill="#5F52CA" cx="-195.6" cy="388.3" r=".5"/><circle fill="#5F52CA" cx="-213.6" cy="391.3" r=".5"/><circle fill="#5F52CA" cx="-209.5" cy="391.3" r=".5"/><circle fill="#5F52CA" cx="-199.7" cy="394.1" r=".5"/><path fill="none" stroke="#5F52CA" stroke-width=".5" stroke-miterlimit="10" d="M-213.2 410.5h-19.6c-.8 0-1.5-.7-1.5-1.5s.7-1.5 1.5-1.5h19.6c.8 0 1.5.7 1.5 1.5 0 .9-.7 1.5-1.5 1.5zM-177.9 410.5h-19.6c-.8 0-1.5-.7-1.5-1.5s.7-1.5 1.5-1.5h19.6c.8 0 1.5.7 1.5 1.5.1.9-.6 1.5-1.5 1.5zM-194.1 414.5h12.9"/><path fill="#5F52CA" d="M-186.9 416.8h-1.4c-.7 0-1.3-.6-1.3-1.3 0-.7.6-1.3 1.3-1.3h1.4c.7 0 1.3.6 1.3 1.3-.1.7-.6 1.3-1.3 1.3z"/><path fill="none" stroke="#5F52CA" stroke-width=".5" stroke-miterlimit="10" d="M-191.6 416.8h7.9M-179.3 422.4H-196c-1.6 0-3-1.4-3-3v-4.5c0-1.6 1.4-3 3-3h16.7c1.6 0 3 1.4 3 3v4.5c0 1.7-1.4 3-3 3zM-216.6 414.5h-12.8"/><path fill="#5F52CA" d="M-223.7 416.8h1.4c.7 0 1.3-.6 1.3-1.3 0-.7-.6-1.3-1.3-1.3h-1.4c-.7 0-1.3.6-1.3 1.3 0 .7.6 1.3 1.3 1.3z"/><path fill="none" stroke="#5F52CA" stroke-width=".5" stroke-miterlimit="10" d="M-219 416.8h-8M-231.3 422.4h16.7c1.6 0 3-1.4 3-3v-4.5c0-1.6-1.4-3-3-3h-16.7c-1.6 0-3 1.4-3 3v4.5c0 1.7 1.3 3 3 3z"/><path fill="none" stroke="#5F52CA" stroke-width=".5" stroke-miterlimit="10" d="M-211.7 416.8c.4-.4 3.2-2.1 6.3-2.1 3.1 0 5.9 1.8 6.3 2.2M-223 444.3h35.3c-1.9 1.6-8.2 3.8-17.7 4-7.8.2-13.4-.3-15.7-1.7M-240 416.8h5.7M-176.3 416.8h5.7"/></svg>