<svg xmlns="http://www.w3.org/2000/svg" viewBox="-250 360.4 91.7 117.5"><path fill="#FFF" stroke="#5F52CA" stroke-width=".5" stroke-miterlimit="10" d="M-233.6 412h-.7c-1.2 0-2.1.9-2.1 2.1v9.8c0 1.7 1.3 3 3 3h1.7M-175.5 412h.7c1.2 0 2.1.9 2.1 2.1v9.8c0 1.7-1.3 3-3 3h-1.7"/><path fill="#FFF" stroke="#5F52CA" stroke-width=".5" stroke-miterlimit="10" d="M-223.8 378.7c-6.1 0-9.5 5.4-9.5 12 0 0-.7 19.9 0 26.6.8 7.8 6.3 30.8 6.3 30.8 0 6.6 5 12 11.1 12h22.8c6.1 0 11.1-5.4 11.1-12 0 0 5.5-23 6.3-30.9.7-6.6 0-26.5 0-26.5 0-6.6-3.7-12-9.8-12"/><path fill="#FFF" stroke="#5F52CA" stroke-width=".5" stroke-miterlimit="10" d="M-191.6 385.6h-26.3c-3.3 0-6-2.7-6-6s2.7-6 6-6h26.3c3.3 0 6 2.7 6 6s-2.7 6-6 6z"/><path fill="none" stroke="#5F52CA" stroke-width=".5" stroke-miterlimit="10" d="M-196.4 385.6v-11.9M-194.6 373.7v12M-192.8 385.6v-12M-191 373.6v12M-189.2 385.2v-11M-187.3 375.5v8.4M-196.4 385.7v-11.9M-198.2 373.8v11.8M-200 385.6v-11.9M-201.8 373.7v11.9M-203.7 385.6v-11.9M-205.5 373.8v11.8M-207.3 385.6v-11.8M-209.1 373.8v11.8M-210.9 385.6v-11.7M-212.7 373.9v11.7M-214.5 385.6v-11.8M-216.3 373.8v11.8M-218.2 385.6v-12M-220 374v11.3M-221.8 384.2v-9.1M-199.1 465.4v-15M-200.9 450.4v15M-202.8 465.4v-15.1M-204.6 450.3v15.1M-199.1 465.5v-15M-197.3 450.5v15M-195.5 464.5v-14.1M-193.7 450.4v12.9M-191.9 462.1v-12.5M-190.1 448.6v12M-188.3 458.7v-11.8M-186.4 445v12.5M-184.6 455.6v-12.7M-182.8 440.1v12M-181 443.3v-6.5M-179.2 432.3v2.9M-183.7 384.9v-6M-181.9 379.4v6.6M-180.1 387.6v-7.1M-178.3 382.4v7.6"/><path fill="none" stroke="#5F52CA" stroke-width=".49998" stroke-miterlimit="10" d="M-208.782 403.737l-17.995 1.94-.268-2.485 17.995-1.94zM-200.1 401.125l17.996 1.94-.268 2.486-17.995-1.94z"/><path fill="none" stroke="#5F52CA" stroke-width=".5" stroke-miterlimit="10" d="M-203.4 434.4v4.3l9.3 3.3h4.3v-3.1zM-194.9 437.3v4.5M-191.2 438.5v3.5M-193.1 437.9v4.1M-196.7 436.7v4.4M-198.5 436.1v4.4M-200.3 435.5v4.4M-202.1 434.9v4.3"/><path fill="none" stroke="#5F52CA" stroke-width=".5" stroke-linejoin="round" stroke-miterlimit="10" d="M-195.6 441.4h-9"/><path fill="none" stroke="#5F52CA" stroke-width=".5" stroke-miterlimit="10" d="M-203.7 443.7v3.4M-205.5 443.7v3.4M-207.3 443.7v3.4M-201.9 443.7v3.4M-204.6 450.4h9.2c2.1 0 4.1-.8 5.7-2.1 1.5-1.3 3.1-2.9 4.6-4.8 6-7.6 6.9-15.2 8.3-19.8M-210 465.4v-15M-208.2 450.4v15M-206.4 465.4v-15.1M-204.6 450.3v15.1M-210 465.5v-15M-211.8 450.5v15M-213.6 464.5v-14.1M-215.4 450.4v12.9M-217.3 462.1v-12.5M-219.1 448.6v12M-220.9 458.7v-11.8M-222.7 445v12.5M-224.5 455.6v-12.7M-226.3 440.1v12M-228.1 443.3v-6.5M-230 432.3v2.9M-205.8 434.4v4.3l-9.2 3.3h-4.3v-3.1zM-214.3 437.3v4.5M-217.9 438.5v3.5M-216.1 437.9v4.1M-212.5 436.7v4.4M-210.7 436.1v4.4M-208.8 435.5v4.4"/><path fill="none" stroke="#5F52CA" stroke-width=".5" stroke-linejoin="round" stroke-miterlimit="10" d="M-213.5 441.4h8.9"/><path fill="none" stroke="#5F52CA" stroke-width=".5" stroke-miterlimit="10" d="M-204.6 450.4h-9.2c-2.1 0-4.1-.8-5.7-2.1-1.5-1.3-3.1-2.9-4.6-4.8-6-7.6-6.9-15.2-8.3-19.8M-196.7 408.4c.6-.3 4.3-1.9 8-.2 1.3.6 2.2 1.5 2.8 2.1"/><circle fill="#5F52CA" cx="-192.1" cy="409.6" r="2.4"/><path fill="none" stroke="#5F52CA" stroke-width=".5" stroke-miterlimit="10" d="M-212.6 408.4c-.6-.3-4.3-1.9-8-.2-1.3.6-2.2 1.5-2.8 2.1"/><circle fill="#5F52CA" cx="-217.3" cy="409.6" r="2.4"/><path fill="none" stroke="#5F52CA" stroke-width=".5" stroke-miterlimit="10" d="M-187.2 383.8c1.3.4 4.9 1.3 7.3 4.1 3.4 3.8 4.2 8.6 4.2 9.8M-225.5 384.9v-6M-227.3 379.4v6.6M-229.2 387.6v-7.1M-231 382.4v7.6M-222 383.8c-1.3.4-4.9 1.3-7.3 4.1-3.4 3.8-4.2 8.6-4.2 9.8M-233.6 412h-.7c-1.2 0-2.1.9-2.1 2.1v9.8c0 1.7 1.3 3 3 3h1.7"/><path fill="none" stroke="#5F52CA" stroke-width=".5" stroke-miterlimit="10" d="M-233.7 424.2c-2.2.4-3.5 1.8-2.8 3.8 1 3.2 4.5 1.4 4-1.1"/><path fill="none" stroke="#5F52CA" stroke-width=".5" stroke-miterlimit="10" d="M-233.7 424.2c-2.2.4-3.5 1.8-2.8 3.8 1 3.2 4.5 1.4 4-1.1M-175.4 424.2c2.2.4 3.5 1.8 2.8 3.8-1 3.2-4.5 1.4-4-1.1M-208.7 429.2h8.3v-18.9"/></svg>