<svg xmlns="http://www.w3.org/2000/svg" viewBox="-251 362.4 91.7 117.5"><path fill="#FFF" stroke="#5F52CA" stroke-width=".5" stroke-miterlimit="10" d="M-176.6 391.5c.2 2.3-.7 8.1 4.1 14.6 2.2 2.9 4.8 4.5 6.5 5.3-.2.3-1.9 2.2-4.6 2.1-2.1-.1-4.8-1.9-5.8-3.9-.4 4.2 1.9 7.2 5.7 7.4l-5.9 6.5M-234.3 391.5c-.2 2.3.7 8.1-4.1 14.6-2.2 2.9-4.8 4.5-6.5 5.3.2.3 1.9 2.2 4.6 2.1 2.1-.1 4.8-1.9 5.8-3.9.4 4.2-1.9 7.2-5.7 7.4l5.9 6.5"/><path fill="#FFF" stroke="#5F52CA" stroke-width=".5" stroke-miterlimit="10" d="M-224.7 454.2c-6.6 0-9.7-5.4-9.7-12v-51.1c0-6.6 5-12 11.6-12h34.5c6.6 0 11.6 5.7 11.6 12.3v51c0 6.6-3.1 11.7-9.7 11.7"/><path fill="#FFF" stroke="#5F52CA" stroke-width=".5" stroke-miterlimit="10" d="M-228 438.8c0 17.9 9.3 25.6 22.5 25.6s22.5-7.7 22.5-25.6"/><path fill="none" stroke="#5F52CA" stroke-width=".5" stroke-miterlimit="10" d="M-191 379.1v19.4M-192.8 379.1v19.4M-201.8 379.1v19.4M-205.5 379.1v19.4M-203.6 379.1v19.4M-200 379.1v19.4M-198.2 379.1v19.4M-196.4 379.1v19.4M-194.6 379.1v19.4"/><path fill="#5F52CA" d="M-199.6 404.5h19.1v3.8h-19.1zM-230.4 404.5h19.1v3.8h-19.1z"/><path fill="none" stroke="#5F52CA" stroke-width=".5" stroke-miterlimit="10" d="M-210.8 404.5v3.8M-200.2 404.5v3.8M-212.1 440.4c1.5 1.8 3.4 3.5 6.2 3.5 3.5 0 6.2-3.2 7-2.5.5.5-.5 2.4-.7 2.7-1.2 2.1-4.3 5.7-7.8 4.8-1.9-.5-3-2.1-3.5-3"/><path fill="none" stroke="#5F52CA" stroke-width=".5" stroke-miterlimit="10" d="M-191.7 444.7h-1.5c-.3 0-.6-.2-.7-.4l-2.2-3.6c-.2-.2-.4-.4-.7-.4h-8.7v-4.9h11.7c1.7 0 2.9 1.4 2.9 3v5.4c0 .5-.3.9-.8.9zM-192.8 444.7v-9.1M-194.6 435.4v7.7M-196.4 440.3v-4.9M-198.2 435.4v4.9M-200 440.3v-4.9M-201.8 435.4v4.9M-203.7 440.3v-4.9"/><path fill="none" stroke="#5F52CA" stroke-width=".5" stroke-miterlimit="10" d="M-191.7 444.7h-1.5c-.3 0-.6-.2-.7-.4l-2.2-3.6c-.2-.2-.4-.4-.7-.4h-8.7v-4.9h11.7c1.7 0 2.9 1.4 2.9 3v5.4c0 .5-.3.9-.8.9zM-192.8 444.7v-9.1M-194.6 435.4v7.7M-196.4 440.3v-4.9M-198.2 435.4v4.9M-200 440.3v-4.9M-201.8 435.4v4.9M-203.7 440.3v-4.9"/><path fill="none" stroke="#5F52CA" stroke-width=".5" stroke-miterlimit="10" d="M-219.2 444.7h1.5c.3 0 .6-.2.7-.4l2.2-3.6c.2-.2.4-.4.7-.4h8.7v-4.9h-11.7c-1.7 0-2.9 1.4-2.9 3v5.4c-.1.5.3.9.8.9zM-218.2 444.7v-9.1M-216.3 435.4v7.7M-214.5 440.3v-4.9M-212.7 435.4v4.9M-210.9 440.3v-4.9M-209.1 435.4v4.9M-207.3 440.3v-4.9M-202.8 457.7v6.5M-204.6 451.1v13.2M-206.4 451.1v13.2M-208.2 451.1v3.4M-184.8 440.6v10.1M-186.6 454.7v-11.5M-188.4 449.4v7.9M-190.2 459.2v-6.9M-192 454.3v6.3M-193.9 461.7v-6M-195.7 456.6v6M-197.5 463.2v-5.9M-199.3 457.7v6M-201.1 464v-6.2M-178.4 446v3.9M-180.3 452.1V447M-182.1 447.6v5.7M-183.9 453.8v-6.2M-202.8 451.1v3.4M-208.2 457.7v6.5M-226.2 440.6v10.1M-224.3 454.7v-11.5M-222.5 449.4v7.9M-220.7 459.2v-6.9M-218.9 454.3v6.3M-217.1 461.7v-6M-215.3 456.6v6M-213.5 463.2v-5.9M-211.7 457.7v6M-209.8 464v-6.2M-232.5 446v3.9M-230.7 452.1V447M-228.9 447.6v5.6M-227.1 454v-6.4M-198.7 414.9c1.2-2.5 3.6-4.1 6.2-4.2 3.1-.1 5 2.1 5.3 2.4M-193.4 409.3c.9-.1 3.4-.3 5.8 1.2 1.2.7 2.1 1.6 2.6 2.3"/><path fill="none" stroke="#5F52CA" stroke-width=".5" stroke-miterlimit="10" d="M-190.1 412.3c0 1.3-1 2.3-2.3 2.3-1.3 0-2.3-1-2.3-2.3 0-1.3 1-1.5 2.3-1.5 1.3-.1 2.3.2 2.3 1.5z"/><path fill="none" stroke="#5F52CA" stroke-width=".5" stroke-miterlimit="10" d="M-197.3 413.9c1 .4 3 1 5.4.7 1.7-.2 3-.7 3.8-1.1M-197 415.7c.8.4 2.5 1.1 4.8 1 1.8-.1 3.1-.6 3.9-1"/><circle fill="#5F52CA" cx="-192.4" cy="412.4" r=".8"/><path fill="none" stroke="#5F52CA" stroke-width=".5" stroke-miterlimit="10" d="M-212.2 414.9c-1.2-2.5-3.6-4.1-6.2-4.2-3.1-.1-5 2.1-5.3 2.4M-217.5 409.3c-.9-.1-3.4-.3-5.8 1.2-1.2.7-2.1 1.6-2.6 2.3"/><path fill="none" stroke="#5F52CA" stroke-width=".5" stroke-miterlimit="10" d="M-220.9 412.3c0 1.3 1 2.3 2.3 2.3 1.3 0 2.3-1 2.3-2.3 0-1.3-1-1.5-2.3-1.5-1.2-.1-2.3.2-2.3 1.5z"/><path fill="none" stroke="#5F52CA" stroke-width=".5" stroke-miterlimit="10" d="M-213.7 413.9c-1 .4-3 1-5.4.7-1.7-.2-3-.7-3.8-1.1M-213.9 415.7c-.8.4-2.5 1.1-4.8 1-1.8-.1-3.1-.6-3.9-1"/><circle fill="#5F52CA" cx="-218.6" cy="412.4" r=".8"/><path fill="none" stroke="#5F52CA" stroke-width=".5" stroke-miterlimit="10" d="M-174.6 402.6v9.1M-172.8 405.8v7.2M-185.5 379.5v20.2M-189.1 379.2v19.3M-187.3 379.2v19.7M-183.7 380.1v20.7M-181.9 381.1v21.2M-180.1 382.7v21.8M-178.3 385.2v22.4M-170.9 408v5.5M-174.6 415.3v5.9M-172.8 416.6v2.6M-220 379.1v19.4M-218.2 379.1v19.4M-209.1 379.1v19.4M-205.5 379.1v19.4M-207.3 379.1v19.4M-210.9 379.1v19.4M-212.7 379.1v19.4M-214.5 379.1v19.4M-216.4 379.1v19.4M-236.3 402.6v9.1M-238.2 405.8v7.2M-225.4 379.5v20.2M-221.8 379.2v19.3M-223.6 379.2v19.7M-227.2 380.1v20.7M-229 381.1v21.2M-230.9 382.6v21.9M-232.7 384.9v22.7M-240.1 408v5.5M-242 409.6v3.7M-236.3 415.3v5.9M-238.2 416.6v2.6"/></svg>