<svg xmlns="http://www.w3.org/2000/svg" viewBox="-249 361.4 91.7 117.5"><path fill="#FFF" stroke="#5F52CA" stroke-width=".5" stroke-miterlimit="10" d="M-218.6 381.4h-3.7c-6.6 0-12 5.4-12 12v43.9c0 10.6 17.1 25.4 31.2 25.4 14 0 31.2-13.7 31.2-25.4v-43.9c0-6.6-5.4-12-12-12h-3.7"/><circle fill="#5F52CA" cx="-187" cy="389.7" r=".5"/><circle fill="#5F52CA" cx="-175.2" cy="414.4" r=".5"/><circle fill="#5F52CA" cx="-179.2" cy="395.5" r=".5"/><circle fill="#5F52CA" cx="-183" cy="383.9" r=".5"/><circle fill="#5F52CA" cx="-181.2" cy="398.3" r=".5"/><circle fill="#5F52CA" cx="-185" cy="386.7" r=".5"/><circle fill="#5F52CA" cx="-181" cy="386.7" r=".5"/><circle fill="#5F52CA" cx="-185.1" cy="398.3" r=".5"/><circle fill="#5F52CA" cx="-183" cy="389.7" r=".5"/><circle fill="#5F52CA" cx="-177.2" cy="386.7" r=".5"/><circle fill="#5F52CA" cx="-179" cy="383.9" r=".5"/><circle fill="#5F52CA" cx="-175.1" cy="389.7" r=".5"/><circle fill="#5F52CA" cx="-173.1" cy="398.5" r=".5"/><circle fill="#5F52CA" cx="-173.1" cy="392.6" r=".5"/><circle fill="#5F52CA" cx="-175" cy="401.5" r=".5"/><circle fill="#5F52CA" cx="-175" cy="395.6" r=".5"/><circle fill="#5F52CA" cx="-177.2" cy="398.3" r=".5"/><circle fill="#5F52CA" cx="-183" cy="395.6" r=".5"/><circle fill="#5F52CA" cx="-173.1" cy="404.7" r=".5"/><circle fill="#5F52CA" cx="-179.2" cy="389.7" r=".5"/><circle fill="#5F52CA" cx="-181.1" cy="392.6" r=".5"/><circle fill="#5F52CA" cx="-177.2" cy="392.6" r=".5"/><circle fill="#5F52CA" cx="-185.1" cy="392.6" r=".5"/><circle fill="#5F52CA" cx="-189.8" cy="416.6" r=".8"/><path fill="#FFF" stroke="#5F52CA" stroke-width=".5" stroke-miterlimit="10" d="M-192.7 377.9c1.7 0 3.3.8 4.3 2.2 1.4 2 3.2 4.7 3 5.9-.4 2.4-2.4 4.2-4.4 4.7-2.8.7-4.2-1.6-7.6-1.5-2.4.1-4.5 1.3-5.7 2.3-1.2-.9-3.2-2.2-5.7-2.3-3.4-.1-4.8 2.2-7.6 1.5-2-.5-4-2.3-4.4-4.7-.2-1.2 1.6-4 3-5.9 1-1.4 2.6-2.2 4.3-2.2h20.8z"/><circle fill="#5F52CA" cx="-183.3" cy="401.5" r=".5"/><circle fill="#5F52CA" cx="-179.2" cy="401.5" r=".5"/><circle fill="#5F52CA" cx="-181.2" cy="404.7" r=".5"/><circle fill="#5F52CA" cx="-177.2" cy="404.7" r=".5"/><circle fill="#5F52CA" cx="-179.2" cy="407.9" r=".5"/><circle fill="#5F52CA" cx="-175.2" cy="407.9" r=".5"/><circle fill="#5F52CA" cx="-177.2" cy="411" r=".5"/><circle fill="#5F52CA" cx="-173.2" cy="411" r=".5"/><circle fill="#5F52CA" cx="-219.5" cy="389.7" r=".5"/><circle fill="#5F52CA" cx="-231.4" cy="414.4" r=".5"/><circle fill="#5F52CA" cx="-227.3" cy="395.5" r=".5"/><circle fill="#5F52CA" cx="-223.6" cy="383.9" r=".5"/><circle fill="#5F52CA" cx="-225.3" cy="398.3" r=".5"/><circle fill="#5F52CA" cx="-221.5" cy="386.7" r=".5"/><circle fill="#5F52CA" cx="-225.6" cy="386.7" r=".5"/><circle fill="#5F52CA" cx="-221.4" cy="398.3" r=".5"/><circle fill="#5F52CA" cx="-223.6" cy="389.7" r=".5"/><circle fill="#5F52CA" cx="-229.3" cy="386.7" r=".5"/><circle fill="#5F52CA" cx="-227.5" cy="383.9" r=".5"/><circle fill="#5F52CA" cx="-231.5" cy="389.7" r=".5"/><circle fill="#5F52CA" cx="-233.4" cy="398.5" r=".5"/><circle fill="#5F52CA" cx="-233.4" cy="392.6" r=".5"/><circle fill="#5F52CA" cx="-231.5" cy="401.5" r=".5"/><circle fill="#5F52CA" cx="-231.5" cy="395.6" r=".5"/><circle fill="#5F52CA" cx="-229.3" cy="398.3" r=".5"/><circle fill="#5F52CA" cx="-223.6" cy="395.6" r=".5"/><circle fill="#5F52CA" cx="-233.4" cy="404.7" r=".5"/><circle fill="#5F52CA" cx="-227.3" cy="389.7" r=".5"/><circle fill="#5F52CA" cx="-225.5" cy="392.6" r=".5"/><circle fill="#5F52CA" cx="-229.3" cy="392.6" r=".5"/><circle fill="#5F52CA" cx="-221.4" cy="392.6" r=".5"/><circle fill="#5F52CA" cx="-223.3" cy="401.5" r=".5"/><circle fill="#5F52CA" cx="-227.3" cy="401.5" r=".5"/><circle fill="#5F52CA" cx="-225.3" cy="404.7" r=".5"/><circle fill="#5F52CA" cx="-229.3" cy="404.7" r=".5"/><circle fill="#5F52CA" cx="-227.3" cy="407.9" r=".5"/><circle fill="#5F52CA" cx="-231.4" cy="407.9" r=".5"/><circle fill="#5F52CA" cx="-229.3" cy="411" r=".5"/><circle fill="#5F52CA" cx="-173.2" cy="411" r=".5"/><path fill="none" stroke="#5F52CA" stroke-width=".5" stroke-miterlimit="10" d="M-186.8 388.9v-6.3M-199.5 389.6v-11.7M-203.1 391.5v-13.6M-201.3 390.3v-12.4M-190.4 391v-12.5M-192.2 390.7v-12.8M-194 390v-12.1M-195.8 389.4v-11.5M-197.7 389.3v-11.4M-188.6 390.3v-10.4M-219.4 388.9v-6.3M-206.7 389.6V378M-204.9 390.3V378M-215.8 390.9v-12.4M-214 390.7V378M-212.2 390v-12M-210.3 389.4V378M-208.5 389.3V378M-217.6 390.3v-10.4M-234.3 434.6c3.6 13.9 17 23.5 31.2 23.3 13.9-.2 27.6-9.8 31.2-23.3M-178.8 411.6c-2-.9-4.9-2.1-8.7-2.5-5.3-.6-9.6.5-12 1.4v3.9c1.9-1.1 5-2.5 9.1-3 5.7-.7 10.2.6 12.5 1.5M-227.5 411.6c2-.9 4.9-2.1 8.7-2.5 5.3-.6 9.6.5 12 1.4v3.9c-1.9-1.1-5-2.5-9.1-3-5.7-.7-10.2.6-12.5 1.5"/><path fill="none" stroke="#5F52CA" stroke-width=".5" stroke-miterlimit="10" d="M-210.3 443l5-2.7 2.2.7 2.2-.7 5 2.7"/><path fill="none" stroke="#5F52CA" stroke-width=".5" stroke-miterlimit="10" d="M-212.6 443.1l.6-.5c.6.2 1.6.5 2.7.5 1.4.1 2.7-.6 3.4-.9l2.8.4 2.8-.4c.7.2 2 .9 3.4.9 1.2 0 2.1-.3 2.7-.5l.6.5"/><path fill="none" stroke="#5F52CA" stroke-width=".5" stroke-miterlimit="10" d="M-210.9 442.8c1.4.7 3.9 2.4 7.7 2.4 4 0 6.8-1.8 8.2-2.5M-206.4 448.5c.4-.3 1.6-1.1 3.3-1.2 1.5 0 2.6.6 3 .8M-195 418.2c.2-.4 1.4-2.5 3.9-3.1 2.5-.6 5.2.6 6.7 3.1"/><path fill="none" stroke="#5F52CA" stroke-width=".5" stroke-miterlimit="10" d="M-187.8 416.6c-.1 1.2-1.1 2.1-2.2 2s-2-1.2-1.9-2.4c.1-1.2 1.1-1.3 2.3-1.2s1.9.4 1.8 1.6z"/><path fill="none" stroke="#5F52CA" stroke-width=".5" stroke-miterlimit="10" d="M-193.9 418.2c.8.3 2.2.8 3.9.8 2.2 0 3.8-.6 4.7-1"/><path fill="none" stroke="#5F52CA" stroke-width=".5" stroke-miterlimit="10" d="M-195.2 418.1c1.1-2.7 3.7-4.6 6.4-4.3 2.3.2 4.4 1.9 5.2 4.2"/><circle fill="#5F52CA" cx="-215.9" cy="416.6" r=".8"/><path fill="none" stroke="#5F52CA" stroke-width=".5" stroke-miterlimit="10" d="M-210.5 418.2c-.2-.4-1.6-2.5-4.1-3.1-2.5-.6-5.2.6-6.7 3.1"/><path fill="none" stroke="#5F52CA" stroke-width=".5" stroke-miterlimit="10" d="M-218 416.6c.1 1.2 1.1 2.1 2.2 2s2-1.2 1.9-2.4c-.1-1.2-1.1-1.3-2.3-1.2s-1.9.4-1.8 1.6z"/><path fill="none" stroke="#5F52CA" stroke-width=".5" stroke-miterlimit="10" d="M-211.9 418.2c-.8.3-2.2.8-3.9.8-2.2 0-3.8-.6-4.7-1"/><path fill="none" stroke="#5F52CA" stroke-width=".5" stroke-miterlimit="10" d="M-210.3 418.1c-1.1-2.7-3.9-4.6-6.7-4.3-2.3.2-4.4 1.9-5.2 4.2"/><circle fill="#5F52CA" cx="-201.2" cy="436" r=".5"/><circle fill="#5F52CA" cx="-199.3" cy="438.3" r=".5"/><circle fill="#5F52CA" cx="-197.5" cy="436" r=".5"/><circle fill="#5F52CA" cx="-195.8" cy="438.3" r=".5"/><circle fill="#5F52CA" cx="-193.9" cy="440.6" r=".5"/><circle fill="#5F52CA" cx="-203" cy="438.3" r=".5"/><circle fill="#5F52CA" cx="-204.8" cy="436" r=".5"/><circle fill="#5F52CA" cx="-206.7" cy="438.3" r=".5"/><circle fill="#5F52CA" cx="-208.6" cy="436" r=".5"/><circle fill="#5F52CA" cx="-210.3" cy="438.3" r=".5"/><circle fill="#5F52CA" cx="-212.2" cy="440.6" r=".5"/><path fill="#FFF" stroke="#5F52CA" stroke-width=".5" stroke-miterlimit="10" d="M-171.9 433.9c.1.1 1.1 1 2 1 1.2.1 2.2-1.2 2.2-2.3 0-1.4-.2-2.9-.2-2.9s-.2-.9.8-1.5c2.6-1.7 2.8-6.3 2.1-9.1-.2-1-1-4.6-2.8-4.8-1.3-.1-3.4 1.8-4.2 4.6v15z"/><path fill="none" stroke="#5F52CA" stroke-width=".5" stroke-miterlimit="10" d="M-171.9 421.7c.7-3.2 3.6-5 4.9-4.8 1.3.2 2.8 2.8 2.3 6.6"/><path fill="#FFF" stroke="#5F52CA" stroke-width=".5" stroke-miterlimit="10" d="M-234.3 433.9c-.1.1-1.1 1-2 1-1.2.1-2.2-1.2-2.2-2.3 0-1.4.2-2.9.2-2.9s.2-.9-.8-1.5c-2.6-1.7-2.8-6.3-2.1-9.1.2-1 1-4.6 2.8-4.8 1.3-.1 3.4 1.8 4.2 4.6v15z"/><path fill="none" stroke="#5F52CA" stroke-width=".5" stroke-miterlimit="10" d="M-234.3 421.7c-.7-3.2-3.6-5-4.9-4.8-1.3.2-2.8 2.8-2.3 6.6M-233 438.3v4.3M-231.2 442v4M-218.5 454.1v3.7M-214.9 455.8v3.9M-216.7 455v3.9M-227.6 447v3.5M-225.8 448.9v3.4M-224 450.5v3.4M-222.2 451.9v3.5M-220.4 453.1v3.5M-229.4 444.7v3.7M-196.8 457.2v4.7M-198.6 457.5v4.7M-211.3 456.9v4.3M-213.1 456.4v4.1M-202.2 457.9v4.9M-204 457.9v4.9M-205.9 457.8v4.7M-207.7 457.6v4.6M-209.5 457.3v4.5M-200.4 457.8v5M-173.2 438.3v4.8M-175 441.9v4.6M-187.7 453.8v4.2M-191.3 455.5v4.5M-189.5 454.7v4.4M-178.6 446.7v4.4M-180.4 448.6v4.2M-182.3 450.2v4.2M-184.1 451.5v4.3M-185.9 452.8v4.2M-176.8 444.5v4.6M-194.9 456.9v4.3M-193.1 456.4v4.3"/></svg>