<svg xmlns="http://www.w3.org/2000/svg" viewBox="0 0 91.7 117.5"><path fill="#FFF" stroke="#5F52CA" stroke-width=".5" stroke-miterlimit="10" d="M29.9 94.8h-3.3c-6.6 0-12-5.4-12-12V25.4c0-6.6 5.4-12 12-12H65c6.6 0 12 5.4 12 12v57.3c0 6.6-5.4 12-12 12h-3.2"/><path fill="none" stroke="#5F52CA" stroke-width=".5" stroke-miterlimit="10" d="M29.9 94.8h-3.3c-6.6 0-12-5.4-12-12V25.4c0-6.6 5.4-12 12-12H65c6.6 0 12 5.4 12 12v57.3c0 6.6-5.4 12-12 12h-3.2"/><path fill="none" stroke="#5F52CA" stroke-width=".5" stroke-miterlimit="10" d="M15.3 21.5c.3-.7 3.3-5 8.3-3 4.2 1.7 5.5 4.5 8 6.7 2.3 2 6.5 3.9 14.2 3.2 7.8.8 11.9-1.2 14.2-3.2 2.5-2.1 3.8-5 8-6.7 5-2 8 2.3 8.3 3M45.8 28.3V13.4M47.7 13.4v15.1M49.5 28.3v-15M51.3 13.3v15.1M53.1 28.3v-15M54.9 13.4v14.5M56.7 27.2V13.4M58.5 13.4v12.9M60.3 24.9V13.5M62.2 13.5v9.6M64 21.1v-7.7M65.8 13.4v6.3M67.6 18.7v-5M69.4 14.4v3.7M71.2 18v-2.7M73 16.6v1.9"/><g fill="none" stroke="#5F52CA" stroke-width=".5" stroke-miterlimit="10"><path d="M45.8 28.4V13.5M44 13.5v15.1M42.2 28.3V13.4M40.4 13.4v15.1M38.6 28.3V13.4M36.8 13.5v14.4M35 27.2V13.5M33.2 13.5v12.8M31.3 25V13.6M29.5 13.6v9.5M27.7 21.2v-7.7M25.9 13.5v6.2M24.1 18.8v-5M22.3 14.4v3.7M20.5 18v-2.7M18.7 16.6v2"/></g><path fill="none" stroke="#5F52CA" stroke-width=".5" stroke-miterlimit="10" d="M71.2 37.7c-4.1-2.5-6.8-2.5-8.7-2-3.1.8-6.9 4.9-10.7 4.9v2c4.6-.3 8.8-4.1 11.1-5.1 1.5-.7 4.5-1.6 8.3.2zM20.7 37.7c4.1-2.5 6.8-2.5 8.7-2 3.1.8 6.9 4.9 10.7 4.9v2c-4.6-.3-8.8-4.1-11.1-5.1-1.5-.7-4.5-1.6-8.3.2zM50 80.5l-4.2 4.9-4.1-4.9zM45.8 80.5v4.9M47.7 80.5v2.8M44 80.5v2.8M57 73.7c-19.1-1.5-23.7-.9-23.9 0-.2 1.1 5.8 3.4 11.1 3.8 4.9.4 8.7-.9 10.8-1.7"/><path fill="#FFF" stroke="#5F52CA" stroke-width=".5" stroke-miterlimit="10" d="M45.8 104.4l-5.4 4.1-12.1-16 8.5-12 9 9.4 9.1-9.4 8.5 12-12.1 16z"/><path fill="none" stroke="#5F52CA" stroke-width=".5" stroke-miterlimit="10" d="M45.8 89.9v14.5M47.7 105.8V88M49.5 86.3v21M51.3 108.5V84.3M53.1 82.4v23.8M54.9 103.8V80.7M56.7 83.1v18.3M58.5 99V85.6M60.3 88.2v8.4M62.2 94.1v-3.3M44 105.7V87.9M42.2 86.2v21M40.4 108.4V84.2M38.6 82.3v23.8M36.8 103.7V80.6M35 83v18.3M33.2 98.9V85.5M31.3 88.1v8.4M29.5 94v-3.3M56.9 46.2h10.5c-.9-2.2-3-3.6-5.3-3.6-2.1 0-4.2 1.7-5.2 3.6z"/><path fill="#5F52CA" d="M63.7 45.2c0 1-.7 1-1.6 1s-1.6 0-1.6-1 .7-2.6 1.6-2.6 1.6 1.6 1.6 2.6z"/><path fill="none" stroke="#5F52CA" stroke-width=".5" stroke-miterlimit="10" d="M34.8 46.2H24.3c.9-2.2 3-3.6 5.3-3.6 2 0 4.2 1.7 5.2 3.6z"/><path fill="#5F52CA" d="M28 45.2c0 1 .7 1 1.6 1s1.6 0 1.6-1-.7-2.6-1.6-2.6-1.6 1.6-1.6 2.6z"/><circle fill="#5F52CA" cx="47.7" cy="66.1" r=".5"/><circle fill="#5F52CA" cx="49.5" cy="68.4" r=".5"/><circle fill="#5F52CA" cx="51.4" cy="66.1" r=".5"/><circle fill="#5F52CA" cx="53.1" cy="68.4" r=".5"/><circle fill="#5F52CA" cx="55" cy="70.7" r=".5"/><circle fill="#5F52CA" cx="56.8" cy="68.4" r=".5"/><circle fill="#5F52CA" cx="58.8" cy="70.7" r=".5"/><circle fill="#5F52CA" cx="60.7" cy="73" r=".5"/><circle fill="#5F52CA" cx="62.5" cy="70.7" r=".5"/><circle fill="#5F52CA" cx="45.8" cy="68.4" r=".5"/><circle fill="#5F52CA" cx="44" cy="66.1" r=".5"/><circle fill="#5F52CA" cx="42.1" cy="68.4" r=".5"/><circle fill="#5F52CA" cx="40.3" cy="66.1" r=".5"/><circle fill="#5F52CA" cx="38.6" cy="68.4" r=".5"/><circle fill="#5F52CA" cx="36.7" cy="70.7" r=".5"/><circle fill="#5F52CA" cx="34.9" cy="68.4" r=".5"/><circle fill="#5F52CA" cx="32.9" cy="70.7" r=".5"/><circle fill="#5F52CA" cx="31" cy="73" r=".5"/><circle fill="#5F52CA" cx="29.2" cy="70.7" r=".5"/><path fill="none" stroke="#5F52CA" stroke-width=".5" stroke-miterlimit="10" d="M53.7 42.2v-2M55.5 39.5v2.2M57.3 40.8v-2.3M59.2 37.3v2.4M61 38.6v-2.4M62.8 35.6v1.9M64.6 36.9v-1.5M66.4 35.7v1.1M38.1 42.2v-2M36.3 39.5v2.2M34.5 40.8v-2.3M32.7 37.3v2.4M30.9 38.6v-2.4M29.1 35.6v1.9M27.2 36.9v-1.5M25.4 35.7v1.1M24.1 48.2H35M56.7 48.2h10.9"/></svg>