<svg xmlns="http://www.w3.org/2000/svg" viewBox="-251 360.4 91.7 117.5"><path fill="#FFF" stroke="#5F52CA" stroke-width=".5" stroke-miterlimit="10" d="M-178.9 431.8c.9 2.1 5.6 1.8 6.3-1.8.9-4.9.1-11.1-.4-12.3M-231.4 431.8c-.9 2.1-5.6 1.8-6.3-1.8-.9-4.9-.1-11.1.4-12.3"/><path fill="#FFF" stroke="#5F52CA" stroke-width=".5" stroke-miterlimit="10" d="M-232.9 421.3l2.8 21.5c0 5.2 10.9 16 19.1 20.1 2.3 1.1 4.2.7 5.8.7 1.8 0 4 .2 6-.5 9.2-3.6 18.9-14.8 18.9-20.3l2.8-21.6"/><path fill="#FFF" stroke="#5F52CA" stroke-width=".5" stroke-miterlimit="10" d="M-205.2 398.1H-223c-1.3 0-2.4.8-2.8 2l-8.8 26.4c-1-1.3-5.1-14.3-4.7-28.9.4-15.2 12.5-22.3 34.1-22.3s33.7 7.1 34.1 22.3c.4 14.5-3.6 27.6-4.7 28.9l-8.8-26.4c-.4-1.2-1.5-2-2.8-2h-17.8"/><g fill="none" stroke="#5F52CA" stroke-width=".5" stroke-miterlimit="10"><path d="M-223.3 377.6v20.5M-225.1 378.3v20.6M-226.9 379v24.4M-221.5 377.1v21M-208.8 375.4v22.7M-205.2 375.4v22.7M-207 375.3v22.8M-217.8 376.3v21.8M-216 376v22.1M-214.2 375.8v22.3M-212.4 375.6v22.5M-210.6 375.5v22.6M-219.7 376.7v21.4M-187 377.6v20.5M-185.2 378.3v20.6M-183.4 379v24.4M-188.8 377.2v20.9M-201.5 375.4v22.7M-203.3 375.3v22.8M-192.5 376.3v21.8M-194.3 376v22.1M-196.1 375.8v22.3M-197.9 375.6v22.5M-199.7 375.5v22.6M-190.7 376.7v21.4M-234.2 384v41.3M-236 386.3v36.5M-237.8 389.8v25.5M-232.3 382.3v37.5M-228.7 379.9v29M-230.5 381v33.2M-176.2 384v41.3M-174.3 386.3v36.5M-172.5 389.8v25.5M-178 382.3v37.5M-181.6 379.9v29M-179.8 381v33.2"/></g><g fill="none" stroke="#5F52CA" stroke-width=".5" stroke-miterlimit="10"><path stroke-linejoin="round" d="M-201.5 415c.1-.8.6-1.5 1.3-1.8 3-1.3 7.5-2.6 12.5-1.5 3.4.7 6.9 5.6 6.7 6.2-.2.6-4.2-3-9.1-2.5-4.1.4-8.3 1.3-11 2.7-.3.2-.7-.1-.7-.5l.3-2.6z"/><path d="M-200.2 413.2v4.4M-198.4 412.5v4.4M-185.7 412.5v3.3M-182.1 415.9v1.6M-183.9 413.9v2.6M-194.8 411.5v4.5M-192.9 411.3v4.3M-191.1 411.2v4.2M-189.3 411.4v3.9M-187.5 411.7v3.7M-196.6 411.9v4.5"/></g><g fill="none" stroke="#5F52CA" stroke-width=".5" stroke-miterlimit="10"><path stroke-linejoin="round" d="M-208.8 415c-.1-.8-.6-1.5-1.3-1.8-3-1.3-7.5-2.6-12.5-1.5-3.4.7-6.9 5.6-6.7 6.2.2.6 4.2-3 9.1-2.5 4.1.4 8.3 1.3 11 2.7.3.2.7-.1.7-.5l-.3-2.6z"/><path d="M-210.1 413.2v4.4M-211.9 412.5v4.4M-224.6 412.5v3.3M-228.2 415.9v1.6M-226.4 413.9v2.6M-215.5 411.5v4.5M-217.3 411.3v4.3M-219.1 411.2v4.2M-221 411.4v3.9M-222.8 411.7v3.7M-213.7 411.9v4.5"/></g><path fill="none" stroke="#5F52CA" stroke-width=".5" stroke-miterlimit="10" d="M-198 422.5c.2-.5 1.4-3.2 4.3-4.1 2.9-1 6.3.2 8.4 3"/><path fill="none" stroke="#5F52CA" stroke-width=".5" stroke-miterlimit="10" d="M-197.1 422.1c.7.4 3 1.6 6 1.1 2.5-.4 4.1-1.6 4.8-2.2"/><path fill="#5F52CA" d="M-189.5 419.7c0 1.5-1.1 2.6-2.5 2.6s-2.5-1.2-2.5-2.6 1.2-1.7 2.6-1.7 2.4.3 2.4 1.7z"/><path fill="none" stroke="#5F52CA" stroke-width=".5" stroke-miterlimit="10" d="M-198.8 421.5c1.6-2.9 4.6-4.8 7.8-4.8 4.5 0 7.1 3.4 7.3 3.8M-212.3 422.5c-.2-.5-1.4-3.2-4.3-4.1-2.9-1-6.3.2-8.4 3"/><path fill="none" stroke="#5F52CA" stroke-width=".5" stroke-miterlimit="10" d="M-213.2 422.1c-.7.4-3 1.6-6 1.1-2.5-.4-4.1-1.6-4.8-2.2"/><path fill="#5F52CA" d="M-220.8 419.7c0 1.5 1.1 2.6 2.5 2.6s2.5-1.2 2.5-2.6-1.2-1.7-2.6-1.7-2.4.3-2.4 1.7z"/><path fill="none" stroke="#5F52CA" stroke-width=".5" stroke-miterlimit="10" d="M-211.5 421.5c-1.6-2.9-4.6-4.8-7.8-4.8-4.5 0-7.1 3.4-7.3 3.8M-207.7 418.7v21.4h5.1v-21.4M-214.8 447.7l.9-.5h17.5l.4.8M-209.3 451.9c.4-.3 1.9-1.4 4.1-1.3 1.9.1 3.1 1.1 3.5 1.4"/></svg>