<svg xmlns="http://www.w3.org/2000/svg" viewBox="-251 362.4 91.7 117.5"><path fill="#FFF" stroke="#5F52CA" stroke-width=".5" stroke-linejoin="round" stroke-miterlimit="10" d="M-199.1 458.4c18.6 0 17.6-25.9 19.9-37.2 6-29.1-.4-44.2-24.8-44.2-24.5 0-33.4 14.8-25.2 44.2 3.1 11.1 1.4 37.1 20.3 37.1 5 .1 7.1.1 9.8.1z"/><path fill="none" stroke="#5F52CA" stroke-width=".5" stroke-miterlimit="10" d="M-202.2 451.2v7.2M-202.2 445v3.4M-202.2 436.3v5M-189.5 444.3v10.8M-185.8 444.1v6.6M-187.7 442.9v10.3M-198.5 450.9v7.5M-198.5 436.9v4.7M-196.7 450.3v7.9M-196.7 437.3v4.3M-194.9 448.8v9.1M-194.9 437.6v3.8M-193.1 438.1v19.2M-191.3 443.2v13.2M-200.3 451.2v7.2M-200.3 445.2v1.8M-200.3 436.6v4.8M-182.5 439.3v3M-184 441.9v5.1"/><path fill="#5F52CA" d="M-199.4 410.6l9.7-1.9h.4l5.9 2.6c.2.1.4.3.4.6v.7c0 .5-.5.8-.9.6l-4.5-1.6h-.3l-8.2 1.4c-.1 0-.3 0-.4-.1l-2.2-1.2c-.6-.2-.5-1 .1-1.1z"/><path fill="none" stroke="#5F52CA" stroke-width=".5" stroke-linejoin="round" stroke-miterlimit="10" d="M-196.9 418c.5-.6 1.5-1.8 3.3-2.4 3.4-1.1 6.3.9 6.7 1.1"/><circle fill="#5F52CA" cx="-191.5" cy="416.6" r=".8"/><path fill="none" stroke="#5F52CA" stroke-width=".5" stroke-linejoin="round" stroke-miterlimit="10" d="M-189.8 415.5c.1.2.3.5.3.7 0 1.1-.9 2.1-2 2.1s-2.1-.9-2.1-2c0-.2.2-.7.2-.7s1.1-.3 1.7-.3c.8 0 1.4.1 1.4.1l.5.1zM-204 434.9h1.8c1-1.8 1.7-2.2 2.3-2.2.5 0 .8.4 1.2.3.6-.2 1-1.1 1.1-1.7.1-1.2-.7-2.4-2.1-3.1M-204 458.4v-8c.2.1 4.5 2 7.9-.5 1.9-1.5 2.9-3.8 2.9-5.8 0-.4 0-2.3-.9-2.7-.4-.2-.8 0-.9 0-1 .3-3.4.3-9-.4v-4.9c3.4.5 6.3 1 8.7 1.5 1.4.3 3.3.7 3.7 1.9.2.7-.1 1.3.1 2.7.2 1 .2 1.5.6 1.8.8.7 2.7.3 3.1-.6.5-.9-.3-2.2.7-1.8.9.4-.6 2.6.6 2.8.7.1 4.9-3.4 6-13.3"/><path fill="none" stroke="#5F52CA" stroke-width=".5" stroke-linejoin="round" stroke-miterlimit="10" d="M-204 448.7h1.8l3.9-3.5h-5.7v3.5zM-195 441.3c-1.1.8-4.3 2.8-8.8 2.7-3.8-.1-6.6-1.6-7.8-2.4M-179 420c2.2-9.2.8-16.6 0-21-1.1-5.9-1.9-11.2-6.3-15.1-3.6-3.2-10.8-5.3-18.6-4.9-7.8-.4-15.3 1.7-18.8 4.9-4.4 3.9-5.2 9.2-6.3 15.1-.8 4.4-2.6 11.8-.4 21"/><path fill="none" stroke="#5F52CA" stroke-width=".5" stroke-miterlimit="10" d="M-205.8 451.2v7.2M-205.8 445v3.4M-205.8 436.3v5M-218.5 444.3v10.8M-222.1 444.1v6.6M-220.3 442.9v10.3M-209.4 450.9v7.5M-209.4 436.9v4.7M-211.2 450.3v7.9M-211.2 437.3v4.3M-213 448.8v9.1M-213 437.6v3.8M-214.8 438.1v19.2M-216.7 443.2v13.2M-207.6 451.2v7.2M-207.6 445.2v1.8M-207.6 436.6v4.8M-225.4 439.3v3M-223.9 441.9v5.1"/><path fill="#5F52CA" d="M-208.6 410.6l-9.7-1.9h-.4l-5.9 2.6c-.2.1-.4.3-.4.6v.7c0 .5.5.8.9.6l4.5-1.6h.3l8.2 1.4c.1 0 .3 0 .4-.1l2.2-1.2c.7-.2.5-1-.1-1.1z"/><path fill="none" stroke="#5F52CA" stroke-width=".5" stroke-linejoin="round" stroke-miterlimit="10" d="M-211 418c-.5-.6-1.5-1.8-3.3-2.4-3.4-1.1-6.3.9-6.7 1.1"/><circle fill="#5F52CA" cx="-216.4" cy="416.6" r=".8"/><path fill="none" stroke="#5F52CA" stroke-width=".5" stroke-linejoin="round" stroke-miterlimit="10" d="M-218.2 415.5c-.1.2-.3.5-.3.7 0 1.1.9 2.1 2 2.1s2.1-.9 2.1-2c0-.2-.2-.7-.2-.7s-1.1-.3-1.7-.3c-.8 0-1.4.1-1.4.1l-.5.1zM-204 434.9h-1.8c-1-1.8-1.7-2.2-2.3-2.2-.5 0-.8.4-1.2.3-.6-.2-1-1.1-1.1-1.7-.1-1.2.7-2.4 2.1-3.1M-204 458.4v-8c-.2.1-4.5 2-7.9-.5-1.9-1.5-2.9-3.8-2.9-5.8 0-.4 0-2.3.9-2.7.4-.2.8 0 .9 0 1 .3 3.4.3 9-.4v-4.9c-3.4.5-6.3 1-8.7 1.5-1.4.3-3.3.7-3.7 1.9-.2.7.1 1.3-.1 2.7-.2 1-.2 1.5-.6 1.8-.8.7-2.7.3-3.1-.6-.5-.9.3-2.2-.7-1.8-.9.4.6 2.6-.6 2.8-.7.1-4.9-3.4-6-13.3"/><path fill="none" stroke="#5F52CA" stroke-width=".5" stroke-linejoin="round" stroke-miterlimit="10" d="M-204 448.7h-1.7l-3.9-3.5h5.6v3.5zM-198.4 414.5c-1.6.2-3 1.4-3.4 2.9-.6 2 .8 3.6.9 3.7M-209.5 414.5c1.6.2 3 1.4 3.4 2.9.6 2-.8 3.6-.9 3.7M-202.2 434.9c1.6-2.3 1.6-3.9 1.4-5-.2-.9-.6-1.1-.9-2.3-.4-1.7-.1-2.8.1-4.1M-194.5 418.3h6M-219.7 418.3h6"/></svg>