<svg xmlns="http://www.w3.org/2000/svg" viewBox="-251 362.4 91.7 117.5"><circle fill="#5F52CA" cx="-194.6" cy="413.9" r=".5"/><path fill="#FFF" stroke="#5F52CA" stroke-width=".5" stroke-linecap="round" stroke-linejoin="round" stroke-miterlimit="10" d="M-234.4 389.2c0-6.6 5.4-12 12-12h33.7c6.6 0 12 5.4 12 12"/><path fill="#FFF" stroke="#5F52CA" stroke-width=".5" stroke-linecap="round" stroke-linejoin="round" stroke-miterlimit="10" d="M-204.5 377.2c-9.1 2.3-17.2 9.9-22.1 19.9-3.8 7.8-2.6 13.5-1.7 23.4.9 10.9 2 24.6-2 42.7 0 0-6.6-2.4-7.2-5.9-2.1-11.7-2.4-28.9-.7-42.5 1.2-9.4 3.8-14.5 3.8-25.7"/><path fill="#FFF" stroke="#5F52CA" stroke-width=".5" stroke-linecap="round" stroke-linejoin="round" stroke-miterlimit="10" d="M-206.9 378.5c3.7 8.4 8.3 13.1 11.8 15.8 4.8 3.7 7.8 3.9 10.6 7.7 4.2 5.6 3 12.6 2.5 18.2-2 21.7-1.6 27.4 1.1 42.8 2.1.8 9.6-5.5 10.2-7.7 2.4-10.2-5.7-40-5.9-66.1"/><path fill="none" stroke="#5F52CA" stroke-width=".5" stroke-linecap="round" stroke-linejoin="round" stroke-miterlimit="10" d="M-205.5 463.4c1 .1 5.8.4 9.8-2.9 1.6-1.3 2.5-2.8 3-4.4v-12c-.1-2.9-8.4-6.7-9.8-7l-2.9 1.8v3.5h9.1c.3.7.6 1.6.8 2.8.2 1.6 1 4.9-.9 6.5-.3.3-1.5 1-3.5.9v-6.4h-5.5v17.2z"/><path fill="none" stroke="#5F52CA" stroke-width=".5" stroke-miterlimit="10" d="M-200 452.6v10.2M-196.4 451.6v9.4M-198.2 452.6v9.4M-203.6 446.2v17.2M-201.8 446.2v17M-223.6 444.1v5.5M-225.4 441.9v5.5M-220 448.5v5.5M-221.8 446.3v5.4"/><path fill="none" stroke="#5F52CA" stroke-width=".5" stroke-linecap="round" stroke-linejoin="round" stroke-miterlimit="10" d="M-212.7 443.4c-.1.9 1.4 1.8 2.3 1.8h6.5M-198.1 443.4c.1.9-1.4 1.8-2.3 1.8h-3.4"/><path fill="none" stroke="#5F52CA" stroke-width=".5" stroke-miterlimit="10" d="M-194.6 441.5v17.9M-196.4 440.2v2.2M-200 438.2v4.2M-198.2 439.1v3.3M-203.6 437.8v4.6M-201.8 437.4v5"/><path fill="none" stroke="#5F52CA" stroke-width=".5" stroke-linejoin="round" stroke-miterlimit="10" d="M-200.9 405.2h10.5v2.5h-10.5z"/><path fill="none" stroke="#5F52CA" stroke-width=".5" stroke-linecap="round" stroke-linejoin="round" stroke-miterlimit="10" d="M-190.4 407.7l4.9 3.7-4.9-6.2"/><path fill="none" stroke="#5F52CA" stroke-width=".5" stroke-linejoin="round" stroke-miterlimit="10" d="M-220.6 405.2h10.5v2.5h-10.5z"/><path fill="none" stroke="#5F52CA" stroke-width=".5" stroke-linecap="round" stroke-linejoin="round" stroke-miterlimit="10" d="M-220.6 407.7l-4.8 3.7 4.8-6.2M-188.3 414.5c-1.2-.2-2.9-.6-4.8-1.5-1.6-.8-2.8-1.7-3.6-2.5M-198.6 415.2c.2-.3 1.1-1.9 3.1-2.2.9-.2 2.2 0 2.6.1"/><path fill="none" stroke="#5F52CA" stroke-width=".5" stroke-linecap="round" stroke-linejoin="round" stroke-miterlimit="10" d="M-197.7 414.4c.4.3 1.7 1.2 3.5 1.1 1.6 0 2.8-.8 3.2-1.1"/><circle fill="none" stroke="#5F52CA" stroke-width=".5" stroke-linecap="round" stroke-linejoin="round" stroke-miterlimit="10" cx="-194.6" cy="413.9" r="1.4"/><path fill="none" stroke="#5F52CA" stroke-width=".5" stroke-linecap="round" stroke-linejoin="round" stroke-miterlimit="10" d="M-200.7 413.7c1.2 2.5 3.7 4 6.4 4 3.1-.1 4.9-2.4 5.2-2.8"/><path fill="#FFF" stroke="#5F52CA" stroke-width=".5" stroke-linecap="round" stroke-linejoin="round" stroke-miterlimit="10" d="M-200.9 407.7c-4 4.4-4 14.9 1.4 20 .8 1.5.3 3.2-.8 3.9-.7.4-1 2.3-5.2 2.3"/><circle fill="#5F52CA" cx="-216.4" cy="413.9" r=".5"/><path fill="none" stroke="#5F52CA" stroke-width=".5" stroke-linecap="round" stroke-linejoin="round" stroke-miterlimit="10" d="M-205.4 463.4c-1 .1-5.8.4-9.8-2.9-1.6-1.3-2.5-2.8-3-4.4v-12c.1-2.9 8.4-6.7 9.8-7l2.9 1.8v3.5h-9.1c-.3.7-.6 1.6-.8 2.8-.2 1.6-1 4.9.9 6.5.3.3 1.5 1 3.5.9v-6.4h5.5v17.2z"/><path fill="none" stroke="#5F52CA" stroke-width=".5" stroke-miterlimit="10" d="M-210.9 452.6v10.2M-214.5 451.6v9.4M-212.7 452.6v9.4M-207.3 446.2v17.2M-209.1 446.2v17M-216.4 441.5v17.9M-214.5 440.2v2.2M-210.9 438.2v4.2M-212.7 439.1v3.3M-207.3 437.8v4.6M-209.1 437.4v5"/><path fill="none" stroke="#5F52CA" stroke-width=".5" stroke-linecap="round" stroke-linejoin="round" stroke-miterlimit="10" d="M-222.6 414.5c1.2-.2 2.9-.6 4.8-1.5 1.6-.8 2.8-1.7 3.6-2.5M-212.3 415.2c-.2-.3-1.1-1.9-3.1-2.2-.9-.2-2.2 0-2.6.1"/><path fill="none" stroke="#5F52CA" stroke-width=".5" stroke-linecap="round" stroke-linejoin="round" stroke-miterlimit="10" d="M-213.2 414.4c-.4.3-1.7 1.2-3.5 1.1-1.6 0-2.8-.8-3.2-1.1"/><circle fill="none" stroke="#5F52CA" stroke-width=".5" stroke-linecap="round" stroke-linejoin="round" stroke-miterlimit="10" cx="-216.4" cy="413.9" r="1.4"/><path fill="none" stroke="#5F52CA" stroke-width=".5" stroke-linecap="round" stroke-linejoin="round" stroke-miterlimit="10" d="M-210.2 413.7c-1.2 2.5-3.7 4-6.4 4-3.1-.1-4.9-2.4-5.2-2.8"/><path fill="none" stroke="#5F52CA" stroke-width=".5" stroke-miterlimit="10" d="M-210 407.7c4 4.4 4 14.9-1.4 20-.8 1.5-.3 3.2.8 3.9.7.4 1 2.3 5.2 2.3"/><path fill="#FFF" stroke="#5F52CA" stroke-width=".5" stroke-linecap="round" stroke-linejoin="round" stroke-miterlimit="10" d="M-218.2 456.1l-9.5-11.5M-192.7 456.1l9.5-11.5"/><path fill="none" stroke="#5F52CA" stroke-width=".5" stroke-miterlimit="10" d="M-187.3 444.1v5.5M-185.5 441.9v5.5M-190.9 448.5v5.5M-189.1 446.3v5.4M-230 379.9v81.7M-231.8 381.7v80.9M-233.6 385v76.5M-235.4 401v59.3M-237.2 409.6v48.6M-228.1 422.5v27.6M-215.5 377.1v5.7M-211.8 377.2v3.1M-213.6 377.1v4.4M-224.5 377.1v16.2M-222.7 377.1v13.5M-220.9 377.1v11.2M-219.1 377.1v9M-217.3 377.1v7.3M-226.3 377.8v18.6M-228.1 378.7V401M-202.8 377.1v9M-204.6 377.1v6.1M-182.9 378.7v26.1M-208.2 377.1v1.3M-210 377.1v2.1M-201 377.1v11.4M-188.3 377.1v21.5M-184.6 377.8v24M-186.5 377.4v22.5M-197.3 377.1v15.3M-195.5 377.1V394M-193.7 377.1v18.3M-191.9 377.1v19.4M-190.1 377.1v20.5M-199.1 377.1v13.6M-173.8 420.2v38.9M-179.2 381.7v81.1M-175.6 406.3v54.3M-177.4 384.9v77M-172.1 432.3v25.1M-181.1 379.9v81.8M-194 405.1v2.6M-197.6 405.1v2.6M-195.8 405.1v2.6M-192.2 405.1v2.7M-199.4 405.2v2.7M-188.7 407.3v1.7M-217 405.1v2.6M-213.4 405.1v2.6M-215.2 405.1v2.6M-218.8 405.1v2.7M-211.6 405.2v2.7M-222.3 407.3v1.7"/></svg>