<svg xmlns="http://www.w3.org/2000/svg" viewBox="0 0 106.1 117.5"><path fill="#FFF" stroke="#5F52CA" stroke-width=".5" stroke-linecap="round" stroke-linejoin="round" stroke-miterlimit="10" d="M78.3 66.6V90c0 6.6-5.4 12-12 12H31c-6.6 0-12-5.4-12-12V73.8"/><path fill="#FFF" stroke="#5F52CA" stroke-width=".5" stroke-miterlimit="10" d="M39.1 20.8c.1 6.7 12 14.5 22.8 18.7 10.7 4.1 11.1 1.9 14.6 6.3 3.6 4.5-.8 21 3.8 26.7 3.5 4.4 9.5 5.9 11.1 6.1 4.5.6 12-.8 13.4-6.3 1.2-4.7-2.7-10.3-6.7-11.1-3.5-.7-5.6 2.8-7.4 1.8-3.2-1.6 2-12.3-.3-23.9-.2-.8-2.8-11-10.8-18.2-3.2-3-40.5-.1-40.5-.1z"/><path fill="none" stroke="#5F52CA" stroke-width=".5" stroke-miterlimit="10" d="M39.1 20.8V25c-3 2.5-11 4.3-16.6 8.8-13.1 10.5.3 41-4.3 41-3.4 0 .6-4.3-2.3-5.6-1.3-.6-5.9-2-8.1-2.2-2.3-.1-6-1.3-6.8-4.2-.7-2.4.7-5.7 2.5-6 1.6-.3 2.6 2 4.3 1.8 2.4-.3 3.5-5.6 3.7-6.8 2.9-13.7-1.8-19.4 1.5-25.5 4.3-8 20-10.8 26.1-5.5z"/><path fill="#5F52CA" d="M77.8 50.1c-1.4-1.1-3.9-2.2-7.5-3.6-3.2.1-15.2 3.1-16.7 4.1l1.9 2.9c1.9-1.3 9.3-4.9 14.6-5.6 3.5.7 5.7 1.7 7.7 2.2M19 50.3c1.4-1.1 4.4-2.4 8-3.8 3.2.1 15.2 3.1 16.7 4.1l-1.9 2.9c-1.9-1.3-9.3-4.9-14.6-5.6-3.5.7-6.1 1.9-8.2 2.4"/><path fill="none" stroke="#5F52CA" stroke-width=".5" stroke-miterlimit="10" d="M72.1 57.9c-.6-.6-3.1-2.7-6.8-2.7-4.9 0-7.8 3.5-8.2 4 1.2.5 3.7 1.4 6.9 1 2.8-.3 4.8-1.3 5.8-2"/><circle fill="#5F52CA" cx="64" cy="57.8" r="2.3"/><path fill="none" stroke="#5F52CA" stroke-width=".5" stroke-miterlimit="10" d="M58.5 55.2c.2-.2 3.5-3.9 8.4-3 3.9.7 5.8 3.9 6 4.4M24.7 57.9c.6-.6 3.1-2.7 6.8-2.7 4.9 0 7.8 3.5 8.2 4-1.2.5-3.7 1.4-6.9 1-2.8-.3-4.8-1.3-5.8-2"/><circle fill="#5F52CA" cx="32.7" cy="57.8" r="2.3"/><path fill="none" stroke="#5F52CA" stroke-width=".5" stroke-miterlimit="10" d="M38.4 55.2c-.2-.2-3.5-3.9-8.4-3-3.9.7-5.8 3.9-6 4.4M33.7 85.3h29.8c-1.9 1.4-7.6 5.1-15.6 5.1-5.8 0-10.2-2.1-12.4-3.3"/><circle fill="none" stroke="#5F52CA" stroke-width=".5" stroke-linecap="round" stroke-linejoin="round" stroke-miterlimit="10" cx="29.9" cy="71" r="6"/><circle fill="none" stroke="#5F52CA" stroke-width=".5" stroke-linecap="round" stroke-linejoin="round" stroke-miterlimit="10" cx="67.4" cy="71" r="6"/><path fill="none" stroke="#5F52CA" stroke-width=".5" stroke-miterlimit="10" d="M2.9 57.1v8.3M4.7 57.1v9.3M10.1 56.1v11.3M6.5 58.5v8.4M8.3 58.5v8.6M11.9 48.9v19M13.7 25.1v43.3M15.6 23.2v45.9M21 19.9v15.3M17.4 21.8v20.6M19.2 20.7v17M30.1 18.1v11.3M28.2 18.2v12M26.4 18.4v12.7M24.6 18.8v13.5M22.8 19.3v14.2M31.9 18.2v10.3M62.7 19.6v20.2M60.9 19.6V39M55.4 19.8v16.9M59.1 19.7v18.6M57.2 19.8v17.7M53.6 19.9v15.7M51.8 20v14.7M50 20.1v13.5M44.6 20.4v9.1M48.2 20.2v12.1M46.4 20.3v10.6M35.5 19v8M37.3 19.6v6.5M39.1 22.4V25M40.9 20.7v4.8M42.7 20.5v7.3M33.7 18.4v9.4M64.5 19.5v21M66.3 19.5V41M71.7 19.6v22.9M68.1 19.5v22M69.9 19.6v22.3M73.6 19.7v23.5M75.4 19.8v24.7M77.2 20v27M82.6 24v50.8M79 20.5V70M80.8 22v51.1M86.2 29.2V77M84.4 26.3V76M100.7 62.5V77M104.4 67.2v6.3M102.6 64.1v11.7M98.9 61.5v16.3M97.1 61.2v17.1M95.3 61.5v17.1M89.9 37.2v20.3M93.5 62.4v16.3M91.7 63.2v15.4M88.1 32.6v45.1M89.9 62.1v16.3M17.4 60v14.8"/></svg>