<svg xmlns="http://www.w3.org/2000/svg" viewBox="-251 362.4 91.7 117.5"><ellipse fill="#FFF" cx="-205.5" cy="419.4" rx="30.9" ry="46.5"/><g fill="none" stroke="#5F52CA" stroke-width=".5" stroke-miterlimit="10"><path d="M-214.4 446l7.2-1.7 1.6 1 1.6-1 7.2 1.7"/><path d="M-215.6 445.3l1.9 1.1h6.2l1.9.7 1.9-.7h6.2l1.9-1.1"/><path d="M-213.2 446.4c1.1.7 3.8 2.6 7.6 2.6 3.9 0 6.4-1.9 7.4-2.6"/></g><g fill="none" stroke="#5F52CA" stroke-width=".5" stroke-miterlimit="10"><path d="M-203.8 438v4.5M-200.2 438.2v4.4M-198.4 438.6v4.3M-196.6 439.3v4.5M-194.7 440.3v4.7M-192.9 442.4v3.9M-202 438v4.9M-205.6 438.3v3.9M-207.4 438v4.5M-211 438.2v4.4M-212.8 438.6v4.3M-214.6 439.3v4.5M-216.5 440.3v4.7M-218.3 442.4v3.9M-209.2 438v4.9"/></g><path fill="none" stroke="#5F52CA" stroke-width=".5" stroke-miterlimit="10" d="M-205.6 451.1v4.9M-203.9 451.1v2.8M-207.5 451.1v2.8M-201.1 421.9c-.3-.4-1.4-2.5-.9-5.1.5-2.2 1.9-3.5 2.4-3.9.4-.4 3.1-3.4 7.5-3.3 4.9.1 7.6 3.9 7.8 4.3"/><path fill="none" stroke="#5F52CA" stroke-width=".5" stroke-miterlimit="10" d="M-199.5 415.5c1.7-1.3 3.3-1.6 4.2-1.8 2.9-.4 5.3.9 7 1.8 1.1.6 1.9 1.2 2.5 1.7"/><path fill="none" stroke="#5F52CA" stroke-width=".5" stroke-miterlimit="10" d="M-198.7 417.2c.5-.6.9-1.8 2.8-2.7 2.5-.4 6 1 7.8 3.4"/><ellipse transform="matrix(.9969 .079 -.079 .9969 32.277 16.591)" fill="none" stroke="#5F52CA" stroke-width=".5" stroke-miterlimit="10" cx="-193.5" cy="416.2" rx="2.1" ry="1.5"/><circle fill="#5F52CA" cx="-193.5" cy="416.2" r=".7"/><path fill="none" stroke="#5F52CA" stroke-width=".5" stroke-miterlimit="10" d="M-198 417.1c1 .3 2.4.7 4 .8 1.9.1 3.5-.1 4.6-.4M-200.1 417.4c.6.8 2.5 2.9 5.7 3.9s6 .3 6.9 0M-211.1 421.9c.3-.4 1.4-2.5.9-5.1-.5-2.2-1.9-3.5-2.4-3.9-.5-.5-4.3-4.1-9.9-3.4-3.9.4-6.3 2.7-7.1 3.5"/><path fill="none" stroke="#5F52CA" stroke-width=".5" stroke-miterlimit="10" d="M-213 415.5c-1.7-1.3-3.3-1.6-4.2-1.8-2.9-.4-5.3.9-7 1.8-1.1.6-1.9 1.2-2.5 1.7"/><path fill="none" stroke="#5F52CA" stroke-width=".5" stroke-miterlimit="10" d="M-213.8 417.2c-.5-.6-.9-1.8-2.8-2.7-2.5-.4-6 1-7.8 3.4"/><ellipse transform="matrix(-.9969 .079 -.079 -.9969 -404.402 848.436)" fill="none" stroke="#5F52CA" stroke-width=".5" stroke-miterlimit="10" cx="-219" cy="416.2" rx="2.1" ry="1.5"/><circle fill="#5F52CA" cx="-219" cy="416.2" r=".7"/><path fill="none" stroke="#5F52CA" stroke-width=".5" stroke-miterlimit="10" d="M-214.6 417.1c-1 .3-2.4.7-4 .8-1.9.1-3.5-.1-4.6-.4M-211.4 417.4c-.6.8-2.5 2.9-5.7 3.9s-6 .3-6.9 0"/><g fill="none" stroke="#5F52CA" stroke-width=".5" stroke-miterlimit="10"><path d="M-205.6 436.5c1.3.1 2.1-.3 2.5-.6.7-.5.8-1.1 1.5-1.3.9-.3 2 .2 2 .5 0 .1-.3.3-1.6.5M-205.6 436.5c-1.3.1-2.1-.3-2.5-.6-.7-.5-.8-1.1-1.5-1.3-.9-.3-2 .2-2 .5 0 .1.3.3 1.6.5"/><path d="M-200.3 436c1.5-.1 2-.8 2.1-1 .7-1.1-.1-3.5-2.7-5.2M-211.1 436c-1.5-.1-2-.8-2.1-1-.7-1.1.1-3.5 2.7-5.2"/></g><path fill="none" stroke="#5F52CA" stroke-width=".5" stroke-miterlimit="10" d="M-221 450.7v9.2M-217.4 454.6v7.6M-219.2 448.3v12.8M-228.3 447.7v5.1M-226.5 444.2V455M-224.7 445.4v11.4M-222.9 452.5v6.1M-213.8 458.6v5.5M-215.6 457.1v6.1M-206.5 460.5v5.3M-208.4 460.3v5.1M-210.2 460v5M-212 459.5v5.3M-190.2 450.7v9.2M-193.9 454.7v7.5M-192.1 448.3v12.8M-183 447.7v5.1M-184.8 444.2V455M-186.6 445.5v11.3M-188.4 452.5v6.1M-197.5 458.7v5.4M-195.7 457.2v6M-204.7 460.5v5.3M-202.9 460.4v5M-201.1 460v5M-199.3 459.5v5.3M-223.6 380.8v7.4M-221.8 377.2v12.2M-209.1 376.1v9.9M-205.5 377.1v8.9M-207.3 376.3v9.7M-218.2 375.2v14.7M-216.4 375.2v17.7M-214.6 375.9v11.4M-212.8 377.2v8.8M-211 376.5v9.2M-220 375.8v13.8M-187.4 377.2V388M-189.2 376.7v10.5M-201.9 375.6v14.3M-203.7 378.8v7.1M-192.8 377.6v9.8M-194.6 375.5v12.8M-196.5 374.5v15.1M-198.3 374.3v19.3M-200.1 374.7v14.4M-191 376.3V387M-185.6 380.3v9.3M-183.8 382.4v11.2M-182.8 391.9l5.1 3.6M-181.8 390.4l5.2 3.6M-184.8 394.9l5.1 3.6M-183.8 393.4l5.1 3.6"/><path fill="#FFF" stroke="#5F52CA" stroke-width=".5" stroke-miterlimit="10" d="M-176.5 414.9c.6 0 2.9-4.1 5.7-1.5 2.5 2.4.9 8.7.5 10.1-1.1 4-4.7 9.3-7.2 8.9M-235.2 414.9c-.6 0-2.9-4.1-5.7-1.5-2.5 2.4-.9 8.7-.5 10.1 1.1 4 4.8 9.4 7.3 9"/><path fill="none" stroke="#5F52CA" stroke-width=".5" stroke-miterlimit="10" d="M-225.5 377.2v11.3M-227.3 378.3v11.6M-229.1 379.7v13.7M-183.8 393.6c0-.2-.8-4.4-4.2-6-3.2-1.5-6.8.2-8.5 2.2-2.4 2.7-1.7 6.6-2.3 6.6-.5 0-1.6-3.1-.8-6.2.8-2.9 3-4.6 3.9-5.3"/><path fill="none" stroke="#5F52CA" stroke-width=".5" stroke-linejoin="round" stroke-miterlimit="10" d="M-208.2 386.4c-1.8-.7-3.9-1.1-5.3-.1-2.5 1.7-2.7 6.9-2.7 6.9s-2.1-4.3-3.2-4.1c-.6.1-1.3 1.7-1.3 1.7s-1.3-2-2.7-2.5c-.9-.3-1.6-.4-3.9 1.7M-192.3 379.1c-.1-.4-1-3.2-3.6-4.3-2.8-1.2-6.5-.1-8.5 3.2"/><path fill="none" stroke="#5F52CA" stroke-width=".5" stroke-linejoin="round" stroke-miterlimit="10" d="M-202.8 382c0-.5-.3-3.4-2.6-4.9-2.5-1.7-6.4-1.1-9.1 1.7"/><path fill="none" stroke="#5F52CA" stroke-width=".5" stroke-linejoin="round" stroke-miterlimit="10" d="M-212.7 377.3c-.3-.3-2.4-2.4-5.1-2.2-3 .3-5.7 3.2-6 7"/><path fill="none" stroke="#5F52CA" stroke-width=".5" stroke-miterlimit="10" d="M-208.1 392.7c3.4-5 2-11.1-1.6-13.2-2.6-1.5-6.9-1.3-9.3 1.7-1.9 2.4-2.7 5.1-1 7.9M-191.1 392.3c3.4-5 2-11.1-1.6-13.2-2.6-1.5-6.9-1.3-9.3 1.7-1.9 2.4-2.7 5.1-1 7.9"/><path fill="none" stroke="#5F52CA" stroke-width=".5" stroke-linejoin="round" stroke-miterlimit="10" d="M-202.2 376.3c-.1-.4-1-3.2-3.6-4.3-2.8-1.2-6.5-.1-8.5 3.2"/><path fill="none" stroke="#5F52CA" stroke-width=".5" stroke-miterlimit="10" d="M-230.1 391.9l-5.1 3.6M-231.2 390.4l-5.1 3.6M-228.1 394.9l-5.1 3.6M-229.1 393.4l-5.1 3.6M-232.2 396.6l-5.1 3.6M-233.2 395.1l-5.1 3.6M-230.1 399.6l-5.1 3.6M-231.2 398.1l-5.1 3.6M-180.6 396.8l5.1 3.5M-179.6 395.3l5.1 3.5M-182.7 399.7l5.1 3.6M-181.7 398.2l5.2 3.6M-182.9 447c1.1-1.9 2.6-4.8 3.4-8.6 1-4.9-.1-8-.1-11.6-.1-3.9 1-9.6 6.5-16.8"/><path fill="none" stroke="#5F52CA" stroke-width=".5" stroke-miterlimit="10" d="M-182 402.1c1 1.8 2.2 4.4 2.9 7.6 1.1 5.2.3 11.2-.3 13.6M-228.8 447c-1.1-1.9-2.6-4.8-3.4-8.6-1-4.9.1-8 .1-11.6.1-3.9-1-9.6-6.5-16.8"/><path fill="none" stroke="#5F52CA" stroke-width=".5" stroke-miterlimit="10" d="M-237.6 402.1c1 1.8 4 4.8 4.7 8 1.1 5.2-.1 10.8.6 13.2M-234.1 402.4v32.1M-177.6 402.4v32.1M-235.8 404.7v9.7M-175.5 404.1v9.3"/></svg>