<svg xmlns="http://www.w3.org/2000/svg" viewBox="0 0 91.7 117.5"><path fill="#FFF" stroke="#5F52CA" stroke-width=".5" stroke-miterlimit="10" d="M69.5 101.5H24.1c-6.6 0-12-5.4-12-12V32.3c0-6.6 5.4-12 12-12h45.4c6.6 0 12 5.4 12 12v57.2c0 6.6-5.4 12-12 12z"/><path fill="none" stroke="#5F52CA" stroke-width=".5" stroke-miterlimit="10" d="M73.6 21.1L46.8 35.4 20 21.1M22.5 53.9h11.1c-.1-3.4-9.1-1.3-11.1 0zM46.8 85h-5.4c.4-.1 2.7-1.3 3.4-1.5.7-.2 1.3-.2 2 .5.7-.7 1.4-.7 2-.5.7.2 3 1.4 3.4 1.5h-5.4zM41.3 85c.3.4.9 1.1 1.9 1.6 1.6.9 3.1.7 3.7.8.6 0 2.1.1 3.7-.8.9-.5 1.5-1.2 1.9-1.6M13.1 94.4h9.7l10.7-6.2 13.3 7.4L60 88.2l10.7 6.2h9.7M16.3 44.8h23.4v2.4H16.3zM52.6 44.8H76v2.4H52.6zM69.8 53.9H58.7c.1-3.4 9.1-1.3 11.1 0zM14.9 94.4v2.8M16.7 94.4V99M18.5 94.4v5.7M24 93.7v7.8M20.3 94.4v6.5M22.2 94.4v7M25.8 92.7v8.8M27.6 91.7v9.8M29.4 90.7v10.8M34.8 89v12.5M31.2 89.6v11.9M33 88.6v12.9M43.9 94v7.5M42.1 93v8.5M40.3 92v9.5M38.5 90.9v10.7M36.7 90v11.5M45.7 95v6.5M78.3 94.6v3M76.5 94.6v4.5M74.7 94.6v5.7M69.3 93.5v7.9M72.9 94.6v6.5M71.1 94.6v6.9M67.5 92.5v9M65.7 91.5v10M63.8 90.4v11.1M58.4 89.1v12.6M62 89.4v12.1M60.2 88.2v13.5M49.3 94.1v7.6M51.2 93.1v8.6M53 92.1v9.6M54.8 91v10.5M56.6 90.1v11.6M47.5 95.2v6.5M55.9 30.4V20.3M54 31.4V20.3M52.2 32.4V20.3M50.4 33.5V20.3M45 34.5V20.3M48.6 34.5V20.3M46.8 35.4V20.3M37.7 30.5V20.3M39.5 31.5V20.3M41.4 32.6V20.3M43.2 33.5V20.3M64.9 25.7v-5.4M63.1 26.7v-6.4M61.3 27.6v-7.3M59.5 28.6v-8.3M57.7 29.4v-9.1M70.4 22.8v-2.5M68.5 23.8v-3.5M66.7 24.7v-4.4M28.7 25.7v-5.4M30.5 26.7v-6.4M32.3 27.6v-7.3M34.1 28.6v-8.3M35.9 29.5v-9.2M23.2 22.8v-2.5M25 23.8v-3.5M26.9 24.7v-4.4"/><path fill="#5F52CA" d="M28 52.3h2.5V54H28zM61.9 52.1h2.5v1.7h-2.5z"/><circle fill="#5F52CA" cx="48.6" cy="77.7" r=".5"/><circle fill="#5F52CA" cx="50.5" cy="80" r=".5"/><circle fill="#5F52CA" cx="52.3" cy="77.7" r=".5"/><circle fill="#5F52CA" cx="54" cy="80" r=".5"/><circle fill="#5F52CA" cx="55.9" cy="82.3" r=".5"/><circle fill="#5F52CA" cx="57.8" cy="80" r=".5"/><circle fill="#5F52CA" cx="59.7" cy="82.3" r=".5"/><circle fill="#5F52CA" cx="61.6" cy="84.6" r=".5"/><circle fill="#5F52CA" cx="63.4" cy="82.3" r=".5"/><circle fill="#5F52CA" cx="46.8" cy="80" r=".5"/><circle fill="#5F52CA" cx="45" cy="77.7" r=".5"/><circle fill="#5F52CA" cx="43.1" cy="80" r=".5"/><circle fill="#5F52CA" cx="41.3" cy="77.7" r=".5"/><circle fill="#5F52CA" cx="39.5" cy="80" r=".5"/><circle fill="#5F52CA" cx="37.7" cy="82.3" r=".5"/><circle fill="#5F52CA" cx="35.8" cy="80" r=".5"/><circle fill="#5F52CA" cx="33.9" cy="82.3" r=".5"/><circle fill="#5F52CA" cx="32" cy="84.6" r=".5"/><circle fill="#5F52CA" cx="30.1" cy="82.3" r=".5"/></svg>