<svg xmlns="http://www.w3.org/2000/svg" viewBox="0 0 91.7 117.5"><path fill="#FFF" stroke="#5F52CA" stroke-width=".464" stroke-miterlimit="10" d="M55.9 98.1H35.8c-6.6 0-12-5.4-12-12l-7.9-57.2c0-6.6 5.4-12 12-12h35.9c6.6 0 12 5.4 12 12l-7.9 57.2c0 6.6-5.4 12-12 12z"/><path fill="none" stroke="#5F52CA" stroke-width=".5" stroke-linecap="round" stroke-linejoin="round" stroke-miterlimit="10" d="M39.1 86.3c1 0 3.4-1.4 5.5-2.4.6.1 1.1.5 1.3.7"/><path fill="none" stroke="#5F52CA" stroke-width=".5" stroke-miterlimit="10" d="M18.9 50.7c4.6-8.8 1.5-27.3 2.4-27.5 7.3-1.9 13.2 8.8 24.6 8.8M72.8 50.8c-4.6-8.8-1.4-27.3-2.3-27.5-7.3-2-13.2 8.7-24.6 8.7"/><path fill="none" stroke="#5F52CA" stroke-width=".5" stroke-linecap="round" stroke-linejoin="round" stroke-miterlimit="10" d="M50 54.5l11.9-1.2 4.7.8-6.1-2.7c-4 1.8-10.6 1.2-10.6 1.2v1.9zM52.6 86.3c-1 0-3.4-1.4-5.5-2.4-.6.1-1.1.5-1.3.7M38.1 86.3h1l2.3.1 4.4.2M53.9 86.3h-1.3l-2.3.1-4.5.2"/><path fill="none" stroke="#5F52CA" stroke-width=".5" stroke-linecap="round" stroke-linejoin="round" stroke-miterlimit="10" d="M39.5 86.5c.5.5 2.9 3.5 6.4 3.5 3.6 0 5.9-3.1 6.3-3.5"/><path fill="none" stroke="#5F52CA" stroke-width=".5" stroke-miterlimit="10" d="M45.8 98.1v-5.7"/><path fill="none" stroke="#5F52CA" stroke-width=".5" stroke-linecap="round" stroke-linejoin="round" stroke-miterlimit="10" d="M55.7 58.2c.1.9 1.1 1.3 1.7 1.3.9 0 1.8-.9 1.6-1.8-.1-.4-.1-.6-.4-.8H56c-.4.4-.4.8-.3 1.3z"/><circle fill="#5F52CA" cx="57.4" cy="58" r=".5"/><path fill="none" stroke="#5F52CA" stroke-width=".5" stroke-linecap="round" stroke-linejoin="round" stroke-miterlimit="10" d="M41.4 73.9c-.4 1.9-.3 2.5-.1 2.6.3.1.7-.5 1.3-.5.4.6 1.8 2 3.3 2 1.5 0 3-1.4 3.3-2 .6-.1 1 .6 1.3.5.2-.1.3-.7-.1-2.6M54.5 59.5h5.9M53.6 56.9h8.5M48 54.8c-2 .4-2.1-.3-2.1-1V49M41.7 54.5l-11.9-1.2-4.7.8 6.1-2.7c4 1.8 10.6 1.2 10.6 1.2v1.9zM36 58.2c-.1.9-1.1 1.3-1.7 1.3-.9 0-1.8-.9-1.6-1.8.1-.4.1-.6.4-.8h2.6c.4.4.4.8.3 1.3z"/><circle fill="#5F52CA" cx="34.3" cy="58" r=".5"/><path fill="none" stroke="#5F52CA" stroke-width=".5" stroke-linecap="round" stroke-linejoin="round" stroke-miterlimit="10" d="M37.2 59.5h-5.9M38.1 56.9h-8.4"/><circle fill="#5F52CA" cx="51.8" cy="18.2" r=".5"/><circle fill="#5F52CA" cx="39.9" cy="18.2" r=".5"/><g fill="#5F52CA"><circle cx="40" cy="29.6" r=".5"/><circle cx="44" cy="29.6" r=".5"/><circle cx="47.9" cy="29.6" r=".5"/><circle cx="49.8" cy="26.8" r=".5"/><circle cx="53.8" cy="26.8" r=".5"/><circle cx="45.9" cy="26.8" r=".5"/><circle cx="36.4" cy="23.8" r=".5"/><circle cx="40.4" cy="23.8" r=".5"/><circle cx="44.3" cy="23.8" r=".5"/><circle cx="45.9" cy="21" r=".5"/><circle cx="49.9" cy="21" r=".5"/><circle cx="53.8" cy="21" r=".5"/><circle cx="42" cy="21" r=".5"/><circle cx="43.9" cy="18.2" r=".5"/><circle cx="47.9" cy="18.2" r=".5"/><circle cx="51.8" cy="18.2" r=".5"/><circle cx="39.9" cy="18.2" r=".5"/><circle cx="38" cy="21" r=".5"/><circle cx="47.9" cy="23.8" r=".5"/><circle cx="51.8" cy="23.8" r=".5"/><circle cx="55.8" cy="23.8" r=".5"/><circle cx="37.9" cy="26.8" r=".5"/><circle cx="42" cy="26.8" r=".5"/><circle cx="51.8" cy="29.6" r=".5"/><circle cx="59.7" cy="23.8" r=".5"/><circle cx="55.8" cy="18" r=".5"/><circle cx="59.8" cy="18" r=".5"/><circle cx="63.7" cy="18" r=".5"/><circle cx="57.8" cy="20.9" r=".5"/><circle cx="61.7" cy="20.9" r=".5"/><circle cx="65.8" cy="20.9" r=".5"/><circle cx="57.8" cy="26.8" r=".5"/><circle cx="63.7" cy="23.8" r=".5"/><circle cx="69.5" cy="20.9" r=".5"/><circle cx="67.7" cy="18" r=".5"/><circle cx="71.6" cy="23.8" r=".5"/><circle cx="73.6" cy="32.7" r=".5"/><circle cx="73.6" cy="26.8" r=".5"/><circle cx="71.7" cy="35.7" r=".5"/><circle cx="71.7" cy="29.7" r=".5"/><circle cx="73.6" cy="38.6" r=".5"/><circle cx="71.6" cy="41.6" r=".5"/><circle cx="71.7" cy="47" r=".5"/><circle cx="32" cy="23.8" r=".5"/><circle cx="35.8" cy="18" r=".5"/><circle cx="31.9" cy="18" r=".5"/><circle cx="28" cy="18" r=".5"/><circle cx="33.9" cy="20.9" r=".5"/><circle cx="30" cy="20.9" r=".5"/><circle cx="25.9" cy="20.9" r=".5"/><circle cx="33.9" cy="26.8" r=".5"/><circle cx="28" cy="23.8" r=".5"/><circle cx="22.2" cy="20.9" r=".5"/><circle cx="24" cy="18" r=".5"/><circle cx="20" cy="23.8" r=".5"/><circle cx="18.1" cy="32.7" r=".5"/><circle cx="18.1" cy="26.8" r=".5"/><circle cx="20" cy="35.7" r=".5"/><circle cx="20" cy="29.7" r=".5"/><circle cx="18.1" cy="38.6" r=".5"/><circle cx="20" cy="41.6" r=".5"/><circle cx="20" cy="47" r=".5"/></g></svg>