<svg xmlns="http://www.w3.org/2000/svg" viewBox="-251 362.4 91.7 117.5"><path fill="#FFF" stroke="#5F52CA" stroke-width=".5" stroke-miterlimit="10" d="M-192.8 458.5h3.2c6.6 0 12-5.4 12-12l1.8-28.4-1.8-28.9c0-6.6-5.4-12-12-12h-31.2c-6.6 0-12 5.4-12 12l-1.7 29.6 1.8 27.8c0 6.6 5.4 12 12 12h3"/><path fill="none" stroke="#5F52CA" stroke-width=".5" stroke-miterlimit="10" d="M-233.8 429.2l2.6-23.9h5.3l.5-6.8 1.1 6.8h27.7l5.6-17.4.7 17.3h11l2.8 24"/><path fill="none" stroke="#5F52CA" stroke-width=".5" stroke-miterlimit="10" d="M-198.7 409c-.2-.5 5.1-3.3 11.1-2.6 4.3.5 7.8 2.6 7.7 3-.1.4-3.3-.8-8.4-1.1-6.4-.3-8.8 4.9-10.4.7zM-211.8 409c.2-.5-5.1-3.3-11.1-2.6-4.3.5-7.8 2.6-7.7 3 .1.4 3.3-.8 8.4-1.1 6.5-.3 8.8 4.9 10.4.7zM-195.9 417.8c1.4-3.2 4.5-4.7 6.9-4 1.7.5 3.5 2.1 3.2 3.2 0 0-2.3 1.6-9.5.9"/><circle fill="#5F52CA" cx="-190.8" cy="415.8" r="2.1"/><path fill="none" stroke="#5F52CA" stroke-width=".5" stroke-miterlimit="10" d="M-193.5 420.2h7M-196 414.7c.1-.2 2.4-3.2 6-2.9 2.7.2 4.3 2.1 4.6 2.4M-214.5 417.8c-1.4-3.2-4.5-4.7-6.9-4-1.7.5-3.5 2.1-3.2 3.2 0 0 2.3 1.6 9.5.9"/><circle fill="#5F52CA" cx="-219.6" cy="415.8" r="2.1"/><path fill="none" stroke="#5F52CA" stroke-width=".5" stroke-miterlimit="10" d="M-216.8 420.2h-7M-214.4 414.7c-.1-.2-2.4-3.2-6-2.9-2.7.2-4.3 2.1-4.6 2.4"/><path fill="#FFF" stroke="#5F52CA" stroke-width=".5" stroke-miterlimit="10" d="M-205.2 461.7c-7 .3-12.3-3-14.5-4.5v-11.6c0-2.3-.4-4.7 1-5.7 1.1-.7 2.4-.1 4 .2 2.2.4 5.3.3 9.5-2 4.2 2.3 7.3 2.4 9.5 2 1.6-.3 2.9-.9 4-.2 1.4.9 1 3.3 1 5.7v11.5c-2.2 1.6-7.5 4.9-14.5 4.6z"/><path fill="none" stroke="#5F52CA" stroke-width=".5" stroke-linejoin="round" stroke-miterlimit="10" d="M-205.2 450.3c-.5.7-1.7 2.5-4.2 3.3-4.5 1.4-8.2-2.1-8.4-2.3v-7.8c.1-.7.2-1.5.7-1.7.6-.2 1.5.8 1.9 1.1 1.1 1.1 3.7 1.9 10 .4 6.3 1.5 8.9.7 10-.4.3-.3 1.2-1.4 1.9-1.1.5.2.6 1 .7 1.7v7.8c-.2.2-3.9 3.6-8.4 2.3-2.5-.8-3.7-2.6-4.2-3.3z"/><g fill="none" stroke="#5F52CA" stroke-width=".5" stroke-miterlimit="10"><path d="M-232.7 387.7v30.8M-230.9 382.7v22.6M-225.4 378.1V400M-229.1 380.6v24.7M-227.2 379.1v26M-223.6 377.5v27.8M-221.8 377.2v28.1M-220 377.1v28.2M-214.6 377.1v28.2M-218.2 377.1v28.2M-216.4 377.1v28.2M-205.5 377.1v28.2M-207.3 377.1v28.2M-209.1 377.1v28.2M-210.9 377.1v28.3M-212.7 377.1v28.2M-203.7 377.1v28.2M-180.1 381.8v23.4M-176.5 407.6V427M-178.3 385.3v28.2M-181.9 380v25.3M-183.7 378.7v26.5M-185.6 377.9v27.3M-191 377.1v11.4M-187.4 377.4v27.8M-189.2 377.2v28.2M-200.1 377.1v28.3M-198.2 377.1v28.3M-196.4 377.1v27.7M-194.6 377.1v22M-192.8 377.1v16.3M-201.9 377.1v28.3"/></g><g fill="none" stroke="#5F52CA" stroke-width=".5" stroke-miterlimit="10"><path d="M-218.9 440.1v17.6M-217.1 439.6v2.2M-211.7 440.2v3.9M-215.3 440v2.8M-213.5 440.3v3.5M-202.6 439.3v4.5M-204.4 438.5v5M-206.2 438.7v4.8M-208.1 439.4v4.5M-209.9 439.9v4.2M-200.8 439.9v4.2M-215.3 452.9v6.8M-213.5 453.6v6.8M-197.2 440.3v3.6M-195.4 440v3.1M-193.6 439.7v2.1M-191.7 440v17.8M-217.1 451.8v6.9M-199 440.2v3.9M-211.7 453.9v7.1M-202.6 452.8v8.8M-204.4 451.3v10.4M-206.2 451.6v10.1M-208.1 453v8.6M-209.9 453.7v7.7M-200.8 453.6v7.8M-197.2 453.7v6.8M-195.4 453.1v6.7M-193.6 452v6.8M-199 453.9v7.2"/></g></svg>