<svg xmlns="http://www.w3.org/2000/svg" viewBox="0 0 91.7 117.5"><path fill="#FFF" stroke="#5F52CA" stroke-width=".5" stroke-miterlimit="10" d="M15.5 59l7.3 27.5c0 6.6 5.4 12 12 12h23.7c6.6 0 12-5.4 12-12L77.8 58"/><path fill="#FFF" stroke="#5F52CA" stroke-width=".5" stroke-miterlimit="10" d="M77.8 29.2c0 5.5 1.5 11 2.7 13 1.4 2.4 3.5 3.9 3 5.7-.3 1.2-1.7 2-2.8 2.2-1.5.3-3.1-.5-4-1.8-2.3 1.6-3.3 3.7-2.7 5 .5 1.1 2.3 1.7 2.7 1.3.4-.4-1.2-1.9-.7-2.8.7-1.1 3.1-1 4.2.2 1.4 1.4.7 4.3-.8 5.5-2 1.6-5.5.1-7-2-.8-1.1-.9-2.2-1-3-.3-2.8.9-3.5.8-6.3 0-.6 0-4.4-2-5-.8-.3-2-.1-2.3.5-.6 1.2 2.8 2.8 2.7 5.3-.1 1.7-1.8 3.3-3.5 3.7-2.9.7-5.5-2.4-6.3-4.5-.2-.6-.8-2.1-.2-3 .8-1 2.5-.3 3-1.2.7-1.1-1.1-3.7-3.2-5.2-1.4-1-3.2-1.6-3.5-1.2-.4.5 2.3 2 2.3 4.2 0 2.1-2.3 4.8-5 4.5-1.9-.2-3.4-2-3.7-3.7-.3-1.7.9-2.2 1-4.3.1-1.6-.3-4.2-2.2-5.2-2.5-1.3-6.5 1.2-6.5 3 0 1.1 1.5 2.2 1.8 2 .3-.2-.5-1.2 0-2 .5-.9 2.6-1.3 3.8-.3 1.2 1 .9 2.8.8 3-.4 2.1-2.7 4.1-5.3 3.8-2.5-.3-4.2-2.6-4.3-4.5-.2-2.6 2.7-4.9 2.5-5-.1-.1-1.5 2.2-4 3-2.7.8-5.5-.5-5.5-.3 0 .1 1.2.3 2.3 1.1 0 0 .9.7 1.5 1.7 1.4 2.4.2 7.6-3 8.5-2 .6-4.7-.5-5.3-2.2-.4-1.1.3-1.7-.2-2.7-.7-1.6-3.5-2.1-5.5-1.7-1.7.4-4.5 1.7-4.5 3.8 0 2.2 2.9 3.8 3.3 3.5.4-.3-1.1-2-.5-2.8.7-.9 3.6-.6 5.2 1 1.8 1.9 1.9 5.6-.3 7.7-1.7 1.6-4.4 1.8-6.2.8-2.9-1.6-3.4-6.5-3.3-6.5 0 0 .8 2 1.2 3.8.2.9 1.2 6.9-2.7 9.8-2.9 2.2-7.8 2.6-10.2-.2-2-2.3-2.3-6.8.2-8.3 1.9-1.2 5.2-.5 7.3 2.2.7 1.1 1 1.3 1 1.3.2-.1-.5-2.7-2.3-5-1.1-1.4-1.6-1.5-1.7-2.3-.1-1.3 1.1-1.9 3.1-4.6.8-1.1 1.5-2.1 2-3.4.4-1.1 1.3-6.7 1.3-10.1"/><circle fill="#5F52CA" cx="48.5" cy="76.6" r=".5"/><circle fill="#5F52CA" cx="50.3" cy="78.9" r=".5"/><circle fill="#5F52CA" cx="52.2" cy="76.6" r=".5"/><circle fill="#5F52CA" cx="53.9" cy="78.9" r=".5"/><circle fill="#5F52CA" cx="55.8" cy="81.2" r=".5"/><circle fill="#5F52CA" cx="46.7" cy="78.9" r=".5"/><circle fill="#5F52CA" cx="44.8" cy="76.6" r=".5"/><circle fill="#5F52CA" cx="43" cy="78.9" r=".5"/><circle fill="#5F52CA" cx="41.1" cy="76.6" r=".5"/><circle fill="#5F52CA" cx="39.4" cy="78.9" r=".5"/><circle fill="#5F52CA" cx="37.5" cy="81.2" r=".5"/><circle fill="#5F52CA" cx="44.7" cy="87.3" r=".5"/><circle fill="#5F52CA" cx="46.6" cy="89.6" r=".5"/><circle fill="#5F52CA" cx="48.5" cy="87.3" r=".5"/><path fill="none" stroke="#5F52CA" stroke-width=".5" stroke-miterlimit="10" d="M35.8 93.4v6.7M34 92.4v7.6M37.6 94.1v6M39.4 94.5v5.6M41.2 94.7v5.4M46.7 95v5.1M43 94.9v5.2M44.8 95v5.1M55.7 94.1v6M53.9 94.5v5.6M52.1 94.7v5.4M50.3 94.9v5.4M48.5 95v5.1M57.5 93.4v6.7M59.3 92.4v7.9M4.5 66.5c1.9 4.7 12.2 4 12.2-2.9M76.9 61.5c.6 3.7 3.6 6.4 6.8 6.4 3.5 0 5.6-3.2 5.8-3.4"/><circle fill="#5F52CA" cx="58.1" cy="55.6" r="1.1"/><path fill="none" stroke="#5F52CA" stroke-width=".5" stroke-miterlimit="10" d="M54.7 54.5l8.1.6M39.4 83.5h14.5"/><circle fill="#5F52CA" cx="35.2" cy="55.6" r="1.1"/><path fill="none" stroke="#5F52CA" stroke-width=".5" stroke-miterlimit="10" d="M38.6 54.5l-8.1.6M62.8 42.3v6.8"/><g stroke="#5F52CA" stroke-width=".5" stroke-miterlimit="10"><path fill="#FFF" d="M77.8 29.2c0-6.6-5.4-12-12-12H27.5c-6.6 0-12 5.4-12 12"/><path fill="none" d="M4.8 51.2v8.6M10.2 51.7v9.7M6.6 50.6V61M8.4 50.9v10.6M12 42.9v8.6M13.9 40.1v20.2M15.7 27v31.8M21.1 45.9v7.2M17.5 22.5v28M19.3 20.5v19.6M30.2 17.2v27.5M28.4 17.3v25.9M26.5 44.5v6.4M24.7 43.1v9.3M22.9 42.5V53M32 17.2V45M55.5 17.3v26.8M53.7 17.2v27M51.9 17.2v25.9M50.1 17.2v14.4M44.7 36v4.6M48.3 33.5V39M46.5 33.1v7M35.6 17.2v17.1M37.4 17.2v17M39.2 17.2v16.4M41 17.3V39M42.9 17.3v22.9M33.8 17.2v27.7M57.4 17.3v18.1M62.8 17.3v21.9M59.2 17.2V36M61 17.2v20M64.6 17.3v33M66.4 17.2v33.4M68.2 17.5v23.7M73.7 20.1v36.6M70 18v23M71.9 18.9v24.2M82.7 45.2v3.9M80.9 42.8V50M79.1 38.3V50M77.3 25.6v23.3M75.5 22v27.2M10.2 45.1v3.7M12 53.4v7.7M19.3 44.8v7.6M21.1 19.1V39M22.9 18.1v20.4M24.7 17.5v20.9M26.5 17.3v21.5M35.6 35.3v8.4M44.7 17.2v14.5M46.5 17.2v13.6M48.3 17.2v13.5M57.4 36.3v6.9M68.2 42.8V50M75.5 54.5v3.1M77.3 51v7M79.1 51.2v6.3"/></g><path fill="none" stroke="#5F52CA" stroke-width=".5" stroke-miterlimit="10" d="M9.7 73.3c1.4 1.8 3.8 2.5 5.8 1.7 1.7-.6 2.9-2.2 3.1-4.1M83.5 73.3c-1.4 1.8-3.8 2.5-5.8 1.7-1.7-.6-2.9-2.2-3.1-4.1"/></svg>