<svg xmlns="http://www.w3.org/2000/svg" viewBox="-251 362.4 91.7 117.5"><path fill="#FFF" stroke="#5F52CA" stroke-width=".5" stroke-miterlimit="10" d="M-177.4 385.3c-2-3.4-4.3-8.8-9.8-8.8h-35.6c-6.1 0-14.2 5.3-14.2 17.8v63.5l12.4-8.6"/><path fill="#FFF" stroke="#5F52CA" stroke-width=".5" stroke-miterlimit="10" d="M-222.2 376.5v8.6c-5.3 1.9-9.6 6.1-9.6 12.4v38.4c0 3.3 1.1 6.6 3.2 9.1 5.1 6.2 14.2 10.7 14.2 10.7 2.4 1.3 6.6 2 9.3 2 2.7 0 7.3-.5 9.7-1.9 0 0 14.2-8.3 15.8-15.2l1.3-35.9"/><path fill="#FFF" stroke="#5F52CA" stroke-width=".5" stroke-miterlimit="10" d="M-177.4 385.3l11.1 72.5h-14.1c1.1-21.2 2.5-37.2 2.3-52.9-.2-17.5-25.7-23.7-43.2-19.8v-8.7"/><path fill="#5F52CA" d="M-198.8 411.9l14.3-3.4 5.5 2.9-5.5-1.6-13.3 4.3zM-210.5 411.9l-14.4-3.4-5.5 2.9 5.5-1.6 13.4 4.3z"/><path fill="none" stroke="#5F52CA" stroke-width=".5" stroke-linejoin="round" stroke-miterlimit="10" d="M-186.2 418.3c-.3-.5-2.1-2.9-4.9-2.9-4 0-6.4 3.2-6.8 3.7h1.4c1.2.3 3 .6 5.1.3 1.7-.2 3.3-1.1 4.2-1.5"/><path fill="none" stroke="#5F52CA" stroke-width=".5" stroke-linejoin="round" stroke-miterlimit="10" d="M-188.9 417.4c0 1.3-1.3 1.7-2.7 1.9-1.5.2-2.7-.6-2.7-1.9s1.2-2.3 2.7-2.3 2.7 1.1 2.7 2.3z"/><circle fill="#5F52CA" cx="-191.6" cy="417.4" r="1"/><path fill="none" stroke="#5F52CA" stroke-width=".5" stroke-linejoin="round" stroke-miterlimit="10" d="M-195.3 416.7c.3-.2 3.4-2.9 6.6-1.2 1.4.7 2.4 2 2.8 2.4l1-.6M-223.8 418.3c.3-.5 2.1-2.9 4.9-2.9 4 0 6.4 3.2 6.8 3.7h-1.4c-.8.4-2.7.9-5 .6-2-.2-3.5-1.1-4.3-1.6"/><path fill="none" stroke="#5F52CA" stroke-width=".5" stroke-linejoin="round" stroke-miterlimit="10" d="M-221.1 417.4c0 1.3 1.3 2.1 2.6 2.2 1.5.2 2.8-.9 2.8-2.2s-1.2-2.3-2.7-2.3-2.7 1.1-2.7 2.3z"/><circle fill="#5F52CA" cx="-218.4" cy="417.4" r="1"/><path fill="none" stroke="#5F52CA" stroke-width=".5" stroke-linejoin="round" stroke-miterlimit="10" d="M-214.7 416.7c-.3-.2-3.4-2.9-6.6-1.2-1.4.7-2.4 2-2.8 2.4l-1-.6"/><path fill="none" stroke="#5F52CA" stroke-width=".5" stroke-miterlimit="10" d="M-218.2 443.1c.3 0 8.6-.4 10.5-.8.6.1 1.6.2 2.7.7h.2c1.1-.5 2.1-.6 2.7-.7 2 .3 10.2.8 10.5.8M-218 443.1l8.4 1.3c.6.1 1.1.1 1.7.1h3-.1 3c.6 0 1.1 0 1.7-.1l8.3-1.3"/><path fill="none" stroke="#5F52CA" stroke-width=".5" stroke-miterlimit="10" d="M-217.2 443.1c1.1.7 2.8 2.1 4.6 2.7 3.1 1.1 5.8 1.4 7.7 1.4 1.9 0 4.7-.3 7.7-1.4 1.8-.6 3.4-2 4.6-2.7"/><path fill="none" stroke="#5F52CA" stroke-width=".5" stroke-linejoin="round" stroke-miterlimit="10" d="M-196 417.2c.3-.2 3.4-2.9 6.6-1.2 1.4.7 2.4 2 2.8 2.4l1-.6M-213.9 417.2c-.3-.2-3.4-2.9-6.6-1.2-1.4.7-2.4 2-2.8 2.4l-1-.6"/><path fill="none" stroke="#5F52CA" stroke-width=".5" stroke-miterlimit="10" d="M-198.8 417.4c.5-.5 3.7-3.8 8.5-3.4 2.9.2 4.9 1.6 5.7 2.3M-211.2 417.4c-.5-.5-3.7-3.8-8.5-3.4-2.9.2-4.9 1.6-5.7 2.3M-209.5 433c-.5.6-.7 1.5-.4 2.2.2.5.7 1.1 1.3 1.2.5.1.8-.3 1.3-.2.6.2 1.1.7 1.2 1.4h2.8c.1-.7.6-1.2 1.2-1.4.5-.1.7.3 1.3.2.6-.1 1.1-.7 1.3-1.2.3-.7.1-1.6-.4-2.2M-183.3 393.1v-15.4M-185.1 391.5v-14.7M-197.8 385.6v-9.1M-201.4 384.8v-8.3M-199.6 385.2v-8.7M-188.7 389.1v-12.6M-190.5 388.2v-11.7M-192.3 387.4v-10.9M-194.1 386.7v-10.2M-195.9 386.1v-9.6M-186.9 390.2v-13.7M-219.5 384.8v-8.2M-217.7 384.5v-7.9M-205 384.3v-7.7M-203.2 384.5v-7.9M-214.1 384.1v-7.5M-212.3 384.1v-7.5M-210.4 384v-7.4M-208.6 384.1v-7.5M-206.8 384.2v-7.6M-215.9 384.3v-7.7M-181.4 379.1v16.1M-179.6 381.5v16.7M-176 394.7v63.1M-174.2 406.6v51.2M-172.4 418.8v39M-170.6 430.1v27.7M-168.8 442.4v15.4M-177.8 384.7v73.1M-224 376.5v9.4M-225.8 376.9v10M-229.4 378.5v11.8M-231.3 379.9v14M-233.1 381.8v73.3M-234.9 384.6v71.8M-227.6 377.3v11M-229.4 443.8v8.8M-231.3 439.7v14.2M-227.6 446.1v5.3M-225.9 447.9v2.3"/></svg>