<svg xmlns="http://www.w3.org/2000/svg" viewBox="-251 362.4 91.7 117.5"><path fill="#FFF" stroke="#5F52CA" stroke-width=".5" stroke-miterlimit="10" d="M-193.5 458.4s15.8-9.1 15.8-15.7l2.1-23.5v-28.1c0-6.6-5-12-11.1-12h-35.6c-6.1 0-11.1 5.4-11.1 12V419l2 23.7c0 6.6 15.7 15.7 15.7 15.7 2.4 1.3 5.1 2.1 7.9 2.1h6.5c2.8-.1 5.4-.8 7.8-2.1z"/><path fill="none" stroke="#5F52CA" stroke-width=".5" stroke-miterlimit="10" d="M-233.3 418.4c.9 3.3 2.4 5.1 3.7 6.1 2.5 2.1 4.9 1.8 8.1 4.1 1.9 1.4 3.2 3 3.9 4.2M-175.5 418.4c-.9 3.3-2.4 5.1-3.7 6.1-2.5 2.1-4.9 1.8-8.1 4.1-1.9 1.4-3.2 3-3.9 4.2"/><path fill="#5F52CA" d="M-199.1 404l-.9 3.4 18.1.1-.5-2.2zM-209.8 404l.9 3.4-18 .1.4-2.2z"/><path fill="none" stroke="#5F52CA" stroke-width=".5" stroke-miterlimit="10" d="M-197 413.5c.2-.4 1.7-2.7 4.5-3.1 2.8-.5 5.7 1.1 7.2 3.9"/><path fill="#5F52CA" d="M-188.9 412.2c-.2 1.3-1.4 2.2-2.6 2.1-1.2-.2-2.1-1.4-1.9-2.8.2-1.3 1.4-1.3 2.6-1.1 1.2.2 2.1.5 1.9 1.8z"/><path fill="none" stroke="#5F52CA" stroke-width=".5" stroke-miterlimit="10" d="M-198.2 412.4c.4-.9 1.3-2.6 3.3-3.6 3.1-1.5 6.4.4 7.4.9 1.8 1 2.9 2.3 3.4 3.1M-195.9 414.3c.8.3 2.1.7 3.7.6 2.8-.1 4.8-1.3 5.6-1.8M-216.3 442c-.4-.8 8.1-1.8 8.1-1.8.4-.1.7 0 1.1.1l2.7 1.2 2.7-1.2c.3-.2.7-.2 1.1-.1 0 0 8.1 1 8.1 1.8"/><path fill="none" stroke="#5F52CA" stroke-width=".5" stroke-linejoin="round" stroke-miterlimit="10" d="M-192.1 442s-7.5 1.2-12.3 1.2c-4.8 0-12.3-1.2-12.3-1.2 1 4.4 23.1 4.4 24.6 0z"/><path fill="none" stroke="#5F52CA" stroke-width=".5" stroke-miterlimit="10" d="M-211.8 413.5c-.2-.4-1.7-2.7-4.5-3.1-2.8-.5-5.7 1.1-7.2 3.9"/><path fill="#5F52CA" d="M-219.9 412.2c.2 1.3 1.4 2.2 2.6 2.1s2.1-1.4 1.9-2.8c-.2-1.3-1.4-1.3-2.6-1.1s-2.1.5-1.9 1.8z"/><path fill="none" stroke="#5F52CA" stroke-width=".5" stroke-miterlimit="10" d="M-210.6 412.4c-.4-.9-1.3-2.6-3.3-3.6-3.1-1.5-6.4.4-7.4.9-1.8 1-2.9 2.3-3.4 3.1M-212.9 414.3c-.8.3-2.1.7-3.7.6-2.8-.1-4.8-1.3-5.6-1.8"/><path fill="none" stroke="#5F52CA" stroke-width=".5" stroke-miterlimit="10" d="M-233.3 411.6c.8-1.9 2.4-4.9 3-8.7.6-3.3.4-4.5.9-6.5.7-2.5 2.4-5.8 7.3-9.3l-3.2 9.8c2.9-2.7 7.6-6.5 14.2-9.3 10.1-4.2 19.2-3.7 23.8-3.2-.1 6.1 1.6 9.1 3.3 10.7 2 1.9 3.6 1.7 4.8 3.9 1.5 2.6.1 4.6.8 8.8.5 2.8 2 5.6 2.8 6.9M-206.2 449v-2.4M-204.4 449v-2.4M-202.6 449v-2.4M-200.8 451.8v8.6M-197.2 459.9v-3.3c-.1-.7-.4-1.9-1.3-3-2-2.7-5.6-2.5-6-2.5v9.2M-199 453v7.2M-202.6 451.3v9.1M-179.1 443.7v2.8M-180.9 445.6v3.2M-193.6 455v3.4M-195.4 456v3.3M-184.5 448.8v3.4M-186.3 450.3v3.3M-188.1 451.6v3.4M-189.9 452.8v3.4M-191.7 453.9v3.4M-182.7 447.3v3.2M-208 451.8v8.6"/><path fill="none" stroke="#5F52CA" stroke-width=".5" stroke-miterlimit="10" d="M-211.7 459.9v-3.3c.1-.7.4-1.9 1.3-3 2-2.7 5.6-2.5 6-2.5v9.2M-209.9 453v7.2M-206.2 451.3v9.1M-229.8 443.7v2.8M-228 445.6v3.2M-215.3 455v3.4M-213.5 456v3.3M-224.4 448.8v3.4M-222.5 450.3v3.3M-220.7 451.6v3.4M-218.9 452.8v3.4M-217.1 453.9v3.4M-226.2 447.3v3.2M-195.4 384.3V379M-197.2 384.4V379M-209.9 387.3V379M-213.5 389v-10M-211.7 388.1V379M-200.8 384.9V379M-202.6 385.2V379M-204.4 385.6V379M-206.2 386.1V379M-208 386.7V379M-199 384.7V379M-231.6 407.5v-22.8M-229.8 399v-16.6M-217.1 390.8V379M-215.3 389.8V379M-226.2 390.8v-10.9M-224.4 388.9v-9.6M-222.5 387.5V379M-220.7 393.3V379M-218.9 392v-13M-228 393.2v-12.4M-222.5 394.6v-6M-193.5 384.4V379M-191.7 384.3V379M-179 399.6v-17.3M-177.2 411.7v-27M-188.1 384.6V379M-186.3 391.6V379M-184.5 394.8v-15.5M-182.7 396.4v-16.5M-180.9 397.5v-16.7M-189.9 384.4V379M-200.9 407.2V404M-207.8 407.2V404"/></svg>