<svg xmlns="http://www.w3.org/2000/svg" viewBox="-251 362.4 91.7 117.5"><path fill="#FFF" stroke="#5F52CA" stroke-width=".5" stroke-miterlimit="10" d="M-199.7 458.1c3.2-1 8.7-3.2 10.2-5.6.7-1.2 1.9-2.1 3.2-2.3 5.6-1 9.8-5.9 9.8-11.8v-13.2h2v-33.7c0-6.6-5.4-12-12-12h-38.4c-6.6 0-12 5.4-12 12v33.7h2v13.2c0 5.9 4.3 10.8 9.9 11.8 1.4.2 2.5 1.1 3.3 2.3 1.6 2.4 6.9 4.5 10.1 5.6 1.5.5 1.1.8 2.8.8h6.6c1.4-.1 1.1-.4 2.5-.8z"/><path fill="#5F52CA" d="M-191.6 414.2c.1.2.2.5.2.7.1 1.1-.8 2.1-1.9 2.1-1.1.1-2.1-.8-2.1-1.9 0-.2 0-.5.1-.7l.2-.4 1.8-.3 1.7.2v.3z"/><path fill="none" stroke="#5F52CA" stroke-width=".5" stroke-miterlimit="10" d="M-198.5 416.7c.2-.3 1.6-2.6 4.3-3 2.3-.3 4.7 1 5.9 3.3"/><path fill="none" stroke="#5F52CA" stroke-width=".5" stroke-miterlimit="10" d="M-236.9 425.2h3.3v-19.8l2.5-3.5c-.2-.5-1.9-5.5 1.2-10 2.6-3.7 6.6-4.5 7.3-4.6l-1 2.6h35.8l-1-2.6c.7.1 4.7.8 7.3 4.6 3.1 4.5 1.4 9.5 1.2 10l2.5 3.5v19.8h3.3"/><path fill="#5F52CA" d="M-199.2 409.9l12.9-2c.4-.1.7 0 1 .2l4.9 4.2-6-1.5h-1.1L-200 413l.8-3.1z"/><path fill="none" stroke="#5F52CA" stroke-width=".5" stroke-miterlimit="10" d="M-186.9 416.7c-.2-.3-2.6-4-6.8-4-3.6 0-5.8 3-6.3 3.7-2.6 3.6-4.1 8.9-1.3 13.8"/><path fill="none" stroke="#5F52CA" stroke-width=".5" stroke-miterlimit="10" d="M-197.1 416.4c.6.3 1.9.9 3.6 1 1.9 0 3.3-.7 3.9-1M-210.3 447.6c.2-.2 1.9-2.3 4.7-2.2 2.6 0 4.2 1.9 4.4 2.1M-216.6 437.5c2.6.9 6.4 1.9 10.8 1.5 5.6-.5 8.9-2.9 9.2-2.3.4.7-4.4 6.4-10.6 5.9-3.4-.3-5.8-2.4-6.7-3.3"/><path fill="#5F52CA" d="M-219.8 414.2c-.1.2-.2.5-.2.7-.1 1.1.8 2.1 1.9 2.1s2.1-.8 2.1-1.9c0-.2 0-.5-.1-.7l-.2-.4-1.8-.3-1.7.2v.3z"/><path fill="none" stroke="#5F52CA" stroke-width=".5" stroke-miterlimit="10" d="M-212.9 416.7c-.2-.3-1.6-2.6-4.3-3-2.3-.3-4.7 1-5.9 3.3"/><path fill="#5F52CA" d="M-212.2 409.9l-12.9-2c-.4-.1-.7 0-1 .2l-4.9 4.2 6-1.5h1.1l12.5 2.2-.8-3.1z"/><path fill="none" stroke="#5F52CA" stroke-width=".5" stroke-miterlimit="10" d="M-224.5 416.7c.2-.3 2.6-4 6.8-4 3.6 0 5.8 3 6.3 3.7 2.6 3.6 4.1 8.9 1.3 13.8"/><path fill="none" stroke="#5F52CA" stroke-width=".5" stroke-miterlimit="10" d="M-214.3 416.4c-.6.3-1.9.9-3.6 1-1.9 0-3.3-.7-3.9-1"/><g fill="none" stroke="#5F52CA" stroke-width=".5" stroke-miterlimit="10"><path d="M-222 379.5v10.2M-220.2 379.5v10.2M-207.5 379.6v10.1M-203.9 379.6v10.1M-205.7 379.5v10.2M-216.6 379.5v10.2M-214.8 379.5v10.2M-212.9 379.5v10.2M-211.1 379.5v10.2M-209.3 379.6v10.1M-218.4 379.5v10.2M-185.8 379.5v8.6M-187.6 379.5v7.9M-200.3 379.6v10.1M-202.1 379.5v10.2M-191.2 379.5v10.2M-193 379.5v10.2M-194.8 379.5v10.2M-196.6 379.5v10.2M-198.4 379.6v10.1M-189.4 379.5v10.2M-234.9 384.9v40.3M-232.9 382.5v21.8M-229.3 380.3v10.6M-227.4 379.7v9.5M-225.6 379.5v8.6M-223.8 379.5v7.9M-231.1 381.2v12.7M-176.5 384.9v40.3M-178.5 382.5v21.8M-182.1 380.3v10.6M-183.9 379.7v9.5M-180.3 381.2v12.7"/></g></svg>