<svg xmlns="http://www.w3.org/2000/svg" viewBox="-251 362.4 91.7 117.5"><path fill="#FFF" stroke="#5F52CA" stroke-width=".5" stroke-miterlimit="10" d="M-197.4 459.4c5.8 0 10.6-4.1 11.8-9.6.4-2.2 1.4-4.2 2.6-6.1l4.3-9.3c1.1-1.8 1.7-3.8 1.7-5.9v-12.3l1.6-2v-24.1c0-6.6-5.4-12-12-12h-33.5c-6.6 0-12 5.4-12 12v24.1l1.8 2.2v12.1c0 2.1.6 4.2 1.7 5.9l4.1 9.4c1.2 1.9 2.1 3.9 2.6 6.1 1.1 5.5 6 9.6 11.8 9.6h13.5z"/><path fill="none" stroke="#5F52CA" stroke-width=".5" stroke-miterlimit="10" d="M-175.4 414.1l-3.8 4.6v-19h-50v19l-3.7-4.6M-204.1 442.5l-1 .4-8.3-.3c-.5 0-1-.2-1.3-.5l-.7-.5 8.2-2.6 2.6 1.6c.3.2.7.2 1 0l2.6-1.6 8.2 2.6-.7.5c-.4.3-.8.5-1.3.5l-8.3.3-1-.4z"/><path fill="none" stroke="#5F52CA" stroke-width=".5" stroke-miterlimit="10" d="M-213.9 442.5c.9.5 2.3 2.6 3.6 3 2.5.8 9.9.8 12.4 0 1.3-.4 3-2.6 3.8-3.1M-211.7 417.5c-.3-.8-1.6-2.3-2.8-3-4-2.4-8.2 2.9-8.2 2.9.7.2 2.5 1.1 10 .3"/><path fill="none" stroke="#5F52CA" stroke-width=".5" stroke-linejoin="round" stroke-miterlimit="10" d="M-210.4 416.3c-.1-2.1-.8-3-1.3-3.4-2.1-1.8-11.1-.8-14.6.1l.9-1.4c.8-1.3 2.2-2.1 3.7-2.1h9.5c1 0 2 .5 2.6 1.2l1.7 2.1c.6.8 1 1.7 1 2.7v12c0 1 .8 1.8 1.8 1.8h1"/><ellipse fill="none" stroke="#5F52CA" stroke-width=".5" stroke-miterlimit="10" cx="-217.3" cy="415.9" rx="1.9" ry="2"/><path fill="none" stroke="#5F52CA" stroke-width=".5" stroke-linejoin="round" stroke-miterlimit="10" d="M-198.3 416.3c.1-2.1.8-3 1.3-3.4 2.1-1.8 11.1-.8 14.6.1l-.5-1.4c-.8-1.3-2.2-2.1-3.7-2.1h-9.4c-1 0-2 .5-2.6 1.2l-1.7 2.1c-.6.8-1 1.7-1 2.7v12c0 1-.8 1.8-1.8 1.8h-1M-206.7 449.7c.2-.2 1.1-1 2.6-1 1.4 0 2.3.9 2.5 1M-211.9 418.9c-.9.5-3.2 1.5-6.3 1.1-2.3-.3-4-1.3-4.8-1.9"/><circle fill="#5F52CA" cx="-217.3" cy="415.9" r=".6"/><path fill="none" stroke="#5F52CA" stroke-width=".5" stroke-miterlimit="10" d="M-196.8 417.5c.3-.8 1.6-2.3 2.8-3 4-2.4 8.2 2.9 8.2 2.9-.7.2-2.5 1.1-10 .3"/><ellipse fill="none" stroke="#5F52CA" stroke-width=".5" stroke-miterlimit="10" cx="-191.1" cy="415.9" rx="1.9" ry="2"/><path fill="none" stroke="#5F52CA" stroke-width=".5" stroke-linejoin="round" stroke-miterlimit="10" d="M-196.5 418.9c.9.5 3.2 1.5 6.3 1.1 2.3-.3 4-1.3 4.8-1.9"/><circle fill="#5F52CA" cx="-191.1" cy="415.9" r=".6"/><path fill="none" stroke="#5F52CA" stroke-width=".5" stroke-miterlimit="10" d="M-225.5 379v20.8M-227.3 380v19.8M-229.2 381.4v18.4M-231 383.5v33M-223.7 378.4v21.4M-211 378.1v21.6M-207.4 378.1v21.6M-209.2 378.1v21.6M-220.1 378.1v21.7M-218.3 378.1v21.7M-216.5 378.1v21.6M-214.7 378.1v21.5M-212.8 378.1v21.5M-221.9 378.1v21.8M-200.2 378.1v21.6M-202 378.1v21.6M-203.8 378.1v21.6M-205.6 378.1v21.6M-198.3 378.1v21.6M-185.7 378.1v21.6M-182 379.3v20.4M-183.8 378.6v21.1M-194.7 378.1v21.6M-192.9 378.1v21.6M-191.1 378.1v21.5M-189.3 378.1v21.6M-187.5 378.1v21.6M-196.5 378.1v21.7M-198.3 410.4v5.3M-176.6 385v30.5M-178.4 382.2v35.6M-180.2 380.5v19.2M-196.5 409.7v2.9M-214.1 409.6v2.5M-212.3 409.6v3M-210.4 410.1v5.4M-194.6 409.7v2.4"/></svg>