<svg xmlns="http://www.w3.org/2000/svg" viewBox="-251 362.4 91.7 117.5"><path fill="#FFF" stroke="#5F52CA" stroke-width=".5" stroke-miterlimit="10" d="M-197.9 460.4c6.1 0 14.7-22.8 15.5-26.5 1.3-5.9 2.7-18.6 3.8-28.6.8-7.9 1.4-14.2 1.4-14.2 0-6.6-5-12-11.1-12h-35.4c-6.1 0-11.1 5.4-11.1 12 0 0 .6 6.1 1.4 13.9 1.1 10.3 2.6 23.6 4 29.7.8 3.5 9.4 25.6 15.5 25.6h16z"/><path fill="none" stroke="#5F52CA" stroke-width=".5" stroke-miterlimit="10" d="M-205.9 453.2v7.2M-179.7 415.7c4.1-1 5.2.5 5.4.7 2.7 2.8-.1 11.3-4.6 12.3-1 .2-1.8.1-2.6-.2M-232.1 415.6c-4.1-1-5 .5-5.3.8-2.7 2.8.1 11.3 4.6 12.3 1 .2 1.7.1 2.5-.2"/><path fill="none" stroke="#5F52CA" stroke-width=".5" stroke-linecap="round" stroke-linejoin="round" stroke-miterlimit="10" d="M-205.9 450.4c2.9 0 4.9-1.2 5.3-1.4M-203.8 417.9c0 1.5.3 3.4 1.5 4 1.1.5 2.4-.2 2.9-.4 2.1-1.1 6-1.8 13.9-.5M-208 417.9c0 1.5-.3 3.4-1.5 4-1.1.5-2.4-.2-2.9-.4-2.1-1.1-6-1.8-13.9-.5M-209.4 409.3h7.1M-211.7 447.4l3.4-1.6c.1 0 .2-.1.3-.1h1c.1 0 .2 0 .3.1l.9.5.9-.5c.1 0 .2-.1.3-.1h.9c.1 0 .2 0 .3.1l3.5 1.6M-205.9 450.4c-2.9 0-4.9-1.2-5.3-1.4M-205.9 441.9h1.5c.2 0 .4-.1.6-.2.8-.7 2.8-2.5 2.9-3.6.1-.8-1.3-2.9-1.3-2.9M-209.7 435.1s-1.4 2-1.3 2.9c.1 1.2 2.1 3 2.9 3.6.2.2.4.2.6.2h1.5V440"/><path fill="none" stroke="#5F52CA" stroke-width=".5" stroke-miterlimit="10" d="M-205.9 393.4c9.7 0 15.6-1.9 19.5-3.4 7.5 5.9 2.8 14.9 2.9 16.6.3 3.4 3.5 10.1 3.4 11.7M-205.9 393.4c-9.7 0-15.6-1.9-19.5-3.4-7.5 5.9-2.8 14.9-2.9 16.6-.3 3.4-3.5 10.1-3.4 11.6"/><path fill="none" stroke="#5F52CA" stroke-width=".5" stroke-linecap="round" stroke-linejoin="round" stroke-miterlimit="10" d="M-210.6 453.2h9.4"/><path fill="none" stroke="#5F52CA" stroke-width=".5" stroke-miterlimit="10" d="M-205.9 447.4h5.9l1.9-.7 1 1M-205.9 447.4h-5.9l-1.9-.7-1 1"/><path fill="none" stroke="#5F52CA" stroke-width=".5" stroke-linecap="round" stroke-linejoin="round" stroke-miterlimit="10" d="M-201.6 439.5l-1.9-5.6c-.2-.7-.4-1.5-.4-2.3v-9"/><g fill="none" stroke="#5F52CA" stroke-width=".5" stroke-miterlimit="10"><path d="M-233.1 385v21.6M-231.3 382.5v33.6M-225.8 379.4v10.9M-229.5 381v30M-227.7 380v12.3M-224 379.1v11.4M-222.2 379.1v12.2M-220.4 379.1v12.6M-215 379.1v13.6M-218.6 379.1v13M-216.8 379.1v13.6M-205.9 379.1v14.2M-207.7 379.1v14.2M-209.5 379.1v14.2M-211.3 379.1v14.1M-213.2 379.1V393M-204.1 379.1v14.2M-180.5 382.3v33.8M-178.7 384.9v21.8M-182.3 380.9V411M-184.2 380v12.3M-186 379.4v10.9M-191.4 379.1v12.5M-187.8 379.1v11.4M-189.6 379.1v12.1M-200.5 379.1v14.2M-198.7 379.1V393M-196.8 379.1v13.5M-195 379.1v13.4M-193.2 379.1v13M-202.3 379.1v14.4"/></g><path fill="none" stroke="#5F52CA" stroke-width=".5" stroke-linecap="round" stroke-linejoin="round" stroke-miterlimit="10" d="M-207.9 411.4h4"/><path fill="#5F52CA" d="M-189.1 416.7c-2.6 0-9.3.8-11 1.8-2.3 1.3-3.3 1.2-3.3 1.2h-5s-1 .1-3.3-1.2c-1.7-1-8.4-1.8-11-1.8-2.6 0-10.7.5-11.8.9l.2 3.5s1.6.4 2 2.9c.3 2 1.2 5.9 3.2 8.9.7 1 1.7 1.6 2.9 1.8 2.8.4 6.6.7 10.5-.2.7-.3 2.4-1 3.1-1.7 1.3-1.4 3.5-3.1 4.3-6.9 0 0 .3-2.8 2.5-2.8s2.5 2.8 2.5 2.8c.8 3.8 3 5.5 4.3 6.9.6.7 2.4 1.5 3 1.8 3.1.8 7.1.5 10.2.1 1.5-.2 2.8-1 3.5-2.3 1.8-3 2.6-6.5 2.9-8.4.3-2.4 2-2.9 2-2.9l.2-3.5c-1.2-.4-9.3-.9-11.9-.9z"/></svg>