<svg xmlns="http://www.w3.org/2000/svg" viewBox="-251 360.4 91.7 117.5"><path fill="#FFF" stroke="#5F52CA" stroke-width=".5" stroke-miterlimit="10" d="M-189.9 467.1c6.6 0 12-5.4 12-12l2.3-25.2v-32.1c0-6.6-5.4-12-12-12h-35.3c-6.6 0-12 5.4-12 12V430l2.4 25.2c0 6.6 5.4 12 12 12h30.6zM-194.8 385.8c.5-.5 4.2-4.6 3.3-9.6-1-5.3-6.9-5.5-13.6-5.5-7 0-12.6.3-13.6 5.5-.9 5 2.8 9.1 3.3 9.6h20.6z"/><path fill="none" stroke="#5F52CA" stroke-width=".5" stroke-miterlimit="10" d="M-234.8 417.6c0-19.8 10.7-27.1 29.6-27.1 19 0 29.6 7.3 29.6 27.1"/><path fill="#5F52CA" d="M-200.5 420v-3.2c1.5-1.1 17.5-3.5 21.3 2.8-5.8-3.9-14.1-1.9-21.3.4zM-209.9 420v-3.2c-1.5-1.1-17.5-3.5-21.3 2.8 5.8-3.9 14.1-1.9 21.3.4z"/><path fill="none" stroke="#5F52CA" stroke-width=".5" stroke-miterlimit="10" d="M-234.8 430.6c.7 1.6 2.4 5 6.2 7.7 2.8 2 5.5 2.8 7.2 3.1M-175.5 430.6c-.7 1.6-2.4 5-6.2 7.7-2.8 2-5.5 2.8-7.2 3.1M-197.2 426.3c.2-.5 1.4-3.2 4.3-4.1 2.9-1 6.3.2 8.4 3M-196.5 426.5c.7.4 3 1.6 6 1.1 2.5-.4 4.1-1.6 4.8-2.2"/><ellipse fill="none" stroke="#5F52CA" stroke-width=".5" stroke-miterlimit="10" cx="-191" cy="424.8" rx="2.7" ry="2.9"/><circle fill="#5F52CA" cx="-191" cy="424.8" r="1.2"/><path fill="none" stroke="#5F52CA" stroke-width=".5" stroke-miterlimit="10" d="M-198.1 425.4c1.6-2.9 4.6-4.8 7.8-4.8 4.5 0 7.1 3.4 7.3 3.8M-213 426.3c-.2-.5-1.4-3.2-4.3-4.1-2.9-1-6.3.2-8.4 3M-213.8 426.5c-.7.4-3 1.6-6 1.1-2.5-.4-4.1-1.6-4.8-2.2"/><ellipse fill="none" stroke="#5F52CA" stroke-width=".5" stroke-miterlimit="10" cx="-219.2" cy="424.8" rx="2.7" ry="2.9"/><circle fill="#5F52CA" cx="-219.2" cy="424.8" r="1.2"/><path fill="none" stroke="#5F52CA" stroke-width=".5" stroke-miterlimit="10" d="M-212.2 425.4c-1.6-2.9-4.6-4.8-7.8-4.8-4.5 0-7.1 3.4-7.3 3.8M-205.1 456c6.6 0 5.6-1.9 8.2-2.5M-215.5 451.5c3.5.8 5 0 6.1-.6 2.3-1.2 3.8-.4 4.3.6.6-1 2-1.8 4.3-.6 1.1.6 2.6 1.4 6.1.6"/><path fill="none" stroke="#5F52CA" stroke-width=".5" stroke-miterlimit="10" d="M-215.5 451.5c.6.5 1.9 1.1 3 1.2.5 0 .9-.1 1-.1.9-.2 2.6.6 6.4.6 3.8 0 5.5-.9 6.4-.6.1 0 .5.1 1 .1 1-.1 2.4-.7 3-1.1M-205.1 456c-6.6 0-5.9-1.8-8.2-2.5M-233.2 391.8v14.4M-231.4 389.5V402M-218.7 385.8v6.4M-215.1 371.9v19.4M-216.9 385.8v5.9M-227.8 386.9v10.4M-226 386.2v9.6M-224.2 385.8v8.8M-222.3 385.8v7.8M-220.5 385.8v7M-229.6 387.9v11.3M-211.5 371v19.8M-207.8 370.7v19.8M-209.7 370.8v19.9M-213.3 371.3V391M-191.5 385.8v6.4M-204.2 370.7v19.8M-206 370.7v19.8M-195.2 371.7v19.6M-197 371.3V391M-198.8 371v19.8M-200.6 370.8v19.9M-202.4 370.7v19.9M-193.3 385.8v5.9M-216.9 373v10.8M-193.3 372.9V384M-177 392.1v14.1M-178.8 389.5V402M-182.5 386.9v10.4M-184.3 386.2v9.6M-186.1 385.8v8.8M-187.9 385.8v7.8M-189.7 385.8v7M-180.7 387.9v11.3"/></svg>