<svg xmlns="http://www.w3.org/2000/svg" viewBox="-251 362.4 91.7 117.5"><path fill="none" stroke="#5F52CA" stroke-width=".5" stroke-miterlimit="10" d="M-202 471.5c4.3.3 8.4-6.3 13.2-11.7 3.3-3.7 4.2-8.1 5.4-12.8 2-7.8 3.3-23.5 3.3-23.5l-2.2-18.1c0-6.6-5-12-11.1-12H-217c-6.1 0-11.1 5.4-11.1 12l-1.9 18.1s1.6 15.7 3.4 23.7c1.1 4.7 1.9 9.1 5.1 12.8 4.2 4.9 8.9 11.7 13.8 11.4 1.9.1 3.8.1 5.7.1z"/><path fill="#5F52CA" d="M-210.8 416.9c-.1-.5-.6-.8-1.1-.8l-9.9.4c-1 0-1.9.5-2.4 1.3l-2.3 3.7c-.1.1.1.3.2.2l4.6-2.2c.4-.2.8-.3 1.3-.3h9.5c.5 0 .8-.4.6-.9l-.5-1.4z"/><path fill="none" stroke="#5F52CA" stroke-width=".5" stroke-miterlimit="10" d="M-211.2 424.6c-.3-.5-1.4-3.4-3.8-3.1-3 .4-5.6.6-7.3 3.4"/><path fill="none" stroke="#5F52CA" stroke-width=".5" stroke-miterlimit="10" d="M-211.2 423.7c-.2-1.5-1.3-2.7-2.7-3-1.4-.3-5 1.5-5.2 1.7"/><ellipse fill="#5F52CA" cx="-216.2" cy="423.4" rx="2.2" ry="2.1"/><path fill="none" stroke="#5F52CA" stroke-width=".5" stroke-miterlimit="10" d="M-220.8 424.3c.9.4 2.6.9 4.8 1 2 0 3.7-.8 4.6-1.2M-221.4 425.3c.5.4 2.2 1.7 4.7 1.8 2.2.1 3.8-.9 4.3-1.3M-208.6 439.3c.1.2 1.3 1.8 3.4 1.8 1.8 0 3-1.2 3.2-1.4"/><path fill="none" stroke="#5F52CA" stroke-width=".5" stroke-miterlimit="10" d="M-229.7 427.1l-5.6-36.4 23.8-20.4-3 7.4 3-3.1v1.3l22.3 2.6.3 2.6 1.1-1.8 16.5 10.3 2.7 6.8-6.8-3.8 4.3 4.2-4.7-2.3s1.9 2.8 1.8 2.6c-.1-.2.9 11 .9 11l-7.4 21.8"/><path fill="#5F52CA" d="M-199.5 416.9c.1-.5.6-.8 1.1-.8l9.9.4c1 0 1.9.5 2.4 1.3l2.3 3.7c.1.1-.1.3-.2.2l-4.6-2.2c-.4-.2-.8-.3-1.3-.3h-9.5c-.5 0-.8-.4-.6-.9l.5-1.4z"/><path fill="none" stroke="#5F52CA" stroke-width=".5" stroke-miterlimit="10" d="M-199.2 424.6c.3-.5 1.4-3.4 3.8-3.1 3 .4 5.6.6 7.3 3.4"/><path fill="none" stroke="#5F52CA" stroke-width=".5" stroke-miterlimit="10" d="M-199.2 423.7c.2-1.5 1.3-2.7 2.7-3 1.4-.3 5 1.5 5.2 1.7"/><ellipse fill="#5F52CA" cx="-194.1" cy="423.4" rx="2.2" ry="2.1"/><path fill="none" stroke="#5F52CA" stroke-width=".5" stroke-miterlimit="10" d="M-189.5 424.3c-.9.4-2.6.9-4.8 1-2 0-3.7-.8-4.6-1.2M-189 425.3c-.5.4-2.2 1.7-4.7 1.8-2.2.1-3.8-.9-4.3-1.3M-199.7 438.9c.7 1.4.6 2 .3 2.3-.6.7-2-.2-3.1.7-.7.6-.6 1.4-1.6 1.9-.4.2-.9.3-1.2.4-.2 0-.8-.2-1.1-.4-1-.5-.9-1.3-1.6-1.9-1.1-.9-2.5 0-3.1-.7-.2-.3-.3-.9.3-2.3"/><path fill="none" stroke="#5F52CA" stroke-width=".5" stroke-linejoin="round" stroke-miterlimit="10" d="M-205.2 453.5c1.5 0 3.4.3 5.9-.8 2.5-1.1 4.6-3.3 5.2-4.1-.7.3-2.4 1.1-3.5 1.3-1.9.3-3.5.2-4.6 0l-.4.9h-2.7 0-2.7l-.4-.9c-1.1.2-2.7.3-4.6 0-1.1-.2-2.7-.9-3.5-1.3.5.8 2.6 3 5.2 4.1 2.8 1.1 4.7.8 6.1.8"/><path fill="none" stroke="#5F52CA" stroke-width=".5" stroke-linejoin="round" stroke-miterlimit="10" d="M-195 449c-3-.4-5.8-1.6-7.1-.9-.3.2-.5.8-1.1 1-.7.3-3.2.3-3.9 0-.6-.2-.8-.8-1.1-1-1.3-.8-4.1.5-7.1.9M-193 444c3.6 0 1.8 8.4 1.8 8.4M-217.3 444c-3.6 0-1.8 8.4-1.8 8.4"/><path fill="none" stroke="#5F52CA" stroke-width=".5" stroke-miterlimit="10" d="M-224.2 381.2v15.1M-222.4 379.6V395M-209.7 376.1v17.4M-206.1 376.6v16.9M-207.9 376.3v17.2M-218.8 376.5v17M-217 374.9v18.6M-215.1 373.4v20.1M-213.3 376.5v17M-211.5 375.9v17.6M-220.6 378v16.1M-188 379.2v15.7M-189.8 378.4v15.7M-202.5 377v16.5M-204.3 376.8v16.7M-193.4 378v15.5M-195.2 377.8v15.7M-197 377.6v15.9M-198.8 377.4v16.1M-200.6 377.2v16.3M-191.6 378.2v15.4M-226 382.7v15.8M-227.8 384.2v18.6M-180.7 383.7v33.7M-182.5 382.6v19.8M-184.3 381.5v16.9M-186.1 380.4v15.8M-178.9 384.9v39.8M-231.5 387.4V415M-229.7 385.8v34.8M-233.3 389v14.6M-171.6 389.4v5.2M-173.5 394.6v1M-173.5 388.2v5.4M-175.3 387.1V414M-177.1 386v33.3M-169.8 393.6v2M-207.4 458.7h4.5"/><path fill="none" stroke="#5F52CA" stroke-width=".5" stroke-linejoin="round" stroke-miterlimit="10" d="M-178.7 424.1c.8-.6 2.2-1.4 2.9-1 .6.4.6 1.7-.3 4.7-1.8 6.4-2.7 10.4-4.5 10.5-.5 0-.9-.9-.8-1.5M-230.1 424.4c-.8-.6-3.2-1.7-3.8-1.3-.6.4-.6 1.7.3 4.7 1.8 6.4 2.7 10.4 4.5 10.5.5 0 .9-.8.8-1.4"/><path fill="none" stroke="#5F52CA" stroke-width=".5" stroke-miterlimit="10" d="M-213.3 371.8v2.9"/></svg>