<svg xmlns="http://www.w3.org/2000/svg" viewBox="-251 363.4 91.7 117.5"><path fill="#FFF" stroke="#5F52CA" stroke-width=".5" stroke-linecap="round" stroke-miterlimit="10" d="M-237.9 422.9c-1.6 3.3-1.9 6.4-1.5 7.9.8 2.9 2.9 3.4 3.3 6.8.2 1.4-.1 2.5.8 3.8.2.4 1.2 1.8 2.3 1.7.9-.1 1.1-.3 1.2-1.5M-169.7 423.6c1.6 3.3 1.9 5.7 1.5 7.2-.8 2.9-2.9 3.4-3.3 6.8-.2 1.4.1 2.5-.8 3.8-.2.4-1.2 1.8-2.3 1.7-.9-.1-1.1-.3-1.2-1.5"/><path fill="#FFF" stroke="#5F52CA" stroke-width=".5" stroke-miterlimit="10" d="M-232.2 410.9c-.3 2.2-.7 6.1-1.1 10.1-.4 3.9-.7 8-1.4 8s-.7-1.6-4-7.5c-.6-1.1-1.1-.6-1.5-1.2-1.4-2.2 1.4-5.1 1.8-9.9.1-1.9-.1-4.8-.3-5.8"/><path fill="#FFF" stroke="#5F52CA" stroke-width=".5" stroke-miterlimit="10" d="M-234.3 428.6c1.6 20.4 15.7 44.4 20.1 44.4h20c5.3 0 16.1-18.8 21.2-41.6M-185 391.7c10.5 7.9 5.8 18.5 6.6 26.4.3 3.4 1.5 7.6 5.4 13.3l3.7-8.6c-4.7-14.2-4.7-20.5-3.7-23.7.1-.3.5-1.4.6-3 .2-3.5-1.3-7.5-4.3-9.5-1.8-1.2-3.6-1.3-4.2-1.4-9-.8-17.8-10.4-28.8-13.1-8.6-2.2-22.2-1.1-28.8 7.9-5.1 7-4.4 16.8-1.3 23.1.5 1 4.2 8.3 8.3 7.9 3.5-.4 4-6 8.6-11.1 4.6-5.2 10.9-7.2 16-8.1"/><path fill="none" stroke="#5F52CA" stroke-width=".5" stroke-miterlimit="10" d="M-185 391.7h-21.8"/><path fill="#5F52CA" d="M-208 418.7c.1-.6-6.3-3.8-13.1-2.2-4.9 1.2-8.6 4.4-8.4 5 .2.5 3.6-1.5 9.5-2.5 7.3-1.2 10.7 5.5 12-.3zM-200.4 418.7c-.1-.6 6.3-3.8 13.1-2.2 4.9 1.2 8.6 4.4 8.4 5-.2.5-3.6-1.5-9.5-2.5-7.3-1.2-10.7 5.5-12-.3zM-220.4 423.7c-.1.3-.2.6-.2.9 0 1.3 1.1 2.4 2.4 2.4s2.4-1.1 2.4-2.4c0-.3 0-.5-.1-.8l-.3-.5-2.1-.3-1.9.4-.2.3z"/><path fill="none" stroke="#5F52CA" stroke-width=".5" stroke-miterlimit="10" d="M-212.2 426.1c-.2-.3-2-3-5.3-3.2-2.8-.2-5.4 1.5-6.7 4.2"/><path fill="#5F52CA" d="M-188.2 423.7c.1.3.2.6.2.9 0 1.3-1.1 2.4-2.4 2.4s-2.4-1.1-2.4-2.4c0-.3 0-.5.1-.8l.3-.5 2.1-.3 1.9.4.2.3z"/><path fill="none" stroke="#5F52CA" stroke-width=".5" stroke-miterlimit="10" d="M-196.4 426.1c.2-.3 2-3 5.3-3.2 2.8-.2 5.4 1.5 6.7 4.2"/><path fill="none" stroke="#5F52CA" stroke-width=".5" stroke-linecap="round" stroke-miterlimit="10" d="M-204.2 468.2v-3.4M-206.7 462.2c.1-.1 1-1.2 2.5-1.1 1.3.1 2 1 2.1 1.2M-213.6 453.9c5.3 5.6 15.6 3.8 18.8 0M-204.2 453.9h9.8"/><path fill="none" stroke="#5F52CA" stroke-width=".5" stroke-linecap="round" stroke-miterlimit="10" d="M-204.2 452.3l1.6-.9c.2-.1.4-.1.6 0l5.4 2.5M-195 452.7l1.1 2.2M-204.2 453.9h-9.7M-204.2 452.3l-1.6-.9c-.2-.1-.4-.1-.6 0l-5.4 2.5M-213.4 452.7l-1.1 2.2M-207.4 424.6v5.7c0 .3 0 .6.1.9l.4 3c.2 1.9-.1 3.9-1.1 5.6-1.3 2.3-2.6 3.6-2.1 4.4.1.2.4.5.9.6.6.1 1-.3 1.4-.5.4-.2 1.4.7 2.5 1.5.7.5 1.7.5 2.4 0 1.2-.8 2.2-1.7 2.7-1.5.5.2.8.6 1.4.5.5-.1.8-.5.9-.6.5-.8-.7-2.1-2.1-4.4-1-1.7-1.3-3.6-1.1-5.6l.4-3c0-.3.1-.6.1-.9v-5.7"/><path fill="none" stroke="#5F52CA" stroke-width=".5" stroke-miterlimit="10" d="M-221.2 371.2v27.1M-219.4 371.1v25.7M-206.7 373v18.7M-203.1 374.5v17.2M-204.9 373.6v18.1M-215.8 371.1v23.5M-214 371.3v22.4M-212.2 371.5v21.6M-210.4 371.9v20.6M-208.5 372.4V392M-217.6 371.1v24.5M-185 384.3v7.3M-186.8 383.6v8M-199.5 376.4v15.2M-201.3 375.4v16.2M-190.4 381.8v9.8M-192.2 380.8v10.8M-194 379.7v11.9M-195.9 378.6v13M-197.7 377.5v14.1M-188.6 382.7v8.9M-223 371.5v28.6M-224.9 371.8v30.8M-237.5 378.9v44.7M-239.4 414.6v6.3M-228.5 372.8v35.9M-230.3 373.6v37M-232.1 374.4v36.5M-233.9 375.6v50.6M-235.7 377v50.5M-226.7 372.3v33.3M-239.4 381.4v22.2M-241.2 385.6V399M-174.1 389.3v40.3M-177.7 386v35.4M-179.5 385.4v12.8M-181.4 385.1v10.1M-183.2 384.8v8.4M-175.9 387.2v39.2M-172.3 412v17.8M-170.5 418.8v6.8M-186.8 383.6v8M-190.4 381.8v9.8M-188.6 382.7v8.9"/></svg>