<svg xmlns="http://www.w3.org/2000/svg" viewBox="-251 362.4 91.7 117.5"><path fill="#FFF" stroke="#5F52CA" stroke-width=".5" stroke-miterlimit="10" d="M-176.4 413.5c.8-1.1 1.7-2.2 2.6-2.1 1.6.2 2.7 4.9 2.4 8.8-.3 4.3-2.4 9-4 8.9-.6 0-1.7-.7-2.3-3.2M-231.5 413.5c-.8-1.1-1.7-2.2-2.6-2.1-1.6.2-2.7 4.9-2.4 8.8.3 4.3 2.4 9 4 8.9.6 0 1.7-.7 2.3-3.2"/><path fill="#FFF" stroke="#5F52CA" stroke-width=".5" stroke-miterlimit="10" d="M-198.1 460.9c11.8 0 21.2-33.5 21.2-40.7v-6l1.5-2c-.5-9.2-2.7-20.7-2.7-20.7 0-6.6-5-12-11.1-12h-29.5c-6.1 0-11.1 5.4-11.1 12 0 0-2.2 11.6-2.7 20.7l1.5 2v5.9c0 7.2 7 40.7 21.2 40.7 7.5.1 4.3.1 11.7.1z"/><path fill="#5F52CA" d="M-191.2 415.1c.1.2.2.5.2.7.1 1.1-.8 2.1-1.9 2.1s-2.1-.8-2.1-1.9c0-.2 0-.5.1-.7l.2-.2 1.8-.3 1.7.3z"/><path fill="none" stroke="#5F52CA" stroke-width=".5" stroke-miterlimit="10" d="M-198 417.5c.2-.3 1.6-2.2 4.4-2.5 2.3-.3 4.6.6 5.8 2.8"/><path fill="none" stroke="#5F52CA" stroke-width=".5" stroke-miterlimit="10" d="M-196.6 417.2c.6.3 1.9.9 3.6 1 1.9 0 3.3-.7 3.9-1M-232.5 412.3l3.1 4c-.3-2.2-.6-5.7.4-9.9 1.1-4.6 2.1-7.9 3.4-9.8 0-1.3 1-5.5 3.9-7.8 3-2.5 7.5-1.5 11.2-.6 2.8.6 5 .5 6.5 1.3 1.5-.8 3.7-.6 6.5-1.3 3.7-.8 8.1-1.8 11.2.6 2.9 2.3 4 6.5 3.9 7.8 1.3 1.8 2.4 5.2 3.4 9.8 1 4.2.7 7.7.4 9.9l3.1-4"/><path fill="none" stroke="#5F52CA" stroke-width=".5" stroke-miterlimit="10" d="M-187.9 416.5c-.1-.3-1.5-2.7-4.5-3.1-3.3-.4-5.4 2.1-5.6 2.3-1.2 1.5-1.3 3-1.4 3.7M-196.2 418.7c.5.3 1.9 1.3 4 1.3 1.7 0 2.9-.8 3.4-1.1"/><path fill="#5F52CA" d="M-216.8 415.1c-.1.2-.2.5-.2.7-.1 1.1.8 2.1 1.9 2.1 1.1.1 2.1-.8 2.1-1.9 0-.2 0-.5-.1-.7l-.2-.2-1.8-.3-1.7.3z"/><path fill="none" stroke="#5F52CA" stroke-width=".5" stroke-miterlimit="10" d="M-209.9 417.5c-.2-.3-1.6-2.2-4.4-2.5-2.3-.3-4.6.6-5.8 2.8"/><path fill="none" stroke="#5F52CA" stroke-width=".5" stroke-miterlimit="10" d="M-211.3 417.2c-.6.3-1.9.9-3.6 1-1.9 0-3.3-.7-3.9-1"/><path fill="none" stroke="#5F52CA" stroke-width=".5" stroke-miterlimit="10" d="M-220 416.5c.1-.3 1.5-2.7 4.5-3.1 3.3-.4 5.4 2.1 5.6 2.3 1.2 1.5 1.3 3 1.4 3.7M-211.8 418.7c-.5.3-1.9 1.3-4 1.3-1.7 0-2.9-.8-3.4-1.1M-207.6 450.2h7.3M-211.4 444.3c.3-.2 4.3-.6 5.1-.7.9 0 1.6.3 2 .5.2.1.4.1.6 0 .4-.2 1.1-.5 2-.5.8 0 4.9.5 5.1.7"/><path fill="none" stroke="#5F52CA" stroke-width=".5" stroke-miterlimit="10" d="M-212.5 444.2c1.9.1 4.1.5 6.4 1.1.6.2 1.2.3 1.8.5.3.1.5.1.8 0 .6-.2 1.1-.3 1.7-.5 2.3-.6 4.5-.9 6.4-1.1"/><path fill="none" stroke="#5F52CA" stroke-width=".5" stroke-miterlimit="10" d="M-196.6 444.3c-.6.6-1.2 1.8-2.5 2.4-1.1.6-3.8 2-6.9 1.3-2-.5-3.4-1.7-4.2-2.5"/><circle fill="#5F52CA" cx="-195.9" cy="442.2" r=".5"/><circle fill="#5F52CA" cx="-198.1" cy="439.2" r=".5"/><circle fill="#5F52CA" cx="-202.1" cy="439.2" r=".5"/><circle fill="#5F52CA" cx="-206" cy="439.2" r=".5"/><circle fill="#5F52CA" cx="-200" cy="442.1" r=".5"/><circle fill="#5F52CA" cx="-203.9" cy="442.1" r=".5"/><circle fill="#5F52CA" cx="-208" cy="442.1" r=".5"/><circle fill="#5F52CA" cx="-211.7" cy="442.1" r=".5"/><circle fill="#5F52CA" cx="-209.9" cy="439.2" r=".5"/><circle fill="#5F52CA" cx="-209.9" cy="459.3" r=".5"/><circle fill="#5F52CA" cx="-205.9" cy="459.3" r=".5"/><circle fill="#5F52CA" cx="-202" cy="459.3" r=".5"/><circle fill="#5F52CA" cx="-200.1" cy="456.5" r=".5"/><circle fill="#5F52CA" cx="-196" cy="456.5" r=".5"/><circle fill="#5F52CA" cx="-204" cy="456.5" r=".5"/><circle fill="#5F52CA" cx="-209.4" cy="453.5" r=".5"/><circle fill="#5F52CA" cx="-205.5" cy="453.5" r=".5"/><circle fill="#5F52CA" cx="-204" cy="450.7" r=".5"/><circle fill="#5F52CA" cx="-202" cy="453.5" r=".5"/><circle fill="#5F52CA" cx="-198.1" cy="453.5" r=".5"/><circle fill="#5F52CA" cx="-211.9" cy="456.5" r=".5"/><circle fill="#5F52CA" cx="-207.9" cy="456.5" r=".5"/><circle fill="#5F52CA" cx="-198.1" cy="459.3" r=".5"/><path fill="none" stroke="#5F52CA" stroke-width=".5" stroke-miterlimit="10" d="M-208.5 437h9.1c.1-.3.4-1.2 0-2.3-.3-.9-1-1.4-1.2-1.6M-199.9 411.1c.1-.5.4-.9.9-.9l9.8-1.3c1-.1 1.9.2 2.6.9l5 4.9c.1.1 0 .3-.2.2l-6.9-3.1c-.4-.1-.9-.2-1.3-.1l-9.4 1.6c-.4.1-.8-.3-.8-.8l.3-1.4zM-208.1 411.1c-.1-.5-.4-.9-.9-.9l-9.8-1.3c-1-.1-1.9.2-2.6.9l-5 4.9c-.1.1 0 .3.2.2l6.9-3.1c.4-.1.9-.2 1.3-.1l9.4 1.6c.4.1.8-.3.8-.8l-.3-1.4zM-222.1 380.1v9.1M-220.3 379.7v8.3M-207.6 379.6v9.1M-203.9 379.6v9.9M-205.8 379.6v9.4M-216.6 379.6v7.7M-214.8 379.6v7.8M-213 379.5v8.2M-211.2 379.5v8.6M-209.4 379.7v8.6M-218.4 379.5v8M-185.8 380.1v9.2M-187.6 379.7v8.4M-200.3 379.6v9.1M-202.1 379.6v9.4M-191.3 379.6v7.7M-193.1 379.6v7.8M-194.9 379.6v8.1M-196.7 379.6v8.7M-198.5 379.7v8.6M-189.4 379.6v7.9M-223.9 380.9v10.7M-225.7 382.3v14.6M-178.6 388.3v20M-180.4 384.3v16.8M-182.2 382.4v14.5M-184 381.1v10.5M-176.8 400v14M-229.4 388.3v20M-227.6 384.3v16.8"/></svg>