<svg xmlns="http://www.w3.org/2000/svg" viewBox="0 0 91.7 117.5"><path fill="#FFF" stroke="#5F52CA" stroke-width=".5" stroke-miterlimit="10" d="M58.7 32.2h3.8c6.6 0 12 5.4 12 12l-6.1 57.3c0 6.6-5.4 12-12 12H37.8c-6.6 0-12-5.4-12-12l-6.1-57.3c0-6.6 5.4-12 12-12h3.5"/><path fill="#FFF" stroke="#5F52CA" stroke-width=".5" stroke-miterlimit="10" d="M49.1 6.2h1.8v32.5h-1.8z"/><path fill="#FFF" stroke="#5F52CA" stroke-width=".50001" stroke-miterlimit="10" d="M56.646 11.3l1.686.63L46.95 42.373l-1.686-.63z"/><path fill="#FFF" stroke="#5F52CA" stroke-width=".50001" stroke-miterlimit="10" d="M37.477 7.256l1.714-.548 9.9 30.956-1.715.548z"/><path fill="#FFF" stroke="#5F52CA" stroke-width=".5" stroke-miterlimit="10" d="M42.4 7.6h1.8v32.5h-1.8z"/><path fill="none" stroke="#5F52CA" stroke-width=".5" stroke-miterlimit="10" d="M44.589 28.163l1.734.482-8.7 31.313-1.735-.481z"/><path fill="#FFF" stroke="#5F52CA" stroke-width=".500005" stroke-miterlimit="10" d="M43.954 11.485l1.782-.25 4.495 32.189-1.783.249z"/><path fill="#FFF" stroke="#5F52CA" stroke-width=".5" stroke-miterlimit="10" d="M45.7 2.8h1.8v32.5h-1.8zM60.77 18.572l1.73.5-6.08 21.039-1.729-.5z"/><path fill="#FFF" stroke="#5F52CA" stroke-width=".50001" stroke-miterlimit="10" d="M32.81 19.455l1.77-.33 4.013 21.53-1.77.33z"/><path fill="#FFF" stroke="#5F52CA" stroke-width=".500005" stroke-miterlimit="10" d="M36.754 16.404l1.8-.008.093 21.9-1.8.008z"/><path fill="#FFF" stroke="#5F52CA" stroke-width=".49998" stroke-miterlimit="10" d="M52.9 16.418l1.8-.033.396 21.896-1.8.032z"/><path fill="#FFF" stroke="#5F52CA" stroke-width=".5" stroke-miterlimit="10" d="M54.4 17.309l1.793-.149 1.805 21.826-1.794.148zM39.168 16.903l1.8-.006.065 21.9-1.8.006z"/><path fill="none" stroke="#5F52CA" stroke-width=".5" stroke-miterlimit="10" d="M54.7 59.6h14.8M25.4 59.6h14.8M36.2 96.9h25.9c-1.1 1.4-2.8 3.2-5.3 4.5-7.3 3.9-15.1.5-16.3 0"/><path fill="#5F52CA" d="M62 61.5c-2.3 0-8.2.7-9.8 1.6-2 1.2-2.9 1.1-2.9 1.1h-4.4s-.9.1-2.9-1.1c-1.5-.9-7.5-1.6-9.8-1.6-2.3 0-11.6.4-12.5.8l.2 3.1s1.5.4 1.7 2.5c.3 2.1 1.4 8.4 4.1 10.2 2.5 1.6 7.1 2.8 12.6.4.6-.3 2.1-1.3 2.7-1.9 1.2-1.3 3.1-3.7 3.8-7.1 0 0 .2-2.5 2.2-2.5 1.9 0 2.2 2.5 2.2 2.5.7 3.4 2.6 5.8 3.8 7.1.6.6 2.1 1.6 2.7 1.9 5.6 2.4 10.2 1.2 12.6-.4 2.7-1.8 3.9-8.1 4.1-10.2.3-2.1 1.7-2.5 1.7-2.5l.2-3.1c-.7-.4-10-.8-12.3-.8z"/><path fill="none" stroke="#5F52CA" stroke-width=".5" stroke-miterlimit="10" d="M36.4 38.7c-1.5.2-6.2.8-9.7 4-4.6 4.2-5.9 10.2-6 11.4M57.8 38.7c1.5.2 6.2.8 9.7 4 4.6 4.2 5.9 10.2 6 11.4"/><path fill="#FFF" stroke="#5F52CA" stroke-width=".500005" stroke-miterlimit="10" d="M55.083 8.314l1.785.23-4.156 32.234-1.786-.23z"/></svg>