<svg xmlns="http://www.w3.org/2000/svg" viewBox="0 0 91.7 117.5"><path fill="#FFF" stroke="#5F52CA" stroke-width=".5" stroke-miterlimit="10" d="M75.2 27.5v17.1H58L45.8 20.2h17.1c7.3 0 13.3 5.4 13.3 12L60.8 89.5c0 6.6-6 12-13.3 12h-3.7c-7.3 0-13.3-5.4-13.3-12L15.4 32.2c0-6.6 6-12 13.3-12H45l3.5 7.2-9.7 17.2h-10l-11.5.2V26.3"/><path fill="none" stroke="#5F52CA" stroke-width=".5" stroke-miterlimit="10" d="M41.8 57.2H23.7c-.5 0-1-.5-1-1v-6.8c0-.5.4-1 1-1h18.1c.5 0 1 .5 1 1v6.8c0 .5-.5 1-1 1zM68 57.2H49.9c-.5 0-1-.5-1-1v-6.8c0-.5.5-1 1-1H68c.6 0 1 .5 1 1v6.8c0 .5-.5 1-1 1zM22.7 45.8h20.1v1.9H22.7zM48.9 45.8H69v1.9H48.9zM42.8 52.8h6.1M69 52.8h1.7M22.7 52.8h-1.9"/><path fill="none" stroke="#5F52CA" stroke-width=".448" stroke-miterlimit="10" d="M53.1 53.6l11.7.7c-1-1.7-3.3-2.9-5.9-2.9-2.3 0-4.7.7-5.8 2.2z"/><path fill="#5F52CA" d="M59.9 54.1l-1.8-.1c-.6-.1-1.1-.5-1-1l.1-.8c.1-.5.6-.9 1.3-.8l1.8.1c.6.1 1.1.5 1 1l-.1.8c-.1.5-.7.8-1.3.8z"/><path fill="none" stroke="#5F52CA" stroke-width=".448" stroke-miterlimit="10" d="M38.6 53.5l-11.7.7c1-1.7 3.3-2.9 5.9-2.9 2.3 0 4.7.7 5.8 2.2z"/><path fill="#5F52CA" d="M31.8 54l1.8-.1c.6-.1 1.1-.5 1-1l-.1-.9c-.1-.5-.6-.9-1.3-.8l-1.8.1c-.6.1-1.1.5-1 1l.1.8c.1.6.7.9 1.3.9z"/><path fill="none" stroke="#5F52CA" stroke-width=".448" stroke-miterlimit="10" d="M64.4 51.9c.9.3 1.3.8 1.5 1.2.2.5.1 1 .4 1.4.3.4 1 .5 1.5.5M26.9 51.9c-.9.3-1.3.8-1.5 1.2-.2.5-.1 1-.4 1.4-.3.4-1 .5-1.5.5"/><g fill="none" stroke="#5F52CA" stroke-width=".5" stroke-miterlimit="10"><path d="M49.9 28.2v-8M48 24.6v-4.4M46.2 31.1v-8.2M44.4 34.2v-14M39 44V20.2M42.6 37.5V20.2M40.8 40.8V20.2M31.7 44.5V20.2M33.5 44.5V20.2M35.4 44.5V20.2M37.2 44.5V20.2M58.9 44.5V20.2M57.1 42.8V20.2M55.3 39.3V20.2M53.5 35.5V20.2M51.7 31.9V20.2M64.4 44.6V20.2M62.5 44.5V20.2M60.7 44.5V20.2M22.7 44.5v-23M24.5 44.5V20.9M26.3 44.3V20.2M28.1 44.3V20.2M29.9 44.5V20.2M19 44.5V23.9M20.9 44.5V22.7M69.8 44.5V21.9M68 44.6V20.9M66.2 44.6V20.5M73.4 44.5V24.7M71.6 44.5V23.1"/></g><path fill="none" stroke="#5F52CA" stroke-width=".5" stroke-linejoin="round" stroke-miterlimit="10" d="M46.1 87.7c-1.4 0-5.4-.8-5.4-.8.4-.1 2.7-.7 3.4-.8.7-.2 1.3-.2 2 .5.7-.7 1.4-.7 2-.5.7.2 3 .7 3.4.8 0 0-4.1.8-5.4.8z"/><path fill="none" stroke="#5F52CA" stroke-width=".5" stroke-miterlimit="10" d="M40.5 86.9c.3.4.9 1.1 1.9 1.6 1.6.9 3.1.7 3.7.8.6 0 2.1.1 3.7-.8.9-.5 1.5-1.2 1.9-1.6"/><path fill="none" stroke="#5F52CA" stroke-width=".5" stroke-linejoin="round" stroke-miterlimit="10" d="M52.5 70.6c-.8.9-2.3 1.4-3.2 1.7-3.4 1.1-6.5.2-7.7-.3"/></svg>