<svg xmlns="http://www.w3.org/2000/svg" viewBox="-251 362.4 91.7 117.5"><path fill="#FFF" stroke="#5F52CA" stroke-width=".5" stroke-miterlimit="10" d="M-179.5 418.4c1.9-3.5 4.7-5.4 6-5 1.4.5 2.2 4.8.6 7.6-1.5 2.6-4.3 2.7-5.1 5.6-.3 1.1-.6 3.3-1.3 3.6-.7.3-.8-.1-1.4-.6M-231 418.5c-1.9-3.5-4.7-5.5-5.9-5.1-1.4.5-2.2 4.8-.6 7.6 1.5 2.6 4.3 2.7 5.1 5.6.3 1.1.6 3.3 1.3 3.6.7.3.8-.1 1.4-.6"/><path fill="#FFF" stroke="#5F52CA" stroke-width=".5" stroke-miterlimit="10" d="M-197.3 456c4.3-2 14.7-16 15.5-19.7 1.3-5.9 2.7-23.7 3.8-33.7.1-2.3-2.8-17.5-8.1-19.2-1.2-.4-2.4-.9-3.4-1.6-2.8-2-8.8-5.3-15.9-5.3-7.8 0-13.4 3.3-16.1 5.3-1 .7-2.1 1.2-3.2 1.6-5.2 1.8-8.2 17-8.1 19 1.1 10.3 2.6 28.7 4 34.8.8 3.5 10 16.2 15.5 18.8 4.4 2 12.5 1.7 16 0z"/><path fill="none" stroke="#5F52CA" stroke-width=".5" stroke-miterlimit="10" d="M-205.3 386.7v4.4M-187.1 388.9v2.1M-188.9 388.5v2.5M-201.6 386.7v4.3M-203.4 386.6v4.4M-192.6 387.6v3.4M-194.4 387.3v3.7M-196.2 387.1v3.9M-198 386.9v4.1M-199.8 386.8v4.2M-190.8 388v3"/><path fill="#5F52CA" d="M-200.3 409.6c.7-1 11.5-.7 14.3 0 1.9.5 3.6 1.7 3.5 2-.1.3-1.5-.3-3.5-.3-2.2-.1-2.9-.3-7.8.7-3.6.8-4.5 1.5-5.3 1-1.1-.8-1.8-2.6-1.2-3.4z"/><path fill="none" stroke="#5F52CA" stroke-width=".5" stroke-miterlimit="10" d="M-199.3 416.7c.5-.6.9-1.8 2.8-2.7 2.3-.3 5.4.8 7.3 2.8.4.4 1-.6 1.6-.6"/><path fill="#5F52CA" d="M-192.1 415.9c-.1.8-1 1.4-2.2 1.3-1.1-.1-1.9-.8-1.9-1.7 0-2.5 1-1.4 2.2-1.3 1.1.1 2 .9 1.9 1.7z"/><path fill="none" stroke="#5F52CA" stroke-width=".5" stroke-miterlimit="10" d="M-197.8 416.2s1.8.6 3.2 1c.8.2 2.3.6 4.2-.5M-197.9 418.2c.6.4 1.6 1 3.1 1.3 2.4.4 4.3-.4 5-.8M-215.1 437.3c1.4-.5 4.9-.2 7-.5.7.1 1.5.3 2.5.8.2.1.4.1.6 0 .9-.4 1.7-.5 2.3-.7 1.7.3 6.1-.1 7.5.4"/><path fill="none" stroke="#5F52CA" stroke-width=".5" stroke-miterlimit="10" d="M-217.3 437.1c.2-.4.6-.3.6-.3s3.6 1 7.4 1.8c1.2.2 2.5.3 3.9.2 1.4.1 2.7 0 3.9-.2 3.8-.8 7.4-1.8 7.4-1.8s.4-.1.7.3"/><path fill="none" stroke="#5F52CA" stroke-width=".5" stroke-miterlimit="10" d="M-215.6 437.1c1.2 1 4.2 4.4 10.3 4.5 6.2 0 9.2-3.5 10.4-4.5M-193.8 434.1s2-.5 1.8 2c-.1 2.2-2.1 3.6-2.4 3.8M-216.3 433.9s-2.5-.3-2.4 2.2c.1 2.2 2.1 3.6 2.4 3.8"/><path fill="#5F52CA" d="M-210.2 409.6c-.7-1-11.5-.7-14.3 0-1.9.5-3.6 1.7-3.5 2 .1.3 1.5-.3 3.5-.3 2.2-.1 2.9-.6 7.8.5 3.6.8 4.5 1.8 5.3 1.3 1.1-.9 1.8-2.7 1.2-3.5z"/><path fill="none" stroke="#5F52CA" stroke-width=".5" stroke-miterlimit="10" d="M-211.2 416.7c-.5-.6-.9-1.8-2.8-2.7-2.3-.3-5.4.8-7.3 2.8-.4.4-.9-.6-1.4-.6"/><path fill="#5F52CA" d="M-218.4 415.9c.1.8 1 1.4 2.2 1.3 1.1-.1 1.9-.8 1.9-1.7 0-2.5-1-1.4-2.2-1.3-1.1.1-2 .9-1.9 1.7z"/><path fill="none" stroke="#5F52CA" stroke-width=".5" stroke-miterlimit="10" d="M-212.7 416.2s-1.8.6-3.2 1c-.8.2-2.3.6-4.2-.5M-212.6 418.2c-.6.4-1.6 1-3.1 1.3-2.4.4-4.3-.4-5-.8M-223.4 388.9v2.1M-221.6 388.5v2.5M-208.9 386.7v4.3M-207.1 386.6v4.4M-217.9 387.6v3.4M-216.1 387.3v3.7M-214.3 387.1v3.9M-212.5 386.9v4.1M-210.7 386.8v4.2M-219.8 388v3M-216.7 449.8c2.2 4.3 6.7 6.9 11.5 6.9 4.7 0 9-2.7 11.3-6.9M-204.3 433.2c.6-.8 1.4-1.8 2.6-2 1.4-.3 2.4.6 2.9.3.4-.3.4-1.6-1.4-5.3M-185.7 392.3c.8.5 2.7 2 3.8 4.7 1.5 4-.2 7.5-.5 8.1l3 12.4M-200.3 413.8c-.2.1-1.8 1-2.1 2.8-.3 1.7.7 3.5 2.4 4.3M-206.1 433.2c-.6-.8-1.4-1.8-2.6-2-1.4-.3-2.4.6-2.9.3-.4-.3-.4-1.6 1.4-5.3M-210.2 413.8c.2.1 1.8 1 2.1 2.8.3 1.7-.7 3.5-2.4 4.3"/><circle fill="#5F52CA" cx="-203.4" cy="380.3" r=".5"/><circle fill="#5F52CA" cx="-201.5" cy="382.5" r=".5"/><circle fill="#5F52CA" cx="-199.7" cy="380.3" r=".5"/><circle fill="#5F52CA" cx="-198" cy="382.5" r=".5"/><circle fill="#5F52CA" cx="-194.3" cy="382.5" r=".5"/><circle fill="#5F52CA" cx="-205.2" cy="382.6" r=".5"/><circle fill="#5F52CA" cx="-207" cy="380.3" r=".5"/><circle fill="#5F52CA" cx="-208.9" cy="382.5" r=".5"/><circle fill="#5F52CA" cx="-210.8" cy="380.3" r=".5"/><circle fill="#5F52CA" cx="-212.5" cy="382.5" r=".5"/><circle fill="#5F52CA" cx="-216.2" cy="382.5" r=".5"/><path fill="none" stroke="#5F52CA" stroke-width=".5" stroke-miterlimit="10" d="M-224.8 392.3c-.8.5-2.7 2-3.8 4.7-1.5 4 .2 7.5.5 8.1l-3 12.4"/></svg>