<svg xmlns="http://www.w3.org/2000/svg" viewBox="-251 359.4 91.7 117.5"><path fill="#FFF" stroke="#5F52CA" stroke-width=".5" stroke-miterlimit="10" d="M-186.1 455.1c6.6 0 12-5.4 12-12V393c0-6.6-5.4-12-12-12l-1.1-1.9c-.6-1-1.6-1.6-2.7-1.6h-30.7c-1.2 0-2.2.6-2.8 1.7l-1 1.8c-6.6 0-12 1.9-12 8.5v53.6c0 6.6 5.4 12 12 12 0 0 8.3 3.3 11.2 3.7 3.9.6 11.9.6 15.8 0 2.9-.5 11.3-3.7 11.3-3.7z"/><circle fill="#5F52CA" cx="-191.9" cy="418.9" r="1.1"/><path fill="none" stroke="#5F52CA" stroke-width=".5" stroke-linejoin="round" stroke-miterlimit="10" d="M-203 439.8s-.2 2.3-2.2 2.3c-1.8 0-2.1-2.3-2.1-2.3"/><path fill="none" stroke="#5F52CA" stroke-width=".5" stroke-miterlimit="10" d="M-183.3 414.6h-16.3c-.6 0-1-.4-1-1v-.7c0-.6.4-1 1-1h16.3c.6 0 1 .4 1 1v.7c0 .5-.4 1-1 1zM-210.8 414.6h-16.3c-.6 0-1-.4-1-1v-.7c0-.6.4-1 1-1h16.3c.6 0 1 .4 1 1v.7c0 .5-.5 1-1 1z"/><path fill="#FFF" stroke="#5F52CA" stroke-width=".5" stroke-miterlimit="10" d="M-205.3 454.4c-10-.1-17.1-.5-21.1-2.6-7.1-3.7-7.1-23.7-7.1-23.7h-3.1c-.8 0-1.7-.3-2.3-.8-2.3-1.8-7-6.3-6.7-12.4 0-.7.1-1.4.3-2.3.2-.9 1.1-1.6 2-1.6h6.8M-205.3 454.4c10-.1 17.1-.5 21.1-2.6 7.1-3.7 7.1-23.7 7.1-23.7h3.1c.8 0 1.7-.3 2.3-.8 2.3-1.8 7-6.3 6.7-12.4 0-.7-.1-1.4-.3-2.3-.2-.9-1.1-1.6-2-1.6h-6.8"/><path fill="none" stroke="#5F52CA" stroke-width=".5" stroke-miterlimit="10" d="M-205.3 447h4.7c0 .3.3 4.1-4.8 4.1"/><path fill="none" stroke="#5F52CA" stroke-width=".5" stroke-miterlimit="10" d="M-205.2 447h-4.7c0 .3-.3 4.1 4.8 4.1M-203 436.8v4.3l9.3 3.3h4.3v-3zM-207.3 436.8v4.3l-9.2 3.3h-4.3v-3z"/><path fill="none" stroke="#5F52CA" stroke-width=".5" stroke-miterlimit="10" d="M-212.1 442.8c.9.5 3.6 2.1 6.9 2.1 2.9 0 6.1-1.5 7-2.1M-196.8 419.5c.2-.3 1.2-3.2 4.7-2.8 2.2.3 5.3 2 6.1 3.2"/><path fill="none" stroke="#5F52CA" stroke-width=".5" stroke-miterlimit="10" d="M-195.6 419.6c.4.3 2.2 1.5 4.6 1.1 2.1-.3 3.3-1.5 3.7-1.9M-195.8 416.4c.7-.4 1.9-.9 3.5-.9 3.1 0 5.2 2 5.7 2.4"/><path fill="none" stroke="#5F52CA" stroke-width=".5" stroke-miterlimit="10" d="M-189.8 418.8c0 1.1-.9 2.1-2.1 2.1s-2.1-.9-2.1-2.1.9-1.9 2.1-1.9 2.1.7 2.1 1.9zM-213.7 419.5c-.2-.3-1.2-3.2-4.7-2.8-2.2.3-5.3 2-6.1 3.2"/><path fill="none" stroke="#5F52CA" stroke-width=".5" stroke-miterlimit="10" d="M-215 419.6c-.4.3-2.2 1.5-4.6 1.1-2.1-.3-3.3-1.5-3.7-1.9M-214.7 416.4c-.7-.4-1.9-.9-3.5-.9-3.1 0-5.2 2-5.7 2.4"/><path fill="none" stroke="#5F52CA" stroke-width=".5" stroke-miterlimit="10" d="M-220.7 418.8c0 1.1.9 2.1 2.1 2.1s2.1-.9 2.1-2.1-.9-1.9-2.1-1.9-2.1.7-2.1 1.9z"/><circle fill="#5F52CA" cx="-218.6" cy="418.9" r="1.1"/><g fill="none" stroke="#5F52CA" stroke-width=".5" stroke-miterlimit="10"><path d="M-232.5 382.5v22.1M-230.7 381.8v5.8M-225.3 381v8.5M-228.9 381.3v7.1M-227.1 381.2v7.8M-223.5 379.1v10.7M-221.7 377.5V390M-219.8 377.5V390M-214.4 377.5v13.1M-218 377.5v13M-216.2 377.5v13M-205.3 377.5v13.1M-207.2 377.5v13.1M-209 377.5v13.1M-210.8 377.5v13.2M-212.6 377.5v13M-203.5 377.5v13.1M-180 382.6v5M-178.2 383.9v20.3M-181.8 381.7v6.7M-183.6 381.2v7.8M-185.4 381.2v8.2M-190.8 377.5V390M-187.2 378.9v10.9M-189 377.5V390M-199.9 377.5v13.1M-198.1 377.5v13.1M-196.3 377.5v13M-194.5 377.5v13M-192.7 377.5v13M-201.7 377.5v13.2"/></g><path fill="none" stroke="#5F52CA" stroke-width=".5" stroke-miterlimit="10" d="M-176.3 428.1v22M-176.3 386v22M-180 392.2v8.2M-230.7 391.6v9.3M-234.3 383.8v24.3M-234.3 428.1v21.6M-215.9 439.7v4.5M-219.5 440.9v3.5M-217.7 440.3v4.1M-214.1 439.1v4.4M-212.3 438.5v4.4M-210.4 437.9v4.4M-211.8 411.9v2.7M-208.6 437.2v4.4M-213.6 411.9v2.7M-202.6 447v3.6M-204.4 447v4.1M-206.3 447v4M-208.1 447v3.5M-232.5 438.9v13M-230.7 445.9v7.4M-225.3 452.3v2.8M-228.9 449.4v4.8M-227.1 451.3v3.5M-223.5 452.9v2.6M-221.7 453.3v2.8M-219.8 453.6v3.2M-214.4 454.2v4.3M-218 453.8v3.6M-216.2 454.2v3.8M-205.3 454.2v5.1M-207.2 454.2v5.1M-209 454.2v5M-210.8 454.2v4.9M-212.6 454.2v4.7M-203.5 454.2v5.1M-180 446.3v7.1M-178.2 439.9v12.2M-181.8 449.7v4.6M-183.6 451.5v3.3M-185.4 452.3v2.8M-190.8 453.6v3.2M-187.2 453v2.5M-189 453.4v2.8M-199.9 454.2v4.9M-198.1 454.2v4.7M-196.3 454.2v4.4M-194.5 454.2v3.8M-192.7 453.9v3.6M-201.7 454.2v5M-222.7 411.9v2.7M-226.3 411.9v2.7M-224.5 411.9v2.7M-220.8 411.9v2.7M-219 411.9v2.7M-217.2 411.9v2.7M-215.4 411.9v2.7M-194.5 439.7v4.5M-190.8 441v3.5M-192.7 440.3v4.2M-196.3 439.1v4.5M-198.1 438.5v4.4M-199.9 437.9v4.4M-201.7 437.3v4.3M-184.2 411.9v2.7M-186 411.9v2.7M-195.1 411.9v2.7M-198.7 411.9v2.7M-196.9 411.9v2.7M-193.3 411.9v2.7M-191.4 411.9v2.7M-189.6 411.9v2.7M-187.8 411.9v2.7"/><path fill="none" stroke="#5F52CA" stroke-width=".5" stroke-linejoin="round" stroke-miterlimit="10" d="M-210.3 432.2c.2.8.6 1.4.9 1.8 1.6 1.8 4.3 1 8 .5 1.2-.2 1-1.8.8-1.9"/><path fill="none" stroke="#5F52CA" stroke-width=".5" stroke-miterlimit="10" d="M-196 420.5c.1.1 1.1 2.4 3.7 2.8 1.8.2 3.6-.7 4.6-2.3M-214.6 420.5c-.1.1-1.1 2.4-3.7 2.8-1.8.2-3.6-.7-4.6-2.3"/><circle fill="none" stroke="#5F52CA" stroke-width=".5" stroke-miterlimit="10" cx="-185.4" cy="429.5" r="5.5"/><circle fill="none" stroke="#5F52CA" stroke-width=".5" stroke-miterlimit="10" cx="-225.3" cy="429.5" r="5.5"/><path fill="none" stroke="#5F52CA" stroke-width=".5" stroke-miterlimit="10" d="M-205.3 390.6c-11.6.1-21.5-.1-27.1-4 1.1 2.9 2.6 8.8 3.4 10.6l-7.5 15.3v15.6M-205.3 390.6c11.6.1 21.5-.1 27.1-4-1.1 2.9-2.6 8.8-3.4 10.6l7.5 15.3v15.6"/></svg>