<svg xmlns="http://www.w3.org/2000/svg" viewBox="-251 362.4 91.7 117.5"><path fill="#FFF" stroke="#5F52CA" stroke-width=".5" stroke-linejoin="round" stroke-miterlimit="10" d="M-174.2 412.1c.2 4.3 2.2 9.5 1.7 12.6-.3 1.8-2.7 3.7-4 3.3-1.1-.3-2-2.2-1.8-4.4M-233.4 412.1c-.2 4.3-2.2 9.5-1.7 12.6.3 1.8 2.7 3.7 4 3.3 1.1-.3 2-2.2 1.8-4.4"/><path fill="#FFF" stroke="#5F52CA" stroke-width=".5" stroke-linejoin="round" stroke-miterlimit="10" d="M-176.4 419.7c-1.3-4.1 0-4.9.8-6 .7-.9 1.8-1.6 1.6-2.5-.2-.7-1.1-1.2-1.8-1.1-1.6.3-1.9 4.4-1.9 4.9-.2 3.5 2.5 5.3 1.6 7.2-.4.8-1.1 2-1.7 2.2M-231.2 419.7c1.3-4.1 0-4.9-.8-6-.7-.9-1.8-1.6-1.6-2.5.2-.7 1.1-1.2 1.8-1.1 1.6.3 1.9 4.4 1.9 4.9.2 3.5-2.5 5.3-1.6 7.2.4.8 1.1 2 1.7 2.2M-197.8 460.8c5.3 0 18.9-14.7 18.9-22.5l.9-23.4v-3.8l-.7-19.6c0-6.6-4.8-12-10.6-12h-29.1c-5.8 0-10.6 5.4-10.6 12l-.6 21v2.5l1.1 23.1c0 8.6 13.4 22.7 18.7 22.7h12z"/><path fill="none" stroke="#5F52CA" stroke-width=".5" stroke-linejoin="round" stroke-miterlimit="10" d="M-229.6 414.9l2.2-8.4c0-.9.5-14 .7-15 1.3-4.9 6.9-6.3 8.5-7.2h28.6c1.5.9 7.6 2.5 8.8 7.5.3 1-.1 13.2-.1 14l2.9 9.1M-198.2 417.9c.1-.2 1.3-2.9 4-2.9 1.5 0 4.6 1.7 5.1 2.5"/><path fill="#5F52CA" d="M-192.1 415.3c.1.2.1.4.1.7 0 1-.8 1.8-1.8 1.9-1 0-1.8-.8-1.9-1.8 0-.2 0-.4.1-.6l.2-.1 1.7-.2 1.6.1z"/><path fill="none" stroke="#5F52CA" stroke-width=".5" stroke-linejoin="round" stroke-miterlimit="10" d="M-197.2 417.5c.8.3 2 .6 3.5.5 1.9-.1 3.3-.7 4.1-1.1M-198.3 418.6c.7.6 2.3 1.7 4.6 2 1.9.3 3.5 0 4.4-.3M-199.7 417.1c3-6.3 9.4-2 12.7.4"/><path fill="none" stroke="#5F52CA" stroke-width=".5" stroke-linejoin="round" stroke-miterlimit="10" d="M-184.9 413.8h-14c-.8 0-1.4-.6-1.4-1.4v-.2c0-.8.6-1.4 1.4-1.4h14c.8 0 1.4.6 1.4 1.4v.2c0 .8-.7 1.4-1.4 1.4zM-212.8 443.9c.3-.2 5.4-2.1 6.5-2 1.3.2 2.1.8 2.5 1.1.3-.3 1.2-1 2.5-1.1 1.1-.2 6.3 1.8 6.5 2"/><path fill="none" stroke="#5F52CA" stroke-width=".5" stroke-linejoin="round" stroke-miterlimit="10" d="M-213.3 443.6l.5.3h17.9l.6-.4M-209.9 445c.6.3 1.4.7 2.4 1 1.5.4 2.8.5 3.7.4.9 0 2.2 0 3.7-.4 1-.3 1.8-.6 2.4-1"/><circle fill="#5F52CA" cx="-193.7" cy="440.3" r=".5"/><circle fill="#5F52CA" cx="-195.8" cy="437.5" r=".5"/><circle fill="#5F52CA" cx="-197.7" cy="440.3" r=".5"/><circle fill="#5F52CA" cx="-199.9" cy="437.4" r=".5"/><circle fill="#5F52CA" cx="-203.8" cy="437.4" r=".5"/><circle fill="#5F52CA" cx="-207.7" cy="437.4" r=".5"/><circle fill="#5F52CA" cx="-201.8" cy="440.2" r=".5"/><circle fill="#5F52CA" cx="-205.7" cy="440.2" r=".5"/><circle fill="#5F52CA" cx="-209.8" cy="440.2" r=".5"/><circle fill="#5F52CA" cx="-213.5" cy="440.2" r=".5"/><circle fill="#5F52CA" cx="-211.7" cy="437.4" r=".5"/><circle fill="#5F52CA" cx="-203.9" cy="450.8" r=".5"/><circle fill="#5F52CA" cx="-205.9" cy="448" r=".5"/><circle fill="#5F52CA" cx="-202" cy="448" r=".5"/><circle fill="#5F52CA" cx="-189.6" cy="440.5" r=".5"/><circle fill="#5F52CA" cx="-191.6" cy="443.3" r=".5"/><circle fill="#5F52CA" cx="-217.6" cy="440.1" r=".5"/><circle fill="#5F52CA" cx="-215.5" cy="443.2" r=".5"/><circle fill="#5F52CA" cx="-215.5" cy="448.6" r=".5"/><circle fill="#5F52CA" cx="-217.4" cy="446" r=".5"/><circle fill="#5F52CA" cx="-191.6" cy="448.5" r=".5"/><circle fill="#5F52CA" cx="-189.6" cy="445.9" r=".5"/><circle fill="#5F52CA" cx="-197.8" cy="459.2" r=".5"/><circle fill="#5F52CA" cx="-199.9" cy="456.2" r=".5"/><circle fill="#5F52CA" cx="-203.9" cy="456.2" r=".5"/><circle fill="#5F52CA" cx="-207.8" cy="456.2" r=".5"/><circle fill="#5F52CA" cx="-201.9" cy="459.1" r=".5"/><circle fill="#5F52CA" cx="-205.8" cy="459.1" r=".5"/><circle fill="#5F52CA" cx="-209.8" cy="459.1" r=".5"/><circle fill="#5F52CA" cx="-191.6" cy="453.7" r=".5"/><circle fill="#5F52CA" cx="-189.6" cy="451.1" r=".5"/><circle fill="#5F52CA" cx="-215.5" cy="448.6" r=".5"/><circle fill="#5F52CA" cx="-215.5" cy="454.1" r=".5"/><circle fill="#5F52CA" cx="-217.4" cy="451.5" r=".5"/><circle fill="#5F52CA" cx="-212.3" cy="456.2" r=".5"/><circle fill="#5F52CA" cx="-195.7" cy="456.2" r=".5"/><path fill="none" stroke="#5F52CA" stroke-width=".5" stroke-linejoin="round" stroke-miterlimit="10" d="M-208.8 413.8h-14c-.8 0-1.4-.6-1.4-1.4v-.2c0-.8.6-1.4 1.4-1.4h14c.8 0 1.4.6 1.4 1.4v.2c0 .8-.6 1.4-1.4 1.4zM-209.6 417.9c-.1-.2-1.3-2.9-4-2.9-1.5 0-4.6 1.7-5.1 2.5"/><path fill="#5F52CA" d="M-215.6 415.3c-.1.2-.1.4-.1.7 0 1 .8 1.8 1.8 1.9 1 0 1.8-.8 1.9-1.8 0-.2 0-.4-.1-.6l-.2-.1-1.7-.2-1.6.1z"/><path fill="none" stroke="#5F52CA" stroke-width=".5" stroke-linejoin="round" stroke-miterlimit="10" d="M-210.6 417.5c-.8.3-2 .6-3.5.5-1.9-.1-3.3-.7-4.1-1.1M-209.5 418.6c-.7.6-2.3 1.7-4.6 2-1.9.3-3.5 0-4.4-.3M-208.1 417.1c-3-6.3-9.4-2-12.7.4M-205.9 413.8l4.4-7"/></svg>