<svg xmlns="http://www.w3.org/2000/svg" viewBox="-251 362.4 91.7 117.5"><path fill="#FFF" stroke="#5F52CA" stroke-width=".5" stroke-linecap="round" stroke-linejoin="round" stroke-miterlimit="10" d="M-182.1 426.2l4-33.2c0-6.6-5.4-12-12-12l1.4-6.1-33.3 6.1c-6.6 0-12 5.4-12 12l4 33.4s3.9 35.9 17.9 35.9h12.1c13.8 0 17.9-36.1 17.9-36.1z"/><path fill="none" stroke="#5F52CA" stroke-width=".5" stroke-linecap="round" stroke-linejoin="round" stroke-miterlimit="10" d="M-208.8 432.9c0 3.3 5.4 3.2 5.4 0"/><path fill="#5F52CA" d="M-202.6 416.5l9.9-1.2c.7-.1 1.4-.1 2.1.1l5.8 1.4v-1.4l-8.5-3.6-8 1.8-1.3 2.9z"/><path fill="none" stroke="#5F52CA" stroke-width=".5" stroke-linecap="round" stroke-linejoin="round" stroke-miterlimit="10" d="M-206.1 445.3l1.3-.6 4.6 2.2M-206.1 445.3l-1.4-.6-4.6 2.2M-231 418.7l4.1-21.6 40.7-8.9 5.8 23.2"/><path fill="#5F52CA" d="M-209.6 416.4l-9.9-1.2c-.7-.1-1.4-.1-2.1.1l-5.8 1.4v-1.4l8.5-3.6 8 1.8 1.3 2.9z"/><path fill="none" stroke="#5F52CA" stroke-width=".5" stroke-linecap="round" stroke-linejoin="round" stroke-miterlimit="10" d="M-206.1 447.6l3.8-.7 2.1.1M-206.1 447.6l-3.8-.7-2.2.1M-206.1 450.4c3.3 0 4.1-1.3 4.4-1.6M-206.1 450.4c-3.3 0-4.1-1.3-4.4-1.6"/><circle fill="#5F52CA" cx="-206.1" cy="439.6" r=".5"/><circle fill="#5F52CA" cx="-202.4" cy="439.6" r=".5"/><circle fill="#5F52CA" cx="-200.2" cy="442.5" r=".5"/><circle fill="#5F52CA" cx="-198.3" cy="445.5" r=".5"/><circle fill="#5F52CA" cx="-204.4" cy="442.5" r=".5"/><circle fill="#5F52CA" cx="-209.9" cy="439.6" r=".5"/><circle fill="#5F52CA" cx="-212" cy="442.5" r=".5"/><circle fill="#5F52CA" cx="-213.9" cy="445.5" r=".5"/><circle fill="#5F52CA" cx="-207.9" cy="442.5" r=".5"/><circle fill="#5F52CA" cx="-208" cy="452.5" r=".5"/><circle fill="#5F52CA" cx="-206.1" cy="454.7" r=".5"/><circle fill="#5F52CA" cx="-204.3" cy="452.5" r=".5"/><path fill="none" stroke="#5F52CA" stroke-width=".5" stroke-miterlimit="10" d="M-216.1 458.1v3M-214.3 458.8v3.1M-217.9 456.9v3.2M-212.5 459v3.4M-203.4 458v4.3M-205.2 456.5v5.8M-207 456.5v5.8M-208.9 458.2v4.1M-210.7 458.8v3.5M-201.6 458.8v3.5M-198 458.8v3.1M-196.2 458.3v2.9M-194.4 457.2v2.8M-199.8 459v3.3"/><path fill="none" stroke="#5F52CA" stroke-width=".5" stroke-linecap="round" stroke-linejoin="round" stroke-miterlimit="10" d="M-188.8 421.2c-.8-.6-3.1-2-5.2-2.2-3.9-.5-5.9 2.2-6.5 2.7l1.6.1c.8.4 3.1 1.5 6 .8 1.4-.3 2.9-1.3 3.5-1.8"/><path fill="none" stroke="#5F52CA" stroke-width=".5" stroke-linecap="round" stroke-linejoin="round" stroke-miterlimit="10" d="M-192.8 419.2c.1.3.2.6.2.9 0 1.3-1.1 2.4-2.4 2.4-1.3 0-2.4-1.1-2.4-2.4 0-.3 0-.5.1-.8"/><path fill="#5F52CA" d="M-193.5 419.4c.1.2.1.4.1.6 0 .9-.7 1.6-1.6 1.6s-1.6-.7-1.6-1.6c0-.2 0-.4.1-.5l.2-.3 1.4-.2 1.3.2.1.2z"/><path fill="none" stroke="#5F52CA" stroke-width=".5" stroke-linecap="round" stroke-linejoin="round" stroke-miterlimit="10" d="M-200.1 419.6c.8-.5 3-1.9 6.1-1.6 1.7.2 4.5 1.1 5.2 2.1M-223.4 421.2c.8-.6 3.1-2 5.2-2.2 3.9-.5 5.9 2.2 6.5 2.7l-1.6.1c-.8.4-3.1 1.5-6 .8-1.4-.3-2.9-1.3-3.5-1.8"/><path fill="none" stroke="#5F52CA" stroke-width=".5" stroke-linecap="round" stroke-linejoin="round" stroke-miterlimit="10" d="M-219.5 419.2c-.1.3-.2.6-.2.9 0 1.3 1.1 2.4 2.4 2.4 1.3 0 2.4-1.1 2.4-2.4 0-.3 0-.5-.1-.8"/><path fill="#5F52CA" d="M-218.7 419.4c-.1.2-.1.4-.1.6 0 .9.7 1.6 1.6 1.6s1.6-.7 1.6-1.6c0-.2 0-.4-.1-.5l-.2-.3-1.4-.2-1.3.2-.1.2z"/><path fill="none" stroke="#5F52CA" stroke-width=".5" stroke-linecap="round" stroke-linejoin="round" stroke-miterlimit="10" d="M-212.1 419.6c-.8-.5-3-1.9-6.1-1.6-1.7.2-4.5 1.1-5.2 2.1"/><g fill="none" stroke="#5F52CA" stroke-width=".5" stroke-miterlimit="10"><path d="M-232.4 386.7v21.1M-230.5 384.4v31.7M-225.1 381.3v15.4M-228.7 383v23.5M-226.9 382v15.3M-223.3 381v15.3M-221.5 380.8v15.1M-219.7 380.5v15M-214.2 379.5v14.8M-217.9 380.2v14.9M-216 379.8v15M-205.2 377.9v14.5M-207 378.2v14.6M-208.8 378.5v14.6M-210.6 378.8v14.8M-212.4 379.2v14.7M-203.4 377.6v14.3M-179.8 386.9v19.6M-181.6 384.6v21.9M-183.4 383.1v16.3M-185.2 382.1v10.1M-190.7 375.2v14M-187 381.4v7M-188.9 381v7.7M-199.7 376.9v14.2M-197.9 376.6v14.1M-196.1 376.3v14M-194.3 375.9V390M-192.5 375.6v14M-201.5 377.2v14.4"/></g></svg>