<svg xmlns="http://www.w3.org/2000/svg" viewBox="0 0 91.7 117.5"><path fill="#FFF" stroke="#5F52CA" stroke-width=".5" stroke-miterlimit="10" d="M56.5 99.1c6.1 0 11.1-5.4 11.1-12l7-57.3c0-6.6-5-12-11.1-12H28.2c-6.1 0-11.1 5.4-11.1 12l7 57.3c0 6.6 5 12 11.1 12h21.3z"/><circle fill="#5F52CA" cx="49.8" cy="27.9" r=".5"/><circle fill="#5F52CA" cx="53.8" cy="27.9" r=".5"/><circle fill="#5F52CA" cx="45.8" cy="27.9" r=".5"/><circle fill="#5F52CA" cx="36.4" cy="25" r=".5"/><circle fill="#5F52CA" cx="40.4" cy="25" r=".5"/><circle fill="#5F52CA" cx="44.3" cy="25" r=".5"/><circle fill="#5F52CA" cx="45.9" cy="22.1" r=".5"/><circle fill="#5F52CA" cx="49.9" cy="22.1" r=".5"/><circle fill="#5F52CA" cx="53.8" cy="22.1" r=".5"/><circle fill="#5F52CA" cx="41.9" cy="22.1" r=".5"/><circle fill="#5F52CA" cx="43.8" cy="19.3" r=".5"/><circle fill="#5F52CA" cx="47.9" cy="19.3" r=".5"/><circle fill="#5F52CA" cx="51.8" cy="19.3" r=".5"/><circle fill="#5F52CA" cx="39.9" cy="19.3" r=".5"/><circle fill="#5F52CA" cx="55.7" cy="19.3" r=".5"/><circle fill="#5F52CA" cx="59.7" cy="19.3" r=".5"/><circle fill="#5F52CA" cx="51.8" cy="19.3" r=".5"/><circle fill="#5F52CA" cx="32" cy="19.3" r=".5"/><circle fill="#5F52CA" cx="36" cy="19.3" r=".5"/><circle fill="#5F52CA" cx="39.9" cy="19.3" r=".5"/><circle fill="#5F52CA" cx="38" cy="22.1" r=".5"/><circle fill="#5F52CA" cx="57.8" cy="22.1" r=".5"/><circle fill="#5F52CA" cx="34" cy="22.1" r=".5"/><circle fill="#5F52CA" cx="47.9" cy="25" r=".5"/><circle fill="#5F52CA" cx="51.8" cy="25" r=".5"/><circle fill="#5F52CA" cx="55.8" cy="25" r=".5"/><circle fill="#5F52CA" cx="37.9" cy="27.9" r=".5"/><circle fill="#5F52CA" cx="41.9" cy="27.9" r=".5"/><path fill="none" stroke="#5F52CA" stroke-width=".5" stroke-miterlimit="10" d="M49.8 47c-.2-.5 5.1-3.3 11.1-2.6 4.3.5 7.8 2.6 7.7 3-.1.4-3.3-.8-8.4-1.1-6.5-.3-8.8 4.9-10.4.7zM64.3 54c-.4-1.9-3.9-2.6-6.8-3.1-1.6-.2-3.3.4-4.2 1.7-.6.8-.9 1.6-.9 1.9.8.5 2.6 1.5 5.2 1.5 3 0 5.1-1.3 5.8-1.8"/><path fill="none" stroke="#5F52CA" stroke-width=".5" stroke-miterlimit="10" d="M60.4 53.1c-.2 1-1.2 1.6-2.3 1.4-1.1-.2-1.8-1.1-1.6-2.1s-.2-1.7 2.2-1.2c2.1.3 1.9.9 1.7 1.9zM57.1 49.1c.6-.2 3.1-.8 5.8.6 1.9 1 2.9 2.5 3.2 3.2"/><path fill="#5F52CA" d="M49.4 73.7c-.3-.4-1.1-.4-1.8-.1-.7.3-1 .8-.7 1.2.3.4 1.1.4 1.8.1.7-.3 1-.9.7-1.2zM42.3 73.7c.3-.4 1.1-.4 1.8-.1.7.3 1 .8.7 1.2-.3.4-1.1.4-1.8.1-.7-.3-1-.9-.7-1.2z"/><path fill="none" stroke="#5F52CA" stroke-width=".5" stroke-miterlimit="10" d="M27.4 54c.4-1.9 3.9-2.6 6.8-3.1 1.6-.2 3.3.4 4.2 1.7.6.8.9 1.6.9 1.9-.8.5-2.7 1.5-5.2 1.5-3 0-5.1-1.3-5.8-1.8"/><path fill="none" stroke="#5F52CA" stroke-width=".5" stroke-miterlimit="10" d="M31.3 53.1c.2 1 1.2 1.6 2.3 1.4 1.1-.2 1.8-1.1 1.6-2.1s.1-1.7-2.2-1.2c-2.1.3-1.9.9-1.7 1.9zM34.6 49.1c-.6-.2-3.1-.8-5.8.6-1.9 1-2.9 2.5-3.2 3.2M36 81c1.5 1 4.1 2.8 9.8 2.8 5.2 0 8.3-1.7 9.9-2.6"/><path fill="none" stroke="#5F52CA" stroke-width=".5" stroke-miterlimit="10" d="M37.8 82.1c.7 0 1.7.6 2.9.2 1.6-.4 4-1.1 5.1 0 1.2-1.1 3.6-.4 5.1 0 1.2.4 2.3-.2 2.9-.2M39.2 82.8c.3.4 1.7 3.7 6.6 3.7 4.9 0 6.2-3.3 6.5-3.7M35.6 77.4c-1.6.3-2.8 1.6-3.1 3.1-.4 2.1 1.2 3.6 1.3 3.7M55.5 77.4c1.6.3 2.8 1.6 3.1 3.1.4 2.1-1.2 3.6-1.3 3.7M41.6 47c.2-.5-5.1-3.3-11.1-2.6-4.3.5-7.8 2.6-7.7 3 .1.4 3.3-.8 8.4-1.1 6.4-.3 8.8 4.9 10.4.7zM46.3 31c16 0 15.3-12.2 21.7-8.9 9 4.6-3.8 10.5 4.2 27.2M46.3 31c-16 0-15.3-12.2-21.7-8.9-9 4.6 2.8 10.5-5.1 27.2"/><circle fill="#5F52CA" cx="58.5" cy="52.6" r=".6"/><circle fill="#5F52CA" cx="33.2" cy="52.6" r=".6"/></svg>