<svg xmlns="http://www.w3.org/2000/svg" viewBox="-251 362.4 91.7 117.5"><path fill="none" stroke="#5F52CA" stroke-width=".5" stroke-linejoin="round" stroke-miterlimit="10" d="M-199.3 461.1c5.2 0 16.8-14.7 16.8-22.6l2.4-23.3v-3.8l-1.3-16.3c0-6.6-10.5-13.9-23.6-13.9-13.5 0-24.3 8.8-24.3 15.4l-.9 16.2v2.5l2.2 22.5c0 8.6 11.8 23.4 17 23.4 2.9-.1 8.8-.1 11.7-.1z"/><path fill="none" stroke="#5F52CA" stroke-width=".5" stroke-linejoin="round" stroke-miterlimit="10" d="M-229.3 424.2l4-14.7.8-6.8c.2-2.4 1.9-4.2 4-4.2h31c2.1 0 3.8 1.8 4 4.2l.8 6.8 3.6 15.2"/><path fill="#5F52CA" d="M-200.3 411.9l.3.4c.9 1 2.2 1.7 3.6 1.8l10.1 1c.6 0 .9-.6.5-1l-4.8-3.5c-.1-.2-.3-.2-.5-.2l-8.7.6c-.6-.1-.9.5-.5.9z"/><path fill="none" stroke="#5F52CA" stroke-width=".5" stroke-linejoin="round" stroke-miterlimit="10" d="M-201 417.4c.6-.4 2.6-1.7 5.5-1.6 2.8.1 4.7 1.6 5.3 2"/><path fill="none" stroke="#5F52CA" stroke-width=".5" stroke-linejoin="round" stroke-miterlimit="10" d="M-193.3 416.2c.2.3.3.6.3 1 0 1.2-1 1.7-2.2 1.7-1.2 0-2.2-.5-2.2-1.7 0-.5.2-1 .5-1.3"/><circle fill="#5F52CA" cx="-195.3" cy="417.3" r=".8"/><path fill="none" stroke="#5F52CA" stroke-width=".5" stroke-linejoin="round" stroke-miterlimit="10" d="M-199.2 418.2c.8.3 2.2.7 3.9.6 1.7 0 3.1-.5 3.9-.8"/><g fill="none" stroke="#5F52CA" stroke-width=".5" stroke-miterlimit="10"><path d="M-203.5 454v7.2M-203.5 438.8v4.9M-190.8 446.1v8.9M-187.2 443.4v6.8M-189 444.8v8M-199.9 452.9v8.3M-199.9 439.4v4.6M-198.1 451.3v9.3M-198.1 439.7v4.3M-196.3 449.2v10.7M-196.3 440v3.8M-194.5 440.5v18.1M-192.6 441.9v15M-201.7 454v7.2M-201.7 439.1v4.7M-185.4 442.3v5M-207.1 454v7.2M-207.1 438.8v4.9M-219.8 446.7v7.9M-223.5 442.8v6.9M-221.6 445.1v7.2M-210.8 452.9v8.3M-210.8 439.4v4.6M-212.6 451.3v9.3M-212.6 439.7v4.3M-214.4 449.2v10.5M-214.4 440v3.8M-216.2 440.5v17.8M-218 441.9v14.7M-209 454v7.2M-209 439.1v4.7M-225.3 441.4v5.1"/><path stroke-linejoin="round" d="M-205.3 443.4v-4.9"/></g><path fill="none" stroke="#5F52CA" stroke-width=".5" stroke-miterlimit="10" d="M-211.7 444.5c1.6.7 3.8 1.5 6.5 1.4 4.2-.2 6.9-2.6 7.3-2 .4.5-1.7 3.3-4.8 4.3-3.6 1.2-7-.8-7.7-1.2"/><path fill="none" stroke="#5F52CA" stroke-width=".5" stroke-linejoin="round" stroke-miterlimit="10" d="M-209.5 434.7h4.4c1.8 0 3.2-1.4 3.2-3.2l-1-15c.7-.5 4.2-2.1 7.7-1.7 3.5.3 5.7 2.4 6.3 3"/><path fill="#5F52CA" d="M-210.2 411.9l-.3.4c-.9 1-2.2 1.7-3.6 1.8l-10.1 1c-.6 0-.9-.6-.5-1l4.8-3.5c.1-.2.3-.2.5-.2l8.7.6c.6-.1.9.5.5.9z"/><path fill="none" stroke="#5F52CA" stroke-width=".5" stroke-linejoin="round" stroke-miterlimit="10" d="M-209.5 417.4c-.6-.4-2.6-1.7-5.5-1.6-2.8.1-4.7 1.6-5.3 2"/><path fill="none" stroke="#5F52CA" stroke-width=".5" stroke-linejoin="round" stroke-miterlimit="10" d="M-217.2 416.2c-.2.3-.3.6-.3 1 0 1.2 1 1.7 2.2 1.7 1.2 0 2.2-.5 2.2-1.7 0-.5-.2-1-.5-1.3"/><circle fill="#5F52CA" cx="-215.2" cy="417.3" r=".8"/><path fill="none" stroke="#5F52CA" stroke-width=".5" stroke-linejoin="round" stroke-miterlimit="10" d="M-211.3 418.2c-.8.3-2.2.7-3.9.6-1.7 0-3.1-.5-3.9-.8M-208.7 416.5c-.7-.5-3.1-2.1-6.6-1.7-3.5.3-5.7 2.4-6.3 3"/><path fill="none" stroke="#5F52CA" stroke-width=".5" stroke-miterlimit="10" d="M-225.2 388.9v19.9M-223.4 387.3V400M-210.7 381.7v16.9M-207.1 381.2v17.4M-208.9 381.4v17.2M-219.8 384.9v13.7M-218 384v14.6M-216.2 383.2v15.4M-214.4 382.6v16M-212.5 382v16.6M-221.6 386v12.8M-189 385.2v13.4M-190.8 384.3v14.3M-203.5 381.2v17.4M-205.3 381.1v17.5M-194.4 382.8v15.8M-196.2 382.3v16.3M-198 381.8v16.8M-199.9 381.5v17.1M-201.7 381.4v17.2M-192.6 383.5v15.1M-227 390.9v25.2M-228.9 394.2v28.4M-181.7 393.2v28.9M-183.5 389.8v24.5M-185.4 387.9v15.7M-187.2 386.4v13.1M-205.3 453.7v7.5"/></svg>