<svg xmlns="http://www.w3.org/2000/svg" viewBox="-251 362.4 91.7 117.5"><path fill="#FFF" stroke="#5F52CA" stroke-width=".5" stroke-miterlimit="10" d="M-200.3 459.9c6 0 15.3-6.6 18.9-10.7 2.5-2.9 3.2-7 3.2-10.9v-22h1.9v-25.8c0-6.6-4.9-12-10.9-12H-222c-6 0-10.9 5.4-10.9 12v25.6h2.1v22.3c0 3.7.6 7.8 3 10.6 3.6 4.1 12.9 10.8 18.9 10.8h8.6z"/><path fill="none" stroke="#5F52CA" stroke-width=".5" stroke-linejoin="round" stroke-miterlimit="10" d="M-232.9 416.2h4.4V397l2.4 5.7 10.5-11.8-.6 9.1 24.6-9.2 2.9 8.9.4-10.9 8.2 15.1v12.4h3.8"/><path fill="none" stroke="#5F52CA" stroke-width=".5" stroke-linejoin="round" stroke-miterlimit="10" d="M-184.4 422h-13.8c-3.1 0-4.1-7.5-4.1-7.5 0-1.4 1.2-2.6 2.6-2.6h18.2c1.4 0 2.6 1.2 2.6 2.6v2c.1 3-2.4 5.5-5.5 5.5z"/><path fill="none" stroke="#5F52CA" stroke-width=".5" stroke-linejoin="round" stroke-miterlimit="10" d="M-194.2 416.2c.3-.3.8-.9 3.3-.9 2.2.1 3.6 1.6 4 1.9"/><path fill="#5F52CA" d="M-181 411.3h-19.3v-1.6l11.5-1.3 7.8 1.3z"/><path fill="none" stroke="#5F52CA" stroke-width=".5" stroke-linejoin="round" stroke-miterlimit="10" d="M-224.7 422h13.7c3.8 0 4.1-7.5 4.1-7.5 0-1.4-1.2-2.6-2.6-2.6h-18.2c-1.4 0-2.6 1.2-2.6 2.6v1.9c0 3.1 2.5 5.6 5.6 5.6z"/><path fill="none" stroke="#5F52CA" stroke-width=".5" stroke-miterlimit="10" d="M-206.5 455.7c1-3 4.6-1.2 4.6-1.2M-188.2 441.2c1.4-.2 2.6.6 2.8 1.6.2 1-.5 1.9-.6 1.9M-206.9 414.9h4.6M-221 441.2c-1.4-.2-2.6.6-2.8 1.6-.2 1 .5 1.9.6 1.9"/><path fill="#5F52CA" d="M-231.7 414.9h1.4v1.7h-1.4zM-178.8 414.9h1.4v1.7h-1.4zM-200.3 412.5h19.3v.8h-19.3zM-227.7 412.5h18.8v.8h-18.8zM-191.6 417.3h1.2c.6 0 1-.5 1-1 0-.6-.5-1-1-1h-1.2c-.6 0-1 .5-1 1s.5 1 1 1z"/><path fill="none" stroke="#5F52CA" stroke-width=".5" stroke-linejoin="round" stroke-miterlimit="10" d="M-186.8 417.3h-7.4M-214.8 415.8c-.3-.3-1-.5-3.6-.4-2.2.1-3.6 1.6-4 1.9"/><path fill="#5F52CA" d="M-217.6 417.3h-1.2c-.6 0-1-.5-1-1 0-.6.5-1 1-1h1.2c.6 0 1 .5 1 1s-.4 1-1 1z"/><path fill="none" stroke="#5F52CA" stroke-width=".5" stroke-linejoin="round" stroke-miterlimit="10" d="M-222.4 417.3h7.4"/><path fill="#5F52CA" d="M-227.7 411.3h18.8v-1.6l-11.4-1.3-7.4 1.3z"/><circle fill="#5F52CA" cx="-202.8" cy="439.1" r=".5"/><circle fill="#5F52CA" cx="-200.9" cy="441.4" r=".5"/><circle fill="#5F52CA" cx="-199.1" cy="439.1" r=".5"/><circle fill="#5F52CA" cx="-197.4" cy="441.4" r=".5"/><circle fill="#5F52CA" cx="-193.6" cy="441.4" r=".5"/><circle fill="#5F52CA" cx="-204.6" cy="441.4" r=".5"/><circle fill="#5F52CA" cx="-206.4" cy="439.1" r=".5"/><circle fill="#5F52CA" cx="-208.3" cy="441.4" r=".5"/><circle fill="#5F52CA" cx="-210.1" cy="439.1" r=".5"/><circle fill="#5F52CA" cx="-211.9" cy="441.4" r=".5"/><circle fill="#5F52CA" cx="-215.6" cy="441.4" r=".5"/><path fill="none" stroke="#5F52CA" stroke-width=".5" stroke-miterlimit="10" d="M-216.6 443.7s9 1.7 12 1.8c3.2 0 12.8-1.8 12.8-1.8M-216.3 443l-.5 1.5M-192.1 442.9l.8 1.5M-211.4 446.4c1.2.6 3.8 1.7 7.1 1.5 3-.1 5.3-1.2 6.5-1.8"/><path fill="none" stroke="#5F52CA" stroke-width=".5" stroke-miterlimit="10" d="M-211.5 444.6l5.9-.9 1 .8 1-.8 6 1M-207.7 450.3h6.2M-226.1 379.5v23M-227.9 380.5v17.9M-229.7 382.2V413M-231.6 384.9v31.3M-224.3 378.9v21.7M-211.6 378.6v19.7M-208 378.6v18.2M-209.8 378.6v19.1M-220.7 378.6v18M-218.9 378.6v16M-217.1 378.6v13.9M-215.2 378.6v21M-213.4 378.6V399M-222.5 378.6v20M-200.7 378.6v15.6M-202.6 378.6v16.3M-204.4 378.6v17M-206.2 378.6v17.7M-198.9 378.6v15M-186.2 378.6v13.9M-182.6 379.7v19.5M-184.4 379v16.9M-195.3 378.6v13.6M-193.5 378.6v13.1M-191.7 378.6v12.2M-189.9 378.6v17.5M-188.1 378.6v10.7M-197.1 378.6v14.3M-180.8 380.9v21.6M-177.2 386.1v30.2M-179 382.7v30.8"/><circle fill="#5F52CA" cx="-209.2" cy="453.3" r=".5"/><circle fill="#5F52CA" cx="-211" cy="455.6" r=".5"/><circle fill="#5F52CA" cx="-212.9" cy="453.3" r=".5"/><circle fill="#5F52CA" cx="-214.6" cy="455.6" r=".5"/><circle fill="#5F52CA" cx="-194.6" cy="453.3" r=".5"/><circle fill="#5F52CA" cx="-203.9" cy="455.6" r=".5"/><circle fill="#5F52CA" cx="-198.3" cy="453.3" r=".5"/><circle fill="#5F52CA" cx="-207.4" cy="455.6" r=".5"/><circle fill="#5F52CA" cx="-202.3" cy="453.3" r=".5"/><circle fill="#5F52CA" cx="-196.7" cy="455.6" r=".5"/><circle fill="#5F52CA" cx="-200.3" cy="455.6" r=".5"/><circle fill="#5F52CA" cx="-205.7" cy="453.3" r=".5"/><circle fill="#5F52CA" cx="-209.2" cy="458.1" r=".5"/><circle fill="#5F52CA" cx="-198.3" cy="458.1" r=".5"/><circle fill="#5F52CA" cx="-202.3" cy="458.1" r=".5"/><circle fill="#5F52CA" cx="-205.7" cy="458.1" r=".5"/><circle fill="#5F52CA" cx="-193.2" cy="455.6" r=".5"/><circle fill="#5F52CA" cx="-191" cy="448.7" r=".5"/><circle fill="#5F52CA" cx="-194.7" cy="448.7" r=".5"/><circle fill="#5F52CA" cx="-193.2" cy="451" r=".5"/><circle fill="#5F52CA" cx="-189.6" cy="451" r=".5"/><circle fill="#5F52CA" cx="-217.1" cy="448.7" r=".5"/><circle fill="#5F52CA" cx="-213.3" cy="448.7" r=".5"/><circle fill="#5F52CA" cx="-214.9" cy="451" r=".5"/><circle fill="#5F52CA" cx="-218.4" cy="451" r=".5"/><circle fill="#5F52CA" cx="-187.7" cy="453.3" r=".5"/><circle fill="#5F52CA" cx="-191.4" cy="453.3" r=".5"/><circle fill="#5F52CA" cx="-220" cy="453.3" r=".5"/><circle fill="#5F52CA" cx="-216.4" cy="453.3" r=".5"/><circle fill="#5F52CA" cx="-185.9" cy="451" r=".5"/><circle fill="#5F52CA" cx="-222" cy="451" r=".5"/></svg>