<svg xmlns="http://www.w3.org/2000/svg" viewBox="-251 362.4 91.7 117.5"><path fill="#FFF" stroke="#5F52CA" stroke-width=".5" stroke-linejoin="round" stroke-miterlimit="10" d="M-175.5 418.1c.6-1 1.5-1.7 2.1-1.4 1.9 1 0 1.5-.3 4.2-.3 2.8 1.1 7.8.3 10.3-.1.3-.8 1.6-2 1.8-.8.1-2.2-.4-2.7-1.4M-233.3 418.1c-.6-1-1.5-1.7-2.1-1.4-1.9 1 0 1.5.3 4.2.3 2.8-1.1 7.8-.3 10.3.1.3.8 1.6 2 1.8.8.1 2.2-.4 2.7-1.4"/><path fill="#FFF" stroke="#5F52CA" stroke-width=".5" stroke-miterlimit="10" d="M-199.7 463.4c6.6 0 12-5.4 12-12 0 0 10.6-20.8 11.8-28.7 1-7-.3-28.7-.3-28.7 0-6.6-5.6-10.5-12-12-4.2-1-6.9-5.9-16.3-5.9-10.3 0-12.1 4.9-16.3 5.9-6.4 1.5-12 5.4-12 12 0 0-1.4 21.7-.3 28.7 1.2 7.8 11.8 28.7 11.8 28.7 0 6.6 5.4 12 12 12h9.6z"/><path fill="none" stroke="#5F52CA" stroke-width=".5" stroke-linejoin="round" stroke-miterlimit="10" d="M-187.5 419c-4.5 1.4-7.2.6-8 0"/><path fill="none" stroke="#5F52CA" stroke-width=".5" stroke-miterlimit="10" d="M-226 384v8.8M-227.8 385.2v9.3M-229.6 386.6v22.1M-231.4 389v23.7M-224.2 383.1v8.9M-211.5 377.2v22.3M-207.9 376.4v23.5M-209.7 376.7v23.1M-220.6 382v10.9M-218.7 381.3v13M-216.9 380.1v16.1M-215.1 378.9V398M-213.3 377.9V399M-222.4 382.5v9.6"/><path fill="none" stroke="#5F52CA" stroke-width=".5" stroke-linejoin="round" stroke-miterlimit="10" d="M-175.5 415c-.8-.7-4.1-3.1-4.5-10.7-.2-5.1.9-8.8-3.3-11.7-3.4-2.3-7.8 2.2-9.1 4-1.5 2 .3 11.7-2.8 4.8-1.7-3.7-9.4-1.6-9.4-1.6-7.5.5-10.7-1.3-12.2-3.3-1.4-1.8-5.8-6.3-9.1-4-4.1 2.9-3 6.6-3.3 11.7-.3 7.6-3.7 10-4.5 10.7"/><path fill="none" stroke="#5F52CA" stroke-width=".5" stroke-linejoin="round" stroke-miterlimit="10" d="M-202.6 410.5c.1 1.8 1.6 5.9 2.9 6.4.8.3 1.5-.2 2.7-.8 3.5-1.6 8.9-2 11.9.1.9.7 1.7 1.6 2.2 1.3.5-.3.4-1.5.1-2.3-1.1-2.9-6.4-3.8-9.8-3.6-1.6.1-4.3.5-7.6 2.6"/><path fill="none" stroke="#5F52CA" stroke-width=".5" stroke-miterlimit="10" d="M-200 414.1v2.6M-204.2 376.2v23.6M-200.6 376.5v22.7M-202.4 376.3v23.1M-206.1 376.2v23.7"/><path fill="none" stroke="#5F52CA" stroke-width=".5" stroke-linejoin="round" stroke-miterlimit="10" d="M-206.5 410.5c-.1 1.8-1.6 5.9-2.9 6.4-.8.3-1.5-.2-2.7-.8-3.5-1.6-8.9-2-11.9.1-.9.7-1.7 1.6-2.2 1.3-.5-.3-.4-1.5-.1-2.3 1.1-2.9 6.4-3.8 9.8-3.6 1.6.1 4.3.5 7.6 2.6"/><path fill="none" stroke="#5F52CA" stroke-width=".5" stroke-miterlimit="10" d="M-209 414.1v2.6"/><path fill="none" stroke="#5F52CA" stroke-width=".5" stroke-linejoin="round" stroke-miterlimit="10" d="M-204.5 445.9s-2.3-.7-3.1-.8c-1.6-.3-6.1.5-6.1.5l6.4-2.6 2.8 1.4 2.8-1.4 6.4 2.6s-4.5-.8-6.1-.5c-.7.1-3.1.8-3.1.8z"/><path fill="none" stroke="#5F52CA" stroke-width=".5" stroke-linejoin="round" stroke-miterlimit="10" d="M-213.1 445.4c2.6 1.8 5.7 2.5 8.6 2.5s6-.7 8.6-2.5"/><path fill="none" stroke="#5F52CA" stroke-width=".489" stroke-linejoin="round" stroke-miterlimit="10" d="M-191.3 419.6h-1.7c-.6 0-1.1-.5-1.1-1.1v-.1c0-.6.5-1.1 1.1-1.1h1.7c.6 0 1.1.5 1.1 1.1v.1c0 .7-.5 1.1-1.1 1.1z"/><path fill="none" stroke="#5F52CA" stroke-width=".5" stroke-linejoin="round" stroke-miterlimit="10" d="M-196.4 420.1c.7.5 2.3 1.4 4.5 1.5 2.4.1 4.6-1.1 5.3-1.5-.5-.7-1.2-1.9-2.5-2.2-3.9-1-5.9-.3-6.5.2-.4.3-1.6 1-1.6 1"/><path fill="none" stroke="#5F52CA" stroke-width=".5" stroke-linejoin="round" stroke-miterlimit="10" d="M-197.6 418.5c1.3-1.2 2.6-1.8 3.4-2 2.2-.7 5.8-.9 7.8 1.3.7.7 1 1.5 1.1 2.1M-221.5 419c4.5 1.4 7.2.6 8 0"/><path fill="none" stroke="#5F52CA" stroke-width=".489" stroke-linejoin="round" stroke-miterlimit="10" d="M-217.7 419.6h1.7c.6 0 1.1-.5 1.1-1.1v-.1c0-.6-.5-1.1-1.1-1.1h-1.7c-.6 0-1.1.5-1.1 1.1v.1c.1.7.5 1.1 1.1 1.1z"/><path fill="none" stroke="#5F52CA" stroke-width=".5" stroke-linejoin="round" stroke-miterlimit="10" d="M-212.5 420.1c-.7.5-2.3 1.4-4.5 1.5-2.4.1-4.6-1.1-5.3-1.5.5-.7 1.2-1.9 2.5-2.2 3.9-1 5.9-.3 6.5.2.4.3 1.6 1 1.6 1"/><path fill="none" stroke="#5F52CA" stroke-width=".5" stroke-linejoin="round" stroke-miterlimit="10" d="M-211.3 418.5c-1.3-1.2-2.6-1.8-3.4-2-2.2-.7-5.8-.9-7.8 1.3-.7.7-1 1.5-1.1 2.1"/><circle fill="#5F52CA" cx="-216.8" cy="418.5" r=".6"/><circle fill="#5F52CA" cx="-192.1" cy="418.5" r=".6"/><path fill="none" stroke="#5F52CA" stroke-width=".5" stroke-linejoin="round" stroke-miterlimit="10" d="M-201.4 417.8c-.2.1-.8.7-.9 1.8-.1.9.4 1.9 1.3 2.4M-207.5 417.8c.2.1.8.7.9 1.8.1.9-.4 1.9-1.3 2.4"/><path fill="none" stroke="#5F52CA" stroke-width=".5" stroke-miterlimit="10" d="M-182.5 384.3v8.8M-180.7 385.5v9.9M-178.9 387.1v23.1M-177.1 389.8v23.6M-184.3 383.4v8.6M-197 377.5v22.3M-198.8 377v22.3M-187.9 382.3v10.4M-189.7 381.6v12.3M-191.6 380.4v15.3M-193.4 379.4v24.4M-195.2 378.2v23M-186.1 382.8v9.2"/><circle fill="#5F52CA" cx="-192.1" cy="418.5" r=".6"/></svg>