<svg xmlns="http://www.w3.org/2000/svg" viewBox="-251 362.4 91.7 117.5"><path fill="#FFF" stroke="#5F52CA" stroke-width=".5" stroke-miterlimit="10" d="M-179.4 422.6c.2-.4 1.9-3.9 3.5-3.8 1.4.1 2.9 3.2 2.5 6-.6 4.2-3.1 6.6-5.3 13.2-.3.9-3.1.8-2.9-3.1M-230.9 422.6c-.2-.4-1.9-3.9-3.5-3.8-1.4.1-2.9 3.2-2.5 6 .6 4.2 3.1 6.6 5.3 13.2.3.9 3.1.8 2.9-3.1"/><path fill="#FFF" stroke="#5F52CA" stroke-width=".487" stroke-miterlimit="10" d="M-194.9 461.7c6.3 0 15.2-30.9 15.4-37.2.3-8 0-32.1 0-32.1 0-6.6-5.1-12-11.4-12h-28.6c-6.3 0-11.4 5.4-11.4 12 0 0-.4 24.1 0 32.2.3 6.3 9.2 37.2 15.4 37.2h20.6z"/><path fill="none" stroke="#5F52CA" stroke-width=".5" stroke-miterlimit="10" d="M-230.8 393.2l6.9-.8-2.7 3 17.3-5.1-1.6 2.2h17.5l2.9-2.9h9.5l1.6 4.2"/><path fill="none" stroke="#5F52CA" stroke-width=".5" stroke-miterlimit="10" d="M-228.6 392.8v16.7c-3 .3-2.6 10.3-2.4 11.2M-181.8 389.6v19.9c3.8 1.2 2.6 10.3 2.5 11.3M-182.3 418s-4.8-4.2-6.9-4.8c-4.1 1.4-8.2 1.3-12.3 2.7v2.7c2.2-.9 6.4-2.3 10.4-2.2 4.7.2 8.8 1.6 8.8 1.6zM-199.1 423c1.1-2.1 3.3-3.4 5.6-3.3 2.8.1 4.4 2.4 4.6 2.6"/><path fill="none" stroke="#5F52CA" stroke-width=".5" stroke-miterlimit="10" d="M-199.9 422.6l1.6-2.6c.5-.7 1.3-1.2 2.1-1.2h5.3c.8 0 1.6.4 2.1 1.1l1 1.5"/><path fill="none" stroke="#5F52CA" stroke-width=".5" stroke-miterlimit="10" d="M-191.6 421.3c-.1 1.2-1.1 2.1-2.2 2s-2-1.2-1.9-2.4c.1-1.2 1.1-1.3 2.3-1.2 1.1.2 1.9.4 1.8 1.6z"/><path fill="none" stroke="#5F52CA" stroke-width=".5" stroke-miterlimit="10" d="M-197.8 422.6c.6.3 2.1.8 4.2.7 1.9-.1 3.3-.6 3.8-1"/><circle fill="#5F52CA" cx="-193.6" cy="421.3" r=".8"/><path fill="none" stroke="#5F52CA" stroke-width=".5" stroke-miterlimit="10" d="M-227.9 418s4.8-4.2 6.9-4.8c4.1 1.4 8.2 1.3 12.3 2.7v2.7c-2.2-.9-6.4-2.3-10.4-2.2-4.7.2-8.8 1.6-8.8 1.6zM-211.2 423c-1.1-2.1-3.3-3.4-5.6-3.3-2.8.1-4.4 2.4-4.6 2.6"/><path fill="none" stroke="#5F52CA" stroke-width=".5" stroke-miterlimit="10" d="M-210.4 422.6l-1.6-2.6c-.5-.7-1.3-1.2-2.1-1.2h-5.3c-.8 0-1.6.4-2.1 1.1l-1 1.5"/><path fill="none" stroke="#5F52CA" stroke-width=".5" stroke-miterlimit="10" d="M-218.7 421.3c.1 1.2 1.1 2.1 2.2 2s2-1.2 1.9-2.4c-.1-1.2-1.1-1.3-2.3-1.2-1.1.2-1.9.4-1.8 1.6z"/><path fill="none" stroke="#5F52CA" stroke-width=".5" stroke-miterlimit="10" d="M-212.5 422.6c-.6.3-2.1.8-4.2.7-1.9-.1-3.3-.6-3.8-1"/><circle fill="#5F52CA" cx="-216.7" cy="421.3" r=".8"/><path fill="none" stroke="#5F52CA" stroke-width=".5" stroke-miterlimit="10" d="M-214.4 442.7c3.2 0 4.4-.1 5.5.2 1.4.4 2.1 1.2 3.7 1.2 1.4 0 1.4-.6 2.8-.6s1.7.1 3.8.3c.6.1 1.1.1 1.5.1"/><path fill="none" stroke="#5F52CA" stroke-width=".5" stroke-miterlimit="10" d="M-214.6 442.7c.5.3 1.3.6 2.3.8 1.3.2 1.6.3 2.7.4 2.1.2 2.4 1 4.4 1.1.9.1 1.4-.2 2.5-.5 1.4-.4 3.5-.8 6.3-.6"/><path fill="none" stroke="#5F52CA" stroke-width=".5" stroke-miterlimit="10" d="M-213.3 443.3c.6.6 2.7 3.7 6.9 4.1 4.2.3 7.2-3 7.9-3.5"/><g fill="#5F52CA"><circle cx="-198.9" cy="456.4" r=".5"/><circle cx="-194.9" cy="456.4" r=".5"/><circle cx="-197.4" cy="459.3" r=".5"/><circle cx="-203.3" cy="456.4" r=".5"/><circle cx="-201.4" cy="459.3" r=".5"/><circle cx="-207.4" cy="456.4" r=".5"/><circle cx="-215.3" cy="456.4" r=".5"/><circle cx="-211.2" cy="456.4" r=".5"/><circle cx="-209.4" cy="459.3" r=".5"/><circle cx="-213.3" cy="459.3" r=".5"/><circle cx="-205.3" cy="459.3" r=".5"/><circle cx="-207.2" cy="448.9" r=".5"/><circle cx="-203.1" cy="448.9" r=".5"/><circle cx="-205.2" cy="451.7" r=".5"/><circle cx="-199" cy="438.1" r=".5"/><circle cx="-194.9" cy="438.1" r=".5"/><circle cx="-197.5" cy="441.1" r=".5"/><circle cx="-203.4" cy="438.1" r=".5"/><circle cx="-201.5" cy="441.1" r=".5"/><circle cx="-207.4" cy="438.1" r=".5"/><circle cx="-215.3" cy="438.1" r=".5"/><circle cx="-211.3" cy="438.1" r=".5"/><circle cx="-209.4" cy="441.1" r=".5"/><circle cx="-213.3" cy="441.1" r=".5"/><circle cx="-205.4" cy="441.1" r=".5"/></g><g fill="none" stroke="#5F52CA" stroke-width=".5" stroke-miterlimit="10"><path d="M-193.5 392.5v-12.1M-195.3 392.5v-12.1M-208 392.5v-12.1M-211.6 391v-10.6M-209.8 390.6v-10.2M-199 392.5v-12.1M-200.8 392.5v-12.1M-202.6 392.5v-12.1M-204.4 392.5v-12.1M-206.2 392.5v-12.1M-197.1 392.5v-12.1M-229.8 410.3v-23M-228 392.9v-8.5M-215.3 392.1v-11.7M-213.5 391.5v-11.1M-224.3 394.8v-13.3M-222.5 394.2v-13.4M-220.7 393.7v-13.3M-218.9 393.1v-12.7M-217.1 392.7v-12.3M-226.1 392.7v-10M-180.8 410v-23.2M-184.5 389.6v-7.1M-186.3 389.6v-8.2M-188.1 389.6v-8.9M-189.9 389.6v-9.2M-191.7 390.8v-10.4M-182.6 389.6v-5.5"/></g></svg>