<svg xmlns="http://www.w3.org/2000/svg" viewBox="-283 407.2 27.7 27.7"><path fill="#FFF" d="M-255.4 418.7l-.2-.5-.4-.3c-.5-.4-3.1 0-3.8-.6-.5-.5-.6-1.3-.7-2.4-.3-2.1-.5-2.2-.8-3-1.2-2.6-4.5-4.5-6.8-4.8h-6.1c-4.8 0-8.8 3.9-8.8 8.8v10.2c0 4.8 3.9 8.7 8.8 8.7h10.1c4.8 0 8.8-3.9 8.8-8.7l.1-7.1c-.1.1-.2-.3-.2-.3zm-18.9-4.6h5.1c1 0 1.8.8 1.8 1.7 0 .9-.8 1.7-1.8 1.7h-5.1c-1 0-1.8-.8-1.8-1.7 0-.9.8-1.7 1.8-1.7zM-264 428h-10.3c-1 0-1.8-.8-1.8-1.7 0-1 .8-1.7 1.8-1.7h10.3c1 0 1.7.8 1.7 1.7.1.9-.7 1.7-1.7 1.7z"/></svg>