<svg xmlns="http://www.w3.org/2000/svg" viewBox="-79 347.9 25.4 25.4"><g fill="#FFF"><path d="M-54.1 369.2l-5-5 3.5-2c.3-.2.4-.5.4-.8 0-.3-.2-.6-.5-.7l-15.8-6.3c-.3-.1-.7-.1-.9.2-.2.2-.3.6-.2.9l6.3 15.8c.1.3.4.5.7.5.3 0 .6-.1.8-.4l2-3.5 5 5c.2.2.4.2.6.2.2 0 .4-.1.6-.2l2.4-2.4c.4-.4.4-1 .1-1.3zM-75.1 350.6c-.3-.3-.9-.3-1.2 0-.3.3-.3.9 0 1.2l1.9 1.9c.2.2.4.2.6.2.2 0 .4-.1.6-.2.3-.3.3-.9 0-1.2l-1.9-1.9zM-74.5 356.3c0-.5-.4-.8-.8-.8H-78c-.5 0-.8.4-.8.8 0 .5.4.8.8.8h2.6c.5.1.9-.3.9-.8zM-74.8 358.9l-1.9 1.9c-.3.3-.3.9 0 1.2.2.2.4.2.6.2.2 0 .4-.1.6-.2l1.9-1.9c.3-.3.3-.9 0-1.2-.4-.3-.9-.3-1.2 0zM-70.5 352.4c.5 0 .8-.4.8-.8V349c0-.5-.4-.8-.8-.8-.5 0-.8.4-.8.8v2.6c-.1.4.3.8.8.8zM-67.4 353.5c.2 0 .4-.1.6-.2l1.9-1.9c.3-.3.3-.9 0-1.2-.3-.3-.9-.3-1.2 0L-68 352c-.3.3-.3.9 0 1.2.2.2.4.3.6.3z"/></g></svg>