<?xml version="1.0" encoding="UTF-8"?>
<svg enable-background="new -284 417.4 25.4 14.5" version="1.1" viewBox="-284 417.4 25.4 14.5" xml:space="preserve" xmlns="http://www.w3.org/2000/svg">
<g clip-rule="evenodd" fill="#fff" fill-rule="evenodd">
	<path d="m-279 427v0.5 3.3 1c-0.2 0.3-0.5 0-0.5-0.1 0-1.2 0.1-2.9 0.2-4.6-1.1 0.2-2.1 0.3-3 0.5-0.7 0.2-1.3 0.3-1.7 0.4 0.7-0.2 2.5-0.8 4.7-1.3 0.1-2.8 0.2-5.5 0.3-5.5s0.1 2.7 0.1 5.4c2.1-0.4 4.5-0.8 7-0.9 2.9-0.1 5.5 0.2 7.3 0.6-0.2-4.2-0.4-8.7-0.3-8.7s0.4 4.3 0.7 8.1c0 0.2 0 0.5 0.1 0.7 1.5 0.3 2.4 0.7 2.4 0.7s-0.7-1.5-1-2.3c-0.5-1.3-1.3-3.9-1.3-3.9s0.9 2.3 1.5 3.4c0.6 1.3 2.1 3.7 2.1 3.7s-1.6-0.4-3.6-0.8c0.1 1 0.2 2.3 0.2 3 0.1 0.7 0.1 1.2 0.1 1.3-0.2 0.4-0.6 0.1-0.6-0.1-0.1-1.1-0.1-2.9-0.2-4.4-2.4-0.4-5.4-0.9-7.2-0.8-2.2 0.2-4.8 0.5-7.3 0.8zm10.4-4.4c-1.4 0.8-3.1 1.3-3.8 1.4-4.8 0.9-6-0.9-6-0.9s0.8 2.3 6.1 1.2c4.7-1 6.6-4 6.6-4s-1.2 1.3-2.9 2.3z"/>
  <path d="m-264 421s1.4 2.7 3 5.2c0.8 1.3 2.5 3.3 2.5 3.3s-6.5-2.6-12.3-2.7c-6.3-0.2-11.7 0.8-13.1 1.1 1.7-0.5 3.1-0.7 6.1-1.2 2.4-0.4 5.2-0.6 7.7-0.5 4.2 0.1 9.6 1.9 9.6 1.9s-0.7-1.2-1.8-3.2c-0.9-1.7-1.7-3.9-1.7-3.9z"/>
</g>
</svg>
