<svg xmlns="http://www.w3.org/2000/svg" viewBox="-79 352.5 25.4 20.8"><g fill="#FFF"><path d="M-55.9 355.6h-5.2v-1c0-1.1-.9-2.1-2.1-2.1h-6.2c-1.1 0-2.1.9-2.1 2.1v1h-5.2c-1.1 0-2.1.9-2.1 2.1v3.1c0 1.1.9 2.1 2.1 2.1h8.3v-.5c0-.3.2-.5.5-.5h3.1c.3 0 .5.2.5.5v.5h8.3c1.1 0 2.1-.9 2.1-2.1v-3.1c0-1.2-.9-2.1-2-2.1zm-7.3 0h-6.2v-1h6.2v1zM-54.1 363.4c-.2-.1-.4-.1-.5.1-.4.3-.8.4-1.2.4h-8.3v1.6c0 .3-.2.5-.5.5h-3.1c-.3 0-.5-.2-.5-.5v-1.6h-8.3c-.4 0-.9-.1-1.2-.4-.2-.1-.4-.1-.5-.1-.2.1-.3.3-.3.5v7.3c0 1.1.9 2.1 2.1 2.1h20.8c1.1 0 2.1-.9 2.1-2.1v-7.3c-.4-.2-.5-.4-.6-.5z"/></g></svg>