<svg xmlns="http://www.w3.org/2000/svg" viewBox="-79 343 25.4 30.3"><path fill="#FFF" d="M-57.6 350.2V345c0-1.1-.9-2-2-2h-13.5c-1.1 0-2 .9-2 2v26.1c0 1.1.9 2 2 2h13.5c1.1 0 2-.9 2-2v-20.9zm-10.9-5.7h4.3c.1 0 .2.1.2.2s-.1.2-.2.2h-4.3c-.1 0-.2-.1-.2-.2s.1-.2.2-.2zm2.2 27.7c-.6 0-1-.5-1-1s.5-1 1-1c.6 0 1 .5 1 1s-.5 1-1 1zm7.3-2.8h-14.7v-23.2H-59v23.2zm-11.5-5.6h8.4v1.2h-8.4v-1.2z"/><path fill="#FFF" d="M-60.1 351.1c-1 0-3.4.3-4.1.7-.8.5-1.2.4-1.2.4h-1.8s-.4 0-1.2-.4c-.6-.4-3.1-.7-4.1-.7-1 0-4 .2-4.3.3l.1 1.3s.6.2.7 1.1c.1.7.4 2.2 1.2 3.3.2.4.6.6 1.1.7 1 .1 2.4.2 3.9-.1.3-.1.9-.4 1.1-.6.5-.5 1.3-1.2 1.6-2.6 0 0 .1-1 .9-1s.9 1 .9 1c.3 1.4 1.1 2 1.6 2.6.2.3.9.6 1.1.7 1.1.3 2.6.2 3.8 0 .5-.1 1-.4 1.3-.8.7-1.1 1-2.4 1.1-3.1.1-.9.7-1.1.7-1.1l.1-1.3c-.6-.2-3.6-.4-4.5-.4z"/></svg>