<svg xmlns="http://www.w3.org/2000/svg" viewBox="-80.2 345.5 27.7 27.7"><path fill="#FFF" d="M-66.3 352.5c-3.8 0-6.9 3.1-6.9 6.9s3.1 6.9 6.9 6.9c3.8 0 6.9-3.1 6.9-6.9s-3.1-6.9-6.9-6.9zM-66.3 350.4c-.7 0-1.4-.6-1.4-1.4v-2.2c0-.7.6-1.4 1.4-1.4s1.4.6 1.4 1.4v2.2c-.1.8-.7 1.4-1.4 1.4zM-66.3 368.4c-.7 0-1.4.6-1.4 1.4v2.2c0 .7.6 1.4 1.4 1.4s1.4-.6 1.4-1.4v-2.2c-.1-.8-.7-1.4-1.4-1.4zM-60 353c-.5-.5-.5-1.4 0-1.9l1.5-1.5c.5-.5 1.4-.5 1.9 0s.5 1.4 0 1.9l-1.5 1.5c-.5.6-1.3.6-1.9 0zM-72.7 365.7c-.5-.5-1.4-.5-1.9 0l-1.5 1.5c-.5.5-.5 1.4 0 1.9s1.4.5 1.9 0l1.5-1.5c.6-.5.6-1.3 0-1.9zM-57.3 359.4c0-.7.6-1.4 1.4-1.4h2.2c.7 0 1.4.6 1.4 1.4s-.6 1.4-1.4 1.4H-56c-.7 0-1.3-.7-1.3-1.4zM-75.3 359.4c0-.7-.6-1.4-1.4-1.4h-2.2c-.7 0-1.4.6-1.4 1.4s.6 1.4 1.4 1.4h2.2c.8 0 1.4-.7 1.4-1.4zM-60 365.7c.5-.5 1.4-.5 1.9 0l1.5 1.5c.5.5.5 1.4 0 1.9s-1.4.5-1.9 0l-1.5-1.5c-.5-.5-.5-1.3 0-1.9zM-72.7 353c.5-.5.5-1.4 0-1.9l-1.5-1.5c-.5-.5-1.4-.5-1.9 0s-.5 1.4 0 1.9l1.5 1.5c.5.6 1.4.6 1.9 0z"/></svg>