<svg xmlns="http://www.w3.org/2000/svg" xml:space="preserve" viewBox="0 0 155.1 155.1"><path fill="#c1c9d6" d="M152.1 3v149.1H3V3h149.1m3-3H0v155.1h155.1V0z"/><path fill="#c1c9d6" d="M60.6 152.1s3.1-1 3.2-2.7c.2-4.4 0-8.7 0-12.9-3.2.1-6.2.5-9.1.4-6.6-.4-11.6-3.2-14.2-9.6-1.6-3.8-3.9-7.1-7.5-9.2-.7-.4-1.3-1-1.8-1.6-.7-.8-.6-1.6.5-1.8 1.1-.2 2.3-.4 3.3-.2 4.2.8 7.1 3.4 9.3 6.9 4.4 6.9 11.2 9 18.8 5.8.4-.2 1-.6 1-1 .6-3.1 1.8-5.9 4.1-8.3-2.6-.5-4.9-.8-7.3-1.4-6.7-1.6-12.7-4.3-17.2-9.9-3.6-4.5-5.2-9.8-6-15.5-1.2-8.8-.1-17.1 5.9-24.2.3-.4.5-1.1.3-1.5-1.5-5-1.3-9.9.2-14.8.8-2.6 1-2.7 3.6-2.3.2 0 .3.1.5.1 5.3.9 9.8 3.4 14.3 6.2.6.4 1.5.6 2.2.4 10.7-2.6 21.4-2.6 32 0 .6.1 1.4-.1 2-.4 2.4-1.3 4.8-2.7 7.2-4 2.9-1.4 5.9-2.5 9.1-2.4.6 0 1.4.6 1.6 1.1 2 5.2 2.4 10.5.8 15.9-.2.6.1 1.4.4 2 1.5 2.8 3.7 5.4 4.7 8.4 3 9.1 1.9 18.2-2.2 26.7-3.7 7.9-10.6 11.8-18.7 13.9-2.7.7-5.6 1.1-8.5 1.7 3.9 4.1 4.5 9 4.4 14.2-.1 5.3-.1 10.7-.1 16 0 2.6 1.1 4 3.1 4.1l-39.9-.1z"/></svg>
