<svg xmlns="http://www.w3.org/2000/svg" xml:space="preserve" viewBox="0 0 155.1 155.1"><path fill="#c1c9d6" d="M152.1 3v149.1H3V3h149.1m3-3H0v155.1h155.1V0z"/><path fill="#c1c9d6" d="M118.2 60.7c-.2-4.3-.9-7.3-1.9-9.9-1-2.7-2.6-5.2-4.7-7.3-2-2.1-4.5-3.7-7.2-4.7-2.6-1-5.6-1.7-9.9-1.9-4.4-.2-5.8-.3-16.9-.3s-12.5 0-16.9.2c-4.3.2-7.3.9-9.9 1.9-2.7 1-5.2 2.6-7.3 4.7-2.1 2-3.7 4.5-4.7 7.2-1 2.6-1.7 5.6-1.9 9.9-.2 4.4-.3 5.8-.3 16.9s0 12.5.2 16.9c.2 4.3.9 7.3 1.9 9.9 1 2.7 2.7 5.2 4.7 7.3 2 2.1 4.5 3.7 7.2 4.7 2.6 1 5.6 1.7 9.9 1.9 4.4.2 5.8.2 16.9.2s12.5 0 16.9-.2c4.3-.2 7.3-.9 9.9-1.9 5.5-2.1 9.8-6.5 12-12 1-2.6 1.7-5.6 1.9-9.9.2-4.4.2-5.8.2-16.9s.1-12.3-.1-16.7zm-7.3 33.4c-.2 4-.8 6.2-1.4 7.6-1.4 3.6-4.2 6.4-7.8 7.8-1.4.6-3.6 1.2-7.6 1.4-4.3.2-5.6.2-16.5.2s-12.2 0-16.5-.2c-4-.2-6.2-.8-7.6-1.4-1.8-.7-3.4-1.7-4.7-3.1-1.4-1.3-2.4-2.9-3.1-4.7-.6-1.4-1.2-3.6-1.4-7.6-.2-4.3-.2-5.6-.2-16.5s0-12.2.2-16.5c.2-4 .8-6.2 1.4-7.6.7-1.8 1.7-3.4 3.1-4.7 1.3-1.4 2.9-2.4 4.7-3.1 1.4-.6 3.6-1.2 7.6-1.4 4.3-.2 5.6-.2 16.5-.2s12.2 0 16.5.2c4 .2 6.2.8 7.6 1.4 1.8.7 3.4 1.7 4.7 3.1 1.4 1.3 2.4 2.9 3.1 4.7.6 1.4 1.2 3.6 1.4 7.6.2 4.3.2 5.6.2 16.5s0 12.2-.2 16.5zM77.6 56.5c-11.6 0-21 9.4-21 21s9.4 21 21 21 21-9.4 21-21-9.4-21-21-21zm0 34.7c-7.5 0-13.6-6.1-13.6-13.6s6-13.7 13.6-13.7c7.5 0 13.6 6.1 13.6 13.6s-6.1 13.7-13.6 13.7zm26.7-35.5c0 2.7-2.2 4.9-4.9 4.9s-4.9-2.2-4.9-4.9 2.2-4.9 4.9-4.9 4.9 2.2 4.9 4.9z"/></svg>
