<svg xmlns="http://www.w3.org/2000/svg" xml:space="preserve" viewBox="0 0 155.1 155.1"><path fill="#c1c9d6" d="M152.1 3v149.1H3V3h149.1m3-3H0v155.1h155.1V0z"/><path fill="#c1c9d6" d="M119.9 51.3c-3.2 1.4-6.5 2.3-10 2.7 3.6-2.2 6.4-5.5 7.6-9.6-3.4 2-7.1 3.4-11 4.2-3.2-3.4-7.7-5.5-12.7-5.5-9.6 0-17.4 7.8-17.4 17.4 0 1.4.1 2.7.4 4-14.5-.7-27.2-7.6-35.8-18.2-1.5 2.6-2.4 5.6-2.4 8.8 0 6 3.1 11.4 7.7 14.4-2.8-.1-5.5-.9-7.9-2.1v.2c0 8.4 6 15.5 13.9 17.1-1.4.4-3 .6-4.6.6-1.1 0-2.2-.1-3.3-.3 2.3 6.9 8.6 11.9 16.2 12.1-5.9 4.6-13.4 7.4-21.6 7.4-1.4 0-2.8-.1-4.2-.2 7.7 5 16.8 7.8 26.7 7.8 32 0 49.5-26.5 49.5-49.5 0-.8 0-1.5-.1-2.2 3.8-2.6 6.7-5.6 9-9.1z"/></svg>
