<svg xmlns="http://www.w3.org/2000/svg" width="695" height="185" viewBox="-3.5 -3.5 695 185">
  <path style="fill:#ccc" d="m186.407 57.715 43.326 57.035V57.715h8.661v70.801h-9.158L185.914 70.98v57.536h-8.666V57.715zM308.698 125.743c-5.708 2.182-11.867 3.269-18.468 3.269-25.643 0-38.47-12.294-38.47-36.886 0-23.271 12.378-34.908 37.13-34.908 7.102 0 13.705.993 19.807 2.976v7.921c-6.103-2.311-12.378-3.468-18.817-3.468-19.306 0-28.957 9.163-28.957 27.479 0 19.638 9.5 29.462 28.518 29.462 3.033 0 6.399-.398 10.099-1.193v-24.06h9.158v29.408zM323.305 101.186V57.718h9.153v43.467c0 13.599 6.769 20.406 20.304 20.406 13.531 0 20.3-6.808 20.3-20.406V57.718h9.158v43.467c0 18.557-9.819 27.83-29.458 27.83-19.638.001-29.457-9.273-29.457-27.829zM444.758 121.092v7.424h-46.195V57.715h9.154v63.377zM483.669 48.376l35.201 80.142h-10.147l-9.163-22.284h-23.412l2.523-7.418h17.824l-13.22-32.088-25.302 61.79h-9.504zM528.526 128.516V57.715h30.203c13.469 0 20.201 5.663 20.201 16.981 0 9.212-6.581 16.029-19.754 20.447l24.309 33.373h-12.081L548.88 96.682v-5.986c13.53-2.151 20.295-7.349 20.295-15.598 0-6.533-3.762-9.806-11.283-9.806h-20.206v63.227h-9.159l-.001-.003zM617.798 57.715v50.404c0 13.598-8.005 20.396-24.017 20.396v-7.425c9.904 0 14.857-4.329 14.857-12.972V57.715h9.16zM634.137 126.04v-8.418c7.429 2.64 15.447 3.965 24.063 3.965 12.18 0 18.272-4.457 18.272-13.376 0-7.58-4.493-11.385-13.47-11.385h-9.113c-14.817 0-22.233-6.432-22.233-19.306 0-13.531 9.495-20.304 28.479-20.304 8.249 0 15.922.998 23.021 2.976v8.417c-7.101-2.643-14.772-3.964-23.021-3.964-12.875 0-19.311 4.293-19.311 12.875 0 7.588 4.354 11.385 13.065 11.385h9.113c15.08 0 22.628 6.441 22.628 19.306 0 13.868-9.142 20.801-27.432 20.801-8.614 0-16.632-.994-24.061-2.972z"/>
  <path d="m188.723 55.402 43.322 57.036V55.402h8.666v70.801h-9.159l-43.325-57.536v57.536h-8.662V55.402zM311.015 123.43c-5.708 2.182-11.864 3.268-18.467 3.268-25.645 0-38.47-12.293-38.47-36.885 0-23.271 12.378-34.909 37.135-34.909 7.096 0 13.7.994 19.802 2.976v7.92c-6.103-2.311-12.378-3.468-18.813-3.468-19.307 0-28.96 9.163-28.96 27.479 0 19.639 9.504 29.463 28.517 29.463 3.034 0 6.404-.396 10.103-1.193V94.02h9.154l-.001 29.41zM325.621 98.871V55.398h9.153V98.87c0 13.598 6.769 20.401 20.305 20.401 13.53 0 20.299-6.804 20.299-20.401V55.398h9.158V98.87c0 18.556-9.819 27.825-29.457 27.825-19.639 0-29.458-9.267-29.458-27.824zM447.071 118.775v7.424H400.88V55.398h9.154v63.377zM485.987 46.056l35.201 80.146h-10.153l-9.158-22.282H478.46l2.529-7.424h17.819l-13.216-32.088-25.302 61.794h-9.505zM530.843 126.203V55.402h30.202c13.47 0 20.196 5.659 20.196 16.982 0 9.207-6.577 16.028-19.749 20.445l24.31 33.374h-12.086l-22.521-31.835v-5.992c13.531-2.151 20.299-7.344 20.299-15.598 0-6.533-3.766-9.801-11.292-9.801h-20.2v63.226h-9.159z"/>
  <path d="M620.115 55.398v50.405c0 13.602-8.005 20.396-24.016 20.396v-7.424c9.903 0 14.856-4.33 14.856-12.973V55.398h9.16zM636.45 123.723v-8.416c7.43 2.639 15.447 3.965 24.064 3.965 12.179 0 18.271-4.459 18.271-13.373 0-7.584-4.492-11.385-13.47-11.385h-9.113c-14.817 0-22.232-6.436-22.232-19.311 0-13.531 9.491-20.303 28.478-20.303 8.249 0 15.923.998 23.022 2.976v8.418c-7.102-2.644-14.773-3.965-23.022-3.965-12.875 0-19.311 4.293-19.311 12.875 0 7.588 4.351 11.385 13.065 11.385h9.113c15.079 0 22.628 6.438 22.628 19.31 0 13.865-9.141 20.797-27.431 20.797-8.614-.001-16.633-.995-24.062-2.973z" style="fill:#a6120d"/>
  <path d="m551.851 163.994-3.363-10.225h-2.391l4.641 12.92c-.108.281-.285.709-.525 1.287-.242.578-.384.896-.421.959a1.762 1.762 0 0 1-.464.475c-.184.129-.47.193-.858.193-.125 0-.271-.013-.435-.035a7.092 7.092 0 0 1-.795-.188v1.923c.234.063.433.104.591.129.16.022.39.034.687.034 1.218 0 2.076-.351 2.575-1.054.5-.703 1.357-2.654 2.576-5.855a280.326 280.326 0 0 0 1.922-5.275 817.769 817.769 0 0 1 1.979-5.512h-2.332l-3.387 10.224zm-12.487.861c-1.521 0-2.56-.69-3.116-2.074-.298-.733-.445-1.69-.445-2.87 0-1.632.361-2.804 1.088-3.517.725-.709 1.569-1.065 2.533-1.065 1.104 0 1.941.435 2.511 1.301.569.867.853 1.961.853 3.281 0 1.485-.283 2.68-.853 3.586-.57.905-1.427 1.358-2.571 1.358zm-5.497 1.465h1.945v-1.604c.446.603.866 1.04 1.259 1.313.658.461 1.466.691 2.423.691 1.71 0 3.047-.656 4.013-1.97.965-1.313 1.446-2.96 1.446-4.944 0-2.094-.487-3.678-1.465-4.752-.977-1.074-2.249-1.611-3.816-1.611-.754 0-1.451.158-2.096.475a4.692 4.692 0 0 0-1.658 1.377v-6.246h-2.051v17.271z"/>
  <g>
    <path style="fill:#b3b3b3" d="m13.621 138.311 69.71 38.314 70.069-38.833L166.462 29.46 83.243.875.554 29.975z"/>
    <path style="fill:#a6120d" d="m83.05 167.471 62.991-34.862 12.173-96.888L83.05 10.089z"/>
    <path style="fill:#dd1b16" d="M83.049 167.471V10.086L9.833 36.183l11.197 96.889z"/>
    <path d="m103.74 93.871-20.69 9.675H61.243l-10.251 25.64-19.067.353L83.05 15.804l20.69 78.067zm-2-4.871L83.187 52.271 67.969 88.368h15.08L101.74 89z" style="fill:#f2f2f2"/>
    <path style="fill:#b3b3b3" d="M100.454 88.396H83.088l-.039 15.127 24.013.023 11.223 25.997 18.244.338-53.48-114.077.137 36.467z"/>
  </g>
  <g>
    <path d="M616.841 157.245c0 5.566-4.354 9.668-9.698 9.668s-9.7-4.102-9.7-9.668c0-5.606 4.356-9.669 9.7-9.669 5.344 0 9.698 4.063 9.698 9.669zm-4.245 0c0-3.479-2.524-5.859-5.453-5.859-2.93 0-5.453 2.38-5.453 5.859 0 3.443 2.523 5.858 5.453 5.858 2.929 0 5.453-2.42 5.453-5.858zM637.765 157.245c0 5.566-4.355 9.668-9.7 9.668-5.343 0-9.698-4.102-9.698-9.668 0-5.602 4.355-9.669 9.699-9.669 5.344 0 9.699 4.063 9.699 9.669zm-4.246 0c0-3.479-2.524-5.859-5.453-5.859-2.93 0-5.453 2.38-5.453 5.859 0 3.443 2.524 5.858 5.453 5.858 2.93 0 5.453-2.42 5.453-5.858zM657.816 148.16v17.358c0 7.14-4.21 10.056-9.189 10.056-4.686 0-7.506-3.134-8.57-5.697l3.697-1.539c.658 1.574 2.271 3.43 4.869 3.43 3.186 0 5.161-1.965 5.161-5.666v-1.39h-.148c-.95 1.172-2.781 2.196-5.092 2.196-4.834 0-9.262-4.21-9.262-9.629 0-5.457 4.428-9.703 9.262-9.703 2.306 0 4.137 1.025 5.092 2.162h.148v-1.573h4.032zm-3.731 9.12c0-3.405-2.271-5.894-5.161-5.894-2.93 0-5.384 2.49-5.384 5.893 0 3.37 2.454 5.824 5.384 5.824 2.89 0 5.16-2.454 5.16-5.824zM664.464 137.987v28.333h-4.142v-28.333h4.142zM680.6 160.427l3.296 2.197c-1.064 1.573-3.627 4.284-8.056 4.284-5.492 0-9.594-4.245-9.594-9.668 0-5.75 4.137-9.668 9.12-9.668 5.017 0 7.47 3.993 8.273 6.15l.44 1.099-12.924 5.353c.99 1.94 2.528 2.93 4.685 2.93 2.163 0 3.662-1.065 4.76-2.677zm-10.143-3.479 8.64-3.587c-.475-1.208-1.905-2.049-3.588-2.049-2.157 0-5.16 1.905-5.052 5.636zM581.769 154.73v-4.102h13.822c.135.714.205 1.56.205 2.476 0 3.077-.841 6.882-3.552 9.594-2.638 2.746-6.007 4.21-10.47 4.21-8.274 0-15.231-6.739-15.231-15.012s6.957-15.012 15.23-15.012c4.577 0 7.838 1.796 10.288 4.136l-2.895 2.895c-1.756-1.648-4.136-2.93-7.397-2.93-6.042 0-10.767 4.87-10.767 10.911 0 6.042 4.725 10.91 10.767 10.91 3.919 0 6.15-1.573 7.58-3.003 1.16-1.16 1.923-2.816 2.223-5.078l-9.803.004z"/>
  </g>
</svg>
