<svg xmlns="http://www.w3.org/2000/svg"><g style="fill:#d8d8d8;fill-rule:evenodd"><path d="M0 0v485l361 205.785V550.903L119.496 413.235V197L361 334.667V205.785L0 0zm0 0" style="fill:#002a41;stroke:#848484;stroke-width:1" transform="translate(.097 .268) scale(.17893)"/><path d="M722 0v485L361 690.785V550.903l241.504-137.668V197L361 334.667V205.785L722 0zM0 896.785v-485L361 206v139.882L119.496 483.55v205.235L361 551.118V691L0 896.785zm0 0" style="fill:#0071b5;stroke:#848484;stroke-width:1" transform="translate(.097 .268) scale(.17893)"/><path d="M722 896.785v-485L361 206v139.882L602.504 483.55v205.235L361 551.118V691l361 205.785zm0 0" style="fill:#002a41;stroke:#848484;stroke-width:1" transform="translate(.097 .268) scale(.17893)"/></g><g style="font-size:120.09580231px;font-style:normal;font-variant:normal;font-weight:400;font-stretch:normal;line-height:125%;letter-spacing:0;word-spacing:0;fill:#002a41;fill-opacity:1;stroke:none;font-family:Open Sans Light;-inkscape-font-specification:Open Sans Light"><path d="M182.526 38.79h23.515c10.594 0 18.374 1.798 23.339 5.395 4.965 3.597 7.447 9.03 7.447 16.302 0 4.965-1.515 9.1-4.544 12.403-3.03 3.303-7.458 5.424-13.283 6.362v.352c6.842 1.016 11.875 3.176 15.1 6.48 3.226 3.303 4.838 7.906 4.838 13.81 0 7.896-2.62 13.976-7.858 18.237-5.238 4.261-12.666 6.392-22.283 6.392h-26.27zm5.981 38.175h18.883c8.053 0 13.907-1.339 17.562-4.017 3.656-2.678 5.483-6.87 5.483-12.578 0-5.708-2.062-9.852-6.186-12.432-4.125-2.58-10.272-3.87-18.443-3.87h-17.299zm0 5.278v37.002h20.173c15.872 0 23.808-6.45 23.808-19.351 0-11.768-8.366-17.651-25.098-17.651zM299.103 94.264h-34.832l-11.963 30.259h-6.626l34.48-86.085h3.812l33.777 86.085h-6.744zm-32.662-5.395h30.669l-11.67-30.903c-.977-2.424-2.15-5.786-3.518-10.087-1.056 3.754-2.21 7.155-3.46 10.204zM366.423 42.954c-10.751 0-19.215 3.44-25.392 10.32-6.176 6.88-9.265 16.303-9.265 28.265 0 12.236 2.913 21.736 8.738 28.5 5.825 6.763 14.152 10.144 24.98 10.144 7.194 0 13.8-.918 19.821-2.756v5.278c-5.669 1.994-12.745 2.99-21.228 2.99-12.04 0-21.521-3.89-28.44-11.67-6.92-7.779-10.38-18.647-10.38-32.603 0-8.718 1.652-16.4 4.955-23.046 3.304-6.646 8.054-11.777 14.25-15.393 6.196-3.616 13.4-5.424 21.609-5.424 8.366 0 15.852 1.564 22.46 4.69l-2.405 5.396c-6.255-3.128-12.823-4.691-19.703-4.691zM462.065 124.523h-7.33l-32.897-45.27-11.435 10.085v35.185h-5.981V38.79h5.981v44.567l9.5-9.5 33.6-35.067h7.624l-35.125 36.24zM474.321 38.79h23.515c10.595 0 18.374 1.798 23.34 5.395 4.964 3.597 7.446 9.03 7.446 16.302 0 4.965-1.514 9.1-4.544 12.403-3.03 3.303-7.457 5.424-13.282 6.362v.352c6.841 1.016 11.874 3.176 15.1 6.48 3.225 3.303 4.837 7.906 4.838 13.81 0 7.896-2.62 13.976-7.858 18.237-5.239 4.261-12.667 6.392-22.284 6.392h-26.27zm5.982 38.175h18.882c8.053 0 13.907-1.339 17.563-4.017 3.655-2.678 5.483-6.87 5.483-12.578 0-5.708-2.063-9.852-6.187-12.432-4.124-2.58-10.272-3.87-18.442-3.87h-17.3zm0 5.278v37.002h20.172c15.872 0 23.808-6.45 23.808-19.351 0-11.768-8.366-17.651-25.098-17.651zM621.685 81.54c0 13.604-3.401 24.364-10.203 32.28-6.803 7.917-16.185 11.875-28.148 11.875-11.924 0-21.286-3.958-28.089-11.874-6.802-7.917-10.203-18.716-10.203-32.4 0-13.643 3.43-24.384 10.291-32.222 6.861-7.838 16.234-11.758 28.118-11.758 11.963 0 21.326 3.94 28.09 11.816 6.762 7.878 10.144 18.638 10.144 32.282zm-70.134 0c0 12.274 2.736 21.764 8.21 28.47 5.473 6.704 13.33 10.056 23.573 10.056 10.32 0 18.208-3.323 23.662-9.969 5.453-6.646 8.18-16.165 8.18-28.558 0-12.354-2.727-21.824-8.18-28.411-5.454-6.588-13.302-9.881-23.545-9.881-10.203 0-18.07 3.323-23.602 9.969-5.532 6.646-8.298 16.087-8.298 28.323zM703.664 124.523h-6.04l-50.782-76.116h-.47c.47 9.07.704 15.911.704 20.524v55.592h-5.746V38.79h5.98l50.725 75.998h.352c-.352-7.037-.528-13.722-.528-20.055V38.79h5.805zM774.737 124.523h-46.854V38.79h46.854v5.512h-40.873v32.429h38.586v5.512h-38.586v36.767h40.873zM791.625 119.949c0-3.832 1.564-5.747 4.691-5.747 3.206 0 4.809 1.915 4.809 5.747 0 3.83-1.603 5.746-4.809 5.746-3.127 0-4.69-1.915-4.69-5.746zM808.807 146.16c-3.597 0-6.548-.527-8.855-1.582v-5.16c3.05.781 5.962 1.172 8.738 1.172 9.46 0 14.19-5.16 14.19-15.481V38.79h5.982v85.733c0 14.425-6.685 21.638-20.055 21.638zM899.993 102.415c0 7.154-2.63 12.823-7.887 17.006-5.258 4.183-12.246 6.274-20.964 6.274-10.477 0-18.511-1.153-24.101-3.46v-5.98c6.176 2.619 14.054 3.928 23.632 3.928 7.037 0 12.617-1.612 16.742-4.838 4.124-3.225 6.186-7.457 6.186-12.695 0-3.245-.684-5.933-2.052-8.063-1.369-2.131-3.597-4.076-6.685-5.835-3.089-1.76-7.624-3.655-13.605-5.688-8.757-3.01-14.807-6.265-18.15-9.764-3.342-3.499-5.013-8.16-5.013-13.986 0-6.411 2.512-11.64 7.535-15.686 5.024-4.046 11.484-6.07 19.381-6.07 8.053 0 15.618 1.525 22.694 4.575l-2.17 5.16c-7.115-2.971-13.917-4.457-20.407-4.457-6.333 0-11.376 1.466-15.129 4.398-3.753 2.932-5.63 6.92-5.63 11.963 0 3.167.577 5.766 1.73 7.8 1.154 2.032 3.04 3.86 5.66 5.482 2.619 1.623 7.114 3.567 13.487 5.835 6.685 2.306 11.708 4.544 15.07 6.714 3.362 2.17 5.815 4.633 7.36 7.389 1.544 2.756 2.316 6.089 2.316 9.998z"/></g></svg>