<svg version="1.1" id="Layer_1" xmlns="http://www.w3.org/2000/svg" xmlns:xlink="http://www.w3.org/1999/xlink" x="0" y="0" viewBox="0 0 542.6 85.1" style="enable-background:new 0 0 542.6 85.1" xml:space="preserve"><style>.eng0{fill:#3b62de}</style><path class="eng0" d="M146.4 58.1c1 0 1.8.8 1.8 1.8v4.8c0 1-.8 1.8-1.8 1.8H117c-1 0-1.8-.8-1.8-1.8V21.4c0-1 .8-1.8 1.8-1.8h28.9c.5 0 .9.2 1.3.5.3.3.5.8.5 1.3v4.8c0 1-.8 1.8-1.8 1.8h-21.7v10.6h20.2c1 0 1.8.8 1.8 1.8v4.8c0 1-.8 1.8-1.8 1.9h-20.2v11.1l22.2-.1zM186.9 66.4c-.6 0-1.3-.2-1.7-.6l-.9-.9L165.5 37v27.6c0 1-.8 1.8-1.8 1.8h-5.4c-1 0-1.8-.8-1.8-1.8V21.3c0-1 .8-1.8 1.8-1.8h4.7c.6 0 1.3.2 1.7.6l.9.9 18.8 28V21.4c0-1 .8-1.8 1.8-1.8h5.4c1 0 1.8.8 1.8 1.8v43.3c0 1-.8 1.8-1.8 1.8l-4.7-.1zM202.2 36.9c.1-2.5.6-5 1.5-7.3.9-2.2 2.2-4.1 3.9-5.7 1.8-1.6 3.9-2.9 6.3-3.7 6-1.8 12.4-1.7 18.3.2 2.2.8 4.2 2 6 3.6 1.4 1.2 2.4 2.7 3.1 4.4.5 1.2.9 2.5 1 3.8.1.5-.1 1-.5 1.3-.4.3-.8.5-1.3.5H235c-.4 0-.8-.1-1.2-.4-.3-.2-.5-.5-.6-.8-.1-.2-.3-.6-.7-1.2-.5-.7-1.1-1.4-1.8-1.9-1-.7-2.1-1.3-3.2-1.8-1.6-.6-3.3-.8-5-.8-2.9-.1-5.8.8-8 2.7-2 1.9-3.2 4.5-3.2 7.3-.1 1.7-.1 3.5-.1 5.5s.1 3.8.1 5.5c.1 3.7 1.2 6.4 3.2 8.1 2.3 1.8 5.1 2.7 8 2.5 1.5 0 3.1-.2 4.6-.5 1.3-.3 2.5-.9 3.6-1.7 1-.8 1.8-1.9 2.4-3.2.6-1.5.9-3.2.8-4.8V48h-8.2c-1 0-1.8-.8-1.8-1.8v-4.7c0-.5.2-.9.5-1.3.3-.3.8-.5 1.3-.5H241c.5 0 .9.2 1.3.5.3.3.5.8.5 1.3v7.4c0 2.5-.4 5-1.3 7.4-.8 2.2-2.1 4.2-3.8 5.8-1.8 1.7-4 3-6.4 3.8-5.8 1.8-12 1.8-17.8 0-2.3-.8-4.4-2.1-6.2-3.8-1.7-1.6-3-3.6-3.8-5.8-.9-2.4-1.4-4.9-1.4-7.4 0-.8-.1-1.8-.1-2.8V39.8c.1-1.1.1-2.1.2-2.9zM253.1 66.4c-1 0-1.8-.8-1.8-1.8V21.4c0-1 .8-1.8 1.8-1.8h5.4c1 0 1.8.8 1.8 1.8v43.3c0 1-.8 1.8-1.8 1.8h-5.4zM301.2 66.4c-.6 0-1.3-.2-1.7-.6l-.9-.9L279.8 37v27.6c0 1-.8 1.8-1.8 1.8h-5.4c-1 0-1.8-.8-1.8-1.8V21.3c0-1 .8-1.8 1.8-1.8h4.7c.6 0 1.3.2 1.7.6l.9.9 18.8 28V21.4c0-1 .8-1.8 1.8-1.8h5.4c1 0 1.8.8 1.8 1.8v43.3c0 1-.8 1.8-1.8 1.8l-4.7-.1zM349.4 58.1c1 0 1.8.8 1.8 1.8v4.8c0 1-.8 1.8-1.8 1.8H320c-1 0-1.8-.8-1.8-1.8V21.4c0-1 .8-1.8 1.8-1.8h28.9c1 0 1.8.8 1.8 1.8v4.8c0 1-.8 1.8-1.8 1.8h-21.7v10.7h20.2c1 0 1.8.8 1.8 1.8v4.8c0 .5-.2.9-.5 1.3-.3.3-.8.5-1.3.5h-20.2v11.1h22.2zM408.5 19.5c1 0 1.8.8 1.8 1.8 0 .2 0 .4-.1.6l-15.9 27.9v14.7c0 1-.8 1.8-1.8 1.8h-5.4c-1 0-1.8-.8-1.8-1.8V49.9L369.4 22c-.1-.2-.1-.4-.1-.6 0-.5.2-.9.5-1.3s.8-.5 1.3-.5h5c.7-.1 1.4.2 2 .7.3.3.6.6.8 1l10.9 19 10.9-19c.2-.4.5-.7.8-1 .5-.5 1.3-.7 2-.7l5-.1zM434.1 19.5c.6 0 1.2.2 1.6.6.4.5.7 1.1.9 1.7L453 64.2c.3 1-.3 2-1.3 2.2-.1 0-.3.1-.4.1h-4.8c-.7.1-1.4-.1-1.9-.6-.3-.3-.6-.7-.7-1.1l-2.8-7.4h-21.2l-2.9 7.4c-.2.4-.4.8-.7 1.1-.5.4-1.2.6-1.9.6h-4.8c-.5 0-.9-.2-1.3-.5-.3-.3-.5-.8-.5-1.3 0-.2 0-.3.1-.5l16.4-42.3c.2-.6.5-1.2.9-1.7.4-.4 1-.6 1.6-.6h7.3zm3.7 29.5-7.4-19.1L423 49h14.8zM478.3 19.5c5.6 0 9.8 1.3 12.7 3.9s4.4 6.2 4.4 10.8c.1 2.9-.7 5.8-2.3 8.3-1.6 2.4-3.9 4.2-6.6 5.1l9.3 16.5c.1.2.2.5.2.7 0 .8-.7 1.5-1.5 1.5h-5.7c-.7.1-1.4-.2-2-.6-.4-.3-.7-.7-.9-1.2L477.1 49h-8.9v15.6c0 1-.8 1.8-1.8 1.8H461c-1 0-1.8-.8-1.8-1.8V21.3c0-1 .8-1.8 1.8-1.8h17.3zm-10.1 21.1h9.8c2.1.1 4.2-.4 6.1-1.3 1.5-.9 2.3-2.6 2.3-5.1s-.8-4.2-2.3-5c-1.9-.9-4-1.3-6.1-1.2h-9.7l-.1 12.6zM522.5 19.5c2.9-.1 5.8.4 8.6 1.3 4.6 1.5 8.2 5 9.8 9.5.9 2.4 1.4 5 1.6 7.6.2 3.3.2 6.6 0 9.9-.1 2.6-.7 5.2-1.6 7.6-.8 2.2-2.1 4.2-3.7 5.8-1.7 1.7-3.8 2.9-6 3.7-2.7.9-5.6 1.4-8.4 1.3h-16.9c-1 0-1.8-.8-1.8-1.8v-43c0-1 .8-1.8 1.8-1.8l16.6-.1zM533.4 38c-.1-1.4-.4-2.7-.8-4-.5-1.2-1.2-2.3-2.1-3.2-1-1-2.2-1.7-3.5-2.2-1.6-.5-3.3-.8-5-.8h-9V58h9.3c1.6 0 3.2-.2 4.8-.8 1.3-.4 2.4-1.2 3.3-2.1.9-.9 1.6-2 2-3.2.5-1.3.8-2.6.8-4 .3-3.3.3-6.6.2-9.9z"/><defs><path id="SVGID_1_" d="M24.5 42.6c0-10 8.1-18.1 18.1-18.1s18.1 8.1 18.1 18.1-8.1 18.1-18.1 18.1c-10 0-18.1-8.1-18.1-18.1m-24.4 0c0 23.5 19 42.5 42.5 42.5s42.5-19 42.5-42.5S66.1.1 42.6.1C19.2.1.2 19.1.1 42.6"/></defs><clipPath id="SVGID_2_"><use xlink:href="#SVGID_1_" style="overflow:visible"/></clipPath><g style="clip-path:url(#SVGID_2_)"><linearGradient id="SVGID_3_" gradientUnits="userSpaceOnUse" x1="-2005.088" y1="2208.046" x2="-2003.868" y2="2208.046" gradientTransform="scale(-70.05 70.05) rotate(-67.42 -2656.823 -397.368)"><stop offset="0" style="stop-color:#477cd8"/><stop offset=".16" style="stop-color:#4573d2"/><stop offset=".43" style="stop-color:#3f5bc2"/><stop offset=".76" style="stop-color:#3633a7"/><stop offset="1" style="stop-color:#2f1391"/></linearGradient><path style="fill:url(#SVGID_3_)" d="M-30 12.6 72.6-30l42.6 102.5-102.6 42.7z"/></g><g><defs><path id="SVGID_4_" d="m51.3 13.1-8.7 11.4c10 .2 17.9 8.5 17.6 18.5-.2 9.7-8 17.4-17.6 17.6L31.7 73l10.9 12c23.5.5 42.9-18 43.5-41.5C86.6 20.1 68 .6 44.6.1H42.7l8.6 13z"/></defs><clipPath id="SVGID_5_"><use xlink:href="#SVGID_4_" style="overflow:visible"/></clipPath><g style="clip-path:url(#SVGID_5_)"><linearGradient id="SVGID_6_" gradientUnits="userSpaceOnUse" x1="-2006.318" y1="2238.94" x2="-2005.098" y2="2238.94" gradientTransform="scale(-56.67 56.67) rotate(74.48 468.886 2438.418)"><stop offset="0" style="stop-color:#2055da"/><stop offset=".11" style="stop-color:#2055da"/><stop offset="1" style="stop-color:#00bff6"/></linearGradient><path style="fill:url(#SVGID_6_)" d="m9.7 79 25.8-92.7L107 6.2 81.3 98.9z"/></g></g><circle cx="42.5" cy="42.5" r="42.5" style="fill:none"/></svg>