<svg version="1.1" id="Слой_1" xmlns="http://www.w3.org/2000/svg" x="0" y="0" viewBox="0 0 1684 2500" style="enable-background:new 0 0 1684 2500" xml:space="preserve">
  <style>
    .st2{fill:#cde9ee}.st3{fill:#abd8d7}.st5{fill:#545352}.st6{fill:#6e7979}.st7{fill:#fff}.st8{fill:#474746}
  </style>
  <path d="M1683 2395.7c0 56.4-376.7 102.2-841.3 102.2C377 2497.9.4 2452.2.4 2395.7c0-56.4 441.9-102.2 841.3-102.2 475.5.1 841.3 45.8 841.3 102.2" style="fill:#1a4658"/>
  <path d="M1630.9 1658.6c-26 0-54.1-12-74.1-104.2-20-92.1-50.1-186.3-50.1-186.3 32.1 0 50.1-14 50.1-14-22-10-70.1-44.1-102.2-86.1-32-42.1-114.2-110.2-114.2-110.2v-136.2c0-92.2 59.1-164.3 59.1-164.3-40.1 0-59.1 36-59.1 36V699.1c0-192.3 97.1-278.4 97.1-278.4-30-2-50.1 12-50.1 12 14-142.2 57.6-184.3 57.6-184.3-160.2-42.1-249.6 52.1-249.6 52.1-18-86.1 52.5-136.2 52.5-136.2-82.1-18-150 6-150 6 0-126.2 50.2-168.3 50.2-168.3-250.4 0-392.6 188.3-392.6 188.3-10-80.1 12-150.3 12-150.3-242.3 102.1-306.4 328.3-306.4 328.3-16-38.1-18-124.5-18-124.5s-100.2 167.8-118.2 284c-18 116.2 16 449.7 16 449.7s-16-20-50.1-24c0 0 36 40.1 36 130.2 0 0-14-12-38.1-6 0 0 38.1 34 42.1 92.1 0 0-44.1 30-68.1 60.1 0 0-38.1 2-58.1 8 0 0 32.1 18 38.1 34.1 0 0-94.1 96.2-142.2 174.3 0 0 42.1-26 72.1-18 0 0-66.1 80.1-88.1 212.3 0 0 32-16 46.1-8 0 0-40.1 84.1-42.1 172.3l-44.1 26 34.1 24s-26 108.2-32.1 170.3c0 0 20-20 36.1-26 0 0 22 52.1 52.1 92.1 30 40.1 98.2 74.1 138.2 74.1l75.3-2.9c-9.3 40.3-27.8 74.5-66.6 76.3l-4.3 6.9c-.8-.1-1.6-.1-2.4-.1-.8 11.8-24.5 13.9-31 22-19.9 24.8-35 58.8-45.1 89.1-7.4 22.2-3.9 22.2-9 45.1-1.7 7.5-9.4 15.5-12 23 21.6-7.3 81.6-12.1 113.1-14.4l.5 27.9s5.2 4.8 13.8 8.4c.3-.1.6-.1.9-.1 2.9.2 5.8.7 8.5 1.4 47.4-4.2 80.4 3.7 135.3-.8 10.7-1.3 20.7-2.8 30.1-8.1 2.7-8 3-8.4 4.3-18.7.3-1.8.3-3.7.7-5.9.9-.1 1.7-.3 2.5-.4.6-.2 1.3-.3 2-.3.2-.1.4-.2.7-.2l2.6-.2c.5-.2 1.1-.3 1.7-.1 9.9-.9 25.9-1.7 35.8-2.3 32.3-.1 74.8 3.7 74.8 3.7 2.6-36.2 5.3-92.4 63.8-256.2l14.5-9s180 63.4 346.9-2.6c13.2 32.5 56 141.8 62.7 210.7 5.7 8.1 5.1 18.3 5.3 29.2.2 9.2.9 18.4 1.2 27.5 6-.8 27.7-3.5 55.1-3.4 9.9.5 25.9 1.4 35.8 2.3.6-.1 1.2-.1 1.7.1l2.6.2c.3 0 .5.1.7.2.7 0 1.3.1 2 .3.8.1 1.7.2 2.5.4.4 2.2.4 4.1.7 5.9 1.2 10.3 1.6 10.7 4.3 18.7.9.5 1.7.9 2.6 1.3 29.9-3.8 60.2-4.5 90.3-3.1 23.7 1.1 46.9 5.6 70.2 9.8v.7l6.9.6c12.5 2.2 25 4.3 37.6 5.7.2-15.8.2-29.6-.2-41.7 25.1 1.2 61.4 6.2 76.6 8.4 6.1 1.4 11 2.3 16.1 3.4l2.1.6-.1-.2c5.2 1.2 10.7 2.6 18.1 5.2-1.1-13.6-1-13.3-2.8-30.3-1.4-13.1-10.8-53.1-28.4-69.5 0 0 19.2 8.3 25.1 11.6-18.9-25.7-28.1-62.3-87.6-87.6 0 0 10.9-5.1 20.8-6.4-10.4-6.4-18.3-8.9-28.8-8.2 3.6-10.1 19.3-35.7 32.5-39 0 0-8.1-5.6-21.3-1.3-5 2.6-9.8 5.4-14.3 8.6-1.7 1.2-4.3 0-4.8-2-4.2-15.4-6.9-31-9.3-46.7 119.9-4.3 136.7-65.8 136.7-65.8 10 8 10 26 10 26 52.1-68.1 46.1-136.2 46.1-136.2 12 2 22 10 22 10 6-104.2-26-282.4-26-282.4 16 8 26-2 26-2-18-8-20-28-20-28 26 2.1 30-21.9 30-21.9" style="fill:#edf7fa"/>
  <path class="st2" d="M484.9 2414.3s4.7-50.7-11.8-87.2c0 0 31.3 2.1 36.5 84.8.1 0-21.9 2.5-24.7 2.4m-157-170.8.2-1.6c.1.8.1 1.4-.2 1.6m29.3 166.9-.3-.1.4-1-.1 1.1"/>
  <path class="st2" d="M755.5 190.2c-10-80.1 12-150.3 12-150.3-242.3 102.2-306.4 328.4-306.4 328.4-16-38.1-18-124.5-18-124.5s-100.2 167.8-118.2 284c-18 116.2 16 449.7 16 449.7s-16-20-50.1-24c0 0 36 40.1 36 130.2 0 0-14-12-38.1-6 0 0 38.1 34 42.1 92.1 0 0-44.1 30-68.1 60.1 0 0-38.1 2-58.1 8 0 0 32.1 18 38.1 34.1 0 0-94.1 96.2-142.2 174.3 0 0 42.1-26 72.1-18 0 0-66.1 80.1-88.1 212.3 0 0 32-16 46.1-8 0 0-40.1 84.1-42.1 172.3l-44.1 26 34.1 24s-26 108.2-32.1 170.3c0 0 20-20 36.1-26 0 0 22 52.1 52.1 92.1 30 40.1 98.2 74.1 138.2 74.1l5.1-.7c-2.2 13.8-4.7 27.6-8.4 41.1-.5 1.9-3.1 3.2-4.8 2-4.6-3.2-9.4-6.1-14.3-8.6-13.2-4.3-21.3 1.3-21.3 1.3 13.2 3.3 28.9 28.9 32.5 39-10.5-.8-18.4 1.7-28.8 8.1 9.9 1.3 20.8 6.4 20.8 6.4-59.5 25.3-68.7 62-87.6 87.6 5.9-3.3 25.1-11.6 25.1-11.6-17.6 16.5-27 56.4-28.4 69.5-1.8 17-1.7 16.7-2.8 30.3 15.8-5.5 23.4-6 36.2-9.1 19.7-2.9 74.8-10.4 95.1-8.3l-3.2 38.9h1c10.4-3 18.9-2.6 28.1-3.6.1-10.7.7-21.5 1.6-32.2-.6-18.3 1.7-34.9 5.4-53.5.1-.6.3-1.3.4-1.9 7.4-25.3 20.1-39.7 28.5-48.6 2.8-2.9 5.2-6.4 7.2-10 5.9-7.9 10.7-16.7 14.1-26 8.2-22.5 4.7-71.8-11.8-120 17.4 25.1 33.3 47.1 40.9 54.7l-.5-61.3s32 32 60.7 56.2c13.8 12.1 30.8 27.7 42.9 34 .9.6 1.7-5.3 2.6 3.5.1 0 .2-1.7.4-1.7 16.2 9.1 33 16.4 48.6 26.5 1.7 1.1 3.4 1.6 5 2.7 7.2 5 20 10.5 31.4 16.6l10.8 127.9c9.8-134.5 86.4-263.2 86.4-263.2l-2.8-.9c-23.7-7.3-197.2-67.3-299.7-281.6-6.7-14.1 38.1 16 38.1 16-42.1-102.2-58.1-266.4-58.1-266.4 14 12 28 14 28 14-30-84.1-42.1-188.3-42.1-282.4-8-506.8 179.3-623 179.3-623-32-12-66.1-11-66.1-11 37.1-89.1 160.2-213.3 160.2-213.3-33 2-162.2 37.1-162.2 37.1 107.2-279.4 215.3-353.5 215.3-353.5-8 67.1 18 138.2 18 138.2 232.4-287.5 419.1-274 419.1-274 13.8-28.8 29.6-48.5 29.6-48.5-250.6-.2-392.8 188.1-392.8 188.1m656.8 2222.5s-2.3-72.6-18.8-109.2c0 0 43.1 26.5 42.8 110.4.1.1-21.2-1.1-24-1.2"/>
  <path class="st3" d="M291.8 2039.3c28.4-277.8 36.1-821.4 36.1-821.4-61.6 121.7-111.2 342.5-111.2 342.5l12 48.1-27-12c-43.5 150.8-14.1 352.8-4.3 409.6 27.6 21.9 60.5 29.3 94.4 33.2m-58.1-6c8.7 44 18.1 87.8 28.1 131.5 7.5 1.1 16 .6 16 .6 6.9-26.9 8-68.4 13.4-119.6-19.8-2.4-39.2-5.9-57.5-12.5"/>
  <path class="st2" d="M1175.1 2272.7c-1.3.5-2.8-.1-3.5-1.4-3.1.6-5.5 1.2-7.1 1.6 41.3-30.1 45.1-61.9 45.1-61.9-27.4 12.4-56.5 17-70.7 18.6 95.5-82.8 111.4-236.5 111.4-236.5-39.1 48-94.6 88.6-137.6 115.9l.1-.2s-28.7 16.1-55.3 28.6c-1.3-.2-2.6.4-3.2 1.5-13.6 6.3-26.4 11.5-33.9 12.7 0 0 22.1 40.9 31.4 62.9l-1.8 1.5s32 75.6 43.7 148.9c1.2 12.4 2.2 23.2 2.8 31.5.6 10.7 1.3 18.1 1.3 18.1 42.3-6.3 102.1-.2 102.1-.2-.3 6.9 3.5 23.4 4.2 26.4 20.1-2.7 40.4-3.9 60.7-4.1-.3-70.9-3.4-188.9-89.7-163.9"/>
  <path d="M289.6 2060.7c-66.4-11.2-126.6-87.5-126.6-87.5 48.4 51.4 108.6 58.3 108.6 58.3 8-58.8-40.6-193.3-40.6-193.3 36 44.8 55.7 96.6 66.4 139l-7.8 83.5" style="fill:#83bac0"/>
  <path class="st3" d="M440.2 1956.6s52.2 92 98 131.8c49.5 43 95.4 103.7 114.9 140.5 0 0 24.8-57.6 38.3-77.6 0 0-146.4-42.9-251.2-194.7m681.4 179.5c7.3-10.2 15.6-19.7 23.5-29.4 13-15.9 27.8-31.3 38.7-48.7-18.8 14.1-39.8 26.3-61.2 39.2-62.2 42.1-105.5 54.1-105.5 54.1 13.5 20 38.3 77.6 38.3 77.6 11.8-22.3 33.4-53.3 59.4-83.9 2.2-3 4.7-5.9 6.8-8.9"/>
  <path class="st5" d="M420.4 586.3c-5.7.4-23.9.9-23.9.9C231.3 598.7 110 470.8 110 470.8s-11 99.9 60.8 187.4C242.5 745.7 388 760.7 388 760.7c4.7 20.5-5.5 66.1-5.5 66.1s42.5-47 53.3-136.2c7.6-62.4-11.9-104.5-15.4-104.3"/>
  <path class="st6" d="M420.4 586.3c-5.5.3-23.9.9-23.9.9C231.3 598.7 110 470.8 110 470.8s75.5 218.4 327.4 201.1c-.1-.1 6.9-40.4-17-85.6"/>
  <path class="st5" d="M1245 586.3c5.7.4 23.9.9 23.9.9 165.2 11.5 286.5-116.4 286.5-116.4s10.9 99.9-60.9 187.4-217.2 102.5-217.2 102.5c-4.7 20.5 5.5 66.1 5.5 66.1s-42.5-47-53.3-136.2c-7.5-62.4 11.9-104.5 15.5-104.3"/>
  <path class="st6" d="M1245 586.3c5.5.3 23.9.9 23.9.9 165.2 11.5 286.5-116.4 286.5-116.4s-75.4 218.3-327.4 201c0 0-7-40.3 17-85.5"/>
  <path class="st2" d="M334.2 1326s-118.7 426.7 0 700.1V1326m1182 675c-58.6 44.7-119.6 47.5-119.6 47.5-2.7-58.4 61.1-186.1 61.1-186.1-13.6 8-25.7 18.3-35.8 30.3l-.4-42.9 46.1-38.1-37-30 47.1-189.3-45.1 30s-14-269.4-4-385.6c0 0-57.1-57.1-85.1-80.1 0 0 5.3 83 11.3 215.5 25.6 106.3 65.3 326.3 15.9 519.9.6 39.2 1 79.1 1.2 119.3 0 0 24.6 85.6 32.6 145.7 0 0 8 2.3 20 .3l-.9-92c62-18.8 92.6-64.4 92.6-64.4m-555.3-826.2c0 45.5 29.1 82.4 65.1 82.4 36 0 65.1-36.9 65.1-82.4 0-45.5-29.2-82.4-65.1-82.4-36 0-65.1 36.9-65.1 82.4"/>
  <path class="st7" d="M962.9 1152.8c0 44.8 28.7 81.1 64.1 81.1 35.4 0 64.1-36.3 64.1-81.1s-28.7-81.1-64.1-81.1c-35.4-.1-64.1 36.3-64.1 81.1"/>
  <path class="st8" d="M1009.9 1110.9c-.5 2-.8 4.2-.9 6.3 0 11.4 7.4 20.7 16.6 20.7 8.2 0 14.9-7.3 16.3-17 5.2 6.9 8.5 16.1 8.5 26.3 0 21.2-13.8 38.3-30.8 38.3s-30.8-17.1-30.8-38.3c.1-16.8 8.9-31.2 21.1-36.3"/>
  <path class="st2" d="M648.4 1174.8c0 45.5 29.1 82.4 65.1 82.4 36 0 65.1-36.9 65.1-82.4 0-45.5-29.1-82.4-65.1-82.4-36 0-65.1 36.9-65.1 82.4"/>
  <path class="st7" d="M650.4 1152.8c0 44.8 28.7 81.1 64.1 81.1 35.4 0 64.1-36.3 64.1-81.1s-28.7-81.1-64.1-81.1c-35.4-.1-64.1 36.3-64.1 81.1"/>
  <path class="st8" d="M709.5 1110.9c-.6 2-.8 4.2-.9 6.3 0 11.4 7.4 20.7 16.6 20.7 8.2 0 14.9-7.3 16.3-17 5.2 6.9 8.5 16.1 8.5 26.3 0 21.2-13.8 38.3-30.8 38.3s-30.8-17.1-30.8-38.3c0-16.8 8.8-31.2 21.1-36.3"/>
  <path class="st5" d="M1195.4 1239.4c-4.1 12.3-18 15.6-57.5 23.2l-2.7.5c-38.7 7.4-107.9 6.5-145.9.9-1.6-.2-3.1-.5-4.7-.7-35.1-5.9-39.1-10.5-50.5-28.7-11.7-18.9-18.8-74.2-20.2-85.1l-.1-.6c-1.4-11.5-2.1-17.3 12.7-23.9 19.9-8.9 108.4-21.4 144.7-23.1 28.6-1.3 89.3 2.7 117 6.8 4.4.6 7.6 1.2 9.6 1.8 3.2.8 14.9 6.6 14.3 19.1-.5 16.4-11.2 93.2-16.7 109.8zM809.5 1149l-.1.6c-1.3 10.9-8.5 66.3-20.2 85.1-11.3 18.2-15.3 22.8-50.5 28.7-1.5.3-3.1.5-4.7.7-37.9 5.5-107.1 6.5-145.9-.9l-2.7-.5c-39.5-7.6-53.4-10.9-57.5-23.2-5.5-16.6-16.1-93.4-16.9-109.9-.6-12.5 11.2-18.2 14.4-19.1 2-.5 5.2-1.1 9.6-1.8 27.7-4.1 88.4-8 117-6.8 36.3 1.6 124.7 14.1 144.7 23.1 14.9 6.6 14.2 12.4 12.8 24zm436.7-73.2c-29-4.2-79.7-9.1-140.5-6-79.1 4.1-147 15.1-187.5 21.6-12.1 2-21.6 3.5-28.8 4.5l-7.9 1.1c-8.9 1.2-14.7 2-19.7 2.2-5-.2-10.8-1-19.7-2.2l-7.9-1.1c-7.2-1-16.7-2.5-28.8-4.5-40.5-6.6-108.3-17.6-187.5-21.6-60.8-3.1-111.5 1.7-140.5 6 0 0-31 3.9-57.5 15.1l5.1 33.7s28-6.7 55.3-10.3c5.1 47.5 15 108.5 15 108.5l.2 1.9c.7 3.1 1.4 6.1 2.2 9.3 5.6 24 11.2 38.1 33.7 46.6 22.1 8.3 74.4 16.1 127.1 18.8 19.6 1 41.9-.2 64.4-3.5 33.4-4.9 63.6-13.9 75.1-22.4 16.8-12.4 25.8-43.6 31.7-64.3l1.8-6.1c2.1-7 3.9-14.4 5.7-21.6 2.5-10.3 5.2-20.9 7.4-24.6.4-.6 2.3-2.9 9.6-3.9a58.145 58.145 0 0 1 15.2 0c7.3 1.1 9.2 3.3 9.6 3.9 2.2 3.7 4.9 14.3 7.4 24.6 1.8 7.2 3.6 14.6 5.7 21.6l1.8 6.1c5.9 20.7 14.9 51.9 31.7 64.3 11.5 8.5 41.7 17.5 75.1 22.4 22.5 3.3 44.8 4.5 64.4 3.5 52.7-2.7 105-10.4 127.1-18.8 22.5-8.5 28.1-22.6 33.7-46.6.8-3.3 1.4-6.2 2.2-9.3l.2-1.9s9.9-61 15-108.5c27.3 3.7 55.3 10.3 55.3 10.3l5.1-33.7c-26.5-11.1-57.5-15.1-57.5-15.1z"/>
  <path d="M733.6 990.6s-72.4-34.5-113.9 29.6c0 0-4.3-63.8 54.2-70.9 58.5-7.2 59.7 41.3 59.7 41.3m-27.2-93.7s-67.1-31.7-97.7 29.2c0 0-10-53.2 37.9-66 47.9-12.9 59.8 36.8 59.8 36.8M993 1029.7s56.2-26.8 88.4 23c0 0 3.3-49.5-42.1-55.1-45.4-5.6-46.3 32.1-46.3 32.1m39.9-88.7s56.9-9.2 66.6 42.8c0 0 18.9-37.5-14.1-57.4-32.9-20-52.5 14.6-52.5 14.6" style="fill:#a0d1de"/>
  <path d="M728.5 1495.7s39.7-26.7 63.2-30.4c0 0 5.1 50.4 28.4 75.2 0 0 50.3-45.3 100-48.6 0 0 12.8 27.6 33.7 37.9l-.1.3c7.5 4.7 16.7 9.4 25.7 11.4 0 0 28.5-17.3 36.8-48.8 0 0 2.7 66.6-39.1 102.9 0 0-31.9-15.6-54.8-40.5-6.9-6.7-14.1-14.5-17.6-20.9 0 0-73.8 52.2-76.5 81.9 0 0-53.2-51.9-71.4-91.9 0 0-35.5 11.2-45.4 18.4 0 0-28.6-46.7-34.4-88.9.1.3 34.5 33.1 51.5 42" style="fill:#b2dce5"/>
  <path class="st5" d="M862.6 1364.8c-2.9-.6 74.8 5.4 151.2 2.7 0 0 4.1-14.6 9.9-22.6 0 0-1.3 24.5 5.6 29.5 0 0-38.2 15-76.7 14.9 0 0 42-7 56.1-14.3-.1.1-76.7 4.4-146.1-10.2"/>
</svg>
