<svg version="1.1" id="Слой_1" xmlns="http://www.w3.org/2000/svg" x="0" y="0" viewBox="0 0 273 114" style="enable-background:new 0 0 273 114" xml:space="preserve">
  <style>
    .git0{fill:#413000}
  </style>
  <path class="git0" d="M163.6 38.8c-6 0-10.4 2.9-10.4 10 0 5.3 2.9 9 10.1 9 6.1 0 10.2-3.6 10.2-9.2 0-6.4-3.7-9.8-9.9-9.8zm-12 49.9c-1.4 1.7-2.8 3.6-2.8 5.8 0 4.3 5.5 5.7 13.2 5.7 6.3 0 14.9-.4 14.9-6.3 0-3.5-4.1-3.7-9.4-4l-15.9-1.2zm32.2-49.6c2 2.5 4 6 4 11 0 12.1-9.5 19.1-23.2 19.1-3.5 0-6.6-.4-8.6-1l-3.6 5.8 10.7.7c18.8 1.2 29.9 1.7 29.9 16.2 0 12.5-11 19.6-29.9 19.6-19.7 0-27.2-5-27.2-13.6 0-4.9 2.2-7.5 6-11.1-3.6-1.5-4.8-4.2-4.8-7.2 0-2.4 1.2-4.6 3.2-6.6 2-2.1 4.1-4.1 6.7-6.5-5.3-2.6-9.4-8.3-9.4-16.3 0-12.5 8.3-21.1 24.9-21.1 4.7 0 7.5.4 10 1.1h21.2v9.2l-9.9.7M213 19.4c-6.2 0-9.8-3.6-9.8-9.8 0-6.2 3.6-9.6 9.8-9.6 6.3 0 9.9 3.4 9.9 9.6 0 6.2-3.6 9.8-9.9 9.8zm-14.1 65.3v-8.6l5.6-.8c1.5-.2 1.7-.5 1.7-2.2v-32c0-1.2-.3-2-1.4-2.3l-5.9-2.1 1.2-8.8h22.5V73c0 1.7.1 2 1.7 2.2l5.5.8v8.6l-30.9.1M273 80.5c-4.7 2.3-11.5 4.3-17.7 4.3-12.9 0-17.8-5.2-17.8-17.5V38.9c0-.7 0-1.1-.9-1.1H229v-9.7c9.6-1.1 13.4-5.9 14.6-17.7h10.3v15.5c0 .8 0 1.1.9 1.1H270v10.9h-16.2v26c0 6.4 1.5 8.9 7.4 8.9 3 0 6.2-.8 8.8-1.7l3 9.4"/>
  <path d="M111.8 52 62 2.2c-2.9-2.9-7.5-2.9-10.4 0L41.3 12.6l13.1 13.1c3-1 6.5-.3 9 2.1 2.4 2.4 3.1 6 2.1 9l12.6 12.6c3.1-1.1 6.6-.4 9 2.1 3.4 3.4 3.4 8.9 0 12.3-3.4 3.4-8.9 3.4-12.3 0-2.6-2.6-3.2-6.3-1.9-9.5L61.1 42.6v31c.8.4 1.6 1 2.3 1.7 3.4 3.4 3.4 8.9 0 12.3-3.4 3.4-8.9 3.4-12.3 0-3.4-3.4-3.4-8.9 0-12.3.8-.8 1.8-1.5 2.9-1.9V42c-1-.4-2-1.1-2.9-1.9-2.6-2.6-3.2-6.4-1.9-9.5l-12.9-13L2.1 51.7c-2.9 2.9-2.9 7.5 0 10.4l49.7 49.7c2.9 2.9 7.5 2.9 10.4 0l49.5-49.5c2.9-2.8 2.9-7.5.1-10.3" style="fill:#f05133"/>
</svg>
