<?xml version="1.0" encoding="utf-8"?>
<!-- Generator: Adobe Illustrator 24.0.0, SVG Export Plug-In . SVG Version: 6.00 Build 0)  -->
<svg version="1.1" id="Слой_1" xmlns="http://www.w3.org/2000/svg" xmlns:xlink="http://www.w3.org/1999/xlink" x="0px" y="0px"
	 viewBox="0 0 120 60" style="enable-background:new 0 0 120 60;" xml:space="preserve">
<style type="text/css">
	.he0{fill:#6762A6;}
	.he1{fill:#FFFFFF;}
</style>
<g>
	<path class="he0" d="M28.3,43.9H8.8c-1.7,0-3-1.4-3-3V15.2c0-1.7,1.4-3,3-3h19.5c1.7,0,3,1.4,3,3v25.7C31.3,42.5,30,43.9,28.3,43.9
		L28.3,43.9z"/>
	<path class="he1" d="M21.8,39.5V26.9c0,0,0.8-3-10.1,1.2c0,0.1,0-11.6,0-11.6l3.6,0V24c0,0,10-3.9,10,3v12.5
		C25.2,39.5,21.8,39.5,21.8,39.5z M23.8,21H20c1.4-1.7,2.6-4.5,2.6-4.5h3.9C26.5,16.5,25.9,18.4,23.8,21z M11.7,39.5v-7.2l3.6,3.6
		L11.7,39.5L11.7,39.5z"/>
	<path class="he0" d="M45.4,38.6V28.3c0-0.7-0.5-1-1.2-1c-1.5,0-2.9,0.3-4.3,0.9v10.4h-2.9V19.5H40v6.3c1.4-0.5,3-0.9,4.7-0.9
		c2.6,0,3.6,1.6,3.6,3.9v9.9L45.4,38.6z M53.8,32.4c0.1,3.5,0.8,4.1,2.9,4.1c1.7,0,3.6-0.6,5-1.1l0.5,2.2c-1.6,0.7-3.4,1.4-5.6,1.4
		c-4.8,0-5.6-2.7-5.6-6.9c0-2.3,0.2-4.4,0.7-6.4c1.5-0.6,3.4-0.8,5.8-0.8c4,0,5.2,2.2,5.2,6.1v1.5L53.8,32.4L53.8,32.4z M57.4,27.3
		c-0.9,0-2.3,0-3.4,0.3c-0.1,0.6-0.3,1.4-0.3,2.9h6.1C59.8,28.4,59.4,27.3,57.4,27.3L57.4,27.3z M68.1,28.2v10.4h-2.9V26.9
		c2.1-1.1,4.4-1.7,6.7-1.9v2.4C70.6,27.6,69.2,27.7,68.1,28.2L68.1,28.2z M79.6,38.9c-4.3,0-6.3-2.1-6.3-7c0-5.2,2.6-7.1,6.3-7.1
		c4.3,0,6.3,2.1,6.3,7C85.9,37,83.3,38.9,79.6,38.9z M79.6,27.3c-2.2,0-3.5,1.3-3.5,4.7c0,3.7,1,4.6,3.5,4.6c2.2,0,3.5-1.3,3.5-4.7
		C83,28.1,82,27.3,79.6,27.3L79.6,27.3z M99.9,38.6h-3.4c-0.8-2.1-1.9-4.4-3.6-6.2h-1.5v6.2h-2.9V19.5h2.9v11h1.4
		c1.4-1.5,2.6-3.3,3.4-5.3h3.3c-1.1,2.3-2.5,4.2-4.1,5.9C97,33.4,98.6,35.9,99.9,38.6L99.9,38.6z M105.3,39c-2.6,0-3.6-1.6-3.6-3.8
		v-9.9h2.9v10.3c0,0.7,0.5,1,1.2,1c1.5,0,3-0.3,4.4-0.9V25.2h2.9v11.7C109.6,38.7,107,39,105.3,39L105.3,39z"/>
</g>
</svg>
