<svg xmlns="http://www.w3.org/2000/svg" xmlns:xlink="http://www.w3.org/1999/xlink" version="1.1" id="Слой_1" x="0px" y="0px" xml:space="preserve" viewBox="110.3 584.62 2279.4 1183.78">
<style type="text/css">
	.msql0{fill-rule:evenodd;clip-rule:evenodd;fill:#00678C;}
	.msql1{fill-rule:evenodd;clip-rule:evenodd;fill:#CE8B2C;}
</style>
<g>
	<path class="msql0" d="M110.3,1663.1h75.8v-298.6L303,1624.9c13.9,31.2,32.4,42.2,69.4,42.2c37,0,55.6-11,69.4-42.2l116.9-260.4   v298.6H634v-298c0-28.9-11.6-42.8-35.3-50.4c-57.3-17.9-96.1-2.3-113.4,36.5l-114.6,256.4l-111.1-256.4   c-16.8-38.8-56.1-54.4-113.4-36.5c-24.3,7.5-35.9,21.4-35.9,50.4L110.3,1663.1L110.3,1663.1L110.3,1663.1z M697.1,1420h75.2v164.4   c-0.6,9.2,2.9,30.1,44.6,30.7c20.8,0.6,162.6,0,163.8,0v-195.6h75.8c0.6,0,0,266.8,0,267.9c0.6,66-81.6,79.8-119.2,81H698.8v-50.9   c0,0,237.8,0.6,238.4,0c48.6-4.6,42.8-28.9,42.8-37v-19.7H819.8c-74.7-1.1-122.1-33.6-122.7-71.2   C697.1,1586.1,698.8,1421.8,697.1,1420L697.1,1420z M2322.6,1230.8c-46.3-1.2-81.6,2.9-112.3,16.2c-8.7,3.5-22,3.5-23.7,14.5   c4.6,4.6,5.8,12.1,9.2,18.5c7.5,11.6,19.7,27.2,30.7,35.3c11.6,9.3,23.7,18.5,36.5,26.6c23.2,13.9,48.6,21.4,70,35.3   c13.3,8.1,26,18.5,38.8,27.8c5.8,4.6,10.4,11.6,17.9,14.5v-1.1c-4-5.2-5.2-12.7-8.7-18.5l-17.4-17.4c-16.8-22-38.2-41.7-60.8-57.9   c-17.9-12.7-58.4-30.7-66-51.5c-0.6-0.6-1.2-0.6-1.2-1.2c12.7-1.8,27.8-6.4,39.4-9.3c19.7-5.2,37.6-4,57.9-9.2   c9.3-2.9,18.5-5.2,27.8-8.1v-5.2c-10.4-10.4-17.4-24.9-28.9-34.1c-29.5-25.5-61.9-50.3-94.9-71.2c-18.5-12.2-41.1-19.7-60.8-29.5   c-6.4-2.9-18-4.6-22.6-10.4c-10.4-12.7-15.6-29.5-23.7-44.6c-17-33-32.8-66.6-47.4-100.7c-9.8-22.6-16.8-45.1-28.9-66   c-60.2-98.4-124.4-158-224.5-216.4c-21.4-12.2-46.9-17.4-74.1-23.7c-14.5-1.2-28.9-1.7-43.4-2.9c-8.7-3.5-17.9-14.5-26.6-19.7   c-33-20.8-118.1-66.5-142.4-6.4c-15.6,37.6,23.2,74.7,37,93.8c9.9,13.3,22,28.4,28.9,43.4c4.6,9.8,5.2,19.7,9.2,30.1   c9.8,26,17.9,54.4,30.1,78.1c6.4,12.2,13.3,24.9,21.4,35.9c4.6,6.4,13.3,9.3,14.5,19.7c-8.1,11.6-8.7,28.9-13.3,43.4   c-20.3,65.4-12.7,145.8,17.4,194.4c9.3,14.5,30.7,46.3,60.8,34.1c26-11,20.2-43.4,27.8-72.9c1.8-6.4,0.6-11,4-15.6v1.2   c7.5,16.2,15.6,31.8,23.7,47.4c17.4,28.4,48.6,58.5,75.2,78.1c13.3,10.4,24.3,28.4,42.2,34.1v-1.2h-1.7c-3.5-5.2-8.7-7.5-12.7-11.6   c-10.4-10.4-22-23.2-30.7-34.7c-23.7-32.4-45.1-68.3-64.8-105.3c-9.3-17.9-17.4-37.6-24.9-55.5c-2.9-6.9-2.9-17.4-9.3-21.4   c-8.7,13.3-20.8,24.3-27.8,39.9c-10.4,24.9-12.1,55.5-15.6,86.8c-2.3,1.2-1.8,0.6-2.9,1.7c-18.5-4.6-24.9-23.7-31.8-39.9   c-16.8-41.1-20.3-107.1-5.2-154.5c4-12.2,22-50.3,14.5-61.9c-3.5-11-14.5-17.9-20.8-26.6c-8.1-10.4-15.6-24.3-21.4-36.5   c-13.9-32.4-20.3-68.3-35.3-100.7c-7.5-15.6-19.1-31.3-28.9-44.6c-11-15.6-23.2-26.6-31.8-45.1c-2.9-6.4-6.9-16.8-2.9-23.7   c1.7-4.6,3.5-6.4,8.1-8.1c7.5-5.8,28.9,2.3,37,5.2c20.8,9.3,38.8,17.4,56.7,29.5c8.7,5.8,17.4,16.8,27.8,19.7h11.6   c18.5,4,39.3,1.2,56.7,6.4c30.7,9.2,58.4,23.7,83.3,39.9c76.4,48,138.3,116.3,181.1,197.9c6.9,13.3,9.8,25.5,15.6,39.4   c12.2,28.4,27.8,57.3,39.9,84.5c11.6,27.8,23.7,55.6,40.5,78.1c9.3,12.2,44,18.5,59.6,24.9c11,4.6,28.9,9.8,39.4,16.2   c20.2,11.6,39.3,26,58.4,39.4C2292.5,1204.2,2321.4,1218.6,2322.6,1230.8L2322.6,1230.8z"/>
	<path class="msql0" d="M1732.3,727.9c-8,0-16,1-23.7,2.9v1.2h1.7c4.6,9.3,12.7,15.6,18.5,23.7c4,9.3,8.7,18.5,12.7,27.8l1.7-1.7   c8.1-5.2,11.6-14.5,11.6-28.9c-2.9-3.5-3.5-7.5-6.4-11.6C1744.5,735.4,1737.5,732.5,1732.3,727.9L1732.3,727.9z"/>
	<path class="msql1" d="M1114.9,1663.1h217c25.5,0,50.3-5.2,70-14.5c32.4-15,48.6-35.3,48.6-61.9v-55.5c0-21.4-18.5-42.2-53.8-55.5   c-19.1-7.5-42.3-11-64.8-11h-91.4c-30.7,0-45.1-9.3-48.6-29.5c-0.6-2.3-0.6-4.6-0.6-6.9V1394c0-2.3,0-4,0.6-6.4   c3.5-15.6,11.6-20.3,38.2-22.6c2.3,0,5.2-0.6,7.5-0.6h215.8v-50.3H1241c-30.7,0-46.3,2.3-60.8,6.4c-45.1,14.5-64.8,36.5-64.8,75.2   v44c0,34.1,38.8,63.1,103,70c7.5,0,14.5,0.6,22,0.6h78.1c2.9,0,5.8,0,8.1,0.6c24.3,2.3,34.1,6.4,41.7,15c4,4.6,5.8,8.7,5.8,13.9v44   c0,5.2-3.5,12.2-11,17.9c-6.4,5.8-17.4,9.3-31.8,10.4c-2.9,0-5.2,0.6-8.1,0.6h-208.3V1663.1z M1921.5,1575.1   c0,52.1,38.2,81,116.3,86.8c6.9,0.6,14.5,1.2,21.4,1.2H2256v-50.4h-197.9c-44.6,0-61.3-11-61.3-37.6v-261h-75.2L1921.5,1575.1   L1921.5,1575.1L1921.5,1575.1z M1498.5,1578v-179.4c0-45.7,31.8-73.5,95.5-82.2c6.4-1.2,13.9-1.2,20.3-1.2h143.5   c6.9,0,13.3,0,20.8,1.2c63.1,8.7,95.5,36.5,95.5,82.2V1578c0,37.1-13.9,56.7-45.1,69.5l74.7,67.1h-87.9l-60.2-53.8l-60.8,3.5h-80.4   c-13.9,0-28.4-1.7-44.6-6.4C1521.7,1645.1,1498.5,1619.7,1498.5,1578L1498.5,1578z M1580.1,1573.4c0,2.9,0.6,5.2,1.2,8.1   c4.6,20.8,24.3,32.4,53.8,32.4h68.9l-63.1-56.7h87.9l55,49.2c9.9-5.2,16.8-13.3,19.1-23.7c0.6-2.9,0.6-5.2,0.6-7.5v-172.4   c0-1.8,0-4-0.6-6.4c-4.6-19.7-24.3-30.6-53.2-30.6h-114.6c-33.6,0-55,14.5-55,37L1580.1,1573.4L1580.1,1573.4L1580.1,1573.4z    M2290.8,1663.1h11v-41.7h15v-8.7h-41.1v8.7h15L2290.8,1663.1L2290.8,1663.1z M2375.2,1663.1h9.8v-50.4h-15l-13.3,34.7l-13.3-34.7   h-15.6v50.4h10.4v-38.2l14.5,38.2h7.5l14.5-38.2h0.6L2375.2,1663.1L2375.2,1663.1z"/>
</g>
</svg>