<?xml version="1.0" encoding="utf-8"?>
<!-- Generator: Adobe Illustrator 24.0.0, SVG Export Plug-In . SVG Version: 6.00 Build 0)  -->
<svg version="1.1" id="Слой_1" xmlns="http://www.w3.org/2000/svg" xmlns:xlink="http://www.w3.org/1999/xlink" x="0px" y="0px"
	 viewBox="0 0 127.2 36.6" enable-background="new 0 0 127.2 36.6" xml:space="preserve">
<g>
	<circle fill="#E0097E" cx="18.3" cy="18.3" r="18.3"/>
	<circle fill="#00A4D1" cx="48.3" cy="18.3" r="18.3"/>
	<circle fill="#FEF200" cx="78.7" cy="18.3" r="18.3"/>
	<circle fill="#36353A" cx="108.9" cy="18.3" r="18.3"/>
	<ellipse fill="#000667" cx="33.3" cy="18.3" rx="3.3" ry="10.4"/>
	<ellipse fill="#009C00" cx="63.5" cy="18.3" rx="3.1" ry="10.2"/>
	<ellipse fill="#363200" cx="93.8" cy="18.3" rx="3.2" ry="10.3"/>
	<path fill="#F7F7F7" d="M13.9,12.6h5.5c1.3,0,2.3,0.4,3,1.1c0.7,0.7,1.1,1.6,1.1,2.8c0,1.2-0.4,2.1-1.1,2.8
		c-0.8,0.7-1.8,1.1-3.1,1.1h-2.6v3.4h-2.8V12.6z M16.7,18h2.4c0.5,0,1-0.1,1.3-0.4c0.3-0.3,0.5-0.7,0.5-1.1c0-0.5-0.2-0.8-0.5-1.1
		c-0.3-0.3-0.7-0.4-1.3-0.4h-2.4V18z"/>
	<path fill="#F7F7F7" d="M53.8,12.6v6.2c0,1.6-0.5,2.9-1.4,3.9c-0.9,1-2.5,1.4-4,1.4c-1.5,0-3.1-0.5-4.1-1.4c-0.9-1-1.4-2.3-1.4-3.9
		v-6.2h3.1v6.2c0,0.8,0.2,1.5,0.6,2c0.4,0.5,1,0.7,1.7,0.7c0.7,0,1.2-0.2,1.6-0.7c0.4-0.5,0.6-1.2,0.6-2v-6.2H53.8z"/>
	<path fill="#F7F7F7" d="M85.2,12.7v11.1h-2.9V16l-2.9,7.7H78L75.2,16v7.7h-2.7V12.7h3.8l2.5,6.2l2.5-6.2L85.2,12.7z"/>
	<path fill="#F7F7F7" d="M115,23.8h-3.2l-0.5-1.5h-4.5l-0.6,1.5H103l4.3-11.2h3.5L115,23.8z M110.5,20l-1.4-4.5l-1.7,4.5H110.5z"/>
</g>
</svg>
