<?xml version="1.0" encoding="utf-8"?>
<!-- Generator: Adobe Illustrator 24.0.0, SVG Export Plug-In . SVG Version: 6.00 Build 0)  -->
<svg version="1.1" id="Layer_2_1_" xmlns="http://www.w3.org/2000/svg" xmlns:xlink="http://www.w3.org/1999/xlink" x="0px" y="0px"
	 viewBox="0 0 841.9 595.3" style="enable-background:new 0 0 841.9 595.3;" xml:space="preserve">
<style type="text/css">
	.re0{fill:#61DAFB;}
</style>
<g>
	<g>
		<path class="re0" d="M682.1,250.8c0-34.6-43.3-67.4-109.8-87.7c15.3-67.7,8.5-121.6-21.5-138.8c-6.9-4-15-6-23.8-6V42
			c4.9,0,8.8,1,12.1,2.8c14.5,8.3,20.8,39.9,15.9,80.6c-1.2,10-3.1,20.5-5.4,31.3c-20.9-5.1-43.6-9-67.6-11.6
			c-14.4-19.7-29.3-37.6-44.3-53.2c34.7-32.3,67.3-49.9,89.4-49.9V18.1l0,0c-29.3,0-67.6,20.9-106.3,57.1
			c-38.7-36-77.1-56.6-106.3-56.6v23.7c22,0,54.7,17.6,89.4,49.6c-14.9,15.6-29.8,33.4-44,53.1c-24.1,2.6-46.8,6.5-67.7,11.7
			c-2.4-10.6-4.3-21-5.5-30.9c-5-40.7,1.2-72.3,15.5-80.7c3.2-1.9,7.3-2.8,12.2-2.8V18.7l0,0c-8.9,0-17,1.9-24.1,6
			c-29.9,17.2-36.6,71-21.2,138.5c-66.2,20.4-109.3,53.1-109.3,87.6c0,34.6,43.3,67.4,109.8,87.7c-15.3,67.7-8.5,121.6,21.5,138.8
			c6.9,4,15,6,24,6c29.3,0,67.6-20.9,106.3-57.1c38.7,36,77.1,56.6,106.3,56.6c8.9,0,17-1.9,24.1-6c29.9-17.2,36.6-71,21.2-138.5
			C639,318,682.1,285.2,682.1,250.8z M543.5,179.7c-3.9,13.7-8.8,27.9-14.4,42c-4.4-8.5-8.9-17-13.9-25.5
			c-4.9-8.5-10.1-16.8-15.3-24.9C514.9,173.6,529.5,176.3,543.5,179.7z M494.7,293.1c-8.3,14.4-16.8,28-25.7,40.7
			c-15.9,1.4-31.9,2.1-48.1,2.1c-16.1,0-32.1-0.7-47.9-2c-8.8-12.7-17.5-26.2-25.8-40.5c-8.1-13.9-15.4-28.1-22.1-42.4
			c6.6-14.3,14.1-28.5,22-42.5c8.3-14.4,16.8-28,25.7-40.7c15.9-1.4,31.9-2.1,48.1-2.1c16.1,0,32.1,0.7,47.9,2
			c8.8,12.7,17.5,26.2,25.8,40.5c8.1,13.9,15.4,28.1,22.1,42.4C510.1,264.9,502.7,279.2,494.7,293.1z M529.1,279.3
			c5.7,14.3,10.6,28.5,14.7,42.4c-13.9,3.4-28.6,6.3-43.9,8.5c5.2-8.2,10.4-16.6,15.3-25.2C520.2,296.4,524.7,287.8,529.1,279.3z
			 M421.2,392.9c-9.9-10.2-19.8-21.6-29.6-34.1c9.6,0.4,19.4,0.7,29.3,0.7c10,0,19.9-0.2,29.6-0.7
			C440.9,371.3,431,382.6,421.2,392.9z M342,330.2c-15.1-2.2-29.7-5-43.6-8.4c3.9-13.7,8.8-27.9,14.4-42c4.4,8.5,8.9,17,13.9,25.5
			S336.7,322.1,342,330.2z M420.6,108.6c9.9,10.2,19.8,21.6,29.6,34.1c-9.6-0.4-19.4-0.7-29.3-0.7c-10,0-19.9,0.2-29.6,0.7
			C400.9,130.2,410.8,118.9,420.6,108.6z M341.9,171.3c-5.2,8.2-10.4,16.6-15.3,25.2c-4.9,8.5-9.5,17-13.8,25.5
			c-5.7-14.3-10.6-28.5-14.7-42.4C311.9,176.4,326.6,173.6,341.9,171.3z M245.5,304.6c-37.7-16.1-62.1-37.2-62.1-53.9
			s24.4-37.9,62.1-53.9c9.2-3.9,19.2-7.5,29.5-10.8c6.1,20.9,14.1,42.6,24,64.8c-9.8,22.1-17.7,43.8-23.6,64.5
			C264.8,312.2,254.8,308.6,245.5,304.6z M302.8,456.7c-14.5-8.3-20.8-39.9-15.9-80.6c1.2-10,3.1-20.5,5.4-31.3
			c20.9,5.1,43.6,9,67.6,11.6c14.4,19.7,29.3,37.6,44.3,53.2c-34.7,32.3-67.3,49.9-89.4,49.9C310,459.5,306,458.6,302.8,456.7z
			 M555.3,375.6c5,40.7-1.2,72.3-15.5,80.7c-3.2,1.9-7.3,2.8-12.2,2.8c-22,0-54.7-17.6-89.4-49.6c14.9-15.6,29.8-33.4,44-53.1
			c24.1-2.6,46.8-6.5,67.7-11.7C552.2,355.4,554.1,365.7,555.3,375.6z M596.3,304.6c-9.2,3.9-19.2,7.5-29.5,10.8
			c-6.1-20.9-14.1-42.6-24-64.8c9.8-22.1,17.7-43.8,23.6-64.5c10.5,3.3,20.5,6.9,29.9,10.9c37.7,16.1,62.1,37.2,62.1,53.9
			C658.3,267.5,634,288.6,596.3,304.6z"/>
		<path class="re0" d="M314.3,18.6L314.3,18.6L314.3,18.6z"/>
		<circle class="re0" cx="420.8" cy="250.8" r="48.6"/>
		<path class="re0" d="M526.9,18.3L526.9,18.3L526.9,18.3z"/>
	</g>
	<g>
		<path class="re0" d="M181,518.3h20.6c13.4,0,20.1,7.5,20.1,18.2c0,7.8-3.5,13.7-10.6,16.3l12.8,23.4h-10l-11.8-21.9
			c-0.2,0-0.4,0-0.6,0h-11.9v21.9H181V518.3z M200.8,546.7c8.5,0,12.1-3.8,12.1-10.3c0-6.6-3.6-10.7-12.2-10.7h-11v21H200.8z"/>
		<path class="re0" d="M228.8,554.8c0-13.3,8-22.6,20.1-22.6c9.8,0,19.2,6.1,19.2,21.8v3h-30.9c0.2,8.4,5.1,13.1,12.3,13.1
			c4.8,0,8.5-2.1,10-6.2l8,1.4c-1.9,7.1-8.6,11.7-18.1,11.7C236.7,577.1,228.8,568.2,228.8,554.8z M259.8,550.7
			c0-6.6-4.3-11.5-10.9-11.5c-6.9,0-11.3,5.3-11.7,11.5H259.8z"/>
		<path class="re0" d="M275.1,563.9c0-9.9,8.4-12,16.7-13c7.8-0.9,11-0.8,11-3.9v-0.2c0-4.9-2.8-7.8-8.3-7.8c-5.7,0-8.9,3-10.1,6.1
			l-7.9-1.8c2.8-7.9,10.1-11.1,17.9-11.1c6.9,0,16.9,2.5,16.9,15.2v28.8H303v-5.9h-0.3c-1.6,3.3-5.7,6.9-12.8,6.9
			C281.5,577.2,275.1,572.5,275.1,563.9z M302.8,560.5v-5.6c-1.2,1.2-7.7,2-10.5,2.3c-4.9,0.7-8.9,2.3-8.9,6.8
			c0,4.2,3.5,6.3,8.2,6.3C298.7,570.4,302.8,565.7,302.8,560.5z"/>
		<path class="re0" d="M320.1,554.7c0-13.3,7.9-22.5,20.2-22.5c9.9,0,17,5.8,17.9,14.6H350c-0.9-4.1-4.2-7.5-9.6-7.5
			c-7.1,0-11.8,5.9-11.8,15.2c0,9.5,4.6,15.4,11.8,15.4c4.8,0,8.5-2.8,9.6-7.5h8.2c-0.9,8.5-7.6,14.6-17.8,14.6
			C327.8,577.1,320.1,567.8,320.1,554.7z"/>
		<path class="re0" d="M387.2,539.5h-8.9v23.9c0,4.9,2.5,5.8,5.2,5.8c1.4,0,2.4-0.3,3-0.4l1.5,7c-1,0.4-2.8,0.9-5.5,0.9
			c-6.7,0.1-12.7-3.7-12.7-11.6v-25.7h-6.4v-6.8h6.4v-10.4h8.5v10.4h8.9V539.5z"/>
		<path class="re0" d="M464.2,576.2h-8l-29.4-42.5h-0.5v42.5h-8.7v-57.9h8.1l29.5,42.5h0.5v-42.5h8.7V576.2z"/>
		<path class="re0" d="M473.9,563.9c0-9.9,8.4-12,16.7-13c7.8-0.9,11-0.8,11-3.9v-0.2c0-4.9-2.8-7.8-8.3-7.8c-5.7,0-8.9,3-10.1,6.1
			l-7.9-1.8c2.8-7.9,10.1-11.1,17.9-11.1c6.9,0,16.9,2.5,16.9,15.2v28.8h-8.3v-5.9h-0.3c-1.6,3.3-5.7,6.9-12.8,6.9
			C480.3,577.2,473.9,572.5,473.9,563.9z M501.5,560.5v-5.6c-1.2,1.2-7.7,2-10.5,2.3c-4.9,0.7-8.9,2.3-8.9,6.8
			c0,4.2,3.5,6.3,8.2,6.3C497.4,570.4,501.5,565.7,501.5,560.5z"/>
		<path class="re0" d="M541.1,539.5h-8.9v23.9c0,4.9,2.5,5.8,5.2,5.8c1.4,0,2.4-0.3,3-0.4l1.5,7c-1,0.4-2.8,0.9-5.5,0.9
			c-6.7,0.1-12.7-3.7-12.7-11.6v-25.7h-6.4v-6.8h6.4v-10.4h8.5v10.4h8.9V539.5z"/>
		<path class="re0" d="M549,521c0-2.8,2.4-5.1,5.3-5.1c2.9,0,5.3,2.3,5.3,5.1s-2.4,5-5.3,5C551.4,526,549,523.8,549,521z M550,532.7
			h8.5v43.4H550V532.7z"/>
		<path class="re0" d="M590.9,576.2h-9.1L566,532.7h9.1l11,33.4h0.5l11-33.4h9.1L590.9,576.2z"/>
		<path class="re0" d="M610.7,554.8c0-13.3,8-22.6,20.1-22.6c9.8,0,19.2,6.1,19.2,21.8v3h-30.9c0.2,8.4,5.1,13.1,12.3,13.1
			c4.8,0,8.5-2.1,10-6.2l8,1.4c-1.9,7.1-8.6,11.7-18.1,11.7C618.6,577.1,610.7,568.2,610.7,554.8z M641.7,550.7
			c0-6.6-4.3-11.5-10.9-11.5c-6.9,0-11.3,5.3-11.7,11.5H641.7z"/>
	</g>
</g>
</svg>
