<?xml version="1.0" encoding="utf-8"?>
<!-- Generator: Adobe Illustrator 24.0.0, SVG Export Plug-In . SVG Version: 6.00 Build 0)  -->
<svg version="1.1" id="Слой_1" xmlns="http://www.w3.org/2000/svg" xmlns:xlink="http://www.w3.org/1999/xlink" x="0px" y="0px"
	 viewBox="0 0 215 61" style="enable-background:new 0 0 215 61;" xml:space="preserve">
<style type="text/css">
	.sh0{fill:#95BF47;}
	.sh1{fill:#5E8E3E;}
	.sh2{fill:#FFFFFF;}
</style>
<g>
	<path class="sh0" d="M46.4,11.6c0-0.3-0.3-0.5-0.5-0.5c-0.2,0-4.5-0.1-4.5-0.1s-3.6-3.5-3.9-3.8c-0.4-0.4-1-0.2-1.3-0.2
		c0,0-0.7,0.2-1.8,0.6c-0.2-0.6-0.5-1.4-0.9-2.1c-1.3-2.4-3.1-3.7-5.4-3.7c0,0,0,0,0,0c-0.2,0-0.3,0-0.5,0c-0.1-0.1-0.1-0.2-0.2-0.2
		c-1-1-2.2-1.6-3.7-1.5c-2.9,0.1-5.8,2.2-8.1,5.9c-1.7,2.6-2.9,5.9-3.3,8.5c-3.3,1-5.7,1.8-5.7,1.8c-1.7,0.5-1.7,0.6-2,2.2
		C4.4,19.5,0,53.6,0,53.6L36.9,60l16-4C52.9,56,46.4,11.9,46.4,11.6z M32.5,8.1c-0.9,0.3-1.8,0.6-2.9,0.9c0-1.5-0.2-3.5-0.9-5.3
		C30.9,4.1,32,6.6,32.5,8.1z M27.7,9.6c-1.9,0.6-4,1.3-6.2,1.9c0.6-2.3,1.7-4.6,3.1-6c0.5-0.6,1.2-1.2,2.1-1.5
		C27.5,5.6,27.7,8,27.7,9.6z M23.7,1.9c0.7,0,1.3,0.1,1.7,0.5c-0.8,0.4-1.5,1-2.3,1.8c-1.8,2-3.3,5.1-3.8,8
		c-1.8,0.5-3.5,1.1-5.1,1.6C15.3,9.1,19.2,2.1,23.7,1.9z"/>
	<path class="sh1" d="M45.9,11.1c-0.2,0-4.5-0.1-4.5-0.1s-3.6-3.5-3.9-3.8C37.3,7,37.1,7,36.9,6.9l0,53.1l16-4
		c0,0-6.5-44.2-6.6-44.5C46.3,11.3,46.1,11.1,45.9,11.1z"/>
	<path class="sh2" d="M28.1,19.3l-1.9,7c0,0-2.1-0.9-4.5-0.8c-3.6,0.2-3.6,2.5-3.6,3.1c0.2,3.1,8.4,3.8,8.8,11.1
		c0.4,5.7-3,9.7-7.9,10c-5.9,0.4-9.1-3.1-9.1-3.1l1.2-5.3c0,0,3.3,2.5,5.9,2.3c1.7-0.1,2.3-1.5,2.3-2.5c-0.3-4.1-6.9-3.8-7.3-10.5
		c-0.4-5.6,3.3-11.3,11.5-11.8C26.5,18.5,28.1,19.3,28.1,19.3z"/>
	<path d="M74,33.9c-1.8-1-2.8-1.8-2.8-3c0-1.5,1.3-2.4,3.4-2.4c2.4,0,4.5,1,4.5,1l1.7-5.2c0,0-1.5-1.2-6.1-1.2
		c-6.3,0-10.7,3.6-10.7,8.7c0,2.9,2.1,5.1,4.8,6.7c2.2,1.3,3,2.2,3,3.5c0,1.4-1.1,2.5-3.2,2.5c-3.1,0-5.9-1.6-5.9-1.6L60.9,48
		c0,0,2.7,1.8,7.2,1.8c6.5,0,11.2-3.2,11.2-9C79.2,37.7,76.9,35.5,74,33.9z"/>
	<path d="M100,23c-3.2,0-5.7,1.5-7.7,3.8l-0.1-0.1L95,12.2h-7.3l-7,37.1H88l2.4-12.7c0.9-4.8,3.4-7.7,5.7-7.7c1.6,0,2.3,1.1,2.3,2.7
		c0,1-0.1,2.2-0.3,3.2l-2.7,14.5h7.3l2.8-15c0.3-1.6,0.5-3.5,0.5-4.7C106,25.5,103.8,23,100,23z"/>
	<path d="M122.4,23c-8.7,0-14.5,7.9-14.5,16.7c0,5.6,3.5,10.1,10,10.1c8.6,0,14.4-7.7,14.4-16.7C132.2,28,129.1,23,122.4,23z
		 M118.8,44.3c-2.5,0-3.5-2.1-3.5-4.7c0-4.2,2.2-10.9,6.1-10.9c2.6,0,3.4,2.2,3.4,4.4C124.8,37.4,122.6,44.3,118.8,44.3z"/>
	<path d="M150.8,23c-4.9,0-7.7,4.3-7.7,4.3H143l0.4-3.9H137c-0.3,2.6-0.9,6.6-1.5,9.6l-5,26.6h7.3l2-10.7h0.2c0,0,1.5,0.9,4.3,0.9
		c8.5,0,14.1-8.7,14.1-17.6C158.2,27.4,156.1,23,150.8,23z M143.8,44.4c-1.9,0-3-1.1-3-1.1l1.2-6.8c0.8-4.5,3.2-7.5,5.7-7.5
		c2.2,0,2.9,2.1,2.9,4C150.7,37.7,147.9,44.4,143.8,44.4z"/>
	<path d="M168.6,12.6c-2.3,0-4.2,1.8-4.2,4.2c0,2.2,1.4,3.6,3.4,3.6h0.1c2.3,0,4.2-1.5,4.3-4.2C172.2,14.1,170.8,12.6,168.6,12.6z"
		/>
	<path d="M158.4,49.3h7.3l4.9-25.7h-7.3L158.4,49.3z"/>
	<path d="M189.1,23.6h-5l0.3-1.2c0.4-2.5,1.9-4.7,4.3-4.7c1.3,0,2.3,0.4,2.3,0.4l1.4-5.7c0,0-1.3-0.6-3.9-0.6
		c-2.6,0-5.2,0.7-7.1,2.4c-2.5,2.1-3.6,5.2-4.2,8.2l-0.2,1.2h-3.4l-1.1,5.5h3.4L172,49.3h7.3l3.8-20.3h5L189.1,23.6z"/>
	<path d="M206.6,23.6c0,0-4.5,11.4-6.6,17.7h-0.1c-0.1-2-1.8-17.7-1.8-17.7h-7.6l4.4,23.6c0.1,0.5,0.1,0.8-0.2,1.2
		c-0.8,1.6-2.3,3.2-3.9,4.4c-1.4,1-2.9,1.6-4.1,2.1l2,6.2c1.5-0.3,4.5-1.5,7.1-3.9c3.3-3.1,6.4-7.9,9.5-14.4l8.9-19L206.6,23.6
		L206.6,23.6z"/>
</g>
</svg>
