<?xml version="1.0" encoding="utf-8"?>
<!-- Generator: Adobe Illustrator 24.0.0, SVG Export Plug-In . SVG Version: 6.00 Build 0)  -->
<svg version="1.1" id="Слой_1" xmlns="http://www.w3.org/2000/svg" xmlns:xlink="http://www.w3.org/1999/xlink" x="0px" y="0px"
	 viewBox="0 0 61 81" style="enable-background:new 0 0 61 81;" xml:space="preserve">
<style type="text/css">
	.sql0{fill-rule:evenodd;clip-rule:evenodd;fill:#0072C6;}
	.sql1{fill-rule:evenodd;clip-rule:evenodd;fill:#FFFFFF;}
	.sql2{fill-rule:evenodd;clip-rule:evenodd;fill:#7FBA00;}
	.sql3{fill-rule:evenodd;clip-rule:evenodd;fill:#B8D432;}
</style>
<g id="A">
	<g>
		<g>
			<path class="sql0" d="M30.5,11.4v69.1c-16.6,0-30-4.9-30-10.9V11.4H30.5z"/>
			<g>
				<path id="C_4_" class="sql0" d="M30.1,80.5V11.4h30.4v58.1c0,6-13.4,10.9-30,10.9L30.1,80.5L30.1,80.5z"/>
			</g>
		</g>
		<g>
			<path id="C_1_" class="sql0" d="M30.1,80.5V11.4h30.4v58.1c0,6-13.4,10.9-30,10.9L30.1,80.5L30.1,80.5z"/>
		</g>
		<path class="sql1" d="M60.5,11.4c0-6-13.4-10.9-30-10.9s-30,4.9-30,10.9s13.4,10.9,30,10.9S60.5,17.5,60.5,11.4"/>
		<path class="sql2" d="M54.4,10.8c0-4-10.7-7.2-23.9-7.2S6.6,6.8,6.6,10.8S17.3,18,30.5,18S54.4,14.8,54.4,10.8"/>
		<path class="sql3" d="M49.4,15.2c-4.4-1.7-11.2-2.8-18.9-2.8S16,13.5,11.6,15.2c-3.1-1.2-5-2.7-5-4.4c0-4,10.7-7.2,23.9-7.2
			s23.9,3.2,23.9,7.2C54.4,12.5,52.5,14,49.4,15.2"/>
		<path class="sql1" d="M21,51.8c0-1.3-0.4-2.4-1.1-3.2s-2-1.7-3.8-2.6c-1.2-0.6-2-1-2.4-1.4s-0.6-0.9-0.6-1.5c0-0.6,0.3-1.1,0.7-1.4
			c0.5-0.3,1.1-0.5,1.9-0.5c1.6,0,3.1,0.4,4.4,1.3v-4c-1.2-0.5-2.7-0.7-4.6-0.7c-2.1,0-3.8,0.5-5,1.5s-1.9,2.4-1.9,4.1
			c0,2.4,1.4,4.2,4.3,5.6c1.4,0.7,2.4,1.2,2.8,1.6s0.7,0.9,0.7,1.5c0,0.6-0.2,1.1-0.7,1.4c-0.5,0.4-1.2,0.5-2,0.5
			c-1.8,0-3.5-0.6-5-1.9v4.3c1.3,0.7,2.9,1.1,4.9,1.1c2.3,0,4.1-0.5,5.4-1.5S21,53.6,21,51.8L21,51.8z M41.3,47.5
			c0-1.9-0.4-3.6-1.1-5.1S38.4,39.8,37,39s-2.9-1.2-4.7-1.2c-1.9,0-3.5,0.4-5,1.2s-2.6,2-3.4,3.6s-1.2,3.3-1.2,5.3
			c0,1.8,0.4,3.4,1.1,4.8s1.8,2.6,3.1,3.4s2.9,1.3,4.5,1.3l3.9,4.4H41l-5.5-5.1c1.8-0.7,3.3-1.8,4.3-3.5S41.3,49.7,41.3,47.5
			L41.3,47.5z M36.9,47.7c0,1.9-0.4,3.4-1.3,4.4s-2,1.6-3.5,1.6c-1.4,0-2.6-0.6-3.5-1.7s-1.3-2.6-1.3-4.5c0-1.9,0.4-3.4,1.3-4.5
			s2.1-1.7,3.6-1.7c1.5,0,2.6,0.6,3.4,1.7S36.9,45.8,36.9,47.7L36.9,47.7z M55.7,53.7h-7V38.1h-4.3v19h11.3L55.7,53.7z"/>
	</g>
</g>
</svg>
