<?xml version="1.0" encoding="utf-8"?>
<!-- Generator: Adobe Illustrator 24.0.0, SVG Export Plug-In . SVG Version: 6.00 Build 0)  -->
<svg version="1.1" id="Слой_1" xmlns="http://www.w3.org/2000/svg" xmlns:xlink="http://www.w3.org/1999/xlink" x="0px" y="0px"
	 viewBox="0 0 841.9 595.3" style="enable-background:new 0 0 841.9 595.3;" xml:space="preserve">
<style type="text/css">
	.st0{fill:#FFB13B;stroke:#000000;stroke-width:75.4192;stroke-miterlimit:7.9371;}
	.st1{fill:#FFB13B;}
	.st2{fill:#FFFFFF;}
</style>
<title>SVG Logo</title>
<desc>
	Designed for the SVG Logo Contest in 2006 by Harvey Rayner, and adopted by W3C in 2009. It is available under the Creative Commons license for those who have an SVG product or who are using SVG on their site.
	</desc>
<g>
	<path id="base" d="M140.2,297.6h561.5v198.4c0,46.6-35.7,82.3-82.3,82.3H222.5c-46.6,0-82.3-35.7-82.3-82.3V297.6z"/>
	<g>
		<g id="svgstar" transform="translate(150, 150)">
			<path id="svgbar" class="st0" d="M104,116.2c-17.4-17.4-45.5-17.4-62.9,0s-17.4,45.5,0,62.9c17.4,17.4,45.5,17.4,62.9,0h333.9
				c17.4,17.4,45.5,17.4,62.9,0s17.4-45.5,0-62.9c-17.4-17.4-45.5-17.4-62.9,0H104z"/>
			<g transform="rotate(45)">
				<path id="svgbar_1_" class="st0" d="M175.1,7.3c0-24.6-19.9-44.5-44.5-44.5c-24.6,0-44.5,19.9-44.5,44.5
					c0,24.6,19.9,44.5,44.5,44.5l236.1,236.1c0,24.6,19.9,44.5,44.5,44.5c24.6,0,44.5-19.9,44.5-44.5c0-24.6-19.9-44.5-44.5-44.5
					L175.1,7.3z"/>
			</g>
			<g transform="rotate(90)">
				<path id="svgbar_2_" class="st0" d="M302.4-19.3c17.4-17.4,17.4-45.5,0-62.9s-45.5-17.4-62.9,0c-17.4,17.4-17.4,45.5,0,62.9
					v333.9c-17.4,17.4-17.4,45.5,0,62.9c17.4,17.4,45.5,17.4,62.9,0c17.4-17.4,17.4-45.5,0-62.9V-19.3z"/>
			</g>
			<g transform="rotate(135)">
				<path id="svgbar_3_" class="st0" d="M411.3,51.8c24.6,0,44.5-19.9,44.5-44.5s-19.9-44.5-44.5-44.5c-24.6,0-44.5,19.9-44.5,44.5
					L130.6,243.5c-24.6,0-44.5,19.9-44.5,44.5c0,24.6,19.9,44.5,44.5,44.5c24.6,0,44.5-19.9,44.5-44.5L411.3,51.8z"/>
			</g>
		</g>
	</g>
	<g>
		<g id="svgstar_1_" transform="translate(150, 150)">
			<path id="svgbar_4_" class="st1" d="M104,116.2c-17.4-17.4-45.5-17.4-62.9,0s-17.4,45.5,0,62.9c17.4,17.4,45.5,17.4,62.9,0h333.9
				c17.4,17.4,45.5,17.4,62.9,0s17.4-45.5,0-62.9c-17.4-17.4-45.5-17.4-62.9,0H104z"/>
			<g transform="rotate(45)">
				<path id="svgbar_5_" class="st1" d="M175.1,7.3c0-24.6-19.9-44.5-44.5-44.5c-24.6,0-44.5,19.9-44.5,44.5
					c0,24.6,19.9,44.5,44.5,44.5l236.1,236.1c0,24.6,19.9,44.5,44.5,44.5c24.6,0,44.5-19.9,44.5-44.5c0-24.6-19.9-44.5-44.5-44.5
					L175.1,7.3z"/>
			</g>
			<g transform="rotate(90)">
				<path id="svgbar_6_" class="st1" d="M302.4-19.3c17.4-17.4,17.4-45.5,0-62.9s-45.5-17.4-62.9,0c-17.4,17.4-17.4,45.5,0,62.9
					v333.9c-17.4,17.4-17.4,45.5,0,62.9c17.4,17.4,45.5,17.4,62.9,0c17.4-17.4,17.4-45.5,0-62.9V-19.3z"/>
			</g>
			<g transform="rotate(135)">
				<path id="svgbar_7_" class="st1" d="M411.3,51.8c24.6,0,44.5-19.9,44.5-44.5s-19.9-44.5-44.5-44.5c-24.6,0-44.5,19.9-44.5,44.5
					L130.6,243.5c-24.6,0-44.5,19.9-44.5,44.5c0,24.6,19.9,44.5,44.5,44.5c24.6,0,44.5-19.9,44.5-44.5L411.3,51.8z"/>
			</g>
		</g>
	</g>
	<g>
		<path id="base_1_" d="M140.2,297.6h561.5v198.4c0,46.6-35.7,82.3-82.3,82.3H222.5c-46.6,0-82.3-35.7-82.3-82.3V297.6z"/>
	</g>
	<g>
		<g id="SVG" transform="scale(2) translate(20,79)">
			<path id="S" class="st2" d="M92.2,139.9c-6.6-6.6-10.7-15.7-10.7-25.7c0-20.1,16.3-36.4,36.4-36.4c20.1,0,36.4,16.3,36.4,36.4
				H133c0-8.3-6.8-15.1-15.1-15.1c-8.3,0-15.1,6.7-15.1,15.1c0,4.2,1.7,7.9,4.4,10.6h0c2.7,2.7,5,3.5,10.7,4.4l0,0
				c10.1,1,19.1,4.1,25.7,10.7l0,0c6.6,6.6,10.7,15.7,10.7,25.7c0,20.1-16.3,36.4-36.4,36.4c-20.1,0-36.4-16.3-36.4-36.4h21.3
				c0,8.3,6.7,15.1,15.1,15.1c8.3,0,15.1-6.8,15.1-15.1c0-4.2-1.7-7.9-4.4-10.6h0c-2.7-2.7-6.6-3.7-10.7-4.4v0
				C108.2,149.1,98.8,146.5,92.2,139.9L92.2,139.9L92.2,139.9z"/>
			<path id="V" class="st2" d="M227.1,77.8L201.4,202H180L154.3,77.8h21.3l15.1,72.7l15.1-72.7H227.1z"/>
			<path id="G" class="st2" d="M263.5,129.3h36.4v36.4h0c0,20.1-16.3,36.4-36.4,36.4c-20.1,0-36.4-16.3-36.4-36.4l0,0v-51.4h0
				c0-20.1,16.3-36.4,36.4-36.4c20.1,0,36.4,16.3,36.4,36.4h-21.3c0-8.3-6.8-15.1-15.1-15.1c-8.3,0-15.1,6.8-15.1,15.1v51.4l0,0
				c0,8.3,6.7,15.1,15.1,15.1c8.3,0,15.1-6.7,15.1-15.1v0v-15.1h-15.1V129.3L263.5,129.3z"/>
		</g>
	</g>
</g>
</svg>
