<svg xmlns="http://www.w3.org/2000/svg" viewBox="0 0 1049 774" xmlns:xlink="http://www.w3.org/1999/xlink">
  <g transform="translate(52.37 117.49)">
    <path stroke="#FFF" stroke-width="5" d="M24.995 446.538v40.632h110.268M706.58 446.538v40.632H596.31M24.995 66.432V25.8h110.268M706.58 66.432V25.8H596.31" stroke-linecap="round" fill='none'/>
    <path stroke="#FFF" fill='none' d="M24.598 25.403h682.405v462.812H24.598z" />
    <text fill="#FFF" font-size="27.77" font-weight="420">
      <tspan x="45.229" y="72.249">~/TEAM</tspan>
    </text>
    <text fill="#FFF" font-size="27.77" font-weight="420">
      <tspan x="45.229" y="469.172">16 Mpix. 4898 × 3265</tspan>
    </text>
    <g transform="rotate(-180 340 39)">
      <path stroke="#FFF" stroke-width="3" fill="none" d="M66.013 7.16C65.593 3.146 62.193 0 58.06 0H8.177C3.77 0 .18 3.58.18 8v12.58c0 4.408 3.58 7.998 7.996 7.998H58.06c4.126 0 7.534-3.137 7.953-7.16 2.04-.186 3.634-1.9 3.634-3.984v-6.29c0-2.08-1.596-3.797-3.634-3.983z"/>
      <rect width="17.561" height="21.68" x="4.312" y="3.203" fill="#FFF" rx="4"/>
      <rect width="17.561" height="21.68" x="44.885" y="3.203" fill="#FFF" rx="4"/>
      <rect width="17.561" height="21.68" x="24.598" y="3.203" fill="#FFF" rx="4"/>
    </g>
  </g>
</svg>
