<?xml version="1.0" encoding="utf-8"?>
<!-- Generator: Adobe Illustrator 24.1.0, SVG Export Plug-In . SVG Version: 6.00 Build 0)  -->
<svg version="1.1" id="Слой_1" xmlns="http://www.w3.org/2000/svg" xmlns:xlink="http://www.w3.org/1999/xlink" x="0px" y="0px"
	 viewBox="0 0 34 35" enable-background="new 0 0 34 35" xml:space="preserve">
<g>

		<linearGradient id="SVGID_1_" gradientUnits="userSpaceOnUse" x1="7.4875" y1="472.258" x2="25.9512" y2="490.7216" gradientTransform="matrix(1 0 0 1 0 -464.2205)">
		<stop  offset="0" style="stop-color:#AA30BE"/>
		<stop  offset="1" style="stop-color:#5723B5"/>
	</linearGradient>
	<path opacity="0.25" fill="url(#SVGID_1_)" enable-background="new    " d="M16.7,30.3L16.7,30.3c-7.2,0-13.1-5.8-13.1-13.1l0,0
		c0.1-7.2,5.9-13,13.1-13l0,0c7.2,0,13.1,5.8,13.1,13.1l0,0C29.8,24.5,24,30.3,16.7,30.3z"/>
	<g>

			<linearGradient id="SVGID_2_" gradientUnits="userSpaceOnUse" x1="8.6844" y1="473.5049" x2="24.7523" y2="489.5728" gradientTransform="matrix(1 0 0 1 0 -464.2205)">
			<stop  offset="0" style="stop-color:#AA30BE"/>
			<stop  offset="1" style="stop-color:#5723B5"/>
		</linearGradient>
		<path fill="url(#SVGID_2_)" d="M16.7,28.7L16.7,28.7c-6.3,0-11.4-5.1-11.4-11.4l0,0c0-6.3,5.1-11.4,11.4-11.4l0,0
			c6.3,0,11.4,5.1,11.4,11.4l0,0C28.1,23.6,23,28.7,16.7,28.7z"/>
	</g>
	<g>
		<path fill="#FFFFFF" d="M16.3,16c0,0.5-0.1,0.9-0.3,1.3c-0.2,0.4-0.5,0.8-0.9,1.4l-2.1,3h-2.1l2-2.8h-0.1c-0.7,0-1.4-0.3-2-0.8
			c-0.6-0.6-0.9-1.3-0.9-2.1c0-0.8,0.3-1.6,0.9-2.2c0.6-0.6,1.4-0.9,2.2-0.9c0.9,0,1.6,0.3,2.2,0.9S16.3,15.1,16.3,16z M14.1,17
			c0.3-0.3,0.4-0.6,0.4-1c0-0.4-0.1-0.8-0.4-1c-0.3-0.3-0.6-0.4-1-0.4c-0.4,0-0.7,0.1-1,0.4s-0.4,0.6-0.4,1c0,0.4,0.1,0.7,0.4,1
			s0.6,0.4,1,0.4C13.5,17.4,13.8,17.3,14.1,17z"/>
		<path fill="#FFFFFF" d="M19.6,20.6v-2.3h-2.2v-1.5h2.2v-2.3h1.7v2.3h2.2v1.5h-2.2v2.3H19.6z"/>
	</g>
</g>
</svg>
