<svg xmlns="http://www.w3.org/2000/svg" xml:space="preserve" viewBox="0 0 30 30"><path fill="#FFF" d="M15 28.1C7.8 28.1 1.9 22.2 1.9 15 1.9 7.8 7.8 1.9 15 1.9c7.2 0 13.1 5.8 13.1 13.1 0 7.2-5.9 13.1-13.1 13.1z" opacity=".25"/><path fill="#FFF" d="M15 26.4C8.7 26.4 3.6 21.3 3.6 15 3.6 8.8 8.7 3.7 15 3.7c6.3 0 11.4 5.1 11.4 11.4 0 6.2-5.1 11.3-11.4 11.3z"/><linearGradient id="a" x1="11.964" x2="17.983" y1="19.816" y2="13.797" gradientTransform="matrix(1 0 0 -1 0 32)" gradientUnits="userSpaceOnUse"><stop offset="0" style="stop-color:#aa30be"/><stop offset="1" style="stop-color:#5723b5"/></linearGradient><path fill="url(#a)" d="M18.2 17.1c0 .7-.3 1.3-.9 1.8-.6.4-1.4.7-2.3.7-1 0-1.7-.2-2.3-.7-.6-.4-.9-1-.9-1.8 0-1 .6-1.7 1.7-2.2-.9-.5-1.3-1.2-1.3-2 0-.7.3-1.3.8-1.7s1.2-.6 2-.6 1.5.2 2 .6c.5.4.8 1 .8 1.7 0 .8-.4 1.5-1.3 2 1.2.5 1.7 1.2 1.7 2.2zm-1.7-.1c0-.3-.1-.6-.3-.8-.2-.2-.6-.4-1.1-.6-.5.2-.9.4-1.1.6-.2.2-.3.5-.3.8s.1.6.4.8c.3.2.6.3 1.1.3s.8-.1 1.1-.3c0-.2.2-.5.2-.8zm-2.7-4c0 .3.1.5.3.6s.5.4.9.6c.4-.2.7-.4.9-.6.2-.2.3-.4.3-.6 0-.3-.1-.5-.3-.7-.3-.2-.5-.3-.9-.3s-.6.1-.9.3-.3.4-.3.7z"/></svg>