<svg xmlns="http://www.w3.org/2000/svg" xml:space="preserve" viewBox="0 0 30 30"><path fill="#FFF" d="M15 28.1C7.8 28.1 1.9 22.2 1.9 15 1.9 7.8 7.8 1.9 15 1.9c7.2 0 13.1 5.8 13.1 13.1 0 7.2-5.9 13.1-13.1 13.1z" opacity=".25"/><path fill="#FFF" d="M15 26.4C8.7 26.4 3.6 21.3 3.6 15 3.6 8.8 8.7 3.7 15 3.7c6.3 0 11.4 5.1 11.4 11.4 0 6.2-5.1 11.3-11.4 11.3z"/><linearGradient id="a" x1="10.439" x2="19.192" y1="21.161" y2="12.408" gradientTransform="matrix(1 0 0 -1 0 32)" gradientUnits="userSpaceOnUse"><stop offset="0" style="stop-color:#aa30be"/><stop offset="1" style="stop-color:#5723b5"/></linearGradient><path fill="url(#a)" d="M10.7 17.2h2.5v1.1H8.3V18l2.4-2.6c.3-.4.6-.7.7-.9s.2-.5.2-.7c0-.3-.1-.5-.3-.7s-.4-.3-.7-.3-.5.1-.7.3-.3.4-.3.7v.5H8.4c0-.2-.1-.4-.1-.6 0-.6.2-1.1.7-1.5.4-.4 1-.7 1.7-.7s1.2.2 1.6.6c.4.4.7.9.7 1.5 0 .4-.1.9-.4 1.3-.3.4-.6.8-1.1 1.3l-.8 1zm3.4.3c0-.3.1-.5.3-.7s.4-.3.7-.3.5.1.7.3c.2.2.3.4.3.7 0 .3-.1.5-.3.7s-.4.3-.7.3-.5-.1-.7-.3c-.2-.2-.3-.4-.3-.7zm7.6-1.4c0 .7-.2 1.2-.7 1.7s-1 .7-1.7.7c-.6 0-1.2-.2-1.7-.7s-.7-1-.7-1.7c0-.2 0-.5.1-.7.1-.3.4-.8.8-1.3l1.7-2.3H21l-1.5 2.1c.6 0 1.1.2 1.5.6s.7 1 .7 1.6zm-1.6.8c.2-.2.3-.5.3-.8 0-.3-.1-.6-.3-.8s-.5-.3-.8-.3-.6.1-.8.3-.3.5-.3.8c0 .3.1.6.3.8.2.2.5.3.8.3s.5-.1.8-.3z"/></svg>