<svg xmlns="http://www.w3.org/2000/svg" xml:space="preserve" viewBox="0 0 30 30"><path fill="#FFF" d="M15 28.1C7.8 28.1 1.9 22.2 1.9 15 1.9 7.8 7.8 1.9 15 1.9c7.2 0 13.1 5.8 13.1 13.1 0 7.2-5.9 13.1-13.1 13.1z" opacity=".25"/><path fill="#FFF" d="M15 26.4C8.7 26.4 3.6 21.3 3.6 15 3.6 8.8 8.7 3.7 15 3.7c6.3 0 11.4 5.1 11.4 11.4 0 6.2-5.1 11.3-11.4 11.3z"/><linearGradient id="a" x1="10.138" x2="19.773" y1="21.562" y2="11.928" gradientTransform="matrix(1 0 0 -1 0 32)" gradientUnits="userSpaceOnUse"><stop offset="0" style="stop-color:#aa30be"/><stop offset="1" style="stop-color:#5723b5"/></linearGradient><path fill="url(#a)" d="M11 14.2c0 .3-.1.6-.2.8-.1.2-.3.5-.6.9L9 17.7H7.7L8.9 16c-.4 0-.9-.2-1.2-.5s-.5-.8-.5-1.3.2-1 .6-1.3c.4-.4.8-.6 1.4-.5.5 0 1 .2 1.4.5.2.3.4.8.4 1.3zm-1.3.6c.2-.2.3-.4.3-.6 0-.3-.1-.5-.3-.6s-.4-.3-.6-.3c-.2 0-.4.1-.6.3-.2.2-.3.4-.3.6 0 .3.1.5.3.6.2.2.4.3.6.3s.4-.1.6-.3zm2.1.2c0-.8.2-1.5.5-2 .4-.5.9-.7 1.6-.7s1.2.2 1.6.7c.4.5.5 1.1.5 2 0 .8-.2 1.5-.5 2-.4.5-.9.8-1.5.8-.7 0-1.2-.3-1.6-.8-.4-.5-.6-1.2-.6-2zm3.1 0c0-1.1-.3-1.7-1-1.7s-1 .6-1 1.7c0 1.2.3 1.8 1 1.8.6 0 1-.6 1-1.8zm2.4-.4c-.3-.3-.4-.6-.4-.9s.1-.7.4-.9c.3-.3.6-.4 1-.4s.7.1 1 .4c.3.3.4.6.4.9s-.1.7-.4.9-.6.4-1 .4c-.5-.1-.8-.2-1-.4zm1.5-1c0-.2 0-.3-.1-.4-.1-.1-.2-.2-.4-.2s-.3.1-.4.2c-.1.1-.1.2-.1.4s0 .3.1.4c.1.1.2.2.4.2.1 0 .3-.1.4-.2 0-.1.1-.2.1-.4zm-.9 4.1 3-5.3h.9l-3 5.3h-.9zm2.6-.3c-.3-.3-.4-.6-.4-.9s.1-.7.4-.9.6-.4 1-.4.7.1 1 .4c.3.3.4.6.4.9s-.1.7-.4.9-.6.4-1 .4-.7-.2-1-.4zm1.4-.5c.1-.1.1-.2.1-.4s0-.3-.1-.4-.2-.2-.4-.2-.3.1-.4.2-.1.2-.1.4 0 .3.1.4.2.2.4.2c.1-.1.3-.1.4-.2z"/></svg>