<svg xmlns="http://www.w3.org/2000/svg" xml:space="preserve" viewBox="0 0 30 30"><path fill="#FFF" d="M15 28.1C7.8 28.1 1.9 22.2 1.9 15 1.9 7.8 7.8 1.9 15 1.9c7.2 0 13.1 5.8 13.1 13.1 0 7.2-5.9 13.1-13.1 13.1z" opacity=".25"/><path fill="#FFF" d="M15 26.4C8.7 26.4 3.6 21.3 3.6 15 3.6 8.8 8.7 3.7 15 3.7c6.3 0 11.4 5.1 11.4 11.4 0 6.2-5.1 11.3-11.4 11.3z"/><linearGradient id="a" x1="9.645" x2="18.93" y1="21.805" y2="12.52" gradientTransform="matrix(1 0 0 -1 0 32)" gradientUnits="userSpaceOnUse"><stop offset="0" style="stop-color:#aa30be"/><stop offset="1" style="stop-color:#5723b5"/></linearGradient><path fill="url(#a)" d="M9.8 11.7h.5v6.6H8.9v-5l-1.3.4-.3-1.2 2.5-.8zm1.9 3.2c0-1 .2-1.8.7-2.4.4-.6 1.1-.9 2-.9s1.5.3 1.9.9c.4.6.7 1.4.7 2.4s-.2 1.9-.7 2.5-1.1 1-1.9 1c-.8 0-1.5-.3-1.9-1-.6-.6-.8-1.4-.8-2.5zm3.9.1c0-1.4-.4-2.1-1.2-2.1s-1.2.7-1.2 2.1c0 1.5.4 2.2 1.2 2.2.8 0 1.2-.8 1.2-2.2zm4.1 2.4v-1.8H18v-1.1h1.7v-1.8H21v1.8h1.7v1.1H21v1.8h-1.3z"/></svg>