<svg xmlns="http://www.w3.org/2000/svg" viewBox="-244 367.7 106.2 106.2"><linearGradient id="benefit4" gradientUnits="userSpaceOnUse" x1="-244" y1="473.58" x2="-137.8" y2="367.38" gradientTransform="matrix(1 0 0 -1 0 841.27)"><stop offset="0" stop-color="#b64e96"/><stop offset="1" stop-color="#5f52ca"/></linearGradient><path fill="url(#benefit4)" d="M-244 367.7h106.2v106.2H-244z"/><path fill="#FFF" d="M-157.3 385.8s-17.1 1.8-21.6 10.3-4.9 16-4.5 17.4c.4 1.4 1.8 4 1.8 4s-7 10.7-6.5 12.5c.4 1.7 5.2 2.7 5.2 2.7s.4 1.2-.4 3.6c-.9 2.4 1.6 5.1 2.4 6 .7 1-1 3.9-.4 5.6.6 1.7 3.5 3.7 6.8 3.2 3.3-.4 7.4-.7 8.9-.9 3.5 2.7 3.3 5.6 3.3 5.6h5v-70zM-224.4 455.8h5s-.2-2.9 3.3-5.6c1.5.3 5.6.5 8.9.9 3.3.4 6.2-1.6 6.8-3.2.6-1.7-1.2-4.6-.4-5.6.7-1 3.2-3.7 2.4-6-.9-2.4-.4-3.6-.4-3.6s4.8-.9 5.2-2.7c.4-1.7-6.5-12.5-6.5-12.5s1.5-2.6 1.8-4c.3-1.4 0-8.9-4.5-17.4-4.5-8.5-21.6-10.3-21.6-10.3v70z"/></svg>