<svg xmlns="http://www.w3.org/2000/svg" viewBox="-244 367.7 106.2 106.2"><linearGradient id="benefit" gradientUnits="userSpaceOnUse" x1="-244" y1="473.58" x2="-137.8" y2="367.38" gradientTransform="matrix(1 0 0 -1 0 841.27)"><stop offset="0" stop-color="#b64e96"/><stop offset="1" stop-color="#5f52ca"/></linearGradient><path fill="url(#benefit)" d="M-244 367.7h106.2v106.2H-244z"/><path fill="#FFF" d="M-222.7 383.8c-.9.4 1 10.4 5.5 11.3 5 1 8.6-10.3 17.2-10.4 2.6 0 5.9.9 7.4 3.3 3.1 4.7-1.4 14-7.1 19.7-10.3 10.3-23.7 7.9-24.7 13.9-.6 3.2 2.6 7.9 6.2 8.5 7.1 1.2 11.2-13.8 28.8-23.1 5.4-2.8 8.5-3.3 10.6-2 3.2 1.9 3.9 7.5 2.8 11.7-2 7.5-11.1 13.9-19.7 15.8-4.2.9-9.1 1-10.7 4.4-.1.2-1 2-.2 3.4 1.4 2.8 8.1 3.1 13.2 1.1 6.3-2.5 6-6.9 14.2-12.5 3.6-2.4 7.9-5.3 10.9-3.6 2.8 1.6 3.9 6.9 2 10-1.7 2.7-4.6 1.9-11.3 5.5-3.3 1.8-6.2 3.3-6 4.9.2 2.2 6.3 4.6 11.9 3.8 8.9-1.3 7.8-3.8 9.6-4 3.1-.4 5 2.7 4.4 5.9-1.2 5.8-4.7 6.5-10.4 6.5-29.3.2-51.9-75.3-54.6-74.1z"/></svg>