<svg xmlns="http://www.w3.org/2000/svg" viewBox="-244 367.7 106.2 106.2"><linearGradient id="benefit5" gradientUnits="userSpaceOnUse" x1="-244" y1="473.58" x2="-137.8" y2="367.38" gradientTransform="matrix(1 0 0 -1 0 841.27)"><stop offset="0" stop-color="#b64e96"/><stop offset="1" stop-color="#5f52ca"/></linearGradient><path fill="url(#benefit5)" d="M-244 367.7h106.2v106.2H-244z"/><g fill="#FFF"><path d="M707.7 2705.2c-1.1 0-1.9-.9-1.9-1.9v-18.8h-6.7v18.8c0 1.1-.9 1.9-1.9 1.9H670v6.7h27.3c1.1 0 1.9.9 1.9 1.9v18.8h6.7v-18.8c0-1.1.9-1.9 1.9-1.9h27.3v-6.7h-27.4z"/><path d="M709.6 2698.7l14.1-14.1c-.7-.1-1.3-.2-2-.2h-12v14.3zM712.3 2701.4H735v-3.6c0-5.2-2.9-9.6-7.2-11.8l-15.5 15.4zM712.3 2715.7l15.4 15.4c4.3-2.2 7.3-6.7 7.3-11.9v-3.6h-22.7zM695.3 2698.7v-14.2h-12c-.7 0-1.4.1-2 .2l14 14zM709.6 2718.4v14.2h12c.7 0 1.3-.1 2-.1l-14-14.1zM692.6 2701.4l-15.4-15.4c-4.3 2.2-7.2 6.7-7.2 11.8v3.6h22.6zM692.6 2715.7H670v3.6c0 5.2 2.9 9.6 7.2 11.8l15.4-15.4zM695.3 2718.4l-14.1 14.1c.7.1 1.3.2 2 .2h2l4.6 5.9c.4.5.9.7 1.5.7s1.1-.3 1.5-.7l2.4-3.1v-17.1z"/></g><g fill="#FFF"><path d="M-185.7 414.2c-1.1 0-1.9-.9-1.9-1.9v-18.8h-6.7v18.8c0 1.1-.9 1.9-1.9 1.9h-27.3v6.7h27.3c1.1 0 1.9.9 1.9 1.9v18.8h6.7v-18.8c0-1.1.9-1.9 1.9-1.9h27.3v-6.7h-27.3z"/><path d="M-183.8 407.7l14.1-14.1c-.7-.1-1.3-.2-2-.2h-12v14.3zM-181.1 410.4h22.7v-3.6c0-5.2-2.9-9.6-7.2-11.8l-15.5 15.4zM-181.1 424.6l15.4 15.4c4.3-2.2 7.3-6.7 7.3-11.9v-3.6h-22.7zM-198 407.7v-14.2h-12c-.7 0-1.4.1-2 .2l14 14zM-183.8 427.3v14.2h12c.7 0 1.3-.1 2-.1l-14-14.1zM-200.7 410.4l-15.4-15.4c-4.3 2.2-7.2 6.7-7.2 11.8v3.6h22.6zM-200.7 424.6h-22.7v3.6c0 5.2 2.9 9.6 7.2 11.8l15.5-15.4zM-198 427.3l-14.1 14.1c.7.1 1.3.2 2 .2h2l4.6 5.9c.4.5.9.7 1.5.7s1.1-.3 1.5-.7l2.4-3.1v-17.1z"/></g></svg>