<svg xmlns="http://www.w3.org/2000/svg" viewBox="-244 367.7 106.2 106.2"><linearGradient id="benefit2" gradientUnits="userSpaceOnUse" x1="-244" y1="473.58" x2="-137.8" y2="367.38" gradientTransform="matrix(1 0 0 -1 0 841.27)"><stop offset="0" stop-color="#b64e96"/><stop offset="1" stop-color="#5f52ca"/></linearGradient><path fill="url(#benefit2)" d="M-244 367.7h106.2v106.2H-244z"/><path fill="#FFF" d="M-161.2 441.1l-5.6-19.1c3.4-2.1 5.7-5.8 5.7-10 0-6.5-5.3-11.7-11.7-11.7-8.1 0-13.8 8.1-11 15.7l-8.6 5.9c-3.4-3.2-8-4.6-12.6-3.9l-5.4-14c2.9-2.1 4.8-5.5 4.8-9.4 0-6.4-5.2-11.6-11.6-11.6-6.4 0-11.6 5.2-11.6 11.6 0 6.9 6 12.3 12.9 11.6l5.4 14c-4 2.6-6.7 7.1-6.7 12.3 0 8.1 6.6 14.6 14.6 14.6 10.5 0 17.5-10.7 13.5-20.3l8.6-5.9c2.1 1.8 4.7 2.9 7.7 2.9h.3l5.6 19.1a8.76 8.76 0 0 0-3.6 7.1c0 4.9 4 8.8 8.8 8.8s8.8-4 8.8-8.8c0-4.8-3.7-8.6-8.3-8.9z"/></svg>