<svg xmlns="http://www.w3.org/2000/svg" xml:space="preserve" viewBox="0 0 1226.4 716.2"><linearGradient id="a" x1="136.295" x2="1099.832" y1="-136.295" y2="827.242" gradientUnits="userSpaceOnUse"><stop offset="0" style="stop-color:#aa30be"/><stop offset="1" style="stop-color:#5723b5"/></linearGradient><path fill="url(#a)" d="M0 0c120.1 44.9 293.9 125.9 470.6 272.3C626 401.1 729.9 535.9 795.7 636.5c24.9-33.6 86.2-184.2 205.8-184.2 94.5 0 200 153.3 220.6 218.6l2.5 7.9c5.3 15.2-1.3 31-16.3 35.9l-.3.1c-15.2 5-28.4-3.9-34.1-19.4 0 0-2.1-5.5-3.3-8.2-22.9-53.3-81.1-200.4-180.3-209.9-88.5-8.5-163.9 150.8-182.8 175.7l-5.7 9.2c-3.3 5.4-11.1 5.4-14.6.2-6.6-10.1-14.7-22-24-35.4 0 0-47.3-67.3-105.3-132.1-128.8-143.8-289.6-252.5-289.6-252.5C232.3 150.5 102.6 94 0 58.6V0z"/></svg>