<svg xmlns="http://www.w3.org/2000/svg" viewBox="0 0 247.7 143.4"><path fill="#FFF" stroke="#5F52CA" stroke-width=".34" stroke-linejoin="round" stroke-miterlimit="10" d="M135.4 91.6H5.3c-2.8 0-5.1-2.3-5.1-5.1V5.6C.2 2.8 2.5.5 5.3.5h130.1c2.8 0 5.1 2.3 5.1 5.1v80.9c0 2.8-2.3 5.1-5.1 5.1z"/><path fill="#100220" d="M136.6 0H4C1.8 0 0 1.8 0 4v10.7h140.6V4c0-2.2-1.7-4-4-4z"/><path fill="#5F52CA" stroke="#5F52CA" stroke-width=".939" stroke-miterlimit="10" d="M130.9 86.8H10.1c-2.3 0-4.2-1.9-4.2-4.2V23.8c0-2.3 1.9-4.2 4.2-4.2H131c2.3 0 4.2 1.9 4.2 4.2v58.8c-.1 2.3-2 4.2-4.3 4.2z"/><circle opacity=".3" fill="#0042C0" cx="8.1" cy="7.8" r="4"/><path opacity=".4" fill="#00E6FF" d="M8.1 11.7c-2.2 0-3.9-1.7-4-3.9v.1c0 2.2 1.8 4 4 4s4-1.8 4-4v-.1c-.1 2.1-1.9 3.9-4 3.9z"/><circle opacity=".3" fill="#00B3FF" cx="8.1" cy="7.8" r="3.1"/><circle fill="#FF3D40" cx="8.1" cy="7.8" r="2.5"/><path fill="#FF8D8E" d="M8.1 5.4c1.4 0 2.5 1.1 2.5 2.5 0-1.4-1.1-2.6-2.5-2.5-1.4-.1-2.5 1.1-2.5 2.4 0-1.3 1.1-2.4 2.5-2.4z"/><circle fill="#C32717" cx="8.1" cy="7.8" r="1.5"/><path fill="#FF8D8E" d="M8.1 6.4c.8 0 1.5.7 1.5 1.5 0-.9-.7-1.6-1.5-1.5-.9-.1-1.5.6-1.5 1.4 0-.7.7-1.4 1.5-1.4z"/><circle opacity=".3" fill="#0042C0" cx="19.6" cy="7.8" r="4"/><path opacity=".4" fill="#00E6FF" d="M19.6 11.7c-2.2 0-3.9-1.7-4-3.9v.1c0 2.2 1.8 4 4 4s4-1.8 4-4v-.1c-.1 2.1-1.9 3.9-4 3.9z"/><circle opacity=".3" fill="#00B3FF" cx="19.6" cy="7.8" r="3.1"/><circle fill="#FFCD00" cx="19.6" cy="7.8" r="2.5"/><path fill="#FFEC00" d="M19.6 5.4c1.4 0 2.5 1.1 2.5 2.5 0-1.4-1.1-2.6-2.5-2.5-1.4-.1-2.5 1.1-2.5 2.4 0-1.3 1.1-2.4 2.5-2.4z"/><circle fill="#FFA600" cx="19.6" cy="7.8" r="1.5"/><path fill="#FFBC00" d="M19.6 6.4c.8 0 1.5.7 1.5 1.5 0-.9-.7-1.6-1.5-1.5-.8-.1-1.5.6-1.5 1.4 0-.7.7-1.4 1.5-1.4z"/><circle opacity=".3" fill="#0042C0" cx="31.1" cy="7.8" r="4"/><path opacity=".4" fill="#00E6FF" d="M31.1 11.7c-2.2 0-3.9-1.7-4-3.9v.1c0 2.2 1.8 4 4 4s4-1.8 4-4v-.1c-.1 2.1-1.9 3.9-4 3.9z"/><circle opacity=".3" fill="#00B3FF" cx="31.1" cy="7.8" r="3.1"/><circle fill="#45D788" cx="31.1" cy="7.8" r="2.5"/><path fill="#91F6AB" d="M31.1 5.4c1.4 0 2.5 1.1 2.5 2.5 0-1.4-1.1-2.6-2.5-2.5-1.4-.1-2.5 1.1-2.5 2.4 0-1.3 1.1-2.4 2.5-2.4z"/><circle fill="#11AB6B" cx="31.1" cy="7.8" r="1.5"/><path fill="#91F6AB" d="M31.1 6.4c.8 0 1.5.7 1.5 1.5 0-.9-.7-1.6-1.5-1.5-.8-.1-1.5.6-1.5 1.4 0-.7.7-1.4 1.5-1.4z"/><path fill="none" stroke="#FFF" stroke-width="1.36" stroke-linecap="round" stroke-linejoin="round" stroke-miterlimit="10" d="M12.7 23.5l-3.1 3.1 3.1 3.1M20.5 23.5l3 3.1-3 3.1M15.3 30.2l2.4-6.7"/><circle fill="#FFF" cx="26.8" cy="30.3" r=".9"/><circle fill="#FFF" cx="30.4" cy="30.3" r=".9"/><circle fill="#FFF" cx="34" cy="30.3" r=".9"/><path fill="none" stroke="#FFF" stroke-width="1.36" stroke-linecap="round" stroke-linejoin="round" stroke-miterlimit="10" d="M11.2 36.6H104M109.6 36.6h7.2M120.8 36.6h9.1"/><path fill="none" stroke="#AAF9F9" stroke-width="1.36" stroke-linecap="round" stroke-linejoin="round" stroke-miterlimit="10" d="M11.2 43.9h58M77.9 43.9h10.4M88.3 48.1H60M56.1 48.1h-5.7M45.9 48.1h-5.7M35.7 48.1H30M25.5 48.1h-5.7"/><path fill="none" stroke="#F9B7D2" stroke-width="1.36" stroke-linecap="round" stroke-linejoin="round" stroke-miterlimit="10" d="M107.8 53.2h-88"/><path fill="none" stroke="#AAF9F9" stroke-width="1.36" stroke-linecap="round" stroke-linejoin="round" stroke-miterlimit="10" d="M13.2 48.1h-2M13.2 53.2h-2M13.2 58.3h-2M13.2 63.4h-2"/><path fill="none" stroke="#F9B7D2" stroke-width="1.36" stroke-linecap="round" stroke-linejoin="round" stroke-miterlimit="10" d="M113.2 53.2h12.1M19.6 58.3h24.3M19.6 63.5h24.3M19.6 68.7h24.3M19.6 74h24.3"/><path fill="none" stroke="#F9EAAF" stroke-width="1.36" stroke-linecap="round" stroke-linejoin="round" stroke-miterlimit="10" d="M60 74h49.6M89.4 68.7h20.2M101.6 63.4h8"/><g><path fill="#FFF" stroke="#5F52CA" stroke-width=".34" stroke-linejoin="round" stroke-miterlimit="10" d="M215.6 143.2h-58.9c-2.9 0-5.2-2.3-5.2-5.2V40.5c0-2.9 2.3-5.2 5.2-5.2h58.9c2.9 0 5.2 2.3 5.2 5.2V138c0 2.8-2.3 5.2-5.2 5.2z"/><path fill="#100220" d="M218 35.2h-64c-1.5 0-2.7 1.2-2.7 2.7V45h69.3v-7.1c0-1.5-1.1-2.7-2.6-2.7z"/><path fill="#5F52CA" stroke="#5F52CA" stroke-width=".939" stroke-miterlimit="10" d="M213 140h-53.6c-2.3 0-4.2-1.9-4.2-4.2V52.2c0-2.3 1.9-4.2 4.2-4.2H213c2.3 0 4.2 1.9 4.2 4.2v83.6c0 2.3-1.8 4.2-4.2 4.2z"/><circle opacity=".3" fill="#0042C0" cx="156.8" cy="40.2" r="2.6"/><path opacity=".4" fill="#00E6FF" d="M156.8 42.8c-1.4 0-2.6-1.2-2.6-2.6-.1 1.5 1.1 2.7 2.6 2.6 1.5.1 2.6-1.1 2.6-2.5 0 1.3-1.2 2.5-2.6 2.5z"/><circle opacity=".3" fill="#00B3FF" cx="156.8" cy="40.2" r="2"/><circle fill="#FF3D40" cx="156.8" cy="40.2" r="1.7"/><path fill="#FF8D8E" d="M156.8 38.6c.9 0 1.7.7 1.7 1.6-.1-.9-.8-1.7-1.7-1.6-.9 0-1.7.7-1.7 1.6 0-.9.7-1.6 1.7-1.6z"/><circle fill="#C32717" cx="156.8" cy="40.2" r="1"/><path fill="#FF8D8E" d="M156.8 39.3c.5 0 1 .4 1 1 0-.6-.5-1.1-1-1-.6-.1-1 .4-1 1 0-.6.4-1 1-1z"/><circle opacity=".3" fill="#0042C0" cx="164.4" cy="40.2" r="2.6"/><path opacity=".4" fill="#00E6FF" d="M164.4 42.8c-1.4 0-2.6-1.2-2.6-2.6 0 1.5 1.1 2.7 2.6 2.6 1.5.1 2.6-1.1 2.6-2.5 0 1.3-1.2 2.5-2.6 2.5z"/><circle opacity=".3" fill="#00B3FF" cx="164.4" cy="40.2" r="2"/><circle fill="#FFCD00" cx="164.4" cy="40.2" r="1.7"/><path fill="#FFEC00" d="M164.4 38.6c.9 0 1.7.7 1.7 1.6 0-.9-.8-1.7-1.7-1.6-.9 0-1.7.7-1.7 1.6 0-.9.8-1.6 1.7-1.6z"/><circle fill="#FFA600" cx="164.4" cy="40.2" r="1"/><path fill="#FFBC00" d="M164.4 39.3c.5 0 1 .4 1 1 0-.6-.4-1.1-1-1-.6-.1-1 .4-1 1 0-.6.5-1 1-1z"/><circle opacity=".3" fill="#0042C0" cx="172" cy="40.2" r="2.6"/><path opacity=".4" fill="#00E6FF" d="M172 42.8c-1.4 0-2.6-1.2-2.6-2.6 0 1.5 1.2 2.7 2.6 2.6 1.5.1 2.6-1.1 2.6-2.5.1 1.3-1.1 2.5-2.6 2.5z"/><circle opacity=".3" fill="#00B3FF" cx="172" cy="40.2" r="2"/><circle fill="#45D788" cx="172" cy="40.2" r="1.7"/><path fill="#91F6AB" d="M172 38.6c.9 0 1.7.7 1.7 1.6 0-.9-.7-1.7-1.7-1.6-.9 0-1.7.7-1.7 1.6.1-.9.8-1.6 1.7-1.6z"/><circle fill="#11AB6B" cx="172" cy="40.2" r="1"/><path fill="#91F6AB" d="M172 39.3c.5 0 1 .4 1 1 .1-.6-.4-1.1-1-1-.6-.1-1 .4-1 1 .1-.6.5-1 1-1z"/><path fill="#FFF" d="M201.8 59.9h-43c-.3 0-.5-.2-.5-.5s.2-.5.5-.5h43c.3 0 .5.2.5.5 0 .2-.3.5-.5.5zM208.7 59.9h-3.2c-.3 0-.5-.2-.5-.5s.2-.5.5-.5h3.2c.3 0 .5.2.5.5 0 .2-.2.5-.5.5zM213.8 59.9h-2.4c-.3 0-.5-.2-.5-.5s.2-.5.5-.5h2.4c.3 0 .5.2.5.5 0 .2-.2.5-.5.5z"/><path fill="#AAF9F9" d="M182.9 64.7h-24.1c-.3 0-.5-.2-.5-.5s.2-.5.5-.5h24.1c.3 0 .5.2.5.5.1.3-.2.5-.5.5zM191.3 64.7h-6.9c-.3 0-.5-.2-.5-.5s.2-.5.5-.5h6.9c.3 0 .5.2.5.5s-.2.5-.5.5zM191.3 67.5H187c-.3 0-.5-.2-.5-.5s.2-.5.5-.5h4.3c.3 0 .5.2.5.5s-.2.5-.5.5zM184.9 67.5h-.5c-.3 0-.5-.2-.5-.5s.2-.5.5-.5h.5c.3 0 .5.2.5.5s-.2.5-.5.5zM181.9 67.5h-3.8c-.3 0-.5-.2-.5-.5s.2-.5.5-.5h3.8c.3 0 .5.2.5.5s-.2.5-.5.5zM175.1 67.5h-3.8c-.3 0-.5-.2-.5-.5s.2-.5.5-.5h3.8c.3 0 .5.2.5.5s-.2.5-.5.5zM168.3 67.5h-3.8c-.3 0-.5-.2-.5-.5s.2-.5.5-.5h3.8c.3 0 .5.2.5.5.1.3-.2.5-.5.5z"/><path fill="#F9B7D2" d="M204.3 70.9h-39.8c-.3 0-.5-.2-.5-.5s.2-.5.5-.5h39.8c.3 0 .5.2.5.5.1.3-.2.5-.5.5z"/><path fill="#AAF9F9" d="M160.2 67.5h-1.4c-.3 0-.5-.2-.5-.5s.2-.5.5-.5h1.4c.3 0 .5.2.5.5s-.2.5-.5.5zM160.2 70.9h-1.4c-.3 0-.5-.2-.5-.5s.2-.5.5-.5h1.4c.3 0 .5.2.5.5s-.2.5-.5.5zM160.2 74.3h-1.4c-.3 0-.5-.2-.5-.5s.2-.5.5-.5h1.4c.3 0 .5.2.5.5s-.2.5-.5.5zM160.2 77.7h-1.4c-.3 0-.5-.2-.5-.5s.2-.5.5-.5h1.4c.3 0 .5.2.5.5s-.2.5-.5.5z"/><path fill="#F9B7D2" d="M212.8 70.9h-4.9c-.3 0-.5-.2-.5-.5s.2-.5.5-.5h4.9c.3 0 .5.2.5.5s-.2.5-.5.5zM180.6 74.3h-16.2c-.3 0-.5-.2-.5-.5s.2-.5.5-.5h16.2c.3 0 .5.2.5.5s-.2.5-.5.5z"/><path fill="#F9EAAF" d="M205.5 84.7H187c-.3 0-.5-.2-.5-.5s.2-.5.5-.5h18.5c.3 0 .5.2.5.5s-.2.5-.5.5zM205.5 81.2h-13.4c-.3 0-.5-.2-.5-.5s.2-.5.5-.5h13.4c.3 0 .5.2.5.5s-.2.5-.5.5zM205.5 77.7h-5.3c-.3 0-.5-.2-.5-.5s.2-.5.5-.5h5.3c.3 0 .5.2.5.5s-.2.5-.5.5z"/><g><path fill="#F9B7D2" d="M178.1 55.1h-19.3c-.3 0-.5-.2-.5-.5s.2-.5.5-.5h19.3c.3 0 .5.2.5.5.1.3-.2.5-.5.5z"/></g><g><path fill="#F9EAAF" d="M190.7 93h-31.9c-.3 0-.5-.2-.5-.5s.2-.5.5-.5h31.9c.3 0 .5.2.5.5s-.2.5-.5.5z"/></g><g><path fill="#F9EAAF" d="M190.7 97.2h-31.9c-.3 0-.5-.2-.5-.5s.2-.5.5-.5h31.9c.3 0 .5.2.5.5 0 .2-.2.5-.5.5z"/></g><g><path fill="#F9EAAF" d="M190.7 101.4h-31.9c-.3 0-.5-.2-.5-.5s.2-.5.5-.5h31.9c.3 0 .5.2.5.5 0 .2-.2.5-.5.5z"/></g><g><path fill="#F9EAAF" d="M190.7 126.4h-31.9c-.3 0-.5-.2-.5-.5s.2-.5.5-.5h31.9c.3 0 .5.2.5.5s-.2.5-.5.5z"/></g><g><path fill="#FFF" d="M197.5 88.1h-8.7c-.3 0-.5-.2-.5-.5s.2-.5.5-.5h8.7c.3 0 .5.2.5.5s-.2.5-.5.5z"/></g><g><path fill="#FFF" d="M213.8 88.1h-12c-.3 0-.5-.2-.5-.5s.2-.5.5-.5h12c.3 0 .5.2.5.5s-.2.5-.5.5z"/></g><g><path fill="#FFF" d="M213.8 93h-12c-.3 0-.5-.2-.5-.5s.2-.5.5-.5h12c.3 0 .5.2.5.5s-.2.5-.5.5z"/></g><g><path fill="#FFF" d="M162.7 132.7h-3.9c-.3 0-.5-.2-.5-.5s.2-.5.5-.5h3.9c.3 0 .5.2.5.5.1.3-.2.5-.5.5z"/></g><g><path fill="#FFF" d="M162.7 135.9h-3.9c-.3 0-.5-.2-.5-.5s.2-.5.5-.5h3.9c.3 0 .5.2.5.5.1.3-.2.5-.5.5z"/></g><g><path fill="#FFF" d="M194.7 135.9h-29.6c-.3 0-.5-.2-.5-.5s.2-.5.5-.5h29.6c.3 0 .5.2.5.5s-.3.5-.5.5z"/></g><g><path fill="#FFF" d="M170.4 132.7h-3.9c-.3 0-.5-.2-.5-.5s.2-.5.5-.5h3.9c.3 0 .5.2.5.5.1.3-.2.5-.5.5z"/></g><g><path fill="#FFF" d="M178.1 132.7h-3.9c-.3 0-.5-.2-.5-.5s.2-.5.5-.5h3.9c.3 0 .5.2.5.5.1.3-.2.5-.5.5z"/></g><g><path fill="#FFF" d="M185.8 132.7h-3.9c-.3 0-.5-.2-.5-.5s.2-.5.5-.5h3.9c.3 0 .5.2.5.5.1.3-.2.5-.5.5z"/></g><g><path fill="#FFF" d="M193.5 132.7h-3.9c-.3 0-.5-.2-.5-.5s.2-.5.5-.5h3.9c.3 0 .5.2.5.5.1.3-.2.5-.5.5z"/></g><g><path fill="#FFF" d="M201.2 132.7h-3.9c-.3 0-.5-.2-.5-.5s.2-.5.5-.5h3.9c.3 0 .5.2.5.5.1.3-.2.5-.5.5z"/></g><g><path fill="#FFF" d="M207.4 132.7H205c-.3 0-.5-.2-.5-.5s.2-.5.5-.5h2.4c.3 0 .5.2.5.5s-.2.5-.5.5z"/></g></g><g><path fill="#FFF" stroke="#5F52CA" stroke-width=".34" stroke-linejoin="round" stroke-miterlimit="10" d="M244.3 54h-46.9c-1.7 0-3.2-1.4-3.2-3.2V8.4c0-1.7 1.4-3.2 3.2-3.2h46.9c1.7 0 3.2 1.4 3.2 3.2v42.5c-.1 1.7-1.5 3.1-3.2 3.1z"/><path fill="#100220" d="M245.6 4.9H196c-1.1 0-2.1.9-2.1 2v5.5h53.7V6.9c.1-1.1-.8-2-2-2z"/><path fill="#5F52CA" stroke="#5F52CA" stroke-width=".939" stroke-miterlimit="10" d="M242.3 51.6h-42.8c-1.3 0-2.4-1.1-2.4-2.4V17.4c0-1.3 1.1-2.4 2.4-2.4h42.8c1.3 0 2.4 1.1 2.4 2.4v31.8c0 1.3-1.1 2.4-2.4 2.4z"/><circle opacity=".3" fill="#0042C0" cx="198.2" cy="9" r="2"/><path opacity=".4" fill="#00E6FF" d="M198.2 10.9c-1.1 0-2-.9-2-2 0 1.2.9 2.1 2 2 1.1.1 2-.8 2-2 0 1.2-.9 2-2 2z"/><circle opacity=".3" fill="#00B3FF" cx="198.2" cy="9" r="1.6"/><circle fill="#FF3D40" cx="198.2" cy="9" r="1.3"/><path fill="#FF8D8E" d="M198.2 7.7a1.324 1.324 0 0 0 0 0c-.7 0-1.3.5-1.3 1.2 0-.6.6-1.2 1.3-1.2z"/><circle fill="#C32717" cx="198.2" cy="9" r=".8"/><path fill="#FF8D8E" d="M198.2 8.3c.4 0 .8.3.8.8 0-.5-.4-.9-.8-.8-.4 0-.8.3-.8.7 0-.4.4-.7.8-.7z"/><circle opacity=".3" fill="#0042C0" cx="204.1" cy="9" r="2"/><path opacity=".4" fill="#00E6FF" d="M204.1 10.9c-1.1 0-2-.9-2-2-.1 1.2.9 2.1 2 2 1.1.1 2-.8 2-2 0 1.2-.9 2-2 2z"/><circle opacity=".3" fill="#00B3FF" cx="204.1" cy="9" r="1.6"/><circle fill="#FFCD00" cx="204.1" cy="9" r="1.3"/><path fill="#FFEC00" d="M204.1 7.7a1.324 1.324 0 0 0 0 0c-.7 0-1.3.5-1.3 1.2 0-.6.6-1.2 1.3-1.2z"/><circle fill="#FFA600" cx="204.1" cy="9" r=".8"/><path fill="#FFBC00" d="M204.1 8.3c.4 0 .8.3.8.8 0-.5-.4-.9-.8-.8-.4 0-.8.3-.8.7 0-.4.4-.7.8-.7z"/><circle opacity=".3" fill="#0042C0" cx="210" cy="9" r="2"/><path opacity=".4" fill="#00E6FF" d="M210 10.9c-1.1 0-2-.9-2-2-.1 1.2.8 2.1 2 2 1.1.1 2-.8 2-2 0 1.2-.9 2-2 2z"/><circle opacity=".3" fill="#00B3FF" cx="210" cy="9" r="1.6"/><circle fill="#45D788" cx="210" cy="9" r="1.3"/><path fill="#91F6AB" d="M210 7.7c.7 0 1.3.6 1.3 1.3-.1-.7-.6-1.3-1.3-1.3-.7 0-1.3.5-1.3 1.2 0-.6.6-1.2 1.3-1.2z"/><circle fill="#11AB6B" cx="210" cy="9" r=".8"/><path fill="#91F6AB" d="M210 8.3c.4 0 .8.3.8.8-.1-.5-.4-.9-.8-.8-.4 0-.8.3-.8.7 0-.4.3-.7.8-.7z"/><path fill="#FFF" d="M232.8 24.1h-33c-.2 0-.4-.2-.4-.4s.2-.4.4-.4h33c.2 0 .4.2.4.4s-.2.4-.4.4zM238.1 24.1h-2.4c-.2 0-.4-.2-.4-.4s.2-.4.4-.4h2.4c.2 0 .4.2.4.4s-.2.4-.4.4zM242 24.1h-1.9c-.2 0-.4-.2-.4-.4s.2-.4.4-.4h1.9c.2 0 .4.2.4.4s-.2.4-.4.4z"/><path fill="#AAF9F9" d="M218.3 27.8h-18.5c-.2 0-.4-.2-.4-.4s.2-.4.4-.4h18.5c.2 0 .4.2.4.4s-.2.4-.4.4zM224.8 27.8h-5.3c-.2 0-.4-.2-.4-.4s.2-.4.4-.4h5.3c.2 0 .4.2.4.4s-.2.4-.4.4zM224.8 30h-3.3c-.2 0-.4-.2-.4-.4s.2-.4.4-.4h3.3c.2 0 .4.2.4.4s-.2.4-.4.4zM219.8 30h-.4c-.2 0-.4-.2-.4-.4s.2-.4.4-.4h.4c.2 0 .4.2.4.4s-.1.4-.4.4zM217.5 30h-2.9c-.2 0-.4-.2-.4-.4s.2-.4.4-.4h2.9c.2 0 .4.2.4.4s-.1.4-.4.4zM212.3 30h-2.9c-.2 0-.4-.2-.4-.4s.2-.4.4-.4h2.9c.2 0 .4.2.4.4s-.2.4-.4.4zM207.1 30h-2.9c-.2 0-.4-.2-.4-.4s.2-.4.4-.4h2.9c.2 0 .4.2.4.4s-.2.4-.4.4z"/><path fill="#F9B7D2" d="M234.8 32.6h-30.6c-.2 0-.4-.2-.4-.4s.2-.4.4-.4h30.6c.2 0 .4.2.4.4s-.2.4-.4.4z"/><path fill="#AAF9F9" d="M200.8 30h-1.1c-.2 0-.4-.2-.4-.4s.2-.4.4-.4h1.1c.2 0 .4.2.4.4s-.2.4-.4.4zM200.8 32.6h-1.1c-.2 0-.4-.2-.4-.4s.2-.4.4-.4h1.1c.2 0 .4.2.4.4s-.2.4-.4.4zM200.8 35.2h-1.1c-.2 0-.4-.2-.4-.4s.2-.4.4-.4h1.1c.2 0 .4.2.4.4s-.2.4-.4.4z"/><path fill="#F9B7D2" d="M241.3 32.6h-3.8c-.2 0-.4-.2-.4-.4s.2-.4.4-.4h3.8c.2 0 .4.2.4.4s-.2.4-.4.4zM216.5 35.2H204c-.2 0-.4-.2-.4-.4s.2-.4.4-.4h12.5c.2 0 .4.2.4.4s-.1.4-.4.4z"/><path fill="#F9EAAF" d="M235.7 38.6h-14.2c-.2 0-.4-.2-.4-.4s.2-.4.4-.4h14.2c.2 0 .4.2.4.4s-.2.4-.4.4zM235.7 36.8h-4.1c-.2 0-.4-.2-.4-.4s.2-.4.4-.4h4.1c.2 0 .4.2.4.4s-.2.4-.4.4z"/><g><path fill="#F9B7D2" d="M214.6 20.4h-14.9c-.2 0-.4-.2-.4-.4s.2-.4.4-.4h14.9c.2 0 .4.2.4.4s-.2.4-.4.4z"/></g><g><path fill="#F9EAAF" d="M224.3 45.9h-24.5c-.2 0-.4-.2-.4-.4s.2-.4.4-.4h24.5c.2 0 .4.2.4.4s-.2.4-.4.4z"/></g><g><path fill="#FFF" d="M229.5 41.2h-6.7c-.2 0-.4-.2-.4-.4s.2-.4.4-.4h6.7c.2 0 .4.2.4.4s-.2.4-.4.4z"/></g><g><path fill="#FFF" d="M242 41.2h-9.2c-.2 0-.4-.2-.4-.4s.2-.4.4-.4h9.2c.2 0 .4.2.4.4s-.2.4-.4.4z"/></g><g><path fill="#FFF" d="M242 44.9h-9.2c-.2 0-.4-.2-.4-.4s.2-.4.4-.4h9.2c.2 0 .4.2.4.4s-.2.4-.4.4z"/></g><g><path fill="#FFF" d="M202.8 48.5h-3c-.2 0-.4-.2-.4-.4s.2-.4.4-.4h3c.2 0 .4.2.4.4s-.2.4-.4.4z"/></g><g><path fill="#FFF" d="M227.3 48.5h-22.7c-.2 0-.4-.2-.4-.4s.2-.4.4-.4h22.7c.2 0 .4.2.4.4s-.1.4-.4.4z"/></g></g></svg>