<svg xmlns="http://www.w3.org/2000/svg" viewBox="0 0 193.5 201.7"><g fill="none" stroke="#B64E96" stroke-linejoin="round" stroke-miterlimit="10" stroke-width=".5" clip-rule="evenodd"><path d="M1 37.6 46.4 54l5.7-47.9L35 1 3.7 20.3z"/><path d="m1 37.6 14.4-8.9 31 25.3zM52.1 6.1l-14.4 8.8L46.4 54zm-32.5 4.4-4.2 18.2 22.3-13.8zM3.7 20.3l11.7 8.4L1 37.6z"/><path d="m35 1 2.7 14 14.4-8.9z"/></g><path fill="#100220" d="M79.8 177.3v-5.1h-3v5.1c0 9.4-7.6 17.1-17 17.1l-26.7.1v7l90 .3v-7.5l-26.2.1c-9.4-.1-17.1-7.7-17.1-17.1zm28.547-157.715 2.57 1.11-61.474 142.504-2.57-1.11z"/><path fill="#100220" d="M78.4 174.5c-13 0-25.4-2.9-36.9-8.7-11-5.5-20.8-13.5-28.3-23.2l6.6-5.2C34 155.6 55.4 166 78.4 166c41 0 74.3-33.3 74.3-74.3s-33.3-74.3-74.3-74.3V9.1c22.1 0 42.9 8.6 58.5 24.2 15.6 15.6 24.2 36.4 24.2 58.5s-8.6 42.9-24.2 58.5-36.4 24.2-58.5 24.2z"/><circle cx="78.4" cy="91.8" r="67.6" fill="#5F52CA" stroke="#5F52CA" stroke-miterlimit="10"/><path fill="none" d="M28.5 47.4c.1.1.1.3.2.4v-1c.1-.3.1-.6.2-.9l-.1-.1c-.1.1-.2.3-.4.4 0 0 0 .1.1.1 0 .2-.1.4-.1.6-.1-.1-.2-.2-.4-.3-.1.1-.1.2-.2.2.1 0 .1.1.2.1.1.3.3.4.5.5zm33.9-21.2c-.1 0-.2 0-.2.1h.1c.1 0 .1-.1.1-.1zm5.3-.9c.1.1.2.2.4.2.5.1.9.2 1.4.3.2 0 .5.1.7.1 0 .1.1.2.1.2l-.3.3c-.1.1.5 0 .5 0 .1-.1.2-.2.4-.2.5.1.9.1 1.4.2.3.1.5.1.8.2 0 .1-.1.2-.1.3.2.1.3.2.5.3h.4c-.2-.1-.3-.1-.5-.2.1-.1.1-.2.2-.3.6.1 1.2.1 1.7.2.1.1.3.1.4.2.2 0 .5 0 .7-.1-.1 0-.3 0-.4-.1.5.1 1 .1 1.5.2-.1-.1-.2-.1-.3-.2h.7s-.7-.2-.9-.2h-1.3c-.2 0-.7-.1-.7-.1-.8-.1-1.6-.2-2.5-.4 0-.1-.1-.1-.1-.2-.1 0-.2.1-.3.1-.4 0-.7-.1-1.1-.1v-.2c0-.1-.5.1-.5.1l-.2-.2c-.4-.1-.7-.1-1.1-.2-.2 0-.4-.1-.6-.1.1 0 .3-.1.4-.1h-.6v-.1s.8-.1.9-.1h-1c-.2 0 .5-.1.5-.1h-.1c-.3 0-.6.1-.9.1 0 .1.1.1.1.2h-.2zm.6 1.6h.3-.3zm-2.4-1.3c.1 0 .2-.1.3-.1l-.1-.1c-.2 0-.4.1-.6.1 0 0 .2.1.4.1z"/><path fill="none" d="M139.6 120.5c.1-.2.1-.4.2-.6l-1.5-.3c-.1-.1-.2-.1-.2-.2-.2 0-.4.1-.6.1-.1-.1-.1-.3-.2-.4-.2-.1-.4-.2-.5-.3-.2-.1-.3-.1-.5-.2 0-.2 0-.4-.1-.6.1-.2.1-.4.2-.6v-.6c-.1 0-.2.1-.3.1-.3.1-.7.1-1 .2-.2-.2-.3-.5-.5-.7v-2.2c.1-.2.1-.3.2-.5v-.7h-.3c-.1-.1-.1-.2-.2-.4h-.2c0-.1-.1-.2-.1-.4-.1.2-.1.4-.2.6-.1-.1-.1-.2-.2-.2-.1.2-.2.3-.3.5-.1.4-.1.8-.2 1.3 0 .2 0 .3.1.5-.1.1-.1.2-.2.3.1.2.1.4.2.7-.2.3-.4.7-.6 1h.4c.1-.1.3-.2.4-.4-.1.3-.2.5-.4.8l-.4.4c.1.1.1.3.2.4.1 0 .3 0 .4-.1l.4.4c.2-.1.5-.2.7-.2.3-.2.5-.3.8-.5l.3-.3h.2c-.2.3-.3.6-.5.9v1s.2.4.3.4c.1 0 .2.5.2.5 0 .2-.1.4-.1.6v.3l-1.2 1.2c-.2.2-.5.4-.7.5-.1.3-.3.5-.4.8h-.8c-.1.1-.2.3-.4.4-.2 0-.4-.1-.6-.1l-.4.4c-.5.1-1.1.1-1.6.2-.1.2-.3.4-.4.5l-1.5.3c-.3.1-.7.2-1 .3-.2 0-.4 0-.6-.1-.3.1-.5.1-.8.2-.2-.1-.4-.1-.6-.2-.1.1-.3.2-.4.3-.2-.1-.5-.1-.7-.2 0-.1 0-.2-.1-.3 0 0 .6-1.3.7-1.4.1-.1.8-1.7.8-1.7v-.9l.3-1.2c-.1-.4-.2-.8-.2-1.2.2-.5.3-1 .4-1.4.2-.4.5-.8.7-1.3 0-.4-.1-.8-.1-1.2.1-.4.2-.7.2-1.1 0-.7.1-1.5.1-2.2l-.4-.4c-.2 0-.4.1-.5.1 0 0 0-1.5.1-1.7 0 .1-.3 1.4-.3 1.4-.1.3-.1.5-.2.8-.1.5-.2 1-.2 1.5-.1.5-.1 1-.2 1.4-.1.3-.2.6-.4.9.1.3.1.7.2 1-.1.4-.2.7-.3 1.1-.3.4-.5.8-.8 1.2 0 .5.1 1 .1 1.4-.3.7-.5 1.3-.8 1.9.1.4.3.7.4 1.1 0 .4-.1.8-.1 1.2 0 .3.1.5.1.8-.1.1-.1.3-.2.4-.1.1-.3.1-.4.2.1.4.1.8.2 1.2h.9c0 .1.1.2.1.3.4-.1.9-.1 1.3-.2.2.1.3.2.5.2.3-.1.7-.1 1-.2-.3.4-.7.8-1 1.2-.5.4-1 .9-1.6 1.3-.4.4-.8.7-1.2 1.1-.5.3-.9.7-1.4 1-.1 0-.3.1-.4.1l-.3.3c-1.2.4-2.4.8-3.7 1.2-.5.3-1 .6-1.4.9-.4.1-.7.1-1.1.2l-.9.6c-.4.3-.7.6-1.1.8 0 .2 0 .4.1.5-.2.1-.4.3-.7.4-.2.3-.3.5-.5.8 0 .2.1.3.1.5-.7.7-1.3 1.4-2 2-.3.2-.7.3-1 .5-.6.1-1.2.1-1.8.2-.2 0-.4 0-.6-.1-.2.1-.3.2-.5.2-.3.1-.7.1-1 .2-.2.3-.3.6-.5.9-.3.3-.6.5-.9.8h-1.1c-.3 0-.6.1-.8.1v.1c-.4.3-.9.5-1.3.7-.2 0-.3 0-.5.1l-3 .6h-1.7c-.2-.1-.5-.1-.7-.2-.4 0-.8-.1-1.1-.1h-1c-.2-.1-.4-.2-.6-.2 0 0 .2-.4.3-.4l.6-.2c.1-.2.1-.5.2-.7 0-.2.1-.4.1-.6-.1-.1-.2-.1-.2-.2.1-.2.1-.4.2-.6.4-.5.8-1.1 1.2-1.7v-1c.1-.2.1-.4.2-.5l-.3-.6.6-.9c.5-.3 1-.7 1.4-1 .3-.1.7-.3 1-.4l.4-.4c.1-.3.2-.6.2-.8.1-.1.2-.3.3-.4.1-.1.2-.2.4-.2 0 0 .4-2 .4-2.1v-1.1c-.2-.6-.4-1.2-.7-1.8l.9-.9 1.5-1.8c-.1-.4-.1-.8-.2-1.2-.5-.1-1.1-.2-1.6-.3-.1-.2-.2-.5-.2-.7l.3-.3c.1-.1-.2-.9-.2-.9-.3-.2-.6-.4-.8-.6-.5.1-1 .1-1.5.2 0 0-1.4-.3-1.5-.4h-1.9l-.4-.4c-.3-.2-.7-.4-1-.5-.6.1-1.3.1-1.9.2-.3-.5-.5-1-.8-1.5l-.6-1.2c-.2-.4-.4-.8-.5-1.2 0-.8 0-1.7.1-2.6-.1-.6-.3-1.2-.4-1.8-.1-.2-.3-.5-.4-.7.1-.7.2-1.5.4-2.2.4-.3.7-.7 1.1-1 .4-.7.8-1.4 1.3-2 .1-.4.2-.9.2-1.3.1-.2.2-.3.4-.5 0-.3-.1-.5-.1-.8.2-.3.3-.5.5-.8.4-.3.9-.7 1.3-1 .7-.7 1.5-1.4 2.2-2.1.5-.2 1-.5 1.6-.7.8-.3 1.5-.5 2.3-.8l1.2-.9c0-.3.1-.5.1-.8.2-.3.3-.6.5-.9.3-.3.5-.6.8-.9.3-.1.6-.1.8-.2.5-.1 1.1-.2 1.6-.3l1.1-1.1.6-.3c.1 0 .2 0 .3.1v.4c.1.2.2.3.2.5.1 0 .2 0 .3.1.1.1.3.2.4.3.2 0 .4 0 .6-.1 0 .1.1.3.1.4h.6l.6-.3c.3.1.5.1.8.2.5-.1 1-.2 1.6-.3.3.2.5.4.8.6.2 0 .4-.1.6-.1.6.3 1.1.6 1.7.8.2 0 .3-.1.5-.1 0 .2 0 .4.1.5.1-.1.2-.2.3-.2.3.2.6.4.9.7.3 0 .5-.1.8-.1l.3.6c.2.1.3.2.5.3-.3.2-.5.4-.8.7v.5c-.2.3-.3.5-.5.8-.3.2-.5.4-.8.6.2.4.4.9.6 1.3.2.1.4.3.6.4.3.4.7.8 1 1.2.1.5.2.9.3 1.4.6.5 1.2 1 1.8 1.4.3-.2.5-.3.8-.5 0-.2 0-.5-.1-.7.2-.2.5-.3.7-.5.3-.1.6-.1.9-.2l.7.7c0 .2 0 .4.1.6.3.2.7.4 1 .6 0 .1-.1.2-.1.3.1 0 .3.1.4.1l.3.6c.4.2.7.5 1.1.7.2.2.4.3.6.5.1-.1.2-.2.2-.3.3 0 .6.1.9.1v.5c.2 0 .4.1.7.1.3.1.7.1 1 .2.6-.7 1.2-1.4 1.9-2 .4-.7.8-1.4 1.1-2.1-.1 0-.2-.1-.3-.1-.1-.1-.2-.1-.2-.2h-1.4l-.3-.6c-.1-.2-.3-.4-.4-.6l-.4.4h-.5v-.8c-.2-.1-.3-.2-.5-.3-.1-.3-.2-.6-.3-.8 0-.3-.1-.5-.1-.8 0-.2.1-.5.1-.7.2 0 .3 0 .5-.1.1-.2.1-.5.2-.7l-.3-.3.5-.5c.2 0 .5-.1.7-.1.3 0 .5.1.8.1.2 0 .4.1.6.1v-.4l.9.3c.4-.1.8-.2 1.2-.2l.6.3c.3 0 .5.1.8.1 0 .2 0 .5.1.7.3.4.5.7.8 1.1l.9.3c.1.1.2.2.3.4.3-.2.7-.3 1-.5.1-.3.1-.6.2-.9-.1-.2-.3-.5-.4-.7l-.3-1.2c-.1-.4-.2-.7-.3-1.1v-.3c.3-.1.7-.3 1-.4v-.6s1.1-.2 1.2-.2c.1 0-1-.3-1-.3l-1.5.3s-.6-.5-.6-.7c0-.1.2.9.2.9 0 .1-.1.3-.1.4.3.1.5.2.8.3-.1.1-.1.2-.2.3-.2-.1-.5-.1-.7-.2h-1.3c.1-.2.2-.4.4-.6-.1-.2-.2-.4-.4-.6.3 0 .6-.1.9-.1 0-.1-.1-.3-.1-.4h-.5c-.1-.3-.1-.5-.2-.8 0 0-.7-.2-.7-.3 0-.1-.9.7-.9.7-.3.3-.6.7-1 1l-.8.8c-.3.2-.5.4-.8.6 0 .2-.1.5-.1.7.1.3.2.5.2.8-.4 0-.7.1-1.1.1-.3.1-.6.1-1 .2 0 0 .4-.2.4-.3 0-.1-.1-.4-.1-.4l-1.2-.6v.6c-.2.1-.5.1-.7.2 0-.3 0-.6-.1-.8-.1.3-.2.5-.3.8l.1 1.3c0 .9.1 1.1.2 1.2-.1 0-.3-.1-.4-.1-.1-.1-.3-.2-.5-.2-.1.2-.2.3-.3.5-.2.1-.4.2-.6.2-.2-.1-.4-.3-.7-.4.1-.4.2-.7.3-1.1h.5l.3.6c0-.2-.1-.4-.1-.6-.2-.1-.4-.3-.6-.4.1-.2.1-.4.2-.6 0-.4-.1-.8-.1-1.2 0-.3-.1-.7-.1-1l.4-.4.3-.6c-.6-1.1-1.2-2.1-1.9-3.2l.3-1.2V90c-.2.2-.4.3-.5.5-.2 0-.3.1-.5.1.1-.2.1-.5.2-.7l.4-.4c-.3-.1-.6-.2-1-.2 0 .2-.1.4-.1.6-.2.2-.4.5-.6.7.2.3.3.5.5.8.1.7.1 1.4.2 2.1.3.2.6.5.8.7l-.3.3c.2.3.3.5.5.8.2.3.3.7.5 1-.1.1-.3.1-.4.2-.1-.3-.2-.5-.4-.8-.2.1-.3.3-.5.4v1.1c-.5.3-.9.7-1.4 1-.1-.1-.2-.2-.2-.3.2-.3.5-.6.7-.9.1-.3.1-.7.2-1-.2-.6-.4-1.1-.6-1.7-.2-.3-.5-.5-.7-.8l-.3-.9c.1-.7.2-1.5.2-2.2-.3-.3-.5-.7-.8-1-.4.1-.8.3-1.2.4-.4 0-.8 0-1.2-.1-.3-.3-.6-.5-.9-.8-.3 0-.5.1-.8.1-.2.4-.3.7-.5 1.1-.7.2-1.3.3-2 .5-.5.2-.9.5-1.4.7 0 .2.1.4.1.7-.3.1-.6.3-1 .4-.1.2-.3.4-.4.6h-.9l-.9.6c-.4-.2-.7-.4-1.1-.5-.4 0-.9 0-1.3.1 0-.2-.1-.4-.1-.6-.1-.3-.1-.5-.2-.8h-.8c0-.1-.1-.3-.1-.4-.1-.1-.2-.1-.2-.2-.1 0-.3-.1-.4-.1.2-.2.3-.4.5-.6.1-.2.1-.4.2-.6 0-.1-.1-.2-.1-.3h.3c0-.1.1-.1.1-.2h-.4l.3-.6c.3-.3.6-.6.8-.9.2-.2.3-.4.5-.7 0-.3.1-.6.1-.9.1-.1.2-.2.4-.2 0 0-.1-1.1-.2-1.1.3 0 .5-.1.8-.1.1.1.2.1.4.2 0-.1.1-.1.1-.2.2 0 .5.1.7.1.1.1.1.2.2.3.4.2.9.4 1.3.7.4.2.8.4 1.2.5l.5.5h1.1c.2-.2.4-.5.6-.7.2-.5.3-.9.5-1.4 0 0-.6-1-.7-1.1-.1 0 .4-.6.4-.6-.1-.3-.1-.6-.2-.9-.1 0-.3.1-.4.1-.1-.3-.1-.5-.2-.8-.2-.2-.4-.3-.6-.5.1-.2.1-.3.2-.5l1.2.3c0 .1.1.2.1.3.3.1.7.1 1 .2l.3-1.2c.1 0 .3 0 .4.1v.5c.2.1.5.2.7.3.2-.1.3-.2.5-.3.3 0 .7-.1 1-.1 0-.2.1-.5.1-.7.4 0 .9 0 1.3.1.2.1.5.2.7.3.2-.1.3-.2.5-.3.1-.2.2-.4.4-.6.2-.1.5-.2.7-.3.3 0 .5-.1.8-.1.1.1.2.1.3.2.2.1.3.1.5.2v.5h.2c0-.1.1-.2.1-.3.1 0 .3-.1.4-.1.1.1.2.3.3.4 0-.2 0-.3.1-.5 0 0 .3.2.4.2 0-.1-.1-.3-.1-.4.1-.1.3-.2.4-.2v-.2c0-.1-.1-.3-.1-.4.1 0 .1 0 .2-.1 0-.1.1-.2.1-.4-.1-.1-.2-.1-.2-.2 0-.2.1-.4.1-.5.1-.1.3-.2.4-.3l-.3-.3c.1-.2.2-.5.3-.7l.3.3c.1 0 .2-.1.4-.1h.5c0-.1 0-.3.1-.4-.1-.1-.2-.1-.3-.2 0 0-.6.2-.6.1.2-.1.4-.2.5-.4l.6.3c.1-.1.2-.2.3-.4.2 0 .4 0 .6-.1-.1.1-.1.3-.2.4l-.2.2h-.3c.1.1.2.2.2.3-.1.2-.2.3-.3.5.1.2.2.3.3.5l-.3.3c-.1-.1-.1-.2-.2-.3-.2.2-.4.4-.6.5-.2.2-.3.4-.5.6.1.1.2.1.2.2-.1.1-.2.1-.3.2v.9c.1.1.2.3.3.4 0 .1.1.3.1.4.1-.1.2-.1.3-.2.1 0 .3.1.4.1.1-.1.2-.1.3-.2.3.3.7.6 1 1 .6.1 1.2.3 1.8.4.2-.1.4-.1.5-.2.2 0 .3.1.5.1v.3l-.3-.3v.5h.6c0 .1.1.2.1.2.2-.1.4-.3.6-.4 0-.1.1-.3.1-.4.2-.1.4-.2.5-.3 0 .2-.1.3-.1.5.1-.1.3-.1.4-.2 0-.1 0-.3.1-.4.2-.3.4-.6.6-.8.2-.3.4-.5.6-.8.3 0 .5 0 .8-.1 0 .1 0 .3-.1.4v.5c.3 0 .5-.1.8-.1v-.5l.3-.3c.1-.1.2-.3.3-.4-.1 0-.2 0-.3-.1l.3-.9h.5c.3 0 .5.1.8.1.2.2.4.4.7.5 0-.1 0-.2.1-.2s.2.1.4.1l.4.4h.4c.2 0 .3-.1.5-.1.3.1.5.3.8.4-.1-.2-.2-.3-.3-.5-.1-.1-.2-.1-.4-.2l-.3-.6c0-.1.1-.2.1-.3h-.6c-.2-.1-.5-.3-.7-.4l-.6.3h-.9s-.1-.4 0-.6c0-.1-.3.3-.3.3l-.3-.3c0-.1.1-.3.1-.4h.5c-.1-.2-.2-.4-.2-.6-.1-.1-.3-.2-.4-.3 0-.2.1-.5.1-.7.1-.2.2-.4.4-.5 0-.3.1-.5.1-.8.1-.1.1-.3.2-.4 0 0 .1-.1.2-.1.1-.1 1-.2 1-.2.2-.1.5-.3.7-.4.1-.2.3-.4.4-.6h.2c.1 0 .2 0 .4-.1v-.3c.1-.1.1-.2.2-.3-.1-.2-.2-.3-.3-.5l-.6-.3c-.1-.1-.3-.2-.4-.3-.2.1-.3.1-.5.2l-.6.3c-.1.2-.1.4-.2.5-.1.2-.1.3-.2.5-.3.1-.6.2-.8.3-.3-.1-.5-.2-.8-.3-.1.1-.2.2-.2.3-.2 0-.3 0-.5-.1-.1.2-.1.3-.2.5l-.2-.1c-.2-.1-.3.1-.3.1-.1.2-.1.4-.2.7-.1.1-.2.2-.4.3-.2.4-.3.9-.5 1.3.1 0 .3 0 .4.1.1.1.2.2.3.2v.4c0 .1.1.2.1.4s-.1.4-.1.6c-.2 0-.4.1-.5.1.1.1.1.2.2.4-.2.1-.5.2-.7.3l-.3-.3h-.6c-.1.3-.2.6-.3.8-.2.3-.4.5-.6.8-.1.1-.2.3-.2.4.2-.1.3-.1.5-.2-.2.2-.4.4-.5.6-.1 0-.3-.1-.4-.1-.2-.1-.4-.2-.7-.3-.2.1-.4.1-.6.2 0 .1 0 .3.1.4-.2 0-.4 0-.5.1-.2-.1-.4-.2-.6-.4.1-.3.2-.7.3-1l.3-.3-.3-1.5c.1-.2.2-.3.3-.5-.1-.2-.2-.4-.2-.6.1-.2.2-.4.3-.7l-.9.3-.4-.4c-.1-.1-1.8.2-1.8.2-.1-.1-.1-.2-.2-.4-.2-.1-.4-.2-.5-.3v-.6c-.1-.2.5-.1.5-.1.1-.2.2-.4.3-.5-.2 0-.5 0-.7-.1 0-.1-.1-.3-.1-.4h.3c.2 0 .4.1.6.1.1-.1.2-.3.4-.4.2-.1.3-.2.5-.4 0 0-1 .2-1.1.2-.1 0 .2-.4.2-.4-.1-.1-.3-.2-.4-.3.1-.2.2-.4.2-.6.1.1.3.1.4.2l.9.3c0-.1-.1-.2-.1-.3h-.4s-.4-.3-.5-.3c-.1 0 0-.4 0-.4h.6c-.2-.1-.3-.2-.5-.3.1-.1.2-.2.2-.3.2.1.3.3.5.4h.7c-.1-.1-.3-.2-.4-.3l.3-.3.3.3c.2-.1.4-.1.5-.2 0-.1 0-.3-.1-.4.2.1.4.1.5.2.2 0 .4-.1.6-.1 0-.1-.1-.2-.1-.2V68c.1.1.3.1.4.2.1.1.3.2.4.2 0 .2-.1.4-.1.5.2 0 .5.1.7.1.2-.2.4-.4.6-.5-.3.1-.5.1-.8.2v-.3c.6-.3 1.1-.5 1.7-.8.2.1.3.2.5.3v-.4c.5 0 .9-.1 1.3-.1 0-.1-.1-.2-.1-.4.1-.1.2-.2.4-.3.4-.1.9-.1 1.3-.2.1-.2.1-.3.2-.5.1-.1.2-.3.2-.4.1.3.2.5.3.8.1-.1.1-.2.2-.3.2-.1.3-.2.5-.3-.1 0-.3 0-.4-.1 0-.1-.1-.2-.1-.3.3 0 .6-.1.9-.1.2-.2.3-.4.5-.7l-.6-.3.6-.3c.1.1.2.2.2.3-.1.1-.2.2-.2.3.1 0 .3 0 .4.1.1 0 .3.1.4.1-.1-.2-.1-.3-.2-.5l.2-.2c0 .2.1.4.1.6.2-.1.4-.2.7-.3v.3c.1-.1.2-.1.3-.2 0 .1-.1.3-.1.5.1 0 .2 0 .2.1 0-.1.1-.3.1-.4.2.2.3.4.5.6-.1-.2-.1-.4-.2-.6 0-.1-.1-.3-.1-.4.2.1.3.3.5.4.1.2.3.3.4.5.2-.1.4-.1.6-.2.1.1.2.1.3.2.1.1.1.2.2.3.1-.1.1-.2.2-.3-6.6-15.2-18.8-27.9-35.2-35-11.7-5-24-6.5-35.8-4.9.1 0 .1.1.2.1.2-.1.4-.1.5-.2.3 0 .5.1.8.1.1.1.1.2.2.2.2.1.3.1.5.2h.4c.1.1.2.1.3.2v.1c0 .1.3-.1.3-.1.2 0 .4 0 .6-.1-.2-.1-.4-.1-.6-.2h-1.1c.1-.1.1-.2.2-.3.3.1.5.1.8.2 0-.1.1-.1.1-.2.2 0 .4 0 .5.1v.2c.3.1.6.1.9.2 0 .1 0 .1.1.2s.2.2.2.3c.1-.1.2-.1.2-.2.1.1.3.1.4.2-.1-.1-.1-.2-.2-.3l.2-.2c.1.1.2.1.3.2.2.1.3.1.5.2s.4.1.5.2c-.1-.1-.2-.2-.4-.3h.2c.1 0 .1.1.2.1s.2 0 .3.1c.1-.1.2-.1.3-.2v.1c.1 0 .3.1.4.1h.5s.1.2.2.2c.1.1.1.2.2.2.1-.1.1-.2.2-.3-.1-.1-.2-.1-.2-.2.2 0 .5 0 .7.1.2 0 .4.1.5.1.2 0 .5.1.7.1 0 0 .5.3.5.2h.7c.2.1.3.1.5.2 0 0 .1-.1-.1-.2s.3-.1.3-.1c.2 0 .4.1.6.1.2.1.4.2.6.2.2.1.4.1.6.2h.6c.2 0 .3.1.5.1.1 0 .1.1.2.1-.2 0-.3 0-.5.1h-1.5c.2 0 .4.1.6.1h1.1c.2-.1.4-.1.6-.2 0 0 .5 0 .6.1.1 0 .5.2.5.2.2.1.3.1.5.2s.4.1.5.2c0 .1 0 .1.1.2s.3.1.4.2c.2.1.4.1.7.2-.1 0-.1.1-.2.1h-1.1c-.2 0-.4.1-.6.1-.2-.1-.4-.1-.6-.2h-1.4c.3 0 .6.1.9.1.3.1.6.1.8.2-.1 0-.3.1-.4.1h-.7s-.8 0-1-.1c-.2 0-.7-.2-.7-.2h-.7c-.2 0-.4.1-.7.1h-.5s0-.1-.1-.1c-.2.1-.4.1-.5.2-.1 0-.3-.1-.4-.1-.1 0-.2-.1-.4-.1 0 .1.1.1.1.2h-1.1c-.2 0-.5 0-.7-.1-.2 0-.4-.1-.6-.1-.3-.1-.6-.1-.8-.2-.2-.1-.4-.1-.7-.2.3.1.5.2.8.3-.1 0-.1.1-.2.1 0 0-.4-.2-.5-.2-.2 0 .1.1.1.1l-.1.1c-.2 0-.5-.1-.7-.1-.1-.1-.2-.2-.4-.3-.2 0-.3 0-.5-.1.2.1.3.2.5.3-.1.1-.2.1-.4.2h.1c.1 0 .8.1 1 .1.2 0 .6.1.6.1 0 .1.1.1.1.2h.4c.2 0 .1.2.1.2-.1 0-.3.1-.4.1 0 0-.4-.1-.5-.2.1 0 .2.1.2.1-.1 0-.2.1-.3.1-.2 0-.4-.1-.6-.1 0 .1 0 .2.1.2h-.7c-.1-.1-.2-.2-.3-.2-.2 0-.4 0-.6-.1 0 .1-.1.2-.1.3-.2 0-.5-.1-.7-.1-.2 0-.3 0-.5-.1.1.1.3.2.4.2v.2c.1 0 .2.1.2.1s0 .1-.1.1c-.3 0-.5.1-.8.1 0-.1-.1-.1-.1-.2-.3.1-.6.1-.8.2-.2 0-.3.1-.5.1l.2-.2c.1-.1.1-.2.2-.3h-.4c-.1-.1-.2-.2-.2-.3-.1.1-.2.1-.3.2-.1-.1-.3-.1-.4-.2 0 0-.5-.1-.7-.1-.2 0 0-.2 0-.3 0-.1-.3.1-.3.1-.1 0-.2-.1-.4-.1-.1.1-.2.2-.3.2-.2 0-.4-.1-.5-.1-.2-.1-.3-.1-.5-.2l-.6-.3-.1.1s-.5 0-.7-.1c-.2-.1-.1-.2-.1-.2h-.4v-.4h1c.2.1.4.1.5.2.1 0 .3-.1.4-.1 0 0-.1-.2-.2-.2s0-.3 0-.3c.2 0 .3.1.5.1.3 0 .5.1.8.1l.1.1c.1.1.3.1.4.2v.2c.1 0 .3.1.4.1.3 0 .5.1.8.1.1-.1.3-.2.4-.2H71c-.2 0-.3-.1-.5-.1 0-.1 0-.1-.1-.2l.3-.3s-.8.1-1 .1c-.2 0-.1-.1-.1-.1-.2 0-.4 0-.6-.1-.2 0-.4-.1-.6-.1.1-.1.3-.2.4-.3.2 0 .4 0 .5.1h.8c.2.1.4.1.5.2.2 0 .5.1.7.1 0 0 .5.1.5.2s.5-.1.5-.1c-.2-.1-.4-.1-.6-.2 0 0-.3-.2-.5-.3-.1-.1.5 0 .5 0-.2 0-.3-.1-.5-.1-.1-.1-.1-.3-.2-.4-.1 0-.1.1-.2.1l-.3.3-.6-.1c-.6-.1.6.1-.5-.1s1.1.2-.5 0c-.3 0-.6-.1-.7-.1 0 .1-.1.1-.1.2-.2 0-.3-.1-.5-.1-.1.1-.3.1-.4.2h-.6l-.2-.2h-1c-.1-.1-.1-.2-.2-.3.1-.1.1-.2.2-.3 0-.1.1-.1.1-.2h.9c-.2 0-.3-.1-.5-.1-.1 0-.3.1-.4.1-.2 0-.3-.1-.5-.1l-.2-.2h.7c-.2-.1-.5-.1-.7-.2 0 0 0-.1-.1-.2-.6.1-1.2.3-1.8.4.1 0 .3.1.3.1.1 0 .2.2.2.2v.3h-1c-.2 0-.3 0-.5.1 0 0-.1-.3-.1-.4-.8.2-1.5.4-2.3.6.1 0 .2 0 .3.1l.1-.1c.1-.1.3-.1.3-.1l.1.1v.1c0 .1.1.1.1.2-.1.1-.1.2-.2.3 0 .1 0 .2-.1.4s-.1.3-.2.5c-.2 0-.4.1-.5.1-.3-.1-.7-.1-1-.2-.2-.1-.5-.2-.7-.3.1-.1.1-.2.2-.3.2 0 .3-.1.5-.1-.2 0-.4-.1-.6-.1-1.7.5-3.4 1.2-5.1 1.8.1 0 .1.1.2.1 0 .1-.1.3-.1.4 0 .1 0 .2-.1.3-.1.1-.1.2-.2.4.1.1.1.2.2.3 0 .1-.1.1-.1.2h.4c.1-.1.1-.2.2-.3 0 .1.1.2.1.3.1.1.1.2.2.3.1.1.3.1.4.2.1 0 .2.1.3.1.1 0 .2 0 .2.1-.1.2-.3.4-.4.6-.1 0-.2.1-.2.1-.1-.1-.2-.1-.3-.2v-.3h-.3c-.2 0-.4-.1-.6-.1 0 0-.2-.4-.2-.3-.1.1-.3.1-.2.2.1.1.1.5.1.5.1 0 .2 0 .3-.1 0 0 .4.1.3.2-.1.1-.3.2-.3.2-.2 0-.4-.1-.6-.1h-.3c-.1 0-.2-.1-.4-.1l-.2-.2-.1-.1c-.1 0-.2-.1-.3-.1 0-.1-.1-.1-.1-.2-.1 0-.2-.1-.3-.1v-.2c.2-.1.3-.1.5-.2l.1.1c-.3.1-.6.1-.9.2h-1.5c-.6.3-1.1.6-1.7.9 0 0 0 .1.1.1v.4c.2 0 .3-.1.5-.1-.1.2-.2.3-.4.5 0 .1.1.3.1.4.1-.1.2-.1.4-.2 0-.2.1-.4.1-.6.1-.1.2-.2.3-.2.6-.1 1.3-.1 1.9-.2-.2-.1-.3-.1-.5-.2-.2 0-.4 0-.6.1-.1-.1-.2-.1-.3-.2-.1.1-.3.1-.4.2-.1-.1-.3-.1-.4-.2l.9-.3c.2.1.4.1.6.2h.9c.1.1.1.3.2.4l-.3.3c.1.1.3.1.4.2.4 0 .7.3.7.3 0 .1.1.2.1.3.1.1.3.2.4.3.2 0 .4.1.6.1h.5l.9.3c.1 0 .3 0 .4-.1.1-.1.2-.3.3-.4h.5c.1.2.1.3.2.5.1 0 .2 0 .4-.1v.5c-.1.1-.3.2-.4.3 0 .2.1.5.1.7h.5v-.5c.3-.2.5-.3.8-.5.4-.1.7-.1 1.1-.2.2-.1.4-.1.5-.2-.2 0-.4-.1-.6-.1.1-.1.2-.3.3-.4h.6l.6-.3c-.2-.1-.4-.1-.6-.2-.1-.2-.1-.4-.2-.6-.5.2-.9.3-.9.3l.3-.3-.4-.4c.2 0 .3-.1.5-.1.1-.1.1-.2.2-.3.2-.1.4-.1.6-.2 0-.1 0-.2.1-.2.2 0 .4-.1.7-.1.2-.1.5-.3.7-.4v-.5l.3-.6.3-.3c.4-.1.9.1.9.1.1 0 .3-.1.4-.1.3.2.7.4 1.1.5.3.1.5.3.8.4l-.6.3c-.4 0-.7.1-1.1.1-.3 0-.6-.1-.9-.1h-.7c0 .1-.1.3-.1.4-.2 0-.4.1-.6.1v.5l.6.6c.2.1.4.2.6.4 0 .1.1.3.1.4h-.4c0-.1-.1-.2-.1-.3-.1.1-.2.2-.3.2v.2c-.2.1-.4.1-.6.2 0 0 .1.3.4.3.2 0 .5.4.5.4-.1.3-.3.5-.4.8.2 0 .3.1.5.1.2-.1.4-.2.6-.4.1-.1.2-.2.2-.3h.8c0 .2-.1.4-.1.6-.2.2-.5.3-.7.5-.1.2-.2.5-.3.7l.3.6c.3-.1.6-.1.9-.2l.6-.6c.3-.1.7-.3 1-.4.2 0 .4 0 .6-.1v-.6c.1-.2.2-.3.3-.5.2.1.4.3.7.4.2.1.5.2.7.3 0 .2 0 .3.1.5.2.1.3.1.5.2-.1.1-.2.3-.3.4-.1.1-.3.1-.4.2.1.1.2.1.3.2-.2.1-.5.2-.7.3 0 .2 0 .3.1.5.1.1.1.3.2.4l-.5.5c-.2-.1-.4-.1-.6-.2-.3 0-.7 0-1 .1-.2.1-.4.1-.6.2 0-.2-.1-.5-.1-.7-.2 0-.3-.1-.5-.1.1.3.1.5.2.8-.2 0-.4 0-.6.1-.1-.2-.2-.4-.3-.7h-.5v.4c-.2.1-.5.2-.7.4-.1-.2-.1-.4-.2-.6l-1.2-.3c-.2.1-.5.1-.7.2.5.1.9.3 1.4.4.1.2.1.3.2.5l-.4.4h-.7c-.2-.2-.3-.4-.5-.5-.2 0-.4.1-.6.1-.1.2-.2.4-.2.6-.2 0-.3-.1-.5-.1-.1.1-.2.3-.3.4-.2.1-.4.1-.6.2-.2-.1-.4-.2-.5-.3l-.3.6c-.3 0-.7.1-1 .1-.3.1-.6.3-1 .4v.4c-.2-.1-.4-.1-.6-.2 0 .1.1.2.1.4l-.9.3c0 .2-.1.4-.1.6-.1.3-.1.5-.2.8h.7c.1.3.1.6.2.8-.1.3-.1.6-.2.9.4.1.7.2 1.1.4.2.3.4.5.5.8.3.2.5.4.8.6v.9c.2 0 .4.1.6.1 0 .2.1.4.1.6.2.1.5.2.7.2 0 .2 0 .3.1.5.3.1.6.2.9.2.2.2.5.4.7.6 0 0-.6 1-.7 1.2-.1.2-.5 1.3-.5 1.3l.3.9c.2.3.4.6.6.8.2-.1.5-.1.7-.2l.9-.9c.1-.4.3-.8.4-1.2 0-.1-.1-.2-.1-.4.1-.2.2-.5.4-.7.5-.1.9-.1 1.4-.2.4-.2.8-.4 1.1-.6.2-.1.3-.2.5-.3l-.3-.3.6-.3c0-.2-.1-.5-.1-.7 0-.4 0-.8-.1-1.1-.1-.2-.2-.4-.4-.6.1-.2.2-.4.2-.6h.6c.1-.1.2-.3.2-.4.2 0 .4.1.6.1 0-.3-.1-.6-.1-.8l.3-.6c.2-.1.5-.3.7-.4 0-.2-.1-.4-.1-.6h.7l.4.4c.4.2.8.4 1.2.5.3-.1.6-.2.8-.3l.5.5c.1.2.1.4.2.6 0 .2.1.5.1.7.4.2.7.3 1.1.5-.2 0-.3.1-.5.1l.4.4c-.1.1-.2.3-.2.4-.2.2-.5.4-.7.6.2.3.5.5.7.8-.1.2-.1.4-.2.6.2.1.5.1.7.2 0 .3-.1.5-.1.8.4-.2.9-.4 1.3-.6.3-.1.5-.2.8-.3.4-.4.8-.7 1.2-1.1 0 .2.1.5.1.7-.1.3-.2.5-.2.8l.4.4c-.1.2-.2.3-.3.5 0 .2 0 .4.1.6 0 .2-.1.4-.1.7.1.2.3.4.4.5-.2.1-.4.3-.6.4.2.1.4.1.6.2-.1.3-.2.6-.4.9-.2-.1-.3-.2-.5-.4.1.3.1.7.2 1 .2.2.4.3.6.5-.1.2-.2.3-.3.5.4.1.7.2 1.1.3 0 .3.1.5.1.8.2 0 .5-.1.7-.1v.6h-.6c-.7 0-1.3.1-2 .1-.1.2-.2.4-.3.5.5-.1.9-.2 1.4-.3h1.3l.5.5c.1.2.3.3.4.5 0 .2-.1.5-.1.7-.3.2-.6.4-.8.7-.3-.1-.6-.1-.9-.2h-1c-.2.2-.5.4-.7.6-.4 0-.7.1-1.1.1-.3-.1-.6-.1-.9-.2-.1-.1-.2-.3-.3-.4-.3 0-.7-.1-1-.1l-.9-.6h-.7c-.3-.1-.6-.3-.9-.4l-.6.3c-.3.2-.7.3-1 .5-.4.1-.8.1-1.2.2-.2.1-.4.2-.7.3-.2.2-.4.5-.6.7-.3.1-.7.3-1 .4h1c.4-.3.8-.5 1.1-.8l1.5-.3c.4-.1.8-.1 1.2-.2.4.1.7.2 1.1.3 0 .2.1.4.1.6-.1.2-.3.4-.4.7l-.3-.1c-.3-.1-.5-.3-.8-.4-.1.3-.3.6-.4.8.3 0 .7 0 1 .1-.1.2-.2.4-.4.6 0 0-.7.1-.5.2.2.1.9.5.9.5 0 .2 0 .5-.1.7h1c-.1.2-.1.4-.2.6-.1-.1-.3-.2-.4-.3-.1.1-.2.2-.3.4.3.1.5.2.8.3 0 .2.1.5.1.7-.2.1-.5.2-.7.3-.3-.1-.6-.3-.8-.4-.2.2-.4.3-.7.5-.3.1-.7.3-.7.3-.2-.1-.4-.2-.7-.3-.1-.3-.2-.5-.3-.8.3-.1.6-.2.8-.3h.8c.3 0 .6 0 .9-.1-.3-.1-.7-.2-1-.3H65s1.3-.9 1-.8c-.5 1.2-1 1.2-1 1.2-.2.2-.4.3-.6.5-.1-.2-.1-.3-.2-.5-.1.2-.3.3-.4.5-.1-.2-.2-.3-.3-.5-.1.2-.1.4-.2.7-.3.1-.5.1-.8.2-.2 0-.4-.1-.5-.1-.2.1-.5.1-.7.2-.2-.1-.3-.3-.5-.4-.4.4-.9.7-1.3 1.1.2.2.4.5.5.7.1.1.2.2.3.4-.2 0-.5 0-.7.1-.1-.1-.3-.1-.4-.2v-.5c-.2.1-.3.3-.5.4-.2-.1-.5-.1-.7-.2l-1.5.3v.5c-.2.2-.3.4-.5.6l-.6.3c-.1-.2-.2-.4-.3-.5-.1.2-.3.4-.4.6 0 .2.1.3.1.5-.2.2-.4.5-.6.7-.1-.2-.2-.3-.4-.5-.1 0-.2-.1-.4-.1.2-.2.4-.4.6-.7.2-.2.4-.4.7-.6-.2-.1-.5-.2-.7-.3-.2.3-.4.7-.7 1-.2.3-.4.6-.5.9.1.2.3.4.4.7 0 0-.6-.1-.4.1.2.2.4.7.4.7-.2.1-.3.3-.5.4.1.2.2.4.2.6-.2 0-.4-.1-.6-.1 0 0-.3-.1-.4.1v.7c-.2 0-.5 0-.7.1-.2.2-.3.4-.5.6-.3 0-.6-.1-.9-.1-.2 0-.4.1-.5.1l-.6.6c-.1-.1-.3-.1-.4-.2-.2.2-.4.4-.7.6-.1.2-.3.3-.4.5-.1.2-.3.4-.4.7 0 .2.1.5.1.7 0 .4.1.8.1 1.1-.1.5-.3 1-.4 1.5-.1.3-.1.5-.2.8-.2.3-.5.7-.7 1-.2-.6-.4-1.1-.6-1.7 0-.4-.1-.8-.1-1.1.3-.1.6-.3.9-.4-.2-.1-.4-.1-.6-.2.1-.2.1-.5.2-.7.1-.1.2-.3.3-.4l-.3-1.2c-.2.1-.3.1-.5.2-.1-.1-.3-.2-.4-.3-.1-.3-.3-.6-.4-.9-.1-.1-.2-.2-.4-.2-.2-.1-.5-.1-.7-.2-.2-.1-.4-.2-.5-.2-.2-.1-.3-.2-.5-.4-.2.1-.4.1-.5.2l.3.6c0 .3-.1.5-.1.8-.1-.1-.3-.2-.4-.3 0-.3-.1-.5-.1-.8-.1 0-.2.1-.3.1-.1.1-.2.3-.2.4l-.6-.3v-.5c-.2-.3-.3-.5-.5-.8h-.8c-.3 0-.6.1-.9.1l-.9.3c-.1-.1-.2-.2-.4-.2-.2.2-.3.5-.5.7h-.8c0 .3-.1.5-.1.8.1.2.2.3.2.5-.1.2-.1.5-.2.7-.2.2-.4.3-.5.5-.1.1-.2.3-.4.4 0 .3 0 .5-.1.8-.1.2-.3.5-.4.7 0 .2.1.5.1.7-.2.2-.4.5-.6.7.1.2.2.5.3.7.1.2.1.4.2.7 0 0-.3.9-.1 1.1.2.2.4.3.4.3.1.2.2.3.3.5 0 0 .5.5.5.7l-.1.2c.3-.1.7-.2 1-.3.2.1.5.1.7.2.1.1.1.3.2.4l.6-.6c.2-.4.5-.8.7-1.2 0 0 .1-.4 1.2-.1 1.2.3.1-.8.6-.2.6.6.6.5.6.5-.1.3-.2.7-.3 1-.2.2-.4.3-.5.5-.1.2-.1.4-.2.7-.2.3-.4.5-.6.8-.2-.2-.6.1-.6.1v.7c-.2.3-.3.5-.5.8 0 0-.6.4-.4.5.3.1 1.3.5 1.3.5.3 0 .5 0 .8.1l.4.4c.2.1.5.2.7.3v.7c.1.2.2.3.3.5-.1.4-.3.8-.4 1.2-.2.4-.4.7-.6 1.1-.1.4-.2.8-.4 1.2.1.5.3.9.4 1.4 0 .3.1.5.1.8.2 0 .4.1.6.1.3.1.5.3.8.4.2-.2.3-.4.5-.6.3.2.5.4.8.6v.6c.2.3.3.5.5.8 0 .4.1.7.1 1.1.2-.5.3-1 .5-1.4.1-.1.3-.1.4-.2.1-.3.3-.6.4-.9h.9c.2.1.3.1.5.2.4-.2.7-.3 1.1-.5.3-.1.7-.2 1-.3 0 .3 0 .5.1.8-.2.1-.4.2-.5.2 0 .2-.1.4-.1.6-.2.1-.3.3-.5.4V98c.2 0 .4-.1.7-.1 0-.3 0-.6.1-.9.1-.3.2-.5.3-.8.3.1.6.1 1 .2-.1-.2-.1-.4-.2-.7.2.1.5.2.7.3v.8c.1.2.3.3.4.5-.1.2-.2.3-.2.5h1c.2.3.4.6.6.8.3.2 1.4.5 1.4.5.4.1.8.2 1.2.2l-.4.4c.1.3.2.5.3.8.3 0 .6.1.8.1-.3.2-.6.5-1 .7.4.2.9.3 1.3.5.2.4.4.7.6 1.1 0 0-.3.5-.5.8l-.2.3c.3-.1.5-.1.8-.2.2.2.4.5.6.7 0 .1-.1.3-.1.4.3 0 .6.1.8.1.3.1.6.2 1 .3.1.2.3.5.4.7.2.1.4.2.5.3.1.2.2.4.4.6.1.6.2 1.1.3 1.6.1.2.2.4.3.5 0 .3-.1.7-.1 1 .1.1.1.3.2.4.1.2.2.4.4.6-.3.1-.5.1-.8.2.1.2.1.3.2.5-.3.1-.6.1-.9.2-.3.1-.5.2-.8.3-.3.2-.6.3-.9.4-.4 0-.8.1-1.1.1.5.1 1 .1 1.4.2.2 0 .4-.1.6-.1.3 0 .5.1.8.1.4-.1.9-.3 1.3-.4.2.2.3.5.5.7-.1.2-.1.5-.2.7-.1 0-.2 0-.2.1-.1 0-.2.1-.3.1.4-.1.9-.2 1.3-.3.2.3.4.5.7.8.3.3.6.6 1 .9 0 .2-.1.4-.1.5 0 .2-.1.5-.1.7.4-.1.7-.1 1.1-.2.1.3.3.6.4.9.3.1.6.1.9.2.3.2.5.4.8.5.2.3.4.7.6 1l.6.9c.1.2.2.3.3.5l.9.6v1c-.1.3-.1.6-.2.8-.1.3-.2.6-.3.8-.4.2-.7.4-1 .5-.3.1-.5.1-.8.2-.2.2-.4.4-.7.5l-.6.3c-.2.2-.3.4-.5.6l-.3-.6c-.1.2-.3.4-.4.6-.2 0-.4.1-.6.1 0 0 .2.5.2.6-.1.2-.7 1.7-.7 1.7-.2.3-.4.5-.6.8 0 .2-.1.5-.1.7-.4.2-.7.4-1.1.5-.3.2-.7.4-1 .5v.8c-.2.1-.4.1-.6.2 0 0-.6-.6-.6-.5v.2c-.4-.1-.8-.2-1.1-.3.1.1.1.3.2.4H57c-.2 0-.4-.1-.7-.1 0 0-.2.3-.4.3h-1.3c-.1.2-.2.5-.3.7 0 .2-.1.5-.1.7v.7c-.3.1-.6.3-.9.4-.2.2-.3.4-.5.5-.2.2-.4.4-.7.5.1-.2.1-.5.2-.7-.1 0-.3-.1-.4-.1-.1.1-.3.2-.4.3-.2.1-.3.1-.5.2 0 .2.1.3.1.5-.2.1-.5.2-.7.4-.2.2-.4.3-.6.5-.2-.1-.4-.1-.6-.2-.2-.1-.4-.2-.6-.4-.2-.1-.4-.2-.5-.3-.2-.2-.4-.3-.6-.5.1-.3.1-.5.2-.8-.1.1-.2.3-.3.4 0 .3.1.5.1.8l.4.4c0 .1 0 .2.1.4s.2.4.4.6c-.1.1-.2.3-.3.4-.2.1-.3.3-.5.4h-.8c-.4-.1-.8-.2-1.2-.4-.2 0-.3 0-.5-.1-.1-.1-.2-.2-.3-.2-.1.1-.1.1-.1.2l.3.3c-.1.2-.2.4-.3.5-.1.1-.2.3-.3.4-.3-.1-.5-.2-.8-.3-.1-.2-.3-.4-.4-.5-.1.1-.1.2-.2.3.1.1.3.2.4.4 0 .1-.1.2-.1.3.1.1.2.1.4.2 0 0 .3.3.2.4-.1.1-.3.1-.3.1-.1-.1-.2-.1-.4-.2-.1.1-.3.2-.4.3 0 .2-.1.3-.1.5h-.4c.1.1.2.2.3.4-.2 0-.4-.1-.6-.1l-.6.3c0 .1-.1.3-.1.4.2.1.3.3.5.4.1.1.2.1.3.2v.6c-.2 0-.5-.1-.7-.1-.1.1-.3.2-.4.4.2.2-.3.5-.3.5-.1-.1-.2-.3-.3-.4 0 .1-.1.1-.1.2s.1.2.1.3l-.3.3c.1.1.3.2.4.3v.4c-.1 0-.2-.1-.3-.1-.1 0-.3-.1-.4-.1.3.2.5.4.8.5 0 .2.1.3.1.5.3.2.5.4.8.6.2.1.5.2.7.3.3 0 .6.1 1 .1 0 .1-.1.1-.1.2-.2 0-.4-.1-.6-.1-.3 0-.6-.1-.9-.2-.1-.1-.2-.2-.4-.2h-.3c0 .1-.1.1-.1.2-.1-.1-.2-.2-.2-.3-.1-.1-.2-.1-.4-.2-.2 0-.4 0-.6-.1-.1 0-.3-.1-.4-.2-.2-.2-.5-.3-.5-.3-.2-.1-.3-.3-.5-.4.2 0 .4.1.6.1 0-.1-.1-.2-.1-.3-.2-.1-.5-.3-.7-.4-.2-.2-.3-.4-.5-.6.2 0 .1-.4.1-.4-.1-.1-.2-.2-.3-.4v-.4h.2c-.1-.2-.2-.4-.3-.5 0 0-.4-.1-.3-.2 0-.1.3-.5.3-.5l.1-.1v-.7c.1-.1.1-.2.2-.3 0 0-1-.6-1-.7 0-.1.1-.4.1-.4s.2-.2.4 0 .4.5.4.5.3 0 .4-.1c.1-.1.2-.9.2-.9.1-.2.1-.3.2-.5v-.5c.1-.1.2-.3.3-.4 0-.1.1-.2.1-.3h-.5s-.2-.2-.2-.4v-.5c.2-.2.4-.3.6-.5 0-.4-.1-.8-.1-1.1 0-.2-.1-.5-.1-.7h.7c0-.3.1-.5.1-.8 0-.2.1-.3.1-.5.2-.2.4-.5.7-.7.1-.5.2-1.1.3-1.6l.3-.6c-.1-.2-.2-.4-.2-.6.2-.5.3-1 .5-1.5l.9-2.1c.1-.4.3-.8.4-1.1.2-.9.3-1.7.5-2.6-.1-.2-.2-.5-.3-.7-.1-.3-1.4-1.9-1.4-1.9-.3-.4-.5-.9-.8-1.3-.1-.4-.3-.7-.4-1.1 0-.3.1-.6.1-1l-.3-.9c0-.3.1-.5.1-.8-.1-.7-.2-1.4-.3-2.2l-.6-1.8c-.3-.4-.6-.9-.9-1.3l.3-.6c-.1-.3-.2-.5-.2-.8.2-.2.5-.4.7-.5.2 0 .3-.1.5-.1.1-.1.1-.3.2-.4-.2-.1-.4-.1-.6-.2-.1-.1-.2-.3-.2-.4.2-.2.4-.3.5-.5 0-.3 0-.5.1-.8.3 0 .5-.1.8-.1v-1.1c.3 0 .6-.1.8-.1 0-.2.1-.4.2-.5.2-.1.5-.3.7-.4.3-.1.5-.1.8-.2-.1-.3-.2-.5-.3-.8l.8-.8c.1-.6.3-1.2.5-1.8-.2-.2-.3-.5-.5-.7.1-.2.2-.3.3-.5l-.5-.5v-.7c-.2.1-.4.3-.6.4-.1.3-.2.6-.3.8-.2.1-.4.1-.6.2-.2-.3-.3-.6-.5-.9-.1-.3-.2-.5-.3-.8-.2-.1-.5-.3-.7-.4v-.9c-.1-.3-.2-.5-.3-.8 0-.2 0-.3-.1-.5l-.4.4-.4-.4c.1-.3.1-.6.2-.9-.1-.6-.2-1.3-.4-2 .1-.2.1-.3.2-.5-.1 0-.3-.1-.4-.1-.2-.2-.5-.3-.7-.5-.2-.2-.4-.3-.6-.5-.2-.3-.4-.7-.6-1-.2-.6-.4-1.2-.7-1.8-.2-.3-.4-.5-.5-.8-.2 0-.4 0-.6-.1-.2-.1-.4-.1-.7-.2-.3-.1-.5-.3-.8-.4-.2-.4-.5-.8-.7-1.1-.3-.1-.6-.3-.8-.4-.2-.4-.4-.8-.7-1.1-.2-.2-.4-.5-.6-.7-.2-.5-.3-.9-.5-1.4-.2-.5-.3-.9-.5-1.4.1-.2.2-.4.3-.7.2-.2.3-.4.5-.7-.1-1.1-.2-2.1-.4-3.2-.2-.5-.3-1-.5-1.6-.1-.2-.2-.3-.4-.5l.4-.4c-.1-.1-.1-.3-.2-.4-.1-.3-.2-.5-.3-.8v-.6c-.1-.2-.3-.5-.4-.7v-1c-.1-.5-.2-.9-.2-1.4.1-.2.2-.5.3-.7l-1.2-.1-.6-.6-.3.6c.1.4.1.9.2 1.3l.3.6c-.1.3-.1.5-.2.8 0 .4.1.8.1 1.2 0 .4-.1.8-.1 1.2.1.3.2.6.4.9-.1.4-.2.7-.3 1.1.1.3.3.6.4 1-.1.3-.3.7-.4 1 0-.4-.1-.7-.1-1.1-.1-.4-.3-.8-.4-1.2 0-.5.1-1 .1-1.5-.1-.3-.2-.5-.2-.8-.1-.2-.2-.3-.3-.5l-.3-.9c.2 0 .3.1.5.1.1-.3.2-.5.3-.8 0-.1-.1-.3-.1-.4 0-.2.1-.3.1-.5-.1-.2-.3-.4-.4-.6 0-.3-.1-.6-.1-.9.1-.2.1-.3.2-.5 0-.3 0-.7-.1-1v-.8c-.1-.2-.2-.4-.2-.6-.2-.3-.3-.6-.5-.8-.1-.1-.3-.2-.4-.2v-1.1l-.3-1.2c.1-.1.3-.1.4-.2-.1-.2-.2-.5-.2-.7.1-.2.2-.3.3-.5-.2 0-.3-.1-.5-.1.1-.3.1-.6.2-.9 0-.4-.1-.7-.1-1.1.2-.2.4-.5.5-.7l.3-1.2c.1-.3.1-.6.2-.9.2-.4.5-.8.7-1.2 0 0 1-1.9 1-2.1 0-.2.4-.9.4-.9v-.2c-4.4 5.1-8.2 11-11 17.6-14.9 34.2.9 73.9 35.2 88.7 33.6 14.4 72.4-.5 87.9-33.3v-.2zm-10.9-15.6c.2.1.5.1.7.2-.2.2-.4.3-.6.5-.2 0-.4.1-.6.1-.1-.2-.2-.4-.4-.6.3-.1.6-.2.9-.2zm-3.5-4.6zm-1.8 2 .4.4c.2.1.3.2.5.2.1.1.2.3.4.4 0 0-.5.4-.6.2l-.7-.7c-.2-.2-.3-.5-.5-.7.2.1.3.2.5.2zm-4.2-4.9c-.1.2-.1.4-.2.6-.2.3-.4.5-.5.8-.3-.3-.5-.7-.8-1-.1-.3-.1-.6-.2-.9l.3-.2c.2.2.5.3.7.5.2 0 .5.1.7.2zm-2.3-5.8c.1-.2.2-.4.3-.7.2-.1.4-.1.6-.2.2-.1.3-.2.5-.3-.1.3-.3.7-.4 1-.2.2-.4.4-.6.7-.1-.1-.2-.2-.4-.2-.1-.1-.1-.2 0-.3zm-1 2.3c0-.3 0-.6.1-.8l.5-.4c.5-.5-.5.4.7.1 1.2-.3-.1.7-.1.7-.2.2-.3.5-.5.7-.2.2-.4.4-.6.5-.2 0-.3 0-.5-.1.1-.3.3-.5.4-.7zm-1.9-1.5c-.1.1-.1.2-.2.4-.1-.1-.3-.2-.4-.4h.6zm-1.8-.2c.1-.1.2-.3.4-.4 0-.1.1-.2.1-.3 0 0 .3.6 0 .9-.2.1-.5.1-.7.2.1-.2.2-.3.2-.4zm-1.2-.3c.1 0 .2.1.4.1-.3.2-.7.2-.7.2l.3-.3zM132.9 78c.2.1.3.1.5.2.1 0 .2-.1.3-.1l-.3.6c-.2 0-.4-.1-.6-.1.1-.3.1-.4.1-.6zm-2.7.1c.2-.1.5-.2.7-.3.1.1.2.1.3.2l-.6.6c-.2 0-.3.1-.5.1 0-.2.1-.4.1-.6zm-4.5.4c-.1.1-.2.2-.3.4-.1-.2-.3-.3-.4-.5 0 0-.1-.5-.1-.8 0 0 .8 0 1.1.1-.2.2-.2.5-.3.8zm13.1-15.1c.2 0 .4.1.6.1 0 .2-.1.3-.1.5-.2 0-.4-.1-.6-.1l-.3-.3c.1-.1.3-.2.4-.2zm-1.7 0 .4.4c-.2 0-.7-.1-.7-.1 0-.2.1-.3.3-.3zm-2.9.7c.2.1.4.3.6.4-.1.1-.2.3-.3.4h-.7c0-.1-.1-.3-.1-.4.2-.1.3-.3.5-.4zM56.9 33.6c-.1.1-.2.2-.3.2-.2 0-.4-.1-.6-.1h-.5l-.3-.3v-.3c-.2 0-.3 0-.5.1-.1-.1-.2-.2-.2-.3 0-.1.1-.2.1-.2.2 0 .3 0 .5.1.1-.1.2-.2.3-.4.1 0 .3.1.4.1l.2-.2c.1.1.3.2.4.3.1.1.2.1.3.2.1.1.1.2.2.3-.1.1-.2.3-.3.4.1-.1.2 0 .3.1zm2.3-4.7h-.6c.1.1.4.2.4.2.1.1 0 .4 0 .4-.1 0-.2.1-.4.1 0 0-.3-.2-.3-.1-.1.1 0 .3 0 .3l.2.2c-.1.1-.1.2-.2.3.1 0 .3-.1.4-.1 0 0 .3 0 .3.1-.1.1-.3.4-.3.4l-.3.3h-.6c-.1-.1-.2-.1-.3-.2-.2.1-.3.1-.5.2-.1.1-.3.1-.4.2-.1-.1-.3-.1-.4-.2 0-.1 0-.2-.1-.4 0 0-.1-.3-.2-.3-.1-.1-.3-.4-.3-.4h-.4c-.2-.1-.3-.2-.5-.4.1-.2.1-.3.2-.5.2 0 .4.1.5.1 0 .1.1.2.1.3h.5c.1.1.5 0 .5 0 0-.1.1-.2.1-.3-.1-.1-.3-.1-.4-.2 0 0 .1-.2.3-.3.2 0 .7-.1.7-.1l.3.3c.1 0 .3-.1.3-.1v-.2c.2 0 .4 0 .6.1 0 0 .3 0 .5-.1s.4 0 .4 0c0 .2-.1.3-.1.4zm2.1 13.3c-.3 0-.6-.1-.9-.1-.2-.1-.4-.1-.6-.2 0-.1.1-.1.1-.2.1 0 .3.1.4.1.2-.1.3-.1.5-.2.3 0 .6 0 .9-.1 0 .1.1.2.1.2-.1.2-.3.4-.5.5zm1-1s-.8-.4-.9-.4c-.2 0 .4-.3.4-.3 0-.1 0-.2-.1-.3-.2 0-.4 0-.6.1-.3.3-.6.5-.8.8-.2-.1-.4-.1-.5-.2.1-.1.2-.3.3-.4-.2.1-.4.1-.6.2 0-.2.1-.3.1-.5.3-.1.6-.2.8-.3 0 0 .4-.6.4-.7 0-.1.3-.3.4-.4.1-.1.2.2.2.2.1.1.1.3.2.4.2 0 .3.1.5.1v.4c.1.2.3.3.4.5v.5c.3.1.5.2.8.2l-.7.7c-.2-.3-.2-.4-.3-.6zm1.2 2.2c-.1.1-.3.2-.4.3-.1-.1-.1-.2-.2-.3.1-.1.2-.1.3-.2.2-.1.4-.2.5-.2-.1.1-.1.3-.2.4zM47 80.9h.2c0 .1.1.2.1.3-.1.1-.1.2-.2.3l-.3-.3c.1-.1.1-.2.2-.3zm-3.5 1.6c-.1.1-.4.2-.4.2-.1 0-.3-.1-.4-.1.1-.1.3-.2.3-.2 0-.1 0-.2.1-.3 0-.1.1-.2.1-.3l.3.3c0 .1.1.3 0 .4zm2.8 5.5-.3-.3-.2.2c-.1-.1-.2-.1-.4-.2-.1-.1-.2-.2-.4-.3V87c-.1 0-.1-.1-.2-.1v-.2c.2 0 .3.1.5.1h.4v.2c.2 0 .3.1.5.1.1.2.2.3.2.5s0 .3-.1.4zm-.2-2.2v-.3c.1 0 .2 0 .3-.1 0-.1 0-.3.1-.4-.1-.1-.2-.2-.3-.2-.1-.2-.1-.3-.2-.5v-.5c-.2-.1-.5-.2-.7-.3-.1-.3-.2-.5-.3-.8l-.6-.6c0-.1-.1-.2-.1-.3l-.6-.3c-.2.1-.4.1-.6.2-.1 0-.2.1-.3.1-.2-.1-.3-.2-.5-.2.1-.1.2-.1.3-.2V81c.1 0 .2-.1.4-.1h.7c.1 0 .3.1.4.1.1 0 .2.1.3.1v.2c.1 0 .2.1.4.1.1.1.3.2.4.3.2.2.5.3.7.5 0 .1.1.3.1.4.3.4.7.7 1 1.1 0 .2 0 .3.1.5.1 0 .2.1.3.1 0 .2.1.4.1.5h.4c.1.1.2.2.2.4 0 .1-.1.1-.1.2.1.1.2.2.3.4.2.1.3.2.5.3-.1.1-.1.2-.2.3-.1.1-.2.1-.3.2-.3-.2-.5-.3-.7-.5-.8-.1-1.2-.2-1.5-.3zm5.7 4.2-.6-.3c-.1.1-.2.1-.3.2-.2-.1-.3-.2-.5-.3-.1-.1-.2-.3-.3-.4-.1.2-.1.3-.2.5-.1 0-.2 0-.3-.1v-.4c-.4-.2-.7-.4-1.1-.6-.3-.1-.5-.2-.8-.3 0 0-.1-.4-.1-.5h.4c0 .1 0 .3.1.4.2 0 .4 0 .5.1.1-.1.3-.1.4-.2.1-.1.2-.2.3-.4-.1-.2-.2-.3-.3-.5.1 0 .2.1.3.1.1.1.2.1.3.2.1.1.2.2.2.3.1 0 .2-.1.3-.1.2.1.4.1.6.2 0 .1.1.2.1.3.1.1.2.1.3.2.1.2.1.3.2.5.2.1.3.2.5.3.1.2.2.3.3.5 0 .1 0 .3.1.4-.1-.1-.3-.1-.4-.1zm1.6 1.2s-.4-.2-.5-.2c-.1 0 0-.2 0-.2 0-.1-.1-.3-.1-.4.1 0 .2.1.4.1.2.1.4.2.5.2.1.1.1.2.2.2-.2.1-.3.2-.5.3zm1.1 8.8h-.4c-.2 0 .1-.3.1-.3 0-.1.1-.3.1-.4.1.1.3.1.4.2 0 .2-.1.3-.2.5zm-23.2-.2s-.5-.1-.6-.4l.3-.3c0-.2 0-.4-.1-.6.1.3.3.5.4.8v.5zm76.2-41.3v-.6c-.5-.3-1-.5-1.5-.8.3 0 .7-.1 1-.1-.3-.3-.7-.6-1-.9.3-.1.6-.1.9-.2.2-.2.5-.3.7-.5-.3 0-.6 0-.9.1-.3-.1-.6-.1-.9-.2.3-.1.6-.3.9-.4h.7v-.5c.1.1.3.2.4.3.1.3.1.7.2 1l.6.3c.2-.1.5-.2.7-.2.4.2.7.4 1.1.6.4.1.9.2 1.3.3.2 0 .5-.1.7-.1.2.4.4.7.6 1.1l-.3.9s.5.8.2.8c-.3-.1-1.3-.1-1.3-.1-.5-.1-1.1-.3-1.6-.4-.2-.1-.4-.1-.5-.2-.2.1-.4.3-.6.4-.5-.1-1-.4-1.4-.6zm3.2 17.1c-.4.1-.8.1-1.2.2l-.5-.5-.3-.6c.4-.1.7-.1 1.1-.2.1-.2.2-.5.3-.7-.2-.2-.5-.4-.7-.6l.9-.3c.1-.2.2-.4.2-.6.3.2.5.4.8.5.3-.2.5-.4.8-.7 0-.1 0-.2.1-.3.2.2.5.4.7.6 0 .1 0 .2-.1.3l.3.6c-.4.3-1.2.6-1.2.6.1.1.1.3.2.4-.1.3-.2.6-.4.9-.3.2-.7.3-1 .4zm6.6 3.2c-.3 0-.6 0-.9-.1v.4c-.3 0-.5-.1-.8-.1-.2-.1-.5-.2-.7-.3l-.9.3c-.2-.1-.4-.3-.7-.4-.2 0-.4.1-.6.1-.3-.1-.6-.3-.9-.4-.3.1-.7.2-1 .3V78c.5-.2 1.1-.5 1.6-.7.3.2.7.5 1 .7l.5-.5c-.1-.1-.3-.1-.4-.2-.2-.1-.4-.1-.6-.2-.2-.1-.4-.3-.7-.4 0-.1.1-.3.1-.4.2 0 .5.1.7.1.1-.1.1-.3.2-.4-.2-.1-.3-.2-.5-.3.2 0 .5-.1.7-.1-.1-.2-.2-.4-.3-.7.2.1.4.1.6.2.1.2.2.3.3.5.2-.1.5-.2.7-.3 0-.2.1-.5.1-.7-.1-.2-.2-.3-.4-.5.1-.1.2-.2.4-.3-.1-.2-.3-.4-.4-.5h-.7c.1-.3.2-.7.3-1 .1-.2.2-.3.3-.5-.2-.1-.4-.3-.6-.4h.5c-.1-.2-.1-.4-.2-.6-.1-.5-.1-1.2-.1-1.2.1.2.3.4.4.6.3.1.3-.4.3-.4.3-.3.6-.5.8-.8.3 0 .7.1 1 .1v.7c-.2.1-.5.2-.7.3.2.2.4.3.5.5.2.2.4.3.6.5-.1.2-.3.4-.4.6-.1.2-.3.4-.4.6-.2.1-.3.2-.5.3.1.2.3.5.4.7.1.3.1.6.2.9.1.3.2.7.4 1 0 .3 0 .6-.1.9.1.2.3.4.4.5-.1.1-.3.2-.4.2.1.2.3.3.4.5l.4.4c.3.5.2.8.1 1.1zm-3.2-10.1.5-.5.3.6c-.2.1-.3.2-.5.3-.1-.1-.2-.2-.3-.4zm5 .3s-.2-.5 0-.7l.3-.3c.1.3.1.6.2.8-.2.1-.4.1-.5.2zM72 32.3c0 .1.1.3.1.3 0 .2-.1.3-.1.5h-.4c-.2-.1-.4-.1-.5-.2-.2 0-.3 0-.5-.1-.2 0-.4.1-.6.1l-.2-.2c-.2 0-.4 0-.6-.1v-.3s.1-.2.1-.3c0-.1.3-.1.3-.1.2-.1.4-.2.5-.3h.5c.1 0 .2.1.3.1h.7c.3.3.4.5.4.6zm-5.8-5.1c.1-.1.3.1.3.1v.2c-.1 0-.2.1-.2.1-.1-.1-.2-.1-.4-.2l-.1-.1c-.2.1.3 0 .4-.1zm-3.7-.5c.1 0 .2 0 .3-.1.1 0 .2.1.4.1.1 0 .3 0 .4-.1h.6c.1.1.3.1.4.2l.1.1c-.2 0-.3.1-.5.1h-.5c-.1-.1-.2-.1-.3-.2-.2 0-.7-.1-.7-.1-.1 0-.2-.1-.3-.1 0 .2.1.2.1.1zm-.7 2.3c-.1 0-.2.1-.3.1 0-.1-.1-.1-.1-.2H61s0-.1-.1-.1c0 0-.1-.2-.2-.2-.2 0-.1-.1-.1-.1h-.2s.1-.2.2-.2c.1-.1.3.1.3.1.1-.1.2-.1.4-.2h.6c.1.1.2.1.3.2v.4c-.1 0-.2.1-.4.2zm1.2.7v-.2c.2-.2.3-.3.5-.4l.4-.4c-.1-.2-.1-.3-.2-.5-.1-.1-.3-.1-.4-.2-.1 0-.1 0-.2-.1-.1 0-.2.1-.3.1-.1-.1-.2-.1-.2-.2-.2-.1-.4-.1-.6-.2 0-.1-.1-.1-.1-.2V27c.2 0 .3 0 .5-.1.2.1.4.2.7.3.2.1.4.1.6.2 0 .1.1.2.1.3.3 0 .6 0 .9.1.2.1.3.2.5.4 0-.1.1-.2.1-.2l.1-.1h.3c0 .1-.1.2-.1.3h-.4c.1.1.3.2.4.4h-.8s.2.2.4.2.6.1.5.2c0 .1.5.4.5.4h1c.4.1.8.1 1.3.2.2 0 .4.1.7.1.3.1.5.1.8.2.2 0 .3.1.5.1.1.1.1.2.2.3h.5l.5.5c-.1 0-.1.1-.2.1-.2 0-.4.1-.6.1l-.2.2c-.6-.1-1.1-.3-1.7-.4 0-.1-.1-.2-.1-.2-.1.1-.3.1-.4.2-.3-.1-.6-.1-.9-.2-.2-.1-.3-.2-.5-.2-.2-.1-.4-.1-.7-.2-.1 0-.1 0-.2-.1h-.3c-.2 0-.4-.1-.6-.1v-.3c-.2 0-.3 0-.5.1-.1 0-.2.1-.3.1-.2 0-.5-.1-.7-.1-.1 0-.1-.1-.2-.1H63zm4.7 30.4s0-.2.1-.4c.4.3.7.5 1.1.8.2.3.3.5.5.8 0 .1-.1.2-.1.3l-.6-.3c-.2-.1-.4-.2-.5-.3 0-.1.1-.3.1-.4-.2-.2-.4-.3-.6-.5zm1.5 5.7h-.6c-.2 0 .3-.5.3-.5.2-.1.4-.1.6-.2l.2.2c-.2.1-.3.3-.5.5zm.2-1.4c-.2.2-.5.4-.7.6-.2.2-.3.4-.5.7l-.3-.3s.1-.7.2-.8c.1-.1.3-.2.4-.3.3-.1.6-.2.8-.3.3 0 .5.1.8.1 0 .1 0 .2.1.4-.3 0-.5 0-.8-.1zm7 1.6c-.1.3-.2.5-.3.8h-.5c-.1-.1-.1-.2-.2-.4-.2-.1-.3-.1-.5-.2.2-.1.3-.2.5-.4-.1-.2-.2-.4-.3-.5-.4.1-.7.2-1.1.3.1-.1.2-.3.2-.4v-.3c-.3-.1-.6-.1-.9-.2-.4-.2-.7-.3-1.1-.5-.2-.1-.3-.2-.5-.4-.2.1-.5.1-.7.2 0 0-.1-.5-.1-.7.2-.1.5-.1.7-.2 0-.2-.1-.4-.1-.6.2 0 .5-.1.7-.1 0-.1.1-.2.1-.3.3-.1.6-.3.8-.4.1-.3.2-.5.3-.8.3-.1.5-.2.8-.3.3.1.6.1.9.2l-.3.3c-.2 0-.4.1-.6.1-.1.1-.2.3-.3.4-.1.2-.2.5-.4.7 0 0 .6 0 .7.1.1.1-.3.3-.3.3.1.1.2.2.2.4.4.2.9.4 1.3.5-.1.2-.1.5-.2.7 0 0 .5.3.7.3.2 0-.2.6-.2.6.2 0 .4.1.6.1-.2.2-.3.5-.5.7.4-.2.5-.1.6 0zm2.5-22.6c-.1-.1-.3-.2-.4-.2H78c0 .2-.1.4-.1.7 0 0-.6-.4-.7-.5-.1-.1.1.6.1.6-.2.1-.4.3-.6.4 0 0-.3-.3-.5-.3s.3-.3.3-.3-.5-.3-.7-.3c-.2 0 .1-.2.1-.2-.1-.1-.2-.2-.3-.2 0 0-.6-.3-.6-.5 0-.1-.2-.6-.2-.6s-.3.1-.4.1c-.1 0 0 .5 0 .5l-.4-.2c-.2-.1-.3 0-.3 0 .1.1.2.3.3.4.1.2.2.4.3.5 0 .1.1.2.1.3.1.2.1.5.2.7h.6c0 .2-.1.4-.1.6-.1.1-.3.2-.4.3v.7s-.5-.6-.6-.7c-.1-.1-.3 0-.3 0-.2-.1-.3-.2-.5-.4-.1 0-.3.1-.4.1l-.3-.3c-.2-.1-.5-.3-.7-.4l.3.6c.1.2.2.3.3.5.2.1.3.2.5.3v.5c.3.1.6.2.8.2-.1.2-.2.5-.3.7-.1-.2-.2-.3-.3-.5-.3-.1-.6-.2-.9-.4-.3-.2-.5-.3-.8-.5-.3-.1-.6-.1-.9-.2-.3 0-.5-.1-.8-.1-.2-.2-.3-.4-.5-.6.1 0 .2 0 .4.1h.5c-.2-.2-.5-.3-.7-.5 0-.2.1-.4.1-.7-.2-.1-.3-.2-.5-.3 0-.2-.1-.4-.1-.5-.2-.2-.5-.3-.7-.5 0 .2 0 .3.1.5h-.6c0-.1 0-.1-.1-.2h-1c-.3 0-.5-.1-.8-.1-.1-.1-.2-.3-.4-.4.1 0 .2 0 .4-.1 0-.1 0-.2.1-.3.1 0 .2-.1.3-.1.1-.2.2-.3.3-.5.1 0 .1 0 .2.1s.2.1.3.2c.1 0 .1.1.2.1h.7c.3.1.6.3.9.4.4 0 .8 0 1.3.1-.1-.4-.3-.8-.4-1.2l.2-.2c.2-.1.4-.1.6-.2.1-.1.2-.1.3-.2.2 0 .3.1.5.1 0-.1.1-.3.1-.4.1-.1.2-.1.2-.2.1-.1.2-.2.4-.2v-.6l-.3-.3s.2-.3.4-.3c.2-.1-.3-.4-.3-.4-.3.1-.5.1-.8.2l-.3-.3s.4-.2.5-.3c.1-.1-.5-.3-.7-.2-.2 0 .3-.3.4-.3.2 0 .2-.3.2-.3h-.5l-.4-.4c0-.2.1-.3.1-.5 0 0-.6-.5-.8-.5-.2 0 0 .3 0 .4 0 .1-.7 0-.7 0-.1-.1-.1-.2-.2-.4-.2-.1-.5-.2-.7-.3-.1.1-.2.1-.3.2v.6c-.2 0-.3-.1-.5-.1v-.4c-.2-.2-.3-.4-.5-.6 0 .3.1.5.1.8-.2-.2-.4-.3-.6-.5-.2 0-.4-.1-.6-.1-.2-.1-.4-.2-.5-.3-.1 0-.2-.1-.3-.1h-.7c-.2 0 .1-.4.1-.4-.1-.1-.2-.2-.3-.2-.1 0-.2 0-.4-.1-.1-.1-.1-.2-.2-.3 0-.1-.1-.2-.1-.4.2 0 .3 0 .5-.1-.1 0-.2-.1-.4-.1 0 0-.5-.2-.6-.2-.1 0 .2-.2.2-.2l-.4-.4c-.1 0 .1-.3.1-.3.2-.1.5-.2.7-.2.2-.1.5-.3.7-.4.3-.1.5-.3.8-.4.3 0 .6.1.9.1.3.1.6.1.8.2.3.1.7.1 1 .2.1.1.2.1.4.2h-1.7c-.1.1-.3.2-.4.3-.2.1-.3.3-.5.4 0 .1-.1.3-.1.4 0 .1 0 .2.1.3-.2.1-.4.2-.6.2h.7c.1.1.2.3.3.4v-.3l.2-.2-.1-.1s-.2-.3-.1-.4c.1-.1.3-.1.3-.1.2 0 .3.1.5.1.1-.1.2-.1.3-.2 0 0-.3-.1-.5-.2-.2 0-.1-.3-.1-.3h.6c.2 0 .2-.2.2-.2s.5-.1.7-.1h.6c.2 0 .4 0 .6-.1.2.1.4.2.6.2 0 0-.1.2-.2.3-.1.1-.3.2-.3.2-.1.1-.2.1-.4.2 0 0 0 .3.1.4.1.1-.2.2-.2.2l-.3.3s.2.3.4.3c.1 0 .2-.3.2-.3.1-.1.3-.1.4-.2.1.1.3.1.4.2.1 0 .1.1.2.1-.1.1-.2.2-.2.3l.3.3c.1-.1.2-.1.2-.2.1-.1.2-.2.3-.2.1.1.2.2.4.3.1 0 .2-.1.3-.1l-.3-.3c0-.1 0-.2-.1-.3.2 0 .5 0 .7.1.1.1.2.2.3.2.2.1.4.3.5.5.3 0 .7.1 1 .1.1 0 .2.1.3.1 0 .1.1.2.1.3v.5c-.1 0-.2.1-.2.1-.1.1-.3.1-.4.2.2 0 .3.1.5.1 0 0 .2.2.4.2.1 0 .3-.1.4-.1v.4h.6s.3.3.2.4c-.1.1-.4.3-.4.3s.4.2.6.1c.2 0 .4-.1.6-.1l.3.3c-.1 0-.2.1-.2.1v.5c.2-.1.4-.1.5-.2l.3.3c-.1.2-.2.4-.2.6-.1-.1-.2-.1-.3-.2-.1.1-.3.1-.4.2.2.1.3.2.5.4.1.1.1.3.2.4-.1 0-.2 0-.3-.1-.2 0-.4-.1-.6-.1 0 .1.1.2.1.2h-.4l-.2.2c.2.1.5.2.7.2 0 .1.1.2.1.3.1.2.2.3.3.5 0 .1 0 .2.1.3.2 0 .4.1.6.1.1 0 .3.1.4.1 0 .1-.1.2-.1.4.1 0 .2 0 .3-.1.1.1.1.2.2.2-.1.1-.1.3-.2.4 0 0 .4.1.6.1.2 0 .2.2.2.2.1.1.1.2.2.3.2-.1.5-.1.7-.2l.3.6v.3c-.4.5-.5.5-.7.6zm-10-4.9.6-.6c.2 0 .3.1.5.1 0 .1.1.3.1.4l-.4.4h-.6c-.1 0-.1-.2-.2-.3zm1.7.3c.1 0 .2-.1.3-.1l.2.2c-.1 0-.2.1-.3.1-.1-.1-.2-.1-.2-.2zm15.2 13.7s-.1-1.1-.1-1.2c0-.1-.7-.6-.9-.6-.1-.1-.1-1-.1-1-.1-.3-.1-.5-.2-.8.3-.1.7-.3 1-.4 0 0-.8-.2-1-.3-.2-.1.4-.4.4-.4s-.3-.4-.5-.4.1-.4.1-.4-.1-.5-.3-.6c-.1-.1-.1-.5-.1-.5s.6-.4.8-.5c.2-.1-.3-.3-.5-.5s.4-.4.6-.4c.2-.1.4-.3.4-.3h.7c.4.1.7.2 1.1.3.1-.3.2-.5.3-.7.2 0 .4.1.6.1 0-.2-.1-.4-.1-.6.2-.1.3-.3.5-.4-.2-.1-.4-.2-.7-.4-.2-.1-.3-.1-.5-.2 0 0-.5-.8-.6-.8-.1-.1.1.3.1.3.1.3.1.7.2 1 0 .1-.1.2-.1.2-.4 0-.7 0-1.1.1 0 0-.7-.5-.8-.6-.1-.1.3-.1.3-.1s-.4-.3-.6-.4c-.2-.1.6-.3.6-.3.1-.1.2-.3.3-.4 0 0 .5.1.6.2.1 0-.2-.2-.2-.2 0-.2-.1-.3-.1-.5.2.1.4.1.6.2.3.1.5.2.8.4.2.2.5.4.7.5.2.1.4.1.6.2.3-.2.6-.4.8-.6-.3-.2-.7-.4-1-.6 0 0-.9-.6-1-.6-.1 0-.4-.5-.4-.5-.2.1-.3.2-.5.3 0 0-.5-.2-.6-.3-.1 0 .3-.5.3-.5l.3-.6c.2.1.5.1.7.2 0 0 .2-.3.1-.4-.1-.1-.2-.9-.2-.9-.1-.2-.2-.3-.3-.5.2-.1.3-.1.5-.2-.1-.3-.3-.5-.4-.7-.2-.2-.4-.3-.5-.5 0-.2-.1-.4-.1-.5-.2-.1-.5-.1-.7-.2-.2-.2-.3-.4-.5-.6-.3-.2-.6-.4-1-.6-.1 0-.2 0-.2-.1h-.6c-.1-.1-.2-.2-.2-.3-.3 0-.6-.1-.9-.1-.3 0-.5 0-.8.1 0-.1 0-.2.1-.3l-.6-.3c-.2.1-.3.2-.5.3v-.3c-.1 0-.2-.1-.3-.1l-.3.6c-.1-.1-.3-.2-.4-.3-.2 0-.5-.1-.7-.1-.1-.1-.1-.2-.2-.3.1-.1.2-.1.3-.2-.2 0-.3-.1-.5-.1 0-.1-.1-.1-.1-.2-.1-.1-.1-.2-.2-.3-.1-.1-.1-.2-.2-.3h.5c.1.1.2.2.2.3.2 0 .4.1.5.1-.1-.1-.2-.1-.3-.2h.9c.2 0 .4.1.7.1.3 0 .7.1 1 .1l.2.2c.1 0 .2.1.4.1 0-.1.1-.2.1-.2-.2-.1-.4-.2-.6-.2 0 0-1.2-.2-1.3-.2-.2 0 .1-.2.1-.2l-.2-.2-.3.3c-.2 0-.4-.1-.5-.1-.1-.1-.2-.2-.4-.2-.1-.1-.2-.1-.2-.2l-.3-.3c-.1-.1-.2-.2-.3-.4.2 0 .4-.1.6-.1.1 0 .3 0 .4.1.4.1.7.1 1.1.2.3 0 .6.1 1 .1h.8c.2.1.4.1.6.2.3 0 .6.1.9.1h.8c.1-.1.1-.2.2-.2h.3l.3-.3c-.2-.1-.4-.1-.6-.2-.1 0-.2.1-.3.1-.1 0-.3-.1-.4-.1 0-.1-.1-.2-.1-.3-.2 0-.4 0-.5-.1-.1 0-.1-.1-.2-.1.1 0 .1-.1.2-.1s.1-.1.2-.1c.2 0 .3.1.5.1 1 0 1.9.1 2.9.1.2.1.4.1.5.2l.4-.4h.7c.1.2.2.3.2.5.1-.1.1-.3.2-.4.7.1 1.5.3 2.2.4.7.1 1.3.2 2 .3 0 .1.1.3.1.4v.6c.2-.1.5-.1.7-.2 0 0 1.4.8 1.5.9.1.1.1-.4.1-.4.1-.1.3-.1.4-.2l.3-.6s.9.4 1.2.5c.3.1.5 1 .5 1 .2.2.3.4.5.6.6.1 1.2.2 1.8.2-.3-.2-.6-.3-1-.5 0 0-.1 0-.1-.1l-.6-.6-.3-.6c.4.1.9.1 1.3.2s.7.1 1.1.2c.2-.1.3-.3.4-.4.2 0 .5 0 .7.1.3.1.6.2.8.3 0 .1.1.3.1.4h1.1c.3-.1.7-.1 1-.2.4.1.7.2 1.1.2 0 0 2.7.9 2.9.9.2 0 2 .8 2 .8.9.4 1.8.7 2.7 1.1h-1l.6.3h.6c.2.1.4.1.6.2.1.1.2.3.2.4-.3 0-.6 0-.8.1.2 0 .5.1.7.1.3.1.6.1.8.2.1.1.2.3.3.4l.9.3c.2.2.4.4.6.5h-1.3l-.6-.3c-.3-.1-.7-.1-1-.2-.2-.1-.5-.2-.7-.3-.9-.3-1.8-.7-2.7-1-.3-.2-.7-.3-1-.5-.4 0-.7 0-1.1-.1-.3-.1-.7-.1-1-.2-.1 0-.2.1-.3.1.4.1.8.1 1.3.2.4.1.8.1 1.3.2.3.1.5.2.8.3.7.2 1.3.4 2 .6-.1.1-.2.3-.3.4.5.2 1.1.4 1.6.6.1-.1.2-.2.2-.3 0 0 .6.1.8.1.2 0 .8.4.8.4l-.6.3h-1.8c.4.1.8.3 1.2.4h1.2c.2 0 .8.1 1 .1.2.1.6.5.6.5.3 0 .6-.1.9-.1 0 0 .9.2 1 .3.2 0 1.2.7 1.2.7l1.2.6c0 .1-.1.2-.1.4h-1.4c-.3-.1-.6-.2-.8-.3-.4-.1-.9-.2-1.4-.4.4.2.8.5 1.2.7-.2.1-.5.2-.7.3-.3-.1-.6-.3-.8-.4 0 0-1.4-.7-1.5-.8-.1-.1-.3.3-.4.4-.1.1.8.1.8.1.4.3.8.5 1.2.8l-.6.3c-.3-.1-.6-.2-.8-.3-.1.2-.2.4-.3.5 0 0-.8.1-1 .2-.2 0 0 .4.1.4.1.1-.1.3-.1.3s-.4.2-.2.3c.2.1.9.5.9.5 0 .3-.1.7-.1 1-.2-.2-.4-.4-.6-.5 0 0-.9-.4-1.1-.4-.2 0 .3.5.3.5v1c-.1.2-.1.4-.2.6 0 0-.4-.2-.5-.3-.1-.1-.2.6-.2.6l.9.6c-.2.1-.4.2-.7.3-.2-.2-.5-.4-.7-.6h-.9c.2.2.4.4.7.5 0 .1.1.2.1.3h-1.1c-.2.1-.3.1-.5.2.1.2.1.4.2.7-.2.2-.3.4-.5.6-.2-.3-.4-.5-.6-.8 0 0 .2.9.3.9.1.1.1.9.1 1-.1.1-.1.8-.1.8s-1.2-.7-1.3-.9c-.1-.1-.3-1-.3-1l-.9-.3c-.1.2-.3.4-.4.6-.4 0-.9.1-1.3.1 0 0 .8.6 1 .5.2-.1 1.1.2 1.2.1.1-.1 1.2.8 1.2.8-.5.2-1 .3-1.5.5l-1.2-.3c-.2.1-.4.1-.6.2-.2-.1-.4-.1-.5-.2-.3.1-.7.2-1 .3-.7-.2-1.3-.4-2-.5h-1.1c-.2-.3-.4-.5-.6-.8-.1.4-.3.8-.4 1.1h-2c-.4.3-.9.6-1.3.9-.1-.1-.2-.2-.2-.3l-.9.3c-.1-.2-.2-.5-.3-.7 0 0-1.3-.3-1.5-.4-.2-.1-.4.2-.4.2-.2 0-.5.1-.7.1.1.2.1.4.2.7 0 0-.7.7-.7.9 0 .1-1.3.5-1.3.5-.4.3-.8.6-1.2 1-.3.2-.7.5-1 .7.1.3.1.5.2.8 0 0-.7.3-.9.4-.2 0-.3-.8-.3-.8-.3-.1-.6-.3-.9-.4-.1-.3-.1-.6-.2-.9-.4.1-.8.1-1.2.2 0-.5-.1-.8-.2-1.1zm28.8 88.8c0 .1-.4.6-.4.6-.2.1-.4.1-.5.2 0 0 .2-.4.1-.3l-.5.5-.6.3-1.2.6c-.3.1-.5.2-.8.3-.4.2-.9.5-1.3.7-.4.1-.7.2-1.1.3h-.8c-.1-.1-.1-.2-.2-.3.1-.1.2-.3.3-.5v-.4c.3-.1.6-.3.9-.5.3-.1.5-.2.8-.3.2 0 .3-.1.5-.1 0-.1 0-.3-.1-.4l.4-.4c.1 0 .3-.1.4-.1.3-.1.5-.1.8-.2.2 0 .4-.1.6-.1.2 0 .4.1.5.1.1 0 .2-.1.3-.1.2-.1.3-.1.5-.2s.4-.1.6-.2c.2-.2.5-.3.7-.5.1.1.2.1.3.2.2.2-.1.7-.2.8z"/><path fill="none" d="m140.2 66 .6-.3c-.1-.1-.1-.3-.2-.4h-.2c-.1.2-.2.4-.2.7zm2.4 5.2c.1.3.2.7.2 1-.1.1-.1.2-.2.3l.2.2c0 .1-.1.2-.1.4l.4.4c0 .2.1.3.1.5-.1.2-.1.4-.2.5-.1.4-.2.8-.2 1.3.1 0 .2-.1.2-.1 0 .1.1.2.1.4 0 .1-.1.3-.1.4l.7.7h.3c0-.2.1-.4.1-.6v-.1l-.3-.3v-.5l.1-.1-.9-3.3c.1-.1-.4-1.1-.4-1.1z"/><path fill="#FFF" d="M125.2 100.3zM140 64.7c-.1-.1-.2-.1-.3-.2-.2.1-.4.1-.6.2-.1-.2-.3-.3-.4-.5-.2-.1-.3-.3-.5-.4 0 .1.1.3.1.4.1.2.1.4.2.6-.2-.2-.3-.4-.5-.6 0 .1-.1.3-.1.4-.1 0-.2 0-.2-.1 0-.2.1-.3.1-.5-.1.1-.2.1-.3.2v-.3c-.2.1-.4.2-.7.3 0-.2-.1-.4-.1-.6l-.2.2c.1.2.1.3.2.5-.1 0-.3-.1-.4-.1-.1 0-.3 0-.4-.1-.2.2-.3.4-.5.7-.3 0-.6.1-.9.1 0 .1.1.2.1.3.1 0 .3 0 .4.1-.2.1-.3.2-.5.3-.1.1-.1.2-.2.3-.1-.3-.2-.5-.3-.8-.1.1-.2.3-.2.4-.1.2-.1.3-.2.5-.4.1-.9.1-1.3.2-.1.1-.2.2-.4.3 0 .1.1.2.1.4-.4 0-.9.1-1.3.1v.4c-.2-.1-.3-.2-.5-.3-.6.3-1.1.5-1.7.8v.3c.3-.1.5-.1.8-.2-.2.2-.4.4-.6.5-.2 0-.5-.1-.7-.1 0-.2.1-.4.1-.5-.1-.1-.3-.2-.4-.2-.1-.1-.3-.1-.4-.2v.3c0 .1.1.2.1.2-.2 0-.4.1-.6.1-.2-.1-.4-.1-.5-.2 0 .1 0 .3.1.4-.2.1-.4.1-.5.2l-.3-.3-.3.3c.1.1.3.2.4.3h-.7c-.2-.1-.3-.3-.5-.4-.1.1-.2.2-.2.3.2.1.3.2.5.3h-.6s-.1.3 0 .4c.1 0 .5.3.5.3h.4c0 .1.1.2.1.3l-.9-.3c-.1-.1-.3-.1-.4-.2-.1.2-.2.4-.2.6.1.1.3.2.4.3 0 0-.3.4-.2.4.1 0 1.1-.2 1.1-.2-.2.1-.3.2-.5.4-.1.1-.2.3-.4.4-.2 0-.4-.1-.6-.1h-.3c0 .1.1.3.1.4.2 0 .5 0 .7.1-.1.2-.2.4-.3.5 0 0-.5 0-.5.1.1.2 0 .6 0 .6.2.1.4.2.5.3.1.1.1.2.2.4 0 0 1.8-.3 1.8-.2l.4.4.9-.3c-.1.2-.2.4-.3.7.1.2.2.4.2.6-.1.2-.2.3-.3.5l.3 1.5-.3.3c-.1.3-.2.7-.3 1 .2.1.4.2.6.4.2 0 .4 0 .5-.1 0-.1 0-.3-.1-.4.2-.1.4-.1.6-.2.2.1.4.2.7.3.1 0 .3.1.4.1.2-.2.4-.4.5-.6-.2.1-.3.1-.5.2.1-.1.2-.3.2-.4.2-.3.4-.5.6-.8.1-.3.2-.6.3-.8h.6l.3.3c.2-.1.5-.2.7-.3-.1-.1-.1-.2-.2-.4.2 0 .4-.1.5-.1 0-.2.1-.4.1-.6 0-.1-.1-.2-.1-.4V74c-.1-.1-.2-.2-.3-.2-.1 0-.3 0-.4-.1.2-.4.3-.9.5-1.3.1-.1.2-.2.4-.3.1-.2.1-.4.2-.7 0 0 0-.2.3-.1l.2.1c.1-.2.1-.3.2-.5.2 0 .3 0 .5.1.1-.1.2-.2.2-.3.3.1.5.2.8.3.3-.1.6-.2.8-.3.1-.2.1-.3.2-.5s.1-.4.2-.5l.6-.3c.2-.1.3-.1.5-.2.1.1.3.2.4.3l.6.3c.1.2.2.3.3.5-.1.1-.1.2-.2.3v.3c-.1 0-.2 0-.4.1h-.2c-.1.2-.3.4-.4.6-.2.1-.4.3-.7.4 0 0-.9.1-1 .2-.1.1-.2.1-.2.1-.1.1-.1.3-.2.4 0 .3-.1.5-.1.8-.1.2-.2.4-.4.5 0 .2-.1.5-.1.7.1.1.3.2.4.3.1.2.2.4.2.6h-.5c0 .1-.1.3-.1.4l.3.3s.3-.4.3-.3v.6h.9l.6-.3c.2.1.5.3.7.4h.6c0 .1-.1.2-.1.3l.3.6c.1.1.2.1.4.2.1.2.2.3.3.5-.3-.1-.5-.3-.8-.4-.2 0-.3.1-.5.1h-.4l-.4-.4c-.1 0-.2-.1-.4-.1 0 .1 0 .2-.1.2-.2-.2-.4-.4-.7-.5-.2 0-.5-.1-.8-.1h-.5l-.3.9c.1 0 .2 0 .3.1-.1.1-.2.3-.3.4l-.3.3v.5c-.3 0-.5.1-.8.1v-.5c0-.1 0-.3.1-.4-.3 0-.5 0-.8.1-.2.3-.4.5-.6.8-.2.3-.4.6-.6.8 0 .1 0 .3-.1.4-.1.1-.3.1-.4.2 0-.2.1-.3.1-.5-.2.1-.4.2-.5.3 0 .1-.1.3-.1.4-.2.1-.4.3-.6.4 0-.1-.1-.2-.1-.2h-.6v-.5l.3.3v-.3c-.2 0-.3-.1-.5-.1-.2.1-.3.1-.5.2-.6-.1-1.2-.3-1.8-.4-.3-.3-.7-.6-1-1-.1.1-.2.1-.3.2-.1 0-.3-.1-.4-.1-.1.1-.2.1-.3.2 0-.1-.1-.3-.1-.4-.1-.1-.2-.3-.3-.4V78c.1-.1.2-.1.3-.2-.1-.1-.2-.1-.2-.2.2-.2.3-.4.5-.6.2-.2.4-.4.6-.5.1.1.1.2.2.3l.3-.3c-.1-.2-.2-.3-.3-.5.1-.2.2-.3.3-.5-.1-.1-.2-.2-.2-.3h.3l.2-.2c.1-.1.1-.3.2-.4-.2 0-.4 0-.6.1-.1.1-.2.2-.3.4l-.6-.3c-.2.1-.4.2-.5.4.1.1.6-.1.6-.1.1.1.2.1.3.2 0 .1 0 .3-.1.4h-.5c-.1 0-.2.1-.4.1l-.3-.3c-.1.2-.2.5-.3.7l.3.3c-.1.1-.3.2-.4.3 0 .2-.1.4-.1.5.1.1.2.1.2.2s-.1.2-.1.4c-.1 0-.1 0-.2.1 0 .1.1.3.1.4v.2c-.1.1-.2.2-.4.2 0 .1.1.3.1.4-.1 0-.4-.2-.4-.2 0 .2 0 .3-.1.5-.1-.1-.2-.3-.3-.4-.1 0-.3.1-.4.1 0 .1-.1.2-.1.3h-.2V79c-.2-.1-.3-.1-.5-.2-.1-.1-.2-.1-.3-.2-.3 0-.5.1-.8.1-.2.1-.5.2-.7.3-.1.2-.2.4-.4.6-.2.1-.3.2-.5.3-.2-.1-.5-.2-.7-.3-.4 0-.9 0-1.3-.1 0 .2-.1.5-.1.7-.3 0-.7.1-1 .1-.2.1-.3.2-.5.3-.2-.1-.5-.2-.7-.3v-.5c-.1 0-.3 0-.4-.1l-.3 1.2c-.3-.1-.7-.1-1-.2 0-.1-.1-.2-.1-.3l-1.2-.3c-.1.2-.1.3-.2.5.2.2.4.3.6.5.1.3.1.5.2.8.1 0 .3-.1.4-.1.1.3.1.6.2.9 0 0-.5.5-.4.6.1 0 .7 1.1.7 1.1-.2.5-.3.9-.5 1.4-.2.2-.4.5-.6.7h-1.1l-.5-.5c-.4-.2-.8-.4-1.2-.5-.4-.2-.9-.4-1.3-.7-.1-.1-.1-.2-.2-.3-.2 0-.5-.1-.7-.1 0 .1-.1.1-.1.2-.1-.1-.2-.1-.4-.2-.3 0-.5.1-.8.1.1.1.2 1.1.2 1.1-.1.1-.2.2-.4.2 0 .3-.1.6-.1.9-.2.2-.3.4-.5.7-.3.3-.6.6-.8.9l-.3.6h.4c0 .1-.1.1-.1.2h-.3c0 .1.1.2.1.3-.1.2-.1.4-.2.6-.2.2-.3.4-.5.6.1 0 .3.1.4.1.1.1.2.1.2.2s.1.3.1.4h.8c.1.3.1.5.2.8 0 .2.1.4.1.6.4 0 .9 0 1.3-.1.4.2.7.4 1.1.5l.9-.6h.9c.1-.2.3-.4.4-.6.3-.1.6-.3 1-.4 0-.2-.1-.4-.1-.7.5-.2.9-.5 1.4-.7.7-.2 1.3-.3 2-.5.2-.4.3-.7.5-1.1.3 0 .5-.1.8-.1.3.3.6.5.9.8.4 0 .8 0 1.2.1.4-.1.8-.3 1.2-.4.3.3.5.7.8 1-.1.7-.1 1.5-.2 2.2l.3.9c.2.3.5.5.7.8.2.6.4 1.1.6 1.7-.1.3-.1.7-.2 1-.2.3-.5.6-.7.9.1.1.2.2.2.3.5-.3.9-.7 1.4-1v-1.1c.2-.1.3-.3.5-.4.1.3.2.5.4.8.1-.1.3-.1.4-.2-.2-.3-.3-.7-.5-1-.2-.3-.3-.5-.5-.8l.3-.3c-.3-.2-.6-.5-.8-.7-.1-.7-.1-1.4-.2-2.1-.2-.3-.3-.5-.5-.8.2-.2.4-.5.6-.7 0-.2.1-.4.1-.6.3.1.6.2 1 .2l-.4.4c-.1.2-.1.5-.2.7.2 0 .3-.1.5-.1.2-.2.4-.3.5-.5v.6l-.3 1.2c.6 1.1 1.3 2.2 1.9 3.2l-.3.6-.4.4c0 .3.1.7.1 1 0 .4.1.8.1 1.2-.1.2-.1.4-.2.6.2.1.4.3.6.4 0 .2.1.4.1.6l-.3-.6h-.5c-.1.4-.2.7-.3 1.1.2.1.4.3.7.4.2-.1.4-.2.6-.2.1-.2.2-.3.3-.5.2.1.3.2.5.2.1 0 .3.1.4.1 0 0-.1-.2-.2-1.2l-.1-1.3c.1-.3.2-.5.3-.8 0 .3 0 .6.1.8.2-.1.5-.1.7-.2v-.6l1.2.6s.2.3.1.4c0 .1-.4.3-.4.3.3-.1.6-.1 1-.2.4 0 .7-.1 1.1-.1-.1-.3-.2-.5-.2-.8 0-.2.1-.5.1-.7.3-.2.5-.4.8-.6l.8-.8c.3-.3.6-.7 1-1 0 0 1-.8.9-.7 0 .1.7.3.7.3.1.3.1.5.2.8h.5c0 .1.1.3.1.4-.3 0-.6.1-.9.1.1.2.2.4.4.6-.1.2-.2.4-.4.6h1.3c.2.1.5.1.7.2.1-.1.1-.2.2-.3-.3-.1-.5-.2-.8-.3 0-.1.1-.3.1-.4 0 0-.3-1-.2-.9 0 .1.6.7.6.7l1.5-.3s1.1.3 1 .3c-.1 0-1.2.2-1.2.2v.6c-.3.1-.7.3-1 .4v.3c.1.4.2.7.3 1.1l.3 1.2c.1.2.3.5.4.7-.1.3-.1.6-.2.9-.3.2-.7.3-1 .5-.1-.1-.2-.2-.3-.4l-.9-.3c-.3-.4-.5-.7-.8-1.1 0-.2 0-.5-.1-.7-.3 0-.5-.1-.8-.1l-.6-.3c-.4.1-.8.2-1.2.2l-.9-.3v.4c-.2 0-.4-.1-.6-.1-.3 0-.5-.1-.8-.1-.2 0-.5.1-.7.1l-.5.5.3.3c-.1.2-.1.5-.2.7-.2 0-.3 0-.5.1 0 .2-.1.5-.1.7 0 .3.1.5.1.8.1.3.2.6.3.8.2.1.3.2.5.3v.8h.5l.4-.4c.1.2.3.4.4.6l.3.6h1.4c.1.1.2.1.2.2.1 0 .2.1.3.1-.4.7-.7 1.4-1.1 2.1-.6.7-1.2 1.4-1.9 2-.3-.1-.7-.1-1-.2-.2 0-.4-.1-.7-.1v-.5c-.3 0-.6-.1-.9-.1-.1.1-.2.2-.2.3-.2-.2-.4-.3-.6-.5-.4-.2-.7-.5-1.1-.7l-.3-.6c-.1 0-.3-.1-.4-.1 0-.1.1-.2.1-.3-.3-.2-.7-.4-1-.6 0-.2 0-.4-.1-.6l-.7-.7c-.3.1-.6.1-.9.2-.2.2-.5.3-.7.5 0 .2 0 .5.1.7-.3.2-.5.3-.8.5-.6-.5-1.2-1-1.8-1.4-.1-.5-.2-.9-.3-1.4-.3-.4-.7-.8-1-1.2-.2-.1-.4-.3-.6-.4-.2-.4-.4-.9-.6-1.3.3-.2.5-.4.8-.6.2-.3.3-.5.5-.8v-.5c.3-.2.5-.4.8-.7-.2-.1-.3-.2-.5-.3l-.3-.6c-.3 0-.5.1-.8.1-.3-.2-.6-.4-.9-.7-.1.1-.2.2-.3.2 0-.2 0-.4-.1-.5-.2 0-.3.1-.5.1-.6-.3-1.1-.6-1.7-.8-.2 0-.4.1-.6.1-.3-.2-.5-.4-.8-.6-.5.1-1 .2-1.6.3-.3-.1-.5-.1-.8-.2l-.6.3h-.6c0-.1-.1-.3-.1-.4-.2 0-.4 0-.6.1-.1-.1-.3-.2-.4-.3-.1 0-.2 0-.3-.1-.1-.2-.2-.3-.2-.5v-.4c-.1 0-.2 0-.3-.1l-.6.3-1.1 1.1c-.5.1-1.1.2-1.6.3-.3.1-.6.1-.8.2-.3.3-.5.6-.8.9-.2.3-.3.6-.5.9 0 .3-.1.5-.1.8l-1.2.9c-.8.3-1.5.5-2.3.8-.5.2-1 .5-1.6.7-.7.7-1.5 1.4-2.2 2.1-.4.3-.9.7-1.3 1-.2.3-.3.5-.5.8 0 .3.1.5.1.8-.1.2-.2.3-.4.5-.1.4-.2.9-.2 1.3-.4.7-.8 1.4-1.3 2-.4.3-.8.7-1.1 1-.1.8-.2 1.5-.4 2.2.1.2.3.5.4.7.1.6.3 1.2.4 1.8 0 .9 0 1.7-.1 2.6.2.4.4.8.5 1.2l.6 1.2c.3.5.5 1 .8 1.5.6-.1 1.3-.1 1.9-.2.4.2.7.4 1 .5l.4.4s1.7-.1 1.9 0c.1 0 1.5.4 1.5.4.5-.1 1-.1 1.5-.2.3.2.6.4.8.6 0 0 .3.8.2.9l-.3.3c.1.2.2.5.2.7.5.1 1.1.2 1.6.3.1.4.1.8.2 1.2l-1.5 1.8-.9.9c.2.6.5 1.2.7 1.8 0 0 .1 1 0 1.1 0 .1-.4 2.1-.4 2.1-.1.1-.2.2-.4.2-.1.1-.2.3-.3.4-.1.3-.2.6-.2.8l-.4.4c-.3.2-.7.3-1 .4-.5.3-1 .7-1.4 1l-.6.9.3.6c-.1.2-.1.4-.2.5v1c-.4.6-.8 1.2-1.2 1.7-.1.2-.1.4-.2.6.1.1.2.1.2.2 0 .2-.1.4-.1.6-.1.3-.1.5-.2.7l-.6.2-.3.4c.2.1.4.2.6.2h1c.4 0 .8.1 1.1.1.2.1.5.1.7.2h1.7l3-.6c.2 0 .3 0 .5-.1.4-.2.9-.5 1.3-.7v-.1c.3 0 .6-.1.8-.1h1.1c.3-.3.6-.5.9-.8.2-.3.3-.6.5-.9.3-.1.7-.1 1-.2.2-.1.3-.2.5-.2s.4 0 .6.1c.6-.1 1.2-.1 1.8-.2.3-.2.7-.3 1-.5.7-.6 1.3-1.3 2-2 0-.2-.1-.3-.1-.5.2-.3.3-.5.5-.8.2-.1.4-.3.7-.4 0-.2 0-.4-.1-.5.4-.3.7-.6 1.1-.8l.9-.6c.4-.1.7-.1 1.1-.2.5-.3 1-.6 1.4-.9 1.2-.4 2.5-.8 3.7-1.2l.3-.3c.1 0 .3-.1.4-.1.5-.3.9-.7 1.4-1 .4-.4.8-.7 1.2-1.1.5-.4 1-.9 1.6-1.3.3-.4.7-.8 1-1.2-.3.1-.7.1-1 .2-.2-.1-.3-.2-.5-.2-.4.1-.9.1-1.3.2 0-.1-.1-.2-.1-.3h-.9c-.1-.4-.1-.8-.2-1.2.1-.1.3-.1.4-.2.1-.1.1-.3.2-.4 0-.3-.1-.5-.1-.8 0-.4.1-.8.1-1.2-.1-.4-.3-.7-.4-1.1.3-.6.5-1.3.8-1.9 0-.5-.1-1-.1-1.4.3-.4.5-.8.8-1.2.1-.4.2-.7.3-1.1-.1-.3-.1-.7-.2-1 .1-.3.2-.6.4-.9.1-.5.1-.9.2-1.4.1-.5.2-1 .2-1.5.1-.3.1-.5.2-.8 0 0 .3-1.2.3-1.4 0 .2-.1 1.7-.1 1.7.2 0 .4-.1.5-.1l.4.4c0 .7-.1 1.5-.1 2.2-.1.4-.2.7-.2 1.1 0 .4.1.8.1 1.2-.2.4-.5.9-.7 1.3-.1.5-.3 1-.4 1.4.1.4.2.8.2 1.2l-.3 1.2v.9s-.7 1.6-.8 1.7c-.1.1-.7 1.4-.7 1.4 0 .1 0 .2.1.3.2.1.5.1.7.2.1-.1.3-.2.4-.3.2.1.4.1.6.2.3-.1.5-.1.8-.2.2 0 .4 0 .6.1.3-.1.7-.2 1-.3l1.5-.3c.1-.2.3-.3.4-.5.5-.1 1.1-.1 1.6-.2l.4-.4c.2 0 .4.1.6.1.1-.1.2-.3.4-.4h.8c.1-.2.3-.5.4-.8.2-.2.5-.3.7-.5l1.2-1.2v-.3c0-.2.1-.4.1-.6 0 0-.1-.5-.2-.5s-.3-.4-.3-.4v-1c.2-.3.3-.6.5-.9h-.2l-.3.3c-.3.2-.5.3-.8.5-.2.1-.5.2-.7.2-.1-.1-.2-.3-.4-.4-.1 0-.3 0-.4.1-.1-.1-.1-.3-.2-.4l.4-.4c.1-.3.2-.5.4-.8-.1.1-.3.2-.4.4h-.4c.2-.3.4-.7.6-1-.1-.2-.1-.4-.2-.7.1-.1.1-.2.2-.3 0-.2 0-.3-.1-.5.1-.4.1-.8.2-1.3.1-.2.2-.3.3-.5.1.1.1.2.2.2.1-.2.1-.4.2-.6 0 .1.1.2.1.4h.2c.1.1.1.2.2.4h.3v.7c-.1.2-.1.3-.2.5v2.2c.2.2.3.5.5.7.3-.1.7-.1 1-.2.1 0 .2-.1.3-.1v.6c-.1.2-.1.4-.2.6 0 .2 0 .4.1.6.2.1.3.1.5.2s.4.2.5.3c.1.1.1.3.2.4.2 0 .4-.1.6-.1.1.1.2.1.2.2l1.5.3c-.1.2-.1.4-.2.6 0 .1 0 .1.1.2l.9-2.1c5.9-13.8 6.9-28.4 3.7-42 0 .2-.1.4-.1.6h-.3l-.7-.7c0-.1.1-.3.1-.4 0-.1-.1-.2-.1-.4-.1 0-.2.1-.2.1.1-.4.2-.8.2-1.3.1-.2.1-.4.2-.5 0-.2-.1-.3-.1-.5l-.4-.4c0-.1.1-.2.1-.4l-.2-.2c.1-.1.1-.2.2-.3-.1-.3-.1-.7-.2-1 0 0 .4 1 .5 1-.7-2.2-1.5-4.4-2.4-6.6l-.6.3c.1-.2.1-.5.2-.7h.2c-.1-.2-.2-.4-.2-.6-.1.1-.1.2-.2.3.4.5.3.4.3.3zm4 11.4.3.3c-.1-.3-.1-.6-.2-.9l-.1.1v.5zM28.5 46.4s0-.1-.1-.1c-.1.2-.3.3-.4.5.1.1.2.2.4.3 0-.3.1-.5.1-.7z"/><path fill="#FFF" d="M26.9 48.7c0 .2-1 2-1 2.1-.2.4-.5.8-.7 1.2-.1.3-.1.6-.2.9l-.3 1.2c-.2.2-.4.5-.5.7 0 .4.1.7.1 1.1-.1.3-.1.6-.2.9.2 0 .3.1.5.1-.1.2-.2.3-.3.5.1.2.2.5.2.7-.1.1-.3.1-.4.2l.3 1.2v1.1c.1.1.3.2.4.2.2.3.3.5.5.8.1.2.2.4.2.6v.8c0 .3 0 .7.1 1-.1.2-.1.3-.2.5 0 .3.1.6.1.9.1.2.3.4.4.6 0 .2-.1.3-.1.5 0 .1.1.3.1.4-.1.3-.2.5-.3.8-.2 0-.3-.1-.5-.1l.3.9c.1.2.2.3.3.5.1.3.2.5.2.8 0 .5-.1 1-.1 1.5.1.4.3.8.4 1.2 0 .4.1.7.1 1.1.1-.3.3-.7.4-1-.1-.3-.3-.6-.4-1 .1-.4.2-.7.3-1.1-.1-.3-.2-.6-.4-.9 0-.4.1-.8.1-1.2 0-.4-.1-.8-.1-1.2.1-.3.1-.5.2-.8l-.3-.6c-.1-.4-.1-.9-.2-1.3l.3-.6.6.6.3.2c-.1.2-.2.5-.3.7.1.5.2.9.2 1.4v1c.1.2.3.5.4.7v.6c.1.3.2.5.3.8.1.1.1.3.2.4l-.4.4c.1.2.2.3.4.5.2.5.3 1 .5 1.6.1 1.1.2 2.1.4 3.2-.2.2-.3.4-.5.7-.1.2-.2.4-.3.7.2.5.3.9.5 1.4.2.5.3.9.5 1.4.2.2.4.5.6.7.2.4.4.8.7 1.1.3.1.6.3.8.4.2.4.5.8.7 1.1.3.1.5.3.8.4.2.1.4.1.7.2.2 0 .4 0 .6.1.2.3.3.5.5.8.2.6.4 1.2.7 1.8.2.3.4.7.6 1 .2.2.4.3.6.5.2.2.5.3.7.5.1 0 .3.1.4.1-.1.2-.1.3-.2.5.1.7.2 1.3.4 2-.1.3-.1.6-.2.9l.4.4.4-.4c0 .2 0 .3.1.5.1.3.2.5.3.8v.9c.2.1.5.3.7.4.1.3.2.5.3.8.2.3.3.6.5.9.2-.1.4-.1.6-.2.1-.3.2-.6.3-.8.2-.1.4-.3.6-.4v.7l.5.5c-.1.2-.2.3-.3.5.2.2.3.5.5.7-.2.6-.3 1.2-.5 1.8l-.8.8c.1.3.2.5.3.8-.3.1-.5.1-.8.2-.2.1-.5.3-.7.4-.1.2-.1.4-.2.5-.3 0-.6.1-.8.1v1.1c-.3 0-.5.1-.8.1 0 .3 0 .5-.1.8-.2.2-.4.3-.5.5.1.1.2.3.2.4.2.1.4.1.6.2-.1.1-.1.3-.2.4-.2 0-.3.1-.5.1-.2.2-.5.4-.7.5.1.3.2.5.2.8l-.3.6c.3.4.6.9.9 1.3l.6 1.8c.1.7.2 1.5.3 2.2 0 .3-.1.5-.1.8l.3.9c0 .3-.1.6-.1 1 .1.4.3.7.4 1.1.3.4.5.9.8 1.3 0 0 1.3 1.6 1.4 1.9.1.2.2.5.3.7-.2.9-.3 1.8-.5 2.6-.1.4-.3.8-.4 1.1l-.9 2.1c-.2.5-.3 1-.5 1.5.1.2.2.4.2.6l-.3.6c-.1.6-.2 1.1-.3 1.6-.2.3-.5.5-.7.7 0 .2-.1.3-.1.5 0 .3-.1.5-.1.8h-.7c0 .2.1.5.1.7 0 .4.1.8.1 1.1-.2.2-.4.3-.6.5 0 0-.1.3 0 .5 0 .2.2.4.2.4h.5c0 .1-.1.2-.1.3-.1.1-.2.3-.3.4v.5c-.1.2-.1.3-.2.5 0 0-.1.8-.2.9-.1.1-.4.1-.4.1s-.2-.3-.4-.5-.4 0-.4 0-.1.3-.1.4c0 .1 1 .7 1 .7-.1.1-.1.2-.2.3v.7l-.1.1s-.3.4-.3.5c0 .1.3.2.3.2.1.2.2.4.3.5h-.2v.4c.1.1.2.2.3.4 0 0 .1.4-.1.4.2.2.3.4.5.6.2.1.5.3.7.4 0 .1.1.2.1.3-.2 0-.4-.1-.6-.1.2.1.3.3.5.4 0 0 .3 0 .5.3.1.1.3.1.4.2.2 0 .4 0 .6.1.1.1.2.1.4.2.1.1.2.2.2.3 0-.1.1-.1.1-.2h.3c.1.1.2.2.4.2.3.1.6.1.9.2.2 0 .4.1.6.1 0-.1.1-.1.1-.2-.3 0-.6-.1-1-.1-.2-.1-.5-.2-.7-.3-.3-.2-.6-.4-.8-.6 0-.2-.1-.3-.1-.5-.3-.2-.5-.3-.8-.5.1 0 .3.1.4.1.1 0 .2.1.3.1v-.4c-.1-.1-.3-.2-.4-.3l.3-.3c0-.1-.1-.2-.1-.3 0-.1.1-.1.1-.2.1.1.2.3.3.4 0 0 .4-.2.3-.5.1-.1.3-.2.4-.4.2 0 .5.1.7.1v-.6c-.1-.1-.2-.1-.3-.2-.2-.1-.3-.3-.5-.4 0-.1.1-.3.1-.4l.6-.3c.2 0 .4.1.6.1-.1-.1-.2-.2-.3-.4h.4c0-.2.1-.3.1-.5.1-.1.3-.2.4-.3.1.1.2.1.4.2 0 0 .2 0 .3-.1.1-.1-.2-.4-.2-.4-.1-.1-.2-.1-.4-.2 0-.1.1-.2.1-.3-.1-.1-.3-.2-.4-.4.1-.1.1-.2.2-.3.1.2.3.4.4.5.3.1.5.2.8.3.1-.1.2-.3.3-.4.1-.2.2-.4.3-.5l-.3-.3c0-.1.1-.1.1-.2.1.1.2.2.3.2.2 0 .3 0 .5.1.4.1.8.2 1.2.4h.8c.2-.1.3-.3.5-.4.1-.1.2-.3.3-.4-.1-.2-.2-.4-.4-.6 0-.1 0-.2-.1-.4l-.4-.4c0-.3-.1-.5-.1-.8.1-.1.2-.3.3-.4-.1.3-.1.5-.2.8.2.2.4.3.6.5.2.1.4.2.5.3.2.1.4.2.6.4.2.1.4.1.6.2.2-.2.4-.3.6-.5.2-.1.5-.2.7-.4 0-.2-.1-.3-.1-.5.2-.1.3-.1.5-.2.1-.1.3-.2.4-.3.1 0 .3.1.4.1-.1.2-.1.5-.2.7.2-.2.4-.4.7-.5.2-.2.3-.4.5-.5.3-.1.6-.3.9-.4v-.7c0-.2.1-.5.1-.7.1-.2.2-.5.3-.7h1.3c.2 0 .4-.3.4-.3.2 0 .4.1.7.1h.7c-.1-.1-.1-.3-.2-.4.4.1.8.2 1.1.3v-.2c0-.2.6.5.6.5.2-.1.4-.1.6-.2v-.8c.3-.2.7-.3 1-.5.3-.2.7-.4 1.1-.5 0-.2.1-.5.1-.7.2-.3.4-.5.6-.8 0 0 .7-1.5.7-1.7.1-.2-.2-.6-.2-.6.2 0 .4-.1.6-.1.1-.2.2-.4.4-.6l.3.6c.2-.2.3-.4.5-.6l.6-.3c.2-.2.4-.4.7-.5.3-.1.5-.1.8-.2.3-.2.7-.3 1-.5.1-.3.2-.6.3-.8.1-.3.1-.6.2-.8v-1l-.9-.6c-.1-.2-.2-.3-.3-.5l-.6-.9c-.2-.3-.4-.7-.6-1-.3-.2-.5-.4-.8-.5-.3-.1-.6-.1-.9-.2-.1-.3-.3-.6-.4-.9-.4.1-.7.1-1.1.2 0-.2.1-.5.1-.7 0-.2.1-.4.1-.5-.3-.3-.6-.6-1-.9-.2-.3-.4-.5-.7-.8-.4.1-.9.2-1.3.3.1 0 .2-.1.3-.1.1 0 .1 0 .2-.1.1-.2.1-.5.2-.7-.2-.2-.3-.5-.5-.7-.4.1-.9.3-1.3.4-.3 0-.5-.1-.8-.1-.2 0-.4.1-.6.1-.5-.1-1-.1-1.4-.2.4 0 .8-.1 1.1-.1.3-.1.6-.3.9-.4.3-.1.5-.2.8-.3.3-.1.6-.1.9-.2-.1-.2-.1-.3-.2-.5.3-.1.5-.1.8-.2-.1-.2-.2-.4-.4-.6-.1-.1-.1-.3-.2-.4 0-.3.1-.7.1-1-.1-.2-.2-.4-.3-.5-.1-.5-.2-1.1-.3-1.6-.1-.2-.2-.4-.4-.6-.2-.1-.4-.2-.5-.3-.1-.2-.3-.5-.4-.7-.3-.1-.6-.2-1-.3-.3 0-.6-.1-.8-.1 0-.1.1-.3.1-.4-.2-.2-.4-.5-.6-.7-.3.1-.5.1-.8.2l.2-.3c.2-.3.5-.8.5-.8-.2-.4-.4-.7-.6-1.1-.4-.2-.9-.3-1.3-.5.3-.2.6-.5 1-.7-.3 0-.6-.1-.8-.1-.1-.3-.2-.5-.3-.8l.4-.4c-.4-.1-.8-.2-1.2-.2 0 0-1.2-.3-1.4-.5-.2-.3-.4-.6-.6-.8h-1c.1-.2.2-.3.2-.5-.1-.2-.3-.3-.4-.5V96c-.2-.1-.5-.2-.7-.3.1.2.1.4.2.7-.3-.1-.6-.1-1-.2-.1.3-.2.5-.3.8 0 .3 0 .6-.1.9-.2 0-.4.1-.7.1v-1.2c.2-.1.3-.3.5-.4 0-.2.1-.4.1-.6.2-.1.4-.2.5-.2 0-.3 0-.5-.1-.8-.3.1-.7.2-1 .3-.4.2-.7.3-1.1.5-.2-.1-.3-.1-.5-.2h-.9c-.1.3-.3.6-.4.9-.1.1-.3.1-.4.2-.2.5-.3 1-.5 1.4 0-.4-.1-.7-.1-1.1-.2-.3-.3-.5-.5-.8v-.6c-.3-.2-.5-.4-.8-.6-.2.2-.3.4-.5.6-.3-.2-.5-.3-.8-.4-.2 0-.4-.1-.6-.1 0-.3-.1-.5-.1-.8-.1-.5-.3-.9-.4-1.4.1-.4.2-.8.4-1.2.2-.4.4-.7.6-1.1.1-.4.3-.8.4-1.2-.1-.2-.2-.3-.3-.5V88c-.2-.1-.5-.2-.7-.3l-.4-.4c-.3 0-.5 0-.8-.1 0 0-1-.4-1.3-.5-.3-.1.4-.5.4-.5.2-.3.3-.5.5-.8v-.7s.5-.3.6-.1c.2-.3.4-.5.6-.8 0-.2.1-.4.2-.7.2-.2.4-.3.5-.5.1-.3.2-.7.3-1 0 0 0 .1-.6-.5-.5-.6.6.5-.6.2s-1.2.1-1.2.1c-.2.4-.5.8-.7 1.2l-.6.6c-.1-.1-.1-.3-.2-.4-.2-.1-.5-.1-.7-.2-.3.1-.7.2-1 .3l.1-.2c.1-.2-.5-.7-.5-.7-.1-.2-.2-.3-.3-.5 0 0-.2-.2-.4-.3-.2-.2.1-1.1.1-1.1-.1-.2-.1-.4-.2-.7-.1-.2-.2-.5-.3-.7.2-.2.4-.5.6-.7 0-.2-.1-.5-.1-.7.1-.2.3-.5.4-.7 0-.3 0-.5.1-.8.1-.1.2-.3.4-.4.2-.2.4-.3.5-.5.1-.2.1-.5.2-.7-.1-.2-.2-.3-.2-.5 0-.3.1-.5.1-.8h.8c.2-.2.3-.5.5-.7.1.1.2.2.4.2l.9-.3c.3 0 .6-.1.9-.1h.8c.2.3.3.5.5.8v.5l.6.3c.1-.1.2-.3.2-.4.1 0 .2-.1.3-.1 0 .3.1.5.1.8.1.1.3.2.4.3 0-.3.1-.5.1-.8l-.3-.6c.2-.1.4-.1.5-.2.2.1.3.2.5.4.2.1.4.2.5.2.2.1.5.1.7.2.1.1.2.2.4.2.1.3.3.6.4.9.1.1.3.2.4.3.2-.1.3-.1.5-.2l.3 1.2c-.1.1-.2.3-.3.4-.1.2-.1.5-.2.7.2.1.4.1.6.2-.3.1-.6.3-.9.4 0 .4.1.8.1 1.1.2.6.4 1.1.6 1.7.2-.3.5-.7.7-1 .1-.3.1-.5.2-.8.1-.5.3-1 .4-1.5 0-.4-.1-.8-.1-1.1 0-.2-.1-.5-.1-.7.1-.2.3-.4.4-.7.1-.2.3-.3.4-.5.2-.2.4-.4.7-.6.1.1.3.1.4.2l.6-.6c.2 0 .4-.1.5-.1.3 0 .6.1.9.1.2-.2.3-.4.5-.6.2 0 .5 0 .7-.1v-.7c0-.2.4-.1.4-.1.2 0 .4.1.6.1-.1-.2-.2-.4-.2-.6.2-.1.3-.3.5-.4 0 0-.2-.5-.4-.7-.2-.2.4-.1.4-.1-.1-.2-.3-.4-.4-.7.2-.3.4-.6.5-.9.2-.3.4-.7.7-1 .2.1.5.2.7.3-.2.2-.4.4-.7.6-.2.2-.4.4-.6.7.1 0 .2.1.4.1.1.2.2.3.4.5.2-.2.4-.5.6-.7 0-.2-.1-.3-.1-.5.1-.2.3-.4.4-.6.1.2.2.4.3.5l.6-.3c.2-.2.3-.4.5-.6v-.5l1.5-.3c.2.1.5.1.7.2.2-.1.3-.3.5-.4v.5c.1.1.3.1.4.2.2 0 .5 0 .7-.1-.1-.1-.2-.2-.3-.4-.2-.2-.4-.5-.5-.7.4-.4.9-.7 1.3-1.1.2.1.3.3.5.4.2-.1.5-.1.7-.2.2 0 .4.1.5.1.3-.1.5-.1.8-.2.1-.2.1-.4.2-.7.1.2.2.3.3.5.1-.2.3-.3.4-.5.1.2.1.3.2.5.2-.2.4-.3.6-.5 0 0 .5 0 .8-.2.2-.2-1 .8-1 .8h.4c.3.1.7.2 1 .3-.3 0-.6 0-.9.1h-.8c-.3.1-.6.2-.8.3.1.3.2.5.3.8.2.1.4.2.7.3 0 0 .4-.3.7-.3.2-.2.4-.3.7-.5.3.1.6.3.8.4.2-.1.5-.2.7-.3 0-.2-.1-.5-.1-.7-.3-.1-.5-.2-.8-.3.1-.1.2-.2.3-.4.1.1.3.2.4.3.1-.2.1-.4.2-.6h-1c0-.2 0-.5.1-.7 0 0-.7-.4-.9-.5-.2-.1.5-.2.5-.2.1-.2.2-.4.4-.6-.3 0-.7 0-1-.1.1-.3.3-.6.4-.8.3.1.5.3.8.4l.3.1c.1-.2.3-.4.4-.7 0-.2-.1-.4-.1-.6-.4-.1-.7-.2-1.1-.3-.4.1-.8.1-1.2.2l-1.5.3c-.4.3-.8.5-1.1.8h-1c.3-.1.7-.3 1-.4.2-.2.4-.5.6-.7.2-.1.4-.2.7-.3.4-.1.8-.1 1.2-.2.3-.2.7-.3 1-.5l.6-.3c.3.1.6.3.9.4h.7l.9.6c.3 0 .7.1 1 .1.1.1.2.3.3.4.3.1.6.1.9.2.4 0 .7-.1 1.1-.1.2-.2.5-.4.7-.6h1c.3.1.6.1.9.2.3-.2.6-.4.8-.7 0-.2.1-.5.1-.7-.1-.2-.3-.3-.4-.5l-.5-.5h-1.3c-.5.1-.9.2-1.4.3.1-.2.2-.4.3-.5.7 0 1.3-.1 2-.1h.6v-.6c-.2 0-.5.1-.7.1 0-.3-.1-.5-.1-.8-.4-.1-.7-.2-1.1-.3.1-.2.2-.3.3-.5-.2-.2-.4-.3-.6-.5-.1-.3-.1-.7-.2-1 .2.1.3.2.5.4.1-.3.2-.6.4-.9-.2-.1-.4-.1-.6-.2.2-.1.4-.3.6-.4-.1-.2-.3-.4-.4-.5 0-.2.1-.4.1-.7 0-.2 0-.4-.1-.6.1-.2.2-.3.3-.5l-.4-.4c.1-.3.2-.5.2-.8 0-.2-.1-.5-.1-.7-.4.4-.8.7-1.2 1.1-.3.1-.5.2-.8.3-.4.2-.9.4-1.3.6 0-.3.1-.5.1-.8-.2-.1-.5-.1-.7-.2.1-.2.1-.4.2-.6-.2-.3-.5-.5-.7-.8.2-.2.5-.4.7-.6.1-.1.2-.3.2-.4l-.4-.4c.2 0 .3-.1.5-.1-.4-.2-.7-.3-1.1-.5 0-.2-.1-.5-.1-.7-.1-.2-.1-.4-.2-.6l-.5-.5c-.3.1-.6.2-.8.3-.4-.2-.8-.4-1.2-.5l-.4-.4h-.7c0 .2.1.4.1.6-.2.1-.5.3-.7.4l-.3.6c0 .3.1.6.1.8-.2 0-.4-.1-.6-.1-.1.1-.2.3-.2.4h-.6c-.1.2-.2.4-.2.6.1.2.2.4.4.6 0 .4 0 .8.1 1.1 0 .2.1.5.1.7l-.6.3.3.3c-.2.1-.3.2-.5.3-.4.2-.8.4-1.1.6-.5.1-.9.1-1.4.2-.1.2-.2.5-.4.7 0 .1.1.2.1.4-.1.4-.3.8-.4 1.2l-.9.9c-.2.1-.5.1-.7.2-.2-.3-.4-.6-.6-.8l-.3-.9s.4-1.1.5-1.3c.1-.2.7-1.2.7-1.2-.2-.2-.5-.4-.7-.6-.3-.1-.6-.2-.9-.2 0-.2 0-.3-.1-.5-.2-.1-.5-.2-.7-.2 0-.2-.1-.4-.1-.6-.2 0-.4-.1-.6-.1v-.9c-.3-.2-.5-.4-.8-.6-.2-.3-.4-.5-.5-.8-.4-.1-.7-.2-1.1-.4.1-.3.1-.6.2-.9-.1-.3-.1-.6-.2-.8h-.7c.1-.3.1-.5.2-.8 0-.2.1-.4.1-.6l.9-.3c0-.1-.1-.2-.1-.4.2.1.4.1.6.2v-.4c.3-.1.6-.3 1-.4.3 0 .7-.1 1-.1l.3-.6c.2.1.4.2.5.3.2-.1.4-.1.6-.2.1-.1.2-.3.3-.4.2 0 .3.1.5.1.1-.2.2-.4.2-.6.2 0 .4-.1.6-.1.2.2.3.4.5.5h.7l.4-.4c-.1-.2-.1-.3-.2-.5-.5-.1-.9-.3-1.4-.4.2-.1.5-.1.7-.2l1.2.3c.1.2.1.4.2.6.2-.1.5-.2.7-.4v-.4h.5c.1.2.2.4.3.7.2 0 .4 0 .6-.1-.1-.3-.1-.5-.2-.8.2 0 .3.1.5.1 0 .2.1.4.1.7.2-.1.4-.1.6-.2.3 0 .7 0 1-.1.2.1.4.1.6.2l.5-.5c-.1-.1-.1-.3-.2-.4 0-.2 0-.3-.1-.5.2-.1.5-.2.7-.3-.1-.1-.2-.1-.3-.2.1-.1.3-.1.4-.2.1-.1.2-.3.3-.4-.2-.1-.3-.1-.5-.2 0-.2 0-.3-.1-.5-.2-.1-.5-.2-.7-.3-.2-.1-.4-.3-.7-.4-.1.2-.2.3-.3.5v.6c-.2 0-.4 0-.6.1-.3.1-.7.3-1 .4l-.6.6c-.3.1-.6.1-.9.2l-.3-.6c.1-.2.2-.5.3-.7.2-.2.5-.3.7-.5 0-.2.1-.4.1-.6H60c-.1.1-.2.2-.2.3-.2.1-.4.2-.6.4-.2 0-.3-.1-.5-.1.1-.3.3-.5.4-.8 0 0-.3-.4-.5-.4s-.4-.3-.4-.3c.2-.1.4-.1.6-.2v-.2c.1-.1.2-.2.3-.2 0 .1.1.2.1.3h.4c0-.1-.1-.3-.1-.4-.2-.1-.4-.2-.6-.4l-.6-.6V32c.2 0 .4-.1.6-.1 0-.1.1-.3.1-.4h.7c.3 0 .6.1.9.1.4 0 .7-.1 1.1-.1l.6-.3c-.3-.1-.5-.3-.8-.4-.4-.2-.7-.4-1.1-.5-.1 0-.3.1-.4.1 0 0-.6-.1-.9-.1l-.3.3-.3.6v.5c-.2.1-.5.3-.7.4-.2 0-.4.1-.7.1 0 .1 0 .2-.1.2-.2.1-.4.1-.6.2-.1.1-.1.2-.2.3 1.2-.9 1-.9.8-.9l.4.4-.3.3s.4-.1.9-.3c.1.2.1.4.2.6.2.1.4.1.6.2l-.6.3h-.6c-.1.1-.2.3-.3.4.2 0 .4.1.6.1-.2.1-.4.1-.5.2-.4.1-.7.1-1.1.2-.3.2-.5.3-.8.5v.5H55c0-.2-.1-.5-.1-.7.1-.1.3-.2.4-.3v-.5c-.1 0-.2 0-.4.1-.1-.2-.1-.3-.2-.5h-.5c-.1.1-.2.3-.3.4-.1 0-.3 0-.4.1l-.9-.3h-.5c-.2 0-.4-.1-.6-.1-.1-.1-.3-.2-.4-.3 0-.1-.1-.2-.1-.3 0 0-.3-.3-.7-.3-.1-.1-.3-.1-.4-.2l.3-.3c-.1-.1-.1-.3-.2-.4h-.9c-.2-.1-.4-.1-.6-.2l-.9.3c.1.1.3.1.4.2.1-.1.3-.1.4-.2.1.1.2.1.3.2.2 0 .4 0 .6-.1.2.1.3.1.5.2-.6.1-1.3.1-1.9.2-.1.1-.2.2-.3.2 0 .2-.1.4-.1.6-.1.1-.2.1-.4.2 0-.1-.1-.3-.1-.4.1-.2.2-.3.4-.5-.2 0-.3.1-.5.1v-.4s0-.1-.1-.1c-6.7 3.5-12.8 8.2-18 13.9l.1.1c-.1.3-.1.6-.2.9v1c-.1-.1-.1-.3-.2-.4-.2-.1-.3-.2-.5-.3-.1 0-.1-.1-.2-.1-.2.2-.3.4-.5.6v.2c0-.2-.3.5-.4.7z"/><path fill="#FFF" d="M48.3 86.4c.1-.1.1-.2.2-.3-.2-.1-.3-.2-.5-.3-.1-.1-.2-.2-.3-.4 0-.1.1-.1.1-.2-.1-.1-.2-.2-.2-.4h-.4c0-.2-.1-.4-.1-.5-.1 0-.2-.1-.3-.1 0-.2 0-.3-.1-.5-.3-.4-.7-.7-1-1.1 0-.1-.1-.3-.1-.4-.2-.2-.5-.3-.7-.5-.1-.1-.3-.2-.4-.3-.1 0-.2-.1-.4-.1v-.2c-.1 0-.2-.1-.3-.1-.1 0-.3-.1-.4-.1h-.7c-.1 0-.3.1-.4.1v.4c-.1.1-.2.1-.3.2.2.1.3.2.5.2.1 0 .2-.1.3-.1.2-.1.4-.1.6-.2l.6.3c0 .1.1.2.1.3l.6.6c.1.3.2.5.3.8.2.1.5.2.7.3v.5c.1.2.1.3.2.5.1.1.2.2.3.2 0 .1 0 .3-.1.4-.1 0-.2 0-.3.1v.3c.4.1.7.2 1.1.3.2.2.5.3.7.5.4-.1.5-.1.7-.2zm-2.6.6v-.2h-.4c-.2 0-.3-.1-.5-.1v.2c.1 0 .1.1.2.1v.4c.1.1.2.2.4.3.1.1.2.1.4.2l.2-.2.3.3c0-.1.1-.2.1-.3-.1-.2-.2-.3-.2-.5-.1-.1-.3-.1-.5-.2z"/><path fill="#FFF" d="M43.2 81.9c0 .1-.1.2-.1.3 0 .1 0 .2-.1.3 0 0-.3.1-.3.2.1 0 .3.1.4.1 0 0 .3-.1.4-.2.1-.1 0-.4 0-.4l-.3-.3zm4.1-.6c0-.1-.1-.2-.1-.3H47c-.1.1-.1.2-.2.3l.3.3c.1-.2.1-.3.2-.3zm4.5 7.8c-.2-.1-.3-.2-.5-.3-.1-.2-.1-.3-.2-.5-.1-.1-.2-.1-.3-.2 0-.1-.1-.2-.1-.3-.2-.1-.4-.1-.6-.2-.1 0-.2.1-.3.1-.1-.1-.2-.2-.2-.3-.1-.1-.2-.1-.3-.2-.1 0-.2-.1-.3-.1.1.2.2.3.3.5-.1.1-.2.2-.3.4-.1.1-.3.1-.4.2-.2 0-.4 0-.5-.1 0-.1 0-.3-.1-.4h-.4c0 .1.1.5.1.5.3.1.5.2.8.3.4.2.7.4 1.1.6v.4c.1 0 .2 0 .3.1.1-.2.1-.3.2-.5.1.1.2.3.3.4.2.1.3.2.5.3.1-.1.2-.1.3-.2l.6.3c.2 0 .3.1.5.1 0-.1 0-.3-.1-.4-.2-.1-.3-.3-.4-.5zm1.4 1.4c-.1 0-.2-.1-.4-.1 0 .1.1.3.1.4 0 0-.1.1 0 .2.1 0 .5.2.5.2.2-.1.3-.1.5-.2-.1-.1-.1-.2-.2-.2-.2-.2-.3-.2-.5-.3zm1 9.2s-.3.3-.1.3h.4c.1-.2.1-.3.2-.5-.1-.1-.3-.1-.4-.2 0 .2-.1.3-.1.4zM31 99.1l-.3.3c.1.3.6.4.6.4v-.4c-.1-.3-.3-.5-.4-.8.1.2.1.4.1.5zM68.1 61c.2.1.4.2.5.3l.6.3c0-.1.1-.2.1-.3-.2-.3-.3-.5-.5-.8-.4-.3-.7-.5-1.1-.8 0 .2-.1.4-.1.4.2.2.4.3.5.5.1.1.1.2 0 .4zm1.2 3.1c-.3.1-.6.2-.8.3-.1.1-.3.2-.4.3-.1.1-.2.8-.2.8l.3.3c.2-.2.3-.4.5-.7.2-.2.5-.4.7-.6.2 0 .5 0 .7.1 0-.1 0-.2-.1-.4-.2-.1-.4-.1-.7-.1z"/><path fill="#FFF" d="M68.9 65.3s-.5.5-.3.5h.6c.1-.2.3-.3.4-.5l-.2-.2c-.1.1-.3.1-.5.2zm7-.4s.4-.6.2-.6-.7-.3-.7-.3c.1-.2.1-.5.2-.7-.4-.2-.9-.4-1.3-.5-.1-.1-.2-.2-.2-.4 0 0 .4-.2.3-.3-.1-.1-.7-.1-.7-.1.1-.2.2-.5.4-.7.1-.1.2-.3.3-.4.2 0 .4-.1.6-.1l.3-.3c-.3-.1-.6-.1-.9-.2-.3.1-.5.2-.8.3-.1.3-.2.5-.3.8-.3.1-.6.3-.8.4 0 .1-.1.2-.1.3-.2 0-.5.1-.7.1 0 .2.1.4.1.6-.2.1-.5.1-.7.2 0 .2.1.7.1.7.2-.1.5-.1.7-.2.2.1.3.2.5.4.4.2.7.3 1.1.5.3.1.6.1.9.2v.3c-.1.1-.2.3-.2.4.4-.1.7-.2 1.1-.3.1.2.2.4.3.5-.2.1-.3.2-.5.4.2.1.3.1.5.2.1.1.1.2.2.4h.5c.1-.3.2-.5.3-.8-.1-.1-.2-.2-.4-.3.2-.2.3-.5.5-.7-.4.3-.6.3-.8.2zM62.4 40.8v-.5c-.1-.2-.3-.3-.4-.5v-.4c-.2 0-.3-.1-.5-.1-.1-.1-.1-.3-.2-.4 0 0-.1-.2-.2-.2l-.4.4c0 .1-.4.7-.4.7-.3.1-.6.2-.8.3 0 .2-.1.3-.1.5.2-.1.4-.1.6-.2-.1.1-.2.3-.3.4.2.1.4.1.5.2.3-.3.6-.5.8-.8.2 0 .4 0 .6-.1 0 .1 0 .2.1.3 0 0-.6.3-.4.3.2 0 .9.4.9.4.1.2.1.3.2.5l.7-.7c-.2 0-.4-.1-.7-.1zm-1.6.8c-.2.1-.3.1-.5.2-.1 0-.3-.1-.4-.1 0 .1-.1.1-.1.2.2.1.4.1.5.2.3 0 .6.1.9.1.2-.1.4-.3.6-.4 0-.1-.1-.2-.1-.2h-.9zm2.1 1.8c.1.1.1.2.2.3.1-.1.3-.2.4-.3.1-.2.1-.3.2-.5-.2.1-.4.2-.5.2l-.3.3zm16.2-1.1c-.2.1-.5.1-.7.2-.1-.1-.1-.2-.2-.3 0 0 0-.3-.2-.2-.2 0-.6-.1-.6-.1.1-.1.1-.3.2-.4-.1-.1-.1-.2-.2-.2s-.2 0-.3.1c0-.1.1-.2.1-.4-.1 0-.3-.1-.4-.1-.2 0-.4-.1-.6-.1 0-.1 0-.2-.1-.3-.1-.3-.1-.5-.2-.6 0-.1-.1-.2-.1-.3-.2-.1-.5-.2-.7-.2l.2-.2h.4c0-.1-.1-.2-.1-.2.2 0 .4.1.6.1.1 0 .2 0 .3.1-.1-.1-.1-.3-.2-.4-.2-.1-.3-.2-.5-.4.1-.1.3-.1.4-.2.1.1.2.1.3.2.1-.2.2-.4.2-.6l-.3-.3c-.2.1-.4.1-.5.2v-.5c.1 0 .2-.1.2-.1l-.3-.3c-.2 0-.4.1-.6.1-.2.1-.6-.1-.6-.1s.3-.2.4-.3c.1-.1-.2-.4-.2-.4h-.6v-.4c-.1 0-.3.1-.4.1-.2 0-.4-.2-.4-.2-.2 0-.3-.1-.5-.1.1-.1.3-.1.4-.2.1 0 .2-.1.2-.1v-.5c0-.1-.1-.2-.1-.3-.1 0-.2-.1-.3-.1-.3 0-.7-.1-1-.1-.2-.2-.4-.3-.5-.5-.1-.1-.2-.2-.3-.2-.2 0-.5 0-.7-.1 0 .1 0 .2.1.3l.3.3c-.1 0-.2.1-.3.1-.1-.1-.2-.2-.4-.3-.1.1-.2.2-.3.2-.1.1-.2.1-.2.2l-.3-.3c.1-.1.2-.2.2-.3-.1 0-.1-.1-.2-.1-.1-.1-.3-.1-.4-.2-.1.1-.3.1-.4.2 0 0 0 .3-.2.3-.1 0-.4-.3-.4-.3l.3-.3s.3-.1.2-.2c-.1-.1-.1-.4-.1-.4.1-.1.2-.1.4-.2 0 0 .2 0 .3-.2.1-.1.2-.3.2-.3-.2-.1-.4-.2-.6-.2-.2 0-.4 0-.6.1h-.6c-.2 0-.7.1-.7.1s.1.2-.2.2h-.6s-.1.3.1.3.5.2.5.2c-.1.1-.2.1-.3.2-.2 0-.3-.1-.5-.1 0 0-.2 0-.3.1-.1.1.1.4.1.4l.1.1-.2.2v.3c-.1-.1-.2-.3-.3-.4h-.7c.2-.1.4-.2.6-.2 0-.1 0-.2-.1-.3 0-.1.1-.3.1-.4.2-.1.3-.3.5-.4.1-.1.3-.2.4-.3h1.7c-.1-.1-.2-.1-.4-.2-.3-.1-.7-.1-1-.2-.3-.1-.6-.1-.8-.2-.3 0-.6-.1-.9-.1-.3.1-.5.3-.8.4-.2.1-.5.3-.7.4-.2.1-.5.2-.7.2 0 0-.2.2-.1.3.1 0 .4.4.4.4s-.4.2-.2.2c.1 0 .6.2.6.2.1 0 .2.1.4.1-.2 0-.3 0-.5.1 0 .1.1.2.1.4.1.1.1.2.2.3.1 0 .2 0 .4.1.1.1.2.2.3.2 0 0-.2.4-.1.4h.7c.1 0 .2.1.3.1.2.1.4.2.5.3.2 0 .4.1.6.1.2.2.4.3.6.5 0-.3-.1-.5-.1-.8.2.2.3.4.5.6v.4c.2 0 .3.1.5.1v-.6c.1-.1.2-.1.3-.2.2.1.5.2.7.3.1.1.1.2.2.4 0 0 .7.1.7 0s-.2-.4 0-.4.8.5.8.5c0 .1-.1.3-.1.5l.4.4h.5s-.1.3-.2.3c-.2 0-.6.3-.4.3.2 0 .7.1.7.2-.1.1-.5.3-.5.3l.3.3c.3-.1.5-.1.8-.2 0 0 .4.3.3.4-.2.1-.4.3-.4.3l.3.3v.6c-.1.1-.2.2-.4.2-.1.1-.2.1-.2.2s-.1.3-.1.4c-.2 0-.3-.1-.5-.1-.1.1-.2.1-.3.2-.2.1-.4.1-.6.2l-.2.2c.1.4.3.8.4 1.2-.4 0-.8 0-1.3-.1-.3-.1-.6-.3-.9-.4h-.7c-.1 0-.1-.1-.2-.1-.1-.1-.2-.1-.3-.2-.1 0-.1 0-.2-.1-.1.1-.2.3-.3.5-.1 0-.2.1-.3.1 0 .1 0 .2-.1.3-.1 0-.2 0-.4.1.1.1.2.3.4.4.3 0 .5.1.8.1h1c0 .1 0 .1.1.2h.6c0-.2 0-.3-.1-.5.2.2.5.3.7.5 0 .2.1.4.1.5.2.1.3.2.5.3 0 .2-.1.4-.1.7.2.2.5.3.7.5h-.5c-.1 0-.2 0-.4-.1.2.2.3.4.5.6.3 0 .5.1.8.1.3.1.6.1.9.2.3.2.5.3.8.5.3.1.6.2.9.4.1.2.2.3.3.5.1-.2.2-.5.3-.7-.3-.1-.6-.2-.8-.2v-.5c-.2-.1-.3-.2-.5-.3-.1-.2-.2-.3-.3-.5l-.3-.6c.2.1.5.3.7.4l.3.3c.1 0 .3-.1.4-.1.2.1.3.2.5.4 0 0 .2-.1.3 0 .1.1.6.7.6.7v-.7c.1-.1.3-.2.4-.3 0-.2.1-.4.1-.6h-.6c-.1-.2-.1-.5-.2-.7 0-.1-.1-.2-.1-.3-.1-.2-.2-.4-.3-.5-.1-.1-.2-.3-.3-.4 0 0 .1-.1.3 0l.4.2s-.2-.6 0-.5c.1 0 .4-.1.4-.1s.2.5.2.6c0 .1.6.5.6.5.1.1.2.2.3.2 0 0-.3.2-.1.2.2 0 .7.3.7.3s-.5.3-.3.3.5.3.5.3c.2-.1.4-.3.6-.4 0 0-.2-.7-.1-.6.1.1.7.5.7.5 0-.2.1-.4.1-.7h.5c.1.1.3.2.4.2.2-.1.4-.2.5-.2v-.3c0-.5-.1-.7-.2-.9z"/><path fill="#FFF" d="M70 38.4c0-.1-.1-.3-.1-.4-.2 0-.3-.1-.5-.1l-.6.6c0 .1.1.3.1.4h.6c.3-.2.4-.3.5-.5zm1.1.4-.2-.2c-.1 0-.2.1-.3.1.1.1.1.2.2.3.1 0 .2-.1.3-.2zM71 32c-.1 0-.2-.1-.3-.1h-.5c-.2.1-.4.2-.5.3 0 0-.4 0-.3.1 0 .1-.1.3-.1.3v.3c.2 0 .4 0 .6.1l.2.2c.2 0 .4-.1.6-.1.2 0 .3 0 .5.1.2 0 .4.1.5.2h.4c0-.2.1-.3.1-.5 0 0-.2-.2-.1-.3 0-.1-.1-.3-.3-.3-.3-.3-.8-.3-.8-.3zm-12.1-3.4c-.2.1-.5.1-.5.1-.2 0-.4 0-.6-.1v.2s-.2.1-.3.1c-.1 0-.3-.3-.3-.3s-.5 0-.7.1c-.2 0-.3.3-.3.3.1.1.3.1.4.2 0 .1-.1.2-.1.3H56c-.1-.1-.5 0-.5 0 0-.1-.1-.2-.1-.3 0-.2-.2-.2-.4-.2-.1.2-.1.3-.2.5.2.1.3.2.5.4h.4s.2.4.3.4c.1.1.2.3.2.3 0 .1 0 .2.1.4.1.1.3.1.4.2.1-.1.3-.1.4-.2.2-.1.3-.1.5-.2.1.1.2.1.3.2h.6l.3-.3s.3-.3.3-.4c.1-.1-.3-.1-.3-.1-.1 0-.3.1-.4.1.1-.1.1-.2.2-.3l-.2-.2s-.1-.2 0-.3c.1-.1.3.1.3.1.1 0 .2-.1.4-.1 0 0 .1-.3 0-.4-.1-.1-.3-.1-.5-.2h.6c0-.1 0-.2.1-.3 0 0-.2-.1-.4 0zm3-.5h-.6c-.1.1-.2.1-.4.2 0 0-.2-.1-.3-.1l-.2.2h.2s0 .1.1.1c.2 0 .2.2.2.2s0 .1.1.1h.4c0 .1.1.1.1.2.1 0 .2-.1.3-.1.2-.1.3-.2.5-.4v-.4c-.2.1-.3.1-.4 0zm-5.2 4.6c-.1-.1-.2-.1-.3-.2-.1-.1-.3-.2-.4-.3l-.2.2c-.1 0-.3-.1-.4-.1-.1.1-.2.2-.3.4-.2 0-.3 0-.5-.1 0 0-.1.1-.1.2.1.1.2.2.2.3.2 0 .3 0 .5-.1v.3l.3.3h.5c.2 0 .4.1.6.1.1-.1.2-.2.3-.2-.1-.1-.2-.1-.2-.2.1-.1.2-.3.3-.4-.1 0-.2-.1-.3-.2zM50 31.2c.3-.1.6-.1.9-.2.1.1.2.1.2.2-.2.1-.3.1-.5.2v.2c.1 0 .2.1.3.1 0 .1.1.1.1.2.1 0 .2.1.3.1l.1.1.2.2c.1 0 .2.1.4.1h.3c.2 0 .4.1.6.1 0 0 .2-.1.3-.2.1-.1-.3-.2-.3-.2-.1 0-.2 0-.3.1 0 0 0-.4-.1-.5-.1-.1.2-.1.2-.2.1-.1.2.3.2.3.2 0 .4.1.6.1h.3v.3c.1.1.2.1.3.2.1 0 .2-.1.2-.1.1-.2.2-.4.4-.6-.1 0-.2 0-.2-.1-.1 0-.2-.1-.3-.1-.1-.1-.3-.1-.4-.2-.1-.1-.1-.2-.2-.3 0-.1-.1-.2-.1-.3-.1.1-.1.2-.2.3h-.4c0-.1.1-.1.1-.2-.1-.1-.1-.2-.2-.3.1-.1.1-.2.2-.4 0-.1 0-.2.1-.3 0-.1.1-.3.1-.4-.1 0-.1-.1-.2-.1-1.5.6-3 1.3-4.4 2h.3c.3-.1.7-.1 1.1-.1zm8.7-3.7c-.2 0-.3.1-.5.1-.1.1-.1.2-.2.3.2.1.5.2.7.3.3.1.7.1 1 .2.2 0 .4-.1.5-.1.1-.2.1-.3.2-.5 0-.1 0-.2.1-.4.1-.1.1-.2.2-.3 0-.1-.1-.1-.1-.2v-.1l-.1-.1s-.2 0-.3.1l-.1.1c-.1 0-.2 0-.3-.1-.6.2-1.2.3-1.7.5.2.1.4.2.6.2zm3.5-.9c.2 0 .3 0 .5-.1h1v-.3s0-.2-.2-.2c-.1 0-.2 0-.3-.1-.3.1-.5.1-.8.2 0 .1 0 .1-.1.1h-.2c0 .1.1.4.1.4zm1.1.4c.1.1.2.1.3.2h.5c.2 0 .3-.1.5-.1l-.1-.1c-.1-.1-.3-.1-.4-.2h-.6c-.1 0-.3 0-.4.1-.1 0-.2-.1-.4-.1-.1 0-.2 0-.3.1-.1 0-.1 0-.2.1.1 0 .2.1.3.1.1-.2.6-.1.8-.1z"/><path fill="#FFF" d="M63.7 29.7c.2 0 .5.1.7.1.1 0 .2-.1.3-.1.2 0 .3 0 .5-.1v.3c.2 0 .4.1.6.1h.3c.1 0 .1 0 .2.1.2.1.4.1.7.2.2.1.3.2.5.2.3.1.6.1.9.2.1-.1.3-.1.4-.2 0 .1.1.2.1.2.6.1 1.1.3 1.7.4l.2-.2c.2 0 .4-.1.6-.1.1 0 .1-.1.2-.1l-.5-.5h-.5c-.1-.1-.1-.2-.2-.3-.2 0-.3-.1-.5-.1-.3-.1-.5-.1-.8-.2-.2 0-.4-.1-.7-.1-.4-.1-.8-.1-1.3-.2h-1s-.6-.4-.5-.4c0-.1-.3-.1-.5-.2-.2 0-.4-.2-.4-.2h.8c-.1-.1-.3-.2-.4-.4-.2-.1-.3-.2-.5-.4-.3 0-.6 0-.9-.1 0-.1-.1-.2-.1-.3-.2-.1-.4-.1-.6-.2-.2-.1-.4-.2-.7-.3-.2 0-.3 0-.5.1v.4c0 .1.1.1.1.2.2.1.4.1.6.2.1.1.2.1.2.2.1 0 .2-.1.3-.1.1 0 .1 0 .2.1s.3.1.4.2c.1.2.1.3.2.5l-.4.4c-.2.1-.3.3-.5.4v.2h.5c.2.1.2.1.3.1z"/><path fill="#FFF" d="M65.8 25.9h-.7l.2.2c.2 0 .3.1.5.1.1 0 .3-.1.4-.1.2 0 .3.1.5.1h-.9c0 .1-.1.1-.1.2-.1.1-.1.2-.2.3.1.1.1.2.2.3h1l.2.2h.6c.1-.1.3-.1.4-.2.2 0 .3.1.5.1 0-.1.1-.1.1-.2.1 0 .3 0 .7.1 1.6.2-.7-.1.5 0 1.1.2-.1-.1.5.1l.6.1.3-.3c.1-.1.1-.1.2-.1.1.1.1.3.2.4.2 0 .3.1.5.1 0 0-.6-.1-.5 0 .1.1.5.3.5.3.2.1.4.1.6.2 0 0-.6.2-.5.1 0-.1-.5-.2-.5-.2-.2 0-.5-.1-.7-.1-.2-.1-.4-.1-.5-.2h-.8c-.2 0-.4 0-.5-.1-.1.1-.3.2-.4.3.2 0 .4.1.6.1.2 0 .4 0 .6.1 0 0 0 .2.1.1.2 0 1-.1 1-.1l-.3.3c0 .1 0 .1.1.2.2 0 .3.1.5.1h.5c-.1.1-.3.1-.4.2-.3 0-.5-.1-.8-.1-.1 0-.3-.1-.4-.1v-.2c-.1-.1-.3-.1-.4-.2l-.1-.1c-.3 0-.5-.1-.8-.1-.2 0-.3-.1-.5-.1 0 0-.1.3 0 .3s.2.2.2.2c-.1 0-.3.1-.4.1-.2-.1-.4-.1-.5-.2h-1v.4h.4s-.2.2.1.2c.2.1.7.1.7.1l.1-.1.6.3c.2.1.3.1.5.2.2 0 .4.1.5.1.1-.1.2-.2.3-.2.1 0 .2.1.4.1 0 0 .3-.2.3-.1s-.2.2 0 .3c.2 0 .7.1.7.1.1.1.3.1.4.2.1-.1.2-.1.3-.2.1.1.2.2.2.3h.4c-.1.1-.1.2-.2.3l-.2.2c.2 0 .3-.1.5-.1.3-.1.6-.1.8-.2 0 .1.1.1.1.2.3 0 .5-.1.8-.1 0 0 0-.1.1-.1-.1 0-.2-.1-.2-.1v-.2c-.1-.1-.3-.2-.4-.2.2 0 .3 0 .5.1.2 0 .5.1.7.1 0-.1.1-.2.1-.3.2 0 .4 0 .6.1.1.1.2.2.3.2h.7c0-.1 0-.2-.1-.2.2 0 .4.1.6.1.1 0 .2-.1.3-.1l-.2-.1c.1.1.5.2.5.2.1 0 .3-.1.4-.1 0 0 .1-.1-.1-.2h-.4c0-.1-.1-.1-.1-.2 0 0-.4-.1-.6-.1-.2 0-.9 0-1-.1H76c.1-.1.2-.1.4-.2-.2-.1-.3-.2-.5-.3.2 0 .3 0 .5.1.1.1.2.2.4.3.2 0 .4.1.7.1l.1-.1s-.3-.1-.1-.1c.2 0 .5.2.5.2.1 0 .1-.1.2-.1-.3-.1-.5-.2-.8-.3.2.1.4.1.7.2.3.1.6.1.8.2.2 0 .4.1.6.1.2 0 .5 0 .7.1h1.1c0-.1-.1-.1-.1-.2.1 0 .2.1.4.1.1 0 .3.1.4.1.2-.1.4-.1.5-.2 0 0 0 .1.1.1h.5c.2 0 .4-.1.7-.1h.7s.5.2.7.2c.2 0 1 .1 1 .1h.7c.1 0 .3-.1.4-.1-.3-.1-.6-.1-.8-.2-.3 0-.6-.1-.9-.1H87c.2.1.4.1.6.2.2 0 .4-.1.6-.1h1.1c.1 0 .1-.1.2-.1-.2-.1-.4-.1-.7-.2-.1-.1-.3-.1-.4-.2 0-.1 0-.1-.1-.2-.2-.1-.4-.1-.5-.2-.2-.1-.3-.1-.5-.2 0 0-.4-.2-.5-.2-.1 0-.6-.1-.6-.1-.2.1-.4.1-.6.2h-1.1c-.2 0-.4-.1-.6-.1h1.5c.2 0 .3 0 .5-.1-.1 0-.1-.1-.2-.1-.2 0-.3-.1-.5-.1h-.6c-.2-.1-.4-.1-.6-.2-.2-.1-.4-.2-.6-.2-.2 0-.4-.1-.6-.1 0 0-.4 0-.3.1.2.1.1.2.1.2-.2-.1-.3-.1-.5-.2h-.7c0 .1-.5-.2-.5-.2-.2 0-.5-.1-.7-.1-.2 0-.4-.1-.5-.1-.2 0-.5 0-.7-.1.1.1.2.1.2.2-.1.1-.1.2-.2.3-.1-.1-.1-.2-.2-.2l-.2-.2h-.5c-.1 0-.3-.1-.4-.1v-.1c-.1.1-.2.1-.3.2-.1 0-.2 0-.3-.1-.1 0-.1-.1-.2-.1h-.2c.1.1.2.2.4.3-.2-.1-.4-.1-.5-.2-.2-.1-.3-.1-.5-.2-.1-.1-.2-.1-.3-.2l-.2.2c.1.1.1.2.2.3-.1-.1-.3-.1-.4-.2-.1.1-.2.1-.2.2-.1-.1-.2-.2-.2-.3 0-.1 0-.1-.1-.2-.3-.1-.6-.1-.9-.2v-.2c-.2 0-.4 0-.5-.1 0 .1-.1.1-.1.2-.3-.1-.5-.1-.8-.2-.1.1-.1.2-.2.3h1.1c.2.1.4.1.6.2-.2 0-.4 0-.6.1 0 0-.3.2-.3.1v-.1c-.1-.1-.2-.1-.3-.2h-.4c-.2-.1-.3-.1-.5-.2-.1-.1-.1-.2-.2-.2-.3 0-.5-.1-.8-.1-.2.1-.4.1-.5.2-.1 0-.1-.1-.2-.1-.2 0-.4.1-.6.1h.1s-.7.1-.5.1h1c-.1 0-.9.1-.9.1v.1h.6c-.1 0-.3.1-.4.1.2 0 .4.1.6.1.4.1.7.1 1.1.2l.2.2s.5-.2.5-.1v.2c.4 0 .7.1 1.1.1.1 0 .2-.1.3-.1 0 .1.1.1.1.2.8.1 1.6.2 2.5.4 0 0 .5.1.7.1H78c.1 0 .9.2.9.2h-.7c.1.1.2.1.3.2-1.5-.7-2-.7-2.5-.8.1.1.2.1.4.2-.2 0-.5 0-.7.1-.1-.1-.3-.1-.4-.2-.6-.1-1.2-.1-1.7-.2-.1.1-.1.2-.2.3.2.1.3.1.5.2h-.4c-.2-.1-.3-.2-.5-.3 0-.1.1-.2.1-.3-.3-.1-.5-.1-.8-.2-.5-.1-.9-.1-1.4-.2-.1.1-.2.2-.4.2H70l.3-.3c0-.1-.1-.2-.1-.2-.2 0-.5-.1-.7-.1-.5-.1-.9-.2-1.4-.3-.1-.1-.3-.2-.4-.2.1 0 .2-.1.3-.1 0-.1-.1-.1-.1-.2l-1.8.3c0 .1.1.1.1.1-.1 0-.2.1-.3.1-.2 0-.3 0-.5-.1-.1 0-.3.1-.4.1.1.1.1.2.1.2.2 0 .4.1.7.1zm10.7 3.2zm-8.2-2.2h.3c0 .1-.2 0-.3 0z"/><path fill="#FFF" d="M65.9 27.5c.1.1.2.1.4.2.1 0 .2-.1.2-.1v-.2s-.2-.2-.3-.1c-.1.1-.6.1-.5.2h.2zm-.1.4h-.3l-.1.1c0 .1-.1.2-.1.2h.4c0-.1 0-.2.1-.3zm21.6 26.2c.3.1.6.3.9.4 0 0 .1.8.3.8.2 0 .9-.4.9-.4-.1-.3-.1-.5-.2-.8.3-.2.7-.5 1-.7.4-.3.8-.6 1.2-1 0 0 1.3-.3 1.3-.5 0-.1.7-.9.7-.9-.1-.2-.1-.4-.2-.7.2 0 .5-.1.7-.1 0 0 .1-.2.4-.2.2.1 1.5.4 1.5.4.1.2.2.5.3.7l.9-.3c.1.1.2.2.2.3.5-.3.9-.6 1.3-.9h2c.1-.4.3-.8.4-1.1.2.3.4.5.6.8h1.1c.7.2 1.3.4 2 .5.3-.1.7-.2 1-.3.2.1.4.1.5.2.2-.1.4-.1.6-.2l1.2.3c.5-.2 1-.3 1.5-.5 0 0-1.1-.9-1.2-.8-.1.1-1-.1-1.2-.1-.2.1-1-.5-1-.5.4 0 .9-.1 1.3-.1.1-.2.3-.4.4-.6l.9.3s.2.9.3 1c.1.1 1.3.9 1.3.9s0-.7.1-.8c.1-.1.1-.9-.1-1-.1-.1-.3-.9-.3-.9.2.3.4.5.6.8.2-.2.3-.4.5-.6-.1-.2-.1-.4-.2-.7.2-.1.3-.1.5-.2h1.1c0-.1-.1-.2-.1-.3-.2-.2-.4-.4-.7-.5h.9c.2.2.5.4.7.6.2-.1.4-.2.7-.3l-.9-.6s0-.7.2-.6c.1.1.5.3.5.3.1-.2.1-.4.2-.6v-1s-.5-.4-.3-.5c.2 0 1.1.4 1.1.4.2.2.4.4.6.5 0-.3.1-.7.1-1 0 0-.7-.5-.9-.5-.2-.1.2-.3.2-.3s.3-.3.1-.3c-.1-.1-.3-.4-.1-.4.2 0 1-.2 1-.2.1-.2.2-.4.3-.5.3.1.6.2.8.3l.6-.3c-.4-.3-.8-.5-1.2-.8 0 0-.9 0-.8-.1.1-.1.3-.5.4-.4.1.1 1.5.8 1.5.8.3.1.6.3.8.4.2-.1.5-.2.7-.3-.4-.2-.8-.5-1.2-.7.5.1.9.2 1.4.4.3.1.6.2.8.3h1.4c0-.1.1-.2.1-.4l-1.2-.6s-1.1-.7-1.2-.7c-.2 0-1-.3-1-.3-.3 0-.6.1-.9.1 0 0-.4-.5-.6-.5-.2-.1-.9-.1-1-.1h-1.2c-.4-.1-.8-.3-1.2-.4h1.8l.6-.3s-.6-.4-.8-.4c-.2 0-.8-.1-.8-.1-.1.1-.2.2-.2.3-.5-.2-1.1-.4-1.6-.6.1-.1.2-.3.3-.4-.7-.2-1.3-.4-2-.6-.3-.1-.5-.2-.8-.3-.4-.1-.8-.1-1.3-.2-.4-.1-.8-.1-1.3-.2.1 0 .2-.1.3-.1.3.1.7.1 1 .2.4 0 .7 0 1.1.1.3.2.7.3 1 .5.9.3 1.8.6 2.7 1 .2.1.5.2.7.3.3.1.7.1 1 .2l.6.3h1.3c-.2-.2-.4-.4-.6-.5l-.9-.3c-.1-.1-.2-.3-.3-.4-.3-.1-.6-.1-.8-.2-.2 0-.5-.1-.7-.1.3 0 .6 0 .8-.1-.1-.1-.2-.3-.2-.4-.2-.1-.4-.1-.6-.2h-.6l-.6-.3h1c-.9-.4-1.8-.7-2.7-1.1 0 0-1.9-.8-2-.8-.2 0-2.9-.9-2.9-.9-.4-.1-.7-.2-1.1-.2-.3.1-.7.1-1 .2h-1.1c0-.1-.1-.3-.1-.4-.3-.1-.6-.2-.8-.3-.2 0-.5 0-.7-.1l-.4.4c-.4-.1-.7-.1-1.1-.2-.3-.2-.7-.3-1.2-.3l.3.6.6.6s.1 0 .1.1c.3.2.6.3 1 .5-.6-.1-1.2-.2-1.8-.2-.2-.2-.3-.4-.5-.6 0 0-.2-.8-.5-1-.3-.1-1.2-.5-1.2-.5l-.3.6c-.1.1-.3.1-.4.2 0 0 0 .5-.1.4-.1-.1-1.5-.9-1.5-.9-.2.1-.5.1-.7.2v-.6c0-.1-.1-.3-.1-.4-.7-.1-1.3-.2-2-.3-.7-.1-1.5-.3-2.2-.4-.1.1-.1.3-.2.4-.1-.2-.2-.3-.2-.5h-.7l-.4.4c-.2-.1-.4-.1-.5-.2-1-.1-1.9-.1-2.9-.1-.2 0-.3-.1-.5-.1-.1 0-.1.1-.2.1s-.1.1-.2.1c.1 0 .1.1.2.1.2 0 .4 0 .5.1 0 .1.1.2.1.3.1 0 .3.1.4.1.1 0 .2-.1.3-.1.2.1.4.1.6.2l-.3.3h-.3c-.1.1-.1.2-.2.2h-.8c-.3 0-.6-.1-.9-.1-.2-.1-.4-.1-.6-.2h-.8c-.3 0-.7-.1-1-.1-.4-.1-.7-.1-1.1-.2-.1 0-.3 0-.4-.1-.2 0-.4.1-.6.1.1.1.2.2.3.4l.3.3c.1.1.2.1.2.2.1.1.2.2.4.2s.4.1.5.1l.3-.3.2.2s-.2.3-.1.2c.2 0 1.3.2 1.3.2.2.1.4.2.6.2 0 .1-.1.2-.1.2-.1 0-.2-.1-.4-.1l-.2-.2c-.3-.1-.7-.1-1-.1-.2 0-.4-.1-.7-.1h-.9c.1.1.2.1.3.2-.2 0-.4-.1-.5-.1-.1-.1-.2-.2-.2-.3h-.5c.1.1.1.2.2.3.1.1.1.2.2.3 0 .1.1.1.1.2.2 0 .3.1.5.1-.1.1-.2.1-.3.2.1.1.1.2.2.3.2 0 .5.1.7.1.1.1.3.2.4.3l.3-.6c.1 0 .2.1.3.1v.3c.2-.1.3-.2.5-.3l.6.3c0 .1 0 .2-.1.3.3 0 .5 0 .8-.1.3 0 .6.1.9.1.1.1.2.2.2.3h.6c.1 0 .2 0 .2.1.3.2.6.4 1 .6.2.2.3.4.5.6.2.1.5.1.7.2 0 .2.1.3.1.5.2.2.4.3.5.5.1.2.3.5.4.7-.2.1-.3.1-.5.2.1.2.2.3.3.5 0 0 .1.8.2.9.1.1-.1.4-.1.4-.2-.1-.5-.1-.7-.2l-.3.6s-.5.4-.3.5c.1 0 .6.3.6.3.2-.1.3-.2.5-.3 0 0 .3.5.4.5.1 0 1 .6 1 .6.3.2.7.4 1 .6-.3.2-.6.4-.8.6-.2-.1-.4-.1-.6-.2-.2-.2-.5-.4-.7-.5-.3-.1-.5-.2-.8-.4-.2-.1-.4-.1-.6-.2 0 .2.1.3.1.5 0 0 .4.3.2.2-.1-.1-.6-.2-.6-.2-.1.1-.2.3-.3.4 0 0-.8.2-.6.3.2.1.6.4.6.4s-.5 0-.3.1c.1.1.8.6.8.6.4 0 .7 0 1.1-.1 0-.1.1-.2.1-.2-.1-.3-.1-.7-.2-1 0 0-.2-.4-.1-.3.1.1.6.8.6.8.2.1.3.1.5.2s.4.2.7.4c-.2.1-.3.3-.5.4 0 .2.1.4.1.6-.2 0-.4-.1-.6-.1-.1.2-.2.5-.3.7-.4-.1-.7-.2-1.1-.3h-.7s-.2.2-.4.3c-.2.1-.9.2-.6.4.2.2.7.3.5.5-.2.1-.8.5-.8.5s0 .4.1.5c.1.1.3.6.3.6s-.4.4-.1.4c.2 0 .5.4.5.4s-.6.3-.4.4c.2.1 1 .3 1 .3-.3.1-.7.3-1 .4.1.3.1.5.2.8 0 0-.1 1 .1 1 .1.1.9.5.9.6 0 .1.1 1.2.1 1.2l.3.9c.4-.1.8-.1 1.2-.2-.1.6 0 .9 0 1.2zm22 4.7c.2.1.4.1.5.2.5.1 1.1.3 1.6.4 0 0 1 0 1.3.1.3.1-.2-.8-.2-.8l.3-.9c-.2-.4-.4-.7-.6-1.1-.2 0-.5.1-.7.1-.4-.1-.9-.2-1.3-.3-.4-.2-.7-.4-1.1-.6-.2.1-.5.2-.7.2l-.6-.3c-.1-.3-.1-.7-.2-1-.1-.1-.3-.2-.4-.3v.5h-.7c-.3.1-.6.3-.9.4.3.1.6.1.9.2.3 0 .6 0 .9-.1-.2.2-.5.3-.7.5-.3.1-.6.1-.9.2.3.3.7.6 1 .9-.3 0-.7.1-1 .1.5.3 1 .5 1.5.8v.6c.4.2.9.5 1.3.7.3-.2.5-.4.7-.5zm2.8 15.7c-.1-.1-.1-.3-.2-.4 0 0 .8-.3 1.2-.6l-.3-.6c0-.1 0-.2.1-.3-.2-.2-.5-.4-.7-.6 0 .1 0 .2-.1.3-.3.2-.5.4-.8.7-.3-.2-.5-.4-.8-.5-.1.2-.2.4-.2.6l-.9.3c.2.2.5.4.7.6-.1.2-.2.5-.3.7-.4.1-.7.1-1.1.2l.3.6.5.5c.4-.1.8-.1 1.2-.2.4-.1.7-.2 1.1-.3 0-.4.1-.7.3-1z"/><path fill="#FFF" d="M116.8 77c.1-.1.3-.2.4-.2-.1-.2-.3-.4-.4-.5 0-.3 0-.6.1-.9-.1-.3-.2-.7-.4-1-.1-.3-.1-.6-.2-.9-.1-.2-.3-.5-.4-.7.2-.1.3-.2.5-.3.1-.2.3-.4.4-.6.1-.2.3-.4.4-.6-.2-.2-.4-.3-.6-.5-.2-.2-.4-.3-.5-.5.2-.1.5-.2.7-.3v-.7c-.3 0-.7-.1-1-.1-.3.3-.6.5-.8.8 0 0 0 .5-.3.4-.1-.2-.3-.4-.4-.6 0 0 0 .7.1 1.2.1.2.1.4.2.6h-.5c.2.1.4.3.6.4-.1.2-.2.3-.3.5-.1.3-.2.7-.3 1h.7c.1.2.3.4.4.5-.1.1-.2.2-.4.3.1.2.2.3.4.5 0 .2-.1.5-.1.7-.2.1-.5.2-.7.3-.1-.2-.2-.3-.3-.5-.2-.1-.4-.1-.6-.2.1.2.2.4.3.7-.2 0-.5.1-.7.1.2.1.3.2.5.3-.1.1-.1.3-.2.4-.2 0-.5-.1-.7-.1 0 .1-.1.3-.1.4.2.1.4.3.7.4.2.1.4.1.6.2.1.1.3.1.4.2l-.5.5c-.3-.2-.7-.5-1-.7-.5.2-1 .5-1.6.7v.6c.3-.1.7-.2 1-.3.3.1.6.3.9.4.2 0 .4-.1.6-.1.2.1.4.3.7.4l.9-.3c.2.1.5.2.7.3.3 0 .5.1.8.1v-.4c.3 0 .6 0 .9.1.1-.3.2-.6.2-.9l-.4-.4c-.4-.4-.6-.5-.7-.7zm-2-8.1-.3-.6-.5.5c.1.1.2.3.3.4.2-.1.4-.2.5-.3zm4.2-.6c-.2.2 0 .7 0 .7.2 0 .3-.1.5-.1-.1-.3-.1-.6-.2-.8-.1 0-.2.1-.3.2zm-6.3 23.2c0 .1-.1.2-.1.3-.1.1-.2.3-.4.4-.1.1-.2.2-.2.3.2-.1.5-.1.7-.2.3-.2 0-.8 0-.8zm5 0c.1-.3.3-.7.4-1-.2.1-.3.2-.5.3-.2.1-.4.1-.6.2-.1.2-.2.4-.3.7 0 .1-.1.2-.1.3.1.1.2.2.4.2.3-.2.5-.5.7-.7zm-3.7.9h-.6c.1.1.3.2.4.4.1-.1.1-.3.2-.4zm-3-.5-.3.3s.4 0 .7-.2c-.2 0-.3 0-.4-.1zm5.6 2.2c.2-.2.3-.5.5-.7 0 0 1.3-1 .1-.7-1.2.3-.2-.5-.7-.1l-.5.4c0 .3 0 .6-.1.8-.1.2-.2.5-.3.7.2 0 .3 0 .5.1l.5-.5zm.9 2.7c.1.3.1.6.2.9.3.3.5.7.8 1 .2-.3.4-.5.5-.8.1-.2.1-.4.2-.6-.2-.1-.5-.2-.7-.3-.2-.2-.5-.3-.7-.5l-.3.3zm6.6 6.8c.1.1.6-.2.6-.2-.1-.1-.2-.3-.4-.4-.2-.1-.3-.2-.5-.2l-.4-.4c-.2 0-.3-.1-.5-.1.2.2.3.5.5.7 0-.1.6.5.7.6zm4.7 1.9c.2-.2.4-.3.6-.5-.2-.1-.5-.1-.7-.2-.3.1-.6.1-.8.2.1.2.3.4.4.6.1 0 .3 0 .5-.1zm-4-28c0 .3.1.8.1.8.1.2.3.3.4.5.1-.1.2-.2.3-.4.1-.3.2-.5.3-.8-.3-.1-1.1-.1-1.1-.1zm6.4.5c-.1-.1-.2-.1-.3-.2-.2.1-.5.2-.7.3 0 .2-.1.4-.1.5.2 0 .3-.1.5-.1.2-.1.4-.3.6-.5zm2.5.1c-.1 0-.2.1-.3.1-.2-.1-.3-.1-.5-.2 0 .2-.1.4-.1.5.2 0 .4.1.6.1.1-.1.2-.3.3-.5zm.8-13.2c.1-.1.2-.3.3-.4-.2-.1-.4-.3-.6-.4-.2.1-.3.3-.5.4 0 .1.1.3.1.4h.7zm1.3-1.1-.6.3.6.3c.1-.1.2-.2.2-.3-.1-.1-.1-.2-.2-.3zm1.6-.1-.4-.4c-.1.1-.2.2-.4.2.1.1.6.2.8.2zm1.9.3c0-.2.1-.3.1-.5-.2 0-.4-.1-.6-.1-.1.1-.2.1-.3.2l.3.3c.1 0 .3.1.5.1zM114 141c-.2.1-.4.1-.6.2-.2.1-.3.1-.5.2-.1 0-.2.1-.3.1-.2 0-.4-.1-.5-.1-.2 0-.4.1-.6.1-.3.1-.5.1-.8.2-.1 0-.3.1-.4.1l-.4.4c0 .1 0 .3.1.4-.2 0-.3.1-.5.1-.3.1-.5.2-.8.3-.3.2-.6.3-.9.5v.4c-.1.2-.2.3-.3.5.1.1.1.2.2.3h.8c.3-.1.7-.2 1.1-.3.4-.2.8-.4 1.3-.7.3-.1.5-.2.8-.3l1.2-.6.6-.3.5-.5c.1-.1-.1.3-.1.3.2-.1.4-.1.5-.2 0 0 .3-.5.4-.6 0-.1.4-.6.4-.6-.1-.1-.2-.1-.3-.2-.4 0-.7.2-.9.3z"/><g fill="none" stroke="#B64E96" stroke-linejoin="round" stroke-miterlimit="10" stroke-width=".5" clip-rule="evenodd"><path d="m115.3 117 19.6 64.2 57.9-33.6-8.5-23.3-47.6-18.7z"/><path d="m115.2 117 21.9 8.6-2.2 55.6zm77.6 30.6-21.7-8.6-36.2 42.2zm-31.9-32.5-23.8 10.5 34 13.4z"/><path d="m136.7 105.6.4 20-21.9-8.6zm47.6 18.7L171 139l21.8 8.6z"/></g></svg>