<svg xmlns="http://www.w3.org/2000/svg" viewBox="0 0 580.9 326.6"><path fill-rule="evenodd" clip-rule="evenodd" fill="#100220" d="M115.4 215v10.8c.1 29.1.1 55.9.1 74.4 0 11.9.4 21-.7 23.1-5 7.4-11.3.5-11.2-1.9 1-27.4 2.4-66.5 3.8-105.2-24.9 3.6-48.3 7.7-68.1 11.8-17 3.5-30.8 7.2-39.2 9.6v-.4c16.8-5.7 56.5-18.4 107.6-29.7 2.4-64.3 5-124.8 6.5-124.9 1.6.1 1.2 61.8 1.2 123.2 47.2-10.1 103.4-18.6 159.9-19.6 66.5-3.1 125.2 5 167.2 13.7C437.7 104 432.7.3 434.8 0c2-.1 9.3 98.8 16.7 186 .5 5.4.9 10.8 1.4 16.1 35 7.9 55.8 15.6 55.8 15.6s-15-34.2-22.1-52.3C475 136 455.9 76.5 455.9 76.5s21.2 53 33.4 77.7c14.2 29 47.7 85.7 47.7 85.7s-36.8-9.6-82.3-17.7c2 23.5 3.7 44.5 5 60.6 1.3 15.5 3.1 36.1 2.1 38.9-4.9 10.2-12.8 1.9-13-1.2-1.2-24.8-3.3-65.9-5-100.2-55.8-9.7-124.2-19.8-165.6-19.3-46.4.5-107.8 6.2-162.8 14zm237.9-100.5c-31 18.4-71.6 30.3-86.7 32.5-110.4 21.5-137.7-20.8-137.7-20.8s19.4 52.9 140.5 28.1c106.6-22.8 150-92.2 150-92.2s-27.9 29.7-66.1 52.4z"/><linearGradient id="header-logo-svg" gradientUnits="userSpaceOnUse" x1="268.593" y1="192.222" x2="509.479" y2="397.896"><stop offset="0" stop-color="#b64e96"/><stop offset=".129" stop-color="#a24fa2"/><stop offset=".352" stop-color="#8550b4"/><stop offset=".574" stop-color="#7051c0"/><stop offset=".791" stop-color="#6352c7"/><stop offset="1" stop-color="#5f52ca"/></linearGradient><path fill-rule="evenodd" clip-rule="evenodd" fill="url(#header-logo-svg)" d="M456.5 78.1s33 62.1 68.3 118.7c18.8 29.5 56.2 76.6 56.2 76.6s-148.4-59.2-281.1-61.8C155 205.9 31.5 229.5.1 237.5l-.1-.1c37.9-11.1 71.3-17.1 139-28.1 54.1-8.8 118.3-14.5 176.5-12.5 95.3 2.2 219.6 42.3 219.6 42.3s-16.8-27.5-40-72.6c-19.5-38.3-38.6-88.4-38.6-88.4z"/></svg>