<svg xmlns="http://www.w3.org/2000/svg" viewBox="0 0 214.3 195"><g fill="none" stroke="#5F52CA" stroke-width=".5" stroke-miterlimit="10"><path d="M141.6 152.4h-28l4.8-10.2 1.9-4.3s5.2 2.6 7.4 3.3c2.7-1 7.4-3.3 7.4-3.3l1.8 4.2 4.7 10.3zM159.4 152.4H95.9c-3.5 0-6.4 2.9-6.4 6.4v20.7h76v-20.7c.3-3.5-2.6-6.4-6.1-6.4zM145.5 131.6c3.8-.9 7.6-2.1 11.1-3.7 27.7-11.4 47.4-38.8 47.4-70.6v-13h-26.7V57H191v.3h.3c0 15.3-5.4 29.3-14.6 40.4-2.8 3.3-5.8 6.3-9.2 9m-79.3.4c-3.5-2.8-6.6-5.9-9.5-9.4-8.9-10.8-14.6-25.1-14.6-40.4V57h14V44.3H51.3v13c0 31.8 19.7 59.1 47.4 70.6 3.7 1.6 7.5 2.8 11.4 3.7M177.3 26.8H78.1c-2.2 0-3.8 1.9-3.8 3.8 0 2.2 1.6 4.1 3.8 4.1h99.2c2.2 0 3.8-1.9 3.8-3.8 0-2.1-1.6-4.1-3.8-4.1z"/><path d="M78.1 34.8v34c0 32.1 19.7 60.7 49.6 72.5 29.9-11.4 49.6-40.4 49.6-72.2V34.8H78.1zm60.4 47.4l6.4 20.3-17.2-12.7-17.2 12.7 6.4-20.3-17.2-12.7H121l6.7-20.3 6.7 20.3h21.3l-17.2 12.7z"/></g><path fill="none" stroke="#5F52CA" stroke-width=".5" stroke-miterlimit="10" d="M199 162.3c-.4-.1-8.9-2.6-8.9-10v-9.7c0-.8-.5-1.4-1.2-1.7-.2-.1-5-1.5-8.4 1-2.2 1.6-3.3 4.3-3.3 8.1v8.3h-11.6c-4.5 0-8.1 3.6-8.1 8.1v.3l3.2 20.2c.6 5 4.1 7.8 9.5 7.8h23.7c2.2 0 3.6-1.2 5.1-2.7.6.6 2 1.2 2.9 1.2h8.4c1.9 0 3.5-1.5 3.5-3.5v-25.5c0-1.9-1.5-3.5-3.5-3.5h-8.4c-1.2.3-2.9 1.7-2.9 1.6zm2.9 27.6v-25.4h8.3v25.4h-8.3zM199 162.3V192M39.8 18H3.5c-1.6 0-3-1.4-3-3V3.6c0-1.7 1.4-3 3-3h36.3c1.6 0 3 1.4 3 3V15c0 1.7-1.4 3-3 3zM84.9 18H48.7c-1.6 0-3-1.4-3-3V3.6c0-1.7 1.4-3 3-3H85c1.6 0 3 1.4 3 3V15c-.1 1.7-1.4 3-3.1 3zM60.9 37.7H24.6c-1.6 0-3-1.4-3-3V23.2c0-1.6 1.4-3 3-3h36.3c1.7 0 3 1.4 3 3v11.5c0 1.6-1.3 3-3 3zM106.1 37.7H69.8c-1.6 0-3-1.4-3-3V23.2c0-1.6 1.4-3 3-3h36.3c1.7 0 3 1.4 3 3v11.5c0 1.6-1.4 3-3 3z"/><path fill="none" stroke="#5F52CA" stroke-width=".5" stroke-miterlimit="10" d="M39.8 18H3.5c-1.6 0-3-1.4-3-3V3.6c0-1.7 1.4-3 3-3h36.3c1.6 0 3 1.4 3 3V15c0 1.7-1.4 3-3 3zM84.9 18H48.7c-1.6 0-3-1.4-3-3V3.6c0-1.7 1.4-3 3-3H85c1.6 0 3 1.4 3 3V15c-.1 1.7-1.4 3-3.1 3zM60.9 37.7H24.6c-1.6 0-3-1.4-3-3V23.2c0-1.6 1.4-3 3-3h36.3c1.7 0 3 1.4 3 3v11.5c0 1.6-1.3 3-3 3zM106.1 37.7H69.8c-1.6 0-3-1.4-3-3V23.2c0-1.6 1.4-3 3-3h36.3c1.7 0 3 1.4 3 3v11.5c0 1.6-1.4 3-3 3z"/><path fill="none" stroke="#5F52CA" stroke-width=".5" stroke-miterlimit="10" d="M39.8 18H3.5c-1.6 0-3-1.4-3-3V3.6c0-1.7 1.4-3 3-3h36.3c1.6 0 3 1.4 3 3V15c0 1.7-1.4 3-3 3zM84.9 18H48.7c-1.6 0-3-1.4-3-3V3.6c0-1.7 1.4-3 3-3H85c1.6 0 3 1.4 3 3V15c-.1 1.7-1.4 3-3.1 3zM60.9 37.7H24.6c-1.6 0-3-1.4-3-3V23.2c0-1.6 1.4-3 3-3h36.3c1.7 0 3 1.4 3 3v11.5c0 1.6-1.3 3-3 3zM106.1 37.7H69.8c-1.6 0-3-1.4-3-3V23.2c0-1.6 1.4-3 3-3h36.3c1.7 0 3 1.4 3 3v11.5c0 1.6-1.4 3-3 3z"/></svg>