<svg xmlns="http://www.w3.org/2000/svg" viewBox="-1888.7 2054.2 192.9 154.8"><g clip-rule="evenodd" fill="none" stroke="#B64E96" stroke-width=".5" stroke-linejoin="round" stroke-miterlimit="10"><path d="M-1773.5 2144.4l19.5 64.3 58-33.7-8.5-23.2-47.7-18.7z"/><path d="M-1773.7 2144.5l21.9 8.6-2.2 55.6zM-1696 2175l-21.8-8.6-36.2 42.3zM-1728 2142.5l-23.8 10.6 34 13.3z"/><path d="M-1752.2 2133l.4 20.1-21.9-8.6zM-1704.6 2151.7l-13.2 14.8 21.8 8.5z"/></g><g clip-rule="evenodd" fill="none" stroke="#B64E96" stroke-width=".5" stroke-linejoin="round" stroke-miterlimit="10"><path d="M-1888.3 2091.1l45.3 16.4 5.7-47.8-17.1-5.2-31.3 19.4z"/><path d="M-1888.4 2091.1l14.4-8.9 31 25.3zM-1837.3 2059.7l-14.3 8.7 8.6 39.1z"/><path d="M-1869.8 2064l-4.2 18.3 22.4-13.9zM-1885.7 2073.9l11.7 8.4-14.4 8.8z"/><path d="M-1854.4 2054.5l2.7 14 14.4-8.8z"/></g></svg>