<svg xmlns="http://www.w3.org/2000/svg" viewBox="0 0 293.3 165.4"><g fill="none" stroke="#5F52CA" stroke-width=".5" stroke-miterlimit="10"><path d="M256.1 142.8c0 2.1-1.7 3.7-3.7 3.7H118.2c-2.1 0-3.7-1.7-3.7-3.7V65.5c0-2.1 1.7-3.7 3.7-3.7h134.1c2.1 0 3.7 1.7 3.7 3.7v77.3z"/><path d="M120.2 67.8h130.5v72.7H120.2z"/><circle cx="185.3" cy="64.8" r="1.6"/><path d="M267.7 161.6c.3.4-2.4.6-4.8.6H107.7c-2.4 0-5-.3-4.8-.7l11.1-14.3c.3-.4 2.2-.7 4.2-.7h134.1c2.1 0 4 .3 4.2.7l11.2 14.4z"/><path d="M268 163.4c0 .9-1.7 1.7-3.8 1.7H106.4c-2.1 0-3.8-.7-3.8-1.7v-1.1c0-.9 1.7-1.7 3.8-1.7h157.8c2.1 0 3.8.7 3.8 1.7v1.1zM118.6 148.4l-1.3 1.8h136.6l-1.3-1.8zM116.8 151.2l-1.3 1.8H256l-1.4-1.8zM115.3 153.9l-1.3 1.8h143.7l-1.1-1.8z"/></g><g fill="none" stroke="#5F52CA" stroke-width=".5" stroke-miterlimit="10"><path d="M273.3 157.6c0 1.5 1.2 2.7 2.7 2.7h14.3c1.5 0 2.6-1.2 2.6-2.7v-31.9c0-1.5-1.2-2.7-2.6-2.7H276c-1.5 0-2.7 1.2-2.7 2.7v31.9z"/><circle cx="283.1" cy="156.9" r="1.6"/><circle cx="283.1" cy="156.9" r=".6"/><circle cx="283.1" cy="124.6" r=".4"/><path d="M275.7 127.7h15V154h-15z"/></g><g fill="none" stroke="#5F52CA" stroke-width=".5" stroke-miterlimit="10"><path d="M242.4 155.2c0 .8.7 1.5 1.5 1.5l40.6.1c.8 0 1.5-.7 1.5-1.5l.1-59.6c0-.8-.7-1.5-1.5-1.5L244 94c-.8 0-1.5.7-1.5 1.5l-.1 59.7z"/><path d="M245.4 98.2h37.8V148h-37.8z"/><circle cx="264.2" cy="152" r="2.9"/><circle cx="264.2" cy="152" r="1.2"/><circle cx="264.3" cy="96.3" r=".8"/></g><g fill="none" stroke="#5F52CA" stroke-width=".5" stroke-miterlimit="10"><path d="M118.9 127.9h-37s3.4 17.8-11.7 19.8h60.4c-14.6-2.4-11.7-19.8-11.7-19.8z"/><path d="M68.4 147.7h64v3.9h-64zM199.8 123.5c0 2.4-2 4.4-4.4 4.4H5.4c-2.4 0-4.4-2-4.4-4.4V4.9C1 2.5 3 .5 5.4.5h190c2.4 0 4.4 2 4.4 4.4v118.6z"/><path d="M5.4 5.2h189.4v102.9H5.4zM1 113.4v10.1c0 2.4 2 4.4 4.4 4.4h190c2.4 0 4.4-2 4.4-4.4v-10.1H1z"/></g></svg>