<svg xmlns="http://www.w3.org/2000/svg" viewBox="0 0 193.1 179"><g clip-rule="evenodd" fill="none" stroke="#5F52CA" stroke-width=".5" stroke-linejoin="round" stroke-miterlimit="10"><path d="M115.1 90.6l19.6 64.2 58-33.6-8.5-23.3-47.7-18.7z"/><path d="M115 90.6l21.9 8.6-2.2 55.6z"/><path d="M192.7 121.2l-21.8-8.6-36.2 42.2zM160.7 88.7l-23.8 10.5 34 13.4zM136.5 79.2l.4 20.1-21.9-8.7zM184.1 97.9l-13.2 14.7 21.8 8.6z"/></g><path fill="none" stroke="#5F52CA" stroke-width=".5" stroke-miterlimit="10" d="M75.6 158.3V156h-2.5v2.3c0 8-6.5 14.5-14.5 14.5l-22.7.1v5.9l76.4-.2v-5.9l-22.2.1c-8 0-14.5-6.5-14.5-14.5zM74.4 156c-11 0-21.6-2.5-31.3-7.4-9.3-4.7-17.7-11.5-24.1-19.7l5.6-4.4c12.1 15.5 30.2 24.3 49.8 24.3 34.8 0 63.2-28.3 63.2-63.2 0-34.8-28.3-63.2-63.2-63.2v-7.1c18.8 0 36.4 7.3 49.7 20.6 13.3 13.3 20.6 30.9 20.6 49.7 0 18.8-7.3 36.4-20.6 49.7-13.3 13.4-30.9 20.7-49.7 20.7z"/><g><g fill="none" stroke="#5F52CA" stroke-width=".5" stroke-miterlimit="10"><circle cx="74.4" cy="85.7" r="57.5"/><path d="M31.9 48c.1.1.1.2.2.4v-.8c0-.2.1-.5.1-.7v-.1l-.3.3v.1c0 .2-.1.3-.1.5-.1-.1-.2-.1-.3-.2l-.2.2.1.1c.3 0 .4.1.5.2zM60.8 29.9c-.1 0-.1 0-.2.1h.1s.1 0 .1-.1zM65.3 29.2c.1.1.2.1.3.2l1.2.3c.2 0 .4.1.6.1 0 .1.1.1.1.2 0 0-.2.2-.3.2h.4c.1-.1.2-.1.3-.2.4 0 .8.1 1.2.1.2.1.5.1.7.2 0 .1 0 .2-.1.3.1.1.3.2.4.3h.4c-.1-.1-.3-.1-.4-.2.1-.1.1-.2.2-.3.5 0 1 .1 1.5.1.1.1.2.1.3.2h.6c-.1-.1-.2-.1-.3-.2.4 0 .8.1 1.2.1-.1 0-.1-.1-.2-.1h.6s-.6-.1-.7-.2h-1.1c-.2 0-.6-.1-.6-.1l-2.1-.3c0-.1-.1-.1-.1-.2-.1 0-.1.1-.2.1-.3 0-.6-.1-.9-.1v-.2c0-.1-.5.1-.5.1l-.2-.2c-.3-.1-.6-.1-.9-.2-.2 0-.3-.1-.5-.1.1 0 .2-.1.4-.1h-.5v-.1s.6-.1.7-.1H66c-.2 0 .4-.1.4-.1h-.1c-.3 0-.5.1-.8.1 0 .1.1.1.1.2-.2.2-.3.2-.3.2zM65.8 30.5h.3c-.1.1-.2.1-.3 0zM63.7 29.4c.1 0 .1-.1.2-.1 0 0-.1 0-.1-.1-.2 0-.4.1-.5.1.2.1.3.1.4.1z"/><path d="M126.3 110c.1-.2.1-.3.2-.5-.4-.1-.8-.2-1.3-.2l-.2-.2c-.2 0-.3.1-.5.1 0-.1-.1-.2-.1-.4-.2-.1-.3-.1-.5-.2-.1-.1-.3-.1-.4-.2v-.5c.1-.2.1-.3.2-.5v-.5c-.1 0-.2.1-.3.1-.3 0-.6.1-.8.1-.1-.2-.3-.4-.4-.6v-1.9c.1-.1.1-.3.2-.4v-.6h-.2c-.1-.1-.1-.2-.2-.3h-.2c0-.1-.1-.2-.1-.3 0 .2-.1.3-.2.5 0-.1-.1-.1-.1-.2-.1.1-.2.3-.3.4 0 .4-.1.7-.1 1.1v.4c0 .1-.1.2-.1.3.1.2.1.4.2.6-.2.3-.3.6-.5.9h.3c.1-.1.2-.2.4-.3-.1.2-.2.5-.3.7-.1.1-.2.3-.3.4.1.1.1.2.2.3.1 0 .2 0 .3-.1l.3.3c.2-.1.4-.1.6-.2.2-.1.4-.3.7-.4l.3-.3h.2c-.1.2-.3.5-.4.7v.8s.1.3.2.3.2.4.2.4c0 .2-.1.3-.1.5v.3c-.4.3-.7.7-1.1 1-.2.1-.4.3-.6.4l-.3.6h-.7c-.1.1-.2.3-.3.4-.2 0-.3-.1-.5-.1l-.4.4c-.5 0-.9.1-1.4.1-.1.1-.2.3-.4.4-.4.1-.8.2-1.2.2l-.9.3h-.5c-.2 0-.4.1-.6.1-.2-.1-.3-.1-.5-.2-.1.1-.2.2-.4.3-.2-.1-.4-.1-.6-.2v-.3s.5-1.1.6-1.2c.1-.1.7-1.5.7-1.5v-.8c.1-.3.2-.7.3-1-.1-.3-.1-.7-.2-1 .1-.4.3-.8.4-1.2.2-.4.4-.7.6-1.1 0-.3 0-.7-.1-1 .1-.3.1-.6.2-.9 0-.6.1-1.3.1-1.9l-.3-.3c-.2 0-.3.1-.5.1 0 0 0-1.3.1-1.4 0 .1-.2 1.2-.2 1.2 0 .2-.1.5-.1.7-.1.4-.1.9-.2 1.3s-.1.8-.2 1.2c-.1.2-.2.5-.3.7.1.3.1.6.2.9l-.3.9c-.2.3-.4.7-.6 1 0 .4.1.8.1 1.2-.2.6-.4 1.1-.7 1.7.1.3.3.6.4.9 0 .4-.1.7-.1 1.1 0 .2.1.4.1.6-.1.1-.1.2-.2.4-.1.1-.2.1-.4.2.1.3.1.7.2 1h.7c0 .1.1.1.1.2.4-.1.8-.1 1.1-.2.1.1.3.1.4.2.3 0 .6-.1.9-.1-.3.4-.6.7-.8 1-.4.4-.9.7-1.3 1.1-.3.3-.7.6-1 .9l-1.2.9c-.1 0-.3 0-.4.1l-.3.3c-1 .4-2.1.7-3.1 1-.4.2-.8.5-1.2.7-.3.1-.6.1-.9.2-.3.2-.5.3-.8.5-.3.2-.6.5-.9.7v.5c-.2.1-.4.2-.6.4-.1.2-.3.4-.4.7 0 .1.1.3.1.4-.6.6-1.1 1.2-1.7 1.7-.3.1-.6.3-.8.4-.5.1-1 .1-1.5.2-.2 0-.3 0-.5-.1-.1.1-.3.1-.4.2-.3.1-.6.1-.8.2-.1.3-.3.5-.4.8l-.7.7h-.9c-.2 0-.5.1-.7.1v.1c-.4.2-.8.4-1.1.6h-.4c-.8.2-1.7.4-2.5.5H89c-.2 0-.4-.1-.6-.1-.3 0-.6-.1-1-.1h-.9c-.2-.1-.3-.1-.5-.2 0 0 .2-.3.2-.4l.5-.2c0-.2.1-.4.1-.6 0-.2.1-.4.1-.5l-.2-.2c0-.2.1-.3.1-.5.3-.4.7-.9 1-1.4v-.9c.1-.1.1-.3.2-.5-.1-.2-.2-.3-.3-.5.2-.2.3-.5.5-.8l1.2-.9c.3-.1.6-.3.8-.4l.4-.4c.1-.2.1-.5.2-.7.1-.1.2-.2.3-.4.1-.1.2-.1.3-.2 0 0 .3-1.7.4-1.8v-.9c-.2-.5-.4-1-.6-1.6l.7-.7c.4-.5.9-1 1.3-1.6 0-.3-.1-.7-.1-1-.5-.1-.9-.2-1.4-.3-.1-.2-.1-.4-.2-.6 0 0 .2-.2.3-.2.1-.1-.2-.7-.2-.7-.2-.2-.5-.3-.7-.5-.4 0-.9.1-1.3.1 0 0-1.2-.3-1.3-.3h-1.6l-.3-.3c-.3-.2-.6-.3-.9-.5-.5 0-1.1.1-1.6.1-.2-.4-.4-.8-.7-1.3-.2-.3-.4-.7-.5-1-.1-.3-.3-.7-.4-1.1 0-.7 0-1.4.1-2.2l-.3-1.5c-.1-.2-.2-.4-.4-.6.1-.6.2-1.3.3-1.9.3-.3.6-.6 1-.9.4-.6.7-1.2 1.1-1.7.1-.4.1-.7.2-1.1.1-.1.2-.3.3-.4 0-.2-.1-.5-.1-.7.1-.2.3-.4.4-.7.4-.3.7-.6 1.1-.8.6-.6 1.3-1.2 1.9-1.7.4-.2.9-.4 1.3-.6.6-.2 1.3-.4 1.9-.6.4-.3.7-.5 1.1-.8 0-.2.1-.4.1-.7.1-.3.3-.5.4-.8l.7-.7c.2-.1.5-.1.7-.2.5-.1.9-.2 1.4-.3l.9-.9c.2-.1.3-.2.5-.3.1 0 .1 0 .2.1v.4c.1.1.1.3.2.4.1 0 .2 0 .3.1.1.1.2.2.4.3h.5c0 .1.1.3.1.4h.5c.2-.1.3-.2.5-.3.2.1.4.1.6.2.4-.1.9-.2 1.3-.3.2.2.5.3.7.5.2 0 .3-.1.5-.1.5.2 1 .5 1.4.7.1 0 .3-.1.4-.1 0 .2 0 .3.1.5.1-.1.2-.1.3-.2.3.2.5.4.8.6.2 0 .5-.1.7-.1.1.2.2.3.3.5.1.1.3.1.4.2-.2.2-.5.4-.7.6v.4c-.1.2-.3.4-.4.6-.2.2-.4.4-.7.5.2.4.3.8.5 1.1.2.1.3.2.5.4.3.3.6.7.9 1 .1.4.1.8.2 1.2l1.5 1.2c.2-.1.4-.3.7-.4v-.6c.2-.1.4-.3.6-.4.3 0 .5-.1.7-.1l.6.6v.5c.3.2.6.3.9.5 0 .1-.1.2-.1.3.1 0 .2.1.4.1.1.2.2.3.3.5l.9.6c.2.1.3.3.5.4.1-.1.1-.2.2-.3.2 0 .5.1.7.1v.4c.2 0 .4 0 .6.1.3.1.6.1.8.2.5-.6 1.1-1.2 1.6-1.7.3-.6.6-1.2 1-1.8-.1 0-.2-.1-.2-.1l-.2-.2h-1.2c-.1-.2-.2-.3-.2-.5-.1-.2-.2-.3-.4-.5l-.4.4h-.4v-.7c-.1-.1-.3-.2-.4-.3-.1-.2-.1-.5-.2-.7 0-.2 0-.4-.1-.6 0-.2 0-.4.1-.6h.4c0-.2.1-.4.1-.6-.1-.1-.2-.2-.3-.2l.4-.4c.2 0 .4-.1.6-.1.2 0 .5.1.7.1.2 0 .3.1.5.1v-.4c.3.1.5.2.8.2.4-.1.7-.1 1.1-.2.2.1.4.2.5.3.2 0 .4.1.6.1 0 .2 0 .4.1.6.2.3.5.6.7.9.3.1.5.2.8.2l.3.3c.3-.1.6-.3.9-.4.1-.3.1-.5.2-.8l-.3-.6c-.1-.3-.2-.7-.3-1.1-.1-.3-.2-.6-.3-1V89c.3-.1.6-.2.9-.4v-.5s.9-.2 1-.2c.1 0-.9-.2-.9-.2-.4.1-.9.2-1.3.3 0 0-.5-.5-.5-.6 0-.1.2.7.2.7 0 .1-.1.2-.1.3.2.1.4.2.7.3-.1.1-.1.2-.2.3-.2-.1-.4-.1-.6-.2h-1.1c.1-.2.2-.3.3-.5-.1-.2-.2-.4-.3-.5.3 0 .5 0 .8-.1 0-.1-.1-.2-.1-.4h-.4c0-.2-.1-.5-.1-.7l-.6-.2c0-.1-.8.6-.8.6-.3.3-.5.6-.8.8-.2.2-.4.4-.6.7-.2.2-.4.4-.7.5 0 .2-.1.4-.1.6.1.2.1.4.2.7-.3 0-.6 0-.9.1-.3.1-.5.1-.8.2 0 0 .3-.1.3-.2s-.1-.4-.1-.4c-.3-.2-.7-.4-1-.5v.5c-.2 0-.4.1-.6.1 0-.2 0-.5-.1-.7-.1.2-.2.4-.3.7l.1 1.1c0 .8.1 1 .2 1-.1 0-.2-.1-.4-.1-.1-.1-.3-.1-.4-.2-.1.1-.1.3-.2.4-.2.1-.3.1-.5.2-.2-.1-.4-.2-.6-.4.1-.3.1-.6.2-.9h.4c.1.2.2.4.3.5 0-.2-.1-.3-.1-.5-.2-.1-.3-.2-.5-.4.1-.2.1-.3.1-.5 0-.4-.1-.7-.1-1.1 0-.3-.1-.6-.1-.8.1-.1.2-.2.3-.4.1-.2.2-.3.3-.5-.5-.9-1-1.8-1.6-2.7.1-.3.2-.7.3-1v-.5c-.2.1-.3.3-.5.4-.1 0-.3.1-.4.1.1-.2.1-.4.2-.6.1-.1.2-.2.3-.4-.3-.1-.5-.1-.8-.2 0 .2 0 .3-.1.5-.2.2-.3.4-.5.6.1.2.3.5.4.7.1.6.1 1.2.1 1.8.2.2.5.4.7.6l-.3.3c.1.2.3.4.4.6.1.3.3.6.4.8-.1.1-.2.1-.4.2-.1-.2-.2-.5-.3-.7-.1.1-.3.2-.4.3v.9l-1.2.9c-.1-.1-.1-.2-.2-.2.2-.2.4-.5.6-.7.1-.3.1-.6.2-.9-.2-.5-.3-1-.5-1.5l-.6-.6c-.1-.3-.2-.5-.3-.8.1-.6.1-1.2.2-1.9-.2-.3-.4-.6-.7-.9-.3.1-.7.2-1 .3h-1.1c-.3-.2-.5-.4-.8-.7-.2 0-.5.1-.7.1-.1.3-.3.6-.4.9-.6.1-1.1.3-1.7.4l-1.2.6c0 .2.1.4.1.6-.3.1-.5.2-.8.3-.1.2-.2.3-.3.5h-.8c-.3.2-.5.3-.8.5-.3-.2-.6-.3-1-.5-.4 0-.7 0-1.1.1 0-.2-.1-.3-.1-.5-.1-.2-.1-.5-.2-.7H96c0-.1 0-.2-.1-.3l-.2-.2c-.1 0-.2-.1-.4-.1.1-.2.3-.3.4-.5.1-.2.1-.3.2-.5 0-.1-.1-.2-.1-.3h.3c0-.1.1-.1.1-.2h-.3c.1-.2.2-.3.3-.5l.7-.7c.1-.2.3-.4.4-.6 0-.3 0-.5.1-.8.1-.1.2-.1.3-.2 0 0-.1-.9-.2-1 .2 0 .4-.1.7-.1.1.1.2.1.3.2 0-.1.1-.1.1-.2.2 0 .4.1.6.1.1.1.1.2.2.3.4.2.7.4 1.1.6.3.2.7.3 1 .5l.4.4h.9c.2-.2.3-.4.5-.6.1-.4.3-.8.4-1.2 0 0-.5-.9-.6-.9-.1 0 .3-.5.3-.5 0-.2-.1-.5-.1-.7-.1 0-.2.1-.3.1 0-.2-.1-.4-.1-.7-.2-.1-.3-.3-.5-.4.1-.1.1-.3.2-.4.3.1.7.2 1 .3 0 .1.1.2.1.2.3.1.6.1.8.2.1-.3.2-.7.3-1h.3v.4l.6.3c.1-.1.3-.2.4-.3.3 0 .6-.1.8-.1 0-.2.1-.4.1-.6.4 0 .7 0 1.1.1l.6.3c.1-.1.3-.2.4-.2.1-.2.2-.3.3-.5l.6-.3c.2 0 .4-.1.7-.1.1.1.2.1.2.2.1.1.3.1.4.2v.4h.2c0-.1.1-.2.1-.3.1 0 .2 0 .4-.1l.3.3c0-.1 0-.3.1-.4 0 0 .2.2.3.2 0-.1-.1-.2-.1-.4.1-.1.2-.1.3-.2v-.2c0-.1-.1-.2-.1-.3.1 0 .1 0 .2-.1 0-.1.1-.2.1-.3-.1 0-.1-.1-.2-.1 0-.2.1-.3.1-.5.1-.1.2-.2.3-.2-.1-.1-.2-.2-.3-.2l.3-.6c.1.1.2.2.2.3.1 0 .2-.1.3-.1h.4v-.3c-.1-.1-.2-.1-.3-.2 0 0-.5.2-.5.1.2-.1.3-.2.5-.3.2.1.4.2.5.3.1-.1.2-.2.2-.3h.5c0 .1-.1.2-.1.3l-.1.1h-.3c.1.1.1.2.2.2-.1.1-.2.3-.2.4.1.1.2.3.3.4-.1.1-.2.2-.2.3-.1-.1-.1-.2-.2-.3l-.5.5c-.1.2-.3.3-.4.5.1 0 .1.1.2.1-.1 0-.2.1-.3.1v.8l.3.3c0 .1.1.2.1.4.1-.1.2-.1.2-.2.1 0 .2 0 .4.1.1 0 .2-.1.3-.1.3.3.6.5.8.8.5.1 1 .3 1.5.4.1-.1.3-.1.4-.2.1 0 .3.1.4.1v.3c-.1-.1-.2-.1-.3-.2v.4h.5c0 .1 0 .1.1.2.2-.1.3-.2.5-.4 0-.1.1-.2.1-.3.2-.1.3-.1.5-.2 0 .1-.1.3-.1.4.1-.1.2-.1.4-.2 0-.1 0-.2.1-.4.2-.2.3-.5.5-.7.2-.2.3-.5.5-.7.2 0 .5 0 .7-.1 0 .1 0 .2-.1.4v.5c.2 0 .4 0 .7-.1v-.4c.1-.1.2-.2.2-.3l.3-.3c-.1 0-.2 0-.2-.1.1-.2.2-.5.3-.7h.4c.2 0 .4.1.6.1.2.2.4.3.6.5 0-.1 0-.1.1-.2.1 0 .2.1.3.1l.3.3h.3c.1 0 .3-.1.4-.1.2.1.5.2.7.3-.1-.1-.2-.3-.3-.4-.1-.1-.2-.1-.3-.2-.1-.2-.2-.4-.3-.5 0-.1.1-.2.1-.3h-.5l-.6-.3c-.2.1-.3.1-.5.2h-.7s-.1-.4 0-.5c0-.1-.2.2-.2.2l-.2-.2c0-.1.1-.2.1-.3h.4c-.1-.2-.1-.3-.2-.5-.1-.1-.2-.2-.4-.3 0-.2.1-.4.1-.6.1-.2.2-.3.3-.5 0-.2.1-.4.1-.7 0-.1.1-.2.1-.3 0 0 .1-.1.2-.1s.9-.1.9-.1l.6-.3c.1-.2.2-.3.3-.5h.2c.1 0 .2 0 .3-.1v-.3c.1-.1.1-.2.2-.2-.1-.1-.2-.3-.2-.4-.2-.1-.3-.2-.5-.2-.1-.1-.2-.2-.4-.2-.1 0-.3.1-.4.1-.2.1-.3.1-.5.2 0 .2-.1.3-.2.5-.1.1-.1.3-.2.4-.2.1-.5.2-.7.3l-.6-.3c-.1.1-.1.2-.2.3-.1 0-.3 0-.4-.1-.1.1-.1.3-.2.4l-.2-.1c-.2-.1-.2.1-.2.1-.1.2-.1.4-.2.6l-.3.3c-.1.4-.3.7-.4 1.1h.3c.1.1.2.1.2.2v.3c0 .1.1.2.1.3 0 .2-.1.3-.1.5-.2 0-.3 0-.5.1.1.1.1.2.2.3-.2.1-.4.2-.6.2-.1-.1-.1-.2-.2-.3h-.5c-.1.2-.2.5-.3.7-.2.2-.3.4-.5.6-.1.1-.1.2-.2.4.1 0 .3-.1.4-.1l-.5.5c-.1 0-.2-.1-.4-.1l-.6-.3c-.2.1-.3.1-.5.2v.3h-.5c-.2-.1-.3-.2-.5-.3l.3-.9c.1-.1.1-.2.2-.3-.1-.4-.1-.9-.2-1.3.1-.1.2-.3.3-.4-.1-.2-.1-.3-.2-.5l.3-.6c-.2.1-.5.2-.7.3 0 0-.3-.2-.3-.3-.1-.1-1.6.2-1.6.2 0-.1-.1-.2-.1-.3-.2-.1-.3-.2-.5-.3v-.5c0-.1.4-.1.4-.1.1-.2.1-.3.2-.5-.2 0-.4 0-.6-.1 0-.1-.1-.2-.1-.3h.3c.2 0 .3.1.5.1l.3-.3c.1-.1.3-.2.4-.3 0 0-.8.2-.9.2-.1 0 .2-.4.2-.4-.1-.1-.3-.2-.4-.3.1-.2.1-.3.2-.5.1.1.2.1.4.2.3.1.5.1.8.2 0-.1-.1-.2-.1-.2h-.3l-.4-.3c-.1 0 0-.3 0-.3h.5c-.1-.1-.3-.2-.4-.2.1-.1.1-.2.2-.2l.4.4h.6c-.1-.1-.2-.2-.3-.2l.2-.2c.1.1.2.1.2.2.2 0 .3-.1.5-.1V65c.2.1.3.1.5.2.2 0 .4-.1.5-.1 0-.1-.1-.1-.1-.2v-.3c.1.1.2.1.3.2.1.1.2.1.4.2 0 .2-.1.3-.1.5.2 0 .4.1.6.1l.5-.5c-.2.1-.4.1-.6.2V65c.5-.2 1-.5 1.4-.7.1.1.3.2.4.2v-.3c.4 0 .8-.1 1.1-.1 0-.1-.1-.2-.1-.3.1-.1.2-.2.3-.2.4-.1.8-.1 1.1-.2 0-.1.1-.3.1-.4.1-.1.1-.2.2-.4.1.2.2.4.2.7.1-.1.1-.2.2-.3.1-.1.3-.2.4-.3h-.4c0-.1-.1-.2-.1-.2.2 0 .5-.1.7-.1.1-.2.3-.4.4-.6-.2-.1-.4-.2-.5-.2.2-.1.5-.3.5-.3.1.1.1.2.2.2-.1.1-.1.2-.2.3.1 0 .2 0 .3.1.1 0 .2.1.4.1-.1-.1-.1-.3-.2-.4l.2-.2c0 .2 0 .3.1.5l.6-.3v.2c.1-.1.2-.1.3-.2 0 .1-.1.3-.1.4.1 0 .1 0 .2.1 0-.1.1-.2.1-.4.1.2.3.3.4.5 0-.2-.1-.3-.1-.5 0-.1-.1-.2-.1-.4.1.1.3.2.4.3.1.1.2.3.3.4.2-.1.3-.1.5-.2.1 0 .2.1.3.1.1.1.1.2.2.3.1-.1.1-.2.2-.3-5.6-12.9-16-23.7-29.9-29.7-9.9-4.3-20.4-5.5-30.4-4.2.1 0 .1.1.2.1.2 0 .3-.1.5-.1s.5 0 .7.1c0 .1.1.1.1.2.1 0 .3.1.4.1h.3c.1 0 .2.1.3.1v.1c0 .1.2-.1.2-.1.2 0 .3 0 .5-.1-.2 0-.3-.1-.5-.1h-1l.2-.2c.2.1.4.1.7.2 0-.1.1-.1.1-.2h.5v.2c.3.1.5.1.8.2 0 .1 0 .1.1.2l.2.2.2-.2c.1.1.2.1.3.2 0-.1-.1-.1-.1-.2.1 0 .1-.1.2-.1.1.1.2.1.3.2.1 0 .3.1.4.1.2 0 .3.1.5.1-.1-.1-.2-.2-.3-.2h.2s.1 0 .1.1c.1 0 .2 0 .3.1.1-.1.2-.1.3-.2v.1c.1 0 .2 0 .3.1h.4l.2.2.2.2c0-.1.1-.2.1-.2l-.2-.2c.2 0 .4 0 .6.1.2 0 .3.1.5.1s.4.1.6.1c0 0 .4.2.4.1h.6c.1.1.3.1.4.2 0 0 0-.1-.1-.1s.2-.1.2-.1c.2 0 .3.1.5.1.2.1.3.1.5.2.2 0 .3.1.5.1h.5c.1 0 .3.1.4.1.1 0 .1.1.2.1H79.2c.2 0 .3.1.5.1h1c.2 0 .3-.1.5-.1h.5c.1 0 .4.2.4.2.1.1.3.1.4.2.2.1.3.1.5.2 0 0 0 .1.1.1.1.1.2.1.4.2s.4.1.6.2c-.1 0-.1.1-.2.1h-1c-.2 0-.3 0-.5.1-.2-.1-.4-.1-.5-.2h-1.1c.2 0 .5.1.7.1.2 0 .5.1.7.1-.1 0-.2.1-.4.1h-.6s-.6 0-.8-.1c-.2 0-.6-.2-.6-.2h-.6c-.2 0-.4.1-.6.1h-.4v-.1c-.2.1-.3.1-.5.2-.1 0-.2-.1-.3-.1-.1 0-.2-.1-.3-.1 0 .1 0 .1.1.2h-.9c-.2 0-.4 0-.6-.1-.2 0-.3-.1-.5-.1-.2-.1-.5-.1-.7-.2-.2 0-.4-.1-.6-.1.2.1.4.2.7.2-.1 0-.1.1-.2.1 0 0-.3-.2-.5-.2s.1.1.1.1l-.1.1c-.2 0-.4-.1-.6-.1-.1-.1-.2-.1-.3-.2-.1 0-.3 0-.4-.1.1.1.3.2.4.3-.1 0-.2.1-.3.1h.1c.1 0 .7.1.8.1.2 0 .5.1.5.1l.1.1h.4c.2 0 .1.2.1.2-.1 0-.2.1-.3.1 0 0-.3-.1-.4-.1.1 0 .2.1.2.1-.1 0-.2 0-.2.1-.2 0-.4-.1-.5-.1 0 .1 0 .1.1.2H73c-.1-.1-.2-.1-.3-.2h-.5c0 .1 0 .2-.1.3-.2 0-.4-.1-.6-.1h-.4c.1.1.2.1.4.2v.2c.1 0 .1.1.2.1 0 0 0 .1-.1.1-.2 0-.4.1-.7.1 0-.1-.1-.1-.1-.2-.2 0-.5.1-.7.1-.1 0-.3.1-.4.1 0-.1.1-.1.1-.2s.1-.2.1-.3h-.3c-.1-.1-.1-.2-.2-.3-.1.1-.2.1-.2.2-.1 0-.2-.1-.3-.1 0 0-.4-.1-.6-.1-.1 0 0-.1 0-.2s-.2.1-.2.1c-.1 0-.2-.1-.3-.1-.1.1-.2.1-.2.2-.2 0-.3-.1-.5-.1-.1 0-.3-.1-.4-.1-.2-.1-.3-.1-.5-.2l-.1.1s-.4 0-.6-.1c-.2 0 0-.2 0-.2h-.3v-.3H66.1c.1 0 .3.1.4.1.1 0 .2 0 .3-.1l-.2-.2c-.1 0 0-.2 0-.2.1 0 .3.1.4.1.2 0 .4.1.6.1 0 0 0 .1.1.1.1.1.3.1.4.2v.2c.1 0 .2.1.4.1s.5.1.7.1c.1-.1.2-.1.3-.2h-.4c-.1 0-.3-.1-.4-.1 0-.1 0-.1-.1-.2l.3-.3s-.7.1-.8.1c-.1 0-.1-.1-.1-.1h-.5c-.2 0-.3-.1-.5-.1.1-.1.2-.2.4-.2s.3 0 .5.1h.7c.2.1.3.1.5.2.2 0 .4 0 .6.1 0 0 .5.1.4.2 0 .1.5-.1.5-.1-.2-.1-.3-.1-.5-.2 0 0-.3-.2-.4-.2-.1-.1.4 0 .4 0-.1 0-.3 0-.4-.1-.1-.1-.1-.2-.2-.4l-.1.1-.3.3-.5-.1c-.5-.1.5.1-.4 0s.9.1-.4 0c-.3 0-.5-.1-.6-.1 0 .1-.1.1-.1.2-.1 0-.3-.1-.4-.1-.1.1-.2.1-.4.2h-.5c-.1-.1-.1-.1-.2-.1H64.7c0-.1-.1-.2-.1-.2 0-.1.1-.1.1-.2s.1-.1.1-.2h.7c-.1 0-.3-.1-.4-.1-.1 0-.2.1-.3.1-.1 0-.3-.1-.4-.1 0-.1-.1-.1-.1-.2h.6c-.2 0-.4-.1-.6-.1 0 0 0-.1-.1-.1l-1.5.3c.1 0 .2.1.3.1.1 0 .1.2.1.2v.3h-.9c-.1 0-.3 0-.4.1 0 0-.1-.2-.1-.3-.7.2-1.3.3-2 .5.1 0 .2 0 .3.1v-.1c0-.1.2-.1.2-.1s.1 0 .1.1v.1c0 .1.1.1.1.2l-.2.2c0 .1 0 .2-.1.3-.1.1-.1.3-.2.4-.2 0-.3 0-.5.1-.3 0-.6-.1-.8-.1-.2-.1-.4-.1-.6-.2.1-.1.1-.2.2-.2s.3-.1.4-.1c-.2 0-.3-.1-.5-.1-1.5.5-2.9 1-4.3 1.6l.1.1c0 .1 0 .2-.1.3 0 .1 0 .1-.1.2 0 .1-.1.2-.1.3l.2.2c0 .1-.1.1-.1.2h.4c0-.1.1-.2.1-.3 0 .1.1.2.1.2 0 .1.1.2.2.3.1.1.2.1.3.2.1 0 .2.1.3.1.1 0 .1 0 .2.1-.1.2-.2.3-.3.5-.1 0-.1.1-.2.1-.1-.1-.2-.1-.3-.2v-.2h-.3c-.2 0-.3 0-.5-.1 0 0-.1-.3-.2-.2-.1.1-.3.1-.2.2.1.1.1.4.1.4h.3l.3.1c-.1.1-.3.2-.3.2-.2 0-.3 0-.5-.1H53c-.1 0-.2-.1-.3-.1l-.2-.2-.1-.1c-.1 0-.2 0-.3-.1 0-.1 0-.1-.1-.2-.1 0-.2-.1-.2-.1v-.2c.1 0 .3-.1.4-.1l-.2-.2c-.3.1-.5.1-.8.2H50c-.5.2-1 .5-1.4.7 0 0 0 .1.1.1v.3c.1 0 .3-.1.4-.1-.1.1-.2.3-.3.4 0 .1.1.2.1.4.1-.1.2-.1.3-.2 0-.2.1-.3.1-.5.1-.1.2-.1.3-.2.5 0 1.1-.1 1.6-.1-.1 0-.3-.1-.4-.1-.2 0-.3 0-.5.1-.1-.1-.2-.1-.2-.2-.1 0-.2.1-.4.1-.1-.1-.2-.1-.3-.2.3-.1.5-.2.8-.3.2.1.4.1.5.2h.7c.1.1.1.2.2.3-.1.1-.1.2-.2.3.1.1.2.1.4.2.3 0 .6.2.6.2 0 .1.1.2.1.3.1.1.2.2.4.3.2 0 .3.1.5.1h.4c.3.1.5.2.8.3h.4c.1-.1.1-.3.2-.4h.4c.1.1.1.3.2.4.1 0 .2 0 .3-.1v.4l-.3.3c0 .2 0 .4.1.6h.4v-.4c.2-.1.5-.3.7-.4.3 0 .6-.1.9-.1.2-.1.3-.1.5-.2-.2 0-.3-.1-.5-.1.1-.1.2-.2.2-.3h.5c.2-.1.3-.2.5-.2-.2 0-.4-.1-.5-.1-.1-.2-.1-.3-.2-.5-.4.2-.8.2-.8.2l.3-.3-.3-.3c.1 0 .3 0 .4-.1 0-.1.1-.2.1-.2.2-.1.4-.1.5-.2v-.2c.2 0 .4-.1.6-.1.2-.1.4-.3.6-.4v-.4c.1-.2.2-.3.2-.5.1-.1.2-.1.3-.2.3 0 .8.1.8.1.1 0 .2-.1.4-.1.3.2.6.3.9.5.2.1.5.2.7.3-.2.1-.3.2-.5.3-.3 0-.6 0-.9.1-.3 0-.5-.1-.8-.1h-.6c0 .1-.1.2-.1.4-.2 0-.3.1-.5.1v.5c.2.2.3.4.5.5.2.1.3.2.5.3 0 .1.1.2.1.4h-.4c0-.1-.1-.1-.1-.2-.1.1-.2.1-.3.2v.2c-.2 0-.3.1-.5.1 0 0 .1.3.3.3.2 0 .5.4.5.4-.1.2-.2.5-.4.7.1 0 .3.1.4.1.2-.1.3-.2.5-.3.1-.1.1-.2.2-.3h.6c0 .2 0 .3-.1.5-.2.1-.4.3-.6.4l-.3.6c.1.2.2.3.3.5.3 0 .5-.1.8-.1l.5-.5c.3-.1.6-.2.9-.4.2 0 .3 0 .5-.1v-.5c.1-.1.2-.3.2-.4.2.1.4.2.6.4.2.1.4.1.6.2 0 .1 0 .3.1.4.1.1.3.1.4.2l-.3.3c-.1 0-.2.1-.4.1.1 0 .2.1.3.1l-.6.3c0 .1 0 .3.1.4.1.1.1.2.2.4l-.4.4c-.2-.1-.3-.1-.5-.2-.3 0-.6 0-.9.1-.2.1-.3.1-.5.2 0-.2-.1-.4-.1-.6-.1 0-.3-.1-.4-.1.1.2.1.5.2.7-.2 0-.3 0-.5.1l-.3-.6H61v.4l-.6.3c0-.2-.1-.4-.1-.5-.3-.1-.7-.2-1-.2-.2 0-.4.1-.6.1.4.1.8.2 1.2.4 0 .1.1.3.1.4l-.4.4H59c-.1-.2-.3-.3-.4-.5-.2 0-.3.1-.5.1-.1.2-.1.4-.2.5-.1 0-.3-.1-.4-.1-.1.1-.2.2-.2.4-.2.1-.3.1-.5.2-.1-.1-.3-.2-.4-.3-.1.2-.2.3-.3.5-.3 0-.6.1-.9.1-.3.1-.6.2-.8.4v.3c-.2-.1-.3-.1-.5-.2 0 .1.1.2.1.3-.3.1-.5.2-.8.3 0 .2-.1.3-.1.5s-.1.4-.1.7h.6c.1.2.1.5.2.7-.1.3-.1.5-.2.8l.9.3c.2.2.3.4.5.6.2.2.5.3.7.5v.8c.2 0 .3.1.5.1 0 .2.1.4.1.5.2.1.4.1.6.2 0 .1 0 .3.1.4.2.1.5.1.7.2.2.2.4.4.6.5 0 0-.5.9-.6 1-.1.2-.4 1.1-.4 1.1.1.3.2.5.3.8.2.2.3.5.5.7.2-.1.4-.1.6-.2l.8-.8c.1-.3.2-.7.4-1 0-.1-.1-.2-.1-.3l.3-.6c.4-.1.8-.1 1.2-.1.3-.2.6-.3 1-.5.1-.1.3-.2.4-.3l-.3-.3c.2-.1.3-.1.5-.2 0-.2-.1-.4-.1-.6v-1c-.1-.2-.2-.3-.3-.5.1-.2.1-.3.2-.5h.5c.1-.1.1-.2.2-.4.2 0 .3.1.5.1 0-.2-.1-.5-.1-.7.1-.2.2-.3.3-.5l.6-.3c0-.2-.1-.3-.1-.5h.6l.4.4c.3.2.7.3 1 .5.2-.1.5-.2.7-.2l.5.5c.1.2.1.3.2.5 0 .2.1.4.1.6.3.1.6.3.9.4-.1 0-.3.1-.4.1.1.1.2.3.4.4-.1.1-.1.2-.2.4-.2.2-.4.4-.6.5.2.2.4.4.6.7 0 .2-.1.4-.1.5.2 0 .4.1.6.1 0 .2-.1.4-.1.7.4-.2.8-.3 1.1-.5.2-.1.4-.2.7-.3.3-.3.7-.6 1-.9 0 .2.1.4.1.6-.1.2-.1.5-.2.7l.3.3c-.1.1-.2.3-.3.4 0 .2 0 .3.1.5 0 .2 0 .4-.1.6.1.2.2.3.4.5-.2.1-.3.2-.5.4.2 0 .3.1.5.1-.1.2-.2.5-.3.8-.1-.1-.3-.2-.4-.3.1.3.1.6.2.9.2.1.4.3.5.4-.1.1-.2.3-.3.4.3.1.6.1.9.2 0 .2.1.4.1.7.2 0 .4-.1.6-.1v.5h-.5c-.6 0-1.1.1-1.7.1-.1.2-.1.3-.2.5.4-.1.8-.2 1.2-.2h1.1l.4.4c.1.1.2.3.3.4 0 .2-.1.4-.1.6-.2.2-.5.4-.7.6-.2-.1-.5-.1-.7-.2h-.8c-.2.2-.4.3-.6.5-.3 0-.6.1-.9.1-.3-.1-.5-.1-.8-.2l-.3-.3c-.3 0-.6-.1-.8-.1-.2-.2-.5-.3-.7-.5h-.6c-.3-.1-.5-.2-.8-.4-.2.1-.3.2-.5.2-.3.1-.6.3-.9.4-.3.1-.7.1-1 .2l-.6.3c-.2.2-.3.4-.5.6-.3.1-.6.2-.9.4h.9c.3-.2.6-.4 1-.7.4-.1.9-.2 1.3-.3.3-.1.7-.1 1-.2l.9.3c0 .2.1.4.1.5l-.3.6-.2-.1c-.2-.1-.4-.2-.7-.3-.1.2-.2.5-.3.7.3 0 .6 0 .9.1-.1.2-.2.3-.3.5 0 0-.6.1-.4.2l.8.4c0 .2 0 .4-.1.6h.8c-.1.2-.1.3-.2.5l-.3-.3-.3.3c.2.1.5.2.7.3 0 .2.1.4.1.6-.2.1-.4.2-.6.2-.2-.1-.5-.2-.7-.4-.2.1-.4.3-.6.4-.2 0-.6.3-.6.3-.2-.1-.4-.2-.6-.2-.1-.2-.2-.5-.3-.7.2-.1.5-.2.7-.3h.7c.3 0 .5 0 .8-.1-.3-.1-.6-.2-.8-.3H65s1.1-.8.9-.6c-.2.1-.7.2-.7.2-.2.1-.3.3-.5.4-.1-.1-.1-.3-.2-.4-.1.1-.2.3-.3.4-.1-.1-.2-.3-.3-.4-.1.2-.1.4-.2.6-.2.1-.4.1-.7.2-.2 0-.3-.1-.5-.1-.2.1-.4.1-.6.2l-.4-.4c-.4.3-.8.6-1.1.9.1.2.3.4.5.6.1.1.2.2.2.3h-.6c-.1 0-.2-.1-.4-.1v-.4c-.1.1-.3.2-.4.3-.2-.1-.4-.1-.6-.2-.4.1-.8.2-1.3.3v.4c-.1.2-.3.3-.4.5-.2.1-.3.1-.5.2-.1-.2-.2-.3-.2-.5-.1.2-.2.3-.4.5 0 .1.1.3.1.4l-.6.6c-.1-.1-.2-.3-.3-.4-.1 0-.2-.1-.3-.1.2-.2.3-.4.5-.6.2-.2.4-.3.6-.5-.2-.1-.4-.2-.6-.2-.2.3-.4.6-.6.8-.2.2-.3.5-.5.7l.3.6s-.5-.1-.4.1c.2.1.3.6.3.6-.1.1-.3.2-.4.3.1.2.1.3.2.5-.2 0-.4-.1-.5-.1 0 0-.3-.1-.3.1v.6h-.6c-.1.2-.3.3-.4.5-.2 0-.5-.1-.7-.1-.2 0-.3.1-.5.1-.2.2-.4.3-.5.5-.1 0-.2-.1-.4-.1l-.6.6c-.1.1-.2.3-.4.4-.1.2-.2.4-.4.6 0 .2.1.4.1.6 0 .3.1.7.1 1-.1.4-.2.9-.4 1.3-.1.2-.1.4-.2.6l-.6.9c-.2-.5-.4-1-.5-1.5 0-.3-.1-.7-.1-1 .2-.1.5-.2.7-.3-.2-.1-.4-.1-.5-.2.1-.2.1-.4.2-.6.1-.1.2-.3.3-.4-.1-.3-.2-.7-.3-1-.1.1-.3.1-.4.2-.1-.1-.2-.2-.4-.3-.1-.2-.3-.5-.4-.7-.1-.1-.2-.1-.3-.2-.2-.1-.4-.1-.6-.2-.2-.1-.3-.1-.4-.2-.1-.1-.3-.2-.4-.3-.2.1-.3.1-.5.2.1.2.2.4.3.5 0 .2-.1.4-.1.7-.1-.1-.2-.2-.4-.2 0-.2 0-.4-.1-.7-.1 0-.2.1-.3.1-.1.1-.1.2-.2.3-.2-.1-.4-.2-.6-.2v-.4c-.1-.2-.3-.5-.4-.7h-.7c-.2 0-.5.1-.7.1-.3.1-.5.2-.8.3-.1-.1-.2-.1-.3-.2-.1.2-.3.4-.4.6h-.7c0 .2-.1.4-.1.6.1.1.1.3.2.4-.1.2-.1.4-.2.6-.2.1-.3.3-.5.4l-.3.3v.7c-.1.2-.3.4-.4.6 0 .2.1.4.1.6-.2.2-.3.4-.5.6.1.2.2.4.2.6.1.2.1.4.2.6 0 0-.3.8-.1.9l.3.3c.1.1.2.3.2.4 0 0 .5.4.4.6l-.1.2c.3-.1.6-.1.9-.2.2.1.4.1.6.2.1.1.1.2.2.4.2-.2.4-.3.5-.5.2-.3.4-.7.6-1 0 0 0-.3 1-.1 1 .2 0-.7.5-.2.5.5.5.4.5.4l-.3.9c-.2.1-.3.3-.5.4 0 .2-.1.4-.1.6-.2.2-.4.4-.5.7-.1-.1-.5.1-.5.1v.6c-.1.2-.3.4-.4.6 0 0-.5.3-.3.4.2.1 1.1.5 1.1.5h.7c.1.1.2.2.3.4.2.1.4.2.6.2v.6c.1.1.2.3.3.4-.1.3-.2.7-.3 1-.2.3-.4.6-.5.9-.1.3-.2.7-.3 1l.3 1.2c0 .2.1.4.1.7.2 0 .3.1.5.1.2.1.4.3.6.4.1-.2.3-.3.4-.5.2.2.4.4.7.5v.5c.1.2.3.5.4.7 0 .3.1.6.1.9.1-.4.3-.8.4-1.2.1-.1.2-.1.3-.2.1-.2.2-.5.4-.7h.8c.1.1.3.1.4.2.3-.1.6-.3.9-.4.3-.1.6-.1.9-.2 0 .2 0 .4.1.7-.2.1-.3.1-.5.2 0 .2-.1.3-.1.5-.1.1-.3.2-.4.3v1c.2 0 .4-.1.6-.1 0-.3 0-.5.1-.8.1-.2.1-.4.2-.7.3.1.5.1.8.2-1.8-.3-1.8-.4-1.9-.6l.6.3v.7c.1.1.2.3.3.4-.1.1-.1.3-.2.4h.8c.2.2.3.5.5.7.2.2 1.2.4 1.2.4.3.1.7.1 1 .2l-.3.3c.1.2.2.4.3.7.2 0 .5.1.7.1-.3.2-.5.4-.8.6.4.1.7.3 1.1.4.2.3.3.6.5.9 0 0-.3.4-.4.7l-.2.3c.2-.1.4-.1.7-.2l.6.6c0 .1-.1.2-.1.4.2 0 .5.1.7.1.3.1.5.2.8.2l.3.6c.2.1.3.2.5.3.1.2.2.3.3.5.1.5.2.9.3 1.4.1.1.2.3.3.4 0 .3-.1.6-.1.9.1.1.1.2.2.3.1.2.2.3.3.5-.2.1-.4.1-.7.2 0 .1.1.3.1.4-.2.1-.5.1-.7.2-.2.1-.5.1-.7.2-.2.1-.5.3-.7.4-.3 0-.6.1-1 .1.4.1.8.1 1.2.2.2 0 .3-.1.5-.1s.4.1.6.1c.4-.1.8-.2 1.1-.3.1.2.3.4.4.6 0 .2-.1.4-.1.6-.1 0-.1 0-.2.1-.1 0-.2 0-.3.1.4-.1.7-.2 1.1-.3.2.2.4.5.6.7.3.2.5.5.8.7 0 .2-.1.3-.1.5s-.1.4-.1.6c.3-.1.6-.1.9-.2.1.3.2.5.3.8.3 0 .5.1.8.1.2.2.4.3.6.5.2.3.3.6.5.9.2.3.3.5.5.8.1.1.2.3.2.4.3.2.5.3.8.5v.9c0 .2-.1.5-.1.7-.1.2-.2.5-.3.7-.3.1-.6.3-.9.4-.2 0-.4.1-.6.1-.2.2-.4.3-.6.5-.2.1-.3.2-.5.3-.1.2-.3.3-.4.5-.1-.2-.1-.3-.2-.5-.1.2-.2.4-.3.5-.2 0-.3.1-.5.1 0 0 .2.4.1.5-.1.1-.6 1.4-.6 1.4-.2.2-.3.4-.5.6 0 .2 0 .4-.1.6-.3.2-.6.3-.9.5-.3.2-.6.3-.9.4v.7c-.2.1-.4.1-.5.2 0 0-.5-.5-.5-.4v.1c-.3-.1-.6-.2-1-.2 0 .1.1.2.1.3h-.6c-.2 0-.4-.1-.6-.1 0 0-.2.3-.4.2h-1.1l-.3.6c0 .2-.1.4-.1.6v.6c-.2.1-.5.2-.7.3-.1.2-.3.3-.4.5-.2.2-.4.3-.6.5 0-.2.1-.4.1-.6-.1 0-.2-.1-.3-.1-.1.1-.2.2-.4.3-.1.1-.3.1-.4.2 0 .1.1.3.1.4l-.6.3c-.2.1-.3.3-.5.4-.2-.1-.4-.1-.5-.2-.2-.1-.3-.2-.5-.3-.1-.1-.3-.2-.4-.3-.2-.1-.4-.3-.5-.4.1-.2.1-.4.2-.6-.1.1-.2.2-.3.4 0 .2.1.4.1.7l.3.3c0 .1 0 .2.1.3.1.2.2.3.3.5l-.3.3c-.1.1-.3.2-.4.3h-.7c-.3-.1-.7-.2-1-.3h-.4c-.1-.1-.2-.1-.2-.2l-.1.1.2.2c-.1.2-.1.3-.2.5-.1.1-.2.2-.3.4-.2-.1-.4-.2-.7-.2-.1-.2-.2-.3-.3-.5-.1.1-.1.2-.2.3l.3.3c0 .1-.1.2-.1.3.1 0 .2.1.3.1 0 0 .2.2.2.3-.1.1-.3.1-.3.1-.1-.1-.2-.1-.3-.2-.1.1-.2.2-.3.2 0 .1-.1.3-.1.4h-.3c.1.1.2.2.2.3-.2 0-.3-.1-.5-.1-.2.1-.3.1-.5.2 0 .1-.1.2-.1.4.1.1.3.2.4.3.1.1.2.1.2.2v.5c-.2 0-.4 0-.6-.1-.1.1-.2.2-.4.3.1.2-.2.4-.2.4-.1-.1-.2-.2-.3-.4 0 .1-.1.1-.1.2s.1.2.1.3l-.3.3.3.3v.3c-.1 0-.2 0-.3-.1-.1 0-.2-.1-.4-.1.2.2.4.3.6.4 0 .1.1.3.1.4.2.2.5.3.7.5l.6.3c.3 0 .5.1.8.1 0 .1-.1.1-.1.2-.2 0-.3-.1-.5-.1-.3 0-.5-.1-.8-.1-.1-.1-.2-.1-.3-.2h-.3c0 .1-.1.1-.1.2-.1-.1-.1-.2-.2-.3-.1 0-.2-.1-.3-.1H40c-.1 0-.2-.1-.4-.1-.2-.2-.5-.2-.5-.2-.1-.1-.3-.2-.4-.3.2 0 .4.1.6.1 0-.1-.1-.1-.1-.2l-.6-.3c-.1-.2-.3-.4-.4-.5.2 0 .1-.4.1-.4l-.3-.3v-.3h.2c-.1-.2-.2-.3-.2-.5 0 0-.3-.1-.3-.2s.2-.4.2-.4l.1-.1v-.6c.1-.1.1-.2.2-.3 0 0-.8-.5-.8-.6 0-.1.1-.4.1-.4s.2-.2.3 0c.1.2.3.4.3.4s.3 0 .3-.1c.1-.1.2-.7.2-.7.1-.1.1-.3.2-.4v-.4c.1-.1.2-.2.2-.4 0-.1 0-.2.1-.2h-.5s-.1-.2-.2-.3v-.4c.2-.1.3-.3.5-.4 0-.3-.1-.6-.1-1 0-.2-.1-.4-.1-.6h.6c0-.2.1-.4.1-.7 0-.1.1-.3.1-.4l.6-.6c.1-.5.2-.9.3-1.4.1-.2.2-.3.3-.5-.1-.2-.1-.3-.2-.5.1-.4.3-.8.4-1.3.2-.6.5-1.2.7-1.8.1-.3.2-.6.4-1 .1-.7.3-1.5.4-2.2l-.3-.6c-.1-.2-1.2-1.6-1.2-1.6-.2-.4-.5-.7-.7-1.1l-.3-.9c0-.3.1-.5.1-.8-.1-.3-.2-.5-.3-.8 0-.2.1-.4.1-.7-.1-.6-.1-1.2-.2-1.9-.2-.5-.3-1-.5-1.6-.2-.4-.5-.7-.7-1.1.1-.2.2-.3.2-.5-.1-.2-.1-.4-.2-.7.2-.1.4-.3.6-.5.1 0 .3-.1.4-.1.1-.1.1-.2.2-.4-.2-.1-.3-.1-.5-.2-.1-.1-.1-.2-.2-.4.2-.1.3-.3.5-.4 0-.2 0-.5.1-.7.2 0 .5-.1.7-.1v-1c.2 0 .5-.1.7-.1 0-.2.1-.3.1-.5.2-.1.4-.2.6-.4.2 0 .4-.1.7-.1-.1-.2-.2-.4-.3-.7l.7-.7c.1-.5.3-1 .4-1.5-.1-.2-.3-.4-.4-.6.1-.1.2-.3.3-.4l-.4-.4v-.6c-.2.1-.3.2-.5.4-.1.2-.1.5-.2.7-.2.1-.3.1-.5.2-.1-.2-.3-.5-.4-.7-.1-.2-.2-.5-.3-.7-.2-.1-.4-.2-.6-.4v-.7c-.1-.2-.2-.5-.3-.7 0-.1 0-.3-.1-.4l-.4.4c-.1-.1-.2-.2-.3-.4.1-.3.1-.5.2-.8-.1-.6-.2-1.1-.3-1.7 0-.1.1-.3.1-.4-.1 0-.2-.1-.3-.1-.2-.1-.4-.3-.6-.4-.2-.1-.4-.3-.5-.4-.2-.3-.3-.6-.5-.8l-.6-1.5c-.1-.2-.3-.5-.4-.7h-.5c-.2 0-.4-.1-.6-.1-.2-.1-.4-.2-.7-.3-.2-.3-.4-.6-.6-1-.2-.1-.5-.2-.7-.3-.2-.3-.4-.6-.6-1-.2-.2-.3-.4-.5-.6-.1-.4-.3-.8-.4-1.2-.1-.4-.3-.8-.4-1.2.1-.2.2-.4.2-.6.1-.2.3-.4.4-.6l-.3-2.7c-.1-.4-.3-.9-.4-1.3-.1-.1-.2-.3-.3-.4.1-.1.2-.3.4-.4-.1-.1-.1-.2-.2-.3-.1-.2-.2-.4-.2-.6v-.5l-.3-.6v-.9c-.1-.4-.1-.8-.2-1.2l.3-.6-.2-.2-.5-.5c-.1.2-.2.3-.3.5 0 .4.1.7.1 1.1.1.2.2.3.3.5-.1.2-.1.4-.2.7 0 .3.1.7.1 1 0 .3-.1.7-.1 1 .1.2.2.5.3.7-.1.3-.2.6-.2.9.1.3.2.6.3.8-.1.3-.3.6-.4.8 0-.3-.1-.6-.1-.9-.1-.3-.2-.7-.4-1 0-.4.1-.8.1-1.2-.1-.2-.1-.5-.2-.7-.1-.1-.2-.3-.3-.4-.1-.3-.2-.5-.2-.8.1 0 .3.1.4.1.1-.2.2-.5.2-.7 0-.1-.1-.2-.1-.4 0-.1.1-.3.1-.4-.1-.2-.2-.3-.3-.5 0-.3-.1-.5-.1-.8 0-.1.1-.3.1-.4 0-.3 0-.6-.1-.9v-.6c-.1-.2-.1-.3-.2-.5s-.3-.5-.4-.7c-.1-.1-.2-.1-.3-.2v-1c-.1-.4-.2-.7-.2-1.1.1-.1.2-.1.3-.2-.1-.2-.1-.4-.2-.6.1-.1.2-.3.3-.4-.1 0-.3-.1-.4-.1 0-.3.1-.5.1-.8 0-.3-.1-.6-.1-.9.1-.2.3-.4.5-.6.1-.3.2-.7.3-1 .1-.3.1-.5.2-.8.2-.3.4-.7.6-1 0 0 .8-1.6.9-1.7 0-.2.3-.8.3-.8V48c-3.8 4.4-6.9 9.3-9.3 14.9-12.1 29.3 1.4 63.1 30.5 75.6 28.6 12.3 61.5-.4 74.7-28.3 0-.1 0-.1-.1-.2zm-9.2-13.2c.2 0 .4.1.6.1-.2.1-.3.3-.5.4-.2 0-.3.1-.5.1-.1-.2-.2-.3-.3-.5.2 0 .5-.1.7-.1zm-3-3.9zm-1.5 1.7c.1.1.2.3.4.4.1.1.3.1.4.2.1.1.2.2.3.4 0 0-.4.3-.5.2l-.6-.6c-.1-.2-.3-.4-.4-.6.1-.1.3 0 .4 0zm-3.6-4.1c-.1.2-.1.3-.2.5s-.3.4-.4.7c-.2-.3-.4-.6-.7-.9 0-.3-.1-.5-.1-.8l.3-.2c.2.1.4.3.6.4.2.1.4.2.5.3zm-1.9-5c.1-.2.1-.4.2-.6.2-.1.3-.1.5-.2.1-.1.3-.2.4-.3l-.3.9c-.2.2-.4.4-.5.6-.1-.1-.2-.1-.3-.2-.1 0-.1-.1 0-.2zm-.9 1.9c0-.2 0-.5.1-.7l.4-.3c.4-.4-.4.3.6.1 1-.3-.1.6-.1.6-.1.2-.3.4-.4.6-.2.1-.3.3-.5.4-.1 0-.3 0-.4-.1l.3-.6zm-1.6-1.2c0 .1-.1.2-.1.3l-.3-.3h.4zm-1.5-.2c.1-.1.2-.3.3-.4 0-.1.1-.2.1-.2s.2.5 0 .7c-.2.1-.4.1-.6.2.1-.1.2-.2.2-.3zm-1-.2c.1 0 .2 0 .3.1-.2.2-.6.2-.6.2l.3-.3zm18.6-11.9c.1.1.3.1.4.2.1 0 .2 0 .3-.1-.1.2-.2.3-.3.5-.2 0-.3-.1-.5-.1.1-.1.1-.3.1-.5zm-2.3.2c.2-.1.4-.2.6-.2.1 0 .2.1.3.1l-.5.5c-.1 0-.3 0-.4.1v-.5zm-3.9.3l-.3.3c-.1-.1-.2-.3-.4-.4 0 0-.1-.5-.1-.7 0 0 .7 0 .9.1.1.2 0 .4-.1.7zm11.2-12.9c.2 0 .4.1.5.1 0 .1-.1.3-.1.4-.2 0-.3-.1-.5-.1-.1-.1-.2-.2-.2-.3.1 0 .2 0 .3-.1zm-1.5 0l.3.3c-.2 0-.6-.1-.6-.1.1 0 .2-.1.3-.2zm-2.4.7c.2.1.3.2.5.3-.1.1-.2.2-.2.3h-.6c0-.1-.1-.2-.1-.3.1-.1.3-.2.4-.3zm-65.7-26c-.1.1-.2.1-.2.2-.2 0-.4-.1-.5-.1H55c-.1-.1-.2-.2-.3-.2v-.3c-.1 0-.3 0-.4.1-.1-.1-.1-.2-.2-.2 0-.1.1-.2.1-.2h.4c.1-.1.2-.2.2-.3.1 0 .3 0 .4.1l.2-.2c.1.1.2.1.3.2.1.1.2.1.3.2.1.1.1.2.2.2-.1.1-.2.2-.2.4l.1.1zm2-4h-.5c.1.1.3.1.4.2.1.1 0 .3 0 .3-.1 0-.2.1-.3.1 0 0-.2-.2-.3-.1-.1.1 0 .3 0 .3.1 0 .1.1.2.1-.1.1-.1.2-.2.3.1 0 .2-.1.4-.1 0 0 .3 0 .2.1l-.3.3-.3.3h-.5c-.1-.1-.2-.1-.2-.2-.1.1-.3.1-.4.2-.1 0-.3.1-.4.1-.1 0-.2-.1-.3-.1v-.3s-.1-.2-.2-.3c-.1-.1-.2-.4-.2-.4h-.3c-.1-.1-.3-.2-.4-.3 0-.1.1-.3.1-.4.2 0 .3.1.5.1 0 .1.1.2.1.3h.8c0-.1 0-.2.1-.3-.1-.1-.2-.1-.3-.2 0 0 .1-.2.2-.2.2 0 .6-.1.6-.1s.2.2.3.2c.1 0 .2-.1.2-.1v-.1h.5s.3 0 .4-.1h.3c-.2.3-.2.4-.2.4zm1.7 11.3c-.3 0-.5-.1-.8-.1-.2-.1-.3-.1-.5-.1 0-.1.1-.1.1-.2.1 0 .2.1.3.1.1-.1.3-.1.4-.2.3 0 .5 0 .8-.1 0 .1.1.1.1.2 0 .2-.2.3-.4.4zm.9-.8s-.7-.4-.8-.4c-.1 0 .4-.2.4-.2 0-.1 0-.2-.1-.3-.2 0-.4 0-.5.1-.2.2-.5.4-.7.6-.2 0-.3-.1-.5-.1.1-.1.2-.3.2-.4-.2 0-.3.1-.5.1 0-.1.1-.3.1-.4.2-.1.5-.2.7-.3 0 0 .4-.5.4-.6 0-.1.2-.3.3-.3.1-.1.2.1.2.1.1.1.1.2.2.4.1 0 .3.1.4.1v.3c.1.1.2.3.3.4v.4c.2.1.4.1.7.2l-.6.6c-.1 0-.1-.2-.2-.3zm1 1.9c-.1.1-.2.2-.4.2-.1-.1-.1-.2-.2-.3.1-.1.2-.1.2-.2.1-.1.3-.1.4-.2.1.2.1.3 0 .5zm-14 31.8h.2c0 .1.1.2.1.3 0 .1-.1.1-.1.2l-.3-.3s0-.1.1-.2zm-3 1.4c-.1.1-.4.2-.4.2-.1 0-.2-.1-.3-.1.1-.1.3-.2.3-.2v-.2c0-.1.1-.2.1-.2l.3.3c.1-.1.1.1 0 .2zm2.4 4.6c-.1-.1-.1-.2-.2-.2l-.2.2c-.1-.1-.2-.1-.3-.2l-.3-.3v-.3c-.1 0-.1-.1-.2-.1v-.2c.1 0 .3.1.4.1h.3v.2c.1 0 .3.1.4.1.1.1.1.3.2.4 0 .1 0 .2-.1.3zm-.2-1.8v-.3h.3c0-.1 0-.2.1-.3-.1-.1-.2-.1-.3-.2-.1-.1-.1-.3-.2-.4V79c-.2-.1-.4-.2-.6-.2-.1-.2-.2-.4-.2-.6l-.5-.5c0-.1-.1-.2-.1-.3-.2-.1-.4-.2-.5-.3-.2.1-.3.1-.5.2-.1 0-.2.1-.3.1-.1-.1-.3-.1-.4-.2.1 0 .2-.1.2-.1v-.3c.1 0 .2 0 .3-.1h.6c.1 0 .2.1.3.1.1 0 .2.1.3.1v.2c.1 0 .2 0 .3.1.1.1.3.2.4.2.2.1.4.3.6.4 0 .1.1.2.1.4l.9.9c0 .1 0 .3.1.4.1 0 .2.1.2.1 0 .2 0 .3.1.5h.3c.1.1.1.2.2.3l-.1.1c.1.1.2.2.2.3.1.1.3.2.4.2-.1.1-.1.2-.2.3-.1.1-.2.1-.3.2-.2-.1-.4-.3-.6-.4-.5-.3-.8-.4-1.1-.5zm4.8 3.5c-.2-.1-.3-.2-.5-.3-.1.1-.1.2-.2.2-.1-.1-.3-.2-.4-.2-.1-.1-.2-.2-.2-.3-.1.1-.1.3-.2.4h-.3v-.3c-.3-.2-.6-.3-.9-.5l-.6-.3s-.1-.3-.1-.4h.3v.3c.2 0 .3 0 .5.1.1-.1.2-.1.4-.2.1-.1.2-.2.2-.3-.1-.1-.2-.3-.3-.4.1 0 .2.1.3.1.1.1.2.1.2.2.1.1.1.2.2.3.1 0 .2-.1.3-.1.2.1.3.1.5.2 0 .1.1.2.1.2.1.1.2.1.2.2.1.1.1.3.2.4.1.1.3.2.4.2.1.1.2.3.3.4v.3c-.1-.1-.2-.2-.4-.2zm1.4 1s-.3-.1-.4-.2c-.1 0 0-.2 0-.2 0-.1-.1-.2-.1-.3.1 0 .2.1.3.1.1.1.3.1.4.2 0 .1.1.1.1.2s-.1.2-.3.2zm1 7.5h-.3c-.2 0 .1-.3.1-.3 0-.1.1-.2.1-.3.1.1.2.1.4.2-.2.2-.3.3-.3.4zm-19.7-.1s-.4 0-.5-.3c.1-.1.2-.2.2-.3 0-.2 0-.3-.1-.5.1.2.2.5.3.7.1.2.1.3.1.4zm64.7-35.1v-.5c-.4-.2-.9-.5-1.3-.7.3 0 .6-.1.8-.1-.3-.3-.6-.5-.8-.8.2 0 .5-.1.7-.1.2-.1.4-.3.6-.4-.3 0-.5 0-.8.1-.2-.1-.5-.1-.7-.2.2-.1.5-.2.7-.3h.6v-.5c.1.1.3.2.4.3 0 .3.1.6.1.8.2.1.3.2.5.3.2-.1.4-.1.6-.2.3.2.6.3.9.5.4.1.7.2 1.1.3.2 0 .4-.1.6-.1.2.3.3.6.5 1-.1.2-.2.5-.2.7 0 0 .4.7.1.7-.3-.1-1.1 0-1.1 0-.5-.1-.9-.2-1.4-.3-.1 0-.3-.1-.4-.1-.2.1-.3.2-.5.4-.3-.4-.6-.6-1-.8zm2.7 14.5c-.3 0-.7.1-1 .1l-.4-.4c-.1-.2-.2-.3-.3-.5.3-.1.6-.1.9-.2l.3-.6c-.2-.2-.4-.3-.6-.5.3-.1.5-.2.7-.2.1-.2.1-.3.2-.5.2.1.4.3.7.4.2-.2.4-.4.7-.6v-.3c.2.2.4.3.6.5v.3l.3.6c-.3.2-1 .5-1 .5 0 .1.1.2.1.4-.1.2-.2.5-.3.7-.3.2-.6.3-.9.3zm5.7 2.8c-.2 0-.5 0-.7-.1v.4c-.2 0-.4-.1-.7-.1l-.6-.3c-.2.1-.5.2-.7.2l-.6-.3c-.2 0-.4.1-.5.1-.3-.1-.5-.2-.8-.4-.3.1-.6.2-.8.3V74c.4-.2.9-.4 1.3-.6l.9.6.4-.4c-.1-.1-.2-.1-.3-.2-.2-.1-.3-.1-.5-.2l-.6-.3c0-.1 0-.2.1-.3.2 0 .4 0 .6.1.1-.1.1-.2.2-.4-.1-.1-.3-.2-.4-.3.2 0 .4-.1.6-.1l-.3-.6c.2.1.3.1.5.2.1.1.2.3.2.4.2-.1.4-.2.6-.2 0-.2.1-.4.1-.6-.1-.1-.2-.3-.3-.4.1-.1.2-.1.3-.2-.1-.2-.2-.3-.4-.5h-.6c.1-.3.1-.6.2-.8.1-.1.2-.3.2-.4-.2-.1-.3-.2-.5-.4h.4c0-.2-.1-.3-.1-.5-.1-.5-.1-1-.1-1 .1.2.2.3.3.5.3.1.3-.4.3-.4.2-.2.5-.4.7-.7.3 0 .6 0 .9.1v.6c-.2.1-.4.1-.6.2l.4.4c.2.1.4.3.5.4-.1.2-.2.3-.3.5-.1.2-.2.4-.4.5-.1.1-.3.1-.4.2.1.2.2.4.4.6 0 .3.1.5.1.8l.3.9c0 .3 0 .5-.1.8.1.2.2.3.4.5-.1.1-.2.1-.4.2l.4.4c.1.1.2.2.3.4.2.3.1.6.1.9zm-2.8-8.6l.4-.4c.1.2.2.4.3.5-.1.1-.3.2-.4.2l-.3-.3zm4.2.2s-.2-.4 0-.6l.2-.2c.1.2.1.5.2.7-.1 0-.2 0-.4.1zm-40-31.2c0 .1.1.3.1.3 0 .1 0 .3-.1.4h-.3c-.2 0-.3-.1-.5-.1-.1 0-.3 0-.4-.1-.2 0-.4.1-.5.1l-.2-.2c-.2 0-.4 0-.5-.1v-.3l.1-.2c0-.1.3-.1.3-.1.2-.1.3-.2.5-.2h.5c.1 0 .2.1.3.1h.6c0 .1.1.3.1.4zM64 30.8c.1 0 .3.1.3.1v.2c-.1 0-.1.1-.2.1-.1-.1-.2-.1-.3-.2l-.1-.1c-.2 0 .2 0 .3-.1zm-3.1-.4c.1 0 .2 0 .3-.1.1 0 .2.1.3.1.1 0 .2 0 .4-.1h.5c.1 0 .2.1.4.1l.1.1c-.1 0-.3.1-.4.1H62c-.1-.1-.2-.1-.3-.2-.2 0-.6-.1-.6-.1-.1 0-.1 0-.2-.1-.1.2-.1.2 0 .2zm-.6 1.9c-.1 0-.2 0-.2.1l-.1-.1h-.3s0-.1-.1-.1c0 0-.1-.2-.2-.2s-.1-.1-.1-.1h-.2s.1-.2.2-.2c.1-.1.2.1.2.1.1-.1.2-.1.3-.2h.5c.1 0 .2.1.3.1v.3l-.3.3zm1 .6v-.2l.4-.4.4-.4c-.1-.1-.1-.3-.2-.4-.1-.1-.2-.1-.4-.2-.1 0-.1 0-.2-.1-.1 0-.2 0-.2.1-.1 0-.1-.1-.2-.1-.2 0-.3-.1-.5-.1 0-.1-.1-.1-.1-.2v-.3h.4c.2.1.4.2.6.2.2 0 .3.1.5.1 0 .1.1.2.1.2.3 0 .5 0 .8.1.1.1.3.2.4.3 0-.1.1-.1.1-.2l.1-.1h.2c0 .1 0 .2-.1.3H63l.3.3h-.7s.2.2.3.2c.2 0 .5.1.4.1 0 .1.5.4.5.4h.9c.4 0 .7.1 1.1.1.2 0 .4.1.6.1.2.1.4.1.6.2.1 0 .3.1.4.1.1.1.1.2.2.3h.4l.4.4c-.1 0-.1.1-.2.1-.2 0-.3 0-.5.1l-.2.2c-.5-.1-1-.2-1.4-.3 0-.1-.1-.1-.1-.2-.1 0-.2.1-.4.1-.3-.1-.5-.1-.8-.2-.1-.1-.3-.1-.4-.2-.2-.1-.4-.1-.6-.2h-.5c-.2 0-.3 0-.5-.1v-.3c-.1 0-.3 0-.4.1-.1 0-.2.1-.2.1-.2 0-.4-.1-.6-.1l-.1-.1c.1.2 0 .2-.2.2zm4 25.8v-.3c.3.2.6.5.9.7.1.2.3.4.4.6 0 .1-.1.2-.1.3-.2-.1-.3-.2-.5-.3-.2-.1-.3-.2-.5-.3 0-.1.1-.2.1-.3 0-.1-.1-.2-.3-.4zm1.3 4.9h-.5c-.2 0 .2-.4.2-.4.2-.1.3-.1.5-.2l.1.1c-.1.2-.2.3-.3.5zm.2-1.2c-.2.2-.4.3-.6.5-.1.2-.3.4-.4.6-.1-.1-.2-.1-.3-.2 0 0 .1-.6.2-.7.1-.1.2-.2.4-.2.2-.1.5-.2.7-.2.2 0 .4 0 .7.1 0 .1 0 .2.1.3-.4-.1-.6-.1-.8-.2zm5.9 1.3l-.3.6H72c-.1-.1-.1-.2-.2-.3-.1-.1-.3-.1-.4-.2.1-.1.3-.2.4-.3-.1-.2-.2-.3-.3-.5l-.9.3c.1-.1.1-.2.2-.3v-.3c-.3-.1-.5-.1-.8-.2-.3-.1-.6-.3-.9-.4-.1-.1-.3-.2-.4-.3-.2 0-.4.1-.6.1 0 0-.1-.5-.1-.6.2 0 .4-.1.6-.1 0-.2-.1-.3-.1-.5.2 0 .4-.1.6-.1 0-.1.1-.2.1-.3.2-.1.5-.2.7-.4.1-.2.2-.5.3-.7.2-.1.4-.2.7-.3.3.1.5.1.8.2-.1.1-.2.2-.3.2-.2 0-.3.1-.5.1-.1.1-.2.2-.2.3l-.3.6s.5 0 .6.1c.1.1-.3.2-.3.2.1.1.1.2.2.3.4.2.8.3 1.1.5-.1.2-.1.4-.2.6 0 0 .4.2.6.2.1 0-.2.5-.2.5.2 0 .3 0 .5.1-.1.2-.3.4-.4.6.2.2.3.3.4.3zm2.1-19.1c-.1-.1-.2-.1-.3-.2h-.4c0 .2 0 .4-.1.6 0 0-.5-.4-.6-.5-.1-.1.1.5.1.5-.2.1-.4.2-.5.4 0 0-.3-.3-.4-.3-.1 0 .2-.3.2-.3s-.4-.3-.6-.3c-.2 0 .1-.2.1-.2-.1-.1-.2-.1-.2-.2 0 0-.5-.3-.5-.4 0-.1-.1-.5-.1-.5s-.3.1-.4.1c-.1 0 0 .4 0 .4l-.4-.2c-.2-.1-.3 0-.3 0 .1.1.2.2.2.3.1.2.1.3.2.5 0 .1.1.2.1.2.1.2.1.4.2.6h.5c0 .2-.1.3-.1.5-.1.1-.2.2-.4.2v.6s-.4-.5-.5-.6c-.1-.1-.3 0-.3 0-.1-.1-.3-.2-.4-.3-.1 0-.2.1-.3.1l-.3-.3-.6-.3c.1.2.2.3.3.5.1.1.2.3.2.4.1.1.3.2.4.3v.4c.2.1.5.1.7.2l-.3.6c-.1-.1-.2-.3-.3-.4-.3-.1-.5-.2-.8-.3-.2-.1-.4-.3-.7-.4-.2 0-.5-.1-.7-.1-.2 0-.5 0-.7-.1-.1-.2-.3-.4-.4-.5.1 0 .2 0 .3.1h.4c-.2-.1-.4-.3-.6-.4 0-.2.1-.4.1-.6-.1-.1-.3-.1-.4-.2 0-.2 0-.3-.1-.5-.2-.1-.4-.3-.6-.4v.4H65v-.2h-.8c-.2 0-.4-.1-.6-.1-.1-.1-.2-.2-.3-.4.1 0 .2 0 .3-.1 0-.1 0-.2.1-.3.1 0 .2-.1.2-.1.1-.1.2-.3.2-.4.1 0 .1 0 .2.1.1 0 .2.1.3.1.1 0 .1.1.2.1h.6c.3.1.5.2.8.4h1.1c-.1-.4-.2-.7-.3-1.1.1 0 .1-.1.2-.1.2-.1.4-.1.5-.2.1-.1.2-.1.2-.2.1 0 .3.1.4.1 0-.1.1-.2.1-.3l.2-.2c.1-.1.2-.1.3-.2v-.5c-.1-.1-.2-.2-.2-.3l.3-.3c.1-.1-.2-.4-.2-.4-.2 0-.5.1-.7.1-.1-.1-.2-.2-.3-.2 0 0 .4-.2.4-.3.1-.1-.4-.2-.6-.2-.2 0 .2-.2.4-.2.1 0 .2-.3.2-.3h-.4l-.3-.3c0-.1 0-.3.1-.4 0 0-.5-.5-.7-.5-.1 0 0 .3 0 .4 0 .1-.6 0-.6 0-.1-.1-.1-.2-.2-.3-.2-.1-.4-.2-.6-.2-.1 0-.2.1-.2.1v.5c-.1 0-.3-.1-.4-.1v-.3c-.1-.2-.3-.3-.4-.5 0 .2 0 .5.1.7-.2-.1-.4-.3-.5-.4-.2 0-.3-.1-.5-.1-.2-.1-.3-.2-.5-.3-.1 0-.2-.1-.3-.1h-.6c-.1 0 0-.3 0-.3-.1-.1-.2-.1-.3-.2-.1 0-.2 0-.3-.1 0-.1-.1-.2-.1-.2 0-.1-.1-.2-.1-.3h.4c-.1 0-.2-.1-.3-.1 0 0-.4-.1-.5-.2-.1 0 .2-.2.2-.2s-.2-.3-.3-.3c-.1 0 0-.2 0-.2.2-.1.4-.1.6-.2l.6-.3c.2-.1.5-.2.7-.3.3 0 .5.1.8.1.2.1.5.1.7.2.3 0 .6.1.8.1.1.1.2.1.3.2h-1.5l-.3.3c-.1.1-.3.2-.4.3 0 .1-.1.2-.1.4v.3c-.2.1-.4.1-.5.2h.6l.3.3v-.2l.2-.2-.1-.1s-.1-.2-.1-.3c.1-.1.2-.1.2-.1.1 0 .3.1.4.1.1-.1.2-.1.2-.2 0 0-.2-.1-.4-.1-.1 0-.1-.3-.1-.3h.5c.2 0 .1-.2.1-.2s.4-.1.6-.1h.5c.2 0 .4 0 .5-.1.2.1.3.1.5.2 0 0-.1.2-.1.3.2.3-.1.3-.1.3-.1.1-.2.1-.3.2 0 0 0 .2.1.3.1.1-.1.2-.1.2l-.3.3s.2.2.3.2c.1 0 .1-.2.1-.2.1-.1.2-.1.3-.2.1.1.2.1.3.2.1 0 .1.1.2.1l-.2.2.2.2.2-.2c.1-.1.2-.1.3-.2l.3.3c.1 0 .2-.1.3-.1-.1-.1-.2-.2-.3-.2 0-.1 0-.2-.1-.2h.6c.1.1.2.1.3.2.2.1.3.3.5.4.3 0 .6.1.8.1.1 0 .2.1.3.1 0 .1.1.1.1.2v.5c-.1 0-.1.1-.2.1-.1.1-.2.1-.4.2.1 0 .3.1.4.1 0 0 .2.2.4.2.1 0 .2 0 .3-.1v.3h.5s.2.3.1.4c-.1.1-.4.3-.4.3s.3.2.5.1c.2 0 .3-.1.5-.1l.3.3c-.1 0-.1.1-.2.1v.4c.2 0 .3-.1.5-.1.1.1.2.2.2.3-.1.2-.1.3-.2.5-.1 0-.2-.1-.2-.1-.1 0-.2.1-.3.1.1.1.3.2.4.3.1.1.1.2.2.3h-.3c-.2 0-.3-.1-.5-.1 0 .1 0 .1.1.2h-.4l-.2.2c.2.1.4.1.6.2 0 .1.1.2.1.2.1.1.2.3.2.4 0 .1 0 .2.1.2.2 0 .3.1.5.1.1 0 .3.1.4.1 0 .1-.1.2-.1.3.1 0 .2 0 .3-.1l.2.2c0 .1-.1.2-.1.3 0 0 .4.1.5.1.2 0 .1.2.1.2 0 .1.1.2.1.3.2 0 .4-.1.6-.1.1.2.2.4.2.5v.2c.1 0-.1.1-.2.2zm-8.5-4.2l.5-.5c.1 0 .3.1.4.1 0 .1 0 .2.1.3l-.4.4h-.5c0-.1 0-.2-.1-.3zm1.4.2c.1 0 .2-.1.3-.1l.2.2c-.1.1-.2.1-.2.2-.2-.1-.2-.2-.3-.3zm12.9 11.7s-.1-.9-.1-1c0-.1-.6-.5-.7-.5-.1 0-.1-.9-.1-.9-.1-.2-.1-.5-.1-.7.3-.1.6-.3.9-.4 0 0-.7-.2-.8-.2-.2-.1.4-.3.4-.3s-.2-.4-.5-.4c-.2 0 .1-.3.1-.3s-.1-.4-.2-.5c-.1-.1-.1-.4-.1-.4s.5-.3.7-.4c.2-.1-.2-.2-.4-.4s.4-.3.5-.4c.2-.1.4-.3.4-.3h.6c.3.1.6.1.9.2l.3-.6c.2 0 .4.1.5.1 0-.2-.1-.4-.1-.5.1-.1.3-.2.4-.4l-.6-.3c-.1 0-.3-.1-.4-.1 0 0-.4-.6-.5-.7-.1-.1.1.3.1.3 0 .3.1.6.1.8 0 .1-.1.1-.1.2h-1s-.6-.4-.7-.5c-.1-.1.3-.1.3-.1s-.3-.3-.5-.4c-.1-.1.5-.3.5-.3l.3-.3s.4.1.5.2c.1 0-.2-.2-.2-.2 0-.1-.1-.3-.1-.4.2.1.4.1.5.2.2.1.5.2.7.3.2.2.4.3.6.5.2.1.4.1.5.2.2-.2.5-.3.7-.5-.3-.2-.6-.3-.9-.5 0 0-.8-.5-.9-.5-.1 0-.3-.4-.3-.4-.1.1-.3.1-.4.2 0 0-.4-.2-.6-.2-.1 0 .3-.4.3-.4.1-.2.2-.4.3-.5.2.1.4.1.6.2 0 0 .2-.3.1-.4-.1-.1-.2-.8-.2-.8-.1-.1-.2-.3-.3-.4.1 0 .3-.1.4-.1l-.3-.6c-.2-.1-.3-.3-.4-.4 0-.1-.1-.3-.1-.4-.2-.1-.4-.1-.6-.2-.1-.2-.3-.3-.4-.5-.3-.2-.5-.3-.8-.5-.1 0-.1 0-.2-.1h-.5c-.1-.1-.1-.2-.2-.3-.3 0-.5-.1-.8-.1-.2 0-.4 0-.6.1 0-.1 0-.2.1-.3-.2-.1-.3-.2-.5-.2-.1.1-.3.2-.4.2v-.3c-.1 0-.2-.1-.2-.1-.1.2-.2.3-.3.5-.1-.1-.2-.2-.3-.2-.2 0-.4-.1-.6-.1 0-.1-.1-.2-.1-.2.1-.1.2-.1.3-.2-.1 0-.3-.1-.4-.1 0-.1-.1-.1-.1-.2s-.1-.2-.1-.2c-.1-.1-.1-.2-.2-.3h.4c.1.1.1.2.2.3.2 0 .3 0 .5.1-.1 0-.1-.1-.2-.1h.8c.2 0 .4.1.6.1.3 0 .6.1.9.1.1 0 .1.1.2.1s.2.1.3.1c0-.1.1-.1.1-.2-.2-.1-.3-.1-.5-.2 0 0-1-.2-1.1-.1-.1 0 .1-.2.1-.2l-.2-.2-.3.3c-.2 0-.3 0-.5-.1-.1-.1-.2-.1-.3-.2l-.2-.2c-.1-.1-.2-.2-.2-.3l-.3-.3c.2 0 .4-.1.5-.1.1 0 .2 0 .3.1.3.1.6.1.9.2.3 0 .6.1.8.1h.7c.2.1.3.1.5.2.3 0 .5.1.8.1h.7c0-.1.1-.1.1-.2h.2c.1-.1.2-.2.2-.3-.2-.1-.3-.1-.5-.2-.1 0-.2.1-.3.1-.1 0-.2 0-.4-.1 0-.1-.1-.2-.1-.2h-.5c-.1 0-.1-.1-.2-.1.1 0 .1-.1.2-.1s.1-.1.2-.1.3.1.4.1c.8 0 1.6.1 2.4.1.2.1.3.1.5.2.1-.1.3-.2.4-.3h.6c.1.1.1.3.2.4.1-.1.1-.2.2-.4.6.1 1.3.2 1.9.3.6.1 1.1.1 1.7.2 0 .1.1.2.1.4v.5c.2 0 .4-.1.6-.1 0 0 1.2.7 1.3.8.1.1.1-.3.1-.3.1-.1.2-.1.3-.2.1-.2.2-.3.3-.5 0 0 .7.3 1 .4.3.1.4.8.4.8.1.2.3.4.4.5.5.1 1 .1 1.5.2-.3-.1-.5-.3-.8-.4h-.1l-.5-.5c-.1-.2-.2-.3-.3-.5.4.1.8.1 1.1.2.3.1.6.1.9.2.1-.1.3-.2.4-.3h.6c.2.1.5.2.7.3 0 .1.1.2.1.3h.9c.3 0 .6-.1.9-.1.3.1.6.1.9.2 0 0 2.3.8 2.4.8.1 0 1.7.7 1.7.7.8.3 1.6.6 2.3.9h-.9c.2.1.3.2.5.2h.5c.2 0 .4.1.5.1.1.1.1.2.2.4h-.7c.2 0 .4.1.6.1.2.1.5.1.7.2.1.1.1.2.2.3.3.1.5.2.8.3.2.1.4.3.5.4H106c-.2-.1-.3-.2-.5-.2-.3-.1-.6-.1-.8-.2-.2-.1-.4-.2-.6-.2-.8-.3-1.5-.6-2.3-.8-.3-.1-.6-.3-.9-.4-.3 0-.6 0-.9-.1-.3 0-.6-.1-.9-.1-.1 0-.2.1-.3.1.4.1.7.1 1.1.2.4.1.7.1 1.1.2.2.1.4.2.7.3.6.2 1.1.3 1.7.5-.1.1-.1.2-.2.4.5.2.9.3 1.4.5.1-.1.1-.2.2-.2 0 0 .5.1.6.1.1 0 .7.3.7.3-.2.1-.3.2-.5.3H104c.4.1.7.2 1 .3h1.1c.1 0 .7 0 .9.1.2.1.5.4.5.4.3 0 .5 0 .8-.1 0 0 .7.2.9.2.1 0 1 .6 1 .6.3.2.7.4 1 .5 0 .1-.1.2-.1.3h-1.2c-.2-.1-.5-.2-.7-.3-.4-.1-.8-.2-1.1-.3.3.2.7.4 1 .6-.2.1-.4.2-.6.2-.2-.1-.5-.2-.7-.4 0 0-1.2-.6-1.3-.7-.1-.1-.2.2-.3.3-.1.1.6.1.6.1.3.2.7.5 1 .7-.2.1-.3.2-.5.3-.2-.1-.5-.2-.7-.3-.1.2-.2.3-.3.5 0 0-.7.1-.8.2-.2 0 0 .3.1.4.1 0-.1.3-.1.3s-.3.2-.2.3c.2.1.7.4.7.4 0 .3-.1.6-.1.8-.2-.2-.4-.3-.6-.4 0 0-.8-.3-.9-.3-.1 0 .2.4.2.4v.8c0 .2-.1.3-.1.5 0 0-.3-.2-.4-.3-.1-.1-.1.5-.1.5.3.2.5.3.8.5-.2.1-.4.1-.6.2-.2-.2-.4-.3-.6-.5h-.7c.2.2.4.3.6.5 0 .1 0 .2.1.3h-.9c-.1 0-.3.1-.4.1 0 .2.1.4.1.6-.1.2-.3.4-.4.5-.2-.2-.3-.4-.5-.7 0 0 .2.7.3.8.1 0 .1.7.1.8 0 .1-.1.7-.1.7s-1-.6-1.1-.8c-.1-.1-.3-.9-.3-.9-.3-.1-.5-.2-.8-.2-.1.2-.2.3-.3.5-.4 0-.7 0-1.1.1 0 0 .7.5.9.4.2-.1.9.2 1 .1.1-.1 1 .7 1 .7-.4.1-.9.3-1.3.4-.3-.1-.7-.1-1-.2-.2.1-.3.1-.5.2-.2-.1-.3-.1-.5-.2l-.9.3c-.6-.2-1.1-.3-1.7-.5h-.9c-.2-.2-.3-.4-.5-.7-.1.3-.2.6-.4 1h-1.7c-.4.3-.8.5-1.1.8-.1-.1-.1-.2-.2-.3-.3.1-.5.2-.8.2-.1-.2-.1-.4-.2-.6 0 0-1.1-.2-1.3-.3-.2-.1-.3.1-.3.1-.2 0-.4.1-.6.1 0 .2.1.4.1.6 0 0-.6.6-.6.7 0 .1-1.1.4-1.1.4-.3.3-.7.5-1 .8l-.9.6c.1.2.1.4.2.7 0 0-.6.3-.8.3-.2 0-.2-.7-.2-.7-.3-.1-.5-.2-.8-.4 0-.3-.1-.5-.1-.8-.3.1-.7.1-1 .2-.2-.6-.3-.8-.4-1.1zm24.6 75.4c0 .1-.3.5-.3.5-.2.1-.3.1-.5.2 0 0 .1-.3 0-.3-.1.1-.4.5-.4.5-.2.1-.3.2-.5.3-.3.2-.7.4-1 .5-.2.1-.5.2-.7.2-.4.2-.7.4-1.1.6l-.9.3h-.7c-.1-.1-.1-.2-.2-.2.1-.1.2-.3.3-.4v-.3c.2-.1.5-.3.7-.4.2-.1.5-.2.7-.2.1 0 .3-.1.4-.1 0-.1 0-.2-.1-.4l.4-.4c.1 0 .2-.1.4-.1.2-.1.5-.1.7-.2.2 0 .3-.1.5-.1s.3.1.5.1c.1 0 .2-.1.2-.1.1-.1.3-.1.4-.2.2-.1.4-.1.5-.2.2-.1.4-.3.6-.4.1 0 .2.1.2.1.2.2-.1.6-.1.7z"/><path d="M126.9 63.7c.2-.1.3-.2.5-.2-.1-.1-.1-.2-.2-.4h-.2c0 .2-.1.4-.1.6zM129 68.2c.1.3.1.6.2.9l-.2.2.2.2c0 .1-.1.2-.1.3.1.1.3.2.4.4 0 .1.1.3.1.4-.1.2-.1.3-.2.5-.1.4-.1.7-.2 1.1.1 0 .1-.1.2-.1 0 .1.1.2.1.3 0 .1 0 .2-.1.3l.6.6h.2c0-.2.1-.3.1-.5v-.1c-.1-.1-.2-.2-.2-.3V72s.1 0 .1-.1c-.2-.9-.5-1.9-.8-2.8-.1-.1-.4-.9-.4-.9zM114.1 92.9z"/><path d="M126.7 62.7c-.1 0-.2-.1-.3-.1-.2.1-.3.1-.5.2-.1-.1-.2-.3-.3-.4-.1-.1-.3-.2-.4-.3 0 .1.1.2.1.4s.1.3.1.5c-.1-.2-.3-.3-.4-.5 0 .1-.1.2-.1.4-.1 0-.1 0-.2-.1 0-.1.1-.3.1-.4-.1.1-.2.1-.3.2v-.2l-.6.3c0-.2 0-.3-.1-.5l-.2.2c.1.1.1.3.2.4-.1 0-.2-.1-.4-.1-.1 0-.2 0-.3-.1-.1.2-.3.4-.4.6-.2 0-.5.1-.7.1 0 .1.1.2.1.2h.4c-.1.1-.3.2-.4.3-.1.1-.1.2-.2.3-.1-.2-.2-.4-.2-.7-.1.1-.1.2-.2.4 0 .1-.1.3-.1.4-.4.1-.7.1-1.1.2-.1.1-.2.2-.3.2 0 .1.1.2.1.3-.4 0-.8.1-1.1.1v.3c-.1-.1-.3-.2-.4-.2-.5.2-.9.4-1.4.7v.3c.2-.1.4-.1.6-.2l-.5.5c-.2 0-.4-.1-.6-.1 0-.2.1-.3.1-.5-.1-.1-.2-.1-.4-.2-.1-.1-.2-.1-.3-.2v.3c0 .1.1.1.1.2-.2 0-.4.1-.5.1-.2-.1-.3-.1-.5-.2v.4c-.2 0-.3.1-.5.1-.1-.1-.2-.1-.2-.2l-.2.2c.1.1.2.2.3.2h-.6l-.4-.4c-.1.1-.1.2-.2.2.1.1.3.2.4.2h-.5s-.1.3 0 .3.4.3.4.3h.3c0 .1.1.2.1.2-.3-.1-.5-.1-.8-.2-.1-.1-.2-.1-.4-.2-.1.2-.1.3-.2.5.1.1.3.2.4.3 0 0-.3.4-.2.4.1 0 .9-.2.9-.2-.1.1-.3.2-.4.3l-.3.3c-.2 0-.3-.1-.5-.1h-.3c0 .1.1.2.1.3.2 0 .4 0 .6.1-.1.2-.1.3-.2.5 0 0-.5 0-.4.1v.5c.2.1.3.2.5.3 0 .1.1.2.1.3 0 0 1.5-.2 1.6-.2l.3.3c.2-.1.5-.2.7-.3l-.3.6c.1.2.1.3.2.5-.1.1-.2.3-.3.4.1.4.1.9.2 1.3-.1.1-.1.2-.2.3l-.3.9c.2.1.3.2.5.3h.5v-.3c.2-.1.3-.1.5-.2l.6.3c.1 0 .2.1.4.1l.5-.5c-.1 0-.3.1-.4.1.1-.1.1-.2.2-.4.2-.2.3-.4.5-.6.1-.2.2-.5.3-.7h.5c.1.1.1.2.2.3.2-.1.4-.2.6-.2-.1-.1-.1-.2-.2-.3.2 0 .3 0 .5-.1 0-.2.1-.3.1-.5 0-.1-.1-.2-.1-.3V71c-.1-.1-.2-.1-.2-.2h-.3c.1-.4.3-.7.4-1.1l.3-.3c.1-.2.1-.4.2-.6 0 0 0-.2.2-.1l.2.1c.1-.1.1-.3.2-.4.1 0 .3 0 .4.1.1-.1.1-.2.2-.3l.6.3c.2-.1.5-.2.7-.3.1-.1.1-.3.2-.4.1-.2.1-.3.2-.5.2-.1.3-.1.5-.2.1 0 .3-.1.4-.1.1.1.2.2.4.2.2.1.3.2.5.2.1.1.2.3.2.4-.1.1-.1.2-.2.2v.3c-.1 0-.2 0-.3.1h-.2c-.1.2-.2.3-.3.5l-.6.3s-.8.1-.9.1c-.1 0-.2.1-.2.1 0 .1-.1.2-.1.3 0 .2-.1.4-.1.7-.1.2-.2.3-.3.5 0 .2-.1.4-.1.6.1.1.2.2.4.3.1.2.1.4.2.5h-.4c0 .1-.1.2-.1.3l.2.2.2-.2v.5h.7c.2-.1.3-.1.5-.2l.6.3h.5c0 .1-.1.2-.1.3.1.2.2.4.3.5.1.1.2.1.3.2.1.1.2.3.3.4-.2-.1-.4-.2-.7-.3-.1 0-.3.1-.4.1h-.3l-.3-.3c-.1 0-.2-.1-.3-.1 0 .1 0 .1-.1.2-.2-.2-.4-.3-.6-.5-.2 0-.4-.1-.6-.1h-.4c-.1.2-.2.5-.3.7.1 0 .2 0 .2.1l-.3.3c-.1.1-.2.2-.2.3v.4c-.2 0-.4 0-.7.1V75c0-.1 0-.2.1-.4-.2 0-.5 0-.7.1-.2.2-.3.5-.5.7-.2.2-.3.5-.5.7 0 .1 0 .2-.1.4-.1.1-.2.1-.4.2 0-.1.1-.3.1-.4-.2.1-.3.1-.5.2 0 .1-.1.2-.1.3-.2.1-.3.2-.5.4 0-.1 0-.1-.1-.2h-.5v-.4c.1.1.2.1.3.2v-.3c-.1 0-.3-.1-.4-.1-.1.1-.3.1-.4.2-.5-.1-1-.2-1.5-.4-.3-.3-.6-.5-.8-.8-.1 0-.2.1-.3.1-.1 0-.2 0-.4-.1-.1.1-.2.1-.2.2 0-.1-.1-.2-.1-.4l-.3-.3v-.8c.1 0 .2-.1.3-.1-.1 0-.1-.1-.2-.1.1-.2.3-.3.4-.5l.5-.5c.1.1.1.2.2.3.1-.1.2-.2.2-.3-.1-.1-.2-.3-.3-.4.1-.1.2-.3.2-.4-.1-.1-.1-.2-.2-.2h.3l.1-.1c0-.1.1-.2.1-.3h-.5c-.1.1-.2.2-.2.3-.2-.1-.4-.2-.5-.3-.2.1-.3.2-.5.3.1.1.5-.1.5-.1.1.1.2.1.3.2v.3h-.4c-.1 0-.2.1-.3.1-.1-.1-.2-.2-.2-.3l-.3.6c.1.1.2.2.3.2-.1.1-.2.2-.3.2 0 .2-.1.3-.1.5.1 0 .1.1.2.1 0 .1-.1.2-.1.3-.1 0-.1 0-.2.1 0 .1.1.2.1.3v.2c-.1.1-.2.1-.3.2 0 .1.1.2.1.4-.1 0-.3-.2-.3-.2 0 .1 0 .3-.1.4l-.3-.3c-.1 0-.2 0-.4.1 0 .1-.1.2-.1.3h-.2V75c-.1-.1-.3-.1-.4-.2-.1-.1-.2-.1-.2-.2-.2 0-.4.1-.7.1l-.6.3c-.1.2-.2.3-.3.5-.1.1-.3.2-.4.2l-.6-.3c-.4 0-.7 0-1.1-.1 0 .2-.1.4-.1.6-.3 0-.6.1-.8.1-.1.1-.3.2-.4.3l-.6-.3v-.4h-.3c-.1.3-.2.7-.3 1-.3-.1-.6-.1-.8-.2 0-.1-.1-.2-.1-.2-.3-.1-.7-.2-1-.3-.1.1-.1.3-.2.4.2.1.3.3.5.4 0 .2.1.4.1.7.1 0 .2-.1.3-.1 0 .2.1.5.1.7 0 0-.4.4-.3.5.1 0 .6.9.6.9-.1.4-.3.8-.4 1.2-.2.2-.3.4-.5.6h-.9l-.4-.4c-.3-.2-.7-.3-1-.5-.4-.2-.7-.4-1.1-.6-.1-.1-.1-.2-.2-.3-.2 0-.4-.1-.6-.1 0 .1-.1.1-.1.2-.1-.1-.2-.1-.3-.2-.2 0-.4.1-.7.1.1.1.2 1 .2 1-.1.1-.2.1-.3.2 0 .3 0 .5-.1.8-.1.2-.3.4-.4.6l-.7.7c-.1.2-.2.3-.3.5h.3c0 .1-.1.1-.1.2h-.3c0 .1.1.2.1.3-.1.2-.1.3-.2.5s-.3.3-.4.5c.1 0 .2.1.4.1l.2.2c0 .1 0 .2.1.3h.7c.1.2.1.5.2.7 0 .2.1.3.1.5.4 0 .8 0 1.1-.1.3.2.6.3 1 .5.3-.2.5-.3.8-.5h.8c.1-.2.2-.3.3-.5.3-.1.5-.2.8-.3 0-.2-.1-.4-.1-.6l1.2-.6c.6-.1 1.1-.3 1.7-.4.1-.3.3-.6.4-.9.2 0 .5-.1.7-.1.3.2.5.4.8.7h1.1c.3-.1.7-.2 1-.3.2.3.4.6.7.9-.1.6-.1 1.2-.2 1.9.1.3.2.5.3.8l.6.6c.2.5.3 1 .5 1.5-.1.3-.1.6-.2.9-.2.2-.4.5-.6.7.1.1.1.2.2.2l1.2-.9v-.9c.1-.1.3-.2.4-.3.1.2.2.5.3.7.1-.1.2-.1.4-.2-.1-.3-.3-.6-.4-.8-.1-.2-.3-.4-.4-.6l.3-.3c-.2-.2-.5-.4-.7-.6 0-.6-.1-1.2-.1-1.8-.1-.2-.3-.5-.4-.7.2-.2.3-.4.5-.6 0-.2 0-.3.1-.5.3.1.5.1.8.2-.1.1-.2.2-.3.4-.1.2-.1.4-.2.6.1 0 .3-.1.4-.1.2-.1.3-.3.5-.4v.5c-.1.3-.2.7-.3 1 .5.9 1.1 1.8 1.6 2.7-.1.2-.2.3-.3.5-.1.1-.2.2-.3.4 0 .3.1.6.1.8 0 .4.1.7.1 1.1 0 .2-.1.3-.1.5.2.1.3.2.5.4 0 .2.1.3.1.5-.1-.2-.2-.4-.3-.5h-.4c-.1.3-.1.6-.2.9.2.1.4.2.6.4.2-.1.3-.1.5-.2.1-.1.1-.3.2-.4.1.1.3.1.4.2.1 0 .2.1.4.1 0 0-.1-.2-.2-1l-.1-1.1c.1-.2.2-.4.3-.7 0 .2 0 .5.1.7.2 0 .4-.1.6-.1v-.5c.4.2.7.4 1 .5 0 0 .2.3.1.4 0 .1-.3.2-.3.2.3-.1.5-.1.8-.2.3 0 .6 0 .9-.1-.1-.2-.1-.4-.2-.7 0-.2.1-.4.1-.6.2-.2.4-.4.7-.5.2-.2.4-.4.6-.7.3-.3.5-.6.8-.8 0 0 .8-.7.8-.6 0 .1.6.3.6.2 0 .2.1.5.1.7h.4c0 .1.1.2.1.4-.3 0-.5 0-.8.1.1.2.2.4.3.5-.1.2-.2.3-.3.5h1.1c.2.1.4.1.6.2.1-.1.1-.2.2-.3-.2-.1-.4-.2-.7-.3 0-.1.1-.2.1-.3 0 0-.2-.8-.2-.7 0 .1.5.6.5.6.4-.1.9-.2 1.3-.3 0 0 1 .2.9.2-.1 0-1 .2-1 .2v.5c-.3.1-.6.2-.9.4v.3c.1.3.2.6.3 1 .1.4.2.7.3 1.1l.3.6c-.1.3-.1.5-.2.8-.3.1-.6.3-.9.4l-.3-.3c-.3-.1-.5-.2-.8-.2-.2-.3-.4-.6-.7-.9 0-.2 0-.4-.1-.6-.2 0-.4-.1-.6-.1-.2-.1-.3-.2-.5-.3-.4.1-.7.1-1.1.2-.3-.1-.5-.2-.8-.2v.4c-.2 0-.3-.1-.5-.1s-.5-.1-.7-.1c-.2 0-.4.1-.6.1l-.4.4c.1.1.2.2.3.2 0 .2-.1.4-.1.6h-.4c0 .2 0 .4-.1.6 0 .2 0 .4.1.6.1.2.1.5.2.7.1.1.3.2.4.3v.7h.4l.4-.4c.1.2.2.3.4.5.1.2.2.3.2.5h1.2l.2.2c.1 0 .2.1.2.1-.3.6-.6 1.2-1 1.8-.5.6-1 1.2-1.6 1.7-.3-.1-.6-.1-.8-.2-.2 0-.4 0-.6-.1v-.4c-.2 0-.5-.1-.7-.1-.1.1-.1.2-.2.3-.2-.1-.3-.3-.5-.4l-.9-.6c-.1-.2-.2-.3-.3-.5-.1 0-.2-.1-.4-.1 0-.1.1-.2.1-.3-.3-.2-.6-.3-.9-.5V97l-.6-.6c-.2 0-.5.1-.7.1-.2.1-.4.3-.6.4v.6c-.2.1-.4.3-.7.4l-1.5-1.2c-.1-.4-.1-.8-.2-1.2-.3-.3-.6-.7-.9-1-.2-.1-.3-.2-.5-.4-.2-.4-.3-.8-.5-1.1.2-.2.4-.4.7-.5.1-.2.3-.4.4-.6v-.4c.2-.2.5-.4.7-.6-.1-.1-.3-.1-.4-.2-.1-.2-.2-.3-.3-.5-.2 0-.5.1-.7.1-.3-.2-.5-.4-.8-.6-.1.1-.2.1-.3.2 0-.2 0-.3-.1-.5-.1 0-.3.1-.4.1-.5-.2-1-.5-1.4-.7-.2 0-.3.1-.5.1-.2-.2-.5-.3-.7-.5-.4.1-.9.2-1.3.3-.2-.1-.4-.1-.6-.2-.2.1-.3.2-.5.3H98c0-.1-.1-.3-.1-.4h-.5c-.1-.1-.2-.2-.4-.3-.1 0-.2 0-.3-.1-.1-.1-.1-.3-.2-.4v-.4c-.1 0-.1 0-.2-.1-.2.1-.3.2-.5.3l-.9.9c-.5.1-.9.2-1.4.3-.2.1-.5.1-.7.2l-.7.7c-.1.3-.3.5-.4.8 0 .2-.1.4-.1.7-.4.3-.7.5-1.1.8-.6.2-1.3.4-1.9.6-.4.2-.9.4-1.3.6-.6.6-1.3 1.2-1.9 1.7-.4.3-.7.6-1.1.8-.1.2-.3.4-.4.7 0 .2.1.5.1.7-.1.1-.2.3-.3.4-.1.4-.1.7-.2 1.1-.4.6-.7 1.2-1.1 1.7-.3.3-.6.6-1 .9-.1.6-.2 1.3-.3 1.9.1.2.2.4.4.6l.3 1.5c0 .7 0 1.5-.1 2.2.2.4.3.7.4 1.1.2.3.4.7.5 1 .2.4.4.8.7 1.3.5 0 1.1-.1 1.6-.1.3.2.6.3.9.5l.3.3s1.5-.1 1.6 0c.1 0 1.3.3 1.3.3.4 0 .9-.1 1.3-.1.2.2.5.3.7.5 0 0 .3.7.2.7-.1.1-.3.2-.3.2.1.2.1.4.2.6.5.1.9.2 1.4.3.1.4.1.7.1 1-.4.5-.9 1.1-1.3 1.6-.3.2-.5.5-.7.7.2.5.4 1.1.6 1.6 0 0 .1.8 0 .9 0 .1-.4 1.8-.4 1.8-.1.1-.2.1-.3.2-.1.1-.2.2-.3.4-.1.2-.1.5-.2.7l-.4.4c-.3.1-.6.3-.8.4l-1.2.9c-.2.3-.3.5-.5.8.1.2.2.3.3.5-.1.2-.1.3-.2.5v.9c-.3.5-.7 1-1 1.4 0 .2-.1.4-.1.5l.2.2c0 .2-.1.4-.1.5 0 .2-.1.4-.1.6 0 0-.5.1-.5.2l-.2.4c.2.1.3.1.5.2h.9c.3 0 .7.1 1 .1.2 0 .4.1.6.1h1.4c.8-.2 1.7-.3 2.5-.5h.4c.4-.2.7-.4 1.1-.6v-.1c.2 0 .5-.1.7-.1h.9c.2-.2.5-.4.7-.7.1-.3.3-.5.4-.8.3-.1.6-.1.8-.2.1-.1.3-.1.4-.2.2 0 .3 0 .5.1.5 0 1-.1 1.5-.2.3-.1.6-.3.8-.4.6-.5 1.1-1.1 1.7-1.7 0-.1-.1-.3-.1-.4.1-.2.3-.4.4-.7.2-.1.4-.2.6-.4v-.5c.3-.2.6-.5.9-.7.3-.2.5-.3.8-.5.3-.1.6-.1.9-.2.4-.2.8-.5 1.2-.7 1-.3 2.1-.7 3.1-1l.3-.3c.1 0 .3 0 .4-.1l1.2-.9c.3-.3.7-.6 1-.9.4-.4.9-.7 1.3-1.1.3-.3.6-.7.8-1-.3 0-.6.1-.9.1-.1-.1-.3-.1-.4-.2-.4.1-.7.1-1.1.2 0-.1-.1-.1-.1-.2h-.7c-.1-.3-.1-.7-.2-1 .1-.1.2-.1.4-.2.1-.1.1-.2.2-.4 0-.2-.1-.4-.1-.6 0-.4.1-.7.1-1.1-.1-.3-.2-.6-.4-.9.2-.5.4-1.1.7-1.7 0-.4-.1-.8-.1-1.2.2-.3.4-.7.6-1l.3-.9c0-.3-.1-.6-.2-.9.1-.2.2-.5.3-.7.1-.4.1-.8.2-1.2.1-.4.1-.9.2-1.3 0-.2.1-.5.1-.7 0 0 .2-1 .2-1.2 0 .1-.1 1.4-.1 1.4.2 0 .3-.1.5-.1l.3.3c0 .6-.1 1.3-.1 1.9-.1.3-.1.6-.2.9 0 .3 0 .7.1 1-.2.4-.4.7-.6 1.1-.1.4-.3.8-.4 1.2.1.3.1.7.2 1-.1.3-.2.7-.3 1v.8s-.6 1.4-.7 1.5c-.1.1-.6 1.2-.6 1.2v.3c.2.1.4.1.6.2.1-.1.2-.2.4-.3.2.1.3.1.5.2.2 0 .4-.1.6-.1h.5l.9-.3c.4-.1.8-.2 1.2-.2.1-.1.2-.3.4-.4.5 0 .9-.1 1.4-.1l.4-.4c.2 0 .3.1.5.1.1-.1.2-.3.3-.4h.7l.3-.6c.2-.1.4-.3.6-.4.4-.3.7-.7 1.1-1v-.3c0-.2.1-.3.1-.5 0 0-.1-.4-.2-.4s-.2-.3-.2-.3v-.8c.1-.2.3-.5.4-.7h-.2l-.3.3c-.2.1-.4.3-.7.4-.2.1-.4.1-.6.2l-.3-.3c-.1 0-.2 0-.3.1-.1-.1-.1-.2-.2-.3.1-.1.2-.3.3-.4.1-.2.2-.5.3-.7-.1.1-.2.2-.4.3h-.3c.2-.3.3-.6.5-.9-.1-.2-.1-.4-.2-.6 0-.1.1-.2.1-.3v-.4c0-.4.1-.7.1-1.1.1-.1.2-.3.3-.4 0 .1.1.1.1.2.1-.2.1-.3.2-.5 0 .1.1.2.1.3h.2c.1.1.1.2.2.3h.2v.6c-.1.1-.1.3-.2.4v1.9c.1.2.3.4.4.6.3 0 .6-.1.8-.1.1 0 .2-.1.3-.1v.5c-.1.2-.1.3-.2.5v.5c.1.1.3.1.4.2.2.1.3.1.5.2 0 .1.1.2.1.4.2 0 .3-.1.5-.1l.2.2c.4.1.9.2 1.3.2-.1.2-.1.3-.2.5 0 0 0 .1.1.1.3-.6.5-1.2.8-1.8 5-11.7 5.9-24.2 3.2-35.7 0 .2-.1.3-.1.5h-.2l-.6-.6c0-.1 0-.2.1-.3 0-.1-.1-.2-.1-.3-.1 0-.1.1-.2.1.1-.4.1-.7.2-1.1.1-.2.1-.3.2-.5 0-.1-.1-.3-.1-.4-.1-.1-.3-.2-.4-.4 0-.1.1-.2.1-.3l-.2-.2.2-.2c-.1-.3-.1-.6-.2-.9 0 0 .4.8.4.9-.6-1.9-1.2-3.8-2-5.6-.2.1-.3.2-.5.2.1-.2.1-.4.2-.6h.2c-.1-.2-.1-.3-.2-.5-.1.1-.1.2-.2.3.4-.6.3-.7.3-.8zM130.1 72.3c.1.1.2.2.2.3-.1-.3-.1-.5-.2-.8 0 0-.1 0-.1.1.1.2.1.3.1.4zM32 47.1V47c-.1.1-.2.3-.4.4.1.1.2.1.3.2 0-.1 0-.3.1-.5z"/><path d="M30.6 49.1c0 .2-.9 1.7-.9 1.7-.2.3-.4.7-.6 1-.1.3-.1.5-.2.8-.1.3-.2.7-.3 1-.2.2-.3.4-.5.6 0 .3.1.6.1.9 0 .3-.1.5-.1.8.1 0 .3.1.4.1-.1.1-.2.3-.3.4.1.2.1.4.2.6-.1.1-.2.1-.3.2.1.4.2.7.2 1.1v1c.1.1.2.1.3.2.1.2.3.5.4.7.1.2.1.3.2.5v.6c0 .3 0 .6.1.9 0 .1-.1.3-.1.4 0 .3.1.5.1.8.1.2.2.3.3.5 0 .1-.1.3-.1.4 0 .1.1.2.1.4-.1.2-.2.5-.2.7-.1 0-.3-.1-.4-.1.1.3.1.5.2.8.1.1.2.3.3.4.1.2.1.5.2.7 0 .4-.1.8-.1 1.2.1.3.2.7.4 1 0 .3.1.6.1.9.1-.3.2-.6.4-.8-.1-.3-.2-.6-.3-.8.1-.3.2-.6.2-.9-.1-.2-.2-.5-.3-.7 0-.3 0-.7.1-1 0-.3-.1-.7-.1-1 .1-.2.1-.4.2-.7-.1-.2-.2-.3-.3-.5 0-.4-.1-.8-.1-1.1.1-.2.2-.3.3-.5l.5.5.2.2-.3.6c.1.4.1.8.2 1.2v.9l.3.6v.5c.1.2.2.4.2.6.1.1.1.2.2.3-.1.1-.2.3-.4.4.1.1.2.3.3.4.1.4.3.9.4 1.3l.3 2.7c-.1.2-.3.4-.4.6-.1.2-.2.4-.2.6.1.4.3.8.4 1.2.1.4.3.8.4 1.2.2.2.3.4.5.6.2.3.4.6.6 1 .2.1.5.2.7.3.2.3.4.6.6 1 .2.1.4.2.7.3.2 0 .4.1.6.1h.5c.1.2.3.5.4.7l.6 1.5c.2.3.3.6.5.8.2.1.4.3.5.4.2.1.4.3.6.4.1 0 .2.1.3.1 0 .1-.1.3-.1.4.1.6.2 1.1.3 1.7-.1.3-.1.5-.2.8.1.1.2.2.3.4l.4-.4c0 .1 0 .3.1.4.1.2.2.5.3.7v.7c.2.1.4.2.6.4.1.2.2.5.3.7.1.2.3.5.4.7.2-.1.3-.1.5-.2.1-.2.1-.5.2-.7.2-.1.3-.2.5-.4v.6l.4.4c-.1.1-.2.3-.3.4.1.2.3.4.4.6-.1.5-.3 1-.4 1.5l-.7.7c.1.2.2.4.3.7-.2 0-.4.1-.7.1-.2.1-.4.2-.6.4 0 .2-.1.3-.1.5-.2 0-.5.1-.7.1v1c-.2 0-.5.1-.7.1 0 .2 0 .5-.1.7-.2.1-.3.3-.5.4.1.1.1.2.2.4.2.1.3.1.5.2-.1.1-.1.2-.2.4-.1 0-.3.1-.4.1-.2.2-.4.3-.6.5.1.2.1.4.2.7-.1.2-.2.3-.2.5.2.4.5.7.7 1.1.2.5.3 1 .5 1.6.1.6.1 1.2.2 1.9 0 .2-.1.4-.1.7.1.3.2.5.3.8 0 .3-.1.5-.1.8l.3.9c.2.4.5.7.7 1.1 0 0 1.1 1.4 1.2 1.6l.3.6c-.1.8-.3 1.5-.4 2.2-.1.3-.2.7-.4 1-.3.6-.5 1.2-.7 1.8-.1.4-.3.8-.4 1.3.1.2.1.3.2.5-.1.2-.2.3-.3.5-.1.5-.2.9-.3 1.4l-.6.6c0 .1-.1.3-.1.4 0 .2-.1.4-.1.7h-.6c0 .2.1.4.1.6 0 .3.1.6.1 1-.2.1-.3.3-.5.4 0 0-.1.3 0 .4 0 .1.2.3.2.3h.5c0 .1 0 .2-.1.2-.1.1-.2.2-.2.4v.4c-.1.1-.1.3-.2.4 0 0-.1.6-.2.7-.1.1-.3.1-.3.1s-.2-.3-.3-.4c-.1-.2-.3 0-.3 0s-.1.3-.1.4c0 .1.8.6.8.6-.1.1-.1.2-.2.3v.6l-.1.1s-.2.3-.2.4c0 .1.3.2.3.2.1.2.2.3.2.5h-.2v.3l.3.3s.1.3-.1.4c.1.2.3.4.4.5l.6.3c0 .1.1.1.1.2-.2 0-.4-.1-.6-.1.1.1.3.2.4.3 0 0 .3 0 .5.2.1 0 .2.1.4.1h.5c.1 0 .2.1.3.1.1.1.1.2.2.3 0-.1.1-.1.1-.2h.3c.1.1.2.1.3.2.3 0 .5.1.8.1.2 0 .3.1.5.1 0-.1.1-.1.1-.2-.3 0-.5-.1-.8-.1l-.6-.3c-.2-.2-.5-.3-.7-.5 0-.1-.1-.3-.1-.4-.2-.1-.4-.3-.6-.4.1 0 .2.1.4.1.1 0 .2.1.3.1v-.3l-.3-.3.3-.3c0-.1-.1-.2-.1-.3 0-.1.1-.1.1-.2.1.1.2.2.3.4 0 0 .4-.2.2-.4.1-.1.2-.2.4-.3.2 0 .4 0 .6.1v-.5c-.1-.1-.2-.1-.2-.2-.1-.1-.3-.2-.4-.3 0-.1.1-.2.1-.4.2-.1.3-.1.5-.2.2 0 .3.1.5.1-.1-.1-.2-.2-.2-.3h.3c0-.1.1-.3.1-.4.1-.1.2-.2.3-.2.1.1.2.1.3.2 0 0 .2 0 .3-.1.1-.1-.2-.3-.2-.3-.1 0-.2-.1-.3-.1 0-.1.1-.2.1-.3l-.3-.3c.1-.1.1-.2.2-.3.1.2.2.3.3.5.2.1.4.2.7.2.1-.1.2-.2.3-.4.1-.1.1-.3.2-.5l-.2-.2.1-.1c.1.1.2.1.2.2h.4c.3.1.7.2 1 .3h.7c.1-.1.3-.2.4-.3l.3-.3c-.1-.2-.2-.3-.3-.5 0-.1 0-.2-.1-.3l-.3-.3c0-.2-.1-.4-.1-.7.1-.1.2-.2.3-.4-.1.2-.1.4-.2.6.2.1.4.3.5.4.1.1.3.2.4.3.2.1.3.2.5.3.2.1.4.1.5.2.2-.1.3-.3.5-.4l.6-.3c0-.1-.1-.3-.1-.4.1-.1.3-.1.4-.2.1-.1.2-.2.4-.3.1 0 .2.1.3.1 0 .2-.1.4-.1.6.2-.2.4-.3.6-.5.1-.1.3-.3.4-.5.2-.1.5-.2.7-.3v-.6c0-.2.1-.4.1-.6l.3-.6h1.1c.2 0 .4-.2.4-.2.2 0 .4.1.6.1h.6c0-.1-.1-.2-.1-.3.3.1.6.2 1 .2v-.1c0-.1.5.4.5.4.2-.1.4-.1.5-.2v-.7c.3-.1.6-.3.9-.4.3-.2.6-.3.9-.5 0-.2 0-.4.1-.6.2-.2.3-.4.5-.6 0 0 .6-1.3.6-1.4 0-.1-.1-.5-.1-.5.2 0 .3-.1.5-.1.1-.2.2-.4.3-.5.1.2.1.3.2.5.1-.2.3-.3.4-.5.2-.1.3-.2.5-.3.2-.2.4-.3.6-.5.2 0 .4-.1.6-.1.3-.1.6-.3.9-.4.1-.2.2-.5.3-.7 0-.2.1-.5.1-.7v-.9c-.2-.2-.5-.3-.8-.5-.1-.1-.2-.3-.2-.4-.2-.3-.3-.5-.5-.8-.2-.3-.3-.6-.5-.9-.2-.2-.4-.3-.6-.5-.3 0-.5-.1-.8-.1-.1-.3-.2-.5-.3-.8-.3.1-.6.1-.9.2 0-.2.1-.4.1-.6 0-.2.1-.3.1-.5-.3-.2-.5-.5-.8-.7-.2-.2-.4-.5-.6-.7-.4.1-.7.2-1.1.3.1 0 .2 0 .3-.1.1 0 .1 0 .2-.1 0-.2.1-.4.1-.6-.1-.2-.3-.4-.4-.6-.4.1-.8.2-1.1.3-.2 0-.4-.1-.6-.1-.2 0-.3.1-.5.1-.4-.1-.8-.1-1.2-.2.3 0 .6-.1 1-.1.2-.1.5-.3.7-.4.2-.1.5-.1.7-.2.2-.1.5-.1.7-.2 0-.1-.1-.3-.1-.4.2-.1.4-.1.7-.2-.1-.2-.2-.3-.3-.5-.1-.1-.1-.2-.2-.3 0-.3.1-.6.1-.9-.1-.1-.2-.3-.3-.4-.1-.5-.2-.9-.3-1.4-.1-.2-.2-.3-.3-.5-.2-.1-.3-.2-.5-.3l-.3-.6c-.3-.1-.5-.2-.8-.2-.2 0-.5-.1-.7-.1 0-.1.1-.2.1-.4l-.6-.6c-.2.1-.4.1-.7.2l.2-.3c.2-.3.4-.7.4-.7-.2-.3-.3-.6-.5-.9-.4-.1-.7-.3-1.1-.4.3-.2.5-.4.8-.6-.2 0-.5-.1-.7-.1-.1-.2-.2-.4-.3-.7l.3-.3c-.3-.1-.7-.1-1-.2 0 0-1-.3-1.2-.4-.2-.2-.3-.5-.5-.7H50c.1-.1.1-.3.2-.4-.1-.1-.2-.3-.3-.4v-.7l-.6-.3c0 .2.1.4.2.6-.3-.1-.5-.1-.8-.2-.1.2-.1.4-.2.7 0 .3 0 .5-.1.8-.2 0-.4.1-.6.1v-1c.1-.1.3-.2.4-.3 0-.2.1-.3.1-.5.2-.1.3-.1.5-.2 0-.2 0-.4-.1-.7-.3.1-.6.1-.9.2-.3.1-.6.3-.9.4-.1-.1-.3-.1-.4-.2h-.8c-.1.2-.2.5-.4.7-.1.1-.2.1-.3.2-.1.4-.3.8-.4 1.2 0-.3-.1-.6-.1-.9-.1-.2-.3-.5-.4-.7v-.5c-.2-.2-.4-.4-.7-.5-.1.2-.3.3-.4.5-.2-.1-.4-.3-.6-.4-.2 0-.3-.1-.5-.1 0-.2-.1-.4-.1-.7l-.3-1.2c.1-.3.2-.7.3-1 .2-.3.4-.6.5-.9.1-.3.2-.7.3-1-.1-.1-.2-.3-.3-.4v-.6c-.2-.1-.4-.2-.6-.2-.1-.1-.2-.2-.3-.4h-.7s-.9-.4-1.1-.5c-.2-.1.3-.4.3-.4.1-.2.3-.4.4-.6v-.6s.4-.2.5-.1c.2-.2.4-.4.5-.7 0-.2.1-.4.1-.6.2-.1.3-.3.5-.4l.3-.9s0 .1-.5-.4.5.4-.5.2-1 .1-1 .1c-.2.4-.4.7-.6 1-.2.2-.4.3-.5.5-.1-.1-.1-.2-.2-.4-.2-.1-.4-.1-.6-.2-.3.1-.6.1-.9.2l.1-.2c.1-.2-.4-.6-.4-.6-.1-.1-.2-.3-.2-.4l-.3-.3c-.1-.1.1-.9.1-.9-.1-.2-.1-.4-.2-.6-.1-.2-.2-.4-.2-.6.2-.2.3-.4.5-.6 0-.2-.1-.4-.1-.6.1-.2.3-.4.4-.6v-.7l.3-.3c.1-.1.3-.3.5-.4.1-.2.1-.4.2-.6-.1-.1-.1-.3-.2-.4 0-.2.1-.4.1-.6h.7c.1-.2.3-.4.4-.6.1.1.2.1.3.2.3-.1.5-.2.8-.3.2 0 .5-.1.7-.1h.7c.1.2.3.5.4.7v.4c.2.1.4.2.6.2.1-.1.1-.2.2-.3.1 0 .2-.1.3-.1 0 .2 0 .4.1.7.1.1.2.2.4.2 0-.2.1-.4.1-.7-.1-.2-.2-.4-.3-.5.1-.1.3-.1.5-.2.1.1.3.2.4.3.1.1.3.1.4.2.2.1.4.1.6.2.1.1.2.1.3.2.1.2.3.5.4.7.1.1.2.2.4.3.1-.1.3-.1.4-.2.1.3.2.7.3 1-.1.1-.2.3-.3.4-.1.2-.1.4-.2.6.2.1.4.1.5.2-.2.1-.5.2-.7.3 0 .3.1.7.1 1 .2.5.4 1 .5 1.5l.6-.9c.1-.2.1-.4.2-.6.1-.4.2-.9.4-1.3 0-.3-.1-.7-.1-1 0-.2-.1-.4-.1-.6.1-.2.2-.4.4-.6.1-.1.2-.3.4-.4l.6-.6c.1 0 .2.1.4.1.2-.2.4-.3.5-.5.2 0 .3-.1.5-.1s.5.1.7.1c.1-.2.3-.3.4-.5h.6v-.6c0-.2.3-.1.3-.1.2 0 .4.1.5.1-.1-.2-.1-.3-.2-.5.1-.1.3-.2.4-.3l-.3-.6c-.2-.1.4-.1.4-.1l-.3-.6c.2-.2.3-.5.5-.7.2-.3.4-.6.6-.8.2.1.4.2.6.2-.2.2-.4.3-.6.5-.2.2-.4.4-.5.6.1 0 .2.1.3.1.1.1.2.3.3.4l.6-.6c0-.1-.1-.3-.1-.4.1-.2.2-.3.4-.5.1.2.2.3.2.5.2-.1.3-.1.5-.2.1-.2.3-.3.4-.5v-.4c.4-.1.8-.2 1.3-.3.2.1.4.1.6.2.1-.1.3-.2.4-.3v.4c.1 0 .2.1.4.1h.6c-.1-.1-.2-.2-.2-.3-.2-.2-.3-.4-.5-.6.4-.3.7-.6 1.1-.9l.4.4c.2-.1.4-.1.6-.2.2 0 .3.1.5.1.2-.1.4-.1.7-.2.1-.2.1-.4.2-.6.1.1.2.3.3.4.1-.1.2-.3.3-.4.1.1.1.3.2.4.2-.1.3-.3.5-.4 0 0 .5 0 .7-.2.2-.1-.9.6-.9.6h.4c.3.1.6.2.8.3-.3 0-.5 0-.8.1h-.7c-.2.1-.5.2-.7.3.1.2.2.5.3.7.2.1.4.2.6.2 0 0 .3-.2.6-.3.2-.1.4-.3.6-.4.2.1.5.2.7.4.2-.1.4-.2.6-.2 0-.2-.1-.4-.1-.6-.2-.1-.5-.2-.7-.3l.3-.3.3.3c.1-.2.1-.3.2-.5h-.8c0-.2 0-.4.1-.6 0 0-.6-.4-.8-.4-1.2-.3-.6-.5-.6-.5.1-.2.2-.3.3-.5-.3 0-.6 0-.9-.1.1-.2.2-.5.3-.7.2.1.4.2.7.3l.2.1.3-.6c0-.2-.1-.4-.1-.5l-.9-.3c-.3.1-.7.1-1 .2-.4.1-.9.2-1.3.3-.3.2-.6.4-1 .7h-.9c.3-.1.6-.2.9-.4.2-.2.3-.4.5-.6l.6-.3c.3-.1.7-.1 1-.2.3-.1.6-.3.9-.4.2-.1.3-.2.5-.2.3.1.5.2.8.4h.6c.2.2.5.3.7.5.3 0 .6.1.8.1l.3.3c.3.1.5.1.8.2.3 0 .6-.1.9-.1.2-.2.4-.4.6-.5h.8c.2.1.5.1.7.2.2-.2.5-.4.7-.6 0-.2.1-.4.1-.6-.1-.1-.2-.3-.3-.4l-.4-.4h-1.1c-.4.1-.8.2-1.2.2.1-.2.1-.3.2-.5.6 0 1.1-.1 1.7-.1h.5v-.5c-.2 0-.4.1-.6.1 0-.2-.1-.4-.1-.7-.3-.1-.6-.1-.9-.2.1-.1.2-.3.3-.4-.2-.1-.4-.3-.5-.4-.1-.3-.1-.6-.2-.9.1.1.3.2.4.3.1-.3.2-.5.3-.8-.2 0-.3-.1-.5-.1.2-.1.3-.2.5-.4-.1-.2-.2-.3-.4-.5 0-.2 0-.4.1-.6 0-.2 0-.3-.1-.5.1-.1.2-.3.3-.4l-.3-.3c.1-.2.1-.5.2-.7 0-.2-.1-.4-.1-.6-.3.3-.7.6-1 .9-.2.1-.4.2-.7.3-.4.2-.8.3-1.1.5 0-.2.1-.4.1-.7-.2 0-.4-.1-.6-.1 0-.2.1-.4.1-.5-.2-.2-.4-.4-.6-.7.2-.2.4-.4.6-.5.1-.1.1-.2.2-.4-.1-.1-.2-.3-.4-.4.1 0 .3-.1.4-.1-.3-.1-.6-.3-.9-.4 0-.2-.1-.4-.1-.6-.1-.2-.1-.3-.2-.5L65 45c-.2.1-.5.2-.7.2-.3-.2-.7-.3-1-.5l-.4-.4h-.6c0 .2.1.3.1.5l-.6.3c-.1.2-.2.3-.3.5 0 .2.1.5.1.7-.2 0-.3-.1-.5-.1-.1.1-.1.2-.2.4h-.5c-.1.2-.1.3-.2.5.1.2.2.3.3.5v1c0 .2.1.4.1.6-.2.1-.3.1-.5.2l.3.3c-.1.1-.3.2-.4.3-.3.2-.6.3-1 .5-.4 0-.8.1-1.2.1l-.3.6c0 .1.1.2.1.3-.1.3-.2.7-.4 1l-.8.8c-.2.1-.4.1-.6.2-.2-.2-.3-.5-.5-.7-.1-.3-.2-.5-.3-.8 0 0 .3-.9.4-1.1.1-.2.6-1 .6-1-.2-.2-.4-.4-.6-.5-.2-.1-.5-.1-.7-.2 0-.1 0-.3-.1-.4-.2-.1-.4-.1-.6-.2 0-.2-.1-.4-.1-.5-.2 0-.3-.1-.5-.1v-.8c-.2-.2-.5-.3-.7-.5-.2-.2-.3-.4-.5-.6l-.9-.3c.1-.3.1-.5.2-.8-.1-.2-.1-.5-.2-.7h-.6c0-.2.1-.4.1-.7 0-.2.1-.3.1-.5.3-.1.5-.2.8-.3 0-.1-.1-.2-.1-.3.2.1.3.1.5.2v-.3c.3-.1.6-.2.8-.4.3 0 .6-.1.9-.1.1-.2.2-.3.3-.5.1.1.3.2.4.3.2-.1.3-.1.5-.2.1-.1.2-.3.2-.4.1 0 .3.1.4.1.1-.2.1-.4.2-.5.2 0 .3-.1.5-.1.1.1.3.3.4.5h.6l.4-.4c0-.1-.1-.3-.1-.4-.4-.1-.8-.2-1.2-.4.2 0 .4-.1.6-.1.3.1.7.2 1 .2 0 .2.1.4.1.5l.6-.3v-.4h.4l.3.6c.2 0 .3 0 .5-.1-.1-.2-.1-.5-.2-.7.1 0 .3.1.4.1 0 .2.1.4.1.6.2-.1.3-.1.5-.2.3 0 .6 0 .9-.1.2.1.3.1.5.2l.4-.4c-.1-.1-.1-.2-.2-.4 0-.1 0-.3-.1-.4l.6-.3c-.1 0-.2-.1-.3-.1.1 0 .2-.1.4-.1l.3-.3c.9-.1.8-.2.6-.2 0-.1 0-.3-.1-.4-.2-.1-.4-.1-.6-.2-.2-.1-.4-.2-.6-.4-.1.1-.2.3-.2.4v.5c-.2 0-.3 0-.5.1-.3.1-.6.2-.9.4l-.5.5c-.3 0-.5.1-.8.1-.1-.2-.2-.3-.3-.5l.3-.6c.2-.1.4-.3.6-.4 0-.2 0-.3.1-.5h-.6c-.1.1-.1.2-.2.3-.2.1-.3.2-.5.3-.1 0-.3-.1-.4-.1.1-.2.2-.5.4-.7 0 0-.3-.4-.5-.4s-.3-.3-.3-.3c.2 0 .3-.1.5-.1v-.2c.1-.1.2-.1.3-.2 0 .1.1.1.1.2h.4c0-.1-.1-.2-.1-.4-.2-.1-.3-.2-.5-.3-.2-.2-.3-.4-.5-.5v-.5c.2 0 .3-.1.5-.1 0-.1.1-.2.1-.4h.6c.3 0 .5.1.8.1.3 0 .6 0 .9-.1.2-.1.3-.2.5-.3-.2-.1-.5-.2-.7-.3-.3-.2-.6-.3-.9-.5-.1 0-.2.1-.4.1 0 0-.5-.1-.8-.1-.1.1-.2.1-.3.2-.1.2-.2.3-.2.5v.4c-.2.1-.4.3-.6.4-.2 0-.4.1-.6.1v.2c-.2.1-.4.1-.5.2 0 .1-.1.2-.1.2-.1 0-.3 0-.4.1l.3.3-.3.3s.4 0 .8-.2c.1.2.1.3.2.5.2 0 .4.1.5.1-.2.1-.3.2-.5.2h-.5c-.1.1-.2.2-.2.3.2 0 .3.1.5.1-.2.1-.3.1-.5.2-.3 0-.6.1-.9.1-.2.1-.5.3-.7.4v.4h-.4c0-.2 0-.4-.1-.6l.3-.3v-.4c-.1 0-.2 0-.3.1-.1-.1-.1-.3-.2-.4h-.4c-.1.1-.1.3-.2.4h-.4c-.3-.1-.5-.2-.8-.3h-.4c-.2 0-.3-.1-.5-.1-.1-.1-.2-.2-.4-.3 0-.1-.1-.2-.1-.3 0 0-.2-.3-.6-.2-.1-.1-.2-.1-.4-.2.1-.1.1-.2.2-.3-.1-.1-.1-.2-.2-.3h-.7c-.2-.1-.4-.1-.5-.2-.3.1-.5.2-.8.3.1.1.2.1.3.2.1 0 .2-.1.4-.1.1.1.2.1.2.2.2 0 .3 0 .5-.1.1 0 .3.1.4.1-.5 0-1.1.1-1.6.1-.1.1-.2.1-.3.2 0 .2-.1.3-.1.5.1.4 0 .5-.1.5 0-.1-.1-.2-.1-.4.1-.1.2-.3.3-.4-.1 0-.3.1-.4.1V35s0-.1-.1-.1c-5.7 3-10.9 7-15.3 11.8v.1c0 .2-.1.5-.1.7v.8c-.1-.1-.1-.2-.2-.3-.1-.1-.3-.2-.4-.3l-.1-.1c-.1.2-.3.3-.4.5v.2c-.1 0-.3.6-.4.8z"/><path d="M48.8 81.1c.1-.1.1-.2.2-.3-.1-.1-.3-.2-.4-.2-.1-.1-.2-.2-.2-.3l.1-.1c-.1-.1-.1-.2-.2-.3H48c0-.2 0-.3-.1-.5-.1 0-.2-.1-.2-.1 0-.1 0-.3-.1-.4l-.9-.9c0-.1-.1-.2-.1-.4-.2-.1-.4-.3-.6-.4-.1-.1-.3-.2-.4-.2-.1 0-.2 0-.3-.1v-.2c-.1 0-.2-.1-.3-.1-.1 0-.2-.1-.3-.1h-.6c-.1 0-.2 0-.3.1v.3c-.1 0-.2.1-.2.1.1.1.3.1.4.2.1 0 .2-.1.3-.1.2-.1.3-.1.5-.2.2.1.4.2.5.3 0 .1.1.2.1.3l.5.5c.1.2.2.4.2.6.2.1.4.2.6.2v.4c.1.1.1.3.2.4.1.1.2.1.3.2 0 .1 0 .2-.1.3h-.3v.3l.9.3c.2.1.4.3.6.4.3.1.4.1.5 0zM46.6 81.6v-.2h-.3c-.1 0-.3-.1-.4-.1v.2c.1 0 .1.1.2.1v.3l.3.3c.1.1.2.1.3.2l.2-.2c.1.1.1.2.2.2 0-.1.1-.2.1-.3-.1-.1-.1-.3-.2-.4-.1 0-.2 0-.4-.1z"/><path d="M44.5 77.2c0 .1-.1.2-.1.2v.2s-.2 0-.3.2c.1 0 .2.1.3.1 0 0 .3-.1.4-.2.1-.1 0-.3 0-.3-.1 0-.2-.1-.3-.2zM47.9 76.7c0-.1-.1-.2-.1-.3h-.2c-.1.1-.1.2-.2.3l.3.3c.1-.1.2-.2.2-.3zM51.8 83.4c-.1-.1-.3-.2-.4-.2-.1-.1-.1-.3-.2-.4-.1-.1-.2-.1-.2-.2s-.1-.2-.1-.2c-.2-.1-.3-.1-.5-.2-.1 0-.2.1-.3.1-.1-.1-.1-.2-.2-.3-.1-.1-.2-.1-.2-.2-.1 0-.2-.1-.3-.1.1.1.2.3.3.4-.1.1-.2.2-.2.3-.1.1-.2.1-.4.2-.2 0-.3 0-.5-.1v-.3h-.3c0 .1.1.4.1.4l.6.3c.3.2.6.3.9.5v.3h.3c.1-.1.1-.3.2-.4.1.1.2.2.2.3.1.1.3.2.4.2.1-.1.2-.1.2-.2.2.1.3.2.5.3.1 0 .3 0 .4.1v-.3c-.1 0-.2-.1-.3-.3zM53 84.6c-.1 0-.2-.1-.3-.1 0 .1.1.2.1.3 0 0-.1.1 0 .2.1 0 .4.2.4.2.1-.1.3-.1.4-.2 0-.1-.1-.1-.1-.2-.2-.1-.4-.2-.5-.2zM53.8 92.4s-.2.3-.1.3h.3c.1-.1.1-.3.2-.4-.1-.1-.2-.1-.4-.2.1.1 0 .2 0 .3zM34.1 91.9c-.1.1-.1.2-.2.3 0 .3.5.3.5.3v-.4c-.1-.2-.2-.5-.3-.7v.5zM65.6 59.5c.2.1.3.2.5.3.2.1.3.2.5.3 0-.1.1-.2.1-.3-.1-.2-.3-.4-.4-.6-.3-.2-.6-.5-.9-.7v.3l.4.4c-.1.1-.1.2-.2.3zM66.7 62.1c-.2.1-.5.2-.7.2-.1.1-.2.2-.4.2-.1.1-.2.7-.2.7.1.1.2.1.3.2.1-.2.3-.4.4-.6.2-.2.4-.3.6-.5.2 0 .4 0 .6.1 0-.1 0-.2-.1-.3-.1.1-.3 0-.5 0zM66.3 63.2s-.4.4-.2.4h.5c.1-.1.2-.3.3-.4l-.1-.1c-.2-.1-.3 0-.5.1zM72.3 62.9s.3-.5.2-.5c-.1 0-.6-.2-.6-.2.1-.2.1-.4.2-.6-.4-.2-.8-.3-1.1-.5-.1-.1-.1-.2-.2-.3 0 0 .4-.2.3-.2-.1-.1-.6-.1-.6-.1l.3-.6c.1-.1.2-.2.2-.3.2 0 .3-.1.5-.1.1-.1.2-.2.3-.2-.3-.1-.5-.1-.8-.2-.2.1-.4.2-.7.3-.1.2-.2.5-.3.7-.2.1-.5.2-.7.4 0 .1-.1.2-.1.3-.2 0-.4.1-.6.1 0 .2.1.3.1.5-.2 0-.4.1-.6.1 0 .1.1.6.1.6.2 0 .4-.1.6-.1.1.1.3.2.4.3.3.1.6.3.9.4.3.1.5.1.8.2v.3c-.1.1-.1.2-.2.3l.9-.3c.1.2.2.3.3.5-.1.1-.3.2-.4.3.1.1.3.1.4.2.1.1.1.2.2.3h.4l.3-.6c-.1-.1-.2-.1-.3-.2.1-.2.3-.4.4-.6-.3-.2-.4-.2-.6-.2zM60.8 42.3v-.4c-.1-.1-.2-.3-.3-.4v-.3c-.1 0-.3-.1-.4-.1-.1-.1-.1-.2-.2-.4 0 0-.1-.2-.2-.1s-.3.2-.3.3c0 .1-.4.6-.4.6-.2.1-.5.2-.7.3 0 .1-.1.3-.1.4.2 0 .3-.1.5-.1-.1.1-.2.3-.2.4.2 0 .3.1.5.1.2-.2.5-.4.7-.6.2 0 .4 0 .5-.1 0 .1 0 .2.1.3 0 0-.5.2-.4.2.1 0 .8.4.8.4.1.1.1.3.2.4l.6-.6c-.3-.2-.5-.2-.7-.3z"/><path d="M59.4 43c-.1.1-.3.1-.4.2-.1 0-.2-.1-.3-.1 0 .1-.1.1-.1.2.2 0 .3.1.5.1.3 0 .5.1.8.1.2-.1.3-.2.5-.3 0-.1-.1-.1-.1-.2h-.9zM61.2 44.5c.1.1.1.2.2.3.1-.1.2-.2.4-.2.1-.1.1-.3.2-.4-.1.1-.3.1-.4.2-.2 0-.3.1-.4.1zM75 43.6c-.2 0-.4.1-.6.1 0-.1-.1-.2-.1-.3 0 0 0-.2-.1-.2-.2 0-.5-.1-.5-.1 0-.1.1-.2.1-.3l-.2-.2c-.1 0-.2 0-.3.1 0-.1.1-.2.1-.3-.1 0-.3-.1-.4-.1-.2 0-.3-.1-.5-.1 0-.1 0-.2-.1-.2-.1-.1-.2-.3-.2-.4 0-.1-.1-.2-.1-.2-.2-.1-.4-.1-.6-.2l.2-.2h.4c0-.1 0-.1-.1-.2.2 0 .3.1.5.1h.3c-.1-.1-.1-.2-.2-.3-.1-.1-.3-.2-.4-.3.1 0 .2-.1.3-.1.1 0 .2.1.2.1.1-.2.1-.3.2-.5-.1-.1-.2-.2-.2-.3-.2 0-.3.1-.5.1v-.4c.1 0 .1-.1.2-.1l-.3-.3c-.2 0-.3.1-.5.1-.2.1-.5-.1-.5-.1s.2-.2.4-.3c.1-.1-.1-.4-.1-.4h-.5v-.3c-.1 0-.2 0-.3.1-.2 0-.4-.2-.4-.2-.1 0-.3-.1-.4-.1.1-.1.2-.1.4-.2.1 0 .1-.1.2-.1V37v-.2c0-.1-.1-.1-.1-.2-.1 0-.2-.1-.3-.1-.3 0-.6-.1-.8-.1-.2-.1-.3-.3-.5-.4-.1-.1-.2-.1-.3-.2h-.6c0 .1 0 .2.1.2.1.1.2.2.3.2-.1 0-.2.1-.3.1l-.3-.3c-.1.1-.2.1-.3.2l-.2.2-.2-.2c.1-.1.1-.2.2-.2h-.3c-.1-.1-.2-.1-.3-.2-.1.1-.2.1-.3.2 0 0 0 .3-.1.2-.1 0-.3-.2-.3-.2l.3-.3s.2-.1.1-.2-.1-.3-.1-.3c.1-.1.2-.1.3-.2 0 0 .2 0 .3-.1.1-.1.1-.3.1-.3-.2-.1-.3-.1-.5-.2-.2 0-.4 0-.5.1h-.5c-.2 0-.6.1-.6.1s.1.2-.1.2h-.5s0 .2.1.3c.1 0 .4.1.4.1-.1.1-.2.1-.2.2-.1 0-.3-.1-.4-.1 0 0-.2 0-.2.1-.1.1.1.3.1.3l.1.1-.2.2v.2l-.3-.3h-.6c.2-.1.4-.1.5-.2v-.3c0-.1.1-.2.1-.4.1-.1.3-.2.4-.3l.3-.3h1.5c-.1-.1-.2-.1-.3-.2-.3 0-.6-.1-.8-.1-.2-.1-.5-.1-.7-.2-.3 0-.5-.1-.8-.1-.2.1-.5.2-.7.3l-.6.3c-.2.1-.4.1-.6.2 0 0-.2.2 0 .2.1 0 .3.3.3.3s-.3.2-.2.2c.1 0 .5.2.5.2.1 0 .2.1.3.1h-.4c0 .1.1.2.1.3 0 .1.1.2.1.2.1 0 .2 0 .3.1.1.1.2.1.3.2 0 0-.2.3 0 .3h.6c.1 0 .2.1.3.1.2.1.3.2.5.3.2 0 .3.1.5.1.2.1.4.3.5.4 0-.2 0-.5-.1-.7.1.2.3.3.4.5v.3c.1 0 .3.1.4.1v-.5c.1 0 .2-.1.2-.1.2.1.4.2.6.2.1.1.1.2.2.3 0 0 .6.1.6 0s-.2-.4 0-.4c.1 0 .7.5.7.5 0 .1 0 .3-.1.4l.3.3h.4s-.1.3-.2.3-.5.3-.4.2c.2 0 .6.1.6.2-.1.1-.4.3-.4.3.1.1.2.2.3.2.2 0 .5-.1.7-.1 0 0 .4.3.2.4l-.3.3c.1.1.2.2.2.3v.5c-.1.1-.2.1-.3.2l-.2.2c0 .1-.1.2-.1.3-.1 0-.3-.1-.4-.1-.1.1-.2.1-.2.2-.2.1-.4.1-.5.2-.1 0-.1.1-.2.1.1.3.2.7.3 1.1h-1.1c-.3-.1-.5-.2-.8-.4h-.6c-.1 0-.1-.1-.2-.1s-.2-.1-.3-.1c-.1 0-.1 0-.2-.1-.1.1-.2.3-.2.4-.1 0-.2.1-.2.1 0 .1 0 .2-.1.3-.1 0-.2 0-.3.1.1.1.2.2.3.4.2 0 .4.1.6.1h.8v.2h.5v-.4c.2.1.4.3.6.4 0 .2 0 .3.1.5.1.1.3.1.4.2 0 .2-.1.4-.1.6.2.1.4.3.6.4H67c-.1 0-.2 0-.3-.1.1.2.3.4.4.5.2 0 .5 0 .7.1.2 0 .5.1.7.1.2.1.4.3.7.4.3.1.5.2.8.3.1.1.2.3.3.4l.3-.6c-.2-.1-.5-.1-.7-.2v-.4c-.1-.1-.3-.2-.4-.3-.1-.1-.2-.3-.2-.4-.1-.2-.2-.3-.3-.5l.6.3.3.3c.1 0 .2-.1.3-.1.1.1.3.2.4.3 0 0 .2-.1.3 0 .1.1.5.6.5.6V46c.1-.1.2-.2.4-.2 0-.2.1-.3.1-.5h-.5c-.3-.3-.4-.5-.4-.7 0-.1-.1-.2-.1-.2-.1-.2-.1-.3-.2-.5-.1-.1-.2-.2-.2-.3 0 0 .1-.1.3 0l.4.2s-.2-.5 0-.4c.1 0 .4-.1.4-.1s.2.4.1.5c0 .1.5.4.5.4.1.1.2.1.2.2 0 0-.3.2-.1.2.2 0 .6.3.6.3s-.4.3-.2.3c.1 0 .4.3.4.3.2-.1.4-.2.5-.4 0 0-.2-.6-.1-.5.1.1.6.5.6.5 0-.2 0-.4.1-.6h.4c.1.1.2.1.3.2.1-.1.3-.1.4-.2v-.2c-.2-.3-.2-.5-.3-.7z"/><path d="M67.3 40.3c0-.1 0-.2-.1-.3-.1 0-.3-.1-.4-.1l-.5.5c0 .1.1.2.1.3h.5l.4-.4zM68.1 40.7l-.2-.2c-.1 0-.2.1-.3.1.1.1.1.2.2.2.2 0 .3-.1.3-.1zM68.1 34.8c-.1 0-.2-.1-.3-.1h-.5c-.2.1-.3.2-.5.2 0 0-.3 0-.3.1s-.1.2-.1.2v.3c.2 0 .4 0 .5.1l.2.2c.2 0 .4-.1.5-.1.1 0 .3 0 .4.1.2 0 .3.1.5.1h.3c0-.1 0-.3.1-.4 0 0-.1-.2-.1-.3 0-.1-.1-.3-.2-.2-.1-.1-.5-.2-.5-.2zM57.8 32c-.1 0-.4.1-.4.1h-.5v.1s-.1.1-.2.1-.3-.2-.3-.2-.4 0-.6.1c-.2 0-.2.2-.2.2.1.1.2.1.3.2 0 .1 0 .2-.1.3H55c0-.1-.1-.2-.1-.3-.2 0-.3-.1-.5-.1 0 .1-.1.3-.1.4.1.1.3.2.4.3h.3s.1.3.2.4c.1 0 .2.3.2.3v.3c.1 0 .2.1.3.1.1 0 .3-.1.4-.1.1-.1.3-.1.4-.2.1.1.2.1.2.2h.5l.3-.3s.2-.3.3-.3c.1-.1-.2-.1-.2-.1-.1 0-.2.1-.4.1.1-.1.1-.2.2-.3-.1 0-.1-.1-.2-.1 0 0-.1-.2 0-.3.1-.1.3.1.3.1.1 0 .2-.1.3-.1 0 0 .1-.3 0-.3-.1-.1-.3-.1-.4-.2h.5c0-.1 0-.2.1-.3.1-.1-.1-.2-.2-.1zM60.4 31.6h-.5c-.1.1-.2.1-.3.2l-.2-.1-.2.2h.2l.1.1c.1 0 .2.2.2.2s0 .1.1.1h.3l.1.1c.1 0 .2-.1.2-.1.1-.1.3-.2.4-.3v-.3c-.2 0-.3-.1-.4-.1zM56 35.5c-.1-.1-.2-.1-.3-.2-.1-.1-.2-.1-.3-.2l-.2.2c-.1 0-.3 0-.4-.1-.1.1-.2.2-.2.3h-.4s-.1.1-.1.2c.1.1.1.2.2.2s.3 0 .4-.1v.3c.1.1.2.2.3.2h.4c.2 0 .4.1.5.1.1-.1.2-.1.2-.2-.1 0-.1-.1-.2-.1.1-.1.2-.2.2-.4 0-.1-.1-.2-.1-.2zM50.2 34.2c.3-.1.5-.1.8-.2l.2.2c-.1 0-.3.1-.4.1v.2c.1 0 .2.1.2.1 0 .1 0 .1.1.2.1 0 .2 0 .3.1l.1.1.2.2c.1 0 .2.1.3.1h.2c.2 0 .3 0 .5.1 0 0 .2-.1.3-.2.1-.1-.3-.1-.3-.1h-.3s0-.3-.1-.4c-.1-.1.1-.1.2-.2s.2.2.2.2c.2 0 .3 0 .5.1h.3v.2c.1.1.2.1.3.2.1 0 .1-.1.2-.1.1-.2.2-.3.3-.5-.1 0-.1 0-.2-.1-.1 0-.2-.1-.3-.1-.1-.1-.2-.1-.3-.2-.1-.1-.1-.2-.2-.3 0-.1-.1-.2-.1-.2 0 .1-.1.2-.1.3h-.4c0-.1.1-.1.1-.2l-.2-.2c0-.1.1-.2.1-.3 0-.1 0-.1.1-.2 0-.1 0-.2.1-.3l-.1-.1c-1.3.5-2.5 1.1-3.8 1.7h.2c.3-.2.7-.2 1-.2zM57.6 31c-.1 0-.3.1-.4.1-.1.1-.1.2-.2.2.2.1.4.1.6.2.3 0 .6.1.8.1.2 0 .3 0 .5-.1.1-.1.1-.3.2-.4 0-.1 0-.2.1-.3l.2-.2c0-.1-.1-.1-.1-.2v-.1s-.1 0-.1-.1c0 0-.2 0-.2.1v.1c-.1 0-.2 0-.3-.1-.5.1-1 .3-1.5.4.1.3.3.3.4.3zM60.6 30.3c.1 0 .3 0 .4-.1h.9v-.3s0-.2-.1-.2-.2 0-.3-.1c-.2.1-.4.1-.7.2 0 0 0 .1-.1.1h-.1c-.1.1 0 .4 0 .4zM61.6 30.6c.1.1.2.1.3.2h.5c.1 0 .3-.1.4-.1l-.1-.1c-.1 0-.2-.1-.4-.1h-.5c-.1 0-.2 0-.4.1-.1 0-.2-.1-.3-.1-.1 0-.2 0-.3.1 0 0-.1 0-.1.1.1 0 .1 0 .2.1.1-.3.5-.2.7-.2z"/><path d="M61.9 33c.2 0 .4.1.6.1.1 0 .2-.1.2-.1.1 0 .3 0 .4-.1v.3c.2 0 .3 0 .5.1h.5c.2.1.4.1.6.2.1.1.3.1.4.2.3.1.5.1.8.2.1 0 .2-.1.4-.1 0 .1.1.1.1.2.5.1 1 .2 1.4.3l.2-.2c.2 0 .3 0 .5-.1.1 0 .1-.1.2-.1l-.4-.4h-.4c-.1-.1-.1-.2-.2-.3-.1 0-.3-.1-.4-.1-.3-.1-.5-.1-.7-.2-.2 0-.4-.1-.6-.1-.4 0-.7-.1-1.1-.1H64s-.5-.3-.5-.4c0-.1-.3-.1-.4-.1-.2 0-.3-.2-.3-.2h.7l-.3-.3c-.1-.1-.3-.2-.4-.3-.3 0-.5 0-.8-.1 0-.1-.1-.2-.1-.2-.2 0-.3-.1-.5-.1-.2-.1-.4-.2-.6-.2h-.4v.3c0 .1.1.1.1.2.2 0 .3.1.5.1.1 0 .1.1.2.1s.2 0 .2-.1c.1 0 .1 0 .2.1s.2.1.4.2c.1.1.1.3.2.4l-.4.4-.4.4v.2h.4c0-.2 0-.2.1-.1zM63.6 29.7H63c0 .1.1.1.1.2.1 0 .3.1.4.1.1 0 .2-.1.3-.1.1 0 .3.1.4.1h-.7s-.1.1-.1.2-.1.1-.1.2.1.2.1.2H64.3c.1 0 .1.1.2.1h.5c.1-.1.2-.1.4-.2.1 0 .3.1.4.1 0-.1.1-.1.1-.2.1 0 .3 0 .6.1 1.3.2-.6-.1.4 0s-.1 0 .4 0l.5.1.3-.3.1-.1c.1.1.1.2.2.4.1 0 .3 0 .4.1h-.4c.1.1.4.2.4.2.2.1.3.1.5.2l-.5.1c0-.1-.4-.2-.4-.2-.2 0-.4 0-.6-.1-.2-.1-.3-.1-.5-.2h-.7c-.2 0-.3 0-.5-.1-.1.1-.2.2-.4.2.2 0 .3.1.5.1h.5s0 .1.1.1.8-.1.8-.1l-.3.3c0 .1 0 .1.1.2.1 0 .3.1.4.1h.4c-.1.1-.2.1-.3.2-.2 0-.5-.1-.7-.1-.1 0-.2-.1-.4-.1v-.2c-.1-.1-.3-.1-.4-.2 0 0 0-.1-.1-.1-.2 0-.4-.1-.6-.1-.1 0-.3-.1-.4-.1 0 0-.1.2 0 .2s.2.2.2.2c-.1 0-.2 0-.3.1-.1 0-.3-.1-.4-.1H63.9v.3h.3s-.1.1 0 .2c.2 0 .6.1.6.1l.1-.1c.2.1.3.1.5.2.1 0 .3.1.4.1.2 0 .3.1.5.1.1-.1.2-.1.2-.2.1 0 .2.1.3.1 0 0 .3-.2.2-.1 0 .1-.2.2 0 .2.1 0 .6.1.6.1.1 0 .2.1.3.1.1-.1.2-.1.2-.2.1.1.1.2.2.3h.3c0 .1-.1.2-.1.3 0 .1-.1.1-.1.2.1 0 .3-.1.4-.1.2 0 .5-.1.7-.1 0 .1.1.1.1.2.2 0 .4-.1.7-.1 0 0 0-.1.1-.1-.1 0-.1-.1-.2-.1v-.2c-.1-.1-.2-.1-.4-.2h.4c.2 0 .4.1.6.1 0-.1 0-.2.1-.3h.5c.1.1.2.1.3.2h.6c0-.1 0-.1-.1-.2.2 0 .4.1.5.1.1 0 .2 0 .2-.1 0 0-.1-.1-.2-.1.1 0 .4.1.4.1.1 0 .2-.1.3-.1 0 0 .1-.1-.1-.2h-.4l-.1-.1s-.3-.1-.5-.1-.7 0-.8-.1h-.1c.1 0 .2-.1.3-.1-.1-.1-.3-.2-.4-.3.1 0 .3 0 .4.1.1.1.2.1.3.2.2 0 .4.1.6.1l.1-.1s-.3-.1-.1-.1c.2 0 .5.2.5.2.1 0 .1-.1.2-.1-.2-.1-.4-.2-.7-.2.2 0 .4.1.6.1.2.1.5.1.7.2.2 0 .3.1.5.1s.4 0 .6.1h.9c0-.1 0-.1-.1-.2.1 0 .2.1.3.1.1 0 .2.1.3.1.2-.1.3-.1.5-.2v.1h.4c.2 0 .4-.1.6-.1h.6s.4.2.6.2c.2 0 .8.1.8.1h.6c.1 0 .2-.1.4-.1-.2 0-.5-.1-.7-.1-.2 0-.5-.1-.7-.1h1.1c.2.1.4.1.5.2.2 0 .3 0 .5-.1h1c.1 0 .1-.1.2-.1-.2-.1-.4-.1-.6-.2-.1-.1-.2-.1-.4-.2 0-.1 0-.1-.1-.1-.2-.1-.3-.1-.5-.2-.1-.1-.3-.1-.4-.2 0 0-.3-.2-.4-.2h-.5c-.2 0-.3.1-.5.1h-1c-.2 0-.3-.1-.5-.1H79.6c-.1 0-.1-.1-.2-.1s-.3-.1-.4-.1h-.5c-.2 0-.3-.1-.5-.1-.2-.1-.3-.1-.5-.2-.2 0-.3-.1-.5-.1 0 0-.4 0-.2.1.1 0 .1.1.1.1-.1-.1-.3-.1-.4-.2h-.6c0 .1-.4-.2-.4-.1-.2 0-.4-.1-.6-.1-.2 0-.3-.1-.5-.1s-.4 0-.6-.1l.2.2c0 .1-.1.2-.1.2l-.2-.2-.2-.2h-.4c-.1 0-.2 0-.3-.1v-.1c-.1.1-.2.1-.3.2-.1 0-.2 0-.3-.1 0 0-.1 0-.1-.1h-.2c.1.1.2.2.3.2-.2 0-.3-.1-.5-.1-.1 0-.3-.1-.4-.1-.1-.1-.2-.1-.3-.2-.1 0-.1.1-.2.1 0 .1.1.1.1.2-.1-.1-.2-.1-.3-.2l-.2.2-.2-.2c0-.1 0-.1-.1-.2-.3-.1-.5-.1-.8-.2v-.2h-.5c0 .1-.1.1-.1.2-.2-.1-.4-.1-.7-.2l-.2.2h1c.2 0 .3.1.5.1-.2 0-.3 0-.5.1 0 0-.2.2-.2.1v-.1c-.1 0-.2-.1-.3-.1H68c-.1 0-.3-.1-.4-.1 0-.1-.1-.1-.1-.2-.2 0-.5 0-.7-.1-.2 0-.3.1-.5.1-.1 0-.1-.1-.2-.1-.2 0-.3 0-.5.1h.1s-.6.1-.4.1h.8c-.1 0-.7.1-.7.1v.1h.5c-.1 0-.2.1-.4.1.2 0 .3.1.5.1.3 0 .6.1.9.2l.2.2s.5-.2.5-.1v.2c.3 0 .6.1.9.1.1 0 .1-.1.2-.1 0 .1.1.1.1.2l2.1.3s.4.1.6.1h1.1c.1 0 .7.2.7.2h-.6c.1 0 .1.1.2.1-.4 0-.8-.1-1.2-.1.1.1.2.1.3.2h-.6c-.1-.1-.2-.1-.3-.2-.5-.1-1-.1-1.5-.1-.1.1-.1.2-.2.3.1.1.3.1.4.2h-.4c-.1-.1-.3-.2-.4-.3 0-.1 0-.2.1-.3-.2-.1-.5-.1-.7-.2-.4 0-.8-.1-1.2-.1-.1.1-.2.1-.3.2h-.4c.1 0 .3-.2.3-.2 0-.1-.1-.1-.1-.2-.2 0-.4-.1-.6-.1l-1.2-.3c-.1-.1-.2-.1-.3-.2.1 0 .2 0 .3-.1 0-.1-.1-.1-.1-.2-.5.1-1 .2-1.6.3l.1.1c-.1 0-.1.1-.2.1s-.3 0-.4-.1c-.1 0-.2 0-.4.1 0 .1.1.1.1.1.8.4 1 .5 1.2.5zm9.2 2.7zm-7-1.9h.3c0 .1-.2.1-.3 0z"/><path d="M63.7 31c.1.1.2.1.3.2.1 0 .1-.1.2-.1v-.2s-.2-.2-.3-.1c-.1 0-.5.1-.4.2h.2zM63.6 31.3h-.2l-.1.1c0 .1-.1.1-.1.2h.4v-.3zM82 53.7c.3.1.5.2.8.4 0 0 .1.7.2.7.2 0 .8-.3.8-.3-.1-.2-.1-.4-.2-.7l.9-.6c.3-.3.7-.6 1-.8 0 0 1.1-.3 1.1-.4 0-.1.6-.7.6-.7 0-.2-.1-.4-.1-.6.2 0 .4-.1.6-.1 0 0 .1-.2.3-.1.2.1 1.3.3 1.3.3.1.2.1.4.2.6.3-.1.5-.2.8-.2.1.1.1.2.2.3.4-.3.8-.5 1.1-.8h1.7c.1-.3.2-.6.4-1 .2.2.3.4.5.7h.9c.6.1 1.1.3 1.7.5l.9-.3c.2.1.3.1.5.2.2-.1.3-.1.5-.2.3.1.7.1 1 .2.4-.1.9-.3 1.3-.4 0 0-.9-.8-1-.7-.1.1-.9-.1-1-.1-.2.1-.9-.4-.9-.4.4 0 .7 0 1.1-.1.1-.2.2-.3.3-.5.3.1.5.2.8.2 0 0 .2.8.3.9.1.1 1.1.8 1.1.8s0-.6.1-.7c0-.1.1-.8-.1-.8-.1-.1-.3-.8-.3-.8.2.2.3.4.5.7.1-.2.3-.4.4-.5 0-.2-.1-.4-.1-.6.1 0 .3-.1.4-.1h.9c0-.1 0-.2-.1-.3-.2-.2-.4-.3-.6-.5h.7c.2.2.4.3.6.5.2-.1.4-.1.6-.2-.3-.2-.5-.3-.8-.5 0 0 0-.6.1-.5.1.1.4.3.4.3 0-.2.1-.3.1-.5v-.8s-.4-.4-.2-.4c.1 0 .9.3.9.3.2.1.4.3.6.4 0-.3.1-.6.1-.8 0 0-.6-.4-.7-.4-.2-.1.2-.3.2-.3s.2-.2.1-.3c-.1 0-.3-.3-.1-.4.2 0 .8-.2.8-.2.1-.2.2-.3.3-.5.2.1.5.2.7.3.2-.1.3-.2.5-.3-.3-.2-.7-.5-1-.7 0 0-.7 0-.6-.1.1-.1.2-.4.3-.3.1.1 1.3.7 1.3.7.2.1.5.2.7.4.2-.1.4-.2.6-.2-.3-.2-.7-.4-1-.6.4.1.8.2 1.1.3.2.1.5.2.7.3h1.2c0-.1.1-.2.1-.3-.3-.2-.7-.4-1-.5 0 0-.9-.6-1-.6-.1 0-.9-.2-.9-.2-.3 0-.5 0-.8.1 0 0-.3-.4-.5-.4-.2-.1-.7-.1-.9-.1h-1.1c-.3-.1-.7-.2-1-.3h1.6c.2-.1.3-.2.5-.3 0 0-.5-.3-.7-.3-.1 0-.6-.1-.6-.1-.1.1-.1.2-.2.2-.5-.2-.9-.3-1.4-.5.1-.1.1-.2.2-.4-.6-.2-1.1-.3-1.7-.5-.2-.1-.4-.2-.7-.3-.4-.1-.7-.1-1.1-.2-.4-.1-.7-.1-1.1-.2.1 0 .2-.1.3-.1.3 0 .6.1.9.1.3 0 .6 0 .9.1.3.1.6.3.9.4.8.3 1.6.6 2.3.8.2.1.4.2.6.2.3.1.6.1.8.2.2.1.3.2.5.2h1.1c-.2-.2-.4-.3-.5-.4-.3-.1-.5-.2-.8-.3-.1-.1-.1-.2-.2-.3-.2-.1-.5-.1-.7-.2-.2 0-.4-.1-.6-.1h.7c-.1-.1-.1-.2-.2-.4-.2 0-.4-.1-.5-.1h-.5c-.2-.1-.3-.2-.5-.2h.9c-.8-.3-1.6-.6-2.3-.9 0 0-1.6-.7-1.7-.7-.1 0-2.4-.8-2.4-.8-.3-.1-.6-.1-.9-.2-.3 0-.6.1-.9.1H95c0-.1-.1-.2-.1-.3-.2-.1-.5-.2-.7-.3h-.6c-.1.1-.3.2-.4.3-.3-.1-.6-.1-.9-.2-.4-.1-.8-.1-1.1-.2.1.2.2.3.3.5l.5.5h.1c.3.1.5.3.8.4-.5-.1-1-.1-1.5-.2-.1-.2-.3-.4-.4-.5 0 0-.2-.7-.4-.8-.3-.1-1-.4-1-.4-.1.2-.2.3-.3.5-.1.1-.2.1-.3.2 0 0 0 .4-.1.3-.1-.1-1.3-.8-1.3-.8-.2 0-.4.1-.6.1v-.5c0-.1-.1-.2-.1-.4-.6-.1-1.1-.1-1.7-.2-.6-.1-1.3-.2-1.9-.3-.1.1-.1.2-.2.4-.1-.1-.1-.3-.2-.4h-.6c-.1.1-.3.2-.4.3-.2-.1-.3-.1-.5-.2-.8 0-1.6-.1-2.4-.1-.1 0-.3-.1-.4-.1-.1 0-.1.1-.2.1s-.1.1-.2.1c.1 0 .1.1.2.1h.5c0 .1.1.2.1.2.1 0 .2 0 .4.1.1 0 .2-.1.3-.1.2.1.3.1.5.2-.1.1-.2.2-.2.3h-.2c0 .1-.1.1-.1.2H79c-.3 0-.5-.1-.8-.1-.2-.1-.3-.1-.5-.2H77c-.3 0-.6-.1-.8-.1-.3-.1-.6-.1-.9-.2-.1 0-.2 0-.3-.1-.2 0-.4.1-.5.1l.3.3c.1.1.2.2.2.3l.2.2c.1.1.2.1.3.2.2 0 .3 0 .5.1l.3-.3.2.2s-.2.2-.1.2 1.1.1 1.1.1c.2.1.3.1.5.2 0 .1-.1.1-.1.2-.1 0-.2-.1-.3-.1-.1 0-.1-.1-.2-.1-.3 0-.6-.1-.9-.1-.2 0-.4-.1-.6-.1h-.8c.1 0 .1.1.2.1-.2 0-.3 0-.5-.1-.1-.1-.1-.2-.2-.3h-.4c.1.1.1.2.2.3 0 .1.1.2.1.2 0 .1.1.1.1.2.1 0 .3.1.4.1-.1 0-.2.1-.3.2 0 .1.1.2.1.2.2 0 .4.1.6.1.1.1.2.2.3.2.1-.2.2-.3.3-.5.1 0 .2.1.2.1v.3c.1-.1.3-.2.4-.2.2.1.3.2.5.2 0 .1 0 .2-.1.3.2 0 .4 0 .6-.1.3 0 .5.1.8.1.1.1.1.2.2.3h.5c.1 0 .1 0 .2.1.3.2.5.3.8.5.1.2.3.3.4.5.2.1.4.1.6.2 0 .1.1.3.1.4l.4.4.3.6c-.1 0-.3.1-.4.1.1.1.2.3.3.4 0 0 .1.7.2.8.1.1-.1.4-.1.4-.2-.1-.4-.1-.6-.2-.1.2-.2.4-.3.5 0 0-.4.4-.3.4.1 0 .6.2.6.2.1-.1.3-.1.4-.2 0 0 .2.4.3.4.1 0 .9.5.9.5.3.2.6.3.9.5-.2.2-.5.3-.7.5-.2-.1-.4-.1-.5-.2-.2-.2-.4-.3-.6-.5-.2-.1-.5-.2-.7-.3-.2-.1-.4-.1-.5-.2 0 .1.1.3.1.4l.2.2c-.1 0-.5-.2-.5-.2l-.3.3s-.6.2-.5.3c.1.1.5.4.5.4s-.4 0-.3.1c.1.1.7.5.7.5h1c0-.1.1-.1.1-.2 0-.3-.1-.6-.1-.8 0 0-.2-.3-.1-.3.1.1.5.7.5.7.1 0 .3.1.4.1l.6.3c-.1.1-.3.2-.4.4 0 .2.1.4.1.5-.2 0-.4-.1-.5-.1l-.3.6c-.3-.1-.6-.1-.9-.2h-.6s-.2.2-.4.3c-.2.1-.7.2-.5.4.2.2.6.3.4.4-.2.1-.7.4-.7.4s0 .4.1.4c.1.1.2.5.2.5s-.3.3-.1.3c.2 0 .5.4.5.4s-.5.3-.4.3c.2.1.8.2.8.2-.3.1-.6.3-.9.4 0 .2.1.5.1.7 0 0-.1.8.1.9.1 0 .7.4.7.5 0 .1.1 1 .1 1 .1.3.2.5.3.8.3-.1.7-.1 1-.2.2.6.2.8.2 1.1zM100.7 57.6c.1 0 .3.1.4.1.5.1.9.2 1.4.3h1.1c.3.1-.1-.7-.1-.7.1-.2.2-.5.2-.7-.2-.3-.3-.6-.5-1-.2 0-.4.1-.6.1-.4-.1-.7-.2-1.1-.3-.3-.2-.6-.3-.9-.5-.2.1-.4.1-.6.2-.2-.1-.3-.2-.5-.3 0-.3-.1-.6-.1-.8-.1-.1-.3-.2-.4-.3v.5h-.6c-.2.1-.5.2-.7.3.2.1.5.1.7.2.3 0 .5 0 .8-.1-.2.1-.4.3-.6.4-.2 0-.5.1-.7.1.3.3.6.5.8.8-.3 0-.6.1-.8.1.4.2.9.5 1.3.7v.5c.4.2.7.4 1.1.6.1.1.3-.1.4-.2zM103.1 71c0-.1-.1-.2-.1-.4 0 0 .7-.3 1-.5l-.3-.6v-.3c-.2-.2-.4-.3-.6-.5v.3c-.2.2-.4.4-.7.6-.2-.1-.4-.3-.7-.4-.1.2-.1.3-.2.5-.2.1-.5.2-.7.2.2.2.4.3.6.5l-.3.6c-.3.1-.6.1-.9.2.1.2.2.3.3.5l.4.4c.3 0 .7-.1 1-.1.3-.1.6-.1.9-.2.1-.3.2-.6.3-.8z"/><path d="M107 73.1c.1-.1.2-.1.4-.2-.1-.2-.2-.3-.4-.5 0-.3 0-.5.1-.8l-.3-.9c0-.3-.1-.5-.1-.8-.1-.2-.2-.4-.4-.6.1-.1.3-.1.4-.2.1-.2.2-.4.4-.5.1-.2.2-.3.3-.5-.2-.1-.4-.3-.5-.4l-.4-.4c.2-.1.4-.1.6-.2v-.6c-.3 0-.6 0-.9-.1-.2.2-.5.4-.7.7 0 0 0 .4-.3.4-.1-.2-.2-.3-.3-.5 0 0 0 .6.1 1 0 .2.1.3.1.5h-.4c.2.1.3.2.5.4-.1.1-.2.3-.2.4-.1.3-.1.6-.2.8h.6c.1.2.2.3.4.5-.1.1-.2.1-.3.2.1.1.2.3.3.4 0 .2-.1.4-.1.6-.2.1-.4.2-.6.2-.1-.1-.2-.3-.2-.4-.2-.1-.3-.1-.5-.2l.3.6c-.2 0-.4.1-.6.1.1.1.3.2.4.3-.1.1-.1.2-.2.4-.2 0-.4 0-.6-.1 0 .1 0 .2-.1.3l.6.3c.2.1.3.1.5.2.1.1.2.1.3.2l-.4.4-.9-.6c-.4.2-.9.4-1.3.6v.5c.3-.1.6-.2.8-.3.3.1.5.2.8.4.2 0 .4-.1.5-.1l.6.3c.2-.1.5-.2.7-.2l.6.3c.2 0 .4.1.7.1v-.4c.2 0 .5 0 .7.1.1-.3.1-.5.2-.8-.1-.1-.2-.2-.3-.4-.5-.2-.6-.4-.7-.5zM105.4 66.2c-.1-.2-.2-.4-.3-.5l-.4.4.3.3c.1-.1.2-.1.4-.2zM108.9 65.7c-.1.1 0 .6 0 .6.1 0 .3-.1.4-.1-.1-.2-.1-.5-.2-.7 0 .1-.1.1-.2.2zM103.6 85.4c0 .1-.1.2-.1.2-.1.1-.2.3-.3.4-.1.1-.1.2-.2.3.2-.1.4-.1.6-.2.2-.1 0-.7 0-.7zM107.8 85.4l.3-.9c-.1.1-.3.2-.4.3-.2.1-.3.1-.5.2-.1.2-.1.4-.2.6 0 .1-.1.2-.1.2.1.1.2.1.3.2l.6-.6zM104.6 86.2h-.5l.3.3c.1-.1.2-.2.2-.3zM102.1 85.8l-.3.3s.3 0 .6-.2c-.1-.1-.2-.1-.3-.1zM106.8 87.6c.1-.2.3-.4.4-.6 0 0 1.1-.8.1-.6-1 .3-.2-.5-.6-.1l-.4.3c0 .2 0 .5-.1.7l-.3.6c.1 0 .3 0 .4.1.2-.1.4-.2.5-.4zM107.6 90c0 .3.1.5.1.8.2.3.5.6.7.9.1-.2.3-.4.4-.7.1-.2.1-.3.2-.5l-.6-.3c-.2-.1-.4-.3-.6-.4l-.2.2zM113.2 95.7c.1.1.5-.2.5-.2-.1-.1-.2-.2-.3-.4-.1-.1-.3-.1-.4-.2-.1-.1-.2-.3-.4-.4-.1 0-.3-.1-.4-.1.1.2.3.4.4.6 0 .1.5.6.6.7zM117.2 97.3c.2-.1.3-.3.5-.4-.2 0-.4-.1-.6-.1-.2.1-.5.1-.7.2.1.2.2.3.3.5.2-.1.4-.1.5-.2zM113.8 73.6c0 .2.1.7.1.7.1.1.2.3.4.4l.3-.3c.1-.2.1-.4.2-.7-.3-.2-1-.1-1-.1zM119.2 73.9c-.1 0-.2-.1-.3-.1-.2.1-.4.2-.6.2 0 .2 0 .3-.1.5.1 0 .3 0 .4-.1.3-.1.5-.3.6-.5zM121.4 74c-.1 0-.2 0-.3.1-.1-.1-.3-.1-.4-.2 0 .2 0 .3-.1.5.2 0 .3.1.5.1.1-.1.2-.3.3-.5zM122 62.8c.1-.1.2-.2.2-.3-.2-.1-.3-.2-.5-.3-.1.1-.3.2-.4.3 0 .1.1.2.1.3h.6zM123.1 61.9s-.4.2-.5.3c.2.1.4.2.5.2.1-.1.1-.2.2-.3 0-.1-.1-.2-.2-.2zM124.5 61.8l-.3-.3c-.1.1-.2.1-.3.2 0 0 .4.1.6.1zM126.1 62.1c0-.1.1-.3.1-.4-.2 0-.4-.1-.5-.1-.1 0-.2.1-.3.1.1.1.2.2.2.3.2 0 .4 0 .5.1zM104.6 127.5c-.2.1-.4.1-.5.2-.1.1-.3.1-.4.2-.1 0-.2.1-.2.1-.2 0-.3-.1-.5-.1s-.3.1-.5.1c-.2.1-.5.1-.7.2-.1 0-.2.1-.4.1l-.4.4c0 .1 0 .2.1.4-.1 0-.3.1-.4.1-.2.1-.5.2-.7.2-.2.1-.5.3-.7.4v.3c-.1.1-.2.3-.3.4.1.1.1.2.2.2h.7l.9-.3c.4-.2.7-.4 1.1-.6.2-.1.5-.2.7-.2.3-.2.7-.3 1-.5.2-.1.3-.2.5-.3 0 0 .3-.4.4-.5.1-.1 0 .3 0 .3.2-.1.3-.1.5-.2 0 0 .3-.4.3-.5 0-.1.3-.5.3-.5-.1 0-.2-.1-.2-.1-.4-.1-.6.1-.8.2z"/></g></g><g clip-rule="evenodd" fill="none" stroke="#5F52CA" stroke-width=".5" stroke-linejoin="round" stroke-miterlimit="10"><path d="M.3 37.2l45.4 16.5 5.7-47.9L34.3.7 3 20z"/><path d="M.3 37.3l14.4-8.9 31 25.3zM51.4 5.8L37 14.6l8.7 39.1z"/><path d="M18.9 10.2l-4.2 18.2 22.4-13.8zM3 20l11.7 8.4L.3 37.3z"/><path d="M34.3.7l2.7 14 14.4-8.9z"/></g></svg>