<svg xmlns="http://www.w3.org/2000/svg" viewBox="0 0 286.4 165.4"><g fill="none" stroke="#B64E96" stroke-width=".5" stroke-miterlimit="10"><path d="M118.3 128.9h-37s3.4 17.8-11.7 19.8H130c-14.6-2.4-11.8-19.8-11.7-19.8z"/><path d="M67.8 148.7h64v3.9h-64zM199.2 124.5c0 2.4-2 4.4-4.4 4.4H4.8c-2.4 0-4.4-2-4.4-4.4V5.9c0-2.4 2-4.4 4.4-4.4h190c2.4 0 4.4 2 4.4 4.4v118.6z"/><path d="M4.8 6.2h189.4v102.9H4.8zM.4 114.4v10.1c0 2.4 2 4.4 4.4 4.4h190c2.4 0 4.4-2 4.4-4.4v-10.1H.4z"/></g><g fill="none" stroke="#B64E96" stroke-width=".5" stroke-miterlimit="10"><path d="M241.7 156.2c0 .8.7 1.5 1.5 1.5l40.6.1c.8 0 1.5-.7 1.5-1.5l.1-59.6c0-.8-.7-1.5-1.5-1.5l-40.5-.2c-.8 0-1.5.7-1.5 1.5l-.2 59.7z"/><path d="M244.8 99.2h37.8V149h-37.8z"/><circle cx="263.6" cy="153" r="2.9"/><circle cx="263.6" cy="153" r="1.2"/><circle cx="263.7" cy="97.3" r=".8"/></g></svg>