<svg xmlns="http://www.w3.org/2000/svg" viewBox="-154 338.5 286.4 165.4"><g fill="none" stroke="#B64E96" stroke-width=".5" stroke-miterlimit="10"><path d="M-35.7 467.4h-37s3.4 17.8-11.7 19.8H-24c-14.6-2.4-11.8-19.8-11.7-19.8zM-86.2 487.2h64v3.9h-64zM45.2 463c0 2.4-2 4.4-4.4 4.4h-190c-2.4 0-4.4-2-4.4-4.4V344.4c0-2.4 2-4.4 4.4-4.4h190c2.4 0 4.4 2 4.4 4.4V463z"/><path d="M-149.2 344.7H40.2v102.9h-189.4zM-153.6 452.9V463c0 2.4 2 4.4 4.4 4.4h190c2.4 0 4.4-2 4.4-4.4v-10.1h-198.8z"/></g><g fill="none" stroke="#B64E96" stroke-width=".5" stroke-miterlimit="10"><path d="M87.7 494.7c0 .8.7 1.5 1.5 1.5l40.6.1c.8 0 1.5-.7 1.5-1.5l.1-59.6c0-.8-.7-1.5-1.5-1.5l-40.5-.2c-.8 0-1.5.7-1.5 1.5l-.2 59.7z"/><path d="M90.8 437.7h37.8v49.8H90.8z"/><circle cx="109.6" cy="491.5" r="2.9"/><circle cx="109.6" cy="491.5" r="1.2"/><circle cx="109.7" cy="435.8" r=".8"/></g></svg>