<svg xmlns="http://www.w3.org/2000/svg" viewBox="-150 338.5 293.3 165.4"><g fill="none" stroke="#5F52CA" stroke-width=".5" stroke-miterlimit="10"><path d="M106.1 481.3c0 2.1-1.7 3.7-3.7 3.7H-31.8c-2.1 0-3.7-1.7-3.7-3.7V404c0-2.1 1.7-3.7 3.7-3.7h134.1c2.1 0 3.7 1.7 3.7 3.7v77.3h.1z"/><path d="M-29.8 406.3h130.5V479H-29.8z"/><circle cx="35.3" cy="403.3" r="1.6"/><path d="M117.7 500.1c.3.4-2.4.6-4.8.6H-42.3c-2.4 0-5-.3-4.8-.7l11.1-14.3c.3-.4 2.2-.7 4.2-.7h134.1c2.1 0 4 .3 4.2.7l11.2 14.4z"/><path d="M118 501.9c0 .9-1.7 1.7-3.8 1.7H-43.6c-2.1 0-3.8-.7-3.8-1.7v-1.1c0-.9 1.7-1.7 3.8-1.7h157.8c2.1 0 3.8.7 3.8 1.7v1.1zM-31.4 486.9l-1.3 1.8h136.6l-1.3-1.8zM-33.2 489.7l-1.3 1.8H106l-1.4-1.8zM-34.7 492.4l-1.3 1.8h143.7l-1.1-1.8z"/></g><g fill="none" stroke="#5F52CA" stroke-width=".5" stroke-miterlimit="10"><path d="M123.3 496.1c0 1.5 1.2 2.7 2.7 2.7h14.3c1.5 0 2.6-1.2 2.6-2.7v-31.9c0-1.5-1.2-2.7-2.6-2.7H126c-1.5 0-2.7 1.2-2.7 2.7v31.9z"/><circle cx="133.1" cy="495.4" r="1.6"/><circle cx="133.1" cy="495.4" r=".6"/><circle cx="133.1" cy="463.1" r=".4"/><path d="M125.7 466.2h15v26.3h-15z"/></g><g fill="none" stroke="#5F52CA" stroke-width=".5" stroke-miterlimit="10"><path d="M92.4 493.7c0 .8.7 1.5 1.5 1.5l40.6.1c.8 0 1.5-.7 1.5-1.5l.1-59.6c0-.8-.7-1.5-1.5-1.5l-40.6-.2c-.8 0-1.5.7-1.5 1.5l-.1 59.7z"/><path d="M95.4 436.7h37.8v49.8H95.4z"/><circle cx="114.2" cy="490.5" r="2.9"/><circle cx="114.2" cy="490.5" r="1.2"/><circle cx="114.3" cy="434.8" r=".8"/></g><g fill="none" stroke="#5F52CA" stroke-width=".5" stroke-miterlimit="10"><path d="M-31.1 466.4h-37s3.4 17.8-11.7 19.8h60.4c-14.6-2.4-11.7-19.8-11.7-19.8zM-81.6 486.2h64v3.9h-64zM49.8 462c0 2.4-2 4.4-4.4 4.4h-190c-2.4 0-4.4-2-4.4-4.4V343.4c0-2.4 2-4.4 4.4-4.4h190c2.4 0 4.4 2 4.4 4.4V462z"/><path d="M-144.6 343.7H44.8v102.9h-189.4zM-149 451.9V462c0 2.4 2 4.4 4.4 4.4h190c2.4 0 4.4-2 4.4-4.4v-10.1H-149z"/></g></svg>