<svg xmlns="http://www.w3.org/2000/svg" viewBox="-1909.8 2014.2 214 194.7"><path fill="none" stroke="#B64E96" stroke-width=".5" stroke-miterlimit="10" d="M-1710.9 2176.3c-.4-.1-8.9-2.6-8.9-10v-9.7c0-.8-.5-1.4-1.2-1.7-.2-.1-5-1.5-8.4 1-2.2 1.6-3.3 4.3-3.3 8.1v8.3h-11.6c-4.5 0-8.1 3.6-8.1 8.1v.3l3.2 20.2c.6 5 4.1 7.8 9.5 7.8h23.7c2.2 0 3.6-1.2 5.1-2.7.6.6 2 1.2 2.9 1.2h8.4c1.9 0 3.5-1.5 3.5-3.5v-25.5c0-1.9-1.5-3.5-3.5-3.5h-8.4c-1.2.3-2.9 1.7-2.9 1.6zm2.9 27.6v-25.4h8.3v25.4h-8.3zM-1710.9 2176.3v29.6M-1824 2032h-36.3c-1.6 0-3-1.3-3-3v-11.5c0-1.7 1.4-3 3-3h36.3c1.7 0 3 1.3 3 3v11.5c0 1.7-1.4 3-3 3zM-1870.2 2032h-36.3c-1.7 0-3-1.3-3-3v-11.5c0-1.7 1.3-3 3-3h36.3c1.7 0 3 1.3 3 3v11.5c0 1.7-1.3 3-3 3zM-1849 2051.7h-36.3c-1.6 0-3-1.4-3-3v-11.5c0-1.7 1.4-3 3-3h36.3c1.7 0 3 1.3 3 3v11.5c0 1.6-1.4 3-3 3zM-1803.9 2051.7h-36.3c-1.7 0-3-1.4-3-3v-11.5c0-1.7 1.3-3 3-3h36.3c1.7 0 3 1.3 3 3v11.5c0 1.6-1.3 3-3 3z"/></svg>