<svg xmlns="http://www.w3.org/2000/svg" viewBox="0 0 100 100" xml:space="preserve"><path d="M82.3 76.5c-.9 0-1.9-.1-2.8-.2-.8-.1-1.4-.7-1.5-1.5l-2.4-21.6c-12.2-3.9-28.6-5.5-42.1-1.7l-3.1 23.4c-.1 1-1 1.6-2 1.5-1-.1-1.6-1-1.5-2l2.9-21.7c-1.3.5-2.6 1-3.8 1.7-6.6 3.3-11 8.2-14.2 12.7l-5.3 8.6c-.5.8-1.6 1.1-2.4.6-.8-.5-1.1-1.6-.6-2.4.4-.6.8-1.3 1.2-2.1 1.1-1.9 2.4-4.2 4.2-6.7l24.7-40.2c.4-.7 1.3-1 2.1-.7.8.3 1.3 1.1 1.1 1.9L34 47.7c13.3-3.3 29-1.9 41.2 1.7l-2.6-23.6c-.1-1 .6-1.8 1.5-1.9 1-.1 1.8.6 1.9 1.5l2.8 25.1c3.8 1.3 7.1 2.8 9.7 4.5 5.3 3.3 8.1 7 8.1 10.7 0 2.7-1.2 5.2-3.4 7.1-2.7 2.4-6.6 3.7-10.9 3.7zm-1-3.5c3.9.2 7.4-.8 9.6-2.7 1.5-1.3 2.2-2.8 2.2-4.5 0-2.4-2.3-5.1-6.4-7.7-2.1-1.3-4.6-2.5-7.4-3.6l2 18.5zm-49-39.4L19.9 53.8c1.4-1 2.9-1.9 4.5-2.7 1.9-.9 3.8-1.7 5.9-2.4l2-15.1z"/></svg>