<svg xmlns="http://www.w3.org/2000/svg" viewBox="-41 164.9 106.2 106.2"><linearGradient id="solution5" gradientUnits="userSpaceOnUse" x1="-41" y1="164.89" x2="65.187" y2="271.077"><stop offset="0" stop-color="#b64e96"/><stop offset="1" stop-color="#5f52ca"/></linearGradient><path fill="url(#solution5)" d="M-41 164.9H65.2v106.2H-41z"/><g fill="#FFF"><path d="M14.6 217.4l-7.9-14.5c-.2-.4-.7-.7-1.2-.7h-15.8c-.5 0-.9.3-1.2.7l-7.9 14.5c-.2.4-.2.9 0 1.3l7.9 14.5c.2.4.7.7 1.2.7H5.5c.5 0 .9-.3 1.2-.7l7.9-14.5c.2-.5.2-1 0-1.3zm-21.1 10.9c-.2.1-.4.2-.6.2-.5 0-.9-.2-1.2-.7l-5-9.2c-.3-.6-.1-1.4.5-1.8.6-.3 1.4-.1 1.8.5l5 9.2c.4.7.1 1.5-.5 1.8zm8.9-18.2h-9.5c-.7 0-1.3-.6-1.3-1.3 0-.7.6-1.3 1.3-1.3h9.5c.7 0 1.3.6 1.3 1.3 0 .7-.6 1.3-1.3 1.3zM17.5 216c.2.4.7.7 1.1.7h15.8c.5 0 .9-.3 1.1-.7l7.9-13.8c.2-.4.2-.9 0-1.3l-7.9-13.8c-.2-.4-.7-.7-1.1-.7H18.7c-.5 0-.9.3-1.1.7l-7.9 13.8c-.2.4-.2.9 0 1.3l7.8 13.8zM35.6 220c-.2-.4-.7-.7-1.1-.7H18.7c-.5 0-.9.3-1.1.7l-7.9 13.8c-.2.4-.2.9 0 1.3l7.9 13.8c.2.4.7.7 1.1.7h15.8c.5 0 .9-.3 1.1-.7l7.9-13.8c.2-.4.2-.9 0-1.3L35.6 220zm-4.2 24.3h-9.7c-.7 0-1.3-.6-1.3-1.3 0-.7.6-1.3 1.3-1.3h9.7c.7 0 1.3.6 1.3 1.3 0 .7-.6 1.3-1.3 1.3zm5.5-8.7c-.2.1-.4.2-.7.2-.5 0-.9-.2-1.1-.7l-4.9-8.5c-.4-.6-.1-1.4.5-1.8.6-.4 1.4-.1 1.8.5l4.9 8.5c.4.6.2 1.4-.5 1.8z"/></g></svg>