<svg xmlns="http://www.w3.org/2000/svg" viewBox="-41 164.9 106.2 106.2"><linearGradient id="solution" gradientUnits="userSpaceOnUse" x1="-41" y1="164.89" x2="65.187" y2="271.077"><stop offset="0" stop-color="#b64e96"/><stop offset="1" stop-color="#5f52ca"/></linearGradient><path fill="url(#solution)" d="M-41 164.9H65.2v106.2H-41z"/><path fill="#FFF" d="M3.4 253.5c-7.9-26 8.8-35.5 8.8-35.5-1.2 13.9 6.7 24.7 6.7 24.7 2.9-.9 8.4-5 8.4-5 0 5-2.9 15.8-2.9 15.8s10.2-7.9 13.4-21c3.2-13.1-6.1-26.3-6.1-26.3.6 9.3-2.6 18.4-8.7 25.4.3-.4.6-.8.8-1.2 1.1-2.2 2.9-8 1.8-21.3-1.5-18.7-18.4-26.6-18.4-26.6 1.5 11.4-2.9 14-13.2 35.7-10.2 21.6 9.4 35.3 9.4 35.3z"/></svg>