<svg xmlns="http://www.w3.org/2000/svg" viewBox="-41 164.9 106.2 106.2"><linearGradient id="solution" gradientUnits="userSpaceOnUse" x1="-41" y1="164.89" x2="65.187" y2="271.077"><stop offset="0" stop-color="#b64e96"/><stop offset="1" stop-color="#5f52ca"/></linearGradient><path fill="url(#solution)" d="M-41 164.9H65.2v106.2H-41z"/><g fill="#FFF"><path d="M14.4 215.7H45c-1.1-16.4-14.2-29.4-30.6-30.6v30.6zM36.4 240.2c4.9-5.3 8.1-12.3 8.6-20H16.3l20.1 20zM9.8 217v-31.9c-17.1 1.2-30.6 15.4-30.6 32.8 0 8.3 3.1 15.8 8.1 21.6L9.8 217zM11.4 221.8l-20.9 20.9c5.8 5 13.3 8.1 21.6 8.1 7.9 0 15.2-2.8 20.9-7.5l-21.6-21.5z"/></g></svg>