<svg xmlns="http://www.w3.org/2000/svg" viewBox="-41 164.9 106.2 106.2"><linearGradient id="solution4" gradientUnits="userSpaceOnUse" x1="-41" y1="164.89" x2="65.187" y2="271.077"><stop offset="0" stop-color="#b64e96"/><stop offset="1" stop-color="#5f52ca"/></linearGradient><path fill="url(#solution4)" d="M-41 164.9H65.2v106.2H-41z"/><path fill="#FFF" d="M36.3 203.1l2.5 2.5 3.5-3.5-8.4-8.4-3.5 3.5 2.5 2.5-3.4 3.4c-3.9-3.5-8.8-6-14.2-6.9v-6.1h4.2v-6.8h-18v6.8h4.2v6.1c-13.4 2.3-23.7 14-23.7 28.1 0 15.7 12.8 28.5 28.5 28.5S39 240 39 224.3c0-6.6-2.3-12.7-6.1-17.6l3.4-3.6zM10.4 246c-12 0-21.8-9.8-21.8-21.8s9.8-21.8 21.8-21.8 21.8 9.8 21.8 21.8S22.4 246 10.4 246z"/><path fill="#FFF" d="M10.4 207.3c-9.3 0-16.9 7.6-16.9 16.9s7.6 16.9 16.9 16.9 16.9-7.6 16.9-16.9-7.6-16.9-16.9-16.9zm2.7 18.4l-3.5 3.5-3.5-3.5-2.8-2.8 3.5-3.5 2.8 2.8 7.7-7.7 3.5 3.5-7.7 7.7z"/></svg>