<?xml version="1.0" encoding="UTF-8" standalone="no"?>
<svg width="1236px" height="1349px" viewBox="0 0 1236 1349" version="1.1" xmlns="http://www.w3.org/2000/svg" xmlns:xlink="http://www.w3.org/1999/xlink">
    <g stroke="none" stroke-width="1" fill="none" fill-rule="evenodd">
        <g id="AB-mobile" stroke="#FFFFFF">
                <path d="M488.276021,1199.35858 L100.242633,1199.35858 C45.0184514,1199.35858 0.250406663,1154.58304 0.250406663,1099.36552 L0.250406663,1098.37191 C0.250406663,1043.14726 45.0221554,998.378841 100.249702,998.378841 L1083.79118,998.378841 C1139.01926,998.378841 1183.79047,953.605736 1183.79047,898.370902 L1183.79047,892.993412 C1183.79047,837.760552 1139.01685,792.985473 1083.79867,792.985473 L724.59795,792.985473" id="Line" stroke-width="10" stroke-linecap="round" stroke-linejoin="round" stroke-dasharray="26"></path>
                <path d="M488.276021,1199.35858 L100.242633,1199.35858 C45.0184514,1199.35858 0.250406663,1154.58304 0.250406663,1099.36552 L0.250406663,1098.37191 C0.250406663,1043.14726 45.0221554,998.378841 100.249702,998.378841 L1083.79118,998.378841 C1139.01926,998.378841 1183.79047,953.605736 1183.79047,898.370902 L1183.79047,892.993412 C1183.79047,837.760552 1139.01685,792.985473 1083.79867,792.985473 L724.59795,792.985473" id="Line" stroke-width="10" stroke-linecap="round" stroke-linejoin="round" stroke-dasharray="26"></path>
                <polygon id="Star-1" stroke-width="10" points="479.450398 71.6055008 454.469525 77.8524859 452.691247 52.163839 439.030496 30.3360413 462.912333 20.7065696 479.450398 0.969263598 495.988464 20.7065696 519.8703 30.3360413 506.20955 52.163839 504.431272 77.8524859 "></polygon>
                <circle id="Oval-32" stroke-width="10" cx="1165.92428" cy="502.189972" r="20.5"></circle>
                <g id="head" transform="translate(570.776021, 1079.858580)">
                    <path d="M140.985882,231.846202 L140.985882,201.991297 C140.985882,201.991297 166.374756,201.155752 172.246279,193.066839 C180.251748,182.038091 182.616858,144.638314 182.616858,144.638314 L194.248275,143.757773 C200.306491,143.299144 203.227233,138.420735 200.820069,132.842384 C200.820069,132.842384 198.407764,127.73058 196.29969,121.489143 C193.86758,114.288321 189.329094,95.8856408 189.329094,95.8856408 C189.329094,95.8856408 194.920191,0.417857853 98.5262354,0.417851127 C63.9442591,0.417848714 41.2991815,13.4864824 22.0983828,35.1294218 C-2.38641109,60.345398 0.604116807,101.554726 0.604116807,101.554726 C0.604116807,101.554726 -0.836308613,142.539826 37.6530285,172.347614 C47.6896983,190.022682 45.3547955,242.560432 45.3547955,242.560432 L140.985882,231.846202 Z" stroke-width="12"></path>
                    <path d="M22.5898928,85.7811104 C23.8192901,94.7882303 22.6669496,107.61345 28.4590101,115.016165 C35.9197474,124.551583 50.2546291,133.885293 57.5225452,139.890621 C69.540679,149.820956 69.6603266,163.366096 74.2592168,166.499084 C78.5744423,169.438826 88.3818107,163.207357 88.3818107,144.437776 C88.3818107,134.065656 121.692871,134.239787 126.671691,137.357066 C131.65051,140.474345 149.363322,128.817051 153.086396,118.739239 C154.090682,116.020787 169.054638,108.179892 171.704223,97.7938703 C176.842608,77.6520793 168.107787,46.7246507 155.715602,39.0462849 C136.933444,27.408605 139.643591,30.383635 123.166896,25.8708164 C106.6902,21.3579978 94.8881979,12.6536524 78.436029,22.5916647 C61.9838601,32.5296771 55.847407,32.0980164 40.1604553,43.1274436 C33.1673515,48.0442643 20.3272047,69.2036361 22.5898928,85.7811104 Z" stroke-width="10"></path>
                    <path d="M76.7924751,81.1075512 L91.3112981,95.6263742 L116.165065,66.4655569" id="Line" stroke-width="10" stroke-linecap="round" stroke-linejoin="round"></path>
                </g>
                <g id="lamp" transform="translate(466.655890, 703.266710)" stroke-width="10">
                    <path d="M99.023045,135.642737 C111.488477,147.106969 126.184114,198.715597 144.454836,198.715597 C163.094308,198.715597 180.032217,144.084239 192.576444,132.205841 C206.050066,119.447379 214.454836,101.389958 214.454836,81.3694975 C214.454836,42.709565 183.114769,11.3694975 144.454836,11.3694975 C105.794904,11.3694975 74.4548363,42.709565 74.4548363,81.3694975 C74.4548363,101.758708 85.112248,122.849228 99.023045,135.642737 Z" id="Oval-29" fill="#433B43"></path>
                    <path d="M144.454836,74.8694975 L144.454836,148.869498" id="Line" stroke-linecap="square" fill="#744A71"></path>
                    <circle id="Oval-30" fill="#433B43" cx="163.454836" cy="79.3694975" r="18"></circle>
                    <circle id="Oval-30" fill="#433B43" cx="126.454836" cy="79.3694975" r="18"></circle>
                    <path d="M54.9548363,140.869498 L34.4304605,161.393873" id="Line" stroke-linecap="round" fill="#744A71"></path>
                    <path d="M248.954836,140.869498 L228.430461,161.393873" id="Line" stroke-linecap="round" fill="#744A71" transform="translate(238.454836, 151.369498) scale(-1, 1) translate(-238.454836, -151.369498) "></path>
                    <path d="M54.9548363,0.869497535 L34.4304605,21.3938735" id="Line" stroke-linecap="round" fill="#744A71" transform="translate(44.454836, 11.369498) scale(1, -1) translate(-44.454836, -11.369498) "></path>
                    <path d="M29.3040787,81.3694975 L0.27822801,81.3694975" id="Line" stroke-linecap="round" fill="#744A71"></path>
                    <path d="M248.954836,0.869497535 L228.430461,21.3938735" id="Line" stroke-linecap="round" fill="#744A71" transform="translate(238.454836, 11.369498) scale(-1, -1) translate(-238.454836, -11.369498) "></path>
                    <rect id="Rectangle-133" fill="#433B43" x="110.454836" y="151.369498" width="69" height="59" rx="63"></rect>
                    <rect id="Rectangle-134" fill="#433B43" x="106.454836" y="155.369498" width="76" height="11" rx="63"></rect>
                    <path d="M167.304079,186.369498 L152.791153,186.369498" id="Line" stroke-linecap="round" fill="#744A71"></path>
                </g>
        </g>
    </g>
</svg>
