<svg version="1.1" id="layer" xmlns="http://www.w3.org/2000/svg" x="0" y="0" viewBox="0 0 600.2 147.6" style="enable-background:new 0 0 600.2 147.6" xml:space="preserve">
  <style>
    .bo0{fill:#563d7c}
  </style>
  <path class="bo0" d="M22 .1c-3.2.4-5.7 1.2-8.6 2.6-4.7 2.4-8.3 6-10.7 10.7C1.5 15.8.9 17.3.4 19.8c-.4 1.7-.4 4.3-.4 54s0 52.3.4 54c.5 2.5 1.1 4 2.3 6.4 2.4 4.7 6 8.3 10.7 10.7 2.4 1.2 3.9 1.8 6.4 2.3 1.7.4 4.3.4 54 .4s52.3 0 54-.4c2.5-.5 4-1.1 6.4-2.3 4.7-2.4 8.3-6 10.7-10.7 1.2-2.4 1.8-3.9 2.3-6.4.4-1.7.4-4.3.4-54s0-52.3-.4-54c-.5-2.5-1.1-4-2.3-6.4-3.4-6.6-9.3-11.1-16.8-13-1.5-.4-4.2-.4-53.5-.4C46 0 22.4.1 22 .1zm66.5 32.4c10 1.9 15.9 6.4 18.1 13.9 1.1 3.8 1.2 9.1.2 12.7-.4 1.6-1.7 4.3-2.6 5.6-1.7 2.4-4.6 4.8-7.6 6.3-.7.4-1.3.7-1.3.8 0 .1.5.3 1.1.4s1.8.5 2.7.9c7.8 3.1 12.3 10.6 12.3 20.9 0 6-1.9 11.4-5.4 15.1-4 4.3-9.5 6.9-17.6 8.4-1.8.3-4.4.4-25.1.4l-23.2.1V31.9l23.4.1c20.1.2 23.5.2 25 .5zM55.2 56.2v11.9L69 68c12.1-.1 13.9-.1 14.9-.4 3.3-1 6.1-3.1 7.3-5.7.9-1.9 1.2-3.2 1.2-6 0-5.3-1.6-8.4-5.1-10.1-3-1.4-3-1.4-18.2-1.5l-13.9-.1v12zm0 36.2v13.5l15-.1c14.7-.1 15.1-.1 16.7-.5 2.4-.7 4.1-1.6 5.7-3.3 2.6-2.5 3.5-5.3 3.5-9.7 0-4.4-1.1-7.2-3.6-9.7-1.7-1.6-3.3-2.4-5.9-3.1-1.7-.4-2.2-.5-16.6-.5l-14.8-.1v13.5z"/>
  <path id="Shape" class="bo0" d="M197.3 32.3c.3-.1.6-.2.9-.2 11.2 0 22.3 0 33.5.2 3.8.1 7.3 1.4 10.4 3.7 7.1 5.2 7.8 19.9-2 25.2-.5.3-1 .5-1.7.9 1.9.9 3.7 1.5 5.2 2.5 5.9 4 8.3 12.9 5.6 20.7-2.3 6.8-7.8 9.7-14.1 11.2-2.1.5-4.3.7-6.4.8-10.4.1-20.9 0-31.4 0v-65zm11.1 55.5c7.8 0 15.3.2 22.8-.1 4.7-.2 8.1-5.3 7.9-10.3-.3-5-3.3-9.2-7.9-9.4-7.5-.4-14.9-.3-22.4-.3-.1 0-.2.2-.4.3v19.8zm.1-28.6c6.9 0 13.6.3 20.3-.1 4.9-.3 7.7-4.2 7.5-9.7-.2-4.8-3-7.7-8-7.9-6.3-.2-12.6-.1-19-.1-.3 0-.5.1-.8.2v17.6zm345.6-8.9h9.3v5.1c1-.8 2.3-1.7 3.5-2.7 7.1-6.2 24-5.5 29.8 7.1 5 10.8 4.8 21.7-2 31.7-3.7 5.6-9.5 7.6-16 7.2-5.7-.3-10.7-2.1-14.6-7.5v23.7h-10V50.3zm9.4 23.8c.4 2.4.6 4.8 1.3 7.1 1.4 5.1 5.8 8.9 10.4 9.3 6.1.4 10.5-1.9 12.7-7.4 2.8-7 2.7-14.1-1.4-20.6-4.8-7.7-16.4-7.1-20.5 1-1.7 3.3-2.5 6.8-2.5 10.6zm-16 16.5c0 1.9.1 3.9 0 5.9 0 .5-.6 1.3-1 1.3-2.9.2-5.8.7-8.7.4-2.5-.3-3.9-2.5-4.7-5-6 5-12.9 6-20.2 5.1-6.1-.8-11.2-5.9-11.6-11.6-.6-7.8 2.3-12.9 9.2-14.8 4.8-1.3 9.9-1.8 14.8-2.7 1.2-.2 2.4-.4 3.6-.7 2.3-.6 3.9-1.9 4-4.5.2-2.7-.9-4.8-3.3-5.8-4.2-1.7-8.6-1.7-12.8.3-1.9.9-3 2.7-4 5.9H503c0-3.8 1.3-7 3.8-9.7 3.3-3.6 7.6-5 12.2-5.4 4.8-.5 9.6-.5 14.3 1.1 6.3 2.2 9.3 6.4 9.3 13.2v21.6c-.1 5-.1 5 4.9 5.4zm-15.2-16.2c-3.1.5-5.9 1-8.7 1.6-2.9.6-5.9 1.2-8.7 2.2-2.7 1-3.7 3.6-3.6 6.4.1 2.7 1.9 4.2 4.2 5 4 1.4 8 1.2 11.7-.6 2.7-1.3 4.8-3.4 5-6.6.3-2.7.1-5.4.1-8zM280.2 48.9c15.4-.2 24.4 11.3 23.4 26.9-.3 5.4-1.8 10.5-5.3 14.8-3.8 4.6-8.6 7.1-14.5 7.7-4.9.6-9.6.2-14.1-1.9-6.7-3.1-10.6-8.5-12.2-15.8-1.1-5-1.1-9.9.2-14.8 2.8-10.7 11-16.8 22.5-16.9zm-13.4 25c.4 2.3.6 4.6 1.2 6.9 1.6 5.7 6 9.4 11 9.7 6.2.3 10.5-2.4 12.9-8.2 2.3-5.8 2.3-11.6-.2-17.3-3.7-8.4-13.6-10.6-20-4.3-3.7 3.4-4.6 8.1-4.9 13.2zm66.7-25c13.9 0 23.3 9.5 23.5 23.7.1 6-.9 11.7-4.3 16.7-4.9 7.2-12 9.7-20.2 9.3-3-.1-6.2-.8-9-2-6.6-2.6-10.6-7.9-12.3-14.8-1.5-6.1-1.4-12.2.6-18.2 2.9-9.2 11.2-14.7 21.7-14.7zm13.3 23.7c-.2-1.3-.4-3.7-1.1-6-1.7-5.8-6.2-9.4-11.8-9.6-5.3-.2-10.1 2.9-12.1 8.5-2.4 6.6-2.2 13.1 1.4 19.2 3.8 6.4 12.4 7.8 18.1 3 4.3-3.6 5.3-8.6 5.5-15.1zm85.7-9.2h-9.3c-.4 0-1-.4-1.1-.7-1.7-4.9-5.8-5.5-10-5.5-1.7 0-3.6.4-5.2 1.1-3.5 1.5-3.8 5.5-.6 7.4 2.2 1.3 4.9 2 7.4 2.8 3.6 1 7.3 1.7 10.9 2.7 9.1 2.8 12.7 12.1 7.6 19.8-2.4 3.7-6.1 5.7-10.3 6.7-6.2 1.5-12.4 1.6-18.4-.6-6.5-2.4-9.9-7.2-10.4-14.4h9.9c2.8 7.5 10.8 10.4 18.2 6.6 1.7-.9 2.9-2.1 3-4.2.1-2.2-.7-4.1-2.7-4.9-3.5-1.3-7.1-2.2-10.7-3.3-3-.9-6-1.5-8.8-2.7-5.5-2.2-7.9-6-7.9-11.9 0-5.1 2.9-9.4 8.1-11.3 7.1-2.6 14.4-3 21.5-.1 4.8 1.9 7.7 5.7 8.9 10.8 0 .4-.1.9-.1 1.7zm-53.7-13.3h9.2v7.6h-9c-.1.9-.1 1.6-.1 2.2V83c0 1 .1 2.1.2 3.1.2 2 1.3 3.2 3.3 3.4 1.8.1 3.7 0 5.7 0v7.6c-4.2 1.1-8.4 1-12.5.1-4.8-1.1-6.7-4.5-6.8-10.8-.1-8.7 0-17.3 0-26v-2.5h-7.6v-7.7h7.5V36.1H379c-.2 4.6-.2 9.2-.2 14zm85.6 47.4c-3.9 0-7.7.1-11.4 0-3.6-.2-6.4-2.6-7.2-6.2-.4-2.1-.7-4.2-.7-6.3-.1-8.1 0-16.3 0-24.4V58h-7.6v-7.6h7.5V36.2h10.3v14h9.1v7.7h-8.7c-.1.7-.2 1.2-.2 1.6v24.9c0 4.4 1.2 5.4 5.4 5.4h3.6l-.1 7.7zm17.1-47.2v8c3.9-6.8 9.4-10.4 17.5-9.2V59c-3.8-.6-7.5-.7-10.8 1.7-4.3 3.1-5.8 7.8-5.9 12.8-.2 7.8 0 15.7 0 23.7h-10.1v-47c3 .1 6 .1 9.3.1z"/>
</svg>
