<svg version="1.1" id="Слой_1" xmlns="http://www.w3.org/2000/svg" x="0" y="0" viewBox="0 0 284.9 130.6" style="enable-background:new 0 0 284.9 130.6" xml:space="preserve">
  <style>
    .haml1{fill:#3f3e29}
  </style>
  <path d="m228.7 66.8-8.4 59.7s-13.6 5-26-5.4l13.5-57.9-25.5-51.8s10.1-4.3 16.5-2.8l22.4 42.3 38.9-33.1s13.1 4.5 14.3 8.9l-45.7 40.1z" style="fill:#ecdfa7"/>
  <path class="haml1" d="M279.7 72.7c-.6-1.3-1.5-2.5-2.4-3.5-1.8-2.1-4-3.8-6.4-5.2-2.3-1.5-4.8-2.6-7.4-3.5l-1-.3c-.3-.1-.5-.2-.8-.3-.5-.2-1-.5-1.5-.6-.9-.5-1.5-1.1-2-1.8-.9-1.4-1-3.5-.5-5.6.1-.5.3-1.1.5-1.6s.4-1.1.5-1.7c.2-.8.3-1.6.3-2.6l.5-.4 5.4-4.5c1-.8 2-1.7 3-2.5.4.2.7.5 1 .6 0 0 2.8.3 4.4-4l-.8-.5.5-.5 1.4-1.2c.5-.4.8-.8 1-1.6-.8-.1-1.4.2-1.8.5l-1.5 1.1-1 .7-12.5-8.6 1.8-1.5 2.6-2.4.3-.3c.3.2.5.4.7.5.6.5 1.4.9 2 1.3l4 2.2c1.3.7 2.6 1.5 4 2.1.6.4 1.4.6 2.1.9.4.1.7.3 1.1.4.2 0 .5.1.6.1h.5c.2 0 .4-.1.5-.4v-.1c0-.1 0-.2.1-.3v-.4c0-.2-.1-.3-.2-.4-.1-.2-.3-.4-.4-.5-.3-.3-.5-.6-.8-.8-.5-.5-1.2-1-1.7-1.5-1.2-.9-2.5-1.7-3.7-2.5-1.3-.8-2.5-1.5-3.9-2.2-.6-.4-1.4-.6-2.1-.9-.4-.1-.7-.3-1.2-.4-.2 0-.5-.1-.7-.1-.2 0-.3 0-.5.1s-.5.2-.7.5c-.6.3-1.2.5-1.6.9l-2.7 1.5c-.8.6-1.7 1.4-2.5 2l-.9-.6s-3.8.4-2.5 2.8l.4.4c-3.6 3-7.2 6.1-10.7 9.1-3.6 3.1-7.2 6.2-10.8 9.4l-5.4 4.7c-.3.3-.5.5-.9.8-.2-.5-.5-1-.6-1.5l-1.3-2.7-2.5-5.4c-1.6-3.6-3.3-7.3-5-10.9l-5.1-10.8c-.3-.5-.5-1.1-.8-1.6h1.1s.4-3-1.8-3.5c0 0-.4 0-.9.1-.8-1.6-1.5-3.3-2.4-4.9l-.4-1.4c-.1-.5-.4-.6-.5-.8-.2-.1-.4-.2-.5-.2-.3-.1-.5-.1-.7-.2-.5-.1-.8-.1-1.2-.1-.8 0-1.5.1-2.3.2-1.5.2-3 .5-4.5.8s-2.9.7-4.4 1.2c-.7.3-1.5.5-2.1.8-.4.2-.7.4-1.1.5-.2.1-.4.3-.5.4l-.3.3c-.1.1-.1.2-.2.3v.4c.1.4.3.5.5.5s.3.2.4.2c.3.1.5.1.6.2.4.1.8.1 1.2.1.7 0 1.5-.1 2.3-.2l4.5-.6 4.5-.7c.7-.1 1.5-.3 2.3-.5.6 1.3 1.3 2.6 1.9 3.9-4.2.4-10.7.9-14.8 1.4-.5-.8-.8-1.5-1.3-2.4-.1-.2-.4-.4-.6-.3-.3.1-.4.4-.3.6.3.7.5 1.4.8 2.1-1.3.2-2.1.4-2.2.5-.5.8.9 5.1 2.7 6.2 0 0 .7-.3 2-.5.6 1.5 1.3 2.9 1.9 4.4l5.4 12.4 5.5 12.4c1.8 4.1 3.7 8.2 5.6 12.4 0 0 0 .1.1.1-.3.9-.5 1.8-.8 2.7-.7 2.5-1.5 5.1-2.2 7.6-1.4 5.1-2.6 10.3-3.9 15.3l-1.9 7.7-1.8 7.7c-1.3 5.2-2.5 10.3-3.9 15.3 0 .1 0 .3.1.4.7 1 1.7 1.7 2.6 2.5 1 .7 2 1.3 3 1.8 2.1 1.1 4.3 1.9 6.5 2.6 2.3.6 4.6 1.1 7.1 1.2 1.2.1 2.5 0 3.6-.2s2.4-.4 3.6-.7c.4-.1.6-.5.7-.8v-.1c1-5 1.8-10.1 2.7-15.1l2.5-15.2c.8-5.1 1.7-10.1 2.5-15.2.1-.5.2-1.2.3-1.7.2.2.3.5.5.6.9 1.1 2 2 3.1 2.8 2.2 1.5 4.5 2.7 6.9 3.6 2.4.9 4.8 1.6 7.3 2.2 1.6.4 3.2.6 4.8.8-.7 1.6-1.2 3.4-1.1 5.3 0 .2.1.4.3.5h.1c1.7.9 3.5 1.6 5.5 2.1 1.9.4 4 .5 6 .3 2.1-.3 4.2-1.1 5.8-2.5 1.6-1.4 2.8-3.2 3.5-5.1l.1-.1v-.1c.1-.8.2-1.6.3-2.5v-.1c.9-.5 1.8-1.1 2.7-1.8 1.1-.9 2.1-1.9 2.8-3.2.7-1.3 1.2-2.8 1.1-4.4.1-1.4-.5-2.9-1.1-4.2zM278 27s0 .1 0 0zm-6.5-4.8c1.3.7 2.5 1.5 3.6 2.4.5.5 1.2.8 1.7 1.4l.7.7.2.2h-.2c-.4-.1-.6-.2-1-.3-.6-.3-1.4-.5-2-.8-1.3-.6-2.6-1.3-3.8-2.1-1.2-.8-2.4-1.7-3.4-2.7-.4-.4-.7-.7-1-1.1.5.2.9.4 1.4.5 1.3.4 2.5 1 3.8 1.8zm-6.2-4 .1.2v.1s0-.1-.1-.1v-.2zM200.6 8c-1.3.6-2.7 1.1-4.1 1.5-1.5.4-2.8.6-4.3.7-.7.1-1.5.1-2.2.1-.4 0-.7 0-1-.1h-.3c.1 0 .1-.1.2-.1.3-.2.6-.3.9-.5.6-.3 1.4-.5 2-.7 1.4-.4 2.8-.7 4.3-1s2.9-.5 4.3-.5c.5 0 .9 0 1.4-.1-.3.2-.8.4-1.2.7zm63 31-5.6 4.4-5.6 4.5c-1.5 1.3-3.1 2.5-4.6 3.7.1-.1.2-.3.3-.4.7-1 1.5-1.9 2.2-2.8 1.5-1.8 3-3.7 4.6-5.4 1.6-1.7 3.4-3.5 5.1-5 .9-.8 1.8-1.5 2.8-2.2.3-.2.5-.4.8-.5.8.6 1.7 1.3 2.5 1.9-.8.5-1.7 1.1-2.5 1.8zM197 27.8l.5.5c.9.9 1.8 1.8 2.5 2.8s1.4 2.1 1.6 3.2c.2.9.2 1.9-.3 2.7l-.1-.3-4.2-8.9zm4.5 9.4c.3-.3.5-.6.6-1.1.3-.6.3-1.4.2-2-.2-1.4-.8-2.6-1.6-3.6-1.2-1.5-2.6-2.8-4.3-3.9l-1-2.1c-.6-1.4-1.3-2.7-2-4 1.4-.4 3-.9 4.8-1.4 1.6 2.6 3.1 5.4 4.5 8.2 1.5 3.5 3.1 7.3 3.4 11.1.1.9 0 1.9 0 2.9s0 2 .1 3c.1 1.4.4 2.8.6 4.2l-5.3-11.3zm21.4 74.1c-.3.4-.5.6-.8.9-.5.4-.9.5-1.5.5-.5-.1-.8-.5-1-1s-.4-1-.4-1.5c-.1-1.1-.1-2.2.2-3.3.2-1.1.5-2.1 1-3.1.3-.5.5-.9.9-1.3s.8-.6 1.3-.5c.5 0 .9.5 1.2.9.2.3.3.5.4.8l-1.1 6.4c-.1.4-.1.8-.2 1.2zm5.4-31.4c-.5 3.2-1.1 6.4-1.6 9.5-.1-.6-.3-1.3-.5-1.9-.5-1.7-1-3.4-1.5-5-1.2-3.3-2.5-6.4-4.2-9.4 1 3.4 2.2 6.5 3.4 9.8.6 1.6 1.2 3.3 1.7 4.8.3.8.5 1.6.8 2.5 0 .1.1.3.1.4-.3 1.5-.5 2.9-.7 4.5l-1.4 8.3c-.1-.2-.1-.4-.2-.5-.3-.5-.6-1.1-1.4-1.3-.6-.2-1.3.2-1.8.5-.5.4-.8.9-1.2 1.4-.6 1-1 2.2-1.2 3.3-.2 1.2-.3 2.4 0 3.5.1.5.3 1.2.6 1.7s.8 1.1 1.5 1.2 1.3-.3 1.6-.7c.2-.2.4-.5.5-.6-.6 4.3-1.4 8.5-2 12.9-.8.3-1.6.5-2.5.5-1.1.2-2.2.3-3.3.4-2.3.1-4.5-.1-6.7-.6s-4.5-1.2-6.5-2.1c-2-.9-3.9-2.1-5.4-3.7 1.4-5 2.9-10 4.5-15l2.4-7.5 2.3-7.6c1.5-5.1 3.1-10.2 4.5-15.3.7-2.5 1.4-5.1 2.1-7.6.5-2.6 1.6-5.1.8-8v-.1c-.1-.1-.2-.1-.2 0-.5.5-.7.8-1.1 1.3-1-2.3-2.1-4.5-3.1-6.7-.3-.8-.5-1.6-.7-2.5-.5-1.9-.8-3.8-.9-5.7-.1-1-.1-1.9-.1-2.9s.1-2 0-3c-.4-4-1.9-7.8-3.6-11.4-1.4-2.8-3-5.4-4.8-8 3-.8 6.2-1.6 8.7-2.1.4.8.8 1.5 1.2 2.4l5.4 10.7c1.8 3.5 3.6 7.1 5.4 10.6l2.7 5.3 1.4 2.6c.4.5.5 1.2.9 1.6-1.2 1.1-2.4 2.2-3.5 3.3-.1.1-.2.3 0 .5.1.2.4.2.5.1 1.9-1.4 3.8-2.8 5.7-4.3l5.7-4.4c3.8-2.9 7.5-5.8 11.3-8.7 3.7-2.9 7.4-5.9 11.2-8.9l.1-.1c2 1.9 5 4.7 8.2 7.2-1.4.7-2.6 1.5-3.8 2.4-1.9 1.5-3.7 3.1-5.4 4.9-1.6 1.8-3.2 3.6-4.5 5.6-1 1.4-1.9 2.8-2.8 4.4-5.5 4.5-11 9.2-16.3 14-.2.2-.2.5-.1.6.2.2.5.3.6.2-.6 1.8-1 3.6-1.4 5.4-.4 2.2-1 4.8-1.4 7.3zm40.1 12.2c-1.3 1-2.8 1.6-4.5 2-1.6.4-3.5.4-5.2.2-1.6-.2-3.4-.5-5-.9-.2-1.5.1-3.1.7-4.5.6.1 1.2.1 1.8.2.3 0 .5-.1.5-.4s0-.6-.4-.7c-.5-.2-.8-.3-1.3-.5.4-.6.8-1.2 1.3-1.7s1.1-1.1 1.6-1.5c1.2.7 2.4 1.3 3.7 1.7 1.5.5 3.2.6 4.9.5 1.6-.2 3.4-1 4.5-2.4 1-1.2 1.5-2.5 1.5-4 .2.5.2 1.2.1 1.7-.1.7-.2 1.5-.4 2.3-.1.5-.2.9-.3 1.4-.5.3-.9.5-1.4.8-.5.4-1 .7-1.5 1.5.8.3 1.5.2 2.1 0 .1 0 .1-.1.2-.1-.1.3-.1.5-.2.7-.3 1.4-1.4 2.7-2.7 3.7zm9-11.9c-.5 1-1.2 1.9-2 2.7-.4.4-.8.7-1.2 1 0-.8-.1-1.6-.3-2.5-.1-.5-.2-.8-.4-1.3-.2-.4-.4-.8-.8-1.1-.1 0-.2 0-.2.1-.5 1.4-1.5 2.5-2.5 3.4-1 .8-2.3 1.2-3.5 1.3-1.3.1-2.6-.2-4-.5s-2.7-.8-4.1-1.3l-.2-.1c-.3-.1-.6 0-.8.2-.7.9-1.3 1.7-1.9 2.6-.5.7-.8 1.4-1.2 2.1l-4.8-1.8c-2.3-.9-4.5-1.8-6.6-2.9-2.2-1-4.3-2.2-6.1-3.5-1.8-1.4-3.5-2.8-4.3-4.6v-.1c-.2-.4-.5-.6-.8-.8 0-.2.1-.5.1-.6.3-2.2.6-4.4.5-6.6 7.4-5.2 14.5-10.6 21.6-16.3-.1.3-.2.5-.3.8-.5 1.4-.6 2.9-.6 4.5.1 1.5.5 3.3 1.5 4.7 1 1.5 2.4 2.5 3.7 3.2.7.4 1.5.6 2.1.8.4.1.7.2 1.1.3l.9.2c2.4.6 4.6 1.5 6.7 2.7 2.1 1.2 4.1 2.6 5.7 4.3s2.9 3.7 3.1 5.8c.3 1.3.1 2.4-.4 3.3z"/>
  <path class="haml1" d="M217.1 101.1c-.7 1-1.3 2.2-1.5 3.4-.2.6-.3 1.3-.3 1.8l-.1 1.8c-.2 2.4-.1 4.9.6 7.3.7 2.4 1.7 4.5 2.9 6.6-.4-1.2-.8-2.3-1.2-3.4-.4-1.1-.7-2.3-1-3.5-.5-2.3-.5-4.6-.5-7l.1-1.8c0-.5.1-1.2.2-1.7.3-1.1.7-2.2 1.3-3.2.6-1 1.4-1.9 2.3-2.7.8-.8 1.8-1.5 2.9-2.1-2.2.9-4.3 2.4-5.7 4.5z"/>
  <g>
    <path class="haml1" d="M50.2 91.7h-19v-2.3c.5 0 1.3-.1 2.2-.2 1-.1 1.6-.2 2-.4.6-.3 1.1-.6 1.4-1.2.3-.5.5-1.2.5-2V69.3H15.9v15.9c0 .8.1 1.4.4 1.9.2.5.7 1 1.5 1.4.4.2 1 .4 1.9.6s1.7.3 2.2.3v2.3h-19v-2.3c.5 0 1.3-.1 2.2-.2 1-.1 1.6-.2 2-.4.6-.3 1.1-.6 1.4-1.2.3-.5.5-1.2.5-2v-33c0-.7-.1-1.3-.4-1.9-.3-.6-.8-1-1.5-1.3-.6-.3-1.3-.5-2.1-.7-.8-.2-1.5-.3-2.1-.4V46h19v2.3c-.6 0-1.3.1-2.2.3-.9.2-1.5.3-1.9.5-.7.3-1.2.7-1.5 1.3-.2.6-.4 1.3-.4 2v14.2h21.5v-14c0-.7-.1-1.3-.4-1.9-.3-.6-.8-1-1.5-1.3-.6-.3-1.3-.5-2.1-.7-.8-.2-1.5-.3-2.1-.4V46h19v2.3c-.6 0-1.3.1-2.2.3-.9.2-1.5.3-1.9.5-.7.3-1.2.7-1.5 1.3-.2.6-.4 1.3-.4 2v33c0 .8.1 1.4.4 1.9.2.5.7 1 1.5 1.4.4.2 1 .4 1.9.6s1.7.3 2.2.3v2.1zM85.9 91.1c-1 .4-1.9.7-2.7.9-.8.2-1.6.3-2.6.3-1.7 0-3-.4-4-1.2s-1.6-1.9-1.9-3.4h-.2c-1.4 1.5-2.9 2.7-4.5 3.5-1.6.8-3.5 1.2-5.8 1.2-2.4 0-4.3-.7-5.9-2.2-1.5-1.5-2.3-3.4-2.3-5.7 0-1.2.2-2.3.5-3.3s.9-1.8 1.5-2.6c.5-.6 1.2-1.2 2.1-1.7.9-.5 1.7-.9 2.5-1.2 1-.4 2.9-1 5.9-2 3-1 4.9-1.8 6-2.3v-3.2c0-.3-.1-.8-.2-1.6s-.4-1.5-.8-2.3c-.4-.8-1-1.5-1.8-2.1-.8-.6-1.9-.9-3.3-.9-1 0-1.9.2-2.8.5-.8.3-1.4.7-1.8 1 0 .4.1 1.1.3 1.9.2.8.3 1.6.3 2.3 0 .8-.3 1.4-1 2.1-.7.6-1.6.9-2.8.9-1.1 0-1.9-.4-2.4-1.1-.5-.8-.8-1.6-.8-2.6s.3-1.9 1-2.8c.7-.9 1.6-1.7 2.7-2.4 1-.6 2.1-1.1 3.5-1.5 1.4-.4 2.7-.6 4-.6 1.8 0 3.4.1 4.7.4 1.3.2 2.6.8 3.7 1.6s1.9 1.9 2.5 3.2c.6 1.4.9 3.1.9 5.3 0 3.1 0 5.8-.1 8.2-.1 2.4-.1 5-.1 7.8 0 .8.1 1.5.4 2 .3.5.7.9 1.3 1.3.3.2.8.3 1.5.3h2.1v2zm-11.2-17c-1.8.5-3.4 1.1-4.8 1.6s-2.7 1.2-3.8 1.9c-1.1.7-1.9 1.6-2.5 2.6-.6 1-.9 2.2-.9 3.6 0 1.8.5 3.1 1.4 3.9s2.1 1.3 3.6 1.3 2.9-.4 4-1.1c1.2-.7 2.1-1.6 2.9-2.6l.1-11.2zM143.5 91.7H128v-2.1c.5 0 1-.1 1.5-.1s1-.1 1.3-.3c.6-.2 1-.5 1.3-1s.4-1.1.4-1.9V69.8c0-2.2-.5-4-1.5-5.2-1-1.2-2.3-1.8-3.8-1.8-1.1 0-2 .2-3 .5-.9.3-1.8.8-2.5 1.4-.6.5-1.1 1-1.6 1.5s-.7 1-1 1.4v18.3c0 .8.1 1.4.4 1.9s.7.9 1.3 1.1c.5.2.9.3 1.3.4.4.1.9.2 1.6.2v2.1h-15.1v-2.1c.5 0 1-.1 1.4-.1.5 0 .9-.1 1.3-.3.6-.2 1-.5 1.3-1s.4-1.1.4-1.9V69.8c0-2.2-.5-4-1.5-5.2-1-1.2-2.3-1.8-3.8-1.8-1.1 0-2 .2-3 .5-.9.3-1.8.8-2.6 1.4-.6.5-1.2 1-1.6 1.6-.4.6-.8 1-1 1.3v18.2c0 .7.1 1.3.5 1.8.3.5.8.9 1.4 1.1.5.2.9.4 1.4.5.5.1 1 .2 1.6.2v2.1H89.1v-2.1c.5 0 1-.1 1.5-.1s1-.1 1.4-.3c.6-.2 1-.5 1.3-1s.4-1.1.4-1.9V66.5c0-.7-.2-1.3-.5-1.9-.3-.5-.7-1-1.3-1.4-.4-.3-.9-.5-1.5-.6-.6-.2-1.2-.3-1.9-.3v-2.1l10.6-.7.5.5v4.5h.2c.5-.5 1.2-1.2 2-1.9s1.5-1.3 2.2-1.8c.8-.5 1.7-.9 2.8-1.3 1.1-.3 2.3-.5 3.7-.5 2.1 0 3.8.6 5.3 1.7s2.5 2.4 3.2 4c.8-.8 1.5-1.4 2-2 .6-.6 1.4-1.2 2.3-1.8.8-.6 1.8-1 2.9-1.4 1.1-.3 2.3-.5 3.7-.5 2.7 0 4.8.9 6.4 2.6 1.6 1.8 2.3 4.5 2.3 8.1v16.1c0 .8.1 1.4.4 1.9s.7.9 1.3 1.1c.5.2 1 .3 1.5.4s1 .2 1.6.2v2.3zM162.1 91.7h-15.5v-2.1c.5 0 1-.1 1.6-.1.6-.1 1-.1 1.4-.2.6-.2 1.1-.5 1.4-1 .3-.5.5-1.1.5-1.9v-37c0-.8-.2-1.5-.5-2.2-.3-.7-.8-1.2-1.3-1.6-.4-.3-1.1-.5-2.1-.7s-1.9-.3-2.5-.4v-2.1l12-.7.5.5v43.6c0 .8.1 1.4.4 1.9.3.5.7.9 1.4 1.1.5.2.9.4 1.4.5.5.1 1 .2 1.6.2v2.2z"/>
  </g>
</svg>
