<?xml version="1.0" encoding="utf-8"?>
<!-- Generator: Adobe Illustrator 24.0.0, SVG Export Plug-In . SVG Version: 6.00 Build 0)  -->
<svg version="1.1" id="Слой_1" xmlns="http://www.w3.org/2000/svg" xmlns:xlink="http://www.w3.org/1999/xlink" x="0px" y="0px"
	 viewBox="0 0 523.6 128.3" style="enable-background:new 0 0 523.6 128.3;" xml:space="preserve">
<style type="text/css">
	.jq0{fill:#131B28;}
	.jq1{fill:#0868AC;}
</style>
<g>
	<path class="jq0" d="M223.9,46.2L223.9,46.2L220.5,58L223.9,46.2L223.9,46.2z"/>
	<path class="jq0" d="M241.1,72l-3.7,0L241.1,72z"/>
	<path class="jq0" d="M240.2,89.7L240.2,89.7l-22.1,0.1L240.2,89.7L240.2,89.7z"/>
	<path class="jq0" d="M244.8,72l-3.7,0L244.8,72z"/>
	<path class="jq0" d="M242.1,88.2l3.9-14.7L242.1,88.2L242.1,88.2L242.1,88.2z"/>
	<path class="jq0" d="M323.6,20.5l-7.2,33.8C316.4,54.2,323.6,20.5,323.6,20.5z"/>
	<path class="jq0" d="M305.1,20.5l-5.5,25.2L305.1,20.5L305.1,20.5z"/>
	<path class="jq0" d="M322.4,19H307c-0.9,0-1.7,0.7-1.9,1.5l-5.5,25.2l-5.5,25.2c-0.2,0.8-1,1.5-1.9,1.5H283h-1.6
		c-10.8,0-9.5-7.4-7.3-17.6c0-0.1,0-0.2,0.1-0.3l0.2-1.3c0-0.1,0-0.2,0-0.2l0.5-2.6l0.5-2.8c0.2-0.8,0.4-2.1,0.6-2.9l2.5-12.1
		l2.5-12.1c0.2-0.8-0.4-1.5-1.2-1.5h-15.8c-0.9,0-1.7,0.7-1.9,1.5l-3.4,16.1l-3.4,16.1c0,0,0,0,0,0l-0.3,1.5
		c-3.9,17.8-2.9,34.8,18.3,35.3c0.3,0,0.6,0,0.6,0h33.3c0.9,0,1.7-0.7,1.9-1.5l7.2-33.8l7.2-33.8C323.8,19.7,323.2,19,322.4,19
		L322.4,19z"/>
	<path class="jq0" d="M383.6,72.6c0.9,0,1.4,0.7,1.2,1.5l-1.5,7.3"/>
	<path class="jq0" d="M381.9,88.7l1.5-7.3L381.9,88.7C381.9,88.7,381.9,88.7,381.9,88.7L381.9,88.7z"/>
	<path class="jq0" d="M380,90.3C380,90.3,380,90.3,380,90.3c-4.5,0-18.1,0.1-28.3,0.1C364.2,90.4,380,90.3,380,90.3L380,90.3z"/>
	<path class="jq0" d="M342.6,63.2c0-0.8,0.9-2.2,1.7-2.2l-1.9,0C341.5,69.7,342.6,63.2,342.6,63.2L342.6,63.2z"/>
	<path class="jq0" d="M353.1,90.4c-0.1,0-0.2,0-0.3,0C352.9,90.4,353,90.4,353.1,90.4z"/>
	<path class="jq0" d="M383.6,72.6c0.9,0,1.4,0.7,1.2,1.5l-1.5,7.3l-0.2,1.2"/>
	<path class="jq0" d="M360.4,90.4L360.4,90.4L360.4,90.4z"/>
	<path class="jq0" d="M356.6,90.4h-0.2H356.6z"/>
	<path class="jq0" d="M355.5,90.4c-0.1,0-0.2,0-0.4,0C355.2,90.4,355.4,90.4,355.5,90.4z"/>
	<path class="jq0" d="M354.3,90.4H354H354.3z"/>
	<path class="jq0" d="M356.4,90.4c-0.3,0-0.6,0-0.9,0C355.8,90.4,356.1,90.4,356.4,90.4z"/>
	<path class="jq0" d="M360.3,90.4c-1.2,0-2.5,0-3.7,0C357.9,90.4,359.1,90.4,360.3,90.4z"/>
	<path class="jq0" d="M380,90.2L380,90.2c-3.3,0-11.5,0.1-19.6,0.1C368.5,90.3,376.7,90.3,380,90.2z"/>
	<path class="jq0" d="M381.9,88.7l1.2-6.1L381.9,88.7C381.9,88.7,381.9,88.7,381.9,88.7L381.9,88.7z"/>
	<path class="jq0" d="M355.1,90.4h-0.8H355.1z"/>
	<path class="jq0" d="M352.8,90.4h-1.1H352.8z"/>
	<path class="jq0" d="M354,90.4h-0.9H354z"/>
	<path class="jq0" d="M129.4,63.4l2.4-10.6L129,64.9l-2.6,12.3l2.3-10.8C128.9,65.6,129.2,64.2,129.4,63.4L129.4,63.4z"/>
	<path class="jq0" d="M157.9,18.8H141c-0.9,0-1.7,0.7-1.9,1.5l-1.6,7.1l-1.6,7.1c-0.2,0.8,0.4,1.5,1.2,1.5h17c0.9,0,1.7-0.7,1.9-1.5
		l1.5-7.1l1.5-7.1v0C159.3,19.5,158.8,18.8,157.9,18.8L157.9,18.8z"/>
	<path class="jq0" d="M154.2,42.3L154.2,42.3l-4.9,22.9L154.2,42.3z"/>
	<path class="jq0" d="M105.3,118.1c0,0,8.5,0.1,13.9,0.1C115,118.2,108.3,118.1,105.3,118.1C105.2,118.1,105.2,118.1,105.3,118.1
		L105.3,118.1z"/>
	<path class="jq0" d="M134.1,42.3l-2.4,10.6L134.1,42.3z"/>
	<path class="jq0" d="M153,40.8h-17c-0.9,0-1.7,0.7-1.9,1.5l-2.4,10.6l-2.4,10.6c-0.2,0.8-0.5,2.2-0.7,3l-2.3,10.8L124.1,88
		c-0.2,0.8-0.5,2.2-0.8,3c0,0-3.2,9.4-8.5,9.3c-0.2,0-0.4,0-0.7,0c-2.6,0-4.6-0.1-4.6-0.1h0c-0.9,0-1.7,0.7-1.9,1.5l-1.8,7.4
		l-1.8,7.4c-0.2,0.8,0.3,1.5,1.2,1.5c3,0,9.8,0.1,13.9,0.1c13.3,0,20.4-7.4,24.9-28.6l5.3-24.4l4.9-22.9
		C154.4,41.4,153.9,40.8,153,40.8L153,40.8z"/>
	<path class="jq0" d="M394.5,89.5c-0.9,0-1.4-0.7-1.2-1.5L406,28.1"/>
	<path class="jq0" d="M412.2,88l5.2-25.6L412.2,88z"/>
	<path class="jq0" d="M393.4,88.8c-0.1-0.4,0-1.4,0.1-2.3l6.1-28.4L393.2,88c-0.2,0.8,0.4,1.5,1.2,1.5h1.6
		C395.2,89.5,393.5,89.2,393.4,88.8L393.4,88.8z"/>
	<path class="jq0" d="M411.2,89.2c-0.5,0.2-1.5,0.3-2.4,0.3h1.6c0.9,0,1.7-0.7,1.9-1.5l0.3-1.5C412.4,87.3,411.7,89,411.2,89.2
		L411.2,89.2z"/>
	<path class="jq0" d="M414.8,75.2l2.3-11.3c0,0,0,0,0,0L414.8,75.2L414.8,75.2z"/>
	<path class="jq0" d="M465.3,32.1L466,35c0.2,0.8-0.3,1.5-1.2,1.5"/>
	<path class="jq0" d="M412.5,86.5l2.3-11.3L412.5,86.5z"/>
	<path class="jq0" d="M464.6,29.1l0.7,3L464.6,29.1z"/>
	<path class="jq0" d="M417.1,63.9c0.2-0.8,0.5-2.2,0.6-3l2.4-11.4l-2.8,12.9L417.1,63.9L417.1,63.9z"/>
	<path class="jq0" d="M406.2,27.1c-0.2,0.8-0.4,1.8-0.5,2.5l-6.1,28.4l6.4-29.9L406.2,27.1L406.2,27.1z"/>
	<path class="jq0" d="M466,35l-0.7-2.9l-0.7-3l-0.4-1.5c-1.4-5.4-5.4-8.5-14.2-8.5l-13.7,0l-12.6,0h-1.1h-13.1
		c-0.9,0-1.7,0.7-1.9,1.5h0l-0.6,3l-0.7,3.5l-0.2,1l-6.4,29.9l-6.1,28.4c-0.2,0.8-0.2,1.9-0.1,2.3c0.1,0.4,1.7,0.8,2.6,0.8h12.8
		c0.9,0,1.9-0.2,2.4-0.3c0.5-0.2,1.2-1.9,1.3-2.7l2.3-11.3l2.3-11.3c0,0,0,0,0,0l0.3-1.5l2.8-12.9l2.4-11.4c0.2-0.8,1-1.5,1.9-1.5
		l40.3,0C465.6,36.5,466.2,35.9,466,35L466,35z"/>
	<path class="jq0" d="M517.9,8.7c-0.9,0-2.2,0-3.1,0h-12.9c-0.9,0-1.9,0.6-2.4,1.3l-28.5,41.8c-0.5,0.7-1,0.6-1.2-0.2l-2.1-9.2
		c-0.2-0.8-1-1.5-1.9-1.5h-18.3c-0.9,0-1.4,0.7-1.1,1.5l8.2,28.8c0.2,0.8,0.3,2.2,0,3l-3.6,13.9c-0.2,0.8,0.3,1.5,1.2,1.5h18.1
		c0.9,0,1.7-0.7,1.9-1.5l3.6-13.9c0.2-0.8,0.8-2.1,1.3-2.7l46.3-61.5c0.5-0.7,0.2-1.2-0.6-1.2L517.9,8.7L517.9,8.7z"/>
	<path class="jq0" d="M372.2,44.8L372.2,44.8c-0.1,0.9-1,1.6-1.8,1.6h-23.2c-0.8,0-1.2-0.5-1.1-1.2c0,0,0,0,0-0.1c0,0,0,0,0,0
		c0,0,0-0.1,0-0.1c0,0,0-0.2,0.1-0.4c2.2-5.9,6.7-9.8,15.2-9.8C371,34.8,372.8,39.5,372.2,44.8L372.2,44.8z M365.4,17.9
		c-29.8,0-36.9,18.1-40.9,36.4c-4,18.6-3.6,36.1,27.3,36.1h1.1c0.1,0,0.2,0,0.3,0h0.9h0.3h0.8c0.1,0,0.2,0,0.4,0c0.3,0,0.6,0,0.9,0
		h0.2c1.2,0,2.5,0,3.7,0h0.1c8.2,0,16.3-0.1,19.6-0.1c0.8,0,1.7-0.7,1.9-1.5l1.3-6.1l0.2-1.2l1.5-7.3c0.2-0.8-0.4-1.5-1.2-1.5h-27.8
		c-11,0-14.3-2.9-13.1-11.6h44.4l0,0c0,0,0,0,0,0c0.7,0,1.4-0.5,1.6-1.1c0-0.1,0.1-0.3,0.1-0.4l0,0
		C395.5,34.7,393.6,17.9,365.4,17.9L365.4,17.9z"/>
	<path class="jq0" d="M224.3,44.7l-0.4,1.5c0,0,0,0,0,0L220.5,58l-3.3,11.9c-0.2,0.8-1.1,1.5-2,1.5h-17.7c-13.5,0-16.7-10.5-13.5-26
		c3.3-15.9,9.7-25.7,22.9-26.7C225.1,17.3,228.7,30,224.3,44.7L224.3,44.7z M236.5,70.5c0,0,8.4-20.3,10.3-32
		C249.3,22.8,241.5,0,211.1,0c-30.2,0-43.3,21.7-48.3,45.4c-5,23.8,1.6,44.7,31.6,44.5l23.7-0.1l22.1-0.1c0.9,0,1.7-0.7,1.9-1.5
		l3.9-14.7c0.2-0.8-0.3-1.5-1.2-1.5l-3.7,0l-3.7,0c-0.7,0-1.1-0.5-1.1-1.1C236.4,70.7,236.4,70.6,236.5,70.5L236.5,70.5z"/>
	<path class="jq0" d="M385.9,56.9c0,0.6-0.5,1-1,1c-0.6,0-1-0.5-1-1c0-0.6,0.5-1,1-1C385.5,55.9,385.9,56.3,385.9,56.9z"/>
	<path class="jq1" d="M6,30.5c-8.3,12-7.3,27.6-0.9,40.3c0.2,0.3,0.3,0.6,0.5,0.9c0.1,0.2,0.2,0.4,0.3,0.6c0.1,0.1,0.1,0.2,0.2,0.3
		c0.1,0.2,0.2,0.4,0.3,0.6c0.2,0.3,0.4,0.7,0.6,1c0.1,0.2,0.2,0.4,0.3,0.6c0.2,0.4,0.5,0.7,0.7,1.1c0.1,0.2,0.2,0.3,0.3,0.5
		c0.3,0.5,0.7,1,1,1.5c0,0,0,0,0,0c0.1,0.1,0.1,0.2,0.2,0.2c0.3,0.4,0.6,0.8,0.9,1.2c0.1,0.1,0.2,0.3,0.4,0.4
		c0.3,0.4,0.6,0.7,0.9,1.1c0.1,0.1,0.2,0.3,0.3,0.4c0.4,0.5,0.8,0.9,1.2,1.4c0,0,0,0,0,0c0,0,0,0,0,0.1c0.4,0.4,0.8,0.9,1.2,1.3
		c0.1,0.1,0.3,0.3,0.4,0.4c0.3,0.3,0.6,0.6,1,1c0.1,0.1,0.3,0.3,0.4,0.4c0.4,0.4,0.9,0.8,1.3,1.2c0,0,0,0,0,0
		c0.1,0.1,0.2,0.1,0.2,0.2c0.4,0.3,0.8,0.7,1.2,1c0.2,0.1,0.3,0.3,0.5,0.4c0.3,0.3,0.7,0.5,1,0.8c0.2,0.1,0.4,0.3,0.5,0.4
		c0.4,0.3,0.8,0.5,1.1,0.8c0.1,0.1,0.3,0.2,0.4,0.3c0,0,0.1,0.1,0.1,0.1c0.4,0.2,0.7,0.5,1.1,0.7c0.2,0.1,0.3,0.2,0.5,0.3
		c0.6,0.4,1.1,0.7,1.7,1.1c0.2,0.1,0.3,0.2,0.5,0.3c0.4,0.2,0.9,0.5,1.3,0.7c0.2,0.1,0.5,0.2,0.7,0.4c0.3,0.2,0.6,0.3,0.9,0.5
		c0.1,0,0.1,0.1,0.2,0.1c0.1,0.1,0.3,0.1,0.4,0.2c0.5,0.2,1,0.5,1.5,0.7c0.1,0,0.2,0.1,0.3,0.1c0.6,0.2,1.1,0.5,1.7,0.7
		c0.1,0.1,0.3,0.1,0.4,0.2c0.5,0.2,1.1,0.4,1.6,0.6c0.1,0,0.1,0,0.2,0.1c0.6,0.2,1.2,0.4,1.8,0.6c0.1,0,0.3,0.1,0.4,0.1
		c0.6,0.2,1.2,0.4,1.9,0.5c40.3,7.4,52-24.2,52-24.2C82,87.4,64.6,90.8,48,87c-0.6-0.1-1.2-0.3-1.8-0.5c-0.2,0-0.3-0.1-0.5-0.1
		c-0.6-0.2-1.2-0.4-1.8-0.6c-0.1,0-0.2-0.1-0.2-0.1c-0.5-0.2-1-0.4-1.6-0.6C42,85,41.9,85,41.7,84.9c-0.6-0.2-1.1-0.5-1.7-0.7
		c-0.1,0-0.2-0.1-0.3-0.1c-0.5-0.2-1-0.4-1.4-0.7c-0.1-0.1-0.3-0.1-0.4-0.2c-0.4-0.2-0.7-0.4-1.1-0.6c-0.2-0.1-0.5-0.3-0.7-0.4
		c-0.4-0.2-0.9-0.5-1.3-0.7c-0.1-0.1-0.3-0.2-0.4-0.2c-0.6-0.3-1.2-0.7-1.7-1.1c-0.2-0.1-0.3-0.2-0.5-0.3c-0.4-0.3-0.8-0.5-1.2-0.8
		c-0.1-0.1-0.3-0.2-0.4-0.3c-0.4-0.3-0.8-0.6-1.2-0.8c-0.2-0.1-0.3-0.3-0.5-0.4c-0.4-0.3-0.7-0.5-1-0.8c-0.2-0.1-0.3-0.2-0.5-0.4
		c-0.4-0.4-0.9-0.7-1.3-1.1c0,0-0.1-0.1-0.1-0.1c-0.5-0.4-0.9-0.8-1.4-1.2c-0.1-0.1-0.3-0.2-0.4-0.4c-0.3-0.3-0.7-0.6-1-1
		c-0.1-0.1-0.3-0.3-0.4-0.4c-0.4-0.4-0.8-0.8-1.2-1.3c0,0,0,0-0.1-0.1c-0.4-0.5-0.8-0.9-1.2-1.4c-0.1-0.1-0.2-0.3-0.3-0.4
		c-0.3-0.4-0.6-0.7-0.9-1.1c-0.1-0.1-0.2-0.3-0.3-0.4c-0.3-0.4-0.7-0.9-1-1.4c-9.2-12.5-12.5-29.8-5.1-44"/>
	<path class="jq1" d="M31.9,20.4c-6,8.7-5.7,20.3-1,29.5c0.8,1.5,1.7,3,2.7,4.5c0.9,1.3,1.9,2.8,3.1,3.9c0.4,0.5,0.9,0.9,1.4,1.4
		c0.1,0.1,0.2,0.2,0.4,0.4c0.5,0.4,0.9,0.9,1.4,1.3c0,0,0,0,0.1,0c0,0,0,0,0,0c0.5,0.5,1.1,0.9,1.6,1.3c0.1,0.1,0.2,0.2,0.4,0.3
		c0.6,0.4,1.1,0.8,1.7,1.2c0,0,0,0,0,0c0.3,0.2,0.5,0.3,0.8,0.5c0.1,0.1,0.2,0.2,0.4,0.2c0.4,0.3,0.8,0.5,1.3,0.8
		c0.1,0,0.1,0.1,0.2,0.1c0.4,0.2,0.7,0.4,1.1,0.6c0.1,0.1,0.3,0.1,0.4,0.2c0.3,0.1,0.5,0.3,0.8,0.4c0,0,0.1,0,0.1,0.1
		c0.5,0.3,1.1,0.5,1.6,0.8c0.1,0.1,0.2,0.1,0.4,0.1c0.4,0.2,0.9,0.4,1.3,0.5c0.2,0.1,0.4,0.1,0.6,0.2c0.4,0.1,0.8,0.3,1.2,0.4
		c0.2,0.1,0.4,0.1,0.5,0.2c0.6,0.2,1.2,0.4,1.8,0.5C87,75,94.1,51,94.1,51c-6.5,9.3-19,13.8-32.4,10.3c-0.6-0.2-1.2-0.3-1.8-0.5
		c-0.2-0.1-0.4-0.1-0.5-0.2c-0.4-0.1-0.8-0.3-1.2-0.4c-0.2-0.1-0.4-0.1-0.6-0.2c-0.4-0.2-0.9-0.3-1.3-0.5c-0.1-0.1-0.2-0.1-0.4-0.2
		c-0.5-0.2-1.1-0.5-1.6-0.8c-0.3-0.1-0.5-0.3-0.8-0.4c-0.2-0.1-0.3-0.2-0.5-0.2c-0.3-0.2-0.7-0.4-1-0.6c-0.1,0-0.2-0.1-0.2-0.1
		c-0.4-0.2-0.8-0.5-1.2-0.8c-0.1-0.1-0.2-0.2-0.4-0.3c-0.3-0.2-0.5-0.4-0.8-0.5c-0.6-0.4-1.1-0.8-1.7-1.2c-0.1-0.1-0.3-0.2-0.4-0.3
		C41.4,49.5,36.8,43.2,34.6,36c-2.3-7.4-1.8-15.8,2.2-22.6"/>
	<path class="jq1" d="M53.6,12.9c-3.6,5.2-3.9,11.7-1.4,17.5c2.6,6.1,7.9,10.9,14.1,13.2c0.3,0.1,0.5,0.2,0.8,0.3
		c0.1,0,0.2,0.1,0.3,0.1c0.4,0.1,0.7,0.2,1.1,0.3c17.2,3.3,21.8-8.8,23.1-10.6c-4.1,5.9-10.9,7.3-19.4,5.2c-0.7-0.2-1.4-0.4-2-0.6
		c-0.8-0.3-1.6-0.6-2.4-1c-1.5-0.7-2.9-1.6-4.2-2.6C56,29,51.4,18.1,56.3,9.2"/>
</g>
</svg>
