<?xml version="1.0" encoding="utf-8"?>
<!-- Generator: Adobe Illustrator 24.0.0, SVG Export Plug-In . SVG Version: 6.00 Build 0)  -->
<svg version="1.1" id="Слой_1" xmlns="http://www.w3.org/2000/svg" xmlns:xlink="http://www.w3.org/1999/xlink" x="0px" y="0px"
	 viewBox="0 0 700.1 274" style="enable-background:new 0 0 700.1 274;" xml:space="preserve">
<style type="text/css">
	.sl0{fill:#729544;}
	.sl1{fill:#93BD5A;}
</style>
<g>
	<g>
		<g transform="translate(0.000000, 11.000000)">
			<path class="sl0" d="M50.4,22.7c-1.5,3.5-3.2,6.9-4.4,10.5C43,41.9,42.2,50.9,43,60c0.6,7.3,2,14.3,4.8,21.1
				c3.9,9.3,9.9,16.9,17.7,23.3c7.6,6.3,16.1,11,25,15.1c11.2,5.2,22.8,9.3,34.4,13.4c12.1,4.2,24.1,8.8,35.4,14.9
				c7.7,4.1,15,8.9,21.2,15.1c7.7,7.8,12.3,17.1,13.7,28c1.8,14.3-2.3,26.7-11.9,37.4c-9.1,10.1-20.5,16.4-33.5,20
				c-10,2.7-20.2,3.3-30.6,2.1c-20.4-2.4-38.3-10.7-54.6-22.8c-2.7-2-5.3-4.3-7.9-6.5c-0.3-0.3-0.7-0.6-1-0.9c-2-1.6-4-1.7-6.1-0.2
				c-1.1,0.8-2,1.9-3.2,3c-2.5-2.3-5.1-4.5-7.5-6.9c-17-16.6-28.7-36.4-34.8-59.5c-2.3-8.6-3.6-17.4-4-26.4
				c-1.1-23.7,3.9-46,15.2-66.8c8.6-16,20.2-29.6,34.6-40.7c0.1-0.1,0.3-0.1,0.4-0.2C50.3,22.7,50.4,22.7,50.4,22.7"/>
			<path class="sl1" d="M208.9,223.2c1-2.5,2.1-4.9,3-7.4c2.1-5.8,3.1-11.9,3.1-18c0.1-8.6-1.1-17.1-4.1-25.2
				c-3.2-8.8-8.4-16.3-15.1-22.9c-7.5-7.3-16.1-12.9-25.3-17.7c-13-6.8-26.6-12-40.4-16.8c-9.3-3.2-18.6-6.2-27.6-10.2
				c-8.7-3.9-17.1-8.3-24.4-14.5c-7.1-6-12.4-13.2-15-22.2c-4.8-16.6-2.1-31.9,8.6-45.6C77.7,15,85.3,9.7,94.2,6.1
				c7.6-3.2,15.5-4.9,23.6-5.6c5.7-0.5,11.5-0.6,17.2-0.1c8.5,0.8,16.8,2.7,24.8,5.6c9,3.2,17.6,7.3,25.7,12.5
				c0.6,0.4,1.2,0.7,1.8,0.9c2.1,0.9,4.1,0.6,5.7-1c0.9-0.8,1.5-1.9,2.4-2.9c2.1,1.4,4.4,2.9,6.6,4.4c15.3,10.9,27.7,24.5,37.1,40.8
				c7.2,12.5,12.1,25.9,14.8,40.1c1.7,9,2.4,18.1,2.2,27.3c-0.5,16.4-3.9,32.2-10.5,47.3c-6.8,15.6-16.4,29.4-28.6,41.2
				c-2.5,2.4-5.2,4.6-7.8,6.9C209,223.2,208.9,223.2,208.9,223.2"/>
		</g>
	</g>
	<g>
		<path class="sl0" d="M326.1,201.6c-1.7-1.4-1.9-3-0.7-4.9l2.1-2.8c1.9-2,3.6-2.3,5.1-0.9c13.3,11.9,27.7,17.9,43,17.9
			c10.5,0,19.7-3.1,27.4-9.2c7.7-6.1,11.6-13.4,11.6-22c0-9.6-3.6-17.3-10.9-23c-7.3-5.7-18.7-11.2-34.2-16.5
			c-15.5-5.4-26.9-11.3-34.1-17.7c-7.2-6.4-10.8-15.7-10.8-28.1c0-4.6,1-9.3,2.9-13.8c1.9-4.6,4.8-8.9,8.5-13.1
			c3.7-4.2,9-7.6,15.7-10.2c6.7-2.6,14.4-4,23.1-4c6.8,0,13.6,1,20.2,3c6.7,2,11.6,4,14.9,5.8l4.9,3c1.9,1.4,2.2,3,0.9,4.9
			c-0.8,0.9-1.4,1.9-1.9,3c-1.4,2-3.1,2.4-5.1,1.2c-11-7.3-22.4-10.9-34.2-10.9c-13,0-22.8,3.2-29.4,9.5c-6.6,6.4-9.9,13.5-9.9,21.4
			c0,9.1,3.2,16.4,9.5,21.6c6.4,5.3,16,10.1,29.1,14.4c17.8,6.2,31,12.8,39.4,19.8c8.4,7,12.7,16.7,12.7,29.3
			c0,11.5-5,21.2-15.1,29.3c-10.1,8.1-21.9,12.1-35.6,12.1c-6.4,0-12.6-0.8-18.6-2.4s-11.2-3.7-15.6-6.3c-4.3-2.6-7.6-4.6-9.8-6
			C329.3,204.5,327.5,203,326.1,201.6z"/>
		<path class="sl0" d="M454.4,215.3V58.7c0-2,1-3,3-3h4.2c2,0,3,1,3,3v156.7c0,2-1,3-3,3H457C455.3,218.4,454.4,217.4,454.4,215.3z"
			/>
		<path class="sl0" d="M510.7,77.6c-1.6,1.5-3.4,2.2-5.6,2.2c-2.2,0-4-0.7-5.6-2.2c-1.6-1.5-2.3-3.3-2.3-5.5c0-2.2,0.8-4.1,2.3-5.7
			c1.5-1.6,3.4-2.4,5.6-2.4c2.2,0,4,0.8,5.6,2.4c1.5,1.6,2.3,3.5,2.3,5.7C513,74.3,512.2,76.1,510.7,77.6z M500,215.3v-86.9
			c0-2,1-3,3-3h4.2c2,0,3,1,3,3v86.9c0,2-1,3-3,3h-4.6C500.8,218.4,500,217.4,500,215.3z"/>
		<path class="sl0" d="M545.6,215.3v-86.9c0-2,1-3,3-3h2.8c1.4,0,2.2,0.8,2.6,2.3l1.2,10c1.2-1.7,3-3.5,5.2-5.5
			c2.2-1.9,5.8-4,10.8-6c5-2.1,10.3-3.1,16-3.1c14.3,0,24.4,5.7,30.5,17c1.4-1.9,3.4-3.9,5.9-6.2c2.6-2.2,6.6-4.6,12.1-7.1
			c5.5-2.5,11.1-3.7,16.9-3.7c24.2,0,36.3,14.2,36.3,42.5v49.7c0,2-1,3-3,3h-4.6c-1.7,0-2.6-1-2.6-3v-49.7
			c0-21.7-8.9-32.5-26.7-32.5c-11.9,0-22.2,5.3-30.7,15.8c1.4,4.8,2.1,10.4,2.1,16.7v49.7c0,2-1,3-3,3h-4.4c-1.9,0-2.8-1-2.8-3
			v-49.7c0-10.7-2.3-18.8-7-24.3c-4.6-5.5-11.3-8.3-20-8.3c-5.6,0-10.9,1.3-15.8,4c-5,2.6-8.4,5-10.2,7c-1.9,2-3.3,3.7-4.2,5.1v66.3
			c0,2-1,3-3,3h-4.6C546.4,218.4,545.6,217.4,545.6,215.3z"/>
	</g>
</g>
</svg>
