<svg xmlns="http://www.w3.org/2000/svg" width="512" height="512" viewBox="0 0 95.9 95.9"><path d="M95.3 59.9c0-7.2 0-12.3-3.5-16.9-4-5.1-10.1-6-15.1-6.1.8-3.6 1-7.6.7-11.9C77.3 10.7 66.6.4 51.8 0h-23C20 0 13 2.6 8 7.8c-3 3.2-7 8.8-7.5 17.9v38.5c0 10.4 1.7 17.9 6.8 23.4 5.2 5.5 12.9 8.3 22.8 8.3h35.2c9 0 16.4-3 21.7-8.4A31.9 31.9 0 0 0 95.4 65V60zM30.8 19.5h19.4c4.5 0 8.2 4 8 8.6A8 8 0 0 1 50 36H30.6a8.2 8.2 0 0 1 .2-16.4zm36.4 54.2H28.5a8.2 8.2 0 0 1 0-16.5h38.7a8.2 8.2 0 1 1 0 16.5z" fill="#9772af"/></svg>