<svg version="1.1" xmlns="http://www.w3.org/2000/svg" xmlns:xlink="http://www.w3.org/1999/xlink" viewBox="0 0 480 448">
<path d="M224 224q0-26.5-18.75-45.25t-45.25-18.75-45.25 18.75-18.75 45.25 18.75 45.25 45.25 18.75 45.25-18.75 18.75-45.25zM416 352q0-13-9.5-22.5t-22.5-9.5-22.5 9.5-9.5 22.5q0 13.25 9.375 22.625t22.625 9.375 22.625-9.375 9.375-22.625zM416 96q0-13-9.5-22.5t-22.5-9.5-22.5 9.5-9.5 22.5q0 13.25 9.375 22.625t22.625 9.375 22.625-9.375 9.375-22.625zM320 201.25v46.25q0 2.5-1.75 4.875t-4 2.625l-38.75 6q-2.75 8.75-8 19 8.5 12 22.5 28.75 1.75 2.5 1.75 5 0 3-1.75 4.75-5.75 7.5-20.625 22.375t-19.625 14.875q-2.75 0-5.25-1.75l-28.75-22.5q-9.25 4.75-19.25 7.75-2.75 27-5.75 38.75-1.75 6-7.5 6h-46.5q-2.75 0-5-1.875t-2.5-4.375l-5.75-38.25q-8.5-2.5-18.75-7.75l-29.5 22.25q-1.75 1.75-5 1.75-2.75 0-5.25-2-36-33.25-36-40 0-2.25 1.75-4.75 2.5-3.5 10.25-13.25t11.75-15.25q-5.75-11-8.75-20.5l-38-6q-2.5-0.25-4.25-2.375t-1.75-4.875v-46.25q0-2.5 1.75-4.875t4-2.625l38.75-6q2.75-8.75 8-19-8.5-12-22.5-28.75-1.75-2.75-1.75-5 0-3 1.75-5 5.5-7.5 20.5-22.25t19.75-14.75q2.75 0 5.25 1.75l28.75 22.5q8.5-4.5 19.25-8 2.75-27 5.75-38.5 1.75-6 7.5-6h46.5q2.75 0 5 1.875t2.5 4.375l5.75 38.25q8.5 2.5 18.75 7.75l29.5-22.25q2-1.75 5-1.75 2.75 0 5.25 2 36 33.25 36 40 0 2.25-1.75 4.75-3 4-10.5 13.5t-11.25 15q5.75 12 8.5 20.5l38 5.75q2.5 0.5 4.25 2.625t1.75 4.875zM480 334.5v35q0 4-37.25 7.75-3 6.75-7.5 13 12.75 28.25 12.75 34.5 0 1-1 1.75-30.5 17.75-31 17.75-2 0-11.5-11.75t-13-17q-5 0.5-7.5 0.5t-7.5-0.5q-3.5 5.25-13 17t-11.5 11.75q-0.5 0-31-17.75-1-0.75-1-1.75 0-6.25 12.75-34.5-4.5-6.25-7.5-13-37.25-3.75-37.25-7.75v-35q0-4 37.25-7.75 3.25-7.25 7.5-13-12.75-28.25-12.75-34.5 0-1 1-1.75 1-0.5 8.75-5t14.75-8.5 7.5-4q2 0 11.5 11.625t13 16.875q5-0.5 7.5-0.5t7.5 0.5q12.75-17.75 23-28l1.5-0.5q1 0 31 17.5 1 0.75 1 1.75 0 6.25-12.75 34.5 4.25 5.75 7.5 13 37.25 3.75 37.25 7.75zM480 78.5v35q0 4-37.25 7.75-3 6.75-7.5 13 12.75 28.25 12.75 34.5 0 1-1 1.75-30.5 17.75-31 17.75-2 0-11.5-11.75t-13-17q-5 0.5-7.5 0.5t-7.5-0.5q-3.5 5.25-13 17t-11.5 11.75q-0.5 0-31-17.75-1-0.75-1-1.75 0-6.25 12.75-34.5-4.5-6.25-7.5-13-37.25-3.75-37.25-7.75v-35q0-4 37.25-7.75 3.25-7.25 7.5-13-12.75-28.25-12.75-34.5 0-1 1-1.75 1-0.5 8.75-5t14.75-8.5 7.5-4q2 0 11.5 11.625t13 16.875q5-0.5 7.5-0.5t7.5 0.5q12.75-17.75 23-28l1.5-0.5q1 0 31 17.5 1 0.75 1 1.75 0 6.25-12.75 34.5 4.25 5.75 7.5 13 37.25 3.75 37.25 7.75z"></path>
</svg>
