<svg
   viewBox="0 0 100 110"
   version="1.1"
   inkscape:version="0.91 r13725"
   width="100"
   height="110">
  <path
     d="m 7.4378028,24.625157 7.8796982,75.529643 35.356592,8.3882 35.455223,-8.39905 7.888487,-75.518793 -86.5800002,0 z M 75.024108,66.76478 72.72924,85.03686 l 0.0088,1.56496 -22.010226,5.2541 0,8.3e-4 -0.01758,0.0125 -22.186012,-5.19567 -1.500941,-14.473604 10.879628,0 0.771466,7.31651 12.057334,2.750164 -0.0039,0.0125 0,-0.0267 12.103226,-2.917092 1.277313,-12.143269 -25.299211,0 -0.216791,-1.965592 -0.49413,-4.713248 -0.258783,-2.50227 27.231783,0 0.990212,-9.181109 -41.476566,0 -0.217769,-2.160899 -0.494129,-5.032917 -0.258783,-2.82194 54.292672,0 -0.260736,2.782711 -2.622009,25.167925"
     id="path4" />
  <path
     d="m 75.141293,14.92156 -6.981282,-6.989329 6.981282,0 0,-4.173231 -15.624634,0 0,3.641562 8.193167,6.374194 -8.193167,0 0,4.173231 15.624634,0 z m -18.554252,0 -6.647305,-6.989329 6.647305,0 0,-4.173231 -14.648094,0 0,3.641562 7.55158,6.374194 -7.55158,0 0,4.173231 14.648094,0 z m -17.577713,-1.146804 -7.812317,0 0,-5.842525 7.812317,0 0,-4.173231 -13.671554,0 0,14.188987 13.671554,0 z"
     id="path6" />
</svg>
