<?xml version="1.0" encoding="utf-8"?>
<!-- Generated by IcoMoon.io -->
<!DOCTYPE svg PUBLIC "-//W3C//DTD SVG 1.1//EN" "http://www.w3.org/Graphics/SVG/1.1/DTD/svg11.dtd">
<svg version="1.1" xmlns="http://www.w3.org/2000/svg" xmlns:xlink="http://www.w3.org/1999/xlink" width="384" height="448" viewBox="0 0 384 448">
<g id="icomoon-ignore">
</g>
<path d="M192 192q59.25 0 110.75-10.75t81.25-31.75v42.5q0 17.25-25.75 32t-70 23.375-96.25 8.625-96.25-8.625-70-23.375-25.75-32v-42.5q29.75 21 81.25 31.75t110.75 10.75zM192 384q59.25 0 110.75-10.75t81.25-31.75v42.5q0 17.25-25.75 32t-70 23.375-96.25 8.625-96.25-8.625-70-23.375-25.75-32v-42.5q29.75 21 81.25 31.75t110.75 10.75zM192 288q59.25 0 110.75-10.75t81.25-31.75v42.5q0 17.25-25.75 32t-70 23.375-96.25 8.625-96.25-8.625-70-23.375-25.75-32v-42.5q29.75 21 81.25 31.75t110.75 10.75zM192 0q52 0 96.25 8.625t70 23.375 25.75 32v32q0 17.25-25.75 32t-70 23.375-96.25 8.625-96.25-8.625-70-23.375-25.75-32v-32q0-17.25 25.75-32t70-23.375 96.25-8.625z"></path>
</svg>
