<svg version="1.1" xmlns="http://www.w3.org/2000/svg" xmlns:xlink="http://www.w3.org/1999/xlink" viewBox="0 0 1024 1024">
<path d="M981.74 376.886h-939.38c-7.614 0-14.53-4.413-17.739-11.321s-2.121-15.049 2.777-20.861l225.297-267.214c3.72-4.413 9.187-6.958 14.962-6.958h488.841c5.775 0 11.242 2.545 14.962 6.958l225.247 267.214c4.903 5.82 5.991 13.966 2.777 20.861s-10.13 11.321-17.739 11.321zM84.464 337.746h855.188l-192.251-228.074h-470.649l-192.288 228.074z"></path>
<path d="M512.050 945.477l-484.66-575.557 29.945-25.208 454.72 539.987 454.72-539.987 29.945 25.208z"></path>
<path d="M512.050 934.654v0c-8.307 0-15.697-5.235-18.453-13.065l-196.643-557.768c-2.163-6.115-1.146-12.886 2.69-18.113l196.643-267.214c7.356-10.022 24.141-10.022 31.518 0l196.685 267.214c3.844 5.214 4.853 11.998 2.69 18.113l-196.685 557.768c-2.748 7.83-10.138 13.065-18.445 13.065zM337.306 360.575l174.736 495.662 174.773-495.662-174.765-237.456-174.744 237.456z"></path>
<path d="M286.919 86.654l47.746 267.208-38.531 6.884-47.746-267.208 38.531-6.884z"></path>
<path d="M737.251 86.644l38.531 6.887-47.774 267.216-38.531-6.887 47.774-267.216z"></path>
</svg>
