<svg xmlns="http://www.w3.org/2000/svg" width="135" height="158"><defs><linearGradient id="esc" x1="0%" x2="73.616%" y1="71.319%" y2="143.52%"><stop stop-color="#B24E98" offset="0%"/><stop stop-color="#7F51B9" offset="100%"/></linearGradient></defs><g fill="none" fill-rule="evenodd"><path fill="url(#esc)" d="M60.742 44.165c3.71-.113 29.714.28 51.2 31.923 23.192 34.156 22.82 81.877 22.82 81.877H116.31s-10.376-52.614-11.653-53.475C80.624 88.272 61.01 89.712 60.742 89.732v44.13H42.328l-23.523-66.93L42.328 0h18.414v44.165z"/><path fill="#FFF0F0" d="M42.362 44.165c3.71-.113 29.714.28 51.2 31.923 23.192 34.156 22.82 81.877 22.82 81.877s-5.905-37.146-30.105-53.475C62.244 88.272 42.63 89.712 42.362 89.732v44.13L.424 66.932 42.362 0v44.165z"/></g></svg>