<svg width="56px" height="99px" viewBox="0 0 56 99" version="1.1" xmlns="http://www.w3.org/2000/svg" xmlns:xlink="http://www.w3.org/1999/xlink">
    <g stroke="none" stroke-width="1" fill="none" fill-rule="evenodd">
        <g id="esc-button">
            <path d="M3.2027633,46.2027633 L52.6458257,95.6458257" stroke="#FFFFFF" stroke-width="4" stroke-linecap="square"></path>
            <path d="M52.7972367,46.2027633 L3.35417435,95.6458257" stroke="#FFFFFF" stroke-width="4" stroke-linecap="square"></path>
            <path d="M14.1975098,24 L0.871826172,24 L0.871826172,0.442382812 L14.1975098,0.442382812 L14.1975098,3.69726563 L4.72290039,3.69726563 L4.72290039,10.1103516 L13.6013184,10.1103516 L13.6013184,13.3330078 L4.72290039,13.3330078 L4.72290039,20.7290039 L14.1975098,20.7290039 L14.1975098,24 Z M32.8728027,17.6030273 C32.8728027,19.6977644 32.1154861,21.3413026 30.6008301,22.5336914 C29.0861741,23.7260802 26.9968395,24.3222656 24.3327637,24.3222656 C21.6686879,24.3222656 19.4880456,23.9086955 17.7907715,23.081543 L17.7907715,19.4399414 C18.8649956,19.9448267 20.0063416,20.3422837 21.2148438,20.6323242 C22.4233459,20.9223647 23.5485788,21.0673828 24.5905762,21.0673828 C26.1159744,21.0673828 27.2412073,20.7773467 27.9663086,20.1972656 C28.6914099,19.6171846 29.0539551,18.8383838 29.0539551,17.8608398 C29.0539551,16.9799761 28.7209506,16.2334015 28.0549316,15.6210938 C27.3889127,15.008786 26.0139264,14.2836956 23.9299316,13.4458008 C21.7814834,12.5756792 20.2668501,11.5820368 19.3859863,10.4648438 C18.5051225,9.34765066 18.0646973,8.00489065 18.0646973,6.43652344 C18.0646973,4.4706933 18.7629325,2.92383376 20.1594238,1.79589844 C21.5559152,0.66796311 23.4304082,0.104003906 25.782959,0.104003906 C28.0388296,0.104003906 30.2839244,0.59813959 32.5183105,1.58642578 L31.2937012,4.72851562 C29.1989641,3.84765185 27.3298422,3.40722656 25.6862793,3.40722656 C24.4401793,3.40722656 23.4948763,3.67846408 22.8503418,4.22094727 C22.2058073,4.76343045 21.8835449,5.48046429 21.8835449,6.37207031 C21.8835449,6.98437806 22.0124499,7.50805447 22.2702637,7.94311523 C22.5280775,8.378176 22.9523896,8.78906057 23.5432129,9.17578125 C24.1340362,9.56250193 25.1975021,10.0727507 26.7336426,10.706543 C28.4631434,11.4262731 29.7307089,12.0976531 30.536377,12.7207031 C31.342045,13.3437531 31.9328594,14.0473594 32.3088379,14.831543 C32.6848163,15.6157266 32.8728027,16.5395455 32.8728027,17.6030273 L32.8728027,17.6030273 Z M47.4553223,3.40722656 C45.2424206,3.40722656 43.5022036,4.19139841 42.2346191,5.75976562 C40.9670347,7.32813284 40.333252,9.49266198 40.333252,12.253418 C40.333252,15.1430809 40.942865,17.3290942 42.1621094,18.8115234 C43.3813538,20.2939527 45.1457404,21.0351562 47.4553223,21.0351562 C48.4543507,21.0351562 49.4211379,20.935792 50.3557129,20.7370605 C51.2902879,20.5383291 52.2624461,20.2832047 53.2722168,19.9716797 L53.2722168,23.2749023 C51.4245513,23.973148 49.3298457,24.3222656 46.9880371,24.3222656 C43.5397777,24.3222656 40.8918549,23.2775983 39.0441895,21.1882324 C37.196524,19.0988665 36.2727051,16.1098827 36.2727051,12.2211914 C36.2727051,9.77196041 36.7211869,7.62891543 37.6181641,5.79199219 C38.5151412,3.95506894 39.8122474,2.54785645 41.5095215,1.5703125 C43.2067956,0.59276855 45.1994515,0.104003906 47.4875488,0.104003906 C49.8938109,0.104003906 52.1174214,0.60888167 54.1584473,1.61865234 L52.7727051,4.82519531 C51.9777792,4.44921687 51.1372115,4.11889791 50.2509766,3.83422852 C49.3647417,3.54955912 48.4328662,3.40722656 47.4553223,3.40722656 L47.4553223,3.40722656 Z" id="ESC" fill="#FFFFFF"></path>
        </g>
    </g>
</svg>
