<svg xmlns="http://www.w3.org/2000/svg" viewBox="-41 164.9 512 512"><path fill="none" stroke="#5F52CA" stroke-width="3" stroke-miterlimit="10" d="M342.3 166.4l-66-.1c-74.2 0-122.1 49.2-122.1 125.3v57.8H87.8c-5.7 0-10.4 4.7-10.4 10.4v83.7c0 5.7 4.7 10.4 10.4 10.4h66.4v211.2c0 5.7 4.6 10.4 10.4 10.4h86.6c5.7 0 10.4-4.7 10.4-10.4V453.9h77.6c5.7 0 10.4-4.6 10.4-10.4v-83.7c0-2.8-1.1-5.4-3-7.3-1.9-1.9-4.6-3-7.3-3h-77.6v-49c0-23.5 5.6-35.5 36.3-35.5h44.5c5.7 0 10.4-4.7 10.4-10.4v-77.7c-.3-5.8-4.9-10.4-10.6-10.5z"/></svg>