<svg version="1.1" xmlns="http://www.w3.org/2000/svg" xmlns:xlink="http://www.w3.org/1999/xlink" viewBox="0 0 1024 1024">
<path d="M888 176c26.4 0 48 21.6 48 48v336c0 26.4-21.6 48-48 48h-64v87.2l-104-80-8-7.2h-296c-26.4 0-48-21.6-48-48v-336c0-26.4 21.6-48 48-48h472zM888 144h-472c-44 0-80 36-80 80v336c0 44 36 80 80 80h284.8l155.2 120v-120h32c44 0 80-36 80-80v-336c0-44-36-80-80-80v0z"></path>
<path d="M656 656v32c0 26.4-21.6 48-48 48h-296l-8 6.4-104 80v-86.4h-64c-26.4 0-48-21.6-48-48v-336c0-26.4 21.6-48 48-48h184v-32h-184c-44 0-80 36-80 80v336c0 44 36 80 80 80h32v120l155.2-120h284.8c44 0 80-36 80-80v-32h-32z"></path>
</svg>
