<svg xmlns="http://www.w3.org/2000/svg" viewBox="0 0 478.6 478.6" width="512" height="512"><path d="M427.5 200.7a274 274 0 0 0 3.2-37.4c-.1-59.2-28.5-80.2-34-90 8-45-1.3-65.3-5.6-72.3-16.1-5.7-56 14.7-77.7 29-35.5-10.3-110.5-9.3-138.6 2.8-52-37.2-79.4-31.5-79.4-31.5S77.7 33 90.7 79.6c-17 21.8-29.8 37.2-29.8 78 0 9.8.6 19 1.7 27.9 14.7 77.3 76 110.7 136.1 116.4-9 6.9-20 20-21.4 35-11.4 7.4-34.3 9.8-52.1 4.2-25-7.9-34.5-57.3-71.8-50.2-8.1 1.5-6.5 6.8.5 11.4a73.4 73.4 0 0 1 30.3 36.2c6.4 15 19.7 42 62 42 16.7 0 28.4-2 28.4-2l.3 53.3c0 17.3-23.2 22.1-23.2 30.4 0 3.3 7.7 3.6 13.8 3.6 12.3 0 37.7-10.2 37.7-28.1l.2-70.5c0-18.3 9.9-24.1 9.9-24.1s1.2 97.7-2.4 110.8c-4.2 15.4-11.8 13.2-11.8 20 0 10.3 30.6 2.6 40.8-19.8 7.8-17.5 4.3-113.3 4.3-113.3l8.2-.2s0 43.9-.2 64c-.3 20.7-2.4 47 10 59.3 8 8.2 32.8 22.5 32.8 9.4 0-7.5-17.4-13.8-17.4-34.3v-94.6c10.6 0 12.8 31.1 12.8 31.1l3.8 57.7s-2.5 21.1 22.7 29.9c9 3.1 28 4 29-1.3.8-5.2-23-13-23.3-29.3 0-10 .5-15.8.5-59 0-43.1-5.8-59-26-71.8 58.6-6 119.4-32.2 130.4-101z" fill="#9772af"/></svg>