<svg version="1.1" xmlns="http://www.w3.org/2000/svg" xmlns:xlink="http://www.w3.org/1999/xlink" viewBox="0 0 640 640">
<path d="M320 12.8c-169.664 0-307.2 137.536-307.2 307.2s137.536 307.2 307.2 307.2 307.2-137.536 307.2-307.2-137.536-307.2-307.2-307.2zM302.304 451.872c-19.296 9.376-40.064 10.368-48.096 10.368-1.536 0-2.4 0-2.4 0s-0.736 0-1.728 0c-12.544 0-74.976-2.88-74.976-59.744 0-55.872 68-60.256 88.832-60.256h0.544c-12.032-16.064-9.536-32.256-9.536-32.256-1.056 0.064-2.592 0.128-4.48 0.128-7.84 0-22.976-1.248-35.968-9.632-15.936-10.24-24-27.68-24-51.808 0-68.192 74.464-70.944 75.2-71.008h74.368v1.632c0 8.32-14.944 9.952-25.12 11.328-3.456 0.512-10.4 1.184-12.352 2.176 18.848 10.080 21.888 25.888 21.888 49.44 0 26.816-10.496 40.992-21.632 50.944-6.912 6.176-12.32 11.008-12.32 17.504 0 6.368 7.424 12.864 16.064 20.448 14.112 12.448 33.472 29.376 33.472 57.952 0 29.536-12.704 50.656-37.76 62.784zM464 320h-48v48h-32v-48h-48v-32h48v-48h32v48h48v32zM263.136 356.8c-1.664 0-3.328 0.064-5.024 0.192-14.208 1.056-27.328 6.368-36.8 15.008-9.408 8.512-14.208 19.264-13.536 30.112 1.44 22.752 25.856 36.064 55.52 33.952 29.184-2.112 48.64-18.944 47.232-41.696-1.344-21.376-19.936-37.568-47.392-37.568zM291.104 233.12c-7.744-27.2-20.224-35.264-39.616-35.264-2.080 0-4.192 0.32-6.208 0.864-8.416 2.4-15.104 9.408-18.816 19.84-3.808 10.56-4.032 21.568-0.768 34.112 5.92 22.432 21.856 38.688 37.92 38.688 2.112 0 4.224-0.256 6.208-0.864 17.568-4.928 28.576-31.744 21.28-57.376z"></path>
</svg>
