<svg xmlns="http://www.w3.org/2000/svg" viewBox="-191 69 458.2 458.2"><style>.st0{fill:#9772af}</style><path class="st0" d="M-30.2 328.4h71.6A91.1 91.1 0 0 1-45 389.1a91 91 0 1 1 61.8-158.3 9.9 9.9 0 0 0 13.4 0L56.4 206a9.9 9.9 0 0 0 0-14.3 145.7 145.7 0 0 0-97.9-40.1A147.7 147.7 0 0 0-191 297.1a146.6 146.6 0 0 0 293 9.2l.2-33.6H-30.2a9.8 9.8 0 0 0-9.8 9.8v36c0 5.5 4.4 9.9 9.8 9.9zM223.5 276v-35.2c0-4.8-3.9-8.6-8.6-8.6h-29.6a8.6 8.6 0 0 0-8.6 8.6V276h-35.2a8.6 8.6 0 0 0-8.6 8.6v29.6c0 4.8 3.9 8.6 8.6 8.6h35.2V358c0 4.8 3.9 8.6 8.6 8.6h29.6c4.8 0 8.6-3.9 8.6-8.6v-35.2h35.2c4.8 0 8.6-3.9 8.6-8.6v-29.6c0-4.8-3.9-8.6-8.6-8.6h-35.2z"/></svg>
