<svg version="1.1" xmlns="http://www.w3.org/2000/svg" xmlns:xlink="http://www.w3.org/1999/xlink" viewBox="0 0 480 448">
<path d="M148.25 224q-40.5 1.25-66.25 32h-33.5q-20.5 0-34.5-10.125t-14-29.625q0-88.25 31-88.25 1.5 0 10.875 5.25t24.375 10.625 29.75 5.375q16.75 0 33.25-5.75-1.25 9.25-1.25 16.5 0 34.75 20.25 64zM416 383.25q0 30-18.25 47.375t-48.5 17.375h-218.5q-30.25 0-48.5-17.375t-18.25-47.375q0-13.25 0.875-25.875t3.5-27.25 6.625-27.125 10.75-24.375 15.5-20.25 21.375-13.375 27.875-5q2.5 0 10.75 5.375t18.25 12 26.75 12 33.75 5.375 33.75-5.375 26.75-12 18.25-12 10.75-5.375q15.25 0 27.875 5t21.375 13.375 15.5 20.25 10.75 24.375 6.625 27.125 3.5 27.25 0.875 25.875zM160 64q0 26.5-18.75 45.25t-45.25 18.75-45.25-18.75-18.75-45.25 18.75-45.25 45.25-18.75 45.25 18.75 18.75 45.25zM336 160q0 39.75-28.125 67.875t-67.875 28.125-67.875-28.125-28.125-67.875 28.125-67.875 67.875-28.125 67.875 28.125 28.125 67.875zM480 216.25q0 19.5-14 29.625t-34.5 10.125h-33.5q-25.75-30.75-66.25-32 20.25-29.25 20.25-64 0-7.25-1.25-16.5 16.5 5.75 33.25 5.75 14.75 0 29.75-5.375t24.375-10.625 10.875-5.25q31 0 31 88.25zM448 64q0 26.5-18.75 45.25t-45.25 18.75-45.25-18.75-18.75-45.25 18.75-45.25 45.25-18.75 45.25 18.75 18.75 45.25z"></path>
</svg>
