<svg version="1.1" xmlns="http://www.w3.org/2000/svg" xmlns:xlink="http://www.w3.org/1999/xlink" viewBox="0 0 416 448">
<path d="M352 248v120q0 6.5-4.75 11.25t-11.25 4.75h-96v-96h-64v96h-96q-6.5 0-11.25-4.75t-4.75-11.25v-120q0-0.25 0.125-0.75t0.125-0.75l143.75-118.5 143.75 118.5q0.25 0.5 0.25 1.5zM407.75 230.75l-15.5 18.5q-2 2.25-5.25 2.75h-0.75q-3.25 0-5.25-1.75l-173-144.25-173 144.25q-3 2-6 1.75-3.25-0.5-5.25-2.75l-15.5-18.5q-2-2.5-1.75-5.875t2.75-5.375l179.75-149.75q8-6.5 19-6.5t19 6.5l61 51v-48.75q0-3.5 2.25-5.75t5.75-2.25h48q3.5 0 5.75 2.25t2.25 5.75v102l54.75 45.5q2.5 2 2.75 5.375t-1.75 5.875z"></path>
</svg>
