<svg version="1.1" xmlns="http://www.w3.org/2000/svg" xmlns:xlink="http://www.w3.org/1999/xlink" viewBox="0 0 384 448">
<path d="M256 344v-40q0-3.5-2.25-5.75t-5.75-2.25h-24v-128q0-3.5-2.25-5.75t-5.75-2.25h-80q-3.5 0-5.75 2.25t-2.25 5.75v40q0 3.5 2.25 5.75t5.75 2.25h24v80h-24q-3.5 0-5.75 2.25t-2.25 5.75v40q0 3.5 2.25 5.75t5.75 2.25h112q3.5 0 5.75-2.25t2.25-5.75zM224 120v-40q0-3.5-2.25-5.75t-5.75-2.25h-48q-3.5 0-5.75 2.25t-2.25 5.75v40q0 3.5 2.25 5.75t5.75 2.25h48q3.5 0 5.75-2.25t2.25-5.75zM384 224q0 52.25-25.75 96.375t-69.875 69.875-96.375 25.75-96.375-25.75-69.875-69.875-25.75-96.375 25.75-96.375 69.875-69.875 96.375-25.75 96.375 25.75 69.875 69.875 25.75 96.375z"></path>
</svg>
