<svg xmlns="http://www.w3.org/2000/svg" viewBox="0 0 300 300" width="512" height="512"><path d="M38.5 0h223A38.6 38.6 0 0 1 300 38.5v223a38.6 38.6 0 0 1-38.5 38.5h-223A38.6 38.6 0 0 1 0 261.5v-223A38.6 38.6 0 0 1 38.5 0zm180 33.3c-7.4 0-13.5 6.1-13.5 13.6v32.3c0 7.4 6.1 13.5 13.5 13.5h34c7.4 0 13.5-6.1 13.5-13.5V46.9c0-7.5-6.1-13.6-13.6-13.6h-33.9zm47.6 93.6h-26.4a87.7 87.7 0 0 1 3.8 25.7c0 50-41.7 90.4-93.2 90.4S57 202.5 57 152.6c0-9 1.4-17.6 3.9-25.7H33.4v126.7a12 12 0 0 0 11.9 11.9h208.9a12 12 0 0 0 11.9-11.9V126.9zm-115.8-36A59.3 59.3 0 0 0 90 149.5c0 32.2 27 58.3 60.3 58.3a59.3 59.3 0 0 0 60.2-58.3c0-32.3-27-58.4-60.2-58.4z" fill="#9772af"/></svg>