<svg xmlns="http://www.w3.org/2000/svg" viewBox="-41 164.9 512 512"><g fill="none" stroke="#5F52CA" stroke-width="3" stroke-miterlimit="10"><path d="M79.1 330.5H-23.1c-4.5 0-8.2 3.7-8.2 8.2v328.2c0 4.5 3.7 8.2 8.2 8.2H79.1c4.5 0 8.2-3.7 8.2-8.2V338.7c0-4.5-3.7-8.2-8.2-8.2zM28.1 167.3c-37.2 0-67.4 30.2-67.4 67.3 0 37.1 30.2 67.4 67.4 67.4 37.1 0 67.4-30.2 67.4-67.4-.1-37.1-30.3-67.3-67.4-67.3zM339 322.3c-41 0-71.4 17.6-89.8 37.7v-21.3c0-4.5-3.7-8.2-8.2-8.2h-97.8c-4.5 0-8.2 3.7-8.2 8.2v328.2c0 4.5 3.7 8.2 8.2 8.2h101.9c4.5 0 8.2-3.7 8.2-8.2V504.5c0-54.7 14.9-76 53-76 41.5 0 44.8 34.2 44.8 78.9V667c0 4.5 3.7 8.2 8.2 8.2h102c4.5 0 8.2-3.7 8.2-8.2V487c.1-81.5-15.5-164.7-130.5-164.7z"/></g></svg>