<svg version="1.1" xmlns="http://www.w3.org/2000/svg" xmlns:xlink="http://www.w3.org/1999/xlink" viewBox="0 0 1024 1024">
<path d="M512.064 567.872c105.888 0 192-86.144 192-192s-86.112-192-192-192c-105.888 0-192 86.112-192 192s86.112 192 192 192zM512.064 215.872c88.256 0 160 71.744 160 160s-71.744 160-160 160c-88.256 0-160-71.744-160-160s71.744-160 160-160zM512 0c-211.776 0-384 170.112-384 384.032 0 224 192.032 453.152 332.032 614.208 0.512 0.64 22.976 25.76 50.752 25.76 0.064 0 2.336 0 2.464 0 27.744 0 50.24-25.12 50.752-25.76 140.064-161.056 332.064-390.176 332.064-614.208 0-213.92-172.256-384.032-384.064-384.032zM515.744 956.256c-0.672 0.64-2.624 2.048-4.32 3.136-0.32-0.864-2.688-2.752-4.128-4.256-117.28-134.944-315.296-362.688-315.296-571.104 0-176.448 143.584-320.032 320-320.032 176.512 0 320.064 143.584 320.064 320.064 0 208.384-198.016 436.128-316.32 572.192z"></path>
</svg>
