<svg xmlns="http://www.w3.org/2000/svg" viewBox="0 0 310.1 310.1" width="512" height="512"><path d="M245.3 31.8A118.9 118.9 0 0 0 162 0c-49.3 0-79.7 20.2-96.4 37.2a109.8 109.8 0 0 0-32.5 76.1c0 34.5 14.4 61 38.6 70.9 1.6.6 3.2 1 4.8 1 5.1 0 9.2-3.4 10.6-8.7l3.5-14c1.8-6.4.4-9.6-3.5-14.1A45 45 0 0 1 77 117.6c0-37.8 28.1-78 80.3-78 41.4 0 67.2 23.5 67.2 61.4 0 24-5.2 46-14.5 62.4-6.5 11.3-18 24.8-35.5 24.8-7.6 0-14.4-3.1-18.7-8.5-4-5.2-5.4-11.8-3.8-18.7 1.9-7.8 4.4-16 6.8-23.9 4.4-14.4 8.6-28 8.6-38.8 0-18.6-11.4-31-28.3-31-21.6 0-38.5 21.9-38.5 49.8 0 13.8 3.7 24 5.3 28l-22 92.8c-1.7 7.6-12.4 67 5.3 71.8 19.8 5.3 37.6-52.6 39.4-59.2a3746 3746 0 0 0 9.7-37.8 60 60 0 0 0 40 15.4 89.2 89.2 0 0 0 71.6-35.8c17.4-22.4 27-53.7 27-88 0-26.8-11.6-53.2-31.6-72.5z" fill="#9772af"/></svg>