<?xml version="1.0" encoding="utf-8"?>
<!-- Generated by IcoMoon.io -->
<!DOCTYPE svg PUBLIC "-//W3C//DTD SVG 1.1//EN" "http://www.w3.org/Graphics/SVG/1.1/DTD/svg11.dtd">
<svg version="1.1" xmlns="http://www.w3.org/2000/svg" xmlns:xlink="http://www.w3.org/1999/xlink" width="780" height="1024" viewBox="0 0 780 1024">
<g id="icomoon-ignore">
</g>
<path d="M52.137 840.831v169.058h43.117v-44.031l39.242 39.242h66.16l-52.477-52.477c0 0 37.749-0.613 40.604-55.208 0-50.089-37.796-56.582-81.444-56.582h-55.203zM97.306 886.685h37.19v30.116h-37.19v-30.116z"></path>
<path d="M283.934 841.516c-23.612-0.135-56.352 2.053-56.352 46.543v117.494h44.255v-28.748h42.893v28.064h44.492v-123.198c0-38.64-42.934-40.156-65.931-40.156-2.879 0-5.981 0.024-9.355 0zM272.52 883.948h41.525v46.313h-41.525v-46.313z"></path>
<path d="M403.558 841.629h45.788v161.726h-45.788v-161.726z"></path>
<path d="M497.306 843.776v161.726h110.198v-42.934h-65.117v-119.505l-45.081 0.714z"></path>
<path d="M753.487 842.342v43.653h-73.705v15.742c0 0 15.034 0 31.479 0s50.808-0.714 50.808 50.814c0 51.521-23.612 54.382-71.553 54.382-47.953 0-57.963 0-57.963 0v-39.365c0 0 46.514 0 66.544 0s21.145-6.529 21.145-12.209-10.245-8.328-31.078-8.328-59.472-10.234-59.472-50.306c0-40.073 20.030-55.107 60.104-55.107s63.69 0.731 63.69 0.731v0z"></path>
<path d="M92.275 792.967h380.7c0 0-84.441-191.784-62.977-367.812 21.47-176.035 160.293-256.188 239.012-264.775 78.707-8.593 121.653 40.073 121.653 40.073l17.176-25.765c0 0-113.064-114.498-256.188-101.61-143.123 12.876-241.872 107.338-303.41 221.829-61.543 114.504-97.328 194.644-121.653 314.864s-14.315 183.195-14.315 183.195z"></path>
<path d="M16.427 601.184l74.424 5.721-12.888 74.414-70.125-8.588 8.588-71.553z"></path>
<path d="M133.787 443.752l20.043-55.815-65.837-25.765-21.464 60.104 67.259 21.47z"></path>
<path d="M226.809 251.974l38.64-45.788-50.089-32.918-40.073 44.361 51.521 34.352z"></path>
<path d="M328.42 74.506l34.352 41.507 47.228-27.197-34.352-38.64-47.228 24.331z"></path>
<path d="M495.878 27.278l8.588 41.512 58.683-1.434-5.733-37.212-61.537-2.867z"></path>
<path d="M694.811 71.645l-1.434 25.758 40.073 21.464 8.588-12.876-47.228-34.34z"></path>
<path d="M686.222 181.849v21.464l38.64 4.294v-17.176l-38.64-8.576z"></path>
<path d="M563.148 200.452l18.603 34.34 27.197-21.464-5.721-22.903-40.073 10.021z"></path>
<path d="M504.454 244.826l28.625 42.934-17.176 30.052-41.507-45.788 30.057-27.197z"></path>
<path d="M447.217 363.606l-18.61 37.212 48.661 41.512 11.449-47.233-41.495-31.485z"></path>
<path d="M427.18 493.847l-2.861 50.089 60.104 25.765-2.861-47.233-54.382-28.619z"></path>
<path d="M444.351 671.314l14.315 51.528 75.847 4.294-27.197-55.822h-62.97z"></path>
</svg>
