<svg version="1.1" xmlns="http://www.w3.org/2000/svg" xmlns:xlink="http://www.w3.org/1999/xlink" viewBox="0 0 1056 1024">
<path d="M958.816 799.424v-190.304h-93.12v191.008h-97.184v94.496h-225.536v-95.2h225.536v-95.104h-479.712v95.136l192.96 0.672v95.136h-193.632v-94.432h-97.152v-192.32h-93.152v190.304h-97.824v-288.128h95.84v-92.512h95.136v-97.824h97.824v-95.808h95.808v96.096l287.456 0.768v-96.864h95.808v97.152h97.824v95.168h94.496v95.136h96.448v287.424h-97.824zM384.608 416.16h-95.808v95.84h95.808v-95.84zM767.872 416.16h-95.808v95.84h95.808v-95.84zM190.976 128.736h97.824v95.808h-97.824v-95.808zM865.696 128.736v95.808h-97.824v-95.808h97.824z"></path>
</svg>
