<svg version="1.1" xmlns="http://www.w3.org/2000/svg" xmlns:xlink="http://www.w3.org/1999/xlink" viewBox="0 0 805 1024">
<path d="M530.286 800.571v86.286l-404 0.571v-86.286zM668 602.857v400.571l-0.571 20v0.571l-667.429-0.571v-420.571h69.143v353.143h530.286v-353.143h68.571zM137.714 653.143l402.286 37.143-7.429 85.714-402.857-37.143zM176.571 472.571l390.286 104.571-22.286 83.429-390.286-104.571zM269.714 273.143l348 205.714-44 74.286-348-205.714zM475.429 84l227.429 334.286-70.857 48.571-228-333.714zM734.286 0l69.143 398.286-85.143 14.857-69.143-398.286z"></path>
</svg>
