<svg version="1.1" xmlns="http://www.w3.org/2000/svg" xmlns:xlink="http://www.w3.org/1999/xlink" viewBox="0 0 1024 1024">
<path d="M615.904 1024.512c-2.912 0-5.856-0.736-8.448-2.368-6.656-4.128-9.344-12.512-6.336-19.744l68.256-164.384h-48.32c-5.344 0-10.336-2.688-13.312-7.136s-3.488-10.048-1.44-15.008l25.024-59.872c3.392-8.192 12.832-12 20.896-8.64 8.16 3.424 12 12.8 8.608 20.928l-15.744 37.696h48.256c5.344 0 10.336 2.688 13.312 7.136s3.488 10.048 1.472 15.008l-39.968 96.256 80.352-91.936 41.504-50.112h-68.448c-5.376 0-10.368-2.688-13.344-7.2s-3.456-10.112-1.376-15.072l66.496-156.736c3.392-8.128 12.704-11.936 20.928-8.576 8.16 3.424 11.968 12.8 8.576 20.928l-57.088 134.624h78.24c6.176 0 11.84 3.552 14.464 9.184 2.656 5.632 1.824 12.256-2.144 16.992l-63.424 76.64-144.896 165.952c-3.2 3.552-7.616 5.44-12.096 5.44z"></path>
<path d="M164 678.304c-90.432 0-164-73.568-164-164s73.568-164 164-164c28.256 0 49.024 7.136 63.552 21.856 25.728 26.048 25.216 68.96 24.64 118.656l-0.192 23.52 0.192 23.52c0.608 49.696 1.12 92.576-24.64 118.624-14.528 14.656-35.296 21.824-63.552 21.824zM164 382.304c-72.768 0-132 59.2-132 132 0 72.768 59.232 132 132 132 19.264 0 32.608-4.064 40.8-12.384 16.352-16.512 15.904-53.248 15.392-95.744l-0.192-23.904 0.192-23.904c0.512-42.496 0.96-79.232-15.392-95.744-8.192-8.288-21.536-12.32-40.8-12.32z"></path>
<path d="M855.648 372.288c-8.832 0-16-7.168-16-16 0-179.104-145.728-324.8-324.8-324.8-179.104 0-324.8 145.696-324.8 324.8 0 8.832-7.168 16-16 16s-16-7.168-16-16c0-196.736 160.064-356.8 356.8-356.8s356.8 160.064 356.8 356.8c0 8.864-7.136 16-16 16z"></path>
<path d="M860 678.304c-28.256 0-49.024-7.2-63.552-21.888-25.76-26.048-25.216-68.928-24.64-118.624l0.192-23.52-0.192-23.52c-0.608-49.696-1.12-92.608 24.64-118.656 14.528-14.688 35.328-21.856 63.552-21.856 90.432 0 164 73.568 164 164 0 90.496-73.568 164.064-164 164.064zM860 382.304c-19.264 0-32.608 4.032-40.8 12.352-16.32 16.544-15.872 53.248-15.36 95.744l0.192 23.904-0.192 23.904c-0.512 42.496-0.928 79.232 15.36 95.744 8.224 8.32 21.568 12.384 40.8 12.384 72.768 0 132-59.264 132-132 0-72.832-59.232-132.032-132-132.032z"></path>
<path d="M136 600.32c-5.76 0-11.328-3.136-14.176-8.576-4.896-9.376-29.44-57.184-29.824-79.168-0.416-23.776 24.576-76.832 29.6-87.232 3.84-7.936 13.376-11.264 21.344-7.456 7.968 3.84 11.296 13.376 7.456 21.344-12.832 26.688-26.592 62.080-26.4 72.768 0.16 9.568 13.728 41.12 26.176 64.864 4.096 7.808 1.088 17.504-6.72 21.568-2.4 1.248-4.928 1.888-7.456 1.888z"></path>
<path d="M873.984 600.32c-2.528 0-5.056-0.64-7.424-1.888-7.808-4.064-10.848-13.76-6.72-21.568 12.448-23.744 25.984-55.296 26.144-64.864 0.192-10.72-13.568-46.112-26.4-72.768-3.84-7.968-0.512-17.536 7.456-21.344 7.904-3.808 17.536-0.512 21.344 7.456 5.024 10.4 30.016 63.456 29.6 87.232-0.416 22.016-24.896 69.792-29.856 79.168-2.816 5.44-8.384 8.576-14.144 8.576z"></path>
</svg>
