<svg xmlns="http://www.w3.org/2000/svg" viewBox="-41 164.9 512 512"><path fill="none" stroke="#5F52CA" stroke-width="3" stroke-miterlimit="10" d="M457.4 261.8c-8 3.5-16.2 6.5-24.6 9 9.9-11.2 17.5-24.4 22.1-38.9 1-3.2 0-6.8-2.7-8.9-2.7-2.1-6.4-2.4-9.3-.6-17.8 10.6-37 18.1-57.2 22.6-20.3-19.8-47.8-31.1-76.3-31.1-60.1 0-109.1 48.9-109.1 109.1 0 4.7.3 9.4.9 14.1-74.6-6.6-144-43.2-191.6-101.7-1.7-2.1-4.3-3.2-7-3-2.7.2-5.1 1.7-6.4 4-9.7 16.6-14.8 35.5-14.8 54.8 0 26.3 9.4 51.2 26 70.7-5-1.7-9.9-3.9-14.6-6.5-2.5-1.4-5.6-1.4-8.1.1-2.5 1.4-4.1 4.1-4.1 6.9v1.5c0 39.2 21.1 74.5 53.4 93.8-2.8-.3-5.5-.7-8.3-1.2-2.8-.5-5.8.5-7.7 2.6-1.9 2.2-2.6 5.2-1.7 7.9 11.9 37.3 42.7 64.7 79.9 73.1-30.8 19.3-66.1 29.4-103.1 29.4-7.7 0-15.5-.5-23.1-1.4-3.8-.4-7.4 1.8-8.7 5.4-1.3 3.6.1 7.6 3.3 9.7 47.6 30.5 102.6 46.6 159 46.6 111 0 180.5-52.4 219.2-96.3 48.3-54.8 76-127.3 76-198.9 0-3 0-6-.1-9 19-14.4 35.4-31.7 48.8-51.7 2-3 1.8-7-.5-9.8-2.4-2.9-6.3-3.8-9.6-2.3z"/></svg>