<svg xmlns="http://www.w3.org/2000/svg" viewBox="0 0 310 310" width="512" height="512"><path d="M303 57.4c-4.9 2.1-9.9 4-15 5.5 6-6.9 10.7-15 13.5-23.8a5 5 0 0 0-7.3-5.8 118 118 0 0 1-35 13.8 66.6 66.6 0 0 0-112.6 56.2c-45.4-4-87.8-26.4-116.8-62.1a5 5 0 0 0-8.2.6 66.5 66.5 0 0 0 6.8 76.6c-3-1-6-2.4-9-4a5 5 0 0 0-7.3 4.3v1c0 23.8 12.8 45.4 32.5 57.1-1.7-.1-3.4-.4-5-.7a5 5 0 0 0-5.7 6.4 66.5 66.5 0 0 0 48.7 44.6 117.7 117.7 0 0 1-77 17.2 5 5 0 0 0-3.3 9.2c29 18.6 62.6 28.4 97 28.4 67.8 0 110.2-32 133.8-58.8a186.2 186.2 0 0 0 46.3-126.8 129.4 129.4 0 0 0 29.8-31.6 5 5 0 0 0-6.2-7.3z" fill="#9772af"/></svg>