<svg xmlns="http://www.w3.org/2000/svg" viewBox="0 0 728 485.3" style="enable-background:new 0 0 728 485.3" xml:space="preserve">
  <g id="Object">
    <path class="st0" d="M717.3 209.9 364 5.9l-351 204 353.3 204z"/>
    <linearGradient id="SVGID_1_" gradientUnits="userSpaceOnUse" x1="238.739" y1="348.352" x2="364.739" y2="210.352">
      <stop offset="0" style="stop-color:#f9da55"/>
      <stop offset=".995" style="stop-color:#b7830f"/>
    </linearGradient>
    <path style="opacity:.7;fill:url(#SVGID_1_)" d="M717.3 209.9 364 5.9l-351 204 353.3 204z"/>
    <path style="fill:#d69c0b" d="m366.3 413.9-.2 65.2 351-204 .2-65.2z"/>
    <path style="fill:#f4c430" d="m13 209.9-.2 65.2 353.3 204 .2-65.2z"/>
    <path d="m717.3 209.9-230 133.7c-12.6 8.1-30.6 18.5-45.2 21.6-12.8 2.7-25.2 1.9-36.7-4-.5-.3-1.1-.7-1.6-1-.1-.1-.3-.2-.4-.3-25.3-17-32.9-52.4-33.4-80.8v-.5l-1.8-1v-.4L132.4 140.5C132.6 140.4 364 5.9 364 5.9l353.3 204z" style="fill:#f9e48b"/>
    <path d="m405.8 361.4-.5-.3s.1.1.2.1c.1.1.2.1.3.2z" style="fill:#6c575f"/>
    <path class="st0" d="M405.4 361.2c-.1 0-.1-.1-.2-.1-.7-.4-1.4-.8-2.2-1.2-3.1-1.8-6.6-3.8-10.3-6l-2.2-1.3-347-201.8c-8.2-4.7-15.1-11.9-20.7-21.5-15.2-26-15.4-61-15.4-61.4l120.9 70.3.2.1 239.7 139.3 1.8 1v.5c.6 28.4 8.1 63.8 33.4 80.8.1.1.3.2.4.3.6.3 1.1.6 1.6 1z"/>
    <linearGradient id="SVGID_2_" gradientUnits="userSpaceOnUse" x1="222.194" y1="181.87" x2="193.194" y2="241.87">
      <stop offset=".039" style="stop-color:#f4c430"/>
      <stop offset=".995" style="stop-color:#d69c0b"/>
    </linearGradient>
    <path d="M405.4 361.2c-.1 0-.1-.1-.2-.1-.7-.4-1.4-.8-2.2-1.2-3.1-1.8-6.6-3.8-10.3-6l-2.2-1.3-347-201.8c-8.2-4.7-15.1-11.9-20.7-21.5-15.2-26-15.4-61-15.4-61.4l120.9 70.3.2.1 239.7 139.3 1.8 1v.5c.6 28.4 8.1 63.8 33.4 80.8.1.1.3.2.4.3.6.3 1.1.6 1.6 1z" style="opacity:.2;fill:url(#SVGID_2_)"/>
  </g>
</svg>
