<svg id="Слой_2" xmlns="http://www.w3.org/2000/svg" viewBox="175 -226 961.5 1244"><style>.st1{fill:#2a0f3a}.st2{fill:none;stroke:#9b72b5;stroke-width:6;stroke-linecap:round;stroke-linejoin:round;stroke-miterlimit:10;stroke-dasharray:19}</style><g opacity=".4"><path class="st1" d="M1183.8-66.3h-461a10 10 0 0 1-10-10 10 10 0 0 1 10-10h461a10 10 0 0 1 10 10 10 10 0 0 1-10 10zM1183.8-35.8h-461a10 10 0 0 1-10-10 10 10 0 0 1 10-10h461a10 10 0 0 1 10 10 10 10 0 0 1-10 10zM1183.8-4.1h-461a10 10 0 0 1-10-10 10 10 0 0 1 10-10h461a10 10 0 0 1 10 10 10 10 0 0 1-10 10zM1183.8 26.4h-461a10 10 0 0 1-10-10 10 10 0 0 1 10-10h461a10 10 0 0 1 10 10 10 10 0 0 1-10 10z"/></g><path class="st2" d="M483.5-222.4v107h651v331h-659V76H179"/><path class="st2" d="M179 76v377.1h955.5v200H179v340h745.9v23"/><g opacity=".6"><path class="st1" d="M608.7 522.1h-461a10 10 0 0 1-10-10 10 10 0 0 1 10-10h461a10 10 0 0 1 10 10 10 10 0 0 1-10 10zM608.7 552.6h-461a10 10 0 0 1-10-10 10 10 0 0 1 10-10h461a10 10 0 0 1 10 10 10 10 0 0 1-10 10zM608.7 584.3h-461a10 10 0 0 1-10-10 10 10 0 0 1 10-10h461a10 10 0 0 1 10 10 10 10 0 0 1-10 10zM608.7 614.8h-461a10 10 0 0 1-10-10 10 10 0 0 1 10-10h461a10 10 0 0 1 10 10 10 10 0 0 1-10 10z"/></g><g opacity=".5"><path class="st1" d="M897.6 319.7h-461a10 10 0 0 1-10-10 10 10 0 0 1 10-10h461a10 10 0 0 1 10 10 10 10 0 0 1-10 10zM897.6 350.2h-461a10 10 0 0 1-10-10 10 10 0 0 1 10-10h461a10 10 0 0 1 10 10 10 10 0 0 1-10 10zM897.6 381.9h-461a10 10 0 0 1-10-10 10 10 0 0 1 10-10h461a10 10 0 0 1 10 10 10 10 0 0 1-10 10zM897.6 412.4h-461a10 10 0 0 1-10-10 10 10 0 0 1 10-10h461a10 10 0 0 1 10 10 10 10 0 0 1-10 10z"/></g><g opacity=".7"><path class="st1" d="M1126.8 884.4h-461a10 10 0 0 1-10-10 10 10 0 0 1 10-10h461a10 10 0 0 1 10 10 10 10 0 0 1-10 10zM1126.8 914.9h-461a10 10 0 0 1-10-10 10 10 0 0 1 10-10h461a10 10 0 0 1 10 10 10 10 0 0 1-10 10zM1126.8 946.6h-461a10 10 0 0 1-10-10 10 10 0 0 1 10-10h461a10 10 0 0 1 10 10 10 10 0 0 1-10 10zM1126.8 977.1h-461a10 10 0 0 1-10-10 10 10 0 0 1 10-10h461a10 10 0 0 1 10 10 10 10 0 0 1-10 10z"/></g></svg>