<svg xmlns="http://www.w3.org/2000/svg" id="main-svg" viewBox="0 0 1600 1150" xmlns:xlink="http://www.w3.org/1999/xlink" style="height:100vh;width:100%">
  <defs>
    <linearGradient id="d" x1="50%" x2="9.17%" y1="100%" y2="-4.57%">
      <stop stop-color="#C4CCCD" offset="0%"/>
      <stop stop-color="#919C9E" offset="100%"/>
    </linearGradient>
    <linearGradient id="e" x1="83.92%" x2="8.42%" y1="2.88%" y2="103.58%">
      <stop stop-color="#FBFBFB" offset="0%"/>
      <stop stop-color="#D7DCE7" offset="100%"/>
    </linearGradient>
    <linearGradient id="f" x1="50%" x2="50%" y1="100%" y2="0%">
      <stop stop-color="#C4CCCD" offset="0%"/>
      <stop stop-color="#919C9E" offset="100%"/>
    </linearGradient>
    <linearGradient id="g" x1="59.51%" x2="109.87%" y1="-2.1%" y2="141.39%">
      <stop stop-color="#EAECED" offset="0%"/>
      <stop stop-color="#D0D7DA" offset="100%"/>
    </linearGradient>
    <linearGradient id="i" x1="50%" x2="43.27%" y1="103.76%" y2="3.24%">
      <stop stop-color="#E6E9F0" offset="0%"/>
      <stop stop-color="#FFF" offset="100%"/>
    </linearGradient>
    <path id="h" d="M28.87 8.67c-12.7-6.72-22.5-.54-21.9 13.8L22.94 407.9c.6 14.35 11.4 31.34 24.15 37.95L307.68 581l-18.02-434.07L28.86 8.67z"/>
    <linearGradient id="k" x1="-16.57%" x2="106.6%" y1="28.47%" y2="61.77%">
      <stop stop-color="#B74E94" offset="0%"/>
      <stop stop-color="#9652CA" offset="100%"/>
    </linearGradient>
    <path id="j" d="M285.7 543.62L51.14 420.17 33.7 32.87l235.34 126.27 16.65 384.48z"/>
    <g id="m">
      <defs>
        <path id="path-1" d="M88.94 65.9l-10.52.9c-1.86.16-4.1-.76-4.98-2.05L65.86 53.8c-.9-1.28-.1-2.45 1.76-2.6l10.54-.87c1.86-.15 4.1.78 5 2.06l7.54 10.9c.9 1.28.1 2.45-1.76 2.6z"/>
        <path id="path-2" d="M68.65 68.03l-10.52.9c-1.86.15-4.1-.77-4.98-2.06l-7.6-10.98c-.9-1.3-.12-2.48 1.75-2.64l10.53-.86c1.87-.16 4.1.77 5 2.06L70.4 65.4c.9 1.3.12 2.47-1.75 2.63z"/>
        <path id="path-3-T" d="M148.22 59.65l-10.53.88c-1.87.15-4.1-.75-4.98-2.03l-7.5-10.8c-.88-1.3-.1-2.45 1.77-2.6l10.54-.85c1.87-.15 4.1.76 4.98 2.04L150 57.06c.88 1.27.1 2.42-1.78 2.58z"/>
        <path id="path-4-R" d="M128.73 61.7l-10.53.9c-1.86.16-4.1-.76-4.98-2.03L105.7 49.7c-.9-1.27-.1-2.43 1.77-2.6l10.54-.84c1.88-.15 4.1.77 5 2.05l7.5 10.83c.88 1.27.1 2.43-1.77 2.58z"/>
        <path id="path-5" d="M207.53 54.15l-10.53.87c-1.86.16-4.1-.74-4.96-2l-7.42-10.7c-.88-1.25-.1-2.4 1.8-2.55l10.54-.84c1.86-.15 4.1.76 4.96 2l7.4 10.67c.88 1.25.08 2.4-1.8 2.55z"/>
        <path id="path-6" d="M188.02 56.2l-10.53.87c-1.87.15-4.1-.75-4.97-2l-7.45-10.74c-.88-1.27-.1-2.42 1.78-2.57l10.56-.84c1.86-.15 4.1.76 4.96 2.02l7.43 10.7c.9 1.25.1 2.4-1.78 2.55z"/>
        <path id="path-7" d="M267.72 48l-10.54.87c-1.87.15-4.08-.73-4.95-1.97l-7.35-10.57c-.87-1.25-.06-2.38 1.8-2.52l10.57-.82c1.87-.15 4.1.74 4.95 2l7.33 10.5c.87 1.25.06 2.38-1.8 2.53z"/>
        <path id="path-8" d="M247.38 50.06l-10.54.86c-1.86.16-4.08-.74-4.95-1.98l-7.38-10.6c-.87-1.26-.07-2.4 1.8-2.55l10.56-.84c1.87-.14 4.1.75 4.95 2l7.36 10.57c.85 1.24.05 2.38-1.82 2.53z"/>
        <path id="path-9" d="M306.77 44.67l-10.55.86c-1.86.15-4.07-.73-4.93-1.96L284 33.1c-.88-1.25-.07-2.37 1.8-2.52l10.57-.82c1.87-.15 4.08.74 4.94 1.97l7.3 10.44c.85 1.23.04 2.35-1.83 2.5z"/>
        <path id="path-10" d="M287.26 46l-10.55.86c-1.86.15-4.07-.73-4.93-1.97l-7.33-10.53c-.86-1.25-.06-2.37 1.82-2.52l10.56-.82c1.87-.15 4.1.74 4.95 1.98l7.3 10.5c.86 1.23.06 2.35-1.82 2.5z"/>
        <path id="path-11-I" d="M227.86 52.09l-10.54.85c-1.86.16-4.08-.74-4.95-2l-7.4-10.63c-.87-1.26-.08-2.4 1.8-2.55l10.55-.84c1.87-.15 4.1.75 4.96 2l7.38 10.62c.87 1.25.07 2.38-1.8 2.54z"/>
        <path id="path-12" d="M168.53 57.56l-10.53.88c-1.86.15-4.1-.75-4.96-2.02l-7.48-10.77c-.88-1.28-.1-2.43 1.78-2.58l10.55-.85c1.85-.15 4.08.76 4.96 2.03L170.3 55c.9 1.25.1 2.4-1.77 2.56z"/>
        <path id="path-13-E" d="M108.43 63.82l-10.53.9c-1.86.15-4.1-.77-4.98-2.05l-7.55-10.9c-.9-1.3-.1-2.45 1.76-2.6l10.55-.86c1.86-.15 4.1.78 4.98 2.06l7.53 10.86c.88 1.28.1 2.44-1.77 2.6z"/>
        <path id="path-14" d="M256.85 103.86l-108.42 11.6c-1.83.2-4.05-.66-4.96-1.9l-7.7-10.7c-.92-1.25-.17-2.43 1.67-2.62l108.6-11.28c1.85-.2 4.07.66 4.96 1.9l7.56 10.42c.9 1.23.13 2.38-1.7 2.58z"/>
        <path id="path-15" d="M355.63 92.86l-10.48.97c-1.85.17-4.04-.67-4.9-1.88l-.96-1.4c-.85-1.2-.04-2.32 1.82-2.5l10.5-.94c1.85-.16 4.03.68 4.88 1.9l.97 1.37c.84 1.2.03 2.32-1.83 2.5z"/>
        <path id="path-16" d="M319.24 96.5l-10.48.97c-1.85.17-4.04-.68-4.9-1.9l-.98-1.4c-.85-1.22-.04-2.35 1.82-2.52l10.5-.96c1.84-.18 4.04.67 4.9 1.9l.96 1.4c.85 1.2.04 2.32-1.82 2.5z"/>
        <path id="path-17" d="M337.5 94.65l-10.5.96c-1.84.2-4.03-.66-4.9-1.88l-7.5-10.76c-.86-1.22-.05-2.34 1.8-2.5l10.5-.94c1.87-.16 4.06.68 4.92 1.9l7.5 10.73c.84 1.2.03 2.33-1.83 2.5z"/>
        <path id="path-18" d="M300.77 98.52l-10.48.97c-1.86.16-4.06-.7-4.9-1.92l-7.27-10.4c-.86-1.23-.05-2.36 1.8-2.53l10.5-.94c1.86-.15 4.06.7 4.92 1.93L302.58 96c.85 1.2.05 2.34-1.8 2.5z"/>
        <path id="path-19" d="M281.72 100.72l-15.7 1.46c-1.84.17-4.04-.68-4.9-1.9l-7.28-10.46c-.86-1.24-.05-2.38 1.8-2.54l15.7-1.42c1.87-.16 4.07.7 4.93 1.93l7.25 10.4c.86 1.22.05 2.35-1.8 2.52z"/>
        <path id="path-20" d="M138 116.18l-12.5 1.2-1.6.14c-1.84.18-4.05-.7-4.93-1.97l-7.47-10.76c-.88-1.28-.1-2.45 1.75-2.62l14.14-1.3c1.84-.18 4.05.7 4.93 1.98l7.44 10.7c.88 1.27.1 2.44-1.76 2.62z"/>
        <path id="path-21" d="M115.83 118.6l-9.66.92c-1.86.17-4.07-.7-4.95-1.98l-7.5-10.8c-.88-1.28-.1-2.45 1.76-2.62l9.7-.9c1.84-.17 4.07.72 4.95 2l7.46 10.75c.87 1.27.1 2.44-1.77 2.62z"/>
        <path id="path-22" d="M97.28 120.84l-9.67.93c-1.84.18-4.06-.7-4.94-2l-7.5-10.82c-.9-1.28-.12-2.46 1.74-2.63l9.68-.9c1.86-.17 4.08.72 4.96 2l7.5 10.8c.88 1.27.1 2.45-1.76 2.62z"/>
        <path id="path-23" d="M77.92 123.14l-9.66.94c-1.85.17-4.08-.72-4.96-2l-7.54-10.88c-.9-1.28-.1-2.47 1.75-2.64l9.7-.9c1.84-.17 4.07.73 4.96 2l7.5 10.85c.9 1.3.12 2.47-1.74 2.64z"/>
        <path id="path-24" d="M107.16 101.55l-10.48.96c-1.85.18-4.07-.7-4.96-2l-7.5-10.83c-.9-1.3-.12-2.46 1.74-2.62l10.5-.94c1.85-.15 4.07.75 4.96 2.03l7.5 10.8c.88 1.28.1 2.45-1.76 2.62z"/>
        <path id="path-25-V" d="M166.2 94.88l-10.5.95c-1.84.17-4.06-.72-4.93-1.98l-7.45-10.72c-.88-1.26-.1-2.42 1.77-2.6l10.5-.9c1.85-.17 4.07.72 4.95 1.98l7.42 10.7c.87 1.25.1 2.4-1.78 2.58z"/>
        <path id="path-26-C" d="M145.97 97.12l-10.48.96c-1.86.17-4.08-.73-4.96-2l-7.47-10.75c-.88-1.28-.1-2.44 1.76-2.6l10.5-.93c1.86-.17 4.08.73 4.96 2l7.44 10.72c.88 1.27.1 2.43-1.77 2.6z"/>
        <path id="path-27" d="M225.26 88.97l-10.5.94c-1.84.18-4.05-.7-4.92-1.94l-7.37-10.6c-.87-1.25-.08-2.4 1.8-2.55l10.5-.9c1.86-.17 4.07.7 4.94 1.96l7.36 10.55c.86 1.26.07 2.4-1.8 2.57z"/>
        <path id="path-28" d="M205.85 90.46l-10.5.95c-1.84.18-4.06-.7-4.93-1.95l-7.4-10.64c-.86-1.24-.07-2.4 1.8-2.56l10.5-.9c1.86-.18 4.08.7 4.95 1.96l7.37 10.6c.87 1.25.07 2.4-1.8 2.56z"/>
        <path id="path-29" d="M284.4 82.44l-10.5.94c-1.86.16-4.06-.7-4.92-1.94l-7.3-10.46c-.86-1.24-.05-2.37 1.8-2.53l10.53-.9c1.87-.17 4.08.7 4.93 1.94l7.28 10.42c.87 1.22.06 2.35-1.8 2.52z"/>
        <path id="path-30" d="M264.95 84.6l-10.5.94c-1.85.16-4.06-.7-4.92-1.95l-7.32-10.5c-.85-1.25-.05-2.4 1.8-2.55l10.53-.9c1.86-.17 4.07.7 4.93 1.94l7.3 10.46c.86 1.24.05 2.37-1.8 2.54z"/>
        <path id="path-31" d="M304.66 80.26l-10.5.93c-1.86.15-4.06-.7-4.92-1.93l-7.27-10.42c-.86-1.24-.05-2.36 1.82-2.52l10.5-.9c1.87-.16 4.07.7 4.93 1.93l7.25 10.38c.85 1.23.04 2.35-1.82 2.52z"/>
        <path id="path-32" d="M245.5 86.76l-10.5.94c-1.84.17-4.05-.7-4.9-1.94l-7.36-10.55c-.86-1.24-.07-2.38 1.8-2.54l10.5-.9c1.87-.17 4.08.7 4.95 1.95l7.3 10.52c.87 1.24.07 2.37-1.8 2.54z"/>
        <path id="path-33-B" d="M185.62 92.68l-10.5.96c-1.85.16-4.06-.72-4.93-1.98L162.76 81c-.88-1.28-.1-2.43 1.77-2.6l10.5-.9c1.87-.18 4.1.7 4.96 1.97l7.4 10.64c.87 1.26.08 2.42-1.78 2.58z"/>
        <path id="path-34" d="M126.56 99.33l-10.48.96c-1.85.16-4.07-.73-4.95-2l-7.5-10.8c-.88-1.28-.1-2.45 1.76-2.62l10.5-.93c1.85-.16 4.07.74 4.95 2l7.48 10.78c.87 1.26.1 2.43-1.77 2.6z"/>
        <path id="path-35" d="M344.03 77.07l-30.6 2.7c-1.87.17-4.07-.68-4.92-1.9l-7.08-10.17c-.85-1.22-.03-2.35 1.82-2.5l30.67-2.6c1.87-.17 4.06.7 4.9 1.9l7.06 10.08c.84 1.2.02 2.33-1.83 2.5z"/>
        <path id="path-36" d="M87.06 103.8l-30.79 2.86c-1.84.17-4.07-.74-4.96-2.02L43.75 93.7c-.9-1.28-.1-2.47 1.74-2.63l30.84-2.76c1.86-.16 4.08.75 4.97 2.03l7.5 10.85c.9 1.28.1 2.45-1.74 2.62z"/>
        <path id="path-37-A" d="M87.94 84.85l-10.5.94c-1.85.15-4.08-.76-4.97-2.04l-7.55-10.92c-.9-1.3-.12-2.46 1.75-2.62l10.5-.9c1.87-.16 4.1.76 5 2.04l7.53 10.88c.9 1.28.1 2.45-1.75 2.62z"/>
        <path id="path-38" d="M146.3 78.4l-10.52.93c-1.86.16-4.08-.74-4.96-2l-7.5-10.8c-.87-1.27-.1-2.43 1.78-2.6l10.53-.88c1.86-.16 4.08.75 4.96 2.02l7.46 10.75c.88 1.27.1 2.43-1.77 2.6z"/>
        <path id="path-39-D" d="M126.83 80.55l-10.5.92c-1.86.17-4.08-.74-4.96-2l-7.52-10.84c-.88-1.28-.1-2.45 1.77-2.6l10.52-.9c1.86-.16 4.1.75 4.97 2.03l7.5 10.8c.88 1.26.1 2.43-1.77 2.6z"/>
        <path id="path-40" d="M206.28 72.66l-10.5.92c-1.87.16-4.1-.73-4.96-2l-7.4-10.65c-.9-1.26-.1-2.4 1.78-2.56l10.53-.88c1.86-.17 4.08.72 4.95 1.98l7.4 10.63c.86 1.26.06 2.4-1.8 2.56z"/>
        <path id="path-41" d="M186.8 74.78l-10.5.92c-1.86.16-4.08-.73-4.95-2L163.92 63c-.88-1.26-.1-2.42 1.78-2.57l10.53-.9c1.86-.14 4.08.76 4.95 2.02l7.42 10.66c.87 1.27.08 2.42-1.8 2.58z"/>
        <path id="path-42" d="M265.52 66.33l-10.52.9c-1.86.16-4.07-.72-4.93-1.96l-7.34-10.53c-.86-1.25-.06-2.38 1.8-2.54l10.55-.86c1.86-.16 4.07.73 4.94 1.97l7.3 10.5c.87 1.24.07 2.37-1.8 2.53z"/>
        <path id="path-43" d="M246.04 68.42l-10.52.9c-1.86.17-4.07-.7-4.94-1.96l-7.36-10.58c-.87-1.25-.07-2.4 1.8-2.54l10.54-.87c1.86-.16 4.08.73 4.94 1.98l7.34 10.54c.87 1.23.07 2.36-1.8 2.52z"/>
        <path id="path-44-ENTER" d="M335.32 59.02L329 49.96l-14.2-20.34c-.45-.63-1.4-1.1-2.1-1.03l-9.47.72c-.73.06-.96.6-.52 1.24l11.02 15.79-12.85 1.04c-.72.05-.95.6-.52 1.23l8.8 12.6c.43.63 1.37 1.08 2.1 1.02l23.54-2c.7-.06.94-.6.5-1.22z"/>
        <path id="path-45" d="M304.5 62.84l-10.54.9c-1.86.16-4.06-.72-4.92-1.94l-7.3-10.46c-.85-1.23-.04-2.36 1.83-2.5l10.54-.87c1.87-.15 4.08.72 4.94 1.95l7.27 10.42c.86 1.22.06 2.35-1.8 2.5z"/>
        <path id="path-46" d="M285 64.25l-10.5.9c-1.87.15-4.08-.72-4.94-1.96l-7.3-10.5c-.87-1.24-.07-2.37 1.8-2.53l10.54-.86c1.87-.14 4.08.74 4.94 1.97l7.3 10.46c.85 1.23.04 2.36-1.83 2.52z"/>
        <path id="path-47" d="M226.56 70.52l-10.5.9c-1.87.17-4.1-.7-4.95-1.96l-7.38-10.62c-.87-1.26-.08-2.4 1.8-2.56l10.53-.87c1.86-.15 4.08.75 4.95 2l7.36 10.58c.87 1.24.07 2.38-1.8 2.54z"/>
        <path id="path-48-G" d="M166.55 76.25l-10.5.9c-1.86.18-4.08-.72-4.96-1.98l-7.47-10.75c-.88-1.27-.1-2.43 1.77-2.6l10.53-.87c1.86-.16 4.08.74 4.96 2l7.43 10.72c.88 1.26.1 2.42-1.78 2.58z"/>
        <path id="path-49" d="M107.4 82.7l-10.5.93c-1.87.16-4.1-.75-4.98-2.03l-7.54-10.87c-.9-1.28-.1-2.45 1.76-2.6l10.52-.9c1.86-.17 4.1.75 4.97 2.02l7.5 10.84c.9 1.27.12 2.43-1.75 2.6z"/>
        <path id="path-50" d="M72.05 48.23l-10.54.86c-1.85.14-4.1-.8-5-2.1l-7.6-11c-.9-1.3-.12-2.46 1.76-2.6l10.56-.83c1.86-.15 4.1.8 5 2.08l7.6 10.97c.9 1.3.1 2.46-1.76 2.6z"/>
        <path id="path-51" d="M51.73 50.28l-10.54.86c-1.88.16-4.12-.78-5.02-2.07l-7.63-11.05c-.9-1.3-.13-2.48 1.74-2.63l10.55-.84c1.87-.14 4.12.8 5 2.1l7.63 11c.9 1.3.12 2.47-1.75 2.62z"/>
        <path id="path-52" d="M131.44 42.86l-10.55.85c-1.88.16-4.1-.76-5-2.04l-7.53-10.88c-.9-1.28-.1-2.44 1.77-2.6l10.56-.8c1.87-.15 4.1.78 5 2.06l7.5 10.84c.9 1.28.1 2.43-1.76 2.58z"/>
        <path id="path-53" d="M111.1 44.9l-10.55.85c-1.87.15-4.1-.77-5-2.06L88 32.76c-.9-1.3-.1-2.46 1.76-2.6l10.56-.82c1.87-.15 4.1.78 5 2.07l7.54 10.88c.9 1.3.1 2.45-1.77 2.6z"/>
        <path id="path-54" d="M190.88 36.88l-10.56.83c-1.86.16-4.1-.75-4.97-2l-7.46-10.77c-.9-1.27-.1-2.42 1.77-2.56l10.58-.8c1.87-.15 4.1.77 4.98 2.03l7.44 10.72c.88 1.27.08 2.4-1.8 2.56z"/>
        <path id="path-55" d="M171.33 38.85l-10.55.84c-1.87.14-4.1-.77-4.98-2.04l-7.5-10.8c-.87-1.27-.08-2.42 1.8-2.57l10.57-.8c1.87-.16 4.1.76 4.98 2.03l7.47 10.76c.88 1.26.1 2.4-1.8 2.56z"/>
        <path id="path-56-dash" d="M250.36 31.65l-10.57.82c-1.88.15-4.1-.75-4.97-2l-7.4-10.63c-.86-1.26-.06-2.4 1.82-2.53l10.58-.8c1.87-.13 4.1.78 4.97 2.03l7.37 10.6c.86 1.24.06 2.37-1.8 2.52z"/>
        <path id="path-57" d="M230.8 33.6l-10.57.83c-1.87.15-4.1-.76-4.96-2l-7.42-10.68c-.87-1.26-.07-2.4 1.8-2.54l10.58-.8c1.87-.13 4.1.78 4.97 2.03l7.4 10.64c.87 1.25.07 2.38-1.8 2.53z"/>
        <path id="path-58" d="M269.93 29.7l-10.57.82c-1.87.15-4.1-.75-4.95-2l-7.36-10.58c-.87-1.25-.07-2.38 1.8-2.52l10.6-.8c1.87-.13 4.1.77 4.96 2.02l7.34 10.55c.87 1.23.06 2.36-1.8 2.5z"/>
        <path id="path-59" d="M211.23 35.56l-10.56.84c-1.86.15-4.1-.76-4.96-2.02l-7.43-10.7c-.88-1.28-.1-2.42 1.8-2.56l10.57-.8c1.87-.14 4.1.77 4.97 2.03l7.43 10.67c.87 1.26.08 2.4-1.8 2.54z"/>
        <path id="path-60" d="M45.05 89.1c-1.85.15-4.08-.76-4.97-2.05l-7.6-10.98c-.9-1.3-.12-2.48 1.73-2.64l23.1-2c1.84-.15 4.07.77 4.96 2.06l7.56 10.9c.9 1.3.1 2.47-1.74 2.63L45.05 89.1z"/>
        <path id="path-61" d="M150.98 40.87l-10.56.84c-1.86.16-4.1-.76-4.98-2.03l-7.5-10.84c-.9-1.28-.1-2.43 1.76-2.58l10.57-.8c1.87-.15 4.1.77 5 2.04l7.48 10.8c.9 1.27.1 2.42-1.78 2.57z"/>
        <path id="path-62" d="M91.57 46.9l-10.55.86c-1.86.16-4.1-.77-5-2.06l-7.58-10.96c-.9-1.3-.1-2.47 1.76-2.6l10.56-.84c1.87-.14 4.1.8 5 2.08l7.57 10.93c.9 1.3.1 2.46-1.76 2.6z"/>
        <path id="path-63" d="M310.35 26.9l-30.8 2.4c-1.86.13-4.08-.75-4.94-2L267.43 17c-.86-1.26-.05-2.38 1.82-2.52l30.85-2.3c1.87-.13 4.08.76 4.94 2l7.14 10.24c.86 1.23.04 2.35-1.83 2.5z"/>
        <path id="path-64" d="M31.4 52.35l-10.54.86c-1.86.17-4.1-.77-5-2.08L8.2 40.05c-.9-1.3-.14-2.5 1.74-2.64l10.55-.83c1.86-.15 4.1.8 5 2.1l7.65 11.04c.9 1.32.12 2.5-1.75 2.65z"/>
        <path id="path-65" d="M40 32.06l-10.55.83c-1.87.13-4.1-.8-5.02-2.12l-3.18-4.6c-.9-1.3-.13-2.5 1.74-2.64l10.57-.8c1.86-.15 4.1.8 5 2.1l3.2 4.6c.9 1.3.12 2.48-1.76 2.62z"/>
        <path id="path-66" d="M79.12 28.85l-10.56.82c-1.87.14-4.12-.8-5-2.1L60.37 23c-.9-1.3-.12-2.47 1.76-2.6l10.58-.8c1.87-.15 4.1.78 5 2.08l3.16 4.56c.9 1.3.12 2.46-1.76 2.6z"/>
        <path id="path-67" d="M59.56 30.8L49 31.62c-1.87.15-4.1-.8-5-2.1l-3.2-4.58c-.9-1.3-.1-2.48 1.76-2.63l10.58-.8c1.87-.13 4.1.8 5 2.1l3.18 4.6c.9 1.3.12 2.46-1.76 2.6z"/>
        <path id="path-68" d="M119.07 24.94l-10.57.8c-1.87.15-4.1-.78-5-2.07l-3.14-4.54c-.9-1.3-.1-2.45 1.77-2.6l10.58-.78c1.88-.14 4.12.8 5 2.07l3.15 4.53c.9 1.28.1 2.44-1.78 2.58z"/>
        <path id="path-69" d="M139.46 22.98l-10.57.8c-1.88.15-4.12-.77-5-2.06l-3.14-4.52c-.9-1.3-.1-2.44 1.77-2.58l10.6-.8c1.86-.13 4.1.8 5 2.08l3.1 4.5c.9 1.3.1 2.44-1.77 2.58z"/>
        <path id="path-70" d="M99.5 26.88l-10.57.8c-1.87.15-4.1-.78-5-2.07l-3.16-4.55c-.9-1.3-.1-2.46 1.77-2.6l10.58-.8c1.87-.14 4.1.8 5 2.1l3.15 4.53c.9 1.3.1 2.45-1.77 2.6z"/>
        <path id="path-71" d="M178.62 19.84l-10.58.8c-1.87.14-4.1-.78-4.98-2.05l-3.12-4.5c-.88-1.28-.1-2.42 1.8-2.56l10.58-.8c1.87-.12 4.1.8 5 2.07l3.1 4.48c.87 1.27.08 2.42-1.8 2.56z"/>
        <path id="path-72" d="M218.63 16.02l-10.6.8c-1.86.13-4.1-.78-4.96-2.05l-3.1-4.45c-.88-1.27-.08-2.4 1.8-2.55l10.6-.77c1.87-.14 4.1.78 4.98 2.04l3.08 4.44c.88 1.26.08 2.4-1.8 2.54z"/>
        <path id="path-73" d="M199.03 17.9l-10.58.8c-1.87.15-4.1-.77-4.98-2.04l-3.1-4.47c-.9-1.28-.1-2.42 1.78-2.56l10.6-.78c1.87-.13 4.1.78 4.98 2.05l3.1 4.47c.88 1.26.08 2.4-1.8 2.54z"/>
        <path id="path-74" d="M258.66 12.23l-10.6.8c-1.86.13-4.1-.78-4.96-2.03l-3.07-4.42c-.88-1.26-.07-2.4 1.8-2.53l10.6-.76c1.88-.15 4.1.76 4.98 2l3.07 4.42c.87 1.25.07 2.37-1.8 2.5z"/>
        <path id="path-75" d="M298.7 9.16l-10.6.77c-1.88.14-4.1-.76-4.96-2l-3.06-4.4c-.86-1.23-.06-2.35 1.83-2.5L292.5.3c1.9-.13 4.1.77 4.97 2l3.05 4.38c.86 1.24.05 2.36-1.83 2.5z"/>
        <path id="path-76" d="M279.07 11.02l-10.6.78c-1.86.14-4.1-.77-4.96-2l-3.05-4.4c-.87-1.27-.06-2.4 1.82-2.53l10.6-.76c1.87-.12 4.1.78 4.97 2.03l3.05 4.38c.86 1.26.05 2.38-1.83 2.52z"/>
        <path id="path-77" d="M239.03 14.8l-10.6.78c-1.86.14-4.1-.77-4.96-2.03L220.4 9.1c-.9-1.25-.1-2.38 1.8-2.52l10.6-.77c1.86-.12 4.1.8 4.96 2.04l3.08 4.42c.87 1.26.07 2.4-1.8 2.53z"/>
        <path id="path-78" d="M159.03 21.75l-10.57.8c-1.87.15-4.1-.77-5-2.05l-3.12-4.5c-.9-1.3-.1-2.44 1.78-2.58l10.6-.78c1.86-.14 4.1.78 5 2.06l3.1 4.5c.88 1.26.1 2.4-1.8 2.55z"/>
        <path id="path-79" d="M9.9 35.57c-1.86.15-4.1-.8-5.02-2.1l-3.2-4.63c-.9-1.32-.13-2.5 1.75-2.64L14 25.38c1.87-.14 4.12.8 5.02 2.12l3.18 4.6c.9 1.3.13 2.5-1.74 2.64l-10.56.83z"/>
        <path id="path-80" d="M20 57.2c-.04.37.08.78.36 1.2L28 69.43c.9 1.3 3.12 2.22 4.98 2.06l15.75-1.35c1.86-.16 2.64-1.34 1.75-2.63l-7.6-11c-.9-1.3-3.14-2.22-5-2.06l-3.56.3c-.56-.13-1.14-.18-1.68-.13l-10.53.87c-1.4.1-2.2.8-2.1 1.7z"/>
      </defs>
      <g id="keyboard">
        <use xlink:href="#path-1" transform="rotate(-27 271.898 94.99)"/>
        <use xlink:href="#path-2" transform="rotate(-27 271.898 94.99)"/>
        <g transform="rotate(-27 271.898 94.99)">
          <use xlink:href="#path-3-T"/>
          <animate id="T_letter" xlink:href="#path-3-T" attributeType="CSS" attributeName="fill" from="#e1e3e8" to="rgba(154, 81, 194, 0.5)" dur=".3s" begin="C_letter.end"/>
        </g>
        <g transform="rotate(-27 271.898 94.99)">
          <use xlink:href="#path-4-R"/>
          <animate id="R_letter" xlink:href="#path-4-R" attributeType="CSS" attributeName="fill" from="#e1e3e8" to="rgba(154, 81, 194, 0.5)" dur=".3" begin="B_letter.end"/>
        </g>
        <use xlink:href="#path-5" transform="rotate(-27 271.898 94.99)"/>
        <use xlink:href="#path-6" transform="rotate(-27 271.898 94.99)"/>
        <use xlink:href="#path-7" transform="rotate(-27 271.898 94.99)"/>
        <use xlink:href="#path-8" transform="rotate(-27 271.898 94.99)"/>
        <use xlink:href="#path-9" transform="rotate(-27 271.898 94.99)"/>
        <use xlink:href="#path-10" transform="rotate(-27 271.898 94.99)"/>
        <g transform="rotate(-27 271.898 94.99)">
          <use xlink:href="#path-11-I"/>
          <animate id="I_letter" xlink:href="#path-11-I" attributeType="CSS" attributeName="fill" from="#e1e3e8" to="rgba(154, 81, 194, 0.5)" dur=".3s" begin="T_letter.end"/>
          <animate id="II_letter" xlink:href="#path-11-I" attributeType="CSS" attributeName="fill" from="#e1e3e8" to="rgba(154, 81, 194, 0.5)" dur=".3s" begin="R_letter.end"/>
        </g>
        <use xlink:href="#path-12" transform="rotate(-27 271.898 94.99)"/>
        <g transform="rotate(-27 271.898 94.99)">
          <use xlink:href="#path-13-E"/>
          <animate id="E_letter" xlink:href="#path-13-E" attributeType="CSS" attributeName="fill" from="#e1e3e8" to="rgba(154, 81, 194, 0.5)" dur=".3s" begin="V_letter.end"/>
          <animate id="EE_letter" xlink:href="#path-13-E" attributeType="CSS" attributeName="fill" from="#e1e3e8" to="rgba(154, 81, 194, 0.5)" dur=".3s" begin="G_letter.end"/>
        </g>
        <use xlink:href="#path-14" transform="rotate(-27 271.898 94.99)"/>
        <use xlink:href="#path-15" transform="rotate(-27 271.898 94.99)"/>
        <use xlink:href="#path-16" transform="rotate(-27 271.898 94.99)"/>
        <use xlink:href="#path-17" transform="rotate(-27 271.898 94.99)"/>
        <use xlink:href="#path-18" transform="rotate(-27 271.898 94.99)"/>
        <use xlink:href="#path-19" transform="rotate(-27 271.898 94.99)"/>
        <use xlink:href="#path-20" transform="rotate(-27 271.898 94.99)"/>
        <use xlink:href="#path-21" transform="rotate(-27 271.898 94.99)"/>
        <use xlink:href="#path-22" transform="rotate(-27 271.898 94.99)"/>
        <use xlink:href="#path-23" transform="rotate(-27 271.898 94.99)"/>
        <use xlink:href="#path-24" transform="rotate(-27 271.898 94.99)"/>
        <g transform="rotate(-27 271.898 94.99)">
          <use xlink:href="#path-25-V"/>
          <animate id="V_letter" xlink:href="#path-25-V" attributeType="XML" attributeName="fill" from="#e1e3e8" to="rgba(154, 81, 194, 0.5)" dur=".3s" begin="I_letter.end"/>
        </g>
        <g transform="rotate(-27 271.898 94.99)">
          <use xlink:href="#path-26-C"/>
          <animate id="C_letter" xlink:href="#path-26-C" attributeType="XML" attributeName="fill" from="#e1e3e8" to="rgba(154, 81, 194, 0.5)" dur=".3s" begin="A_letter.end"/>
        </g>
        <use xlink:href="#path-27" transform="rotate(-27 271.898 94.99)"/>
        <use xlink:href="#path-28" transform="rotate(-27 271.898 94.99)"/>
        <use xlink:href="#path-29" transform="rotate(-27 271.898 94.99)"/>
        <use xlink:href="#path-30" transform="rotate(-27 271.898 94.99)"/>
        <use xlink:href="#path-31" transform="rotate(-27 271.898 94.99)"/>
        <use xlink:href="#path-32" transform="rotate(-27 271.898 94.99)"/>
        <g transform="rotate(-27 271.898 94.99)">
          <use xlink:href="#path-33-B"/>
          <animate id="B_letter" xlink:href="#path-33-B" attributeType="XML" attributeName="fill" from="#e1e3e8" to="rgba(154, 81, 194, 0.5)" dur=".3s" begin="dash_letter.end"/>
        </g>
        <use xlink:href="#path-34" transform="rotate(-27 271.898 94.99)"/>
        <use xlink:href="#path-35" transform="rotate(-27 271.898 94.99)"/>
        <use xlink:href="#path-36" transform="rotate(-27 271.898 94.99)"/>
        <g transform="rotate(-27 271.898 94.99)">
          <use xlink:href="#path-37-A"/>
          <animate id="A_letter" xlink:href="#path-37-A" attributeType="XML" attributeName="fill" from="#e1e3e8" to="rgba(154, 81, 194, 0.5)" dur=".3s" begin=".3s;ENTER_letter.end"/>
        </g>
        <use xlink:href="#path-38" transform="rotate(-27 271.898 94.99)"/>
        <g transform="rotate(-27 271.898 94.99)">
          <use xlink:href="#path-39-D"/>
          <animate id="D_letter" xlink:href="#path-39-D" attributeType="XML" attributeName="fill" from="#e1e3e8" to="rgba(154, 81, 194, 0.5)" dur=".3s" begin="II_letter.end"/>
        </g>
        <use xlink:href="#path-40" transform="rotate(-27 271.898 94.99)"/>
        <use xlink:href="#path-41" transform="rotate(-27 271.898 94.99)"/>
        <use xlink:href="#path-42" transform="rotate(-27 271.898 94.99)"/>
        <use xlink:href="#path-43" transform="rotate(-27 271.898 94.99)"/>
        <g transform="rotate(-27 271.898 94.99)">
          <use xlink:href="#path-44-ENTER"/>
          <animate id="ENTER_letter" attributeType="XML" attributeName="fill" from="#e1e3e8" to="rgba(154, 81, 194, 0.5)" dur=".3s" begin="EE_letter.end"/>
        </g>
        <use xlink:href="#path-45" transform="rotate(-27 271.898 94.99)"/>
        <use xlink:href="#path-46" transform="rotate(-27 271.898 94.99)"/>
        <use xlink:href="#path-47" transform="rotate(-27 271.898 94.99)"/>
        <g transform="rotate(-27 271.898 94.99)">
          <use xlink:href="#path-48-G"/>
          <animate id="G_letter" xlink:href="#path-48-G" attributeType="XML" attributeName="fill" from="#e1e3e8" to="rgba(154, 81, 194, 0.5)" dur=".3s" begin="D_letter.end"/>
        </g>
        <use xlink:href="#path-49" transform="rotate(-27 271.898 94.99)"/>
        <use xlink:href="#path-50" transform="rotate(-27 271.898 94.99)"/>
        <use xlink:href="#path-51" transform="rotate(-27 271.898 94.99)"/>
        <use xlink:href="#path-52" transform="rotate(-27 271.898 94.99)"/>
        <use xlink:href="#path-53" transform="rotate(-27 271.898 94.99)"/>
        <use xlink:href="#path-54" transform="rotate(-27 271.898 94.99)"/>
        <use xlink:href="#path-55" transform="rotate(-27 271.898 94.99)"/>
        <g transform="rotate(-27 271.898 94.99)">
          <use xlink:href="#path-56-dash"/>
          <animate id="dash_letter" xlink:href="#path-56-dash" attributeType="XML" attributeName="fill" from="#e1e3e8" to="rgba(154, 81, 194, 0.5)" dur=".3s" begin="E_letter.end"/>
        </g>
        <use xlink:href="#path-57" transform="rotate(-27 271.898 94.99)"/>
        <use xlink:href="#path-58" transform="rotate(-27 271.898 94.99)"/>
        <use xlink:href="#path-59" transform="rotate(-27 271.898 94.99)"/>
        <use xlink:href="#path-60" transform="rotate(-27 271.898 94.99)"/>
        <use xlink:href="#path-61" transform="rotate(-27 271.898 94.99)"/>
        <use xlink:href="#path-62" transform="rotate(-27 271.898 94.99)"/>
        <use xlink:href="#path-63" transform="rotate(-27 271.898 94.99)"/>
        <use xlink:href="#path-64" transform="rotate(-27 271.898 94.99)"/>
        <use xlink:href="#path-65" transform="rotate(-27 271.898 94.99)"/>
        <use xlink:href="#path-66" transform="rotate(-27 271.898 94.99)"/>
        <use xlink:href="#path-67" transform="rotate(-27 271.898 94.99)"/>
        <use xlink:href="#path-68" transform="rotate(-27 271.898 94.99)"/>
        <use xlink:href="#path-69" transform="rotate(-27 271.898 94.99)"/>
        <use xlink:href="#path-70" transform="rotate(-27 271.898 94.99)"/>
        <use xlink:href="#path-71" transform="rotate(-27 271.898 94.99)"/>
        <use xlink:href="#path-72" transform="rotate(-27 271.898 94.99)"/>
        <use xlink:href="#path-73" transform="rotate(-27 271.898 94.99)"/>
        <use xlink:href="#path-74" transform="rotate(-27 271.898 94.99)"/>
        <use xlink:href="#path-75" transform="rotate(-27 271.898 94.99)"/>
        <use xlink:href="#path-76" transform="rotate(-27 271.898 94.99)"/>
        <use xlink:href="#path-77" transform="rotate(-27 271.898 94.99)"/>
        <use xlink:href="#path-78" transform="rotate(-27 271.898 94.99)"/>
        <use xlink:href="#path-79" transform="rotate(-27 271.898 94.99)"/>
        <use xlink:href="#path-80" transform="rotate(-27 271.898 94.99)"/>
      </g>
    </g>
    <linearGradient id="n" x1="70.42%" x2="-80.25%" y1="-2.88%" y2="122.26%">
      <stop stop-color="#EFF0F1" offset="0%"/>
      <stop stop-color="#A8B8BD" offset="100%"/>
    </linearGradient>
    <linearGradient id="o" x1="50%" x2="24.69%" y1="0%" y2="135.69%">
      <stop stop-color="#CE83BA" offset="0%"/>
      <stop stop-color="#9F4B84" offset="100%"/>
    </linearGradient>
    <path id="p" d="M11.2 299.4L247.6 150.87l30.5 32.05-4.1-48.13 32.55-21.66-4.1-105.82L7.3 191.72l3.9 107.67z"/>
    <linearGradient id="q" x1="0%" x2="95.47%" y1="95.28%" y2="5.88%">
      <stop stop-color="#DD87F3" offset="0%"/>
      <stop stop-color="#B74FE2" offset="100%"/>
    </linearGradient>
    <linearGradient id="s" x1="63.3%" x2="-15.46%" y1="33.73%" y2="192.4%">
      <stop stop-color="#EEE" offset="0%"/>
      <stop stop-color="#D3D6D7" offset="100%"/>
    </linearGradient>
    <path id="r" d="M362 652v37.12c0 16.02-11.22 35.54-25.04 43.6l-44.06 25.7c-10.5 6.12-27.55 6.17-38.1.1l-85.4-49.07c-12.92-7.43-12.66-19 .58-25.84l41.25-21.3C225.46 654.97 237 636.03 237 620v-71.02L362 652z"/>
    <linearGradient id="v" x1="50%" x2="-2.94%" y1="100%" y2="-3.76%">
      <stop stop-color="#E9E9E9" offset="0%"/>
      <stop stop-color="#949FA0" offset="100%"/>
    </linearGradient>
    <path id="u" d="M8.98 24.4L8 453c0 12.7 9.9 28.63 22.12 35.57l505.92 284.58c12.22 6.94 22.12 2.27 22.12-10.44V313.73c0-12.7-9.9-28.63-22.12-35.57L31.12 3.57C24.8-.03 19.08-.5 15.05 1.63l-.15-.06-9.8 7.58v18.5l3.88-3.25z"/>
    <linearGradient id="x" x1="-6.33%" x2="120.08%" y1="-2.05%" y2="79.22%">
      <stop stop-color="#8C3381" offset="0%"/>
      <stop stop-color="#613E91" offset="100%"/>
    </linearGradient>
    <path id="w" d="M22.12 9.57l505.92 275.58c12.2 6.94 22.12 22.88 22.12 35.58v449c0 12.7-9.9 17.36-22.12 10.42L22.12 492.57C9.9 485.63 0 469.7 0 457V20C0 7.3 9.9 2.63 22.12 9.57z"/>
    <linearGradient id="y" x1="-9.62%" x2="247.49%" y1="25.34%" y2="139.85%">
      <stop stop-color="#EFF0F1" offset="0%"/>
      <stop stop-color="#A8B8BD" offset="100%"/>
    </linearGradient>
    <linearGradient id="B" x1="50%" x2="50%" y1="0%" y2="135.53%">
      <stop stop-color="#CE83BA" offset="0%"/>
      <stop stop-color="#9F4B84" offset="100%"/>
    </linearGradient>
    <linearGradient id="C" x1="-14.6%" x2="151.21%" y1="35.71%" y2="108.38%">
      <stop stop-color="#B64E96" offset="0%"/>
      <stop stop-color="#5F52CA" offset="100%"/>
    </linearGradient>
    <path id="A" d="M500.23 275.4v393L.08 384.13V.12l500.15 275.3z"/>
    <path id="D" d="M488 279.88V644.4L10.08 373.7V17.54L488 279.88z"/>
    <linearGradient id="F" x1="81.76%" x2="3.53%" y1="-5.83%" y2="96%">
      <stop stop-color="#EFF0F1" offset="0%"/>
      <stop stop-color="#D5DDDF" offset="100%"/>
    </linearGradient>
    <path id="E" d="M99.68 521.33l327.02-210.2V46.36L322.94.98.82 200.92l.2 264.3 98.66 56.1z"/>
    <linearGradient id="H" x1="107.52%" x2="-74.95%" y1="7.21%" y2="95.07%">
      <stop stop-color="#8950B1" offset="0%"/>
      <stop stop-color="#B54E97" offset="100%"/>
    </linearGradient>
    <path id="I" d="M98.56 247.62L427.13 46.56V315L98.56 522.36V247.62z"/>
    <linearGradient id="K" x1="50%" x2="50%" y1="0%" y2="100%">
      <stop stop-color="#A05C8C" offset="0%"/>
      <stop stop-opacity=".5" offset="100%"/>
    </linearGradient>
    <linearGradient id="L" x1="86.96%" x2="7.99%" y1="0%" y2="94.42%">
      <stop stop-color="#8D50AF" offset="0%"/>
      <stop stop-color="#A64FA0" offset="100%"/>
    </linearGradient>
    <path id="J" d="M379.3 21.06L54.6 224.08l-1 271.68-6.7-4.56 2-270.7L374.48 18.65l4.83 2.4z"/>
    <linearGradient id="N" x1="58.24%" x2="56.59%" y1="-10.14%" y2="96.19%">
      <stop stop-color="#B7C4C8" offset="0%"/>
      <stop stop-color="#EEF0F1" offset="43.59%"/>
      <stop stop-color="#A8B8BD" offset="100%"/>
    </linearGradient>
    <path id="M" d="M142.7 153.18l15.35 8.18 12.9-7.18S192.9 94.8 238.03 76.8c24.86-11.07 33.28-.4 33.28-.4l13.5 7.78 13.2-8.32s-27.05-33.7-64.83-18.64c-68.6 19.67-90.48 95.96-90.48 95.96z"/>
    <linearGradient id="O" x1="-67.2%" x2="93.91%" y1="141.81%" y2="-44.11%">
      <stop stop-color="#B54E96" offset="0%"/>
      <stop stop-color="#964FA9" offset="100%"/>
    </linearGradient>
    <path id="Q" d="M10.54 134.63C4.72 131.47 0 123.53 0 116.9V13c0-6.63 4.74-9.44 10.56-6.3l145.36 78.47c5.83 3.15 10.56 11.06 10.56 17.7V207.5c0 6.64-4.72 9.44-10.54 6.27l-145.4-79.14z"/>
    <linearGradient id="S" x1="109.51%" x2="-19.69%" y1="62.48%" y2="82.27%">
      <stop stop-color="#8950B1" offset="0%"/>
      <stop stop-color="#B64E96" offset="100%"/>
    </linearGradient>
    <linearGradient id="U" x1="0%" x2="50%" y1="0%" y2="100%">
      <stop stop-color="#B64E95" offset="0%"/>
      <stop stop-color="#7B50B9" offset="100%"/>
    </linearGradient>
    <path id="T" d="M245.44 219.6c2.78-1 4.56-3.93 4.56-8.35v-96c0-7.72-5.45-17.08-12.18-20.9L74.7 1.94C72.94.93 71.3.6 69.92.87l-.2-.23-.94.6c-.26.14-.5.3-.74.5L19.44 32.9l48.7 136.6L198.78 252l46.64-32.4z"/>
    <linearGradient id="V" x1="172.41%" x2="5.32%" y1="-53.84%" y2="88.11%">
      <stop stop-color="#FFF" offset="0%"/>
      <stop stop-color="#FFF" stop-opacity="0" offset="100%"/>
    </linearGradient>
    <linearGradient id="X" x1="50%" x2="127.84%" y1="0%" y2="166.57%">
      <stop stop-color="#EFF0F1" offset="0%"/>
      <stop stop-color="#A8B8BD" offset="100%"/>
    </linearGradient>
    <linearGradient id="Z" x1="50%" x2="-10.93%" y1="100%" y2="29.74%">
      <stop stop-color="#9A5DB2" offset="0%"/>
      <stop stop-color="#BD5AA8" offset="100%"/>
    </linearGradient>
    <path id="Y" d="M189.82 125.36c6.73 3.8 12.18 13.17 12.18 20.9v99c0 6.06-4.33 8.65-9.68 5.77L26.8 161.73c-4.86-2.6-8.8-9.2-8.8-14.74V38c0-5.52 3.9-7.8 8.7-5.07l163.12 92.43z"/>
    <linearGradient id="aa" x1="25.39%" x2="272.45%" y1="0%" y2="168.78%">
      <stop stop-color="#EFF0F1" offset="0%"/>
      <stop stop-color="#A8B8BD" offset="100%"/>
    </linearGradient>
    <linearGradient id="ac" x1="119.18%" x2="133.18%" y1="-12.56%" y2="120.97%">
      <stop stop-color="#A84E9E" offset="0%"/>
      <stop stop-color="#9E5CAF" offset="100%"/>
    </linearGradient>
    <linearGradient id="ad" x1="50%" x2="0%" y1="0%" y2="263.54%">
      <stop stop-color="#EFF0F1" offset="0%"/>
      <stop stop-color="#A8B8BD" offset="100%"/>
    </linearGradient>
    <path id="ae" d="M68.44 156.92c5.7-17.3-2.56-39.07-18.46-48.58-15.9-9.5-33.22-3.85-38.67 12.63-5.43 16.47 2.84 38.2 18.5 48.53 15.64 10.35 32.94 4.73 38.64-12.58z"/>
    <linearGradient id="ag" x1="162.39%" x2="-193.65%" y1="19.12%" y2="50%">
      <stop stop-color="#EFF0F1" offset="0%"/>
      <stop stop-color="#A8B8BD" offset="100%"/>
    </linearGradient>
    <linearGradient id="ah" x1="67.97%" x2="-45.86%" y1="-14.39%" y2="84.33%">
      <stop stop-color="#B74E94" offset="0%"/>
      <stop stop-color="#9652CA" offset="100%"/>
    </linearGradient>
    <linearGradient id="ai" x1="36.66%" x2="232.67%" y1="-32.02%" y2="38.37%">
      <stop stop-color="#EFF0F1" offset="0%"/>
      <stop stop-color="#A8B8BD" offset="100%"/>
    </linearGradient>
    <linearGradient id="nx" x1="95.91%" x2="50.26%" y1="0%" y2="65.57%">
      <stop stop-color="#FFF" offset="0%"/>
      <stop stop-color="#FFF" stop-opacity="0" offset="100%"/>
    </linearGradient>
  </defs>
  <g fill="none" fill-rule="evenodd" transform="translate(-160 -80)">
    <a id="testimonials" xlink:href="testimonials" class="object">
      <path id="testimonials-shadow" fill="#000" fill-opacity=".1" d="M313.48 1029.2l221.8 124.85c13.46 7.58 34.9 6.9 47.87-1.54l330.42-214.84c6.48-4.22 6.1-10.4-.84-13.8L664.5 802.47 313.47 1029.2z"/>
      <g id="laptop-cont" transform="rotate(60 -33.15 792.458)">
        <path fill="url(#d)" d="M544.5 418.42c.64 14-8.93 30.6-21.37 37.08L305.58 588.17l-16.4-428.38L513.1 13.94c5.55-3.6 10.33-1.18 10.68 5.44L544.5 418.4z"/>
        <path fill="url(#e)" d="M504.53 6.72c5.57-3.57 10.4-1.12 10.77 5.5l22.8 404.3c.64 14.02-8.9 30.64-21.33 37.16L306.73 581.05 285.3 147.42 504.54 6.7z"/>
        <path fill="url(#f)" d="M21.88 13.34C9.23 6.54-.5 12.68.16 27.02l17.62 387.34c.65 14.35 11.54 31.3 24.3 37.87l263.74 135.6-20.52-433.05L21.87 13.34z"/>
        <use fill="url(#g)" xlink:href="#h"/>
        <use fill="url(#i)" xlink:href="#h"/>
        <mask id="l" fill="#fff">
          <use xlink:href="#j"/>
        </mask>
        <use fill="url(#k)" xlink:href="#j"/>
        <path fill="#000" fill-opacity=".1" d="M30.7 41.8l230.83 122.97 14.92 402.44 10.76 9.95-12.67-425.38L30.7 26.9v14.9z" mask="url(#l)"/>
      </g>
      <use id="laptop-keyboard" fill="rgba(0,0,0,.1)" xlink:href="#m" transform="translate(420 800)"/>
      <g id="testimonial">
        <path fill="#000" fill-opacity=".1" d="M306.4 830.63l144.02-96.72 34.68 16.34-2.23-36.87 38.8-17.5-4.47-72.33-13.94-5.78L301.5 746.9l4.93 83.73z"/>
        <path fill="url(#n)" d="M296.5 31.53l6-24.18-2.43-1.06-4.43-1.94-1.44 1.44L.3 189.4 4.2 296.1l.68-.44-.16.17 6.93 3.2 98.52-69.05 130.45-81.38 36.28 33.1.96 1.25-.13-.5.5.44-9.12-40.94 3.23-12.98 27.24-18.12-3.07-79.3z" transform="translate(217 617)"/>
        <g transform="translate(217 617)">
          <use fill="url(#o)" xlink:href="#p"/>
          <use fill="#FFF" xlink:href="#p"/>
        </g>
        <path fill="#DFDFDF" d="M265.46 855.45l-4.7 2.9v-26.5l-7.76 4.82v-5.45l20.23-12.54v5.45l-7.77 4.8v26.52zm10.8-6.68v-31.95l16.56-10.28V812l-11.85 7.33v7.7l10.24-6.35v5.04l-10.23 6.35v8.32l12.15-7.54v5.45l-16.87 10.47zm32.12-45.4c-.6.02-1.26.13-1.97.33-.7.2-1.42.52-2.15.98-1.3.8-2.27 1.72-2.9 2.75-.65 1.02-.97 2.1-.97 3.24 0 .66.12 1.14.36 1.42s.6.45 1.05.5c.44.04 1.02-.02 1.72-.18s1.5-.37 2.4-.64c1.2-.3 2.27-.53 3.24-.65.97-.13 1.8-.03 2.47.27.67.3 1.2.84 1.56 1.62.35.78.53 1.9.53 3.37 0 1.7-.24 3.32-.73 4.84-.5 1.52-1.15 2.9-2 4.18-.82 1.26-1.78 2.4-2.86 3.42-1.1 1-2.22 1.9-3.4 2.63-1.84 1.13-3.64 1.9-5.42 2.27-1.78.39-3.38.35-4.8-.1l2.1-6.64c.2.15.57.27 1.1.37.54.1 1.18.15 1.9.13.74-.02 1.55-.15 2.44-.4.9-.26 1.8-.67 2.74-1.25 2.6-1.62 3.9-3.52 3.9-5.7 0-.7-.15-1.2-.44-1.5-.3-.28-.72-.44-1.27-.46-.56-.03-1.22.05-2 .23l-2.6.62c-1.16.3-2.17.47-3.03.5-.85.04-1.57-.1-2.14-.42-.57-.32-1-.84-1.28-1.54-.3-.72-.43-1.7-.43-2.92 0-1.62.23-3.2.7-4.75.44-1.54 1.07-2.98 1.88-4.32.8-1.34 1.76-2.56 2.83-3.66s2.22-2.03 3.46-2.8c1.7-1.05 3.27-1.68 4.7-1.86 1.45-.2 2.7-.13 3.78.16l-2.1 6.34c-.15-.1-.44-.22-.86-.32s-.94-.13-1.54-.1zm19.15 13.6l-4.7 2.9v-26.5l-7.76 4.83v-5.45l20.23-12.54v5.45l-7.77 4.82v26.5zm15.5-41.56v31.96l-4.7 2.93v-31.96l4.7-2.93zm18.63 15.02l-2.56 1.6-6.27-11.88v21.15l-4.72 2.92v-31.95l5.07-3.14 7.2 13.72 7.25-22.68 5.04-3.12V789l-4.73 2.93v-21.15l-6.26 19.64zm17.86-10.46c-1.04-.87-1.84-2.1-2.42-3.7-.57-1.6-.85-3.42-.85-5.46 0-2.13.3-4.36.9-6.68.6-2.33 1.44-4.57 2.5-6.73 1.07-2.17 2.33-4.14 3.8-5.93 1.45-1.8 3.04-3.22 4.75-4.28 1.75-1.1 3.36-1.62 4.8-1.57 1.46.04 2.7.5 3.72 1.4 1.03.9 1.83 2.15 2.4 3.74.57 1.6.85 3.4.85 5.4 0 2.14-.3 4.36-.9 6.66-.58 2.3-1.4 4.52-2.45 6.66-1.05 2.12-2.3 4.1-3.77 5.88-1.46 1.8-3.04 3.2-4.75 4.28-1.78 1.1-3.4 1.64-4.85 1.63-1.45-.03-2.7-.47-3.73-1.35zm3.4-5.86c.6.6 1.33.95 2.2 1 .9.06 1.9-.26 3-.95 1.15-.7 2.16-1.64 3.04-2.8.88-1.16 1.62-2.44 2.22-3.84s1.06-2.8 1.37-4.28c.3-1.46.47-2.86.47-4.18 0-1.38-.17-2.6-.5-3.7-.33-1.08-.8-1.93-1.4-2.54-.6-.62-1.35-.95-2.23-1-.9-.03-1.88.3-2.97.97-1.14.7-2.16 1.65-3.05 2.8-.9 1.18-1.63 2.45-2.22 3.82-.6 1.37-1.05 2.78-1.36 4.25-.3 1.47-.46 2.86-.46 4.18 0 1.38.16 2.6.48 3.7.32 1.1.78 1.95 1.4 2.57zm20.68-4.28v-31.95l3.67-2.27 12.66 13.12V727.8l4.73-2.94v31.9l-3.84 2.38-12.5-12.73v20.5l-4.72 2.92zm30.85-51.07v31.95l-4.73 2.93v-31.95l4.73-2.93zm25.4 16.2l-4.86 3-2.27-6.55-8.5 5.26-2.22 9.35-4.85 3.02 9.28-37.7 4.18-2.6 9.25 26.23zm-14.82-3.14l6.84-4.24-3.35-10.47-3.5 14.7zm22.22-33.38v26.5l12.4-7.68v5.44l-17.13 10.6v-31.94l4.73-2.92zm27.33-10.5c-.6.04-1.26.15-1.97.35-.7.2-1.4.52-2.14.98-1.3.8-2.27 1.72-2.9 2.75-.65 1.02-.97 2.1-.97 3.25 0 .66.1 1.13.35 1.42.24.28.6.45 1.04.5.45.04 1.03 0 1.72-.18.7-.17 1.5-.38 2.42-.65 1.18-.3 2.26-.53 3.23-.65.97-.12 1.8-.03 2.47.27.67.3 1.2.84 1.56 1.62.36.77.54 1.9.54 3.36 0 1.7-.24 3.33-.73 4.85-.48 1.53-1.14 2.92-1.98 4.2-.83 1.25-1.8 2.4-2.87 3.4-1.1 1.03-2.22 1.9-3.4 2.64-1.84 1.13-3.64 1.9-5.42 2.27-1.78.4-3.38.37-4.8-.08l2.1-6.65c.2.15.57.27 1.1.37.55.1 1.18.15 1.9.13.74-.02 1.55-.15 2.44-.4.9-.26 1.8-.67 2.74-1.25 2.6-1.62 3.9-3.52 3.9-5.7 0-.7-.14-1.2-.43-1.5-.3-.28-.73-.44-1.27-.46-.55-.02-1.2.06-2 .24-.76.18-1.63.4-2.6.62-1.15.3-2.16.47-3.02.5-.85.04-1.57-.1-2.14-.42-.57-.32-1-.84-1.28-1.54-.3-.7-.43-1.68-.43-2.9 0-1.63.23-3.2.7-4.76.44-1.54 1.08-2.98 1.9-4.32.8-1.35 1.74-2.57 2.8-3.67 1.08-1.1 2.24-2.02 3.47-2.78 1.7-1.06 3.28-1.7 4.72-1.87 1.44-.2 2.7-.14 3.77.16l-2.1 6.34c-.16-.1-.45-.2-.87-.3-.43-.1-.94-.14-1.54-.1z"/>
        <path fill="#DFDFDF" d="M266.46 856.45l-4.7 2.9v-26.5l-7.76 4.82v-5.45l20.23-12.54v5.45l-7.77 4.8v26.52zm10.8-6.68v-31.95l16.56-10.28V813l-11.85 7.33v7.7l10.24-6.35v5.04l-10.23 6.35v8.32l12.15-7.54v5.45l-16.87 10.47zm32.12-45.4c-.6.02-1.26.13-1.97.33-.7.2-1.42.52-2.15.98-1.3.8-2.27 1.72-2.9 2.75-.65 1.02-.97 2.1-.97 3.24 0 .66.12 1.14.36 1.42s.6.45 1.05.5c.44.04 1.02-.02 1.72-.18s1.5-.37 2.4-.64c1.2-.3 2.27-.53 3.24-.65.97-.13 1.8-.03 2.47.27.67.3 1.2.84 1.56 1.62.35.78.53 1.9.53 3.37 0 1.7-.24 3.32-.73 4.84-.5 1.52-1.15 2.9-2 4.18-.82 1.26-1.78 2.4-2.86 3.42-1.1 1-2.22 1.9-3.4 2.63-1.84 1.13-3.64 1.9-5.42 2.27-1.78.39-3.38.35-4.8-.1l2.1-6.64c.2.15.57.27 1.1.37.54.1 1.18.15 1.9.13.74-.02 1.55-.15 2.44-.4.9-.26 1.8-.67 2.74-1.25 2.6-1.62 3.9-3.52 3.9-5.7 0-.7-.15-1.2-.44-1.5-.3-.28-.72-.44-1.27-.46-.56-.03-1.22.05-2 .23l-2.6.62c-1.16.3-2.17.47-3.03.5-.85.04-1.57-.1-2.14-.42-.57-.32-1-.84-1.28-1.54-.3-.72-.43-1.7-.43-2.92 0-1.62.23-3.2.7-4.75.44-1.54 1.07-2.98 1.88-4.32.8-1.34 1.76-2.56 2.83-3.66s2.22-2.03 3.46-2.8c1.7-1.05 3.27-1.68 4.7-1.86 1.45-.2 2.7-.13 3.78.16l-2.1 6.34c-.15-.1-.44-.22-.86-.32s-.94-.13-1.54-.1zm19.15 13.6l-4.7 2.9v-26.5l-7.76 4.83v-5.45l20.23-12.54v5.45l-7.77 4.82v26.5zm15.5-41.56v31.96l-4.7 2.93v-31.96l4.7-2.93zm18.63 15.02l-2.56 1.6-6.27-11.88v21.15l-4.72 2.92v-31.95l5.07-3.14 7.2 13.72 7.25-22.68 5.04-3.12V790l-4.73 2.93v-21.15l-6.26 19.64zm17.86-10.46c-1.04-.87-1.84-2.1-2.42-3.7-.57-1.6-.85-3.42-.85-5.46 0-2.13.3-4.36.9-6.68.6-2.33 1.44-4.57 2.5-6.73 1.07-2.17 2.33-4.14 3.8-5.93 1.45-1.8 3.04-3.22 4.75-4.28 1.75-1.1 3.36-1.62 4.8-1.57 1.46.04 2.7.5 3.72 1.4 1.03.9 1.83 2.15 2.4 3.74.57 1.6.85 3.4.85 5.4 0 2.14-.3 4.36-.9 6.66-.58 2.3-1.4 4.52-2.45 6.66-1.05 2.12-2.3 4.1-3.77 5.88-1.46 1.8-3.04 3.2-4.75 4.28-1.78 1.1-3.4 1.64-4.85 1.63-1.45-.03-2.7-.47-3.73-1.35zm3.4-5.86c.6.6 1.33.95 2.2 1 .9.06 1.9-.26 3-.95 1.15-.7 2.16-1.64 3.04-2.8.88-1.16 1.62-2.44 2.22-3.84s1.06-2.8 1.37-4.28c.3-1.46.47-2.86.47-4.18 0-1.38-.17-2.6-.5-3.7-.33-1.08-.8-1.93-1.4-2.54-.6-.62-1.35-.95-2.23-1-.9-.03-1.88.3-2.97.97-1.14.7-2.16 1.65-3.05 2.8-.9 1.18-1.63 2.45-2.22 3.82-.6 1.37-1.05 2.78-1.36 4.25-.3 1.47-.46 2.86-.46 4.18 0 1.38.16 2.6.48 3.7.32 1.1.78 1.95 1.4 2.57zm20.68-4.28v-31.95l3.67-2.27 12.66 13.12V728.8l4.73-2.94v31.9l-3.84 2.38-12.5-12.73v20.5l-4.72 2.92zm30.85-51.07v31.95l-4.73 2.93v-31.95l4.73-2.93zm25.4 16.2l-4.86 3-2.27-6.55-8.5 5.26-2.22 9.35-4.85 3.02 9.28-37.7 4.18-2.6 9.25 26.23zm-14.82-3.14l6.84-4.24-3.35-10.47-3.5 14.7zm22.22-33.38v26.5l12.4-7.68v5.44l-17.13 10.6v-31.94l4.73-2.92zm27.33-10.5c-.6.04-1.26.15-1.97.35-.7.2-1.4.52-2.14.98-1.3.8-2.27 1.72-2.9 2.75-.65 1.02-.97 2.1-.97 3.25 0 .66.1 1.13.35 1.42.24.28.6.45 1.04.5.45.04 1.03 0 1.72-.18.7-.17 1.5-.38 2.42-.65 1.18-.3 2.26-.53 3.23-.65.97-.12 1.8-.03 2.47.27.67.3 1.2.84 1.56 1.62.36.77.54 1.9.54 3.36 0 1.7-.24 3.33-.73 4.85-.48 1.53-1.14 2.92-1.98 4.2-.83 1.25-1.8 2.4-2.87 3.4-1.1 1.03-2.22 1.9-3.4 2.64-1.84 1.13-3.64 1.9-5.42 2.27-1.78.4-3.38.37-4.8-.08l2.1-6.65c.2.15.57.27 1.1.37.55.1 1.18.15 1.9.13.74-.02 1.55-.15 2.44-.4.9-.26 1.8-.67 2.74-1.25 2.6-1.62 3.9-3.52 3.9-5.7 0-.7-.14-1.2-.43-1.5-.3-.28-.73-.44-1.27-.46-.55-.02-1.2.06-2 .24-.76.18-1.63.4-2.6.62-1.15.3-2.16.47-3.02.5-.85.04-1.57-.1-2.14-.42-.57-.32-1-.84-1.28-1.54-.3-.7-.43-1.68-.43-2.9 0-1.63.23-3.2.7-4.76.44-1.54 1.08-2.98 1.9-4.32.8-1.35 1.74-2.57 2.8-3.67 1.08-1.1 2.24-2.02 3.47-2.78 1.7-1.06 3.28-1.7 4.72-1.87 1.44-.2 2.7-.14 3.77.16l-2.1 6.34c-.16-.1-.45-.2-.87-.3-.43-.1-.94-.14-1.54-.1z"/>
        <path fill="url(#q)" d="M51.46 240.45l-4.7 2.9v-26.5L39 221.67v-5.45l20.23-12.54v5.45l-7.77 4.8v26.52zm10.8-6.68V201.8l16.56-10.26V197l-11.85 7.33v7.7l10.24-6.35v5.04l-10.23 6.35v8.32l12.15-7.54v5.44l-16.87 10.47zm32.12-45.42c-.6.03-1.26.15-1.97.35-.7.2-1.42.52-2.15.97-1.3.8-2.27 1.73-2.9 2.75-.65 1.03-.97 2.1-.97 3.25 0 .66.12 1.14.36 1.42s.6.45 1.05.5c.44.04 1.02-.02 1.72-.18s1.5-.37 2.4-.64c1.2-.3 2.27-.53 3.25-.65.97-.13 1.8-.03 2.46.27.67.3 1.2.84 1.56 1.62.35.78.54 1.9.54 3.37 0 1.7-.25 3.32-.74 4.83-.5 1.52-1.15 2.92-2 4.18-.82 1.28-1.78 2.42-2.86 3.44-1.1 1-2.22 1.9-3.4 2.63-1.83 1.13-3.64 1.9-5.42 2.27-1.78.38-3.38.35-4.8-.1l2.1-6.64c.2.14.57.27 1.1.37.55.1 1.18.14 1.9.13.74-.02 1.55-.16 2.44-.4.9-.26 1.8-.67 2.74-1.25 2.6-1.62 3.9-3.52 3.9-5.7 0-.7-.15-1.2-.44-1.5-.3-.28-.72-.44-1.27-.46-.56-.03-1.22.05-2 .23l-2.6.62c-1.16.3-2.17.47-3.03.5-.85.04-1.57-.1-2.14-.42-.57-.32-1-.84-1.28-1.54-.3-.72-.43-1.7-.43-2.92 0-1.62.23-3.2.7-4.75.44-1.54 1.07-2.98 1.88-4.32.82-1.34 1.76-2.56 2.83-3.66s2.23-2.03 3.46-2.8c1.7-1.05 3.27-1.68 4.7-1.86 1.45-.2 2.7-.14 3.78.16l-2.1 6.33c-.15-.1-.44-.2-.86-.3s-.94-.14-1.54-.1zm19.15 13.62l-4.7 2.9v-26.5l-7.76 4.83v-5.45l20.23-12.54v5.45l-7.77 4.82v26.5zm15.5-41.56v31.96l-4.7 2.93v-31.96l4.7-2.93zm18.63 15l-2.56 1.6-6.27-11.86v21.15l-4.72 2.92v-31.95l5.08-3.14 7.2 13.72 7.24-22.68 5.04-3.12V174l-4.73 2.93v-21.15l-6.26 19.64zm17.86-10.45c-1.04-.87-1.84-2.1-2.42-3.7-.56-1.6-.85-3.4-.85-5.45 0-2.13.3-4.36.9-6.68.6-2.33 1.44-4.57 2.5-6.73 1.07-2.17 2.33-4.14 3.8-5.93 1.45-1.8 3.04-3.22 4.75-4.28 1.76-1.1 3.36-1.62 4.8-1.57 1.46.04 2.7.5 3.72 1.4 1.03.9 1.83 2.15 2.4 3.74.57 1.6.86 3.4.86 5.4 0 2.14-.3 4.36-.9 6.66-.6 2.3-1.4 4.52-2.46 6.66-1.05 2.13-2.3 4.1-3.77 5.88-1.46 1.8-3.04 3.2-4.75 4.28-1.78 1.1-3.4 1.64-4.85 1.63-1.45-.03-2.7-.47-3.73-1.35zm3.4-5.85c.6.6 1.34.95 2.2 1 .9.06 1.9-.26 3-.96 1.15-.7 2.16-1.64 3.04-2.8.88-1.16 1.62-2.43 2.22-3.83s1.06-2.8 1.37-4.28c.3-1.46.47-2.86.47-4.18 0-1.38-.17-2.6-.5-3.7-.33-1.08-.8-1.93-1.4-2.54-.6-.62-1.35-.95-2.23-1-.9-.03-1.88.3-2.97.97-1.14.7-2.16 1.65-3.05 2.8-.9 1.18-1.63 2.45-2.22 3.82-.6 1.36-1.05 2.78-1.36 4.25-.3 1.46-.46 2.86-.46 4.18 0 1.38.16 2.6.48 3.7.32 1.1.78 1.95 1.4 2.57zm20.68-4.28v-31.95l3.67-2.27 12.66 13.1v-20.9l4.73-2.94v31.9l-3.84 2.38-12.5-12.73v20.5l-4.72 2.92zm30.85-51.07v31.95l-4.73 2.92v-31.95l4.73-2.92zm25.4 16.2l-4.86 3-2.27-6.55-8.5 5.26-2.22 9.35-4.85 3.02 9.28-37.7 4.18-2.6 9.25 26.23zm-14.82-3.14l6.84-4.24-3.35-10.47-3.5 14.7zm22.22-33.38v26.5l12.4-7.68v5.44l-17.13 10.6V86.35l4.73-2.92zm27.33-10.5c-.6.04-1.26.15-1.97.35-.7.2-1.4.52-2.14.98-1.3.8-2.27 1.72-2.9 2.75-.65 1.02-.97 2.1-.97 3.25 0 .66.1 1.13.35 1.42.24.28.6.45 1.04.5.45.04 1.03 0 1.72-.18.7-.17 1.5-.38 2.42-.65 1.18-.3 2.26-.53 3.23-.65.97-.12 1.8-.03 2.47.27.67.3 1.2.84 1.56 1.62.36.77.54 1.9.54 3.36 0 1.7-.24 3.33-.73 4.85-.48 1.53-1.14 2.92-1.98 4.2-.83 1.25-1.8 2.4-2.87 3.4-1.1 1.03-2.22 1.9-3.4 2.64-1.84 1.13-3.64 1.9-5.42 2.27-1.78.4-3.38.37-4.8-.08l2.1-6.65c.2.15.57.27 1.1.37.55.1 1.18.15 1.9.13.74-.02 1.55-.15 2.44-.4.9-.26 1.8-.67 2.74-1.25 2.6-1.62 3.9-3.52 3.9-5.7 0-.7-.14-1.2-.43-1.5-.3-.28-.72-.44-1.27-.46-.55-.02-1.2.06-2 .24-.76.18-1.63.4-2.6.62-1.15.3-2.16.47-3.02.5-.85.04-1.57-.1-2.14-.42-.57-.32-1-.84-1.28-1.55-.3-.7-.43-1.67-.43-2.9 0-1.62.23-3.2.7-4.75.44-1.54 1.08-2.98 1.9-4.33.8-1.34 1.74-2.56 2.8-3.66 1.08-1.1 2.24-2.02 3.47-2.78 1.7-1.06 3.28-1.7 4.72-1.87 1.44-.2 2.7-.14 3.77.16l-2.1 6.34c-.16-.1-.45-.2-.87-.3-.43-.1-.94-.15-1.54-.12z" transform="translate(217 617)"/>
      </g>
    </a>
    <g id="screen-cont">
      <path fill="#000" fill-opacity=".1" d="M1003.5 779.54l214.4-113.7 93.8 72.4-173.2 96.52-135-55.22z"/>
      <a id="about" xlink:href="about" class="object">
        <g transform="translate(809 98)">
          <mask id="t" fill="#fff">
            <use xlink:href="#r"/>
          </mask>
          <use fill="url(#s)" xlink:href="#r"/>
          <path fill="#B6BEBF" d="M365 662l-12 7s12.77 40.07-22.82 61.17c-33.08 22.02-60.1 37.33-55.1 48.33S304 769 304 769l68-50-7-57z" mask="url(#t)"/>
          <use fill="url(#v)" xlink:href="#u"/>
          <path fill="#919C9E" d="M552.9 755.58l-17.1 12.6 6.66 14.9 19.42-12.33-8.97-15.17z"/>
          <mask id="z" fill="#fff">
            <use xlink:href="#w"/>
          </mask>
          <use fill="url(#x)" xlink:href="#w"/>
          <path fill="url(#y)" d="M572.28 731.3v94l-631.9-359.2v-94l631.9 359.2z" mask="url(#z)"/>
          <g transform="translate(23 35)" mask="url(#z)">
            <use fill="url(#B)" xlink:href="#A"/>
            <use xlink:href="#A"/>
            <use fill="url(#C)" xlink:href="#A"/>
          </g>
          <path fill="#9250AC" d="M257.62 598.37l-2.48-1.43-1.15-4.3-4.33-2.5-1.14 3-2.47-1.44 4.72-11.9 2.13 1.23 4.72 17.34zm-7.55-10l3.5 2-1.72-6.72-1.78 4.72zm17.7 14.9c-.35.1-.78.1-1.26 0-.47-.13-1-.34-1.54-.66l-5.98-3.44v-14.62l6.63 3.82c.44.25.83.58 1.18 1 .35.42.65.88.9 1.37.23.5.42 1 .56 1.52.13.53.2 1.02.2 1.47 0 .71-.15 1.3-.46 1.75-.3.45-.74.66-1.32.62.7.65 1.27 1.42 1.68 2.3.4.87.62 1.8.62 2.75 0 .62-.1 1.1-.3 1.45-.22.34-.5.57-.88.67zm-1.65-5.68c-.13-.26-.28-.5-.46-.7-.17-.2-.36-.36-.57-.48l-3.7-2.13v3.84l3.57 2.06c.2.13.42.2.6.2.2.03.37 0 .5-.1.15-.1.26-.23.34-.42.1-.18.14-.4.14-.67 0-.25-.04-.52-.12-.8-.07-.3-.18-.56-.3-.8zm-1.52-3.7c.4.23.75.27 1.04.1.28-.17.42-.54.42-1.1 0-.58-.13-1.1-.4-1.58-.25-.48-.57-.83-.96-1.05l-3.3-1.92v3.7l3.2 1.84zm7.16 10.44c-.53-1-.94-2.03-1.23-3.1-.3-1.05-.44-2.04-.44-2.98 0-.97.15-1.82.45-2.53.3-.72.74-1.26 1.28-1.63.54-.38 1.18-.55 1.93-.53.74.02 1.55.3 2.42.8.9.5 1.7 1.2 2.45 2.06.74.85 1.37 1.8 1.9 2.8.52 1 .92 2.02 1.2 3.08.3 1.07.45 2.06.45 2.98 0 .98-.15 1.82-.45 2.53-.3.72-.72 1.26-1.26 1.63-.54.37-1.17.55-1.92.52-.74-.02-1.55-.3-2.42-.8-.9-.5-1.73-1.2-2.47-2.04-.74-.84-1.37-1.76-1.9-2.76zm1.73-.72c.3.63.67 1.2 1.12 1.75.45.53.96.96 1.53 1.3.58.32 1.1.48 1.54.46.44-.03.82-.18 1.12-.47.3-.3.54-.68.7-1.17.16-.5.24-1.05.24-1.66 0-.63-.1-1.3-.26-1.98-.16-.7-.4-1.35-.7-1.98-.32-.63-.7-1.2-1.15-1.73-.44-.53-.95-.95-1.5-1.27-.6-.34-1.1-.5-1.56-.48-.46.02-.84.17-1.14.46-.3.28-.53.67-.7 1.17-.15.5-.22 1.04-.22 1.64 0 .63.08 1.3.24 1.98.16.68.4 1.34.7 1.97zm18.14 10.5c.24-.3.4-.7.5-1.22.1-.5.16-1.07.16-1.67v-7.46l2.4 1.38v7.46c0 1-.1 1.9-.32 2.65-.2.76-.52 1.35-.96 1.75-.43.4-1 .6-1.68.6-.7 0-1.5-.3-2.46-.85-1-.57-1.83-1.26-2.52-2.06-.7-.8-1.25-1.67-1.68-2.6-.43-.9-.74-1.85-.94-2.84-.2-1-.28-1.96-.28-2.9v-7.46l2.4 1.4v7.44c0 .62.05 1.24.15 1.87.1.63.28 1.24.52 1.8.24.6.55 1.12.93 1.6.38.5.85.9 1.4 1.23.58.33 1.06.47 1.45.42.4-.05.7-.23.94-.53zm10.77 10.1l-2.37-1.37v-12.13l-3.96-2.28v-2.5l10.3 5.95v2.5l-3.95-2.3v12.14z" opacity=".92" mask="url(#z)"/>
        </g>
      </a>
      <g id="title-logo">
        <path id="active-shadow" fill="#000" d="M1229.2 555.12c11.6 28.72 34.7 77.2 34.7 77.2s-91.65-96.64-173.62-145.25c-104.3-64.4-189.9-86.34-189.9-86.34s43.83 12.3 91.06 29.4c33.37 12.1 72.54 29.3 108.5 51.3 58.9 35.23 135.65 109.07 135.65 109.07s-10.37-26.54-24.73-68.53c-12-35.5-23.85-79.8-23.85-79.8s20.4 58.15 42.18 112.95z" opacity=".1"/>
        <path id="right-shadow" fill="#000" d="M1070.05 428.24c-68.2-22.75-85.07-64.1-85.07-64.1s11.97 46.5 86.8 70.54c65.83 20.46 92.65-16.3 92.65-16.3s-17.23 12.52-40.82 16.07c-19.13 2.88-44.25-2.53-53.55-6.2zm114.18 94.3c-4.57-67.97-9.08-144.6-10.33-145.25-1.8-.72 5.27 163.2 8.28 238.2.1 2.4 5 11.4 8 5.48.66-1.78-.24-11.05-1-23.12-1.2-18.7-2.97-45.8-4.96-75.32z" opacity=".1"/>
        <path id="bridge-shadow" fill="#000" d="M1205.9 519.4c4.4 16.1 13.64 47 13.64 47s-62.7-63.87-144.12-105.73c-88.64-48.76-175.5-59.6-175.5-59.6s12.18 2.14 29.66 7.7c40.1 12.8 104.44 39.96 147.45 63.86 48.84 27.13 158.68 117.94 158.68 117.94s-19.4-51.9-28.18-78.65c-7.48-22.8-20.6-69.96-20.6-69.96s11.84 51.32 18.98 77.45z" opacity=".1"/>
        <path id="left-shadow" fill="#000" d="M976.65 434c-.12-50.36.32-107.03-.78-107.72-1.6-.8-4.87 119.96-6.57 175.2-.06 1.76 3.87 9.15 6.94 5.35.7-1.2.43-8.1.44-17.05.02-13.84.02-33.9-.03-55.78z" opacity=".1"/>
        <path id="curve" fill="#FFF" d="M1063.64 430.92c-68.2-22.76-85.08-64.1-85.08-64.1s11.98 46.5 86.8 70.53c65.84 20.47 92.65-16.28 92.65-16.28s-17.2 12.5-40.8 16.05c-19.15 2.88-44.26-2.52-53.56-6.2z"/>
        <path id="bridge" fill="#FFF" d="M1199.5 522.1c4.38 16.08 13.62 46.98 13.62 46.98s-62.7-63.88-144.1-105.73c-88.65-48.77-175.52-59.6-175.52-59.6s12.18 2.13 29.66 7.7c40.1 12.8 104.45 39.95 147.46 63.85 48.84 27.14 158.68 117.94 158.68 117.94s-19.4-51.9-28.2-78.64c-7.48-22.8-20.6-69.97-20.6-69.97s11.85 51.33 19 77.46z"/>
        <path id="right-column" fill="#FFF" d="M1177.8 525.22c-4.55-67.97-9.06-144.6-10.3-145.26-1.8-.7 5.26 163.2 8.27 238.2.1 2.4 5 11.4 8 5.5.66-1.78-.24-11.05-1.02-23.12-1.2-18.7-2.96-45.8-4.94-75.32z"/>
        <path id="left-column" fill="#FFF" d="M970.24 436.68c-.13-50.36.32-107.04-.8-107.72-1.57-.82-4.85 119.96-6.56 175.2-.05 1.75 3.88 9.14 6.95 5.34.7-1.2.42-8.1.43-17.04.02-13.84.03-33.92-.03-55.78z"/>
        <path id="active" fill="#D7D7D7" d="M1222.8 557.8c11.6 28.72 34.7 77.2 34.7 77.2s-91.67-96.64-173.63-145.26c-104.3-64.4-189.9-86.34-189.9-86.34s43.83 12.32 91.06 29.42c33.37 12.08 72.53 29.28 108.5 51.3 58.9 35.22 135.65 109.06 135.65 109.06s-10.36-26.55-24.73-68.53c-12-35.5-23.84-79.8-23.84-79.8s20.4 58.14 42.18 112.95z"/>
      </g>
      <g id="social-icons" transform="translate(965 430)">
        <a target="_blank">
          <g id="facebook-soc">
            <path fill="#000" fill-opacity=".05" d="M25.9 4.2C11.7-4.5.2 2.13.2 19c0 16.87 11.52 37.58 25.73 46.27 14.22 8.68 25.74 2.05 25.74-14.8 0-16.88-11.52-37.6-25.73-46.28z"/>
            <path fill="#FFF" fill-opacity=".1" d="M23.16 25.4v2.7l-2.12-1.3v4.27l2.12 1.3v13.38l4.58 2.8V35.2l3.04 1.85.48-4.02-3.57-2.18v-1.77c0-1.3.88-1.8 1.96-1.14l1.42.87v-4.6l-2.83-1.74c-2.82-1.72-5.1-.4-5.1 2.96z"/>
            <path fill="#FFF" d="M18.8 28.56v2.67l-2.13-1.3v4.28l2.13 1.3v13.4l4.57 2.8V38.33l3.04 1.86.5-4.02L23.3 34v-1.77c0-1.3.9-1.8 1.97-1.15l1.4.87v-4.62L23.9 25.6c-2.82-1.72-5.1-.4-5.1 2.96z"/>
          </g>
        </a>
        <a target="_blank">
          <g id="twitter-soc">
            <path fill="#000" fill-opacity=".05" d="M85.28 40.48c-14.2-8.68-25.73-2.05-25.73 14.8 0 16.88 11.52 37.6 25.73 46.28 14.2 8.68 25.73 2.05 25.73-14.8 0-16.88-11.5-37.6-25.72-46.28z"/>
            <path fill="#FFF" fill-opacity=".1" d="M85.42 65.97c0 1.38.25 2.57.25 2.57s-2.85-1.32-6-4.55c-3.16-3.24-5-6.7-5-6.7s-.67 1.54-.22 4c.44 2.46 2.6 4.93 2.6 4.93s-.35-.16-1.12-.72c-.77-.54-1.18-1.06-1.18-1.06s.04 1.9 1.24 4.18c1.2 2.26 3.24 3.7 3.24 3.7s-.3.1-.95-.2c-.67-.3-1.24-.73-1.24-.73s.56 1.85 2 3.73c1.42 1.88 3.06 2.74 3.06 2.74s-.72.58-2.75.55c-2.03-.04-4.34-1.48-4.34-1.48s8.77 10.7 16.7 6.64c.46-.24 2.4-1.7 3.36-4.92.8-3.03.25-7.06.25-7.06s.68-.1 1.36-.8c.7-.68.85-1.15.85-1.15s-.34.06-1.32-.07c-.98-.14-1.4-.35-1.4-.35s.65-.16 1.18-.8c.54-.66.7-1.54.7-1.54s-.55.22-1.38.2c-.83 0-1.7-.2-1.7-.2s-3.07-4.9-6.6-3.9c-1.3.36-1.62 1.8-1.6 2.97z"/>
            <path fill="#FFF" d="M81.05 69.11c0 1.4.25 2.6.25 2.6s-2.85-1.34-6-4.57c-3.16-3.23-5-6.67-5-6.67s-.67 1.53-.23 4c.45 2.45 2.6 4.92 2.6 4.92s-.34-.16-1.1-.72c-.78-.56-1.2-1.07-1.2-1.07s.05 1.9 1.25 4.16c1.2 2.27 3.25 3.7 3.25 3.7s-.3.1-.95-.2c-.66-.28-1.23-.72-1.23-.72s.55 1.86 1.98 3.74C76.1 80.15 77.75 81 77.75 81s-.72.6-2.75.56c-2.03-.04-4.34-1.48-4.34-1.48s8.77 10.72 16.7 6.65c.47-.25 2.4-1.7 3.36-4.92.82-3.03.27-7.06.27-7.06s.66-.1 1.35-.8c.7-.67.84-1.14.84-1.14s-.35.06-1.33-.08-1.4-.34-1.4-.34.64-.17 1.17-.82c.54-.64.68-1.52.68-1.52s-.53.22-1.37.22c-.83 0-1.7-.2-1.7-.2s-3.07-4.92-6.6-3.92c-1.3.36-1.6 1.82-1.6 2.98z"/>
          </g>
        </a>
        <a target="_blank">
          <g id="linkedin-soc">
            <path fill="#000" fill-opacity=".05" d="M144.65 76.78c-14.2-8.7-25.73-2.06-25.73 14.8 0 16.87 11.52 37.58 25.73 46.27 14.2 8.68 25.73 2.05 25.73-14.8 0-16.88-11.52-37.6-25.73-46.27z"/>
            <path fill="#FFF" fill-opacity=".1" d="M136.22 88.82c.22-.06.48-.05.78.05.3.1.6.26.94.46.34.2.65.44.94.7.3.26.56.56.78.9.22.33.4.7.53 1.12.12.4.18.87.18 1.37 0 .5-.06.86-.2 1.12-.13.25-.3.42-.52.5-.22.06-.48.04-.78-.05-.3-.1-.6-.25-.94-.45-.33-.2-.65-.44-.95-.7-.3-.28-.56-.6-.78-.93-.22-.33-.4-.7-.53-1.13-.13-.42-.2-.87-.2-1.36 0-.5.07-.88.2-1.13.12-.25.3-.4.52-.48zm-.53 6.78l4.48 2.74v19.5l-4.5-2.74V95.6zm16.98 18.5c0-1.42-.18-2.58-.54-3.5-.36-.92-.93-1.62-1.7-2.1-.6-.36-1.1-.52-1.48-.48-.4.04-.7.26-.94.66-.23.4-.4.98-.5 1.73-.1.75-.13 1.64-.13 2.67v9.18l-4.5-2.74V100l3.43 2.1.6 2.86.25.15c.23-.34.52-.6.86-.75.34-.16.7-.23 1.1-.2.4 0 .84.1 1.3.25.44.17.9.4 1.37.68.8.5 1.54 1.08 2.2 1.75.66.68 1.22 1.45 1.7 2.32.46.87.82 1.83 1.08 2.9.25 1.04.38 2.2.38 3.46v12.73l-4.48-2.74v-11.4z"/>
            <path fill="#FFF" d="M131.85 91.97c.22-.07.48-.05.78.05.3.1.6.25.94.45.34.2.65.44.94.7.3.26.57.56.8.9.2.34.38.72.52 1.13.13.4.2.87.2 1.37 0 .5-.07.86-.2 1.1-.14.27-.3.43-.53.5-.24.07-.5.06-.8-.03-.28-.1-.6-.24-.93-.45-.33-.2-.65-.45-.95-.72-.3-.27-.56-.57-.78-.9-.22-.35-.4-.72-.52-1.14-.12-.4-.2-.87-.2-1.35 0-.5.08-.9.2-1.14.13-.26.3-.42.53-.5zm-.53 6.77l4.5 2.74v19.5l-4.5-2.73v-19.5zm17 18.5c0-1.4-.2-2.58-.55-3.5-.36-.92-.93-1.62-1.7-2.1-.6-.36-1.1-.52-1.48-.48-.4.04-.72.26-.95.67-.23.4-.4.98-.5 1.72-.1.74-.14 1.63-.14 2.67v9.17l-4.47-2.75v-19.5l3.43 2.1.6 2.85.25.16c.25-.36.53-.62.87-.77.34-.16.7-.23 1.1-.22.4 0 .84.1 1.3.27.44.16.9.4 1.37.68.8.5 1.53 1.07 2.2 1.75.65.67 1.2 1.44 1.68 2.3.47.88.83 1.84 1.1 2.9.24 1.06.37 2.2.37 3.47v12.72l-4.5-2.74v-11.4z"/>
          </g>
        </a>
        <a target="_blank">
          <g id="gplus-soc">
            <path fill="#000" fill-opacity=".05" d="M204.02 113.07c-14.2-8.7-25.73-2.06-25.73 14.8 0 16.87 11.5 37.58 25.72 46.27 14.2 8.7 25.73 2.06 25.73-14.8 0-16.88-11.52-37.6-25.73-46.27z"/>
            <path fill="#FFF" fill-opacity=".1" d="M187.9 134.9c-.32 10.03 8.66 17.67 10.35 18.7.78.5 4.6 2.84 7.57.87 2.95-1.97 2.5-7.43 2.5-7.43l-.13-2.5-9.9-6.04v4.96l5.66 3.46s-.68 4.7-5.36 1.85c-3.53-2.16-6.4-7.15-6.4-11.37s3.42-5.4 6.08-3.78c2.66 1.62 4.04 4.33 4.04 4.33l2.9-1.96s-3.4-5.25-7.02-7.47c-3.64-2.22-10-3.64-10.3 6.38zm27.94 10v4.4l-3.7-2.27v3.1l3.7 2.26v4.22l2.6 1.6v-4.23l3.56 2.16v-3.1l-3.55-2.17v-4.4l-2.6-1.6z"/>
            <path fill="#FFF" d="M211.47 148.05v4.4l-3.7-2.27v3.1l3.7 2.26v4.22l2.6 1.6v-4.23l3.57 2.18v-3.1l-3.56-2.17v-4.4l-2.6-1.6zm-27.95-10c-.32 10.03 8.67 17.67 10.35 18.7.8.48 4.62 2.83 7.57.86 2.96-1.95 2.5-7.4 2.5-7.4l-.12-2.52-9.88-6.04v4.97l5.65 3.46s-.7 4.7-5.37 1.85c-3.53-2.14-6.4-7.14-6.4-11.36s3.42-5.4 6.08-3.78c2.67 1.62 4.05 4.34 4.05 4.34l2.9-1.97s-3.4-5.23-7.02-7.46c-3.64-2.22-10-3.63-10.3 6.4z"/>
          </g>
        </a>
        <a target="_blank">
          <g id="youtube-soc">
            <path fill="#000" fill-opacity=".05" d="M25.9 74.66C11.7 65.98.2 72.6.2 89.46c0 16.88 11.52 37.6 25.73 46.27 14.22 8.7 25.74 2.06 25.74-14.8 0-16.87-11.52-37.58-25.73-46.27z"/>
            <path fill="#FFF" fill-opacity=".1" d="M31.05 99.34c-1.46-.94-2.92-1.83-4.38-2.72-1.45-.9-2.92-1.8-4.37-2.63-1.47-.86-2.93-1.65-4.37-2.35-.67-.32-1.28-.35-1.76-.12-.47.22-.82.7-.98 1.4-.2.94-.32 1.98-.37 3.07-.06 1.1-.06 2.2-.06 3.27 0 1.08 0 2.18.05 3.34.06 1.16.16 2.33.37 3.52.14.9.5 1.8.97 2.6.48.8 1.1 1.52 1.75 2.02 1.45 1.08 2.9 2.06 4.37 3 1.45.95 2.9 1.84 4.37 2.73 1.46.9 2.92 1.78 4.37 2.63 1.47.84 2.93 1.64 4.37 2.33.68.32 1.28.35 1.76.13.48-.23.83-.7 1-1.4.2-.94.3-2 .35-3.08.06-1.07.06-2.18.06-3.27 0-2.2 0-4.48-.4-6.84-.16-.9-.5-1.8-1-2.6-.47-.8-1.08-1.52-1.74-2.02-1.45-1.07-2.9-2.06-4.37-3zm-7.27.32l-.37-.45v10.13h4.08l3.7-.03h.43l-.42-.53-4.04-4.98-3.36-4.14z"/>
            <path fill="#FFF" d="M26.68 102.48c-1.46-.94-2.92-1.83-4.38-2.72-1.45-.9-2.92-1.78-4.37-2.63-1.47-.84-2.93-1.64-4.37-2.33-.67-.32-1.28-.35-1.76-.13-.47.22-.82.7-.98 1.4-.2.94-.3 2-.36 3.07-.06 1.1-.06 2.2-.06 3.28 0 1.07 0 2.18.06 3.33.05 1.15.15 2.33.36 3.52.15.9.5 1.8.98 2.6s1.1 1.52 1.75 2c1.45 1.1 2.9 2.08 4.37 3.02 1.46.93 2.92 1.82 4.38 2.7 1.45.9 2.92 1.8 4.37 2.64 1.46.85 2.92 1.64 4.37 2.34.67.32 1.27.35 1.75.12.47-.22.82-.7.98-1.4.2-.94.3-1.98.36-3.07.05-1.07.05-2.2.05-3.27 0-2.2 0-4.5-.42-6.85-.15-.88-.5-1.8-.98-2.6s-1.1-1.52-1.76-2c-1.44-1.1-2.9-2.08-4.37-3.02zm-7.27.33l-.36-.45v10.13h.37l3.7-.02H27.25l-.43-.54-4.03-4.98-3.36-4.13z"/>
          </g>
        </a>
        <a target="_blank">
          <g id="github-soc">
            <path fill="#000" fill-opacity=".05" d="M85.28 110.95c-14.2-8.68-25.73-2.05-25.73 14.8 0 16.88 11.52 37.6 25.73 46.27 14.2 8.7 25.73 2.06 25.73-14.8 0-16.87-11.5-37.58-25.72-46.27z"/>
            <path fill="#FFF" fill-opacity=".1" d="M95.93 135.8c-.1-.43-.45-.86-.76-.97-.2-.07-.38-.13-.55-.17-1.82-.4-3.5-.4-5.13-.18-.23.03-.54-.1-.8-.3-.64-.43-1.26-1-1.9-1.4-1.54-1.05-3.1-1.94-4.64-2.57-.2-.07-.5-.3-.67-.53-1.78-2.44-3.62-4.73-5.7-6.65-.3-.28-.62-.43-.7-.33-.05.05-.1.12-.1.2-.24.8-.5 1.56-.63 2.44-.16 1.04-.3 2.12-.23 3.3.04.74-.12 1.08-.45 1.38-1.1 1-1.6 2.63-1.64 4.73-.03 1.8.18 3.68.64 5.7.7 3.08 2.1 5.9 4.16 8.47 1.7 2.1 3.55 3.65 5.45 4.9 1.72 1.1 3.43 2.1 5.14 3.15 1.72 1.06 3.4 1.9 5.05 2.28 1.63.37 3.06.22 4.16-.72 1.6-1.36 2.1-3.8 2.2-6.64.07-2.18-.3-4.5-1.4-7-.45-1-.7-1.78-.7-2.74.04-1.45-.23-3.1-.45-4.67-.07-.56-.22-1.14-.37-1.7zm-10.5 18.35c-1.83-1.03-3.64-2.26-5.4-3.84-1.32-1.16-2.52-2.5-3.35-4.35-1.33-2.93-1.67-7.18.53-8.05.57-.22 1.2-.2 1.93.2.8.44 1.62.8 2.43 1.32 2.05 1.28 4.1 2.66 6.15 3.93.94.58 1.88.9 2.8 1.53.86.57 1.74 1.3 2.5 2.17 1.3 1.45 1.97 3.23 2.18 4.96.3 2.57-.1 4.48-1.7 5.15-.74.3-1.64.1-2.57-.2-1.8-.58-3.63-1.58-5.48-2.8zm4.7-6.76c-1.07-.67-1.95.18-1.95 1.9s.88 3.62 1.95 4.28c1.08.66 1.96-.2 1.96-1.9s-.9-3.64-1.97-4.3zm-9.3-5.7c-1.1-.67-1.96.2-1.96 1.9s.87 3.63 1.95 4.3c1.07.64 1.95-.2 1.95-1.92s-.88-3.63-1.95-4.3z"/>
            <path fill="#FFF" d="M91.56 138.94c-.1-.42-.45-.86-.76-.97-.2-.07-.38-.13-.55-.17-1.82-.4-3.5-.4-5.13-.17-.22.03-.53-.1-.8-.3-.63-.43-1.25-1-1.88-1.42-1.55-1.03-3.1-1.92-4.65-2.54-.22-.1-.5-.3-.68-.55-1.77-2.43-3.6-4.72-5.68-6.63-.3-.3-.63-.43-.7-.33-.06.06-.1.12-.12.2-.23.8-.5 1.57-.62 2.44-.16 1.04-.3 2.12-.23 3.3.04.74-.12 1.08-.45 1.38-1.1 1-1.6 2.63-1.63 4.73-.03 1.8.17 3.68.63 5.7.7 3.08 2.1 5.9 4.16 8.47 1.7 2.1 3.54 3.65 5.44 4.9 1.7 1.1 3.42 2.1 5.13 3.15 1.72 1.06 3.4 1.9 5.05 2.28 1.64.37 3.07.2 4.17-.73 1.58-1.35 2.08-3.8 2.18-6.63.08-2.17-.3-4.5-1.4-6.98-.44-1-.7-1.8-.68-2.76.03-1.44-.24-3.08-.46-4.67-.08-.55-.23-1.12-.38-1.7zm-10.5 18.35c-1.83-1.03-3.64-2.27-5.4-3.85-1.32-1.17-2.52-2.5-3.35-4.36-1.3-2.94-1.65-7.18.54-8.05.56-.22 1.18-.2 1.92.2.8.43 1.62.8 2.43 1.32 2.04 1.28 4.1 2.65 6.14 3.92.93.57 1.87.9 2.8 1.52.85.57 1.73 1.3 2.5 2.17 1.28 1.45 1.96 3.23 2.17 4.95.32 2.56-.1 4.47-1.7 5.14-.73.3-1.63.1-2.55-.2-1.8-.6-3.65-1.6-5.5-2.8zm4.7-6.77c-1.08-.66-1.95.2-1.95 1.9s.9 3.63 1.96 4.3c1.08.65 1.96-.2 1.96-1.9s-.88-3.64-1.96-4.3zm-9.3-5.7c-1.1-.65-1.96.2-1.96 1.9s.87 3.64 1.95 4.3c1.08.66 1.95-.2 1.95-1.9s-.87-3.63-1.95-4.3z"/>
          </g>
        </a>
        <a target="_blank">
          <g id="blog-soc">
            <path fill="#000" fill-opacity=".05" d="M144.65 147.24c-14.2-8.68-25.73-2.05-25.73 14.8 0 16.88 11.52 37.6 25.73 46.28 14.2 8.68 25.73 2.05 25.73-14.8 0-16.88-11.52-37.6-25.73-46.28z"/>
            <path fill="#FFF" fill-opacity=".1" d="M151.82 180.5c.18-.8.23-1.78.15-2.93-.03-3.66-2.3-7.68-5.48-9.72l-4.9-3c-1.95-1.18-3.44-1.42-4.5-.75-.65.42-1.52 1.3-1.6 3.56v9.3c-.02.16 0 .34 0 .52 0 2.65.35 4.77 1.46 6.85 1.1 2.1 2.76 3.8 4.9 5.1l.13.1 7.4 4.52c1.92 1.16 3.52 1.4 4.66.7 1.14-.7 1.75-2.3 1.77-4.63v-1.33c-.02-1.83-.02-3.14-.78-4.76-.85-1.83-2.17-2.85-3.23-3.54zm-12.1-.12c0-1.16.8-1.6 1.77-1.02l8.28 5.07c.97.6 1.77 2.02 1.77 3.18 0 1.17-.8 1.63-1.77 1.03l-8.3-5.07c-.97-.6-1.76-2.02-1.76-3.18zm8.15-4.52c-.02 1.14-.8 1.5-1.77.9l-4.17-2.55c-.98-.6-1.76-2.03-1.74-3.18 0-1.15.8-1.58 1.78-.97l4.15 2.53c.97.6 1.75 2.13 1.74 3.28z"/>
            <path fill="#FFF" d="M147.45 183.64c.18-.8.23-1.78.15-2.93-.03-3.64-2.3-7.66-5.48-9.7l-4.9-3c-1.94-1.18-3.43-1.42-4.5-.75-.64.42-1.5 1.3-1.6 3.56v9.83c0 2.64.36 4.76 1.47 6.85 1.1 2.08 2.75 3.8 4.88 5.1l.14.1 7.4 4.52c1.93 1.15 3.53 1.4 4.67.7 1.13-.7 1.74-2.3 1.76-4.64v-1.32c-.02-1.82-.03-3.14-.78-4.75-.85-1.84-2.17-2.87-3.23-3.56zm-12.1-.1c0-1.17.8-1.63 1.77-1.03l8.3 5.08c.96.6 1.76 2.02 1.76 3.18 0 1.16-.8 1.6-1.77 1l-8.3-5.05c-.96-.6-1.75-2-1.75-3.17zm8.15-4.54c-.02 1.14-.8 1.5-1.77.9l-4.17-2.54c-.98-.62-1.76-2.05-1.74-3.2 0-1.15.8-1.57 1.8-.96l4.14 2.52c.97.62 1.75 2.13 1.74 3.28z"/>
          </g>
        </a>
        <a target="_blank">
          <g id="pinterest-soc">
            <path fill="#000" fill-opacity=".05" d="M204.02 183.54c-14.2-8.7-25.73-2.06-25.73 14.8 0 16.87 11.5 37.58 25.72 46.27 14.2 8.7 25.73 2.06 25.73-14.8 0-16.87-11.52-37.58-25.73-46.27z"/>
            <path fill="#FFF" fill-opacity=".1" d="M196.6 199.04c.73-.47 1.56-.75 2.5-.84.95-.1 1.97.03 3.06.36 1.1.33 2.2.84 3.33 1.53 1.73 1.06 3.34 2.47 4.84 4.24s2.7 3.76 3.64 5.96 1.4 4.34 1.4 6.4c0 1.23-.1 2.38-.3 3.43-.22 1.06-.55 2-1 2.8-.45.83-1 1.46-1.65 1.9-.65.42-1.44.6-2.4.5-.93-.07-1.97-.46-3.1-1.15-.75-.45-1.5-1.1-2.23-1.98-.74-.86-1.26-1.75-1.58-2.66l-.47 1.9-.38 1.58-.34 1.17c-.17.52-.3.9-.43 1.1l-.53.88c-.23.38-.48.73-.76 1.03-.26.3-.6.66-1 1.05l-.24-.04-.15-.27c-.15-2.12-.24-3.38-.24-3.78 0-1.2.12-2.44.36-3.77.23-1.33.6-2.95 1.1-4.88.5-1.92.77-3.05.85-3.4-.35-1.04-.53-2.23-.53-3.57 0-1.07.3-1.9.86-2.5.57-.58 1.3-.6 2.18-.06.67.4 1.2 1 1.57 1.74.37.75.56 1.53.56 2.33 0 .84-.23 1.92-.72 3.24-.48 1.3-.72 2.36-.72 3.16 0 .8.24 1.63.74 2.47.5.83 1.1 1.47 1.8 1.9.6.37 1.16.55 1.68.55.5 0 .94-.18 1.3-.52.34-.35.64-.77.9-1.28.28-.5.5-1.08.64-1.74.15-.66.26-1.3.33-1.93.07-.63.1-1.25.1-1.86 0-2.2-.6-4.3-1.8-6.3-1.2-1.97-2.77-3.55-4.7-4.73-2.2-1.34-4.04-1.63-5.5-.87-1.5.77-2.22 2.43-2.22 5 0 .55.07 1.14.2 1.75.14.6.3 1.12.45 1.53l.44 1.15c.14.36.2.6.2.7 0 .37-.07.8-.24 1.27-.16.48-.37.64-.6.5l-.3-.23c-.55-.54-1.05-1.2-1.48-2-.44-.8-.77-1.6-1-2.43-.24-.84-.42-1.64-.54-2.4-.12-.8-.18-1.5-.18-2.18 0-1.4.2-2.57.6-3.55.43-.97 1-1.7 1.72-2.16z"/>
            <path fill="#FFF" d="M192.23 202.2c.73-.48 1.56-.76 2.5-.85.96-.1 1.97.02 3.06.36 1.08.34 2.2.85 3.32 1.54 1.74 1.06 3.36 2.48 4.85 4.25 1.5 1.76 2.7 3.74 3.65 5.95.93 2.2 1.4 4.33 1.4 6.4 0 1.23-.1 2.37-.32 3.43-.2 1.05-.54 2-1 2.8-.44.83-1 1.45-1.64 1.88-.64.44-1.44.6-2.4.53-.93-.1-1.97-.48-3.1-1.17-.75-.46-1.5-1.12-2.23-1.98-.74-.86-1.26-1.75-1.58-2.67-.1.44-.27 1.07-.46 1.9l-.4 1.6-.34 1.15c-.16.54-.3.9-.43 1.1l-.53.9c-.23.38-.48.72-.75 1.02-.28.3-.62.65-1.03 1.05l-.23-.05-.16-.28c-.16-2.12-.24-3.38-.24-3.78 0-1.2.12-2.45.35-3.78.24-1.33.6-2.95 1.1-4.87.5-1.93.78-3.06.85-3.4-.35-1.05-.52-2.24-.52-3.58 0-1.07.28-1.9.85-2.48.58-.6 1.3-.63 2.18-.1.68.42 1.2 1 1.58 1.75.37.75.56 1.52.56 2.32 0 .85-.24 1.93-.73 3.24-.47 1.32-.7 2.38-.7 3.17 0 .8.24 1.64.73 2.47.5.84 1.1 1.47 1.8 1.9.6.37 1.16.55 1.68.55.53-.02.96-.2 1.3-.53.35-.34.66-.77.93-1.27s.48-1.1.62-1.75c.15-.66.26-1.3.33-1.94.07-.62.1-1.24.1-1.84 0-2.23-.6-4.33-1.8-6.3-1.2-1.98-2.77-3.56-4.7-4.75-2.2-1.33-4.04-1.62-5.5-.86-1.48.77-2.22 2.43-2.22 5 0 .56.07 1.15.2 1.76.14.6.3 1.12.45 1.52.17.4.32.8.45 1.15.14.36.2.6.2.72 0 .35-.07.77-.24 1.24-.15.48-.35.65-.6.5-.02 0-.1-.1-.28-.23-.56-.53-1.06-1.2-1.5-1.98-.42-.8-.76-1.6-1-2.44-.23-.83-.4-1.64-.53-2.4-.13-.8-.2-1.5-.2-2.18 0-1.4.2-2.57.63-3.55.4-.97.98-1.7 1.7-2.17z"/>
          </g>
        </a>
      </g>
    </g>
    <a id="portfolio" xlink:href="portfolio" class="object">
      <g id="project-cont">
        <path fill="#010101" fill-opacity=".1" d="M1216.67 1133.63l97.18 54.53 326.4-206.97-93.26-42.86-330.33 195.3z"/>
        <g transform="translate(1214 598)">
          <mask id="G" fill="#fff">
            <use xlink:href="#E"/>
          </mask>
          <use fill="url(#F)" xlink:href="#E"/>
          <path fill="#4B4958" fill-opacity=".13" d="M7.86 470.95V207L331.5 2.26 322.88-.6-1.18 200.36.8 466.7l7.06 4.25z" mask="url(#G)"/>
          <use fill="url(#H)" mask="url(#G)" xlink:href="#I"/>
          <use fill="url(#L)" xlink:href="#J" mask="url(#G)"/>
          <path fill="#C5C9CD" d="M422.48 41.66l4.83 2.4L99.6 248.08l-1 272.68-6.7-3.56 2-272.7L422.48 41.65z" mask="url(#G)"/>
          <path fill="#9850A9" d="M171.5 155.4l-13.3-7.93c-3.74-2.22-9.75-1.93-13.4.65l-6.04 4.25-4.42-.4v5.82c-.08 1.57.84 3.1 2.8 4.2l16.34 9.1c3.8 2.13 9.93 1.86 13.67-.6l8-4.95c1.9-1.25 2.67-2.83 2.47-4.37v-5.23l-6.1-.56z" mask="url(#G)"/>
          <path fill="#A74F9F" d="M158.2 141.47l16.3 9.7c3.76 2.23 4.63 6.15.9 8.6l-8.25 4.73c-3.74 2.46-9.86 2.73-13.67.6l-16.34-9.18c-3.8-2.13-3.66-5.82 0-8.4l8.26-4.54s9.06-3.73 12.8-1.5z" mask="url(#G)"/>
          <path fill="#9150AC" d="M298.65 76.15L286.2 68.6c-3.74-2.27-9.75-2.05-13.4.5l-5.45 3.77-4.87-.52v6c-.02.23-.02.47 0 .7v.03c.15 1.45 1.12 2.84 2.9 3.87l16.1 9.2c3.8 2.2 9.93 2 13.67-.42l7.36-4.76c1.63-1.04 2.55-2.35 2.77-3.68v-.08c.06-.36.06-.73 0-1.1v-5.28l-6.62-.7z" mask="url(#G)"/>
          <path fill="#9C4FA5" d="M286.2 62.6l16.3 9.88c3.76 2.27 3.75 6.08 0 8.5l-7.35 4.75c-3.74 2.42-9.86 2.6-13.67.43l-16.1-9.2c-3.8-2.2-3.9-6.02-.24-8.56l7.65-5.3c3.65-2.55 9.66-2.77 13.4-.5z" mask="url(#G)"/>
          <path fill="#FFF" d="M147.2 427.1c.82.53 1.47 1.3 1.94 2.34.47 1.03.7 2.2.7 3.54 0 1.4-.2 2.9-.66 4.48-.44 1.6-1.06 3.14-1.86 4.65-.8 1.53-1.77 2.94-2.9 4.26-1.14 1.32-2.38 2.4-3.73 3.23l-6.98 4.27v11.06l-5.72 3.52v-33l12.48-7.67c1.35-.84 2.6-1.3 3.75-1.36 1.15-.07 2.14.16 2.96.7zm-3.5 7.4c-.2-.53-.5-.92-.86-1.16-.36-.25-.78-.33-1.26-.27-.5.06-.98.25-1.48.56l-6.38 3.92v10.7l6.64-4.1c1.05-.63 1.92-1.65 2.63-3.04.7-1.4 1.05-2.9 1.05-4.55 0-.84-.1-1.52-.34-2.05zm29.86-23.6c.83.52 1.48 1.3 1.95 2.33.48 1.03.7 2.2.7 3.54 0 2.14-.46 4.38-1.42 6.72-.95 2.32-2.24 4.38-3.87 6.16l6.72 8.28-6.42 3.95-6-7.38-5.65 3.47v11.05l-5.72 3.52v-33l13-8c1.37-.84 2.62-1.3 3.77-1.36 1.14-.06 2.13.17 2.96.7zm-3.4 11.7c.2-.78.3-1.54.3-2.28 0-.78-.12-1.42-.34-1.94-.22-.5-.52-.9-.9-1.15-.36-.25-.8-.36-1.28-.32-.48.04-.97.2-1.47.52l-6.92 4.25v10.7l7.17-4.42c.52-.32 1-.76 1.47-1.32.45-.56.84-1.18 1.17-1.86.33-.7.6-1.4.8-2.18zm9.45-2.4c0-2.2.38-4.52 1.1-6.98.75-2.47 1.75-4.87 3.04-7.2 1.28-2.35 2.8-4.52 4.58-6.52 1.77-2 3.7-3.64 5.76-4.92 2.13-1.3 4.07-2 5.83-2.1 1.76-.12 3.26.24 4.5 1.06 1.25.8 2.2 2 2.9 3.6.7 1.6 1.04 3.43 1.04 5.5 0 2.2-.36 4.52-1.08 6.96-.7 2.44-1.7 4.82-2.98 7.14-1.27 2.3-2.8 4.47-4.56 6.47-1.77 2.02-3.7 3.65-5.76 4.93-2.16 1.32-4.1 2.05-5.87 2.2-1.76.12-3.27-.2-4.53-1-1.25-.8-2.23-1.98-2.92-3.57-.7-1.6-1.04-3.44-1.04-5.55zm14.4 2.23c1.38-.85 2.6-1.92 3.67-3.2 1.06-1.3 1.96-2.7 2.7-4.2.72-1.5 1.28-3.02 1.65-4.57.37-1.55.56-3 .56-4.37 0-1.43-.2-2.7-.6-3.77-.4-1.1-.97-1.92-1.7-2.5-.73-.56-1.63-.83-2.7-.78-1.06.05-2.26.5-3.58 1.3-1.38.85-2.6 1.93-3.7 3.22-1.07 1.3-1.97 2.7-2.7 4.17-.7 1.48-1.25 3-1.62 4.54-.38 1.55-.56 3-.56 4.37 0 1.42.2 2.68.58 3.78.38 1.1.94 1.93 1.68 2.5.73.57 1.63.84 2.7.8 1.05-.03 2.26-.46 3.62-1.3zm25.24-17.98c.36-1.15.6-2.45.7-3.9.12-1.45.18-3.1.18-4.96v-16.8l5.72-3.5v16.78c0 2.5-.12 4.86-.36 7.07s-.73 4.27-1.5 6.2c-.75 1.9-1.85 3.72-3.28 5.4-1.44 1.7-3.37 3.3-5.8 4.8-2.5 1.52-4.62 2.14-6.4 1.87l1.3-6c.38.07 1.03 0 1.94-.17.9-.2 1.96-.65 3.15-1.38 1.15-.72 2.08-1.5 2.77-2.38.7-.9 1.22-1.9 1.58-3.05zm32.46-45.06v5.6l-14.34 8.83v7.95l12.4-7.62v5.2l-12.4 7.63v8.6l14.72-9.06v5.62l-20.44 12.57v-33l20.07-12.34zm16.96-10.62c2.7-1.67 5.05-2.44 7.03-2.32 1.96.1 3.43.94 4.4 2.5l-4.4 6.08c-.38-.7-.85-1.18-1.4-1.48-.55-.3-1.15-.43-1.78-.4-.64 0-1.3.14-2 .4-.68.25-1.36.58-2.02 1-1.44.88-2.7 1.97-3.76 3.27-1.06 1.3-1.95 2.7-2.65 4.17-.7 1.47-1.25 2.98-1.6 4.5-.37 1.55-.55 2.97-.55 4.27 0 1.46.2 2.73.63 3.83.4 1.1 1 1.92 1.76 2.47.76.56 1.67.82 2.73.78 1.07-.03 2.24-.44 3.5-1.22.67-.4 1.36-.93 2.08-1.56.72-.62 1.4-1.34 2.05-2.14.65-.8 1.25-1.7 1.8-2.67.56-.97 1-2 1.33-3.1l4.7.13c-.48 1.52-1.15 3.02-2.02 4.5-.86 1.48-1.84 2.88-2.94 4.2-1.1 1.33-2.26 2.54-3.5 3.65-1.24 1.1-2.46 2.02-3.65 2.75-2.1 1.3-4 1.98-5.75 2.06-1.74.08-3.24-.3-4.5-1.12-1.26-.82-2.24-2.03-2.94-3.63-.7-1.6-1.05-3.44-1.05-5.55 0-2 .33-4.2.98-6.57.65-2.37 1.6-4.7 2.84-7.02 1.24-2.32 2.76-4.5 4.56-6.57 1.8-2.08 3.84-3.8 6.13-5.22zm22.35-7.93l-9.4 5.8V341l24.5-15.05v5.62l-9.4 5.8v27.37l-5.7 3.5v-27.4zm28.36-17.67c-1.57.97-2.75 2.02-3.52 3.15-.77 1.12-1.16 2.28-1.16 3.45 0 .7.14 1.16.43 1.43.3.28.72.42 1.28.42.55 0 1.25-.12 2.1-.36.83-.24 1.8-.54 2.9-.9 1.45-.46 2.76-.8 3.93-1.03 1.2-.22 2.18-.2 3 .03s1.44.74 1.88 1.5c.44.78.67 1.92.67 3.44 0 1.76-.3 3.46-.9 5.08-.6 1.62-1.4 3.13-2.4 4.52-1 1.4-2.17 2.68-3.48 3.84-1.32 1.16-2.7 2.2-4.13 3.07-2.2 1.37-4.4 2.34-6.55 2.92-2.16.58-4.1.72-5.8.4l2.52-7.08c.25.13.7.22 1.34.27.65.06 1.42.04 2.3-.06.9-.1 1.87-.32 2.95-.67 1.1-.35 2.2-.88 3.33-1.57 3.15-1.94 4.72-4.04 4.72-6.3 0-.7-.18-1.2-.54-1.48-.35-.28-.86-.4-1.52-.36-.66.03-1.46.2-2.4.45-.94.28-2 .58-3.15.93-1.4.43-2.64.7-3.67.83-1.04.13-1.9.06-2.6-.22-.7-.27-1.2-.76-1.55-1.46-.33-.7-.5-1.7-.5-2.96 0-1.67.27-3.33.82-4.97.55-1.64 1.32-3.2 2.3-4.67.98-1.47 2.12-2.83 3.42-4.07 1.3-1.24 2.7-2.32 4.2-3.24 2.06-1.28 3.97-2.08 5.7-2.43 1.75-.34 3.27-.4 4.57-.22l-2.52 6.77c-.2-.1-.54-.18-1.05-.23-.5-.06-1.14-.04-1.87.05-.73.1-1.53.27-2.38.55s-1.73.7-2.62 1.23z" mask="url(#G)"/>
          <mask id="P" fill="#fff">
            <use xlink:href="#M"/>
          </mask>
          <use fill="url(#N)" xlink:href="#M"/>
          <path fill="url(#O)" d="M284.6 85.97s-14.52-20.4-39.27-10c-30.16 13.23-62.62 57.7-71.83 74.4-71.77 130.13-13.58 8.57-13.58 8.57s16.06-63.3 64.13-86.35c48.07-23.05 64.3-5.44 78.58 5.3 101.61 76.34-18.04 8.07-18.04 8.07z" mask="url(#P)"/>
        </g>
      </g>
    </a>
    <a id="contact" xlink:href="contact" class="object">
      <g id="mail" transform="translate(1475 223)">
        <defs>
          <path id="q1" d="M11.54 134.63C5.72 131.47 1 123.53 1 116.9V13c0-6.63 4.74-9.44 10.56-6.3l145.36 78.47c5.83 3.15 10.56 11.06 10.56 17.7V207.5c0 6.64-4.72 9.44-10.54 6.27l-145.4-79.14z"/>
          <linearGradient id="q2" x1="109.51%" x2="-19.69%" y1="62.48%" y2="82.27%">
            <stop stop-color="#8950B1" offset="0%"/>
            <stop stop-color="#B64E96" offset="100%"/>
          </linearGradient>
        </defs>
        <path fill="#ABB4B6" d="M157.6 204.78L19.55 129.63C13.72 126.47 9 118.53 9 111.9V14.42l-6.53-7.1L11.04 2c1.93-1.93 5.03-2.18 8.52-.3l145.36 78.47c5.83 3.15 10.56 11.06 10.56 17.7V202.5c0 3.64-1.42 6.13-3.66 7.1l-8.3 5.14-6.46-9.56.55-.4z"/>
        <use fill="#D8D8D8" xlink:href="#q1"/>
        <path fill="#6D4B9B" d="M74 114L9.27 6.3l147.7 78.8c5.86 3.13 10.6 11.02 10.6 17.66 0 0-.05 69.02-.05 103.82v1.17c-.03 6.63-4.74 9.4-10.54 6.2l-6.53-3.63V93.62"/>
        <path fill="url(#q2)" d="M156.8 84.96c2.74 1.36 6.14 5.34 6.14 5.34L74 114 15.06 26.95l-.72 109.26s-5-1.75-9.2-7.46c-4.2-5.7-4.26-11.87-4.26-11.87V11.9c0-6.08 4.34-8.67 9.68-5.78 0 0 143.5 77.48 146.25 78.84z">
          <animate attributeName="d" dur="1200ms" repeatCount="indefinite" values="M 156.806 84.96 c2.732 1.358 6.135 5.343 6.135 5.343 L74 114 15.058 26.947l-.715 109.266s-5.018-1.768-9.212-7.472C.94 123.037.88 116.87.88 116.87V11.895c0-6.076 4.34-8.66 9.68-5.776 0 0 143.514 77.483 146.246 78.84z; M 156.806 84.96 c2.732 1.358 6.135 5.343 6.135 5.343 L70 113 15.058 26.947l-.715 109.266s-5.018-1.768-9.212-7.472C.94 123.037.88 116.87.88 116.87V11.895c0-6.076 4.34-8.66 9.68-5.776 0 0 143.514 77.483 146.246 78.84z; M 156.806 84.96 c2.732 1.358 6.135 5.343 6.135 5.343 L60 108 15.058 26.947l-.715 109.266s-5.018-1.768-9.212-7.472C.94 123.037.88 116.87.88 116.87V11.895c0-6.076 4.34-8.66 9.68-5.776 0 0 143.514 77.483 146.246 78.84z; M 156.806 84.96 c2.732 1.358 6.135 5.343 6.135 5.343 L40 90 15.058 26.947l-.715 109.266s-5.018-1.768-9.212-7.472C.94 123.037.88 116.87.88 116.87V11.895c0-6.076 4.34-8.66 9.68-5.776 0 0 143.514 77.483 146.246 78.84z; M 156.806 84.96 c2.732 1.358 6.135 5.343 6.135 5.343 L60 108 15.058 26.947l-.715 109.266s-5.018-1.768-9.212-7.472C.94 123.037.88 116.87.88 116.87V11.895c0-6.076 4.34-8.66 9.68-5.776 0 0 143.514 77.483 146.246 78.84z; M 156.806 84.96 c2.732 1.358 6.135 5.343 6.135 5.343 L70 113 15.058 26.947l-.715 109.266s-5.018-1.768-9.212-7.472C.94 123.037.88 116.87.88 116.87V11.895c0-6.076 4.34-8.66 9.68-5.776 0 0 143.514 77.483 146.246 78.84z; M 156.806 84.96 c2.732 1.358 6.135 5.343 6.135 5.343 L74 114 15.058 26.947l-.715 109.266s-5.018-1.768-9.212-7.472C.94 123.037.88 116.87.88 116.87V11.895c0-6.076 4.34-8.66 9.68-5.776 0 0 143.514 77.483 146.246 78.84z"/>
        </path>
      </g>
    </a>
    <a id="team" xlink:href="team" class="object">
      <g id="team-cont">
        <path id="minor-shadow" fill="#000" fill-opacity=".1" d="M1115 1174.5l-48 33.9-14-7.38 48-33.9 14 7.38z"/>
        <path id="objectglass-shadow" fill="#000" fill-opacity=".06" d="M967.15 1154.72l-26.77 17.83-60.5-32.55 30.84-17 56.43 31.72z"/>
        <path fill="#000" fill-opacity=".04" d="M967.15 1154.72l-26.77 17.83-60.5-32.55 30.84-17 56.43 31.72z"/>
        <g transform="translate(866 953)">
          <mask id="W" fill="#fff">
            <use xlink:href="#T"/>
          </mask>
          <use fill="url(#U)" xlink:href="#T"/>
          <path fill="url(#V)" d="M82.06 2.3L25.53 38.03l156.34 86.34 55.7-35.35s8.95 7.72 11.46 12.2c2.64 4.7 4 15.36 4 15.36l-51.62 33.64v95.9l55.26-38.33s11.86-102.87 11.86-105.64C268.52 99.4 82.06 2.3 82.06 2.3z" opacity=".2" mask="url(#W)"/>
          <path fill="url(#X)" d="M250.2 130v74L200 237.55l1.2-75.72 49-31.83z" mask="url(#W)"/>
          <mask id="ab" fill="#fff">
            <use xlink:href="#Y"/>
          </mask>
          <use xlink:href="#Y"/>
          <use fill="url(#Z)" xlink:href="#Y"/>
          <path fill="url(#aa)" d="M203 162.07v74.82L14 135.57V57.76l189 104.3z" mask="url(#ab)"/>
          <path id="under-objectglass-shadow" fill="#000" fill-opacity=".1" d="M22.1 138.73l80.7 10.67-1.75 52.94-80.8-42.68 1.85-20.93z" mask="url(#ab)"/>
          <path fill="url(#ac)" d="M48.4 167.28C26.58 152.84 15 122.6 22.44 99.58l-3.8-7.48 13.5-8.24c3.26-3.03 7-5.3 11.1-6.77l.3-.18c9.94-3.38 21.8-2.12 33.16 4.67 22.26 13.3 33.84 43.8 25.85 68.05-3.3 10-9.36 17.23-16.9 21.24l-20.5 12.92-5.65-11.12c-3.7-1.2-7.43-3-11.1-5.42z"/>
          <path fill="url(#ad)" d="M82.82 162.1c8-24.25-3.58-54.73-25.86-68.06-22.28-13.3-46.54-5.38-54.17 17.7-7.64 23.07 3.96 53.5 25.88 68 21.92 14.5 46.16 6.6 54.14-17.63z"/>
          <mask id="af" fill="#fff">
            <use xlink:href="#ae"/>
          </mask>
          <use fill="#AB5BAC" xlink:href="#ae"/>
          <path fill="#6E488E" d="M78.25 149.88c5.7-17.3-2.56-39.04-18.45-48.54-15.88-9.5-33.18-3.84-38.62 12.62-5.44 16.45 2.83 38.15 18.46 48.48 15.63 10.34 32.9 4.72 38.6-12.56z" mask="url(#af)"/>
          <path id="upper-shot-button" fill="#D2D6D6" d="M89.9 30.73C89.9 36.41 83.2 41 74.95 41S60 36.4 60 30.73v-5.77h2.6c2.68-2.7 7.2-4.5 12.35-4.5 5.14 0 9.67 1.8 12.37 4.5h2.58v5.78z"/>
          <ellipse id="shot-button" cx="74.95" cy="24.96" fill="#FFF" rx="14.95" ry="10.27"/>
          <path fill="#9A5DB2" d="M153.82 184.76v2.4l-5.03-2.73v13.45l-2.8-1.5v-13.44l-5-2.7v-2.4l12.82 6.92zm6.65 11.53c-.14-.46-.33-.88-.58-1.3-.25-.4-.55-.77-.9-1.13-.34-.36-.73-.65-1.16-.9-.44-.23-.85-.37-1.2-.4-.37-.05-.68 0-.94.13-.26.14-.47.35-.62.63-.16.3-.24.64-.26 1.06l5.9 3.18c-.03-.42-.1-.85-.25-1.3zm-5.46 1.15c.14.48.32.94.58 1.4.25.43.57.85.95 1.25.4.4.84.73 1.38 1.02.75.4 1.34.56 1.8.48.44-.07.78-.37 1-.88l2.4 1.3c-.13.54-.36.97-.7 1.28-.3.32-.7.5-1.16.6-.46.1-.98.06-1.55-.08-.58-.13-1.17-.37-1.8-.7-.9-.5-1.7-1.07-2.4-1.74-.68-.67-1.27-1.4-1.75-2.2-.48-.8-.85-1.62-1.1-2.5-.24-.86-.36-1.74-.36-2.63 0-.8.12-1.52.38-2.1.26-.6.63-1.05 1.1-1.34.5-.3 1.07-.4 1.75-.37.68.04 1.45.3 2.3.76.9.47 1.72 1.1 2.44 1.86.72.77 1.3 1.6 1.8 2.47.46.87.8 1.77 1.02 2.7.2.92.26 1.78.15 2.58l-8.43-4.54c0 .44.07.9.2 1.4zm19.9 12.65c.1.17.25.33.5.45l.26.15.35.15v1.75c-.08-.02-.2-.05-.33-.1-.14-.03-.3-.07-.43-.12-.15-.05-.3-.1-.45-.18-.16-.06-.28-.12-.38-.18-.52-.28-.95-.6-1.3-1-.33-.4-.55-.88-.66-1.45-.5.22-1.12.24-1.85.07-.72-.18-1.43-.45-2.1-.8-.53-.3-1.02-.63-1.5-1.03-.47-.38-.88-.82-1.25-1.3-.36-.46-.65-.96-.86-1.5-.23-.53-.33-1.08-.33-1.65 0-.7.12-1.2.38-1.52.26-.3.6-.46 1.02-.5.43 0 .9.06 1.42.23.52.18 1.05.38 1.58.6.46.16.9.34 1.3.52.42.2.8.32 1.1.4.33.1.58.1.76 0 .2-.08.28-.3.28-.68 0-.32-.08-.63-.23-.92-.17-.3-.36-.56-.6-.8-.22-.22-.47-.44-.76-.63-.28-.18-.54-.35-.8-.48-.7-.38-1.3-.55-1.75-.5-.47.05-.72.36-.78.95l-2.53-1.36c.03-.72.2-1.24.52-1.56.3-.32.7-.5 1.2-.53.47-.04 1 .05 1.62.26.6.2 1.23.48 1.86.83.56.3 1.12.66 1.67 1.07.54.4 1.04.87 1.47 1.37.44.5.8 1.04 1.05 1.6.26.57.4 1.15.4 1.76v5.9c0 .3.03.56.12.73zm-4.06-5.6c-.56-.26-1.12-.48-1.7-.68-.25-.1-.5-.18-.76-.23-.25-.07-.48-.08-.67-.04-.18.04-.33.14-.44.3-.1.18-.17.42-.17.75 0 .3.07.57.23.85.17.28.36.54.6.78.22.23.47.44.75.64s.52.34.74.46c.28.15.58.28.9.38.34.1.64.15.93.13.3-.02.53-.12.72-.3.2-.16.3-.44.3-.84v-1.9c-.4.05-.87-.05-1.43-.3zm9.08-1.3v1.6l.06.05c.2-.18.4-.33.62-.44.23-.1.47-.18.75-.2.27 0 .6.03.94.13s.75.27 1.2.5c.7.4 1.35.9 1.95 1.53.6.63 1.03 1.34 1.28 2.13.43-.37.92-.57 1.48-.6.58-.04 1.28.16 2.12.62 1.22.65 2.16 1.46 2.83 2.4.67.97 1 2.14 1 3.53v7.92l-2.52-1.36v-6.7c0-.45 0-.88-.04-1.27-.04-.4-.13-.77-.27-1.12-.14-.34-.35-.66-.63-.96-.28-.3-.67-.58-1.15-.84-.86-.47-1.48-.54-1.87-.2-.38.3-.57.96-.57 1.94v6.72l-2.52-1.36v-7.37c0-.8-.15-1.48-.43-2.04-.3-.57-.82-1.06-1.6-1.48-.32-.17-.63-.28-.93-.3-.3-.04-.57 0-.8.14-.23.13-.42.34-.56.63-.14.3-.2.67-.2 1.14v6.8l-2.54-1.35V201.9l2.4 1.3z"/>
          <path id="original-lamp" fill="#9D54A2" d="M197.43 131.3c3.67 2.12 5.97 7.37 5.13 11.72-.84 4.35-4.5 6.15-8.17 4.03l-19.27-11.12c-3.67-2.12-5.97-7.36-5.13-11.7.84-4.36 4.5-6.17 8.16-4.05l19.27 11.12z"/>
          <path id="white-lamp" fill="#FFF" d="M197.43 131.3c3.67 2.12 5.97 7.37 5.13 11.72-.84 4.35-4.5 6.15-8.17 4.03l-19.27-11.12c-3.67-2.12-5.97-7.36-5.13-11.7.84-4.36 4.5-6.17 8.16-4.05l19.27 11.12z"/>
          <path id="lighting-blick" fill="url(#nx)" d="M189.22 119.98c-.96-.56-2.58-.74-3.64-.4L.2 177.94l212.4 116.5s2.65-102.12 2.2-153.2c-.02-3-4.1-8.7-4.1-8.7l-21.48-12.56z" transform="translate(-12)"/>
        </g>
      </g>
    </a>
    <a id="services" xlink:href="services" class="object">
      <g id="services-cont">
        <path fill="url(#ag)" d="M113 37.12c-2.3 1.36-3.4-2.84-3.4-2.84l-9.44-4.8L0 89v177l9.63 4.37 90.53-63.88c0-8.43 5.75-18.68 12.84-22.9 7.1-4.2 12.84-.8 12.84 7.63l9.66 4.47 13.46-18.2L158.1 4.9 148.97.5l-23.12 13.73c0 8.43-5.75 18.68-12.84 22.9z" transform="translate(466 95)"/>
        <path fill="url(#ah)" d="M123 41.12c-7.1 4.2-12.84.8-12.84-7.63L10 93v177l100.16-59.5c0-8.43 5.75-18.68 12.84-22.9 7.1-4.2 12.84-.8 12.84 7.63l23.12-13.73V4.5l-23.12 13.73c0 8.43-5.75 18.68-12.84 22.9z" transform="translate(466 95)"/>
        <path fill="#000" fill-opacity=".14" d="M476 212.4l20.55-36.6L476 188v24.4z"/>
        <g id="chips" fill="rgba(255, 255, 255, .125)">
          <path d="M500.65 335.53c0-1.68-1.15-2.36-2.57-1.52-1.42.85-2.57 2.9-2.57 4.6 0 1.67 1.16 2.35 2.58 1.5 1.42-.83 2.57-2.88 2.57-4.57zM505.8 338.6c0-1.7-1.16-2.38-2.58-1.54-1.42.84-2.57 2.9-2.57 4.58 0 1.68 1.15 2.37 2.57 1.52 1.42-.84 2.57-2.9 2.57-4.57zM513.5 327.9c0-1.68-1.16-2.36-2.58-1.52-1.42.84-2.57 2.9-2.57 4.58 0 1.68 1.15 2.37 2.57 1.52 1.42-.84 2.57-2.9 2.57-4.57zM518.63 330.96c0-1.7-1.15-2.37-2.57-1.53-1.42.84-2.57 2.9-2.57 4.58 0 1.7 1.14 2.38 2.56 1.53 1.42-.84 2.57-2.9 2.57-4.57zM526.33 320.28c0-1.7-1.15-2.37-2.57-1.53-1.42.84-2.57 2.9-2.57 4.58 0 1.68 1.14 2.37 2.56 1.52 1.42-.84 2.57-2.9 2.57-4.57zM531.47 323.33c0-1.7-1.15-2.37-2.57-1.53-1.42.84-2.57 2.9-2.57 4.58 0 1.68 1.15 2.37 2.57 1.53 1.42-.84 2.57-2.9 2.57-4.57zM539.17 312.65c0-1.7-1.15-2.37-2.57-1.53-1.4.84-2.56 2.9-2.56 4.58 0 1.68 1.15 2.37 2.56 1.52 1.42-.84 2.57-2.9 2.57-4.57zM544.3 315.7c0-1.7-1.14-2.37-2.56-1.53-1.42.85-2.57 2.9-2.57 4.58 0 1.7 1.15 2.37 2.57 1.53 1.42-.85 2.57-2.9 2.57-4.58zM552 305.02c0-1.7-1.14-2.37-2.55-1.53-1.42.83-2.57 2.88-2.57 4.57 0 1.68 1.15 2.37 2.57 1.52 1.4-.85 2.56-2.9 2.56-4.58zM557.15 308.07c0-1.7-1.15-2.37-2.57-1.53-1.42.85-2.57 2.9-2.57 4.58 0 1.7 1.16 2.37 2.58 1.53 1.42-.85 2.57-2.9 2.57-4.58zM564.85 297.4c0-1.7-1.15-2.38-2.56-1.54-1.43.84-2.58 2.9-2.58 4.58 0 1.7 1.15 2.37 2.57 1.53 1.4-.85 2.55-2.9 2.55-4.58zM570 300.44c0-1.7-1.16-2.37-2.58-1.53-1.42.86-2.57 2.9-2.57 4.6 0 1.68 1.15 2.36 2.57 1.52 1.42-.85 2.57-2.9 2.57-4.58zM485.24 222.62c0-1.68-1.15-2.37-2.57-1.53-1.42.84-2.57 2.9-2.57 4.57 0 1.7 1.15 2.37 2.57 1.53 1.42-.84 2.57-2.9 2.57-4.58zM508.35 178.37c0-1.68-1.15-2.37-2.56-1.53-1.43.85-2.58 2.9-2.58 4.58 0 1.7 1.15 2.37 2.57 1.53 1.4-.84 2.55-2.9 2.55-4.58zM518.63 172.27c0-1.7-1.15-2.37-2.57-1.53-1.42.84-2.57 2.9-2.57 4.58 0 1.68 1.14 2.37 2.56 1.52 1.42-.84 2.57-2.9 2.57-4.57zM485.24 213.47c0-1.7-1.15-2.37-2.57-1.53-1.42.84-2.57 2.9-2.57 4.58 0 1.68 1.15 2.37 2.57 1.52 1.42-.84 2.57-2.9 2.57-4.57zM485.24 259.24c0-1.68-1.15-2.37-2.57-1.52-1.42.84-2.57 2.9-2.57 4.57 0 1.68 1.15 2.36 2.57 1.52 1.42-.84 2.57-2.9 2.57-4.58zM485.24 274.5c0-1.7-1.15-2.37-2.57-1.53-1.42.85-2.57 2.9-2.57 4.58 0 1.7 1.15 2.37 2.57 1.53 1.42-.85 2.57-2.9 2.57-4.58zM490.38 280.6c0-1.68-1.15-2.37-2.57-1.52-1.4.84-2.56 2.9-2.56 4.58 0 1.68 1.15 2.36 2.57 1.52 1.43-.84 2.58-2.9 2.58-4.58zM485.24 289.76c0-1.7-1.15-2.37-2.57-1.53-1.42.85-2.57 2.9-2.57 4.58 0 1.7 1.15 2.38 2.57 1.54 1.42-.85 2.57-2.9 2.57-4.58zM490.38 295.86c0-1.68-1.15-2.37-2.57-1.52-1.4.84-2.56 2.9-2.56 4.57 0 1.7 1.15 2.38 2.57 1.54 1.43-.84 2.58-2.9 2.58-4.58zM485.24 305.02c0-1.7-1.15-2.37-2.57-1.53-1.42.83-2.57 2.88-2.57 4.57 0 1.68 1.15 2.37 2.57 1.52 1.42-.85 2.57-2.9 2.57-4.58zM490.38 311.12c0-1.68-1.15-2.37-2.57-1.53-1.4.84-2.56 2.9-2.56 4.57 0 1.7 1.15 2.37 2.57 1.53 1.43-.84 2.58-2.9 2.58-4.58zM485.24 320.28c0-1.7-1.15-2.37-2.57-1.53-1.42.84-2.57 2.9-2.57 4.58 0 1.68 1.15 2.37 2.57 1.52 1.42-.84 2.57-2.9 2.57-4.57zM618.8 182.95c0-1.7-1.16-2.37-2.58-1.53-1.42.85-2.57 2.9-2.57 4.58 0 1.7 1.15 2.37 2.57 1.53 1.42-.85 2.57-2.9 2.57-4.58zM613.65 179.9c0-1.7-1.15-2.37-2.57-1.53-1.42.84-2.57 2.9-2.57 4.58 0 1.68 1.16 2.37 2.58 1.52 1.42-.84 2.57-2.9 2.57-4.57zM618.8 243.98c0-1.68-1.16-2.37-2.58-1.52-1.42.84-2.57 2.9-2.57 4.57 0 1.7 1.15 2.37 2.57 1.53 1.42-.84 2.57-2.9 2.57-4.58zM613.65 240.93c0-1.68-1.15-2.37-2.57-1.52-1.42.85-2.57 2.9-2.57 4.58 0 1.7 1.16 2.37 2.58 1.53 1.42-.83 2.57-2.88 2.57-4.57zM618.8 213.47c0-1.7-1.16-2.37-2.58-1.53-1.42.84-2.57 2.9-2.57 4.58 0 1.68 1.15 2.37 2.57 1.52 1.42-.84 2.57-2.9 2.57-4.57zM490.38 326.38c0-1.7-1.15-2.37-2.57-1.53-1.4.85-2.56 2.9-2.56 4.58 0 1.7 1.15 2.37 2.57 1.53 1.43-.85 2.58-2.9 2.58-4.58zM618.8 271.45c0-1.7-1.16-2.37-2.58-1.53-1.42.85-2.57 2.9-2.57 4.58 0 1.7 1.15 2.37 2.57 1.53 1.42-.85 2.57-2.9 2.57-4.58zM485.24 350.8c0-1.7-1.15-2.38-2.57-1.53-1.42.84-2.57 2.9-2.57 4.57 0 1.7 1.15 2.37 2.57 1.53 1.42-.84 2.57-2.9 2.57-4.58zM485.24 335.53c0-1.68-1.15-2.36-2.57-1.52-1.42.85-2.57 2.9-2.57 4.6 0 1.67 1.15 2.35 2.57 1.5 1.42-.83 2.57-2.88 2.57-4.57zM618.8 112.76c0-1.7-1.16-2.37-2.58-1.53-1.42.85-2.57 2.9-2.57 4.58 0 1.7 1.15 2.38 2.57 1.54 1.42-.85 2.57-2.9 2.57-4.58z"/>
        </g>
        <path id="lighting-shape" fill="#FFF" fill-opacity=".18" d="M501.9 236.7c-.14-.4-.22-.86-.22-1.4v-16.88c0-8.37 5.7-18.55 12.76-22.74l72.08-42.83c7.04-4.18 12.75-.8 12.75 7.6v22.67l-7.7 4.24v-18.24c0-5.58-3.8-7.85-8.5-5.06l-65.18 38.72c-4.7 2.8-8.5 9.58-8.5 15.17v14.63l-7.5 4.12zm-.05 49.03c-.1.5-.17.98-.17 1.45v16.9c0 8.36 5.7 11.75 12.76 7.57l72.08-42.83c7.04-4.18 12.75-14.37 12.75-22.74v-13.96l-7.7 4.24v10.2c0 5.58-3.8 12.37-8.5 15.16l-65.17 38.7c-4.7 2.8-8.5.54-8.5-5.04v-13.8l-7.55 4.15z"/>
        <path fill="#020202" fill-opacity=".1" d="M504.94 266.7c.13-.52.2-1 .2-1.46 0-.93-.15-1.53-.44-1.8-.3-.3-.6-.42-.96-.4-.6 0-1.3.1-2.08.25-.8.14-1.77.32-2.94.5-.72.14-1.32.12-1.8-.06-.48-.17-.86-.45-1.14-.84-.28-.38-.48-.85-.6-1.4-.12-.54-.18-1.13-.18-1.77 0-1.22.18-2.37.53-3.47.36-1.1.82-2.1 1.4-3 .6-.9 1.25-1.7 1.98-2.4.75-.7 1.5-1.26 2.25-1.67.88-.5 1.7-.8 2.5-.9.76-.1 1.45 0 2.04.34.57.33 1.04.88 1.4 1.65.33.76.5 1.78.5 3.04l-2.94 1.64c-.08-1.52-.45-2.42-1.1-2.7-.67-.28-1.5-.13-2.53.44-.34.2-.7.44-1.06.74-.36.3-.7.65-1 1.06-.28.4-.53.86-.73 1.38-.2.5-.3 1.08-.3 1.7 0 .85.2 1.42.56 1.7.37.28.85.38 1.45.3l.74-.12 1.44-.25 1.57-.27 1.1-.2c.55-.04 1.03.03 1.44.23.4.2.75.5 1.02.9.28.4.48.88.62 1.44s.2 1.16.2 1.8c0 1.35-.2 2.62-.58 3.8-.38 1.17-.9 2.24-1.52 3.2-.63.96-1.34 1.8-2.14 2.53-.8.73-1.62 1.33-2.45 1.8-.97.52-1.87.85-2.72 1-.85.12-1.6 0-2.2-.34-.64-.36-1.14-.98-1.52-1.87-.38-.9-.57-2.07-.6-3.56l2.95-1.63c0 .93.12 1.66.34 2.2.22.52.53.9.92 1.1.4.2.85.25 1.36.16.5-.1 1.06-.3 1.66-.64.64-.36 1.2-.78 1.65-1.25.45-.46.82-.95 1.1-1.44.3-.5.5-1 .62-1.5zm8.65-10.37v7.1l9.3-5.18v3.67l-12.26 6.82V244.5l12.1-6.74v3.67l-9.15 5.1v6.34l8.47-4.7v3.45l-8.48 4.7zm22.7-13.43c.24-.03.5-.06.8-.04.3.02.56.15.82.4.25.27.46.67.62 1.2.17.55.25 1.3.25 2.25 0 1.44.06 2.7.2 3.77.16 1.1.4 1.8.7 2.1l-3.15 1.77c-.22-.4-.35-.9-.4-1.52-.03-.6-.05-1.2-.05-1.8 0-1.1-.04-2.04-.14-2.8-.1-.74-.26-1.3-.52-1.7-.25-.4-.6-.6-1.02-.6-.43-.02-1 .17-1.66.54l-4.33 2.4v10l-2.95 1.63v-24.26l8.03-4.46c1.87-1.03 3.26-1.23 4.18-.6.93.65 1.4 2 1.4 4.06 0 1.16-.13 2.18-.36 3.07-.24.9-.5 1.66-.83 2.3-.32.64-.63 1.15-.94 1.52-.3.37-.53.63-.67.78zm-3.1-7.5l-4.78 2.67v7.57l4.83-2.68c.94-.53 1.66-1.25 2.14-2.16.48-.92.73-2.02.73-3.3 0-.78-.08-1.37-.24-1.76-.17-.4-.38-.66-.66-.78-.27-.12-.6-.13-.94-.02-.35.1-.72.26-1.1.47zm12.13 14.05l-5.6-21.13 3.06-1.7 4.2 16.85.05-.03 4.3-21.58 3-1.67-5.74 27.43-3.27 1.82zm10.7-5.94v-24.23l2.94-1.64v24.24l-2.94 1.64zm8.9-20.45c-.2 1.22-.3 2.4-.3 3.56 0 1.17.1 2.24.3 3.24.18 1 .5 1.83.9 2.47.4.66.93 1.06 1.58 1.22.67.15 1.44 0 2.33-.5.66-.38 1.24-.87 1.75-1.47.5-.6.93-1.3 1.3-2.08.35-.78.64-1.6.84-2.5.2-.88.34-1.78.4-2.7l2.88-1.6c-.07 1.5-.28 2.94-.65 4.34-.37 1.42-.87 2.73-1.5 3.95-.63 1.22-1.36 2.3-2.2 3.25-.86.95-1.8 1.7-2.8 2.27-1.27.7-2.4 1-3.4.88s-1.83-.56-2.53-1.33c-.7-.77-1.22-1.82-1.6-3.15-.36-1.34-.54-2.88-.54-4.62 0-1.72.18-3.45.55-5.2.37-1.74.9-3.4 1.6-4.92.68-1.54 1.53-2.93 2.53-4.16 1-1.23 2.12-2.2 3.38-2.9.94-.52 1.83-.83 2.66-.92.83-.1 1.56.05 2.2.4.63.37 1.15.95 1.54 1.75.4.8.64 1.83.73 3.1l-2.94 1.63c-.13-.63-.3-1.18-.52-1.65-.2-.47-.5-.82-.84-1.06-.34-.24-.75-.35-1.2-.33-.47 0-1 .2-1.62.53-.9.5-1.67 1.2-2.32 2.07-.66.9-1.2 1.88-1.6 2.98-.4 1.1-.7 2.25-.9 3.47zm17.6-5.03v7.1l9.32-5.2v3.68l-12.27 6.82v-24.24l12.1-6.73v3.66l-9.16 5.1v6.36l8.48-4.72v3.47l-8.48 4.72zm21.45-6.37c.13-.5.2-1 .2-1.45 0-.92-.16-1.53-.45-1.8-.3-.3-.6-.42-.95-.4-.6 0-1.3.1-2.1.25-.78.15-1.76.33-2.92.52-.72.13-1.32.1-1.8-.07s-.86-.45-1.14-.84c-.3-.38-.5-.85-.6-1.4-.12-.54-.18-1.13-.18-1.77 0-1.23.18-2.38.53-3.48.35-1.1.82-2.1 1.4-3 .58-.9 1.24-1.7 1.98-2.4s1.48-1.25 2.24-1.67c.87-.5 1.7-.8 2.47-.9.78-.1 1.46.02 2.05.35.6.33 1.06.88 1.4 1.65.35.77.52 1.8.52 3.05l-2.94 1.64c-.08-1.52-.45-2.42-1.1-2.7-.67-.28-1.5-.13-2.53.44-.34.2-.7.44-1.06.74-.35.3-.68.65-.98 1.06-.3.4-.54.86-.74 1.38-.2.5-.3 1.08-.3 1.7 0 .85.2 1.42.56 1.7.37.28.85.38 1.45.3l.73-.12 1.45-.25 1.57-.28 1.1-.2c.54-.04 1.02.03 1.43.23.4.2.75.5 1.02.9.28.4.48.9.6 1.45.15.56.2 1.16.2 1.8 0 1.35-.18 2.62-.56 3.8-.4 1.17-.9 2.24-1.52 3.2-.63.96-1.34 1.8-2.15 2.53-.8.73-1.6 1.33-2.45 1.8-.95.52-1.86.85-2.7 1-.85.12-1.6 0-2.22-.35-.63-.35-1.13-.97-1.5-1.86-.38-.9-.58-2.07-.6-3.56l2.95-1.63c0 .93.1 1.66.33 2.2.22.53.53.9.92 1.1.4.2.84.25 1.35.16.5-.1 1.07-.3 1.66-.65.66-.35 1.2-.77 1.66-1.24.46-.45.83-.94 1.1-1.43.3-.5.5-1 .62-1.5z"/>
        <path fill="url(#ai)" d="M13.7 74.83c.1-.5.18-1 .18-1.45 0-.92-.15-1.53-.44-1.8-.3-.3-.6-.42-.96-.4-.6 0-1.3.1-2.08.25-.8.15-1.77.33-2.93.52-.72.13-1.33.1-1.8-.07-.48-.17-.86-.45-1.15-.84-.28-.38-.48-.85-.6-1.4-.1-.54-.17-1.13-.17-1.77 0-1.22.17-2.38.53-3.47.35-1.1.82-2.1 1.4-3 .58-.9 1.24-1.7 1.98-2.4.73-.7 1.48-1.26 2.23-1.67.87-.5 1.7-.8 2.48-.9.77-.1 1.46.02 2.05.35.6.33 1.05.88 1.4 1.65.34.77.52 1.78.52 3.05l-2.95 1.64c-.08-1.52-.44-2.42-1.1-2.7-.66-.28-1.5-.13-2.52.44-.35.2-.7.44-1.06.74-.37.3-.7.65-1 1.06-.3.4-.54.86-.73 1.38-.2.5-.3 1.08-.3 1.7 0 .85.18 1.42.54 1.7.37.28.85.38 1.45.3l.73-.12 1.45-.25 1.57-.27 1.1-.2c.54-.04 1.02.03 1.43.23.4.2.75.5 1.02.9.28.4.48.9.62 1.45.13.56.2 1.16.2 1.8 0 1.35-.2 2.62-.58 3.8-.38 1.17-.9 2.24-1.52 3.2-.63.96-1.34 1.8-2.14 2.53-.8.74-1.62 1.34-2.45 1.8-.96.53-1.86.86-2.7 1-.86.13-1.6.02-2.22-.34-.62-.35-1.12-.97-1.5-1.86-.38-.9-.57-2.07-.6-3.56l2.95-1.64c0 .93.1 1.66.33 2.2.22.53.53.9.92 1.1.4.2.85.25 1.36.16.5-.1 1.06-.3 1.66-.63.64-.36 1.2-.77 1.65-1.24.45-.48.82-.96 1.1-1.46.3-.5.5-1 .62-1.5zm8.63-10.36v7.1l9.33-5.18v3.66L19.4 76.88V52.63l12.1-6.73v3.67l-9.17 5.1V61l8.48-4.7v3.46l-8.47 4.7zm22.7-13.43c.25-.03.52-.06.8-.04.3.02.58.15.83.4.25.27.46.67.62 1.2.17.55.25 1.3.25 2.25 0 1.43.07 2.68.22 3.76.15 1.1.38 1.8.7 2.12l-3.16 1.76c-.23-.4-.36-.9-.4-1.52-.04-.6-.06-1.2-.06-1.8 0-1.1-.05-2.04-.14-2.8-.1-.74-.27-1.3-.52-1.7-.25-.4-.6-.6-1.02-.6-.43 0-1 .17-1.66.54L37.16 57v10l-2.94 1.63V44.38l8.03-4.46c1.85-1.03 3.24-1.23 4.17-.6.93.65 1.4 2 1.4 4.06 0 1.15-.13 2.18-.36 3.07-.24.9-.5 1.65-.83 2.3-.3.63-.62 1.13-.93 1.5-.3.38-.53.64-.67.8zm-3.08-7.5l-4.78 2.67v7.58L42 51.1c.94-.53 1.65-1.25 2.14-2.16.48-.92.73-2.02.73-3.3 0-.78-.08-1.36-.24-1.76-.16-.4-.37-.66-.65-.78-.27-.12-.58-.13-.94-.02-.35.1-.72.26-1.1.47zM54.08 57.6l-5.6-21.14 3.05-1.7 4.22 16.85.05-.02L60.1 30l3-1.67-5.75 27.44-3.27 1.82zm10.7-5.95V27.4l2.93-1.63v24.25l-2.93 1.63zm8.88-20.46c-.2 1.2-.3 2.4-.3 3.55 0 1.16.1 2.23.3 3.23.2 1 .5 1.83.9 2.47.42.65.95 1.05 1.6 1.2.65.17 1.42 0 2.32-.5.66-.37 1.24-.85 1.74-1.46.5-.62.94-1.3 1.3-2.1.36-.77.64-1.6.84-2.48.2-.88.34-1.8.4-2.7l2.88-1.6c-.06 1.48-.28 2.93-.65 4.33-.38 1.4-.88 2.72-1.5 3.94-.63 1.2-1.37 2.3-2.22 3.24-.84.95-1.78 1.7-2.8 2.27-1.26.7-2.38 1-3.38.9-1-.13-1.84-.57-2.53-1.34-.7-.77-1.22-1.82-1.6-3.16-.36-1.33-.54-2.87-.54-4.6 0-1.73.18-3.47.55-5.2.37-1.76.9-3.4 1.6-4.94.68-1.53 1.52-2.92 2.52-4.15 1-1.23 2.12-2.2 3.38-2.9.94-.5 1.83-.82 2.66-.9.83-.1 1.57.04 2.2.4.64.36 1.16.94 1.55 1.74.38.8.62 1.83.72 3.1l-2.95 1.63c-.12-.63-.3-1.18-.5-1.65-.24-.47-.52-.82-.86-1.06-.34-.24-.74-.34-1.2-.33-.47.02-1 .2-1.62.54-.9.5-1.67 1.2-2.32 2.07-.65.9-1.18 1.88-1.6 2.98-.4 1.1-.7 2.25-.9 3.47zm17.6-5.04v7.1l9.33-5.18v3.66L88.3 38.56V14.32l12.1-6.73v3.66l-9.15 5.1v6.34l8.48-4.7v3.45l-8.48 4.7zm21.46-6.37c.13-.52.2-1 .2-1.46 0-.93-.15-1.53-.44-1.8-.3-.3-.6-.42-.96-.4-.6 0-1.3.1-2.08.25-.8.15-1.77.32-2.93.5-.72.14-1.32.12-1.8-.06-.47-.17-.86-.45-1.14-.84-.28-.38-.48-.85-.6-1.4-.12-.54-.17-1.13-.17-1.77 0-1.22.16-2.38.52-3.46.35-1.1.82-2.1 1.4-3 .58-.92 1.24-1.72 1.98-2.4.73-.7 1.48-1.26 2.23-1.68.88-.5 1.7-.8 2.5-.9.77-.1 1.45 0 2.04.34.6.33 1.05.88 1.4 1.65.34.76.52 1.78.52 3.04l-2.96 1.64c-.08-1.52-.45-2.42-1.1-2.7-.67-.28-1.5-.13-2.53.44-.33.2-.68.44-1.05.74-.36.3-.7.65-1 1.06-.28.4-.53.86-.73 1.38-.2.5-.3 1.08-.3 1.7 0 .85.2 1.42.56 1.7.37.28.85.38 1.45.3l.74-.12 1.45-.25 1.57-.27 1.08-.2c.55-.04 1.03.03 1.44.23.4.2.75.5 1.02.9.28.4.48.88.62 1.44.13.56.2 1.16.2 1.8 0 1.35-.2 2.62-.58 3.8-.38 1.17-.9 2.24-1.52 3.2-.63.96-1.34 1.8-2.14 2.53-.8.73-1.62 1.32-2.45 1.8-.96.52-1.86.85-2.7.98-.86.13-1.6.02-2.22-.33-.63-.35-1.13-.97-1.5-1.86-.4-.9-.58-2.08-.6-3.56l2.94-1.64c0 .93.1 1.66.32 2.2.22.53.53.9.92 1.1.4.2.85.25 1.36.16.5-.1 1.06-.3 1.66-.63.64-.37 1.2-.78 1.65-1.25.46-.47.83-.95 1.1-1.45.3-.5.5-1 .63-1.5z" transform="translate(494 193)"/>
      </g>
    </a>
  </g>
</svg>
