<svg xmlns="http://www.w3.org/2000/svg" viewBox="0 0 209.9 209.9"><linearGradient id="gradient" gradientUnits="userSpaceOnUse" x1="176.629" y1="229.103" x2="33.267" y2="-19.207"><stop offset="0" stop-color="#b64e96"/><stop offset="1" stop-color="#5f52ca"/></linearGradient><path fill="url(#gradient)" d="M0 0h209.9v209.9H0z"/><g fill="#FFF"><path d="M48.8 177.3c2.8 0 4.3 1.5 4.3 4v2.7c0 2.5-1.6 4-4.3 4h-3.4c-.4 0-.5-.1-.5-.5v-9.6c0-.4.1-.5.5-.5h3.4zm2.5 3.9c0-1.4-.9-2.2-2.5-2.2h-2v7.1h2c1.6 0 2.5-.8 2.5-2.2v-2.7zM61.6 177.3c.4 0 .5.1.5.5v.7c0 .4-.2.5-.5.5H57v2.6h3.9c.4 0 .5.1.5.5v.7c0 .4-.1.5-.5.5H57v2.8h4.8c.4 0 .5.1.5.5v.7c0 .4-.1.5-.5.5h-6.1c-.4 0-.5-.1-.5-.5v-9.6c0-.4.1-.5.5-.5h5.9zM67.8 177.3c2.8 0 4.3 1.5 4.3 4v2.7c0 2.5-1.6 4-4.3 4h-3.4c-.4 0-.5-.1-.5-.5v-9.6c0-.4.1-.5.5-.5h3.4zm2.5 3.9c0-1.4-.9-2.2-2.5-2.2h-2v7.1h2c1.6 0 2.5-.8 2.5-2.2v-2.7zM74.1 177.8c0-.4.1-.5.5-.5h.9c.4 0 .5.1.5.5v9.6c0 .4-.1.5-.5.5h-.9c-.4 0-.5-.1-.5-.5v-9.6zM77.9 181c0-2.4 1.5-3.9 4.3-3.9 2.1 0 3.5.8 4.1 2.5.1.3 0 .5-.3.7l-.8.3c-.4.1-.5 0-.6-.3-.3-.9-1.1-1.4-2.3-1.4-1.5 0-2.4.7-2.4 2.1v3.3c0 1.4.9 2.1 2.4 2.1 1.2 0 2-.5 2.3-1.4.2-.4.3-.5.7-.3l.8.3c.3.1.4.3.3.7-.6 1.7-1.9 2.5-4.1 2.5-2.7 0-4.3-1.5-4.3-3.9V181zM96.7 187.5c.1.3 0 .5-.3.5h-.8c-.6 0-.8-.1-.9-.5l-.7-1.9h-4.1l-.7 1.9c-.1.4-.3.5-.9.5h-.7c-.3 0-.5-.2-.3-.5l3.8-9.7c.1-.3.3-.4.6-.4h.8c.4 0 .5.1.6.4l3.6 9.7zm-4.5-6.6c-.2-.5-.3-1.2-.3-1.6v-.3h-.1c0 .6-.1 1.2-.3 1.8l-1.2 3.2h3.1l-1.2-3.1zM103.4 177.3c.4 0 .5.1.5.5v.7c0 .4-.1.5-.5.5h-2.6v8.4c0 .4-.1.5-.5.5h-.9c-.4 0-.5-.1-.5-.5V179h-2.6c-.4 0-.5-.1-.5-.5v-.7c0-.4.1-.5.5-.5h7.1zM111.8 177.3c.4 0 .5.1.5.5v.7c0 .4-.2.5-.5.5h-4.6v2.6h3.9c.4 0 .5.1.5.5v.7c0 .4-.1.5-.5.5h-3.9v2.8h4.8c.4 0 .5.1.5.5v.7c0 .4-.1.5-.5.5h-6.1c-.4 0-.5-.1-.5-.5v-9.6c0-.4.1-.5.5-.5h5.9zM118.1 177.3c2.8 0 4.3 1.5 4.3 4v2.7c0 2.5-1.6 4-4.3 4h-3.4c-.4 0-.5-.1-.5-.5v-9.6c0-.4.1-.5.5-.5h3.4zm2.4 3.9c0-1.4-.9-2.2-2.5-2.2h-2v7.1h2c1.6 0 2.5-.8 2.5-2.2v-2.7zM134.1 177.3c.4 0 .5.1.5.5v.7c0 .4-.1.5-.5.5h-2.6v8.4c0 .4-.1.5-.5.5h-.9c-.4 0-.5-.1-.5-.5V179H127c-.4 0-.5-.1-.5-.5v-.7c0-.4.1-.5.5-.5h7.1zM142.5 177.3c.4 0 .5.1.5.5v.7c0 .4-.2.5-.5.5h-4.6v2.6h3.9c.4 0 .5.1.5.5v.7c0 .4-.1.5-.5.5h-3.9v2.8h4.8c.4 0 .5.1.5.5v.7c0 .4-.1.5-.5.5h-6.1c-.4 0-.5-.1-.5-.5v-9.6c0-.4.1-.5.5-.5h5.9zM153.7 187.5c.1.3 0 .5-.3.5h-.8c-.6 0-.8-.1-.9-.5l-.7-1.9h-4.1l-.7 1.9c-.1.4-.3.5-.9.5h-.7c-.3 0-.5-.2-.3-.5l3.8-9.7c.1-.3.3-.4.6-.4h.8c.4 0 .5.1.6.4l3.6 9.7zm-4.4-6.6c-.2-.5-.3-1.2-.3-1.6v-.3h-.1c0 .6-.1 1.2-.3 1.8l-1.2 3.2h3.1l-1.2-3.1zM164.4 177.3c.4 0 .5.1.5.5v9.6c0 .4-.1.5-.5.5h-.8c-.4 0-.5-.1-.5-.5v-4.6c0-.9.1-1.9.4-3h-.1c-.3.9-.7 1.8-1.2 2.7l-1.5 2.6c-.2.2-.3.4-.6.4h-.5c-.3 0-.4-.1-.6-.4l-1.5-2.6c-.5-.8-.8-1.7-1.2-2.7h-.1c.2 1 .3 2 .3 3v4.6c0 .4-.1.5-.5.5h-.7c-.4 0-.5-.1-.5-.5v-9.6c0-.4.1-.5.5-.5h.7c.4 0 .6.1.7.4l3.1 5.6 3.1-5.6c.2-.3.3-.4.7-.4h.8z"/></g><path fill="none" stroke="#FFF" stroke-width=".5" stroke-miterlimit="10" d="M126.3 90.8l-19.7-19.7.1-.1c3.6.2 9 .6 13.2-3.6 4.3-4.3 3.2-5.3 3.2-5.3l16 16c.5.5 1.4 1.2 2.6 1.7 2.9 1.6 6.8 3.4 9.2 5.7l5.3 5.3 4.3 4.3c1.2 1.2 1.2 3.1 0 4.3s-3.1 1.2-4.3 0c1.2 1.2 1.2 3.1 0 4.3-1.2 1.2-3.1 1.2-4.3 0 1.2 1.2 1.2 3.1 0 4.3-1.2 1.2-3.1 1.2-4.3 0 1.2 1.2 1.2 3.1 0 4.3-1.2 1.2-3.1 1.2-4.3 0L139 108c-.4 2.5-3.2 3.2-3.2 3.2s-1.1 1.1-5.3-3.2c-4.4-4.4-3.7-9.7-3.6-13.4.1-1.7 0-3.1-.6-3.8zM98.6 37.5l4.3 4.3-5.3 5.3c-2.3 2.3-4 6.4-5.7 9.2l-6-6 12.7-12.8z"/><path fill="none" stroke="#FFF" stroke-width=".5" stroke-miterlimit="10" d="M102.8 71.7L83.1 91.4l-.1.1c.2-3.6.7-9.1-3.6-13.4-4.3-4.3-5.3-3.2-5.3-3.2l16-16c.5-.5 1.2-1.4 1.7-2.6 1.6-2.9 3.4-6.8 5.7-9.2l5.3-5.3 4.3-4.3c1.2-1.2 3.1-1.2 4.3 0 1.2 1.2 1.2 3.1 0 4.3 1.2-1.2 3.1-1.2 4.3 0 1.2 1.2 1.2 3.1 0 4.3 1.2-1.2 3.1-1.2 4.3 0 1.2 1.2 1.2 3.1 0 4.3 1.2-1.2 3.1-1.2 4.3 0 1.2 1.2 1.2 3.1 0 4.3L120 59c2.5.4 3.2 3.2 3.2 3.2s1.1 1.1-3.2 5.3c-4.4 4.4-9.7 3.7-13.2 3.6-2-.2-3.4-.1-4 .6zm-34.5 34.5l-6 6-12.8-12.8 4.3-4.3 5.3 5.3c2.4 2.4 6.4 4.1 9.2 5.8zM90 127.1c-2.5-.4-3.2-3.2-3.2-3.2s-1.1-1.1 3.2-5.3c4.4-4.4 9.7-3.7 13.3-3.7 1.7 0 3.1.1 3.7-.5l19.7-19.7.1-.1c-.2 3.6-.7 9.1 3.6 13.4 4.3 4.3 5.3 3.2 5.3 3.2l-16 16c-.5.5-1.2 1.4-1.7 2.6-1.6 2.9-3.4 6.8-5.7 9.2l-5.3 5.3-4.3 4.3c-1.2 1.2-3.1 1.2-4.3 0-1.2-1.2-1.2-3.1 0-4.3-1.2 1.2-3.1 1.2-4.3 0-1.2-1.2-1.2-3.1 0-4.3-1.2 1.2-3.1 1.2-4.3 0-1.2-1.2-1.2-3.1 0-4.3-1.2 1.2-3.1 1.2-4.3 0-1.2-1.2-1.2-3.1 0-4.3l4.5-4.3zm57.6-53.3l12.8 12.8-4.3 4.3-5.3-5.3c-2.3-2.3-6.4-4-9.2-5.7l6-6.1z"/><path fill="none" stroke="#FFF" stroke-width=".5" stroke-miterlimit="10" d="M118.2 129.7l6 6-12.8 12.8-4.3-4.3 5.3-5.3c2.4-2.4 4.1-6.5 5.8-9.2zM70.8 78.1c.4-2.5 3.2-3.2 3.2-3.2s1.1-1.1 5.3 3.2c4.4 4.4 3.7 9.7 3.6 13.4 0 1.7 0 3 .6 3.6l19.7 19.7c-3.6-.2-9-.6-13.3 3.7-4.3 4.3-3.2 5.3-3.2 5.3l-16-16c-.5-.5-1.4-1.2-2.6-1.7-2.9-1.6-6.8-3.4-9.2-5.7l-5.3-5.3-4.3-4.3c-1.2-1.2-1.2-3.1 0-4.3 1.2-1.2 3.1-1.2 4.3 0-1.2-1.2-1.2-3.1 0-4.3s3.1-1.2 4.3 0c-1.2-1.2-1.2-3.1 0-4.3 1.2-1.2 3.1-1.2 4.3 0-1.2-1.2-1.2-3.1 0-4.3 1.2-1.2 3.1-1.2 4.3 0l4.3 4.5z"/></svg>