<svg xmlns="http://www.w3.org/2000/svg" viewBox="-63 362.5 469 116.4"><path fill="#FFF" stroke="#5F52CA" stroke-width=".5" stroke-miterlimit="10" d="M86 404.4h18.8l3.2-14.3H90.1zM252.8 390.1h-17.9l3.3 14.3h18.7zM284.3 409.7h-19.1l5.1 16.4h20.2zM206.9 409.7h-19.2l.9 16.4h20.2z"/><path fill="none" stroke="#5F52CA" stroke-width=".5" stroke-miterlimit="10" d="M44 385.4h17.6l5-12.6H49.8zM67.8 385.4h17.5l4-12.6H72.5zM54.1 404.4l5.7-14.3H41.9l-6.6 14.3zM233.9 385.4h17.6l-3.7-12.6H231zM9.9 404.4h18.8l6.9-14.3H17.7zM319.3 368.7h16.6l-3.6-5.8H316zM186.4 385.4H204l-1.5-12.6h-16.8zM210.1 385.4h17.6l-2.5-12.6h-16.8zM162.7 385.4h17.6l-.4-12.6h-16.8zM115.2 385.4h17.6l1.8-12.6h-16.8zM139 385.4h17.5l.7-12.6h-16.8zM91.5 385.4h17.6l2.8-12.6H95.1zM209.5 432.3h-20.6l1.1 19h21.7zM181.8 432.3h-20.6l-.6 19h21.8zM154 432.3h-20.6l-2.2 19H153zM265 432.3h-20.5l4.3 19h21.7zM237.3 432.3h-20.6l2.7 19h21.7zM98.5 432.3H77.9l-5.5 19h21.8zM35.4 451.3l7.6-19H22.4l-8.8 19zM126.2 432.3h-20.5l-3.9 19h21.8zM70.7 432.3H50.2l-7.2 19h21.8zM51.9 409.7H32.8l-7.5 16.4h20.1zM111.4 404.4h18.7l2-14.3h-17.8zM72.7 426.1l5.1-16.4H58.6l-6.1 16.4zM136.7 404.4h18.8l.8-14.3h-17.9zM60.6 404.4h18.8l4.5-14.3H66zM212.8 404.4h18.8l-2.9-14.3h-17.9zM162.1 404.4h18.8l-.5-14.3h-17.9zM103.6 409.7H84.5l-4.8 16.4h20.2zM257.6 385.4h17.6l-4.7-12.6h-16.8zM292.8 432.3h-20.6l5.9 19h21.8zM187.4 404.4h18.8l-1.7-14.3h-17.8zM259.1 390.1l4.4 14.3h18.8l-5.4-14.3zM276.3 372.8l5 12.6h17.6l-5.8-12.6zM301.1 390.1h-17.9l5.7 14.3h18.8zM129.4 409.7h-19.1l-3.4 16.4h20.2zM258.5 409.7h-19.1l3.7 16.4h20.1zM232.7 409.7h-19.2l2.3 16.4H236zM155.2 409.7h-19.1l-1.9 16.4h20.1zM181 409.7h-19.1l-.5 16.4h20.2zM-23.4 451.3l10.9-19h-20.7l-12.1 19zM15.2 432.3H-5.3l-10.5 19H6zM-7.1 478.6l9.6-20.1h-22.2l-10.9 20.1zM62.6 458.5H40.3l-7.5 20.1h23.5zM32.5 458.5H10.3l-9.2 20.1h23.5zM70.3 458.5l-5.8 20.1h213.9l-5.8-20.1zM23.6 368.7l3.3-5.8H10.7L7 368.7zM331.5 390.1l5.2 9.1 2.9 5.2 12.4 21.7h20.3l-13.8-21.7-3.3-5.2-5.8-9.1zM370.4 458.5l11.4 20.1h23.7l-12.7-20.1zM302.6 458.5h-22.2l6.2 20.1h23.5zM-27.5 458.5h-22.3l-12.7 20.1h23.6zM332.6 458.5h-22.2l8 20.1h23.5zM362.6 458.5h-22.2l9.7 20.1h23.5zM320.5 432.3H300l7.5 19h21.8zM327.7 432.3l9.2 19h51.3l-12-19zM274.7 368.7h16.5l-2.6-5.8h-16.2zM252.4 368.7h16.5l-2.1-5.8h-16.2zM207.8 368.7h16.5l-1.1-5.8H207zM230.1 368.7h16.5l-1.6-5.8h-16.2zM294.2 362.9l2.8 5.8h16.5l-3.1-5.8zM291 409.7l6.5 16.4h20.2l-7.6-16.4zM315.8 372.8H299l6.1 12.6h41.4l-8-12.6zM335.9 409.7h-19.1l7.9 16.4h20.2zM185.5 368.7H202l-.6-5.8h-16.2zM307.3 390.1l6.9 14.3H333l-7.8-14.3zM96.3 368.7h16.5l1.3-5.8H98zM37.9 385.4l6-12.6H27.2l-6.9 12.6zM29.4 368.7h16.5l2.8-5.8H32.6zM-3.5 385.4h17.7l7.1-12.6H4.4zM3.4 404.4l8.1-14.3h-18l-9 14.3zM51.7 368.7h16.5l2.3-5.8H54.4zM118.6 368.7h16.5l.8-5.8h-16.1zM74 368.7h16.5l1.8-5.8H76.2zM140.9 368.7h16.5l.3-5.8h-16.1zM163.2 368.7h16.5l-.2-5.8h-16.1zM13.7 409.7h-32.6l-10.4 16.4h47.5l7.9-16.4z"/></svg>