<svg xmlns="http://www.w3.org/2000/svg" viewBox="0 0 209.9 209.9"><linearGradient id="a" gradientUnits="userSpaceOnUse" x1="176.629" y1="229.103" x2="33.267" y2="-19.207"><stop offset="0" stop-color="#b64e96"/><stop offset="1" stop-color="#5f52ca"/></linearGradient><path fill="url(#a)" d="M0 0h209.9v209.9H0z"/><g fill="#FFF"><path d="M51.6 177.3c2.2 0 3.5 1.3 3.5 3.5s-1.4 3.5-3.5 3.5H49v3.2c0 .4-.1.5-.5.5h-.9c-.4 0-.5-.1-.5-.5v-9.6c0-.4.1-.5.5-.5h4zm-.2 5.2c1.1 0 1.7-.6 1.7-1.7s-.6-1.7-1.7-1.7H49v3.4h2.4zM61.4 177.3c2.1 0 3.4 1.2 3.4 3.3 0 1.5-.7 2.6-2 3 .2.2.3.4.5.6l1.7 3.2c.2.3.1.5-.3.5h-.9c-.7 0-.8-.1-1-.5l-1.3-2.5c-.4-.8-.8-1-1.8-1h-1.1v3.5c0 .4-.1.5-.5.5h-.9c-.4 0-.5-.1-.5-.5v-9.6c0-.4.1-.5.5-.5h4.2zm1.4 3.3c0-.5-.1-.9-.4-1.2-.3-.3-.7-.4-1.2-.4h-2.6v3.1h2.6c.5 0 .9-.1 1.2-.4.2-.2.4-.6.4-1.1zM66.3 181c0-2.4 1.5-3.9 4.3-3.9 2.7 0 4.3 1.5 4.3 3.9v3.3c0 2.4-1.6 3.9-4.3 3.9-2.7 0-4.3-1.5-4.3-3.9V181zm6.7 0c0-1.4-.9-2.1-2.4-2.1s-2.4.7-2.4 2.1v3.3c0 1.4.9 2.1 2.4 2.1s2.4-.8 2.4-2.1V181zM83.2 177.3c.4 0 .5.1.5.5v6.6c0 2.3-1.4 3.7-3.8 3.7-1.9 0-3.1-.8-3.6-2.5-.1-.3 0-.5.3-.7l.8-.3c.3-.1.5-.1.6.3.3.9.8 1.4 1.8 1.4 1.3 0 1.9-.7 1.9-2v-6.7c0-.4.1-.5.5-.5h1zM92.1 177.3c.4 0 .5.1.5.5v.7c0 .4-.2.5-.5.5h-4.6v2.6h3.9c.4 0 .5.1.5.5v.7c0 .4-.1.5-.5.5h-3.9v2.8h4.8c.4 0 .5.1.5.5v.7c0 .4-.1.5-.5.5h-6.1c-.4 0-.5-.1-.5-.5v-9.6c0-.4.1-.5.5-.5h5.9zM94.1 181c0-2.4 1.5-3.9 4.3-3.9 2.1 0 3.5.8 4.1 2.5.1.3 0 .5-.3.7l-.8.3c-.4.1-.5 0-.6-.3-.3-.9-1.1-1.4-2.3-1.4-1.5 0-2.4.7-2.4 2.1v3.3c0 1.4.9 2.1 2.4 2.1 1.2 0 2-.5 2.3-1.4.2-.4.3-.5.7-.3l.8.3c.3.1.4.3.3.7-.6 1.7-1.9 2.5-4.1 2.5-2.7 0-4.3-1.5-4.3-3.9V181zM110.9 177.3c.4 0 .5.1.5.5v.7c0 .4-.1.5-.5.5h-2.6v8.4c0 .4-.1.5-.5.5h-.9c-.4 0-.5-.1-.5-.5V179h-2.6c-.4 0-.5-.1-.5-.5v-.7c0-.4.1-.5.5-.5h7.1zM125.4 177.3c.4 0 .5.1.5.5v9.6c0 .4-.1.5-.5.5h-.8c-.4 0-.5-.1-.5-.5v-4.6c0-.9.1-1.9.4-3h-.1c-.3.9-.7 1.8-1.2 2.7l-1.5 2.6c-.2.2-.3.4-.6.4h-.5c-.3 0-.4-.1-.6-.4l-1.5-2.6c-.5-.8-.8-1.7-1.2-2.7h-.1c.2 1 .3 2 .3 3v4.6c0 .4-.1.5-.5.5h-.7c-.4 0-.5-.1-.5-.5v-9.6c0-.4.1-.5.5-.5h.7c.4 0 .6.1.7.4l3.1 5.6 3.1-5.6c.2-.3.3-.4.7-.4h.8zM127.8 181c0-2.4 1.5-3.9 4.3-3.9 2.7 0 4.3 1.5 4.3 3.9v3.3c0 2.4-1.6 3.9-4.3 3.9-2.7 0-4.3-1.5-4.3-3.9V181zm6.7 0c0-1.4-.9-2.1-2.4-2.1s-2.4.7-2.4 2.1v3.3c0 1.4.9 2.1 2.4 2.1s2.4-.8 2.4-2.1V181zM142.2 177.3c2.8 0 4.3 1.5 4.3 4v2.7c0 2.5-1.6 4-4.3 4h-3.4c-.4 0-.5-.1-.5-.5v-9.6c0-.4.1-.5.5-.5h3.4zm2.5 3.9c0-1.4-.9-2.2-2.5-2.2h-2v7.1h2c1.6 0 2.5-.8 2.5-2.2v-2.7zM154.9 177.3c.4 0 .5.1.5.5v.7c0 .4-.2.5-.5.5h-4.6v2.6h3.9c.4 0 .5.1.5.5v.7c0 .4-.1.5-.5.5h-3.9v2.8h4.8c.4 0 .5.1.5.5v.7c0 .4-.1.5-.5.5H149c-.4 0-.5-.1-.5-.5v-9.6c0-.4.1-.5.5-.5h5.9zM158.7 177.3c.4 0 .5.1.5.5v8.4h4.3c.4 0 .5.1.5.5v.7c0 .4-.1.5-.5.5h-5.7c-.4 0-.5-.1-.5-.5v-9.6c0-.4.1-.5.5-.5h.9z"/></g><g clip-rule="evenodd" fill="none" stroke="#FFF" stroke-width=".5" stroke-linejoin="round" stroke-miterlimit="10"><path d="M147.3 113.8l-24.8-2.8 2.9 24.7 9.2.5 13.4-13.4z"/><path d="M147.3 113.7l-6.2 6.2-18.6-8.9zM125.4 135.7l6.2-6.1-9.1-18.6z"/><path d="M141.2 129.6l-.1-9.7-9.5 9.7zM148 122.8l-6.9-2.9 6.2-6.2z"/><path d="M134.6 136.2l-3-6.7-6.2 6.2z"/></g><g clip-rule="evenodd" fill="none" stroke="#FFF" stroke-width=".5" stroke-linejoin="round" stroke-miterlimit="10"><path d="M84.3 135.7l2.8-24.7-24.7 2.9-.5 9.2 13.4 13.4z"/><path d="M84.3 135.8l-6.2-6.2 9-18.6zM62.4 113.9l6.1 6.1 18.6-9zM68.5 129.7l9.6-.1-9.6-9.6z"/><path d="M75.3 136.5l2.8-6.9 6.2 6.2zM61.9 123.1l6.7-3.1-6.2-6.1z"/></g><g clip-rule="evenodd" fill="none" stroke="#FFF" stroke-width=".5" stroke-linejoin="round" stroke-miterlimit="10"><path d="M147.3 72.8l-24.8 2.8 2.9-24.7 9.2-.6L148 63.8z"/><path d="M147.3 72.8l-6.2-6.2-18.6 9zM125.4 50.9l6.2 6.1-9.1 18.6zM141.2 56.9l-.1 9.7-9.5-9.6z"/><path d="M148 63.8l-6.9 2.8 6.2 6.2zM134.6 50.3l-3 6.7-6.2-6.1z"/></g><g clip-rule="evenodd" fill="none" stroke="#FFF" stroke-width=".5" stroke-linejoin="round" stroke-miterlimit="10"><path d="M84.3 50.8l2.8 24.8-24.7-2.9-.5-9.2 13.4-13.4z"/><path d="M84.3 50.8L78.1 57l9 18.6zM62.4 72.7l6.1-6.2 18.6 9.1zM68.5 56.9l9.6.1-9.6 9.5z"/><path d="M75.3 50.1l2.8 6.9 6.2-6.2zM61.9 63.5l6.7 3-6.2 6.2z"/></g><g clip-rule="evenodd" fill="none" stroke="#FFF" stroke-width=".5" stroke-linejoin="round" stroke-miterlimit="10"><path d="M84.6 91.1l20.4 25.7 20.4-25.7-8.1-9h-25z"/><path d="M84.5 91.2h11.6l8.9 25.6zM125.4 91.1h-11.5l-8.9 25.7zM105 82.1l-8.9 9.1 17.8-.1zM92.3 82.1l3.8 9.1H84.5z"/><path d="M117.3 82.1l-3.4 9.1 11.5-.1z"/></g></svg>