<svg xmlns="http://www.w3.org/2000/svg" viewBox="0 0 209.9 209.9"><linearGradient id="a" gradientUnits="userSpaceOnUse" x1="176.629" y1="229.103" x2="33.267" y2="-19.207"><stop offset="0" stop-color="#b64e96"/><stop offset="1" stop-color="#5f52ca"/></linearGradient><path fill="url(#a)" d="M0 0h209.9v209.9H0z"/><g fill="#FFF"><path d="M50.6 177.3c.4 0 .5.1.5.5v.7c0 .4-.1.5-.5.5H48v8.4c0 .4-.1.5-.5.5h-.9c-.4 0-.5-.1-.5-.5V179h-2.6c-.4 0-.5-.1-.5-.5v-.7c0-.4.1-.5.5-.5h7.1zM59 177.3c.4 0 .5.1.5.5v.7c0 .4-.2.5-.5.5h-4.6v2.6h3.9c.4 0 .5.1.5.5v.7c0 .4-.1.5-.5.5h-3.9v2.8h4.8c.4 0 .5.1.5.5v.7c0 .4-.1.5-.5.5H53c-.4 0-.5-.1-.5-.5v-9.6c0-.4.1-.5.5-.5h6zM70.2 187.5c.1.3 0 .5-.3.5h-.8c-.6 0-.8-.1-.9-.5l-.7-1.9h-4.1l-.7 1.9c-.1.4-.3.5-.9.5H61c-.3 0-.5-.2-.3-.5l3.8-9.7c.1-.3.3-.4.6-.4h.8c.4 0 .5.1.6.4l3.7 9.7zm-4.4-6.6c-.2-.5-.3-1.2-.3-1.6v-.3h-.1c0 .6-.1 1.2-.3 1.8l-1.2 3.2H67l-1.2-3.1zM80.9 177.3c.4 0 .5.1.5.5v9.6c0 .4-.1.5-.5.5h-.8c-.4 0-.5-.1-.5-.5v-4.6c0-.9.1-1.9.4-3h-.1c-.3.9-.7 1.8-1.2 2.7l-1.5 2.6c-.2.2-.3.4-.6.4h-.5c-.3 0-.4-.1-.6-.4l-1.5-2.6c-.5-.8-.8-1.7-1.2-2.7h-.1c.2 1 .3 2 .3 3v4.6c0 .4-.1.5-.5.5h-.7c-.4 0-.5-.1-.5-.5v-9.6c0-.4.1-.5.5-.5h.7c.4 0 .6.1.7.4l3.1 5.6 3.1-5.6c.2-.3.3-.4.7-.4h.8zM93.6 177.3c.4 0 .5.1.5.5v.7c0 .4-.2.5-.5.5H89v2.6h3.9c.4 0 .5.1.5.5v.7c0 .4-.1.5-.5.5H89v2.8h4.8c.4 0 .5.1.5.5v.7c0 .4-.1.5-.5.5h-6.1c-.4 0-.5-.1-.5-.5v-9.6c0-.4.1-.5.5-.5h5.9zM104.3 187.4c.2.3.1.5-.2.5H103c-.6 0-.8 0-1-.5l-2.3-3.5-2.2 3.5c-.3.4-.4.5-1 .5h-1c-.4 0-.4-.2-.3-.5l3.3-4.9-3.2-4.7c-.2-.2-.1-.5.3-.5h1c.6 0 .7.1 1 .4l2.1 3.3 2.1-3.3c.3-.4.4-.4.9-.4h1c.3 0 .4.2.2.5l-3.2 4.7 3.6 4.9zM112.4 177.3c.4 0 .5.1.5.5v.7c0 .4-.1.5-.5.5h-2.6v8.4c0 .4-.1.5-.5.5h-.9c-.4 0-.5-.1-.5-.5V179h-2.6c-.4 0-.5-.1-.5-.5v-.7c0-.4.1-.5.5-.5h7.1zM120.8 177.3c.4 0 .5.1.5.5v.7c0 .4-.2.5-.5.5h-4.6v2.6h3.9c.4 0 .5.1.5.5v.7c0 .4-.1.5-.5.5h-3.9v2.8h4.8c.4 0 .5.1.5.5v.7c0 .4-.1.5-.5.5h-6.1c-.4 0-.5-.1-.5-.5v-9.6c0-.4.1-.5.5-.5h5.9zM131 177.3c.4 0 .5.1.5.5v9.6c0 .4-.1.5-.5.5h-.9c-.2 0-.4-.1-.5-.3l-3.7-5.4c-.6-.9-1.3-2.6-1.2-2.5h-.1s.3 1.7.3 3v4.7c0 .4-.1.5-.5.5h-.8c-.4 0-.5-.1-.5-.5v-9.6c0-.4.1-.5.5-.5h.9c.2 0 .4.1.5.2l3.6 5.4c.7 1 1.3 2.6 1.3 2.5h.1s-.3-1.7-.3-3v-4.6c0-.4.1-.5.5-.5h.8zM137.5 177.1c2.1 0 3.2.7 3.9 2.3.2.3.1.5-.3.7l-.8.4c-.3.1-.5.1-.6-.3-.4-.8-1-1.3-2.2-1.3-1.5 0-2.2.5-2.2 1.4-.1.8.8 1.2 1.6 1.3.5.1 1.5.2 2.1.3.6.1 1.4.4 1.9.8s.8 1.2.8 2.1c0 2-1.6 3.4-4.3 3.4-2.3 0-3.5-.8-4.1-2.5-.1-.4 0-.5.3-.7l.8-.3c.3-.1.5 0 .6.3.4.9 1.2 1.4 2.3 1.4 1.6 0 2.4-.5 2.4-1.6 0-.7-.6-1.1-1.2-1.2-.3-.1-.7-.1-1.2-.2-.7-.1-1-.1-1.6-.2-.6-.1-1-.3-1.4-.6-.7-.4-1-1.1-1-2.3.1-1.9 1.6-3.2 4.2-3.2zM143.4 177.8c0-.4.1-.5.5-.5h.9c.4 0 .5.1.5.5v9.6c0 .4-.1.5-.5.5h-.9c-.4 0-.5-.1-.5-.5v-9.6zM147.2 181c0-2.4 1.5-3.9 4.3-3.9 2.7 0 4.3 1.5 4.3 3.9v3.3c0 2.4-1.6 3.9-4.3 3.9-2.7 0-4.3-1.5-4.3-3.9V181zm6.7 0c0-1.4-.9-2.1-2.4-2.1s-2.4.7-2.4 2.1v3.3c0 1.4.9 2.1 2.4 2.1s2.4-.8 2.4-2.1V181zM165.5 177.3c.4 0 .5.1.5.5v9.6c0 .4-.1.5-.5.5h-.9c-.2 0-.4-.1-.5-.3l-3.7-5.4c-.6-.9-1.3-2.6-1.2-2.5h-.1s.3 1.7.3 3v4.7c0 .4-.1.5-.5.5h-.8c-.4 0-.5-.1-.5-.5v-9.6c0-.4.1-.5.5-.5h.9c.2 0 .4.1.5.2l3.6 5.4c.7 1 1.3 2.6 1.3 2.5h.1s-.3-1.7-.3-3v-4.6c0-.4.1-.5.5-.5h.8z"/></g><circle fill="none" stroke="#FFF" stroke-width=".5" stroke-miterlimit="10" cx="104.9" cy="94" r="7.7"/><g fill="none" stroke="#FFF" stroke-width=".5" stroke-miterlimit="10"><path d="M144.2 77.9l4.3-27.5-27.4 4.3 19.1 4.1zM140.2 58.8l-29.7 29.7"/></g><g fill="none" stroke="#FFF" stroke-width=".5" stroke-miterlimit="10"><path d="M65.7 110.1l-4.3 27.4 27.5-4.3-19.1-4zM69.8 129.2l29.7-29.7"/></g><g fill="none" stroke="#FFF" stroke-width=".5" stroke-miterlimit="10"><path d="M88.9 54.7l-27.5-4.3 4.3 27.5 4.1-19.1zM69.8 58.8l29.7 29.7"/></g><g fill="none" stroke="#FFF" stroke-width=".5" stroke-miterlimit="10"><path d="M121 133.2l27.5 4.3-4.3-27.4-4.1 19.1zM140.1 129.2l-29.7-29.7"/></g></svg>