<svg xmlns="http://www.w3.org/2000/svg" viewBox="-105 154.6 789 529.2"><path fill="#FFF" stroke="#5F52CA" stroke-width=".86" stroke-miterlimit="10" d="M-18.4 424.4c0-18.3 2.8-35.9 7.9-52.5 22.4-72.2 89.7-124.6 169.2-124.6"/><circle fill="#FFF" cx="448.4" cy="519.3" r="141"/><circle fill="none" stroke="#5F52CA" stroke-width=".86" stroke-miterlimit="10" cx="448.4" cy="519.3" r="141"/><circle fill="#FFF" stroke="#5F52CA" stroke-width=".86" stroke-miterlimit="10" cx="345.6" cy="571.2" r="108.9"/><g fill="#FFF" stroke="#5F52CA" stroke-width=".86" stroke-miterlimit="10"><path d="M358 605.2c0 3.4-1.4 6.5-3.6 8.7-2.2 2.2-5.3 3.6-8.7 3.6-3.4 0-6.5-1.4-8.7-3.6-2.2-2.2-3.6-5.3-3.6-8.7s1.4-6.5 3.6-8.7c2.2-2.2 5.3-3.6 8.7-3.6 3.4 0 6.5 1.4 8.7 3.6 2.2 2.2 3.6 5.3 3.6 8.7zM313.1 585c4.2-4.2 9.1-7.5 14.6-9.9 5.5-2.3 11.6-3.6 17.9-3.6 6.4 0 12.4 1.3 17.9 3.6 5.5 2.3 10.5 5.7 14.6 9.9M296.6 568.5c6.3-6.3 13.7-11.4 22-14.9s17.4-5.5 27-5.5c9.6 0 18.7 1.9 27 5.5 8.3 3.5 15.8 8.6 22 14.9"/><path d="M280.1 552c8.4-8.4 18.4-15.2 29.5-19.9 11.1-4.7 23.3-7.3 36.1-7.3s25 2.6 36.1 7.3a93.07 93.07 0 0 1 29.5 19.9"/></g><circle fill="#FFF" stroke="#5F52CA" stroke-width=".86" stroke-miterlimit="10" cx="79.7" cy="569.1" r="50.6"/><path fill="#FFF" stroke="#5F52CA" stroke-width=".86" stroke-miterlimit="10" d="M100.3 571c.1-1.1.1-1.9.1-1.9s0-.7-.1-1.8c.4-.2.9-.5 1.4-.7 1.2-.6 2.3-1.4 2.3-1.4s-.1-.4-.1-.9c-.1-.5-.3-1.3-.5-2s-.5-1.4-.7-1.9c-.1-.3-.2-.5-.2-.6l-.1-.2s-1.4 0-2.7.1c-.6 0-1.2.1-1.6.1-.2-.5-.5-.9-.7-1.2-.2-.3-.3-.4-.3-.4s-.1-.2-.3-.4c-.2-.3-.5-.6-.8-1.1.2-.4.5-.9.8-1.4l1.2-2.4s-.3-.3-.6-.7c-.4-.4-.9-.9-1.5-1.4-.5-.5-1.2-.9-1.6-1.3-.4-.3-.7-.6-.7-.6s-1.2.7-2.2 1.5c-.5.3-.9.7-1.3 1-.5-.3-.9-.5-1.2-.6-.3-.1-.5-.2-.5-.2s-.2-.1-.5-.2-.7-.3-1.2-.5c0-.5 0-1-.1-1.6-.1-1.3-.3-2.7-.3-2.7s-.4-.1-.9-.2c-.5-.2-1.3-.2-2-.4-.4-.1-.7-.1-1.1-.1-.3 0-.7 0-.9-.1h-.9s-.6 1.2-1.1 2.5c-.2.6-.4 1.1-.5 1.5-.5 0-1 0-1.3.1-.3 0-.5.1-.5.1s-.2 0-.5.1c-.3 0-.8.1-1.3.3-.3-.4-.6-.9-.9-1.3-.4-.5-.8-1.1-1.2-1.5-.3-.4-.6-.6-.6-.6l-.9.3c-.5.2-1.2.4-1.9.8-.7.3-1.4.6-1.8.9-.5.3-.8.5-.8.5l.4 2.6c.1.6.3 1.1.4 1.6-.4.3-.8.6-1.1.8-.2.2-.4.3-.4.3s-.1.1-.4.3c-.2.2-.6.5-1 .9-.4-.2-1-.4-1.5-.6-1.2-.5-2.6-.8-2.6-.8l-.2.2c-.1.1-.2.3-.4.5-.3.5-.8 1-1.2 1.7-.4.6-.8 1.3-1 1.8-.2.5-.4.8-.4.8l1.8 2c.4.4.8.8 1.2 1.1-.2.5-.3.9-.5 1.2-.1.1-.1.3-.1.4v.1s-.2.7-.4 1.8c-.5.1-1 .2-1.6.3-1.3.3-2.6.7-2.6.7s-.1.4-.1.9c0 .6-.1 1.3-.1 2s.1 1.5.1 2c0 .6.1.9.1.9s1.3.4 2.6.7c.6.1 1.1.2 1.6.3.2 1.1.4 1.8.4 1.8v.1c0 .1 0 .2.1.4.1.3.3.7.5 1.2-.4.3-.8.7-1.2 1.1-.9.9-1.8 2-1.8 2s.2.3.4.8c.3.5.7 1.1 1 1.8.4.6.9 1.2 1.2 1.7.2.2.3.4.4.5l.2.2 2.6-.8c.6-.2 1.1-.4 1.5-.6.4.4.7.7 1 .9.2.2.4.3.4.3s.1.1.4.3c.3.2.6.5 1.1.8-.1.5-.3 1-.4 1.6-.3 1.3-.4 2.6-.4 2.6s.3.2.8.5 1.2.6 1.8.9c.7.3 1.4.6 1.9.8.5.2.9.3.9.3l.6-.6c.3-.4.8-.9 1.2-1.5.4-.5.7-.9.9-1.3.5.2 1 .2 1.3.3.3 0 .5.1.5.1s.2 0 .5.1.8.1 1.3.1c.1.4.3 1 .5 1.5.5 1.3 1.1 2.5 1.1 2.5h.9c.3 0 .6 0 .9-.1.3 0 .7-.1 1.1-.1.7-.1 1.5-.2 2-.4.5-.1.9-.2.9-.2s.2-1.3.3-2.7c0-.6.1-1.2.1-1.6.5-.2 1-.3 1.2-.5.3-.1.5-.2.5-.2s.2-.1.5-.2c.3-.2.7-.3 1.2-.6.4.3.8.6 1.3 1 1.1.8 2.2 1.5 2.2 1.5s.3-.2.7-.6c.4-.3 1.1-.7 1.6-1.3.5-.5 1.1-1 1.5-1.4.4-.4.6-.7.6-.7s-.5-1.2-1.2-2.4c-.3-.5-.6-1-.8-1.4.3-.4.6-.8.8-1.1.2-.3.3-.4.3-.4s.1-.2.3-.4c.2-.3.4-.7.7-1.2.5.1 1 .1 1.6.1 1.3.1 2.7.1 2.7.1s0-.1.1-.2c.1-.2.1-.4.2-.6.2-.5.5-1.2.7-1.9.2-.7.4-1.4.5-2 .1-.5.1-.9.1-.9s-1.1-.8-2.3-1.4c-.5-.1-1-.4-1.4-.6zm-20.6 10.3c-6.7 0-12.2-5.5-12.2-12.2 0-6.7 5.5-12.2 12.2-12.2 6.7 0 12.2 5.5 12.2 12.2-.1 6.7-5.5 12.2-12.2 12.2z"/><circle fill="#FFF" stroke="#5F52CA" stroke-width=".86" stroke-miterlimit="10" cx="-29.9" cy="429.1" r="69.3"/><path fill="#FFF" d="M16.6 429.1c0 25.6-20.8 46.4-46.4 46.4s-46.4-20.8-46.4-46.4c0-25.6 20.3-46.4 46.4-46.4 25.6-.1 46.4 20.7 46.4 46.4z"/><path fill="none" stroke="#5F52CA" stroke-width=".86" stroke-miterlimit="10" d="M16.6 429.1c0 25.6-20.8 46.4-46.4 46.4s-46.4-20.8-46.4-46.4c0-25.6 20.3-46.4 46.4-46.4 25.6-.1 46.4 20.7 46.4 46.4z"/><circle fill="#FFF" stroke="#5F52CA" stroke-width=".86" stroke-miterlimit="10" cx="159.9" cy="425.6" r="156.1"/><path fill="#FFF" stroke="#5F52CA" stroke-width=".86" stroke-miterlimit="10" d="M74.8 215.6l4.4 9 9.9 1.4-7.1 6.9 1.6 9.8-8.8-4.6-8.8 4.6 1.7-9.8-7.1-6.9 9.8-1.4z"/><g fill="#FFF" stroke="#5F52CA" stroke-width=".86" stroke-miterlimit="10"><path d="M195.1 495.4h-70.3c-3.3 0-5.9-2.7-5.9-5.9V361.7c0-3.3 2.7-5.9 5.9-5.9h70.3c3.3 0 5.9 2.7 5.9 5.9v127.8c0 3.3-2.6 5.9-5.9 5.9z"/><path d="M118.8 369.1H201v105.5h-82.2z"/><circle cx="159.9" cy="485" r="4.1"/><g><path d="M182.7 427.6h-45.6V416c0-2 1.6-3.6 3.6-3.6h38.5c2 0 3.6 1.6 3.6 3.6v11.6z"/><circle cx="159.9" cy="393.9" r="11.8"/></g><g><path d="M159.9 441.1v18.1M169 450.2h-18.2"/></g></g><circle fill="#FFF" stroke="#5F52CA" stroke-width=".86" stroke-miterlimit="10" cx="215.3" cy="555.5" r="75.7"/><circle fill="#FFF" stroke="#5F52CA" stroke-width=".86" stroke-miterlimit="10" cx="591.8" cy="429.1" r="88.6"/><circle fill="#FFF" stroke="#5F52CA" stroke-width=".86" stroke-miterlimit="10" cx="197" cy="239.4" r="56.4"/><circle fill="#FFF" stroke="#5F52CA" stroke-width=".86" stroke-miterlimit="10" cx="375.8" cy="335.3" r="171.7"/><circle fill="#FFF" stroke="#5F52CA" stroke-width=".86" stroke-miterlimit="10" cx="448.4" cy="519.3" r="115.1"/><path fill="#FFF" stroke="#5F52CA" stroke-width=".86" stroke-miterlimit="10" d="M217.6 222.4c-4.7-4.7-12.4-4.7-17.1 0l-3.5 3.5-3.5-3.5c-4.7-4.7-12.4-4.7-17.1 0-4.7 4.7-4.7 12.4 0 17.1L197 260l20.5-20.5c2.4-2.4 3.5-5.4 3.5-8.5s-1.1-6.3-3.4-8.6zM8.8 521.4c-4.7-4.7-12.4-4.7-17.1 0l-3.5 3.5-3.5-3.5c-4.7-4.7-12.4-4.7-17.1 0-4.7 4.7-4.7 12.4 0 17.1l20.5 20.5 20.5-20.5c2.4-2.4 3.5-5.4 3.5-8.5s-.9-6.3-3.3-8.6z"/><g fill="#FFF" stroke="#5F52CA" stroke-width=".86" stroke-miterlimit="10"><path d="M-10.1 418.7c0 10.9-19.8 40.6-19.8 40.6s-19.8-29.6-19.8-40.6 8.9-19.8 19.8-19.8 19.8 8.9 19.8 19.8z"/><circle cx="-29.9" cy="418.7" r="11.3"/></g><g fill="#FFF" stroke="#5F52CA" stroke-width=".86" stroke-miterlimit="10"><circle cx="215.3" cy="555.5" r="31.1"/><ellipse cx="215.3" cy="555.5" rx="15.9" ry="31.1"/><path d="M215.3 524.4v62.2M184.2 555.5h62.2M215.3 586.6c7.9 0 15.1-3 20.6-7.8-5.1-6.3-12.4-10.3-20.6-10.3-8.2 0-15.5 4-20.6 10.3 5.5 4.8 12.7 7.8 20.6 7.8zM215.3 524.4c-7.9 0-15.1 3-20.6 7.8 5.1 6.3 12.4 10.3 20.6 10.3 8.2 0 15.5-4 20.6-10.3-5.6-4.9-12.7-7.8-20.6-7.8z"/></g><g fill="#FFF" stroke="#5F52CA" stroke-width=".86" stroke-miterlimit="10"><path d="M624.7 395h-65.9c-3.6 0-6.6 3-6.6 6.6v29.9c0 3.6 3 6.6 6.6 6.6h22.6l10.4 25.1 10.4-25.1h22.6c3.7 0 6.6-3 6.6-6.6v-29.9c-.1-3.7-3-6.6-6.7-6.6z"/><circle cx="570" cy="416.1" r="6.9"/><circle cx="591.8" cy="416.1" r="6.9"/><circle cx="613.6" cy="416.1" r="6.9"/></g><g fill="#FFF" stroke="#5F52CA" stroke-width=".86" stroke-miterlimit="10"><path d="M494.6 341.1H387.1v-60.4c0-2.1 1.7-3.9 3.9-3.9h99.8c2.1 0 3.9 1.7 3.9 3.9v60.4z"/><path d="M392 284.6h97.5v48.8H392zM499.1 349.8H382.5c-2.4 0-4.3-1.9-4.3-4.3V341h125.2v4.5c0 2.4-1.9 4.3-4.3 4.3z"/><path d="M449.223 314.932l3.96-3.96 7 7-3.96 3.96z" stroke-width=".8599914000000001"/><path d="M452.6 314.4l-3.4 9.3-6.6-19.4 19.3 6.7z"/></g><g fill="#FFF" stroke="#5F52CA" stroke-width=".86" stroke-miterlimit="10"><path d="M608.4 293.1l-12.8 6.1M595.6 277.2l13.1 5.5"/><circle cx="618.7" cy="288.2" r="11.4"/><circle cx="585.3" cy="272.3" r="11.4"/><circle cx="585.3" cy="304.1" r="11.4"/></g><circle fill="#FFF" stroke="#5F52CA" stroke-width=".86" stroke-miterlimit="10" cx="448.4" cy="519.3" r="70.4"/><g fill="#FFF" stroke="#5F52CA" stroke-width=".86" stroke-miterlimit="10"><path d="M103.2 364.2c0-3.6.7-7.1 2-10.5 1.4-3.3 3.4-6.5 6.1-9.2 2.7-2.7 5.9-4.8 9.2-6.1 3.3-1.4 6.9-2 10.5-2M89.1 364.2c0-5.4 1-10.7 3.1-15.8 2-5 5.1-9.8 9.2-13.9s8.8-7.2 13.9-9.2c5-2 10.4-3.1 15.8-3.1"/><path d="M75 364.2c0-7.2 1.4-14.3 4.1-21.1 2.7-6.7 6.8-13.1 12.3-18.5 5.5-5.5 11.8-9.6 18.5-12.3 6.7-2.7 13.9-4.1 21.1-4.1"/></g><g fill="#FFF" stroke="#5F52CA" stroke-width=".86" stroke-miterlimit="10"><path d="M260.4 154.6v18.1M269.5 163.6h-18.2"/></g><g fill="#FFF" stroke="#5F52CA" stroke-width=".86" stroke-miterlimit="10"><path d="M140.6 610.6v18.2M149.7 619.7h-18.1"/></g><g fill="#FFF" stroke="#5F52CA" stroke-width=".86" stroke-miterlimit="10"><path d="M487.4 549.8h-77.9v-38.9l38.9-24.2 39 24.2z"/><path d="M409.5 549.8l38.9-28.7 39 28.7M409.5 510.9l29.4 17.3M458 528.2l29.4-17.3"/></g></svg>