<?xml version="1.0" encoding="UTF-8" standalone="no"?>
<svg width="2492px" height="1019px" viewBox="0 0 2492 1019" version="1.1" xmlns="http://www.w3.org/2000/svg" xmlns:xlink="http://www.w3.org/1999/xlink">
    <g id="Page-1" stroke="none" stroke-width="1" fill="none" fill-rule="evenodd">
        <g id="Artboard-4" transform="translate(-217.000000, -398.000000)" stroke="#FFFFFF" stroke-width="10" stroke-linecap="round" opacity="0.135611007" stroke-linejoin="round" stroke-dasharray="21">
            <path d="M1763.45297,840.27263 C1763.45297,840.27263 1808.21717,840.27263 1863.44726,840.27263 L2603.03025,840.27263 C2658.25557,840.27263 2703.02454,885.03944 2703.02454,940.272429 L2703.02454,1311.72956 C2703.02454,1366.95792 2658.25157,1411.72936 2603.0198,1411.72936 L1102.54838,1411.72936 C1047.31729,1411.72936 1002.54364,1366.96161 1002.54364,1311.72801 L1002.54364,503.014075 C1002.54364,447.784859 957.765539,403.012733 902.543475,403.012733 L322.458925,403.012733 C267.230359,403.012733 222.45876,447.785271 222.45876,503.010051 L222.45876,667.311856 C222.45876,722.538849 267.238457,767.309174 322.454683,767.309174 L482.677288,767.309174 C537.903511,767.309174 582.673211,812.089 582.673211,867.304841 L582.673211,1076.41491" id="contact-bg-pattern"></path>
        </g>
    </g>
</svg>
