<svg xmlns="http://www.w3.org/2000/svg" width="928" height="767">
  <defs>
    <linearGradient id="a" x1="-14.604%" x2="130.379%" y1="35.713%" y2="35.713%">
      <stop stop-color="#B24E98" offset="0%"/>
      <stop stop-color="#7F51B9" offset="100%"/>
    </linearGradient>
  </defs>
  <g fill="none" fill-rule="evenodd">
    <g id='contact-envelop-shadow'>
      <g transform="translate(9, 668)" fill="#000000">
        <path d="M0,32 L919,32 L459.5,85 L0,32 Z" id="Triangle-2" fill-opacity="0.1"></path>
        <path d="M887.792573,0.423406959 L916,32 L1,32 L29.2074268,0.423406959 L887.792573,0.423406959 Z"  fill-opacity="0.1"></path>
      </g>
    </g>
    <path fill="#DADFE1" d="M892 45.368v478.627C892 548.85 871.848 569 847.01 569H68.99C44.144 569 24 548.854 24 523.995V44.855l-6.005 6.228 3.945-30.21L42.365 8.727C49.822 3.24 59.03 0 68.99 0h778.02c6.723 0 13.103 1.475 18.832 4.12L865.83 4l.958.57c2.178 1.068 4.257 2.307 6.22 3.7l19.705 11.72 3.945 30.208-4.658-4.83z"/>
    <rect width="916" height="600" y="14" fill="url(#a)" rx="45"/>
  </g>
</svg>
