<svg xmlns="http://www.w3.org/2000/svg" width="70%" viewBox="0 0 916 767"><defs><linearGradient id="down-envelop" x1="-14.604%" x2="130.379%" y1="35.713%" y2="35.713%"><stop stop-color="#B24E98" offset="0%"/><stop stop-color="#7F51B9" offset="100%"/></linearGradient></defs><g fill="none" fill-rule="evenodd"><g fill="#000"><path d="M0 699l919 1-459.5 46L0 700z"/><path d="M887.793 668.423L916 700H1l28.207-31.577h858.586z"/></g><path fill="#DADFE1" d="M892 45.368v478.627C892 548.85 871.848 569 847.01 569H68.99C44.144 569 24 548.854 24 523.995V44.855l-6.005 6.228 3.945-30.21L42.365 8.727A44.77 44.77 0 0168.99 0h778.02a44.812 44.812 0 0118.832 4.12L865.83 4l.958.57a44.929 44.929 0 016.22 3.7l19.705 11.72 3.945 30.208-4.658-4.83z"/><rect width="916" height="600" y="14" fill="url(#down-envelop)" rx="45"/></g></svg>