<svg xmlns="http://www.w3.org/2000/svg" viewBox="-181.8 142.1 558.6 558.6"><linearGradient id="github-svg" gradientUnits="userSpaceOnUse" x1="-186.049" y1="665.446" x2="208.951" y2="270.446" gradientTransform="scale(1 -1) rotate(45 1125.103 128.353)"><stop offset="0" stop-color="#b64e96"/><stop offset="1" stop-color="#5f52ca"/></linearGradient><path fill="url(#github-svg)" d="M-181.8 419L97.5 139.7 376.8 419 97.5 698.3z"/><path fill="#FFF" d="M163.5 533c-2.9-2.9-10.5-10.4-20.7-20.4-26.2 40.7-56.8 24.3-56.8 24.3-19.4-8.6-31-4.3-31-4.3-18.5 3.5-6.6-8.1-6.6-8.1 12.9-11.2 30.9-6 30.9-6 29.2 7.7 41.4-15.1 45.1-25-6.8-8.9-9-17.3-8.6-23.8-29.8 23.5-68.3 41.3-114.6-5-13.2-13.3-19.3-28.7-20.1-44.9-4.3-1.8-20.7-10-30.8-33.2 0 0 6.9-13.4 45.5-20.8 6.9-12.3 15.9-24 26.2-34.2 10.3-10.2 21.9-19.1 34.3-26.1C63.6 266.9 77 260 77 260c23.3 10.1 31.3 26.5 33.2 30.8 16.2.8 31.6 6.9 44.8 20.1 46.5 46.5 28.6 84.9 4.7 114.7 8.1-.6 19.3 2.9 30.6 14.2 16.2 16.2 29.1 29.3 33 33.3L163.5 533z"/></svg>