<svg xmlns="http://www.w3.org/2000/svg" viewBox="-181.8 142.1 558.6 558.6"><linearGradient id="linkedin-svg" gradientUnits="userSpaceOnUse" x1="-103.573" y1="584.969" x2="291.427" y2="189.969" gradientTransform="scale(1 -1) rotate(45 1072.103 -12.648)"><stop offset="0" stop-color="#b64e96"/><stop offset="1" stop-color="#5f52ca"/></linearGradient><path fill="url(#linkedin-svg)" d="M-181.8 421.4L97.5 142.1l279.3 279.3L97.5 700.7z"/><path fill="#FFF" d="M132.4 558.2c3.4 3.4 3.3 8.8 0 12.2l-26 26c-3.4 3.4-8.8 3.3-12.2 0L-16.3 485.7c-3.4-3.4-3.3-8.8 0-12.2l26-26c3.4-3.4 8.8-3.3 12.2 0l110.5 110.7zM-20.4 443.7c-11.6 12-31.7 12.5-44.3 0-12.2-12.2-12-32.1.2-44.3 12.1-12.1 32-12.1 44.3.1 12.8 12.7 11.7 32.9-.2 44.2zm299.6-25.1c1.4 1.4 1.4 3.7 0 5.1L246 456.9c-1.4 1.4-3.7 1.4-5.1 0l-68.3-68.3c-5.9-5.9-13.6-8.8-21.4-8.8s-15.7 3-21.6 9.1c-11.6 11.9-11.2 31 .5 42.8l68 68c1.4 1.4 1.4 3.7 0 5.1l-33 33c-1.4 1.4-3.7 1.4-5.1 0L42.3 420c-1.4-1.4-1.4-3.7 0-5.1l32.3-32.3c1.4-1.4 3.7-1.4 5.1 0l13.6 13.6s.1-.1.4-.3c-.5-1.8-.9-3.5-1.2-5.3-3-16.4 2-33.9 14.6-46.6l6.6-6.6c23.2-23.2 60.8-23.2 84 0l81.5 81.2z"/></svg>