<svg width="19" height="18" viewBox="0 0 19 18" fill="none" xmlns="http://www.w3.org/2000/svg">
<g clip-path="url(#clip0_817_35)">
<path d="M12.912 3.46902e-06C15.4807 -0.00495248 17.8464 1.65033 18.6333 4.05892C19.4202 6.45265 18.9303 8.59857 17.1733 10.3976C14.7828 12.8458 12.3429 15.2495 9.9227 17.6729C9.43768 18.1586 8.76459 18.0942 8.47258 17.5341C8.29936 17.2021 8.3439 16.88 8.57157 16.5876C8.63096 16.5083 8.7052 16.4438 8.77448 16.3745C11.1402 14.0055 13.5059 11.6316 15.8766 9.26267C16.812 8.32599 17.297 7.21091 17.2525 5.88767C17.1782 3.71201 15.4064 1.89813 13.2337 1.76432C11.8875 1.68007 10.7393 2.12115 9.79402 3.07269C7.37386 5.48624 4.94875 7.90474 2.53849 10.3332C1.15271 11.7307 1.60309 13.9609 3.41944 14.6498C4.37464 15.0116 5.30014 14.8678 6.04252 14.1641C7.20064 13.0688 8.30431 11.924 9.43273 10.799C10.576 9.65419 11.7193 8.51432 12.8576 7.36454C13.2139 7.00771 13.2684 6.5369 13.0061 6.18007C12.6745 5.72908 12.0806 5.69934 11.65 6.1206C10.8927 6.86895 10.1454 7.62721 9.39314 8.38051C8.7052 9.06939 8.01726 9.75826 7.32932 10.4422C6.95813 10.8089 6.46815 10.8436 6.10686 10.5363C5.71093 10.2043 5.70103 9.62445 6.09696 9.22302C6.55724 8.75221 7.02741 8.28635 7.49264 7.82049C8.47753 6.83921 9.45253 5.84802 10.4473 4.8717C11.4421 3.89538 12.9417 3.82599 13.9711 4.69328C15.1194 5.65969 15.248 7.37445 14.2087 8.4598C12.9962 9.72357 11.749 10.9427 10.5117 12.1817C9.40303 13.2919 8.32905 14.4367 7.17094 15.4873C5.90889 16.6272 4.39444 16.87 2.81069 16.2753C1.22695 15.6806 0.291546 14.4912 0.053984 12.8012C-0.158832 11.3491 0.306393 10.1101 1.33088 9.08425C3.73619 6.67071 6.14151 4.26212 8.55177 1.84857C9.75443 0.644277 11.2095 0.0247832 12.912 3.46902e-06Z" fill="#2E2B33"/>
</g>
<defs>
<clipPath id="clip0_817_35">
<rect width="19" height="18" fill="white"/>
</clipPath>
</defs>
</svg>
