<svg xmlns="http://www.w3.org/2000/svg" viewBox="-181.8 142.1 558.6 558.6"><linearGradient id="a" gradientUnits="userSpaceOnUse" x1="-181.124" y1="647.744" x2="213.876" y2="252.744" gradientTransform="scale(1 -1) rotate(45 1109.103 112.353)"><stop offset="0" stop-color="#b64e96"/><stop offset="1" stop-color="#5f52ca"/></linearGradient><path fill="url(#a)" d="M-181.8 421.4L97.5 142.1l279.3 279.3L97.5 700.7z"/><g fill="#FFF"><path d="M174.2 403.4c-11.8.1-19.2 7.5-19.2 19.2-.1 9-.1 17.9 0 26.9.1 2.5-.8 3.7-3 4.4-4.5 1.3-8.9 3.1-13.4 4.2-21.2 4.8-42.7 5.2-64.3 3-10.7-1-21.3-3.1-31.5-7.1-2.1-.8-2.9-1.9-2.8-4.2.2-8.8.1-17.7 0-26.6-.1-12.4-7.3-19.6-19.7-19.6-7.1 0-14 0-21.1-.1-7.2 0-14.5-.1-21.8 0-11.7.1-19.2 7.6-19.2 19.3-.1 9 .1 18-.1 26.9-.2 8.3 2.5 15.4 7.9 21.6 8.7 10.1 19.9 16.8 31.7 22.1 24.5 11.2 50.6 17 77.5 19.4 36.3 3.1 71.8-1.1 106.1-12.9 15.6-5.4 30.2-12.2 42.6-23.4 8.5-7.6 13.6-16.7 12.8-28.6-.4-8.2-.1-16.5-.1-24.7-.1-12.2-7.4-19.6-19.5-19.7-14.2-.1-28.6-.1-42.9-.1zM136.7 380.6l11.5-16.3c-15-10.6-32.7-16.1-51.1-16.3-19.4 0-37.8 6.2-53.2 17.7l12 16c12-9 26.2-13.8 41.2-13.8 14.5.1 28 4.5 39.6 12.7zM97.9 298.1c-32.2 0-62.8 10.2-88.4 29.6l12 16c22.1-16.8 48.6-25.5 76.4-25.6 26.4 0 51.7 8 73.2 23.3l11.5-16.3c-24.8-17.8-54.1-27-84.7-27z"/></g></svg>