<svg xmlns="http://www.w3.org/2000/svg" width="904" height="589">
  <defs>
    <linearGradient id="up-envelop-a" x1="-8.988%" x2="135.734%" y1="-8.641%" y2="112.936%">
      <stop stop-color="#FBFBFB" offset="0%"/>
      <stop stop-color="#DBE0E9" offset="100%"/>
    </linearGradient>
    <linearGradient id="up-envelop-b" x1="48.853%" x2="42.317%" y1="65.372%" y2="10.225%">
      <stop stop-opacity="0" offset="0%"/>
      <stop offset="100%"/>
    </linearGradient>
    <linearGradient id="up-envelop-c" x1="-52.095%" x2="145.922%" y1="-32.952%" y2="123.842%">
      <stop stop-color="#B24E98" offset="0%"/>
      <stop stop-color="#7F51B9" offset="100%"/>
    </linearGradient>
  </defs>
  <g fill="none" fill-rule="evenodd">
    <path fill="#000" fill-opacity=".03" d="M87.26 40.98l30.292 15.11 333.264 244.713L785.37 56.09l29.9-15.355L450.6 318.403 87.26 40.98z"/>
    <path fill="url(#up-envelop-a)" d="M88.24 41.87H87v546.428h726V41.868h-.24L450.5 316.305 88.24 41.87z"/>
    <path id='up-triangle-shadow-2' fill="url(#up-envelop-b)" fill-opacity=".05" d="M7.54.664l563.45 588.908h284.72c26.51 0 48.002-21.488 48.002-48.003V29.97c0-11.296-14.77-29.306-14.77-29.306H7.54z"/>
    <path id='up-triangle-shadow' fill="#000" fill-opacity=".04" d="M.287 3.256L451.36 327.52 892.788 3.257H.288z"/>
    <path fill="url(#up-envelop-c)" d="M88.148 158.147c-4.005-1.878-10.492-1.88-14.504 0l-2.833 1.328c-4 1.878-9.59.694-12.49-2.656l-2.05-2.37c-2.89-3.35-8.82-5.99-13.25-5.9l-3.12.06c-4.42.08-9.04-3.27-10.33-7.51l-.91-3c-1.28-4.23-5.62-9.06-9.7-10.78l-2.88-1.22c-4.08-1.72-6.94-6.66-6.39-11.06l.39-3.1c.55-4.39-1.45-10.56-4.48-13.8l-2.14-2.28c-3.03-3.23-3.63-8.91-1.34-12.7l1.62-2.68C6.02 76.7 6.7 70.24 5.25 66.06l-1.03-2.95c-1.45-4.18.313-9.614 3.947-12.148l2.567-1.79c3.628-2.53 6.874-8.145 7.25-12.56l.268-3.117c.376-4.4 4.196-8.65 8.546-9.49l3.073-.59c4.34-.83 9.59-4.642 11.73-8.52l1.51-2.74c2.14-3.874 7.36-6.2 11.67-5.196l3.05.71c4.31 1 10.65-.34 14.19-3.02l2.5-1.89c3.53-2.67 9.24-2.68 12.77 0l2.5 1.89c3.53 2.67 9.87 4.02 14.19 3.01l3.05-.71c4.31-1.01 9.53 1.31 11.67 5.19l1.51 2.74c2.14 3.87 7.39 7.69 11.74 8.52l3.06.6c4.348.83 8.17 5.07 8.55 9.49l.27 3.12c.375 4.4 3.616 10.02 7.25 12.56l2.567 1.78c3.63 2.53 5.4 7.96 3.95 12.15l-1.024 2.95c-1.45 4.18-.78 10.63 1.51 14.423l1.62 2.68c2.28 3.787 1.69 9.47-1.34 12.703l-2.14 2.284c-3.02 3.23-5.03 9.4-4.48 13.796l.39 3.102c.55 4.39-2.31 9.34-6.39 11.06l-2.88 1.215c-4.08 1.72-8.42 6.54-9.707 10.78l-.907 2.994c-1.284 4.23-5.904 7.59-10.333 7.504l-3.13-.06c-4.42-.085-10.35 2.55-13.25 5.9l-2.044 2.366c-2.9 3.34-8.488 4.53-12.5 2.65l-2.835-1.327z" transform="rotate(-16 1525.375 -1769.967)"/>
    <path fill="#FFF" d="M616.697 422.46c.217.753.433 1.502.65 2.246 1.558 5.378 2.976 10.327 3.95 13.744.628 2.206 1.186 3.85 1.093 4.3-.514 1.63-2.038.69-2.148.244-1.28-5.16-3.133-12.563-4.94-19.862-4.255 2.06-8.196 4.086-11.734 5.955-4.848 2.56-8.103 4.777-8.103 4.777s7.81-5.758 19.49-12.13c-2.967-12-5.703-23.31-5.423-23.406.297-.072 3.49 11.36 6.75 22.69 8.078-4.327 17.855-8.847 28.118-11.975 12.077-4.084 23.127-5.856 31.06-6.612-5.92-17.35-12.21-35.95-11.86-36.11.364-.12 6.93 17.76 12.898 33.49l.933 2.46c6.48-.52 10.43-.34 10.43-.34s-3.79-4.79-6.05-7.77c-3.66-4.83-10.31-14.81-10.31-14.81s6.68 8.67 10.2 12.61c4.13 4.62 12.79 13.17 12.79 13.17s-6.3-.3-15.83.34c1.74 4.6 3.28 8.71 4.45 11.81 1.05 2.81 1.94 4.89 1.9 5.47-.34 2.14-2.23 1.02-2.43.46-1.61-4.743-3.75-10.98-6-17.58-8.58.67-19.39 2.097-30.46 5.07-10.54 3.32-20.59 7.6-29.38 11.8zm38.127-30.732c-4.673 5.02-11.455 9.342-14.085 10.53-18.99 9.744-26.21 3.352-26.21 3.352s6.33 8.764 27.1-2.157c18.22-9.776 22.45-24.872 22.45-24.872s-3.51 6.96-9.27 13.15z"/>
    <path fill="#D5D5D5" d="M671.53 379.353s9.304 9.746 18.73 18.35c4.99 4.466 14.303 11.216 14.303 11.216s-30.188-3.19-54.51 3.28c-11.397 2.78-21.753 6.41-30.303 9.88-14.803 6.01-16.77 7.31-16.77 7.31s4.62-2.56 17.863-8.98c9.357-4.54 20.552-9.12 31.276-11.79 17.49-4.58 42.27-3.66 42.27-3.66s-4.52-4.21-11.15-11.33c-5.57-6.05-11.72-14.31-11.72-14.31z"/>
  </g>
</svg>
